<svg xmlns="http://www.w3.org/2000/svg" xmlns:xlink="http://www.w3.org/1999/xlink" width="220.589" height="249.804" overflow="visible"><g transform="translate(-18.696 -11.982) scale(1.12519)"><path d="M79.688 137.97c-.14 6.366-.288 12.848-.36 14.858-.214 5.885 2.84 21.543 10.47 33.939 7.629 12.396 24.801 20.746 24.801 20.746s10.248-5.73 15.97-10.498c5.722-4.768 14.302-16.464 17.163-25.523 2.861-9.058 1.917-22.634 1.917-22.635l.138-10.72-70.099-.167z" fill="#b3e2ee" stroke="#000" stroke-width=".88874"/><path fill="#3790c0" d="M79.307 113.333h71.759v25.271H79.307z"/><path fill="none" d="M79.307 138.604h71.519v1.908H79.307z"/><path d="M84.313 128.829s0-3.336 1.431-3.336 3.099 1.191 3.099 1.906c0 .715 1.67 2.146.954 3.576-.716 1.43-3.337 2.621-4.053 1.668-.716-.953-.478.24-.478.24s1.192 1.906 2.861 1.906h1.669s.477-.238 1.192 1.43c.715 1.67.715.717.715.717l1.191-2.146v-.477s.716.477 1.908.477c1.191 0 3.099-1.193 3.099-2.385 0 0-1.669.715-2.622.238-.953-.477-1.43-2.859-.715-4.529.715-1.668 1.191-2.621 2.383-2.383s2.385 1.668 1.908 2.859c0 0 2.622-1.43 2.622-3.098 0-1.67-.478-3.577-2.622-3.577-2.146 0-4.768.477-5.245 2.622 0 0 .477-2.384.477-4.052 0-1.668-1.431-4.768-2.146-4.768-.715 0-2.146 2.385-2.146 3.815v5.005s-3.337-3.813-4.769-3.098c-1.43.715-3.963 2.089-3.412 4.143.553 2.055 1.984 3.247 2.699 3.247z" fill="#fcfb00" stroke="#000" stroke-width=".444"/><path fill="#fcfb00" stroke="#000" stroke-width=".444" d="M88.65 129.159h6.675v1.486H88.65z"/><path d="M102.909 119.771s.715.953 1.668.953h3.338s-4.291 3.099-4.291 4.291c0 1.193 1.669 1.432 1.669 1.432s-.238 3.338-.238 4.529c0 1.191.238 1.668 1.192 1.668.953 0-1.192 1.67-1.192 1.67l.238.953.954 1.432 2.383-1.432h9.537l.477-1.43.55.367.165.109.716-.238.715 1.668.953 1.193.954-2.861.715.953s1.193-10.252.478-12.397c-.716-2.146-2.861-5.483-5.007-5.96-2.146-.477-5.961-1.669-8.344-.954-2.385.715-4.769.239-5.007 1.431-.238 1.192.954 1.43.954 1.43s-2.386 1.431-3.577 1.193z" fill="#fac908" stroke="#000"/><path d="M111.967 118.102s.953 3.813 2.623 4.768c1.669.954 2.622 2.385 2.622 4.292 0 1.908.238 4.291.238 4.291l1.192 2.385M119.358 125.731s-1.046 8.602-.165 8.473M105.292 126.446s2.384 0 3.337-.953M109.345 121.439l2.146 1.669-1.908-.239" fill="none" stroke="#000"/><path d="M115.305 128.352s-1.906-.715-2.622.477c-.716 1.193-1.431 1.67-1.431 1.67l5.245-.477s1.191-3.1.477-4.053c-.715-.955-1.669 2.383-1.669 2.383z" fill="#ad8b05"/><path fill="none" stroke="#000" d="M106.247 132.643l2.622-.238.238 2.146"/><path d="M118.881 116.671s-1.67 1.908-3.1 2.146c-1.43.238-1.669 1.193-.238 2.384 1.431 1.191 3.338 3.098 3.576 3.813.238.717.403 7.502.238 8.346-.165.844 1.431 1.43 1.431 1.43l.953 2.146.954-2.861.715.953s1.432-8.582.716-10.967c-.715-2.383-1.192-6.675-5.245-7.39z" fill="#ad8b05"/><path d="M128.656 123.585s-.954-2.146.238-3.814c1.192-1.668 1.908-1.669 2.623-2.146.715-.477 1.907-1.43 2.86-1.192.953.238 2.146.477 2.146.477s1.906-.954 2.622-.715 1.67 0 2.385 1.192c.715 1.192 2.146 2.384 2.146 2.384s1.191 1.668.953 2.622l-.238.954s.953.476 1.191 1.429c.238.955.717 2.861-.238 4.053-.953 1.193-.953.955-1.191 2.385-.238 1.43-2.861 1.67-2.861 1.67s-.001 1.906-.716 1.906-3.1.477-4.053.477c-.953 0-2.384.238-3.1-.238-.716-.476-1.43-1.906-1.43-1.906s-2.385-.002-3.1-.955c-.715-.953-1.192-1.906-1.431-3.576-.238-1.668-.477-2.861-.477-3.576 0-.715.956-1.193 1.671-1.431z" fill="#faf2ec" stroke="#000"/><path fill="none" stroke="#000" stroke-width=".444" d="M136.761 129.307l.477 3.336"/><path fill="none" stroke="#000" stroke-width=".465" d="M140.416 127.41l3.011.454"/><path d="M139.384 123.108s1.429-1.908 1.668-2.623M134.377 122.631l-2.145-1.669M133.901 126.446l-2.861 1.668" fill="none" stroke="#000" stroke-width=".444"/><path d="M115.305 146.709l-30.941 27.842s4.002 9.826 4.717 11.018c.716 1.191 26.225-23.363 26.225-23.363l24.794 23.363s6.436-9.059 6.436-10.25l-31.231-28.61z" fill="#f8341d"/><path d="M92.418 143.848l.238 4.291s1.908.24 1.908-.953c0-1.191-1.193-2.859-.716-4.053.478-1.191 3.814-1.906 5.007-.477 1.191 1.43 1.906 2.383 1.668 3.338-.238.953-1.669 1.668-2.384 1.668-.715 0-1.431-.953-2.146.238-.715 1.193 3.814 1.432 3.814 1.432s-2.861-.238-3.576.238c-.715.476-1.192 1.906 0 1.668s0 1.668 1.669.477c1.669-1.191 3.099-2.145 3.814-1.191.715.954.954 3.338-1.192 5.484-2.145 2.145-3.338-.479-3.338-.479s.478-2.145-.477-2.383c-.953-.238-2.859-.955-2.383 0l1.906 3.814s-2.385-2.861-3.1-2.385c-.715.476-.953 1.193-.477 2.146.476.953 1.908 1.668 1.908 1.668s1.43 1.432.238 2.146c-1.192.715-2.385.715-4.053.715-1.67 0-3.338-1.432-2.861-2.146.477-.714 1.906-.238 2.384-2.145.478-1.908 0-2.385 0-2.385l-2.86 2.146 2.384-3.814s-.239-1.668-1.431-.715c-1.192.953-1.431 1.43-1.907 3.098-.477 1.67-2.384 1.193-3.575-.238-1.193-1.43-2.385-4.527-1.193-4.768 1.193-.238 3.338-.715 3.814.477.478 1.191 2.623-.238 2.623-.238l-2.384-2.145 2.146.238s.953-.953 0-1.67c-.953-.715-3.1.953-3.814.238s-.477-3.574 1.43-4.529c1.908-.953 4.054-1.432 4.054-.715 0 .715.954 1.191.238 3.1-.716 1.906-.238 2.621.716 2.621.955.003 1.908-3.812 1.908-3.812z" fill="#f8341d" stroke="#000" stroke-width=".444"/><ellipse ry="1.313" rx="1.43" cy="150.881" cx="91.941" fill="#f8341d" stroke="#000" stroke-width=".444"/><path d="M137.715 144.088l.238 4.291s1.907.238 1.907-.953c0-1.193-1.192-2.861-.716-4.053.478-1.193 3.814-1.906 5.007-.477 1.191 1.43 1.906 2.383 1.668 3.336-.238.955-1.67 1.67-2.385 1.67-.714 0-1.429-.955-2.144.238-.716 1.191 3.814 1.43 3.814 1.43s-2.861-.238-3.576.238c-.715.476-1.193 1.908 0 1.67 1.191-.238 0 1.668 1.667.477 1.67-1.191 3.1-2.145 3.814-1.191.717.953.955 3.338-1.191 5.482-2.145 2.146-3.337-.477-3.337-.477s.477-2.146-.477-2.385c-.954-.239-2.86-.953-2.384 0l1.907 3.814s-2.385-2.859-3.1-2.383c-.715.476-.953 1.191-.477 2.145s1.907 1.67 1.907 1.67 1.431 1.43.238 2.145c-1.193.715-2.384.715-4.053.715s-3.337-1.43-2.86-2.145c.477-.715 1.906-.238 2.383-2.146.478-1.906 0-2.383 0-2.383l-2.86 2.145 2.384-3.814s-.238-1.668-1.43-.715-1.432 1.43-1.908 3.1c-.477 1.668-2.383 1.191-3.575-.238-1.192-1.432-2.385-4.529-1.192-4.768 1.192-.24 3.338-.715 3.814.477s2.623-.238 2.623-.238l-2.385-2.146 2.146.238s.953-.953 0-1.668c-.954-.717-3.1.953-3.814.238-.716-.715-.478-3.576 1.43-4.529 1.907-.955 4.053-1.432 4.053-.717 0 .717.954 1.193.238 3.1-.715 1.908-.238 2.623.716 2.623s1.91-3.816 1.91-3.816z" fill="#f8341d" stroke="#000" stroke-width=".444"/><ellipse ry="1.311" rx="1.431" cy="151.122" cx="137.238" fill="#f8341d" stroke="#000" stroke-width=".444"/><path d="M98.379 190.577s4.291 1.191 4.768 2.859c.477 1.67 1.191 4.531 1.191 4.531s20.504.715 21.695.477c1.191-.238 2.622-2.861 2.86-3.814.238-.955 1.907-2.385 1.907-3.1 0-.715-2.146-.717-4.053 0-1.907.715-3.576 1.43-7.867 1.43s-10.252.477-12.396 0c-2.146-.477-2.86-2.145-8.105-2.383z" fill="#b3601a" stroke="#000"/><path fill="#fee591" stroke="#000" d="M108.391 171.266l-1.191 22.17"/><path fill="none" stroke="#000" d="M121.503 171.028l-.953 22.17"/><path d="M108.391 174.364s-12.396 11.922-12.396 13.828c0 1.908 4.529.477 5.722.953" fill="#fff" stroke="#000"/><path d="M121.503 177.225l3.195-2.236 1.573-1.102v2.623c0 1.908.238 7.629 1.431 9.535 1.193 1.906 2.86 3.338 1.907 3.576-.953.238-4.054.955-5.483.955-1.429 0-3.338-.717-3.338-.717l-1.192.24s-.715-.717-3.099-.717c-2.384 0-3.576.717-6.437.717s-6.199.715-7.629-.24c-1.431-.953 0-3.098.953-5.482.953-2.383 5.96-4.768 9.059-8.105 3.1-3.338 8.821-4.529 8.821-4.529l3.434 3.246" fill="#fff" stroke="#000"/><path fill="#fee591" stroke="#000" d="M108.391 174.842l4.053 1.43"/><path d="M115.305 176.034s.953 10.727 3.814 13.35M112.444 179.372s.477 6.436 5.245 8.582M122.696 183.186s.715 6.199.715 6.914M124.365 182.471s1.191 3.813 2.86 5.244" fill="none" stroke="#000"/><path d="M134.377 122.631s.001-1.43 1.192-1.43 2.383-.477 3.099 0c.716.477.238 1.668.238 1.668l1.907.478s.478 2.146.478 2.861c0 .715-1.192.953-1.192.953l.238 1.43-2.146 1.193-1.431-.477-1.431.715-2.146-2.146.716-1.43-1.431-.238s-.477-1.43.238-2.385c.717-.954 1.671-1.192 1.671-1.192z" fill="#d2439b" stroke="#000" stroke-width=".444"/><circle r="1.55" cy="125.612" cx="136.88" fill="#b0512f" stroke="#000" stroke-width=".444"/><path d="M147.729 171.504c-2.861 9.059-11.444 20.74-17.166 25.508-5.722 4.768-15.973 10.49-15.973 10.49s-17.165-8.346-24.794-20.742c-7.629-12.396-10.677-28.043-10.464-33.928.176-4.871.696-30.203.87-38.784h69.874l-.441 34.807c0 .001.955 13.591-1.906 22.649zm5.244-57.455v-2.861H78.591s-1.192 38.143-1.192 44.58c0 6.437 3.1 19.787 8.105 28.371 5.008 8.582 18.835 20.025 21.457 21.693 2.622 1.67 7.867 4.053 7.867 4.053s12.159-5.959 14.781-8.82c2.622-2.861 9.298-7.389 13.828-15.734 4.529-8.344 6.912-11.443 8.582-20.264 1.668-8.82.477-26.463.477-26.463l.428-24.555h.049z" stroke="#000" stroke-width=".711"/></g><g stroke="#000"><path fill="#4a8418" d="M110.292 37.557l5.663.267-.398 24.984-8.328.333 1.131-21.253z" stroke-width="1.12519"/><path d="M118.554 33.624s-.533 2.131-.2 3.398c.333 1.267 10.526 19.922 11.26 21.52.734 1.6.8 2.266.6 3.066-.2.8-5.598 3.131-8.395 2.132-2.798-1-1.533-1-1.8-3.264-.266-2.265-3.464-17.057-4.53-18.056-1.065-1-1.265-.4-1.265-.4l.333-4.929 3.73-3.798.267.331zm-11.659-10.593s-.999-.267-1.398 1.398c0 0-1 .2-1.334 1.8 0 0-.8-.067-1.132 1.333 0 0-1.265.133-1 1.932 0 0 1.134 1.266 1.866 1.932l4.33.28-.399-8.53-.933-.145z" fill="#fee591" stroke-width="1.12519"/><path d="M103.549 6.446s-.599 10.195 0 10.927c.599.733 2.133 1.932 2.999 1.932.865 0 5.596-1.065 5.596-1.065s-3.199-3.865-4.864-5.93a30.3 30.3 0 01-3.731-5.864z" fill="#f8341d" stroke-width=".49958435999999995"/><path d="M106.013 1.716s-.4 2.932-.133 4.331c.267 1.399 1.465 4.464.534 6.796-.932 2.333.867 6.397 2.266 6.463 1.398.067 4.396-.066 4.664-.799.268-.732-.068-9.727-2.265-11.127-2.2-1.4-4.598-2.733-5.066-5.664z" fill="#f8341d" stroke-width=".49958435999999995"/><path d="M113.01.25s-2.998 5.13-2.798 6.73c.2 1.599-.334 7.061.2 8.794.533 1.733 1.598 2.666 2.93 2.732 1.333.067 1.199-.266 1.999-.6.8-.333.533-10.66-.733-12.258-1.265-1.6-1.998-4.532-1.598-5.398z" fill="#f8341d" stroke-width=".49958435999999995"/><path d="M118.94 3.715s-4.799 1.799-4.931 6.063c-.133 4.265-.732 8.129-.399 8.795.333.666 2.598 1.332 3.73.533 1.132-.799 2.333-4.264 1.933-7.529-.399-3.264-.686-3.459-1.199-4.997-.2-.6-.335-1.6.865-2.865z" fill="#f8341d" stroke-width=".49958435999999995"/><path d="M106.029 19.692s2.732-.6 4.53-.6 5.397 0 6.796.6l-.267 1.932-.866-.133s-3.199-.533-8.463 0l-1.065.133-.665-1.932z" fill="#4a8418" stroke-width="1.12519"/><path d="M107.361 22.025s1.558 20.465 1.733 22.39c.267 2.934 2.133 17.787 2.133 17.787l3.93-29.58 1.199-10.661c0-.002-4.531-.739-8.995.064z" fill="#4a8418" stroke-width="1.12519"/><path d="M107.162 25.827s-.667 2.198-1.133 2.732c-.466.533-2.332 2.332-2.332 4.463 0 2.131-1.4 5.93-2.465 7.862-1.065 1.932-8.394 16.125-8.993 19.257-.6 3.13 4.796 6.395 6.128 6.395 1.333 0 3.198-2.132 3.998-4.264.8-2.133 3.731-13.126 4.064-15.39.333-2.266 1.732-5.263 2.665-6.063.933-.8 2.532.199 4.73-2.865 0 0 4.732-4.33 4.665-5.33-.066-1-.266-2.6-.266-2.6s.533-1.664 0-2.264c-.534-.6.533-2.332-.334-2.665-.866-.333.068-.799-.932-.732-1 .066-.867 0-.867 0s.466 1.465-2.266 3.464c-2.732 2-4.597 3.264-5.597 2.732-.999-.532-1.065-4.732-1.065-4.732z" fill="#987744" stroke-width="1.12519"/><path d="M111.359 25.162s2.732 1.133 2.732 1.865c0 .733-1.2 1.132-1.2 1.132s-1.998-1.264-1.532-2.997z" fill="#fee591" stroke-width="1.12519"/></g><g stroke="#000" stroke-width="1.125"><path d="M167.031 89.844c-1.652.035-3.343.375-4.187.937-1.688 1.125-2.531 7.875-2.813 9.844-.117.817-.57 3.485-1.062 6.313-.58-3.44-2.248-8.613-4.282-9.97-2.531-1.687-4.5-1.406-5.343 1.126-.844 2.531-3.657 8.156-3.657 8.156s3.656-4.219 5.344-4.781c1.688-.563 2.25 1.406 2.25 2.531 0 .246.121 1.078.313 2.219-.95-.679-2.117-1.003-3.407-.25-3.375 1.969-10.968 6.187-10.968 6.187h.843l6.75-2.25c1.688-.562 4.22.844 5.344 2.531.171.256.39.639.656 1.063.282.541 1.594 1.468 1.594 3.438.356.594.59 4.357.844 4.78.47 1.187.467 1.524.406 2.344h6.125c.794-4.06 1.969-7.468 3.031-8.53 1.688-1.689 2.531-1.125 4.5-2.813 1.97-1.688 5.625 0 6.75 0 1.126 0 3.938-.844 1.125-1.688-2.812-.844-4.78-1.687-8.718-1.687-.923 0-1.71.23-2.344.562.42-1.19.85-2.485 1.5-3.656 1.406-2.532 3.937-6.469 5.906-6.75 1.97-.281 10.406-.844 10.406-.844-2.047 0-6.876-1.829-9.53-2.531 1.634.323 3.042.26 2.218-.563-1.406-1.406-4.219-3.374-5.625-4.78-.703-.704-2.316-.973-3.969-.938zm.688 3.218c1.186.093 2.296 1.094 3.562 1.938.537.357 1.414.7 2.313.937-.242-.046-.464-.093-.625-.093-1.688 0-3.937 1.968-5.907 3.937-1.969 1.97-4.78 10.969-4.78 10.969l-.532 1.469c.57-1.986 1.168-4.264 1.656-5.406.844-1.97 1.406-12.657 3.094-13.5.422-.211.823-.281 1.219-.25z" fill="#4a8418"/><path d="M155.625 124.656c-.054.679-.094 1.565-.094 3.25 0 5.626-.562 35.75-.281 42.219.281 6.47-3.375 39.938-3.375 39.938 9.283.28 13.219-1.97 13.219-1.97S162 175.19 162 167.876s-1.406-29.561-1.125-36.313c.096-2.298.372-4.678.781-6.906h-6.031z" fill="#ad8b05"/><path d="M157.77 114.695v31.224c0 4.501-.282 64.136-.282 64.136" fill="#fee591"/><path d="M158.05 126.229l2.814.28m-5.345 3.939l1.688-.281m.563 2.531l2.25.282m-4.782 2.531l2.25-1.125m.563 3.376h2.813m-5.345 1.969h2.25m.563 3.375l2.813-.28m-6.188 2.812l2.813.281m.28 1.407l2.814.281m-5.626 3.657l2.25-.563m.844 2.25h3.657m-6.751 3.658l2.532.281m0 1.688h3.375m-6.188 2.813h2.25m.844 3.375h3.375m-6.188 1.688h2.25m.563 3.657l3.938-.563m-6.47 2.532l1.688.281m.563 3.095l4.5.562m-4.782 7.033l5.064.28m-7.595-3.937h2.531m.282 8.439h5.626m-8.72-1.97l2.812.282m0 8.72s1.095-.156 2.387-.267c1.71-.147 3.763-.213 4.083.267m-9.564-3.094l3.657.281m-.844 9.564l4.5-.281h3.095m-11.533-1.407h4.782m-.281 7.314l4.5-.844h2.813m-12.94-.281l5.627-.563m3.938-47.82s.281 50.07.562 50.915" fill="none"/></g><path d="M62.973 103.443s3.095-5.907 7.314-8.157c4.22-2.25 9.283-2.532 10.97-.844 1.689 1.688 1.97 4.782 1.97 4.782s-1.35-.07-2.798-.177c-1.436-.105-2.971-.245-3.39-.386-.845-.28 5.063 2.25 2.25 2.25-2.813 0-4.782-.843-4.782-.843l2.25 2.25s-2.532 0-3.657-.281-4.22 1.125-4.22 1.125l1.97.844s-2.25 1.125-3.095 1.125c-.843 0-.28 1.97-.28 1.97s1.124-.282 4.219-.282c3.094 0 8.157-.281 10.126 1.407 1.97 1.687 4.501 5.625 4.501 5.625s-3.375-.562-4.782-1.687c-1.406-1.126-2.813-1.688-2.813-1.688s1.688 2.25 1.125 3.375c-.562 1.126-3.094-1.125-3.094-1.125l-3.094-3.657s-.563 1.126-.282 2.813c.282 1.688-3.375-1.687-3.375-1.687l.844 3.656-1.688 2.813s-1.125.844-1.97 0c-.843-.843-2.25-3.375-2.25-3.375l-1.125 1.969-1.406-1.407v1.407l-1.688-.844-1.125 1.125-1.688-1.969-.281-2.532-.844.844-2.532-.844-1.406 1.407-1.125-1.407-1.126 1.126-3.375.562s-1.688 1.407-3.095.563c-1.406-.844-1.969-1.688-1.969-1.688l-1.687-1.406s3.375-2.25 6.188-2.532c2.813-.281 7.314-.281 8.72-.281h2.532l-5.345-2.813 2.25-.563h2.251s-2.25-1.969-3.938-1.969c-1.688 0 2.813-1.97 2.813-1.97l-6.189.845 2.532-2.25-5.063 1.406 3.094-3.938-7.595 2.813s.563-2.532 2.25-2.813c1.688-.282-6.47.844-7.595 1.406-1.125.563-.562-2.813 4.22-4.22 4.782-1.406 7.876-1.968 11.252-1.124 2.2.55 7.313 3.375 10.126 11.251z" fill="#4a8418" stroke="#000" stroke-width="1.12519"/><path d="M60.723 114.414s1.97 16.034 1.125 21.941c-.844 5.908-2.25 25.317-2.25 30.38 0 5.064-2.532 41.914-2.532 41.914s5.345 1.406 6.751.281c1.407-1.125 0-.844 0-.844s.563-36.006.844-39.382c.282-3.375 1.407-27.285 1.125-30.38-.28-3.094.563-9.001-.28-25.879 0 0-1.407-2.813-4.783 1.97z" fill="#ad8b05" stroke="#000" stroke-width="1.12519"/><path style="marker:none" d="M64.099 203.585s-1.688 4.782-5.345 5.064c0 0 2.813 1.125 5.063.281l.282-5.345zm0-7.032s-1.97 5.063-4.501 5.063h4.782l-.281-5.063zm-.282-9.002s-1.125 7.314-2.813 7.877c0 0 3.095.281 3.376-.563.281-.844-.563-7.314-.563-7.314zm.563-5.907s-1.125 4.22-4.5 5.064c0 0 3.375.28 4.5-.282v-4.782zm.281-6.188s-.562 4.5-2.813 4.782l2.25-.282.563-4.5zm0-6.752s-1.125 5.064-3.094 5.064c0 0 1.406.562 2.813-.844 1.406-1.407.281-4.22.281-4.22zm.563-6.47s-1.97 5.627-4.22 5.908c-2.25.281 3.095-.844 3.095-.844l.844-.281.28-4.782zm-.281-5.063s-.844 2.25-2.813 3.095c-1.97.843 3.094.28 3.094.28l-.281-3.375zm.562-6.188s-1.125 4.782-3.375 4.782c0 0 1.969.844 3.094 0 1.125-.844.281-4.782.281-4.782zm.563-4.22s-2.532 2.532-4.501 3.095c0 0 2.813 1.125 3.938 0 1.125-1.126.563-3.095.563-3.095zm-.282-5.626s-1.969 4.22-3.656 3.938c0 0 3.375 1.407 3.656 0 .282-1.406 0-3.938 0-3.938zm0-7.032s-1.687 4.22-3.094 5.345c-1.406 1.125 2.532.562 3.094-1.126.563-1.687 0-4.22 0-4.22z" color="#000" fill="#221c17" overflow="visible"/><g id="a"><path d="M-57.533 178.583s1.5 3.75 1.25 7.5-1.75 5-.5 6 3.5 4 5.75 4.25 3.75 2.25 3.25 3.5.25 1.75.25 1.75 2.871-1.914 2.752-3.396a1.067 1.067 0 00-.252-.604c-1.25-1.5 3.5-.25 4.5 1.75 0 0 0-4-1.5-4.5 0 0 1.25-.75 2.25.5s0-3-2.25-3.5-3-.75-5-1-3.5.75-5-1-1.5-8.5-1.5-12.25l-4 1z" fill="#d35226" stroke="#000" transform="translate(101.304 -11.982) scale(1.12519)"/><path d="M-49.033 134.333s-2.5.75-3.5-2-.75-5-.25-6.5l1-3s4.75-14.25 5-19.5-.5-4.5-.5-9 1.5-10.75 2.75-11.25c0 0-3.75-.25-4.25 1.25s-.5 13-2 18.5-1.5 1.25-1.5 1.25-2.25-12-1-17.5l.75-2.5s-4.25 1-4.5 4.25-.25 17-.25 19.75-1.25 1.5-1.25-.5-.5-14.5-.75-16-2.5-1.5-2.5-1.5-1.75 5.75-1 9.75.75 5 .75 5-2-4.5-3-3.75-.5 9-.5 9l1.75 2.5s2.75 13 3.75 16.5 3.75 11.25 11 5.25z" fill="#b3e2ee" stroke="#000" transform="translate(101.304 -11.982) scale(1.12519)"/><path d="M-60.783 120.583s-3-8.75-6-11.75-7.5-7.25-10.75-12.5c0 0-2.25-4.75-2.5-6.75s-3-2-3-2-1.25 4-1 5.75-.25 2.75 1.25 5.5-3.75-4.5-3.75-4.5-2.5 4.5-.75 9 3.25 5.75 3.25 5.75-4-2.75-4.75-2-1.5 4 .75 6.75 4 4 4 4-4.75 0-5 .75 1.25 3 2 4.5 2.25 4 3.5 4.25l1.25.25s-3.75 1.25-3.75 2.5 2 2.25 2 2.25 3.25 1 4 1-1 1.5-1 1.5-2 3.25-1 3.75 4.75.75 4.75.75-4.75 2.5-4.5 4.5 1 2.25 1 2.25 4.5-.25 5.25-1-1.5 6-.25 6.5 5.25-1 5.25-1 .25 3.25.25 4.5 2.75 1.5 4.25-1.75 1.75 5.75 1.75 5.75-9.5 27.25-9.75 32.75c0 0 5.5-3.75 8.25-6.5s7.5-6.5 9.25-6.25 3.75-.5 3.75-.5.5-2 2.75-4.25l4.75-4.75.25-17.25 2-10-2-7.75-11.5 2.75-4.5-7 .25-9.75z" fill="#b3e2ee" stroke="#000" transform="translate(101.304 -11.982) scale(1.12519)"/><path d="M-44.033 109.583s-1-5-2.75-6.25-5.75-2-7.5-1.25-4.75 4.5-4.75 7.25.25 5.5 2.5 8.25 10.75 9.25 9.25 15c0 0-1.25 3-5.5 3s-4.75-2.5-5.25-4.25-.5-8-.75-10.75-2.25-5.75-5-8c0 0 .75 3 .75 7s-1.5 7.75 0 10.75 3.75 6.5 6.5 7 5.75 0 8.5-.25 2-1.75 2.75.75 1.25 6.75-.25 10.75-2.5 8.75-5.25 11.75-4.5 5.5-3.25 6.25 3.25-.75 4.5-.75 2.5-1.25 2.75.5.25 3.5 2.5 4 5.5-.25 6-1 .5-5.25.5-5.25l-2.75-1.75s3.25-4.25 3.25-5.5 1.967-27.75 1.967-27.75-5.217-5.25-6.967-7.25-3-2.5-4.5-5.5 2.75-6.75 2.75-6.75z" fill="#6fc8dd" stroke="#000" transform="translate(101.304 -11.982) scale(1.12519)"/><path d="M-46.533 109.833s0-3.25-2.25-4-6.25-.75-7 2.25-.75 3.5.75 6 3.75 5.5 6.25 8.25 2.25 6 3.5 8 4.75 3.25 4.5 1-1.25-5.25-2.5-6.25-4-4-7-7-4-5-3.5-6 .75-.75 2-.25 2.25 1 2.25 1l3-3z" fill="#b3e2ee" transform="translate(101.304 -11.982) scale(1.12519)"/><path d="M-51.783 122.833s-1.75 3-1.75 5.75 1 3.75 1 3.75-2 1.75-3 .75-2.75-3.5-.25-6.75l2.5-3.25.25-2 1.25 1.75z" fill="#6fc8dd" transform="translate(101.304 -11.982) scale(1.12519)"/><path d="M-74.783 150.583c1.75-.5 8-7.75 8-7.75M-49.783 145.333s-.25 5.25-1.25 7.75-3.25 4.75-3.25 4.75l-1-2s-3 4-4.5 4.5c0 0-1.5-2.75-1-5.25 0 0-2.25 4-3.5 4l-.25-4" fill="none" stroke="#000" transform="translate(101.304 -11.982) scale(1.12519)"/><path d="M-50.227 145.496c-.43-.102-1.035-.006-1.46.04-.122 2.28.7 3.66-.21 5.69-.73 1.622-3.131 3.399-2.97 5.206 3.32-.082 4.892-7.924 4.64-10.686m-2.556.587c-.52 2.252-.404 5.123-1.307 7.238-1.197 2.813-3.389 3.715-5.398 5.486.227-1.373 1.434-2.369 2.018-3.656.605-1.33.72-2.693.951-4.123.371-2.279.256-7.063 3.236-4.945m-5.884.077c.482-.012 1.113.346 1.719.275-.215 1.303-1.207 2.037-1.656 3.28-.315.873-.233 1.752-.382 2.61-.05.28-.122.559-.243.834-.61 1.39-2.811 3.553-4.137 4.227-.42-2.293 1.004-4.238 2.199-6.121 1.136-1.787 1.648-3.16 2.5-5.105m-4.116-2.116c.611 1.695 1.404 1.715.938 3.438-.229.842-1.594 2.822-2.125 3.58-1.113 1.588-3.207 3.848-5.08 4.332-.229-2.05 2.916-3.793 3.72-5.594.878-1.975 1.343-4.133 2.298-6.256m-12.25 7.693c.84-3.8 5.851-6.447 8.751-8.78 2.141 1.317.938 3.509-.752 4.78-1 .75-3 3.75-5 3.25 0 0-1 1-3 .5m5-11.077s-.5 2.25-2 3.25-5 2-6.5 2.25l-.5-2.5s6.25-1.25 9-3zm-1.25-3.077s-.5 1.25-2.25 1.25-6.5-.75-6.5-.75 7-2.75 8.75-.5zm-.75-5.5s-2 .75-3.75.75-6.5-.5-7.5-1.75 1.5-.75 4.25-.75 6.75.75 6.75.75c-7.25-.25-9.5-.5-9.5-.5m-5.25-10.5s1.25 2.25 3.75 4.25 5.25 2.5 7 2.5 3.75.75 3.75.75l.75-1.75s-1.25-.5-3.25-.5-6.25-1-7.5-2.25-2.75-3-4.5-3zm-1-12.5s1.5.75 3 2.75 3.75 6 8.5 9.25c0 0-5-1.5-7.5-4s-4-5.5-4-6.25v-1.75zm3-10.75s1.75 2.75 2.5 5.25 6.25 9.5 7 10.5-4.5-.5-6.25-3-4.25-7.5-4.25-9.5.25-3 1-3.25zm13.5 11.75s-8.5-10.25-8.75-14c0 0-2.25 1.75-.25 5.25s6.75 8 9 8.75zM-48.033 165.833s-3.5 5-4.75 6.75-3 4.25-2.5 5 5.25-4 7-6 .25-5.75.25-5.75zm-12.75-7.5s-5.25 23.25-10.75 30c0 0 3.5-13.5 5.5-20.5s3-9.5 3-9.5l2.25-3.25v3.25z" fill="#6fc8dd" transform="translate(101.304 -11.982) scale(1.12519)"/><path d="M-39.033 154.583s-8.5 5.75-8.5 7.75 3.5-1 4.75-2.75 5.5-4.5 3.75-5z" fill="#b3e2ee" transform="translate(101.304 -11.982) scale(1.12519)"/><path d="M-27.316 152.833s2.25 2.25 2 5.25-.25 3.5-.5 5.75 1.75 4.25-.5 4.5c0 0-2-1.25-3-.75s-2.75 1-2.75 1l-.5-2s2.157-.984 2.25-2.75c.25-4.75 3-11 3-11z" fill="#d35226" stroke="#000" transform="translate(101.304 -11.982) scale(1.12519)"/><path d="M-48.033 110.083s-.75-2.25-2.75-2-2.25 1.5-2.25 1.5.75 1 1.75 1 1-.25 3.25-.5z" fill="#fff" stroke="#000" transform="translate(101.304 -11.982) scale(1.12519)"/><path d="M-66.973 142.497s-4.56 5.32-6.688 6.688m-7.75-19.001s6.078 1.217 8.358.912m21.77 14.487s-1 9-2.5 10.25m-1.75-9.5s-2 8.25-3.75 12.25m-.5-12s-3 8-4 8.75m.5-11s-5.5 10.75-6.25 10.75m-10-11c2.25.25 9.25-4.75 9.25-4.75m-1.75-3.5s-6.25 1.25-8 1.25m7.5-11.75s-3.25-.75-6.25-1.25-7.5-4.5-7.5-4.5m13 1s-9.25-4-10.5-7-3.25-4.25-3.25-4.25m12.75 5s-8.25-9-9.75-13.5m2.75-8c1 6.75 10.5 17.25 10.5 17.25" fill="none" stroke="#000" transform="translate(101.304 -11.982) scale(1.12519)"/><path d="M-47.783 142.583s.25 4.25-3.5 3c0 0-1.75 2-4.5-.25 0 0-2 3.75-4.25.5 0 0-2 2.25-3.25-1.5 0 0-3.75 1.75-3.75-2.25 0 0-4.25-1.5-2.75-4.25 0 0-4 .25-1.75-4.75 0 0-3.5-3.5 0-4 0 0-3.5-2-1-3.75 0 0-4.25-3.5-.75-4.75 0 0-2.25-4 0-4.5 0 0-2.25-3.5.25-3.5 0 0 0-3.25 2.25-2.5 0 0-.5-4.5 2.25-3" fill="none" stroke="#000" transform="translate(101.304 -11.982) scale(1.12519)"/><path d="M-44.783 108.083s1.75 4 3 4.75 12 7 13.5 7.75 4 4.25 3.25 5-1.25-2-3.75-1.75-6.5-1.75-7.75-2-5.5-2.25-7.5-4-5.5-2.75-5.5-5v-2.25s.25-1.25 1.5-.5 1.5-1.75 1.5-1.75.75-1.75 1.75-.25z" fill="#d35226" stroke="#000" transform="translate(101.304 -11.982) scale(1.12519)"/><path d="M-47.533 112.833s4.25 2.25 8 4 10.25 5.75 11.5 6.5" fill="none" stroke="#000" transform="translate(101.304 -11.982) scale(1.12519)"/></g><path d="M35.406 68.563s-2.25 5.063-.281 7.595c1.97 2.531 5.626 2.25 5.626 2.25s-3.657-4.22-1.688-5.626c1.97-1.406 3.094-3.938 8.72 0C53.41 76.72 57.91 84.034 63.536 88.253c5.626 4.22 11.815 7.314 16.034 7.595 4.22.282 7.595.563 12.658.282 5.064-.282 8.44-1.97 8.44-1.97l-14.91-8.438-3.656-5.908s-5.345 1.688-6.189-2.531c-.844-4.22-.562-9.846-.562-9.846l-8.158-.28-1.97 4.5-7.032 1.125-3.094-9.845-5.907 3.938-7.595-2.532-6.189 4.22zM61.004 53.091s4.782-8.439 8.158-8.72c3.376-.281 5.345-.844 5.345-.844s.844-1.969 4.22-3.657c3.375-1.688 4.781-.562 4.781-.562s-.844 5.344.844 6.47c1.688 1.125 5.063 1.969 5.063.843 0-1.125 0 3.939-1.125 4.782-1.125.844-1.125 3.939-8.72 3.376 0 0-.281.844-3.657 3.094-3.375 2.25-4.5 0-8.439-1.406l-6.47-3.376zM129.922 82.627s.844 2.25 2.813 2.25c1.97 0 4.501-.562 3.938-2.25-.562-1.687-1.125-2.813-1.125-2.813s3.657-.562 4.22 1.126c.562 1.687 1.687 2.813 2.813 1.406 1.125-1.406 4.22-5.344 3.375-9.001-.844-3.657.844-6.47-7.314-5.345 0 0 3.657-4.22 7.033-3.657 3.376.563 3.376 4.5 5.626 4.5 2.25 0 2.25-2.25 2.25-4.781 0-2.532-1.125-8.72-4.22-9.564-3.093-.844-5.906-3.095-5.906-3.095l4.5-3.375s11.534.281 12.659 3.375c1.125 3.095 3.094 9.002 1.406 12.94-1.688 3.938-2.25 5.626-.562 5.907 1.687.282 4.22-1.687 4.5-5.907.282-4.22 2.813-3.657 3.657-5.626.844-1.969 2.25-4.782 1.407-5.626-.844-.844 2.531 1.125 2.531 4.501 0 3.376 1.688 4.5 2.25 2.813.563-1.688.845-3.094 2.814-3.094s1.688 1.406 3.657.281 4.22-2.532 4.5-3.376c.282-.843 1.126 2.813.844 4.782-.281 1.97-1.969 2.813-1.688 3.657.282.844 5.345 3.376 4.783 7.314-.563 3.938-.282 7.314-10.971 8.439 0 0 2.532-1.97 1.969-4.5-.563-2.532 1.688-1.97-.563-2.532-2.25-.563-9.282 3.938-13.783 9.282-4.5 5.345-8.158 8.158-13.221 10.408-5.063 2.25-18.566 5.345-22.223 5.064-3.657-.282-2.813-3.095-2.813-3.095l.844-10.408z" fill="#23365d" stroke="#000" stroke-width="1.12519"/><path d="M142.018 37.057s-.563 2.532 1.407 3.657c1.969 1.125 5.626 1.97 5.626 3.938 0 1.97.562 3.095.562 3.095s3.938-1.407 5.345-.282c1.406 1.125 4.782 3.376 4.782 3.376s-3.657-.563-5.907.281-5.908.844-5.908 3.376c0 2.531.282 5.063.282 5.063s-4.22-.281-4.782-5.063c0 0-2.532 1.969-5.064 1.406-2.531-.562-5.063-3.094-5.344-7.314 0 0 2.813 0 4.5-1.687 1.688-1.688 4.22-1.97 4.22-1.97s-2.532-2.25.281-7.876zM81.258 80.377s-4.501 0-4.501-1.969c0-1.97 0-4.782.281-6.751.282-1.97 3.376-4.5 3.376-4.5s1.688-1.689 0-3.095c-1.688-1.407-4.22-3.094-7.033-1.97-2.813 1.126-2.531 3.658-2.531 3.658s-2.532-1.97-1.407-3.657c1.125-1.688 1.97-3.657 1.97-3.657s-1.688-.281-2.532-1.125c-.844-.844-.844-1.97-.844-1.97s2.813 1.688 3.657.563c.844-1.125 2.531-1.406 2.25-2.25-.281-.844-.281-3.094-2.532-4.501-2.25-1.406-5.063-1.688-6.47-.844-1.406.844-3.938 2.813-4.219 5.626-.281 2.813 1.407 8.72 1.407 11.252s.28 7.314.28 7.314l3.095 3.375s.281-2.813 2.532-4.782c2.25-1.969 3.375-1.969 4.5-1.969 1.126 0 0 4.5.844 6.751.844 2.25 1.97 4.501 7.877 4.501z" fill="#b3e2ee" stroke="#000" stroke-width="1.12519"/><path d="M63.817 71.938s-2.813 1.407-3.938.281c-1.125-1.125-2.813-1.406-3.094-5.344-.281-3.938-.281-5.907-2.25-7.595-1.97-1.688-3.939-3.657-3.376-4.782.563-1.125 2.813-3.095 2.813-3.095s-2.813-1.687-4.22-.562c-1.406 1.125-2.25 4.5-2.25 4.5s-2.532.282-6.188.282c-3.657 0-3.939-1.688-3.939-2.813 0-1.125-.28-1.97-.28-1.97s-5.064 1.689-5.064 3.658c0 1.969 2.531 6.188 2.531 6.188s1.126 1.97-.28 2.813c-1.407.844-3.939 3.938-2.814 8.158 1.125 4.22 5.345 6.751 9.283 6.751 0 0-6.189-3.094-4.5-6.189 1.687-3.094 1.687-5.344 5.063-5.344 3.375 0 8.438 3.094 8.438 3.094s1.126-.844 2.532-2.532c1.407-1.687 2.532-2.813 2.532-.562 0 2.25.281 6.188 1.688 6.47 1.406.28 4.782 1.406 7.313-1.407z" fill="#b3e2ee" stroke="#000" stroke-width="1.12519"/><path d="M53.128 59.842s.844 1.97-.844 3.095c-1.688 1.125-4.782 1.125-5.344 1.969-.563.844-1.126-.844-1.126-.844s3.095-.563 4.501-2.532c1.407-1.969 2.813-1.688 2.813-1.688zM34.562 60.686s6.752.844 9.565 0c0 0-2.532 1.407-4.783 1.407-2.25 0-5.063 1.406-5.063 1.406l.844-1.688-.563-1.125z" fill="#6fc8dd"/><path d="M90.26 95.567s-1.97 2.532-3.658 4.22c-1.687 1.687 1.97 1.406 1.97 1.406s.562 1.125.28 3.657c-.28 2.532-4.219 2.813-4.219 2.813s1.126 3.094 3.939 3.094 5.907-2.25 6.47-3.375c.562-1.126 1.125 2.531.28 3.094-.843.562 3.095-1.125 3.376-2.532.282-1.406.844-8.439.844-8.439s-4.22-7.313-9.283-3.938zM128.797 85.44s2.25 3.939 4.22 5.064c1.969 1.125 4.782 1.969 9.001.844 4.22-1.126 4.782-1.688 5.907-4.501 1.126-2.813-1.687-6.47 0-10.127 1.688-3.657 2.25-2.531 2.532-4.22.281-1.687 0-3.094 1.406-2.812 1.407.281 4.501 2.25 4.501 5.063 0 2.813 3.657-1.406 3.657-1.406s1.688 3.375 1.125 5.063c-.562 1.688-3.094 4.782-4.22 6.47-1.124 1.688-2.812 2.813-.843 2.813 1.969 0 1.688 1.969 4.22-3.094 2.531-5.064 4.219-8.72 6.47-10.408 2.25-1.688 1.968-4.22 2.812-5.626.844-1.407 2.813.28 1.97 2.531-.845 2.25 2.531-1.688 3.937-1.688 1.407 0 5.345.282 5.626 1.97 0 0-1.969-.563-5.063 1.406-3.094 1.97-11.252 10.97-15.19 14.346-3.938 3.376-11.814 6.751-14.909 8.44-3.094 1.687-1.688 3.656-3.375 3.656-1.688 0-.282 3.094.281 4.5.563 1.407.281 1.407-1.125 1.689-1.407.28-3.376.843-3.376.843s1.407 1.688 0 3.095c-1.406 1.406-3.094.844-3.094.844l-9.002-5.626s-.28-17.16 2.532-19.129zM92.228 86.566s-5.063-.282-6.188-3.376-1.97-4.782 0-6.188c0 0-3.376-3.657-5.345-.844-1.969 2.813-1.688 4.782-.562 6.47 1.125 1.687 2.813 3.375 2.813 3.375s-5.064-4.5-6.47-4.5c-1.407 0-1.125 4.219-.282 5.907.844 1.687 4.783 5.907 6.47 6.188 1.688.281 4.782.563 6.47.563 1.688 0 5.626-3.095 5.626-3.095l-2.532-4.5z" fill="#b3e2ee" stroke="#000" stroke-width="1.12519"/><path d="M136.782 95.665s6.189-.844 7.314-.563l1.125.281-1.969 1.97s-3.375-.282-4.782-.282c-1.406 0-5.345-.844-5.345-.844l3.657-.562zM133.017 99.884s4.5 4.782 5.907 5.063c1.406.282-.563 1.126-.563 1.126s-1.406.844-5.344-6.189zM155.238 72.782s-1.125 7.595-3.094 10.97c0 0 3.938-3.656 5.344-7.594 0 0 0 .562-1.125-1.407l-1.125-1.969zM141.737 44.934s3.657.562 4.22 1.969c.562 1.406.562 2.531.562 2.531s-.281-1.687-2.25-.562c-1.97 1.125-6.19 3.375-7.596 2.25 0 0 3.376-1.125 4.782-2.532 1.407-1.406 2.813-1.125 2.813-1.125s-3.094-1.969-5.626-.844l3.095-1.687z" fill="#6fc8dd"/><g><path d="M100.386 118.634s2.813 1.687 5.907.28c3.095-1.406 9.283-3.937 10.69-5.344 1.406-1.406 3.375-1.969 3.375-1.969l-1.406-3.938-5.626-11.815s.844 5.064.281 6.752c-.563 1.687-4.5 8.438-6.47 10.408-1.969 1.969-4.5 5.344-6.751 5.626z" fill="#f9f6f3"/><path d="M91.97 63.146s1.4-2.732 5.132-3.264l.932 3.998 4.197-.867-.2-4.531 6.33-.2.133 4.93 6.863-.199.2-4.664h6.53l-.4 5.064 4.13.533 1.134-4.397 4.93 1.732s-1.531 4.597-3.065 5.796c-1.533 1.2-2.465 1.533-2.465 1.533l-.015 5.116s-4.982-1.451-13.777-1.451c-8.794 0-16.722 1.932-16.722 1.932l-.2-6.196s-1.266-.799-1.8-1.466c-.533-.667-1.866-3.4-1.866-3.4z" fill="#4a8418" stroke="#000" stroke-width="1.12519"/><path d="M93.37 66.145s4.995-3.664 18.055-3.331c13.06.333 17.923 3.198 17.923 3.198M95.836 68.343s2.732-1.333 7.994-1.665c5.263-.332 8.528-.599 15.058.333 6.529.932 7.662 1.8 7.662 1.8M98.5 67.677l-.066 5.73M106.362 66.545l-.08 5.862M115.357 66.678l-.134 5.663M124.085 68.076l.133 5.264" fill="none" stroke="#000" stroke-width="1.12519"/><path d="M106.762 78.005l-4.407 3.216s2.813-1.688 6.751-1.407c3.938.282 4.501 1.407 3.095 2.25-1.407.845 2.531 1.97 2.531 1.97s-2.25 7.032-1.406 10.97c.844 3.939 7.032 16.597 7.032 16.597s4.782-5.345 8.158-5.345c3.375 0 6.75 4.501 3.094 6.752l2.532-.282s2.813-3.657.281-6.75c-2.532-3.095-5.345-5.627-5.345-11.253s0-10.408 1.126-12.94c1.125-2.531 2.25-1.969-.282-3.656-2.531-1.688-20.296-1.255-23.16-.122z" fill="#ccc" stroke="#000" stroke-width="1.12519"/><path d="M115.295 89.66s1.688 13.783 6.47 19.128l.28.844.845-.844s-1.125 0-3.376-9.001c-2.25-9.002-1.969-11.252-1.969-11.252l-2.25 1.125z" fill="#f9f6f3"/><path d="M113.607 87.972s-.563 4.5-.844 5.907 2.25 8.158-.844 12.94-9.845 12.377-11.533 11.815c-1.688-.563 0-3.095.281-8.158.282-5.063 1.688-6.189-.844-9.002-2.531-2.813-5.344-5.344-5.344-5.344l-5.626-.563s-3.094-5.063-1.97-7.032c1.126-1.97 1.407-4.782 3.376-6.189 1.97-1.406 2.532-2.532 2.532-2.532l3.094-.28s-3.094 2.53-3.938 4.219c-.844 1.687-.844 9.282-.844 9.282s3.657.563 5.064.563c1.406 0 7.876-1.406 7.876-1.406s-1.407 1.969.844 1.969c2.25 0 3.657-1.126 5.344-2.532 1.688-1.407 3.376-3.657 3.376-3.657z" fill="#999" stroke="#000" stroke-width="1.12519"/><path d="M94.479 96.13s3.657 3.094 4.5 4.782c.844 1.688 2.814 4.22 1.97 7.595 0 0 0-5.064 1.687-4.782 1.688.281 2.813 6.75 2.813 6.75s-.844-7.875.563-8.157c1.406-.281 1.406 3.938 1.406 3.938s1.407-7.032 1.97-8.72c.562-1.688 1.125-4.782 2.25-4.22 1.125.563 1.688-.28 1.688-.28l.844-6.19s-1.97 3.095-3.939 4.783c-1.969 1.688-9.001 3.657-10.97 3.938-1.97.281-4.782.563-4.782.563z"/><path d="M131.61 113.008s1.407 0 1.407-2.25c0-2.251-1.688-4.22-4.501-4.502-2.813-.28-7.033 4.501-8.158 5.345-1.125.844-3.375 1.97-3.375 1.97l14.627-.563z" fill="#1f1a17" stroke="#000" stroke-width="1.12519"/><path d="M92.791 79.814s-5.907 5.626-5.626 9.846c.281 4.22 1.688 5.907 1.688 5.907s5.626.844 8.439.281c2.813-.562 9.845-1.687 10.97-2.531 1.126-.844 5.626-2.532 5.626-9.283 0 0 4.22-.844 7.314-.844 3.094 0 8.158-.563 9.002-1.406l-.282-3.657s-34.318-1.97-37.131 1.687z" fill="#ccc" stroke="#000" stroke-width="1.12519"/><path d="M97.964 77.343l-4.61 5.284s-2.532 2.25-2.532 5.908c0 3.657.281 4.5.281 4.5s5.626.282 8.158.282c2.532 0 5.063-.844 8.72-4.22 3.657-3.375 2.813-6.188 2.813-6.188s7.876-1.407 10.127-1.688c2.25-.281 8.146-1.312 8.146-1.312" fill="#999" stroke="#000" stroke-width="1.12519"/><path d="M122.48 109.625s-14.534 11.677-21.987 9.317" fill="none" stroke="#000" stroke-width="1.12519"/><path d="M96.502 74.54s-3.466-.665-4.465 0c-.999.667-2.132 4.332-1.065 5.064 1.066.733 3.93.6 5.996.267 2.066-.333 2.864-.4 3.597-.4.732 0-2.196-4.264-4.063-4.93z" fill="#b3e2ee" stroke="#000" stroke-width="1.12519"/><path d="M129.681 81.202s1.732.199 2.332-.733c.6-.931 1-3.398-.867-4.33-1.866-.933-4.13-1.132-4.13-1.132s.066 1.265.866 2.397 2.133 3.132 1.8 3.798z" fill="#23365d" stroke="#000" stroke-width="1.12519"/><path d="M129.067 79.909s-1.85-3.637-2.05-4.036c-.2-.4-.2-2-1.133-2.132-.933-.133-1.666-.733-2.465-.733-.8 0-4.196-.866-5.33-.467-1.132.4 1.467 5.131 2.866 6.197 1.398 1.065 2.93 1.065 3.865 1.065.933 0 3.78.106 4.247.106z" fill="#b3e2ee" stroke="#000" stroke-width="1.12519"/><path d="M120.886 78.537s-.2-1.2-.799-2.399c-.6-1.199-1.533-3.398-2.399-3.664-.866-.267-4.064-.067-4.064-.067s-.532 1.399.267 2.799c.798 1.4 1.398 2.397 2.331 2.998.933.601 1.333.467 2.732.733 1.399.265 1.932-.4 1.932-.4z" fill="#23365d" stroke="#000" stroke-width="1.12519"/><path d="M113.224 73.408s-.666-1.132-1.731-1.132c-1.066 0-1.132-.6-2.598-.6s-3.532.133-4.132.732c-.6.6-.8 2.6-.333 3.132s2.33 2.73 3.398 2.865c1.068.134 2.733-.2 5.197.266 2.464.467 2.732-.333 2.732-.333s-1.198-1.665-1.665-2.265c-.467-.6-.868-2.665-.868-2.665z" fill="#b3e2ee" stroke="#000" stroke-width="1.12519"/><path d="M106.23 77.605s-1.2-1.866-1.666-2.598c-.466-.733-.666-1.932-1.466-1.932-.8 0-3.998 0-5.064.798-1.065.8-1.398 1.2-1.065 1.999.333.799 2.132 2.465 3.264 2.93 1.132.467 1.599.334 3.665.334s2.864-1.132 2.864-1.132l-.533-.4z" fill="#23365d" stroke="#000" stroke-width="1.12519"/></g><use xlink:href="#a" height="248.54" width="225" transform="matrix(-1 0 0 1 220.589 0)"/><g transform="translate(-20.696 -7.982) scale(1.12519)"><path style="marker:none" d="M91.905 220.047c-.327 5.635.572 6.207 3.266 7.676 2.695 1.47 16.332-1.714 21.232-1.714 4.9 0 15.924 3.021 19.925 2.613 4.002-.409 6.37-4.737 5.88-7.84-.49-3.103-6.941-8.737-24.907-8.492-17.965.245-25.56 7.676-25.396 7.757z" color="#000" fill="#b3e2ee" stroke="#000" stroke-width=".889" overflow="visible"/><g id="b" color="#000" stroke="#000" stroke-width=".889"><path style="marker:none" d="M32.987 199.06c-.041-2.94 13.555-8.492 13.882-1.551.326 6.941-4.908 12.869-4.908 12.869l-5.708-1.028-3.266-10.29z" fill="#3f7256" overflow="visible"/><path style="marker:none" d="M46.831 197.18c-.288 2.079-7.449 4.793-7.449 4.793l1.964 5.947 5.254-.404.231-10.336z" fill="#b3e2ee" overflow="visible"/><path style="marker:none" d="M108.482 213.392c0 2.885-16.25 3.593-16.577 7.309.163-3.716 2.776-11.392 2.776-11.392l11.27 2 2.53 2.083z" fill="#3f7256" overflow="visible"/><path style="marker:none" d="M108.58 213.515c-1.886-3.837-4.722-8.869-4.834-12.903-18.425-2.22-33.495 6.91-63.043 5.88-5.083-.177-7.729-5.806-7.676-8.003-.623 2.772 2.12 5.972 2.613 10.126.505 4.244.164 6.614 2.45 9.31 1.905 2.244 24.235 2.99 35.604-.49 10.667-3.267 33.526-7.27 34.886-3.92z" fill="#b3e2ee" overflow="visible"/></g><use xlink:href="#b" height="248.54" width="225" transform="matrix(-1 0 0 1 233.945 0)" fill="#b3e2ee"/></g><path style="text-align:center;line-height:125%" d="M179.131 229.433l-.078 2.363 3.906.13-.04 1.235-3.908-.13-.093 2.801-1.598-.053.254-7.634 5.63.187-.041 1.235-4.032-.134m-10.967 5.288l1.066-7.564 1.584.224-.894 6.34 4.058.572-.172 1.224-5.642-.796m-9.603-2.19l1.815-7.42 5.835 1.427-.294 1.2-4.282-1.046-.456 1.864 3.96.969-.293 1.2-3.96-.968-.478 1.953 4.497 1.1-.294 1.201-6.05-1.48m-2.945-3.123a2.317 2.317 0 01-.414.874c-.192.243-.441.43-.75.561-.305.132-.673.202-1.103.21-.426.006-.916-.062-1.47-.2a5.923 5.923 0 01-1.266-.457 3.202 3.202 0 01-.87-.632 2.284 2.284 0 01-.493-.8c-.101-.297-.147-.62-.138-.967l1.56.128c.001.175.025.341.071.498.047.157.127.304.242.44.12.135.277.257.473.365.201.106.452.197.754.273.526.131.947.153 1.263.065.321-.091.524-.307.61-.647a.758.758 0 00-.044-.542 1.314 1.314 0 00-.366-.433 3.551 3.551 0 00-.59-.37 26.275 26.275 0 00-.716-.353 41.923 41.923 0 01-.593-.31 5.445 5.445 0 01-.557-.342 3.358 3.358 0 01-.466-.396 1.815 1.815 0 01-.337-.48 1.856 1.856 0 01-.153-.598c-.016-.216.01-.46.077-.73.092-.368.245-.665.458-.891.213-.226.47-.389.77-.489a2.899 2.899 0 011.029-.134c.38.014.784.074 1.212.181.484.121.888.263 1.212.427.329.16.59.346.782.559.197.213.332.453.407.722.078.265.11.562.095.89l-1.555-.172c.002-.338-.095-.618-.293-.839-.195-.22-.513-.385-.955-.496a2.756 2.756 0 00-.702-.097c-.19 0-.35.028-.478.081a.718.718 0 00-.298.227.863.863 0 00-.152.32.766.766 0 00.018.485c.058.138.157.267.294.387.139.116.31.23.513.34.208.108.436.223.685.345.219.107.435.217.65.33.214.11.416.228.604.353.188.126.359.263.511.413a1.83 1.83 0 01.54 1.125c.025.23.001.488-.071.776m-30.968 15.404l1.046-7.567 5.95.823-.169 1.224-4.366-.603-.263 1.9 4.039.56-.17 1.224-4.038-.559-.276 1.993 4.587.634-.17 1.224-6.17-.853m-4.345-.495l-1.613-.16-2.057-7.88 1.662.164 1.08 5.038c.034.167.066.337.096.51l.084.478.077.487.16-.453c.049-.133.105-.282.169-.446.067-.168.134-.334.202-.498l2.043-4.728 1.646.164-3.55 7.324m-5.566-4.41a4.74 4.74 0 01-.319 1.618 3.52 3.52 0 01-.805 1.226c-.344.336-.759.59-1.245.762-.483.173-1.026.249-1.63.23-.64-.022-1.196-.138-1.67-.348a3.345 3.345 0 01-1.17-.863 3.505 3.505 0 01-.686-1.281 5.066 5.066 0 01-.186-1.595c.02-.596.12-1.132.302-1.607a3.33 3.33 0 01.782-1.2c.34-.33.752-.576 1.234-.741.487-.169 1.04-.243 1.662-.222.621.02 1.167.13 1.638.33.475.2.869.475 1.183.825.317.35.553.768.707 1.254.155.483.222 1.02.203 1.613m-1.631-.054a3.727 3.727 0 00-.111-1.088 2.333 2.333 0 00-.396-.848 1.85 1.85 0 00-.681-.554 2.274 2.274 0 00-.953-.221 2.377 2.377 0 00-.987.157 1.85 1.85 0 00-.716.508 2.333 2.333 0 00-.45.821 3.865 3.865 0 00-.177 1.08c-.013.397.022.763.105 1.098.087.332.22.62.4.865.18.245.408.438.681.581.274.143.594.22.958.232.39.013.729-.043 1.015-.167.286-.128.523-.309.712-.541.192-.236.337-.517.434-.843.098-.33.153-.69.166-1.08m-8.046 1.493c.024.386-.033.722-.17 1.01a1.945 1.945 0 01-.597.716c-.257.19-.56.337-.913.442a5.236 5.236 0 01-1.128.19l-3.815.237-.474-7.624 3.49-.217c.45-.028.854-.013 1.208.044.359.054.664.153.915.296.252.144.446.333.584.567.141.23.222.508.242.832.027.433-.071.807-.294 1.121-.22.311-.572.534-1.056.669.621.034 1.102.2 1.443.497.344.294.533.7.565 1.22m-2.252-3.19c-.021-.343-.146-.58-.375-.71-.226-.131-.553-.183-.982-.156l-1.818.113.117 1.888 1.829-.114c.45-.028.773-.125.965-.293.196-.172.284-.414.264-.728m.642 3.165a1.004 1.004 0 00-.15-.501.907.907 0 00-.35-.31 1.47 1.47 0 00-.499-.148 3.13 3.13 0 00-.604-.017l-2.024.126.136 2.186 2.084-.13c.209-.013.403-.041.58-.085a1.35 1.35 0 00.455-.207.91.91 0 00.293-.366 1.16 1.16 0 00.08-.548m-8.348 3.065l-1.01-1.802-2.866.512-.324 2.04-1.575.281 1.401-8.01 1.857-.331 4.075 7.032-1.558.278m-2.702-4.953l-.194-.35-.169-.329a6.332 6.332 0 00-.121-.248c-.03-.064-.048-.1-.052-.106l-.012.123a6.22 6.22 0 01-.029.27c-.01.108-.025.23-.045.365-.016.132-.035.264-.056.396l-.356 2.294 2.162-.386-1.128-2.03m-4.85-14.497l.274 3.121-1.587.14-.274-3.122-3.105-4.25 1.669-.147 2.108 3.059 1.564-3.38 1.67-.147-2.318 4.726m-7.38 3.96l-2.224-2.57-1.85.308.476 2.86-1.578.263-1.254-7.535 3.765-.626c.47-.079.89-.094 1.257-.045.37.045.689.146.957.303.267.153.481.36.641.619.164.254.274.555.332.9.047.282.047.548 0 .798a2.062 2.062 0 01-.244.678 2.056 2.056 0 01-.448.547c-.183.155-.389.28-.618.378l2.564 2.827-1.775.295m-1.057-5.194c-.061-.367-.228-.62-.5-.758-.268-.138-.625-.17-1.071-.096l-2.022.336.37 2.225 2.065-.344c.235-.039.432-.099.59-.18.163-.086.289-.187.379-.305a.982.982 0 00.185-.405 1.29 1.29 0 00.004-.473m-10.441.93l1.528 6.218-1.553.381-1.528-6.217-2.396.588-.295-1.2 6.35-1.56.295 1.2-2.401.59m-6.584 8.374l-4.731-4.827c.058.149.115.298.17.448.05.13.098.27.146.421.051.151.095.296.133.436l1.16 4.354-1.373.365-1.967-7.381 1.766-.47 4.79 4.861a15.098 15.098 0 01-.17-.448c-.05-.133-.103-.283-.16-.451a13.14 13.14 0 01-.148-.516l-1.143-4.29 1.373-.366 1.966 7.381-1.812.483m-10.756 2.637c-.47.082-.91.103-1.321.06a2.844 2.844 0 01-1.106-.345 2.488 2.488 0 01-.822-.797c-.222-.343-.377-.77-.467-1.283l-.824-4.705 1.576-.276.802 4.582c.055.317.142.584.261.802.118.214.264.383.436.507.171.12.367.198.585.233.219.032.454.025.707-.019.256-.045.485-.122.686-.23.204-.113.37-.26.496-.44.13-.18.217-.395.261-.645.044-.25.038-.537-.018-.86l-.793-4.53 1.575-.275.81 4.625c.09.516.085.977-.017 1.384-.1.407-.28.76-.535 1.062-.256.298-.58.544-.971.737a4.96 4.96 0 01-1.32.413m-6.102-3.083a4.74 4.74 0 01-.187 1.637 3.52 3.52 0 01-.702 1.288c-.316.363-.709.65-1.18.86-.467.212-1.002.332-1.605.361-.64.031-1.204-.04-1.693-.21a3.345 3.345 0 01-1.237-.766 3.505 3.505 0 01-.787-1.22 5.066 5.066 0 01-.315-1.576 4.922 4.922 0 01.17-1.625 3.33 3.33 0 01.683-1.26 3.265 3.265 0 011.17-.839c.471-.207 1.017-.326 1.638-.356.62-.03 1.174.035 1.66.196.489.16.904.403 1.245.726.345.324.614.721.807 1.193.193.469.304.999.333 1.59m-1.63.08a3.73 3.73 0 00-.2-1.076 2.333 2.333 0 00-.462-.813 1.85 1.85 0 00-.724-.497 2.273 2.273 0 00-.968-.143 2.377 2.377 0 00-.97.237 1.85 1.85 0 00-.674.565c-.176.24-.303.525-.382.854-.078.326-.107.69-.088 1.09.02.397.084.76.194 1.087.114.324.27.6.47.83.199.229.44.403.725.523.284.12.609.172.974.154.39-.019.722-.102.997-.25.275-.15.497-.35.666-.596.172-.251.294-.543.364-.876.07-.336.097-.699.078-1.089m-11.58 2.802c.3.014.56-.016.78-.09a1.96 1.96 0 001.005-.759c.116-.168.212-.34.288-.514l1.369.587c-.124.27-.282.532-.474.788a2.956 2.956 0 01-.708.669c-.28.19-.61.34-.991.45-.378.106-.82.148-1.325.126-.66-.03-1.228-.152-1.704-.368a3.275 3.275 0 01-1.166-.877 3.461 3.461 0 01-.648-1.287 5.289 5.289 0 01-.158-1.597c.026-.596.126-1.13.299-1.604.176-.474.427-.871.752-1.193a3.027 3.027 0 011.21-.729c.485-.163 1.049-.23 1.691-.202.499.022.931.094 1.299.215.37.121.687.283.95.487.266.2.482.433.647.701.17.265.298.554.385.87l-1.425.322a1.658 1.658 0 00-.213-.476 1.627 1.627 0 00-.383-.419 1.953 1.953 0 00-.55-.3 2.326 2.326 0 00-.733-.142c-.386-.017-.721.032-1.005.146a1.76 1.76 0 00-.71.5 2.354 2.354 0 00-.433.817 4.339 4.339 0 00-.172 1.078c-.018.397.008.763.076 1.1.072.332.193.621.363.867.17.247.393.443.669.589.28.146.618.228 1.015.245" font-size="9.868" font-weight="700" text-anchor="middle" fill="#23365d" font-family="Liberation Sans"/></svg>