<svg xmlns="http://www.w3.org/2000/svg" width="1772" height="1777"><path fill="#A29360" d="M1543.305 669.688c11.834-21.935 13.532-47.556 4.91-74.09-7.819-24.063-21.554-42.054-40.82-53.47-13.83-8.194-29.945-12.588-47.947-13.078 2.611-29.511-7.534-57.024-29.036-78.198-19.729-19.438-43.186-29.713-67.835-29.713a89.28 89.28 0 00-9.223.479 120.066 120.066 0 00-.837-3.622c-8.449-34.041-31.128-58.646-63.855-69.281-8.758-2.846-17.715-4.288-26.623-4.288-18.218 0-34.278 5.836-48.002 14.298 6.434-27.054 1.903-52.576-13.53-73.816-18.825-25.912-45.675-39.609-77.646-39.609-4.022 0-7.927.223-11.675.609-4.326-20.167-16.99-46.284-51.614-64.251-14.634-7.597-29.863-11.449-45.262-11.449-14.356 0-27.148 3.275-38.082 7.936-4.415-12.363-11.243-25.188-21.776-36.228-17.205-18.035-41.048-27.566-68.95-27.566-27.9 0-51.743 9.532-68.95 27.566-10.533 11.04-17.361 23.865-21.776 36.228-10.933-4.66-23.723-7.936-38.08-7.936-15.4 0-30.628 3.852-45.259 11.447-34.629 17.972-47.293 44.087-51.62 64.253a113.939 113.939 0 00-11.672-.609c-31.971 0-58.82 13.696-77.648 39.609-15.36 21.142-19.916 46.511-13.621 73.413-15.148-9.158-31.091-13.895-47.25-13.895-8.91 0-17.867 1.443-26.623 4.288-32.729 10.635-55.407 35.239-63.857 69.279a116.52 116.52 0 00-.838 3.623 89.202 89.202 0 00-9.219-.479c-24.65 0-48.11 10.273-67.836 29.708-21.504 21.182-31.648 48.689-29.036 78.201-18.004.491-34.12 4.882-47.946 13.075-19.269 11.415-33.003 29.407-40.823 53.473-8.621 26.537-6.922 52.156 4.91 74.092 7.255 13.448 17.364 23.919 27.773 31.943-19.45 22.337-27.407 50.546-22.459 80.309 6.389 38.487 27.312 58.6 45.156 68.949a119.366 119.366 0 00-1.45 3.418c-13.172 32.508-9.287 65.743 10.941 93.582 15.444 21.259 38.069 33.489 65.822 35.717-21 18.082-32.278 41.334-32.277 67.524 0 34.414 16.392 63.587 46.156 82.143 1.064.663 2.123 1.301 3.182 1.915-8.352 18.859-13.459 47.43 3.991 82.317 10.229 20.455 25.339 35.513 44.908 44.748 6.471 3.054 13.307 5.405 20.464 7.045-3.701 12.604-5.724 27.012-3.689 42.146 3.321 24.703 17.007 46.429 39.579 62.829 17.938 13.031 36.935 19.64 56.462 19.64 21.685 0 40.077-8.018 54.514-17.905 15.237 25.368 39.599 41.636 69.41 46.125 5.958.899 11.866 1.354 17.557 1.354 23.968 0 45.201-7.91 61.975-22.985 18.971 17.005 41.164 25.955 64.537 25.955 10.096 0 20.406-1.687 30.644-5.013 24.928-8.1 43.573-26.039 54.279-51.638 10.703 25.599 29.341 43.535 54.277 51.637 10.234 3.325 20.544 5.012 30.642 5.014h.009c23.371 0 45.564-8.95 64.534-25.956 16.775 15.078 38.01 22.99 61.976 22.99 5.688 0 11.595-.457 17.55-1.354 29.818-4.493 54.178-20.758 69.411-46.128 14.44 9.888 32.831 17.904 54.515 17.904 19.528 0 38.524-6.607 56.462-19.64 22.573-16.4 36.26-38.126 39.579-62.83 2.034-15.136.014-29.542-3.689-42.146 7.159-1.64 13.993-3.992 20.463-7.045 19.57-9.236 34.68-24.292 44.907-44.745 17.452-34.894 12.347-63.463 3.994-82.321a118.113 118.113 0 003.182-1.913c29.763-18.557 46.154-47.728 46.154-82.141.002-26.186-11.276-49.441-32.274-67.525 27.747-2.227 50.377-14.457 65.82-35.715 20.228-27.842 24.112-61.077 10.941-93.584-.47-1.161-.954-2.301-1.448-3.419 17.843-10.345 38.767-30.46 45.155-68.944 4.946-29.767-3.01-57.98-22.461-80.315 10.41-8.023 20.518-18.492 27.773-31.941z"/><path fill="#DCB853" d="M1177.575 301.569c-35.393-48.715-94.819-18.885-94.819-18.885s15.494-49.021-36.244-75.871c-51.739-26.859-90.731 20.377-90.731 20.377s3.971-84.497-70.277-84.497-70.277 84.497-70.277 84.497-38.992-47.236-90.731-20.377c-51.738 26.85-36.244 75.871-36.244 75.871s-59.427-29.83-94.819 18.885c-35.401 48.722 25.754 109.824 25.752 109.824l84.592 68.833L802.196 511l83.307-189.258L968.809 511l98.422-30.773 84.592-68.833c-.002 0 61.153-61.102 25.752-109.825zM491.764 375.674c-57.268 18.606-47.261 84.343-47.261 84.343s-41.835-29.884-83.358 11.024c-41.532 40.907-8.657 92.587-8.657 92.587s-79.135-29.887-102.079 40.727c-22.944 70.614 58.645 92.949 58.645 92.949s-56.973 22.487-47.417 79.994c9.547 57.503 60.958 57.915 60.958 57.915s-46.734 47.301-11.341 96.015c35.397 48.725 112.408 9.444 112.407 9.446l91.604-59.182 59.682-84.095-154.254-137.713 205.738-20.745 1.146-103.114-39.323-101.722c.001.001-39.213-77.042-96.49-58.429zM350.212 1051.13c-.001 60.215 65.61 71.013 65.61 71.013s-41.349 30.552-15.274 82.685c26.071 52.141 85.381 36.845 85.381 36.845s-52.878 66.026 7.188 109.668c60.068 43.642 106.522-27.052 106.522-27.052s3.781 61.134 61.427 69.815c57.639 8.689 73.917-40.077 73.917-40.077s30.544 59.063 87.811 40.457c57.279-18.609 43.719-103.988 43.721-103.988l-27.979-105.408L777 1102.34l-178.64 104.146 43.847-202.079-97.714-32.955-108.895 5.967c.002 0-85.389 13.487-85.386 73.711zM948.868 1394.482c57.268 18.608 87.813-40.455 87.813-40.455s16.278 48.767 73.918 40.078c57.645-8.683 61.425-69.816 61.425-69.816s46.455 70.693 106.522 27.052c60.067-43.643 7.189-109.667 7.189-109.667s59.31 15.295 85.38-36.848c26.076-52.132-15.274-82.683-15.274-82.683s65.612-10.798 65.612-71.011c.002-60.227-85.389-73.713-85.389-73.715l-108.895-5.964-97.713 32.953 43.847 202.08-178.639-104.147-61.538 82.749-27.976 105.408c.001-.001-13.56 85.378 43.718 103.986zM1460.411 931.23c35.394-48.715-11.34-96.016-11.34-96.016s51.41-.412 60.958-57.916c9.556-57.506-47.418-79.992-47.418-79.992s81.589-22.336 58.646-92.95c-22.945-70.613-102.078-40.727-102.078-40.727s32.874-51.68-8.66-92.587c-41.522-40.91-83.356-11.023-83.356-11.023s10.006-65.738-47.26-84.345c-57.278-18.613-96.491 58.431-96.493 58.431l-39.322 101.722 1.145 103.114 205.739 20.745-154.252 137.713 59.683 84.097 91.604 59.179c-.004-.002 77.006 39.278 112.404-9.445z"/><path fill="#fff" stroke="#0047A0" stroke-width="14.173" d="M1764.573 810.817c0-353.722-208.997-658.608-510.232-797.958l25.668 92.609-110.712 24.839c266.335 111.069 453.544 373.917 453.544 680.509 0 284.34-161.024 531.06-396.854 653.974l81.52 117.158c272.372-149.262 457.066-438.623 457.066-771.131z"/><path fill="#fff" d="M885.833 1183.573c-50.31 0-99.128-9.858-145.106-29.308-44.39-18.773-84.25-45.646-118.473-79.87s-61.095-74.082-79.868-118.475c-19.448-45.968-29.307-94.789-29.307-145.104 0-50.315 9.857-99.136 29.307-145.104 18.774-44.392 45.646-84.252 79.868-118.473 34.221-34.224 74.082-61.096 118.475-79.872 45.977-19.448 94.795-29.308 145.104-29.308 50.309 0 99.129 9.858 145.104 29.308 44.394 18.775 84.254 45.647 118.473 79.872 34.221 34.219 61.094 74.079 79.87 118.475 19.448 45.974 29.307 94.793 29.307 145.103 0 50.311-9.858 99.131-29.307 145.105-18.774 44.391-45.646 84.25-79.87 118.473-34.221 34.225-74.081 61.097-118.475 79.87-45.974 19.448-94.794 29.308-145.102 29.308z"/><path fill="#A29360" d="M885.833 442.313c49.736 0 97.999 9.745 143.448 28.971 43.885 18.561 83.291 45.128 117.124 78.963 33.833 33.833 60.398 73.239 78.961 117.124 19.225 45.449 28.971 93.712 28.971 143.448 0 49.735-9.746 97.999-28.971 143.446-18.563 43.886-45.128 83.291-78.961 117.124s-73.239 60.399-117.124 78.961c-45.449 19.226-93.712 28.972-143.448 28.972s-97.999-9.746-143.447-28.972c-43.885-18.562-83.291-45.128-117.124-78.961-33.833-33.832-60.398-73.238-78.96-117.123-19.225-45.448-28.971-93.712-28.971-143.447 0-49.736 9.746-97.999 28.971-143.448 18.562-43.884 45.127-83.291 78.96-117.124 33.833-33.835 73.239-60.402 117.124-78.963 45.447-19.226 93.71-28.971 143.447-28.971m0-8.505c-50.884 0-100.261 9.974-146.76 29.644-44.898 18.989-85.213 46.169-119.824 80.782-34.611 34.61-61.79 74.926-80.779 119.823-19.669 46.499-29.643 95.876-29.643 146.761 0 50.884 9.973 100.262 29.643 146.761 18.99 44.896 46.168 85.212 80.779 119.824 34.612 34.61 74.927 61.789 119.825 80.778 46.5 19.669 95.876 29.644 146.76 29.644s100.26-9.975 146.76-29.644c44.898-18.989 85.213-46.168 119.825-80.778 34.611-34.612 61.789-74.928 80.779-119.825 19.67-46.499 29.643-95.876 29.643-146.76s-9.973-100.261-29.643-146.762c-18.99-44.897-46.169-85.213-80.779-119.823-34.611-34.613-74.927-61.792-119.825-80.782-46.501-19.669-95.879-29.643-146.761-29.643z"/><path fill="#CD2E3A" d="M1168.831 999.479c104.198-156.299 61.962-367.47-94.332-471.66-156.297-104.197-367.467-61.966-471.664 94.333-78.148 117.222-46.474 275.6 70.75 353.748 117.222 78.146 275.6 46.47 353.748-70.75"/><path fill="#0047A0" d="M602.833 622.152C550.729 700.297 571.852 805.88 650 857.982c78.146 52.099 183.729 30.979 235.832-47.165 52.099-78.148 157.685-99.271 235.831-47.166 78.146 52.098 99.266 157.684 47.167 235.831-104.197 156.296-315.367 198.524-471.664 94.331-156.294-104.193-198.535-315.365-94.333-471.661"/><path fill="#fff" stroke="#0047A0" stroke-width="14.173" d="M148.819 810.817c0-306.592 187.209-569.439 453.544-680.509l-110.712-24.839 25.668-92.609C216.083 152.208 7.086 457.095 7.086 810.817c0 332.508 184.688 621.869 457.07 771.132l81.519-117.158c-235.829-122.916-396.856-369.634-396.856-653.974z"/><path fill="#0047A0" d="M1501.272 1517.838l-105.139-105.136-5.008 4.806c-131.163 125.816-309.134 203.125-505.235 203.127-196.102-.002-374.204-77.311-505.364-203.127l-5.014-4.811-110.116 110.222 5.184 5.01c159.333 153.9 376.288 248.617 615.311 248.613h.021c239.011.004 455.94-94.702 615.272-248.596l5.188-5.011-5.1-5.097z"/><path fill="#0047A0" d="M372.104 1426.458l3.408-13.756 171.867 45.208-3.409 13.757zM1399.542 1426.459l-3.409-13.752-171.867 45.208 3.409 13.752z"/><path fill="none" d="M1391.125 1429.873c-131.163 125.815-309.13 203.125-505.235 203.127-196.102-.002-374.204-77.312-505.361-203.127"/><path fill="#fff" d="M1310.871 1574.64l9.51 15.355 39.606-24.528 22.628 36.541-19.103 11.829-14.15-22.854-75.982 47.058-8.477-13.688 35.531-22.008-9.509-15.354-49.017 30.354-8.478-13.688 85.813-53.146c-1.074-3.614-2.444-7.813-4.113-12.603-1.669-4.785-3.371-8.999-5.108-12.646l-77.526 48.016-8.479-13.688 98.454-60.975c4.079 6.588 7.469 14.312 10.174 23.176 2.703 8.866 4.37 14.642 4.997 17.326l19.384-12.004 8.477 13.688-54.632 33.839zM972.592 1701.418l-11.455-60.953 74.036-13.918 11.455 60.953-74.036 13.918zm44.237-55.324l-31.174 5.859 5.586 29.721 31.173-5.857-5.585-29.723zm-18.817 103.823l-7.603-40.452 22.893-4.304 4.629 24.631 86.374-16.237 2.976 15.822-109.269 20.54zm78.428-47.792l-16.237-86.407 21.594-4.06 16.238 86.406-21.595 4.061zM748.792 1698.284c-8.426 2.655-18.707 2.886-30.845.697-11.381-2.055-20.746-5.826-28.092-11.324-7.348-5.496-10.479-11.229-9.402-17.201 1.126-6.245 6.086-10.639 14.883-13.178 8.794-2.54 18.938-2.774 30.427-.702 12.141 2.188 21.666 5.994 28.578 11.412 6.912 5.421 9.807 11.253 8.681 17.498-1.064 5.879-5.809 10.143-14.23 12.798zm-67.507-53.855l2.585-14.327 90.396 16.3-2.585 14.329-90.396-16.302zm4.215 89.242l6.039-33.479 23.412 4.222-3.307 18.324 84.219 15.186-2.734 15.155-107.629-19.408zm50.53-59.098c-3.518-1.914-7.658-3.301-12.428-4.161-4.986-.899-9.568-1.085-13.75-.561-4.182.526-6.492 2.029-6.939 4.512-.464 2.57 1.178 4.788 4.929 6.648 3.749 1.862 8.116 3.241 13.104 4.143 4.768.857 9.126 1.055 13.07.579 3.946-.475 6.146-1.951 6.593-4.433.463-2.568-1.066-4.812-4.579-6.727zm-30.471-46.534l2.485-13.777 48.612 8.768-2.485 13.775-48.612-8.766zm95.108 58.119l-6.586 36.51-21.787-3.929 16.028-88.864 21.787 3.929-6.461 35.821 19.021 3.43-2.981 16.533-19.021-3.43zM444 1604.09c-5.87-2.646-13.554-6.859-23.056-12.646l-18.768-11.429 43.396-71.266 45.295 27.578-8.446 13.871-26.528-16.152-26.504 43.524 8.47 5.155c4.653 2.728 9.693 5.356 15.113 7.894 5.418 2.536 9.144 4.255 11.171 5.162l-8.301 13.632c-2.029-.905-5.975-2.676-11.842-5.323zm33.106 52.039l30.729-50.461-11.57-7.045-27.813 45.678-18.063-10.998 59.707-98.051 18.063 10.998-22.136 36.35 11.568 7.046 23.592-38.74 18.063 10.997-64.076 105.226-18.064-11z"/><circle fill="none" stroke="#A29360" stroke-width="8.504" cx="885.833" cy="810.816" r="340.157"/></svg>