<svg width="313.7" height="382.98" xmlns="http://www.w3.org/2000/svg" xmlns:xlink="http://www.w3.org/1999/xlink"><g stroke-width="1.438"><g stroke="#000"><g fill="#fcea83"><path d="M11.268 341.05c2.875 7.668 23.482 17.732 47.444 4.792 16.294-9.105 26.837-22.045 36.9-45.048 2.876-5.75 4.314-12.939-2.396-17.252-5.271-3.833-13.898-8.147-17.732-11.98-1.917-1.918-3.834-3.355-5.271-4.793.958.958 1.917 1.917 2.875 3.355 9.585 11.502-.48 28.275-11.022 38.339-7.668 7.188-21.566 24.92-41.693 8.147-4.313-3.834-14.377 11.98-9.105 24.44zM302.648 341.05c-3.355 7.668-23.962 17.732-47.444 4.792-16.294-9.105-26.837-22.045-37.38-45.048-2.397-5.75-3.834-12.939 2.875-17.252 5.271-3.833 13.898-8.147 17.732-11.98 1.917-1.918 3.355-3.355 5.271-4.793-.958.958-1.916 1.917-2.875 3.355-9.585 11.502.48 28.275 10.543 38.339 7.668 7.188 22.045 24.92 42.173 8.147 4.313-3.834 13.898 11.98 9.105 24.44z"/><path d="M156.948 382.27c38.339 0 97.285-17.252 128.91-77.636 5.271-10.064 0-15.336-6.23-18.69-6.71-2.875-14.856-9.585-19.17-13.898 7.668 7.668 6.23 12.939.959 21.566-24.441 40.735-57.988 61.342-104.47 61.342-46.486 0-80.032-20.607-104.47-61.342-5.272-8.626-6.71-13.898.48-21.566-3.835 4.313-12.46 11.022-19.17 13.898-6.23 3.355-11.503 8.626-6.23 18.69 31.63 60.384 91.054 77.636 129.39 77.636z"/></g><g fill="#db161c"><path d="M68.298 301.28c-.959-4.792-7.189-2.875-9.106 2.875-2.396-3.354-4.792-6.709-6.71-10.543-5.75-8.626-6.709-14.377 1.438-22.524 3.834-3.833 11.502-8.147 16.773-3.354 11.022 9.105 5.272 23.962-2.396 33.546zM245.128 301.28c.958-4.792 7.667-2.875 9.584 2.875 2.396-3.354 4.793-6.709 6.71-10.543 5.75-8.626 6.709-14.377-1.917-22.524-3.355-3.833-11.022-8.147-16.773-3.354-10.543 9.105-5.272 23.962 2.396 33.546zM11.268 341.05c-4.793-7.189-8.627-25.879-9.585-30.671-1.438-4.313-1.917-8.147 3.354-10.064 5.272-1.917 10.064 4.792 12.46 10.543 2.397 5.75 6.23 14.377 10.543 24.92-10.543-6.23-19.169-1.917-16.773 5.272zM302.648 341.05c4.313-7.189 8.147-25.879 9.584-30.671.959-4.313 1.917-8.147-3.354-10.064-5.272-1.917-10.064 4.792-12.46 10.543-2.397 5.75-6.23 14.377-10.543 24.92 10.543-6.23 18.69-1.917 16.773 5.272z"/></g><g fill="#00493d" stroke="none"><path d="M39.058 297.92l-3.834 1.917c-.959.48-.959 1.438-.959 1.917h-.48l-1.916-4.313h.48c0 .479.478.958 1.437.479l8.147-4.313c.958-.48.958-.959.48-1.438l.478-.479 2.397 4.792h-.48c-.479-.479-.958-.958-1.917-.479l-3.354 1.917 1.438 2.875 3.833-1.437c.959-.48.48-1.438.48-1.917h.479l1.917 4.313c-.48-.48-.959-.959-1.917-.48l-8.147 4.314c-.959.479-.959.958-.48 1.438l-.479.479-2.396-4.313.48-.48c.479.48.958.959 1.916.48l3.834-1.917zM47.208 304.15c.958-.48.958-.958.479-1.917h.479l4.792 7.189-3.354 2.396v-.48c1.917-1.437 1.917-3.354 1.437-3.833-.479-.48-.958-.959-.958-1.438-.48 0-.48-.48-1.438.48-.479.478-3.354 2.395-3.354 2.395.479.48.958 1.917 3.354.48h.48l-5.272 3.834v-.48c2.396-1.917 1.438-3.354.958-3.834l-3.354 2.397c-.959.479-.959.958-.959 1.437.48 0 .48.48.959.959.48.958 1.917 1.917 4.313.958l.48.48-3.835 1.437-4.792-7.668h.48c.478.48.958.959 1.916.48zM54.878 322.36l-3.355 2.875c-.48.48-.48 1.438 0 1.917h-.48l-3.354-3.354.48-.48c.479.48.958.959 1.916 0l6.23-6.23c.959-.479.959-.958.48-1.917l3.354 3.834c-.48-.479-1.438-.479-1.917 0l-2.875 2.876 2.396 2.396 2.875-2.396c.959-.959.48-1.438 0-1.917l.48-.48 3.354 3.835h-.479c-.48 0-.958-.48-1.917.479l-6.23 5.75c-.959.959-.959 1.438-.48 1.917v.48l-3.354-3.834c.48 0 1.438.479 1.917 0l3.355-3.355zM62.068 332.43l1.437 1.438 1.917-4.313s-1.438.479-3.834 1.916l.48.959-.48.48-.958-.96c-.48.48-.959.48-1.438.96-1.438.958-.958 1.437-.48 1.916v.48l-2.395-2.397h.479l1.917-.48 9.584-5.27.48.479s-.48.479-4.793 10.064c0 .958-.479 1.437 0 2.396l-3.834-3.355.48-.48c.479.96 1.437.96 1.917 0 0-.478.479-1.437.479-1.916l-1.438-1.438.48-.479zM65.898 342.01l.479-.48c.479.48.958.48 1.917 0l6.23-8.146-.48-.48c-.958-.479-2.396-.479-3.833.959v-.48l1.917-2.395 7.188 5.271-2.396 2.876h-.48c1.438-1.438.959-3.355 0-3.834v-.48l-6.23 8.147c-.958.48-.479 1.438 0 1.917h-.479z"/><path d="M78.358 343.93l-2.397 3.355c-.479.958 0 1.437.48 1.917l-.48.479-3.834-2.876v-.479c.959.48 1.438.48 1.917-.479l5.272-7.189c.48-.958 0-1.437-.48-1.916l.48-.48 3.834 2.876v.479c-.959-.48-1.438-.48-1.917.48l-2.396 3.354 2.875 1.917 2.396-3.355c.48-.958 0-1.438-.479-1.917l.48-.48 3.833 2.876v.48c-.479-.48-1.437-.48-1.917.479l-4.792 7.668c-.959.479-.48.958 0 1.437v.48l-4.313-2.876h.479c.48 0 .959 0 1.438-.48l2.396-3.833zM87.948 357.35l.479-.48c.479.48 1.437.48 1.917-.478l3.834-8.147c.479-.959 0-1.438-.48-1.917l8.147 3.834-1.917 3.833-.479-.479c1.438-1.917 0-3.834-.48-4.313-.478 0-.958-.48-1.437-.48s-.479 0-.958.96c-.48.479-1.917 3.354-1.917 3.354.48.48 1.438 1.438 3.354-.959h.48l-2.876 5.751-.479-.479c1.438-2.875-.48-3.355-.958-3.355l-1.917 3.834c-.48.959 0 1.438.479 1.438v.48zM101.838 364.06c-1.438-.958-1.438-3.834 0-6.71.958-2.875 2.875-5.27 4.792-4.312 1.438.479.958 3.354 0 6.23-1.438 3.354-3.355 5.271-4.792 4.792h-.48c3.355 1.438 5.751-.48 7.189-3.834 1.437-2.875.958-6.23-1.917-7.668-2.876-1.437-5.75.48-7.189 3.834-1.437 3.355-.958 6.71 1.917 7.668zM116.698 365.01l1.917-5.75c.479-.96 0-1.439-.48-1.918l2.396.48v.479c-.479 0-.958 0-1.437.958l-1.917 5.751c-.959 2.396-2.396 4.313-5.272 3.355-1.917-.48-3.354-2.876-2.396-5.272l2.396-6.23c.48-.959 0-1.438-.479-1.917v-.48l4.313 1.918v.479c-.48-.48-1.438-.48-1.438.48l-2.396 6.23c-.479 1.916-.479 3.833.959 4.312 1.437.48 2.875-.479 3.834-2.875zM121.008 358.79c0-.48 0-.48-.48-.48l3.355.48 2.875 9.105 1.438-5.75c.48-.959 0-1.438-.48-1.917l2.876.479-.48.48c-.478 0-.958 0-1.437.958l-2.396 10.543h-.48l-3.833-11.502-2.396 7.668c0 1.437.479 1.437.958 1.917v.479l-2.875-.959v-.479c.479.48 1.437 0 1.437-.958l2.397-8.627-.48-1.437zM137.308 368.37c-.959 4.313-2.876 5.272-3.834 5.272h-.959s-.48-.48 0-.959l1.438-9.585c.48-.479.48-.958.958-.479h.959c.958 0 1.917 1.917 1.437 5.751l1.438.48c.959-4.793-.958-6.71-3.354-7.19-1.917-.478-4.793-.958-4.793-.958v.48c.48.479 1.438.479.959 1.916l-1.438 8.627c-.48.958-.959 1.437-1.438 1.437h-.479l4.792.959c2.397.479 4.793 0 5.751-5.272zM141.618 364.54c0-.958-.959-1.438-1.438-1.438v-.479l8.626.959-.48 3.833c0-2.396-1.437-3.354-2.395-3.354-.48-.48-.959-.48-1.438-.48-.48 0-.48 0-.48 1.438 0 .48-.479 3.834-.479 3.834.48 0 1.917.48 2.876-2.396l-.48 6.23h-.479c0-2.875-1.437-2.875-1.917-2.875l-.479 4.313c0 .958 0 .958.48.958l.958.48c1.438 0 2.875-.48 3.834-3.355h.479l-.959 3.834-9.105-.959c.958 0 1.438-.479 1.917-1.437zM157.428 370.29c0 4.313-1.438 5.75-2.876 5.75-.48-.478-.48-.478-.958-.478l-.48-.48.48-10.064c0-.479 0-.479.479-.479h.958c.959 0 2.397 1.438 2.397 5.75h1.916c0-4.792-2.396-6.23-4.792-6.23-1.917-.478-4.792-.478-4.792-.478v.479c.479 0 1.437.479 1.437 1.437l-.479 9.106c0 .958-.48 1.438-.958 1.438v.479h4.313c2.396 0 4.792-.959 5.271-6.23h-1.917zM171.328 374.12c0 .958.479.958 1.437.958v.48l-5.271.479c.479-.48 1.437-.959 1.437-1.917l-.958-9.106c-.48-.958-.959-.958-1.917-.958v-.48l5.272-.478c-.48.479-1.438.958-.959 1.916zM176.118 375.08v-.48c.479 0 .958-.478.958-1.437l-1.917-10.064h-.48c-.958.48-1.916 1.438-1.437 3.355h-.48l-.478-3.355 8.626-1.438.48 3.355h-.48c0-1.917-1.438-2.396-2.876-2.396h-.479l1.917 10.064c0 .958.48 1.437 1.438 1.437v.48zM196.728 365.49l-1.917-5.75c0-.96-.959-.96-1.438-.96v-.478l2.396-.959v.48c-.48.479-.48.479-.48 1.437l1.918 6.23c.479 1.917.479 4.792-2.396 5.75-1.917.48-4.314-.478-4.793-3.354l-1.917-6.23c-.479-.958-.958-.958-1.437-.958l-.48-.48 4.793-1.437v.479c-.48.48-.959.958-.48 1.917l1.438 6.23c.48 1.917 1.917 2.875 3.355 2.875 1.437-.479 1.917-2.396 1.437-4.792zM201.998 362.14c2.396-.958 1.916-2.396 1.437-3.834-.479-1.438-1.437-2.396-2.396-1.917-.48 0-.958.48-.48.959l1.438 4.792.48.48.958 3.833c.48.959 1.438.959 1.917.48v.479l-4.313 1.917-.48-.48c.96-.479.96-.958.96-1.917l-3.355-8.147c-.48-1.437-.959-.958-1.917-.958v-.48l4.792-1.916c1.917-.48 3.834 0 4.792 1.917.48 2.396-.479 3.834-2.396 4.792-.479 0-.958.48-.958.48zM213.978 363.58c-1.438.48-3.355-1.438-4.793-4.792-1.438-2.876-1.438-5.751 0-6.23 1.438-.48 3.355 1.437 4.793 4.313s1.437 5.75 0 6.709c2.875-.959 3.833-4.313 2.396-7.668-1.438-2.875-4.313-4.792-7.189-3.834-2.875 1.438-3.834 4.793-2.396 7.668 1.438 3.355 4.313 5.272 7.189 3.834zM214.458 350.16h-.959l2.875-1.917 8.627 4.792-2.876-5.271c-.479-.959-1.437-.959-1.917-.959v-.479l2.397-.958c-.48.479-.959.958 0 1.917l4.792 9.584-.48.48-10.542-5.751 3.834 7.188c.479.959 1.437.959 1.916.48v.479l-2.396 1.437v-.479c.48-.48.48-.958 0-1.917l-3.834-7.668-1.437-.958zM236.028 351.6v-.48c0-.478.479-.958 0-1.916l-5.751-8.147h-.48c-.958.48-1.437 2.396 0 3.834l-.479.479-1.917-3.355 7.189-4.792 1.917 2.875c-1.438-1.437-2.876-1.437-3.834-.958l-.48.48 5.751 8.146c.48.959 1.438.959 1.917.48v.479zM241.298 340.09l2.875 3.355c.48.479 1.438.479 1.917 0v.479l-3.834 3.354v-.479c.48-.479.48-.958 0-1.917l-5.75-7.188c-.48-.959-.96-.48-1.918-.48l3.834-3.354v.48c0 .478-.48.958 0 1.916l2.396 2.876 2.876-1.917-2.396-3.355c-.48-.958-1.438-.48-1.917-.48l3.833-3.354v.48c-.479.479-.479.958 0 1.916l5.751 7.189c.48.48.959.48 1.438 0l.48.48-3.835 3.354-.479-.48c.48-.479.958-.958.48-1.917l-2.876-3.354zM245.608 330.03c-.48-.48-1.438-.48-1.917 0v-.48l6.23-5.75 2.875 2.875h-.48c-1.437-1.917-3.354-.958-4.312-.479 0 .48-.48.48-.959.959 0 0 0 .479.48 1.437l2.875 2.876c.48-.48 1.917-1.438 0-3.834h.48l3.833 4.313v.48c-2.396-2.397-3.355-.96-3.834-.48l2.876 2.875c.479.959.958.959.958.959l1.438-1.438c.479-.48.958-1.917 0-4.792h.479l1.917 3.354-6.23 6.23-.48-.479c.48-.48.96-.958 0-1.917zM257.148 316.61c-.48.48-.48 1.438.479 1.917.958.958 1.917.958 3.834 0 .958-.48 2.875-.959 4.313.48 2.396 2.395 1.438 4.312.958 5.27-.479.48-1.437.96-1.917 1.438-.479 0-.479 0-.479.48v.479l-3.355-2.875h.48c1.917.958 3.834 1.437 4.792 0 .959-.959 0-1.917-.48-2.397-.958-.958-1.916-.958-3.354 0-1.438.48-3.354.48-4.792-.479-1.917-1.917-1.917-3.355-.959-4.792.48-.48 1.438-.959 1.917-1.438.48 0 .48 0 0-.959l3.355 2.397h-.48c-2.396-.959-3.833-.48-4.313.479zM261.448 312.78c-.959-.48-1.438 0-1.917.48h-.48l5.272-7.669 3.355 2.397-.48.479c-1.917-1.438-3.833-.48-4.313 0 0 .48-.479.958-.479 1.438-.48 0-.48.479.48.958.479.48 3.354 2.396 3.354 2.396.48-.479 1.438-1.437-.48-3.354v-.48l4.793 3.834c-2.875-1.437-3.355 0-3.834.48l3.355 2.396c.958.479 1.438.479 1.438.479 0-.48.479-.959.958-1.438.48-.958.958-2.396-.958-4.313l.479-.48 2.396 2.876-4.792 7.189h-.48c.48-.959.48-1.438-.479-2.396zM274.348 304.15l-1.438 2.396c-1.917-1.917-2.876-3.354-2.876-3.354l4.314.958h.958c.48 0 1.438.48 1.917.48 1.438.479.958.958.48 1.916h.478l2.397-4.313c-.959.959-1.438.48-2.397.48-10.064-1.918-11.022-2.397-11.022-2.397v.48l7.668 8.626c.48.479.48 1.437.48 1.916h.479l1.437-2.396-.479-.479c-.48.959-.958 1.438-1.917 0l-.958-.958 1.437-3.355zM271.448 293.61c-.48.48-.48 1.438.958 1.917 1.438.48 1.917 0 3.355-.958 1.437-.959 2.875-1.917 4.792-.959 2.875 1.438 2.396 3.834 1.917 4.792-.48.48-.959 1.438-1.438 1.917v.959l-3.834-1.917c2.397.48 4.313 0 4.793-1.438.479-.958-.48-1.917-.959-2.396-.958-.48-1.917 0-3.354.958-1.438 1.438-2.876 1.917-4.793.959-1.917-.959-2.875-2.396-1.917-3.834 0-.958.959-1.438 1.438-1.917 0-.48 0-.48-.48-.958v-.48l3.835 1.917h-.48c-2.396-.479-3.833.48-3.833 1.438z"/></g></g><g stroke="#000"><g fill="#073163"><path d="M120.048 123.96c-6.23 1.438-10.543 1.917-16.294-3.355-3.834-3.834-2.876-10.543.958-12.939 4.313-2.875 8.147-4.792 13.419-3.354 5.272 1.437 19.169 14.377 15.815 14.856-3.355 0-8.626 3.354-13.898 4.792zM134.908 100.96c1.916-1.438 4.313-2.396 10.543-2.875 5.75-.48 10.064-.48 11.502 3.834 1.916 5.271 3.354 11.501 7.188 14.376-2.396 1.438-14.377 2.876-18.69.48-5.75-2.876-7.188-13.898-10.543-15.815zM176.118 101.44c1.916-1.438 4.313-1.438 10.543-.958 6.23.479 8.626.958 10.064 5.271 1.437 4.793 0 11.022 2.875 15.336-2.875.959-12.46.959-15.815-2.396-5.272-3.834-4.792-14.856-7.668-17.252z" fill="#fff"/><path d="M204.878 104.31c-4.314-.958-7.189-1.438-9.106 0 2.396 2.875.48 14.377 5.272 18.211 3.354 2.396 11.98 2.875 13.898-2.396 2.396-4.793 2.396-11.981-10.064-15.815zM155.518 99.52c1.437-1.438 4.313-1.917 10.064-1.917 6.23 0 10.064.959 11.98 4.793 1.917 4.792 1.438 11.021 4.793 14.855-1.438 1.917-14.377 1.917-18.211-.958-5.272-3.355-5.75-14.377-8.626-16.773zM114.778 103.83c0-2.396 3.354-2.875 11.98-3.355 8.627-.958 9.106-.479 11.982 5.751 1.437 3.355 3.354 9.106 7.188 11.022-10.543 2.396-13.898 3.834-19.649.48-4.313-2.397-9.105-8.148-10.064-10.544-.48-1.437-.48-2.875-1.438-3.354z"/></g><g fill="#f9d050" stroke-width=".647"><path d="M137.788 54.95c-10.064-7.668-22.045-14.856-33.067-16.294 7.188 4.313 27.316 20.128 32.588 25.4"/><path d="M143.538 47.76c-11.981-8.147-25.88-17.252-39.297-18.211 10.064 5.272 24.92 17.732 33.067 27.796M158.868 34.34c6.709-14.856 13.898-23.003 23.482-32.109-4.793 10.064-10.064 30.671-12.46 38.818"/><path d="M169.408 31.95c4.792-10.543 11.98-19.649 24.44-25.4-6.23 6.23-15.814 24.92-18.21 34.984"/><path d="M173.728 41.53c5.75-8.147 17.252-23.482 37.86-31.63-11.981 11.981-29.713 34.026-34.026 42.652M180.438 52.07c8.626-4.792 25.879-12.46 38.339-10.064-7.668 2.875-30.671 13.419-40.735 23.003"/><path d="M178.518 48.72c8.147-8.626 23.003-21.566 38.818-26.837-11.502 11.022-35.943 35.943-39.297 39.776M155.518 43.45c-5.751-17.732-14.377-34.505-27.316-39.776 7.188 10.543 16.294 25.879 21.086 48.882M144.488 42.97c-9.585-11.502-22.524-23.003-37.38-25.4 10.064 5.75 26.837 22.524 33.067 38.818"/><path d="M149.768 42.49c-11.981-21.566-21.086-25.4-26.358-29.713 4.313 8.147 14.856 29.713 21.086 38.818"/><path d="M125.798 41.05c5.75 3.355 14.377 11.502 17.252 16.773" fill="none"/><path d="M125.798 51.12c2.875 2.396 8.147 5.272 12.939 9.585M182.828 58.3c4.792-3.834 15.336-10.064 20.607-11.981M179.478 54.95c4.792-6.23 14.377-14.856 17.732-17.732M192.898 25.24c-4.314 4.792-14.377 16.773-18.211 22.524M180.438 20.92c-3.355 4.313-10.064 16.773-11.981 21.086M142.578 21.88c2.875 7.668 8.147 20.607 10.064 25.879M138.258 30.03c1.917 2.875 5.75 9.585 7.188 14.377"/><g><path d="M154.558 27.63c0-4.313 2.875-9.106 5.75-9.106 3.355 0 5.751 5.751 5.751 9.106 0 3.834-2.875 7.188-5.75 7.188s-5.751-2.875-5.751-7.188z"/><path d="M148.328 31.47c.479-4.792 3.833-8.626 6.709-8.147 2.875.48 4.313 6.23 3.834 9.585-.48 3.834-3.834 6.709-6.23 6.23-2.396 0-4.793-3.355-4.313-7.668zM161.268 32.91c-.959-4.313.958-9.106 3.833-9.585 2.876-.479 5.751 4.313 6.23 8.147.959 3.834-1.437 7.668-3.833 7.668-2.397.48-5.751-1.917-6.23-6.23z"/><path d="M154.078 36.74c0-4.792 2.875-9.106 5.75-9.106 3.355 0 5.751 5.272 5.751 9.106 0 3.834-2.875 7.188-5.75 7.188-2.876 0-5.751-2.875-5.751-7.188z"/><path d="M145.448 39.13c0-4.313 3.354-9.106 6.23-9.106 2.875 0 5.75 5.751 5.75 9.106 0 3.834-3.354 7.188-5.75 7.188-2.876 0-6.23-2.875-6.23-7.188zM163.188 37.22c0-4.313 2.875-9.106 5.75-9.106 3.355 0 5.751 5.751 5.751 9.106 0 3.834-2.875 7.188-5.75 7.188s-5.751-2.875-5.751-7.188z"/><path d="M161.268 41.05c0-4.792 3.354-9.105 6.23-9.105s5.75 5.271 5.75 9.105c0 3.834-2.875 7.189-5.75 7.189s-6.23-2.876-6.23-7.189z"/><path d="M153.598 45.37c0-4.792 2.875-9.106 5.75-9.106 3.355 0 5.751 5.751 5.751 9.106 0 3.834-2.875 7.188-5.75 7.188s-5.751-2.875-5.751-7.188zM141.618 45.37c0-4.792 2.396-9.106 4.792-9.106s4.313 5.751 4.313 9.106c0 3.834-2.396 7.188-4.313 7.188-2.396 0-4.792-2.875-4.792-7.188zM168.458 44.41c0-4.313 2.396-8.626 4.792-8.626s4.792 5.271 4.792 8.626c0 4.313-2.875 7.188-4.792 7.188-2.396 0-4.792-2.875-4.792-7.188z"/><path d="M171.328 52.55c.958-4.792 3.833-8.626 5.75-8.147 1.917.48 2.397 6.23 1.438 9.585-.48 4.313-3.355 6.709-5.272 6.23-1.917-.48-2.875-3.834-1.917-7.668z"/><path d="M162.228 51.12c.479-4.313 3.354-8.626 5.75-8.147 2.876 0 4.313 5.75 3.834 9.105-.479 4.314-2.875 7.189-5.271 6.71-2.397 0-4.793-3.355-4.313-7.668zM148.808 52.55c-1.438-4.792-4.314-8.147-6.23-7.668-1.917.48-2.397 6.23-1.438 9.585.958 3.834 3.834 6.23 5.75 5.75 1.438-.479 2.876-3.833 1.917-7.667z"/><path d="M145.448 51.59c0-4.313 2.396-8.626 4.792-8.626 2.875 0 4.792 5.271 4.792 8.626 0 4.313-2.396 7.188-4.792 7.188-1.917 0-4.792-2.875-4.792-7.188z"/><path d="M152.638 53.51c0-4.792 2.875-9.105 5.75-9.105 3.355 0 5.751 5.271 5.751 9.105 0 3.834-2.875 7.189-5.75 7.189s-5.751-2.876-5.751-7.189zM155.038.8c-.959 3.834-4.314 7.188-1.917 12.46-4.313-1.438-8.147-1.917-11.502 1.917 4.313-.48 8.147.958 10.064 3.834-3.834-.48-5.751 1.437-6.71 3.834 3.355-.959 6.71-1.917 8.147-1.438-1.437 1.438-3.834 3.834-4.313 5.75 2.876-2.395 6.23-1.916 8.147-3.354-1.437 3.355 1.438 6.71 3.834 10.064-.48-4.792 2.396-8.147.959-10.543 4.313.959 4.792 4.793 11.022 4.793-2.397-1.438-3.834-6.23-6.71-6.23 1.438-.48 7.189-.959 8.147 0-.958-1.917-4.313-3.834-6.23-3.834 1.917-1.917 5.272-5.751 7.668-6.71-3.355.48-8.626.959-10.543 3.834 4.792-3.834 3.834-11.022 9.105-11.98-2.875-.48-7.188 1.437-10.543 4.792 1.438-2.876 1.438-6.71 3.355-7.668-3.834.958-8.147 5.75-9.585 8.147 0-2.396-1.437-6.23-2.396-7.668zM157.428 8.46c0 1.438 0 4.313-.48 5.272M163.658 7.99c-.959.958-2.876 4.313-2.876 7.188"/><path d="M166.538 13.74c-1.438.958-2.876 2.396-3.355 4.313" fill="none"/></g></g><g fill="#059334"><path d="M115.738 61.18c-3.355 0-6.23-1.438-8.147-3.834-3.355-4.313-12.46-6.23-16.294-2.396-1.438.958-3.355.958-4.793 1.438-2.396 0-5.271 2.396-4.313 7.188 1.917-1.438 2.396 0 3.834 0 .958-.48.48.48.48 1.438 0 2.396 5.27 7.188 10.063 6.71 5.272 0 7.668 1.916 8.626 2.874 1.438 1.438.48.959 1.438 3.355 1.438 1.438 1.917 1.917-.48 3.834-3.354 2.875-5.75 9.585 0 14.856 6.23 4.792 22.046 11.981 39.777-1.917 17.252-13.419 44.09-5.75 46.007-.958 2.396 4.792 3.354 7.667 3.834 10.064.479 1.916 2.875 3.833 6.23 3.354 3.354 0 7.188 1.438 9.105 2.876 2.397 1.437 5.751.958 4.793-3.355-1.917-13.42-10.064-15.336-11.022-21.566 4.792.48 8.147.48 10.064-1.438 1.437-1.917 3.354-5.271 5.271-6.23 1.438-.958 1.438-1.917-.479-1.438-2.396.48-3.834 1.438-8.147.959-22.045-2.396-83.866-19.17-95.847-15.815z"/><path d="M213.498 77.47c-2.397 1.438-4.793 3.834-9.106 9.585-4.792 6.23-19.169 12.46-36.901 12.46-17.252 0-27.796-2.876-35.463-9.106-4.313-3.354-7.668-5.271-10.543-6.71-5.272-2.395-6.23-7.667-4.792-11.98-1.438 2.396-2.397 4.792-5.272 4.313-1.917 0-5.75 0-4.792 1.917-.48-.959-.48-2.396-.959-2.876l-.958-.958c1.437.958 4.792-1.917 7.188-1.917 1.917.48 4.313-1.917 3.834-4.792-.48-2.396-.958-4.313-1.438-6.23 3.834-1.917 54.154 7.188 64.218 8.147 10.064.479 38.818 4.792 34.984 8.147z" fill="#000"/><path d="M122.448 59.26c4.792-4.792 10.543-7.188 16.294-5.75h1.437c2.876-2.397 9.585-2.876 13.42-.96h1.916c5.75-1.916 16.773 0 20.607 3.835l1.438.958c12.939-.958 20.607 4.793 29.713 13.898.958.959 2.396 2.876 4.792 3.355 2.876.479 3.355 1.917.959 3.354-2.876 1.438-5.272 3.834-10.064 9.106-4.313 5.75-18.211 11.502-35.463 11.502-16.773 0-26.837-2.876-34.505-8.626-4.313-3.355-7.668-5.272-10.064-6.71-2.876-.958-6.71-4.792-5.272-8.626.959-3.834-1.438-8.626-3.355-13.419 1.438-.958 5.272-2.396 7.189-1.438l.958-.479z"/><g fill="#00493d"><path d="M207.268 71.24c-9.106-9.105-16.773-14.856-29.713-13.898 0 .48 0 1.917-.48 2.875 7.668 2.876 18.69 11.502 23.482 17.732 1.917-1.917 5.272-4.313 6.71-6.709zM176.118 56.39c-3.834-3.834-14.856-5.75-20.607-3.834 0 1.917 0 4.793-.959 6.71 3.355 1.437 6.23 4.792 9.106 8.146 1.916-.479 6.709-1.917 9.105-2.396.959-1.917 2.875-6.23 3.355-8.626zM153.598 52.55c-3.834-1.917-10.543-1.438-13.42.958-.958 1.917-1.437 5.751-1.437 7.668 1.917 0 4.792 1.438 5.75 2.396 2.876-.958 6.71-2.875 8.148-4.313.479-1.917 1.437-4.792.958-6.709zM122.448 59.26c4.792-4.792 10.543-7.188 16.294-5.75-.959 1.437-1.438 4.312-1.438 7.188-5.272-.48-11.981.958-14.856 2.875V59.26z"/><path d="M198.648 78.91c-4.314-6.23-14.856-13.419-22.045-16.773 0 .48-.959 2.396-1.438 3.834 2.875 4.313 8.626 13.898 11.022 19.169 2.396-.959 9.105-3.834 12.46-6.23zM162.228 89.45c.958-6.71 1.437-16.294 1.437-19.649 2.396-.48 7.189-1.917 9.106-2.396 2.396 3.834 8.147 13.898 10.543 18.69-5.751 1.438-15.336 3.834-21.086 3.354zM145.448 66.45c2.396-.958 5.75-2.875 8.147-4.792 1.916 1.437 5.75 4.792 7.188 6.709 0 4.313-1.438 16.773-1.917 21.086-3.834 0-10.064-.959-13.419-2.876.48-7.188.958-15.335 0-20.127zM121.488 72.2c.479-.958.958-4.313.958-5.75 3.834-2.397 13.419-4.793 20.607-.96.48 4.793 0 16.774-.48 19.65-6.23-4.793-16.293-11.502-21.085-12.94z"/></g><g fill="none"><path d="M97.528 63.58c-.959 0-1.438-2.875-3.355-2.875-.48 0-1.917.479-2.396 0 0 .958.479 1.917.958 2.396.48 1.438 2.876.479 4.793.479z" fill="#000" stroke="none"/><path d="M97.528 71.72c5.75 0 6.709-7.189 9.584-7.668M100.878 72.2c4.313 1.917 7.667-8.147 11.022-7.668M92.258 59.74c1.437 0 2.396-1.917 4.792.48.958.958 2.396 1.437 3.355 1.437M99.448 66.93c-1.917 2.875-5.272 4.792-7.189 3.834M91.298 54.95c-1.438.958-2.397 2.875-3.355 4.313M86.508 62.14v2.396"/></g></g></g><g transform="translate(-743.152 -108.51)"><path d="M989.72 232.95v93.451c0 80.991-38.339 108.79-89.617 130.83-51.278-22.045-90.096-49.84-90.096-130.83V232.95h179.71z" fill="#fff"/><path d="M900.1 312.02c4.313 0 11.022-3.834 16.773-9.585 6.23-6.709 16.773-9.105 27.796 0 11.022 9.106 17.732 5.272 23.482 0 5.75-5.271 10.543-7.188 21.566-7.188v-62.301h-179.71v62.3c11.022 0 15.815 1.918 21.566 7.19 5.75 5.27 12.46 9.105 23.483 0 11.502-9.106 21.566-6.71 28.275 0 5.272 5.75 11.981 9.584 16.773 9.584z" fill="#cf142b"/><g fill="#0b50a0"><path d="M900.1 359.95c5.75 0 17.252-6.23 20.128-7.668 10.543-6.23 18.211-.479 24.441 2.396 6.71 2.876 19.169 6.23 26.837 0 7.668-6.23 11.981-5.75 17.252-5.75.958-7.189.958-14.377.958-22.524v-5.751c-6.709-1.438-10.064.479-17.252 6.71-7.188 6.23-15.336 4.791-25.879.958-10.064-4.314-20.128-11.981-30.192 0-2.875 3.354-9.584 8.147-16.294 8.147-7.188 0-13.419-4.793-16.294-8.147-10.543-11.981-20.128-4.314-30.192 0-10.543 3.833-19.169 5.271-26.358-.959-6.709-6.23-10.064-8.147-17.252-6.71v5.752c0 8.147.48 15.336 1.438 22.524 5.272 0 9.106-.48 16.773 5.75 7.668 6.23 20.607 2.876 26.837 0 6.71-2.875 14.377-8.626 24.92-2.396 2.876 1.438 13.898 7.668 20.128 7.668zM900.1 380.55c7.189 0 15.815-2.875 23.482-7.189 9.585-5.271 16.294-2.875 25.879 1.918 10.064 4.792 18.211 3.354 23.962 0 2.875-1.917 5.272-5.751 11.502-4.314-2.875 11.981-7.189 22.524-12.46 31.15-9.585 2.397-14.856 2.397-24.92-1.917-10.064-4.792-22.524-7.667-29.233-3.354-6.23 3.834-12.939 5.75-18.211 5.75-5.272 0-11.981-1.916-18.211-5.75-6.71-4.313-19.169-1.438-29.233 3.354-10.064 4.314-15.336 4.314-24.92 1.917-5.272-8.626-9.585-19.169-12.46-31.15 6.23-1.437 8.626 2.397 11.502 4.314 5.272 3.354 13.898 4.792 23.482 0 10.064-4.793 16.773-7.189 26.358-1.917 7.668 4.313 16.294 7.188 23.482 7.188zM900.1 457.23c19.169-8.147 36.901-17.252 51.278-29.713-3.834-1.438-6.23-.48-9.585-2.875-3.354-2.397-13.419-3.355-22.045 1.437-9.105 4.313-12.939 5.272-19.649 5.272-6.709 0-10.543-.959-19.649-5.272-8.626-4.792-18.69-3.834-22.045-1.437-3.354 2.396-5.75 1.437-9.584 2.875 14.377 12.46 31.63 21.566 51.278 29.713z"/></g><g stroke="#000"><path d="M887.64 256.43c.48.958-.48 3.355 0 4.313.958 1.917.958 2.876 2.396 3.834h3.355c10.543 0 23.003-4.313 33.546-4.313 10.064 0 16.294 3.354 22.045 3.354 3.354 0 6.23-2.396 6.23-4.792s-3.834-3.834-11.981-3.834c-11.502 0-17.732 2.876-27.316 2.876-14.377 0-16.773-5.272-16.773-7.668s2.396-5.751 10.064-5.751c2.396 0 4.313-.48 5.271-1.438.48-.958 1.917-2.875 4.793-4.313 3.355-1.917 10.064 0 13.419-2.396 0 1.917-2.875 4.792-5.272 5.75 4.793-1.437 10.064-1.437 11.022 2.397-2.396-1.438-6.23-.48-7.667 0-1.917.48-2.876.958-4.793 1.438 1.917-.48 2.875 3.354 5.75 3.354-2.874 2.396-7.667 2.396-12.46.48-1.437-.48-5.27-1.917-7.667-1.917-4.792 0-7.668.958-7.668 2.875 0 2.396 2.876 3.834 11.502 3.834 8.627 0 13.42-2.396 26.358-2.396-.958-1.438.48-2.876-1.437-4.313 4.792 0 10.064 1.437 11.98 4.792-.479-3.355 2.397-6.23 1.438-9.105 2.876.479 5.272 3.354 5.751 5.75 0-1.437 1.917-1.437 1.917-2.875 2.875 1.438 4.313 4.792 3.834 7.668 1.438-2.396 2.875-1.438 3.834-4.313.958 1.917.479 7.667-2.876 9.584 2.876-1.917 7.189-1.917 10.064 1.438-2.875-.48-4.313.959-5.75 1.438-5.751 3.354-15.336 5.271-22.524 4.792-7.668-.48-8.627-1.917-13.42-1.917 2.876.48 8.627 6.23 13.899 6.23 3.354 0 5.75 0 7.188-.479 1.438-.48 3.834 0 5.75.958 1.439 1.438 4.314 2.876 6.231 2.397-.48 1.917-1.438 2.875-2.875 3.354 2.396 1.438.958 2.396 3.354 4.313-.958 0-1.917.959-3.354.48 1.437 1.437 1.437 3.354 2.875 4.313-.48 0-1.917.479-2.875 0 1.437 1.917 0 4.313 1.437 5.271 1.438 1.917-1.437 4.313-3.834 2.397.48 1.437-.958 2.875-2.396 2.396-1.438-.48-2.396-1.917-1.917-2.396 0-.48 0-.48.48-.959-.959 1.438-2.876 1.438-3.834.959-.48-.48-.959-.959-.959-1.438-3.354.958-4.792-1.917-4.313-3.355.48-1.437 3.355-1.917 4.313-1.437.959.479 1.917.958 2.876 0 .958-.48 1.437-1.438 1.437-2.397 0-1.437-1.437-5.75-7.668-5.271-7.188.479-18.69-1.438-24.44-3.355-.48-.48-.959-.48-1.438-.958 0 1.917-1.917 2.875-1.917 4.792 0 2.396.958 4.313 3.834 5.272-1.438 2.396-3.834 1.917-4.793.479 0 1.438-1.917 2.396-1.917 4.313-.479-.958-.958-1.438-1.437-2.396-1.438 3.354-5.272 5.271-7.189 4.313-2.396 1.917-5.271 1.438-6.23-.48-1.438.96-3.355.96-4.313 0 0 1.438-.959.96-1.438 2.876 0 .959-1.917 1.438-2.875.959-.959-.48-1.438-2.397-.48-3.355-1.437.958-2.875.958-3.833 0 0-.959 0-2.396.958-2.875h.959c-.959-.48-2.397 0-3.355-.48-.958-.958-.958-1.917-.48-2.875.48-.48 1.918-1.438 2.876-.48l.48.48c0-.959.479-1.917.958-1.917.958-.48 2.396-.48 3.834.958.958 1.438 1.917 1.438 4.792.959 2.396 0 6.23-2.396 9.106-4.793-8.147-1.437-3.355-6.709-.959-8.626-1.917-.479-4.792-.479-6.709.48-10.064 5.271-20.607 11.501-27.316 9.584 0 .959.48 1.917.958 2.876-1.437 0-4.313 0-5.271-1.438-.48.958-1.438 3.354-.48 5.271-.958-.958-3.833-1.916-5.271-2.396.958.959 0 2.876.48 4.313-1.438-1.437-3.835-2.396-4.793-1.437s-2.876 1.437-4.313.958c-.959 1.438-2.396 2.396-3.834 2.876 0-.959 0-2.397-.48-2.876-.479 1.438-1.916 3.355-3.833 4.313 0-.958 0-2.396-.48-3.354 0 1.917-3.833 2.875-4.313 4.313.48-1.438.48-2.876.48-3.834-.959 1.438-2.397 2.875-4.793 3.354.48-.958.959-1.916.48-2.875-.48 1.917-3.355 2.875-5.751 2.396 0 .959-1.917 2.396-4.313.959-1.438-.48-2.397-1.917-1.438-2.876-1.917 0-3.834-1.917-2.876-3.354 0-.48.48-.959.48-1.438-1.438-.958-1.917-2.875-.48-4.313.48-.48 1.917-.48 2.876-.48 0-3.833 3.354-3.833 4.792-.958.959 1.438 3.834 3.834 6.23 3.355.959 0 1.438-.48 2.397-.48 2.875-.958 8.626-3.354 11.98-6.23.48-1.437.48-2.396.48-3.354-1.917.958-3.834 1.917-4.793 3.354v-1.437c-1.437 0-3.834-.48-4.792-.48.48-.479.958-2.875 1.917-3.354-2.396.48-4.792 0-6.71-.48.96-.958.96-2.395 1.438-3.833-.958.479-3.354-.48-5.271 0 .479-1.438.958-3.355 2.396-3.834-1.917.48-4.313 0-6.71-.959 1.918 0 2.876-2.396 4.314-2.396-3.834 0-4.793-1.917-6.71-2.875 1.438.48 2.397-.959 3.834-.959-1.437-.479-3.834-2.875-2.875-4.313-.48.48-.959 1.438-1.917 1.917-.958.48-2.875 0-4.313-1.438-.959-1.916-.48-4.313 1.438-4.792-2.397-.48-2.397-2.875-1.438-3.834.48-.958 2.396-2.396 3.355-.958.479.479.958 1.437 1.437 1.917-.479-.959-.479-2.876-.479-4.314.48-1.437 1.438-1.437 2.875-1.916 1.438 0 2.397 1.437 2.397 2.875s.479 2.396.958 4.313c0-.48.48-1.438.48-1.917 0-1.917 2.396-1.438 3.833-.958 1.438.479 1.917 3.354 0 4.792-.958.959-.479 2.396.48 3.355 3.354 5.271 9.105 9.584 13.897 10.064 0-1.917.959-3.834 2.397-5.272 0-.958.479-2.396.958-3.354.48-2.876 1.917-4.314 3.834-3.355-.48-.48-.958-.959-.958-1.438-1.438-1.437-2.876-3.834-1.917-5.75s3.834-1.438 4.792-.48c-.48-2.875 2.875-5.271 2.875-6.71.48 1.439 1.438 3.355.959 4.793.48-1.917 3.834-4.313 6.23-5.271-.958 1.437 1.917 3.834 1.438 5.271.958-2.396 4.792-3.834 7.668-3.834-.959.959-.959 2.876-.959 3.834 1.438 0 3.834-.479 4.792-1.917 0 1.917-.958 3.834-1.916 4.793.479-.48 2.396-.48 3.833-.48-1.437 1.438-.958 2.876-2.396 3.834 1.917-.958 4.313-.958 4.793.959.958 1.438-.48 3.834-1.438 5.272-.958.479-1.917 1.437-2.396 1.437z" fill="#f9d050"/><g fill="none"><path d="M857.93 262.18c-3.355 1.438-4.313 4.792-4.792 6.71M857.45 265.54c-4.792 2.875-6.71 5.272-5.75 10.543M859.85 279.91c2.875-.958 4.792-1.917 7.189-6.23"/><path d="M865.6 275.6c-.958 1.917 0 5.272-1.438 6.71 2.397-1.438 4.313-3.355 4.793-6.71"/><path d="M866.56 280.87c1.917-.958 4.792-3.834 6.23-7.189-.48 1.438 0 3.834-.958 5.272 2.396-2.396 3.354-3.834 3.834-6.23 0 .48.479 1.438.479 1.917.958-.959 1.917-1.917 1.917-3.834M878.06 272.25v2.396c1.917-1.437 2.396-3.354 2.396-5.75M879.98 271.77c2.875-1.917 3.355-4.792 3.355-9.105M883.33 267.45c1.917-1.438 2.396-2.396 2.396-6.71M879.5 247.8c-.958 0-1.917.48-1.917 1.917 0 .958-1.438 2.396-1.438 3.834-.479 1.917-1.437 2.396-2.875 1.917-1.438-.959-1.438-.959-1.438-2.396 0-1.917 2.397-2.397 2.397-4.314.479-.958.958-2.396 1.437-2.396-2.396 1.438-5.75.48-6.23-2.396"/><path d="M883.81 249.24c-.958.48-1.917-.958-3.355-.48-.479 0-1.917.48-2.396 0"/><path d="M877.1 251.64c.48.48 2.875 1.438 5.272.48-1.917.478-3.355-1.918-1.438-3.355M872.79 246.85c-1.917 0-3.355 1.438-2.875 2.875.479 1.438 2.396 1.438 3.833.48M869.43 270.81c.48-.48.958-1.438.958-1.917.959 0 1.917-.48 2.397-.958 1.917 0 3.354-1.438 3.834-2.876.958 0 1.437-2.396 1.916-3.354.48.479 1.438 0 1.917-1.917.959.479 2.397 0 2.876-1.438M863.68 254.99c0 .48-.958 1.438-1.917 1.917.48.958 0 3.355-.958 3.834.479.958 0 2.396-.48 3.354 0 .48.48 1.917.48 2.397M865.6 245.41c-.958 2.396-.48 5.272 1.438 5.75"/><path d="M866.56 253.08c-.48 2.396-.48 5.75-.958 7.189-.48.958-1.438 4.313 2.396 5.271 4.313.959 6.709.48 9.105-6.71M884.29 277.52c0 .48-.48 1.438-1.438 1.438M887.64 276.56c0 .958-.958 2.396-1.438 2.875M891 275.6c0 .958 0 2.396-.958 2.875M861.77 245.89c.48 0 .958.958 1.438 1.917-1.438-.959-2.876 1.438-1.917 2.875M860.33 254.04c-.48.48-1.438.958-1.917 1.438M858.89 258.35c-.48 0-.958.48-1.438.48M835.89 249.72c0-.48 0-.48.48-.958M831.57 248.28c-.48 0-.48 0-.958-.48M832.05 254.99h.958M830.14 252.12c-.958-.958-2.396-1.438-2.875-1.438M856.49 269.85c-3.355 2.875-4.792 5.272-5.272 8.626M859.85 272.25c-.958 1.917-2.396 3.355-3.834 4.313M841.16 286.62c-3.834.958-6.71.48-9.585-1.438-.479-.479-.958-.479-1.437-.958M855.54 279.91c-.48 1.917-.958 4.313-1.917 4.792 3.834-1.916 7.188-4.792 7.668-9.105M827.74 289.02c1.438-.48 2.875.48 3.834-.48M911.13 273.2c.958.48 2.396.958 2.875 1.438.48-.959 2.397-2.396 3.834-2.876M877.1 283.27c-.48-1.917.48-4.313 3.355-5.272M858.41 291.42c.48-.958.48-2.396.958-3.355M837.32 292.85c-.48.958-1.438 1.917-1.438 2.875M830.14 293.81s0-.48.48-.48c.958-.478 2.395-1.437 2.875-2.395M895.31 287.1c-.958.48-1.438 0-1.917-.48M894.83 289.5s-.48.48-.958.48M897.23 291.9c-.48.48-.958.958-1.438.958M911.13 292.85c.958-.48 1.438-1.438 1.917-3.355M904.9 292.37c1.438-.48 2.396-1.438 3.834-2.875M918.32 288.54c0-.958 0-1.917.48-2.875M953.78 292.85c-.958-.958-.958-2.396.48-3.355.958-.479 1.437-.958 2.395-1.437M924.55 276.08c-7.668-3.355-7.189-7.668-13.419-7.189M958.57 290.94c.48.48 0 1.917 0 2.396M962.88 290.94c-.48 1.438-.48 1.917-.48 3.355M925.98 245.89h-3.834M885.73 262.18c0 .958 1.438 2.875 5.272 2.875-.48 0-.959-.479-.959-.479"/><path d="M887.64 256.43c-.48.48-.958 0-.958 0-.959-.958.479-2.875 1.917-3.834-1.438.48-2.397.48-3.355.48-.959 2.875-3.834 4.312-5.75 2.396-.48 1.916-2.876 4.313-4.793 3.833-1.917-.958-2.396-2.396-1.917-3.833-2.396 2.875-5.272.958-6.23 0-.48-.959 0-3.355.958-6.23"/></g><path d="M918.32 274.64c-1.438.958-2.875 0-4.313 1.438-.959.958.48 1.437 1.438 1.437-.48 1.438-.48 1.917 1.917 1.917-.959 1.438 1.917 1.917 1.437 3.834 1.438-1.437 1.438-3.354.959-4.792-.48-1.438-2.876-2.396-1.438-3.834z" stroke="none"/><g fill="#073163" stroke="none"><path d="M874.7 259.31c-1.917-.958-2.396-2.396-1.917-3.834-.48.959-1.438 1.438-2.396 1.438-1.917 4.313-4.313 8.147-7.189 8.147-3.354.479-2.875 3.834-.479 3.834 5.272.958 7.668-.959 11.981-9.585zM827.26 247.8c1.438-1.438.48-2.875-.48-3.355-1.437-.479-4.312 0-5.75 2.397 1.438-.48 2.875-.48 3.355.479.479.958 1.437 1.917 2.875.48zM829.66 239.18c3.355 0 4.313.48 4.792 1.917.48.958-.479 2.396-1.437 2.396-1.438 0-2.876-.958-2.396-1.438.479-.958.479-2.396-.959-2.875zM839.24 246.85c2.396.48 3.355-.958 1.917-2.875-.48-1.438-1.917-2.397-4.313-1.917 2.396 1.437 0 3.834 2.396 4.792zM821.51 254.99c1.438 2.396 3.834 2.396 4.792 1.917 1.438-.48 1.917-1.917 1.438-2.875-.958-1.438-2.396-1.917-2.875 0-.959 1.916-2.397 1.437-3.355.958zM828.7 284.23c-.958-1.917-3.834-1.917-6.23 0 .958-.48 2.875 0 3.355.958.479.959 1.437.959 1.917.959.479-.48 1.437-.959.958-1.917zM832.53 281.35c0-2.396-3.355-2.875-5.272-1.917.959 0 2.397.959 2.397 1.917.479.958 1.437 1.438 1.916 1.438.959-.48 1.438-.959.959-1.438zM827.74 289.98c-2.875-.48-4.313 2.875-4.313 5.272.48-1.438 1.917-2.397 3.355-1.917 1.437 0 1.917-.48 1.917-1.438.479-.958 0-1.438-.959-1.917zM828.22 298.12c.958.48 1.917-.48 2.396-1.917 0-.958 1.917-.958 2.396-.48.959.48.959 2.397-.479 3.355-.958.48-3.354.959-4.313-.958zM894.83 283.75c-.958-.48-3.355-1.438-5.272 0 1.438-.48 2.397.48 2.876 1.438 0 .958 1.438 1.437 1.917.479.479-.48.958-1.438.479-1.917zM890.52 287.1c-1.917-.958-4.313 1.438-4.792 3.355.479-.48 2.396-1.438 3.354-1.438.959.48 1.917 0 1.917-.959.48-.479.48-.958-.48-.958zM892.92 290.94c-1.438 0-3.355 1.917-3.355 3.834.48-.959 1.438-1.438 2.397-.959.958 0 2.396-.479 2.396-1.437s-.48-1.438-1.438-1.438zM897.23 294.77c-.958-.48-2.396 0-2.396 1.438 0 1.437 0 2.875-.48 3.354.959-.958 1.917-1.437 2.876-1.917.48-.479.958-1.916 0-2.875zM951.38 290.46c-.958-.958-2.396-.48-2.875.48-.48.958-.959 3.354 0 5.27 0-.958.958-2.395 1.917-2.395 1.437-.48 1.916-2.397.958-3.355zM954.26 292.37c-1.917.958-1.917 4.313-.48 6.23 0-.958.48-2.396 1.438-2.875 1.438 0 1.917-1.917 1.438-2.876-.958-.958-1.917-.479-2.396-.479zM960.01 294.29c-.958-.48-1.917.48-1.917 1.438-.48 1.437.48 3.354 1.917 4.313 0-.959.48-1.917.958-2.396 1.438-.959.959-2.876-.958-3.355zM964.32 293.81c-.958 0-1.917 1.438-.958 2.875.479.959 1.437 1.438 3.354.959-.48 0-1.438-1.438-.958-1.917.479-.958 0-1.917-1.438-1.917z"/></g></g><g id="a"><path d="M831.1 383.43l23.962-73.802 23.962 73.802-62.78-45.527h77.636z" fill="#f9d050"/><path d="M835.89 376.72l49.84-36.422h-61.342l49.361 36.422-18.69-58.467z" fill="#024919"/></g><use x="90.097" width="100%" height="100%" xlink:href="#a"/><use x="45.048" y="52.237" width="100%" height="100%" xlink:href="#a"/><path d="M989.72 232.95v93.451c0 80.991-38.339 108.79-89.617 130.83-51.278-22.045-90.096-49.84-90.096-130.83V232.95h179.71z" fill="none" stroke="#000"/></g></g></svg>