<svg xmlns="http://www.w3.org/2000/svg" version="1.0" width="171.822" height="208.004"><path d="M147.163 3.635L5.848 99.889c-7.864 6.324-9.825 54.399 27.463 75.457L162.674 90.48c-8.134-14.618-28.061-41.176 3.687-62.047-6.4-7.024-12.799-14.938-19.198-24.797z" fill="#fff" fill-rule="evenodd"/><path d="M162.362 90.79L32.998 175.874l35.824 15.921 17.663 14.927c2.47-4.363 9.514-9.743 17.912-15.424 53.742-20.719 80.41-47.914 57.965-100.506zM24.376 4.31L5.988 28.962s15.437 7.34 16.974 25.057c.858 9.902-17.58 46.072-17.58 46.072l135.79-92.346c-5.818 1.879-8.436 4.63-19.6 5.052.598-4.847.552-9.406-3.637-12.124-21.098 9.576-41.881 8.8-62.44.606-5.254 1.916-5.006 6.834-4.446 11.922-12.202-1.308-18.393-5.622-26.673-8.891z" fill="#ed1c24" fill-rule="evenodd"/><path d="M57.385 1.68c-4.513-1.255-9.731 4.422-6.61 11.283-12.308-.523-18.029-5.65-26.4-9.453-6.282 9.972-12.563 18.81-18.845 25.255 0 0 17.335 13.503 17.64 23.52.744 24.37-33.46 51.6-18.281 90.38C19.36 179.643 59.1 185.958 67.95 191.591c14.965 9.525 17.24 15.323 17.96 15.413.426.053 3.828-7.01 17.961-15.413 7.13-4.239 48.59-11.948 63.062-48.926 15.178-38.78-19.026-66.01-18.282-90.38.306-10.017 17.64-23.52 17.64-23.52-6.281-6.445-12.563-15.283-18.844-25.255-8.372 3.803-14.092 8.93-26.4 9.453 3.12-6.861-.24-13.877-6.004-11.485-21.46 8.905-36.401 6.116-57.658.202z" fill="none" stroke="#000" stroke-width="2"/><path d="M55.17 7.64c3.858-1.033 7.549 5.861-3.45 5.838M116.651 7.64c-3.857-1.033-7.548 5.861 3.45 5.838" fill="none" stroke="#000"/><path d="M32.868 175.51l129.458-85.145M5.466 100.204l141.772-96.42" fill="none"/><path d="M84.824 47.209l-1.312 2.185c-.722 1.203-2.47 3.007-3.88 4.007-1.41 1-3.109 2.49-3.785 3.31l-1.236 1.488 1.312-.344c.718-.19 1.655-.494 2.086-.676.43-.182.783-.081.783.229v.031a.58.58 0 01-.01.063c-.19.77-2.441 2.537-4.228 3.278-1.71.709-4.246 2.56-4.578 3.299-.008.018-.014.045-.019.062l-.01.032v.072a.28.28 0 00.01.032c.003.005.006.015.01.02 0 .002.008.01.009.01.002.004.006.008.01.011 0 .002.007.01.009.01.006.007.02.016.028.021.2.14.751.162 1.388.021 1.115-.246 1.575-.093 1.944.666.564 1.162.24 1.686-1.057 1.686-1.57 0-3.804 1.577-4.106 2.904-.203.89-1.06 1.616-2.898 2.456-3.002 1.372-6.877 3.991-7.146 4.798a.324.324 0 00-.009.073c0 1.142 2.529 1.063 6.192-.198.822-.283 1.184.005 1.803 1.415.767 1.746.755 1.789-1.029 4.09-1.245 1.608-2.34 2.436-3.53 2.685-2.37.496-3.107.978-6.183 4.049-1.472 1.47-2.95 2.686-3.285 2.695-.131.004-.218.024-.264.063l-.01.01a.464.464 0 00-.009.01c0 .002-.008.01-.01.01 0 .002.002.01 0 .011 0 .002-.008.009-.009.01v.063a.317.317 0 00.01.031l.01.021c.001.005.006.016.009.02.247.456 1.87 1.354 2.784 1.354.669 0 2.298-.764 3.615-1.697 2.313-1.635 2.427-1.66 3.36-.728.533.531.973 1.56.973 2.28 0 1.095-.589 1.596-3.625 3.142-2.246 1.144-4.884 3.111-6.947 5.172-2.773 2.771-3.56 3.282-4.738 3.091-.745-.12-1.16-.17-1.294-.093-.004.003-.015.007-.018.01a.258.258 0 01-.01.01c-.001.003-.008.01-.01.01a.136.136 0 00-.009.043c0 .141.25.43.699.926.425.468 1.412.853 2.19.853 2.123 0 8.834-2.501 10.902-4.059 1.92-1.445 3.786-1.724 5.333-.811 2.394 1.412-1.609 4.256-9.146 6.504-2.773.827-5.176 1.632-5.485 1.832l-.018.01a.134.134 0 00-.01.01.191.191 0 00-.01.01c0 .002.002.01 0 .011-.107.179.052.65.378 1.083.787 1.045 4.748 1.096 8.128.093 1.352-.4 4.72-1.764 7.485-3.018 5.014-2.274 5.032-2.27 6.787-1.353 4.076 2.133 3.7 5.865-1.2 12-2.132 2.672-4.025 3.863-7.466 4.704-1.272.31-3.889 2.776-3.889 3.663 0 .088.018.157.038.219h.878c.193-.141.39-.344.585-.604 1.085-1.44 3.272-2.402 5.485-2.414 2.403-.014 5.348-1.334 7.56-3.393 1.944-1.81 3.896-2.348 5.371-1.478.818.482 1.561.53 2.549.156 1.756-.665 2.624-.344 2.624.968 0 .59.618 1.381 1.463 1.863.808.46 2.25 1.588 3.2 2.508.724.7 1.251 1.02 1.53 1.02h.037c.007-.001.021.002.028 0 .005-.001.015-.009.02-.01.003-.002.014-.01.018-.01.012-.007.028-.014.038-.022l.01-.01a.2.2 0 01.009-.01c0-.002.008-.01.009-.01.001-.003.008-.01.01-.011l.009-.021a.362.362 0 00.01-.02c0-.006.007-.017.009-.022l.009-.03c.002-.012-.001-.03 0-.042.028-.308-.21-.929-.765-1.8-.325-.513-.491-1.024-.443-1.28.002-.013.006-.031.01-.042 0-.004.007-.017.009-.021v-.01c0-.003.008-.01.009-.011.005-.01.012-.024.019-.031.001-.001.008-.01.01-.01.004-.005.013-.008.018-.011.002-.001.008-.01.01-.01l.018-.01c.307-.12 1.932-.059 3.71.145 3.127.358 3.506.546 5.352 2.685.911 1.056 1.66 1.72 2.265 1.998h1.256c.268-.12.456-.295.5-.468.001-.005.01-.016.01-.021v-.031-.021-.02V126.626c-.108-.36-1.96-2.122-4.182-3.976-5.051-4.215-5.825-5.756-5.843-11.594-.011-3.491.155-4.386.972-5.287 1.273-1.403 1.972-1.37 5.097.26 2.36 1.231 3.093 1.334 8.458 1.218 5.761-.124 5.93-.088 8.825 1.613 1.623.954 3.606 2.231 4.418 2.841 1.792 1.347 3.61 1.442 4.04.209.507-1.457-2.899-4.282-9.298-7.691-6.363-3.39-7.03-4.338-4.096-5.88 1.668-.877 1.783-.86 4.427.614 2.119 1.182 3.088 1.436 4.446 1.155l1.736-.364-3.823-3.133c-2.102-1.722-4.135-3.55-4.52-4.07-1.117-1.501-3.276-2.497-5.4-2.497-.995 0-1.925-.19-2.18-.427a.56.56 0 01-.038-.041c-.003-.004-.007-.017-.009-.021-.597-1.066 1.202-1.572 6.22-1.77 6.762-.266 7.692-1.053 3.03-2.56-1.861-.6-4.65-1.362-6.201-1.696-1.89-.407-2.94-.85-3.2-1.363a.647.647 0 01-.057-.188.71.71 0 010-.145c.024-.174.127-.358.302-.552.318-.35 1.835-.31 4.418.125 2.895.489 4.48.598 4.767.26.298-.388-1.036-1.356-3.983-2.987-2.686-1.485-6.075-3.89-7.618-5.411-1.53-1.508-3.801-3.224-5.04-3.81-1.636-.772-2.166-1.297-1.954-1.904.368-1.059 2.942-1.07 4.606-.02.676.426 2.448.77 3.936.76l2.71-.022-1.794-.728c-1.792-.727-6.664-4.193-7.042-4.975a.366.366 0 01-.019-.052v-.02-.011-.01c0-.002.01-.01.01-.011.001-.003.006-.008.008-.01.001-.002.008-.01.01-.01.198-.148 1.322-.21 2.67-.136l2.71.156-3.899-3.008c-2.86-2.203-4.623-3.152-6.636-3.58-1.508-.32-3.238-.701-3.842-.843-1.616-.38-4.331-3.209-5.437-5.672l-.961-2.154zm-8.882 15.174c.059-.003.123 0 .188 0 .503 0 .868.122 1.02.312l.019.02c.003.005.006.017.009.021.016.028.03.063.038.094.001.008.008.023.01.031V62.934a.616.616 0 01-.01.052l-.01.031c-.105.348-.67.981-1.264 1.416-.454.332-.725.513-.878.489a.232.232 0 01-.038-.01.317.317 0 01-.019-.01c-.008-.007-.02-.024-.028-.032-.104-.126-.123-.464-.123-1.062 0-1.094.201-1.393 1.086-1.425zm13.148 1.352h.029c.767 0 1.283.36 1.387.958.13.741-.178.947-1.387.947-.68 0-1.074-.07-1.265-.26-.142-.148-.169-.368-.113-.687.103-.59.602-.947 1.35-.958zm-3.85.323c.666-.052.934.343.934 1.186 0 1.016-.389 1.333-2.219 1.8-1.154.296-2.212.432-2.435.324l-.019-.01-.01-.011c-.633-.699-.077-1.595 1.502-2.425 1.015-.534 1.744-.825 2.246-.864zm8.863.01c.976-.032 1.1.43.623 1.8-.165.473-.844.854-1.51.854-.975 0-1.184-.235-1.058-1.217.113-.874.542-1.272 1.51-1.395.161-.02.305-.037.435-.042zM79.15 66.722c.034-.003.072 0 .104 0 1.184 0 .446 2.235-1.076 3.258-1.356.91-2.796 1.302-3.2.947l-.01-.01a.345.345 0 01-.066-.094l-.01-.021a.637.637 0 01-.009-.031c0-.005-.008-.016-.009-.021v-.031c-.001-.014-.01-.038-.01-.052v-.01c.033-1.221 2.886-3.814 4.286-3.935zm11.129 5.173c.564-.068.922.55.727 1.686-.11.632-.673 1.068-1.52 1.176-.647.082-1.046.053-1.199-.125l-.01-.01-.018-.032-.01-.02c0-.003-.008-.009-.009-.011-.004-.01-.006-.03-.01-.042-.075-.303.236-.866.926-1.78.399-.528.795-.803 1.123-.842zm-4.427.25c.027-.003.052 0 .075 0 1.134 0 1.317.998.293 1.602-.473.28-.932.488-1.086.51-.005 0-.014.01-.018.01-.004 0-.016-.01-.02-.01-.085-.03-.71-.231-1.387-.458l-1.227-.416 1.388-.625c.713-.318 1.57-.582 1.982-.614zm9.543 1.248a3.856 3.856 0 011.68.313c1.025.429 1.224.801 1.029 1.925-.265 1.526-1.098 1.697-3.946.79-1.399-.444-1.543-.658-1.095-1.581.428-.88 1.309-1.392 2.332-1.447zm-21.125.375h.094c2.073 0 2.359.36 1.35 1.686-.338.444-.98 1.121-1.435 1.499-.694.576-.907.515-1.35-.396-.526-1.084-.69-1.798-.434-2.227.237-.383.82-.552 1.775-.562zm-5.456.916c.884-.024 1.429.393 2.133 1.603l.991 1.706-1.482.573c-1.352.52-1.58.422-2.7-1.155-.705-.994-.975-1.654-.783-2.072a.71.71 0 01.066-.114l.029-.031c.007-.008.02-.024.028-.031.253-.254.762-.391 1.539-.458.062-.006.12-.02.179-.021zm32.64 5.11c.983-.08 1.985.612 1.842 1.727-.183 1.417-1.73 1.827-3.002.802-.76-.613-.788-.84-.198-1.728.337-.509.844-.76 1.359-.801zm-18.528 2.654c.036-.003.075 0 .113 0a.668.668 0 01.35.104l.037.03.019.022.019.02.019.021c.15.193.202.524.141.979-.195 1.46-1.162 1.888-1.576.697-.37-1.064-.011-1.817.878-1.873zm-6.193 1.124c.417-.057 1.1.22 1.784.79.466.388.658.765.652 1.041a.676.676 0 01-.01.083c-.003.015-.005.038-.009.053l-.019.041c-.007.016-.02.037-.028.052l-.01.021c-.003.005-.015.016-.018.02a.53.53 0 01-.057.063c-.005.004-.014.017-.019.021-.284.22-.887.168-1.576-.364-.57-.44-1.043-1.015-1.086-1.312v-.02-.021c0-.282.147-.435.397-.468zm9.846.208c.192-.017.391.171.726.54.421.465.916 1.353 1.095 1.978.433 1.501-.25 2.129-1.585 1.447-1.434-.732-1.783-1.89-.954-3.195.317-.498.513-.753.718-.77zm3.435 2.04c.365-.05.86.495.982 1.415.072.536-.003.993-.17 1.134-.001.002-.008.01-.01.01-.004.004-.013.008-.018.011-.007.004-.021.008-.028.01-.002.001-.008.01-.01.01h-.01c-.003.002-.014 0-.018 0h-.019c-.702 0-1.104-.632-1.104-1.758 0-.538.18-.802.406-.833zm-21.578 2.164c.723 0 1.357.039 1.775.125.69.143 1.148.34 1.369.572.046.051.088.112.113.167a.576.576 0 01.028.094.535.535 0 010 .187c-.082.422-.688.937-1.812 1.53-.932.491-2.51 1.058-3.512 1.249-1.664.317-1.892.199-2.586-1.28-.411-.877-.745-1.712-.755-1.874v-.01-.02c0-.003.008-.01.01-.011.002-.004.006-.017.009-.021.001-.002.007-.009.01-.01.347-.36 3.23-.696 5.351-.698zm33.472 4.87c1.938-.085 2.984 1.226.878 2.852-1.355 1.047-3.345 1.089-4.578.094-.888-.716-.843-.818.774-1.905 1.022-.686 2.06-1.002 2.926-1.04zm7.06 1.53c.035-.004.073 0 .104 0 .287 0 .948.337 1.473.76.935.754.932.805-.236 2.175-.605.71-1.221 1.266-1.435 1.312H108.848h-.009c-.156-.048-1.009-.182-1.888-.302-.978-.134-1.595-.528-1.595-1.01 0-.021.005-.049.009-.072.155-.811 2.576-2.736 3.606-2.862zm-35.5 2.165c.09-.005.197 0 .311 0 1.333 0 2.067 1.097 2.067 3.091 0 2.68-1.633 2.465-2.388-.312-.657-2.417-.723-2.738.01-2.779zm10.147.76c.803-.025 2.748.423 3.001.729l.01.01.01.01c0 .002-.002.01 0 .01 0 .002.008.01.009.011v.031c-.026.208-.546 1.052-1.17 1.894l-1.153 1.551-.604-1.998c-.298-.996-.481-1.894-.443-2.123v-.01c0-.004.008-.008.01-.01v-.011c0-.003.007-.009.009-.01.002-.003.006-.009.009-.011.001-.001.008-.01.01-.01 0-.002.007 0 .009 0 .001-.002.007-.01.01-.01.003-.003.014-.01.018-.011a.855.855 0 01.264-.042zm-4.937.885c.145-.015.373.023.689.072.633.1 1.215.625 1.312 1.187.118.681.052 1.157-.113 1.405a.764.764 0 01-.047.062.54.54 0 01-.057.052l-.028.021a.44.44 0 01-.114.052.496.496 0 01-.151.01c-.328-.041-.753-.448-1.123-1.238-.427-.91-.623-1.341-.547-1.52a.213.213 0 01.028-.041.245.245 0 01.15-.063z" fill="#00a651"/></svg>