<svg xmlns="http://www.w3.org/2000/svg" xmlns:xlink="http://www.w3.org/1999/xlink" width="600" height="850.84" fill-rule="evenodd"><defs><clipPath id="a"><path d="M6500000 15909400h801930c189250-89820 580580-490790 580580-490790 1077790-1491570-269440-1504410-269440-1504410H5386930s-1347230 12840-266240 1504410c0 0 388130 400970 577380 490790z"/></clipPath></defs><path d="M553.047 767.434c-.011.024-2.163 4.583-6.235 10.11h10.202v11.566c4.394 2.544 10.273 7.208 12.497 14.715l.03.091c1.152 4.07 6.294 5.304 6.309 5.307l5.864 1.5v40.117H18.284v-40.117l5.864-1.5c.015-.003 5.156-1.236 6.308-5.307l.03-.091c2.225-7.51 8.103-12.173 12.497-14.716v-11.565h10.198c-4.071-5.527-6.22-10.086-6.23-10.11l-.026-.051-.012.005a84.796 84.796 0 01-2.01-4.773 85.436 85.436 0 01-1.728-4.88 88.448 88.448 0 01-4.202-26.943v-.008h.03c.002-13.824 3.277-26.72 9.045-38.21a87.832 87.832 0 014.633-8.149c8.592-13.339 20.713-24.313 34.866-32.01l4.372-2.714c13.463-9.313 1.787-21.84.159-23.48l-.007-.005-.182-.183a300.688 300.688 0 01-22.486-24.17 300.458 300.458 0 01-19.751-26.52C18.272 527.923 0 471.053 0 410.024v-.013h.03c.002-29.655 4.3-58.282 12.3-85.293a298.133 298.133 0 0117.21-44.57c34.231-71.14 95.69-126.724 170.827-153.202-1.93-7.821-2.934-16.024-2.934-24.378v-.004h.03c.002-28.309 11.488-53.95 30.037-72.5C246.047 11.517 271.685.033 299.99.03V0h.013v.03c28.309.001 53.949 11.488 72.5 30.037 18.547 18.547 30.03 44.185 30.034 72.49h.03v.033h-.03a103.945 103.945 0 01-1.276 16.299 97.007 97.007 0 01-1.63 8.053 298.63 298.63 0 0141.405 18.207 300.118 300.118 0 0143.661 28.42C554.927 228.509 600 314.026 600 410.022v.009h-.03c-.002 42.38-8.811 82.753-24.698 119.342a298.658 298.658 0 01-8.313 17.563v.03a300.277 300.277 0 01-58.854 79.07c-.04.04-14.435 13.69-.027 23.66l4.376 2.717a99.649 99.649 0 0111.166 7.017 96.45 96.45 0 0110.277 8.62c16.641 16.05 27.13 37.884 27.13 62.74v.017h-.03c-.002 6.568-.697 12.93-2.02 18.974a86.021 86.021 0 01-.704 2.987 85.836 85.836 0 01-5.193 14.633z" fill="#0069ac" fill-rule="nonzero"/><path d="M545.497 730.824c1.056-42.027-38.762-63.665-45.751-68.003l-.274-.182c-30.57-20.814-2.205-47.69-2.125-47.768l.041-.04H102.611l.04.04c.08.077 28.446 26.954-2.125 47.768l-.273.182c-27.57 17.112-45.418 35.042-45.752 67.977-.326 32.185 15.471 49.345 45.139 62.318h-41.1v6.435l-5.286 1.8c-.018.006-6.393 2.109-7.85 6.771l.002.001c-2.068 7.306-7.352 11.519-11.564 13.804v13.37h532.315v-13.369c-4.212-2.285-9.497-6.497-11.565-13.805h.001c-1.456-4.662-7.83-6.766-7.848-6.772l-5.287-1.8v-6.435h-41.1c13.413-6.03 44.084-20.264 45.14-62.292z" fill="#fff" fill-rule="nonzero"/><path d="M375.17 135.985c4.52-10.207 7.038-21.509 7.038-33.408 0-45.387-36.823-82.21-82.21-82.21-45.387 0-82.21 36.823-82.21 82.21 0 11.861 2.503 23.129 6.997 33.31C103.808 168.83 14.812 279.473 14.812 410.868c0 157.359 127.626 284.985 284.985 284.985 157.36 0 284.986-127.626 284.986-284.985 0-131.266-88.819-241.82-209.613-274.882z" fill="#fff"/><path d="M299.998 687.984c154.13 0 279.069-124.94 279.069-279.068 0-154.13-124.94-279.069-279.069-279.069-154.13 0-279.068 124.94-279.068 279.069 0 154.129 124.939 279.068 279.068 279.068z" fill="#ffb700"/><path d="M299.998 679.004c149.158 0 270.248-120.93 270.248-270.087 0-149.157-121.09-270.247-270.248-270.247-149.157 0-270.087 121.09-270.087 270.247s120.93 270.087 270.087 270.087z" fill="#fff"/><g fill="#ffb700" stroke="#1f1a17" stroke-width="1.143"><path d="M221.57 171.708s-4.49 0-7.858 2.726c0 0-10.586-3.368-11.708 10.104l-2.246 3.85s-.962-.963 7.86-1.604c6.575-.642 6.414-11.708 8.179-13.473zm-32.878 8.34s-4.491 0-7.86 2.726c0 0-10.585-3.368-11.707 10.104l-2.246 3.85s-.962-.963 7.86-1.604c6.735-.642 6.415-11.708 8.179-13.473zM163.03 197.37s-4.49 0-7.859 2.726c0 0-10.585-3.368-11.708 9.944l-2.085 4.01s-1.123-.963 7.699-1.765c6.736-.481 6.415-11.548 8.18-13.312z"/><path d="M207.617 173.311s-4.49 0-7.859 2.887c0 0-10.585-3.368-11.708 9.944l-2.245 3.85s-.963-.802 7.859-1.604c6.736-.642 6.415-11.548 8.18-13.312zm-42.662 43.465s-4.491-.802-8.18 1.443c0 0-9.944-5.132-13.151 7.86l-2.887 3.527s-.802-1.122 8.019-.32c6.576.48 8.18-10.425 10.265-11.869z"/><path d="M208.098 193.039s-3.849-2.246-8.18-1.604c0 0-7.217-8.34-15.236 2.566l-3.85 2.245s-.32-1.443 7.539 2.567c5.934 2.887 11.548-6.576 13.953-7.218z"/><path d="M186.767 198.01s-4.01-2.084-8.18-1.282c0 0-7.698-8.02-15.076 3.207l-3.849 2.406s-.32-1.283 7.699 2.245c6.094 2.727 11.226-7.056 13.632-7.858zm-43.945 11.709s-4.33.641-7.218 3.85c0 0-11.066-1.605-9.944 11.867l-1.603 4.17s-1.123-.801 7.377-2.886c6.576-1.604 4.651-12.51 6.095-14.435z"/><path d="M174.738 204.586s-12.35-3.849-21.812 8.822l-3.208 1.122s19.567 4.01 23.256-8.82zm-31.275 26.624s-12.189-3.689-21.652 8.982l-3.367 1.122s19.726 4.01 23.415-8.981zm-18.604-13.472s-3.85 2.245-5.293 6.255c0 0-10.906 2.406-5.132 14.595v4.49s-1.443-.32 5.934-5.292c5.453-3.85-.16-13.312.481-15.718z"/><path d="M114.594 223.672s-4.01 1.925-5.934 5.934c0 0-10.906 1.284-6.415 13.953l-.32 4.491s-1.284-.48 6.414-4.811c5.774-3.368.963-13.312 1.765-15.557z"/><path d="M106.575 236.503s-4.33 1.604-6.415 5.292c0 0-11.067.481-7.699 13.473l-.802 4.33s-1.122-.481 6.897-4.17c6.095-2.727 2.085-13.152 3.208-15.396zm9.623 23.577s-12.83 0-18.284 14.754l-2.887 2.085s20.049-1.764 19.888-15.236zm9.142-18.445s-10.104 1.123-12.831 13.472l-2.085 1.925s15.557-3.529 14.114-14.114z"/><path d="M99.679 257.032s-3.85 2.085-5.293 6.255c0 0-10.906 2.245-5.293 14.434v4.491s-1.283-.32 5.934-5.293c5.614-3.849-.16-13.311.482-15.717zM83 287.024s-3.85 2.245-5.454 6.255c0 0-10.746 2.406-5.132 14.595v4.49s-1.283-.32 5.934-5.292c5.613-3.85-.16-13.312.481-15.718zm-12.832 30.633s-3.85 2.246-5.293 6.255c0 0-10.906 2.406-5.293 14.595v4.49s-1.283-.32 5.935-5.292c5.613-3.849-.16-13.312.48-15.717zm-4.01-23.737s-2.887 3.368-2.887 7.699c0 0-9.462 5.774-.16 15.397l1.604 4.17s-1.444.16 3.689-6.897c4.01-5.453-4.491-12.51-4.652-15.076zm15.878-23.897s-8.66 5.613-5.613 17.803l-.962 2.566s12.35-9.944 6.415-18.765z"/><path d="M88.612 251.579s-8.5 5.613-5.453 17.802l-1.123 2.727s12.51-10.104 6.416-18.925zm-16.68 29.029s-8.5 5.614-5.453 17.803l-1.123 2.566s12.51-9.944 6.416-18.765zm39.294-.32s-4.33-.802-8.18 1.283c0 0-9.783-5.293-13.311 7.538l-3.048 3.368s-.801-1.123 8.02-.16c6.575.801 8.5-10.105 10.585-11.548z"/><path d="M103.367 293.118s-4.33-.962-8.18 1.283c0 0-9.622-5.453-13.311 7.539l-2.887 3.368s-.802-1.123 7.859-.16c6.736.801 8.66-10.105 10.746-11.548zM91.178 306.27s-4.49.16-7.698 3.047c0 0-10.746-3.047-11.388 10.425l-2.085 4.01s-.962-.962 7.699-1.925c6.736-.802 6.095-11.868 7.698-13.793zm-6.896 15.397s-4.33 1.123-6.897 4.65c0 0-11.066-.64-8.981 12.51l-1.123 4.331s-1.283-.641 7.057-3.528c6.415-2.085 3.528-12.83 4.811-14.916zM57.5 315.091s-8.661 5.614-5.614 17.803l-.962 2.726s12.35-10.104 6.415-18.925zm50.679-71.211s-8.66 5.614-5.613 17.803l-.963 2.566s12.35-9.944 6.416-18.925z"/><path d="M74.177 339.47s-4.33 1.122-6.896 4.65c0 0-11.067-.64-8.821 12.51l-1.283 4.331s-1.123-.641 7.217-3.528c6.255-2.085 3.368-12.831 4.651-14.916zm-6.094 27.425s-4.33.962-6.897 4.491c0 0-11.066-.642-8.82 12.67l-1.284 4.17s-1.123-.642 7.217-3.368c6.255-2.245 3.368-12.83 4.652-15.076zm-12.35-32.397s-8.5 5.773-5.453 17.963l-.962 2.566s12.35-9.944 6.255-18.926z"/><path d="M49.318 353.263s-7.057 7.377-1.283 18.604l-.481 2.887s9.943-12.67 2.085-19.888zm-5.293 17.641s-2.406 3.69-1.764 8.02c0 0-8.34 7.217 2.406 15.236l2.085 3.85s-1.283.48 2.726-7.378c3.048-6.095-6.415-11.708-7.057-14.114zm10.585 17.001s-2.245 3.85-1.603 8.18c0 0-8.34 7.378 2.566 15.236l2.245 3.85s-1.283.32 2.566-7.538c3.048-6.095-6.575-11.548-7.217-13.954zm9.944-30.472s-9.943 2.566-10.906 15.075l-1.924 2.085s15.076-5.453 12.189-15.717zM62.47 419.18s-2.246 3.85-1.604 8.02c0 0-8.34 7.377 2.566 15.236l2.245 4.01s-1.283.32 2.566-7.699c2.887-5.934-6.736-11.387-7.217-13.793z"/><path d="M52.365 406.35s-2.245 3.849-1.604 8.18c0 0-8.18 7.216 2.727 15.075l2.085 4.01s-1.283.32 2.566-7.538c3.047-6.095-6.576-11.548-7.217-13.954z"/><path d="M44.025 393.038s-2.245 3.688-1.604 8.019c0 0-8.18 7.377 2.566 15.236l2.246 3.85s-1.283.48 2.566-7.539c3.047-5.934-6.576-11.387-7.217-13.793z"/><path d="M38.572 407.472s-1.604 4.17-.16 8.18c0 0-6.737 8.82 5.453 14.434l2.887 3.529s-1.283.641 1.122-7.859c1.765-6.576-8.66-10.104-9.783-12.35z"/><path d="M49 424.152s-2.086 4.01-1.124 8.34c0 0-7.698 7.86 3.529 14.916l2.566 3.689s-1.283.48 2.085-7.538c2.566-6.255-7.378-11.067-8.18-13.473zm19.243 19.246s-3.047 3.208-3.368 7.538c0 0-9.623 5.454-.641 15.397l1.443 4.33s-1.443 0 4.01-6.896c4.17-5.132-4.01-12.51-4.17-15.076z"/><path d="M44.506 436.983s-1.924 4.01-.962 8.18c0 0-7.859 7.858 3.528 15.076l2.406 3.689s-1.283.48 2.085-7.699c2.566-6.095-7.378-11.066-8.18-13.312z"/><path d="M48.837 460.72s-5.935 8.5 1.443 18.605v2.886s7.859-13.953-.962-19.887z"/><path d="M53.488 444.842s-2.085 4.01-1.123 8.18c0 0-7.859 7.858 3.529 14.915l2.405 3.849s-1.283.482 2.246-7.698c2.566-6.255-7.378-11.067-8.18-13.472z"/><path d="M59.101 463.126s-2.085 4.01-1.122 8.34c0 0-7.86 7.859 3.528 14.915l2.406 3.85s-1.283.32 2.085-7.699c2.566-6.255-7.378-11.066-8.02-13.472z"/><path d="M55.733 477.72s-2.085 3.849-1.122 8.18c0 0-7.86 7.858 3.528 14.915l2.406 3.85s-1.283.48 2.085-7.7c2.566-6.254-7.218-11.066-8.02-13.471zm16.039-11.066s-2.727 3.529-2.727 7.859c0 0-9.142 6.095.481 15.396l1.604 4.17s-1.283.16 3.689-7.217c3.689-5.453-4.972-12.189-5.293-14.755zm-1.123 38.331s-1.283 10.104 10.104 15.717l1.283 2.406s.321-16.038-10.264-17z"/><path d="M77.546 484.135s-2.085 3.849-1.444 8.18c0 0-8.18 7.537 2.887 15.075l2.245 3.85s-1.283.48 2.406-7.539c2.887-6.094-6.736-11.387-7.378-13.793zm12.51 54.21s-3.048 9.783 7.056 17.321l.802 2.727s3.368-15.718-7.057-18.765zm-10.105-16.2s-3.047 9.783 7.057 17.321l.963 2.727s3.207-15.557-7.057-18.605zm-16.199-6.415s-1.122 4.33.963 8.18c0 0-5.774 9.462 7.057 13.632l3.368 3.047s-1.283.802 0-8.019c.962-6.576-9.784-8.82-11.067-10.906z"/><path d="M74.819 529.525s-.962 4.33.962 8.34c0 0-5.613 9.463 7.057 13.633l3.368 3.047s-1.122.802.16-8.02c.963-6.575-9.943-8.82-11.226-11.066zm-16.68-26.465s-1.123 10.265 10.104 15.718l1.444 2.405s.32-15.878-10.425-17zm43.464 43.945s-2.245 10.104 8.34 16.84l1.123 2.566s2.085-15.878-8.5-18.123zM89.414 518.14s-2.245 9.943 8.34 16.68l1.123 2.566s1.924-15.718-8.5-17.963zm2.246 41.215s2.084 9.944 14.594 11.708l1.925 1.764s-4.651-15.076-15.237-12.83zm3.688 9.785s.321 4.49 3.208 7.538c0 0-2.566 10.746 10.906 10.906l4.01 2.085s-.802.963-2.246-7.698c-.962-6.576-12.029-5.614-13.793-7.218z"/><path d="M109.141 568.015s.321 4.49 3.368 7.538c0 0-2.566 10.906 10.906 11.066l4.01 1.925s-.963.962-2.246-7.698c-.962-6.576-12.028-5.614-13.953-7.218z"/><path d="M116.84 559.355s-.161 4.33 2.406 7.859c0 0-3.85 10.425 9.301 12.19l3.85 2.405s-.963.962-1.283-7.859c-.16-6.576-11.227-7.057-12.831-8.821zm16.198 17.165s-.32 4.49 2.406 8.019c0 0-4.01 10.425 9.302 12.189l3.85 2.406s-1.123.962-1.284-7.859c-.16-6.736-11.227-7.057-12.99-8.981zm-4.972 13.47s-.32 4.33 2.246 7.859c0 0-3.85 10.424 9.462 12.189l3.69 2.405s-.963.963-1.124-7.859c-.32-6.575-11.387-7.056-12.99-8.82zm26.464 11.71s2.085 9.943 14.595 11.707l2.085 1.764s-4.812-15.236-15.237-12.83zm-9.463 3.364s2.085 9.944 14.595 11.548l2.085 1.924s-4.811-15.236-15.237-12.83z"/><path d="M167.36 615.01s2.086 10.103 14.596 11.707l2.085 1.925s-4.812-15.237-15.237-12.831zm14.916 2.244s2.246 9.944 14.756 11.708l1.924 1.925s-4.65-15.236-15.236-12.83zm-28.067-2.244s.962 4.33 4.49 7.056c0 0-.962 11.066 12.19 9.142l4.33 1.283s-.641 1.283-3.368-7.217c-1.924-6.416-12.67-3.69-14.755-4.972z"/><path d="M267.76 650.614c8.822-11.227-29.51-4.49-29.51-4.49-29.51 20.048-68.484-1.604-83.56-13.312-15.076-11.708-52.926-42.983-52.926-42.983s16.68 15.076 26.142 17.321c9.463 2.246 15.076 10.586 17.321 13.954 2.246 3.368 33.36 21.652 41.7 22.774 8.34 1.123 38.974 4.01 55.653-5.453 0 0-41.058-4.49-49.558-.641l6.255-3.368s-17.963 1.764-24.058-1.925c0 0 10.105 2.566 18.445.32 0 0-7.538-2.405-9.623-4.17 0 0 5.773-.32 10.745 1.925 4.972 2.246 7.218 3.85 7.218 3.85l-4.972-5.454s10.585 6.095 20.048 5.454c0 0-20.048-14.435-32.88-20.049-12.83-5.613-30.633-22.774-32.878-26.623-2.245-4.01-18.444-17.963-18.444-17.963s34.001 31.275 42.983 34.643c8.821 3.368 26.624 14.915 30.633 17.16 3.85 2.246 20.53 10.105 30.634 8.34l29.51 6.737s13.312.641 23.898 10.585c0 0 4.971 3.85 9.462 4.491h-34.482zm18.926-12.83s0 3.368 9.463 7.859c0 0-4.49-3.368-1.764-7.217zm91.9-466.076s4.33 0 7.699 2.726c0 0 10.585-3.368 11.708 10.104l2.245 3.85s.963-.963-7.859-1.604c-6.575-.642-6.415-11.708-8.18-13.473zm32.879 8.34s4.33 0 7.699 2.726c0 0 10.585-3.368 11.708 10.104l2.245 3.85s.962-.963-7.859-1.604c-6.575-.642-6.415-11.708-8.18-13.473zm25.501 17.322s4.491 0 7.86 2.726c0 0 10.585-3.368 11.707 9.944l2.246 4.01s.962-.963-7.86-1.765c-6.735-.481-6.415-11.548-8.179-13.312z"/><path d="M392.38 173.311s4.49 0 7.858 2.887c0 0 10.586-3.368 11.708 9.944l2.246 3.85s.962-.802-7.86-1.604c-6.575-.642-6.415-11.548-8.179-13.312zm42.662 43.465s4.49-.802 8.18 1.443c0 0 9.943-5.132 13.15 7.86l2.888 3.527s.802-1.122-8.02-.32c-6.575.48-8.18-10.425-10.264-11.869z"/><path d="M391.898 193.039s3.85-2.246 8.18-1.604c0 0 7.378-8.34 15.236 2.566l3.85 2.245s.32-1.443-7.538 2.567c-5.935 2.887-11.548-6.576-13.954-7.218z"/><path d="M413.23 198.01s4.01-2.084 8.18-1.282c0 0 7.698-8.02 15.075 3.207l3.85 2.406s.48-1.283-7.7 2.245c-6.094 2.727-11.226-7.056-13.471-7.858zm43.945 11.709s4.33.641 7.217 3.85c0 0 11.067-1.605 9.944 11.867l1.604 4.17s1.123-.801-7.378-2.886c-6.576-1.604-4.49-12.51-5.934-14.435z"/><path d="M425.258 204.586s12.35-3.849 21.813 8.822l3.368 1.122s-19.728 4.01-23.416-8.82zm31.275 26.624s12.35-3.689 21.652 8.982l3.368 1.122s-19.567 4.01-23.416-8.981zm18.605-13.472s3.849 2.245 5.293 6.255c0 0 10.905 2.406 5.292 14.595v4.49s1.283-.32-5.934-5.292c-5.613-3.85.16-13.312-.641-15.718z"/><path d="M485.402 223.672s4.01 1.925 5.934 5.934c0 0 10.906 1.284 6.416 13.953l.32 4.491s1.284-.48-6.415-4.811c-5.774-3.368-.962-13.312-1.764-15.557z"/><path d="M493.582 236.503s4.17 1.604 6.255 5.292c0 0 11.227.481 7.699 13.473l.802 4.33s1.122-.481-6.737-4.17c-6.255-2.727-2.245-13.152-3.207-15.396zm-9.785 23.577s12.991 0 18.284 14.754l2.887 2.085s-20.048-1.764-19.888-15.236zm-9.14-18.445s10.104 1.123 12.83 13.472l2.085 1.925s-15.557-3.529-14.113-14.114z"/><path d="M500.317 257.032s3.85 2.085 5.453 6.255c0 0 10.746 2.245 5.133 14.434v4.491s1.283-.32-5.934-5.293c-5.614-3.849.16-13.311-.482-15.717zm16.68 29.992s3.85 2.245 5.453 6.255c0 0 10.746 2.406 5.133 14.595v4.49s1.283-.32-5.934-5.292c-5.454-3.85.16-13.312-.482-15.718zm12.83 30.633s3.85 2.246 5.453 6.255c0 0 10.746 2.406 5.133 14.595v4.49s1.283-.32-5.935-5.292c-5.613-3.849.16-13.312-.48-15.717zm4.01-23.737s2.887 3.368 3.048 7.699c0 0 9.302 5.774 0 15.397l-1.444 4.17s1.283.16-3.85-6.897c-4.009-5.453 4.492-12.51 4.652-15.076zm-15.715-23.897s8.5 5.613 5.453 17.803l.962 2.566s-12.35-9.944-6.255-18.765z"/><path d="M511.382 251.579s8.5 5.613 5.453 17.802l1.123 2.727s-12.51-10.104-6.415-18.925zm16.68 29.029s8.5 5.614 5.614 17.803l.962 2.566s-12.51-9.944-6.415-18.765zm-39.29-.32s4.33-.802 8.18 1.283c0 0 9.783-5.293 13.472 7.538l2.887 3.368s.802-1.123-8.02-.16c-6.575.801-8.5-10.105-10.585-11.548z"/><path d="M496.627 293.118s4.33-.962 8.18 1.283c0 0 9.623-5.453 13.312 7.539l3.047 3.368s.641-1.123-8.02-.16c-6.736.801-8.5-10.105-10.585-11.548zm12.37 13.152s4.33.16 7.699 3.047c0 0 10.585-3.047 11.227 10.425l2.085 4.01s.962-.962-7.699-1.925c-6.736-.802-6.095-11.868-7.698-13.793zm6.72 15.397s4.33 1.123 6.897 4.65c0 0 11.066-.64 8.981 12.51l1.123 4.331s1.283-.641-7.057-3.528c-6.415-2.085-3.528-12.83-4.811-14.916zm26.78-6.576s8.66 5.614 5.614 17.803l.962 2.726s-12.35-10.104-6.416-18.925zm-50.68-71.211s8.661 5.614 5.614 17.803l.962 2.566s-12.349-9.944-6.415-18.925z"/><path d="M525.817 339.47s4.33 1.122 6.897 4.65c0 0 11.066-.64 8.82 12.51l1.284 4.331s1.123-.641-7.217-3.528c-6.255-2.085-3.369-12.831-4.652-14.916zm6.095 27.425s4.33.962 6.897 4.491c0 0 11.066-.642 8.981 12.67l1.123 4.17s1.283-.642-7.057-3.368c-6.415-2.245-3.528-12.83-4.812-15.076zm12.35-32.397s8.5 5.773 5.453 17.963l1.123 2.566s-12.51-9.944-6.415-18.926z"/><path d="M550.677 353.263s7.057 7.377 1.283 18.604l.481 2.887s-9.943-12.67-1.924-19.888zm5.32 17.641s2.406 3.69 1.765 8.02c0 0 8.34 7.217-2.406 15.236l-2.085 3.85s1.283.48-2.727-7.378c-3.047-6.095 6.576-11.708 7.057-14.114zm-10.61 17.001s2.246 3.85 1.604 8.18c0 0 8.34 7.378-2.566 15.236l-2.245 3.85s1.283.32-2.566-7.538c-2.887-6.095 6.575-11.548 7.217-13.954zm-9.945-30.472s9.944 2.566 11.067 15.075l1.764 2.085s-15.076-5.453-12.19-15.717zm2.085 61.747s2.406 3.85 1.604 8.02c0 0 8.34 7.377-2.566 15.236l-2.246 4.01s1.444.32-2.566-7.699c-2.887-5.934 6.736-11.387 7.378-13.793z"/><path d="M547.632 406.35s2.246 3.849 1.604 8.18c0 0 8.34 7.216-2.566 15.075l-2.245 4.01s1.283.32-2.566-7.538c-3.048-6.095 6.575-11.548 7.217-13.954z"/><path d="M555.997 393.038s2.246 3.688 1.604 8.019c0 0 8.34 7.377-2.566 15.236l-2.245 3.85s1.283.48-2.566-7.539c-2.887-5.934 6.575-11.387 7.217-13.793z"/><path d="M561.422 407.472s1.604 4.17.16 8.18c0 0 6.737 8.82-5.292 14.434l-2.887 3.529s1.123.641-1.283-7.859c-1.764-6.576 8.66-10.104 9.784-12.35z"/><path d="M550.997 424.152s2.085 4.01 1.123 8.34c0 0 7.86 7.86-3.528 14.916l-2.566 3.689s1.283.48-2.085-7.538c-2.567-6.255 7.377-11.067 8.18-13.473zm-19.245 19.246s3.048 3.208 3.368 7.538c0 0 9.623 5.454.642 15.397l-1.283 4.33s1.283 0-4.17-6.896c-4.17-5.132 4.01-12.51 4.17-15.076z"/><path d="M555.497 436.983s1.925 4.01 1.123 8.18c0 0 7.698 7.858-3.689 15.076l-2.406 3.689s1.283.48-2.085-7.699c-2.566-6.095 7.378-11.066 8.18-13.312z"/><path d="M551.162 460.72s5.935 8.5-1.443 18.605v2.886s-7.859-13.953 1.123-19.887z"/><path d="M546.497 444.842s2.085 4.01 1.123 8.18c0 0 7.859 7.858-3.529 14.915l-2.405 3.849s1.283.482-2.085-7.698c-2.567-6.255 7.377-11.067 8.019-13.472z"/><path d="M540.897 463.126s2.085 4.01 1.123 8.34c0 0 7.859 7.859-3.529 14.915l-2.405 3.85s1.283.32-2.085-7.699c-2.566-6.255 7.377-11.066 8.18-13.472z"/><path d="M544.262 477.72s2.085 3.849 1.123 8.18c0 0 7.859 7.858-3.528 14.915l-2.406 3.85s1.283.48-2.085-7.7c-2.566-6.254 7.377-11.066 8.019-13.471zm-16.035-11.066s2.887 3.529 2.727 7.859c0 0 9.302 6.095-.481 15.396l-1.604 4.17s1.283.16-3.689-7.217c-3.689-5.453 5.132-12.189 5.293-14.755zm1.12 38.331s1.283 10.104-10.104 15.717l-1.283 2.406s-.321-16.038 10.425-17z"/><path d="M522.452 484.135s2.246 3.849 1.444 8.18c0 0 8.18 7.537-2.887 15.075l-2.245 3.85s1.283.48-2.406-7.539c-2.887-6.094 6.896-11.387 7.538-13.793zm-12.51 54.21s3.048 9.783-7.056 17.321l-.802 2.727s-3.208-15.718 7.057-18.765zm10.105-16.2s3.048 9.783-7.057 17.321l-.802 2.727s-3.368-15.557 6.897-18.605zm16.195-6.415s1.123 4.33-.802 8.18c0 0 5.614 9.462-7.217 13.632l-3.208 3.047s1.123.802-.16-8.019c-.963-6.576 9.783-8.82 11.066-10.906z"/><path d="M525.177 529.525s.962 4.33-.962 8.34c0 0 5.613 9.463-7.057 13.633l-3.368 3.047s1.122.802-.16-8.02c-.963-6.575 9.943-8.82 11.226-11.066zm16.68-26.465s1.123 10.265-10.104 15.718l-1.444 2.405s-.32-15.878 10.425-17zm-43.465 43.945s2.246 10.104-8.34 16.84l-1.122 2.566s-1.925-15.878 8.5-18.123zm12.35-28.865s2.246 9.943-8.5 16.68l-.962 2.566s-2.085-15.718 8.34-17.963zm-2.245 41.215s-2.245 9.944-14.595 11.708l-2.085 1.764s4.812-15.076 15.237-12.83zm-3.69 9.785s-.32 4.49-3.368 7.538c0 0 2.566 10.746-10.906 10.906l-4.01 2.085s.963.963 2.246-7.698c.962-6.576 12.029-5.614 13.953-7.218z"/><path d="M490.857 568.015s-.32 4.49-3.368 7.538c0 0 2.566 10.906-10.745 11.066l-4.17 1.925s.962.962 2.245-7.698c1.123-6.576 12.029-5.614 13.953-7.218z"/><path d="M483.157 559.355s.321 4.33-2.405 7.859c0 0 4.01 10.425-9.302 12.19l-3.85 2.405s.963.962 1.283-7.859c.16-6.576 11.227-7.057 12.991-8.821zm-16.199 17.165s.321 4.49-2.245 8.019c0 0 3.85 10.425-9.463 12.189l-3.689 2.406s.963.962 1.123-7.859c.32-6.736 11.227-7.057 12.991-8.981zm5.132 13.47s.161 4.33-2.405 7.859c0 0 3.849 10.424-9.463 12.189l-3.689 2.405s.963.963 1.283-7.859c.16-6.575 11.227-7.056 12.831-8.82zm-26.623 11.71s-2.085 9.943-14.595 11.707l-2.085 1.764s4.811-15.236 15.236-12.83zm9.463 3.364s-2.086 9.944-14.596 11.548l-2.085 1.924s4.812-15.236 15.237-12.83z"/><path d="M432.636 615.01s-2.085 10.103-14.595 11.707l-1.925 1.925s4.652-15.237 15.237-12.831zm-14.916 2.244s-2.245 9.944-14.595 11.708l-2.085 1.925s4.812-15.236 15.237-12.83zm28.068-2.244s-.963 4.33-4.33 7.056c0 0 .961 11.066-12.35 9.142l-4.33 1.283s.64 1.283 3.367-7.217c1.925-6.416 12.67-3.69 14.756-4.972zm40.739-25.34s-13.311 3.528-16.68 10.745z"/><path d="M332.236 650.614c-8.822-11.227 29.67-4.49 29.67-4.49 29.511 20.048 68.485-1.604 83.4-13.312 15.077-11.708 52.927-42.983 52.927-42.983s-16.68 15.076-26.142 17.321c-9.463 2.246-15.077 10.586-17.322 13.954-2.245 3.368-33.36 21.652-41.7 22.774-8.34 1.123-38.973 4.01-55.653-5.453 0 0 41.218-4.49 49.558-.641l-6.094-3.368s17.803 1.764 23.897-1.925c0 0-10.104 2.566-18.444.32 0 0 7.698-2.405 9.783-4.17 0 0-5.774-.32-10.906 1.925-4.972 2.246-7.217 3.85-7.217 3.85l5.132-5.454s-10.746 6.095-20.208 5.454c0 0 20.048-14.435 32.879-20.049 12.83-5.613 30.633-22.774 32.878-26.623 2.246-4.01 18.445-17.963 18.445-17.963s-34.002 31.275-42.983 34.643c-8.822 3.368-26.624 14.915-30.634 17.16-3.85 2.246-20.53 10.105-30.633 8.34l-29.51 6.737s-13.313.641-23.898 10.585c0 0-4.972 3.85-9.463 4.491h34.483zm-18.926-12.83s0 3.368-9.463 7.859c0 0 4.491-3.368 1.765-7.217z"/></g><path d="M299.998 661.68h43.946c5.132-8.34-4.972-9.944-4.972-9.944h-77.947s-9.944 1.603-4.972 9.943z" fill="#ffb700" stroke="#1f1a17" stroke-width="1.143"/><path d="M299.998 770.904h40.097c9.462-4.491 29.028-24.54 29.028-24.54 53.89-74.578-13.471-75.22-13.471-75.22H244.345s-67.361.642-13.312 75.22c0 0 19.406 20.049 28.869 24.54z" fill="#ffb700"/><g clip-path="url(#a)" transform="translate(-25 -24.563) scale(.00005)"><path d="M4715110 14311000h3572820v237622H4715110z" fill="#1f1a17"/></g><path d="M299.998 770.904h40.097c9.462-4.491 29.028-24.54 29.028-24.54 53.89-74.578-13.471-75.22-13.471-75.22H244.345s-67.361.642-13.312 75.22c0 0 19.406 20.049 28.869 24.54z" fill="none" stroke="#1f1a17" stroke-width="1.143"/><path d="M299.998 787.104h67.361c-1.603 0-5.453 1.604-11.707-6.255-6.095-7.699-14.916-6.576-14.916-6.576H259.42s-8.982-1.123-15.076 6.576c-6.094 7.859-10.104 6.255-11.708 6.255z" fill="#1f1a17" stroke="#1f1a17" stroke-width="1.143"/><path d="M273.856 662.324s.48 8.822-2.727 8.822l57.92.007c-3.368 0-2.908-8.829-2.908-8.829zm113.07 23.896H213.07z" fill="#ffb700" stroke="#1f1a17" stroke-width="1.143"/><path d="M386.926 686.22H213.07" fill="none" stroke="#1f1a17" stroke-width="1.143"/><path d="M388.05 708.514H211.947z" fill="#ffb700" stroke="#1f1a17" stroke-width="1.143"/><path d="M388.05 708.514H211.947" fill="none" stroke="#1f1a17" stroke-width="1.143"/><path d="M386.926 716.374H213.07z" fill="#ffb700" stroke="#1f1a17" stroke-width="1.143"/><path d="M386.926 716.374H213.07" fill="none" stroke="#1f1a17" stroke-width="1.143"/><path d="M370.727 744.119H229.27z" fill="#ffb700" stroke="#1f1a17" stroke-width="1.143"/><path d="M370.727 744.119H229.27" fill="none" stroke="#1f1a17" stroke-width="1.143"/><path d="M299.998 770.904h40.096c6.095-2.245 26.143-21.812 26.143-21.812H233.76s20.047 19.567 26.142 21.812z" fill="#1f1a17" stroke="#1f1a17" stroke-width="1.143"/><g fill="#ffb700" stroke="#1f1a17" stroke-width="1.143"><path d="M216.438 703.22a5.75 5.75 0 005.774-5.775c0-3.207-2.566-5.934-5.774-5.934-3.207 0-5.774 2.727-5.774 5.934a5.75 5.75 0 005.774 5.774z"/><path d="M227.665 703.22a5.75 5.75 0 005.774-5.775c0-3.207-2.566-5.934-5.774-5.934-3.207 0-5.774 2.727-5.774 5.934a5.75 5.75 0 005.774 5.774z"/><path d="M238.732 703.22a5.75 5.75 0 005.773-5.775c0-3.207-2.566-5.934-5.773-5.934-3.208 0-5.774 2.727-5.774 5.934a5.75 5.75 0 005.774 5.774z"/><path d="M249.958 703.22a5.75 5.75 0 005.774-5.775c0-3.207-2.566-5.934-5.774-5.934s-5.934 2.727-5.934 5.934c0 3.208 2.726 5.774 5.934 5.774z"/><path d="M261.025 703.22a5.75 5.75 0 005.774-5.775c0-3.207-2.567-5.934-5.774-5.934-3.208 0-5.774 2.727-5.774 5.934a5.75 5.75 0 005.774 5.774z"/><path d="M272.091 703.22c3.208 0 5.935-2.567 5.935-5.775 0-3.207-2.727-5.934-5.935-5.934-3.047 0-5.774 2.727-5.774 5.934 0 3.208 2.727 5.774 5.774 5.774z"/><path d="M283.318 703.22a5.75 5.75 0 005.774-5.775c0-3.207-2.566-5.934-5.774-5.934-3.207 0-5.774 2.727-5.774 5.934a5.75 5.75 0 005.774 5.774z"/><path d="M294.385 703.22a5.75 5.75 0 005.774-5.775c0-3.207-2.567-5.934-5.774-5.934-3.208 0-5.774 2.727-5.774 5.934a5.75 5.75 0 005.774 5.774zm89.173 0a5.75 5.75 0 01-5.774-5.775c0-3.207 2.567-5.934 5.774-5.934 3.208 0 5.774 2.727 5.774 5.934a5.75 5.75 0 01-5.774 5.774z"/><path d="M372.331 703.22c-3.047 0-5.774-2.567-5.774-5.775 0-3.207 2.727-5.934 5.774-5.934 3.208 0 5.935 2.727 5.935 5.934 0 3.208-2.727 5.774-5.935 5.774z"/><path d="M361.265 703.22a5.75 5.75 0 01-5.774-5.775c0-3.207 2.567-5.934 5.774-5.934s5.774 2.727 5.774 5.934a5.75 5.75 0 01-5.774 5.774z"/><path d="M350.199 703.22c-3.208 0-5.935-2.567-5.935-5.775 0-3.207 2.727-5.934 5.935-5.934 3.207 0 5.774 2.727 5.774 5.934a5.75 5.75 0 01-5.774 5.774z"/><path d="M338.972 703.22a5.75 5.75 0 01-5.774-5.775c0-3.207 2.566-5.934 5.774-5.934 3.207 0 5.774 2.727 5.774 5.934a5.75 5.75 0 01-5.774 5.774z"/><path d="M327.905 703.22a5.75 5.75 0 01-5.774-5.775c0-3.207 2.567-5.934 5.774-5.934 3.208 0 5.774 2.727 5.774 5.934a5.75 5.75 0 01-5.774 5.774z"/><path d="M316.678 703.22a5.75 5.75 0 01-5.774-5.775c0-3.207 2.567-5.934 5.774-5.934 3.208 0 5.774 2.727 5.774 5.934a5.75 5.75 0 01-5.774 5.774z"/><path d="M305.612 703.22a5.75 5.75 0 01-5.774-5.775c0-3.207 2.566-5.934 5.774-5.934 3.207 0 5.774 2.727 5.774 5.934a5.75 5.75 0 01-5.774 5.774z"/></g><g stroke="#1f1a17" stroke-width="1.143"><path d="M290.536 770.584s-2.887-14.756-.642-16.84l-2.245-1.925s-.321-.321-.802-.321c-.642 0-.963.32-.963.32l-2.245 1.925c1.123.963 3.368 4.651 3.208 10.586.962 4.49 1.122 6.255 1.122 6.255z" fill="#ffb700"/><path d="M273.695 749.894l4.49.16c8.822 1.764 8.662 20.53 8.662 20.53l-2.727.16s-.641-17.322-6.415-15.558c0 0-2.406.963-3.69.642h-.48c-1.283.32-3.529-.642-3.529-.642-5.774-1.764 3.85 15.397 3.85 15.397h-2.727s-11.708-19.888-1.764-20.53z" fill="#ffb700"/><path d="M283.318 770.584s-1.122-16.68-6.255-13.633c0 0-1.604.802-3.207 1.123-2.246 0-3.69-1.283-3.69-1.283-5.132-2.727 4.331 13.793 4.331 13.793h3.208s-1.764-7.057-2.246-9.463c0 0 4.491 9.142 4.812 9.463.32.16-2.245 0-2.245 0zm-13.151 0s-7.538-14.756-5.133-16.84l-2.245-1.925s-.32-.321-.962-.321c-.481 0-.802.32-.802.32l-2.406 1.925c1.123.963 2.887 4.17 5.774 10.746.962 4.651 2.245 6.095 2.245 6.095z" fill="#ffb700"/><path d="M244.024 758.234c-.481-3.369.321-7.86 4.01-8.18l.32-.16 4.33.16c8.822 1.764 12.832 20.53 12.832 20.53h-3.69s-.801-17.162-6.575-15.237c0 0-1.283.802-2.566.48h-.481c-1.283.322-3.689-.64-3.689-.64-2.085-.642-1.444 3.848-.642 6.575z" fill="#ffb700"/><path d="M244.024 758.234c-.481-3.369.321-7.86 4.01-8.18l.32-.16 4.33.16c8.822 1.764 12.832 20.53 12.832 20.53h-3.69s-.801-17.162-6.575-15.237c0 0-1.283.802-2.566.48h-.481c-1.283.322-3.689-.64-3.689-.64-2.085-.642-1.444 3.848-.642 6.575" fill="none"/><path d="M260.704 770.259s-1.283-15.718-4.972-13.312c0 0-1.604.802-3.208 1.123-2.405 0-3.689-1.283-3.689-1.283-1.924-.963-.48 3.528.321 6.094z" fill="#ffb700"/><path d="M260.704 770.259s-1.283-15.718-4.972-13.312c0 0-1.604.802-3.208 1.123-2.405 0-3.689-1.283-3.689-1.283-1.924-.963-.48 3.528.321 6.094" fill="none"/><path d="M254.449 766.734c-.481-1.764-.962-3.689-1.123-4.651 0 0 1.95 3.578 3.69 5.86zm35.926 8.02s-3.047 8.5-.641 9.623l-2.406 1.122s-.32.16-.802.16c-.642 0-.962-.16-.962-.16l-2.246-1.122c1.123-.481 3.529-2.566 3.208-5.934.962-2.727 1.123-3.69 1.123-3.69z" fill="#ffb700"/><path d="M273.374 786.434h4.491c8.982-.963 8.66-11.708 8.66-11.708H283.8s-.641 9.783-6.575 8.82c0 0-2.246-.48-3.529-.32h-.481c-1.283-.16-3.689.32-3.689.32-5.774.963 3.85-8.82 3.85-8.82h-2.567s-11.868 11.387-1.924 11.708z" fill="#ffb700"/><path d="M282.998 774.754s-1.122 9.462-6.255 7.859c0 0-1.603-.482-3.207-.642-2.406 0-3.69.642-3.69.642-5.131 1.603 4.17-7.86 4.17-7.86h3.369s-1.764 4.01-2.245 5.454c0 0 4.49-5.293 4.811-5.453.32-.16-2.245 0-2.245 0zm-13.312 0s-7.378 8.5-5.133 9.623l-2.245 1.122s-.32.16-.962.16c-.482 0-.802-.16-.802-.16l-2.246-1.122c.963-.481 2.727-2.406 5.614-6.095.962-2.726 2.245-3.528 2.245-3.528z" fill="#ffb700"/><path d="M243.062 782.434c-.482 1.924 0 3.849 3.688 4.01h4.812c8.66-.963 12.83-11.709 12.83-11.709h-3.688s-.962 9.784-6.736 8.66c0 0-1.283-.32-2.566-.16h-.481c-1.284-.16-3.529.321-3.529.321-2.245.321-1.123-3.688-.32-5.292z" fill="#ffb700"/><path d="M243.062 782.434c-.482 1.924 0 3.849 3.688 4.01h4.812c8.66-.963 12.83-11.709 12.83-11.709h-3.688s-.962 9.784-6.736 8.66c0 0-1.283-.32-2.566-.16h-.481c-1.284-.16-3.529.321-3.529.321-2.245.321-1.123-3.688-.32-5.292" fill="none"/><path d="M259.26 774.754s-1.122 9.142-4.65 7.859c0 0-1.604-.482-3.369-.642-2.245 0-3.689.642-3.689.642-1.924.641-.16-3.529.802-4.972z" fill="#ffb700"/><path d="M259.26 774.754s-1.122 9.142-4.65 7.859c0 0-1.604-.482-3.369-.642-2.245 0-3.689.642-3.689.642-1.924.641-.16-3.529.802-4.972" fill="none"/><path d="M252.043 775.714c-.48.962-.962 2.085-1.122 2.726 0 0 1.172-1.282 2.616-2.725zm57.417-5.13s2.888-14.756.642-16.84l2.246-1.925s.32-.321.802-.321c.641 0 .962.32.962.32l2.245 1.925c-1.122.963-3.368 4.651-3.047 10.586-1.123 4.49-1.283 6.255-1.283 6.255z" fill="#ffb700"/><path d="M326.301 749.894l-4.49.16c-8.822 1.764-8.661 20.53-8.661 20.53l2.726.16s.802-17.322 6.576-15.558c0 0 2.246.963 3.529.642h.48c1.284.32 3.53-.642 3.53-.642 5.933-1.764-3.85 15.397-3.85 15.397h2.727s11.868-19.888 1.764-20.53z" fill="#ffb700"/><path d="M316.839 770.584s.962-16.68 6.094-13.633c0 0 1.604.802 3.208 1.123 2.245 0 3.689-1.283 3.689-1.283 5.132-2.727-4.17 13.793-4.17 13.793h-3.368s1.764-7.057 2.245-9.463c0 0-4.33 9.142-4.811 9.463-.321.16 2.245 0 2.245 0zm-16.841-14.755c1.283.16 4.01-.642 4.01-.642 5.774-1.924 1.924 15.397 1.924 15.397h2.727s5.934-20.208-4.17-20.69h-8.982c-10.104.482-4.01 20.69-4.01 20.69h2.567s-3.85-17.321 1.925-15.397c0 0 2.726.802 4.01.642z" fill="#ffb700"/><path d="M299.838 762.084s1.443 8.5 1.924 8.82c.321.322 2.887.161 2.887.161h.802s3.208-16.84-1.924-13.793c0 0-1.604.802-3.208 1.123h-.642c-1.603-.32-3.207-1.123-3.207-1.123-5.133-3.047-1.764 13.793-1.764 13.793h.641s2.566.16 2.887-.16c.481-.32 1.925-8.821 1.925-8.821zm29.992 8.5s7.538-14.756 5.132-16.84l2.246-1.925s.48-.321.962-.321c.48 0 .962.32.962.32l2.246 1.925c-1.123.963-2.727 4.17-5.614 10.746-1.123 4.651-2.406 6.095-2.406 6.095z" fill="#ffb700"/><path d="M355.973 758.234c.48-3.369-.321-7.86-3.85-8.18l-.32-.16-4.491.16c-8.821 1.764-12.831 20.53-12.831 20.53h3.689s.962-17.162 6.736-15.237c0 0 1.283.802 2.406.48h.48c1.284.322 3.69-.64 3.69-.64 2.085-.642 1.443 3.848.641 6.575z" fill="#ffb700"/><path d="M355.973 758.234c.48-3.369-.321-7.86-3.85-8.18l-.32-.16-4.491.16c-8.821 1.764-12.831 20.53-12.831 20.53h3.689s.962-17.162 6.736-15.237c0 0 1.283.802 2.406.48h.48c1.284.322 3.69-.64 3.69-.64 2.085-.642 1.443 3.848.641 6.575" fill="none"/><path d="M339.293 770.259s1.443-15.718 4.971-13.312c0 0 1.604.802 3.208 1.123 2.406 0 3.689-1.283 3.689-1.283 1.925-.963.642 3.528-.321 6.094z" fill="#ffb700"/><path d="M339.293 770.259s1.443-15.718 4.971-13.312c0 0 1.604.802 3.208 1.123 2.406 0 3.689-1.283 3.689-1.283 1.925-.963.642 3.528-.321 6.094" fill="none"/><path d="M345.708 766.734c.32-1.764.802-3.689 1.123-4.651 0 0-1.925 3.689-3.368 6.415zm-35.926 8.02s2.887 8.5.48 9.623l2.407 1.122s.32.16.802.16c.641 0 .962-.16.962-.16l2.245-1.122c-1.122-.481-3.368-2.566-3.047-5.934-1.123-2.727-1.283-3.69-1.283-3.69z" fill="#ffb700"/><path d="M326.622 786.434h-4.49c-8.822-.963-8.661-11.708-8.661-11.708h2.726s.802 9.783 6.576 8.82c0 0 2.406-.48 3.528-.32h.482c1.283-.16 3.688.32 3.688.32 5.774.963-3.849-8.82-3.849-8.82h2.727s11.708 11.387 1.764 11.708z" fill="#ffb700"/><path d="M317.16 774.754s.962 9.462 6.094 7.859c0 0 1.604-.482 3.208-.642 2.406 0 3.689.642 3.689.642 5.292 1.603-4.17-7.86-4.17-7.86h-3.368s1.764 4.01 2.245 5.454c0 0-4.33-5.293-4.812-5.453-.32-.16 2.246 0 2.246 0zm-16.84 11.865l4.49-.16c10.104-.161 4.01-11.709 4.01-11.709h-2.567s3.85 9.944-1.924 8.821c0 0-2.887-.48-4.17-.32h-.321c-1.283-.16-4.17.32-4.17.32-5.774 1.123-1.764-8.82-1.764-8.82h-2.727s-6.095 11.547 4.01 11.707l4.49.16z" fill="#ffb700"/><path d="M299.998 781.649c1.604.32 3.85.641 3.85.641 4.971 1.765 1.764-7.698 1.764-7.698h-.802s-2.406-.16-2.887 0c-.32.16-1.764 5.132-1.764 5.132h-.16s-1.605-4.972-1.925-5.132c-.482-.16-2.887 0-2.887 0h-.802s-3.208 9.463 1.764 7.698c0 0 2.245-.32 3.85-.641zm30.312-6.895s7.379 8.5 5.133 9.623l2.246 1.122s.32.16.962.16c.481 0 .802-.16.802-.16l2.406-1.122c-1.123-.481-2.887-2.406-5.774-6.095-.962-2.726-2.246-3.528-2.246-3.528z" fill="#ffb700"/><path d="M356.935 782.434c.481 1.924 0 3.849-3.689 4.01h-4.651c-8.821-.963-12.83-11.709-12.83-11.709h3.528s.962 9.784 6.736 8.66c0 0 1.283-.32 2.566-.16h.48c1.284-.16 3.69.321 3.69.321 2.085.321.962-3.688.16-5.292z" fill="#ffb700"/><path d="M356.935 782.434c.481 1.924 0 3.849-3.689 4.01h-4.651c-8.821-.963-12.83-11.709-12.83-11.709h3.528s.962 9.784 6.736 8.66c0 0 1.283-.32 2.566-.16h.48c1.284-.16 3.69.321 3.69.321 2.085.321.962-3.688.16-5.292" fill="none"/><path d="M340.736 774.754s1.123 9.142 4.812 7.859c0 0 1.603-.482 3.207-.642 2.246 0 3.689.642 3.689.642 1.925.641.16-3.529-.802-4.972z" fill="#ffb700"/><path d="M340.736 774.754s1.123 9.142 4.812 7.859c0 0 1.603-.482 3.207-.642 2.246 0 3.689.642 3.689.642 1.925.641.16-3.529-.802-4.972" fill="none"/><path d="M347.953 775.714c.481.962.963 2.085 1.123 2.726 0 0-.9-1.669-2.343-3.112z" fill="#ffb700"/></g><path d="M126.712 794.324c36.086 0 65.276-29.19 65.276-65.277 0-36.086-29.19-65.436-65.276-65.436s-65.437 29.35-65.437 65.436c0 36.087 29.35 65.277 65.437 65.277z" fill="#0069ac"/><path d="M126.712 788.869c33.04 0 59.823-26.785 59.823-59.824s-26.784-59.823-59.823-59.823-59.823 26.784-59.823 59.823c0 33.04 26.784 59.824 59.823 59.824z" fill="#da251d"/><path d="M126.712 781.009c28.709 0 51.964-23.256 51.964-51.965 0-28.708-23.255-51.964-51.964-51.964s-51.964 23.256-51.964 51.964c0 28.709 23.255 51.965 51.964 51.965z" fill="#ffb700"/><path d="M126.712 769.139c22.133 0 40.096-17.963 40.096-40.096 0-22.133-17.963-40.256-40.096-40.256-22.133 0-40.256 18.123-40.256 40.256s18.123 40.096 40.256 40.096z" fill="#ffb700" stroke="#1f1a17" stroke-width="1.143"/><path d="M126.712 764.489c19.567 0 35.445-15.878 35.445-35.445s-15.878-35.445-35.445-35.445-35.445 15.878-35.445 35.445 15.878 35.445 35.445 35.445z" fill="#ffb700" stroke="#1f1a17" stroke-width="1.143"/><path d="M133.608 695.364c.482 2.566-1.122 4.491-2.085 6.736-2.405 4.972 1.604 9.784-.48 15.237-2.407 5.934 3.047 13.151.48 19.566-.48 1.444-3.849-.48-4.811.482-1.604 1.924 1.924 3.688 1.924 5.773.161 3.048.802 5.133.482 8.34-.802-.32-1.283.642-2.085.642 3.849 2.727 5.292 7.217 6.575 11.708m-5.453-51.804c-6.415-6.736-16.198-4.811-22.293.481h.481m17.803 3.369c-7.057-2.727-12.831 2.887-19.406 4.01" fill="none" stroke="#1f1a17" stroke-width=".741"/><path d="M123.665 718.139c-5.453-1.443-10.425-.481-15.076 2.246 4.65-.642 9.302 1.603 13.953 0-.642-.802.802-2.085-.642-2.727m.642 12.831c-2.246 1.122-3.689 2.886-2.566 5.453 1.764 4.33 3.689-.321 7.057 1.122-.321-.32-1.283.642-1.123-.48m.481 3.35c1.283.16 1.123 1.443 1.764 2.085-5.613-1.925-7.538 4.01-12.83 4.49 4.812 0 8.66.802 12.991 0m-.802 6.755c-3.048-.321-5.453-.321-7.859-2.727m3.368-40.738c-3.207-1.122-6.575-.32-9.943-.481m13.953 42.821c-3.208-.32-6.737-.32-8.981-2.727" fill="none" stroke="#1f1a17" stroke-width=".741"/><path d="M474.265 794.324c36.086 0 65.276-29.19 65.276-65.277 0-36.086-29.19-65.436-65.276-65.436-36.247 0-65.437 29.35-65.437 65.436 0 36.087 29.19 65.277 65.437 65.277z" fill="#0069ac"/><path d="M474.265 788.869c33.038 0 59.823-26.785 59.823-59.824s-26.785-59.823-59.823-59.823c-33.2 0-59.984 26.784-59.984 59.823 0 33.04 26.784 59.824 59.984 59.824z" fill="#da251d"/><g stroke="#1f1a17" stroke-width="1.143"><path d="M98.396 795.434H63.913v6.585m437.689-6.585h34.48v6.585" fill="none"/><path d="M299.998 822.064h259.5s-9.945 3.368-8.822-8.821c1.123-12.35-14.595-11.227-14.595-11.227H63.911s-15.558-1.123-14.435 11.227c1.122 12.189-8.982 8.82-8.982 8.82z" fill="#ffb700"/><path d="M299.998 831.049H40.5v-8.985h518.998v8.985z" fill="#ffb700"/><path d="M448.193 795.434H380.19m-228.387-.003h244.532" fill="none"/></g><path d="M299.998 179.727c42.502 0 76.984-34.483 76.984-77.145 0-42.502-34.482-76.984-76.984-76.984-42.502 0-76.984 34.482-76.984 76.984 0 42.662 34.482 77.145 76.984 77.145z" fill="#ffb700" stroke="#1f1a17" stroke-width="1.143"/><path d="M299.998 172.189c38.332 0 69.446-31.115 69.446-69.607 0-38.332-31.114-69.446-69.446-69.446-38.332 0-69.446 31.114-69.446 69.446 0 38.492 31.114 69.607 69.446 69.607z" fill="#ffb700" stroke="#1f1a17" stroke-width="1.143"/><g fill="#ffb700" stroke="#1f1a17" stroke-width="1.143"><path d="M248.354 654.624s-3.368 9.623 6.416 17.642l.641 2.727s4.01-15.557-6.255-18.926z"/><path d="M229.75 674.514s4.49-.802 7.218-4.01c0 0 11.066 1.444 9.782-12.028l1.444-4.17s1.123.802-7.378 3.047c-6.415 1.764-4.33 12.51-5.773 14.595z"/><path d="M230.873 687.984s4.49-.802 7.217-4.17c0 0 11.066 1.444 9.783-11.868l1.444-4.33s1.122.801-7.378 3.047c-6.415 1.764-4.33 12.51-5.773 14.595zm-50.04-7.05s4.33 1.123 8.18-.802c0 0 9.462 5.774 13.793-7.057l3.047-3.207s.802 1.122-8.02-.16c-6.575-1.123-8.98 9.622-11.066 11.066zm22.454-.164s-10.105 2.245-11.708 14.594l-1.925 2.085s15.237-4.65 12.83-15.236zm-10.907 37.529s4.01-2.085 5.614-6.255c0 0 10.906-1.924 5.613-14.274v-4.49s1.284.32-6.094 5.132c-5.614 3.688-.16 13.311-.802 15.717z"/><path d="M200.24 724.389s3.849-2.085 5.452-6.094c0 0 10.907-2.085 5.614-14.435l.16-4.49s1.283.32-6.094 5.132c-5.614 3.689-.16 13.312-.963 15.717z"/><path d="M209.06 704.984s3.208-3.368 3.369-7.698c0 0 9.783-5.293.802-15.237l-1.284-4.33s1.444-.16-4.17 6.736c-4.17 5.293 4.01 12.67 4.01 15.237zm-6.415 14.275s-7.378 7.217-2.085 18.604l-.48 2.727s10.264-12.189 2.726-19.727zm9.623 31.915s3.208-3.208 3.529-7.538c0 0 9.623-5.293.802-15.397l-1.283-4.33s1.443 0-4.17 6.735c-4.17 5.293 3.849 12.67 4.01 15.237zm-15.397 9.945s3.85-2.085 5.614-6.095c0 0 10.906-2.085 5.453-14.434l.16-4.491s1.283.481-6.094 5.132c-5.614 3.69-.16 13.312-.963 15.718zm-7.698 17.16s4.49-.642 7.378-3.69c0 0 10.906 1.925 10.425-11.387l1.764-4.17s.962.802-7.538 2.567c-6.576 1.443-4.972 12.35-6.576 14.274zm4.651 1.125s-10.265.481-13.953 12.35l-2.246 1.764s15.718-2.085 15.237-12.831zm7.859 23.895s3.208-3.048 3.689-7.378c0 0 9.944-4.812 1.604-15.397l-1.123-4.33s1.443 0-4.49 6.575c-4.492 5.133 3.367 12.992 3.367 15.397z"/><path d="M212.75 764.329s-7.378 7.217-2.086 18.604l-.641 2.727s10.425-12.19 2.887-19.727zm18.604 6.255s-.321-4.491-3.368-7.538c0 0 2.566-10.907-10.746-11.067l-4.17-1.925s.962-.962 2.246 7.699c1.122 6.576 12.028 5.613 13.953 7.217zm33.52-126.064c-12.19-2.888-23.256-.642-36.728 12.189-13.312 12.83-25.02 12.83-25.02 12.83l7.86-1.122s-7.86 8.34-4.492 16.198c0 0-.641-14.595 8.34-17.802l6.095-3.368s-2.726 11.066-7.217 13.953c0 0 11.708-19.567 29.991-29.03 0 0 5.614.482 1.764 6.737 0 0 3.368-3.368 2.727-7.218 0 0 3.368.16 2.245 9.944 0 0 1.604-6.736.642-9.944-1.123-3.368 16.038-2.887 19.406.482z"/></g><g fill="#ffb700" stroke="#1f1a17" stroke-width="1.143"><path d="M351.642 654.624s3.368 9.623-6.255 17.642l-.802 2.727s-3.85-15.557 6.255-18.926z"/><path d="M370.246 674.514s-4.33-.802-7.217-4.01c0 0-10.906 1.444-9.783-12.028l-1.443-4.17s-1.123.802 7.377 3.047c6.415 1.764 4.33 12.51 5.774 14.595z"/><path d="M369.124 687.984s-4.33-.802-7.218-4.17c0 0-10.905 1.444-9.622-11.868l-1.604-4.33s-1.123.801 7.378 3.047c6.575 1.764 4.33 12.51 5.773 14.595zm50.04-7.05s-4.33 1.123-8.18-.802c0 0-9.463 5.774-13.793-7.057l-3.047-3.207s-.802 1.122 8.019-.16c6.576-1.123 8.981 9.622 11.066 11.066zm-22.294-.164s9.944 2.245 11.708 14.594l1.764 2.085s-15.236-4.65-12.83-15.236zm10.746 37.529s-4.01-2.085-5.614-6.255c0 0-10.906-1.924-5.453-14.274l-.16-4.49s-1.283.32 6.095 5.132c5.613 3.688.16 13.311.962 15.717z"/><path d="M399.757 724.389s-3.85-2.085-5.453-6.094c0 0-10.906-2.085-5.613-14.435l-.16-4.49s-1.284.32 6.094 5.132c5.613 3.689.16 13.312.962 15.717z"/><path d="M390.936 704.984s-3.047-3.368-3.368-7.698c0 0-9.784-5.293-.802-15.237l1.283-4.33s-1.443-.16 4.17 6.736c4.17 5.293-4.01 12.67-4.01 15.237zm6.415 14.275s7.378 7.217 2.085 18.604l.481 2.727s-10.264-12.189-2.726-19.727zm-9.623 31.915s-3.207-3.208-3.368-7.538c0 0-9.783-5.293-.962-15.397l1.283-4.33s-1.283 0 4.17 6.735c4.33 5.293-3.85 12.67-3.85 15.237zm15.397 9.945s-3.85-2.085-5.453-6.095c0 0-10.906-2.085-5.613-14.434l-.16-4.491s-1.284.481 6.094 5.132c5.613 3.69.16 13.312.962 15.718zm7.699 17.16s-4.491-.642-7.378-3.69c0 0-10.906 1.925-10.425-11.387l-1.604-4.17s-1.123.802 7.538 2.567c6.416 1.443 4.812 12.35 6.416 14.274zm-4.491 1.125s10.104.481 13.953 12.35l2.085 1.764s-15.717-2.085-15.076-12.831zm-8.019 23.895s-3.208-3.048-3.69-7.378c0 0-9.943-4.812-1.603-15.397l1.123-4.33s-1.283 0 4.49 6.575c4.491 5.133-3.368 12.992-3.368 15.397z"/><path d="M387.407 764.329s7.218 7.217 2.085 18.604l.482 2.727s-10.425-12.19-2.727-19.727zm-18.765 6.255s.321-4.491 3.369-7.538c0 0-2.567-10.907 10.906-11.067l4.01-1.925s-.963-.962-2.246 7.699c-.962 6.576-12.029 5.613-13.954 7.217zM335.123 644.52c12.189-2.888 23.416-.642 36.727 12.189 13.312 12.83 25.02 12.83 25.02 12.83l-7.698-1.122s7.698 8.34 4.33 16.198c0 0 .642-14.595-8.34-17.802l-6.095-3.368s2.887 11.066 7.218 13.953c0 0-11.708-19.567-29.992-29.03 0 0-5.613.482-1.764 6.737 0 0-3.208-3.368-2.726-7.218 0 0-3.369.16-2.246 9.944 0 0-1.604-6.736-.481-9.944 1.123-3.368-16.199-2.887-19.567.482z"/></g><g stroke="#1f1a17" stroke-width="1.143"><path d="M299.998 638.584c126.864 0 229.83-102.806 229.83-229.67 0-126.864-102.966-229.83-229.83-229.83-126.864 0-229.67 102.966-229.67 229.83 0 126.864 102.806 229.67 229.67 229.67z" fill="#ffb700"/><path d="M299.998 626.394c120.128 0 217.481-97.353 217.481-217.48 0-120.128-97.353-217.481-217.48-217.481-120.128 0-217.482 97.353-217.482 217.48 0 120.128 97.354 217.481 217.481 217.481z" fill="#0069ac"/></g><path d="M299.998 613.244c112.75 0 204.33-91.579 204.33-204.329 0-112.75-91.58-204.33-204.33-204.33-112.75 0-204.329 91.58-204.329 204.33 0 112.75 91.58 204.33 204.33 204.33z" fill="#ffb700" stroke="#1f1a17" stroke-width="1.143"/><path d="M299.998 604.744c108.26 0 195.83-87.73 195.83-195.828 0-108.1-87.57-195.83-195.83-195.83-108.099 0-195.829 87.73-195.829 195.83 0 108.098 87.73 195.828 195.83 195.828z" fill="#0069ac" stroke="#1f1a17" stroke-width="1.143"/><path d="M299.998 592.35c101.406 0 183.433-82.177 183.433-183.433 0-101.256-82.027-183.433-183.433-183.433-101.256 0-183.432 82.177-183.432 183.433 0 101.256 82.176 183.433 183.432 183.433z" fill="#1f1a17"/><g stroke="#1f1a17"><path d="M303.366 267.936s-1.122-38.973 4.972-44.426l-5.934-5.132s-.962-.802-2.406-.963c-1.443.16-2.406.963-2.406.963l-5.934 5.132c6.095 5.453 4.972 44.426 4.972 44.426zm-54.21 9.464s-15.877-35.444-12.349-42.982l-7.538-2.406s-1.123-.481-2.566 0c-1.283.642-1.764 1.925-1.764 1.925l-3.69 6.896c7.86 2.726 21.813 39.134 21.813 39.134zm-46.35 29.511s-28.389-26.784-28.068-34.963l-7.698.641s-1.444 0-2.406.962c-.962.963-.962 2.406-.962 2.406l-.642 7.699c8.18-.321 34.964 28.067 34.964 28.067zM171.05 351.98s-36.408-13.954-39.135-21.813l-6.896 3.69s-1.283.48-1.925 1.763c-.48 1.444 0 2.566 0 2.566l2.406 7.539c7.538-3.529 43.144 12.349 43.144 12.349zm-11.87 53.568s-38.973 1.122-44.586-4.972l-4.972 5.934s-.962.962-1.122 2.406c.16 1.443 1.122 2.405 1.122 2.405l4.972 5.935c5.613-6.095 44.587-4.972 44.587-4.972zm9.464 54.21s-35.606 15.878-43.144 12.349l-2.406 7.538s-.48 1.283 0 2.566c.642 1.283 1.925 1.764 1.925 1.764l6.896 3.69c2.727-7.86 39.134-21.813 39.134-21.813zm29.35 46.352s-26.784 28.388-34.964 28.067l.642 7.699s0 1.443.962 2.405c1.123.963 2.406.963 2.406.963l7.698.641c-.32-8.18 28.068-34.964 28.068-34.964zm45.068 31.755s-13.953 36.407-21.652 39.134l3.529 6.896s.48 1.283 1.764 1.925c1.443.481 2.566 0 2.566 0l7.538-2.406c-3.528-7.538 12.35-42.983 12.35-42.983zm53.568 11.87s1.123 38.973-4.972 44.587l5.934 4.972s.963.962 2.406 1.122c1.444-.16 2.406-1.122 2.406-1.122l5.934-4.972c-6.094-5.614-4.972-44.587-4.972-44.587zm54.21-9.465s16.038 35.605 12.51 43.143l7.377 2.406s1.284.481 2.567 0c1.283-.642 1.764-1.925 1.764-1.925l3.689-6.896c-7.859-2.727-21.652-39.134-21.652-39.134zm46.511-29.335s28.228 26.784 27.907 34.964l7.699-.642s1.443 0 2.406-.962c.962-1.123.962-2.406.962-2.406l.802-7.698c-8.34.32-35.125-28.068-35.125-28.068zm31.596-45.083s36.407 13.954 39.134 21.652l7.057-3.529s1.123-.48 1.764-1.764c.481-1.444 0-2.566 0-2.566l-2.406-7.538c-7.377 3.529-42.983-12.35-42.983-12.35zm12.029-53.568s38.973-1.123 44.426 4.972l5.132-5.935s.802-.962.963-2.405c-.16-1.444-.963-2.406-.963-2.406l-5.132-5.934c-5.453 6.094-44.426 4.972-44.426 4.972zm-9.463-54.21s35.445-16.038 42.983-12.51l2.406-7.378s.481-1.283 0-2.566c-.641-1.283-1.924-1.764-1.924-1.764l-6.897-3.689c-2.727 7.86-39.134 21.652-39.134 21.652zm-29.511-46.511s26.785-28.228 34.964-27.907l-.641-7.699s0-1.443-.962-2.406c-1.123-.962-2.406-.962-2.406-.962l-7.699-.802c.321 8.34-28.067 35.124-28.067 35.124zm-45.067-31.596s13.953-36.408 21.651-39.134l-3.528-7.057s-.481-1.122-1.764-1.764c-1.444-.481-2.567 0-2.567 0l-7.538 2.406c3.529 7.377-12.349 42.983-12.349 42.983z" fill="#ffb700" stroke-width="1.143"/><path d="M338.65 219.021l11.388 2.727c25.5 7.217-1.924 55.332-1.924 55.332l-6.576-2.727s20.048-41.058 4.17-39.614c0 0-6.576.962-9.623-.481l-1.283-.161c-3.368 0-8.821-3.689-8.821-3.689-13.954-7.858-12.67 37.85-12.67 37.85l-7.058-.32s-5.132-55.012 21.01-51.162zm-75.54-.321l11.547-1.924c26.143-3.048 19.247 51.803 19.247 51.803l-7.057.16s2.887-45.548-11.388-38.331c0 0-5.613 3.529-8.981 3.368l-1.283.321c-3.048 1.283-9.623 0-9.623 0-15.718-1.924 3.047 39.775 3.047 39.775l-6.736 2.406s-25.822-48.917-.16-55.332zm-70.088 28.548l9.944-6.094c23.095-12.831 37.85 40.417 37.85 40.417l-6.575 2.887s-14.916-43.304-25.18-31.115c0 0-3.85 5.453-7.057 6.576l-.963.802c-2.405 2.245-8.981 3.688-8.981 3.688-15.237 4.33 17.963 35.606 17.963 35.606l-5.132 4.811s-42.663-35.284-21.492-51zm-53.568 53.248l6.736-9.463c16.359-20.69 50.36 22.935 50.36 22.935l-4.971 5.133s-30.313-34.323-35.125-19.086c0 0-1.443 6.415-4.01 8.821l-.64.962c-1.284 3.208-6.737 6.897-6.737 6.897-12.51 9.944 30.152 25.982 30.152 25.982l-3.047 6.576s-52.766-16.36-39.294-39.134zm-29.35 69.767l2.726-11.387c7.218-25.501 55.332 1.924 55.332 1.924l-2.726 6.576s-41.059-20.048-39.615-4.17c0 0 .962 6.576-.32 9.623l-.322 1.283c0 3.368-3.689 8.982-3.689 8.982-7.698 13.793 37.851 12.51 37.851 12.51l-.16 7.057s-55.172 5.132-51.323-21.01zm-.321 75.541l-1.925-11.387c-3.047-26.303 51.964-19.407 51.964-19.407v7.057s-45.548-2.887-38.171 11.387c0 0 3.368 5.614 3.208 8.982l.32 1.283c1.283 3.047 0 9.623 0 9.623-1.764 15.718 39.776-2.887 39.776-2.887l2.566 6.576s-49.077 25.821-55.493.16zm28.547 70.086l-6.094-9.944c-12.83-23.096 40.578-37.85 40.578-37.85l2.726 6.575s-43.304 14.916-30.954 25.18c0 0 5.293 3.85 6.415 7.057l.802.963c2.246 2.405 3.69 8.981 3.69 8.981 4.33 15.237 35.604-17.963 35.604-17.963l4.812 5.293s-35.285 42.502-51 21.33zm53.249 53.73l-9.463-6.897c-20.69-16.36 22.935-50.36 22.935-50.36l5.132 4.971s-34.322 30.313-19.086 35.124c0 0 6.576 1.444 8.822 4.01l.962.642c3.208 1.283 6.896 6.736 6.896 6.736 9.944 12.51 26.143-30.153 26.143-30.153l6.416 3.048s-16.36 52.766-38.974 39.294zm69.767 29.19l-11.388-2.727c-25.34-7.217 1.925-55.333 1.925-55.333l6.576 2.727s-20.048 41.058-4.17 39.615c0 0 6.575-.962 9.623.481l1.283.16c3.368 0 8.981 3.69 8.981 3.69 13.954 7.698 12.51-37.851 12.51-37.851l7.057.16s5.133 55.172-21.01 51.323zm75.541.32l-11.388 1.924c-26.303 3.047-19.406-51.964-19.406-51.964h7.057s-2.887 45.549 11.387 38.332c0 0 5.614-3.529 8.982-3.368l1.283-.321c3.047-1.283 9.623 0 9.623 0 15.878 1.925-2.887-39.775-2.887-39.775l6.576-2.567s25.821 49.078.16 55.494zm70.087-28.545l-9.943 6.095c-23.096 12.83-37.69-40.578-37.69-40.578l6.415-2.726s14.915 43.304 25.18 30.954c0 0 3.85-5.293 7.057-6.415l1.123-.802c2.245-2.246 8.82-3.69 8.82-3.69 15.398-4.33-17.962-35.605-17.962-35.605l5.292-4.811s42.502 35.284 21.332 51zm53.729-53.25l-6.896 9.462c-16.36 20.69-50.361-22.935-50.361-22.935l4.972-5.132s30.313 34.322 35.124 19.086c0 0 1.604-6.576 4.01-8.821l.641-.963c1.283-3.207 6.736-6.896 6.736-6.896 12.67-9.944-30.152-26.142-30.152-26.142l3.047-6.416s52.927 16.359 39.295 38.973zm29.189-69.767l-2.726 11.388c-7.217 25.34-55.332-1.925-55.332-1.925l2.726-6.576s41.059 20.048 39.615 4.17c0 0-.962-6.576.481-9.623l.16-1.283c0-3.368 3.69-8.981 3.69-8.981 7.858-13.954-37.851-12.51-37.851-12.51l.32-7.057s55.012-5.133 51.163 21.01zm.32-75.541l1.925 11.387c3.047 26.304-51.804 19.407-51.804 19.407l-.16-7.057s45.548 2.887 38.332-11.387c0 0-3.529-5.614-3.369-8.982l-.32-1.283c-1.283-3.047 0-9.623 0-9.623 1.924-15.878-39.776 2.887-39.776 2.887l-2.406-6.576s48.917-25.821 55.333-.16zm-28.546-70.087l6.094 9.943c12.831 23.096-40.417 37.69-40.417 37.69l-2.887-6.415s43.304-14.915 30.955-25.18c0 0-5.293-3.85-6.416-7.057l-.802-1.123c-2.245-2.245-3.689-8.82-3.689-8.82-4.33-15.398-35.605 17.962-35.605 17.962l-4.812-5.292s35.285-42.502 51-21.332zm-53.248-53.729l9.463 6.896c20.69 16.36-22.935 50.36-22.935 50.36l-5.133-4.97s34.323-30.314 19.086-35.125c0 0-6.415-1.604-8.821-4.01l-.962-.641c-3.208-1.283-6.897-6.737-6.897-6.737-9.944-12.67-26.143 30.153-26.143 30.153l-6.415-3.048s16.36-52.926 39.134-39.294z" fill="#ffb700" stroke-width="1.143"/><path d="M285.564 268.9s1.283-43.784-10.586-33.68c0 0-3.689 2.726-7.859 4.33-5.934 1.123-9.943-1.283-9.943-1.283-14.756-5.132 2.726 34.964 2.726 34.964l8.34-2.085s1.604-16.039-.802-22.133c0 0 6.416 20.048 7.538 20.69 1.123.48 8.661-.642 8.661-.642z" fill="#ffb700" stroke-width="1.143"/><path d="M262.147 272.429s-6.415-12.831-6.415-21.652m9.463 21.171s-5.293-12.831-5.774-18.765m22.775 15.877s.801-14.274-2.727-22.453m-.321 23.095s-.16-13.793-1.924-19.406" fill="none" stroke-width=".635"/><path d="M233.118 285.1s-15.557-40.899-22.614-27.106c0 0-2.566 4.01-5.613 7.057-5.133 3.368-9.784 2.566-9.784 2.566-15.557.962 16.039 31.436 16.039 31.436l6.736-5.293s-4.491-15.397-9.142-20.048c0 0 13.633 16.038 14.916 16.199 1.122 0 7.698-3.85 7.698-3.85z" fill="#ffb700" stroke-width="1.143"/><path d="M212.75 297.288s-10.746-9.302-14.114-17.482m16.84 15.879s-9.784-9.784-12.51-15.077m27.104 5.935s-4.81-13.633-11.066-19.728m8.501 21.492s-5.453-12.67-9.302-17.161" fill="none" stroke-width=".635"/><path d="M190.777 320.063s-29.992-31.756-31.275-16.199c0 0-.802 4.49-2.406 8.5-3.529 5.133-8.02 6.095-8.02 6.095-14.113 6.897 26.625 22.935 26.625 22.935l4.33-7.538s-10.104-12.35-16.039-14.916c0 0 18.605 9.623 19.888 9.303 1.123-.482 5.614-6.576 5.614-6.576z" fill="#ffb700" stroke-width="1.143"/><path d="M176.823 339.149s-13.632-4.491-19.887-10.746m21.651 8.18s-12.83-5.293-17.321-8.982m27.265-4.971s-9.623-10.747-17.802-14.115m16.198 16.68s-9.943-9.623-15.236-12.35" fill="none" stroke-width=".635"/><path d="M165.115 368.66s-39.936-17.964-35.124-3.048c0 0 1.123 4.491.962 8.82-1.283 6.096-4.972 8.822-4.972 8.822-10.424 11.708 33.36 10.746 33.36 10.746l1.123-8.5s-14.114-7.539-20.53-7.7c0 0 20.85 1.765 21.813.963.962-.802 2.887-8.179 2.887-8.179z" fill="#ffb700" stroke-width="1.143"/><path d="M159.502 391.754s-14.275.963-22.615-2.405m23.256-.642s-13.953 0-19.567-1.764m23.416-15.076s-12.99-6.255-21.812-6.095m21.331 9.142s-12.99-5.132-18.765-5.613" fill="none" stroke-width=".635"/><path d="M159.983 423.35s-43.785-1.283-33.68 10.586c0 0 2.726 3.688 4.33 7.858 1.282 6.095-1.284 9.944-1.284 9.944-4.972 14.756 35.125-2.726 35.125-2.726l-2.246-8.34s-16.038-1.604-21.973.802c0 0 20.049-6.416 20.53-7.538.641-1.123-.481-8.661-.481-8.661z" fill="#ffb700" stroke-width="1.143"/><path d="M163.511 446.766s-12.67 6.416-21.652 6.416m21.171-9.462s-12.83 5.292-18.605 5.773m15.718-22.775s-14.274-.802-22.454 2.727m23.096.321s-13.793.16-19.407 1.924" fill="none" stroke-width=".635"/><path d="M176.182 475.795s-40.898 15.717-26.945 22.614c0 0 3.85 2.566 6.897 5.613 3.368 5.133 2.566 9.784 2.566 9.784 1.122 15.557 31.435-15.878 31.435-15.878l-5.293-6.897s-15.396 4.651-20.048 9.142c0 0 16.039-13.633 16.2-14.755 0-1.283-3.85-7.859-3.85-7.859z" fill="#ffb700" stroke-width="1.143"/><path d="M188.531 496.165s-9.462 10.746-17.642 14.114m15.878-16.844s-9.783 9.783-14.916 12.67m5.774-27.26s-13.633 4.811-19.727 11.066m21.492-8.476s-12.671 5.453-17.162 9.302" fill="none" stroke-width=".635"/><path d="M211.146 518.14s-31.757 30.152-16.2 31.275c0 0 4.491.802 8.661 2.405 4.972 3.529 6.095 8.18 6.095 8.18 6.897 13.954 22.775-26.784 22.775-26.784l-7.538-4.33s-12.35 10.104-14.916 16.038c0 0 9.623-18.605 9.302-19.888-.48-1.123-6.576-5.613-6.576-5.613z" fill="#ffb700" stroke-width="1.143"/><path d="M230.392 532.09s-4.651 13.632-10.906 19.887m8.34-21.652s-5.453 12.83-9.142 17.321m-4.972-27.261s-10.746 9.623-13.954 17.802m16.52-16.042s-9.623 9.783-12.35 15.076" fill="none" stroke-width=".635"/><path d="M259.742 543.8s-17.803 39.935-3.048 35.124c0 0 4.491-1.123 8.982-.962 5.934 1.283 8.66 4.972 8.66 4.972 11.709 10.425 10.907-33.36 10.907-33.36l-8.66-1.123s-7.54 14.114-7.7 20.53c0 0 1.765-20.85.963-21.813-.802-.963-8.18-2.887-8.18-2.887z" fill="#ffb700" stroke-width="1.143"/><path d="M282.837 549.435s.962 14.274-2.406 22.614m-.641-23.279s0 13.953-1.764 19.567m-15.076-23.402s-6.256 12.991-6.095 21.812m9.143-21.182s-5.132 12.83-5.613 18.605" fill="none" stroke-width=".635"/><path d="M314.433 548.935s-1.283 43.785 10.585 33.68c0 0 3.85-2.726 7.86-4.33 6.094-1.122 10.103 1.283 10.103 1.283 14.756 4.972-2.887-35.124-2.887-35.124l-8.34 2.246s-1.603 16.038.802 21.972c0 0-6.415-20.048-7.538-20.529-1.122-.481-8.5.481-8.5.481z" fill="#ffb700" stroke-width="1.143"/><path d="M337.85 545.405s6.414 12.67 6.414 21.651m-9.462-21.171s5.292 12.83 5.934 18.604M317.8 548.77s-.8 14.274 2.728 22.453m.32-23.093s.16 13.793 1.925 19.406" fill="none" stroke-width=".635"/><path d="M367.039 532.735s15.557 40.898 22.453 26.944c0 0 2.567-3.849 5.774-6.896 5.133-3.368 9.623-2.566 9.623-2.566 15.558-1.123-15.878-31.436-15.878-31.436l-6.896 5.293s4.65 15.397 9.142 20.048c0 0-13.633-16.039-14.756-16.199-1.283 0-7.859 3.85-7.859 3.85z" fill="#ffb700" stroke-width="1.143"/><path d="M387.247 520.385s10.746 9.462 14.274 17.642m-16.841-15.882s9.784 9.783 12.51 15.076m-27.104-5.931s4.651 13.632 11.066 19.727m-8.66-21.492s5.453 12.67 9.302 17.161" fill="none" stroke-width=".635"/><path d="M409.22 497.77s30.152 31.756 31.275 16.199c0 0 .802-4.491 2.566-8.661 3.368-4.972 8.02-6.095 8.02-6.095 13.953-6.896-26.785-22.774-26.785-22.774l-4.33 7.538s10.104 12.35 16.038 14.915c0 0-18.605-9.623-19.888-9.302-1.122.481-5.613 6.576-5.613 6.576z" fill="#ffb700" stroke-width="1.143"/><path d="M423.334 478.525s13.472 4.651 19.887 10.906m-21.651-8.341s12.67 5.453 17.32 9.142m-27.425 4.973s9.623 10.745 17.803 13.953m-16.038-16.523s9.943 9.623 15.076 12.35" fill="none" stroke-width=".635"/><path d="M434.881 449.172s39.936 17.803 35.125 3.048c0 0-.963-4.491-.963-8.982 1.283-5.934 5.133-8.66 5.133-8.66 10.264-11.709-33.52-10.907-33.52-10.907l-1.123 8.66s14.113 7.539 20.529 7.7c0 0-20.85-1.765-21.813-.963-.962.802-2.886 8.18-2.886 8.18z" fill="#ffb700" stroke-width="1.143"/><path d="M440.495 426.077s14.274-.963 22.614 2.406m-23.256.641s13.954 0 19.567 1.764m-23.416 15.076s12.991 6.256 21.812 6.095m-21.17-9.142s12.83 5.132 18.604 5.614" fill="none" stroke-width=".635"/><path d="M440.014 394.48s43.784 1.284 33.68-10.584c0 0-2.726-3.85-4.33-7.86-1.123-6.094 1.283-10.103 1.283-10.103 5.132-14.755-34.964 2.886-34.964 2.886l2.085 8.34s16.039 1.604 22.133-.801c0 0-20.048 6.415-20.69 7.538-.48 1.122.642 8.5.642 8.5z" fill="#ffb700" stroke-width="1.143"/><path d="M436.485 371.065s12.831-6.416 21.652-6.416m-21.171 9.463s12.831-5.293 18.765-5.934m-15.878 22.935s14.275.802 22.454-2.727m-23.095-.32s13.793-.16 19.406-1.925" fill="none" stroke-width=".635"/><path d="M423.815 341.875s40.898-15.557 27.105-22.454c0 0-4.01-2.566-7.057-5.773-3.368-4.972-2.566-9.623-2.566-9.623-.963-15.558-31.436 15.878-31.436 15.878l5.293 6.896s15.397-4.651 20.048-9.142c0 0-16.038 13.633-16.199 14.756 0 1.283 3.85 7.858 3.85 7.858z" fill="#ffb700" stroke-width="1.143"/><path d="M411.626 321.667s9.302-10.746 17.482-14.274m-15.878 17s9.783-9.943 15.076-12.67m-5.935 27.265s13.633-4.811 19.728-11.227m-21.492 8.661s12.67-5.453 17.161-9.302" fill="none" stroke-width=".635"/><path d="M388.85 299.694s31.757-30.152 16.2-31.275c0 0-4.49-.802-8.66-2.566-4.973-3.368-6.096-8.02-6.096-8.02-6.896-13.953-22.774 26.785-22.774 26.785l7.538 4.33s12.35-10.104 14.916-16.038c0 0-9.623 18.604-9.303 19.888.481 1.122 6.576 5.613 6.576 5.613z" fill="#ffb700" stroke-width="1.143"/><path d="M369.765 285.58s4.49-13.472 10.746-19.887m-8.18 21.651s5.293-12.67 8.982-17.321m4.972 27.426s10.746-9.623 14.114-17.803m-16.68 16.039s9.623-9.944 12.35-15.077" fill="none" stroke-width=".635"/><path d="M340.255 274.033s17.963-39.936 3.047-35.124c0 0-4.49.962-8.981.962-5.935-1.283-8.661-5.132-8.661-5.132-11.708-10.265-10.746 33.52-10.746 33.52l8.5 1.122s7.539-14.113 7.699-20.529c0 0-1.764 20.85-.962 21.812.802.963 8.18 2.887 8.18 2.887z" fill="#ffb700" stroke-width="1.143"/><path d="M317.16 268.42s-.963-14.275 2.405-22.615m.642 23.255s0-13.953 1.764-19.566m15.076 23.416s6.255-12.991 6.095-21.812m-9.144 21.17s5.133-12.83 5.614-18.604" fill="none" stroke-width=".635"/></g><path d="M299.998 550.14c77.985 0 141.225-63.24 141.225-141.225 0-77.984-63.24-141.224-141.225-141.224-77.984 0-141.224 63.24-141.224 141.224 0 77.985 63.24 141.225 141.224 141.225z" fill="#fff" stroke="#1f1a17" stroke-width="1.143"/><path d="M299.998 543.14c74.154 0 134.223-60.069 134.223-134.223 0-74.154-60.069-134.222-134.223-134.222-74.154 0-134.222 60.068-134.222 134.222 0 74.154 60.068 134.223 134.222 134.223z" fill="#0069ac"/><path d="M299.998 532.8c68.422 0 123.886-55.464 123.886-123.886S368.42 285.028 299.998 285.028c-68.421 0-123.886 55.464-123.886 123.886S231.577 532.8 299.998 532.8z" fill="#fff"/><path d="M299.998 526.05c64.79 0 117.132-52.5 117.132-117.132 0-64.79-52.342-117.132-117.132-117.132-64.63 0-117.132 52.342-117.132 117.132 0 64.63 52.5 117.132 117.132 117.132z" fill="#df4b24" stroke="#1f1a17" stroke-width="1.143"/><path d="M281.62 79.613l-12.27-28.988a6.63 6.63 0 0112.22-5.147l12.019 28.398a29.65 29.65 0 016.404-.698v-.026h.015v.026c1.08 0 2.145.06 3.194.173l11.992-29.105a6.634 6.634 0 0112.271 5.044l-11.72 28.443a29.442 29.442 0 015.096 4.089c.75.754 1.46 1.55 2.124 2.382l28.99-12.27a6.63 6.63 0 015.148 12.22L328.7 96.173c.458 2.063.701 4.206.702 6.404h.026v.014h-.026c0 1.057-.057 2.102-.165 3.131l29.257 12.055a6.634 6.634 0 01-5.044 12.271l-28.519-11.75a29.496 29.496 0 01-4.088 5.18 29.35 29.35 0 01-2.316 2.1l12.145 29.146a6.644 6.644 0 01-12.272 5.096l-11.836-28.407a29.624 29.624 0 01-6.562.733v.026h-.014v-.026a29.83 29.83 0 01-3.154-.169l-11.845 29.074a6.65 6.65 0 01-12.325-4.992l11.597-28.466a29.32 29.32 0 01-7.219-6.489l-29.028 12.151a6.644 6.644 0 01-5.095-12.271l28.388-11.883a29.993 29.993 0 01-.714-6.515h-.026v-.014h.026c0-1.062.058-2.11.169-3.144l-29.235-11.855a6.65 6.65 0 014.992-12.325l28.621 11.607a29.417 29.417 0 016.478-7.243z" fill="#0069ac" fill-rule="nonzero" stroke="#1f1a17" stroke-width="1.143"/><path d="M300.003 163.257v.03h-.014v-.03c-16.758-.002-31.93-6.796-42.899-17.764-10.97-10.97-17.765-26.145-17.767-42.906h-.03v-.014h.03c.003-16.745 6.807-31.877 17.794-42.818 10.978-10.933 26.144-17.686 42.877-17.688v-.03h.014v.03c16.729.003 31.892 6.754 42.868 17.684 10.99 10.943 17.796 26.078 17.797 42.827h.03v.014h-.03c-.002 16.757-6.796 31.93-17.764 42.898-10.97 10.97-26.145 17.766-42.906 17.767zm-.005-11.719h.005v.033c13.475 0 25.718-5.505 34.603-14.392 8.883-8.883 14.386-21.122 14.389-34.593h-.033v-.015h.033c-.001-13.49-5.493-25.688-14.36-34.516-8.875-8.84-21.125-14.3-34.627-14.302v.033h-.015v-.033c-13.505 0-25.758 5.464-34.635 14.305-8.863 8.826-14.354 21.022-14.356 34.507h.033v.015h-.033c.001 13.475 5.505 25.717 14.392 34.603 8.883 8.883 21.122 14.386 34.594 14.388v-.033z" fill="#0069ac" fill-rule="nonzero" stroke="#1f1a17" stroke-width="1.143"/><g fill="#ffb700" stroke="#1f1a17" stroke-width="1.143"><path d="M299.998 118.861h.005v.026c4.48 0 8.513-1.823 11.43-4.768 2.915-2.944 4.709-7.02 4.71-11.527h-.026v-.014h.026c0-4.427-1.795-8.464-4.714-11.396a16.057 16.057 0 00-11.421-4.744v.026h-.015v-.026a16.06 16.06 0 00-11.429 4.748 16.117 16.117 0 00-4.71 11.387h.026v.014h-.026c0 4.511 1.795 8.59 4.713 11.535a16.017 16.017 0 0011.422 4.765v-.026z" fill-rule="nonzero"/><path d="M299.998 112.847c5.614 0 10.265-4.651 10.265-10.265 0-5.613-4.651-10.264-10.265-10.264-5.613 0-10.264 4.65-10.264 10.264 0 5.614 4.65 10.265 10.264 10.265z"/></g><path d="M226.393 786.809h147.078v8.749H226.393zM468.36 671.494c6.172-6.527 14.085-.022 12.01.69-2.171.747-3.803 1.97-2.787 3.172 2.656 3.143 7.947 5.952 4.567 14.968l-14.136-.888c-3.013-3.834-4.065-13.274.347-17.942z" fill="#ffb700" stroke="#1f1a17" stroke-width="1.143"/><path d="M488.362 673.04c8.036-4.016 13.238 4.809 11.045 4.767-2.296-.044-4.249.544-3.707 2.023 1.418 3.863 5.424 8.316-.842 15.626l-12.975-5.682c-1.515-4.636.734-13.863 6.48-16.735z" fill="#ffb700" stroke="#1f1a17" stroke-width="1.143"/><path d="M506.617 681.354c8.925-1.015 10.786 9.058 8.74 8.267-2.142-.83-4.178-.946-4.176.629.007 4.115 2.243 9.672-6.15 14.39l-10.24-9.789c.166-4.874 5.444-12.77 11.826-13.497z" fill="#ffb700" stroke="#1f1a17" stroke-width="1.143"/><path d="M520.917 695.434c8.732 2.107 7.025 12.208 5.375 10.763-1.728-1.513-3.6-2.321-4.139-.842-1.405 3.868-1.21 9.855-10.713 11.407l-6.26-12.705c1.827-4.522 9.493-10.13 15.737-8.623z" fill="#ffb700" stroke="#1f1a17" stroke-width="1.143"/><path d="M529.497 713.549c7.48 4.974 2.411 13.876 1.357 11.953-1.104-2.014-2.586-3.415-3.599-2.21-2.646 3.151-4.517 8.842-13.975 7.041l-1.524-14.082c3.268-3.621 12.392-6.258 17.741-2.702z" fill="#ffb700" stroke="#1f1a17" stroke-width="1.143"/><path d="M531.387 733.524c5.32 7.238-2.494 13.862-2.825 11.693-.346-2.27-1.257-4.094-2.622-3.31-3.567 2.053-7.276 6.757-15.543 1.82l3.399-13.75c4.311-2.28 13.787-1.628 17.591 3.547z" fill="#ffb700" stroke="#1f1a17" stroke-width="1.143"/><path d="M526.287 752.934c2.515 8.623-7.097 12.165-6.664 10.015.454-2.251.223-4.278-1.328-4.009-4.054.705-9.152 3.851-15.224-3.62l7.909-11.752c4.831-.663 13.509 3.2 15.307 9.366z" fill="#ffb700" stroke="#1f1a17" stroke-width="1.143"/><path d="M514.847 769.404c-.595 8.963-10.84 8.993-9.695 7.122 1.198-1.96 1.677-3.942.127-4.221-4.05-.73-9.917.478-13.059-8.623l11.46-8.326c4.766 1.035 11.593 7.638 11.167 14.048z" fill="#ffb700" stroke="#1f1a17" stroke-width="1.143"/><path d="M498.447 780.934c-3.633 8.215-13.266 4.73-11.549 3.365 1.797-1.43 2.926-3.128 1.567-3.922-3.555-2.074-9.48-2.952-9.31-12.579l13.62-3.89c4.123 2.607 8.27 11.151 5.672 17.026z" fill="#ffb700" stroke="#1f1a17" stroke-width="1.143"/><path d="M479.078 786.184c-6.231 6.47-14.084-.108-12.003-.8 2.178-.727 3.822-1.935 2.817-3.147-2.628-3.167-7.893-6.025-4.43-15.009 4.709.34 9.418.678 14.128 1.017 2.977 3.862 3.942 13.311-.512 17.939z" fill="#ffb700" stroke="#1f1a17" stroke-width="1.143"/><path d="M459.09 784.434c-8.071 3.94-13.193-4.931-11-4.869 2.296.065 4.254-.506 3.725-1.989-1.382-3.876-5.347-8.366.986-15.618l12.923 5.801c1.473 4.65-.862 13.856-6.633 16.675z" fill="#ffb700" stroke="#1f1a17" stroke-width="1.143"/><path d="M440.91 775.969c-8.933.933-10.7-9.157-8.662-8.347 2.134.849 4.169.984 4.18-.59.032-4.115-2.153-9.693 6.284-14.333l10.149 9.882c-.211 4.872-5.562 12.72-11.95 13.388z" fill="#ffb700" stroke="#1f1a17" stroke-width="1.143"/><path d="M426.743 761.769c-8.712-2.188-6.912-12.272-5.275-10.812 1.714 1.529 3.579 2.354 4.13.88 1.441-3.855 1.302-9.844 10.818-11.309l6.144 12.763c-1.87 4.505-9.587 10.041-15.817 8.478z" fill="#ffb700" stroke="#1f1a17" stroke-width="1.143"/><path d="M418.306 743.564c-7.433-5.043-2.283-13.899-1.247-11.965 1.086 2.024 2.555 3.438 3.578 2.242 2.676-3.126 4.6-8.8 14.04-6.912l1.394 14.096c-3.3 3.59-12.449 6.144-17.765 2.539z" fill="#ffb700" stroke="#1f1a17" stroke-width="1.143"/><path d="M416.624 723.574c-5.253-7.286 2.622-13.838 2.932-11.667.325 2.274 1.22 4.106 2.592 3.334 3.586-2.02 7.338-6.69 15.56-1.677l-3.526 13.718c-4.332 2.24-13.801 1.502-17.558-3.708z" fill="#ffb700" stroke="#1f1a17" stroke-width="1.143"/><path d="M421.9 704.22c-2.436-8.647 7.209-12.1 6.756-9.954-.474 2.247-.263 4.275 1.29 4.02 4.062-.667 9.188-3.766 15.191 3.76l-8.016 11.679c-4.838.618-13.48-3.323-15.221-9.506z" fill="#ffb700" stroke="#1f1a17" stroke-width="1.143"/><path d="M433.494 687.85c.678-8.958 10.922-8.894 9.76-7.033-1.216 1.948-1.713 3.926-.166 4.22 4.043.766 9.922-.388 12.98 8.742L444.53 702c-4.756-1.078-11.521-7.744-11.037-14.15z" fill="#ffb700" stroke="#1f1a17" stroke-width="1.143"/><path d="M449.998 676.434c3.709-8.181 13.31-4.608 11.58-3.258-1.81 1.412-2.956 3.1-1.603 3.906 3.535 2.107 9.453 3.04 9.193 12.664l-13.655 3.765c-4.098-2.644-8.167-11.226-5.515-17.077z" fill="#ffb700" stroke="#1f1a17" stroke-width="1.143"/><g stroke="#1f1a17" stroke-width="1.143"><path d="M474.265 769.139c22.132 0 40.095-17.963 40.095-40.096 0-22.133-17.963-40.256-40.095-40.256-22.294 0-40.257 18.123-40.257 40.256s17.963 40.096 40.257 40.096z" fill="#ffb700"/><path d="M474.265 764.489c19.566 0 35.444-15.878 35.444-35.445s-15.878-35.445-35.444-35.445c-19.728 0-35.445 15.878-35.445 35.445s15.717 35.445 35.445 35.445z" fill="#ffb700"/><path d="M471.699 705.934c-5.293-5.453-15.397-7.057-21.171-1.764m17.802 5.629c-5.132-4.811-12.83-4.17-18.444-.481" fill="none"/><path d="M471.057 715.434c-6.415-5.773-14.274-8.981-22.133-3.368-3.85 2.727 23.416 4.491 22.133 3.368z" fill="#ffb700"/><path d="M471.699 719.904c.32 1.603.801 3.207.48 4.972m-4.971 1.603c-.642 1.283-3.368 1.604-2.566 3.208 1.764 3.368 6.575 1.764 9.302 4.01.481.48-.802 2.245-.642 3.367m.642 2.245c-1.925-1.444-4.651-1.765-5.774-.802-2.566 2.406-5.613 3.207-8.66 3.047 4.971.32 9.462.802 13.792 1.123m-13.792-1.123c5.452.16 8.82 9.462 13.792 6.094m-9.943 8.341c3.207 3.047 7.538 4.01 11.708 3.368m1.931-53.423c5.452-5.293 15.557-6.415 21.17-.962m-17.97 4.962c5.292-4.65 12.99-3.849 18.444 0" fill="none"/><path d="M477.313 715.434c6.575-5.453 14.595-8.5 22.293-2.566 3.689 2.727-23.736 3.689-22.293 2.566z" fill="#ffb700"/><path d="M476.498 719.904c-.321 1.603-.802 3.207-.642 4.972m4.986 1.763c.642 1.443 3.208 1.764 2.406 3.368-1.924 3.368-6.575 1.604-9.302 3.689-.481.48.642 2.245.482 3.368m-.644 2.245c1.924-1.444 4.65-1.604 5.773-.642 2.406 2.406 5.453 3.368 8.661 3.368-5.133 0-9.623.481-13.953.642m13.952-.643c-5.613-.16-7.378 8.5-14.274 5.613m9.944 8.662c-3.367 3.047-7.698 3.689-11.868 3.047" fill="none"/></g><g transform="matrix(.42176 0 0 .42176 -34.245 278.953)"><use width="100%" height="100%" xlink:href="#b" stroke="#000" stroke-width="5.56"/><g id="b" fill="#ffbe29"><path d="M681.54 479.56l4.36-2.517 1.864 2.522c2.485 3.359 9.36 3.321 13.921-.078l3.488-2.598 2.921 2.598c3.84 3.417 11.012 3.422 15.591.012 3.206-2.388 3.653-2.436 5.773-.619 1.264 1.083 4.97 2.316 8.237 2.74 5.882.764 5.971.722 9.413-4.442 2.883-4.324 3.334-6.075 2.646-10.269-.456-2.78-.947-7.256-1.092-9.945-.26-4.87-.233-4.9 6.86-7.37 3.917-1.364 8.452-3.193 10.076-4.065 2.833-1.52 10.643-10.699 10.643-12.508 0-.48-3.05-1.214-6.78-1.632-14.833-1.664-17.345-9.629-7.702-24.423 15.725-24.128 25.215-47.625 25.278-62.593.029-6.69.41-8.937 1.27-7.482 3.513 5.946-2.782 30.877-12.317 48.78l-3.839 7.209 3.663-.844c2.015-.463 13.861-5.461 26.325-11.107 34.115-15.45 45.833-18.479 67.911-17.549 18.498.78 26.375 4.393 39.435 18.09 6.918 7.257 13.583 12.45 25.775 20.08 25.975 16.26 27.058 17.667 28.293 36.788 1.251 19.373.628 20.424-14.024 23.661-12.524 2.767-20.375 8.606-22.481 16.717-1.125 4.332 1.242 4.457 7.556.399l4.627-2.974 2.058 2.974c2.705 3.91 8.455 3.926 13.23.036l3.606-2.939 3.687 2.939c5.729 4.565 13.347 3.458 15.497-2.252.414-1.098 1.517-.746 3.75 1.195 4.186 3.637 14.914 5.197 16.072 2.337.443-1.09-.397-3.786-1.866-5.988-6.242-9.36-8.195-13.823-8.276-18.918-.113-7.087 2.001-10.505 10.06-16.268 9.792-7.001 12.817-16.033 5.372-16.033-4.598 0-9.232-4.064-12.187-10.686-6.008-13.461-4.83-28.552 4.186-53.657 9.159-25.5 10.175-30.202 10.211-47.256.03-13.79-.317-16.174-3.455-23.734-1.918-4.623-5.81-11.505-8.649-15.294l-5.161-6.89 6.627-5.49c20.234-16.764 16.095-44.199-8.263-54.77-7.452-3.233-9.314-3.519-22.372-3.431-7.834.053-19.78 1.083-26.546 2.29-6.899 1.232-18.575 2.221-26.585 2.254-12.725.05-14.885-.263-19.79-2.873-5.112-2.722-5.99-4.014-6.99-10.305-.206-1.293-1.11-2.583-2.01-2.867-1.738-.548-9.77 6.423-10.957 9.51-.586 1.524-1.063 1.418-2.781-.613-1.14-1.349-2.733-4.449-3.54-6.888-2.026-6.136.463-10.735 7.675-14.181l5.595-2.674-3.3-2.048c-6.808-4.225-18.385-1.334-22.572 5.635-1.184 1.972-2.476 3.588-2.87 3.593-.395.003-2.646-1.877-5.003-4.18-8.79-8.59-5.766-21.297 5.991-25.177 6.27-2.069 11.818-.49 12.972 3.69 1.763 6.383 7.241-2.007 6.259-9.584-.654-5.037-.556-5.212 2.93-5.212 4.847 0 15.165 6.362 18.356 11.32 3.706 5.756 3.437 14.822-.642 21.58l-3.203 5.305 4.19-.84c6.143-1.23 12.112-5.045 15.13-9.671 3.193-4.892 3.536-14.416.705-19.555-2.743-4.981-2.428-5.772 1.627-4.089 6.897 2.863 10.584 6.02 13.35 11.431 2.49 4.873 2.63 6.084 1.281 11.156-.832 3.13-2.683 7.246-4.113 9.149-2.228 2.962-2.304 3.459-.529 3.459 3.305 0 10.206-3.128 12.658-5.737 1.238-1.319 3.044-4.564 4.012-7.213l1.76-4.816 2.024 3.67c2.86 5.192 8.422 9.863 15.204 12.77 7.293 3.127 10.33 3.303 6.516.379-2.572-1.973-7.31-15.878-5.875-17.238.846-.8 10.747 6.818 22.053 16.968 10.695 9.6 17.415 12.746 27.238 12.746 12.548 0 19.854-10.923 14.214-21.251-3.288-6.022-10.613-6.858-14.896-1.701-1.97 2.371-2.51 4.257-1.933 6.745.707 3.047.431 3.453-2.345 3.453-3.647 0-10.837-4.667-23.606-15.321-19.471-16.248-43.13-30.02-60.214-35.05-10.963-3.229-34.383-4.489-45.528-2.45-12.062 2.207-26.33 9.11-34.101 16.5-13.772 13.093-13.991 30.517-.582 46.384l3.842 4.546-2.601 4.039c-3.783 5.877-3.46 13.785.803 19.61 1.878 2.566 3.772 4.664 4.209 4.662.437 0 .917-1.65 1.065-3.665.377-5.097 2.564-8.511 6.319-9.863 3.381-1.218 5.567-.643 21.05 5.537 16.29 6.502 43.078 6.949 71.562 1.194 13.964-2.821 30.43-2.655 37.674.38 13.279 5.563 16.357 20.036 6.595 31.022-4.225 4.756-8.3 6.692-21.983 10.448-10.412 2.857-12.878 3.047-36.543 2.81-20.218-.201-27.484.187-35.737 1.91-8.96 1.87-14.47 2.06-40.79 1.396l-30.43-.767 3.374 2.795c1.856 1.537 4.478 3.427 5.827 4.202 2.295 1.317 2.219 1.494-1.193 2.76-2.005.742-6.455 1.35-9.888 1.35h-6.244l-.84 5.306c-.462 2.919-.427 6.326.078 7.571.744 1.838.467 2.102-1.47 1.398-1.313-.477-4.97-1.416-8.126-2.086-3.157-.67-7.406-2.034-9.442-3.031-3.425-1.677-3.806-1.632-5.067.6-1.127 1.994-11.702 9.864-13.254 9.864-.25 0-.574-1.517-.719-3.372-.144-1.855-1.67-6.684-3.39-10.731-1.72-4.047-3.516-8.462-3.991-9.811-.717-2.035-1.042-2.14-1.906-.613-.573 1.012-1.41 3.77-1.859 6.132-.45 2.36-2.043 6.195-3.541 8.522l-2.724 4.23-1.738-3.617c-1.865-3.883-4.961-7.91-6.082-7.91-.379 0-1.023 1.243-1.432 2.76-.855 3.17-8.197 11.957-9.99 11.957-.66 0-1.201-2.483-1.201-5.518 0-3.035-.583-5.519-1.295-5.519s-1.295.785-1.295 1.745c0 2.334-6.27 9.292-8.374 9.292-.917 0-2.394.828-3.28 1.84-2.312 2.638-4.203 2.268-3.231-.633.455-1.36.16-4.532-.659-7.051l-1.932-5.958c-.309-.954-2.556-.7-7.312.824-7.685 2.464-10.26 2.028-6.309-1.068 1.445-1.131 3.643-5.051 4.884-8.71 1.241-3.66 3.073-6.906 4.07-7.215 1.396-.433 1.322.102-.324 2.327-1.175 1.589-2.14 3.732-2.144 4.762 0 1.03-.89 3.473-1.966 5.428-1.077 1.956-1.753 3.749-1.504 3.985.25.236 3.174-.875 6.498-2.468l6.044-2.898.025 2.592c.014 1.426.742 5.188 1.618 8.36l1.594 5.766 4.114-1.891c4.205-1.933 8.188-8.822 8.188-14.164 0-2.64 1.512-2.235 2.132.571.181.824 1.13 3.915 2.11 6.87l1.78 5.371 2.816-3.391c1.55-1.866 3.492-5.525 4.316-8.131 1.432-4.526 3.68-6.471 3.68-3.185 0 2.368 6.462 10.861 7.708 10.131.603-.353 1.803-3.54 2.667-7.083 1.796-7.369 4.695-12.38 6.537-11.302.692.405.962 1.192.599 1.748s1.125 5.347 3.307 10.646a4880.588 4880.588 0 014.87 11.856c.797 1.963 1.517 1.678 6.194-2.453 2.911-2.57 5.553-5.448 5.872-6.395.48-1.431 1.13-1.379 3.852.31 3.807 2.363 16.605 6.169 17.593 5.233.37-.351.75-3.712.844-7.47l.17-6.832 3.68.764c2.025.42 6.28.393 9.459-.058l5.778-.82-5.15-3.533c-2.832-1.943-5.695-4.458-6.363-5.588-.712-1.204-3.232-2.226-6.087-2.469-7.715-.655-21.388-8.324-21.388-11.996 0-.689 1.893.483 4.208 2.605 5.135 4.706 12.27 7.66 18.5 7.66h4.661l-2.884-3.835c-1.657-2.204-3.142-6.384-3.491-9.822-.556-5.481-1.135-6.353-6.858-10.331-3.438-2.39-7.696-5.972-9.462-7.96l-3.212-3.615-1.639 4.292c-.901 2.36-2.003 4.292-2.448 4.292-.445 0-2.177-1.38-3.85-3.066s-3.377-3.06-3.787-3.052c-.41.007-1.892 2.28-3.293 5.047l-2.547 5.034-1.968-2.901c-1.083-1.596-3.64-4.42-5.683-6.274-2.043-1.854-3.118-3.373-2.388-3.373s3.251 1.933 5.603 4.294l4.277 4.294 1.74-3.146c1.033-1.867 1.42-4.734.952-7.053-.682-3.38-.586-3.576.71-1.455.824 1.35 3.326 3.936 5.56 5.748l4.061 3.294 2.803-5.134c2.79-5.11 2.81-5.12 4.078-2.068 1.697 4.08 13.98 14.149 24.437 20.032 1.612.907.932-2.211-2.044-9.38-.789-1.9-1.433-5.323-1.433-7.608 0-3.39-.978-4.899-5.314-8.198-6.26-4.763-8.284-8.15-9.463-15.835-.478-3.113-1.573-6.575-2.434-7.694-1.278-1.66-1.489-.73-1.147 5.047.23 3.894-.276 8.736-1.126 10.759l-1.544 3.68-1.194-3.067c-.656-1.686-3.56-4.619-6.453-6.516-2.893-1.898-4.923-3.77-4.512-4.16.411-.389 3.387 1.34 6.613 3.844 4.915 3.814 5.998 4.227 6.678 2.547.8-1.973 0-10.562-1.546-16.563-.77-2.996-.703-2.98 2.993.716 2.727 2.726 4.235 5.978 5.403 11.65 1.484 7.207 2.232 8.407 8.896 14.258 4.002 3.514 7.484 6.191 7.739 5.95.255-.24.76-9.33 1.122-20.199.696-20.84-.09-25.8-5.11-32.239l-2.578-3.308 4.054-4.373c5.288-5.705 7.716-10.277 8.77-16.515l.857-5.075-4.576 4.333c-3.746 3.548-5.535 4.333-9.874 4.333-4.296 0-5.975-.72-8.87-3.805-3.474-3.702-9.63-7.264-15.55-8.997-2.186-.64-2.913-.362-2.913 1.118 0 1.084-1.208 4.213-2.684 6.953l-2.684 4.983-5.624-5.558c-3.45-3.41-7.543-6.064-10.589-6.865-7.78-2.046-8.202-1.843-8.202 3.954 0 8.793-3.754 10.431-10.511 4.587-5.15-4.455-9.423-5.424-19.191-4.35l-7.543.829 1.357 3.405c1.134 2.845.878 4.043-1.551 7.273-3.94 5.24-9.062 7.51-16.948 7.51-3.632 0-8.177.752-10.1 1.67-1.923.919-6.702 1.977-10.619 2.352-3.917.375-8.092 1.044-9.278 1.487-1.855.693-2.059.122-1.461-4.098.915-6.458-3.597-11.222-10.627-11.222-9.122 0-13.33 8.159-9.757 18.922.688 2.071 1.587 5.338 1.999 7.259.428 1.993 4.536 7.283 9.569 12.318 4.85 4.854 9.435 9.904 10.188 11.223.752 1.32 3.24 3.436 5.529 4.704l4.16 2.306-.548-4.452c-.603-4.893.463-5.66 3.066-2.208.93 1.235 3.295 3.23 5.253 4.434 3.085 1.896 3.561 1.935 3.561.288 0-1.045.63-3.454 1.398-5.353l1.397-3.452 2.426 4.697c1.333 2.583 5.67 8.455 9.639 13.048 7.698 8.912 12.389 18.87 9.968 21.163-.982.93-3.636.858-9.138-.248-4.264-.857-9.54-1.31-11.722-1.007-4.457.62-4.808.044-2.067-3.388 2.893-3.623 2.433-4.22-3.25-4.22-6.576 0-22.902-3.152-29.169-5.632-6.093-2.411-7.499-1.81-9.292 3.969-.808 2.6-2.286 7.314-3.285 10.474l-1.816 5.744 6.592-.635c3.626-.349 8.29-1.143 10.364-1.764 2.074-.621 3.96-.951 4.19-.734.23.218-.695 2.463-2.055 4.988l-2.472 4.593 4.11-.838c2.26-.461 5.662-1.589 7.559-2.506 3.3-1.596 3.564-1.48 6.167 2.697 3.2 5.138 5.761 4.927 6.33-.522.587-5.632 2.44-4.8 5.925 2.665 3.351 7.177 6.838 9.711 7.508 5.456.223-1.412 2.028-3.712 4.012-5.11 4.014-2.827 7.039-1.979 8.773 2.46 1.795 4.596-2.209 9.333-13.853 16.392-23.327 14.14-36.886 33.479-40.757 58.128-3.492 22.233 7.413 45.207 29.29 61.708 10.469 7.896 27.1 16.23 26.043 13.05-4.489-13.504-4.34-39.273.25-43.62.689-.653.452 2.036-.527 5.975-3.645 14.672-2.061 26.363 7.282 53.763 8.45 24.782 7.281 35.373-4.68 42.374-3.84 2.248-6.314 2.619-16.642 2.493-11.207-.136-12.428.09-16.026 2.957-3.488 2.78-8.01 11.906-8.01 16.165 0 2.307 2.561 2.002 7.596-.905z"/><path d="M863.45 479.06l4.701-3.021 3.19 3.021c4.18 3.958 9.076 3.87 13.094-.237 1.754-1.792 3.329-3.033 3.5-2.759.17.274.953 1.603 1.737 2.952.994 1.707 3.036 2.566 6.723 2.826 4.441.313 5.634-.117 7.399-2.668l2.104-3.04 4.627 2.974c12.67 8.142 19.42-.4 13.758-17.411-2.879-8.65-1.296-13.512 7.983-24.521 3.913-4.643 7.118-9.598 7.122-11.011 0-2.254-.724-2.556-5.932-2.453-4.983.1-6.44-.436-9.064-3.323-4.266-4.697-4.013-10.075.756-16.044l3.81-4.769-6.76-4.587c-3.717-2.523-10.421-8.492-14.898-13.265-10.054-10.719-19.94-15.802-32.975-16.955l-8.74-.773.012 6.616c.017 8.517 4.014 16.71 14.924 30.588 12.405 15.779 13.271 18.222 13.774 38.846l.425 17.442-3.59 3.406c-3.243 3.077-4.706 3.47-15.173 4.073-9.964.575-12.058 1.089-14.982 3.68-3.883 3.44-5.045 5.311-6.244 10.062-.699 2.77-.415 3.373 1.583 3.373 1.338 0 4.55-1.36 7.135-3.022zM598.836 428.6c0-2.205.985-2.793 5.831-3.481l5.832-.828-3.89-3.1c-4.62-3.682-5.047-6.558-.975-6.564 4.056 0 10.925-4.212 11.97-7.328.485-1.449.18-3.384-.691-4.377-2.274-2.595-6.549-2.204-7.343.672-.853 3.09-2.282 3.099-5.522.03-4.873-4.615-4.982-14.169-.226-19.732 2.242-2.621 2.222-2.793-.636-5.5-3.075-2.912-5.27-8.675-3.826-10.043.46-.435 2.889-.089 5.398.771 3.565 1.221 4.973 1.24 6.442.085 4.45-3.498-.371-7.995-7.507-7.003-2.872.4-4.058 0-4.47-1.49-.312-1.13-2.824-2.605-5.654-3.32-5.057-1.278-5.093-1.263-5.093 2.221 0 3.818-2.18 4.539-6.32 2.09-3.366-1.991-6.63-.446-6.63 3.138 0 3.343 3.363 4.992 9.39 4.604 4.621-.298 4.793 3.139.403 8.08l-3.156 3.552 2.5 3.593c3.704 5.32 3.392 14.158-.654 18.547l-3.172 3.44-2.081-2.759c-2.892-3.834-6.848-3.577-7.932.516-.71 2.68-.123 3.905 3.233 6.745 2.255 1.908 5.548 3.47 7.318 3.47 4.378 0 4.207 3.443-.345 6.922l-3.56 2.721 5.503.854c3.027.47 5.503 1.353 5.503 1.963 0 2.339 1.675 9.528 5.34 9.615 3.177.076 4.944-4.751 5.02-8.104z"/><path d="M668.48 402.92c5-1.97 15.821-11.134 15.821-13.398 0-.712-2.987-3.997-6.637-7.3-7.683-6.951-16.04-18.657-18.204-25.501-1.13-3.569-6.585-9.678-21.951-24.581l-20.448-19.832-5.894 1.493c-3.241.82-7.196 1.512-8.788 1.537-2.744.041-2.695.199.954 3.022l3.848 2.979 5.396-2.995c5.23-2.903 5.417-2.92 6.062-.585.378 1.368-.437 3.738-1.883 5.48-1.402 1.687-2.2 3.602-1.775 4.254.426.652-.921 2.016-2.993 3.03-3.84 1.881-6.505 8.071-3.474 8.071 2.726 0 8.737-7.417 8.044-9.925-.355-1.285-.183-2.606.381-2.937 2.342-1.37 2.195 4.453-.183 7.317-1.402 1.688-2.2 3.602-1.775 4.255.426.652-.921 2.016-2.993 3.03-3.815 1.869-6.506 8.071-3.503 8.071 2.944 0 8.857-7.087 8.125-9.739-.383-1.387-.235-2.792.33-3.123 1.576-.923 2.427 3.674 1.096 5.927-.713 1.206-.707 2.853.017 4.16 1.31 2.366-.019 6.91-2.432 8.323-1.035.605-.334 1.793 2.175 3.688 3.631 2.742 3.702 3.03 3.702 15.13 0 10.112.408 12.722 2.266 14.482 2.085 1.976 2.266 1.983 2.266.089 0-2.07 3.632-4.599 6.603-4.599.876 0 6.351 4.64 12.167 10.312 5.85 5.706 11.973 10.561 13.707 10.87 1.723.308 3.588.634 4.145.726.557.092 3.18-.687 5.828-1.73zM605.96 354c0-3.26-6.724-6.74-14.767-7.641-6.493-.729-6.6-.688-6.6 2.556 0 2.685 1.022 3.741 5.504 5.693 7.202 3.135 15.863 2.804 15.863-.608z"/><path d="M613.33 353.7c3.28-2.976 4.834-6.516 2.86-6.516-2.269 0-8.292 5.406-8.292 7.442 0 3.179 1.118 2.988 5.432-.926zm-6.99-9.64c.278-1.84-.86-3.067-4.27-4.607-7.355-3.322-16.15-4.86-18.268-3.196-3.9 3.067-1.301 7.183 5.003 7.924 2.538.298 5.98 1.072 7.648 1.72 4.846 1.882 9.454 1.024 9.887-1.841zm0-9.85c.396-2.624-1.282-3.563-14.978-8.383-10.225-3.6-14.752-1.902-11.484 4.305 1.138 2.163 3.049 3.15 7.334 3.792 3.187.478 7.543 1.41 9.68 2.074 5.707 1.772 9.005 1.148 9.448-1.788zm6.86-9.23c2.067-2.095 3.757-4.567 3.757-5.494 0-3.006-8.161 2.313-9.201 5.996-1.248 4.419.775 4.232 5.444-.502zm-6.86-.62c.45-2.989-4.52-5.688-14.294-7.762-7.171-1.522-10.334-.659-9.797 2.673.293 1.82 2.681 3.149 9.457 5.263 10.843 3.384 14.104 3.345 14.634-.174zm9.56-13.91c12.525-5.575 13.608-19.635 1.798-23.326-4.904-1.533-8.035-.707-9.912 2.615-1.437 2.543-.476 7.167 1.49 7.167.664 0 1.208.856 1.208 1.902 0 4.882-19.123 7.094-26.965 3.12-2.755-1.397-3.955-5.022-1.662-5.022 1.714 0 2.898-3.693 2.023-6.306-1.193-3.559-4.78-4.792-9.983-3.431-11.74 3.07-11.41 16.865.543 22.719 9.8 4.8 31.287 5.092 41.46.563z"/><path d="M608.11 299.64c.725-.687.41-1.742-.806-2.698-2.663-2.093-2.52-5.206.4-8.77 2.193-2.675 2.467-6.68 3.222-47.073 1.301-69.611 6.478-121.97 13.3-134.53 2.717-5.001 2.336-5.02-4.683-.245-9.042 6.152-15.926 14.163-22.026 25.63-11.516 21.652-15.518 50.78-15.518 112.96 0 35.306.24 39.925 2.251 43.244 1.91 3.152 2.012 4.316.67 7.683-.87 2.183-1.264 4.268-.877 4.635 2.571 2.435 21.302 1.79 24.067-.83zm105.23-66.38c.392-.601-.475-3.636-1.926-6.745-2.264-4.847-3.176-5.652-6.4-5.652-10.102 0-26.341-4.514-43.083-11.976-9.668-4.309-13.007-5.3-14.166-4.201-2.958 2.801 1.958 9.45 9.571 12.946 6.754 3.1 25.635 6.91 34.248 6.91 4.997 0 5.115.226 2.271 4.336l-2.091 3.023 5.652.145c3.11.08 7.4.566 9.538 1.081 5.549 1.337 5.6 1.338 6.387.133z"/><path d="M772.35 264.63c0-1.8-5.284-6.675-10.638-9.817-4.205-2.467-4.9-2.542-4.909-.53-.014 3.055-2.73 10.731-3.798 10.731-.601 0-1.49-1.5-1.977-3.333-.486-1.833-2.524-5.446-4.53-8.029l-3.645-4.695-2.84 4.35c-2.646 4.056-7.231 8.028-9.266 8.028-.486 0-.58-2.136-.211-4.747.402-2.836.092-5.086-.77-5.59-.794-.465-1.444-.303-1.444.36 0 1.528-6.367 8.75-7.714 8.75-.555 0-1.332-2.069-1.727-4.598-.394-2.53-1.065-6.53-1.49-8.891-.426-2.361.48-.76 2.014 3.557l2.789 7.85 3.058-4.784c1.681-2.631 3.06-5.506 3.064-6.39 0-.882.572-1.273 1.264-.869.691.405 1.654 3.568 2.139 7.029l.881 6.292 3.365-3.689c1.85-2.029 4.019-4.745 4.818-6.036 1.427-2.304 1.508-2.302 4.347.106 1.59 1.349 4.036 4.575 5.434 7.17 1.399 2.595 2.73 4.526 2.959 4.292.228-.234.74-2.909 1.138-5.944.398-3.035.753-5.631.79-5.769.197-.752 10.134 5.708 13.811 8.978 2.363 2.102 4.607 3.528 4.987 3.168.38-.36.691-3.461.691-6.892 0-5.317-.563-6.742-3.815-9.648-3.74-3.343-3.844-3.361-5.226-.916-1.793 3.173-3.908 3.219-3.908.084 0-2.287-7.066-11.08-8.904-11.08-.477 0-1.965 1.932-3.307 4.293-1.343 2.36-2.786 4.29-3.208 4.287-1.813-.011-11.774-11.117-11.77-13.122 0-1.594.672-1.187 2.418 1.476 1.327 2.024 3.978 5.045 5.89 6.713 3.874 3.379 5.282 2.557 6.776-3.953.426-1.855 1.166-3.373 1.645-3.373 1.656 0 10.327 9.21 11.547 12.264l1.224 3.066.928-3.373c1.134-4.124 2.385-4.277 4.195-.514.757 1.572 4.492 4.84 8.302 7.263l6.926 4.405 1.39-4.43c.764-2.437 1.777-3.837 2.25-3.112.706 1.081-1.094 8.423-2.453 10.002-.203.237-2.448-1.07-4.987-2.905l-4.617-3.335-.019 5.97c-.012 3.284-.369 7.213-.798 8.73-.84 2.968-3.069 3.803-3.069 1.15zm-34.53-47.6c-8.231-6.872-9.481-8.445-9.299-11.702l.194-3.467.537 3.349c.314 1.955 2.506 4.885 5.269 7.042l4.732 3.694 2.907-3.363c1.6-1.85 2.929-4.053 2.955-4.896.067-2.199.461-2.014 6.034 2.821 4.952 4.296 5.03 4.317 5.765 1.533.411-1.552.265-4.473-.323-6.492-1.618-5.55-1.301-6.388 1.15-3.04 1.222 1.667 3.186 4.025 4.365 5.238 2.052 2.113 2.177 2.087 2.941-.613.439-1.551.806-4.39.815-6.309l.019-3.488 4.464 5.06c4.17 4.728 4.554 4.902 5.827 2.65.75-1.326 1.372-4.517 1.383-7.09.014-3.325.364-4.164 1.21-2.898 1.412 2.114.431 7.87-2.176 12.775l-1.871 3.52-2.457-3.827c-3.142-4.893-4.188-4.814-6.204.466-1.905 4.99-3.144 5.37-5 1.533-1.202-2.483-1.43-2.179-2.283 3.037l-.948 5.797-11.357-8.814-2.553 2.903c-1.404 1.596-2.572 3.592-2.596 4.435-.051 1.827-1.417 1.884-3.5.146zm73.22-25.6c-2.996-2.7-5.06-5.275-4.587-5.723.474-.448 1.007-.577 1.185-.285.178.291 2.627 2.866 5.442 5.723 6.483 6.576 5.15 6.762-2.04.285zm-97.53-10.08c-2.725-3.685-2.537-6.127.78-10.121 2.398-2.886 3.493-3.278 7.68-2.746 2.684.34 8.463 2.713 12.84 5.272 5.056 2.955 10.285 4.935 14.335 5.427 3.507.426 6.376.587 6.376.357 0-.23-1.456-2.603-3.237-5.274-4.228-6.344-4.083-7.024.686-3.224 4.895 3.901 10.75 5.042 23.836 4.644l6.393-.194-3.71-3.666c-5.186-5.127-3.59-5.587 2.138-.616 5.373 4.663 5.036 4.991-6.271 6.12-4.805.48-9.972.132-14.267-.96-6.426-1.635-6.675-1.61-5.458.544.702 1.242 1.838 2.257 2.525 2.257.687 0 1.25.63 1.25 1.398 0 2.365-13.88.285-20.512-3.073-15.15-7.67-17.058-8.335-20.664-7.199-2.006.633-4.015 2.484-4.707 4.338-2.31 6.188 6.466 10.997 10.085 5.528 1.049-1.586.804-2.67-1.04-4.599-2.525-2.642-2.288-3.019 1.12-1.78 2.42.88 2.746 6.69.495 8.821-2.576 2.44-8.453 1.749-10.674-1.254z" fill="#000"/><path d="M773.19 166.07c-1.895-1.794-.41-2.234 8.085-2.392 10.508-.196 16.89-1.947 24.42-6.7 6.033-3.81 7.669-3.06 1.942.89-5.224 3.602-13.372 6.371-21.239 7.218-3.81.41-8.15.978-9.647 1.263-1.497.284-3.1.158-3.561-.279z" fill="#000"/></g></g></svg>