<svg xmlns="http://www.w3.org/2000/svg" width="282.413" height="294.14"><path d="M126.665 254.656c-51.946-7.557-91.842-52.279-91.842-106.32 0-59.34 48.104-107.444 107.444-107.444s107.444 48.104 107.444 107.444c0 55.078-41.442 100.476-94.845 106.714l-2.099-5.08-23.994-.265z" fill="#fff" stroke="#6b4025" stroke-width="1.27383"/><path d="M182.764 179.13c-.286-1.119.684-1.922 6.647-1.478 3.087 1.947 3.843 4.865 11.225 5.022h31.017c3.25-1.32 6.499-2.376 9.748-4.431l2.807 2.363c-5.56 3.64-10.58 10.246-16.838 10.044h-28.654c-5.623-2.617-10.685-7.48-15.952-11.52z" fill="#fff" stroke="#002e78" stroke-width="1.17"/><path d="M148.837 284.248c-1.18 3.675-4.631 6.344-8.692 6.344-3.696 0-6.871-2.212-8.295-5.381l-2.945.951c1.795 4.474 6.126 7.46 11.24 7.46 5.426 0 10.001-3.495 11.564-8.404z" fill="#6d4228" stroke="#6b4025" stroke-width="1.035" stroke-linejoin="bevel"/><path d="M154.866 255.05l-2.099-5.08-23.994-.265-2.108 4.951c-37.874-5.51-68.967-30.401-83.282-64.574 2.356 2.1 5.814 1.965 10.259-1.193 1.995 1.896 3.636 3.902 7.678 0 1.883 1.083 3.104 4.076 7.857 0 2.393 2.034 4.884 3.48 8.215 0 1.47 1.405 4.262 3.853 7.755 0 2.12 2.042 4.203 3.158 8.648 0 1.995 1.896 3.636 3.902 7.679 0 1.882 1.083 3.104 4.076 7.857 0 2.392 2.034 4.884 3.48 8.214 0 1.471 1.405 4.262 3.853 7.706 0 1.665 1.896 3.306 3.902 7.348 0 1.883 1.083 3.104 4.076 7.857 0 2.393 2.034 4.884 3.48 8.215 0 1.47 1.405 4.262 3.853 7.673 0 1.634 1.896 3.275 3.902 7.317 0 1.883 1.083 3.105 4.076 7.857 0 2.393 2.034 4.884 3.48 8.215 0 1.471 1.405 4.262 3.853 7.674 0 1.633 1.896 3.274 3.902 7.316 0 1.883 1.083 3.105 4.076 7.858 0 2.392 2.034 4.883 3.48 8.214 0 1.471 1.405 4.262 3.853 7.85 0 2.215 2.042 4.298 3.158 8.743 0 1.995 1.896 2.752 3.902 6.795 0 1.882 1.083 3.356 4.341 7.476.409-14.516 35.348-47.347 61.144-86.793 65.752z" fill="#9bc2ff" stroke="#002e78" stroke-width="1.27383"/><g stroke="#002e78"><g fill="none"><path d="M46.733 195.96c2.401 2.042 4.484 3.158 8.929 0 1.995 1.896 3.636 3.902 7.679 0 1.882 1.084 3.104 4.076 7.857 0 2.392 2.034 4.883 3.48 8.214 0 1.471 1.405 4.262 3.853 8.036 0"/><path d="M86.887 195.96c2.401 2.042 4.483 3.158 8.929 0 1.995 1.896 3.636 3.902 7.678 0 1.883 1.084 3.104 4.076 7.857 0 2.393 2.034 4.884 3.48 8.215 0 1.47 1.405 4.262 3.853 8.035 0"/><path d="M126.94 195.96c1.996 1.896 3.637 3.902 7.68 0 1.882 1.084 3.104 4.076 7.857 0 2.392 2.034 4.883 3.48 8.214 0 1.471 1.405 4.262 3.853 8.036 0"/><path d="M158.003 195.96c1.995 1.896 3.636 3.902 7.679 0 1.882 1.084 3.104 4.076 7.857 0 2.392 2.034 4.883 3.48 8.214 0 1.471 1.405 4.262 3.853 8.036 0"/><path d="M189.065 195.96c1.995 1.896 3.636 3.902 7.679 0 1.882 1.084 3.104 4.076 7.857 0 2.393 2.034 4.884 3.48 8.214 0 1.471 1.405 4.262 3.853 8.036 0"/></g><path d="M220.48 195.96c2.4 2.042 4.483 3.158 8.928 0 1.995 1.896 3.636 3.902 7.679 0" fill="none"/></g><g style="line-height:125%;-inkscape-font-specification:Adobe Heiti Std" font-size="12.363" font-weight="700" letter-spacing="0" word-spacing="0" fill="#002e78" font-family="Vani"><path d="M35.123 112.08l-.966 3.315c-1.044.318-1.882.59-2.513.819-.63.228-1.37.525-2.216.891l-.098.335 2.626.766a.805.805 0 00.396.026c.118-.026.234-.105.348-.24.055-.067.123-.179.206-.333.082-.154.147-.289.193-.403l.476.138-1.344 4.614-.476-.139.084-.481c.034-.2.047-.345.038-.435-.02-.174-.072-.301-.156-.383a.842.842 0 00-.358-.19l-6.1-1.778a.913.913 0 00-.386-.04c-.11.017-.227.1-.35.25-.09.114-.18.254-.268.42-.088.166-.155.298-.2.395l-.476-.139 1.413-4.85c.316-1.086.726-1.86 1.23-2.324.502-.464 1.097-.596 1.784-.396.605.177 1.041.492 1.308.947.266.454.4 1.067.4 1.839l1.524-.604c.578-.23 1.171-.473 1.779-.728.195-.08.44-.195.732-.345.293-.15.49-.302.591-.453.056-.085.115-.197.177-.335.063-.138.105-.238.127-.297zm-7.639 2.277c-.577-.168-1.045-.13-1.405.116-.36.246-.628.667-.802 1.264l-.14.482 3.62 1.054.135-.463c.174-.597.152-1.106-.064-1.526-.217-.42-.665-.73-1.343-.927zM31.834 102.2l-.175.449c-.364-.01-.764.061-1.2.214-.437.152-.738.355-.905.608a2.802 2.802 0 00-.243.474c-.088.209-.159.382-.213.52l-.474 1.218 3.241 1.263.337-.864c.084-.216.135-.424.153-.621a1.206 1.206 0 00-.107-.6c-.055-.126-.18-.28-.372-.462a3.068 3.068 0 00-.527-.413l.175-.45 3.502 1.364-.175.45a3.209 3.209 0 00-.695-.063c-.288 0-.496.024-.624.074-.193.075-.35.19-.473.347a2.303 2.303 0 00-.32.584l-.336.864 2.42.942c.252.098.46.157.622.178a.643.643 0 00.422-.078.917.917 0 00.305-.347c.09-.163.194-.392.309-.688.054-.138.116-.304.188-.499a4.87 4.87 0 00.162-.522c.045-.173.076-.34.092-.5a.733.733 0 00-.046-.388c-.12-.265-.331-.592-.635-.983s-.54-.663-.708-.814l.168-.432 2.552 1.178-3.066 7.872-.462-.18c.035-.113.078-.269.128-.467.05-.199.075-.344.074-.435-.005-.174-.046-.306-.122-.395a.842.842 0 00-.34-.22l-5.92-2.307a.892.892 0 00-.378-.072c-.11.007-.234.08-.373.216a2.286 2.286 0 00-.299.381c-.111.17-.192.3-.24.39l-.462-.18 2.899-7.44zM36.256 92.809c.457.222.804.508 1.04.856.238.35.379.739.423 1.17.046.446.01.912-.11 1.398a7.813 7.813 0 01-.579 1.55l-.322.662 2.276 1.11a.863.863 0 00.395.097c.125-.003.254-.061.385-.176.068-.061.16-.17.278-.324.118-.154.211-.288.28-.4l.445.217-2.139 4.388-.445-.217c.043-.116.098-.27.166-.463s.104-.333.11-.42c.01-.178-.016-.312-.08-.402a.86.86 0 00-.33-.25l-5.712-2.784a.895.895 0 00-.379-.1c-.119-.002-.248.058-.387.179a2.512 2.512 0 00-.33.365c-.122.16-.21.28-.264.362l-.445-.217 2.177-4.468c.51-1.046 1.058-1.746 1.643-2.101s1.22-.366 1.904-.032zm-.793 2.367c-.609-.297-1.12-.394-1.535-.293-.414.102-.775.467-1.08 1.094l-.231.474 3.554 1.733.117-.24c.304-.624.392-1.168.263-1.634-.128-.465-.491-.843-1.088-1.134zM40.683 81.882a6.64 6.64 0 00-.2.498c-.08.22-.115.426-.101.617.008.192.112.387.314.586.202.198.539.438 1.01.722l2.871 1.729c.845.508 1.352 1.204 1.522 2.087.17.883-.028 1.795-.596 2.738-.661 1.098-1.421 1.799-2.28 2.102-.86.303-1.733.187-2.621-.348l-3.948-2.377a.79.79 0 00-.37-.123c-.121-.006-.259.039-.414.133a1.696 1.696 0 00-.324.28c-.112.12-.2.22-.263.3l-.413-.248 2.436-4.047.413.25c-.063.12-.12.246-.172.377a2.966 2.966 0 00-.13.419c-.039.164-.022.3.051.408.073.108.173.2.3.277l3.894 2.344c.765.46 1.423.627 1.974.5.55-.128 1.02-.513 1.406-1.155.38-.63.485-1.241.317-1.831-.168-.59-.626-1.11-1.372-1.56l-2.616-1.575c-.464-.28-.83-.457-1.099-.532-.268-.075-.493-.078-.673-.008-.136.046-.307.166-.514.36a5.821 5.821 0 00-.415.421l-.425-.255 2.014-3.345zM49.65 77.041c.31-.108.628-.147.955-.117.327.03.644.158.951.383.369.27.623.577.763.919.14.341.178.711.111 1.109a4.436 4.436 0 01-.446 1.306c-.23.448-.543.944-.942 1.486l-2.768 3.771-.399-.293c.068-.113.15-.257.247-.433.097-.175.156-.305.176-.39.042-.164.038-.3-.012-.407a.831.831 0 00-.275-.307l-5.117-3.756a.914.914 0 00-.348-.17c-.11-.022-.247.016-.414.114-.122.073-.249.17-.38.288-.132.118-.245.224-.34.318l-.4-.293 2.897-3.946c.728-.992 1.39-1.609 1.987-1.848.596-.24 1.16-.165 1.692.226.245.18.425.388.538.623.113.236.17.496.172.78.003.26-.034.54-.112.84-.078.299-.184.604-.318.915l.097.072c.223-.246.484-.48.785-.7.3-.22.6-.383.9-.49zm-3.395.044c-.403-.295-.8-.412-1.192-.35-.391.061-.754.319-1.087.772a6.702 6.702 0 00-.178.26l-.184.277 2.691 1.976.196-.266c.405-.553.576-1.055.511-1.507-.065-.451-.317-.839-.757-1.162zm3.747 2.2c-.504-.37-1.002-.505-1.492-.402-.49.102-.941.435-1.354.997a17.628 17.628 0 00-.344.511l2.656 1.95c.149.062.325.045.53-.052.205-.096.39-.259.559-.487.298-.406.403-.836.317-1.29-.086-.455-.377-.864-.872-1.227zM57.532 69.697l2.062 2.03-5.444 6.26-.373-.325c.087-.12.186-.264.296-.432.11-.168.176-.285.198-.35a.59.59 0 00.022-.401.825.825 0 00-.249-.334l-4.794-4.17a.892.892 0 00-.331-.194c-.106-.03-.247-.005-.424.076-.131.06-.27.148-.419.264-.147.115-.264.208-.349.28l-.374-.324 3.245-3.732.374.325c-.08.11-.17.243-.274.397a2.8 2.8 0 00-.24.426c-.067.161-.074.3-.023.418a.917.917 0 00.245.323l4.47 3.886c.21.183.389.313.535.39a.571.571 0 00.414.066.967.967 0 00.42-.246 7.35 7.35 0 00.561-.592c.222-.256.423-.517.602-.785.18-.267.264-.498.253-.692-.02-.305-.105-.67-.252-1.098a9.341 9.341 0 00-.455-1.116zM63.546 67.79l-3.515 3.55-.352-.348.328-.385c.145-.17.234-.297.27-.38.065-.157.08-.291.047-.405a.817.817 0 00-.221-.34l-4.538-4.493a.84.84 0 00-.329-.21c-.117-.037-.256-.023-.417.043a2.874 2.874 0 00-.41.23 5.2 5.2 0 00-.427.3l-.352-.349 3.515-3.55.352.349c-.08.099-.18.224-.297.376-.117.152-.207.29-.27.412-.076.156-.093.295-.049.415a.917.917 0 00.224.338l4.534 4.489c.108.107.22.178.337.213.117.036.256.02.417-.047.09-.036.22-.114.39-.235.17-.12.307-.227.411-.32zM67.81 64.23a5.282 5.282 0 01-1.6.987 4.36 4.36 0 01-1.743.3 4.214 4.214 0 01-1.72-.45 5.031 5.031 0 01-1.55-1.208 5.07 5.07 0 01-1.012-1.695 4.603 4.603 0 01-.256-1.837c.04-.606.21-1.198.507-1.774a5.321 5.321 0 011.222-1.55c.374-.332.755-.588 1.142-.77.388-.18.738-.308 1.051-.382l.064-.522.414-.366 2.22 2.425-.418.37c-.902-.54-1.675-.84-2.32-.898a2.152 2.152 0 00-1.683.549c-.596.527-.818 1.19-.664 1.99.153.799.648 1.672 1.487 2.62.473.536.93.946 1.372 1.231.441.285.85.468 1.225.548.397.078.77.063 1.12-.046a2.68 2.68 0 00.982-.567 2.71 2.71 0 00.867-1.41c.134-.549.128-1.193-.018-1.933l.627-.115c.11.4.176.787.197 1.161.02.375-.014.742-.102 1.103a4.19 4.19 0 01-.468 1.142c-.216.366-.53.731-.942 1.096zM81.989 43.973c.59.115 1.147.35 1.67.706.521.356.974.848 1.358 1.476.342.56.573 1.15.695 1.77.12.62.115 1.221-.016 1.802a4.66 4.66 0 01-.77 1.686c-.373.518-.906.989-1.6 1.412a5.322 5.322 0 01-1.755.694c-.61.12-1.213.12-1.806.002a4.394 4.394 0 01-1.658-.705c-.52-.357-.965-.837-1.333-1.44-.384-.628-.625-1.264-.722-1.906a4.607 4.607 0 01.084-1.855c.153-.584.426-1.13.82-1.635a5.367 5.367 0 011.456-1.287 5.381 5.381 0 011.789-.706 4.666 4.666 0 011.788-.014zm1.966 6.349a4.786 4.786 0 00-.33-1.331 9.694 9.694 0 00-.752-1.475 10.224 10.224 0 00-.887-1.24 4.853 4.853 0 00-1.009-.926 2.496 2.496 0 00-1.1-.414c-.378-.042-.758.054-1.141.288-.654.399-.961 1.012-.922 1.839.038.826.403 1.805 1.094 2.935.293.48.607.911.941 1.292.334.381.678.682 1.031.903.359.222.718.346 1.076.373.358.026.72-.072 1.085-.295.357-.218.609-.496.755-.833.146-.337.2-.71.159-1.116zM92.504 40.132l-.437.218c-.267-.26-.627-.497-1.082-.713-.455-.215-.816-.278-1.083-.188a9.828 9.828 0 00-1.006.43l-1.255.626 1.576 3.165.801-.4c.228-.113.412-.236.553-.37.141-.135.243-.3.306-.497.048-.142.06-.345.04-.611a2.578 2.578 0 00-.123-.652l.432-.215 1.69 3.392-.433.215a2.43 2.43 0 00-.486-.535c-.224-.193-.391-.311-.503-.355a1.106 1.106 0 00-.555-.06c-.2.026-.419.098-.657.217l-.802.4 1.33 2.67c.069.136.152.24.251.31.1.072.236.102.41.09.1-.007.231-.032.391-.077.16-.044.316-.094.467-.15l.22.442-4.346 2.165-.22-.443.413-.266c.172-.111.286-.2.343-.266a.589.589 0 00.173-.363.825.825 0 00-.101-.404l-2.833-5.687a.849.849 0 00-.24-.303c-.095-.073-.233-.105-.413-.095-.128.007-.29.035-.483.084s-.337.09-.434.124l-.22-.443 7.243-3.609zM108.03 34.505l-.463.156a5.532 5.532 0 00-.993-.971c-.415-.325-.745-.464-.988-.418a8.44 8.44 0 00-.49.118c-.192.052-.356.1-.493.146l-.282.095 2.254 6.696a.934.934 0 00.207.356c.089.092.22.145.395.158.104.005.26-.006.467-.033a7.13 7.13 0 00.524-.086l.158.469-4.759 1.602-.158-.47.473-.215c.203-.093.338-.169.403-.226.135-.117.21-.239.226-.364a.92.92 0 00-.052-.412l-2.274-6.756-.283.096a8.234 8.234 0 00-.481.182 8.521 8.521 0 00-.461.202c-.222.11-.4.42-.534.93-.135.51-.203.968-.204 1.374l-.463.156-.823-2.442 8.272-2.785zM121.268 37.876l-4.738 1.12-.114-.482.442-.143c.194-.064.324-.12.39-.17.138-.099.224-.205.258-.32a.792.792 0 00-.005-.406l-.715-3.02-3.743.885.698 2.953c.033.14.093.258.18.355.085.097.207.16.366.187.086.015.228.018.427.01.198-.007.358-.022.479-.041l.114.482-4.738 1.12-.114-.482c.102-.028.25-.077.445-.147.194-.07.333-.132.415-.187a.549.549 0 00.251-.317.838.838 0 00-.004-.406l-1.467-6.202a.804.804 0 00-.164-.346c-.075-.087-.201-.148-.38-.185a2.588 2.588 0 00-.503-.034c-.204.003-.35.01-.438.023l-.114-.482 4.738-1.12.114.481a4.063 4.063 0 00-.443.17c-.17.075-.298.138-.386.19-.148.09-.233.201-.257.33-.024.13-.02.261.01.393l.62 2.619 3.744-.885-.605-2.558a.779.779 0 00-.167-.345c-.077-.087-.204-.148-.382-.184a2.46 2.46 0 00-.462-.037 4.024 4.024 0 00-.45.017l-.113-.481 4.737-1.121.114.482c-.13.04-.274.092-.432.158a3.324 3.324 0 00-.42.207c-.144.09-.23.2-.256.327a.906.906 0 00.01.396l1.468 6.208a.831.831 0 00.169.358c.078.09.203.152.376.185.109.018.26.021.456.01.195-.012.353-.027.475-.047zM129.144 30.024l-.477.066c-.17-.322-.426-.637-.772-.943-.346-.307-.67-.471-.973-.493a2.826 2.826 0 00-.532.02c-.225.024-.411.047-.558.067l-1.295.18.48 3.445.917-.127c.23-.032.436-.089.617-.17.181-.08.339-.209.472-.385.083-.11.157-.293.222-.55.065-.257.099-.478.103-.662l.478-.066.518 3.722-.478.066a3.207 3.207 0 00-.284-.637c-.14-.251-.263-.421-.369-.51a1.086 1.086 0 00-.534-.242 2.306 2.306 0 00-.665.006l-.918.128.357 2.571c.038.268.087.478.149.63a.641.641 0 00.273.33.917.917 0 00.453.098c.186 0 .436-.023.75-.066.147-.02.322-.047.527-.08.205-.033.383-.07.536-.113.173-.045.333-.1.48-.163a.734.734 0 00.317-.23c.173-.233.356-.578.549-1.034.193-.456.314-.795.365-1.015l.459-.064.216 2.802-8.368 1.164-.068-.49c.116-.025.273-.064.47-.117a1.94 1.94 0 00.416-.148c.15-.089.245-.189.285-.299.04-.11.05-.245.027-.404l-.875-6.294a.891.891 0 00-.12-.364c-.06-.092-.184-.166-.371-.22a2.286 2.286 0 00-.478-.075 5.832 5.832 0 00-.458-.02l-.068-.49 7.909-1.1zM150.417 36.23l-4.88-.09.008-.496c.144-.01.321-.028.531-.053.21-.026.354-.055.43-.088a.675.675 0 00.342-.254.788.788 0 00.11-.417l.124-6.727-3.244 7.857-.8-.015a13.56 13.56 0 00-.267-.837c-.142-.417-.258-.752-.346-1.003l-2.163-6.23-.102 5.477c-.01.524.018.924.082 1.198.065.274.174.476.329.606.104.09.291.179.563.264.271.086.462.136.572.15l-.01.496-3.871-.072.01-.495c.105-.011.278-.036.518-.076s.437-.114.591-.221c.172-.115.29-.313.354-.594.065-.28.102-.68.111-1.2l.084-4.462a1.946 1.946 0 00-.09-.678.957.957 0 00-.296-.434 1.294 1.294 0 00-.516-.264 3.858 3.858 0 00-.538-.086l.01-.495 4.144.077 2.11 5.988 1.962-4.794c.067-.177.132-.387.196-.632.064-.244.099-.404.104-.48l3.992.074-.009.495c-.135.006-.277.02-.426.043-.149.023-.29.054-.427.094-.166.052-.277.136-.332.254a.953.953 0 00-.086.392l-.12 6.378c-.002.152.022.28.073.385.051.105.158.197.322.276.084.04.222.079.414.116.191.037.34.063.446.078zM161.048 37.556l-4.87-.59.059-.492c.229.01.5.002.815-.026.315-.028.478-.09.49-.186a.881.881 0 00.004-.115.774.774 0 00-.033-.177l-.538-1.945-3.087-.374a18.18 18.18 0 00-.31.576c-.114.22-.214.417-.299.59-.108.226-.176.39-.203.493a1.88 1.88 0 00-.05.218c-.015.135.073.262.265.38.192.12.523.23.993.33l-.06.49-3.667-.444.06-.492c.139.008.298.005.477-.01.178-.013.322-.046.43-.097.185-.08.346-.186.483-.319.138-.132.259-.295.363-.487l1.896-3.37c.633-1.125 1.332-2.366 2.098-3.722l1.26.153a627.474 627.474 0 011.352 5.036c.324 1.233.602 2.256.836 3.069.04.132.095.255.167.368a1.355 1.355 0 00.714.538c.152.053.29.09.415.114zm-4.255-4.186l-.905-3.397-1.673 3.084zM171.238 39.756l-3.377-.722a52.573 52.573 0 00-.999-2.446 40.367 40.367 0 00-1.05-2.146l-.341-.073-.573 2.675a.806.806 0 00.003.397c.034.115.122.225.264.329.072.05.188.11.348.181.16.071.298.126.416.164l-.104.484-4.699-1.005.104-.484c.123.013.285.03.486.049.201.019.347.02.437.005.171-.032.295-.093.37-.183a.842.842 0 00.164-.371l1.329-6.214a.914.914 0 00.011-.387c-.024-.109-.115-.219-.273-.33a2.775 2.775 0 00-.44-.237 10.445 10.445 0 00-.407-.172l.103-.484 4.941 1.057c1.105.236 1.907.588 2.406 1.056.5.468.674 1.052.525 1.751-.132.617-.415 1.075-.849 1.374-.434.298-1.035.476-1.805.532.204.424.441.917.713 1.477.272.56.557 1.134.856 1.721.094.189.226.424.397.705.172.281.337.467.495.557.089.05.205.1.347.152.142.052.244.087.306.104zm-2.827-7.452c.126-.588.053-1.052-.218-1.394-.27-.341-.71-.577-1.319-.707l-.49-.105-.789 3.687.472.101c.608.13 1.114.072 1.518-.175.403-.247.679-.716.826-1.407zM174.787 41.164a5.606 5.606 0 01-1.414-.642 5.573 5.573 0 01-1.017-.812l-.549.298-.516-.157.866-3.14.523.159c.027.33.083.688.165 1.071.083.384.205.741.365 1.073.165.346.374.65.628.913.255.263.586.457.995.58.55.168 1.014.161 1.39-.02.374-.18.624-.474.748-.883a1.155 1.155 0 00-.116-.96c-.18-.305-.506-.62-.978-.944a238.9 238.9 0 01-.846-.588c-.258-.18-.497-.357-.719-.53-.509-.406-.839-.867-.99-1.382a2.685 2.685 0 01.014-1.567 2.35 2.35 0 01.513-.903c.24-.265.537-.48.891-.642.337-.15.737-.234 1.198-.253.461-.02.937.045 1.427.194.478.145.905.346 1.283.605.377.258.665.49.863.696l.481-.252.528.16-.843 2.955-.522-.159c-.026-.352-.07-.719-.134-1.098a4.404 4.404 0 00-.27-.981 2.467 2.467 0 00-.516-.77c-.217-.218-.5-.38-.848-.486-.437-.133-.832-.118-1.184.046a1.232 1.232 0 00-.695.79c-.104.345-.069.663.106.955.174.292.492.598.952.919.269.192.544.386.825.582.28.195.529.377.743.544.519.404.87.853 1.055 1.344.185.492.188 1.033.008 1.625-.113.372-.31.706-.589 1.002-.28.295-.602.513-.968.655-.401.156-.835.24-1.302.248-.467.009-.984-.073-1.551-.245zM189.518 46.378l-4.512-1.828.186-.459.444.139c.194.06.333.09.416.087.17 0 .3-.037.395-.111a.792.792 0 00.231-.335l1.166-2.876-3.565-1.445-1.14 2.812a.806.806 0 00-.06.394c.014.128.078.25.191.365.062.061.176.146.342.255.166.108.304.19.415.243l-.186.459-4.512-1.828.186-.46c.1.037.249.082.447.138.2.055.348.085.447.088a.549.549 0 00.389-.113.838.838 0 00.231-.334l2.393-5.907a.803.803 0 00.067-.377c-.01-.114-.078-.237-.202-.37a2.588 2.588 0 00-.392-.319 3.994 3.994 0 00-.37-.236l.186-.458 4.512 1.828-.185.459a4.048 4.048 0 00-.46-.118 4.127 4.127 0 00-.424-.069c-.173-.01-.307.03-.402.121a.945.945 0 00-.217.327l-1.011 2.494 3.565 1.445.987-2.436a.778.778 0 00.064-.378c-.012-.115-.081-.239-.206-.371a2.465 2.465 0 00-.355-.298 3.892 3.892 0 00-.377-.245l.186-.46 4.513 1.83-.186.458a4.742 4.742 0 00-.444-.122 3.329 3.329 0 00-.463-.074c-.17-.01-.302.03-.398.12a.908.908 0 00-.222.327l-2.395 5.913a.831.831 0 00-.07.39c.012.118.079.241.2.368.079.078.2.168.367.272.165.104.303.182.414.236zM198.975 51.326l-4.349-2.273.23-.438c.21.09.467.178.771.263.304.085.479.084.524-.002a.78.78 0 00.045-.105c.014-.04.024-.1.031-.177l.184-2.01-2.757-1.44a31.718 31.718 0 00-.981.877 3.247 3.247 0 00-.365.39c-.062.086-.103.148-.122.186-.063.12-.026.27.112.449.138.18.41.398.813.657l-.229.44-3.274-1.711.23-.44c.127.058.277.111.45.16.171.05.317.07.437.06.2-.009.389-.051.564-.127.176-.075.346-.184.511-.327l2.963-2.484c.99-.83 2.082-1.744 3.277-2.743l1.126.588c-.21 2.192-.38 3.922-.513 5.19a139.446 139.446 0 00-.3 3.166c-.01.138-.002.272.024.403a1.358 1.358 0 00.48.756c.123.102.238.187.347.253zm-2.504-5.42l.352-3.497-2.653 2.295zM207.724 53.505l-1.695 2.345-7.01-4.438.265-.418c.132.068.29.144.472.227.183.084.308.131.375.144.16.031.294.018.4-.04a.826.826 0 00.293-.295l3.399-5.369a.892.892 0 00.143-.356c.014-.109-.033-.245-.14-.408a2.165 2.165 0 00-.323-.374c-.136-.128-.246-.23-.33-.303l.265-.418 4.177 2.645-.264.419a15.237 15.237 0 00-.434-.211 2.8 2.8 0 00-.458-.173c-.169-.042-.307-.029-.416.04a.917.917 0 00-.282.291l-3.168 5.004c-.15.236-.251.432-.305.588a.572.572 0 00-.003.42c.05.126.152.252.306.377s.377.28.67.466c.286.181.575.34.867.477.291.137.532.186.722.146.298-.067.647-.205 1.048-.415.4-.21.746-.416 1.034-.619zM215.047 58.98l-1.875 2.206-6.639-4.975.297-.396c.126.078.277.166.453.264.175.097.296.154.362.172a.586.586 0 00.403-.008c.11-.05.215-.14.314-.272l3.81-5.085a.892.892 0 00.17-.344c.023-.108-.012-.247-.107-.418a2.162 2.162 0 00-.292-.398c-.126-.139-.228-.248-.306-.328l.297-.396 3.957 2.965-.297.396a15.352 15.352 0 00-.416-.244 2.8 2.8 0 00-.442-.209c-.165-.054-.305-.052-.418.008a.918.918 0 00-.304.268l-3.551 4.74a2.997 2.997 0 00-.35.562.57.57 0 00-.036.418c.04.13.132.264.275.4.144.137.354.31.632.518a7.9 7.9 0 00.826.543c.28.16.516.227.71.202.301-.043.66-.153 1.076-.33a9.34 9.34 0 001.08-.537zM224.47 71.757l-3.498-3.566.353-.346.38.333c.169.147.294.239.378.275.155.068.289.085.403.053a.816.816 0 00.343-.216l4.558-4.473c.103-.1.174-.21.214-.326.04-.116.028-.255-.036-.417a2.875 2.875 0 00-.223-.413 5.205 5.205 0 00-.295-.432l.354-.346 3.499 3.565-.354.347a22.926 22.926 0 00-.372-.302 2.638 2.638 0 00-.408-.275c-.155-.08-.293-.098-.414-.056a.916.916 0 00-.341.219l-4.554 4.468a.824.824 0 00-.218.335c-.037.116-.024.255.04.418.036.09.112.22.23.392.118.172.223.31.315.416zM227.354 75.357a5.606 5.606 0 01-.854-1.297 5.573 5.573 0 01-.426-1.23l-.623-.04-.353-.409 2.409-2.193.357.413a8.448 8.448 0 00-.432.995 4.763 4.763 0 00-.264 1.101c-.045.38-.03.75.044 1.108.074.358.251.698.531 1.022.377.435.772.676 1.185.724.414.048.782-.068 1.105-.348.266-.23.404-.521.415-.874.01-.353-.098-.793-.324-1.32-.146-.343-.28-.66-.401-.949-.122-.29-.23-.566-.325-.831-.214-.615-.247-1.181-.1-1.697.146-.516.43-.955.848-1.318.266-.23.571-.393.915-.49.345-.097.71-.119 1.097-.067.365.053.748.195 1.148.425.4.23.768.538 1.103.925.327.378.581.777.762 1.196.181.42.301.77.359 1.05l.541.043.362.418-2.29 2.049-.358-.413c.167-.312.324-.646.473-1 .149-.356.247-.68.295-.974.05-.318.042-.626-.025-.927-.067-.3-.22-.588-.458-.863-.299-.346-.64-.544-1.025-.594-.385-.05-.722.05-1.01.299a1.137 1.137 0 00-.42.863c-.008.34.097.768.315 1.285.125.306.254.616.387.932.133.316.246.601.339.857.222.62.28 1.186.174 1.7-.106.514-.393.974-.86 1.378a2.497 2.497 0 01-1.033.533c-.394.1-.784.113-1.168.037a3.742 3.742 0 01-1.234-.485c-.4-.242-.793-.587-1.181-1.034zM237.927 83.83l-2.428 1.575-4.934-6.67.398-.294c.099.111.218.239.358.383.14.143.24.233.298.269a.588.588 0 00.388.108.82.82 0 00.38-.17l5.108-3.78a.891.891 0 00.262-.28c.052-.096.058-.24.017-.43a2.163 2.163 0 00-.167-.466c-.08-.17-.146-.303-.198-.402l.398-.294 2.94 3.975-.398.295c-.09-.102-.2-.22-.328-.353a2.8 2.8 0 00-.364-.327c-.143-.1-.277-.138-.403-.113a.916.916 0 00-.368.17l-4.762 3.522c-.224.166-.39.312-.496.438a.571.571 0 00-.154.39c0 .137.05.29.149.463.098.172.25.397.457.676.201.272.413.525.635.758.222.233.43.365.622.397.301.045.677.042 1.126-.008.45-.051.846-.119 1.188-.204z" style="-inkscape-font-specification:Vani Bold"/><path d="M240.996 94.228l-2.58-4.173.42-.26c.135.185.311.392.53.62.218.228.368.317.451.266a.778.778 0 00.092-.068.792.792 0 00.118-.137l1.183-1.634-1.636-2.646c-.185.03-.4.07-.643.118-.244.049-.46.094-.648.136a3.254 3.254 0 00-.512.149 1.865 1.865 0 00-.201.098c-.115.071-.16.219-.132.444.027.224.148.551.363.98l-.42.26-1.944-3.142.421-.26c.08.114.183.237.306.367s.238.222.345.275c.178.094.361.154.55.179.19.024.392.017.607-.02l3.816-.625c1.274-.209 2.68-.437 4.218-.687l.668 1.08a627.982 627.982 0 01-3.09 4.201c-.76 1.023-1.385 1.88-1.873 2.57-.08.114-.14.234-.184.36a1.355 1.355 0 00.026.894c.054.151.11.283.17.395zm.612-5.938l2.087-2.828-3.453.62z" style="-inkscape-font-specification:Vani Bold"/><path d="M253.256 99.78c-.065-.1-.16-.242-.29-.424a1.33 1.33 0 00-.487-.424c-.172-.09-.396-.101-.674-.037-.277.065-.656.217-1.138.456l-5.762 2.867-.504-1.012 3.736-8.125-3.785 1.883c-.47.233-.812.442-1.025.626-.213.185-.342.375-.386.572-.032.143-.025.343.021.599.047.255.092.455.135.599l-.443.22-1.724-3.466.443-.22c.085.141.197.297.335.467.14.17.286.296.441.38.183.093.4.112.649.056.248-.055.634-.213 1.157-.473l3.82-1.9a1.81 1.81 0 00.493-.355 1.23 1.23 0 00.297-.492c.063-.196.089-.4.077-.608a3.196 3.196 0 00-.12-.675l.455-.226 1.51 3.035-3.262 7.124 3.052-1.518c.485-.241.83-.453 1.034-.635.205-.182.33-.372.373-.569.033-.153.027-.353-.019-.6a5.62 5.62 0 00-.132-.586l.443-.22 1.722 3.46zM256.294 108.805a4.092 4.092 0 01-.868 1.758c-.439.53-1.063.95-1.874 1.259-.711.272-1.385.367-2.02.286a4.021 4.021 0 01-1.726-.63 5.431 5.431 0 01-1.367-1.33 7.69 7.69 0 01-.969-1.8l-1.618-4.24.462-.177c.053.125.125.279.217.461s.164.3.216.352a.61.61 0 00.353.205.799.799 0 00.397-.056l5.966-2.277a.902.902 0 00.335-.216c.089-.093.139-.228.148-.404a1.878 1.878 0 00-.045-.529 8.463 8.463 0 00-.101-.407l.462-.176 1.71 4.477c.182.479.316 1.014.402 1.606a5.1 5.1 0 01-.08 1.838zm-6.493 1.092c.39.073.82.071 1.291-.007s.991-.225 1.56-.442a6.514 6.514 0 001.457-.76c.413-.294.738-.617.975-.97s.379-.735.426-1.144a2.663 2.663 0 00-.178-1.268 15.22 15.22 0 00-.189-.468 40.673 40.673 0 00-.165-.388l-6.387 2.437c-.142.055-.26.121-.355.2a.74.74 0 00-.214.303 1.01 1.01 0 00-.065.409c.005.15.048.331.13.545.17.446.4.798.688 1.055.288.257.63.423 1.026.498zM250.442 117.968a5.606 5.606 0 01-.228-1.536c-.001-.495.043-.926.13-1.295l-.547-.299-.148-.519 3.108-.975.15.525a8.45 8.45 0 00-.81.72 4.763 4.763 0 00-.704.889 3.41 3.41 0 00-.427 1.023c-.083.356-.065.74.052 1.15.158.554.415.94.77 1.157.355.217.738.267 1.149.15.337-.097.585-.303.744-.62.158-.315.245-.76.262-1.332l.035-1.03c.012-.314.03-.61.056-.89.065-.65.273-1.176.623-1.582.35-.407.792-.686 1.325-.838a2.35 2.35 0 011.037-.06c.353.058.694.192 1.022.401.309.203.596.492.863.87.266.377.47.811.61 1.304.138.48.2.948.188 1.405a5.653 5.653 0 01-.117 1.103l.473.268.152.53-2.94.894-.15-.524c.282-.213.566-.45.85-.71.285-.259.51-.512.678-.758.179-.266.301-.55.367-.85.066-.301.049-.626-.051-.976-.126-.44-.353-.763-.68-.97a1.232 1.232 0 00-1.042-.155c-.346.099-.594.3-.744.606-.15.304-.236.737-.256 1.298-.016.33-.03.666-.042 1.008-.012.343-.03.65-.053.92-.06.655-.245 1.194-.558 1.616-.313.421-.766.717-1.36.887a2.492 2.492 0 01-1.162.048 2.621 2.621 0 01-1.075-.458 3.742 3.742 0 01-.915-.96c-.26-.387-.472-.866-.635-1.435z" style="-inkscape-font-specification:Vani Bold"/></g><g style="text-align:start" font-size="13.199" font-weight="400" font-family="Calibri" fill="#002e78"><path d="M57.144 220.331l1.631 1.627-5.118 5.13c-.67.672-1.243 1.129-1.721 1.372a3.096 3.096 0 01-1.996.276c-.702-.13-1.393-.535-2.075-1.215-.8-.798-1.192-1.636-1.177-2.514.016-.878.454-1.752 1.314-2.622l1.72 1.362c-.446.483-.705.88-.778 1.188-.114.468.01.882.371 1.242.365.364.727.518 1.086.46.359-.057.866-.414 1.52-1.07z" style="-inkscape-font-specification:Helvetica" font-weight="700" font-family="Helvetica"/><path d="M52.809 232.05l6.525-7.606 5.64 4.839-1.104 1.286-4.104-3.52-1.447 1.686 3.82 3.276-1.1 1.281-3.819-3.276-1.776 2.07 4.25 3.646-1.1 1.281zM60.326 238.374l5.928-8.08 2.618 1.92c.992.728 1.61 1.243 1.852 1.545.374.46.568 1.009.582 1.644.015.635-.214 1.274-.686 1.917-.364.496-.76.848-1.188 1.053a2.748 2.748 0 01-1.27.293 2.933 2.933 0 01-1.127-.237c-.446-.209-1.039-.584-1.777-1.126l-1.064-.78-2.236 3.048zm6.557-5.517l-1.682 2.293.893.655c.643.472 1.104.745 1.382.82.28.074.546.067.801-.023.256-.09.47-.254.646-.493.216-.294.307-.6.275-.917a1.4 1.4 0 00-.393-.84c-.168-.18-.546-.485-1.134-.916zM89.76 258.102l4.15-9.122 1.841.838-4.15 9.122zM94.985 260.753l3.521-9.295 1.892.717-2.923 7.716 4.705 1.783-.598 1.579zM80.767 252.804l5.272-8.523 2.762 1.708c1.046.648 1.702 1.112 1.967 1.394.409.43.646.961.71 1.593.065.632-.113 1.287-.532 1.966-.324.523-.69.904-1.101 1.143-.41.24-.825.37-1.244.392-.418.023-.799-.026-1.142-.148-.461-.172-1.081-.5-1.86-.982l-1.122-.694-1.989 3.215zm6.101-6.017l-1.496 2.419.942.582c.678.42 1.16.656 1.443.708.284.053.55.024.797-.086.247-.11.448-.29.604-.542.192-.31.26-.622.202-.936a1.4 1.4 0 00-.458-.806c-.181-.166-.582-.44-1.202-.824zM104.133 264.371l2.489-9.707 1.96.503-2.49 9.707zM109.424 266.202l1.8-9.858 1.937.354 2.833 7.32 1.202-6.583 1.85.338-1.801 9.858-1.998-.365-2.8-7.154-1.174 6.428zM132.174 264.718l-.181-10.02 2.023-.036.08 4.45 4.007-4.524 2.72-.049-3.702 3.97 4.088 6.046-2.618.047-2.839-4.652-1.61 1.704.055 3.028zM142.516 264.551l.15-10.02 7.43.11-.025 1.696-5.407-.08-.033 2.22 5.03.076-.025 1.688-5.03-.075-.041 2.727 5.598.084-.025 1.688zM164.298 268.223l-2.035-9.813 7.276-1.508.344 1.66-5.294 1.097.45 2.176 4.927-1.022.343 1.654-4.926 1.021.553 2.67 5.482-1.136.343 1.654zM174.306 255.67l1.942-.545 1.715 6.107c.224.799.326 1.433.307 1.902a2.71 2.71 0 01-.647 1.641c-.4.48-1.006.833-1.818 1.061-.952.267-1.76.207-2.423-.182-.663-.39-1.141-1.099-1.435-2.128l1.777-.727c.177.547.368.915.572 1.103.309.287.677.371 1.107.25.434-.122.707-.332.817-.63.11-.299.056-.838-.164-1.62zM178.957 253.878l1.903-.686 1.843 5.105c.292.81.505 1.327.639 1.55.22.356.526.596.917.719.39.123.852.089 1.384-.103.54-.195.907-.453 1.102-.772.194-.32.262-.65.201-.992-.06-.342-.225-.886-.494-1.632l-1.882-5.214 1.903-.687 1.787 4.95c.409 1.133.646 1.95.712 2.455.065.504.018.967-.143 1.388-.16.422-.437.811-.831 1.17-.395.357-.965.67-1.71.94-.9.325-1.62.467-2.161.427-.54-.04-1.005-.178-1.395-.412a2.761 2.761 0 01-.91-.853c-.32-.495-.67-1.27-1.05-2.324zM193.036 258.527l-4.16-9.117 1.84-.84 1.848 4.048 1.872-5.745 2.475-1.13-1.813 5.118 6.16 3.914-2.382 1.087-4.459-3.135-.797 2.205 1.257 2.755zM210.846 249.458l-1.92 1.075-1.876-1.56-3.496 1.956.39 2.39-1.874 1.049-1.486-10.652 1.868-1.045zm-5.187-1.641l-3.02-2.571.634 3.906zM219.649 243.032l-1.827 1.228-1.996-1.4-3.324 2.235.584 2.35-1.781 1.198-2.354-10.494 1.775-1.194zm-5.304-1.211l-3.221-2.315.952 3.84zM221.252 240.996L215 233.165l1.538-1.229 7.381 2.67-4.176-5.23 1.469-1.172 6.254 7.83-1.587 1.268-7.235-2.586 4.078 5.107zM73.156 248.046l5.219-8.46 1.722 1.063-4.332 7.022 4.282 2.642-.887 1.437zM69.433 244.83l5.694-8.247 1.665 1.15-5.694 8.247z" font-size="11.554" letter-spacing=".388"/></g><path d="M91.38 193.641L79.512 210.31l114.4-16.642 11.617 17.172z" fill="#fff" stroke="#002e78"/><path d="M102.871 225.927h78.287l-54.8-34.598h30.809z" fill="#fff" stroke="#002e78"/><path d="M180.4 225.853l-89.25-31.885M104.456 225.877l89.694-32.36M79.92 209.826l76.415-18.17M204.896 210.208l-78.108-18.522" fill="none" stroke="#002e78"/><path d="M141.97 42.813l-1.312 18.468-4.532-11.968 2.032 12.656-7.532-10.407 5.25 11.72-9.937-8.094 8.094 9.937-11.688-5.25 10.375 7.5-12.656-2.031 12 4.562-18.656 1.313 18.656 1.312-12 4.563 12.656-2.031-10.375 7.5 11.688-5.25-8.094 9.937 9.937-8.094-5.25 11.688 7.532-10.375-2.032 12.656 4.532-12 1.312 18.281 1.313-18.281 4.562 12-2.031-12.656 7.5 10.375-5.25-11.688L158 87.25l-8.062-9.938 11.687 5.25-10.406-7.5 12.656 2.032-11.968-4.563 19.218-1.312-19.218-1.313 11.968-4.562-12.656 2.031 10.406-7.5-11.687 5.25L158 55.187l-9.937 8.094 5.25-11.718-7.5 10.406 2.031-12.657-4.562 11.97-1.313-18.47zm.313 22.312c3.315 0 6 2.685 6 6s-2.685 6-6 6c-3.316 0-6-2.685-6-6s2.684-6 6-6z" fill="#6b4025" fill-rule="evenodd"/><g stroke="#002e78" fill="none" stroke-width="13.225"><path d="M-63.607 621.424L1081.17 211.436l-75.69-21.7L-63.607 609.904z" transform="matrix(.04726 0 0 .121 154.922 36.428)"/><path d="M-63.607 615.664l1065.863-427.56-82.903-20.29-982.96 442.09z" transform="matrix(.04726 0 0 .121 154.922 36.428)"/></g><g stroke="#6b4025" stroke-width="1.497"><g fill="none"><path d="M148.497 115.776c.236-2.598.452-3.629 4.189-3.57 3.737.057 2.157 1.962 4.79 2.072 1.552.065 4.291.118 5.161-.17 1.433-.475 4.097-2.882 6.365-2.686h61.257c-1.037.982-4.549 6.764-7.826 7.052h-13.492 5.397c-1.979 2.429-3.743 7.434-5.937 7.286H195.18h4.318c-2.07 2.338-3.513 7.179-6.207 7.016h-15.65 3.777c-2.38 1.794-4.232 5.66-7.016 5.397H160.37h7.015c-2.248 2.068-2.327 5.002-7.032 5.061-4.705.059-2.935-2.305-5.931-2.404-2.44-.08-2.957.025-6.242-.052z" stroke-width="1.59957444"/><path d="M208.216 111.402c-.348.345-7.357 7.623-9.54 7.441h-11.544 4.865c-2.294 3.164-4.255 8.108-7.25 7.537h-9.636 3.434c-2.434 2.393-5.041 7.03-7.25 6.488h-4.77M184.842 111.402c-3.207 2.45-5.958 7.859-9.636 7.25h-16.79 13.547c-2.117 2.534-3.585 7.442-6.392 7.442h-9.445 8.204c-2.635 2.587-5.416 6.926-7.823 6.774h-8.3" stroke-width="1.59957444"/></g><g fill="none"><path d="M136.037 115.776c-.236-2.598-.452-3.629-4.189-3.57-3.737.057-2.157 1.962-4.79 2.072-1.552.065-4.291.118-5.161-.17-1.433-.475-4.097-2.882-6.365-2.686H54.275c1.037.982 4.549 6.764 7.826 7.052h13.492-5.397c1.979 2.429 3.743 7.434 5.937 7.286h13.222-4.318c2.07 2.338 3.513 7.179 6.207 7.016h15.65-3.777c2.38 1.794 4.232 5.66 7.016 5.397h14.031-7.015c2.248 2.068 2.327 5.002 7.032 5.061 4.705.059 2.935-2.305 5.931-2.404 2.44-.08 2.957.025 6.242-.052z" stroke-width="1.59957444"/><path d="M76.318 111.402c.348.345 7.357 7.623 9.54 7.441h11.544-4.865c2.294 3.164 4.255 8.108 7.25 7.537h9.636-3.434c2.434 2.393 5.041 7.03 7.25 6.488h4.77M99.692 111.402c3.207 2.45 5.958 7.859 9.636 7.25h16.79-13.547c2.117 2.534 3.585 7.442 6.392 7.442h9.445-8.204c2.635 2.587 5.416 6.926 7.823 6.774h8.3" stroke-width="1.59957444"/></g><path d="M141.48 100.395c5.237-.174 6.042 2.458 5.937 5.666v6.274c-.052 3.72 3.778 7.478 3.778 10.996v13.492c.064 5.193-2.247 3.539-2.564 11.064v22.667c-.75 5.135-2.399 7.816-5.127 7.555h-3.912c-5.284-.356-5.26-4.744-5.397-9.714v-21.587c-.05-2.736-1.843-5.785-1.889-8.905-.025-1.68 0-14.032 0-14.032-.41-3.97 3.732-5.162 4.857-12.413l-.27-6.206c.056-3.006 1.474-4.73 4.588-4.857z" fill="#fff" stroke-width="1.59957444"/><path d="M143.774 172.712l-1.754-4.047c1.929-3.95 1.011-4.106.945-5.397l-4.318 3.103c.7-2.608.073-5.217 2.699-7.825l-1.89-2.294c1.583-2.33 2.025-5.801 2.564-9.175l1.754-4.452-3.912.944.81-8.095 4.586-1.349c-1.133 3.403-.008 5.11.135 7.556-2.515-3.085-4.565-3.849-6.746-5.262l4.588-3.913-.135-5.127-2.969-1.62 5.397 2.97c.385-3.937-.91-7.313-1.484-10.93l.27 3.913-5.667-.405 1.08-3.777 4.317.404.135.27M136.354 115.64c2.715 3.144 12.964 1.113 12.008-.269" fill="none" stroke-width="1.59957444"/></g><path d="M193.99 170.12c1.543 3.893 4.246 5.854 6.941 7.827M208.169 175.88c-4.631-3.64-8.65-7.894-10.93-13.884M203.885 153.43c-.764 1.57 12.343 21.612 12.998 21.12M227.37 173.516c-6.823-9.354-13.408-18.708-17.134-28.063M217.917 137.034c3.869 12.915 12.587 24.536 22.303 35.892M205.51 147.521l-.443-10.782h1.182l.295 9.01-1.33 1.034.296-.591" fill="none" stroke="#002e78" stroke-width="1.17"/><path d="M206.249 140.432l5.169-.148-1.182 1.625-3.692.147zM215.997 175.88h-3.545v6.942h4.283v-6.942zM167.02 181.903l7.52.626 9.19-8.981-.626-5.014-5.222 3.343h-9.4l-2.715 4.386 8.773.209-1.462 3.969z" fill="none" stroke="#002e78" stroke-width="1.17"/><path d="M183.94 170.832c2.744-3.744 2.156-5.92 1.67-8.146 3.781.22 2.308-2.561 2.507-4.387-2.72-.982-5.121-1.407-5.64 1.463l-.835 2.924c-5.11 2.555-5.695 5.676-6.475 8.773l3.133.418 4.804-3.343z" fill="none" stroke="#002e78" stroke-width="1.17"/><path d="M218.212 135.853c-8.893 13.424-23.46 20.49-24.075 43.867-4.73-21.236 14.296-32.48 23.189-46.969z" fill="#fff" stroke="#002e78" stroke-width="1.17"/><path d="M193.916 179.47c12.142-8.318 31.09-5.748 46.599-8.455l.443 3.692c-16.315.736-33.68.706-47.042 4.763z" fill="#fff" stroke="#002e78" stroke-width="1.17"/><path d="M101.1 98.615c3.197-2.945-6.36-6.046-15.178-13.393-3.713-3.094-15.264-4.746-16.786-.715-2.116 5.606 5.36 11.439 8.572 11.43 6.951-.022 19.694 6.085 23.393 2.678z" fill="none" stroke="#002e78" stroke-width="1.4"/><path d="M94.537 231.169h26.517v14.9H99.588l5.556-6.061zM186.966 231.169h-28.079v14.9h23.029l-5.556-6.061z" fill="#fff" stroke="#002e78" stroke-width="1.3"/><path d="M116.003 228.643h47.982v14.648h-48.234z" fill="#fff" stroke="#002e78" stroke-width="1.3"/><g style="line-height:125%;-inkscape-font-specification:Adobe Heiti Std" font-size="13.596" font-weight="700" letter-spacing="0" word-spacing="0" fill="#582709" fill-opacity=".886" font-family="Arial"><path d="M122.52 237.246l1.911-.186c.116.642.349 1.113.7 1.414.353.301.827.452 1.425.452.633 0 1.11-.134 1.43-.402.321-.268.482-.58.482-.94a.886.886 0 00-.203-.587c-.135-.161-.37-.302-.707-.421-.23-.08-.754-.222-1.573-.425-1.053-.261-1.792-.582-2.217-.963-.598-.535-.897-1.188-.897-1.958 0-.496.141-.96.422-1.391.281-.432.686-.76 1.215-.986.529-.226 1.167-.338 1.915-.338 1.222 0 2.141.267 2.758.803.618.535.942 1.25.973 2.144l-1.965.086c-.084-.5-.265-.86-.541-1.078-.277-.22-.692-.329-1.245-.329-.57 0-1.018.117-1.34.352a.709.709 0 00-.313.604c0 .23.098.427.292.59.248.209.85.426 1.806.651.956.226 1.663.46 2.12.7.459.242.817.572 1.076.99.26.418.389.935.389 1.55 0 .558-.155 1.08-.465 1.567-.31.486-.748.848-1.314 1.085-.567.237-1.273.355-2.118.355-1.23 0-2.175-.284-2.835-.853-.66-.569-1.053-1.397-1.181-2.486zM132.099 240.413v-9.732h7.216v1.646h-5.251v2.157h4.886v1.64h-4.886v2.649h5.437v1.64zM149.956 240.413h-2.137l-.85-2.211h-3.89l-.803 2.21h-2.085l3.79-9.731h2.079zm-3.617-3.85l-1.341-3.612-1.315 3.611zM151.058 240.413v-9.653h1.965v8.013h4.886v1.64z" style="-inkscape-font-specification:Arial Bold"/></g><path d="M41.504 183.565c-1.363-.232 23.197-3.121 30.179-2.399 8.184.86 9.953 2.82 27.905 3.662l8.081.379c3.183.149 7.584 3.746 7.198 5.682" fill="none" stroke="#002e78"/><g stroke="#002e78" fill="none"><path d="M77.609 184.97l-9.596-.757v-20.96l-1.01-2.779-4.041-1.263-1.263 25.507 2.778.252M61.995 177.425l5.987-2.245M62.426 172.18l5.35-1.826M62.518 167.604l5.316-1.809M67.36 162.002l-4.65 1.875M58.164 159.464l-.506 5.303-.505 5.556-3.535 2.273-.253-14.395 5.304-2.525 1.515 2.778-.253-.505M67.507 143.554l4.041-6.818 19.95 8.838-3.535 2.273-7.071-3.788-3.03.253-2.526-2.02-2.525.505-2.273 1.262zM70.033 151.635l6.818-5.808 14.142 9.849-4.798.505-3.03-1.768h-3.03l-2.779-3.283 1.263 2.02-4.293-.504-2.02-1.516z"/><path d="M67.002 147.09l6.566-4.293 3.03 2.272-3.787 2.02-3.03-1.515zM65.487 147.847l7.576 5.304-2.273 3.535-3.535-.252 2.02-4.799-4.798 2.273-2.273-.505 1.515-4.546z"/><path d="M68.77 155.676l7.576 2.778.253 13.89-5.303-3.031 1.01-4.798-1.01-4.546-1.768-2.02M62.204 150.12l-4.04 1.515-1.516-2.02.253 2.273-2.778.505-2.273-.505-.252 2.02-2.273 3.536-9.344-.505 14.647-10.86 6.06.506-1.262.505M61.447 142.039l-3.789 2.02-2.02-3.03-3.788 4.04-3.788-1.515-5.303 4.546-4.293-1.768 18.182-8.839zM66.75 146.332l-1.768-6.313-.505 2.525-3.03.758-.506 2.525 4.546.505.758-1.515M64.477 153.908l-4.293 3.283v4.798l2.525-1.515v-2.778l2.273-.252-1.263-1.515 3.283-.758z"/><path d="M63.214 156.434l4.293 3.535H64.73l4.04.505.758-3.03 1.768-3.788-6.314 1.515M61.194 145.574l.253 7.072 6.818-1.516-5.303-3.03 3.535-1.768zM61.995 180.96l2.956-.982"/><path d="M77.609 184.97l-9.596-.757v-20.96l-1.01-2.779-4.041-1.263-1.263 25.507 2.778.252M61.995 177.425l5.987-2.245M62.426 172.18l5.35-1.826M62.518 167.604l5.316-1.809M67.36 162.002l-4.65 1.875M58.164 159.464l-.506 5.303-.505 5.556-3.535 2.273-.253-14.395 5.304-2.525 1.515 2.778-.253-.505M67.507 143.554l4.041-6.818 19.95 8.838-3.535 2.273-7.071-3.788-3.03.253-2.526-2.02-2.525.505-2.273 1.262zM70.033 151.635l6.818-5.808 14.142 9.849-4.798.505-3.03-1.768h-3.03l-2.779-3.283 1.263 2.02-4.293-.504-2.02-1.516z"/><path d="M67.002 147.09l6.566-4.293 3.03 2.272-3.787 2.02-3.03-1.515zM65.487 147.847l7.576 5.304-2.273 3.535-3.535-.252 2.02-4.799-4.798 2.273-2.273-.505 1.515-4.546z"/><path d="M68.77 155.676l7.576 2.778.253 13.89-5.303-3.031 1.01-4.798-1.01-4.546-1.768-2.02M62.204 150.12l-4.04 1.515-1.516-2.02.253 2.273-2.778.505-2.273-.505-.252 2.02-2.273 3.536-9.344-.505 14.647-10.86 6.06.506-1.262.505M61.447 142.039l-3.789 2.02-2.02-3.03-3.788 4.04-3.788-1.515-5.303 4.546-4.293-1.768 18.182-8.839zM66.75 146.332l-1.768-6.313-.505 2.525-3.03.758-.506 2.525 4.546.505.758-1.515M64.477 153.908l-4.293 3.283v4.798l2.525-1.515v-2.778l2.273-.252-1.263-1.515 3.283-.758z"/><path d="M63.214 156.434l4.293 3.535H64.73l4.04.505.758-3.03 1.768-3.788-6.314 1.515M61.194 145.574l.253 7.072 6.818-1.516-5.303-3.03 3.535-1.768zM61.995 180.96l2.956-.982M63.374 140.586l1.964-1.34-.536-11.607-1.875 4.465-.892.803-.09 4.554 1.518 1.16-.625 1.43zM96.053 184.197l-.127-13.385-2.146-3.03-1.894 1.894-2.652.378 2.525 3.031.758 2.273-1.768 1.768.505 6.187zM96.558 171.065l4.924-3.283c-1.321-1.476-.63-2.664-.379-3.915l-1.894-.378 2.02.378c.12-1.055 1.106-1.678 2.652-2.02l-.884-2.273.884 2.147c1.69-.501 2.807-.048 3.788.631l1.516-1.01-1.516 1.01c1.345 2.181.592 2.564.38 3.41l2.524-.127h-2.399c-.673 1.676-1.347 2.39-2.02 3.41l.884 2.02-.884-2.273c-1.634 0-3.365.248-4.546-.884zM96.179 179.272h2.778c-.6-1.374-.06-2.52.505-3.662l-1.39-1.262 1.516 1.389c.546-.91.994-1.888 3.157-1.642l.631-1.641-.631 1.894c1.258.7 1.563 1.59 1.641 2.525l1.894.126-1.641-.126c.23 2.558-.669 3.016-1.263 4.04l1.01 1.137-1.01-1.263c-1.22.91-2.441.482-3.662.253l-.884 1.641.884-1.767-.378-1.894"/><path d="M90.876 178.01c-1.072.365-2.11.903-3.41.126l-1.136 2.02 1.136-2.147c-1.835-.769-1.293-1.355-1.768-2.02l-2.399-.252 2.526.252c.134-1.496.128-3.085 1.641-3.662l-1.136-1.641 1.515 1.515 2.778-.126M93.653 167.277c1.275.008 2.096-1.116 2.905-2.273l1.641.379-1.389-.506c.264-.92.404-1.892-.505-3.283l1.01-1.136-1.01 1.01c-2.242-.846-2.74-.275-3.914-.252l-.38-2.02.253 1.767c-2.516.842-2.528 1.684-3.283 2.526l-2.399-.632 2.02.758.253 2.778-1.262.884 1.262-.632c1.06.726 2.058 1.543 4.04.884z"/><path d="M88.224 172.075l-2.778-1.768c.193-.804-.37-.702.884-2.778l-1.137-.758 1.137.506 2.778-.253M82.542 163.741l1.768 2.147-1.137-1.263c-2.498 1.41-3.694 3.308-4.293 5.43l-1.515-.253 1.894.505 1.641 2.525-1.515 6.061 1.515-6.187c.718 1.108 1.843.79 3.03.253l1.39-1.642M47.097 181.822l.09-17.197.558.03 3.356 7.294-3.03-.506v2.147l3.72 5.34-3.973-.29v3.345zM45.292 177.757l-3.409-4.798-.505 5.556 3.871-.906z"/></g><path d="M235.815 141.1c1.61-2.459 3.428-3.044 4.624-2.873 1.573-.011 2.508.823 3.667 1.69.488 1.33-.398 2.528-1.595 2.964.95 1.213 2.54 1.66 1.914 3.29l-1.956 1.856-2.987.34c-3.536.405-4.38-5.6-3.667-7.266z" fill="none" stroke="#002e78" stroke-width=".919"/><path d="M227.57 150.675l4.97-.81c.287-1.112-.26-1.546 3.245-3.118 1.862 2.27 3.028 4.064 2.678 4.821-.486 2.107-1.782 3.243-4.643 2.5l-5.579-.253.58-.818 3.928-1.429zM226.142 146.39l7.321-.715c1.867-1.174 1.343-2.827.893-4.464-1.37-1.158-2.738-1.399-4.107-.179l-.714 2.5c.012 1.41-1.026 2.4-3.393 2.857z" fill="none" stroke="#002e78"/><path d="M234.592 140.623c1.949-.489 3.516-1.528 3.723-4.527-1.191-2.358-1.964-7.06-5.43-6.204-2.112.502-3.62 2.145-2.947 7.042.9 2.156 2.071 2.555 3.258 2.85z" fill="none" stroke="#002e78" stroke-width=".903"/><path d="M220.785 142.997l5.892.178 3.215-2.143c-.436-2.746-1.922-4.217-4.107-3.571-2.668 3.913-2.662 4.907-5 5.536z" fill="none" stroke="#002e78"/><path d="M64.738 149.725a2.02 2.02 0 11-4.04 0 2.02 2.02 0 014.04 0zM69.789 150.609a2.02 2.02 0 11-4.041 0 2.02 2.02 0 014.04 0zM66.506 154.145a2.02 2.02 0 11-4.041 0 2.02 2.02 0 014.04 0zM71.051 155.281a2.02 2.02 0 11-4.04 0 2.02 2.02 0 014.04 0zM67.516 158.564a2.02 2.02 0 11-4.04 0 2.02 2.02 0 014.04 0zM62.339 153.134a2.02 2.02 0 11-4.04 0 2.02 2.02 0 014.04 0z" fill="#fff" stroke="#002e78" stroke-width="1.5" stroke-linejoin="bevel" stroke-miterlimit="3.996"/><path d="M68.02 146.947a2.02 2.02 0 11-4.04 0 2.02 2.02 0 014.04 0z" fill="#fff" stroke="#002e78" stroke-width="1.5" stroke-linejoin="bevel" stroke-miterlimit="3.996"/><path d="M64.359 145.558a2.02 2.02 0 11-4.04 0 2.02 2.02 0 014.04 0z" fill="#fff" stroke="#002e78" stroke-width="1.5" stroke-linejoin="bevel" stroke-miterlimit="3.996"/><g stroke="#002e78" fill="none" stroke-width="13.225"><path d="M-63.607 621.424L1081.17 211.436l-75.69-21.7L-63.607 609.904z" transform="matrix(-.04726 0 0 .121 130.278 36.428)"/><path d="M-63.607 615.664l1065.863-427.56-82.903-20.29-982.96 442.09z" transform="matrix(-.04726 0 0 .121 130.278 36.428)"/></g><path d="M198.712 274.484c-3.004 4.55-9.218 4.791-15.209 5.93l4.141-5.282c5.355.72 6.595-1.85 8.655-3.173l2.625 1.3zM173.115 283.07c-3.831 3.877-9.974 2.905-16.072 2.856l5.09-4.375c5.112 1.75 6.828-.53 9.107-1.428l2.321 1.786z" fill="#fff" stroke="#002e78"/><path d="M181.035 269.096c-1.316.072-2.894.379-4.813.906-7.676 2.108-10.253 6.355-8.312 9.844 1.94 3.488 8.257 3.983 12.25 2.593 3.985-1.387 9.54-4.184 8.062-8.093-1.618-3.665-3.24-5.467-7.187-5.25zm.593 3.687c.884.044 1.643.39 2.25 1.25 1.52 2.154-1.69 3.957-4.75 5.125-6.104 1.453-6.487.684-7.937-.906-.903-.99 1.564-3.32 5.562-4.375 1.656-.437 3.403-1.167 4.875-1.094zM219.277 263.367c-2.004 5.069-8.036 6.583-13.665 8.928l2.967-6.02c5.389-.395 6.074-3.165 7.819-4.884l2.835.733z" fill="#fff" stroke="#002e78"/><path d="M203.761 259.237c-1.277.327-2.764.935-4.544 1.825-7.12 3.562-8.82 8.229-6.238 11.273 2.581 3.044 8.874 2.301 12.52.16 3.64-2.136 8.544-5.96 6.334-9.507-2.301-3.28-4.242-4.732-8.072-3.751zm1.3 3.501c.875-.129 1.687.062 2.45.789 1.91 1.816-.887 4.21-3.662 5.95-5.705 2.614-6.23 1.934-7.962.656-1.078-.795.889-3.56 4.605-5.373 1.539-.751 3.11-1.807 4.569-2.022z" fill="#fff" stroke="#002e78"/><path d="M199.532 270.596c.017-3.44-.486-6.318-7.818-5.914-5.743.492-10.04 3.42-11.417 11.277-.136 1.336.431 1.971 2.116 1.491 1.385-.488 1.487-1.04 1.964-1.573 1.2-2.358 1.052-4.912 6.227-6.696 2.198-.142 4.1-1.128 7.351 1.727zM237.71 248.19c-1.195 5.32-6.918 7.751-12.115 10.941l1.997-6.407c5.262-1.226 5.509-4.07 6.966-6.038l2.915.284z" fill="#fff" stroke="#002e78"/><path d="M221.086 247.407c-1.182.582-2.513 1.483-4.072 2.72-6.236 4.949-6.941 9.866-3.789 12.315 3.152 2.448 9.158.428 12.286-2.416 3.123-2.839 7.137-7.59 4.245-10.606-2.925-2.738-5.123-3.76-8.67-2.013zm1.992 3.16c.83-.306 1.663-.286 2.56.268 2.241 1.386-.004 4.303-2.362 6.577-5.045 3.73-5.7 3.172-7.657 2.277-1.218-.556.138-3.667 3.402-6.205 1.352-1.051 2.673-2.407 4.057-2.917z" fill="#fff" stroke="#002e78"/><path d="M219.281 259.393c-.69-3.37-1.773-6.083-8.866-4.181-5.52 1.661-9.123 5.41-8.856 13.382.14 1.336.827 1.84 2.377 1.025 1.255-.763 1.242-1.323 1.599-1.943.689-2.555.02-5.024 4.718-7.833 2.122-.59 3.78-1.947 7.55.18zM254.578 229.023c-.39 5.437-5.689 8.692-10.354 12.62l1.023-6.634c5.02-1.995 4.843-4.843 5.99-7.006l2.926-.152z" fill="#fff" stroke="#002e78"/><path d="M237.02 232.144c-1.078.758-2.253 1.855-3.602 3.319-5.392 5.856-5.326 10.823-1.832 12.753 3.495 1.93 9.114-.998 11.763-4.293 2.644-3.289 5.873-8.605 2.548-11.136-3.315-2.25-5.645-2.919-8.878-.643zm2.457 2.812c.773-.43 1.6-.54 2.57-.132 2.43 1.02.665 4.25-1.311 6.863-4.406 4.468-5.14 4.018-7.212 3.438-1.29-.36-.432-3.644 2.399-6.658 1.172-1.248 2.267-2.793 3.554-3.51z" fill="#fff" stroke="#002e78"/><path d="M237.096 244.264c-1.204-3.222-2.696-5.734-9.407-2.754-5.195 2.497-8.174 6.76-6.673 14.594.347 1.297 1.103 1.69 2.508.643 1.121-.948 1.021-1.5 1.278-2.167.284-2.63-.76-4.966 3.445-8.47 2.005-.913 3.433-2.51 7.486-.994zM267.616 209.522c.495 5.429-4.207 9.498-8.175 14.129l-.064-6.711c4.632-2.781 3.995-5.563 4.778-7.883l2.862-.624z" fill="#fff" stroke="#002e78"/><path d="M251.511 213.256c-.953.91-1.952 2.17-3.068 3.818-4.462 6.592-3.658 11.494.084 12.883 3.742 1.39 8.864-2.341 10.994-5.993 2.126-3.645 4.529-9.382.864-11.391-3.612-1.733-6.015-2.047-8.874.683zm2.848 2.416c.7-.54 1.502-.772 2.523-.513 2.554.65 1.289 4.105-.278 6.982-3.693 5.073-4.484 4.738-6.62 4.472-1.329-.165-.97-3.54 1.382-6.94.974-1.409 1.827-3.099 2.993-4z" fill="#fff" stroke="#002e78"/><path d="M253.388 225.23c-1.67-3.006-3.518-5.269-9.712-1.325-4.766 3.242-7.078 7.9-4.43 15.423.536 1.232 1.341 1.508 2.576.264.968-1.104.787-1.635.941-2.333-.11-2.644-1.489-4.798 2.148-8.888 1.848-1.2 3.023-2.992 7.256-2.095zM275.767 186.251c2.063 5.046-1.241 10.314-3.68 15.904l-2.026-6.398c3.615-4.016 2.191-6.49 2.26-8.937l2.554-1.435z" fill="#fff" stroke="#002e78"/><path d="M262.038 194.46c-.793 1.053-1.575 2.457-2.41 4.264-3.336 7.227-1.75 11.935 2.168 12.7 3.918.765 8.369-3.745 9.88-7.694 1.507-3.94 2.95-9.99-.991-11.38-3.845-1.126-6.268-1.047-8.647 2.11zm3.202 1.923c.603-.647 1.356-1.005 2.406-.914 2.626.227 1.936 3.842.856 6.935-2.823 5.603-3.659 5.4-5.81 5.484-1.337.052-1.529-3.336.242-7.073.733-1.548 1.3-3.353 2.306-4.432z" fill="#fff" stroke="#002e78"/><path d="M265.828 205.973c-2.134-2.697-4.324-4.631-9.799.264-4.178 3.97-5.706 8.94-1.875 15.936.728 1.13 1.568 1.271 2.585-.156.776-1.246.512-1.74.551-2.455-.536-2.591-2.246-4.493.681-9.119 1.63-1.483 2.499-3.442 6.821-3.241zM280.07 161.205c2.529 4.829-.265 10.385-2.165 16.18l-2.62-6.18c3.22-4.338 1.57-6.666 1.408-9.11l2.407-1.668z" fill="#fff" stroke="#002e78"/><path d="M266.022 173.483c-.45 1.239-.787 2.81-1.055 4.782-1.073 7.888 1.822 11.925 5.792 11.509 3.97-.416 6.905-6.032 7.193-10.25.288-4.21-.104-10.417-4.28-10.591-4.006.05-6.3.834-7.65 4.55zm3.625.901c.387-.795 1.002-1.358 2.033-1.579 2.577-.552 2.976 3.107 2.85 6.38-1.06 6.185-1.918 6.236-3.95 6.945-1.264.442-2.438-2.741-1.84-6.833.247-1.694.262-3.587.907-4.913z" fill="#fff" stroke="#002e78"/><path d="M273.018 183.381c-2.831-1.954-5.491-3.161-9.292 3.122-2.833 5.02-2.838 10.22 2.874 15.787 1.027.866 1.871.756 2.425-.906.378-1.42-.02-1.815-.191-2.51-1.272-2.32-3.464-3.638-2.02-8.918 1.124-1.895 1.381-4.022 5.573-5.097zM279.939 134.892c3.353 4.298 1.6 10.264.769 16.306l-3.685-5.61c2.391-4.845.35-6.84-.247-9.215l2.07-2.073z" fill="#fff" stroke="#002e78"/><path d="M269.165 149.412c-.331 1.275-.519 2.872-.6 4.86-.325 7.954 2.937 11.7 6.85 10.912 3.914-.788 6.306-6.656 6.196-10.882-.11-4.218-1.086-10.36-5.26-10.141-3.983.427-6.192 1.424-7.186 5.25zm3.693.555c.31-.828.87-1.446 1.875-1.763 2.514-.793 3.256 2.812 3.438 6.083-.47 6.257-1.32 6.388-3.276 7.286-1.217.56-2.687-2.5-2.477-6.629.087-1.71-.077-3.596.44-4.977z" fill="#fff" stroke="#002e78"/><path d="M277.062 158.607c-3.002-1.679-5.764-2.63-8.956 3.983-2.347 5.264-1.862 10.442 4.349 15.446 1.103.766 1.934.576 2.329-1.13.242-1.449-.191-1.805-.427-2.48-1.485-2.19-3.791-3.296-2.85-8.689.938-1.993.995-4.135 5.066-5.6zM275.714 109.664c3.907 3.801 2.982 9.95 2.98 16.049l-4.413-5.056c1.71-5.126-.584-6.824-1.499-9.096l1.768-2.335z" fill="#fff" stroke="#002e78"/><path d="M267.098 125.243c-.097 1.314.004 2.918.28 4.89 1.105 7.883 4.986 10.984 8.695 9.507 3.709-1.476 5.012-7.677 4.146-11.815-.864-4.13-2.924-9.999-6.991-9.035-3.842 1.134-5.837 2.51-6.13 6.453zm3.733-.115c.158-.87.597-1.579 1.53-2.07 2.33-1.23 3.707 2.183 4.472 5.368.657 6.24-.156 6.522-1.919 7.756-1.097.767-3.09-1.978-3.624-6.079-.22-1.698-.72-3.524-.458-4.975z" fill="#fff" stroke="#002e78"/><path d="M276.515 132.875c-3.255-1.114-6.142-1.555-8.098 5.523-1.366 5.6.039 10.607 7.045 14.417 1.224.556 2.006.22 2.09-1.53-.022-1.468-.512-1.74-.865-2.362-1.853-1.89-4.32-2.564-4.36-8.038.566-2.129.238-4.246 3.981-6.417zM265.258 85.048c4.775 2.628 5.516 8.803 7.132 14.683l-5.597-3.704c.288-5.395-2.373-6.424-3.858-8.372l1.085-2.72z" fill="#fff" stroke="#002e78"/><path d="M261.68 101.851c.083 1.315.401 2.89.943 4.805 2.167 7.66 6.434 10.204 9.907 8.238 3.474-1.967 3.921-8.288 2.5-12.27-1.417-3.974-4.257-9.508-8.155-8-3.652 1.646-5.441 3.281-5.195 7.227zm3.683-.622c.037-.884.377-1.646 1.233-2.26 2.142-1.535 3.97 1.66 5.161 4.711 1.5 6.093.734 6.482-.845 7.945-.983.91-3.332-1.54-4.418-5.53-.45-1.652-1.193-3.393-1.13-4.866z" fill="#fff" stroke="#002e78"/><path d="M272.048 108.13c-3.376-.66-6.297-.704-7.272 6.574-.591 5.733 1.481 10.503 8.941 13.325 1.288.384 2.018-.054 1.862-1.8-.221-1.451-.744-1.655-1.178-2.223-2.093-1.62-4.629-1.952-5.414-7.37.273-2.186-.34-4.239 3.073-6.898zM252.202 64.486c5.103 1.914 6.724 7.918 9.17 13.504l-6.072-2.86c-.491-5.38-3.273-6.016-5.022-7.73l.682-2.848z" fill="#fff" stroke="#002e78"/><path d="M249.654 81.24c.429 1.245 1.154 2.68 2.184 4.382 4.122 6.81 8.91 8.131 11.738 5.313 2.827-2.818 1.58-9.03-.845-12.493-2.422-3.456-6.628-8.038-9.986-5.55-3.085 2.557-4.376 4.608-3.09 8.347zm3.386-1.578c-.199-.862-.074-1.686.589-2.505 1.658-2.05 4.268.546 6.226 3.172 3.063 5.476 2.427 6.055 1.293 7.884-.706 1.138-3.62-.6-5.726-4.159-.872-1.474-2.05-2.955-2.382-4.392z" fill="#fff" stroke="#002e78"/><path d="M261.316 84.543c-3.43.259-6.258.99-5.267 8.267.951 5.685 4.216 9.733 12.157 10.475 1.343.028 1.93-.588 1.317-2.23-.598-1.34-1.156-1.398-1.726-1.83-2.447-1.006-4.98-.654-7.175-5.67-.317-2.18-1.453-3.996 1.132-7.466zM236.025 45.762c5.332 1.131 7.83 6.826 11.08 11.986l-6.43-1.923c-1.287-5.247-4.132-5.46-6.118-6.895l.25-2.918z" fill="#fff" stroke="#002e78"/><path d="M236.212 62.962c.604 1.171 1.527 2.486 2.792 4.023 5.059 6.146 9.988 6.764 12.38 3.569 2.392-3.196.265-9.165-2.634-12.242-2.893-3.071-7.715-7-10.68-4.055-2.685 2.974-3.667 5.19-1.858 8.705zm3.124-2.048c-.32-.824-.316-1.658.222-2.564 1.346-2.266 4.303-.074 6.618 2.243 3.819 4.98 3.273 5.643 2.413 7.616-.534 1.228-3.668-.073-6.264-3.291-1.075-1.334-2.455-2.63-2.99-4.004z" fill="#fff" stroke="#002e78"/><path d="M248.228 64.553c-3.357.75-6.05 1.881-4.022 8.939 1.758 5.489 5.571 9.026 13.537 8.617 1.333-.165 1.825-.86.982-2.396-.785-1.24-1.345-1.217-1.97-1.563-2.568-.644-5.024.069-7.917-4.578-.628-2.112-2.013-3.746.046-7.552zM215.939 29.648c5.444.277 8.808 5.507 12.831 10.09l-6.652-.885c-2.1-4.98-4.943-4.742-7.13-5.845l-.213-2.92z" fill="#fff" stroke="#002e78"/><path d="M219.987 46.639c.771 1.068 1.88 2.23 3.36 3.561 5.92 5.324 10.885 5.2 12.774 1.684 1.89-3.517-1.104-9.102-4.43-11.712-3.319-2.606-8.672-5.772-11.165-2.418-2.211 3.341-2.852 5.679-.54 8.885zm2.783-2.49c-.44-.768-.559-1.594-.162-2.57.993-2.441 4.243-.714 6.878 1.232 4.519 4.354 4.078 5.092 3.522 7.171-.345 1.294-3.638.475-6.685-2.32-1.262-1.159-2.82-2.235-3.553-3.514z" fill="#fff" stroke="#002e78"/><path d="M232.106 46.42c-3.208 1.242-5.703 2.763-2.645 9.44 2.558 5.164 6.855 8.094 14.67 6.502 1.294-.362 1.678-1.123.615-2.516-.96-1.11-1.512-1.003-2.182-1.252-2.634-.253-4.957.817-8.51-3.346-.936-1.995-2.55-3.404-1.08-7.475zM193.919 18.535c5.318-1.195 9.963 2.94 15.068 6.275l-6.646.933c-3.358-4.233-6.033-3.24-8.436-3.716l-.989-2.757z" fill="#fff" stroke="#002e78"/><path d="M200.24 33.042c.93.933 2.208 1.907 3.88 2.987 6.683 4.325 11.568 3.42 12.879-.35 1.31-3.771-2.525-8.815-6.22-10.868-3.69-2.05-9.475-4.333-11.408-.628-1.657 3.648-1.921 6.057.868 8.859zm2.355-2.898c-.555-.689-.803-1.485-.565-2.511.596-2.568 4.078-1.374 6.987.132 5.148 3.587 4.829 4.385 4.608 6.526-.138 1.332-3.518 1.043-6.968-1.238-1.428-.944-3.136-1.762-4.062-2.91z" fill="#fff" stroke="#002e78"/><path d="M212.172 30.916c-2.972 1.732-5.195 3.627-1.123 9.738 3.34 4.697 8.045 6.912 15.512 4.108 1.22-.56 1.479-1.372.21-2.58-1.124-.945-1.651-.753-2.352-.893-2.641.165-4.766 1.589-8.931-1.963-1.239-1.822-3.055-2.96-2.246-7.21zM172.136 11.111c5.163-1.746 10.217 1.877 15.645 4.657l-6.511 1.626c-3.785-3.856-6.341-2.588-8.78-2.808l-1.274-2.638z" fill="#fff" stroke="#002e78"/><path d="M179.706 26.017c1.147.65 2.64 1.244 4.54 1.837 7.599 2.372 12.061.189 12.312-3.795.251-3.984-4.798-7.813-8.908-8.8-4.104-.984-10.29-1.63-11.157 2.458-.618 3.958-.226 6.35 3.213 8.3zm1.492-3.424c-.72-.514-1.172-1.214-1.218-2.267-.116-2.633 3.559-2.418 6.765-1.748 5.922 2.074 5.83 2.929 6.19 5.05.226 1.32-3.109 1.949-7.043.678-1.63-.527-3.494-.856-4.694-1.713z" fill="#fff" stroke="#002e78"/><path d="M190.63 20.767c-2.397 2.466-4.03 4.888 1.532 9.682 4.478 3.629 9.605 4.5 16.045-.205 1.025-.868 1.057-1.72-.49-2.543-1.336-.608-1.792-.282-2.505-.228-2.5.867-4.165 2.809-9.13.506-1.683-1.423-3.737-2.031-4.099-6.344zM146.244 7.541c4.813-2.559 10.386.2 16.192 2.065l-6.162 2.659c-4.359-3.194-6.676-1.53-9.12-1.352l-1.682-2.397z" fill="#fff" stroke="#002e78"/><path d="M158.789 20.047c1.208.526 2.756.96 4.707 1.35 7.807 1.559 12.015-1.081 11.846-5.07-.17-3.987-5.593-7.264-9.785-7.813-4.184-.547-10.404-.54-10.837 3.617-.197 4.001.444 6.339 4.069 7.916zm1.123-3.562c-.77-.435-1.293-1.084-1.45-2.126-.391-2.606 3.285-2.779 6.545-2.45 6.107 1.44 6.104 2.3 6.687 4.371.363 1.29-2.887 2.265-6.934 1.415-1.676-.352-3.564-.484-4.848-1.21z" fill="#fff" stroke="#002e78"/><path d="M169.1 13.678c-2.125 2.704-3.494 5.284 2.541 9.467 4.835 3.138 10.026 3.464 15.935-1.892.929-.971.87-1.82-.754-2.477-1.393-.464-1.812-.092-2.516.036-2.395 1.126-3.846 3.232-9.026 1.464-1.823-1.238-3.93-1.627-4.743-5.877zM158.25 274.267c-1.291-.259-2.896-.355-4.885-.323-7.96.126-11.515 3.596-10.506 7.458 1.008 3.862 7.002 5.918 11.215 5.568 4.205-.35 10.283-1.671 9.827-5.826-.653-3.953-1.773-6.102-5.65-6.877zm-.344 3.719c.844.263 1.493.787 1.867 1.772.933 2.464-2.624 3.41-5.879 3.777-6.273-.115-6.452-.956-7.46-2.858-.627-1.183 2.343-2.824 6.478-2.848 1.713-.01 3.586-.281 4.994.157z" fill="#fff" stroke="#002e78"/><path d="M175.08 279.676c.685-3.37.752-6.29-6.519-7.321-5.728-.635-10.514 1.401-13.393 8.84-.393 1.284.04 2.017 1.786 1.874 1.453-.21 1.66-.73 2.232-1.16 1.635-2.08 1.988-4.614 7.411-5.358 2.184.29 4.242-.308 6.875 3.125zM136.17 7.541c-4.814-2.559-10.387.2-16.193 2.065l6.163 2.659c4.358-3.194 6.676-1.53 9.119-1.352l1.683-2.397z" fill="#fff" stroke="#002e78"/><path d="M149.811 4.051l-.178 16.34c-1.517 2.48-2.557 2.805-5 3.125-.926.12-4.247.063-6.117.007-2.946-.09-5.622-2.79-6.026-4.56-.294-4.916-.154-9.873-.09-15.625.041-3.605 4.574-3.863 4.643-.268l.268 13.84c-.215 3.004 1.061 2.922 4.554 3.213 3.492.292 3.828-2.22 3.393-3.928l.089-12.232c.032-4.362 4.464-4.051 4.464-.804z" fill="#6b4025" stroke="#6b4025"/><path d="M144.735 9.672c-1.868 1.345-3.671 6.627 2.967 9.824 5.278 2.315 10.454 1.798 15.42-4.443.758-1.109.564-1.938-1.146-2.322-1.45-.234-1.803.202-2.477.442-2.18 1.498-3.272 3.811-8.67 2.904-2-.928-4.141-.97-5.631-5.033zM83.702 274.484c3.003 4.55 9.217 4.791 15.208 5.93l-4.14-5.282c-5.356.72-6.595-1.85-8.656-3.173l-2.624 1.3zM109.299 283.07c3.83 3.877 9.973 2.905 16.071 2.856l-5.09-4.375c-5.112 1.75-6.828-.53-9.106-1.428l-2.322 1.786z" fill="#fff" stroke="#002e78"/><path d="M101.379 269.096c1.316.072 2.893.379 4.812.906 7.677 2.108 10.253 6.355 8.313 9.844-1.94 3.488-8.258 3.983-12.25 2.593-3.985-1.387-9.54-4.184-8.063-8.093 1.619-3.665 3.24-5.467 7.188-5.25zm-.594 3.687c-.883.044-1.643.39-2.25 1.25-1.519 2.154 1.69 3.957 4.75 5.125 6.104 1.453 6.487.684 7.938-.906.902-.99-1.565-3.32-5.563-4.375-1.656-.437-3.402-1.167-4.875-1.094zM63.136 263.367c2.004 5.069 8.036 6.583 13.665 8.928l-2.967-6.02c-5.388-.395-6.074-3.165-7.818-4.884l-2.836.733z" fill="#fff" stroke="#002e78"/><path d="M78.652 259.237c1.277.327 2.765.935 4.545 1.825 7.12 3.562 8.82 8.229 6.238 11.273-2.582 3.044-8.875 2.301-12.52.16-3.64-2.136-8.545-5.96-6.334-9.507 2.3-3.28 4.242-4.732 8.071-3.751zm-1.3 3.501c-.875-.129-1.687.062-2.45.789-1.909 1.816.888 4.21 3.662 5.95 5.705 2.614 6.23 1.934 7.962.656 1.078-.795-.888-3.56-4.604-5.373-1.54-.751-3.11-1.807-4.57-2.022z" fill="#fff" stroke="#002e78"/><path d="M82.882 270.596c-.018-3.44.485-6.318 7.817-5.914 5.743.492 10.04 3.42 11.417 11.277.137 1.336-.43 1.971-2.116 1.491-1.385-.488-1.487-1.04-1.964-1.573-1.199-2.358-1.051-4.912-6.226-6.696-2.199-.142-4.1-1.128-7.352 1.727zM44.704 248.19c1.194 5.32 6.918 7.751 12.115 10.941l-1.997-6.407c-5.262-1.226-5.51-4.07-6.966-6.038l-2.915.284z" fill="#fff" stroke="#002e78"/><path d="M61.328 247.407c1.182.582 2.513 1.483 4.072 2.72 6.235 4.949 6.94 9.866 3.788 12.315-3.152 2.448-9.158.428-12.286-2.416-3.122-2.839-7.137-7.59-4.245-10.606 2.926-2.738 5.124-3.76 8.67-2.013zm-1.992 3.16c-.83-.306-1.664-.286-2.56.268-2.242 1.386.003 4.303 2.361 6.577 5.046 3.73 5.7 3.172 7.657 2.277 1.219-.556-.138-3.667-3.402-6.205-1.352-1.051-2.673-2.407-4.056-2.917z" fill="#fff" stroke="#002e78"/><path d="M63.132 259.393c.69-3.37 1.774-6.083 8.867-4.181 5.519 1.661 9.123 5.41 8.856 13.382-.141 1.336-.827 1.84-2.378 1.025-1.255-.763-1.241-1.323-1.599-1.943-.688-2.555-.02-5.024-4.717-7.833-2.123-.59-3.781-1.947-7.55.18zM27.835 229.023c.39 5.437 5.69 8.692 10.355 12.62l-1.023-6.634c-5.022-1.995-4.843-4.843-5.991-7.006l-2.925-.152z" fill="#fff" stroke="#002e78"/><path d="M45.394 232.144c1.078.758 2.253 1.855 3.6 3.319 5.393 5.856 5.327 10.823 1.833 12.753-3.494 1.93-9.114-.998-11.763-4.293-2.644-3.289-5.873-8.605-2.547-11.136 3.314-2.25 5.644-2.919 8.877-.643zm-2.458 2.812c-.772-.43-1.599-.54-2.57-.132-2.43 1.02-.665 4.25 1.312 6.863 4.406 4.468 5.139 4.018 7.211 3.438 1.29-.36.433-3.644-2.398-6.658-1.173-1.248-2.267-2.793-3.555-3.51z" fill="#fff" stroke="#002e78"/><path d="M45.317 244.264c1.205-3.222 2.696-5.734 9.408-2.754 5.194 2.497 8.173 6.76 6.672 14.594-.346 1.297-1.102 1.69-2.508.643-1.12-.948-1.02-1.5-1.277-2.167-.284-2.63.76-4.966-3.445-8.47-2.006-.913-3.434-2.51-7.487-.994zM14.797 209.522c-.495 5.429 4.208 9.498 8.176 14.129l.064-6.711c-4.633-2.781-3.996-5.563-4.779-7.883l-2.861-.624z" fill="#fff" stroke="#002e78"/><path d="M30.902 213.256c.953.91 1.952 2.17 3.068 3.818 4.462 6.592 3.659 11.494-.083 12.883-3.743 1.39-8.865-2.341-10.995-5.993-2.126-3.645-4.529-9.382-.864-11.391 3.612-1.733 6.016-2.047 8.874.683zm-2.848 2.416c-.7-.54-1.501-.772-2.522-.513-2.555.65-1.29 4.105.277 6.982 3.693 5.073 4.485 4.738 6.62 4.472 1.33-.165.97-3.54-1.382-6.94-.974-1.409-1.827-3.099-2.993-4z" fill="#fff" stroke="#002e78"/><path d="M29.025 225.23c1.67-3.006 3.518-5.269 9.713-1.325 4.765 3.242 7.078 7.9 4.43 15.423-.536 1.232-1.342 1.508-2.576.264-.968-1.104-.787-1.635-.942-2.333.11-2.644 1.49-4.798-2.148-8.888-1.847-1.2-3.022-2.992-7.255-2.095zM6.647 186.251c-2.063 5.046 1.24 10.314 3.679 15.904l2.026-6.398c-3.614-4.016-2.191-6.49-2.26-8.937l-2.553-1.435z" fill="#fff" stroke="#002e78"/><path d="M20.376 194.46c.793 1.053 1.575 2.457 2.409 4.264 3.336 7.227 1.75 11.935-2.168 12.7-3.917.765-8.368-3.745-9.879-7.694-1.508-3.94-2.95-9.99.99-11.38 3.846-1.126 6.269-1.047 8.648 2.11zm-3.202 1.923c-.603-.647-1.357-1.005-2.406-.914-2.626.227-1.937 3.842-.857 6.935 2.824 5.603 3.66 5.4 5.81 5.484 1.338.052 1.53-3.336-.241-7.073-.733-1.548-1.301-3.353-2.306-4.432z" fill="#fff" stroke="#002e78"/><path d="M16.585 205.973c2.135-2.697 4.325-4.631 9.799.264 4.178 3.97 5.706 8.94 1.875 15.936-.728 1.13-1.567 1.271-2.584-.156-.777-1.246-.512-1.74-.552-2.455.537-2.591 2.246-4.493-.681-9.119-1.629-1.483-2.498-3.442-6.82-3.241zM2.344 161.205c-2.53 4.829.264 10.385 2.164 16.18l2.62-6.18c-3.22-4.338-1.57-6.666-1.407-9.11l-2.407-1.668z" fill="#fff" stroke="#002e78"/><path d="M16.391 173.483c.45 1.239.787 2.81 1.055 4.782 1.074 7.888-1.821 11.925-5.791 11.509-3.97-.416-6.905-6.032-7.194-10.25-.287-4.21.105-10.417 4.28-10.591 4.007.05 6.3.834 7.65 4.55zm-3.624.901c-.388-.795-1.003-1.358-2.033-1.579-2.577-.552-2.977 3.107-2.85 6.38 1.059 6.185 1.917 6.236 3.949 6.945 1.264.442 2.439-2.741 1.84-6.833-.247-1.694-.261-3.587-.906-4.913z" fill="#fff" stroke="#002e78"/><path d="M9.396 183.381c2.83-1.954 5.49-3.161 9.292 3.122 2.832 5.02 2.837 10.22-2.875 15.787-1.026.866-1.87.756-2.425-.906-.377-1.42.02-1.815.192-2.51 1.272-2.32 3.463-3.638 2.019-8.918-1.123-1.895-1.38-4.022-5.573-5.097zM2.474 134.892c-3.353 4.298-1.6 10.264-.768 16.306l3.684-5.61c-2.39-4.845-.35-6.84.247-9.215L3.568 134.3z" fill="#fff" stroke="#002e78"/><path d="M13.249 149.412c.33 1.275.518 2.872.6 4.86.325 7.954-2.938 11.7-6.851 10.912-3.913-.788-6.306-6.656-6.195-10.882.11-4.218 1.085-10.36 5.259-10.141 3.983.427 6.193 1.424 7.187 5.25zm-3.694.555c-.31-.828-.87-1.446-1.875-1.763-2.513-.793-3.256 2.812-3.438 6.083.471 6.257 1.32 6.388 3.277 7.286 1.217.56 2.686-2.5 2.476-6.629-.087-1.71.078-3.596-.44-4.977z" fill="#fff" stroke="#002e78"/><path d="M5.351 158.607c3.003-1.679 5.765-2.63 8.957 3.983 2.347 5.264 1.862 10.442-4.35 15.446-1.103.766-1.933.576-2.328-1.13-.242-1.449.19-1.805.427-2.48 1.485-2.19 3.79-3.296 2.85-8.689-.939-1.993-.995-4.135-5.067-5.6zM6.7 109.664c-3.908 3.801-2.983 9.95-2.98 16.049l4.413-5.056c-1.71-5.126.583-6.824 1.498-9.096l-1.768-2.335z" fill="#fff" stroke="#002e78"/><path d="M15.315 125.243c.097 1.314-.004 2.918-.28 4.89-1.105 7.883-4.986 10.984-8.695 9.507-3.708-1.476-5.011-7.677-4.146-11.815.865-4.13 2.925-9.999 6.991-9.035 3.843 1.134 5.838 2.51 6.13 6.453zm-3.733-.115c-.157-.87-.597-1.579-1.529-2.07-2.33-1.23-3.707 2.183-4.472 5.368-.657 6.24.155 6.522 1.918 7.756 1.098.767 3.091-1.978 3.624-6.079.221-1.698.72-3.524.459-4.975z" fill="#fff" stroke="#002e78"/><path d="M5.899 132.875c3.254-1.114 6.142-1.555 8.098 5.523 1.366 5.6-.04 10.607-7.046 14.417-1.223.556-2.006.22-2.089-1.53.021-1.468.511-1.74.865-2.362 1.853-1.89 4.32-2.564 4.36-8.038-.567-2.129-.238-4.246-3.982-6.417zM17.155 85.048c-4.775 2.628-5.515 8.803-7.131 14.683l5.597-3.704c-.288-5.395 2.373-6.424 3.858-8.372l-1.085-2.72z" fill="#fff" stroke="#002e78"/><path d="M20.733 101.851c-.083 1.315-.4 2.89-.943 4.805-2.167 7.66-6.433 10.204-9.907 8.238-3.473-1.967-3.92-8.288-2.5-12.27 1.418-3.974 4.257-9.508 8.155-8 3.652 1.646 5.442 3.281 5.195 7.227zm-3.683-.622c-.037-.884-.376-1.646-1.233-2.26-2.142-1.535-3.97 1.66-5.16 4.711-1.5 6.093-.734 6.482.845 7.945.982.91 3.331-1.54 4.417-5.53.45-1.652 1.193-3.393 1.131-4.866z" fill="#fff" stroke="#002e78"/><path d="M10.366 108.13c3.376-.66 6.297-.704 7.271 6.574.592 5.733-1.48 10.503-8.94 13.325-1.288.384-2.018-.054-1.862-1.8.22-1.451.743-1.655 1.177-2.223 2.093-1.62 4.63-1.952 5.414-7.37-.272-2.186.341-4.239-3.072-6.898zM30.212 64.486c-5.104 1.914-6.725 7.918-9.17 13.504l6.071-2.86c.491-5.38 3.273-6.016 5.023-7.73l-.682-2.848z" fill="#fff" stroke="#002e78"/><path d="M32.76 81.24c-.43 1.245-1.154 2.68-2.185 4.382-4.122 6.81-8.91 8.131-11.737 5.313-2.827-2.818-1.581-9.03.845-12.493 2.422-3.456 6.627-8.038 9.985-5.55 3.085 2.557 4.376 4.608 3.091 8.347zm-3.386-1.578c.198-.862.073-1.686-.59-2.505-1.657-2.05-4.268.546-6.226 3.172-3.063 5.476-2.427 6.055-1.292 7.884.706 1.138 3.62-.6 5.726-4.159.872-1.474 2.05-2.955 2.382-4.392z" fill="#fff" stroke="#002e78"/><path d="M21.098 84.543c3.43.259 6.258.99 5.266 8.267-.95 5.685-4.215 9.733-12.157 10.475-1.343.028-1.93-.588-1.316-2.23.597-1.34 1.155-1.398 1.725-1.83 2.447-1.006 4.98-.654 7.175-5.67.318-2.18 1.454-3.996-1.132-7.466zM46.388 45.762c-5.332 1.131-7.83 6.826-11.08 11.986l6.43-1.923c1.287-5.247 4.133-5.46 6.118-6.895l-.25-2.918z" fill="#fff" stroke="#002e78"/><path d="M46.201 62.962c-.603 1.171-1.527 2.486-2.792 4.023-5.058 6.146-9.987 6.764-12.38 3.569-2.392-3.196-.265-9.165 2.634-12.242 2.894-3.071 7.715-7 10.68-4.055 2.685 2.974 3.668 5.19 1.858 8.705zm-3.123-2.048c.32-.824.315-1.658-.223-2.564-1.346-2.266-4.302-.074-6.618 2.243-3.819 4.98-3.272 5.643-2.413 7.616.535 1.228 3.669-.073 6.265-3.291 1.075-1.334 2.454-2.63 2.989-4.004z" fill="#fff" stroke="#002e78"/><path d="M34.186 64.553c3.357.75 6.05 1.881 4.022 8.939-1.759 5.489-5.572 9.026-13.537 8.617-1.333-.165-1.826-.86-.983-2.396.785-1.24 1.345-1.217 1.971-1.563 2.567-.644 5.023.069 7.916-4.578.628-2.112 2.014-3.746-.046-7.552zM66.475 29.648c-5.444.277-8.809 5.507-12.832 10.09l6.653-.885c2.099-4.98 4.942-4.742 7.129-5.845l.213-2.92z" fill="#fff" stroke="#002e78"/><path d="M62.427 46.639c-.772 1.068-1.881 2.23-3.361 3.561-5.919 5.324-10.885 5.2-12.774 1.684-1.889-3.517 1.104-9.102 4.43-11.712 3.32-2.606 8.672-5.772 11.165-2.418 2.212 3.341 2.853 5.679.54 8.885zm-2.784-2.49c.44-.768.56-1.594.162-2.57-.992-2.441-4.243-.714-6.878 1.232-4.518 4.354-4.078 5.092-3.522 7.171.346 1.294 3.639.475 6.686-2.32 1.261-1.159 2.819-2.235 3.552-3.514z" fill="#fff" stroke="#002e78"/><path d="M50.308 46.42c3.208 1.242 5.702 2.763 2.644 9.44-2.557 5.164-6.855 8.094-14.67 6.502-1.294-.362-1.677-1.123-.615-2.516.961-1.11 1.512-1.003 2.182-1.252 2.634-.253 4.957.817 8.51-3.346.936-1.995 2.55-3.404 1.081-7.475zM88.495 18.535c-5.319-1.195-9.963 2.94-15.069 6.275l6.646.933c3.358-4.233 6.034-3.24 8.436-3.716l.99-2.757z" fill="#fff" stroke="#002e78"/><path d="M82.174 33.042c-.93.933-2.209 1.907-3.88 2.987-6.684 4.325-11.568 3.42-12.88-.35-1.31-3.771 2.526-8.815 6.22-10.868 3.69-2.05 9.475-4.333 11.408-.628 1.657 3.648 1.922 6.057-.868 8.859zm-2.356-2.898c.555-.689.803-1.485.565-2.511-.595-2.568-4.077-1.374-6.986.132-5.149 3.587-4.83 4.385-4.609 6.526.138 1.332 3.519 1.043 6.968-1.238 1.429-.944 3.136-1.762 4.062-2.91z" fill="#fff" stroke="#002e78"/><path d="M70.241 30.916c2.972 1.732 5.196 3.627 1.124 9.738-3.34 4.697-8.045 6.912-15.512 4.108-1.22-.56-1.48-1.372-.21-2.58 1.124-.945 1.65-.753 2.352-.893 2.64.165 4.766 1.589 8.93-1.963 1.24-1.822 3.055-2.96 2.246-7.21zM110.278 11.111c-5.164-1.746-10.217 1.877-15.645 4.657l6.51 1.626c3.785-3.856 6.342-2.588 8.781-2.808l1.274-2.638z" fill="#fff" stroke="#002e78"/><path d="M102.707 26.017c-1.146.65-2.64 1.244-4.54 1.837-7.598 2.372-12.06.189-12.312-3.795-.25-3.984 4.798-7.813 8.909-8.8 4.103-.984 10.29-1.63 11.157 2.458.617 3.958.225 6.35-3.214 8.3zm-1.492-3.424c.72-.514 1.173-1.214 1.219-2.267.115-2.633-3.56-2.418-6.766-1.748-5.922 2.074-5.829 2.929-6.19 5.05-.226 1.32 3.109 1.949 7.044.678 1.63-.527 3.494-.856 4.693-1.713z" fill="#fff" stroke="#002e78"/><path d="M91.783 20.767c2.398 2.466 4.031 4.888-1.531 9.682-4.478 3.629-9.605 4.5-16.046-.205-1.025-.868-1.057-1.72.49-2.543 1.337-.608 1.793-.282 2.506-.228 2.5.867 4.164 2.809 9.13.506 1.682-1.423 3.737-2.031 4.098-6.344zM123.625 20.047c-1.209.526-2.756.96-4.708 1.35-7.806 1.559-12.014-1.081-11.845-5.07.17-3.987 5.593-7.264 9.784-7.813 4.185-.547 10.404-.54 10.837 3.617.198 4.001-.443 6.339-4.068 7.916zm-1.124-3.562c.77-.435 1.294-1.084 1.45-2.126.392-2.606-3.285-2.779-6.544-2.45-6.108 1.44-6.105 2.3-6.688 4.371-.362 1.29 2.888 2.265 6.934 1.415 1.676-.352 3.565-.484 4.848-1.21z" fill="#fff" stroke="#002e78"/><path d="M113.313 13.678c2.125 2.704 3.495 5.284-2.541 9.467-4.835 3.138-10.025 3.464-15.935-1.892-.928-.971-.87-1.82.755-2.477 1.393-.464 1.812-.092 2.515.036 2.395 1.126 3.846 3.232 9.027 1.464 1.822-1.238 3.93-1.627 4.742-5.877zM122.395 274.772c1.292-.258 2.896-.355 4.886-.323 7.96.126 11.514 3.596 10.506 7.458-1.009 3.862-7.002 5.918-11.215 5.568-4.206-.349-10.283-1.671-9.827-5.826.652-3.952 1.773-6.102 5.65-6.877zm.345 3.719c-.845.263-1.494.787-1.867 1.772-.934 2.464 2.624 3.41 5.878 3.778 6.274-.116 6.453-.957 7.46-2.859.628-1.183-2.342-2.824-6.477-2.848-1.713-.01-3.586-.281-4.994.157z" fill="#fff" stroke="#002e78"/><path d="M107.334 279.676c-.686-3.37-.753-6.29 6.518-7.321 5.729-.635 10.514 1.401 13.393 8.84.394 1.284-.04 2.017-1.786 1.874-1.453-.21-1.66-.73-2.232-1.16-1.635-2.08-1.987-4.614-7.41-5.358-2.185.29-4.242-.308-6.876 3.125zM137.678 9.672c1.869 1.345 3.672 6.627-2.967 9.824-5.278 2.315-10.453 1.798-15.42-4.443-.758-1.109-.563-1.938 1.146-2.322 1.45-.234 1.803.202 2.477.442 2.181 1.498 3.273 3.811 8.671 2.904 1.999-.928 4.14-.97 5.63-5.033z" fill="#fff" stroke="#002e78"/><path d="M152.129 283.08c.37-1.164.57-1.962.57-3.249 0-6.712-5.443-12.156-12.156-12.156-6.713 0-12.156 5.444-12.156 12.156 0 1.598-.317 2.654.244 4.052l3.21-.576c-.513-1.143-.392-2.142-.392-3.476a9.084 9.084 0 019.094-9.093c5.03 0 9.125 4.064 9.125 9.093 0 .97-.152 1.865-.434 2.743z" fill="#6b4025" stroke="#6b4025" stroke-width="1.035" stroke-linejoin="bevel"/><path d="M203.891 82.985c-.513 9.24-5.646 12.994-21.63 10.808M205.466 99.154c15.009 6.6 18.118-6.621 20.903-12.772M181.41 95.303c5.957 3.675 32.882 23.345 44.195-7.828M204.783 83.27l1.502 14.849M203.192 87.959l.884 9.453M201.45 90.511l.416 6.282M199.35 92.467l-.136 4.061M196.386 93.788l.265 2.386M207.523 83.977l1.414 16.263M207.523 83.977l1.414 16.263M209.556 84.419l1.237 15.821M213.18 100.505l-1.503-15.644M213.887 85.214l1.414 15.203M217.334 100.152l-1.591-14.496M218.041 85.833l1.68 12.286M221.628 95.94l-1.289-9.577M222.637 86.805l.796 5.657M203.722 86.452c2.287-.064 3.446-1.067 4.331-2.298M211.677 84.507c-2.767 2.12-5.38 4.517-9.28 4.596M199.609 92.499c2.355.76 16.19-6.719 15.162-7.285M218.13 85.921c-6.8 5.627-14.17 7.771-22.01 10.342M201.954 96.705c5.94-2.493 12.784-5.642 19.353-10.15M205.932 97.589c6.044-2.815 11.574-6.208 17.152-10.654M206.816 98.56c5.467-1.933 10.723-3.209 18.031-11.313M225.024 88.308c-4.343 4.761-7.833 11.525-17.59 10.872M190.376 96.97c2.388 2.822 5.502 5.248 9.722 7.071M195.988 98.207c2.236 2.283 4.186 4.629 7.853 6.593M202.927 99.268l6.01 4.95M187.017 96.793c1.237 1.414 2.85 2.704 4.087 4.118M186.11 98.352c7.49 1.421 14.593 1.684 21.766 2.153M211.942 101.213c-5.945.78-12.22 1.12-19.163.571M197.247 103.416c4.792-.15 11.757.454 17.722-1.54M199.313 98.657c2.124 1.969 4.27 3.94 7.535 6.072" fill="none" stroke="#002e78" stroke-width=".6"/><path d="M181.663 93.535l24.927 4.71-.55 1.705-24.882-4.9z" fill="#fff" stroke="#002e78" stroke-width=".9"/><path d="M203.129 81.161l23.865 4.609-.508 1.576-23.862-4.67z" fill="#fff" stroke="#002e78" stroke-width=".8"/><path d="M126.665 254.656c-51.946-7.557-91.842-52.279-91.842-106.32 0-59.34 48.104-107.444 107.444-107.444s107.444 48.104 107.444 107.444c0 55.078-41.442 100.476-94.845 106.714l-2.099-5.08-23.994-.265z" fill="none" stroke="#6b4025" stroke-width="1.27383"/><path d="M115.375 243.453l5.75 2.312.063-2.375zM164.438 243.453l-5.75 2.312-.063-2.375z" fill="#fff" stroke="#002e78"/></svg>