<svg xmlns="http://www.w3.org/2000/svg" xmlns:xlink="http://www.w3.org/1999/xlink" version="1.0" width="744" height="798.829"><defs><linearGradient id="b"><stop offset="0" stop-color="#fdb817"/><stop offset="1" stop-color="#fdb817" stop-opacity="0"/></linearGradient><linearGradient id="a"><stop offset="0" stop-color="#868686"/><stop offset=".25" stop-color="#fff"/><stop offset=".625" stop-color="#fff"/><stop offset="1" stop-color="#d7dedd"/></linearGradient><radialGradient cx="199.382" cy="235.228" r="11.03" fx="199.382" fy="235.228" id="m" xlink:href="#a" gradientUnits="userSpaceOnUse" gradientTransform="matrix(1 0 0 1.00057 0 -.135)"/></defs><g transform="translate(-27.503 -43.604)"><path d="M398.197 114.606c-24.826.223-47.66 4.484-47.66 4.484-139.104 39.938-224.292 187.885-225.056 369.25l-1.137 2.965c0 100.482 29.574 191.607 77.55 258.68h397.977c47.592-66.552 77.037-156.898 77.457-256.58.777-184.49-97.371-345.915-227.281-374.538-.525-.057-1.68-.229-3.36-.473-8.014-1.165-27.967-3.973-48.49-3.788z" fill="#8cc5f2"/><path d="M338.336 124.23l-20.255 7.729 47.449 216.886c-15.328 3.22-29.935 8.521-43.511 15.553l-96.212-165.932-13.41 15.839 97.807 156.773a175.736 175.736 0 00-36.666 30.438l-114.779-98.185-1.97 25.38 108.872 81.966a177.877 177.877 0 00-25.6 43.51l-84.96-27.003-4.313 20.42 84.209 20.61a180.01 180.01 0 00-8.346 53.148v.954c0 97.464 77.418 176.734 173.2 177.288 96.13.556 174.53-78.422 175.076-176.238a179.773 179.773 0 00-8.44-55.534l82.52-20.228-4.313-20.42-83.27 26.526c-6.607-15.955-15.49-30.713-26.164-43.892l107.746-81.106-1.969-25.381-113.747 97.327c-10.958-11.784-23.466-22.06-37.228-30.439l97.337-155.914-13.41-15.84-95.743 165.17a170.982 170.982 0 00-43.886-15.171l47.356-216.505-20.255-7.73-39.948 222.23c-14.34-1.983-28.802-1.513-43.136.192L338.336 124.23z" fill="#fdb817"/><path d="M400.688 399.322l-90.023 93.033-7.22-7.634-47.731 29.294-10.503-6.966-65.923 27.767 43.605 239.978h355.871l43.605-239.978-65.923-27.767-10.503 6.966-47.73-29.294-7.221 7.634-90.304-93.033z" fill="#022290"/><path d="M460.232 48.467C252.899 15.663 149.36 155.357 99.494 270.316h4.689C154.397 156.288 258.99 23.792 455.05 52.474l5.182-4.007zm-.084 0l-5.252 4.103c104.178 21.41 192.536 103.707 242.687 217.746h4.594C652.367 155.378 564.31 71.772 460.147 48.467zM446.22 62.814C270.6 37.038 165.271 159.741 114.78 270.316h4.689C169.144 163.22 276.917 43.27 447.96 68.243l-1.74-5.429zm-.046-.034l1.782 5.439c99.71 18.524 184.9 95 234.528 202.097h4.689C636.732 159.757 548.95 80.898 446.175 62.78zm6.05 18.655c-167.128-29.787-267.23 90.586-312.971 188.88h4.595c44.77-94.869 146.332-213.934 310.29-183.108l-1.914-5.772zm-.048-.048l1.97 5.82c85.589 20.257 158.825 88.407 203.676 183.109h4.688c-45.755-98.328-121.639-169.003-210.334-188.93zm6.752 20.706l1.875 5.82c74.093 21.13 137.584 80.685 178.639 162.403h4.689c-42.043-85.285-108.074-147.233-185.203-168.223zm-.003-.001c-52.07-12.016-95.93-6.52-134.645 7.068-83.585 29.338-137.978 102.494-166.741 160.77l4.782.386c41.082-81.717 142.326-200.639 298.468-162.45l-1.866-5.774zM449.74 118.6v5.343c70.822 17.204 132.191 71.017 172.919 146.373h4.782C586.016 192.076 522.803 136.107 449.74 118.6zm4.006 6.298c2.401-5.729 4.393-4.179.762-5.088-148.34-37.131-239.838 74.126-280.275 150.506h4.876c40.383-74.776 105.577-131.77 175.505-149.44 39.895-7.602 72.013-3.77 99.132 4.022z" fill="#fdb817"/><g transform="matrix(3.00076 0 0 3.0534 -562.642 -490.838)" id="n"><g fill="none" stroke="#a0e7fe" stroke-width="1.321"><path d="M283.095 400.561c9.58-2.623 13.798 2.09 20.797 1.28 7.531-.87 10.21-2.142 16.927-2.142M270.952 396.008c12.917-4.32 21.643.215 31.122-.238 10.322-.492 7.585-2.767 18.71-2.767M269.702 389.4c16.488-5.39 23.697-.141 33.176-.594 10.321-.493 9.156-2.678 17.95-2.678M271.577 384.222c16.488-8.415 23.697-.221 33.176-.928 10.321-.77 8.55-3.135 16.026-3.135M272.47 378.24c16.488-8.416 23.697-.222 33.176-.928 10.321-.77 7.748-2.198 15.061-2.167M281.606 362.039c6.25.513 16.93 6.851 24.665 5.898 10.272-1.266 7.546-1.63 14.495-1.63M281.398 366.666c5.618 1.334 15.888 6.6 23.623 5.646 10.272-1.266 7.94-2.167 15.776-2.167M299.031 361.85c10.985 2.912 16.282.57 21.774.694"/></g><path d="M222.586 336.164l27.392-.133 9.102 2.992c4.379-5.4 6.903-7.446 8.689-7.558.723.243.76.72.713 1.321-1.377 3.477-.609 6.151-.218 8.827.142 1.069.377 1.13.99.3 2.177-2.019 5.623-6.084 7.69-6.036 1.485.032.539 2.624 1.501 8.834l42.586 12.962.147 1.622-40.576 12.22c-1.113 9.238-2.934 14.231-9.713 21.713l.198 14.127-33.825-2.096 3.237-16.635-17.913-7.793z" fill="#fff" stroke="#000" stroke-width="0" stroke-linecap="round" stroke-linejoin="round"/><path d="M253.094 394.844l-18.344 21.5a125.172 125.172 0 0027.5 16.969l21.375-21.938a97.163 97.163 0 01-30.531-16.531z" fill="#fd1717" stroke="#000" stroke-width="1.5" stroke-linejoin="round"/><use transform="rotate(15 253.937 344.133)" width="744.094" height="1052.362" xlink:href="#c"/><use transform="rotate(15 261.073 349.22)" width="744.094" height="1052.362" xlink:href="#d"/><use transform="rotate(15 310.521 223.761)" width="744.094" height="1052.362" xlink:href="#e"/><path d="M249.01 400.98a1.09 1.09 0 11-.001.006" fill="#fff" stroke="#000" stroke-width="0" stroke-linecap="round" stroke-linejoin="round"/><use transform="rotate(15 259.01 344.516)" width="744.094" height="1052.362" xlink:href="#f"/><use transform="rotate(15 285.961 145.355)" width="744.094" height="1052.362" xlink:href="#g"/><use transform="rotate(15 253.828 352.371)" width="744.094" height="1052.362" xlink:href="#h"/><use transform="rotate(15 263.028 358.46)" width="744.094" height="1052.362" xlink:href="#i"/><path d="M252.094 396.031l-1.281 1.5a100.314 100.314 0 0029.312 16.375l1.531-1.562a98.564 98.564 0 01-29.562-16.313zm-5.969 7l-1.281 1.5a109.687 109.687 0 0028.312 16.594l1.5-1.563a107.698 107.698 0 01-28.531-16.53zm-2.281 2.656l-1.313 1.563a113.268 113.268 0 0027.969 16.625l1.5-1.563a110.925 110.925 0 01-28.156-16.625zm-5.183 7.235l-1.344 1.563c7.252 5.894 14.793 10.35 23.428 14.52l-.657-2.57c-7.877-3.957-14.75-8.08-21.427-13.513z" fill="#fff"/><path d="M257.1 417.007l-1.73 1.12c2.93 4.202 5.035 9.822 5.738 15.29l1.87-1.047c-.655-5.193-2.709-10.903-5.878-15.363z"/><path d="M259.814 415.07l-1.73 1.12c2.64 4.572 5.893 8.79 5.904 14.291l1.49-1.527c.2-2.918-2.542-9.304-5.664-13.884z" fill="#fff"/><g fill="#fdb817" fill-rule="evenodd" stroke="#404040" stroke-linecap="round" stroke-linejoin="round"><path d="M234.03 249.35c6.44-9.035 5.807-18.195 1.823-21.268-5.727 7.72-3.995 16.337-1.824 21.267zM241.13 236.535c6.197-3.058 5.68-7.642 4.407-11.106-2.99 1.114-7.429 4.23-4.406 11.106z"/><path d="M239.522 236.407c2.716-5.31 2.777-8.598.245-11.355-2.76 3.11-2.416 6.424-.245 11.355zM239.981 237.05c5.91-.803 8.644-2.631 9.461-6.284-4.129-.489-6.653 1.686-9.46 6.284z"/><path d="M235.04 250.044c5.935-2.658 12.5-8.535 12.745-14.828-4.653-.55-8.414 1.248-12.745 14.828z"/><path d="M239.833 238.555c4.436-2.397 4.065-5.991 3.154-8.707-2.14.874-5.317 3.317-3.154 8.707z"/><path d="M237.455 243.48c4.56-2.607 4.18-6.513 3.243-9.465-2.2.95-5.468 3.606-3.243 9.465z"/><path d="M235.182 248.151c4.56-2.606 4.18-6.512 3.243-9.464-2.2.95-5.468 3.606-3.243 9.464z"/><path d="M228.852 257.683c6.441-10.802 5.303-14.912 1.824-22.403-5.348 4.562-5.257 14.82-1.824 22.403zM229.665 261.359c4.283-11.826 9.604-15.697 16.186-16.228.033 8.01-5.465 15.692-16.186 16.228z"/><path d="M232.421 254.086c5.442-2.884 4.987-7.208 3.87-10.474-2.626 1.05-6.524 3.99-3.87 10.474zM224.938 268.29c6.441-16.611 1.64-19.71-1.207-24.55-5.348 4.562-5.384 15.957 1.207 24.55z"/><path d="M228.815 263.683c7.328-4.032 6.716-10.075 5.21-14.642-3.535 1.47-8.785 5.578-5.21 14.642z"/><path d="M225.483 270.902c7.994-15.374 13.028-13.54 19.536-15.267-2.331 5.762-5.425 14.833-19.536 15.267z"/><path d="M218.063 252.438c-3.702 6.74-3.285 12.971-1.063 18.625-1.351-1.496-2.746-3.211-4.063-5.407-1.428 5.656-1.026 14.956 2.743 19.811-1.012-1.203-4.422-8.588-5.399-10.217-1.66 6.57-.878 11.41 1.063 15.5-.915-1.153-1.845-2.372-2.75-3.75-3.924 18.854 4.664 26.98 11.656 37.344a450.41 450.41 0 00-.313 12.25c12.855-6.671 14.92-16.391 22.063-48.969-1.137 1.264-2.843 1.524-3.881 2.399 1.712-4.005 4.373-6.33 3.756-16.524-2.631 2.635-2.155 2.997-5.268 6.878 1.76-3.053 6.44-9.793 6.304-16.687-8.465 6.045-14.916 4.167-17.067 8.215-1.255-10.112-8.496-13.39-7.781-19.469zm8.04 20.97c.035.377-.452 9.849-.41 10.249 1.187.059 1.918-2.903 3.057-3.03-1.4.939-2.415 2.748-3.31 4.57-.048-1.426-3.103-4.44-3.311-5.58-1.525-1.794 1.703 3.439 3.316 4.16.063-8.254.599-10.103.659-10.368z"/><path d="M225.57 271.194c8.334-4.552 7.638-11.376 5.926-16.532-4.022 1.658-9.992 6.298-5.927 16.532z"/></g><path d="M244.414 360.086l-9.333-1.411c-12.77-28.409 7.215-39.66 11.068-44.92 1.342 13.975 5.278 26.044-1.735 46.33z" fill="#005707" fill-rule="evenodd" stroke="#000" stroke-linecap="round" stroke-linejoin="round"/><path d="M239.336 355.919c-30.893-26.113-37.413-30.581-32.862-56.054 2.983 11.83 46.82 28.317 32.862 56.054z" fill="#005707" fill-rule="evenodd" stroke="#000" stroke-linecap="round" stroke-linejoin="round"/><use transform="scale(1 -1) rotate(-88.521 -143.188 -35.607)" width="744.094" height="1052.362" xlink:href="#j"/><path d="M228.12 383.99c32.772-18.4-10.266-34.153-29.638-26.59 12.91 7.009 10.322 14.568 29.638 26.59zM224.986 291.332c-1.083-3.246-2.086-4.47-4.464-4.285.34-1.561 1.961-3.38 4.282-2.524 4.086-1.349 7.861-.247 6.883 4.394-2.155-1.084-4.984-1.337-6.701 2.415zM221.036 297.772c-8.276-6.627-10.266-8.774-9.084-15.017 4.78 5.257 10.245 4.53 9.084 15.017zM224.172 305.411c12.777-10.174 11.659-9.786 14.786-18.047-7.78 6.318-14.845 7.654-14.786 18.047zM222.136 311.725c-11.622-9.595-15.126-11.3-14.324-21.078 7.242 8.792 13.339 6.992 14.324 21.078zM224.019 313.619l9.197 8.363c6.786-8.208 6.23-17.764 7.715-26.79-8.757 5.258-10.497 7.435-16.912 18.427z" fill="#005707" fill-rule="evenodd" stroke="#000" stroke-linecap="round" stroke-linejoin="round"/><g transform="translate(78.084)" id="j" fill="#b05818" fill-opacity="1"><path d="M119.338 341.594c8.656-10.57 9.8-8.984 13.005-10.733 1.573-4.943 6.239-5.548 13.511-8.145l-.063 18.688-26.453.19z" fill-rule="evenodd" stroke="#000" stroke-width="1.5" stroke-linecap="round" stroke-linejoin="round"/><path d="M163.571 348.255a17.321 17.321 0 11-34.642 0 17.321 17.321 0 1134.642 0z" stroke="#000" stroke-width="1.5" stroke-linejoin="round"/><path d="M144.722 345.489l11.708-10.587" id="k" fill="#b05818" fill-opacity="1" fill-rule="evenodd" stroke="#000" stroke-width="2" stroke-linecap="round" stroke-linejoin="round" stroke-miterlimit="4" stroke-opacity="1" stroke-dasharray="none"/><use transform="translate(4.924 5.43)" width="744.094" height="1052.362" xlink:href="#k"/></g><g><use transform="matrix(.80128 -.3215 .3215 .80128 -48.267 128.171)" width="744.094" height="1052.362" xlink:href="#l"/><use transform="scale(.88958) rotate(26.187 166.116 364.705)" width="744.094" height="1052.362" xlink:href="#l"/><path d="M209.102 239.694c-1.175 2.485-3.193.718-5.646 1.958-2.658 1.344-2.42 3.992-5.374 3.614-2.727-.35-1.67-2.815-3.607-4.765-2.1-2.113-4.544-1.067-5.097-3.994-.51-2.701 2.16-2.457 3.416-4.902 1.361-2.65-.388-4.652 2.225-6.083 2.41-1.32 3.004 1.296 5.718 1.735 2.94.475 4.303-1.808 6.471.235 2 1.885-.304 3.258.118 5.974.457 2.944 3.049 3.535 1.776 6.228z" transform="matrix(.42892 .29338 -.29335 .42907 210.253 109.718)" id="l" fill="url(#m)" fill-opacity="1" stroke="#b4b4b4" stroke-width="2.886" stroke-linecap="round" stroke-linejoin="round" stroke-miterlimit="4" stroke-opacity="1" stroke-dasharray="none"/></g><path d="M278.55 346.224c1.153 7.959 2.446 18.3 2.034 24.15l38.526-11.89-40.56-12.26zM257.64 340.272l-7.543-2.425c.025 7.509-2.042 17.191-3.722 24.145 3.363-7.725 8.069-17.193 11.264-21.72z" fill="#01015f" stroke="#404040" stroke-width="0" stroke-linecap="round" stroke-linejoin="round"/><path d="M238.27 361.039c4.676-.026 9.317 4.784 8.333 7.45-3.535 1.871-6.14-1.604-8.333-7.45z" fill="#005707" stroke="#000" stroke-linecap="round" stroke-linejoin="round"/><path d="M254.874 385.802c-5.154-22.299 16.462-45.343 21.58-48.436.03 18.814 10.537 43.192-11.093 57.855l-10.487-9.42z" fill="#005707" fill-rule="evenodd" stroke="#000" stroke-linecap="round" stroke-linejoin="round"/><path d="M246.574 378.211c.043-23.589 16.966-43.15 20.713-45.516-4.35 8.127 11.397 29.545-8.098 53.5l-12.615-7.984z" fill="#005707" fill-rule="evenodd" stroke="#000" stroke-linecap="round" stroke-linejoin="round"/><path d="M272.86 395.51c-13.55-8.154-27.01-23.1-25.668-26.798-1.486-.287-7.368-1.452-9.814-9.188l-4.799 4.167c2.564 3.656 6.849 6.05 5.826 9.706 6.73 10.501 18.99 20.853 31.045 29.69l3.41-7.577z" fill="#b05818" stroke="#000" stroke-linecap="round" stroke-linejoin="round"/></g><use transform="matrix(-1 0 0 1 799.005 0)" width="744.094" height="1052.362" xlink:href="#n" fill="none"/><g transform="matrix(3.00076 0 0 3.0534 -560.399 -490.838)"><path d="M270.344 393.906l-15.25 23.781a125.087 125.087 0 0056.121 17.896c2.769.199 5.563.307 8.379.323 24.134.137 46.739-6.563 65.969-18.25l-15.25-23.75c-14.778 8.832-32.072 13.886-50.532 13.781-18.07-.102-34.962-5.13-49.437-13.78z" fill="#fd1717" stroke="#000" stroke-width="1.5" stroke-linecap="round" stroke-linejoin="round"/><path d="M370.471 395.6c-14.828 8.67-32.301 13.723-50.721 13.619-18.01-.103-35.086-5.155-49.596-13.633l-1.062 1.656c14.823 8.685 32.26 13.872 50.658 13.977 18.811.107 36.66-5.056 51.815-13.932l-1.094-1.688zm5 7.75c-16.292 9.6-35.507 15.171-55.783 15.056-19.822-.112-38.574-5.688-54.503-15.07l-1.062 1.656c16.242 9.588 35.351 15.3 55.564 15.414 20.664.118 40.244-5.568 56.846-15.37l-1.062-1.687zm-112.16 2.924l-1.126 1.718c16.797 9.941 36.59 15.858 57.503 15.977 21.36.121 41.63-5.784 58.783-15.932l-1.063-1.688a112.217 112.217 0 01-57.72 15.62c-20.531-.117-39.886-5.946-56.378-15.695zm-4.75 7.406l-1.063 1.625c18.141 10.802 39.539 17.223 62.158 17.351 23.11.132 44.982-6.274 63.502-17.307l-1.03-1.625-2.438 1.281c-17.676 9.986-38.285 15.775-60.034 15.651-21.254-.12-41.364-5.934-58.658-15.695l-2.438-1.281z" fill="#fff"/><use transform="translate(17.615 1.452)" width="744.094" height="1052.362" xlink:href="#o"/><g id="p" stroke="#000" stroke-width="0" stroke-linecap="round" stroke-linejoin="round"><path d="M322.674 429.543c-.777.453-1.04-.255-1.939-.252-.9.003-1.156.714-1.937.267-.78-.447-.298-1.028-.75-1.805-.454-.778-1.197-.645-1.2-1.544-.004-.9.74-.773 1.187-1.554.447-.78-.04-1.358.738-1.81.777-.453 1.04.255 1.939.252.9-.004 1.156-.714 1.937-.267.78.446.298 1.028.75 1.805.453.777 1.197.645 1.2 1.544.004.9-.74.773-1.187 1.553-.447.781.04 1.359-.738 1.811z" fill="#fff" stroke-width="0"/><path d="M319.062 426.184a1.662 1.662 0 110 .01" fill="#fd1717" stroke-width="0"/></g><g id="r"><g id="c" stroke="#000" stroke-width="0" stroke-linecap="round" stroke-linejoin="round"><path d="M274.187 408.078c-.777.452-1.04-.256-1.94-.253-.899.004-1.156.714-1.936.267-.781-.446-.299-1.028-.751-1.805-.453-.777-1.197-.645-1.2-1.544-.004-.9.741-.773 1.188-1.553.447-.781-.04-1.359.737-1.812.778-.452 1.04.256 1.94.253.899-.003 1.156-.714 1.937-.267.78.447.298 1.028.75 1.805.453.778 1.197.645 1.2 1.544.004.9-.741.773-1.188 1.554-.447.78.04 1.358-.737 1.81z" fill="#fff" stroke-width="0"/><path d="M270.574 404.719a1.662 1.662 0 110 .01" fill="#fd1717" stroke-width="0"/></g><use transform="translate(14.9 6.124)" id="d" x="0" y="0" width="744.094" height="1052.362" xlink:href="#c"/><use transform="translate(15.973 4.104)" id="o" x="0" y="0" width="744.094" height="1052.362" xlink:href="#d"/><use transform="translate(-18.877 -1.768)" id="e" x="0" y="0" width="744.094" height="1052.362" xlink:href="#p"/><use transform="translate(-18.183 -4.42)" id="q" x="0" y="0" width="744.094" height="1052.362" xlink:href="#e"/><use transform="translate(-15.531 -6.566)" width="744.094" height="1052.362" xlink:href="#q"/></g><use transform="matrix(-1 0 0 1 641.447 0)" width="744.094" height="1052.362" xlink:href="#r"/></g><g transform="matrix(3.00076 0 0 3.0534 -561.757 -490.838)"><path d="M279.244 406.442a1.09 1.09 0 110 .007" id="f" fill="#fff" fill-opacity="1" stroke="#000" stroke-width="0" stroke-linecap="round" stroke-linejoin="round" stroke-miterlimit="4" stroke-opacity="1" stroke-dasharray="none"/><use transform="translate(15.279 4.798)" id="s" x="0" y="0" width="744.094" height="1052.362" xlink:href="#f"/><use transform="translate(16.541 2.652)" id="g" x="0" y="0" width="744.094" height="1052.362" xlink:href="#s"/><use transform="translate(-37.186 4.609)" id="h" x="0" y="0" width="744.094" height="1052.362" xlink:href="#g"/><use transform="translate(17.488 5.872)" id="i" x="0" y="0" width="744.094" height="1052.362" xlink:href="#h"/><use transform="translate(18.751 3.283)" width="744.094" height="1052.362" xlink:href="#i"/></g><g transform="matrix(-3.00076 0 0 3.0534 1363.414 -490.838)"><path d="M279.244 406.442a1.09 1.09 0 110 .007" fill="#fff"/><use transform="translate(15.279 4.798)" width="744.094" height="1052.362" xlink:href="#f"/><use transform="translate(16.541 2.652)" width="744.094" height="1052.362" xlink:href="#s"/><use transform="translate(-37.186 4.609)" width="744.094" height="1052.362" xlink:href="#g"/><use transform="translate(17.488 5.872)" width="744.094" height="1052.362" xlink:href="#h"/><use transform="translate(18.751 3.283)" width="744.094" height="1052.362" xlink:href="#i"/></g></g></svg>