<svg xmlns="http://www.w3.org/2000/svg" height="601" width="601" overflow="visible"><g clip-rule="evenodd" fill-rule="evenodd"><path d="M300.5.5C134.855.5.5 134.844.5 300.5c.013 165.637 134.355 300 300 300 165.654 0 300-134.363 300-300 0-165.665-134.346-300-300-300z" fill="#68b0e5"/><path d="M100.682 449.83l61.643 52.582-21.543-33.032 28.726 28.004-35.188-58.887 47.39 50.98-19.383-40.212 28 34.472-21.776-51.252 1.762 2.15 4.24 4.9 4.314 4.72 2.35 2.423 23.486 31.32-5.156-13.756 1.803 1.64 4.61 4.08 4.61 4.046 4.627 4.044 4.628 4.045 4.61 4.063.947.857c-21.007 7.251-38.735 17.217-50.75 28.86-28.854-16.926-54.014-39.428-73.948-66.083zm103.857-1.403l-18.512-51.58 45.95 71.093-12.917-43.09 22.975 38.772-17.946-77.543 30.882 73.244-5.029-46.68 15.76 40.722 2.697 23.394a243.21 243.21 0 00-28.842 5.903l-2.824-3.024-4.537-4.665-4.573-4.555-4.61-4.463-4.627-4.41-4.61-4.372-4.61-4.337-4.573-4.336zm62.676 4.938l.674-77.343 14.375 81.15.71-52.436 11.498 51.708 5.739-98.387 5.739 98.387 11.497-51.708.71 52.437 14.376-81.151.656 74.136-2.934 25.398c-14.102-1.494-28.295-1.712-42.124-.838a257.42 257.42 0 00-18.238 1.84zm66.94 1.475l16.324-42.197-5.029 46.68 30.883-73.244-17.946 77.543 22.975-38.771-12.936 43.09 45.968-71.094-18.53 51.635v.018l-4.573 4.336-4.61 4.337-4.627 4.372-4.61 4.41-4.61 4.463-4.572 4.555-4.537 4.665-1.549 1.676c-10.002-2.587-20.205-4.428-30.445-5.576zm66.702 9.457l-5.138 13.7 23.358-31.155 2.514-2.587 4.318-4.72 4.227-4.9 1.694-2.06-21.754 51.162 28.022-34.472-19.404 40.211 47.408-50.979-35.2 58.887 28.732-28.022-21.536 33.05 60.49-51.598a250.218 250.218 0 01-69.873 63.095c-15.56-12.626-33.306-21.9-52.072-28.295l3.99-3.535 4.628-4.027 4.628-4.044 4.61-4.045 4.609-4.081z" fill="#f8a500"/><path d="M84.496 198.178c31.16 61.62-1.039 134.681 68.548 178.645 22.503 71.33 95.896 89.678 123.59 167.221-39.81-66.12-101.433-81.35-135.015-157.874-68.895-47.08-37.043-108.7-57.123-187.992zm431.462 0c-31.155 61.62 1.039 134.681-68.542 178.645-22.502 71.313-95.891 89.66-123.603 167.221 39.828-66.137 101.447-81.37 135.026-157.874 68.89-47.08 37.041-108.717 57.12-187.992zM362.311 310.285c1.986 1.585 3.99 3.17 5.976 4.755-2.113 2.952-4.245 5.903-6.359 8.873-3.079-1.785-6.14-3.59-9.219-5.375 1.895-2.933 5.375-5.648 9.602-8.253zm129.014 81.843c-2.15 3.425-4.281 6.869-6.431 10.294 8.49 4.901 16.98 9.784 25.471 14.685-.93-10.24-6.158-18.948-19.04-24.979zm-13.506 23.04c1.913-3.57 4.027-7.486 5.94-11.057 8.472 4.92 17.462 10.19 25.935 15.109-11.792 6.104-20.214 4.454-31.875-4.052zm-128.9-82.856c2.314 1.057 4.647 2.114 6.96 3.17 1.658-3.242 3.335-6.467 4.993-9.71-2.988-1.914-5.976-3.845-8.983-5.758-1.749 3.025-2.569 7.36-2.97 12.298zm-110.721-22.009c-2.004 1.567-3.99 3.152-5.994 4.737 2.131 2.952 4.245 5.922 6.358 8.873 3.08-1.785 6.159-3.59 9.238-5.375-1.895-2.933-5.393-5.648-9.602-8.235zm-128.926 81.638c2.14 3.443 4.424 7.134 6.567 10.577-8.483 4.865-17.29 9.813-25.78 14.696 1.01-14.48 9.384-21.517 19.213-25.274zm13.295 23.277c-1.911-3.571-4.04-7.424-5.95-10.995-8.47 4.92-17.16 10.062-25.633 14.98 9.33 4.3 19.933 4.177 31.583-3.985zm129.04-82.924a2581.514 2581.514 0 00-6.96 3.17c-1.657-3.224-3.333-6.468-5.01-9.71 3.007-1.914 5.995-3.827 9-5.758 1.75 3.024 2.57 7.36 2.97 12.298z" fill="#fff"/><path d="M99.015 470.59l2.095 2.679-11.7 9.128c-2.032 1.603-3.829 2.623-5.388 3.097-1.56.474-3.178.4-4.867-.219-1.693-.6-3.296-1.894-4.82-3.844-1.482-1.895-2.371-3.699-2.656-5.411-.293-1.713-.02-3.316.819-4.81.834-1.476 2.323-3.061 4.469-4.737l11.699-9.128 2.091 2.678-11.686 9.128c-1.758 1.366-2.926 2.55-3.502 3.516-.579.984-.78 2.041-.612 3.189.17 1.148.705 2.314 1.604 3.462 1.54 1.967 3.084 3.024 4.635 3.17 1.543.127 3.585-.784 6.127-2.77zm-14.919 22.775l18.482-17.855 2.424 2.514-5.137 23.722 14.51-14.01 2.265 2.331-18.482 17.856-2.423-2.515 5.149-23.722-14.523 14.011zm25.676 25.326l16.855-19.386 7.313 6.358c1.288 1.112 2.217 2.041 2.788 2.752.814.983 1.35 1.967 1.609 2.988.256 1.002.23 2.077-.073 3.206-.306 1.148-.877 2.205-1.713 3.17-1.434 1.64-3.174 2.588-5.215 2.825-2.04.218-4.434-.857-7.174-3.244l-4.974-4.318-6.853 7.871zm11.405-7.944l5.014 4.372c1.658 1.44 3.103 2.15 4.335 2.132 1.233-.018 2.334-.565 3.307-1.694.707-.82 1.107-1.677 1.2-2.624a3.8 3.8 0 00-.628-2.55c-.337-.493-1.079-1.24-2.243-2.242l-4.961-4.318zm7.057 23.503l14.366-21.299 15.4 10.404-1.697 2.514-12.583-8.49-4.398 6.522 11.783 7.944-1.685 2.496-11.785-7.944-4.89 7.252 13.078 8.818-1.696 2.515zm46.542-.546l2.977 1.658-7.198 12.99c-1.252 2.241-2.502 3.9-3.752 4.956-1.25 1.039-2.767 1.603-4.562 1.695-1.798.09-3.775-.456-5.942-1.658-2.104-1.167-3.63-2.478-4.562-3.954-.94-1.458-1.313-3.043-1.12-4.737.187-1.695.942-3.735 2.263-6.104l7.198-12.99 2.972 1.64-7.19 12.972c-1.082 1.95-1.696 3.498-1.847 4.61-.151 1.129.082 2.186.683 3.188.607.984 1.55 1.84 2.826 2.55 2.186 1.203 4.021 1.567 5.504 1.094 1.474-.474 2.997-2.114 4.559-4.938l7.19-12.972zm-4.444 26.746l11.26-23.102 8.71 4.245c1.548.747 2.677 1.403 3.406 1.931 1.039.747 1.822 1.567 2.332 2.478.51.893.766 1.95.766 3.134s-.274 2.35-.839 3.48c-.965 1.967-2.386 3.334-4.3 4.081-1.912.747-4.518.328-7.78-1.257l-5.922-2.897-4.577 9.383zm8.964-10.64l5.976 2.915c1.968.966 3.553 1.294 4.738.966 1.184-.346 2.113-1.166 2.75-2.496.475-.984.639-1.932.493-2.843-.164-.929-.583-1.694-1.276-2.314-.437-.382-1.348-.91-2.75-1.585l-5.904-2.878zm12.79 20.406l9.202-23.977 3.188 1.22-8.126 21.154 11.807 4.536-1.075 2.824zm18.822 7.343l6.65-24.834 17.946 4.81-.801 2.933-14.649-3.917-2.04 7.598 13.737 3.662-.783 2.915-13.738-3.68-2.26 8.454 15.232 4.081-.783 2.933zm32.413.437l.492-3.134 9.583 1.512-.492 3.134zm40.612-12.882l3.388.237-1.02 14.813c-.182 2.569-.62 4.591-1.312 6.085-.692 1.458-1.822 2.624-3.425 3.462-1.585.857-3.608 1.184-6.085 1.002-2.387-.164-4.337-.71-5.794-1.64-1.476-.929-2.478-2.204-3.025-3.826-.546-1.621-.71-3.771-.528-6.486l1.038-14.813 3.39.237-1.04 14.795c-.145 2.223-.054 3.88.274 4.956.346 1.093 1.002 1.949 1.968 2.587.965.656 2.186 1.02 3.644 1.111 2.496.182 4.3-.255 5.447-1.312 1.13-1.056 1.822-3.188 2.041-6.413zm7.287 26.365l-.455-25.69 3.48-.055 13.847 19.932-.346-20.169 3.261-.055.456 25.69-3.499.055-13.847-19.95.365 20.187zm35.766-1.294l-2.678-25.562 9.583-1.003c1.95-.2 3.535-.109 4.774.274a6.162 6.162 0 013.024 2.113c.784 1.002 1.24 2.077 1.367 3.262a5.68 5.68 0 01-.583 3.17c-.474 1.038-1.294 1.895-2.424 2.623 1.586.292 2.861.948 3.808 1.932.948 1.02 1.494 2.259 1.64 3.753.128 1.203 0 2.332-.4 3.425-.401 1.075-.948 1.932-1.622 2.57-.693.637-1.585 1.147-2.679 1.548-1.074.4-2.441.692-4.063.875zm1.822-15.177l5.539-.583c1.494-.146 2.55-.365 3.188-.638.82-.328 1.44-.838 1.804-1.476.364-.637.51-1.403.419-2.295-.091-.838-.364-1.567-.838-2.169-.474-.6-1.112-.983-1.895-1.147-.765-.164-2.077-.146-3.917.054l-5.102.529zm1.239 11.806l6.359-.674c1.11-.11 1.858-.237 2.295-.364.765-.219 1.385-.529 1.877-.911.492-.365.874-.893 1.148-1.549.273-.656.364-1.385.273-2.205-.091-.947-.42-1.749-.984-2.405-.565-.655-1.293-1.075-2.204-1.275-.875-.182-2.15-.2-3.772-.018l-5.903.62zm31.757-28.44l3.334-.711 3.097 14.52c.529 2.533.675 4.592.401 6.195-.255 1.622-1.02 3.043-2.314 4.282-1.293 1.257-3.152 2.132-5.575 2.642-2.35.51-4.373.51-6.03.018-1.677-.492-2.989-1.44-3.954-2.842-.984-1.403-1.731-3.425-2.314-6.085l-3.08-14.522 3.335-.71 3.079 14.503c.456 2.186 1.002 3.753 1.622 4.682.637.966 1.494 1.604 2.605 1.95 1.111.364 2.387.382 3.808.073 2.441-.51 4.063-1.44 4.883-2.77.783-1.33.856-3.57.182-6.723zm20.606 21.098l-6.613-21.664-8.09 2.478-.893-2.897 19.477-5.958.875 2.897-8.126 2.478 6.632 21.682zm18.603-14.503l-1.24-2.915 8.91-3.79 1.24 2.915zm27.166-33.05l2.97-1.659 7.196 12.99c1.257 2.242 1.986 4.191 2.223 5.795.219 1.621-.11 3.206-.984 4.773-.874 1.585-2.387 2.97-4.555 4.173-2.095 1.166-4.026 1.749-5.757 1.767-1.75.018-3.28-.51-4.628-1.567-1.33-1.057-2.642-2.77-3.972-5.138l-7.197-12.99 2.97-1.659 7.197 12.973c1.075 1.95 2.059 3.298 2.933 4.008.875.729 1.895 1.093 3.043 1.112 1.166.018 2.387-.347 3.662-1.039 2.186-1.22 3.48-2.587 3.863-4.1.364-1.493-.219-3.662-1.786-6.486zm20.296 17.964l-13.628-21.791 2.97-1.84 22.137 9.948-10.695-17.109 2.77-1.73 13.61 21.79-2.952 1.859-22.155-9.966 10.713 17.108zm21.554-14.612l-15.45-20.516 14.83-11.187 1.823 2.423-12.116 9.128 4.737 6.286 11.35-8.545 1.805 2.405-11.351 8.545 5.265 6.978 12.608-9.492 1.822 2.423zm25.909-21.828L478.41 494.64l12.681-11.824 2.06 2.223-10.186 9.492 5.43 5.83 8.818-8.217 2.06 2.205-8.801 8.235 7.944 8.527zm5.174-23.102c-3.17-2.843-4.9-5.94-5.156-9.256-.255-3.316.82-6.322 3.243-9 1.585-1.768 3.444-2.989 5.557-3.645a11.262 11.262 0 016.45-.054c2.168.6 4.209 1.785 6.122 3.498 1.931 1.749 3.316 3.698 4.136 5.848.82 2.169.984 4.3.492 6.45-.51 2.15-1.513 4.045-3.007 5.703-1.621 1.804-3.498 3.006-5.648 3.644-2.131.638-4.281.638-6.45.018a14.448 14.448 0 01-5.739-3.207zm2.387-2.57c2.296 2.078 4.664 3.08 7.106 3.043 2.441-.036 4.5-1.002 6.176-2.86 1.713-1.913 2.46-4.081 2.223-6.505-.237-2.441-1.585-4.755-4.045-6.978-1.548-1.403-3.133-2.35-4.773-2.86-1.622-.529-3.225-.565-4.774-.128-1.549.437-2.879 1.275-4.026 2.533-1.604 1.803-2.369 3.88-2.314 6.285.073 2.387 1.548 4.883 4.427 7.47zm26.036-11.587l-20.242-15.815 2.095-2.678 20.242 15.814zM291.676 15.663l-.51 14.86c-.11 2.72.127 4.899.729 6.49.6 1.59 1.64 2.816 3.133 3.702 1.494.878 3.462 1.339 5.867 1.423 2.46.084 4.482-.297 6.03-1.196 1.568-.896 2.68-2.091 3.299-3.587.656-1.501 1.002-3.566 1.093-6.15l.51-14.803-3.352-.115-.529 14.804c-.11 3.22-.71 5.397-1.822 6.492-1.093 1.095-2.897 1.563-5.393 1.48-1.476-.055-2.715-.363-3.717-.968-.984-.61-1.658-1.434-2.04-2.505-.383-1.072-.529-2.723-.456-4.954l.565-14.86zm28.113.455l-3.134 25.508 19.022 2.334.4-3.018-15.65-1.936 1.075-8.655 14.065 1.71.401-2.961-14.12-1.766.966-7.8 15.03 1.879.402-3.017zm-47.134.627c-.565-.002-1.13.042-1.713.113-2.332.288-4.391 1.082-6.14 2.392-1.75 1.31-3.006 3.055-3.772 5.238-.765 2.192-.984 4.542-.674 7.06.31 2.526 1.075 4.77 2.332 6.662a11.246 11.246 0 004.956 4.155c2.022.88 4.172 1.141 6.486.855 2.278-.282 4.282-1.048 6.031-2.334 2.004 1.203 3.954 2.011 5.867 2.449l.692-2.449c-1.385-.335-2.933-.936-4.61-1.822a12.009 12.009 0 002.333-4.726c.437-1.753.546-3.715.273-5.809-.31-2.53-1.093-4.715-2.332-6.604-1.24-1.892-2.86-3.27-4.901-4.156a12.017 12.017 0 00-4.828-1.024zm-.11 2.96a8.27 8.27 0 013.462.797c1.458.681 2.642 1.729 3.535 3.188.892 1.454 1.457 3.23 1.712 5.295.438 3.63-.237 6.433-2.004 8.485-1.385-.92-3.043-1.518-5.065-1.822l-.565 2.562c1.203.143 2.387.468 3.535 1.023-1.02.58-2.114.988-3.316 1.14-2.533.309-4.737-.362-6.596-1.936-1.858-1.572-3.006-3.973-3.425-7.288-.42-3.421.091-6.101 1.549-8.027 1.439-1.92 3.407-3.048 5.921-3.36.42-.051.838-.062 1.257-.057zm-19.932.113l-3.37.57 4.445 25.337 3.37-.627zm103.616 1.367l-5.74 24.996 8.983 2.106c1.512.346 2.933.532 4.172.514 1.22-.013 2.278-.212 3.243-.57.948-.36 1.877-.964 2.788-1.766.91-.802 1.767-1.88 2.55-3.245.784-1.365 1.385-2.994 1.823-4.896.528-2.232.655-4.32.4-6.207-.255-1.89-.874-3.535-1.93-4.952-.82-1.1-1.95-1.957-3.299-2.62-.965-.47-2.386-.917-4.336-1.367zM231.24 24.202l-3.298.798 5.74 24.996 15.668-3.588-.674-2.96-12.298 2.847-5.12-22.091zm127.593.683l5.302 1.196c1.968.455 3.352.993 4.154 1.537 1.13.76 1.968 1.928 2.514 3.531.529 1.604.474 3.7-.127 6.32-.437 1.892-1.02 3.443-1.767 4.669-.747 1.22-1.586 2.128-2.551 2.733-.693.431-1.567.708-2.57.798-1.001.089-2.331-.073-3.99-.456l-5.338-1.197zm24.779 3.245l-4.61 14.12c-.838 2.586-1.22 4.68-1.075 6.38.128 1.694.838 3.186 2.041 4.441 1.203 1.263 2.897 2.276 5.193 3.018 2.35.765 4.39.947 6.14.512 1.749-.43 3.134-1.294 4.154-2.562 1.02-1.26 1.931-3.125 2.733-5.579l4.61-14.12-3.244-1.026L395 47.378c-.984 3.062-2.168 5.001-3.534 5.75-1.349.747-3.243.721-5.63-.057-1.385-.45-2.46-1.082-3.243-1.936-.784-.862-1.24-1.888-1.312-3.018-.073-1.137.273-2.714.965-4.839l4.555-14.12-3.188-1.024zm-167.84 1.026c-1.076.04-2.37.288-3.754.742l-9.183 3.017 7.98 24.425 9.274-3.075c1.567-.503 2.843-1.03 3.827-1.65.983-.622 1.73-1.342 2.277-2.107.528-.765.911-1.706 1.075-2.848.164-1.137.036-2.274-.346-3.416-.456-1.423-1.257-2.51-2.387-3.302-1.13-.781-2.478-1.186-4.1-1.138.966-.94 1.55-1.97 1.823-3.076.273-1.106.218-2.14-.11-3.188-.364-1.119-1.02-2.083-2.004-2.903a6.138 6.138 0 00-3.407-1.424c-.328-.033-.62-.07-.966-.057zm0 3.132c.783-.013 1.457.193 2.04.683.583.49 1.002 1.181 1.257 1.994.273.854.346 1.634.11 2.334-.237.706-.73 1.306-1.476 1.822-.565.388-1.585.792-3.025 1.253l-5.229 1.707-2.387-7.344 4.829-1.594c1.749-.569 3.06-.85 3.862-.855zm-20.68 3.416l-3.061 1.367 6.03 13.552c1.313 2.948 1.695 5.132 1.185 6.604-.51 1.465-1.913 2.74-4.209 3.757-1.33.598-2.532.855-3.698.74-1.148-.115-2.15-.565-2.952-1.367-.82-.794-1.658-2.228-2.569-4.268l-6.03-13.55-3.134 1.366 6.03 13.55c1.112 2.487 2.296 4.35 3.535 5.522 1.239 1.168 2.715 1.8 4.446 1.937 1.73.133 3.716-.273 5.921-1.253 2.26-1.006 3.88-2.269 4.901-3.757 1.002-1.489 1.44-3.043 1.367-4.67-.092-1.621-.656-3.62-1.713-5.978l-6.03-13.55zm225.634 6.492l-11.661 22.888 2.897 1.48 9.966-19.474-3.298 22.831 2.733 1.423 16.398-15.771-9.802 19.13 2.97 1.482 11.66-22.831-4.1-2.106-13.61 13.15a232.104 232.104 0 00-3.06 3.02c.146-.868.346-2.165.62-3.93l2.842-18.96-4.555-2.334zm-201.037.228c.929.007 1.767.218 2.46.74.673.519 1.184 1.246 1.475 2.162.255.776.292 1.522.164 2.221-.127.7-.383 1.294-.783 1.766-.401.472-.948.876-1.658 1.253-.401.217-1.112.51-2.169.853l-6.085 1.937-2.733-8.37 5.63-1.823c1.567-.502 2.788-.74 3.699-.74zm-52.213 6.83c-.805.035-1.665.232-2.563.569-.862.306-2.057.852-3.53 1.709l-8.37 4.839 12.869 22.263 2.902-1.71-5.238-9.05 5.752-3.248c3.147-1.818 4.903-3.746 5.351-5.75.45-2.006.128-3.975-.967-5.865-.634-1.107-1.405-1.96-2.392-2.618-.98-.663-1.983-1.055-3.018-1.139a6.096 6.096 0 00-.796 0zm-.798 3.302a3.8 3.8 0 011.937.342c.854.394 1.567 1.057 2.106 1.994.744 1.286.9 2.476.512 3.643-.388 1.172-1.514 2.316-3.416 3.417l-5.75 3.301-4.612-7.915 5.694-3.301c1.334-.765 2.272-1.212 2.846-1.366.222-.059.463-.097.683-.115zm-20.042 7.8l-15.2 10.65 14.69 21.008 15.715-10.988-1.71-2.449-12.924 8.997-5.01-7.116 11.614-8.143-1.707-2.505-11.671 8.142-4.499-6.433 12.411-8.711-1.709-2.449zm309.518 1.765l-22.83 15.374 2.952 2.05 6.778-4.783 8.818 6.206-2.04 8.084 3.188 2.22 6.14-27.101zm-.128 3.189a75.236 75.236 0 00-1.585 5.41l-1.876 7.343-7.124-4.954 6.614-4.554a32.243 32.243 0 003.971-3.245zm14.868 7.231l-15.833 20.213 12.644 9.906 1.877-2.39-9.966-7.8 13.956-17.88zM124.1 78.235a5.342 5.342 0 00-1.822.34c-1.203.43-2.657 1.403-4.384 2.905l-8.598 7.459 16.853 19.358 2.562-2.22-7.463-8.597 2.96-2.561c.666-.582 1.138-1.004 1.48-1.196.485-.244 1.055-.371 1.653-.455.597-.09 1.366-.082 2.39.115 1.024.196 2.449.572 4.215 1.08l6.034 1.822 3.245-2.79-7.971-2.39a17.587 17.587 0 00-4.384-.683c-.629-.005-1.37.076-2.334.34 1.64-1.872 2.44-3.634 2.505-5.35.071-1.717-.453-3.295-1.65-4.67a7.33 7.33 0 00-3.36-2.221 6.242 6.242 0 00-1.935-.284zm-.343 3.416c1.177.013 2.165.503 2.96 1.423.544.623.906 1.332 1.027 2.164.12.831-.066 1.627-.514 2.45-.454.814-1.274 1.772-2.447 2.789l-5.466 4.782-5.583-6.433 6.093-5.295c1.436-1.25 2.75-1.89 3.928-1.878zm364.286 4.84l-16.853 19.416 2.569 2.22 16.853-19.358z"/><path d="M80.509 186.728l1.252 5.41c.245 1.029.34 1.39.513 2.22l2.733 11.501 1.423 7.231 1.196 7.117 1.025 7.06.797 6.947.626 6.832.456 6.776.398 6.661.342 6.548.228 6.434.227 6.377.228 6.32.285 6.206.284 6.092.456 5.978.512 5.922.684 5.864.854 5.751 1.025 5.694 1.31 5.58 1.536 5.465 1.822 5.41 2.107 5.351 2.505 5.182 2.847 5.181 3.245 5.01 3.701 5.01 4.157 4.84 4.612 4.783 5.124 4.669 5.637 4.555 5.978 4.327-23.686 15.202-7.345-11.729-2.22 1.082c-2.613 1.202-4.994 2.834-7.288 4.555-3.112 2.341-5.633 5.385-7.63 8.711-1.605 2.866-2.675 5.994-3.245 9.224-.312 1.693-.443 3.414-.626 5.124l-.208.226.262.006 2.907 1.305a29.706 29.706 0 008.483 2.335 27.28 27.28 0 009.053-.455c4.662-.952 8.91-3.122 12.868-5.694l2.05-1.367-6.434-11.956 23.685-15.202 2.449 5.352 3.416 6.718 3.53 6.377 3.7 6.035 3.816 5.808 3.928 5.58 8.2 10.362 4.27 4.897 4.27 4.726 2.391 2.448 6.49 6.548 4.499 4.27 4.555 4.213 4.555 4.157 4.612 4.099 4.611 4.043 4.67 4.042 4.611 4.043 4.612 4.042 4.555 4.156 4.555 4.157 4.555 4.27 4.498 4.441 4.384 4.498 4.327 4.669 4.27 4.84 4.214 5.067 4.1 5.238 3.985 5.466 3.928 5.75 4.612 7.346.285 2.619c1.057.09 2.113.155 3.188.227l-2.334-6.092-10.362-89.447c-5.388-45.707-15.829-137.161-15.829-137.161L83.697 193.56zm439.438 0l-2.96 6.32-168.078 122.927-.285.228v.341l-15.43 133.631-10.875 94.287-1.708 4.441c.93-.073 1.822-.211 2.733-.284l.17-1.708 5.182-8.2 3.872-5.75 3.985-5.466 4.1-5.238 4.213-5.067 4.27-4.84 4.328-4.669 4.44-4.498 4.499-4.44 4.498-4.271 4.555-4.157 9.167-8.255 4.611-3.986 4.67-4.043 4.611-4.042 4.612-4.1 19.928-19.073 2.562-2.562 4.27-4.726 4.27-4.897 1.652-2.05 2.96-3.643 3.587-4.67 3.93-5.58 3.814-5.807 3.7-6.035 3.53-6.377 3.417-6.718 2.96-6.491 23.345 15.714-6.548 12.583c3.636 2.592 7.512 4.857 11.786 6.206a27.51 27.51 0 0012.127 1.31c4.044-.363 7.732-1.99 11.374-3.66l.275.033-.205-.245c-.282-3.687-.861-7.346-2.163-10.818-1.642-4.177-4.306-7.727-7.573-10.76-3.247-3.12-7.268-5.167-11.273-7.118l-7.003 11.16-22.946-15.43 4.897-3.53 5.637-4.555 5.124-4.67 4.612-4.782 4.156-4.896 3.701-4.954 3.246-5.01 2.846-5.181 2.506-5.182 2.106-5.352 1.822-5.409 1.594-5.466 1.253-5.58 1.025-5.693.854-5.75.683-5.865.513-5.922.455-5.978.285-6.092.285-6.206.227-6.32.228-6.377.285-6.434.284-6.548.399-6.662.455-6.775.684-6.832.797-6.947.968-7.06 1.195-7.117 1.424-7.231 2.847-11.9c.175-.758.33-1.379.512-2.22zm-4.27 9.167l-3.644 7.573-2.392 5.978-2.106 5.979-1.822 5.978-1.594 6.035-1.31 6.093-1.196 6.092-.968 6.092-.854 6.092-.797 6.092-.683 6.093-.626 6.092-.684 6.035-.626 5.979-.74 5.921-.797 5.921-.911 5.865-1.025 5.75-1.253 5.694-1.423 5.637-1.651 5.58-1.88 5.409-2.22 5.352-2.505 5.238-2.847 5.124-3.245 4.954-3.644 4.896-4.1 4.783-4.554 4.612-5.068 4.441-5.637 4.327-6.49 4.441-.285.684-82.501-52.952 6.433-8.939-7.972-6.263.286-.57zm-430.613.456l152.989 112.393-7.63 6.092 7.174 9.964-82.843 53.122-.626-1.936-6.548-4.384-5.636-4.327-5.068-4.498-4.555-4.612-4.1-4.726-3.643-4.896-3.246-5.01-2.846-5.068-2.506-5.238-2.22-5.352-1.88-5.466-1.65-5.523-1.424-5.637-1.252-5.693-1.025-5.751-.911-5.865-.797-5.921-.74-5.921-.627-5.979-.683-6.035-.626-6.092-.683-6.093-.798-6.092-.854-6.092-.968-6.092-1.138-6.092-1.367-6.093-1.594-6.035-1.822-6.035-2.107-5.979-2.391-5.921zm-.57 1.822c31.16 61.62-1.035 134.703 68.552 178.667 22.503 71.33 95.916 89.68 123.61 167.224-39.81-66.12-101.471-81.363-135.054-157.886-68.894-47.08-37.028-108.713-57.108-188.005zm431.467 0c-20.078 79.274 11.782 140.925-57.107 188.005-33.58 76.505-95.226 91.748-135.054 157.886 27.712-77.562 101.108-95.911 123.61-167.224 69.58-43.964 37.396-117.048 68.551-178.667zM238.224 310.28c4.208 2.588 7.67 5.323 9.565 8.256-3.08 1.786-6.145 3.567-9.224 5.352-2.113-2.951-4.245-5.873-6.377-8.825 2.005-1.585 4.032-3.216 6.036-4.783zm124.065 0c1.986 1.585 3.992 3.198 5.978 4.783-2.113 2.952-4.206 5.855-6.32 8.825-3.079-1.785-6.144-3.566-9.223-5.352 1.894-2.933 5.338-5.65 9.565-8.256zm-113.646 9.737c1.75 3.024 2.56 7.36 2.96 12.298-2.331 1.057-4.632 2.075-6.945 3.131-1.658-3.225-3.335-6.436-5.01-9.679 3.005-1.913 5.989-3.82 8.995-5.75zm103.227 0c3.006 1.913 6.008 3.837 8.996 5.75-1.658 3.243-3.353 6.493-5.01 9.736-2.315-1.056-4.633-2.131-6.947-3.188.4-4.938 1.211-9.274 2.96-12.298zm10.818 5.01l82.9 53.179-1.595 4.726-2.562 6.149-2.733 5.921-3.017 5.694-3.246 5.466-3.473 5.238-3.644 5.01-3.815 4.954-3.985 4.726-4.1 4.669-4.27 4.498-4.327 4.498-4.441 4.384-9.11 8.711-4.612 4.327-4.612 4.384-4.612 4.385-4.612 4.498-4.555 4.554-4.555 4.612-4.44 4.84-4.328 4.897-4.27 5.124-4.156 5.238-3.986 5.523-3.815 5.694-3.644 5.978-3.473 6.206-3.245 6.548-2.961 6.832-.911 2.335 23.686-205.428 8.256 3.757zm-124.35 1.082l5.693 11.045 7.858-3.586 23.514 203.663-.284-.74-3.018-6.833-3.245-6.547-3.473-6.206-3.644-5.979-3.815-5.693-3.986-5.523-4.1-5.238-4.27-5.125-4.384-4.896-4.44-4.84-4.556-4.612-4.555-4.555-4.611-4.498-4.612-4.384-4.612-4.384-4.612-4.327-4.612-4.327-8.939-8.826-4.327-4.44-4.27-4.499-4.1-4.669-3.986-4.725-3.814-4.954-3.644-5.01-3.473-5.295-3.246-5.41-3.017-5.693-2.733-5.921-2.506-6.15-1.252-3.53zM109.205 392.1c2.14 3.443 4.234 6.918 6.377 10.362-8.483 4.865-16.962 9.75-25.45 14.633.926-10.24 6.186-18.965 19.073-24.995zm382.103 0c12.881 6.03 18.144 14.755 19.074 24.995-8.49-4.901-17.018-9.789-25.508-14.69 2.15-3.425 4.284-6.88 6.434-10.305zm-374.701 12.298c1.911 3.57 3.84 7.19 5.75 10.76-11.65 8.163-21.814 8.343-31.144 4.043 8.472-4.919 16.925-9.884 25.394-14.803zm367.242 0c8.472 4.92 16.979 9.884 25.45 14.803-9.328 4.3-19.483 4.12-31.144-4.042z" color="#000" fill="#2b0000"/><path d="M261.055 190.714l-1.594 2.62-.455.853-.513.854-.455.854-.399.911-.398.854-.342.854-.342.854-.284.911-.285.854-.228.911-.228.855-.17.91-.114.855-.057.91-.057.912V237.8h-1.423c-4.264-2.332-6.593-5.569-8.598-8.94-2.113 3.499-5.092 6.553-9.337 8.94h-1.139v-9.964c.134-5.793-2.353-10.928-5.238-15.772-3.17 4.805-5.592 9.973-5.978 15.772v9.964h-.797c-2.715-2.205-4.172-5.236-5.466-8.37-1.366 3.261-3.32 6.129-6.035 8.37h-.57v-9.964c.13-5.785-2.356-10.932-5.239-15.772-3.182 4.798-5.593 9.983-5.978 15.772v48.111h11.217v-.341h12.868v.341h11.216v-.341h20.497v39.742h11.217v-3.644h8.882v-5.238h9.167c-1.579-15.692-1.722-33.18 10.134-45.037 1.314-1.16 2.772-2.168 4.27-3.075a30.707 30.707 0 014.214 3.075c12.248 11.374 11.445 29.752 10.135 45.037h9.167v5.238h8.882v3.644h11.217v-39.742h20.497v.341h11.216v-.341H387v.341h11.217v-48.054c-.577-6.414-2.756-10.66-5.978-15.772-3.144 4.757-5.185 10.869-5.238 15.772v9.907h-.683c-2.733-2.241-4.612-5.052-5.979-8.313-1.293 3.134-2.79 6.126-5.523 8.313h-.683v-9.907c-.63-6.466-2.783-10.65-5.978-15.829-3.107 4.804-5.185 10.906-5.238 15.829v9.907h-1.196c-4.263-2.387-7.224-5.441-9.337-8.94-2.023 3.371-4.391 6.608-8.655 8.94h-1.31v-32.226l-.113-.854-.114-.911-.17-.911-.228-.855-.171-.854-.285-.91-.341-.855-.285-.91-.399-.855-.398-.854-.399-.854-.455-.91-.456-.855-.512-.854-1.594-2.619-1.595 2.62-.512.91-.456.854-.398.854-.399.911-.284.854-.342.911-.285.854-.227.911-.171.854-.17.854-.172.911-.113.854-.057.855-.114.91v27.159h-6.49v-5.807c-.42-5.525-3.15-10.265-5.922-14.918-3.11 4.487-4.877 9.493-5.238 14.918l-.057.854v4.953h-8.312v-4.555l-.057-.512v-.512c-.47-5.11-2.304-10.03-4.952-14.405l-1.367-2.335-1.423 2.335c-2.459 4.405-4.706 9.274-4.896 14.405l-.057.512v5.01h-8.37v-5.75c-.14-5.492-2.486-10.3-5.237-14.918-2.888 4.485-5.56 9.43-5.921 14.86l-.057.912v4.896h-6.491v-27.158l-.057-.854-.114-.855-.114-.91-.113-.855-.228-.854-.17-.91-.229-.855-.284-.854-.285-.91-.342-.855-.398-.91-.404-.855-.456-.91-.455-.855z" color="#000"/><path d="M200.604 274.665h8.69v-46.77c-.127-4.446-1.238-8.91-4.008-13.355-2.787 4.445-4.573 8.91-4.682 13.355zm196.336 0h-8.69v-46.77c.127-4.446 1.238-8.91 4.008-13.355 2.787 4.445 4.573 8.91 4.682 13.355zm-75.248 30.5h-7.16c2.842-28.24-4.136-41.76-15.76-48.282-11.624 6.522-18.602 20.041-15.742 48.282h-7.16v-55.37h45.822zm9.548-57.52h-64.918v-13.61h7.78v-6.14c.11-4.446 1.895-8.91 4.683-13.355 2.787 4.445 3.899 8.91 4.008 13.355v6.14h10.877v-5.758c.128-5.101 2.06-10.22 5.102-15.322 3.06 5.101 4.974 10.22 5.102 15.322v5.758h10.895v-6.14c.11-4.446 1.22-8.91 4.008-13.355 2.77 4.445 4.555 8.91 4.665 13.355v6.14h7.798zm-.237 62.95h-7.397v-60.8h7.397zm32.413-60.326h-21.39v24.05h21.39zm0-11.205h-21.39v9.875h21.39zm24.05 11.205h-13.72v24.05h13.72zm0-11.205h-13.72v9.875h13.72zm-46.315 74.992h-8.69V206.523c.127-4.464 1.238-8.91 4.008-13.373 2.787 4.464 4.573 8.91 4.682 13.373zm31.703-39.39h-8.691v-46.771c.11-4.446 1.22-8.91 4.008-13.355 2.788 4.445 4.573 8.91 4.683 13.355zm-106.295 35.929h7.398v-60.8h-7.398zm-32.43-60.344h21.39v24.05h-21.39zm0-11.206h21.39v9.894h-21.39zm-24.051 11.206h13.72v24.05h-13.72zm0-11.206h13.72v9.894h-13.72zm46.315 74.993h8.672V206.505c-.109-4.464-1.22-8.91-4.008-13.355-2.77 4.445-4.555 8.891-4.664 13.355zm-31.684-39.391h8.672v-46.77c-.11-4.446-1.22-8.91-4.008-13.355-2.788 4.445-4.555 8.909-4.664 13.355z" fill="#fff"/><path d="M186.013 112.54c-7.341 1.142-14.596 2.764-21.921 3.985a260.183 260.183 0 00-11.786 1.822c-9.652 1.3-18.903 4.296-28.24 6.89-10.625 4.14-21.251 6.557-33.138 7.743 3.176 1.543 6.319 3.167 9.566 4.555 5.418 2.055 10.476 2.256 16.454 2.733 1.157.091 2.314.114 3.473.114 1.638 2.251 4.14 2.981 6.605 3.985 3.752 1.51 7.76 2.15 11.73 2.79 6.224.757 12.469.348 18.674-.341 2.776 2.612 7.18 3.761 10.932 4.156 4.178.428 8.615.43 12.697-.398 1.266 4.073 6.776 3.757 10.249 3.757 1.841 3.652 6.405 2.976 9.793 2.506 1.32 3.452 4.815 4.11 8.085 3.7l.398.342c3.008 2.243 6.408 2.775 9.793 1.082l.171-.114c.245 2.331 1.728 3.39 3.986 3.53 1.925-.032 3.522-1.11 5.01-2.22.248-.185.626-.57.626-.57l.285 1.652 1.993.626c1.907.199 3.406-.327 4.782-1.424 1.495-1.265 2.602-2.964 3.246-4.725.495.664.899 1.389 1.31 2.106 2.866 5.048 5.662 10.206 9.451 14.633l.399.513 2.391 2.79 1.537-2.847c.315-.459 1.2-.146 1.936 0l6.832 1.935-4.213-5.18c.275 0 .533.108.797.17 2.251.778 4.128 2.278 6.092 3.587l.057-3.872c.859 1.123 1.769 2.323 2.505 3.303 3.67.88 7.411 1.374 11.16 1.765.546 2.713 1.287 5.445 2.562 8.142 10.731-1.786 21.133-4.828 31.372-8.54.492-2.136-.189-4.298-1.537-6.435l.228-.114c2.955-1.714 6.322-3.106 8.483-5.807 1.992.643 4.08.671 6.15.512 1.32-.093 2.602-.434 3.871-.797l.74-1.252c.895.343 1.88.617 2.676.854l.57.17c.634.227 1.285.396 1.935.57l1.48-.057.798-.114-1.31.74c12.045 9.32 23.822 18.987 35.87 28.298 1.364.762 2.772.814 4.27.57 1.258-.153 2.304-.237 3.19-1.196 1.416.022 2.816.036 4.213-.171a6.865 6.865 0 003.757-1.537c1.28.21 2.576.362 3.872.398 1.874-.03 3.241-.661 4.669-1.822 1.024.1 2.05.192 3.075.285 2.209.042 4.402-.376 6.035-1.936l1.993-2.22c-11.124-6.702-22.916-13.968-33.308-20.099.57.009 1.136.048 1.708.057a14.04 14.04 0 005.58-.968l.512.342c5.305 3.451 11.308 5.185 17.593 4.612.83-.118 1.636-.32 2.45-.513.469.134.916.325 1.366.512 5.552 2.11 11.325 3.16 17.252 2.448l.17.114c1.103.45 2.208.897 3.303 1.367 6.809 2.526 14.027 3.115 21.123 1.594l.228-.057c.422.21.966.297 1.366.399 4.664 1.36 9.673 1.662 14.291 0 .408-.17.843-.393 1.196-.57.623.202 1.168.248 1.822.342 5.305.964 11.645 1.037 15.829-2.847.273-.241.498-.526.74-.797.38-.013.759-.037 1.138-.057 5.303-.25 8.603-2.988 11.217-7.345l.57.171c1.848-.983 3.49-2.17 4.782-3.815.852-1.072.923-2.33 1.082-3.644-2.23-2.044-4.413-4.125-6.662-6.149-13.106 2.219-26.411 2.163-39.628 1.196-11.823-.957-23.522-2.917-35.187-5.01-9.096-3.167-18.304-6.019-27.386-9.224-10.53-3.422-20.923-7.27-31.486-10.59-6.114-2.36-12.582-3.588-19.131-3.588-6.931.108-13.348 2.525-18.732 6.833l-.911.797c-1.85 1.59-4.1 2.736-6.206 3.985-4.412-5.37-11.184-7.344-17.878-7.344-4.957.335-9.707 2.006-14.12 4.213-7.127 3.489-13.298 8.518-19.416 13.494l.284.228c-5.807-2.302-11.324-5.67-15.486-8.54l-.456-.513c-1.903-2.1-4.363-3.323-7.06-4.043l-.854-.114h-.17c-6.451-13.533-19.682-19.584-33.366-21.693-6.952-.586-13.975.012-20.838 1.196z" color="#000"/><path d="M341.552 165.804c2.46-1.39 4.92-1.77 7.397-1.137 3.717 1.61 7.452 1.485 11.17.568 2.787-.76 5.629-1.33 8.909-.568a76620.166 76620.166 0 0136.384 21.978c-1.202 1.585-3.79 1.768-7.014 1.33-3.881-3.443-8.8-5.848-14.212-7.761 4.701 2.714 9.22 5.466 11.37 8.709-.875.874-3.025 1.002-6.432.382-2.314-2.35-6.359-4.682-11.187-7.014 3.608 2.587 6.887 5.174 9.474 7.761-1.148.82-3.28 1.148-6.45.948l-8.709-6.25c2.333 2.405 4.683 4.792 7.015 7.197-1.512.274-3.043.82-4.555 0-11.06-8.709-22.1-17.427-33.16-26.143zm-243.708-31.98c22.59-2.394 25.894-9.563 64.903-14.966 18.125-2.827 36.49-8.455 50.957-3.973 10.44 2.997 19.13 8.097 23.959 17.824-5.52 1.29-8.855 3.89-10.021 7.8-7.288 1.75-12.262 6.03-14.485 13.368 9.146-.924 17.983-1.168 24.506 3.341-.492 2.715-3.571 6.525-6.359 5.373-.291-1.257.11-3.321-.874-3.702-2.806 1.968-5.867 5.668-8.436 3.9-.583-1.156-.328-2.029-.2-2.68.473-2.337-1.932-1.796-2.096-1.008-3.863 3.332-7.142 1.528-9.875-.767-3.207.451-6.322.743-7.252-3.9-5.265.948-9.838 1.329-9.474-2.228-4.773-.029-9.82.086-10.02-2.228l11.696-5.012c-14.594 4.839-26.672 5.806-35.093 1.113 10.998-1.78 19.661-4.89 26.73-8.913-27.522 9.94-48.304 10.782-62.938 3.341 26.603-3.343 35.822-6.685 49.02-10.026-33.127 8.108-60.032 10.94-74.648 3.343zm118.793 16.624c2.55-4.608 6.632-7.375 11.989-8.62 2.368-6.823 12.68-9.897 18.73-2.523 9.838 7.105 18.675 10.908 26.273 10.724l-5.248 1.682c1.53.588 3.08.714 4.628 3.153-1.95-.417-3.626.436-5.265 1.473 1.84.701 3.534 1.729 4.208 5.046-3.334-.734-5.41.099-7.579.842 1.512 1.236 2.697 2.598 2.733 4.415-1.75-.674-3.498-.354-5.247.42 1.33 1.316 2.222 2.994 2.095 5.467-2.132-1.462-4.555-2.38-7.561-2.103-.037 1.035-.456 1.919 1.056 3.575-2.259-.663-4.044-.603-4.846 1.051-4.227-4.863-7.215-10.334-10.294-15.77-2.715-5.217-8.545-8.08-18.712-7.988 1.312-1.822 3.498-2.804 6.505-2.945-4.483-.984-8.965-.282-13.465 2.101zm24.56-8.552a2.296 2.296 0 00-2.295 3.975c1.093.634 2.514.257 3.134-.84a2.28 2.28 0 00-.839-3.135zm26.273 4.01c22.265-18.637 35.839-18.512 45.477-9.855-5.375 5.227-13.136 8.353-22.556 10.044 9.711.463 20.606-5.003 31.848-12.129 8.308-8.148 19.66-9.663 33.543-5.684l62.913 21.224c25.471 4.69 50.687 7.898 74.646 3.98 1.713 1.579 3.426 3.157 5.12 4.736-.055 1.452-1.385 2.905-3.972 4.359-6.104-1.454-11.843-.822-17.436.757 5.94-.32 11.496-.322 14.393 1.895-1.694 2.954-4.864 4.818-10.604 4.737-2.587 4.105-8.472 5.179-17.618 3.222-4.245 2.337-9.73 2.4-16.489.19-7.962 2.02-16.18 1.01-24.633-3.033-5.247 1.012-11.497 0-18.767-3.031-6.067 2.02-12.881.504-20.46-4.548-4.082 1.99-9.566 1.928-18.184-2.653-5.885.704-13.082-1.702-20.479-4.547a24.19 24.19 0 007.78 4.547c-6.067.505-12.134-.758-18.202-3.79 8.4 4.17 9.475 6.317 3.225 6.443-5.794-1.518-11.387-3.853-16.67-7.39 2.277 3.473 5.301 5.938 9.09 7.39-7.36 1.99-12.972-1.232-17.8-6.821 1.33 2.906 2.733 5.81 6.632 8.716-18.948 12.663-34.126 12.322-48.52 9.285-1.256-1.706-2.532-3.411-3.789-5.116 1.895-.008 3.79-.308 5.685-1.327-.875-1.073-1.768-2.148-2.642-3.221 2.405-.716 4.937-.76 6.814-4.169-1.84-.377-2.788-1.641-3.607-3.032 2.587-.189 4.427-1.138 5.502-2.842-1.13.128-2.278.066-3.407-1.328 1.166-1.797 2.368-3.562 3.024-5.874-4.045 1.139-7.324.76-9.857-1.135z" fill="#fff"/></g></svg>