<svg xmlns="http://www.w3.org/2000/svg" version="1.2" width="741" height="800"><path d="M324.643 137.5l46.071-30.357 46.429 31.786-17.857-51.072 46.071-31.071-56.786.357-18.214-51.786-17.143 51.429h-57.857L341.43 88.57z" fill="#fbce1d" stroke="#000" stroke-width="1.5"/><path d="M338.214 120L370 97.857S403.214 121.43 402.857 120c-.357-1.429-12.5-34.286-12.5-34.286l31.786-21.428-38.929.714-12.857-37.5L358.214 65l-38.571-.714L351.429 85z" fill="#ed1a23" stroke="#000" stroke-width="1.5"/><path d="M526.29 751.008s-44.952 54.548-92.43 40.406c-47.477-14.142-50.507-34.345-108.59-12.122-58.085 22.223-88.39 25.759-129.3-37.88 0 0-34.346 6.565-50.508-47.478 0 0-41.416-1.515-45.457-28.79-4.04-27.273 2.525-23.738-9.091-41.416-11.617-17.677-5.556-45.962-5.556-45.962l-5.556-5.555s-31.82-2.526-35.86-27.275c-4.041-24.748-2.02-23.99-14.143-39.9-20.715-27.19-15.152-54.549-5.05-60.61l1.01-10.606S4.04 417.657 7.576 393.414c3.536-24.244 6.566-18.183 0-46.972-2.879-12.622-1.515-43.437 17.678-54.549 0 0 6.06-2.02 3.03-17.677-3.03-15.658 17.173-54.549 27.78-59.094 0 0 29.294-46.972 49.497-55.054 20.203-8.08 40.911-33.84 40.911-33.84s7.576-29.8 20.708-34.345c0 0 7.576-9.596 17.173-10.607 0 0 44.952-27.779 59.599-32.83 14.647-5.05 51.518-24.748 51.518-24.748L239.91 64.104l15.153-2.02-18.688 5.555s-43.437 39.901-46.467 46.973c0 0 25.253-11.617 27.274-12.627 2.02-1.01 6.06-6.061 6.06-6.061l-2.02 5.556 34.85-19.698-39.395 28.284s-10.102 12.122-9.597 15.657c0 0 47.477-34.85 60.61-38.386 0 0-83.843 53.538-98.49 81.823 0 0 69.7-56.569 100.51-65.155 0 0-66.67 38.386-91.42 64.65 0 0 16.668-2.02 20.71-7.071l-2.526 5.05s4.545-1.515 5.05-3.03c.506-1.515 33.84-36.366 70.711-48.992 0 0-47.982 24.243-58.589 43.436 0 0 18.183-4.546 22.729-4.04 0 0 50.002-23.234 52.528-24.244 2.525-1.01-37.881 23.233-37.881 23.233l6.06 1.01L228.8 166.13h6.06l-11.616 4.04s-68.69 26.265-64.65 73.237l13.637-18.183 19.698 2.526s28.79-31.82 62.124-47.478l3.572-16.667 63.098-21.596 14.143 12.505s48.992-4.546 74.75 0l13.072-12 67.027 23.739.209 15.535s45.962 26.264 61.114 46.972l19.193-4.04 2.525 4.545v-7.576s-52.022-50.508-75.76-67.68l17.172 9.596s13.879.2 16.91.704c3.03.505-79.962-47.073-79.962-47.073l120.63 64.995-.242-11.619-115.08-68.316 116.838 63.773s2.02-3.98-3.03-10.04c-5.052-6.061-5.26-12.097-5.26-12.097L464.802 77.313l98.357 60.027-.505-9.597s-41.416-22.223-46.972-24.243c0 0 36.365 12.122 47.982 19.698l-3.535-12.122c7.194 4.97-15.261-9.95-15.279-11.87l14.395 9.47-2.273-5.681s-5.43-7.071-17.046-12.627c-11.617-5.556-42.427-26.77-42.427-26.77l37.88 16.163s-63.639-38.386-65.66-39.9c-2.02-1.516 109.602 42.426 125.26 72.225 15.657 29.8 18.183 45.457 40.406 51.013 22.223 5.556 53.538 55.558 53.538 55.558s10.607 17.678 13.132 24.244c2.525 6.566 8.586 15.657 8.586 15.657s9.597 22.981 8.082 35.356c.06-.246 0 0 0 0s20.708 13.132 15.91 37.375c-4.799 24.244-6.061 45.71-4.294 51.265 1.768 5.556 9.344 28.285-11.364 49.498 0 0-2.19 11.162-3.262 13.305 0 0 20.357 16.429 5.715 41.429-14.643 25-21.786 32.5-23.929 47.857-2.143 15.357.357 33.928-40.357 37.143L653.214 575l3.572 1.071s5 16.429 1.071 28.215c-3.928 11.785-13.571 25-14.286 41.785-.714 16.786 3.929 42.858-48.214 47.858 0 0-2.778 44.872-69.068 57.079z"/><path d="M470.747 126.779a2.661 2.661 0 11-5.322 0 2.661 2.661 0 115.322 0zM484.052 134.036a2.903 2.903 0 11-5.806 0 2.903 2.903 0 115.806 0zM498.324 140.567a3.87 3.87 0 11-7.74 0 3.87 3.87 0 117.74 0zM510.42 148.308a3.87 3.87 0 11-7.742 0 3.87 3.87 0 117.741 0zM523.724 155.686a4.233 4.233 0 11-8.466 0 4.233 4.233 0 118.466 0zM538.964 164.516a4.354 4.354 0 11-8.708 0 4.354 4.354 0 118.708 0zM552.269 170.926a4.475 4.475 0 11-8.95 0 4.475 4.475 0 118.95 0zM479.214 113.232a3.145 3.145 0 11-6.29 0 3.145 3.145 0 116.29 0zM493.256 121.215a3.387 3.387 0 11-6.773 0 3.387 3.387 0 116.773 0zM508.968 129.44a4.354 4.354 0 11-8.709 0 4.354 4.354 0 118.709 0zM522.273 136.576a4.233 4.233 0 11-8.467 0 4.233 4.233 0 118.467 0zM533.642 143.55a3.991 3.991 0 11-7.983 0 3.991 3.991 0 117.983 0zM547.915 150.606a4.475 4.475 0 11-8.95 0 4.475 4.475 0 118.95 0zM560.494 158.71a4.838 4.838 0 11-9.676 0 4.838 4.838 0 119.676 0zM489.724 91.243a2.993 2.993 0 11-5.987 0 2.993 2.993 0 115.987 0zM502.724 99.283a3.507 3.507 0 11-7.013 0 3.507 3.507 0 117.013 0zM516.408 107.75a3.763 3.763 0 11-7.526 0 3.763 3.763 0 117.526 0zM530.434 116.388a4.362 4.362 0 11-8.723 0 4.362 4.362 0 118.723 0zM543.776 124.94a4.362 4.362 0 11-8.723 0 4.362 4.362 0 118.723 0zM558.145 133.237a5.132 5.132 0 11-10.263 0 5.132 5.132 0 1110.263 0z" fill-rule="evenodd" stroke="#000"/><g><path d="M337.65 513.489l4.402-4.233s3.387.169 7.281-.847l3.387 3.387s-7.281 2.709-15.07 1.693zm-16.595 17.78l5.418-3.725s15.24 10.498 35.899-5.25c0 0 14.393 16.087 38.608 3.895l4.572 3.217s-20.828 15.579-43.519.17c0 0-16.933 16.425-40.978 1.693zm-113.961 5.25s7.79 1.354 14.055-1.694c0 0-7.451-1.185-14.055 1.693zm-4.233 16.763s13.885 3.387 27.77-7.79c0 0 19.304 17.104 42.503 1.017 0 0 24.722 17.61 45.212-1.355 0 0 22.52 19.643 43.518-.338 0 0 19.135 19.473 43.519 0 0 0 18.457 18.288 43.349 1.016 0 0 21.844 18.965 44.196-1.355 0 0 22.52 19.473 43.857.17l4.91 4.063s-22.86 23.876-48.598 3.726c0 0-22.69 17.61-44.196.677 0 0-18.627 16.256-43.35-.339 0 0-16.763 17.441-44.026 0 0 0-21.336 16.595-43.01 0 0 0-19.473 17.272-44.873 0 0 0-16.595 16.426-43.18 0 0 0-10.837 9.652-22.86 7.45 0 0-1.016-2.37-4.741-6.942zm354.582-45.72s6.604.34 14.055-3.048l-.17 7.112s-13.715 5.758-24.722.17c0 0 8.467-2.71 10.837-4.234zm2.032 23.199s-9.482 1.693-23.029-8.805c0 0-13.109 13.856-28.518 7.93l-7.947 3.555s19.024 10.528 36.296-3.865c0 0 5.08 5.926 18.118 7.28zm-75.353 67.225l15.07-2.032-6.772-5.08s-2.202 3.725-8.298 7.112zm-30.31 3.217l11.176-1.862s-7.451-1.355-15.41-7.959c0 0-21.166 18.965-43.518-.17 0 0-22.521 19.643-44.365-.338 0 0-19.982 20.997-43.35-.17 0 0-16.425 20.151-43.857.847 0 0-9.99 6.096-11.176 6.266-1.185.17 7.451 2.37 12.362 1.016 0 0 6.434 2.878 7.62 2.878 1.185 0 26.246 2.032 26.246 2.032l8.975-5.588s17.78 17.442 43.518.847c0 0 16.934 15.748 43.858-.17 0 0 10.667 6.266 12.869 6.266 2.201 0 25.738-2.37 25.738-2.37l4.572-3.895zm-223.858-5.249l7.112-.17-6.266-4.402-3.725 2.032zm262.974-20.49c-23.707 17.273-43.858.34-43.858.34-24.384 16.933-44.195-.509-44.195-.509-20.659 16.764-42.672.847-42.672.847-24.046 15.917-43.857-.677-43.857-.677-26.247 16.933-43.858 0-43.858 0-24.045 17.61-44.195-.17-44.195-.17-5.42 5.758-16.934 7.79-16.934 7.79l-.508-6.774s10.33-.846 17.95-8.297c0 0 22.351 19.812 43.687.17 0 0 17.78 18.626 43.858-.17 0 0 15.07 19.981 43.687 0 0 0 17.95 19.135 43.688.17 0 0 22.013 18.795 43.18 0 0 0 18.627 18.118 44.027 0 0 0 14.732 12.7 30.31 7.62l.17 6.265s-14.055 4.741-30.48-6.604z" fill="#fff"/><path d="M341.719 696.594c-1.824-.29-2.72 1.825-1.313 2.906 1.85 1.847 4.234 3.69 6.531 4.719 2.37-1.15 7.054-1.927 7.982-3.308-2.514-2.013-5.253-4.444-8.757-4.045-1.474-.147-2.958-.384-4.443-.272zm-68.406 1.218c-2.296-.174-4.372 2.505-2.594 4.47 5.691 6.688 14.35 10.28 22.077 14.306 2.673 1.196 5.323 2.707 8.079 3.537 5.136-1.738 10.267-3.491 15.406-5.219-12.789-6.395-25.552-13.455-39.5-16.843-1.136-.215-2.311-.344-3.469-.25zm175.375.625c-4.45.565-7.968 3.982-12.122 5.6-47.41 24.073-98.402 41.125-149.816 54.182-19.087 4.65-38.421 9.066-57.875 12.281 13.458 6.001 28.795 3.935 42.938 1.875 32.71-5.735 64.139-17.028 95.104-28.833 32.058-12.503 63.572-26.378 94.52-41.355-3.87-2.139-8.224-3.977-12.75-3.75zm-131.094.782c-3.423-.274-6.727 3.878-4.344 6.812 1.76 1.787 4.774 1.108 6.781 1.407 1.776 1.333 2.8 4.083 4.438 5 5.155-1.95 10.316-3.886 15.469-5.844-4.105-3.377-9.036-6.24-14.438-6.313-2.508-.75-5.245-1.227-7.906-1.062zm91.5 1.75c-51.26 20.13-103.546 38.508-157.64 49.15-13.253 2.348-26.639 4.809-40.142 4.662 7.073 7.917 18.778 8.714 28.813 8.629 25.404-.939 49.937-8.343 74.006-15.94 37.293-12.256 73.81-27.398 109.244-43.939-4.42-2.12-9.443-2.565-14.281-2.562zm-52.5 2.843c-45.39 20.098-94.264 32.382-143.875 35.11-4.425.185-8.853.266-13.281.234 9.76 9.803 24.727 10.467 37.81 9.914 28.068-1.853 55.099-10.38 81.549-19.477 20.228-7.14 40.121-15.26 59.61-24.218-7.268-.532-14.552-1.134-21.813-1.563zm107.812 2.907c-53.506 29.713-111.55 50.612-170.625 66.375-14.157 3.585-28.503 7.136-42.906 9.937 11.675 5.693 25.277 3.598 37.68 1.815 31.824-5.834 62.316-17.259 92.364-29.058 25.958-10.535 51.727-21.682 76.862-33.976 4.08-2.507 9.61-5.712 9.406-11.187-.247-1.493-1.269-3.787-2.78-3.906zm-192.375 4.843c-1.242 2.785-2.543 5.545-3.75 8.344 3.293 1.596 6.776 3.64 7.813 7.438 5.428-1.156 11.649-1.586 16-5.219.601-2.544-2.97-3.638-4.638-4.748-4.854-2.504-10.05-4.378-15.206-6.22l-.219.405zm188.719 18.5c-3.665.446-8.754 1.949-9.563 6.032.799 3.855 6.022 3.645 8.91 5.296 17.822 5.915 36.722 11.01 55.673 8.647 5.125-.76 10.165-2.39 14.511-5.287-21.59-4.416-43.48-8.386-64.718-13.875-1.523-.642-3.132-.995-4.813-.813zm-30 9.5c-3.531-.242-6.907 3.05-5.688 6.688.917 3.768 5.635 3.72 8.464 5.437 19.505 7.606 40.228 13.936 61.408 12.694 8.125-.565 16.12-2.836 22.691-7.662-22.781-.79-46.027-2.81-67.398-11.102-6.18-2.621-12.508-6.161-19.477-6.054zm-23.125 13.188c-3.163-.348-6.955 2.61-5.063 5.875 2.512 4.189 8.199 4.793 12.31 6.961 23.4 8.939 49.15 14.76 74.16 9.82 3.894-.823 7.656-2.031 11.406-3.406-25.58-4.24-51.47-7.865-76.348-15.13-5.375-1.804-10.66-4.364-16.465-4.12zm-21.719 9.969c-2.584.434-.6 3.433.594 4.312 8.87 8.412 21.435 11.183 32.954 14.082 17.145 3.575 34.75 6.064 52.293 5.017 4.964-.598-1.333-1.647-3.343-1.875-24.27-4.541-48.603-9.298-71.71-18.132-3.574-1.203-6.863-3.707-10.788-3.404z" fill="#fbca0a"/><path d="M23.234 298.964s-18.898 15.842-13.09 41.853c5.81 26.011 4.146 38.166 1.202 47.773-1.127 3.678-5.538 28.562 16.433 42.2 21.971 13.636 78.034 26.516 103.036 30.304 25.001 3.788 22.223 11.111 25.254 24.496-.318-.378 0 0 0 0s5.808-13.637.252-24.244c-5.556-10.606-9.091-22.476-8.586-27.526.505-5.051 7.828-27.274-16.163-36.113-23.99-8.84-74.498-36.366-92.681-44.952-18.183-8.586-30.81-29.294-15.657-53.79zm-.02 151.393S10.761 471.172 32.143 500c15.288 20.613 15 39.286 15 39.286S44.076 573.352 90 567.143c46.324-6.263 92.767-4.532 99.07-4.077 8.09.585 15.93 5.505 14.144 20.505l6.429 7.143s8.214-26.071-15.714-40.357c-23.929-14.286-31.072-43.571-31.072-43.571s1.346-8.347-13.214-10.715c-43.929-7.142-127.857 9.643-126.429-45.714zM93.93 584.643s-2.858 26.428 26.785 34.286c29.643 7.857 36.786 33.928 36.786 33.928S165 673.93 185.714 690C206.43 706.071 200 711.786 200 711.786s-.714-21.072-52.143-22.143c-51.428-1.072-44.643-38.572-44.643-38.572s2.143-15.714-7.5-27.5c-9.643-11.785-10-35-7.143-41.785zM236.07 707.5s-40.714-16.786-71.785-71.786c0 0-8.744-27.648 34.812-35.412 0 0 27.622-4.189 87.33 4.34 72.5 10.358 195.715-2.5 195.715-2.5s104.643-16.428 93.214 28.93c-11.428 45.357-70 76.785-70 76.785s6.786-13.928-24.643-14.643c-31.428-.714-215.357-1.428-231.071 1.072-15.714 2.5-13.214 8.214-13.572 13.214zm306.335 4.135s-3.353-9.819 4.789-15.806c8.142-5.986 24.187-19.397 39.034-46.457 14.847-27.06 37.837-31.61 37.837-31.61s26.102-4.311 23.707-33.766c0 0 5.03-6.466 5.987-1.198.958 5.269 2.874 25.624-5.268 36.88-8.142 11.254-7.903 21.552-8.142 28.496-.24 6.945 4.07 36.88-40.471 41.19-44.542 4.31-50.29 3.831-57.473 22.27zm-6.492-127.026s-3.193-25.061 26.61-22.69c29.802 2.37 97.713 8.952 112.775 3.386 15.579-5.757 17.95-16.933 17.95-23.03 0-6.095 1.354-21.335 12.868-37.591 11.515-16.256 21.675-39.285 9.822-55.203l-3.387 6.096s6.773 28.11-26.754 32.512c-33.528 4.403-90.085 7.45-90.085 7.45s-17.272.34-17.95 9.145c-.677 8.805-7.112 27.093-30.141 45.38-23.03 18.289-18.288 35.416-17.95 37.109zm50.316-95.843s0-25.738 13.208-27.093c13.208-1.354 91.1-14.901 111.76-27.77 20.658-12.87 18.626-35.56 18.626-35.56s-7.112-18.288-.339-55.541c6.774-37.254-10.837-43.35-10.837-43.35s1.693 8.128 3.725 12.531c2.032 4.403 6.096 23.707-12.53 35.56-18.627 11.853-86.021 42.333-93.81 46.736-7.79 4.402-24.046 10.498-23.03 26.754 1.016 16.256.678 25.739-4.402 33.19-5.08 7.45-8.806 21.674-2.371 34.543z" fill="#ed1a23"/><path d="M252.781 49.625c-19.032 7.933-34.316 22.791-47.052 38.664-.93 1.153-5.398 6.532-1.991 4.398 14.902-13.903 29.604-28.254 46.137-40.093 1.562-1.266 3.644-1.73 5-3.219-.728-.045-1.423-.094-2.094.25zm-36.937 21.25c-9.834.906-19.576 5.327-26.156 12.719 9.281-3.423 17.919-8.642 27.375-11.813.245-.951-.473-1.025-1.22-.906zM186.03 84.063c-10.771 1.796-17.527 11.678-22.594 20.562-11.608 21.205-16.51 45.397-22.812 68.563-5.675 19.565-11.361 39.194-18.525 58.264-2.857 8.086-10.282 12.94-16.694 17.892.375-.584 3.087-3.707 4.25-5.344 7.278-9.533 12.847-20.509 14.813-32.406 6.924-26.962 15.81-53.55 24.469-80.063-5.78.111-9.13 5.904-11.532 10.469-7.87 16.367-8.079 35.053-12.834 52.408-5.217 21.75-13.207 43.303-26.375 61.539.506 1.46 3.814-3.01 5.119-4.218.899-1.011-1.016 1.747-.91 2.458-1.2 5.272 2.254 10.148 6.031 13.407-2.073-7.184 3.874-13.324 7.621-18.831 6.31-8.062 12.913-16.208 15.698-26.244 10.8-32.267 17.769-65.691 28.455-97.985 5.813-15.42 14.527-30.522 27.601-40.659l-1.78.187zm13.281 4.312c-14.002 1.574-24.562 13.032-30.637 25.037-7.603 14.713-9.916 31.42-14.635 47.175-5.04 17.847-9.364 36.012-16.415 53.194-6.114 10.004-9.18 21.533-13.353 32.428-4.065 7.265-8.805 14.714-9.616 23.166-.374 3.145 2.637 4.975 5.531 4.531 3.292.522 6.674-1.481 6.777-5.04.755-5.637.625-11.884 1.804-17.663 1.456-8.567 3.853-17.758 10.513-23.765 8.044-11.373 11.615-25.182 15.58-38.386 4.044-14.65 6.5-29.659 11.943-43.933 7.544-20.904 17.8-41.773 34.477-56.775-.655.02-1.315-.04-1.969.031zm.594 27.063c-8.337 2.043-18.004 5.039-22.437 12.968-1.22 2.223-1.415 4.807-1.125 7.313 7.669-7.488 15.628-14.673 24.867-20.077.824-.405-1.119-.243-1.305-.204zm1.813 3.843c-9.072 7.367-18.128 15.335-28.563 20.469-1.864 3.67-.934 8.187-.531 12.156 10.635-8.338 21.756-16.968 28.531-28.875.424-1.11 3.596-7.249.563-3.75zM111.25 164c-10.22 3.631-19.332 10.64-27.328 18.004-8.691 8.156-15.828 18.21-19.36 29.684 15.819-14.56 31.899-28.954 46.666-44.54.53-.532 3.375-3.66.022-3.148zm10.813 2.156c-10.076 7.305-19.35 16.186-26.22 26.656-1.902 2.443-2.426 5.924.578 2.001 8.658-9.433 17.758-18.97 26.298-28.188.1-.812.01-.768-.656-.469zm95.968.125c-27.64 8.851-50.422 28.74-67.916 51.391-.994 1.128-4.352 6.015-1.153 3.552 19.006-17.2 38.099-34.354 59.444-48.568 3.74-2.684 8.11-4.274 11.906-6.562-.818-.243-1.502-.126-2.28.187zm-25.781 3.875c-6 .256-10.405 5.488-11.281 11.156 4.766-4.098 9.619-9.063 16.032-10.045 1.82-.784-2.539-1.209-3.751-1.142-.333.009-.668-.02-1 .031zm-12.375 4.344c-5.366 2.138-10.832 4.489-16.594 4.688-2.872 2.578-1.588 7.282-1.469 10.75.351 3.027 4.013-2.673 5.808-3.457 4.522-4.149 9.507-7.85 13.724-12.293l-1.469.312zm-60.969 6.625c-25.095 18.444-44.874 42.968-63.892 67.417-4.546 5.52-8.385 11.827-13.358 16.802-4.05 3.137-5.826 8.676-9.312 12.406-2.415 9.915-2.251 20.406-3.016 30.59-.56 11.59-1.025 23.185-1.297 34.785 3.676 3.126 7.38 6.22 11.032 9.375-2.942-20.07-5.017-41.204.874-60.875 1.83-6.264 5.517-11.742 10.556-15.848 22.59-22.098 45.145-44.233 67.757-66.308-1.985-9.615.227-19.508 1.656-29.063l-1 .719zM87.187 200.75c-21.002 7.943-35.922 26.31-46.436 45.51-2.592 5.305-5.742 10.425-7.188 16.178 10.631-11.85 20.687-24.264 31.303-36.144 7.757-8.855 15.727-17.692 23.884-25.95l-1.563.406zm61.376 34.563c-11.768 20.852-18.44 44.246-23.063 67.625-4.316 22.585-6.09 45.613-6 68.593 2.633.422 5.296.592 5.093-2.717 4.175-20.023 7.231-40.408 14.215-59.654 2.217-5.625 7.561-11.013 5.38-17.504-1.187-3.526-5.028-5.688-5.25-9.656-1.237-4.046 1.576-7.251 4.25-9.813 6.572-9.08 6.252-21.13 6.425-31.937-.406-1.123.67-9.119-1.05-4.938zM80.469 252.25c-9.9 1.945-15.364 11.974-17.497 21.079-2.859 12.109-3.212 25.108-1.537 37.514 1.724-3.855 2.978-9.295 4.525-13.747 4.892-15.092 9.4-30.354 15.446-45.033l-.49.098zm8.75 8.281c5.277 11.446 17.116 19.832 30 19.281 1.412.05 5.045-.302 4.83-.946-6.22-1.326-11.173-6.002-15.174-10.46-7.574-.127-14.733-3.704-19.875-9.156l.219 1.281zm3.312 17.125c-1.2 18.157-6.141 35.729-12.125 52.795.685.57 2.365-2.354 3.188-3.607 8.433-14.805 10.547-32.352 9.937-49.188-.58-1.337-.33-1.398-1 0zm-42.906 10.281c-7.569 2.787-9.217 11.982-9.25 19.157.204 17.617 5.523 34.645 11.375 51.094 2.66 1.397 5.313 2.811 7.969 4.218-6.247-24.316-7.967-49.676-9.438-74.719l-.467.178zm63.375 1.25c-9.21 13.72-14.832 30.282-13.844 46.938 1.193 2.947 1.47-4.19 2.125-5.719 2.98-13.426 5.65-27.11 11.844-39.469.594-.723 1.636-3.366-.125-1.75zm-24.219 48.375c-5.928 1.791-12.25 1.025-18.219-.156 7.644 6.227 16.409 11.908 26.313 13.313 1.83-1.496 5.356-2.635 5.125-5.375-2.138-1.39-5.38.056-7.656-1.313-2.802-1.023-4.453-3.852-5.063-6.656l-.468.176-.032.011zM70.47 342.97c-4.097.808-3.234 6.073-2.302 9.051 1 5.533 1.438 11.148 2.083 16.73 2.427-5.682 1.696-12.154 2.434-18.187.035-2.623 3.539 2.024 5.222 2.187 5.648 3.164 11.989 5.266 18.531 5.281 1.449 5.51-2.056 10.77-5.187 14.969 6.721-2.418 10.537-10.652 9.031-17.438-1.105-4.137-6.18-3.009-9.183-4.81-6.618-2.378-12.59-6.93-19.692-7.846-.312.027-.632-.047-.937.063zM30.03 435.938c1.417 18.184 7.2 36.64 19.782 50.125 4.255.623 1.056-2.69.302-4.801-6.003-13.106-12.549-26.635-13.896-41.2.616-3.182-4.029-3.158-5.916-4.817-.714-.667-.195.442-.272.692zm11 5.875c-1.176 1.033 1.17 4.555 1.301 6.522 4.343 13.225 8.189 27 15.73 38.759 1.647 2.771 5.913 2.96 8.5 1.344-7.042-14.958-14.556-29.714-20.343-45.25.148-2.885-3.304-.929-5.188-1.375zm21.157 6.437c-4.042-.272-1.777 3.376-1.407 5.75 3.457 12.616 6.97 25.678 14.313 36.688 3-.107 5.999-.293 9-.407-8.278-13.47-15.642-27.468-21.469-42.125l-.438.094zm9.5 4.219c2.027 6.479 4.125 12.938 6.374 19.344 1.74-.999 7.598.432 6.018-2.57-2.1-5.424-3.498-11.289-6.08-16.43-2.025-.78-4.324-.843-6.531-1.063l.145.478zm18.093 2.906c-1.632-.1-3.262 1.181-2.046 2.855 1.559 4.442 2.43 9.302 4.89 13.332 2.009-.527 7.767 1.207 5.018-2.232-2.174-4.457-4.42-9.207-5.893-13.736-.614-.293-1.289-.306-1.969-.219zm14.75 2.844c-2.523-.423-2.47 1.356-1.699 3.322.86 3.348 1.298 7.104 3.387 9.896 1.78-.818 8.252.715 5.86-2.2-2.012-3.434-4.141-7.12-5.673-10.643-.481-.438-1.226-.45-1.875-.375zm14.188 2.531c-1.805.808-8.248-.807-6.005 2.092 2.246 4.092 4.123 8.49 4.692 13.064 2.732 4.897 3.71 10.685 3.531 16.344 3.408.256 6.812.555 10.22.813-4.496-10.072-9.827-20.2-11.845-31.094-.264-.343.38-1.703-.593-1.219zm6.5 1.156c-2.979.83-.998 4.563-.717 6.538 2.04 8.843 4.66 18.082 10.248 25.275 1.815.26 5.899.88 5.563-2-4.754-9.332-8.804-19.248-12.532-29.031a3.267 3.267 0 00-2.562-.782zm13.281 4.844c-2.12 10.675 4.312 20.932 11.51 28.229 3.14 2.784-.305-2.84-.959-4.204-3.585-7.577-7.945-14.998-9.613-23.275-.323-1.149.626-4.258-.938-.75zm-60.094 7.156c7.892 4.382 17.734 4.759 26.438 2.656 2.148-.746 4.565-1.212 6.437-2.656-10.605.288-21.307.976-31.904-.082l-.498.042zm35.188 3.875c-1.337.209-3.684 2.783-1.281 2.906 1.245.49 4.869 1.4 4.374-1-.428-1.167-1.818-2.128-3.093-1.906zm-15.438.875c-2.376.112-4.072 1.893-5.5 3.625 2.917-.876 6.528-.988 9.156-1.906.269-1.512-2.548-1.81-3.656-1.719zm18.875 5.125c-3.113.937-4.337 6.102-.75 7.313 2.19 1.13 1.914.672 1.594-1.375-.286-1.798 1.216-4.824-.688-5.969l-.156.031zm-15.906 1.313c-2.517.74-1.865 4.922-.844 6.312 1.816-.167 5.08 1.17 6.125-.781-.754-2.22-2.227-6.375-5.281-5.531zm60 79.719c2.008 9.022 8.56 17.229 17.688 19.812-5.484-6.65-11.915-12.752-16.657-19.875-.551-.77-1.33-1.637-1.031.063zm23.781-.282c-.417 2.472 1.79 5.02 2.672 7.348 4.436 8.354 9.592 16.605 17.016 22.59-2.596-6.55-7.111-12.21-10.706-18.221-2.688-3.985-5.112-8.337-8.294-11.873-.215.077-.593-.165-.688.156zm-47.969 1.875c1.992 3.61 3.538 8.023 7 10.344 1.802-.47 8.545 1.264 5.019-1.587-2.966-3.1-5.697-6.696-8.8-9.507-.717.343-4.607-.76-3.219.75zm15.375 0c-.627 3.279 2.137 6.701 4.438 8.969 2.43 2.156 5.32 3.97 8.5 4.844-3.971-4.69-8.804-9.088-12.438-13.969-.176.032-.438-.114-.5.156zm-28.687 1.813c7.843 8.723 17.773 15.815 29.125 19.187 5.927 2.477 11.796 5.783 15.906 10.813 2.607-3.05-.551-7.098-3.312-8.719-6.56-4.216-14.775-5.2-21.341-9.614-5.959-3.363-11.263-7.859-16.222-12.48-.659.405-6.554-.87-4.156.813zm52.813.25c3.115 7.425 7.215 14.68 8.75 22.593 4.206 1.175 7.535 4.457 10.125 7.72 3.971-.461 4.986-1.857 1.72-4.658-6.583-8.793-13.42-17.432-19.814-26.343-.605.119-1.53-.419-.781.688zm-66.157-.031c-1.601.677-7.948-.02-6.281 1.625 10.662 9.106 21.328 18.417 32.313 27 3.914 5.393 7.613 13.123 15.03 13.593 3.358.221 7.108-1.716 7.063-5.406-.181-6.633-6.94-10.1-12.094-12.969-13.107-5.767-26.494-12.844-35.75-23.875l-.28.032zm-18.25 3.062c8.304 10.193 17.607 20.663 30.344 25.094 7.376 3.658 13.28 9.603 18.564 15.552 1.489-.335-2.04-4-2.868-5.45-6.265-8.276-14.025-16.026-23.883-19.602-8.2-4.273-15.097-10.335-21.854-16.474-1.06-.839-.454.29-.303.88zM183 596.031c-5.831 4.007-12.815 6.827-18.75 10.75-4.211 4.304-9.82 6.862-15.531 8.782.25 4.826 5.964 6.102 9.875 6.718 1.802-.09 5.23 1.617 5.009-1.208 2.073-8.987 10.865-14.174 18.67-17.954 2.224-.946 4.433-1.948 6.758-2.619-1.691-1.637-3.433-4.512-6.031-4.469zm400.233 26.895s55.154-32.174 65.314-48.14c0 0-40.882 33.141-65.314 48.14zm4.596-12.821s47.655-29.997 49.349-36.286h-19.353s-24.674 32.173-29.996 36.286zm5.564-15.24s17.9-10.644 18.868-24.433l-13.788-.726s-6.773 8.951-5.08 25.159zm-6.532 5.563c0-2.66 1.21-22.98 5.564-30.238l-8.466-.484s-10.402 17.176-25.4 29.271c0 0 7.982 17.659 28.302 1.451zm-31.205-4.354s20.32-19.11 22.013-26.851l-11.128-.968s-5.322 14.998-17.659 21.046c.484 2.177 6.774 6.773 6.774 6.773zm-19.595.242s8.225 3.87 8.225-6.773c0-10.644 1.693-17.417 6.773-23.707 0 0-11.611-.968-14.998 30.48zm15.482-14.756l12.821-15.724s-16.933 1.21-12.82 15.724z" fill="#088740"/><path d="M149.91 693.914s6.466 22.031 17.242 30.892c0 0 6.945-10.537 16.763-10.537 9.818 0 16.524-3.832 8.142-10.776-8.381-6.945-26.342-11.256-42.147-9.58zm19.637 33.765s6.465 9.819 20.594 9.58c14.13-.24 34.005-2.396 41.669-1.198 7.663 1.197 37.836-6.466 32.568-18.68-5.269-12.212-21.074-7.423-21.074-7.423s-7.184 3.113-23.947-7.663c-16.763-10.776-33.287-31.37-42.626-45.02-9.34-13.65-17.482-26.582-31.132-34.724-13.65-8.142-46.697-34.724-46.697-34.724s-3.831 17.242 16.524 25.624c20.355 8.381 36.4 21.552 40.47 29.694 4.072 8.142 12.453 31.371 33.048 47.655 20.595 16.285 13.89 26.342 4.55 26.342s-21.313-.478-23.947 10.537zm405.338-2.355s-4.572-11.006-12.7-12.022-18.458 0-14.902-8.636c3.556-8.636 33.867-12.7 44.027-11.346-1.355 14.902-16.425 32.004-16.425 32.004zm-1.694.847s-5.926 15.748-46.228 8.297c0 0-32.68 4.91-47.243-11.514-14.563-16.426 22.013-13.886 22.013-13.886s17.304 4.08 59.774-45.889c47.013-55.312 81.619-76.538 81.619-76.538s4.408 11.723-3.255 18.668c-7.663 6.944-33.766 10.776-45.74 28.018-11.973 17.242-23.353 42.94-37.836 53.163-16.284 11.495-23.947 24.187-10.776 28.976 13.17 4.79 16.31-6.609 27.672 10.705z" fill="#b70f15"/><path d="M180.17 532.116s-9.144-9.822-11.515-19.982c-2.37-10.16-3.048-14.224-11.853-17.949.339.01 0 0 0 0s11.853-14.224 4.064-30.48c-7.79-16.256-10.837-25.061-9.821-33.866 1.016-8.806 5.08-22.352-19.304-37.93 0 0-2.032-12.87-.677-13.547 1.354-.678 3.725-1.016 3.725-1.016s4.064-48.768 22.69-80.264l-10.16-13.547 29.464-45.042 17.95 3.048s37.253-39.624 71.797-53.51l2.535-16.536 47.587-16.653 13.547 12.53s47.074-8.466 82.973.678l12.87-13.208 51.138 17.61v17.273s41.317 17.95 68.749 51.477l18.288-2.37 31.496 44.703-10.5 13.208s20.32 43.01 22.691 81.957l12.531 5.419.339 4.064s-32.173 10.16-31.496 30.48c.677 20.32-2.37 29.802-6.096 37.93-3.725 8.128-4.741 22.352-4.741 22.352s-25.062 7.112-28.448 10.16c0 0-8.467-13.208-26.755-19.642 0 0-4.064-9.483-14.563-10.838 0 0-2.709-16.256-26.077-20.658 0 0-7.112-10.838-19.304-14.902 0 0-5.418-37.592-7.789-40.3 0 0-38.27-14.225-90.762-.34 0 0-24.046-6.773-35.222-3.725-11.175 3.048-116.5 121.242-116.5 121.242l-29.126 11.854 7.79 17.272z" fill="#fbca0a"/><path d="M365.435 470.965l.24-85.492s38.076-11.974 77.589-2.155l5.029 80.702s-48.134-13.171-82.858 6.945zm97.466 7.902s-2.395-69.207-10.777-92.197l-5.268-2.155 4.071 80.942zm-94.592-5.987s25.623-17.242 79.744-6.465l13.65 14.607s-62.502.48-79.984 2.635zm-17.84 11.136l14.128-10.178 13.41 10.298s-10.656 6.465-15.685 5.507c-5.029-.957-11.854-5.627-11.854-5.627zm-4.67-.36l15.805-10.536s-24.905-17.242-81.421-6.705l-11.495 13.889s64.658.958 77.11 3.353zm-79.026-6.226l.478-32.568 12.693-9.579-1.198 29.455zm15.805-43.584l-1.198 30.174s48.853-12.932 81.66 7.424v-86.21s-73.997-27.54-80.462 48.612z" fill="#fff"/><path d="M350.827 488.207s-11.973-2.395-24.665-2.156c-12.692.24-63.7-1.915-63.7-1.915l.479-33.048-48.374 50.53-27.778 11.254 6.944 14.848 18.2-5.508-2.873-5.987s20.594-3.113 26.82-4.31c0 0 37.119 17.96 56.037 19.397 0 0 7.663-13.171 17.242-14.369 0 0 4.071-6.465 9.34-7.423 0 0-.48-9.34 7.663-11.734 8.142-2.395 10.537-8.621 10.537-8.621s6.705.478 7.902 1.676c0 0 4.79-2.634 6.226-2.634zm16.524 5.508l3.832 3.831s9.1-4.79 19.636 3.592c0 0 13.41 2.155 17.482 8.382 0 0 15.566-.719 22.27 10.297 0 0 12.214-1.916 16.524 3.592 4.31 5.508 9.819 7.903 17.721 7.663 7.903-.24 11.256-1.916 12.453-4.07 1.197-2.156 9.579-6.706 13.65-6.227 4.07.479 10.537-8.142 10.537-8.142s4.31-8.142 17.72-8.382c13.411-.24 17.961-8.86 17.961-8.86s0-1.916 10.058-6.226c0 0-8.142-11.735-27.3-17.003 0 0 1.437-7.424-12.452-11.255 0 0-.719-14.369-26.582-20.834 0 0-6.226-10.058-16.524-14.13l2.395 58.193-87.407 3.352s-5.748 4.79-11.974 6.227z" fill="#09a04b"/><path d="M189.653 540.92s30.14-17.271 66.04-3.386c35.898 13.886 44.365 13.208 57.911.678l-5.418-5.758 5.418 5.758s-1.693-3.048-7.112-5.758c0 0 17.272 2.032 27.432-15.578s20.659-10.16 20.659-10.16 3.725 8.128 20.658 7.112c-.11.201 0 0 0 0s7.451 6.096 18.288 7.45c10.838 1.355 16.934 5.758 16.934 5.758s7.45 11.176 28.109 9.82c0 0 8.805 12.87 31.834 6.097 0 0 12.53-.339 27.77-11.176 0 0 25.4-9.483 29.126-9.483 3.725 0 7.45-14.224 48.43-19.98 0 0 1.354-5.08 8.466-7.452l-5.08-13.208s-38.947 12.87-40.979 15.24c-2.032 2.371-10.498 8.806-12.53 8.806s-17.272 0-22.69 8.128c-5.42 8.128-7.451 7.789-12.193 8.466-4.741.678-9.482 3.387-14.224 8.467-.265.037 0 0 0 0s-15.578 4.741-22.69 1.016c-7.112-3.725-6.435-10.499-25.062-8.805 0 0-1.016-10.499-21.674-10.499 0 0-1.693-7.112-18.627-9.144 0 0-6.773-6.773-18.288-3.048 0 0-10.837-13.547-25.06-5.757-1.694-1.016-6.774-2.032-8.129.338 0 0-5.757 4.403-7.112 5.758-1.355 1.354-6.434-3.387-8.805 10.498 0 0-8.805 4.403-9.483 7.451 0 0-11.176 5.08-12.87 9.821-1.692 4.742-6.095 6.435-11.175 4.742-5.08-1.694-37.592-9.483-51.139-18.966l-24.045 4.064 3.726 5.08-33.867 10.499s3.387 4.064 7.45 7.112z" fill="#919191"/><path d="M536.107 518.23l5.25-3.894s12.192 8.466 25.569 3.556l-3.725 7.281s-14.224 2.201-27.094-6.943zm8.975 28.448l4.741-5.08s-9.82-4.572-13.377-7.958c-.339.508-15.07 17.61-40.47 2.201 0 0-23.876 12.023-34.036 10.668 0 0 14.054 6.435 30.988-5.419 0 0 23.029 17.442 43.857-.338 0 0 1.862 2.37 8.297 5.926zm-214.714-22.69l3.556-5.08s11.007 3.048 23.707-4.742c0 0 5.418 2.879 14.393 1.863 0 0 5.927 5.08 18.627 7.62 0 0-11.684 5.927-28.448-4.91 0 0-11.515 9.99-31.835 5.249zm-26.077 22.86s7.79-4.84 8.297-5.688c.508-.846 3.048-4.303 3.048-4.303l3.218-2.71s14.731 17.103 42.84 0c0 0 18.458 18.289 44.197-.507 0 0 15.24 12.53 32.173 6.942l4.741 4.403s-13.885 9.652-37.253-3.725c0 0-18.627 16.425-44.027 0 0 0-18.288 16.425-43.349-.34 0 0-5.25 4.234-13.885 5.928zm-114.3-3.895l6.435-3.217s16.933 8.466 34.205-6.096c0 0 13.377 11.514 29.803 7.789l8.805 3.387s-19.135 9.82-38.608-3.726c0 0-18.457 16.087-40.64 1.863zm20.659 22.183s9.821-.847 19.812-8.128c0 0 18.796 19.134 44.196 0 0 0 17.102 18.965 44.196-.34 0 0 17.61 17.95 42.84.34 0 0 16.934 17.44 44.027.169 0 0 20.32 18.288 43.35-.17 0 0 18.118 17.611 43.857-.169 0 0 13.716 13.039 34.035 5.927l-1.524 8.297s-15.24 4.064-33.02-6.942c0 0-14.562 17.78-43.687.338 0 0-16.256 16.425-43.519-.17 0 0-17.441 17.103-44.196.17 0 0-14.562 17.441-43.18-.17 0 0-19.303 16.257-43.857-.168 0 0-16.425 17.44-43.518.169 0 0-9.821 7.45-18.119 7.45zm304.799 23.537c-12.023-1.694-22.183-8.636-22.183-8.636-27.432 18.118-43.518-.17-43.518-.17-23.538 18.288-43.857.508-43.857.508-25.739 18.796-43.858-.338-43.858-.338-20.997 17.78-43.518.508-43.518.508-24.384 17.78-43.688-.508-43.688-.508-23.876 17.441-44.196 0-44.196 0-6.942 5.08-11.684 6.604-11.684 6.604l5.08 4.741s5.08-2.71 6.096-4.741c0 0 18.457 17.61 44.365.677 0 0 17.442 16.933 43.688-.508 0 0 18.796 16.256 44.027.508 0 0 19.812 17.61 43.349-.17 0 0 18.796 16.257 43.857 0 0 0 21.336 15.749 44.027 0 0 0 6.434 4.911 16.425 6.605z" fill="#117fcf"/><path d="M647.03 250.358a11.546 6.329-30.534 11-19.89 11.732 11.546 6.329-30.534 1119.89-11.732z" fill="#fbce1d" fill-rule="evenodd" stroke="#fbce1d"/><path d="M656.2 265.204a13.635 7.474-30.534 11-23.489 13.855 13.635 7.474-30.534 1123.49-13.855z" fill="#fbce1d" fill-rule="evenodd" stroke="#fbce1d" stroke-width="1.18095"/><path d="M651.026 259.987a11.546 6.329 0 11-23.092 0 11.546 6.329 0 1123.092 0z" transform="matrix(1.07754 -.60943 .63557 1.03321 -204.137 410.16)" fill="#fbce1d" fill-rule="evenodd" stroke="#fbce1d"/><path d="M651.026 259.987a11.546 6.329 0 11-23.092 0 11.546 6.329 0 1123.092 0z" transform="matrix(1.07435 -.57085 .54616 1.1229 -170.556 380.192)" fill="#fbce1d" fill-rule="evenodd" stroke="#fbce1d"/><path d="M651.026 259.987a11.546 6.329 0 11-23.092 0 11.546 6.329 0 1123.092 0z" transform="matrix(.80784 -.4687 .4765 .79462 -9.806 336.213)" fill="#fbce1d" fill-rule="evenodd" stroke="#fbce1d"/><path d="M630.906 226.433a5.227 9.536 55.63 01-15.742 10.766 5.227 9.536 55.63 1115.742-10.766z" fill="#fbce1d" fill-rule="evenodd" stroke="#fbce1d" stroke-width=".826"/><path d="M623.726 216.06a4.429 9.16 53.254 11-14.964 10.527 4.429 9.16 53.254 0114.964-10.528z" fill="#fbce1d" fill-rule="evenodd" stroke="#fbce1d" stroke-width=".745"/><path d="M651.026 259.987a11.546 6.329 0 11-23.092 0 11.546 6.329 0 1123.092 0z" transform="matrix(.56807 -.4337 .37034 .47892 151.42 363.884)" fill="#fbce1d" fill-rule="evenodd" stroke="#fbce1d"/><path d="M660.434 335.592s3.592-14.54 13-18.645c0 0-16.934 0-21.552 10.435-4.619 10.434 8.552 8.21 8.552 8.21zm-9.92 37.119s2.223-10.264 1.197-10.606c-1.027-.342-5.303-.342-8.211 3.08-2.908 3.42-5.132 14.539.513 12.315s6.5-4.79 6.5-4.79zm-16.25 10.092l-1.54-10.777s-5.816 1.369-6.158 7.356c-.342 5.986 5.816 5.986 7.697 3.42zm-2.396-12.83l-2.394-12.657s-5.01 3.595-4.619 9.066c.171 2.394 1.71 6.329 3.763 5.644 2.053-.684 3.25-2.052 3.25-2.052zm-3.079-16.762l-2.223-12.145s-6.158 7.355-5.132 11.631c1.027 4.277 5.132 5.303 7.355.514zm-3.42-15.908l-1.882-10.606s-6.671 4.79-3.934 9.75c2.736 4.96 5.815.856 5.815.856zm-3.08-15.395l-2.736-10.605s-5.816 4.447-4.619 9.92c1.198 5.474 7.355.685 7.355.685zm-4.276-13.171l-2.908-10.434s-5.131 5.815-3.592 10.263c1.54 4.447 6.5.17 6.5.17zm-4.276-14.54l-4.79-9.75s-5.986 7.014-2.736 11.632c3.25 4.618 7.526-1.882 7.526-1.882zm-6.5-14.881l-4.619-8.724s-4.276 5.987-1.368 9.921c2.908 3.934 5.987-1.197 5.987-1.197zm-5.987-12.658l-4.276-8.04s-3.592 7.185-1.71 10.606c1.88 3.42 5.986-2.566 5.986-2.566zm87.237 46.355l-3.421-9.408s-4.448 3.421-3.934 7.356c.513 3.934 7.355 2.052 7.355 2.052zm-4.448-14.54l-5.644-9.75s-7.013 5.303-4.619 9.238c2.395 3.934 10.263.513 10.263.513zm-8.723-17.105l-2.908-4.105-.513-5.131s-7.013 5.131-4.106 7.697c2.908 2.566 7.527 1.54 7.527 1.54zm-3.592-15.565l.342-11.29s-12.658 5.303-10.434 9.58c2.223 4.275 10.092 1.71 10.092 1.71zm1.026-20.356l.171-6.67s-9.75-2.566-15.053 1.368c-5.302 3.934-3.42 9.408 2.737 9.066 6.158-.343 12.145-3.764 12.145-3.764z" fill="#fbce1d" stroke="#fbce1d"/><path d="M655.645 348.849a8.553 6.414 0 11-17.106 0 8.553 6.414 0 1117.106 0z" transform="matrix(.55406 -.86852 .73125 .61183 30.471 701.361)" fill="#fbce1d" fill-rule="evenodd" stroke="#fbce1d"/><path d="M655.645 348.849a8.553 6.414 0 11-17.106 0 8.553 6.414 0 1117.106 0z" transform="matrix(.55406 -.86852 .73125 .61183 26.11 685.368)" fill="#fbce1d" fill-rule="evenodd" stroke="#fbce1d"/><path d="M655.645 348.849a8.553 6.414 0 11-17.106 0 8.553 6.414 0 1117.106 0z" transform="matrix(.53446 -.82646 .70538 .5822 42.773 652.493)" fill="#fbce1d" fill-rule="evenodd" stroke="#fbce1d"/><path d="M655.645 348.849a8.553 6.414 0 11-17.106 0 8.553 6.414 0 1117.106 0z" transform="matrix(.51466 -.793 .67925 .55863 58.969 622.983)" fill="#fbce1d" fill-rule="evenodd" stroke="#fbce1d"/><path d="M655.645 348.849a8.553 6.414 0 11-17.106 0 8.553 6.414 0 1117.106 0z" transform="matrix(.43469 -.69352 .5737 .48855 141.898 565.44)" fill="#fbce1d" fill-rule="evenodd" stroke="#fbce1d"/><path d="M655.645 348.849a8.553 6.414 0 11-17.106 0 8.553 6.414 0 1117.106 0z" transform="matrix(.39065 -.52383 .51559 .36901 184.593 482.111)" fill="#fbce1d" fill-rule="evenodd" stroke="#fbce1d"/><path d="M655.645 348.849a8.553 6.414 0 11-17.106 0 8.553 6.414 0 1117.106 0z" transform="matrix(.4688 -.7006 .61873 .49353 92.4 540.995)" fill="#fbce1d" fill-rule="evenodd" stroke="#fbce1d"/><path d="M655.645 348.849a8.553 6.414 0 11-17.106 0 8.553 6.414 0 1117.106 0z" transform="matrix(.47754 -.62306 .63026 .43892 77.16 496.452)" fill="#fbce1d" fill-rule="evenodd" stroke="#fbce1d"/><path d="M655.645 348.849a8.553 6.414 0 11-17.106 0 8.553 6.414 0 1117.106 0z" transform="matrix(.45797 -.58104 .60443 .40931 91.736 470.606)" fill="#fbce1d" fill-rule="evenodd" stroke="#fbce1d"/><path d="M655.645 348.849a8.553 6.414 0 11-17.106 0 8.553 6.414 0 1117.106 0z" transform="matrix(.51679 -.45088 .68206 .31762 58.755 383.214)" fill="#fbce1d" fill-rule="evenodd" stroke="#fbce1d"/><path d="M655.645 348.849a8.553 6.414 0 11-17.106 0 8.553 6.414 0 1117.106 0z" transform="matrix(.8652 -.19265 .09265 .6164 46.272 120.27)" fill="#fbce1d" fill-rule="evenodd" stroke="#fbce1d"/><path d="M655.645 348.849a8.553 6.414 0 11-17.106 0 8.553 6.414 0 1117.106 0z" transform="matrix(.87448 -.11436 -.02355 .63604 88.499 73.236)" fill="#fbce1d" fill-rule="evenodd" stroke="#fbce1d"/><path d="M655.645 348.849a8.553 6.414 0 11-17.106 0 8.553 6.414 0 1117.106 0z" transform="matrix(1.01106 -.19723 -.0081 .6464 3.025 133.673)" fill="#fbce1d" fill-rule="evenodd" stroke="#fbce1d"/><path d="M532.219 72.406c3.15 2.65 7.508 3.79 10.937 6.219 26.12 15.063 44.284 41.362 52.923 70.117 2.969 9.636 4.944 19.816 5.89 29.914 6.746 7.056 13.269 14.336 20.156 21.25-1.54-8.624-2.163-17.53-5.438-25.75-2.09-5.52-5.125-11.075-10.062-14.437 2.444.262 6.107 1.556 4.295-2.113-7.948-32.597-31.302-60.195-60.165-76.607-5.804-3.18-11.686-6.535-17.911-8.61l-.5.014-.125.003zM535.25 84.5c4.804 3.333 10.39 5.738 15.13 9.325 10.215 7.403 19.792 16.16 25.526 27.612 4.67 16.796 6.814 34.34 9.66 51.58 1.334 8.551 2.467 17.185 3.809 25.702 3.552 4 7.107 7.997 10.656 12-1.113-12.537-1.98-25.484-6.843-37.188-2.248-1.826 1.587-3.125.144-5.246-3.747-16.625-7.229-33.398-11.628-49.817-4.917-12.559-16.964-20.437-28.391-26.655-5.588-2.798-11.31-5.711-17.344-7.331l-.5.012-.219.006zm27.406 27.844c1.257 5.728 1.91 11.812.476 17.468.688 9.633 5.714 18.307 10.243 26.594 2.016 5.447 3.352 12.125.156 17.406-2.282 10.578-1.4 21.673-1.342 32.469-.449 3.115.47 5.605 3.184 7.315 4.35 4.233 8.739 8.427 13.064 12.685-.827-10.275-1.403-20.685-2.406-30.875-2.455-2.908-4.793-5.941-7.5-8.594 1.844-.044 6.32 3.63 6.157.782-1.119-20.997-3.74-42.445-12.205-61.813-2.515-5.626-5.844-10.83-10.17-15.219l.343 1.782zm52.969 47.531c12.183 8.085 22.588 18.717 33.444 28.59a1645.573 1645.573 0 0130.431 29.472c-.341 20.827-1.227 41.68-.563 62.5 1.625 5.174 6.4 8.702 9.917 12.667 2.251 2.053.45 5.782.98 8.552-.158 15.417-.276 30.834-.459 46.25 7.106-10.379 7.975-23.233 9.45-35.404 1.587-18.254 1.571-36.613 1.925-54.908-1.845-13.313-9.178-25.115-16.142-36.34-4.324-5.674-6.619-12.418-11.063-18.044-8.454-11.54-18.068-22.538-29.639-31.023-5.416-3.37-11.844-4.847-17.363-7.907-3.897-1.485-7.528-4.396-11.606-5.374l.688.969zm-93.5 7.406c-4.526-.308-2.124 1.207.561 2.695 13.963 9.159 28.385 18.015 40.501 29.305 1.3.578 3.056 5.277 3.1 3.25.027-4.311.656-8.866.338-13.031-5.157-3.64-10.23-7.949-15.438-11.188-5.216 1.822-11.075-1.677-12.593-6.906-.812-2.598-4.493-2.366-6.693-3.256a36.522 36.522 0 00-9.776-.869zm8.063 12.125c12.348 10.225 25.05 20.24 35.562 32.313-.222-2.649 1.316-6.066 0-8.238-10.85-9.332-22.283-18.263-35.031-24.887-1.421-.243-1.539-.613-.532.812zm74.062 6.438c.26 6.541.518 13.083.781 19.625 3.988-1.763 8.2-3.731 12.657-3.094a3802.11 3802.11 0 00-13.5-18.156l.062 1.625zm-9.406 23.187c-2.087 2.426-1.121 6.315-1.203 9.31.264 2.936.889 5.794 2.203 8.44 1.204-3.534 3.36-6.843 4.531-10.219-1.602-2.53-2.559-6.116-5.281-7.562h-.125l-.125.031zm-22.719 3.25c-1.033 3.423-.682 7.442 2.153 9.98 4.577 5.755 8.964 11.862 14.378 16.802.344-3.152 1.29-6.534 1.219-9.563-5.841-6.023-11.701-12.028-17.531-18.063l-.126.484-.093.36zm1.406 15.844c.346 3.88-1.143 8.254 1.782 11.438 4.556 6.822 8.478 14.765 15.592 19.244.736-1.714-.128-6.009-.003-8.707.607-3.191-.957-5.51-3.275-7.518-4.7-5.255-9.387-10.523-14.096-15.77v1.313zm134.75 40.625c-1.323 27.482-6.3 54.638-11.562 81.594 2.727-1.18 6.07-1.837 8.437-3.344 4.018-21.474 7.494-43.334 6.382-65.246-.441-4.929-.807-10.044-2.976-14.535l-.28 1.531zm-112.687 33.344c9.22 24.68 15.028 50.385 19.875 76.25 1.82-.349 7.816 1.275 6.914-.449-4.203-4.562-6.271-11.64-3.508-17.52-3.925-4.12-4.727-10.402-3.469-15.844-2.97-4.332-5.392-9.83-3.75-15.156 1.375-2.031-.261-3.083-1.218-4.813-1.878-3.244-1.08-7.388-.75-10.687-3.842-2.95-6.434-7.551-6.125-12.469-2.14.488-7.554-.958-7.97.688zM684.906 315c-12.152 4.267-18.864 16.532-23.343 27.875-3.573 9.625-6.093 19.609-7.313 29.813 9.953-4.73 19.924-9.427 29.906-14.094-.865-13.423-2.276-27.153.469-40.438-.191-.957 2.715-4.622.281-3.156zm26.813 118.813c-3.899 2.101-8.334 3.822-11.907 6.156-2.282 16.895-8.292 33.262-17.906 47.375 4.444-.804 9.542-.533 13.5-2.75 8.81-15.815 13.686-33.575 17.219-51.25l-.906.469zm-19.782 7.937c-3.817 1.496-8.257 2.437-11.718 4.25-3.588 14.686-8.02 29.898-17.219 42.188-3.358 2.949 3.536.703 5.328 1.046 2.487-.832 6.622.84 7.981-1.713 7.248-14.567 14.142-29.807 16.378-46.052l-.468.175-.282.106zm-21.53 6.781c-3.729 1.395-8.06 2.278-11.438 3.969-3.87 13.85-9.765 27.173-18.5 38.656 4.639-.385 9.56-.308 14.031-.969 7.013-9.758 10.388-21.698 14.173-33.045.945-2.944 1.765-5.919 2.608-8.892l-.476.153-.399.128zm-23.876 6c-3.671 1.014-7.978 1.409-11.281 2.781-4.148 12.663-10.991 24.175-17.875 35.563 4.376-.45 8.993-.472 13.219-1.25 7.234-11.598 12.658-24.24 16.75-37.281l-.487.112-.326.075zm-20.593 4.156c-3.588 1.147-7.724 1.785-11 3.22-3.315 10.175-6.394 20.946-12.782 29.5-3.832 2.705-1.344 2.5 2.25 2.343 2.773-.35 6.447 1.232 7.86-2.05 7.605-9.544 12.9-21.069 14.422-33.231l-.48.14-.27.079zm-18.657 4.344c-2.166 1.233-6.323.406-6.625 3.538-3.335 9.159-6.045 18.852-11.75 26.868-3.913 2.571 2.724.686 4.388.88 2.994.446 4.785-.9 5.441-3.774 3.788-8.953 8.152-17.99 9.265-27.73l-.478.145-.24.073z" fill="#088740"/></g><g><path d="M427.867 376.922s19.468-37.667-6.635-69.517c-26.102-31.85-69.146-27.181-88.605-13.171-17.96 12.931-38.076 41.429-21.792 79.984 16.285 38.555 33.159 3.72 33.159 3.72s16.71 3.113 21.02 4.79c0 0 28.1-8.126 62.853-5.806z" fill="#ed1a23" stroke="#ed1a23"/><path d="M272.626 424.081l-54.864 39.624 53.848-42.672.677-10.498-28.11 17.61 30.142-19.98 2.37-5.08-.338-6.097-95.842 43.688 95.842-49.445 2.032 12.87zm25.4-50.122l-74.845 25.738 74.167-28.786zm-.678-5.419l-1.838-4.741-114.663 32.173zm-1.838-8.128l-1.548-4.741-69.572 14.901zm167.45 62.992l-.558-4.7 50.28 37.229zm-2.272-15.558l-.48-2.37 34.92 22.67zm-2.23-13.229l-1.355-5.935 98.308 52.333zM436.88 374.49l1.936-4.838 71.845 27.82zm2.42-7.74L551.3 394.082l-110.55-30.963zm1.935-7.016l.242-3.629 75.716 15.24zm.967-7.015l133.774 5.564-133.532-10.644zm.242-8.467l-.484-3.87 84.183-3.387zm-1.21-6.531l115.631-20.562-115.872 15.965zm-1.45-7.5l77.65-20.561-78.135 17.417zm-1.936-6.53l-.726-5.323 127.726-44.752zm1.935-11.612l62.17-33.383-62.17 28.787zm22.255-38.705l35.319-29.029-35.077 31.448zm12.338 5.806l51.767-32.658-51.525 35.319zm-52.252 13.304l87.812-81.038-84.425 84.425zm-2.66-.241c.725-.968 43.542-58.3 43.542-58.3l-46.93 55.88zm-5.807-2.903l61.444-99.181-65.556 95.794zm-6.29-5.806c0-1.693 32.174-63.621 32.174-63.621l-35.076 62.411zm-5.805-3.387l-4.354-1.693 48.865-115.147zm-12.82-4.354l21.287-73.54-17.66 74.75zm-8.467-2.42l5.08 1.21 16.933-107.647zm-2.42-.241l3.63-70.394-7.984 69.91zm-7.982-.726l.242-107.164-5.08 107.164zm-11.37.242l3.629-.484-8.467-67.733zm-4.838 1.452c-.726-1.936-20.32-106.922-20.32-106.922l16.45 107.405zm-7.015 1.693l-20.804-70.878 17.659 71.846zm-11.854 5.564l4.113-2.903-49.107-113.695zm-10.643-12.095l-29.029-48.623 25.642 47.413zm-24.433-20.562c-.725-1.21-38.946-57.09-38.946-57.09l37.495 59.992zm19.595 41.365l-2.178 1.694-44.994-57.574zm-6.532 9.677l1.935-5.564-88.295-81.764zm-1.693 1.21l-60.718-43.544 58.057 46.446zm-6.532 8.466l2.903-3.629-99.665-59.992zm-3.87 7.257l2.419-3.87L230.535 277zm-5.322 36.528l-.726-5.08-133.773 10.16zm-.726-7.5l.484-3.87-52.977-2.66 13.305 2.418zm-1.21-6.773l2.904-4.838-120.47-17.9zm1.936-7.74l1.693-3.871-37.495-7.5.484 2.42zm2.66-6.774l1.694-5.08-132.322-45.72z" fill="#ed1a23"/><path d="M435.913 374.731s14.998-37.253-11.612-69.669c-26.61-32.415-58.057-29.028-78.377-23.706-20.32 5.322-59.025 39.188-43.059 92.891" fill="none" stroke="#fbca0a" stroke-width="12"/></g><g><path d="M502.24 504.345s8.026-4.386-11.852-25.4c-21.564-22.796-108.373-131.402-108.373-131.402l38.607-32.85 7.79 9.143 37.592-32.85s-.339 4.741 57.234-54.187l-54.864 41.318s-6.773-1.016 0-7.112l-2.37-2.71s0 2.032-4.742 1.694c0 0-4.741 1.016-5.418 2.37 0 0-11.176-8.466-11.854-10.837-.677-2.37-3.048 3.048-3.048 3.048l3.048 10.16-22.352 18.965s.34 6.435-10.498 2.032c-2.032 1.016-26.077 20.659-26.077 20.659l-1.694-2.71-16.933 14.224-34.883-42.333s3.726-5.757-4.74-15.24c-8.467-9.482-20.32-24.384-20.32-24.384s-10.5-1.693-15.918 10.499c-5.419 12.192-9.483 9.483-16.933 8.128-7.451-1.355-8.467-12.87-69.088 74.168l28.448 34.544 60.62-80.264s1.694-6.096 1.694-8.128 8.806-3.725 9.483-6.773c.677-3.048 6.096-.678 13.547 10.837 0 0-2.371 2.37 4.064 9.144 6.434 6.773 33.189 39.624 33.189 39.624l-4.742 4.402-5.757-.338-14.563 11.853-.677 8.805-10.16 8.806-6.096-.678-7.45 6.435-1.694 4.741-6.434-5.08-35.56 16.595-.678 6.096 12.531-6.435-.677 11.853-6.774 7.112s-.677 3.726 2.371 5.08c0 0-4.741 5.419-.339 6.435 0 0 1.694 1.355.678 3.048s-13.547 13.547-20.32 23.707l-14.563 3.725c.026.172-5.757 5.757-5.757 5.757l-28.11 25.4 21.337 28.11s47.413-69.766 51.815-71.459c0 0 7.79-7.112 11.515-5.757 3.725 1.354 11.176 8.466 13.208 22.013 2.032 13.547 6.435 9.144 6.435 9.144s6.096-5.757 7.45-6.435c1.355-.677-1.693-5.08-4.741-4.741 0 0-5.757-20.32-5.757-25.739 0 0 8.128 1.355 14.9-7.112 6.774-8.466-.676-5.757.678-13.208 0 0 37.592 24.723 78.57 20.32.678-1.016.34-25.4.34-25.4s-32.513 1.355-57.235-14.224l14.901-13.885s7.112-6.434 9.144-11.853 8.805-8.805 8.805-8.805L490.05 500.28s6.876 8.405 12.192 4.064z"/></g><g><path d="M304.206 467.007s6.266-6.265 7.62-6.604c0 0 .75-3.145-3.81-3.81-2.23-.325-6.52-25.569-6.52-25.569s-.846-7.197-4.994-4.572c-4.764 3.014-11.007 8.467-11.007 8.467s11.43 4.318 14.309 24.638c0 0 .677 7.874 4.402 7.45zm-32.574-25.188l1.726-1.627-7.183-8.662-1.367 1.41zm-1.038 1.566s-27.77 36.068-48.599 67.903c0 0-17.441-23.199-19.304-26.416l32.681-29.972 14.224-3.725 14.055-17.103zm74.366-78.507l46.817-38.315 5.508 7.184-29.695 24.905s-3.476 2.525-5.388 7.184c-1.915 4.67-8.022 10.178-8.022 10.178z" fill="#964a3c"/><path d="M301.855 423.19s2.754 5.388 7.304 1.317c4.55-4.071 6.825-5.628 4.19-8.501-2.633-2.874-3.352-3.592-4.908-2.036-1.557 1.557-5.748 5.388.479 5.747 0 0 .24 2.994-7.065 3.473zm-32.149 2.933s-2.215-1.856-.778-3.053c1.437-1.197 140.93-117.94 140.93-117.94s1.077-.719 2.514.24c1.437.957-1.676 2.155-2.395 2.753-.718.599-140.27 118-140.27 118zm36.819-26.162s1.664-1.056-.73-4.887c-2.395-3.832-2.205-9.369-5.496-11.158-2.827-1.536 3.233 12.812 6.226 16.045zm-38.196 18.2l63.7-53.522-1.317-.838-62.383 52.564zm10.393-15.585l4.233-3.895v-6.265l-4.741 3.048zm9.821-8.297l8.297-7.282-2.032-1.016-6.265 4.234zm40.64 15.41s26.585 14.223 51.816 15.578c0 0-25.908 3.386-51.816-15.579zm1.354-5.08s22.86 11.514 51.986 14.731c0 0-27.94 1.524-51.986-14.732zm52.494 9.651s-27.602-3.387-50.8-15.24c0 0 22.521 16.764 50.8 15.24zm-48.768-19.643s26.246 12.531 49.106 14.224c0 0-19.642 4.064-49.106-14.224zm3.048-27.94c-1.016-.338-7.521-3.973-7.521-3.973l-.977.835 7.143 4.663zm3.217-.93l10.916 12.644 2.013-1.942-10.389-12.311zm14.732-13.293l-8.855-10.398 4.283.188 7.112 8.686zm36.915-31.666c-.508-.846-5.01-5.916-5.01-5.916l-1.933 1.603 13.208 16.844s2.58-1.644 1.902-1.982c-.677-.339-8.167-10.549-8.167-10.549zm6.096 9.652s51.271-43.174 51.985-43.857c.47-.45-.339-.508-.339-.508l-53.001 43.18zm28.786-34.713l-1.524-.508 20.32-17.102 1.355.677zm33.528-13.038c0-1.186.677-6.266.677-6.266s6.774 6.604 6.604 8.128c-.169 1.524-2.032 4.572-3.894 2.032-1.863-2.54-3.387-3.894-3.387-3.894zm11.176-.847c.508-.677 15.07-11.345 19.812-17.95-7.112 4.234-19.812 17.95-19.812 17.95zm-37.084 24.553c.847-.508 16.764-13.377 19.981-18.288-7.958 4.403-19.98 18.288-19.98 18.288zm57.065 191.007s2.71-2.37 5.588 1.016c2.879 3.387 1.122 4.296.275 4.974-.846.677-2.752.114-4.276-2.088-1.524-2.2-1.587-3.902-1.587-3.902zm-7.514-10.88s.572-1.989-.444-2.666c-1.016-.678-22.436-27.56-22.436-27.56s-2.74-.834-1.99.255c5.808 8.43 16.866 21.118 16.866 21.118s1.27 2.37 8.004 8.854zm-57.002-71.077c-1.524-3.048-46.227-55.71-46.227-55.71l-.508.17-.339 1.862 46.228 54.525zm-69.934-81.28l2.71-2.37-35.053-44.534h-2.032l-.677 1.693zm-33.359-51.646l1.863-2.201-11.684-14.901-2.37 2.2zm-32.173-5.418s16.087.338 19.474-16.426c-6.266 11.854-19.474 16.426-19.474 16.426zm.17-11.515s10.498 2.201 13.377-11.345c-3.895 8.128-13.377 11.345-13.377 11.345zm0-4.233s9.144.846 8.974-10.499c-10.498 1.355-8.974 10.499-8.974 10.499zm-61.468 106.34l3.725-3.725-23.198-27.94-4.234 3.726z" fill="#fff"/><path d="M302.873 395.231l.539-2.095 2.395.06.359 3.113-1.976.898zm31.91-26.342c0-.359.359-1.915.359-1.915l1.856-.779 6.765-2.813-1.051 2.219-.446 1.193-1.616-.479zM389.143 323.809l.718-2.694 3.293-1.497.157 4.221-1.25.172z" fill="#fff"/><g style="line-height:125%;-inkscape-font-specification:Traditional Arabic" font-size="18" font-weight="400" letter-spacing="0" word-spacing="0" fill="#fbce1d" stroke="#000" stroke-width=".4" font-family="Traditional Arabic"><path d="M246.166 619.92l-.232 4.87c-.074 1.55.732 2.365 2.417 2.446l.952.045-.06 1.249-11.19-.534.06-1.249.515.025c.968.046 1.661-.067 2.081-.339.495-.32.764-.939.808-1.854l.603-12.626c.044-.926-.116-1.573-.479-1.94-.363-.366-1.013-.572-1.95-.617l-.67-.032.06-1.248 4.132-.053c2.182-.053 3.933-.047 5.255.016 2.382.114 4.242.37 5.579.767 1.337.397 2.391 1.021 3.164 1.872.971 1.068 1.423 2.304 1.356 3.709-.123 2.58-1.781 4.222-4.975 4.925.71.638 1.522 1.652 2.436 3.041.574.872 1.489 2.13 2.745 3.776.604.675 1.222 1.164 1.855 1.465.54.255 1.302.464 2.285.625l-.059 1.233a31.71 31.71 0 01-1.984-.048c-2.487-.118-4.279-.49-5.375-1.116a6.363 6.363 0 01-1.627-1.314c-.555-.61-1.177-1.443-1.867-2.498l-1.72-2.632c-.44-.626-.969-1.24-1.586-1.843zm.504-10.55l-.44 9.208 1.249.06c1.894.09 3.333-.133 4.318-.67 1.252-.67 1.92-1.885 2.004-3.643.147-3.07-1.674-4.695-5.461-4.876z" font-size="32" transform="matrix(1.04135 0 0 1.07913 -6.992 -39.164)"/><path d="M280.335 614.555c-.098-.984-.239-1.657-.423-2.018-.311-.596-.867-.909-1.669-.94l-7.01-.267-.275 7.198 5.184.198c.864.033 1.487-.115 1.87-.445.382-.33.59-.92.623-1.774l1.28.049-.243 6.37-1.28-.049c.043-1.145-.274-1.855-.951-2.131-.411-.162-1.028-.258-1.85-.29l-4.7-.18-.22 5.762c-.022.583.02.98.127 1.193.144.319.477.488.997.508l5.34.203c1.166.045 2.03-.183 2.59-.683.507-.439.913-1.252 1.22-2.44l1.202.047-.567 5.013-19.252-.735.048-1.249 1.312.05c1.665.064 2.527-.67 2.585-2.2l.487-12.756c.036-.947-.174-1.596-.63-1.947-.384-.296-1.076-.464-2.075-.502l-.313-.012.048-1.249 17.612.672.151 4.65zM291.351 621.787l-.14 4.747c-.029.948.186 1.6.645 1.958.387.314 1.074.485 2.064.514l.968.03-.037 1.249-10.886-.323.037-1.25.484.015c.833.024 1.398-.058 1.696-.247.372-.24.569-.744.592-1.514l.407-13.713c.028-.948-.242-1.523-.809-1.728-.32-.114-.776-.18-1.37-.197l-.703-.02.038-1.25c1.158-.05 2.89-.112 5.195-.19 2.419-.043 4.113-.05 5.08-.021 2.916.086 5.126.772 6.63 2.057 1.382 1.187 2.047 2.681 1.993 4.482-.084 2.853-1.712 4.686-4.884 5.499-1.029.261-2.147.374-3.355.338a21.193 21.193 0 01-3.645-.436zm.308-10.387l-.269 9.075c.662.176 1.43.277 2.305.302 1.999.06 3.39-.644 4.174-2.111.375-.708.578-1.583.609-2.624.043-1.468-.334-2.625-1.132-3.472-.798-.847-1.931-1.293-3.4-1.336-.75-.022-1.512.033-2.287.166zM320.31 612.235l.025-1.25 8.295.169-.026 1.25-.234-.006c-1.031-.02-1.774.147-2.23.502-.487.396-.74 1.095-.76 2.094l-.163 7.967c-.058 2.833-.898 4.952-2.52 6.357-1.56 1.354-3.771 2.002-6.635 1.943-2.718-.055-4.884-.64-6.497-1.757-1.9-1.31-2.825-3.251-2.773-5.823l.194-9.545c.018-.844-.132-1.42-.449-1.729-.317-.308-.897-.471-1.74-.488l-.547-.011.025-1.25 10.014.204-.025 1.25-.547-.012c-1.51-.03-2.28.678-2.31 2.126l-.194 9.545c-.048 2.374.894 3.966 2.825 4.777.858.361 1.813.552 2.864.574 1.927.039 3.452-.42 4.576-1.376 1.167-1.008 1.77-2.465 1.808-4.37l.159-7.78c.03-1.52-.304-2.512-1.003-2.974-.38-.237-.899-.362-1.555-.376zm-6.497-3.305l2.497-5.997 5.14.104-5.778 5.93zM332.608 627.16l.126-11.905c.016-1.53-.293-2.41-.926-2.635-.384-.129-.992-.198-1.826-.206l-.797-.008.014-1.25a28.44 28.44 0 002.016-.073 75.165 75.165 0 012.017-.135l1.782-.075c1.637-.076 2.773-.111 3.408-.104 4.333.045 7.257.837 8.772 2.373.804.821 1.2 1.794 1.188 2.92-.02 1.906-1.346 3.162-3.977 3.77 1.434.317 2.605.929 3.512 1.834 1 1 1.492 2.198 1.478 3.594-.025 2.365-1.314 4.085-3.867 5.163-1.256.528-2.738.783-4.446.765l-12.39-.13.013-1.25c1.937.02 3.129-.342 3.574-1.088.212-.372.322-.892.33-1.559zm4.492-6.577l-.066 6.25c-.015 1.437.382 2.316 1.19 2.637.416.171.977.26 1.685.268 2.99.032 4.5-1.437 4.532-4.406.016-1.552-.44-2.75-1.369-3.592-.887-.801-2.102-1.21-3.643-1.226-.584-.006-1.36.017-2.33.069zm.09-8.484l-.076 7.109c.937.052 1.76.081 2.468.088 2.667.029 4.012-1.077 4.035-3.317.028-2.604-1.552-3.922-4.74-3.956-.572-.006-1.135.02-1.688.076zM370.65 625.754l-2.353 5.558-17.14-.028.002-1.25.53.001c1.293.002 2.1-.324 2.424-.98.157-.323.236-.76.237-1.312l.02-12.813c.003-1.531-.834-2.298-2.511-2.3l-.61-.002.003-1.25 10.843.018-.002 1.25-.922-.002c-1.583-.003-2.376.74-2.378 2.23l-.022 13.188c0 .583.116.974.35 1.172.234.199.648.298 1.242.3l4.078.006c1.187.002 2.172-.444 2.955-1.339.355-.405 1.012-1.222 1.973-2.45zM370.673 612.643l-.006-1.25 10.172-.053.006 1.25-.531.003c-1.625.008-2.434.815-2.425 2.419l.065 12.672c.004.864.206 1.467.604 1.809.397.342 1.033.51 1.908.506l.47-.002.005 1.25-10.172.052-.006-1.25.454-.002c1.552-.008 2.324-.746 2.316-2.215l-.066-12.796c-.004-.865-.185-1.481-.541-1.85-.356-.367-.966-.549-1.831-.544zM402.815 625.253l1.281-.017c-.266 1.93-.84 3.88-1.72 5.851-.48-.14-1.112-.204-1.893-.194-.396.005-1.21.113-2.441.322-1.232.209-2.249.319-3.05.33-2.063.026-3.975-.375-5.736-1.206-1.855-.872-3.336-2.128-4.44-3.77a9.393 9.393 0 01-1.617-5.213c-.039-2.927 1.113-5.424 3.456-7.492 2.343-2.068 5.233-3.124 8.67-3.17 1.416-.019 2.7.152 3.85.512 1.486.48 2.255.72 2.307.72a.812.812 0 00.637-.322l.796-.01.371 5.59-1.25.016c-.726-2.137-1.943-3.58-3.65-4.327a6.684 6.684 0 00-2.79-.542c-2.28.03-4.124.842-5.53 2.433-1.427 1.623-2.124 3.685-2.09 6.185.02 1.614.374 3.104 1.059 4.47.727 1.45 1.742 2.576 3.045 3.382a7.382 7.382 0 004.11 1.149c1.51-.02 2.853-.465 4.029-1.335 1.114-.827 1.98-1.948 2.596-3.362zM419.356 623.22l-6.998.171-1.251 3.782c-.302.893-.302 1.513-.001 1.86.29.347 1.153.503 2.59.468l.406-.01.03 1.25-8.481.208-.03-1.25.483-.012c.865-.021 1.55-.324 2.057-.91.354-.425.691-1.127 1.011-2.103l5.093-15.395-.366-.93 4.733-.115 6.787 16.104c.398.949.79 1.611 1.174 1.987.512.498 1.212.768 2.098.809l.031 1.25-10.403.254-.03-1.25 1.124-.027c.937-.023 1.52-.24 1.75-.653.22-.4.153-1.009-.2-1.823zm-.777-1.747l-3.12-7.41-2.504 7.548zM436.727 611.468l-.052-1.249a173.5 173.5 0 012.26-.203l1.543-.126c.114-.005.56-.05 1.339-.134a73.565 73.565 0 014.365-.336c4.163-.172 7.204.13 9.123.906 2.28.927 3.913 2.486 4.9 4.676a10 10 0 01.84 3.688c.116 2.8-.774 5.229-2.67 7.288-2.085 2.265-5.657 3.502-10.715 3.71l-10.163.42-.052-1.249c1.02-.042 1.728-.19 2.124-.447.538-.345.788-.981.75-1.908l-.51-12.348c-.06-1.458-.46-2.306-1.2-2.547-.422-.128-1.05-.175-1.882-.141zm7.384-.305l.617 14.925c.044 1.072.236 1.739.575 2.001.339.262 1.107.369 2.304.32 3.258-.135 5.612-1.186 7.063-3.154 1.184-1.623 1.728-3.606 1.631-5.947-.113-2.748-.993-4.88-2.64-6.397-1.594-1.467-3.946-2.136-7.058-2.007-.895.037-1.726.123-2.492.259zM479.674 612.848c-.189-.97-.391-1.627-.608-1.97-.364-.564-.947-.825-1.748-.781l-7.005.38.39 7.193 5.18-.281c.863-.047 1.47-.252 1.821-.616.35-.363.503-.971.456-1.824l1.28-.07.345 6.366-1.279.07c-.062-1.145-.443-1.823-1.143-2.035-.424-.123-1.047-.162-1.869-.118l-4.696.255.313 5.757c.031.583.11.975.236 1.177.173.303.52.441 1.04.413l5.335-.29c1.165-.063 2.004-.37 2.517-.919.464-.484.793-1.331.988-2.542l1.202-.065-.102 5.044-19.237 1.045-.068-1.248 1.31-.072c1.665-.09 2.455-.9 2.372-2.429l-.692-12.746c-.051-.947-.32-1.574-.806-1.881-.41-.26-1.115-.362-2.114-.308l-.312.017-.068-1.248 17.6-.956.579 4.616z" font-size="32" transform="matrix(1.04135 0 0 1.07913 -6.992 -39.164)"/><path d="M242.833 666.938l-8.808-17.533-.407 12.832c-.033.869-.02 1.455.035 1.758.102.677.392 1.143.868 1.398.43.234 1.148.341 2.156.323l.042 1.405-7.995.24-.042-1.406c1.627-.084 2.544-.58 2.752-1.49.092-.448.156-1.253.191-2.414l.401-13.044c.027-1.055-.117-1.76-.432-2.115-.316-.353-1.001-.538-2.057-.553l-.042-1.406 7.59-.227 7.463 14.9 6.277-15.312 7.749-.232.042 1.406-1.474.132c-.629.136-.984.405-1.066.806-.072.342-.065.969.021 1.88l1.258 13.24c.089.995.16 1.59.212 1.788.175.745.5 1.204.973 1.378.404.164 1.105.266 2.102.306l.042 1.406-11.35.34-.042-1.406.615-.018c1.042-.032 1.741-.181 2.097-.45.435-.33.639-.986.61-1.97-.013-.399-.053-.96-.122-1.685l-1.278-12.747-7.52 18.444zM263.201 655.538c-.071-3.55 1.162-6.505 3.699-8.866 2.537-2.36 5.82-3.58 9.85-3.661 3.785-.076 6.894.925 9.327 3.003 2.433 2.079 3.683 4.805 3.751 8.18.052 2.565-.623 4.87-2.023 6.914-1.367 1.997-3.248 3.47-5.643 4.421-1.674.679-3.548 1.039-5.622 1.08-2.402.049-4.596-.352-6.582-1.203-2.2-.952-3.892-2.366-5.079-4.24-1.077-1.702-1.636-3.578-1.678-5.628zm5.343-1.848c.069 3.397.921 6.158 2.558 8.282 1.601 2.101 3.679 3.126 6.233 3.074 3.163-.063 5.312-1.648 6.445-4.753.51-1.429.748-2.992.714-4.691-.062-3.093-.835-5.686-2.319-7.778-1.568-2.218-3.653-3.302-6.254-3.25-3.117.063-5.29 1.525-6.523 4.387-.605 1.383-.89 2.96-.854 4.729zM315.722 659.035l1.441-.019c-.3 2.172-.945 4.366-1.935 6.583-.541-.157-1.251-.23-2.13-.219-.446.006-1.361.127-2.747.362s-2.53.358-3.432.37c-2.32.03-4.47-.422-6.452-1.357-2.087-.98-3.752-2.395-4.995-4.242-1.183-1.766-1.79-3.721-1.817-5.865-.043-3.293 1.253-6.102 3.889-8.428 2.636-2.326 5.887-3.514 9.754-3.564 1.594-.021 3.038.17 4.332.576 1.671.54 2.536.81 2.595.81.281-.004.52-.124.716-.361l.896-.012.417 6.288-1.407.018c-.816-2.403-2.185-4.026-4.107-4.868-.966-.421-2.012-.624-3.137-.61-2.566.034-4.64.946-6.222 2.736-1.605 1.826-2.39 4.145-2.353 6.958.024 1.816.42 3.492 1.191 5.03.818 1.63 1.96 2.898 3.425 3.804a8.305 8.305 0 004.623 1.294c1.7-.023 3.21-.523 4.533-1.501 1.254-.93 2.228-2.192 2.922-3.783zm-11.881 9.596l2.226-3.194 1.23-.016-.773 1.382c1.47.355 2.214 1.289 2.234 2.8.018 1.336-.561 2.323-1.737 2.96-.547.288-1.166.436-1.857.445-1.172.016-2.219-.258-3.14-.82l.302-1.094c.601.262 1.277.388 2.026.378.422-.006.79-.148 1.102-.428.313-.28.467-.624.461-1.034-.01-.809-.702-1.268-2.074-1.38zM334.527 657.029l-7.875.052-1.484 4.228c-.357.999-.37 1.696-.039 2.092.32.397 1.287.59 2.904.579l.457-.003.01 1.406-9.545.063-.01-1.406.546-.004c.972-.006 1.75-.334 2.331-.982.407-.472.8-1.254 1.18-2.346l6.039-17.214-.394-1.052 5.326-.035 7.31 18.25c.43 1.076.856 1.829 1.28 2.26.567.57 1.348.887 2.345.951l.009 1.406-11.707.078-.009-1.407 1.266-.008c1.054-.007 1.715-.24 1.982-.698.254-.447.191-1.132-.19-2.056zm-.84-1.981l-3.36-8.398-2.968 8.44zM360.142 665.274l-8.26-17.799-.805 12.814c-.06.867-.066 1.453-.02 1.758.082.68.357 1.154.825 1.425.422.246 1.136.376 2.144.389l-.002 1.406-7.998-.01.002-1.405c1.63-.034 2.561-.501 2.797-1.403.106-.446.195-1.248.266-2.408l.806-13.025c.06-1.054-.063-1.764-.367-2.127-.304-.364-.984-.57-2.038-.618l.002-1.406 7.593.009 6.997 15.125 6.75-15.11 7.752.01-.002 1.406-1.477.086c-.633.116-.997.374-1.09.772-.083.34-.096.967-.038 1.881l.846 13.272c.058.997.11 1.594.156 1.794.152.75.462 1.219.93 1.407.399.176 1.096.3 2.092.371l-.002 1.407-11.356-.013.002-1.406h.616c1.043.001 1.746-.127 2.11-.384.445-.316.668-.966.67-1.95 0-.399-.023-.961-.069-1.688l-.882-12.78-8.089 18.201zM383.478 660.923l.125-13.394c.016-1.722-.332-2.71-1.044-2.963-.433-.145-1.118-.221-2.055-.23l-.896-.008.013-1.406c.574.005 1.33-.023 2.268-.084 1.243-.094 2-.146 2.27-.155l2.004-.087c1.84-.088 3.119-.129 3.834-.122 4.874.046 8.165.932 9.872 2.659.905.923 1.352 2.017 1.34 3.282-.02 2.145-1.51 3.56-4.47 4.248 1.614.355 2.932 1.04 3.954 2.058 1.126 1.124 1.682 2.471 1.667 4.041-.025 2.66-1.473 4.598-4.344 5.814-1.412.596-3.078.885-5 .867l-13.939-.13.013-1.407c2.18.02 3.52-.389 4.02-1.228.238-.42.36-1.004.368-1.754zm5.044-7.406l-.066 7.03c-.015 1.618.433 2.607 1.343 2.967.467.192 1.1.291 1.896.299 3.363.031 5.06-1.623 5.092-4.963.016-1.746-.499-3.092-1.545-4.04-.999-.9-2.366-1.358-4.1-1.374a42.82 42.82 0 00-2.62.08zm.09-9.545l-.076 7.998c1.055.057 1.98.089 2.777.096 3 .029 4.512-1.217 4.535-3.737.028-2.93-1.752-4.41-5.337-4.444a16.872 16.872 0 00-1.9.087zM405.057 644.588l.022-1.406 11.442.175-.022 1.406-.597-.009c-1.828-.028-2.756.86-2.784 2.665l-.218 14.254c-.015.972.198 1.656.637 2.049.44.393 1.151.598 2.135.613l.528.008-.022 1.406-11.442-.175.022-1.406.51.008c1.745.026 2.63-.786 2.656-2.438l.22-14.395c.015-.973-.173-1.67-.565-2.092-.392-.422-1.075-.64-2.047-.656zM445.905 672.945l-.647 1.392a9 9 0 01-2.026.164c-2.917-.066-5.826-1.282-8.726-3.645l-3.71-3.057c-1.277-1.037-2.323-1.682-3.138-1.935-1.816-.557-3.328-1.342-4.535-2.354-2.704-2.242-4.015-5.138-3.934-8.688.08-3.527 1.453-6.4 4.118-8.618 2.665-2.22 5.983-3.283 9.955-3.193 2.32.053 4.424.541 6.313 1.463 2.076 1.01 3.666 2.44 4.773 4.294 1.05 1.759 1.55 3.74 1.5 5.942-.068 2.953-1.088 5.49-3.058 7.614-1.875 2.02-4.184 3.298-6.928 3.833.867.559 1.993 1.517 3.38 2.873 1.445 1.416 2.554 2.39 3.327 2.924.9.619 2.012.949 3.336.99zm-21.301-19.617c-.108 4.71 1.168 8.109 3.828 10.198 1.267 1.001 2.743 1.522 4.43 1.56 3.28.075 5.526-1.48 6.736-4.664.536-1.43.824-2.964.861-4.604.063-2.777-.536-5.258-1.8-7.444-1.454-2.494-3.564-3.773-6.33-3.837-3.104-.07-5.333 1.297-6.686 4.103-.653 1.356-.999 2.919-1.04 4.688zM466.43 646.075l.048-1.406 9.329.322-.049 1.405-.263-.009c-1.16-.04-1.998.136-2.516.529-.555.438-.851 1.22-.89 2.344l-.309 8.96c-.11 3.185-1.088 5.555-2.936 7.11-1.775 1.498-4.273 2.192-7.494 2.08-3.056-.105-5.483-.798-7.28-2.08-2.117-1.503-3.126-3.7-3.027-6.594l.37-10.734c.033-.948-.127-1.599-.478-1.95-.351-.353-1.001-.545-1.95-.578l-.615-.021.049-1.406 11.26.388-.048 1.406-.615-.022c-1.698-.058-2.575.727-2.631 2.355l-.37 10.733c-.092 2.67.942 4.477 3.102 5.42.96.419 2.03.65 3.213.69 2.167.075 3.89-.417 5.169-1.475 1.328-1.115 2.03-2.744 2.103-4.888l.301-8.748c.06-1.71-.3-2.83-1.08-3.362-.424-.272-1.005-.421-1.743-.447zM495.582 651.141c-.1-1.107-.253-1.865-.457-2.274-.344-.673-.967-1.03-1.868-1.072l-7.884-.367-.377 8.095 5.83.271c.971.045 1.674-.116 2.107-.482.434-.367.673-1.03.717-1.99l1.44.066-.333 7.164-1.44-.067c.06-1.287-.29-2.09-1.05-2.407-.46-.185-1.153-.3-2.078-.343l-5.285-.246-.301 6.48c-.031.655.013 1.103.13 1.343.16.36.532.553 1.117.58l6.006.28c1.31.06 2.284-.187 2.92-.744.574-.49 1.039-1.4 1.394-2.733l1.352.063-.684 5.634-21.65-1.008.065-1.405 1.475.069c1.873.087 2.85-.73 2.93-2.45l.667-14.346c.05-1.065-.18-1.798-.69-2.197-.43-.336-1.206-.531-2.33-.583l-.351-.017.065-1.404 19.807.922.126 5.232z" font-size="36" transform="matrix(1.04135 0 0 1.07913 -6.992 -39.164)"/></g></g></svg>