<svg xmlns="http://www.w3.org/2000/svg" width="700" height="730" viewBox="0 0 185.208 193.146"><defs><linearGradient id="a"><stop offset="0" stop-color="#fff" stop-opacity=".314"/><stop offset=".19" stop-color="#fff" stop-opacity=".251"/><stop offset=".6" stop-color="#6b6b6b" stop-opacity=".125"/><stop offset="1" stop-opacity=".125"/></linearGradient></defs><path style="font-variation-settings:normal" d="M146.686 173.435l15.862-18.654c-33.45 0-52.654-18.949-52.654-18.949-5.674 7.273-13.455 13.014-21.863 15.157-8.409-2.143-16.19-7.884-21.864-15.157 0 0-19.203 18.95-52.654 18.95l15.862 18.653 29.328-2.117 28.798 4.763 29.857-4.763z" fill="#ffce00" stroke="#000" stroke-width=".397" transform="matrix(1.02396 0 0 1.02447 2.464 5.476)"/><g stroke-width=".399"><path style="font-variation-settings:normal" d="M27.64 161.349c-3.26 1.134-1.702 2.976-1.702 2.976l5.67 1.985zm120.782 0l-3.97 4.96 5.67-1.984s1.56-1.842-1.7-2.976z" fill="#c63" stroke="#000" transform="matrix(1.01964 0 0 1.02015 2.844 6.22)"/><path style="font-variation-settings:normal" d="M114.404 173.963c2.834-.992 9.922-2.126 18.284.142 8.363 2.268 13.182 1.134 13.998-.67.817-1.805 3.436-9.11 3.436-9.11s-4.29 2.574-13.607.709c-9.317-1.865-19.881-2.838-25.371-.992-5.49 1.845-4.11 5.811-4.11 5.811zM61.657 173.963c-2.834-.992-9.922-2.126-18.284.142-8.363 2.268-13.182 1.134-13.998-.67-.817-1.805-3.436-9.11-3.436-9.11s4.29 2.574 13.607.709c9.317-1.865 19.881-2.838 25.371-.992 5.49 1.845 4.11 5.811 4.11 5.811z" fill="#fff" stroke="#000" transform="matrix(1.01964 0 0 1.02015 2.844 6.22)"/><path style="font-variation-settings:normal" d="M68.886 167.302c-1.133 2.126-5.67 2.692-5.67 2.692l.373 2.06 6.148.634c.496-2.764-.85-5.386-.85-5.386zm38.289 0s-1.347 2.622-.851 5.386l6.148-.635.373-2.059s-4.537-.566-5.67-2.692z" fill="#c63" stroke="#000" stroke-linejoin="round" transform="matrix(1.01964 0 0 1.02015 2.844 6.22)"/><path style="font-variation-settings:normal" d="M65.2 181.901c-3.543-.709-4.535-2.126-4.11-4.82.426-2.692 2.127-7.086 2.127-7.086 1.235 1.08 2.438 1.423 6.803 2.126 4.365.702 13.324.709 18.01.709 4.687 0 13.646-.006 18.01-.71 4.366-.702 5.57-1.044 6.804-2.125 0 0 1.701 4.394 2.127 7.087.425 2.693-.567 4.11-4.11 4.819-3.544.709-13.183 1.134-22.83 1.134-9.648 0-19.287-.425-22.83-1.134z" fill="#fff" stroke="#000" stroke-linejoin="round" transform="matrix(1.01964 0 0 1.02015 2.844 6.22)"/><g aria-label="UNITY" style="line-height:1.25;-inkscape-font-specification:'Sitka Heading, Bold';font-variant-ligatures:normal;font-variant-caps:normal;font-variant-numeric:normal;font-variant-east-asian:normal;text-align:center" font-weight="700" font-size="4.939" font-family="Sitka Heading" text-anchor="middle" stroke-width=".199"><path d="M37.962 183.35q-.626.03-1.108-.098-.477-.134-.807-.378-.326-.248-.504-.58-.178-.337-.196-.712l-.185-3.749q-.005-.098-.07-.158-.062-.06-.143-.078l-.623-.171-.015-.318 2.973-.146.015.317-.602.232q-.08.026-.134.096-.055.065-.05.16l.164 3.332q.007.16.039.339.03.173.098.349.066.172.177.323.11.152.277.264.167.113.399.174.231.06.54.045.304-.015.537-.099.234-.083.398-.212.168-.134.276-.296.109-.167.167-.345.063-.178.081-.358.022-.18.014-.341l-.162-3.297q-.005-.098-.07-.154-.061-.055-.139-.078l-.62-.203-.015-.317 2.28-.113.016.318-.601.263q-.08.03-.134.096-.055.061-.05.155l.173 3.534q.019.375-.082.685-.102.306-.287.548-.18.242-.432.42-.247.174-.519.295-.272.117-.551.18-.28.063-.525.075zM43.579 178.416l-.53-.568-.027.004.69 3.994q.017.097.076.146.063.048.156.064l.644.125.054.313-2.284.396-.055-.314.57-.335q.073-.044.116-.11.047-.072.031-.165l-.8-4.625q-.016-.097-.084-.15-.068-.05-.147-.06l-.68-.1-.054-.314 2.068-.358 3.31 3.36.49.519.027-.004-.626-3.623q-.017-.097-.079-.141-.058-.045-.156-.064l-.644-.125-.055-.313 2.29-.396.054.313-.57.335q-.073.044-.12.112-.048.067-.032.16l.76 4.4.048 1.064-.803.139zM49.455 181.325l.591-.3q.084-.045.123-.11.043-.07.028-.168l-.753-4.674q-.015-.097-.083-.15-.067-.052-.146-.062l-.655-.099-.05-.314 2.965-.478.05.314-.586.299q-.076.035-.128.111-.047.071-.032.164l.752 4.674q.017.101.084.154.067.048.155.061l.65.1.051.314-2.965.477zM54.164 180.636l.664-.276q.092-.032.134-.1.047-.067.037-.165l-.508-4.887-1.304.136q-.085.01-.125.058-.035.044-.05.122l-.22 1.01-.413.042-.18-1.724 5.816-.604.179 1.724-.414.043-.422-.942q-.03-.07-.08-.11-.044-.04-.12-.032l-1.322.138.508 4.886q.01.098.074.155.069.055.151.07l.707.133.033.312-3.113.323zM59.824 180.239l.7-.156q.087-.022.145-.08.062-.06.069-.158l.112-1.711-1.522-3.147q-.039-.084-.097-.155-.054-.075-.14-.117l-.454-.2.02-.317 2.801.183-.02.317-.765.17 1.013 2.068.246.568.026.002 1.602-2.395-.697-.32.02-.316 2.037.133-.02.317-.47.176q-.078.03-.154.098-.072.067-.121.14l-1.954 2.847-.114 1.748q-.007.103.043.169.05.061.132.094l.68.246-.021.317-3.118-.204z" style="-inkscape-font-specification:'Sitka Heading, Bold';font-variant-ligatures:normal;font-variant-caps:normal;font-variant-numeric:normal;font-variant-east-asian:normal"/></g><g aria-label="LIBERTY" style="line-height:1.25;-inkscape-font-specification:'Sitka Heading, Bold';font-variant-ligatures:normal;font-variant-caps:normal;font-variant-numeric:normal;font-variant-east-asian:normal;text-align:center" font-weight="700" font-size="4.939" font-family="Sitka Heading" text-anchor="middle" stroke-width=".199"><path d="M72.401 190.007l.63-.161q.086-.021.144-.08.057-.06.064-.158l.303-4.724q.006-.099-.048-.165-.05-.066-.128-.093l-.604-.241.02-.317 2.989.192-.02.317-.643.16q-.087.022-.149.08-.062.06-.068.154l-.314 4.898 2.14.137q.04.003.072-.018.033-.02.057-.05.03-.03.045-.064.02-.04.031-.075l.424-1.21.415.026-.131 2.047-5.25-.337zM78.273 190.349l.64-.172q.09-.028.143-.084.056-.06.06-.158l.216-4.73q.004-.098-.051-.163-.055-.065-.13-.091l-.622-.23.015-.318 3 .137-.014.318-.635.172q-.082.018-.147.083-.061.06-.066.154l-.215 4.73q-.005.102.05.167.056.061.14.092l.617.23-.015.317-3-.137zM82.104 190.517l.623-.184q.09-.025.142-.086.055-.061.058-.16l.133-4.731q.003-.099-.049-.163-.052-.064-.136-.09l-.612-.218.009-.318 2.846.08q.711.021 1.16.15.453.129.711.333.259.2.35.454.092.249.084.517-.008.296-.118.544-.106.248-.295.44-.184.187-.448.323-.263.131-.592.203v.018q.406.034.734.16.332.12.564.32.236.2.363.472.127.272.117.604-.01.358-.125.632-.115.27-.304.467-.19.191-.448.318-.255.128-.552.204-.293.073-.617.1-.318.022-.64.012l-2.967-.084zm2.604-3.108q.35.01.589-.05.243-.06.39-.186.151-.13.22-.312.072-.187.078-.424.018-.622-.252-.907-.27-.286-.847-.302l-.474-.013-.061 2.184zm.37 2.923q.586.016.885-.235.298-.251.314-.842.01-.345-.064-.585-.069-.239-.23-.391-.157-.153-.415-.227-.258-.075-.616-.085l-.617-.018-.067 2.36zM87.99 190.685l.618-.197q.081-.026.135-.089.059-.062.06-.16l.031-4.734q0-.099-.057-.162-.053-.063-.134-.086l-.616-.205.002-.318 5.197.034-.011 1.684-.425-.003-.317-.93q-.026-.071-.066-.116-.04-.045-.116-.046l-2.104-.014-.014 2.119 1.267.008q.09 0 .125-.035.04-.04.068-.112l.278-.723.367.002-.015 2.334-.367-.003-.269-.718q-.026-.068-.066-.113-.036-.05-.125-.05l-1.267-.008-.016 2.378 2.471.016q.076 0 .121-.044t.068-.12l.316-1.041.42.002-.011 1.805-5.55-.036zM94.095 190.723l.615-.212q.08-.028.133-.092.057-.063.055-.162l-.076-4.733q-.001-.098-.06-.16-.06-.062-.136-.083l-.621-.192-.005-.318 2.9-.046q.488-.007.856.053.373.057.638.165.27.107.448.257.177.145.282.318.106.173.15.36.043.187.046.376.006.38-.12.66-.12.28-.31.484-.189.2-.42.334-.226.129-.43.2l1.534 2.183q.037.049.087.101.05.053.109.102.059.048.118.083.063.035.117.047l.62.17.006.317-1.513.025q-.21.002-.345-.026-.135-.03-.235-.095-.1-.07-.182-.176-.082-.11-.183-.266l-1.353-2.034-.603-.152.033 2.024q.001.103.052.165.054.058.14.083l.679.19.005.319-3.026.048zm2.733-2.97q.273-.004.473-.11.2-.11.326-.287.132-.177.19-.402.064-.225.06-.458-.01-.627-.314-.909-.3-.281-.855-.272l-.537.008.038 2.392q.04.008.122.015.08.002.174.011.094.007.18.011.09.003.143.003zM101.677 190.569l.68-.234q.093-.026.14-.091.051-.065.047-.163l-.2-4.91-1.31.054q-.085.004-.128.05-.039.042-.058.12l-.282.992-.416.018-.07-1.732 5.84-.238.071 1.732-.416.018-.362-.967q-.025-.07-.072-.114-.042-.043-.118-.04l-1.328.055.2 4.908q.004.099.065.16.065.06.146.078l.697.178.013.313-3.126.128zM108.5 190.278l.674-.248q.083-.032.132-.098.054-.067.047-.165l-.115-1.711-1.925-2.918q-.05-.078-.117-.14-.063-.068-.155-.098l-.476-.138-.021-.317 2.8-.19.022.317-.736.27 1.278 1.916.319.53.026-.002 1.27-2.586-.733-.224-.021-.317 2.037-.138.021.317-.442.237q-.073.04-.14.117-.062.076-.102.155l-1.559 3.082.118 1.747q.007.102.065.162.057.054.144.075l.706.154.021.318-3.117.21z" style="-inkscape-font-specification:'Sitka Heading, Bold';font-variant-ligatures:normal;font-variant-caps:normal;font-variant-numeric:normal;font-variant-east-asian:normal"/></g><g aria-label="JUSTICE" style="line-height:1.25;-inkscape-font-specification:'Sitka Heading, Bold';font-variant-ligatures:normal;font-variant-caps:normal;font-variant-numeric:normal;font-variant-east-asian:normal;text-align:center" font-weight="700" font-size="4.233" font-family="Sitka Heading" text-anchor="middle" stroke-width=".199"><path d="M120.203 181.877q-.076.008-.185.008-.112.002-.232-.001-.12-.004-.235-.02-.117-.015-.205-.033l.006-.94.183-.022q.11.043.255.09.146.05.298.089.152.037.297.058.146.019.253.006.09-.012.147-.056.056-.042.071-.135.017-.082.015-.216-.002-.13-.015-.315-.012-.181-.037-.407-.021-.226-.056-.497l-.504-3.902q-.01-.083-.067-.13-.052-.046-.127-.056l-.608-.095-.034-.267 2.595-.323.035.267-.5.234q-.07.032-.112.09-.039.058-.028.137l.509 3.94q.067.522-.038.96-.103.435-.343.76-.236.326-.582.526-.345.2-.756.25zM125.506 180.202q-.527.006-.928-.12-.397-.129-.667-.348-.267-.224-.406-.514-.139-.294-.142-.616l-.037-3.217q-.001-.084-.055-.137-.05-.053-.117-.072l-.518-.166-.004-.273 2.505-.03.004.273-.514.179q-.068.02-.116.078-.048.054-.047.135l.032 2.86q.002.138.023.291.02.15.07.302.052.15.14.283.088.133.225.235.137.102.33.161.193.06.453.056.256-.004.455-.066.199-.064.34-.17.146-.109.243-.244.096-.14.151-.29.059-.15.08-.304.024-.154.023-.292l-.033-2.83q0-.084-.054-.133-.05-.05-.114-.072l-.515-.193-.004-.273 1.922-.022.004.272-.514.206q-.068.024-.116.078-.049.05-.048.131l.035 3.033q.004.322-.091.584-.095.259-.259.46-.16.202-.376.346-.213.141-.446.236-.233.091-.47.136-.236.045-.444.048zM130.132 180.287q-.226-.021-.46-.073-.23-.049-.46-.116-.228-.067-.452-.15-.223-.082-.427-.166l.076-1.543.356.033.225.776q.01.028.025.056l.04.062.046.054q.025.025.043.039.114.091.268.179.154.083.314.152.163.065.317.11t.276.057q.226.02.415-.028.193-.048.334-.15.14-.103.223-.25.087-.146.103-.325.014-.153-.021-.276-.031-.122-.11-.226-.08-.104-.203-.188-.119-.088-.284-.173-.148-.072-.296-.132-.145-.06-.29-.115-.146-.056-.29-.116-.141-.059-.281-.13-.224-.117-.399-.275-.17-.159-.28-.35-.109-.195-.158-.415-.048-.225-.026-.47.022-.232.114-.436t.238-.367q.15-.168.343-.293.192-.128.423-.207.231-.083.488-.113.258-.035.53-.008.236.021.47.066.236.04.454.096.223.055.417.12.198.064.358.129l-.133 1.445-.352-.033-.206-.728q-.014-.056-.063-.106-.046-.055-.085-.089-.075-.065-.192-.126-.118-.06-.252-.108-.134-.05-.27-.082-.132-.032-.235-.041-.207-.018-.376.027-.166.043-.29.132-.12.089-.19.213-.068.121-.08.255-.013.142.008.27.023.126.097.237.075.111.204.212.13.097.326.184.137.063.275.118.137.055.274.114.142.055.286.12.145.063.303.143.187.098.363.238.176.14.305.325.13.185.196.422.068.234.042.52-.03.322-.192.62-.158.293-.46.508-.296.215-.738.321-.437.107-1.026.052zM133.616 180.467l.612-.07q.083-.005.134-.051.054-.045.07-.128l.731-4.147-1.107-.196q-.072-.012-.116.019-.04.028-.07.089l-.418.78-.352-.063.258-1.463 4.935.872-.258 1.463-.352-.062-.126-.876q-.008-.063-.039-.108-.027-.044-.091-.055l-1.123-.198-.732 4.147q-.016.083.026.144.043.063.108.093l.551.277-.047.265-2.64-.467zM137.866 181.306l.563-.068q.08-.012.131-.053.056-.044.072-.127l.76-3.986q.016-.083-.024-.145-.039-.062-.1-.093l-.498-.271.05-.268 2.53.482-.051.268-.56.069q-.072.006-.135.052-.06.044-.074.123l-.76 3.986q-.016.086.022.149.04.058.107.094l.496.27-.051.268-2.53-.482zM143.294 182.7q-.598-.073-1.059-.323-.46-.253-.76-.65-.298-.4-.422-.937t-.045-1.18q.05-.42.187-.779.137-.358.342-.646.206-.292.472-.507.266-.22.58-.35.314-.137.664-.187.354-.05.731-.004.198.024.442.085.244.057.487.13.246.072.46.152.219.077.365.145l-.167 1.368-.35-.043-.171-.72q-.016-.064-.057-.108-.04-.044-.083-.076-.21-.153-.437-.254-.226-.105-.5-.139-.324-.04-.612.065-.282.1-.506.348-.22.244-.37.628-.151.383-.215.902-.066.54-.002.97.064.43.254.742.19.314.5.499.31.184.732.236.27.033.487.001.22-.035.399-.102.182-.07.325-.161.146-.09.264-.169l.206.025-.056.457q-.173.119-.408.237-.234.114-.511.204-.274.09-.573.131-.296.045-.593.008zM145.965 182.713l.494-.144q.064-.018.11-.07.048-.051.052-.136l.232-4.05q.004-.085-.037-.141-.04-.057-.101-.08l-.474-.2.017-.273 4.066.244-.082 1.441-.332-.02-.207-.81q-.018-.062-.047-.102-.03-.04-.088-.044l-1.647-.098-.103 1.812.99.06q.07.004.1-.025.034-.032.059-.092l.249-.608.287.016-.114 1.997-.288-.017-.178-.626q-.018-.058-.047-.098-.026-.044-.096-.049l-.99-.06-.118 2.035 1.934.116q.06.005.096-.032.038-.036.059-.1l.293-.879.329.02-.088 1.545-4.344-.26z" style="-inkscape-font-specification:'Sitka Heading, Bold';font-variant-ligatures:normal;font-variant-caps:normal;font-variant-numeric:normal;font-variant-east-asian:normal"/></g></g><path style="font-variation-settings:normal" d="M270.44 573.809c-4.518 2.335-8.213 4.949-11.518 7.587-6.114 1.666-9.973.049-19.895-3.59-11.364-4.166-13.257-3.786-26.515 4.548-3.058 1.922-5.673 3.388-8.067 4.431 3.663 1.775 7.778 3.36 13.37 3.524 12.879.378 23.107-6.819 23.107-6.819s6.569 2.745 14.353 1.871c-9.077 7.813-15.82 14.073-30.513 14.073-21.509 0-53.94-13.56-53.94-13.56s-11.667 6.88-33.6 14.476a68.682 68.682 0 01-5.353 1.605c18.658 6.722 52.667 9.26 76.887 1.611 23.88 6.016 66.24 12.269 91.926-11.48l2.996.115s4.544 3.031 10.226 9.85c0 0-4.797.506-8.207 1.263 0 0-7.07 2.399-6.312 16.793.744 14.15 8.637 21.057 19.066 13.221 1.818.817 4.14 1.139 7.264 1.047 1.592-.047 2.934.034 4.086.2 1.984 3.895-5.426 3.61-10.336 5.247-5.625 1.875-8.305 4.017-8.037 8.303 3.14-2.63 5.503-3.907 14.197-5.357 5.451-.91 7.932-3.538 7.404-7.311 2.609 1.207 3.131 3.16 3.131 4.543 0 2.214-1.606 4.822-6.695 5.09 2.143 1.85 6.16 2.966 9.375-.537 3.214-3.503 4.419-13.667-7.233-13.125-.016 0-.03 0-.046.002a23.087 23.087 0 00-1.918-2.858c-5.76-7.405 2.678-16.072-2.143-23.84 0 0 7.02-1.26 5.09 9.643-1.93 10.904 1.07 15 8.838 17.678-7.193-10.086-1.27-15.651-5.088-25.98 0 0 5.96-.199 7.767 8.837 1.808 9.036 6.295 11.914 11.25 14.465 4.956 2.552 7.768 5.151 9.643 10.715 1.015-2.031 2.295-6.499-6.16-13.93-8.455-7.43-4.822-17.142-12.858-21.695-8.035-4.554-17.41-4.554-23.035-3.483 0 0 6.062-7.397 16.969-10.927 10.932-3.538 18.868-3.453 26.896-3.787 6.642-.277 15.007.251 19.084.558 13.925 5.859 25.616-1.695 25.616-1.695-18.562.758-21.971-3.031-38.26-9.092-16.289-6.06-30.683 2.084-37.123 8.902-6.44 6.819-9.621 8.149-9.621 8.149 4.678-6.507 7.152-14.147 7.152-14.147h-4.476c-1.894 10.986-7.577 16.29-7.577 16.29.13-11.53 1.137-16.415 1.137-16.415h-5.178c1.137 5.632 1.894 12.066 0 17.424-1.75-9.445-7.75-10.279-6.818-20.076h-6.06c-.727 9.802 6.827 10.11 9.595 21.34-5.303-5.682-10.605-10.229-10.605-10.229-1.516 0-4.774.473-4.774.473-11.922-11.796-28.465-13.941-28.465-13.941zm-138.57 28.146a58.044 58.044 0 01-2.774-1.07c-17.883-7.507-32.516 1.072-32.516 1.072s15.752 5.031 35.29-.002zm72.575-15.17c-4.774-2.313-8.779-4.95-14.283-5.19-2.843-.123-6.45-.095-10.098-.007.21.134.416.246.627.386 10.343 6.84 15.769 8.29 23.754 4.811zm-24.38-5.197c-8.282-5.293-15.51-6.369-19.811-6.4-2.646-.02-4.186.347-4.186.347l6.819 6.819s8.707-.563 17.177-.766zm196.984 1.13c-5.685.219-19.474-.77-36.754 3.55 4.211-4.693 8.661-7.03 16.025-8.12 7.365-1.09 12.411.274 20.729 4.57zm-148.486-3.679c4.474 0 8.949 2.557 8.949 2.557-4.786 2.871-13.66 6.831-23.866 4.545l10.608-6.06c1.326-.759 2.817-1.042 4.308-1.042zm48.066 2.229c4.954-.075 10.475 1.973 17.578 6.767-10.129.838-16.655-4.98-28.41 4.545-14.213 11.516-26.139 8.334-26.139 8.334s10.228-3.408 20.834-12.121c5.635-4.629 10.522-7.44 16.137-7.525zm182.017 4.87c-13.64-.303-30.488 6.083-47.128 12.88a342.637 342.637 0 00-5.637 2.37c1.613.54 3.336 1.093 5.252 1.673 16.289 4.924 45.078-.38 59.851-7.577a82.756 82.756 0 0110.348-4.203c-5.896-1.86-11.743-3.602-17.047-4.584a35.271 35.271 0 00-5.639-.558zm22.686 5.143c10.183 3.214 20.517 6.79 28.49 7.469 12.59 1.071 24.91-5.09 24.91-5.09-5.75-.72-7.524-.646-17.568 1.229-10.044 1.874-20.422-1.93-20.422-1.93 8.145-2.908 17.739.263 25.055-.95-13.6-5.95-27.848-4.88-40.465-.728zm-75.451 10.108c-12.103-4.052-16.527-7.118-25.432-10.828-9.852-4.105-21.686.854-22.246 1.093-2.248-.83-4.657-1.275-7.3-1.093-10.004.687-16.316 3.689-20.079 7.197 0 0 14.266-1.776 22.033 8.402 7.385 9.676 20.564 7.005 27.602 2.346 7.95.962 13.265-1.905 25.422-7.117zm49.443-10.567c3.638.024 7.257.492 10.862 1.506-23.865 10.986-44.32 7.576-44.32 7.576 11.455-5.224 22.545-9.154 33.458-9.082zm-284.863.412s2.606 1.128 7.285 2.852c-9.34 3.574-21.955 8.24-23.43 8.785-4.87-.695-7.42-1.45-7.42-1.45s14.353-5.361 23.565-10.187zm110.535.243c3.663 0 7.576 1.15 13.969.724 0 0-17.046 12.88-35.608 10.986 0 0 4.193-2.138 12.5-8.333 3.594-2.68 6.29-3.377 9.14-3.377zm81.049 1.47c2.859-.07 7.444.363 11.559 3.158 6.584 4.472 8.137 6.185 14.8 8.092 0 0-6.062 3.41-13.26-1.136-4.503-2.845-8.843-7.3-13.976-10.063.285-.019.54-.043.877-.05zm-9.244 1.635c8.312-.139 12.563 8.15 19.82 11.807-2.036.664-5.782.991-10.389-2.907-6.964-5.892-10.8-7.378-13.837-8.109 1.596-.524 3.055-.768 4.406-.791zm-53.543 2.67c-17.406 17.894-32.437 18.905-44.32 21.97 5.237 1.717 15.549 1.739 28.789-4.544 13.24-6.283 17.804-14.016 17.804-14.016l7.387-.568s-2.842-2.463-9.66-2.842zm-113.92.285c4.231.993 9.068 1.485 15.818 4.018-16.107 2.583-28.553 3.425-37.91 2.197 7.339-2.917 10.495-4.213 22.091-6.215zm134.062 6.3c1.686.044 8.268.727 5.69 8.93-2.75 8.75-2.492 13.237 2.152 18.645-7.702-.485-9.019-3.746-10.1-8.822-1.26-5.918-.577-13.803 1.876-18.75 0 0 .142-.008.382-.002zm-6 .74s-4.03 8.567-1.615 17.745c1.205 4.577 2.408 7.65 4.44 9.551-1.798 1.31-5.765 3.492-8.885.088-4.167-4.546-7.198-26.248 6.06-27.385zm26.957 12.476s-.195 7.185 1.875 11.787c2.071 4.602 5.76 6.647 10.446 7.232-2.721-2.777-6.698-4.182-7.768-10.18-1.07-5.997-2.41-8.304-4.553-8.84z" transform="matrix(.27092 0 0 .27106 2.464 5.476)" fill="#009543" stroke="#000"/><path style="font-variation-settings:normal" d="M80.565 150.239s-.45 1.102.601 1.654h.552s.4-1.454-1.153-1.654zm4.26.902s-.902.45-.501 1.403h.851s.451-.802-.35-1.403zm3.918.386s-1.356.094-1.336 1.167h.976s.56-.29.36-1.167z" fill="#d21034" stroke="#000" stroke-width=".265" transform="matrix(1.02396 0 0 1.02447 2.464 5.476)"/><g stroke="#000" stroke-width=".397"><path style="font-variation-settings:normal" d="M32.483 44.761s-.38-1.374-1.725-1.573c0 0-.38-1.374-1.725-1.572 0 0-.38-1.374-1.724-1.573 0 0-.38-1.374-1.723-1.573 0 0-.487-1.28-1.755-1.331 0 0-.49-1.28-1.754-1.335 0 0-.437-1.094-1.579-1.138 0 0-.44-1.091-1.58-1.137 0 0-.41-1-1.48-1.04 0 0-.412-.997-1.477-1.042 0 0-.36-.792-1.302-.824 0 0-.363-.787-1.305-.821 0 0-.356-.697-1.28-.725 0 0-.356-.696-1.28-.725 0 0-.349-.65-1.255-.676 0 0-.35-.65-1.254-.678 0 0-.334-.56-1.203-.582 0 0-.336-.558-1.205-.58-.546-.448-1.283-.391-1.94-.577 0 0 .743.968 2.082 1.365.1 0 .496.545 1.24.645 0 0 .348.694 1.34.744 0 0 .446.794 1.29.794 0 0 .546.793 1.24.744 0 0 .447.645 1.29.793 0 0 .546.695 1.29.745 0 0 .297.793 1.389.893 0 0 .496.843 1.24.892 0 0 .248.794 1.488 1.042 0 0 .298.943 1.39 1.092 0 0 .495 1.29 1.686 1.29 0 0 .496 1.24 1.637 1.389 0 0 .298 1.339 1.637 1.438 0 0 .447 1.24 1.637 1.637 0 0 .348 1.39 1.638 1.737 0 0 .496 1.686 1.835 2.331 1.34.645 3.197-.069 3.197-.069z" fill="#fff" transform="matrix(-1.02396 0 0 1.02447 182.96 5.476)"/><path style="font-variation-settings:normal" d="M30.758 43.188s-1.753.022-1.951 1.41m.226-2.982s-.855-.275-1.582.883m-1.638-1.737c.116-.033.295-.76 1.496-.719m-3.133-.918s.372-.731 1.41-.655m-3.047-.783s.434-.567 1.292-.548m-2.929-.841s.349-.507 1.175-.494m-2.862-.796s.367-.403 1.283-.342m-2.672-.75s.308-.43 1.092-.387m-2.58-.655s.45-.45 1.1-.385m-2.34-.507s.068-.52.863-.535m-2.252-.358s.187-.467.95-.466m-2.24-.279s.2-.523.935-.542m-2.225-.251s.227-.443.945-.474m-2.185-.27s.24-.481.905-.455m-2.195-.34s.178-.268.94-.336m-2.28-.407s.378-.248 1.026-.27m-2.266-.375s.404-.242 1.063-.208" fill="none" transform="matrix(-1.02396 0 0 1.02447 182.96 5.476)"/></g><path style="font-variation-settings:normal" d="M160.307 161.957s.053.956-.317 1.793c0 0-3.587.415-5.023.21l.256-.924s-.82.103-1.385-.103c0 0 .923-1.848 2.925-2.67 2-.82 3.544 1.694 3.544 1.694zm-39.997-14.554s-.13.839-.232 1.558c0 0-2.348.658-4.298.042l.513-.873s-1.026-.154-1.437-.308c.27-.704.703-1.885 2.824-2.655z"/><g stroke-width=".374" stroke="#000"><path style="font-variation-settings:normal" d="M32.483 44.761s-.38-1.374-1.725-1.573c0 0-.38-1.374-1.725-1.572 0 0-.38-1.374-1.724-1.573 0 0-.38-1.374-1.723-1.573 0 0-.487-1.28-1.755-1.331 0 0-.49-1.28-1.754-1.335 0 0-.437-1.094-1.579-1.138 0 0-.44-1.091-1.58-1.137 0 0-.41-1-1.48-1.04 0 0-.412-.997-1.477-1.042 0 0-.36-.792-1.302-.824 0 0-.363-.787-1.305-.821 0 0-.356-.697-1.28-.725 0 0-.356-.696-1.28-.725 0 0-.349-.65-1.255-.676 0 0-.35-.65-1.254-.678 0 0-.334-.56-1.203-.582 0 0-.336-.558-1.205-.58-.546-.448-1.283-.391-1.94-.577 0 0 .743.968 2.082 1.365.1 0 .496.545 1.24.645 0 0 .348.694 1.34.744 0 0 .446.794 1.29.794 0 0 .546.793 1.24.744 0 0 .447.645 1.29.793 0 0 .546.695 1.29.745 0 0 .297.793 1.389.893 0 0 .496.843 1.24.892 0 0 .248.794 1.488 1.042 0 0 .298.943 1.39 1.092 0 0 .495 1.29 1.686 1.29 0 0 .496 1.24 1.637 1.389 0 0 .298 1.339 1.637 1.438 0 0 .447 1.24 1.637 1.637 0 0 .348 1.39 1.638 1.737 0 0 .496 1.686 1.835 2.331 1.34.645 3.197-.069 3.197-.069z" fill="#fff" transform="matrix(-1.04529 -.1276 -.1198 1.11345 191.795 5.854)"/><path style="font-variation-settings:normal" d="M30.758 43.188s-1.753.022-1.951 1.41m.226-2.982s-.855-.275-1.582.883m-1.638-1.737c.116-.033.295-.76 1.496-.719m-3.133-.918s.372-.731 1.41-.655m-3.047-.783s.434-.567 1.292-.548m-2.929-.841s.349-.507 1.175-.494m-2.862-.796s.367-.403 1.283-.342m-2.672-.75s.308-.43 1.092-.387m-2.58-.655s.45-.45 1.1-.385m-2.34-.507s.068-.52.863-.535m-2.252-.358s.187-.467.95-.466m-2.24-.279s.2-.523.935-.542m-2.225-.251s.227-.443.945-.474m-2.185-.27s.24-.481.905-.455m-2.195-.34s.178-.268.94-.336m-2.28-.407s.378-.248 1.026-.27m-2.266-.375s.404-.242 1.063-.208" fill="none" transform="matrix(-1.04529 -.1276 -.1198 1.11345 191.795 5.854)"/></g><path style="font-variation-settings:normal" d="M165.708 123.556c-3.412.824-4.891-1.745-4.891-1.745-1.232 5.955-.617 9.96.82 12.32 1.437 2.362 4.413 2.465 4.413 4.21 0 1.746-1.471 1.886-1.847 3.39-.375 1.503-.527 10.65-.368 14.392.159 3.742-1.48 4.325-1.48 4.325-1.65-1.142-2.123.544-2.227 1.617 0 0-3.005.426-3.363-.828-.358-1.254.943-2.251 2.104-2.396 1.34-1.877 1.72-6.03 2.298-11.254.579-5.228.87-5.953-5.805-8.277-6.677-2.323-10.602-9.831-11.466-13.359 0 0-4.446 1.783-5.966 4.005-1.52 2.222 1.848 3.594 1.54 5.443-.273 1.636-1.297 1.059-3.284 2.053-1.987.994-9.955 5.75-11.598 6.982-1.642 1.232-1.128 2.361-2.36 3.183 0 0-.923-1.643-2.052-.205 0 0-2.053-.103-2.463-2.054 0 0 4.195-2.37 8.723-5.647 4.528-3.279 6.596-3.836 7.184-5.956.588-2.119-2.702-3.667-2.36-9.24.34-5.574 6.773-11.295 9.441-13.144 0 0-1.153-1.6-2.631-3.605-1.658.359-3.484.157-5.169-.125 0 0-4.823-3.697-6.567-5.648-1.745-1.95-2.053-4.517-.924-5.955 1.129-1.437 4.636-4.946 4.636-4.946s-.303-1.262-.204-3.186c0 0-1.476-3.05-1.766-7.986-.29-4.937-1.451-5.518-1.451-5.518s-2.526 1.597-3.687 2.613h-5.08s1.655-1.887 4.848-5.082c3.193-3.195 6.183-4.395 7.692-.87 1.742 4.065 2.953 4.605 3.654 6.73 2.45-3.198 5.705-6.077 11.005-9.441-1.493-1.113-2.34-2.113-5.382-1.714-1.317.984-2.252.35-3.242.35-.989 0-1.274-.761-1.274-.761s-.953-.012-1.056-1.142c-.103-1.13.6-1.719.6-1.719-.29-1.162.291-2.033 4.936-4.356 4.644-2.324 5.496-6.878 10.45-7.842 4.954-.963 6.676 1.598 6.676 1.598 2.032-3.485 7.257-4.647 7.257-4.647s-1.161 1.742-1.161 5.518c0 3.775-2.763 4.684-2.763 4.684 9.236 11.294 2.258 21.563 2.258 21.563.913 8.235-4.706 13.995-8.059 20.704 0 4.356 1.767 9.438 4.38 12.342 2.612 2.905 2.413 5.697 2.413 5.697.513 1.438 2.324 3.548 4.105 2.568 1.782-.98 2.258-4.826 1.745-7.804 2.62 5.097 2.18 9.341-1.232 10.165zm-34.439-26.26s-.87 0-1.596.581c0 0 .58 2.614.58 4.066 0 0 2.032.726 3.048 2.324 0 0 1.02-.042 2.164.015-.548-.72-1.089-1.423-1.584-2.048-2.757-3.485-2.612-4.938-2.612-4.938z" fill="#fff"/><path style="font-variation-settings:normal" d="M162.287 49.867s-2.052 2.875-1.95 7.085c0 0-2.565.205-4.412 1.745 0 0 1.641-1.642 2.565-4.517.924-2.875 2.668-3.902 3.797-4.313zm-7.803 1.42c1.632.524 2.496 1.407 2.496 1.407s-1.26 2.615-1.158 4.463c-.449-.347-.693-.89-.657-1.992 0 0-1.293 1.479-2.422 1.273 0 0 2.877-1.953 1.741-5.15zm5.614 7.034c9.236 11.294 2.258 21.563 2.258 21.563.913 8.235-4.706 13.995-8.059 20.704-5.134 4.623 3.306 24.4 4.5 22.798 1.162-1.573 1.93-2.141 1.93-2.141l.015.071-.112 1.099c-.54 5.424-.333 9.514 1.007 11.717 0 0-.881.484-.01 1.573.87 1.089.508 2.395-1.161 2.178-.638 1.66.837 2.691.546 4.526-.673-1.152-2.265-1.92-5.65-3.099-6.677-2.323-10.602-9.831-11.466-13.359.38-4.591 1.723-5.062 1.843-9.522.123-4.566-4.827-8.945-6.789-12.086l-5.988-7.676s-.387 2.42.92 5.567c-2.758-3.485-2.613-4.938-2.613-4.938s-1.005.141-1.73.722c-.394-.47.567-2.392-1.318-1.786-1.88.604-2.614 3.682-1.887 5.761-1.745-1.95-2.053-4.517-.924-5.955 1.129-1.437 4.636-4.946 4.636-4.946s-.303-1.262-.204-3.186c.799-5.104 2.49-7.315 3.49-8.985l-1.483-2.196c-3.483 5.228-1.899 10.965-1.899 10.965s-1.584-2.833-1.874-7.77c-.29-4.937-1.521-5.614-1.521-5.614.58-2.033 1.086-1.502 1.521-3.39.21-.912-.7-1.415-1.694-1.694 1.685-.683 3.115-.264 4.016 1.84 1.742 4.066 2.953 4.606 3.654 6.732 2.45-3.199 5.705-6.078 11.005-9.442-1.493-1.113-2.34-2.113-5.382-1.714.958-.548 1.813-1.506 1.813-1.506-.308-1.13-1.231-2.156-1.231-2.156 1.334-1.232.513-2.978-1.642-2.67a71.96 71.96 0 01-1.8.234c.71-.434 1.631-.934 2.824-1.53 2.533-1.268 5.304-4.419 6.862-6.07-1.942 2.505-3.01 4.717-4.192 5.826-1.642 1.54-1.026 3.285 1.231 2.464 2.258-.822 4.709-3.134 4.709-3.134l.295 1.245c-2.053 1.232-5.106 5.586-3.874 7.023 1.231 1.438 4.207 1.951 7.594-.103 3.387-2.053 3.797-6.674 3.797-6.674.821-.103 1.027-.947 1.027-.947.94.145 2.442-.354 3.015-.532zm-22.219 3.73s.205.976-.667 1.284c-.873.308-1.026.821-1.026.821s-.809.319-1.482-.79c0 0 2.046.38 3.175-1.314zm-1.055 3.089c.154-.008.317.005.49.044 1.386.308 2.053.307 2.053.307s-.256.41-1.59.206c-.918-.142-1.465-.133-2.451.798a1.17 1.17 0 01-.167-.268s.59-1.035 1.665-1.087zm29.09 24.019c1.641.205 2.565 1.642 2.565 4.928s.205 4.415.205 4.415c.42-2.766 1.535-2.219 1.026-6.263.593.39 1.572 1.964.72 4.723-.871 2.815-.72 4.621-.72 4.621 1.335-1.027 1.335-4.107 1.335-4.107 1.129 1.232 1.642 3.49.41 4.928-1.23 1.438-1.334 2.465-1.334 2.465 1.129-.308 2.053.205 2.053.205-2.566 1.335-4.571 3.836-3.592 8.625.427 2.09.583 4.075.341 5.718-.746 1.549-2.593 3.68-4.48 3.39-2.832-.436-3.9-2.999-3.534-4.23.513 1.437 2.505 3.598 4.286 2.618 1.782-.98 2.258-4.826.103-8.112-2.155-3.286-.103-6.469-.103-10.268 0-3.8-.821-5.75-.821-5.75 1.617.332 1.488 1.785 2.463 2.977-.102-1.54-.402-3.123.206-5.544.607-2.421.043-4.302-1.13-5.34zm-31.322 28.027c1.848 1.344 1.152 3.712.015 5.86-1.306 2.47.145 7.116 3.323 6.91-.636.931-.412 1.712.037 2.442-.837.254-1.295.97-1.295 1.5 0 1.017-.869 1.105-1.375.509-.345-.406-.998-.56-1.8-.286a3.64 3.64 0 00.123-.366c.588-2.119-2.702-3.667-2.36-9.24.155-2.54 1.579-5.108 3.332-7.329zm11.835-64.064s3.114-2.062 7.216-1.848c0 0-4.14-1.002-7.216 1.848z"/><path style="font-variation-settings:normal" d="M157.539 59.832s3.193 1.453 4.064 9.294c.87 7.841-2.668 9.799-2.668 9.799 1.437 3.696.205 8.01-2.669 13.143-2.873 5.134-2.13 8.735-2.13 8.735 0 3.444 1.268 7.122 3.022 10.039-.832 5.45 2.736 9.387 1.639 12.544-1.161 3.34-.726 6.244-.726 6.244s-3.919-1.162-5.66-3.05c0 0 .29-4.065-2.758-5.808-3.048-1.742-1.451-4.647-1.016-7.987.436-3.34-2.406-3.804-6.386-5.663-4.354-2.033-8.273-6.39-9.289-10.455 4.005 1.649 8.323 1.027 9.45-1.484.836-1.865.873-3.04 2.645-3.55 0 0-1.597-.58-2.467 1.017-.871 1.597-1.306 3.775-4.935 3.05-3.628-.727-4.922-4.283-3.416-7.867 1.497-3.563 3.777-4.877 5.303-5.493-1.452-.145-2.825.121-4.935 2.904-2.1 2.769-1.721 3.434-3.483 4.647-.58-4.502 2.032-10.165 6.821-13.94 4.79-3.776 8.708-6.244 8.708-6.244 9.144.726 10.886-9.875 10.886-9.875z" fill="#c63"/><path style="font-variation-settings:normal" d="M37.94 117.598s.473-2.253.188-5.67c-.283-3.402 2.126-3.118 2.126-3.118-.5-2.87.049-4.385.805-5.444" fill="none" stroke="#000" stroke-width=".397" transform="matrix(-1.02396 0 0 1.02447 182.744 5.476)"/><path style="font-variation-settings:normal" d="M137.489 107.874s1.467-.946 1.206-2.059c-.26-1.112-1.741-1.452-1.741-1.452s1.523-.435 3.265-.145c1.742.29 2.938 2.378 2.938 2.378l-1.632.308.871 1.162s-2.34.742-4.907-.192z"/><path style="font-variation-settings:normal" d="M46.173 96.446s-1.454.08-2.446.15" fill="none" stroke="#000" stroke-width=".397" transform="matrix(-1.02396 0 0 1.02447 182.744 5.476)"/><path style="font-variation-settings:normal" d="M156.352 161.034l.257.667-1.232.976-.821-.052s1.026-1.283 1.796-1.591zm-38.793-14.837l.41.564-1.54.925-.872-.206s.873-.975 2.002-1.283zm21.667-39.694s-.154.564-.308.924c1.2.231 1.767.11 2.681.09l-.598-.8z" fill="#fff"/><path style="font-variation-settings:normal" d="M62.883 435.629c12.593 3.04 18.054-6.44 18.054-6.44 4.546 21.971 2.275 36.743-3.029 45.456-5.303 8.712-16.289 9.091-16.289 15.53 0 6.44 5.432 6.957 6.818 12.503 1.387 5.545 1.947 39.293 1.36 53.097-.588 13.804 5.459 15.955 5.459 15.955 6.093-4.21 7.84 2.01 8.224 5.967 0 0 11.091 1.57 12.413-3.054 1.321-4.625-3.482-8.305-7.768-8.84-4.946-6.924-6.348-22.245-8.482-41.518-2.136-19.286-3.214-21.964 21.43-30.535 24.642-8.571 39.132-36.271 42.32-49.285 0 0 16.41 6.578 22.02 14.775 5.608 8.198-6.819 13.26-5.683 20.078 1.007 6.037 4.788 3.908 12.122 7.575 7.333 3.666 36.745 21.214 42.806 25.76 6.061 4.545 4.165 8.711 8.711 11.742 0 0 3.41-6.06 7.576-.756 0 0 7.577-.38 9.092-7.576 0 0-15.484-8.742-32.197-20.836-16.713-12.094-24.346-14.153-26.518-21.971-2.172-7.819 9.972-13.53 8.713-34.092-1.259-20.562-25-41.67-34.85-48.488 0 0 4.256-5.904 9.713-13.303 6.119 1.326 12.857.58 19.077-.459 0 0 17.802-13.639 24.242-20.836 6.44-7.197 7.577-16.667 3.41-21.97-4.167-5.304-17.111-18.249-17.111-18.249s1.115-4.656.75-11.754c0 0 5.448-11.248 6.52-29.462 1.07-18.215 5.357-20.358 5.357-20.358s9.321 5.893 13.607 9.643h18.75s-6.107-6.965-17.893-18.75c-11.785-11.786-22.82-16.213-28.392-3.213-6.429 15-10.901 16.99-13.486 24.834-9.045-11.799-21.06-22.42-40.622-34.834 5.513-4.105 8.638-7.794 19.866-6.322 4.86 3.63 8.313 1.293 11.964 1.293 3.652 0 4.704-2.81 4.704-2.81s3.52-.045 3.898-4.212c.379-4.167-2.217-6.342-2.217-6.342 1.072-4.285-1.072-7.5-18.215-16.072-17.142-8.571-20.286-25.372-38.572-28.928-18.286-3.555-24.642 5.893-24.642 5.893-7.5-12.857-26.786-17.143-26.786-17.143s4.286 6.427 4.286 20.356c0 13.928 10.197 17.281 10.197 17.281-34.093 41.669-8.334 79.55-8.334 79.55-3.37 30.384 17.37 51.635 29.744 76.384 0 16.071-6.521 34.82-16.164 45.535-9.643 10.714-8.908 21.017-8.908 21.017-1.894 5.304-8.576 13.088-15.153 9.471-6.576-3.617-9.394-19.66-7.5-30.645-9.674 18.804-6.986 36.318 5.608 39.358zM190 338.75s3.214 0 5.893 2.143c0 0-2.143 9.642-2.143 15 0 0-7.5 2.679-11.25 8.572 0 0-3.763-.154-7.986.056a521.118 521.118 0 015.843-7.556C190.536 344.108 190 338.75 190 338.75z" transform="matrix(-.27092 0 0 .27106 182.744 5.476)" fill="none" stroke="#000" stroke-width="1.5"/><path style="font-variation-settings:normal" d="M33.952 52.233c-.645-1.489-1.881-2.18-2.907-1.944-.977.226-1.887.637-1.887.637s.581 1.235 2.334 1.464c1.753.229 2.46-.157 2.46-.157z" fill="#fff" stroke="#000" stroke-width=".397" transform="matrix(-1.02396 0 0 1.02447 182.744 5.476)"/><path d="M150.775 56.792a1.241 1.242 0 011.242 1.242 1.241 1.242 0 01-1.242 1.242 1.241 1.242 0 01-1.241-1.242 1.241 1.242 0 011.241-1.242zm-.188.52a.528.722 90 00-.006 0 .528.722 90 00-.722.528.528.722 90 00.722.527.528.722 90 00.722-.527.528.722 90 00-.716-.528z" paint-order="fill markers stroke"/><g><g stroke="#000" stroke-width=".397"><path style="font-variation-settings:normal" d="M32.483 44.761s-.38-1.374-1.725-1.573c0 0-.38-1.374-1.725-1.572 0 0-.38-1.374-1.724-1.573 0 0-.38-1.374-1.723-1.573 0 0-.487-1.28-1.755-1.331 0 0-.49-1.28-1.754-1.335 0 0-.437-1.094-1.579-1.138 0 0-.44-1.091-1.58-1.137 0 0-.41-1-1.48-1.04 0 0-.412-.997-1.477-1.042 0 0-.36-.792-1.302-.824 0 0-.363-.787-1.305-.821 0 0-.356-.697-1.28-.725 0 0-.356-.696-1.28-.725 0 0-.349-.65-1.255-.676 0 0-.35-.65-1.254-.678 0 0-.334-.56-1.203-.582 0 0-.336-.558-1.205-.58-.546-.448-1.283-.391-1.94-.577 0 0 .743.968 2.082 1.365.1 0 .496.545 1.24.645 0 0 .348.694 1.34.744 0 0 .446.794 1.29.794 0 0 .546.793 1.24.744 0 0 .447.645 1.29.793 0 0 .546.695 1.29.745 0 0 .297.793 1.389.893 0 0 .496.843 1.24.892 0 0 .248.794 1.488 1.042 0 0 .298.943 1.39 1.092 0 0 .495 1.29 1.686 1.29 0 0 .496 1.24 1.637 1.389 0 0 .298 1.339 1.637 1.438 0 0 .447 1.24 1.637 1.637 0 0 .348 1.39 1.638 1.737 0 0 .496 1.686 1.835 2.331 1.34.645 3.197-.069 3.197-.069z" fill="#fff" transform="matrix(1.02396 0 0 1.02447 2.248 5.476)"/><path style="font-variation-settings:normal" d="M30.758 43.188s-1.753.022-1.951 1.41m.226-2.982s-.855-.275-1.582.883m-1.638-1.737c.116-.033.295-.76 1.496-.719m-3.133-.918s.372-.731 1.41-.655m-3.047-.783s.434-.567 1.292-.548m-2.929-.841s.349-.507 1.175-.494m-2.862-.796s.367-.403 1.283-.342m-2.672-.75s.308-.43 1.092-.387m-2.58-.655s.45-.45 1.1-.385m-2.34-.507s.068-.52.863-.535m-2.252-.358s.187-.467.95-.466m-2.24-.279s.2-.523.935-.542m-2.225-.251s.227-.443.945-.474m-2.185-.27s.24-.481.905-.455m-2.195-.34s.178-.268.94-.336m-2.28-.407s.378-.248 1.026-.27m-2.266-.375s.404-.242 1.063-.208" fill="none" transform="matrix(1.02396 0 0 1.02447 2.248 5.476)"/></g><path style="font-variation-settings:normal" d="M24.901 161.957s-.052.956.317 1.793c0 0 3.587.415 5.024.21l-.257-.924s.821.103 1.386-.103c0 0-.924-1.848-2.925-2.67-2.001-.82-3.545 1.694-3.545 1.694zm39.997-14.554s.13.839.233 1.558c0 0 2.348.658 4.298.042l-.514-.873s1.027-.154 1.437-.308c-.269-.704-.702-1.885-2.823-2.655z"/><g stroke-width=".374" stroke="#000"><path style="font-variation-settings:normal" d="M32.483 44.761s-.38-1.374-1.725-1.573c0 0-.38-1.374-1.725-1.572 0 0-.38-1.374-1.724-1.573 0 0-.38-1.374-1.723-1.573 0 0-.487-1.28-1.755-1.331 0 0-.49-1.28-1.754-1.335 0 0-.437-1.094-1.579-1.138 0 0-.44-1.091-1.58-1.137 0 0-.41-1-1.48-1.04 0 0-.412-.997-1.477-1.042 0 0-.36-.792-1.302-.824 0 0-.363-.787-1.305-.821 0 0-.356-.697-1.28-.725 0 0-.356-.696-1.28-.725 0 0-.349-.65-1.255-.676 0 0-.35-.65-1.254-.678 0 0-.334-.56-1.203-.582 0 0-.336-.558-1.205-.58-.546-.448-1.283-.391-1.94-.577 0 0 .743.968 2.082 1.365.1 0 .496.545 1.24.645 0 0 .348.694 1.34.744 0 0 .446.794 1.29.794 0 0 .546.793 1.24.744 0 0 .447.645 1.29.793 0 0 .546.695 1.29.745 0 0 .297.793 1.389.893 0 0 .496.843 1.24.892 0 0 .248.794 1.488 1.042 0 0 .298.943 1.39 1.092 0 0 .495 1.29 1.686 1.29 0 0 .496 1.24 1.637 1.389 0 0 .298 1.339 1.637 1.438 0 0 .447 1.24 1.637 1.637 0 0 .348 1.39 1.638 1.737 0 0 .496 1.686 1.835 2.331 1.34.645 3.197-.069 3.197-.069z" fill="#fff" transform="matrix(1.04529 -.1276 .1198 1.11345 -6.586 5.854)"/><path style="font-variation-settings:normal" d="M30.758 43.188s-1.753.022-1.951 1.41m.226-2.982s-.855-.275-1.582.883m-1.638-1.737c.116-.033.295-.76 1.496-.719m-3.133-.918s.372-.731 1.41-.655m-3.047-.783s.434-.567 1.292-.548m-2.929-.841s.349-.507 1.175-.494m-2.862-.796s.367-.403 1.283-.342m-2.672-.75s.308-.43 1.092-.387m-2.58-.655s.45-.45 1.1-.385m-2.34-.507s.068-.52.863-.535m-2.252-.358s.187-.467.95-.466m-2.24-.279s.2-.523.935-.542m-2.225-.251s.227-.443.945-.474m-2.185-.27s.24-.481.905-.455m-2.195-.34s.178-.268.94-.336m-2.28-.407s.378-.248 1.026-.27m-2.266-.375s.404-.242 1.063-.208" fill="none" transform="matrix(1.04529 -.1276 .1198 1.11345 -6.586 5.854)"/></g><path style="font-variation-settings:normal" d="M19.5 123.556c3.412.824 4.892-1.745 4.892-1.745 1.231 5.955.616 9.96-.821 12.32-1.437 2.362-4.413 2.465-4.413 4.21 0 1.746 1.472 1.886 1.847 3.39.376 1.503.528 10.65.368 14.392-.159 3.742 1.48 4.325 1.48 4.325 1.65-1.142 2.124.544 2.228 1.617 0 0 3.004.426 3.362-.828.358-1.254-.943-2.251-2.104-2.396-1.34-1.877-1.72-6.03-2.298-11.254-.579-5.228-.87-5.953 5.806-8.277 6.676-2.323 10.602-9.831 11.465-13.359 0 0 4.446 1.783 5.966 4.005 1.52 2.222-1.847 3.594-1.54 5.443.273 1.636 1.298 1.059 3.285 2.053 1.986.994 9.955 5.75 11.597 6.982 1.642 1.232 1.128 2.361 2.36 3.183 0 0 .924-1.643 2.052-.205 0 0 2.053-.103 2.464-2.054 0 0-4.196-2.37-8.723-5.647-4.528-3.279-6.596-3.836-7.185-5.956-.588-2.119 2.702-3.667 2.36-9.24-.34-5.574-6.772-11.295-9.44-13.144 0 0 1.152-1.6 2.63-3.605 1.658.359 3.484.157 5.169-.125 0 0 4.823-3.697 6.568-5.648 1.744-1.95 2.053-4.517.924-5.955-1.13-1.437-4.636-4.946-4.636-4.946s.302-1.262.203-3.186c0 0 1.476-3.05 1.766-7.986.29-4.937 1.452-5.518 1.452-5.518s2.525 1.597 3.686 2.613h5.08s-1.654-1.887-4.847-5.082c-3.193-3.195-6.183-4.395-7.693-.87-1.741 4.065-2.953 4.605-3.653 6.73-2.45-3.198-5.706-6.077-11.006-9.441 1.494-1.113 2.34-2.113 5.382-1.714 1.317.984 2.253.35 3.242.35.99 0 1.274-.761 1.274-.761s.954-.012 1.056-1.142c.103-1.13-.6-1.719-.6-1.719.29-1.162-.29-2.033-4.935-4.356-4.645-2.324-5.496-6.878-10.45-7.842-4.954-.963-6.677 1.598-6.677 1.598-2.031-3.485-7.256-4.647-7.256-4.647s1.16 1.742 1.16 5.518c0 3.775 2.763 4.684 2.763 4.684-9.236 11.294-2.258 21.563-2.258 21.563-.912 8.235 4.706 13.995 8.059 20.704 0 4.356-1.767 9.438-4.38 12.342-2.612 2.905-2.413 5.697-2.413 5.697-.513 1.438-2.323 3.548-4.105 2.568-1.782-.98-2.258-4.826-1.745-7.804-2.62 5.097-2.18 9.341 1.232 10.165zm34.44-26.26s.87 0 1.596.581c0 0-.58 2.614-.58 4.066 0 0-2.033.726-3.049 2.324 0 0-1.019-.042-2.163.015.548-.72 1.088-1.423 1.583-2.048 2.758-3.485 2.612-4.938 2.612-4.938z" fill="#fff"/><path style="font-variation-settings:normal" d="M22.921 49.867s2.053 2.875 1.95 7.085c0 0 2.565.205 4.413 1.745 0 0-1.642-1.642-2.566-4.517-.923-2.875-2.668-3.902-3.797-4.313zm7.803 1.42c-1.632.524-2.496 1.407-2.496 1.407s1.261 2.615 1.158 4.463c.45-.347.693-.89.657-1.992 0 0 1.294 1.479 2.422 1.273 0 0-2.877-1.953-1.74-5.15zm-5.614 7.034c-9.236 11.294-2.258 21.563-2.258 21.563-.912 8.235 4.706 13.995 8.059 20.704 5.134 4.623-3.306 24.4-4.5 22.798-1.161-1.573-1.929-2.141-1.929-2.141l-.015.071.112 1.099c.54 5.424.332 9.514-1.008 11.717 0 0 .881.484.01 1.573-.87 1.089-.508 2.395 1.162 2.178.638 1.66-.838 2.691-.547 4.526.674-1.152 2.265-1.92 5.65-3.099 6.677-2.323 10.603-9.831 11.466-13.359-.38-4.591-1.722-5.062-1.842-9.522-.124-4.566 4.827-8.945 6.788-12.086l5.988-7.676s.387 2.42-.919 5.567c2.758-3.485 2.612-4.938 2.612-4.938s1.005.141 1.73.722c.394-.47-.567-2.392 1.318-1.786 1.88.604 2.614 3.682 1.888 5.761 1.744-1.95 2.053-4.517.924-5.955-1.13-1.437-4.636-4.946-4.636-4.946s.302-1.262.203-3.186c-.798-5.104-2.49-7.315-3.489-8.985l1.482-2.196c3.483 5.228 1.9 10.965 1.9 10.965s1.583-2.833 1.873-7.77c.29-4.937 1.522-5.614 1.522-5.614-.581-2.033-1.086-1.502-1.522-3.39-.21-.912.7-1.415 1.695-1.694-1.686-.683-3.115-.264-4.017 1.84-1.741 4.066-2.953 4.606-3.653 6.732-2.45-3.199-5.706-6.078-11.006-9.442 1.494-1.113 2.34-2.113 5.382-1.714-.958-.548-1.813-1.506-1.813-1.506.308-1.13 1.232-2.156 1.232-2.156-1.334-1.232-.513-2.978 1.642-2.67a71.96 71.96 0 001.8.234c-.711-.434-1.632-.934-2.824-1.53-2.534-1.268-5.304-4.419-6.862-6.07 1.94 2.505 3.009 4.717 4.191 5.826 1.642 1.54 1.027 3.285-1.231 2.464-2.258-.822-4.708-3.134-4.708-3.134l-.295 1.245c2.052 1.232 5.105 5.586 3.874 7.023-1.232 1.438-4.208 1.951-7.595-.103-3.386-2.053-3.797-6.674-3.797-6.674-.82-.103-1.026-.947-1.026-.947-.94.145-2.442-.354-3.016-.532zm22.22 3.73s-.206.976.666 1.284c.873.308 1.027.821 1.027.821s.808.319 1.482-.79c0 0-2.047.38-3.176-1.314zm1.054 3.089a1.841 1.841 0 00-.49.044c-1.386.308-2.053.307-2.053.307s.257.41 1.59.206c.918-.142 1.465-.133 2.451.798a1.17 1.17 0 00.167-.268s-.59-1.035-1.665-1.087zM19.295 89.159c-1.642.205-2.566 1.642-2.566 4.928s-.205 4.415-.205 4.415c-.42-2.766-1.535-2.219-1.026-6.263-.593.39-1.572 1.964-.719 4.723.87 2.815.719 4.621.719 4.621-1.334-1.027-1.335-4.107-1.335-4.107-1.129 1.232-1.642 3.49-.41 4.928 1.231 1.438 1.334 2.465 1.334 2.465-1.129-.308-2.052.205-2.052.205 2.565 1.335 4.57 3.836 3.592 8.625-.428 2.09-.584 4.075-.342 5.718.747 1.549 2.593 3.68 4.481 3.39 2.831-.436 3.899-2.999 3.534-4.23-.514 1.437-2.505 3.598-4.287 2.618s-2.258-4.826-.103-8.112c2.156-3.286.103-6.469.103-10.268 0-3.8.821-5.75.821-5.75-1.617.332-1.488 1.785-2.463 2.977.103-1.54.402-3.123-.205-5.544-.608-2.421-.044-4.302 1.129-5.34zm31.321 28.027c-1.848 1.344-1.152 3.712-.015 5.86 1.306 2.47-.145 7.116-3.323 6.91.637.931.412 1.712-.037 2.442.838.254 1.295.97 1.295 1.5 0 1.017.869 1.105 1.375.509.345-.406.998-.56 1.8-.286a3.64 3.64 0 01-.123-.366c-.588-2.119 2.702-3.667 2.36-9.24-.155-2.54-1.579-5.108-3.332-7.329zM38.781 53.122s-3.114-2.062-7.215-1.848c0 0 4.139-1.002 7.215 1.848z"/><path style="font-variation-settings:normal" d="M27.67 59.832s-3.194 1.453-4.065 9.294c-.87 7.841 2.668 9.799 2.668 9.799-1.436 3.696-.205 8.01 2.669 13.143 2.873 5.134 2.13 8.735 2.13 8.735 0 3.444-1.268 7.122-3.021 10.039.832 5.45-2.737 9.387-1.64 12.544 1.162 3.34.727 6.244.727 6.244s3.918-1.162 5.66-3.05c0 0-.29-4.065 2.757-5.808 3.048-1.742 1.452-4.647 1.016-7.987-.435-3.34 2.406-3.804 6.386-5.663 4.355-2.033 8.273-6.39 9.29-10.455-4.006 1.649-8.323 1.027-9.45-1.484-.837-1.865-.873-3.04-2.646-3.55 0 0 1.597-.58 2.468 1.017.87 1.597 1.306 3.775 4.934 3.05 3.629-.727 4.923-4.283 3.416-7.867-1.497-3.563-3.777-4.877-5.302-5.493 1.451-.145 2.824.121 4.934 2.904 2.1 2.769 1.722 3.434 3.483 4.647.58-4.502-2.031-10.165-6.82-13.94-4.79-3.776-8.71-6.244-8.71-6.244-9.143.726-10.885-9.875-10.885-9.875z" fill="#c63"/><path style="font-variation-settings:normal" d="M37.94 117.598s.473-2.253.188-5.67c-.283-3.402 2.126-3.118 2.126-3.118-.5-2.87.049-4.385.805-5.444" fill="none" stroke="#000" stroke-width=".397" transform="matrix(1.02396 0 0 1.02447 2.464 5.476)"/><path style="font-variation-settings:normal" d="M47.72 107.874s-1.468-.946-1.207-2.059c.261-1.112 1.742-1.452 1.742-1.452s-1.524-.435-3.266-.145c-1.741.29-2.938 2.378-2.938 2.378l1.632.308-.87 1.162s2.339.742 4.906-.192z"/><path style="font-variation-settings:normal" d="M46.173 96.446s-1.454.08-2.446.15" fill="none" stroke="#000" stroke-width=".397" transform="matrix(1.02396 0 0 1.02447 2.464 5.476)"/><path style="font-variation-settings:normal" d="M28.856 161.034l-.256.667 1.231.976.821-.052s-1.026-1.283-1.796-1.591zm38.794-14.837l-.41.564 1.539.925.872-.206s-.872-.975-2.001-1.283zm-21.668-39.694s.154.564.308.924c-1.2.231-1.767.11-2.68.09l.597-.8z" fill="#fff"/><path style="font-variation-settings:normal" d="M62.883 435.629c12.593 3.04 18.054-6.44 18.054-6.44 4.546 21.971 2.275 36.743-3.029 45.456-5.303 8.712-16.289 9.091-16.289 15.53 0 6.44 5.432 6.957 6.818 12.503 1.387 5.545 1.947 39.293 1.36 53.097-.588 13.804 5.459 15.955 5.459 15.955 6.093-4.21 7.84 2.01 8.224 5.967 0 0 11.091 1.57 12.413-3.054 1.321-4.625-3.482-8.305-7.768-8.84-4.946-6.924-6.348-22.245-8.482-41.518-2.136-19.286-3.214-21.964 21.43-30.535 24.642-8.571 39.132-36.271 42.32-49.285 0 0 16.41 6.578 22.02 14.775 5.608 8.198-6.819 13.26-5.683 20.078 1.007 6.037 4.788 3.908 12.122 7.575 7.333 3.666 36.745 21.214 42.806 25.76 6.061 4.545 4.165 8.711 8.711 11.742 0 0 3.41-6.06 7.576-.756 0 0 7.577-.38 9.092-7.576 0 0-15.484-8.742-32.197-20.836-16.713-12.094-24.346-14.153-26.518-21.971-2.172-7.819 9.972-13.53 8.713-34.092-1.259-20.562-25-41.67-34.85-48.488 0 0 4.256-5.904 9.713-13.303 6.119 1.326 12.857.58 19.077-.459 0 0 17.802-13.639 24.242-20.836 6.44-7.197 7.577-16.667 3.41-21.97-4.167-5.304-17.111-18.249-17.111-18.249s1.115-4.656.75-11.754c0 0 5.448-11.248 6.52-29.462 1.07-18.215 5.357-20.358 5.357-20.358s9.321 5.893 13.607 9.643h18.75s-6.107-6.965-17.893-18.75c-11.785-11.786-22.82-16.213-28.392-3.213-6.429 15-10.901 16.99-13.486 24.834-9.045-11.799-21.06-22.42-40.622-34.834 5.513-4.105 8.638-7.794 19.866-6.322 4.86 3.63 8.313 1.293 11.964 1.293 3.652 0 4.704-2.81 4.704-2.81s3.52-.045 3.898-4.212c.379-4.167-2.217-6.342-2.217-6.342 1.072-4.285-1.072-7.5-18.215-16.072-17.142-8.571-20.286-25.372-38.572-28.928-18.286-3.555-24.642 5.893-24.642 5.893-7.5-12.857-26.786-17.143-26.786-17.143s4.286 6.427 4.286 20.356c0 13.928 10.197 17.281 10.197 17.281-34.093 41.669-8.334 79.55-8.334 79.55-3.37 30.384 17.37 51.635 29.744 76.384 0 16.071-6.521 34.82-16.164 45.535-9.643 10.714-8.908 21.017-8.908 21.017-1.894 5.304-8.576 13.088-15.153 9.471-6.576-3.617-9.394-19.66-7.5-30.645-9.674 18.804-6.986 36.318 5.608 39.358zM190 338.75s3.214 0 5.893 2.143c0 0-2.143 9.642-2.143 15 0 0-7.5 2.679-11.25 8.572 0 0-3.763-.154-7.986.056a521.118 521.118 0 015.843-7.556C190.536 344.108 190 338.75 190 338.75z" transform="matrix(.27092 0 0 .27106 2.464 5.476)" fill="none" stroke="#000" stroke-width="1.5"/><path style="font-variation-settings:normal" d="M33.952 52.233c-.645-1.489-1.881-2.18-2.907-1.944-.977.226-1.887.637-1.887.637s.581 1.235 2.334 1.464c1.753.229 2.46-.157 2.46-.157z" fill="#fff" stroke="#000" stroke-width=".397" transform="matrix(1.02396 0 0 1.02447 2.464 5.476)"/><path d="M34.433 56.792a1.241 1.242 0 00-1.242 1.242 1.241 1.242 0 001.242 1.242 1.241 1.242 0 001.241-1.242 1.241 1.242 0 00-1.241-1.242zm.189.52a.722.528 0 01.006 0 .722.528 0 01.722.528.722.528 0 01-.722.527.722.528 0 01-.723-.527.722.528 0 01.716-.528z" paint-order="fill markers stroke"/></g><g transform="matrix(1.02396 0 0 1.02447 2.464 5.476)"><path style="font-variation-settings:normal" d="M119.46 70.021l-48.602 68.083c4.83 5.295 10.656 9.3 17.173 11.008 18.388-4.82 31.428-27.706 31.428-47.267z" fill="#009543"/><path style="font-variation-settings:normal" d="M56.602 70.02v31.825c0 12.628 5.456 26.615 14.256 36.26l48.601-68.084v-.001z" fill="#003580"/><path style="line-height:normal;font-variant-ligatures:normal;font-variant-position:normal;font-variant-caps:normal;font-variant-numeric:normal;font-variant-alternates:normal;font-variant-east-asian:normal;font-feature-settings:normal;font-variation-settings:normal;text-indent:0;text-align:start;text-decoration-line:none;text-decoration-style:solid;text-decoration-color:#000;text-transform:none;text-orientation:mixed;white-space:normal;shape-padding:0;shape-margin:0;inline-size:0;isolation:auto;mix-blend-mode:normal;solid-color:#000;solid-opacity:1" d="M105.285 70.02l-41.029 59.062c4.16 7.184 9.82 13.322 16.498 17.062l38.705-55.72V70.02z" color="#000" font-weight="400" font-family="sans-serif" overflow="visible" fill="#fff"/><path style="line-height:normal;font-variant-ligatures:normal;font-variant-position:normal;font-variant-caps:normal;font-variant-numeric:normal;font-variant-alternates:normal;font-variant-east-asian:normal;font-feature-settings:normal;font-variation-settings:normal;text-indent:0;text-align:start;text-decoration-line:none;text-decoration-style:solid;text-decoration-color:#000;text-transform:none;text-orientation:mixed;white-space:normal;shape-padding:0;shape-margin:0;inline-size:0;isolation:auto;mix-blend-mode:normal;solid-color:#000;solid-opacity:1" d="M110.601 70.02l-43.8 63.052c2.923 4.178 6.389 7.853 10.282 10.705l42.376-61.002V70.02z" color="#000" font-weight="400" font-family="sans-serif" overflow="visible" fill="#d21034"/><path style="font-variation-settings:normal" d="M119.46 70.02v31.826c0 19.56-13.04 42.446-31.43 47.266-18.388-4.82-31.428-27.706-31.428-47.266V70.02z" fill="none" stroke="#000" stroke-width=".529"/><path d="M74 75.145l-1.618 5.276A6.254 6.254 0 0174 80.208a6.254 6.254 0 011.618.212zm-5.658 1.516l1.236 5.379a6.254 6.254 0 012.804-1.619zm1.236 5.379L64.2 80.803l3.76 4.04a6.254 6.254 0 011.618-2.803zm10.08-5.379l-4.039 3.76a6.254 6.254 0 012.803 1.618zm4.143 4.142l-5.378 1.237a6.254 6.254 0 011.618 2.803zm-15.842 4.04l-5.275 1.619 5.275 1.618a6.254 6.254 0 01-.213-1.618 6.254 6.254 0 01.213-1.619zm12.082 0a6.254 6.254 0 01.213 1.619 6.254 6.254 0 01-.213 1.618l5.276-1.618zm0 3.237a6.254 6.254 0 01-1.618 2.803L83.8 92.12zm-12.081 0l-3.76 4.04 5.378-1.237a6.254 6.254 0 01-1.618-2.803zm1.618 2.803l-1.236 5.379 4.04-3.76a6.254 6.254 0 01-2.804-1.619zm8.844 0a6.254 6.254 0 01-2.803 1.62l4.04 3.759zm-6.04 1.62L74 97.777l1.619-5.276a6.254 6.254 0 01-1.619.214 6.254 6.254 0 01-1.618-.214z" fill="#ffce00" paint-order="fill markers stroke"/><circle cx="74" cy="86.462" r="4.666" fill="#ffce00" paint-order="fill markers stroke"/></g><g><path style="font-variation-settings:normal" d="M99.698 50.105s1.34 2.316 3.423 3.804c0 0 .993.066 1.737-.53l-1.439-2.43 2.43 1.935s1.688-.546 2.977-1.687l-1.881-1.665s1.543.561 2.736.771c0 0 1.754-.771 3.157-2.174 0 0-2.105-.702-2.947-1.053 0 0 2.456.21 3.93.21 0 0 1.543-1.122 2.104-2.455-3.904.332-7.242-1.505-9.94.14z" fill="#003580" stroke="#000" stroke-width=".397" transform="matrix(1.02396 0 0 1.02447 2.464 5.476)"/><path style="font-variation-settings:normal" d="M103.419 50.949s-1.198-1.558-1.62-2.189m5.146.772s-2.082-.96-3.602-2.386m1.684-.982s2.011.561 4.864.912" fill="none" stroke="#000" stroke-width=".397" transform="matrix(1.02396 0 0 1.02447 2.464 5.476)"/><path style="font-variation-settings:normal" d="M57.944 1.72s-4.068-2.977-6.251-6.35c0 0 .198 5.16 4.564 8.037 0 0-2.877-1.39-4.167-2.183 0 0 .992 3.572 5.755 6.747 0 0-1.886.099-5.26-1.985 1.521 3.55 6.36 6.179 10.32 6.35 0 0-2.778.496-5.457-.297 0 0 1.95 3.51 8.532 3.274 0 0-2.877.397-4.068.397 0 0 1.588 2.083 6.648 2.282 0 0-2.083.397-4.068.198 1.27 1.834 3.96 2.735 8.037 2.977 0 0-2.084.297-4.366.397 1.325 1.3 3.583 1.743 7.839 1.389 0 0-1.687.992-3.87.992.804 1.474 3.147 1.542 7.03 1.062 0 0-1.261.98-4.45 1.12.547 1.207 3.62 1.553 5.457 1.191 0 0-1.147.441-2.27.722 0 0 .561.701 2.806 1.122 0 0-.56.281-1.052.702 0 0 1.123 1.263 3.718 1.544l-.181-9.316-15.943-10.271z" fill="#003580" stroke="#000" stroke-width=".397" transform="matrix(1.02396 0 0 1.02447 2.464 5.476)"/><path style="font-variation-settings:normal" d="M56.257 3.407s1.39.756 3.073 1.457m-1.485 3.107s1.906.892 3.73 1.243m6.985 8.778s2.627.062 4.802-.148m-.833 3.323s3.359.068 6.446-.868m-2.973 2.654s2.13.012 5.007-1.11m-1.847 3.164s1.988-.498 3.461-1.27m-2.454 3.581s1.402-.284 3.436-.845m-2.9 2.69s1.637.116 3.391-.234" fill="none" stroke="#000" stroke-width=".397" transform="matrix(1.02396 0 0 1.02447 2.464 5.476)"/><path style="font-variation-settings:normal" d="M68.692 9.757s-5.39-2.944-8.169-10.088c0 0-.396.926-.297 1.522 0 0-1.588-1.092-3.87-4.465-.105 2.697 1.154 6.012 4.167 8.334 0 0-1.277-.513-2.468-1.307 0 0 .554 1.65 1.774 2.795l-1.19-.198s.967 2.49 4.663 5.06H62.11s1.786 4.068 8.334 5.953c6.549 1.885 8.528 2.95 10.564 4.947l-.642-2.565z" fill="#d21034" stroke="#000" stroke-width=".397" transform="matrix(1.02396 0 0 1.02447 2.464 5.476)"/><path style="font-variation-settings:normal" d="M82.413 35.08c0-.562 2.104-7.297-1.404-12.77C77.501 16.838 69.503 13.751 68.1 8.42c0 0 3.897 4.069 8.56 6.735 4.662 2.667 5.612 4.77 5.612 4.77s3.198 1.608 5.678 6.71c2.48 5.1 1.759 7.744 1.759 7.744z" fill="#d21034" stroke="#000" stroke-width=".397" transform="matrix(1.02396 0 0 1.02447 2.464 5.476)"/><path style="font-variation-settings:normal" d="M82.272 19.925s3.514 6.313 2.515 14.68" fill="none" stroke="#000" stroke-width=".397" transform="matrix(1.02396 0 0 1.02447 2.464 5.476)"/><path style="font-variation-settings:normal" d="M75.968 41.97c3.273.576 3.057 2.29 6.728 2.964 3.605.662 5.113 2.393 5.113 2.393l5.622-2.612-.198-12.304s-4.862-1.29-9.426 1.29-5.51 3.272-7.826 3.202c-2.315-.07-3.087 2.035-3.157 2.807z" fill="#fff" stroke="#000" stroke-width=".397" transform="matrix(1.02396 0 0 1.02447 2.464 5.476)"/><path style="font-variation-settings:normal" d="M90.19 39.29c1.19 5.954-2.381 8.037-2.381 8.037s.396 4.068-.199 8.533l8.516-6.796s1.786-.298 3.572 1.041c0 0 4.393-.363 6.288-5.134 0 0-1.11-1.349-1.965-4.069-.855-2.72-1.894-3.929-3.788-4.7l-5.419-2.821z" fill="#d21034" stroke="#000" stroke-width=".397" transform="matrix(1.02396 0 0 1.02447 2.464 5.476)"/><path style="font-variation-settings:normal" d="M86.945 57.728c.957-3.567 1.928-5.737 3.233-7.845 1.363-2.202 4.806-2.626 5.989-2.556 0 0 .043.568-.588 1.34l.702-.1s-.4 1.255-1.404 1.924l.746-.129s-.184 1.602-2.149 2.374l.909-.067s-.385 1.045-2.102 2.101c0 0 .421 0 .983.28 0 0-.632.983-2.245 1.264 0 0 .61.158 1.006.654-1.362 1.027-3.172.264-3.968 1.885z" fill="#fff" stroke="#000" stroke-width=".397" transform="matrix(1.02396 0 0 1.02447 2.464 5.476)"/><path style="line-height:normal;font-variant-ligatures:normal;font-variant-position:normal;font-variant-caps:normal;font-variant-numeric:normal;font-variant-alternates:normal;font-variant-east-asian:normal;font-feature-settings:normal;font-variation-settings:normal;text-indent:0;text-align:start;text-decoration-line:none;text-decoration-style:solid;text-decoration-color:#000;text-transform:none;text-orientation:mixed;white-space:normal;shape-padding:0;shape-margin:0;inline-size:0;isolation:auto;mix-blend-mode:normal;solid-color:#000;solid-opacity:1" d="M100.38 55.53l-.094-.396c-2.324.548-3.414 1.708-3.414 1.708s1.26-.781 3.508-1.311zm-.724 1.871l-.082-.398c-1.81.373-3.814 1.852-3.814 1.852s2.21-1.107 3.896-1.454zm-1.454 2.304l-.048-.405c-1.543.186-2.717 1.065-2.717 1.065s1.316-.486 2.765-.66zm-1.26 2.084l.028-.406c-1.707-.112-2.611.85-2.611.85s1.01-.547 2.583-.444zm-1.327 1.575l.098-.394c-.764-.113-1.671.082-2.218.563 1.271-.386 2.12-.169 2.12-.169z" color="#000" font-weight="400" font-family="sans-serif" overflow="visible"/><path style="font-variation-settings:normal" d="M95.743 34.705s1.754 1.754 5.051 2.315c3.297.561 4.63-1.613 4.63-1.613s-3.367.14-5.191-.913c0 0 3.858.562 6.033-1.262 0 0-3.437.07-5.191-1.193 0 0 5.332.42 7.436-1.333 0 0-3.157-.28-4.98-.982 0 0 5.05.42 6.945-1.474 0 0-2.228-.436-3.22-.833 0 0 2.976-.099 5.457-2.38 0 0-2.183-.2-2.977-.398 0 0 3.969-.198 6.747-3.572-.992 0-1.588-.099-2.381-.297 0 0 4.774-2.067 6.66-5.242 0 0-1.104.082-1.7.082 0 0 2.832-1.652 4.068-4.663 0 0-1.878 1.055-5.06 1.885 0 0 4.564-2.282 6.648-6.945 0 0-3.903 2.877-5.192 3.572 0 0 3.571-3.076 4.365-6.25l-1.984 1.19s3.77-4.068 4.167-8.235c0 0-3.076 4.068-5.953 6.647l-18.266 17.142z" fill="#003580" stroke="#000" stroke-width=".397" transform="matrix(1.02396 0 0 1.02447 2.464 5.476)"/><path style="font-variation-settings:normal" d="M100.233 34.494s-1.45-.257-2.643-1.239m3.485-1.216s-1.871-.257-3.274-.678m5.73-1.637s-2.005-.386-3.497-.997m7.221-1.31s-4.333.155-6.788-.336m9.269-2.442s-3.442.143-6.776-.356m11.142-3.513s-4.866 1.33-9.707 1.19m14.668-6.35s-6.108 3.052-12.352 4.385m11.36-7.163s-3.713 2.462-8.764 3.515m10.219-6.888s-3.554 2.398-6.29 3.38m8.67-8.44s-4.18 3.74-7.969 5.844" fill="none" stroke="#000" stroke-width=".397" transform="matrix(1.02396 0 0 1.02447 2.464 5.476)"/><path style="font-variation-settings:normal" d="M100.092 27.946c1.193-.28 1.895-.07 1.895-.07-.522 1.835-3.1 3.316-4.841 4.49.701 0 1.427.265 1.427.265-2.083 2.282-3.841 3.74-6.333 5.568-.887 1.501-3.087 1.602-3.087-.326 0-1.929 2.66-3.87 6.169-9.623 3.508-5.753 3.762-10.695 4.91-12.418 1.15-1.722 3.225-1.629 6.21-3.236l-.072.595c6.688-3.569 10.924-7.987 15.472-13.565 0 0 .592 2.916-4.023 7.53-4.614 4.615-8.98 7.507-8.98 7.507s2.245-.912 5.893-3.157c0 0 .095 1.358-2.313 3.485-2.408 2.126-4.409 3.602-7.313 4.903 0 0 1.587-.315 3.77-1.208 0 0-.815 1.775-2.877 3.274-2.062 1.5-3.326 2.035-3.326 2.035.606.082 1.102.455 1.102.455-.476 1.3-1.801 2.32-3.683 3.496z" fill="#d21034" stroke="#000" stroke-width=".397" transform="matrix(1.02396 0 0 1.02447 2.464 5.476)"/><path style="font-variation-settings:normal" d="M106.443 12.596c-.115 1.068-1.275 1.985-3.553 3.345-2.294 1.37-2.084 5.358-3.969 9.823-1.885 4.465-4.432 8.599-6.68 12.435" fill="none" stroke="#000" stroke-width=".397" transform="matrix(1.02396 0 0 1.02447 2.464 5.476)"/><path style="line-height:normal;font-variant-ligatures:normal;font-variant-position:normal;font-variant-caps:normal;font-variant-numeric:normal;font-variant-alternates:normal;font-variant-east-asian:normal;font-feature-settings:normal;font-variation-settings:normal;text-indent:0;text-align:start;text-decoration-line:none;text-decoration-style:solid;text-decoration-color:#000;text-transform:none;text-orientation:mixed;white-space:normal;shape-padding:0;shape-margin:0;inline-size:0;isolation:auto;mix-blend-mode:normal;solid-color:#000;solid-opacity:1" d="M114.02 20.669l-.218-.343s-1.893 1.011-4.889 2.579a33.75 33.75 0 005.107-2.236zm-3.866 5.38l-.132-.384c-.722.303-1.091.48-1.56.758zm-2.263 4.304l-.357-.488s-.796.26-1.526.67c1.41-.3 1.883-.182 1.883-.182zm-2.88 3.948l-.11-.39s-.402.194-1.12.578a5.906 5.906 0 001.23-.188z" color="#000" font-weight="400" font-family="sans-serif" overflow="visible"/><path style="font-variation-settings:normal" d="M72.002 41.75s-.95-1.803.822-2.04c1.772-.237 2.466-.833 2.466-.833.185.617-.07 1.175-.34 1.701.22.281 1.273.349 2.079.347.069.314-.23.8-1.06 1.045-.832.244-1.268.788-1.373 1.57-.455-.27-.942-1.49.269-2.6l-1.602.922z" fill="#ffce00" stroke="#000" stroke-width=".397" transform="matrix(1.02396 0 0 1.02447 2.464 5.476)"/><path style="font-variation-settings:normal" d="M80.434 44.576c-.144.79-1.078 2.084-1.94 2.659-1.724 1.15-2.658.503-2.658.503s-1.078 3.666 2.658 3.881c0 0-1.652-1.725.215-3.45 1.868-1.725 1.725-3.593 1.725-3.593z"/><path d="M80.484 45.931a.66.66 0 00-.655.66.66.66 0 00.66.661.66.66 0 00.661-.66.66.66 0 00-.66-.661.66.66 0 00-.006 0zm-.156.273a.28.28 0 01.28.28.28.28 0 01-.28.28.28.28 0 01-.28-.28.28.28 0 01.28-.28z" paint-order="fill markers stroke"/><path style="line-height:normal;font-variant-ligatures:normal;font-variant-position:normal;font-variant-caps:normal;font-variant-numeric:normal;font-variant-alternates:normal;font-variant-east-asian:normal;font-feature-settings:normal;font-variation-settings:normal;text-indent:0;text-align:start;text-decoration-line:none;text-decoration-style:solid;text-decoration-color:#000;text-transform:none;text-orientation:mixed;white-space:normal;shape-padding:0;shape-margin:0;inline-size:0;isolation:auto;mix-blend-mode:normal;solid-color:#000;solid-opacity:1" d="M64.33 6.644l-.394.102s.345 1.33 1.747 2.371c-1.041-1.259-1.353-2.473-1.353-2.473zm.222 3.848l-.228.336s1.97 1.34 4.231 2.171a73.76 73.76 0 01-4.003-2.507zm-.698 1.535l-.256.316s3.4 2.766 6.97 4.106c-3.329-1.679-6.714-4.422-6.714-4.422zm3.542 4.97l-.228.336s3.518 2.39 7.566 3.284c-3.854-1.263-7.338-3.62-7.338-3.62z" color="#000" font-weight="400" font-family="sans-serif" overflow="visible"/><path style="font-variation-settings:normal" d="M87.164 59.68s-.546.496-.447 1.29c.1.794-.297.942.05 1.538 0 0-1.092-.1-1.34-1.538-.248-1.439.546-2.183.546-2.183s.298-.595 1.19.893zm-2.63-.992s-1.041.1-1.885.843c-.843.744-1.19 2.034-.545 2.729 0 0 .578-1.19 1.57-1.737.993-.545.86-1.835.86-1.835z" fill="#ffce00" stroke="#000" stroke-width=".397" transform="matrix(1.02396 0 0 1.02447 2.464 5.476)"/><path style="font-variation-settings:normal" d="M89.843 60.771c-.322.993.557 1.437 1.14.993.647-.493 1.538-.15 1.538-.15-.248-1.19-1.438-1.041-1.438-1.041-.496-.794-.629-1.083-1.125-1.406-.496-.322-1.306-.033-1.306-.033-.447-1.34-1.707-1.406-1.707-1.406s-.928-.076-1.822.57c0 0-1.154.184-1.918 1.112-.764.928-.76 2.274.222 2.905 0-.785.22-.954.959-1.242 1.123-.438.131-1.696 2.236-1.906.364.182.44.896.84 1.356.705.814 1.19-.198 2.38.248z" fill="#ffce00" stroke="#000" stroke-width=".397" transform="matrix(1.02396 0 0 1.02447 2.464 5.476)"/></g><g stroke-width=".987" stroke="#000" paint-order="fill markers stroke"><path d="M70.147 62.574h35.767a2.516 2.516 0 012.522 2.522 2.516 2.516 0 01-2.522 2.521H70.147a2.516 2.516 0 01-2.521-2.521 2.516 2.516 0 012.521-2.522z" fill="#009543" stroke-width=".392" transform="matrix(1.03711 0 0 1.03763 1.306 4.62)"/><path d="M268.578 236.5l-12.842 9.531 12.842 9.53 12.842-9.53zm12.842 9.531l12.842 9.53 12.842-9.53-12.842-9.531zm25.684 0l12.84 9.53 12.841-9.53-12.842-9.531zm25.681 0l12.842 9.53 12.842-9.53-12.842-9.531zm25.684 0l12.842 9.53 12.841-9.53-12.841-9.531zm25.683 0l12.842 9.53 12.842-9.53-12.842-9.531z" transform="matrix(.2744 0 0 .27454 1.306 4.62)" fill="#ffce00" stroke-width="1.234" stroke-linejoin="bevel"/></g></svg>