<svg xmlns="http://www.w3.org/2000/svg" version="1.0" width="475.092" height="839.316"><path d="M330.679 837.308c-5.775-1.27-13.425-3.04-17-3.936-3.575-.896-8.3-2.032-10.5-2.525-2.2-.494-5.35-1.435-7-2.093-1.65-.658-3.9-1.29-5-1.406-1.1-.116-4.025-.811-6.5-1.546-2.475-.734-5.4-1.418-6.5-1.52-1.1-.1-4.491-.75-7.535-1.443-5.257-1.195-12.484-1.064-17.965.326-1.375.349-4.525.908-7 1.244-2.475.335-5.281 1.024-6.236 1.53-.955.505-3.655 1.343-6 1.861-2.345.519-6.964 1.625-10.264 2.459-3.3.834-8.7 2.166-12 2.961-3.3.795-7.73 1.96-9.844 2.587-2.114.628-4.054.931-4.31.675-.257-.257-2.802.155-5.657.915-5.955 1.585-17.555 1.826-22.69.47-1.924-.508-5.75-1.207-8.5-1.553-2.75-.346-9.05-1.772-14-3.17-4.95-1.396-10.124-2.732-11.5-2.967-1.374-.235-3.624-.836-5-1.335-4.515-1.64-13.417-3.896-17.966-4.555-2.456-.355-5.239-1.06-6.184-1.565-2.351-1.259-17.562-1.162-21.856.138-1.921.582-4.618 1.269-5.993 1.526-1.375.257-3.85 1.094-5.5 1.858-9.895 4.585-16.799 8.213-17.706 9.305-.571.69-1.61 1.253-2.306 1.253-1.702 0-2.832-6.489-1.548-8.888 2.35-4.391 13.21-10.708 26.06-15.158 9.324-3.23 28.832-3.279 37.148-.095 1.456.558 4.597 1.305 6.979 1.66 2.381.355 4.717.885 5.19 1.178 2.423 1.497 32.304 8.854 41.39 10.19 8.3 1.222 25.242.51 30.293-1.27 2.475-.873 5.767-1.594 7.315-1.602 1.549-.008 3.574-.42 4.5-.915.927-.494 3.412-1.173 5.523-1.508 3.574-.567 10.817-2.594 16.662-4.662 1.375-.486 4.075-1.134 6-1.439 1.925-.304 5.525-1.175 8-1.933 2.475-.76 5.175-1.388 6-1.398.825-.01 5.1-.069 9.5-.132 9.16-.13 17.12.699 19.637 2.046.952.51 2.645.926 3.762.926s3.959.65 6.316 1.445c2.356.794 5.41 1.659 6.785 1.92 1.375.263 4.3 1.1 6.5 1.861 2.2.762 4.675 1.33 5.5 1.265.825-.066 2.647.436 4.049 1.116 1.401.68 4.485 1.525 6.851 1.878 2.367.353 5.495 1.129 6.952 1.723 1.456.594 9.205 1.21 17.22 1.366 14.74.29 20.926-.586 36.292-5.134 2.676-.792 5.743-1.44 6.816-1.44 1.073 0 2.884-.499 4.023-1.109 1.14-.61 3.473-1.309 5.184-1.554 1.712-.245 4.688-.943 6.613-1.55 1.925-.61 3.725-1.099 4-1.088.275.01 1.85-.393 3.5-.895 5.968-1.817 7.153-1.983 17-2.387 8.063-.33 11.355-.008 17 1.665 8.694 2.576 19.648 7.7 25.25 11.811 3.892 2.857 4.25 3.493 4.25 7.554 0 5.37-1.324 6.422-4.845 3.848-1.46-1.067-4.905-3.033-7.655-4.368-2.75-1.335-5.15-2.764-5.334-3.177-.183-.412-.993-.75-1.8-.75-.806 0-2.73-.654-4.275-1.453-1.545-.799-5.01-1.73-7.7-2.07-2.69-.34-6.241-.967-7.891-1.395-1.65-.427-3.675-.672-4.5-.543-.825.13-3.3.534-5.5.9s-5.884.867-8.187 1.114c-2.302.246-5.401.91-6.886 1.475-1.485.565-4.326 1.284-6.314 1.6-1.987.315-4.288.932-5.113 1.372-.825.44-3.273 1.081-5.44 1.425-2.167.343-5.895 1.288-8.285 2.1-2.39.811-5.26 1.475-6.376 1.475-1.117 0-2.99.514-4.164 1.142-1.173.628-4.383 1.335-7.133 1.571s-5.819.868-6.82 1.403c-3.913 2.095-18.864 1.789-29.782-.61zm-158.5-22.036c-2.388-.584-12.257-2.506-15-2.921-1.65-.25-6.375-1.4-10.5-2.558-8.693-2.437-17.41-4.614-24.478-6.11-2.738-.58-5.678-1.429-6.534-1.887-.856-.458-3.383-1.105-5.616-1.438-2.233-.333-5.429-.998-7.101-1.478-6.322-1.813-20.103-.161-30.271 3.629-5.51 2.054-14.642 6.866-17.918 9.443-2.862 2.252-3.69 1.643-4.615-3.395-.62-3.376-.357-4.056 2.672-6.887 3.726-3.482 16.372-10.041 24.86-12.894 4.45-1.495 8.078-1.804 19-1.617 7.68.131 14.378.716 15.534 1.356 1.119.62 4.029 1.424 6.467 1.787 2.437.364 5.122 1.03 5.966 1.482.843.45 2.934 1.04 4.646 1.31 1.711.27 3.977.953 5.033 1.519 1.057.565 3.917 1.326 6.355 1.69 2.437.363 5.137 1.038 6 1.5.862.46 3.562 1.136 6 1.5 2.437.363 5.229 1.087 6.202 1.608 4.473 2.394 29.431 2.09 40.798-.497a586.77 586.77 0 017-1.519c2.475-.522 7.875-1.903 12-3.068 4.125-1.166 8.773-2.356 10.33-2.645 1.557-.289 4.594-1.147 6.75-1.908 2.156-.76 3.92-1.21 3.92-.997 0 .212 1.462-.063 3.25-.61 1.787-.548 4.6-1.227 6.25-1.509 3.967-.676 5.571-2.366 4.853-5.112-.484-1.85-1.312-2.258-4.72-2.324-2.273-.045-6.833-.233-10.133-.42-3.3-.185-9.6-.434-14-.552-6.454-.173-9.132-.762-13.853-3.045-6.066-2.934-10.644-7.233-10.646-9.998-.003-3.335 3.54-5.154 8.69-4.461 2.645.356 6.972.684 9.615.73 2.644.045 5.344.587 6 1.204 2.889 2.716 11.662 7.377 15.888 8.44 9.511 2.396 11.595 2.445 12.743.3 1.523-2.846 1.376-17.63-.187-18.845-.688-.534-9.35-1.083-19.25-1.22-35.347-.486-37.83-.777-47.224-5.539-4.02-2.038-10.237-9.18-10.395-11.944-.216-3.784.214-5.054 2.32-6.847 2.169-1.847 3.033-1.832 15.799.27 3.025.499 6.85 1.117 8.5 1.374 1.65.257 5.448 1.672 8.44 3.144 2.992 1.473 6.203 2.824 7.136 3.004.933.18 2.535.746 3.56 1.259 8.87 4.437 16.87 6.532 25.364 6.642l6.5.084.306-5.965c.416-8.099 1.234-8.877 8.58-8.159 3.284.321 6.333 1.155 6.777 1.854.443.699.82 3.295.837 5.77.048 7.104.195 7.179 13.098 6.727 6.27-.22 12.977-.728 14.902-1.13 4.386-.915 11.612-4.603 17.971-9.172 2.69-1.932 5.709-3.662 6.71-3.844 1.425-.26 13.928-1.66 16.319-1.829.275-.019 1.746-.392 3.269-.829 2.288-.656 3.2-.33 5.25 1.881 3.146 3.393 3.114 4.8-.222 9.714-3.494 5.147-5.599 6.88-12.276 10.108-5.924 2.864-4.78 2.773-46.882 3.739-12.505.287-16.567.7-17.235 1.755-.48.76-.88 4.836-.89 9.059-.01 5.663.398 8.09 1.557 9.25 1.881 1.881 1.336 1.874 9.575.128 4.187-.888 9.183-2.954 13.5-5.583 5.909-3.598 7.819-4.235 13.854-4.622 3.85-.247 8.243-.614 9.763-.815 3.1-.411 5.737 1.637 5.737 4.458 0 2.808-4.525 7.597-9.415 9.964-5.662 2.74-5.485 2.714-23.392 3.503-20.04.883-21.193 1.124-21.193 4.415 0 1.855 6.597 4.445 14.5 5.692 2.2.348 4.675.992 5.5 1.432.825.44 2.85 1.064 4.5 1.385 1.65.322 6.375 1.525 10.5 2.674 4.125 1.15 9.74 2.545 12.477 3.102 2.738.556 5.663 1.376 6.5 1.822 5.748 3.059 36.555 3.029 44.67-.044 1.182-.447 4.092-1.103 6.467-1.457 2.375-.354 5.023-1.021 5.886-1.483.862-.461 3.567-1.137 6.012-1.502 2.445-.364 4.799-.88 5.23-1.148 1.34-.828 15.118-4.555 17.825-4.821 1.412-.14 4.247-.808 6.301-1.485 5.564-1.837 19.403-2.11 24.135-.476 2.198.76 5.122 1.571 6.497 1.805 1.375.234 4.75 1.463 7.5 2.73 2.75 1.269 5.675 2.552 6.5 2.852 4.218 1.534 12.14 7.788 12.725 10.045 2.003 7.742-.423 9.841-6.546 5.665-3.636-2.48-10.91-6.003-18.68-9.048-9.167-3.593-27.712-3.623-38.284-.06-2.357.794-5.53 1.443-7.05 1.443-1.521 0-3.193.416-3.715.923-.523.508-3.2 1.393-5.95 1.968-2.75.574-7.7 1.723-11 2.553-20.944 5.268-24.325 5.831-35.5 5.913-10.745.08-16.737-.458-18.71-1.677-.458-.283-2.833-.813-5.278-1.178-2.445-.365-5.218-1.077-6.163-1.582-.945-.506-2.632-.92-3.749-.92s-3.959-.65-6.315-1.444c-2.357-.795-5.52-1.664-7.027-1.933-1.508-.268-4.208-.948-6-1.51-14.214-4.462-21.205-5.66-32.258-5.53-8.563.102-17.113 1.14-19.38 2.352-.928.497-3.683 1.202-6.12 1.565-2.438.364-5.123 1.03-5.967 1.48-.843.451-3.306 1.101-5.473 1.445-2.167.343-5.895 1.288-8.285 2.1-2.39.811-5.26 1.475-6.376 1.475-1.117 0-2.977.507-4.133 1.126-1.157.618-3.49 1.262-5.185 1.429-4.655.46-8.425 1.23-9.617 1.967-1.037.641-17.451 1.44-19.464.948zM26.943 770.036l-26.235-.267-.61-2.435c-.658-2.62 2.185-12.532 3.594-12.532.468 0 1.111-.818 1.429-1.818 1.014-3.195 14.614-16.598 21.493-21.182a56.138 56.138 0 004.31-3.25c1.134-.962 2.489-1.75 3.013-1.75.523 0 2.952-1.35 5.397-3 2.445-1.65 5.042-3 5.772-3 .73 0 1.888-.675 2.573-1.5.684-.825 1.78-1.5 2.435-1.5s3.412-1.06 6.127-2.358c6.984-3.335 11.103-5.171 17.64-7.864 4.136-1.703 6.536-3.497 8.731-6.527 3.744-5.17 7.425-7.148 13.15-7.07 4.046.056 4.934.579 10.582 6.226 6.292 6.291 7.464 7.062 15.335 10.079 9.935 3.809 29.826 14.152 38.178 19.853 7.663 5.23 18.37 15.218 24.036 22.421 4.997 6.353 7.345 15.116 4.536 16.929-1.187.765-105.244 1.116-161.486.545zm249.236-39.813c-2.75-.742-7.048-1.526-9.551-1.743-2.503-.217-5.428-.855-6.5-1.418s-4.356-1.31-7.298-1.66c-2.942-.35-6.092-1.032-7-1.517-.908-.486-3.379-1.156-5.49-1.491-4.245-.673-8.043-1.815-27.161-8.165-7.15-2.375-15.36-5.467-18.246-6.872-2.884-1.405-5.661-2.555-6.17-2.555-1.4 0-15.536-7.28-15.918-8.198-.183-.441-1.196-.802-2.25-.802s-1.916-.42-1.916-.932c0-.513-.91-1.221-2.02-1.574-4.187-1.329-19.92-14.152-31.721-25.855-6.733-6.676-12.245-12.62-12.25-13.209-.005-.588-1.508-2.838-3.339-5-8.103-9.565-19.927-29.78-28.91-49.43-1.131-2.475-2.44-5.281-2.909-6.236-.468-.955-.851-2.312-.851-3.015 0-.703-.9-2.958-2-5.01-1.1-2.052-2-4.64-2-5.749 0-1.11-.385-2.798-.855-3.753-1.46-2.968-4.279-11.547-5.17-15.737-.467-2.2-1.825-8.275-3.017-13.5-1.191-5.225-2.374-12.425-2.627-16-.253-3.575-.92-7.97-1.48-9.768-1.424-4.57-1.386-53.365.045-56.038.607-1.134 1.104-4.26 1.104-6.947 0-2.686.66-7.107 1.467-9.824.807-2.717 1.752-6.736 2.1-8.932.348-2.195 1.038-4.749 1.533-5.675.495-.926.9-2.632.9-3.79s.9-3.87 2-6.026c1.1-2.156 2-5.063 2-6.46 0-1.397.34-2.54.755-2.54s1.261-1.462 1.88-3.25c1.838-5.309 3.83-10.215 4.365-10.75.275-.275 2.524-4.441 5-9.259 2.474-4.817 5.282-9.767 6.239-11 .956-1.232 4.106-5.84 6.998-10.24 2.893-4.4 5.725-8.498 6.295-9.106.57-.608 3.494-3.983 6.5-7.5 7.257-8.494 23.35-24.532 28.968-28.869 2.475-1.91 4.727-3.784 5.005-4.163.952-1.298 18.174-13.863 19.002-13.863.454 0 .976-.337 1.16-.75.395-.89 9.393-7.25 10.256-7.25.329 0 2.75-1.462 5.382-3.25 5.397-3.666 7.55-4.94 13.518-8 2.297-1.178 4.402-2.424 4.677-2.769.785-.986 19.284-10.091 21.387-10.527 1.037-.216 2.725-1.15 3.75-2.078 1.024-.927 1.863-1.382 1.863-1.01 0 .371 1.782-.234 3.96-1.345 2.178-1.112 4.653-2.02 5.5-2.02.847 0 1.54-.398 1.54-.884s1.012-1.116 2.25-1.4c1.237-.285 4.725-1.498 7.75-2.696 3.025-1.199 7.075-2.64 9-3.204 1.925-.564 4.039-1.463 4.697-2 .659-.536 2.679-1.208 4.489-1.493 1.81-.286 4.51-1.15 6.002-1.921 1.492-.772 3.56-1.403 4.595-1.403 1.036 0 2.196-.313 2.579-.695.382-.383 1.245-.816 1.917-.964a773.17 773.17 0 002.72-.603c1.61-.36 11.449-3.211 16.702-4.84 1.76-.546 4.755-1.143 6.654-1.327 1.9-.184 3.953-.644 4.565-1.022.612-.378 2.118-.872 3.346-1.097 2.957-.542 10.603-2.138 13.734-2.867 1.375-.32 4.525-.84 7-1.157 2.475-.316 6.196-1.011 8.268-1.545 2.787-.717 4.248-.633 5.609.324 2.24 1.576 7.123 7.293 7.123 8.341 0 .418 1.073 3.053 2.386 5.856 4.81 10.275 6.482 14.225 7.151 16.89.376 1.499 1.084 2.972 1.573 3.275.49.302.89 2.098.89 3.99 0 1.893.393 3.441.875 3.441.48 0 1.152 1.386 1.49 3.08.34 1.694 1.226 4.506 1.972 6.25 2.11 4.934 3.663 10.125 3.663 12.241 0 1.061.9 4.297 2 7.19 1.1 2.893 2 6.29 2 7.55 0 1.26.393 2.717.875 3.24 1.457 1.581 3.127 18.345 3.09 31.017-.04 13.534-3.029 29.249-6.358 33.432-.656.825-1.823 2.757-2.593 4.294-1.944 3.881-14.35 16.527-21.248 21.657-9.553 7.106-17.867 20.493-19.604 31.566-.816 5.203-.599 15.497.387 18.341.465 1.341 3.433 1.257 9.45-.268 1.376-.348 9.926-.814 19-1.035 15.077-.367 17.072-.208 23.124 1.84 8.117 2.748 16.22 8.02 23.774 15.469 5.881 5.798 18.103 21.438 18.103 23.166 0 .533.337.973.75.977.89.007 3.039 3.48 9.496 15.352 1.24 2.277 2.479 4.366 2.754 4.641.537.538 4.723 9.211 6.033 12.5 1.077 2.706 2.914 9.922 4.074 16 .524 2.75 1.418 7.084 1.985 9.63 1.352 6.07 1.314 37.243-.049 39.789-.574 1.072-1.043 3.185-1.043 4.695 0 6.37-7.41 26.813-13.23 36.497-1.524 2.536-2.77 5.123-2.77 5.75 0 .627-.45 1.14-1 1.14s-1 .497-1 1.105c0 .609-1.35 2.81-3 4.894s-3 4.065-3 4.403c0 2.057-22.42 24.524-31 31.065-12.244 9.334-22.51 15.663-36.5 22.5-14.358 7.017-21.24 10.061-23 10.175-.55.035-2.203.686-3.673 1.446-3.882 2.008-10.857 4.268-15.388 4.987-2.167.343-4.656 1.007-5.531 1.475-.875.468-3.8 1.13-6.5 1.473-2.7.343-6.708 1.093-8.908 1.667-6.246 1.63-23.308 1.766-29 .23zm-7.209-11.17c-.355-.963-.937-1.976-1.294-2.25-.846-.654-8.929-12.332-11.497-16.614-1.1-1.833-2.788-4.25-3.75-5.371-.963-1.121-1.75-2.671-1.75-3.444 0-.773-.338-1.555-.75-1.738-.413-.184-1.853-2.809-3.201-5.834-1.349-3.025-3.036-6.21-3.75-7.079-.715-.868-1.3-2.321-1.3-3.23 0-.907-.617-3.347-1.372-5.42-2.733-7.51-3.91-14.838-3.791-23.589.118-8.61.818-12.2 3.84-19.682 2.01-4.976 11.362-16.24 14.866-17.904 1.627-.773 3.183-1.742 3.458-2.155.275-.412.74-.68 1.032-.595.719.208 7.584-2.699 18.539-7.85 7.528-3.54 10.507-5.69 17.505-12.631 10.72-10.632 14.446-17.756 15.359-29.365.382-4.856.23-8.59-.388-9.5-.863-1.272-1.02-1.218-1.032.36-.036 4.387-6.736 14.203-15.975 23.406-9.16 9.125-10.177 9.818-25.49 17.37-8.773 4.325-16.676 7.864-17.562 7.864-5.155 0-24.988 15.217-24.988 19.172 0 .942-.951 3.325-2.113 5.295-1.952 3.308-2.075 4.625-1.61 17.307.606 16.52 3.838 30.284 9.454 40.257 1.094 1.942 3.652 6.746 5.685 10.675 2.033 3.929 4.347 7.683 5.14 8.341.794.66 1.444 1.818 1.444 2.576 0 .757.45 1.377 1 1.377s1 .487 1 1.082c0 .595 1.5 2.957 3.332 5.25 1.833 2.293 4.352 5.868 5.598 7.945 2.483 4.139 8.037 7.61 12.288 7.679 2.177.035 2.59-.305 2.073-1.706zm51.922.707c4.404-1.223 5.308-2.32 3.403-4.127-10.357-9.828-13.697-13.66-19.181-22.003-3.54-5.385-6.435-10.107-6.435-10.494 0-.386-.89-2.54-1.977-4.785-1.087-2.245-2.187-5.65-2.445-7.565-.258-1.916-.973-6.634-1.588-10.484-1.74-10.878-.938-29.587 1.498-35 .743-1.65 4.713-9.975 8.822-18.5 7.534-15.63 9.556-21.346 7.91-22.364-.494-.305-1.945 1.34-3.225 3.655-4.158 7.52-13.24 17.671-21.205 23.7-8.434 6.384-15.706 14.313-17.231 18.789-2.316 6.796-2.06 20.75.525 28.754 1.147 3.55 2.497 6.707 3 7.018.504.312.916 1.446.916 2.52 0 1.076.417 2.737.928 3.692.51.955 1.944 3.986 3.186 6.736 2.353 5.213 5.846 10.76 7.136 11.334.412.183.75.874.75 1.536 0 .661 1.787 3.211 3.971 5.666 2.185 2.456 3.985 4.832 4 5.281.06 1.727 9.738 11.963 13.95 14.754 4.735 3.137 7.419 3.518 13.292 1.887zm-107.01-13.801c.672-.15.147-1.474-3.56-8.988-.904-1.832-1.643-3.975-1.643-4.763 0-.788-.418-2.214-.929-3.17-1.026-1.919-4.368-12.5-5.917-18.736-.547-2.2-1.754-6.925-2.684-10.5-1.619-6.227-2.705-12.863-4.42-27-1.254-10.341-.333-20.305 2.463-26.625 3.647-8.247 15.187-19.814 23.487-23.543 3.575-1.606 7.22-3.313 8.102-3.792 2.513-1.368 13.84-3.918 19.898-4.48 3.025-.281 8.65-1.67 12.5-3.086 3.85-1.416 7.795-2.753 8.767-2.97.972-.218 2.467-1.095 3.321-1.95.855-.854 2.422-1.554 3.483-1.554 1.06 0 1.929-.337 1.928-.75 0-.412-5.962-.847-13.25-.967a3396.18 3396.18 0 01-23.75-.479c-15.459-.385-25.233 1.611-35.902 7.335-5.184 2.78-14.497 11.675-18.851 18.003-9.264 13.465-11.837 47.41-5.56 73.358.799 3.3 1.676 7.35 1.95 9 .275 1.65.865 3.9 1.31 5 .447 1.1 1.861 5.6 3.144 10 3.296 11.31 5.173 13.811 13.352 17.806 5.921 2.892 9.242 3.634 12.761 2.85zm153.047-7.21c2.062-.572 3.75-1.447 3.75-1.943s-1.688-2.133-3.75-3.638c-5.498-4.012-14.25-12.61-14.25-13.998 0-.66-.346-1.351-.768-1.534-.88-.383-7.15-8.35-8.918-11.334-4.234-7.143-8.314-15.892-8.314-17.826 0-1.25-.408-2.701-.906-3.224-1.673-1.756-5.005-15.383-7.077-28.95-1.155-7.561-1.525-25.324-.59-28.272.39-1.225 1.32-2.228 2.067-2.228 2.067 0 5.506 4.934 5.506 7.9 0 2.968 3.423 12.924 4.979 14.48.561.56 1.02 2.468 1.02 4.237 0 1.77.338 3.367.75 3.55.413.183 2.28 3.357 4.148 7.053 1.869 3.696 4.231 7.614 5.25 8.708 1.019 1.094 1.853 2.42 1.853 2.947 0 .527.34 1.109.758 1.292.417.183 2.957 3.574 5.643 7.535 4.755 7.009 25.735 29.298 27.578 29.298.506 0 2.855 1.294 5.22 2.875 2.366 1.58 5.331 3.191 6.59 3.58 2.843.876 9.254-2.298 13.776-6.82 3.754-3.754 3.051-5.901-2.318-7.08-1.774-.39-3.481-1.124-3.795-1.632-.314-.507-1.412-.923-2.44-.923s-2.486-.616-3.24-1.37c-.754-.754-2.923-2.172-4.821-3.15-7.335-3.784-19.445-14.357-28.622-24.99-5.091-5.897-13.33-20.033-13.33-22.871 0-.799-.337-1.602-.75-1.785-1.673-.744-6.445-15.085-8.326-25.024-1.032-5.449-1.026-6.98.027-8.25 2.574-3.101 8.05-1.305 8.05 2.64 0 .99.45 1.8 1 1.8s1 .606 1 1.345c0 .74.9 2.16 2 3.155 1.1.996 2 2.328 2 2.96 0 3.464 22.916 26.232 32.248 32.04.883.55 5.027 3.363 9.209 6.25 4.181 2.888 8.164 5.25 8.85 5.25.686 0 2.182.654 3.323 1.454 1.142.8 3.154 1.662 4.473 1.916 2.361.455 7.372 2.375 13.548 5.193 4.309 1.965 7.315 1.84 7.494-.313.62-7.463-1.598-11.75-11.84-22.887-3.976-4.323-16.614-14.363-18.08-14.363-.467 0-1.721-.813-2.788-1.807-3.104-2.892-17.07-12.193-18.308-12.193-.621 0-1.13-.366-1.13-.814 0-.84-2.46-2.273-17-9.9-11.151-5.849-11.795-6.49-9.155-9.13 1.287-1.287 2.922-1.896 4.357-1.624 1.264.239 3.424.65 4.799.912 1.375.263 4.3.735 6.5 1.049 2.2.314 5.575.992 7.5 1.507 1.925.515 5.262 1.216 7.417 1.557 2.154.34 4.99 1.028 6.3 1.526 1.312.499 3.825 1.153 5.584 1.455 5.47.937 12.524 3.432 20.03 7.085 1.557.757 3.42 1.377 4.14 1.377.72 0 4.496 1.575 8.391 3.5 3.895 1.925 7.329 3.5 7.63 3.5.3 0 2.33 1.125 4.508 2.5 6.551 4.136 9.255 2.637 5-2.773-1.1-1.398-2-2.878-2-3.29 0-.654-5.027-5.565-9.392-9.173-.822-.68-3.433-2.231-5.802-3.446-2.368-1.215-4.531-2.485-4.806-2.823-.275-.337-4.1-1.652-8.5-2.922-4.4-1.27-8.428-2.706-8.95-3.19-.523-.486-2.008-.883-3.3-.883-1.292 0-3.593-.643-5.113-1.429-1.52-.786-6.094-1.719-10.165-2.073-4.07-.354-7.642-.785-7.937-.957-.294-.171-4.132-.63-8.527-1.02-9.045-.802-11.508-1.763-11.508-4.488 0-3.946 8.612-7.635 25.667-10.994 8.142-1.604 24.653-1.947 31.603-.657a561.9 561.9 0 0011.963 2.049c1.504.237 3.23.737 3.835 1.112 2.06 1.272 13.01 3.139 13.526 2.305.7-1.133-2.638-5.507-5.094-6.677-13.899-6.62-45.697-7.417-63.832-1.6-9.349 2.998-11.988 2.645-10.573-1.416.528-1.514 1.899-3.406 3.046-4.204 1.146-.798 4.846-3.477 8.222-5.953 8.876-6.512 16.448-10.31 25.137-12.606 2.235-.591 13.677-1.244 23.372-1.333 5.784-.053 6.247-.21 5.014-1.695-3.333-4.017-14.72-6.95-26.386-6.799-10.005.13-12.497 1.19-22.5 9.565a685.341 685.341 0 01-7 5.732c-2.475 2.001-4.725 3.915-5 4.254-1.41 1.735-10 5.24-13.5 5.507-14.464 1.106-18.002.108-26.654-7.52-2.56-2.257-5.147-4.103-5.75-4.103-.603 0-1.096-.395-1.096-.878 0-1.21-4.652-2.9-9.704-3.528-4.884-.606-9.87.852-10.749 3.143-.758 1.977 1.19 4.28 2.244 2.655 1.307-2.014 4.668-3.17 6.835-2.352 1.17.443 3.116 2.194 4.326 3.893 2.184 3.068 2.186 3.106.27 5.736-1.06 1.456-3.682 3.628-5.825 4.828-3.965 2.219-5.788 5.503-3.054 5.503.82 0 1.727-.562 2.016-1.25 1.038-2.467 6.415 5.17 7.113 10.101 1.347 9.519 1.668 23.808.643 28.65-2.464 11.644-4.122 20.224-4.54 23.5-.245 1.924-.75 5.75-1.123 8.5-1.833 13.546.535 27.386 7.274 42.5 8.584 19.25 17.858 34.088 27.343 43.75 6.562 6.682 8.027 7.183 15.18 5.197zm-221.183-88.447c1.702-5.5 4.357-12.7 5.9-16 1.543-3.3 3.84-8.587 5.103-11.75 1.264-3.162 2.665-5.75 3.114-5.75.448 0 .816-.602.816-1.34 0-2.922 15.568-14.907 26-20.014 13.622-6.67 21.095-8.399 35.148-8.129 6.793.13 13.513.702 14.933 1.271 1.42.57 4.983 1.34 7.919 1.712 2.935.373 6.498 1.133 7.918 1.689 2.741 1.074 27.793 1.433 28.813.413.331-.33-2.286-.627-5.815-.659-10.164-.09-16.113-.74-17.257-1.884-.583-.582-1.854-1.059-2.824-1.059-.971 0-3.694-.62-6.05-1.378-11.241-3.617-14.898-4.65-18.447-5.213-2.111-.335-4.562-.995-5.446-1.468-.884-.472-3.94-1.087-6.792-1.366-2.851-.28-5.615-.775-6.142-1.1-2.005-1.24-25.87-1.593-28.069-.416-1.19.638-3.522 1.373-5.18 1.634-1.659.262-4.64 1.501-6.627 2.755-1.986 1.254-5.89 3.435-8.678 4.847-2.787 1.413-6.725 4.226-8.752 6.253-4.185 4.185-9.923 13.956-12.512 21.308-.962 2.732-2.22 5.57-2.796 6.306-.577.736-1.773 3.588-2.66 6.338-.886 2.75-2.332 7.25-3.213 10-.881 2.75-1.853 7.25-2.159 10-.306 2.75-.951 5.758-1.434 6.684-.483.927-.878 3.26-.878 5.185 0 1.926-.408 4.573-.906 5.883-.498 1.31-1.203 6.178-1.565 10.816-.75 9.585-.856 9.361 9.47 19.847l5.5 5.585.237-20.5c.229-19.761.349-20.86 3.331-30.5zM104.608 592.1c.039-2.311.462-5.236.941-6.5.479-1.263 1.678-4.997 2.664-8.297 5.641-18.876 13.695-32.259 28.494-47.345 13.675-13.94 20.7-17.847 38.972-21.672 3.575-.749 8.975-1.173 12-.943 10.99.835 15.052 1.418 16.942 2.43 1.06.566 2.752 1.03 3.76 1.03 1.838 0 20.356 8.69 21.298 9.993.275.381 2.975 2.42 6 4.533 3.024 2.112 6.85 5.106 8.5 6.652 1.65 1.547 3.53 2.815 4.178 2.818.648.002 1.802.627 2.563 1.388 1.647 1.647 9.759 5.895 9.759 5.11 0-.3 1.237.07 2.75.821 3.5 1.74 16.585 4.022 18.952 3.307.989-.299 3.09-.766 4.67-1.039 2.944-.507 4.283-1.262 3.544-1.998-.475-.474-5.502-1.195-14.916-2.142-3.575-.36-7.716-1.281-9.2-2.048-1.486-.767-3.305-1.395-4.043-1.395-1.385 0-18.869-9.699-19.757-10.96-.275-.391-1.235-1.122-2.132-1.625-2.925-1.64-10.087-7.778-17.003-14.573-3.727-3.662-8.597-7.461-10.821-8.442-2.225-.982-4.044-2.148-4.044-2.592 0-.444-.788-.827-1.75-.851-.963-.024-3.55-1.146-5.75-2.493-4.912-3.008-4.762-2.945-11.5-4.873-8.688-2.486-22.654-2.602-30.5-.254-.55.165-2.575.662-4.5 1.105-8.505 1.955-22.592 11.615-31.927 21.892a380.71 380.71 0 01-5.605 6c-3.402 3.553-8.464 10.882-10.13 14.666a737.55 737.55 0 01-3.393 7.5c-1.26 2.75-2.623 5.9-3.029 7-.405 1.1-1.677 4.055-2.826 6.566-1.15 2.511-2.09 5.522-2.09 6.69 0 1.17-.45 2.404-1 2.744-1.51.933-1.173 16.435.457 21 1.683 4.714 4.846 10.956 6.661 13.143 1.15 1.387 1.364 1.355 2.014-.296.4-1.016.759-3.738.797-6.05zm179.873-30.765c.292-.293-.67-.532-2.136-.532-1.466 0-2.666.424-2.666.943 0 .934 3.78.61 4.802-.411zm5.385-3.215c-.722-.289-1.584-.253-1.917.08-.332.331.259.568 1.313.524 1.165-.048 1.402-.285.604-.604zm3.813-2.876c0-.242-.45-.44-1-.44s-1 .476-1 1.058c0 .583.45.781 1 .441s1-.816 1-1.059zm12.25-16.215c1.333-1.642.654-2.258-3.156-2.858-3.568-.562-3.954.544-1.094 3.132 1.1.996 2.052 2.528 2.116 3.405.077 1.067.278.933.607-.405.27-1.1.958-2.573 1.527-3.274zm-11.25-4.392c0-.459-.638-.834-1.418-.834-2.647 0-19.73-9.653-23.955-13.536-.62-.57-2.87-2.353-5-3.962-2.13-1.61-7.41-7.294-11.733-12.632-12.166-15.024-31.398-35.836-33.136-35.86-.407-.005-2.664-1.477-5.014-3.271-8.802-6.719-26.917-14.043-40.428-16.346-13.566-2.313-31.577-1.37-41.816 2.188-2.2.765-4.803 1.397-5.784 1.405-2.222.018-11.154 4.441-15.4 7.626-1.75 1.314-3.663 2.388-4.25 2.388-.586 0-1.066.42-1.066.933 0 .513-.93 1.228-2.067 1.588-2.365.751-21.933 19.22-21.933 20.7 0 .538-1.293 2.184-2.873 3.66-3.835 3.583-4.45 7.122-3.6 20.731.658 10.519.854 11.353 2.345 9.995.895-.815 2.52-3.197 3.609-5.294 1.09-2.097 3.34-5.613 5-7.813 3.573-4.734 14.983-16.5 16.001-16.5.391 0 2.721-1.77 5.178-3.932 4.072-3.584 7.201-5.54 15.84-9.898 1.65-.832 3.225-1.812 3.5-2.178.275-.365 1.85-1.155 3.5-1.755 1.65-.6 5.441-2.014 8.425-3.142 2.984-1.128 7.25-2.323 9.479-2.655 2.23-.333 4.428-.836 4.886-1.12 1.592-.983 7.247-1.697 13.21-1.667 7.48.037 24.381 4.1 30.238 7.269.969.524 3.9 1.96 6.512 3.193 2.612 1.232 4.75 2.61 4.75 3.063 0 .452.707.822 1.571.822s2.16.588 2.878 1.307c.718.718 3.68 3.306 6.581 5.75 5.265 4.434 7.767 6.918 27.393 27.193 5.723 5.913 10.699 10.75 11.058 10.75.358 0 2.085 1.081 3.835 2.402 2.982 2.25 6.208 3.868 14.684 7.366 5.812 2.4 19 3.833 19 2.066zm4-12.86v-3.025l-3.189 1.649-3.188 1.648 2.938 1.296c1.616.713 3.051 1.332 3.189 1.377.137.045.25-1.28.25-2.944zm-8-2.367c0-.216-.675-.652-1.5-.968-.825-.317-1.5-.14-1.5.393 0 .532.675.968 1.5.968s1.5-.177 1.5-.393zm-4-3.212c0-.882-1.35-3.605-3-6.05s-3-4.672-3-4.95c0-.276-1.314-1.908-2.918-3.625-1.605-1.718-4.394-6.08-6.197-9.696-1.803-3.616-3.64-6.724-4.082-6.907-.442-.183-.803-1.106-.803-2.05 0-.944-.411-2.144-.914-2.667-1.33-1.384-6.658-10.95-10.274-18.45-4.803-9.96-15.122-24.888-21.54-31.16-3.175-3.102-8.922-7.696-12.772-10.208-3.85-2.513-7.478-4.971-8.063-5.464-1.12-.944-8.583-4.638-9.437-4.672-.275-.01-1.85-.535-3.5-1.165-4.942-1.887-12.815-4.183-16.521-4.817-1.914-.327-4.967-.997-6.785-1.489-1.818-.492-11.824-.893-22.235-.891-10.412.001-19.387-.28-19.945-.625-1.617-.999-1.113-5.811.855-8.167 2.971-3.557 11.598-8.342 15.04-8.342 1.755 0 4.518-.686 6.14-1.525 1.623-.84 2.95-1.345 2.95-1.124 0 .22 2.813-.189 6.25-.91 6.053-1.271 20.123-1.317 26.25-.086 1.65.332 4.576.78 6.5.994 1.926.216 5.3.88 7.5 1.477 3.389.92 12.342 3.006 20 4.662 7.561 1.635 22.04 8.719 25.344 12.401 1.29 1.436 3.858 4.923 5.709 7.748 1.85 2.826 3.946 5.75 4.656 6.5 1.246 1.315 2.171 3.383 4.862 10.863.692 1.925 1.85 4.898 2.573 6.607.723 1.709 2.056 6.434 2.962 10.5.906 4.066 1.892 8.068 2.19 8.893.299.825 1.385 5.775 2.414 11 2.92 14.827 2.966 15 3.904 15 .488 0 .887.615.887 1.367 0 1.897 4.248 12.059 5.212 12.467.433.183.788.96.788 1.727 0 2.079 5.825 12.588 8.496 15.33 1.408 1.445 2.957 2.15 3.917 1.781 2.337-.897 1.93-3.558-.73-4.77-2.797-1.274-7.915-8.898-9.67-14.402-.7-2.2-1.609-4.45-2.018-5-.41-.55-.994-2.35-1.3-4-2.539-13.708-3.81-19.67-4.68-21.959-.558-1.469-1.015-4.352-1.015-6.406 0-2.054-.4-4.162-.888-4.685-.489-.522-1.16-3.575-1.493-6.783-.332-3.208-1.228-7.033-1.99-8.5-.762-1.467-1.832-3.792-2.378-5.167-2.376-5.984-6.972-14.823-9.988-19.207-1.795-2.61-3.265-5.093-3.268-5.519-.003-.425-1.25-2.124-2.77-3.774-1.521-1.65-4.557-5.217-6.745-7.928-6.636-8.215-15.716-17.572-17.053-17.572-.693 0-1.41-.384-1.594-.853-.378-.968-21.457-17.147-22.34-17.147-.983 0-6.861-4.368-9.743-7.24-3.381-3.37-3.457-5.059-.338-7.512 4.059-3.193 11.673-1.794 23.838 4.38 3.712 1.884 6.75 3.163 6.75 2.842 0-.32 1.237.115 2.75.967 1.512.852 3.875 1.99 5.25 2.528 7.867 3.08 19.96 11.624 30.016 21.209 3.149 3 10.984 14.192 10.984 15.688 0 .534.337 1.122.75 1.305.696.31 3.616 5.977 6.096 11.833 2.016 4.759 5.154 16.728 5.154 19.658 0 1.618.446 3.389.992 3.934.56.561 1.266 11.182 1.623 24.45.348 12.902.752 23.597.9 23.766.61.702 2.742-11.848 3.18-18.722.261-4.078 1.11-8.385 1.886-9.57.777-1.185 1.659-4.824 1.96-8.085.302-3.262 1.025-7.8 1.607-10.084.582-2.285.82-6.56.532-9.5-.29-2.94-.783-8.272-1.096-11.847-.313-3.575-.779-8.781-1.036-11.57-.49-5.32-6.925-26.206-8.584-27.865-.53-.53-1-1.887-1.045-3.015-.044-1.127-1.127-3.85-2.405-6.05-1.28-2.2-3.517-6.303-4.973-9.118-1.456-2.815-3.454-5.984-4.44-7.043-1.743-1.87-3.045-4.075-6.697-11.339-.968-1.925-2.58-4.694-3.582-6.154-1.002-1.46-1.822-3.335-1.822-4.167 0-.832-.521-1.686-1.158-1.898-2.04-.68-1.167-7.027 1.214-8.823 1.918-1.447 2.648-1.481 6.12-.285 4.769 1.643 15.692 7.088 17.41 8.68.683.63 2.675 2.246 4.427 3.59 6.927 5.308 13.273 12.946 15.98 19.232.551 1.279 1.405 3 1.897 3.825.493.825 2.292 4.316 4 7.758 1.706 3.442 3.515 7.042 4.02 8 .504.958 1.896 5.241 3.092 9.517 1.938 6.93 2.125 9.538 1.722 24-.333 11.966-1.022 18.588-2.623 25.225-1.194 4.95-2.424 10.35-2.733 12-.309 1.65-1.418 4.83-2.465 7.066-1.047 2.236-1.903 4.83-1.903 5.764 0 .933-.401 2.479-.89 3.434-1.523 2.97-5.14 15.623-5.125 17.927.008 1.205-.388 2.44-.88 2.744-1.252.774-2.189 7.338-2.752 19.294l-.481 10.228 2.814-1.235c4.087-1.794 11.41-6.762 14.414-9.78 3.607-3.622 9.905-17.087 9.875-21.114-.013-1.83-.507-5.353-1.097-7.828-1.37-5.752-1.333-18.945.057-20.335.586-.586 1.065-1.898 1.065-2.917 0-1.974 3.993-10.023 5.25-10.581.412-.183.75-.882.75-1.553 0-2.84 11.795-16.93 16-19.114 3.202-1.663 7.882-6.146 11.586-11.102 1.603-2.144 3.898-4.988 5.1-6.32 1.906-2.11 5.595-12.203 7.887-21.578.403-1.65.912-9.088 1.13-16.528.367-12.53.171-14.41-2.653-25.44-1.678-6.55-3.05-12.95-3.05-14.221 0-1.27-.393-2.31-.873-2.31s-1.159-1.795-1.51-3.987c-.35-2.192-1.264-5.455-2.03-7.25-.768-1.795-1.962-5.289-2.655-7.764-1.36-4.855-4.536-13.423-6.023-16.244-.506-.96-1.858-4.785-3.006-8.5-2.787-9.024-6.121-15.427-8.476-16.274-1.06-.381-4.852-.068-8.427.695-3.575.764-8.725 1.626-11.443 1.916-2.719.29-5.419.825-6 1.19-1.163.727-1.127.72-7.557 1.51-2.475.304-5.692 1.008-7.148 1.566-1.457.558-4.597 1.305-6.98 1.66-2.381.355-4.717.885-5.19 1.178-.473.292-2.958 1.118-5.521 1.834-2.564.717-7.136 2.266-10.161 3.444-3.025 1.177-6.4 2.33-7.5 2.562-2.066.435-2.734.703-10.777 4.317-2.627 1.18-5.203 2.146-5.725 2.146-.52 0-5.121 1.992-10.223 4.426-5.101 2.435-11.975 5.625-15.275 7.09-3.3 1.465-7.702 3.523-9.781 4.574-2.08 1.05-4.442 1.91-5.25 1.91-.808 0-1.47.401-1.47.892 0 .49-1.232 1.2-2.74 1.58-1.506.377-2.969.989-3.25 1.358-.28.368-2.984 1.98-6.01 3.58-3.024 1.6-8.77 5.087-12.769 7.75-3.998 2.662-7.673 4.84-8.166 4.84-.494 0-1.048.385-1.231.856-.183.47-2.888 2.617-6.01 4.771-3.121 2.155-7.19 5.257-9.043 6.895-1.853 1.638-4.867 4.045-6.698 5.35-8.485 6.042-42.082 39.379-42.082 41.755 0 .755-.45 1.373-1 1.373s-1 .58-1 1.288c0 .708-1.332 2.846-2.96 4.75-1.627 1.904-2.977 4.044-3 4.754-.022.71-.918 2.234-1.99 3.385-1.073 1.151-2.668 3.495-3.545 5.208-.877 1.714-2.47 4.465-3.539 6.115-1.07 1.65-2.207 3.675-2.528 4.5-.593 1.521-1.267 2.894-3.195 6.5-2.924 5.468-7.243 15.177-7.243 16.28 0 .686-.396 2.029-.88 2.984-1.49 2.943-4.463 12.5-5.36 17.236-1.798 9.475-2.595 16.526-1.94 17.16.373.363 4.266-2.674 8.649-6.75 4.383-4.075 8.546-7.41 9.25-7.41.704 0 1.283-.337 1.287-.75.018-2.147 27.26-16.153 40.494-20.818 6.876-2.424 39.934-3.077 46.08-.91 2.245.792 5.014 1.582 6.153 1.755 1.14.174 2.678.8 3.42 1.39.74.59 5.622 3.256 10.847 5.924 18.645 9.52 31.046 21.59 38.947 37.91 1.864 3.85 4.064 8.35 4.888 10 2.607 5.215 11.804 18.921 14.028 20.904 1.175 1.048 2.137 2.3 2.137 2.78 0 1.601 16.145 14.815 18.1 14.815.495 0 .9-.722.9-1.605zm-201 173.552c-7.62-1.256-11.575-2.838-18.257-7.304-9.27-6.193-20.743-19.84-20.743-24.671 0-1.02-.404-2.103-.896-2.407-.493-.305-1.433-4.336-2.09-8.959-2.676-18.854 4.364-36.976 19.078-49.106 4.219-3.478 13.093-7.785 16.818-8.164 3.47-.352 3.669-.188 5.97 4.9 1.309 2.895 2.812 6.39 3.34 7.764.53 1.375 1.82 4.164 2.87 6.198 1.05 2.034 1.91 4.397 1.91 5.25 0 .854.45 1.552 1 1.552s1 .475 1 1.056c0 .852 8.111 15.147 12.495 22.02 4.1 6.427 7.844 11.651 10.252 14.307 1.555 1.714 4.225 5.142 5.934 7.617 1.708 2.475 4.32 5.625 5.804 7 4.751 4.402 4.919 5.592 1.285 9.113-3.928 3.805-12.308 9.316-15.77 10.37-1.375.42-2.95 1.114-3.5 1.544-2.491 1.949-19.05 3.149-26.5 1.92zm-64.25-41.027c-4.172-2.43-4.75-5.811-4.75-27.765 0-18.122.273-21.868 2.028-27.8 1.116-3.77 2.466-7.636 3-8.591.534-.955.972-2.224.972-2.82 0-1.683 6.044-10.135 9.443-13.204 1.681-1.519 4.182-3.022 5.557-3.34 1.375-.319 4.075-1.061 6-1.65 1.925-.588 3.725-1.062 4-1.051.275.01 1.85-.393 3.5-.895 4.709-1.434 6.649-1.82 11.915-2.374 2.704-.284 5.296-.751 5.76-1.038 2.671-1.651 6.825 3.016 6.825 7.669 0 1.081.416 2.748.925 3.703.51.955 1.57 3.761 2.357 6.236.787 2.475 1.73 5.188 2.096 6.029 1.266 2.909-1.605 4.794-8.378 5.502-3.575.374-7.738 1.32-9.25 2.1-1.513.781-2.75 1.176-2.75.878 0-1.185-9.737 4.484-13.117 7.636-4.486 4.185-6.8 7.765-9.223 14.27-1.826 4.9-2.469 7.674-4.537 19.585-1.368 7.876-3.739 13.86-6.356 16.042-2.593 2.163-3.567 2.305-6.017.878zM58.414 530.23c-.13-.115-2.035-.45-4.235-.742-2.2-.293-4.9-.735-6-.98-1.769-.397-10.905-1.933-12.667-2.131-.367-.041-1.004-.412-1.417-.825-.412-.412-1.638-.75-2.724-.75-3.112 0-10.37-4.03-11.686-6.488-.937-1.75-.923-2.673.065-4.254 2.201-3.525 14.42-7.642 27.794-9.364 19.816-2.551 18.101-3.138 18.675 6.396.205 3.415.653 9.023.996 12.46.343 3.438.25 6.298-.207 6.357-2.123.275-8.384.508-8.594.321zm-3.18-43.566c-5.606-3.803-14.555-12.033-14.555-13.384 0-.34-1.35-2.58-3-4.978-1.65-2.398-3-5.04-3-5.87 0-.832-.384-1.749-.854-2.039-.469-.29-1.441-3.969-2.16-8.175-2.653-15.507 2.205-30.514 13.576-41.941 5.993-6.023 16.843-13.475 19.618-13.475.781 0 1.847-.395 2.37-.878 1.735-1.605 14.91-5.126 17.376-4.643 4.205.822 4.453 2.034 1.573 7.682l-3.611 7.076c-.489.955-.888 2.587-.888 3.627 0 1.04-.628 2.412-1.396 3.05-.767.636-1.708 2.829-2.09 4.872-.381 2.043-1.074 4.175-1.54 4.74-.465.563-1.008 2.138-1.205 3.5-.198 1.36-.938 3.524-1.645 4.808-.706 1.284-1.514 4.434-1.795 7-.28 2.566-.866 5.116-1.301 5.666-.435.55-1.042 3.7-1.347 7-.305 3.3-1.04 8.244-1.632 10.986-.929 4.298-1.716 14.765-1.976 26.264-.102 4.496-2.938 4.256-10.519-.888zm7.945-100.994c-3.3-.348-7.35-.871-9-1.162-1.65-.29-5.7-.839-9-1.218-3.3-.38-6.675-1.05-7.5-1.49-.825-.44-2.878-1.016-4.56-1.282-3.816-.6-11.552-4.486-13.073-6.566-1.795-2.455.442-6.02 5.07-8.078 3.588-1.595 5.44-2.199 11.563-3.77.825-.21 3.3-.587 5.5-.835s6.026-.922 8.502-1.5c6.156-1.433 23.841-2.188 47.748-2.037 13.052.082 13.742.757 7.742 7.581-1.929 2.194-3.777 5.002-4.108 6.24-.33 1.237-.92 2.25-1.309 2.25-.389 0-1.766 1.883-3.06 4.186-5.015 8.922-5.1 8.964-17.495 8.62-6.061-.169-13.72-.591-17.02-.94zm20.5-34.061c-4.882-3.313-5.02-6.042-.46-9.14 3.337-2.268 4.513-2.47 13.336-2.304 8.364.158 10.122.5 12.956 2.518 3.935 2.802 3.9 5.501-.11 8.485-2.25 1.674-4.621 2.137-12.5 2.441-8.92.344-10.011.18-13.222-2zm-3-15.968c-3.575-.407-7.4-.981-8.5-1.276a530.11 530.11 0 00-6.75-1.719c-2.613-.65-4.75-1.506-4.75-1.904 0-.398-1.172-1.017-2.604-1.376-3.335-.837-12.25-7.412-15.848-11.688-1.53-1.818-3.922-5.796-5.316-8.84-3.5-7.642-4.028-9.096-4.559-12.536-.254-1.65-1.22-6.6-2.148-11-2.154-10.221-1.458-41.464 1.123-50.399 1.74-6.024 6.27-11.453 8.76-10.497 1.96.752 2.378 3.713 2.49 17.65.051 6.466.587 13.666 1.19 16 .603 2.336 1.315 5.821 1.583 7.746.792 5.695 6.134 15.713 12.329 23.119a720.691 720.691 0 014 4.809c1.48 1.847 8.843 6.909 11 7.561 1.375.416 3.001 1.156 3.615 1.644 3.582 2.853 34.698 2.872 40.031.024 1.02-.545 3.316-1.532 5.104-2.195 1.787-.662 3.25-1.6 3.25-2.083 0-.483.6-.879 1.334-.879 1.481 0 10.666-9.305 10.666-10.805 0-.522.673-1.509 1.496-2.192 2.014-1.67 8.504-15.11 8.504-17.61 0-1.096.461-2.455 1.026-3.019.57-.57 1.263-8.318 1.56-17.45.636-19.533.81-20.597 3.501-21.452 2.394-.76 6.913 2.837 6.913 5.503 0 .894.562 2.188 1.25 2.875.94.942 1.25 8.264 1.25 29.65 0 21.387-.31 28.709-1.25 29.65-.688.688-1.25 2.63-1.25 4.315 0 1.686-.9 4.744-2 6.796-1.1 2.053-2 4.215-2 4.805 0 1.722-6.022 10.15-9.76 13.658-6.188 5.808-21.479 12.042-31.74 12.94-9.412.822-26.997.914-33.5.175zm8.98-37.825c-.815-.453-2.861-1.039-4.549-1.302-4.964-.776-14.654-6.342-19.874-11.416-5.955-5.788-10.685-13.12-12.89-19.984-1.83-5.691-2.282-19.814-.667-20.812.55-.34 1-1.467 1-2.506 0-1.038 1.034-3.824 2.299-6.19 3.518-6.584 8.033-14.246 8.723-14.804.34-.275 3.04-3.65 6-7.5 2.958-3.85 6.637-8.35 8.174-10 1.537-1.65 2.796-3.562 2.799-4.25.003-.687.348-1.25.767-1.25.79 0 1.772-1.577 4.095-6.577.747-1.608 1.76-3.704 2.25-4.66.491-.954.893-3.488.893-5.63 0-3.722-.198-3.96-4.433-5.355-4.188-1.379-4.559-1.344-6.75.642-9.891 8.965-14.097 10.297-15.454 4.892-.536-2.134.117-3.27 3.96-6.902 4.583-4.329 4.603-4.375 4.552-10.953-.036-4.687.41-7.115 1.537-8.36.873-.965 1.588-2.223 1.588-2.796 0-2.101 7.932-8.659 13.141-10.863l5.359-2.267.103-17.983c.057-9.89.37-18.674.694-19.52.324-.845 1.5-2.024 2.612-2.62 1.709-.914 2.299-.66 3.806 1.64 1.472 2.246 1.872 5.657 2.285 19.47.298 9.994.936 17.18 1.58 17.825 1.641 1.638 10.996-1.14 20.52-6.096 6.241-3.247 8.511-3.991 9.766-3.201 3.308 2.083 2.467 4.516-3.535 10.224-3.232 3.075-8.341 8.515-11.354 12.09-3.013 3.575-5.702 6.725-5.977 7-.816.816-2.835 4.234-4.986 8.438-2.166 4.234-2.553 9.08-1.117 13.991 6.571 22.475 8.976 27.896 17.12 38.595 3.29 4.322 5.983 8.335 5.983 8.917 0 .583.353 1.06.784 1.06.934 0 4.068 7.87 5.376 13.5 1.818 7.826 2.058 12.929.864 18.427-1.278 5.885-5.009 15.343-6.274 15.906-.413.183-.75.788-.75 1.344s-2.563 3.68-5.695 6.94c-5.86 6.1-11.718 9.97-18.138 11.984-4.634 1.454-14.24 1.995-16.188.912zm108.27-18.393c-3.804-5.052-4.18-9.08-1.097-11.753 2.487-2.158 2.685-2.176 9.913-.933 2.988.514 7.855 1.199 10.814 1.522 6.62.722 7.392 1.165 6.132 3.52-.865 1.615-19.877 12.075-21.798 11.992-.393-.017-2.177-1.973-3.964-4.348zm48.419-22.262c-.093-.077-5.12-.386-11.17-.686-6.05-.3-12.462-.993-14.25-1.54-1.787-.546-3.25-.774-3.25-.506 0 1.15-6.79-3.471-10.81-7.358-3.247-3.14-4.507-5.22-4.89-8.07-.812-6.057 1.01-7.175 10.817-6.635 4.45.245 8.492.694 8.983.998.491.303 1.865.739 3.054.968 2.155.415 7.771 3.963 11.46 7.241 2.7 2.399 7.338 4.826 10.801 5.654 5.598 1.337 11.843 1.607 13.097.566.838-.695 1.313-4.28 1.408-10.613.078-5.26.218-9.86.31-10.221.092-.361-.178-1.67-.599-2.907-.725-2.13-1.306-2.253-10.948-2.308-23.134-.13-29.348-1.682-36.718-9.17-5.182-5.265-6.191-8.611-3.891-12.909.964-1.8 1.705-1.935 7.25-1.322 3.397.375 7.852.777 9.899.891 3.107.174 6.028 1.702 8.778 4.594 6.124 6.441 19.593 11.82 24.75 9.884 2.16-.812 2.25-1.319 2.25-12.819 0-6.585-.364-12.197-.808-12.472-.95-.587-8.04-1.33-21.192-2.218-13.952-.943-20.648-4.836-24.605-14.305-1.248-2.987-1.234-3.693.114-5.75 1.37-2.092 2.608-2.622 5.99-2.566.55.009 3.796.57 7.212 1.247 4.515.894 6.974 2.015 9 4.1 5.533 5.695 11.867 9.025 18.272 9.605l6.017.546v-13.139c0-7.226-.338-13.182-.75-13.236-.413-.053-4.575-.26-9.25-.461-12.637-.543-19.73-2.266-23.71-5.76-4.116-3.614-6.29-7.593-6.29-11.51 0-4.299 2.063-5.503 8.24-4.81 2.893.324 5.773.6 6.4.614.629.013 3.346 2.217 6.04 4.896 5.643 5.614 11.91 9.128 16.28 9.128h3.04v-28l-7.75-.099c-4.263-.055-8.875-.207-10.25-.338-2.672-.255-8.696-3.093-10.49-4.942-2.007-2.07-4.51-8.396-4.51-11.4 0-4.668 1.947-5.61 7.925-3.835 2.791.828 5.08 1.193 5.085.81.006-.383 2.656 2.153 5.89 5.634 4.935 5.316 6.537 6.42 9.988 6.882 3.978.534 4.114.458 4.198-2.33l.401-13.134c.173-5.639.017-10.436-.346-10.66-.364-.225-3.357-.665-6.651-.978-11.216-1.066-13.692-2.346-17.438-9.016-2.26-4.026-2.762-11.19-.828-11.835.673-.225 3-.083 5.173.314 3.823.699 6.048 2.558 11.065 9.245 1.08 1.439 3.258 3.152 4.842 3.808 4.016 1.664 4.645.26 4.763-10.626.053-4.95.278-10.125.5-11.5.632-3.927-.807-5.059-7.157-5.624-7.348-.655-10.608-3.415-12.994-11.003-1.36-4.324-1.442-5.637-.427-6.86 2.956-3.562 9.568-.355 12.647 6.134 1.673 3.524 4.744 5.516 7.114 4.615.887-.338 1.25-3.445 1.25-10.72 0-10.144-1.136-15.809-3.683-18.363-3.36-3.37-.237-9.728 5.288-10.764 4.19-.786 7.692.584 9.829 3.844 1.274 1.946 1.332 2.9.333 5.546-.663 1.757-1.537 3.195-1.941 3.195-1.05 0-1.695 4.987-2.16 16.693-.475 11.907.524 13.326 5.298 7.534 1.67-2.025 3.036-4.062 3.036-4.526 0-2.833 7.249-5.569 9.595-3.621 2.06 1.709 1.716 6.331-.845 11.362-2.547 5.003-5.315 6.707-11.62 7.153-2.402.17-4.652.594-5 .942-1.08 1.084-.442 25.552.698 26.691 1.8 1.8 7.014-1.138 10.176-5.734 3.898-5.665 10-8.58 14.414-6.887 1.79.688 2.26 7.856.582 8.893-.55.34-1 1.262-1 2.048 0 2.005-2.979 5.335-6.364 7.115-1.575.829-6.075 1.746-10 2.039-3.925.293-7.586.952-8.136 1.465-1.44 1.341-1.557 24.14-.13 25.068 1.842 1.198 6.529.869 9.5-.668 1.525-.788 4.691-3.578 7.037-6.199 3.068-3.427 5.097-4.823 7.227-4.97 1.63-.113 4.002-.466 5.274-.785 1.567-.394 2.882.051 4.087 1.382 1.58 1.745 1.636 2.463.515 6.467-1.351 4.827-5.653 10.072-9.443 11.513-1.282.487-6.695 1.008-12.03 1.158-12.963.364-12.975.376-13.266 14.29-.143 6.817.185 11.422.872 12.25 1.63 1.963 8.38 1.61 12.852-.67 2.153-1.099 5.848-3.84 8.21-6.093 5.533-5.275 6.356-5.678 12.316-6.027 9.59-.56 11.639 2.144 7.501 9.907-2.916 5.471-4.096 6.697-8.715 9.053-3.51 1.792-6.35 2.196-17.616 2.507-7.386.203-13.95.692-14.585 1.084-.78.483-1.117 4.574-1.037 12.603.13 13.118.027 12.927 7.049 13.095 7.395.176 13.277-2.229 19.882-8.129 4.214-3.765 6.32-4.784 11-5.32 2.475-.285 5.698-.818 7.163-1.187 1.977-.496 3.201-.131 4.75 1.418 3.387 3.387 2.558 7.21-2.913 13.428-5.14 5.842-10.46 7.168-33 8.228-15.28.719-14-.505-14 13.39 0 8.185.375 12.154 1.198 12.663 1.487.919 15.585.632 17.154-.349.631-.395 1.75-.809 2.485-.92 1.454-.22 7.678-4.351 10.746-7.133 4.73-4.287 7.401-5.217 16.739-5.828l9.404-.615.984 2.861c1.973 5.738-2.55 12.665-11.21 17.173-4.8 2.498-5.797 2.618-24.925 2.998-14.777.294-20.267.739-21.25 1.722-.939.939-1.325 4.51-1.325 12.236 0 10.348.116 10.964 2.25 11.926 1.237.558 3.037.895 4 .749 2.41-.366 2.21 1.276-.25 2.057-1.1.35-2 1.024-2 1.5 0 .778-2.745 2.085-4 1.904-.275-.04-2.789.83-5.585 1.933-3.66 1.442-7.116 1.956-12.331 1.834-3.985-.094-7.322-.234-7.415-.312zm61.713-15.55c-.358-.578.68-2.296 2.307-3.816 2.246-2.1 4.383-2.93 8.884-3.456 3.26-.38 7.727-1.01 9.927-1.4 2.2-.39 4.562-.637 5.25-.548.687.089 1.7.217 2.25.286.55.069 1 .748 1 1.51 0 1.552-7.836 4.407-14.299 5.21-2.31.286-5.326.933-6.701 1.437-4.224 1.547-7.936 1.882-8.618.778z"/></svg>