<svg width="262.03" height="467.1" version="1.0" xmlns="http://www.w3.org/2000/svg"><path d="M137.21 3.57v11.49h11.32V26.5h-11.47v15.61c.64.52 1.54.52 2.23.98 7.24 3.3 12.16 10.94 11.7 18.99-.29 5.62-2.72 10.77-7.12 14.6 9.72-1.22 19.74-2.38 29.93-2.38 5.68.17 11.12.81 15.93 3.36 3.3-.17 6.25-.46 9.49-.58 12.4-.46 24.9 0 36.31 3.3 3.71 1.16 7.99 3.82 8.51 8.11.35 3.88-.81 7.53-1.45 11.29-.52 2.95-1.33 5.79-1.85 8.69 1.1.52 2.49.63 3.65 1.15.35.29 1.56.18.93 1.05-5.04 17.66-9.73 35.17-12.39 53.82h27.09c.06 6.08-.46 12.13-.57 18.1-.58 14.93-1.39 29.99-2.55 44.87l-1.56 18.18c-4.64 45.75-12.69 90.97-36.14 129.37-10.48 17.66-24.38 32.48-39.03 47.71-15.28 15.11-31.79 29.7-49.85 40.82-7.47-4.63-14.31-10.07-21.26-15.4-15.34-11.87-29.06-26.06-42.15-40.48-14.3-15.92-25.94-33.06-34.46-51.65-7.98-17.25-13.6-35.49-17.66-54.31l-3.07-15.52-2.19-14.19-2.32-19.17-1.51-15.75c-.81-9.15-1.33-18.06-1.91-27.44l-1.16-24.21L2 163.85h27.04c.06.06.35-.14.17-.26-1.1-7.93-2.6-15.75-4.22-23.45l-3.77-15.81c-1.27-4.98-2.66-9.96-4.11-14.94 1.39-.69 3.13-1.1 4.69-1.56-1.22-5.85-2.49-11.81-3.24-17.78-.41-3.47 1.62-6.72 4.52-8.57 6.25-3.42 13.83-3.88 20.96-4.69 9.61-.58 19.11-.29 28.6.52 9.61-4.86 21.78-3.07 32.49-2.37 4.51.46 9.03 1.16 13.43 1.68-6.31-5.33-8.68-14.31-5.96-21.95 1.79-5.56 7.23-10.71 12.68-12.51l.17-.29V26.35h-11.17c-.06-3.53-.06-7.44 0-11.32h11.32V3.57h11.61zM98.58 83.22c-4.34.05-9.32-.76-13.03 1.5-1.56 1.04-2.78 2.49-2.83 4.4l.58 7.42.17.4c13.03-1.79 27.27-2.26 40.71-2.31l-.23-8.11-.18-.23c-8.34-1.45-16.67-2.73-25.19-3.07zm64.97.17c-8.74.52-16.73 1.45-25.19 3.01l-.34 8.28c13.72-.05 27.21.81 40.65 2.49.35-2.14.58-4.28.75-6.48.17-.93.06-1.97-.23-2.84-1.74-3.76-6.14-4.46-9.9-4.46-1.97-.12-3.94.23-5.74 0zM43.98 86.4c-3.53.52-7.24.99-10.31 2.67-1.51.87-2.66 2.43-2.66 4.17.4 5.5 1.44 10.77 2.43 16.09 1.56 1.1 2.14 2.96 2.43 4.58 10.08-8.34 22.06-12.11 34.57-14.71l.06-.12c-.58-4.11-1.04-8.39-1.68-12.79-8.4-.41-16.39-.53-24.84.11zm174.93.64c-8.63-.87-16.79-.7-25.53-.29L191.7 99.6c12.5 2.61 24.78 6.55 34.97 14.94.23-1.67.93-3.47 2.43-4.63.76-3.76 1.51-7.64 2.03-11.46.23-1.8.64-3.53.46-5.39-.4-1.5-1.68-3.01-3.12-3.7-2.96-1.39-6.37-1.86-9.56-2.32"/><g fill="#ffd500"><path d="M135.59 5.34c-.06 3.64-.06 7.67 0 11.43h11.35v7.96c-3.65.06-7.71 0-11.41 0v17.14c-1.57-.05-3.36-.29-5.04-.29-1.16 0-2.26.24-3.42.41l-.05-.41V24.79h-11.06v-8.05c3.47-.11 7.44.18 11.14-.06V5.28c2.78.06 5.76 0 8.49.06M135.53 43.55c-.41 1.1-1.22 2.14-1.74 3.24l-.06 13.9h15.52c.06 1.51-.11 3.04-.35 4.49h-35.32c-.23-1.39-.4-2.98-.35-4.49h15.2V46.68c-.52-1.04-1.18-2.03-1.59-3.19 2.78-.69 5.85-.57 8.69.06"/><path d="M127.36 47.37l-.05 12.05c-4.58.06-9.44.06-13.96 0 .46-6.37 5.15-12.63 11.12-15 .4-.06 1.04-.93 1.27-.17l1.62 3.12M148.9 57.57l.35 1.91c-4.75.11-9.61-.06-14.3 0l.06-12.4 1.91-3.12c5.85 1.91 10.94 7.52 11.98 13.61M148.56 66.39c-1.51 6.2-7.36 11.5-13.44 12.77-6.08 1.51-12.68-.52-16.91-5.26-1.91-2.26-3.64-4.67-4.22-7.51l34.51.03.06-.03M123.95 79.8c-.06 1.68.05 3.24.05 4.92-11.23-1.85-22.64-3.7-34.04-3.07-3.31.52-7.01 1.74-8.46 5.16-.75 2.08.06 4.52 0 6.66l1.1 11.46c-3.12-.23-6.6-.29-9.15 1.51l-.17-.35c-.93-6.89-2.2-13.72-2.95-20.67-.12-2.43 1.21-4.87 3.41-6.2 5.97-3.76 14.07-3.24 21.08-3.07 9.9.29 19.63 1.68 29.13 3.65M181.33 76.96c2.84.41 5.62 1.34 7.99 3.19 2.14 1.62 3.01 4.28 2.49 7.01l-2.95 19.8c-.7-.29-1.28-.7-1.91-.99-2.09-.86-5.1-.81-7.41-.52.46-5.67 1.27-11.06 1.56-16.73-.23-3.3-3.47-5.45-6.31-6.31-2.96-.81-6.26-.58-9.5-.64-9.32.12-18.12 1.62-26.98 2.95-.29-.63.11-1.5 0-2.37.05-.87 0-1.68.05-2.49 12.74-2.61 25.66-3.94 39.15-3.47 1.22.17 2.61.29 3.82.57M70.73 79.4c-.98 1.67-1.97 3.3-1.85 5.38-6.72-.23-13.44-.58-20.27-.23-4.57.11-9.32.75-13.55 2.03-2.55.86-5.27 2.78-5.67 5.61 0 4.06.92 8.17 1.62 12.05l.69 3.88c-2.37-1.05-5.15-1.05-7.7-.76-1.33-5.73-2.49-11.75-3.3-17.6 0-3.36 2.72-6.2 5.73-7.47 7.65-3.13 16.04-3.36 24.44-3.76 6.77-.12 13.2.35 19.86.87M233.79 82.06c3.48.98 7.88 3.59 8.11 7.7.23 1.85-.41 3.53-.58 5.27-.75 4.46-1.79 8.8-2.72 13.2-2.49-.46-5.62-.29-7.76.64.81-5.15 2.09-10.31 2.49-15.63-.29-3.07-3.3-5.33-6.02-6.08-9.85-2.84-20.39-2.32-30.58-2.09l-3.35.12c.05-2.09-.82-3.77-1.86-5.39 12.68-1.21 25.94-1.21 38.05 1.1l4.22 1.16M136.57 80.38c.29 1.91-.23 3.88-.06 6.08-.11 5.73-.4 11.41-.87 17.14-2.89-.87-6.37-.87-9.32.06-.64-7.88-.87-15.58-.75-23.4 3.65.93 7.29.93 11 .12"/><path d="M138.65 108.12c2.84 5.21-2.37 9.26-4.63 13.37.41.93.99 1.86 1.57 2.72 1.62-1.1 2.77-2.72 4.57-3.76 2.08-1.51 4.46-3.24 7.18-2.37 3.59 2.08 4.52 6.31 4.11 10.3-.29 2.73-1.56 5.62-4.22 6.66-4.7 1.22-8.17-3.18-11.3-6.08l-.81-.75c-.81.81-1.27 1.91-1.91 2.84 2.55 4.98 4.69 10.13 8.28 14.65 2.9 1.74 6.31 1.85 9.67 2.32 4.63.28 9.56.34 14.07-.18 2.44-.29 4.87-.75 6.95-2.03 2.67-3.12 4.05-6.89 5.97-10.42l1.5-3.3c-.63-.93-1.21-2.03-1.91-2.95-2.66 3.12-5.91 6.25-10.19 6.42-1.56 0-2.95-1.04-3.88-2.25-1.91-3.36-1.8-7.99-.58-11.64.81-2.32 3.3-3.48 5.68-3.42 3.64 1.04 6.6 4.11 9.38 6.78l.17-.06 1.33-3.13c-2.55-3.71-7.12-7.82-4.17-12.68 2.2-3.07 6.6-2.95 9.96-2.37 2.03.57 4.34 2.14 4.81 4.34.75 4.11-2.03 7.64-4.81 10.59l1.33 3.25h.29c3.54-2.78 7.24-6.37 11.99-5.16 3.13 1.57 3.76 5.16 3.82 8.34-.06 3.3-2.08 6.37-5.09 7.7-4.58 1.57-7.65-2.78-10.54-5.73-.29-.35-.52-.75-.93-1.1-.75.81-1.27 1.91-1.85 2.84 2.31 4.51 4.51 8.97 7.52 13.14 1.8 2.03 4.46 2.26 7.01 2.73 7.24 1.1 15.23 1.04 22.3-.64 1.15-.46 2.6-.64 3.35-1.85 2.61-3.6 4.64-7.36 6.72-11.12-.4-1.05-1.04-1.91-1.56-2.9h-.29c-2.72 2.49-5.68 4.63-9.09 5.5-2.49.29-4.87-.64-6.14-2.72-1.91-3.76-1.51-8.8.46-12.45 1.62-2.32 4.69-2.37 7.07-1.68 3.35 1.22 5.96 4.11 8.28 6.89.81-.87 1.56-1.73 2.37-2.66-2.37-3.36-5.62-7.53-3.36-11.81 2.32-3.48 7.3-3.19 10.83-2.32 1.16.23 2.32.7 3.42 1.1l-3.19 10.65-4.4 16.97c-1.97 8.46-3.59 16.97-4.92 25.42H31.35c-.46-2.08-.69-4.57-1.1-6.54-2.6-15.98-6.31-31.91-11-47.25 4.17-1.51 9.62-2.9 13.38.4 1.21 1.34 1.85 3.01 1.5 4.87-.57 3.01-2.31 5.38-4.17 7.76l2.26 2.78h.18c2.31-2.78 4.75-5.39 7.93-6.84 1.8-.58 4.17-.69 5.79.41 3.07 2.31 3.07 6.54 2.95 10.02-.29 2.43-1.44 5.03-3.82 5.96-2.08.98-4.46.46-6.31-.58-2.2-1.22-4.34-2.89-6.14-4.63l-.17.06-1.74 2.78c1.8 3.64 3.88 7.18 6.08 10.59 1.1 2.49 3.88 2.44 5.97 3.07 7.64 1.45 16.33 1.45 23.97-.58 3.76-1.04 4.81-5.21 7.01-8.05l3.65-6.71c-.53-1.04-1.16-1.97-1.74-2.96-3.19 3.25-6.49 7.99-11.47 6.95-3.01-1.1-5.09-4.46-5.15-7.64-.06-3.07.52-6.14 2.95-8.22 1.85-1.05 4.11-.53 5.91.11 2.6 1.22 4.8 3.13 7.06 4.87l.18-.12 1.27-3.13c-2.84-3.36-6.6-7.7-4.05-12.21 2.25-3.19 6.6-3.48 10.07-2.78 1.62.29 3.3 1.21 4.11 2.83.64 1.51 1.1 3.65.23 5.21-1.04 2.55-3.01 4.69-4.63 7.01.46 1.04.75 2.26 1.39 3.24 2.72-2.54 5.33-5.32 8.69-6.6 1.16-.35 2.37.12 3.47.35 3.59 1.45 3.88 5.62 3.82 9.15-.23 2.78-.86 5.91-3.64 7.18-4.93 1.74-8.81-2.49-11.82-6.02h-.11l-1.86 3.01c1.97 4.34 3.94 8.74 6.49 12.85 1.22 1.63 3.13 1.97 4.92 2.44 8.05 1.5 17.37 1.33 25.31-.7 2.83-.98 3.53-4.23 5.09-6.43l4.46-8.97c-.52-.99-1.16-1.91-1.74-2.84-3.24 3.01-6.6 7.59-11.52 6.89-2.95-.93-4.52-3.99-4.75-6.95-.34-3.7.52-7.87 3.88-10.02 2.67-1.21 5.33.64 7.47 2.2 1.68 1.16 2.9 2.61 4.46 3.88.58-.92 1.16-1.85 1.51-2.83-2.44-4.23-7.65-8.92-3.88-14.07 2.72-3.25 7.64-3.25 11.46-1.97 1.33.58 2.43 1.56 3.24 2.78"/></g><g fill="#e30613"><path d="M124.18 96.65l.11.18c.06 2.66.24 5.03.35 7.58-2.43 1.97-4.05 4.69-3.53 7.88.81 3.35 2.95 6.19 5.04 8.97-.12.23-.12.46-.29.58-2.78-2.61-5.68-5.1-9.33-5.73-2.31-.35-4.34 1.27-5.55 3.18-2.38 3.77-2.78 9.79-.35 13.73 1.04 1.96 3.07 3.7 5.33 3.76 4.22-.06 7.41-3.53 10.48-6.25.23.11.29.4.46.63-2.03 4.17-3.88 8.46-6.54 12.4-1.39 1.91-3.83 1.62-5.79 2.25-7.18 1.22-14.48 1.1-21.43-.34-3.94-.64-4.75-4.98-6.49-7.76l-2.66-6.14c.06-.17.17-.35.35-.52 2.89 3.3 6.66 6.31 11.29 5.5 3.19-.93 4.98-4.23 5.39-7.41.4-4.35.17-9.56-4.06-11.93-2.02-1.16-4.92-.93-6.83.35-2.26 1.33-4 3.18-5.97 5.03-.81-.69.18-1.15.47-1.73 2.37-3.19 5.44-6.78 3.99-11-.63-1.92-2.43-3.6-4.28-4.29-.35-.29-.18-.75-.29-1.1a131.6 131.6 0 01-.46-5.56c13.08-1.68 26.46-2.55 40.01-2.32l.58.06M178.49 99.2c-.23 2.2-.17 4.4-.69 6.54-2.09.7-4.17 2.78-4.75 4.93-.93 4.69 2.61 8.1 5.04 11.58-.12.23-.12.46-.29.63-3.59-3.24-7.7-8.1-12.91-5.5-4.46 2.67-4.4 8.28-3.83 12.97.47 2.67 2.21 5.45 4.93 6.37 4.63.93 8.57-2.08 11.52-5.38.35.23.46.81.17 1.16-1.73 3.53-3.18 7.23-5.27 10.53-1.39 2.44-4.11 2.67-6.54 3.19-4.63.52-9.27.81-13.96.35-3.06-.35-6.42-.76-9.26-2.03-2.66-2.84-4.05-6.25-5.91-9.5l-1.79-3.82c.06-.29.23-.52.46-.69 3.71 3.07 7.7 7.99 12.97 5.67 3.48-2.2 4.75-6.25 4.58-10.19-.18-3.76-1.51-7.76-5.1-9.55-3.82-.93-7.12 1.56-10.02 3.82l-1.68 1.62-.4-.58c2.66-3.65 6.54-7.53 5.09-12.51-.63-1.68-1.91-3.12-3.35-4.28.11-2.55.34-5.16.4-7.82 6.08-.29 12.16.06 18.07.29 7.35.46 15.23 1.27 22.52 2.2M71.83 107.6c-1.85 2.02-2.26 4.86-1.39 7.35.87 2.61 2.78 4.92 4.58 6.89l-.35.81c-3.48-2.84-7.82-6.54-12.62-4.63-3.77 2.2-4.06 6.66-4.12 10.65.12.64.12 1.22.29 1.86.58 2.43 2.15 5.27 4.81 6.19 5.15 2.2 9.38-2.37 12.57-5.96.29.11.23.46.4.64-2.2 4.22-4.34 8.57-7.47 12.33-2.08 1.74-4.98 1.85-7.47 2.37-5.56.58-11.41.58-17.08-.34-2.14-.58-4.81-.7-6.08-3.07-1.97-2.9-3.53-6.03-5.21-9.09-.06-.35.17-.53.34-.81h.24c3.18 2.83 6.83 5.79 11.35 4.68 2.54-.52 4.92-3.06 5.44-5.55.87-3.59.58-7.42-.87-10.72-1.33-2.55-4.11-4.17-7.06-3.82-4 .46-7.01 3.59-9.79 6.55-.23 0-.23-.29-.41-.47 1.39-2.2 2.96-4.28 3.71-6.83 10.02-8.8 22.29-13.15 35.15-15.46l1.04 6.43M226.67 117.15c.81 2.49 2.32 4.69 3.82 6.89-.05.17-.11.41-.34.52-3.36-3.47-7.42-7.87-12.63-6.43-1.1.29-1.97.87-2.89 1.51-3.13 3.53-3.48 8.63-2.44 13.09.64 2.43 2.78 4.74 5.22 5.32 4.51 1.16 8.51-1.97 11.92-4.69.76.58-.05 1.34-.23 1.91-1.91 3.31-3.53 6.78-6.31 9.62-3.93 1.74-8.1 1.97-12.51 2.08-5.44-.06-11.29-.11-16.15-2.14-2.49-1.85-3.53-4.75-5.1-7.24l-3.01-5.67.29-.87c3.13 3.36 6.78 7.93 11.76 6.37 3.47-.87 5.67-4.46 5.96-7.82.23-4.11-.12-8.92-3.99-11.12-4.75-1.97-9.1 1.57-12.57 4.52-1.16-1.22 1.16-2.09 1.5-3.13 2.03-2.55 3.77-5.85 2.78-9.2-.23-1.05-.92-1.86-1.5-2.67.29-2.14.75-4.34 1.16-6.43 12.91 2.44 25.07 6.78 35.26 15.58M258.23 165.94s-3.82 90.47-12.33 132.63c-6.55 31.73-17.55 61.73-36.6 88.19-17.78 23.39-39.96 45.57-63.18 63.7-5.27 3.93-10.3 7.64-15.8 10.88-5.39-3.01-10.25-7.29-15.29-10.77-16.62-12.45-32.14-27.74-46.21-43.43-13.26-14.76-24.61-30.69-32.83-47.88-13.61-28.15-20.91-58.84-25.08-90.74l-2.25-19.29c-2.84-27.56-4.06-55.91-4.75-83.29h254.32"/></g><path d="M139.12 174.94c1.27-.93 3.01-.75 4.28 0 .93.98 1.8 2.26 1.39 3.76-.23 1.16-1.27 2.09-2.26 2.49-.46.24-1.04.12-1.5.12-.12.81.4 1.62 1.1 2.14 1.74.7 3.76.93 5.62 1.16.75-.06 1.33-.58 1.85-1.16-.7-.81-1.85-1.15-2.32-2.2-.69-1.44-.05-3.07.93-4.17 1.04-.75 2.55-.63 3.7-.29.87-.75 1.97-1.44 3.13-1.44 1.39 0 2.66.69 3.42 1.79.46.52.23 1.74 1.33 1.51.81.23 1.74.63 2.08 1.44.53.82.47 1.74.29 2.67-.34 1.1-1.1 2.2-2.25 2.49-.53.35-1.68-.52-1.57.58.41 2.2 2.96 1.62 4.52 2.25 1.04.12 2.32.58 3.07-.57l.06-.18c-1.16-.87-1.97-2.14-1.68-3.59.11-.92.58-1.68 1.21-2.37 1.1-.64 2.61-1.04 3.82-.41.64.41.93 1.16 1.51 1.45 1.68-.69 3.94-.69 5.5-.06l-.12.41c-2.43 3.59-5.09 7.23-7.35 10.88 1.28.81 2.66 1.51 3.76 2.61-.05 2.32.35 5.15-1.79 6.72l-2.55 2.83c.12 11.7-3.07 22.47-8.16 32.26l-7.82 13.9c-1.68 3.06-2.14 6.77-2.2 10.3-1.22-.35-2.26-1.16-3.53-1.45-.18 4.12-.35 7.82-.35 11.82l-.35 16.39c-.11 7-.23 13.66-.34 20.78 2.95 3.24 4.86 7.01 6.6 10.83l6.54 14.42c4.81 9.9 8.98 20.32 16.21 29.18 3.83 3.88 8.75 5.27 14.13 5.39 6.37-.41 12.34-4.05 15.46-9.73 3.94-9.15-1.85-17.72-5.84-25.42l-11.12-18.94c-5.79-11-12.8-25.01-5.68-37.52 3.77-6.6 10.48-11.81 16.33-16.5l22.87-17.55c8.28-6.65 15.76-15.4 15.64-26.4-.23-5.44-.81-10.6-4.69-14.48-4.23-4.4-10.19-6.25-16.1-5.03-4.52 1.15-9.21 5.03-9.9 9.84 0 1.16.06 2.55.46 3.7 2.38.47 5.04.47 7.24 1.45 2.61 3.19 4.17 7.01 5.39 10.89-.18 5.96-1.05 11.81-2.78 17.31-.58.12-1.28.23-1.91.18-.24-1.1-.06-2.38-.24-3.54-.52-3.53-.98-7.29-3.65-9.96.18 3.19.76 6.49-.81 9.39-2.31 3.01-5.67 5.61-8.62 7.87-7.94 6.2-16.33 11.41-22.64 19.51l-.47.7c-.81.06-1.33.12-2.08.06.63-4.87 3.01-9.09 5.38-13.32 4.35-7.07 9.73-13.9 14.94-20.44.12-1.33-.29-2.49-.52-3.65l-.23.06c-3.19 2.31-6.14 5.27-8.69 8.39-.46.12-1.04.18-1.56.12.64-2.49 1.56-4.92 2.49-7.3 2.08-4.92 4.46-9.72 7.82-14.12-.35-5.62.92-11.07 4.17-15.47 5.21-7 13.26-9.73 21.77-9.49 8.98.87 18.12 6.54 20.96 15.4 2.78 7.88 2.84 17.08-.06 24.9-2.37 6.43-6.08 12.45-10.77 17.72v.17l-.58.41c-5.5 6.31-12.91 12.04-17.48 18.99l.17.12 3.65-.41c3.53.47 6.83 1.22 10.36 1.74 2.09-.12 4.17-.41 6.32-.52.23.4.4.92.34 1.33l-18.41 8.74c-3.65 1.8-7.3 3.65-10.95 5.27-.4.52-.46 1.16-.57 1.8 2.83-.46 5.73-1.16 8.68-1.51l10.54 2.15 4.92-.35c.23.46.46.92.52 1.45-2.02 1.1-4.17 2.08-6.25 3.12-6.54 3.07-12.97 6.54-19.57 9.32-.29.47 0 .99-.12 1.51l.29.12 3.88-.41 9.85 2.2 4.8-.52c.52.29.58.98.64 1.56l-17.66 8.63-.12.29c1.16 7.65 4.29 14.65 6.66 21.89 3.19 9.15 4.63 20.38-.46 29.18-5.22 9.04-15.29 13.73-25.48 13.61-9.85-.58-18.3-6.6-23.97-14.59l-12.51-18.3-.12.29c.18 5.33.29 10.71.52 16.1.47 5.5.7 11 2.49 16.04l3.01 3.99c.12 3.77-.23 7.47-1.5 10.72-.52.98-1.85 1.44-2.03 2.6-.63 10.66-2.89 21.6-2.14 32.55.17 1.62.29 3.18.75 4.69l-2.02 1.62-.24-.06c-1.5-1.56-3.18-3.01-5.09-4.05-.93-.41-1.68.29-2.43.58-1.51 1.15-3.07 1.91-4.12 3.53.87 2.25 1.51 4.63 2.2 6.89-.46 1.04-1.56 1.39-2.2 2.14l-2.72 1.74c-.34 2.66.29 5.21 1.05 7.64-.82.06-1.74.06-2.49-.35-2.2-3.59-4.81-7.06-4.87-11.58.23-2.43.87-4.92 1.33-7.29l-.05-.12c-2.2 2.26-4.29 4.4-6.61 6.2-1.97-.29-3.7-1.34-5.15-2.84-2.26.52-4.52 1.16-6.25 2.89h-.12l-.35-2.14c1.86-3.07 4.35-6.08 7.36-8.22 3.12-.69 6.31-1.22 9.55-1.62-2.89-1.97-6.37-3.01-9.32-4.98-.29-2.38.29-4.75.81-7.01-1.39-2.26-3.82-3.47-5.85-4.98l2.38-1.27c4.16.35 7.64 2.31 11 4.63 1.97 2.84 3.41 5.96 4.98 9.03.46.93 1.62.18 2.37.18 1.04-.29 2.03-.7 2.95-1.34.87-12.56-.57-25.88-3.12-38.04-2.14-3.42-5.16-6.54-7.76-9.73-3.24-3.65-6.49-7.58-9.96-10.83-2.49 3.13-5.1 6.32-6.6 9.91-.12 1.44-.06 2.95-.12 4.46-3.36 2.2-7.12 3.35-10.88 4.57-1.91-1.33-3.65-2.84-5.62-4.17-9.09-1.79-17.6-4.28-26.7-6.08-1.68-.17-3.59 0-5.21.52-.58-.64-1.27-1.45-1.33-2.31 1.39-1.22 2.66-2.15 3.71-3.6.17-2.66-1.62-4.57-2.84-6.71-1.8.29-3.36 1.33-5.15 1.68-4 .06-8.17-.75-11.7-2.67l-.41-2.14c1.74.41 3.59.58 5.39.29 1.04-.58.92-1.79 1.39-2.72.23-.7.46-1.56 1.33-1.8l5.56-.11 2.43-.23v-.12c-2.84-2.03-6.2-2.78-9.26-4.23-.12-1.68.46-3.24 1.38-4.63-.46-1.21-1.73-1.85-2.77-2.66l-4.11-.93c.23-.75.98-1.33 1.56-1.85l7.53.4c2.08.93 4.34 1.63 6.14 3.13 1.96 2.55 3.41 5.15 5.15 7.76l.17-.41c.29-2.72.46-5.5 1.04-8.1 1.28-.87 3.07-.81 4.58-1.16 1.33-2.14 1.74-4.92 1.16-7.53.81.23 1.68.7 2.31 1.28 1.8 4.4 2.26 9.96.52 14.41-1.44 2.32-3.35 4.17-5.09 6.26.46 2.55 1.16 4.92 1.85 7.35 2.2.29 4.75.41 7.07.7l15.92 1.39c-.46-1.91-1.91-3.71-1.79-5.85.92-10.08 2.95-19.46 6.08-28.67 6.36-4.63 13.66-7.23 20.84-10.07l.17-.23c-.4-5.1-1.79-10.08-3.01-15-2.02-3.65-5.55-6.49-8.16-9.67-1.1-2.32-2.09-4.75-3.13-7.06l-2.84 3.07-15.51 17.71c-2.09 2.61-4.41 5.1-6.32 7.76-.69-.23-1.38-.81-1.85-1.39.35-1.39.35-2.89-.11-4.28-1.74-1.91-4.17-2.32-6.37-3.3-2.32 3.18-4.93 6.6-8.05 9.09-.93-.12-1.68-.47-2.67-.41l-.11.29-.47 16.39-.28.11c-2.44 0-4.29.12-6.72-.11 0-5.15.17-10.42.05-15.4-1.21.98-2.66 1.73-3.76 2.89h-.17l-.87-1.79c.52-1.91 1.39-3.65 2.31-5.39l2.73-3.24c.05-2.84.23-5.67.17-8.57-.64-.35-1.45-.35-2.14-.58l-2.26-5.62c-1.62-.58-3.47-.05-5.15.06-.35.12-.81.12-1.22.17.17-.86.52-1.67.81-2.54 1.8-.99 3.59-2.14 5.62-2.67l4.4-.05.17-.24.29-15.69c.06-4.63.12-9.5.23-14.19l.29-16.67-.05-.12c-.99.41-1.74 1.1-2.67 1.56-1.45-.52-2.89-.98-4.11-1.96-1.45.23-2.61 1.56-3.71 2.49l-1.15 1.91h-.12l-.93-2.03c.82-3.53 2.67-6.77 4.98-9.61 2.38-1.8 5.1-2.84 7.82-3.94.23-.52.12-1.27.17-1.97-2.37-.58-5.38 0-7.29-1.79l-1.8-4.87c-2.08-.63-4.4-1.04-6.71-.75.34-.81.98-1.68 1.62-2.37 2.37-.93 4.57-1.97 7.35-1.86 2.26.41 4.81.35 6.89 1.28l.18-.29.05-9.27v-3.59c-2.89-.29-5.9-.29-8.74.41-4.63 1.44-8.34 5.44-11.81 8.86-1.91 2.08-3.94 4.28-5.85 6.54-4.63-7.76-7.99-16.21-9.61-25.3-1.1-6.66-1.91-13.79-1.05-20.85l.06-.17c11 7.99 21.72 17.54 36.19 16.9.41-.05.99.24 1.22-.11v-5.04l.93-.06c2.08 0 4.22.12 6.37.06.11 1.68.17 3.47-.06 5.1l.23.23 2.72.11c-.06 4.23 0 8.92-.17 13.15-1.05.11-1.91.11-2.96.17-.11 5.44-.23 10.31-.23 15.93.87-1.74 1.28-3.88 2.2-5.68 1.1-1.16 2.96-1.04 4.4-1.5.76-1.28 1.39-2.55 1.91-3.94l.29-3.13 1.86 1.74c.98 3.7.87 7.87.11 11.58-1.56 2.37-3.41 4.57-5.04 6.83.58.64 1.45 1.04 2.21 1.45.98.69 2.25 1.04 3.47.87.64.06 1.27-.23 1.85.06.41.81.7 1.68.93 2.6 6.31 3.42 12.74 6.49 19.17 9.61.58-.57.69-1.56 1.33-2.2 6.31-7.41 14.24-12.68 22.12-17.95 3.76-1.96 7.76-3.41 12.04-4.22l8.11-1.45c.52-.41.52-1.04.69-1.62l-.34-.23c-4.17-.29-8.23-.35-12.4-.93 1.16-1.97 2.26-4.11 3.48-6.2-1.27-1.85-2.72-3.41-3.71-5.44l-.58-6.6c2.78-2.61 5.74-4.75 8.63-7.3.06-4.63-.69-9.38-.75-14.01 1.68.23 3.01 1.39 4.46 2.2"/><path d="M138.65 176.45c.52 0 .81-.7 1.34-.81 1.04-.18 2.25-.06 2.95.81.35.63.69 1.39.4 2.2-.28.75-.98 1.21-1.62 1.68-.69.05-1.33.05-1.91-.29-.29 0-.35.29-.46.46.4 1.33.4 2.84 1.45 3.88 2.49.87 5.27 1.62 7.87 1.5 1.45-.75 2.26-2.02 3.42-3.18.06-.23.11-.58-.18-.75-.63.29-1.56.52-2.19.11a2.67 2.67 0 01-1.34-2.6c.35-.87.99-1.8 2.03-1.8.75-.06 1.33.47 1.97.7.75-.99 1.68-1.8 2.95-1.68.99.29 2.14 1.04 2.37 2.08.12.23-.05.58.18.7.98.06 2.08-.23 2.66.75.58.7.58 1.74.29 2.49-.29.87-1.21 1.27-2.02 1.62-1.05.12-1.8-.64-2.32-1.33-.29.06-.46.35-.58.58.17 1.5.64 2.89 1.27 4.17 2.26 1.15 4.87 1.44 7.42 1.85 1.45-.23 2.49-1.56 3.7-2.37.12-.06.06-.29.06-.47-.35-.34-.98 0-1.39-.29-.69-.23-1.21-.81-1.39-1.5-.11-.64 0-1.33.23-1.85.76-.64 1.33-1.34 2.38-1.22 1.04.17 1.91 1.04 2.2 1.97.58.17 1.04-.46 1.56-.52.64-.29 1.39-.35 2.08-.18-2.02 3.3-4.28 6.72-6.6 9.85-1.96.63-4.16.75-5.9 1.85.11.46.63.75.98 1.1 1.91-.29 3.59-1.79 5.62-.98 1.04.81 3.07 1.21 2.84 2.95.63 3.24-2.49 4.75-4.17 7.12.23 15.35-5.5 28.9-13.38 41.23-2.2 4.23-4.8 8.4-4.86 13.43-1.22-.34-2.32-1.21-3.48-1.5-.46 18.01-.69 34.63-1.04 52.4 5.39 5.45 7.3 12.45 10.42 18.82l7.59 15.98c3.36 6.49 6.37 13.03 11.12 18.94 5.38 6.37 14.47 8.28 22.06 5.21 5.33-2.14 10.71-6.66 11.58-12.62.4-1.28.11-2.84.23-4.29-.12-.75-.23-1.68-.35-2.43-1.85-9.73-8.04-17.72-12.62-26.34-5.1-8.58-10.31-17.15-12.91-26.82-.58-2.6-.87-4.86-.87-7.75.23-.76 0-1.68.23-2.49 1.33-11.76 13.09-19.52 21.48-26.53l15.35-11.75c7.81-6.08 16.5-13.38 19.4-23.05 1.62-6.25 1.85-14.01-1.33-19.74-3.77-6.31-10.6-10.48-18.13-9.27-5.15.99-10.65 4.4-12.33 9.61-.64 2.15-.52 4.52.05 6.61 2.67.52 5.74.57 8.17 1.73 2.2 3.36 4.23 6.78 4.69 10.83-.46 4.86-1.04 9.79-2.26 14.36-.11-5.44-1.56-10.65-5.27-14.65-.58-.12-1.16-.29-1.74-.17l-.05.29c.75 3.59 1.27 7.52.17 11.12-4.05 5.21-9.61 8.56-14.53 12.33-5.68 4.23-11.87 9.03-16.16 14.47 2.14-7.7 7.18-14.36 11.99-20.96 2.37-3.36 5.09-6.54 7.47-9.9.4-2.37-.18-4.34-.64-6.54-3.53 1.85-6.6 5.09-9.27 8.05 2.2-6.49 5.04-12.8 9.62-18.36-.93-6.89 1.33-13.61 6.71-18.12 6.32-5.39 15.81-7.42 23.63-4.17 5.91 2.08 11.81 7.18 13.72 13.37 2.61 7.59 2.67 17.2-.52 24.56-2.95 8.28-9.09 15.57-15.58 22-5.44 5.62-11.05 10.54-14.99 17.02 2.26-.23 4.52-.81 6.66-.98 4.17.35 8.16 1.39 12.16 2.2l-3.83 1.8-21.3 10.13c-.52 1.56-1.28 3.07-1.33 4.75 3.35-.52 6.83-1.62 10.24-1.97l1.34.11 10.59 2.26-22.99 11c-.23 1.28 0 2.67.24 4 1.96.17 3.76-.87 5.9-.35 3.42.7 6.72 1.51 10.19 2.26-4.8 2.43-9.73 4.81-14.59 7.06 0 1.51.35 3.02.64 4.46 2.66 11.99 9.09 22.47 9.03 35.44-.64 8.8-5.21 17.49-13.72 21.43-7.07 3.59-16.22 4.28-23.51.69-5.56-2.49-10.48-7.3-13.84-12.51-4.35-6.48-8.86-12.74-12.97-19.39-.18-6.49-.18-12.74-1.91-18.94-.35-1.04-.7-2.03-1.22-2.95h-.11l-.93 1.91c2.89 7.58 2.08 17.14 2.61 25.36.05 9.27.23 18.76 1.91 27.68.57 2.61 2.25 4.81 3.99 6.83.23 2.78-.41 5.45-.75 8.17-.52 1.39-1.85 2.2-2.67 3.41-.98 8.57-1.38 16.74-2.2 25.37-.28 4.34 0 8.39.41 12.62-2.03-1.45-3.94-3.59-6.37-3.99-2.67 1.1-4.98 3.12-7.35 5.03l.05.76c.58 2.37 1.68 4.45 2.14 6.83-1.27 1.5-3.01 2.2-4.68 3.13-.35 1.85-.06 3.64 0 5.5-1.68-2.43-3.19-4.98-3.48-8 .23-2.6.64-5.21 1.22-7.75-.47-.76-1.22-1.86-2.26-1.68-1.85 2.02-3.82 4.11-5.91 5.84-1.97-.23-3.36-1.68-4.8-2.95-1.51.18-2.78.99-4.17 1.51 1.39-2.26 3.41-4.81 5.84-6.08 2.9-.7 5.74-1.1 8.69-1.51.41-.81.52-1.79.35-2.6-2.72-1.57-5.68-2.67-8.28-4.46-.47-2.32.63-4.35.92-6.55-1.15-1.5-2.6-3.06-4.11-4.11 3.42.29 6.43 2.15 9.04 4.35 1.73 3.06 3.36 6.19 5.15 9.26l.35.35c2.43-.12 4.63-1.04 6.71-2.15l.35-.57c.87-13.55-.58-26.52-3.07-39.15-.58-1.56-1.85-2.78-2.89-4.17l-17.78-20.03c-1.45-1.86-2.95-3.71-3.7-5.85-1.22-5.1-1.51-10.83-1.34-16.21 4.87-7.42 13.38-11.99 18.01-19.69 1.04-1.86 2.15-3.71 2.61-5.79-.41-.35-1.04-.18-1.62-.29-.47.69-.52 1.62-.93 2.37-3.65 8.69-12.57 13.38-18.3 20.62l-1.5 2.31c-.29 5.33.46 10.95 1.27 16.04.58 3.59 3.48 6.31 5.44 9.27-2.2 3.53-4.8 6.89-6.71 10.54-.47 1.39-.18 2.89-.24 4.4-1.15 1.1-2.72 1.39-4.05 2.08-1.62.52-3.13 1.22-4.8 1.56-1.68-1.04-3.13-2.43-4.58-3.76l-7.82-1.62-17.95-4.34c-2.2-.47-4.51-.76-6.71-.06 1.33-1.57 3.41-2.61 3.47-4.87-1.04-2.72-2.08-5.44-3.82-7.81-2.49.23-4.52 2.08-7.13 2.08-2.66 0-4.98-.58-7.35-1.39 1.22-.29 2.49-.29 3.59-.81.64-1.16.58-2.43 1.22-3.59 2.49-.64 5.21-.4 7.93-.64.52-.86.87-1.73 1.22-2.66-2.84-1.8-6.14-2.49-9.04-4.23 0-1.5.76-2.83 1.74-3.93-.64-1.05-1.8-1.62-2.66-2.38-.47-.23-.81-.69-1.22-.92l.29-.12c1.62.12 3.36.12 4.75.81l3.42 2.14c2.08 2.55 4.28 5.16 5.67 8.05.93.17 1.79-.17 2.66-.35.76-2.72.29-5.61 1.04-8.28 1.51-.4 3.02-.81 4.52-.81l.35-.4 1.1-3.77c1.22 3.19.81 6.9-.29 10.02-1.56 2.43-3.47 4.63-5.5 6.83.93 2.84 1.68 5.8 2.2 8.75 2.32.35 4.46.46 6.89.69 6.83.58 13.32 1.28 19.98 1.8l.11-.12c-1.04-2.2-1.96-4.4-2.43-6.77.76-9.79 2.55-19.46 5.85-28.38 6.54-4.34 13.9-7 21.02-9.96.29-1.21.11-2.6-.12-3.76-.81-4.58-1.62-9.26-3.12-13.61-2.09-3.7-5.5-6.48-8.11-9.78-.98-2.49-2.37-4.75-2.84-7.42l.12-.34 15.17-17.2 1.56-1.85c-.11-.53-.75-.93-1.04-1.34l-.46.41-20.56 23.28-20.61 24.03-.41.46-.11-.12c.11-1.79-.29-3.53-1.51-4.86-2.37-1.21-4.81-2.37-7.41-3.07-2.2 3.25-4.63 6.83-7.82 9.32-1.27-.11-2.55-.52-3.76-.81l-.35 17.43-4.23-.05c.06-5.56 0-10.77.23-16.45-.75-.06-1.56.46-2.25.81-.76.35-1.34 1.1-2.09 1.56.41-2.72 2.84-4.57 4.46-6.71.06-2.78 0-5.56.17-8.28-.11-.7.18-1.57-.11-2.26l-2.32-.52c-.98-1.91-1.5-4.11-2.55-6.02-1.44-.35-2.89-.41-4.4-.47 1.45-.58 2.9-1.16 4.46-1.5 1.8-.23 3.3.06 5.04-.12l.12-.29.05-8.22.41-21.14c.12-7.64.23-14.18.35-21.65l-.29.05-4.06 2.73c-1.39-.64-2.83-1.22-4.11-2.15-1.39.52-2.6 1.62-3.76 2.67.81-2.43 2.37-4.63 3.88-6.78 2.43-2.14 5.5-3.12 8.34-4.4.46-1.27.05-2.72.17-4.05-2.43-.18-4.86-.29-7.01-1.16-1.16-1.51-1.5-3.47-1.91-5.38-.46-.35-1.1-.29-1.68-.47l-2.95-.63c1.16-.76 2.78-.93 4.23-1.22 3.3.12 6.71.35 9.26 2.49l.18-.12c0-5.21.34-10.48.34-15.57 1.45-.06 2.84-.06 4.17 0 0 5.84-.11 11.98-.23 18.24.46.23 1.22.29 1.68.11 1.33-2.31 2.2-4.8 3.3-7.24 1.27-.4 2.61-.63 3.94-.86.98-1.22 1.56-2.61 2.2-3.94.98 1.97.11 4.23.06 6.43l-.52 2.08c-1.86 2.49-3.54 4.98-5.56 7.3v.28c1.79 1.11 3.59 2.15 5.44 3.02 1.04.17 2.08 0 3.18.11l.87 2.15c6.49 3.64 13.21 6.65 19.69 10.24-.98 4.75-1.39 9.73-2.08 14.6l-2.55-1.91-20.04-15.7c-1.21-.29-2.66 0-3.99-.11-.41-.18-.81-.47-.99-.87.29-1.1 1.16-2.14 1.33-3.3-1.33-1.1-2.95-1.68-4.45-2.49-.64.46-1.16 1.04-1.62 1.62l-.18 2.2-.23 15.58c-.29 12.56-.4 26.57-.64 39.26 1.74 1.39 3.77 2.49 5.68 3.59.58-.7 2.31-.87 1.79-2.09l-2.43-6.42c.23-2.03 1.62-3.54 2.9-5.04.17-1.51-.58-2.9-.87-4.35 2.2 1.33 3.36 3.88 4.34 6.08l.23.87c.12 4.17.18 8.51.41 12.39 1.97 1.22 3.88 2.38 5.96 3.36l2.26-3.36 12.22-19.63 8.91-14.18v-.12c-2.72 0-4.97.81-7.64.41 1.74-7.01 1.74-14.94 4.11-21.72 3.3-5.5 9.21-9.49 14.25-13.32 5.21-3.47 10.02-7.7 16.15-8.97 4.12-.87 8.34-1.56 12.45-2.32.41-.29.76-.87.99-1.39.35-1.1.75-2.14.92-3.36l-.29-.11c-3.93-.29-8.22-.12-11.98-.93l2.43-4.57c-1.33-1.91-2.55-3.94-3.82-5.85l-.17-1.8c.69-.63 1.56-1.27 2.25-1.96-.11-.35-.46-.7-.75-.93l-1.68 1.16c-.17-.64-.29-1.45-.17-2.26 2.66-2.26 5.44-4.69 8.33-6.72l6.32 1.33 16.5 3.77c.81-.18 1.51-.52 2.26-.81l-.35-.24c-8.34-1.68-16.21-3.7-24.55-5.38-.23-4.11-.52-7.88-.58-11.93.98.35 1.79.93 2.37 1.8" fill="#ffd500"/><path d="M50.98 192.25c4.46.24 9.04.18 13.55.41l.12.06c-.12 3.18-.12 6.95-.29 10.25-5.32.05-10.83 0-15.75.05-6.6.82-11 6.08-15.81 10.72-1.21 1.33-2.31 2.66-3.59 3.88-5.09-9.62-8.63-19.98-9.38-31.33-.17-2.95-.46-6.37-.06-9.32 9.62 6.83 19 14.76 31.21 15.28" fill="#fff"/><path d="M61.52 187.27c.18 1.16-.05 2.38 0 3.59l-4.34-.05c-.06-1.16.06-2.32.06-3.48l.12-.17 4.16.11" fill="#ffd500"/><path d="M152.67 193.88v1.62l-7.01-1.91c-.29 1.15-.52 2.43-1.62 3.07-1.45.23-2.95.52-4.4.05-1.39-.92-1.1-2.72-1.68-4.17-1.16-.05-2.2.76-3.19 1.28-.4-.23-.75-.58-.69-1.05l2.95-2.2c5.39.64 10.37 2.26 15.64 3.31"/><path d="M144.04 193.3c-.06.69-.12 1.44-.46 1.97-.93.52-2.15.52-3.01 0-.7-.7-.82-1.74-.7-2.61.06-.23.41-.06.58-.17l3.59.81" fill="#e30613"/><path d="M168.19 198.28c.46 1.5-.87 2.49-1.8 3.36-.34-.64-.29-1.45-.52-2.2l-1.74-1.39c.06-.41.7-.29.99-.47l1.21-.29c.64.23 1.39.35 1.86.99M118.16 202.56l9.78.93 1.05 1.62c-1.11.11-2.26-.17-3.42-.23l-9.27-.87c-1.44-.35-2.72-1.27-3.99-2.08-.06-.47 0-.87.35-1.16.34-.23.69-.06.98.11 1.39.93 2.78 1.68 4.52 1.68M145.84 202.68c.52 1.56.81 3.24 1.04 4.92-4.11-.23-8.05-.41-12.11-.7l-1.33-4.63c.06-.17-.11-.34.12-.52 3.99.41 8.11.52 12.28.93"/><path d="M144.21 204.07c.41.52.47 1.21.58 1.85-3.12 0-5.56-.35-8.68-.46l-.58-1.74.17-.23 8.51.58" fill="#e30613"/><path d="M126.21 233.66c0 .52-.18 1.04-.35 1.5l-13.09 2.03c-1.79.4-2.78 2.2-3.71 3.59l-6.42 10.25c-.47 0-.81-.46-1.34-.58l7.76-12.51c2.26-2.95 6.2-2.49 9.33-3.24 2.49-.41 5.21-.7 7.82-1.04"/><path d="M65.11 235.86c0 1.1-.98 1.91-1.27 2.89.35 1.04 1.45 1.39 2.08 2.26l3.71.06c4.46 2.95 8.34 6.37 12.62 9.55l10.49 8.57c-.24 1.91-.81 3.65-1.28 5.45l.18.23c1.96.06 4.22-.12 6.19-.23-1.91 3.59-4.17 7-6.31 10.42l-10.37 16.62c-1.33 1.91-2.43 3.99-3.82 5.85-1.39-.41-2.66-1.22-3.88-1.97l-.52-12.05c-.81-1.97-1.56-4.05-2.95-5.79l-3.48-3.18-2.08.17-.12.18c.99 1.79 1.74 3.64 1.97 5.67-1.62 1.68-2.43 3.65-3.01 5.79l.06.64c.98 2.2 1.85 4.46 2.72 6.71-1.51-1.04-3.18-1.96-4.52-3.06l.24-17.32c.11-12.1.4-25.82.58-38.21l.63-.29 2.14 1.04" fill="#e30613"/><path d="M65.17 299.9c.41.81.29 1.8.41 2.67v.28c-1.97 1.16-3.94 2.32-5.85 3.42-.17-2.32.12-4.4.06-6.83l.11-.12c1.86.12 3.53.41 5.27.58"/><path d="M63.78 301.17c.12.47.12 1.05-.11 1.4-.81.4-1.62.86-2.43 1.21-.06-.98-.06-1.91 0-2.84l.23-.11 2.31.34" fill="#e30613"/></svg>