<svg xmlns="http://www.w3.org/2000/svg" version="1.0" width="402.455" height="402.151"><defs><pattern id="a" patternTransform="translate(435.573 282.058)" height="24" width="24" patternUnits="userSpaceOnUse"><g stroke-linejoin="round"><path fill="#f0d53b" d="M435.573 282.058h24v24h-24z" transform="translate(-435.573 -282.058)"/><path d="M435.973 299.446h11v1.223h-11v-1.223zm0 2.445h11v1.222h-11v-1.222zm0 2.444h11v1.223h-11v-1.223zm0-9.777h11v1.222h-11v-1.222zm0 2.444h11v1.222h-11v-1.222zM447.973 287.446h11v1.223h-11v-1.223zm0 2.445h11v1.222h-11v-1.222zm0 2.444h11v1.223h-11v-1.223zm0-9.777h11v1.222h-11v-1.222zm0 2.444h11v1.222h-11v-1.222zM442.084 282.558v11h-1.222v-11h1.222zm-2.445 0v11h-1.222v-11h1.222zm-2.444 0v11h-1.222v-11h1.222zm9.778 0v11h-1.222v-11h1.222zm-2.445 0v11h-1.222v-11h1.222zM454.084 294.558v11h-1.222v-11h1.222zm-2.445 0v11h-1.222v-11h1.222zm-2.444 0v11h-1.222v-11h1.222zm9.778 0v11h-1.222v-11h1.222zm-2.445 0v11h-1.222v-11h1.222z" fill="#f0b459" transform="translate(-435.573 -282.058)"/></g></pattern></defs><g stroke="#000"><path d="M54.088 108.539l1.438 12.875-13.375 15.75-4.25 49.812 4.25 44.188.375 18.562 8.625 9.125c-3.103-6.671-5.32-13.828-5.125-21l1.187-43.812c.204-7.54 8.579-12.795 14.813-17.813L47.65 183.54c-.906-6.07 1.586-13.534 6.562-20l11.313-14.688-14.375 13.5c-2.642-9.013-2.499-20.27 4.187-28.937l9.63-20.799 10.87 36.674-19.562 90.875.437 37.312 18.188 45.688 2.437 14.5c-5.319-12.842-11.823-15.944-24.312-25.688l-.938-15.375-8.937-14.125.687 35.063-13.5-41.563-8.562-42.5c-1.779-8.841 2.661-16.517 8-26.125-5.82 4.937-11.836 11.9-15.438 19-6.806-10.444-14.423-25.18-1.125-37.187l14.688-13.25c-9.36 4.505-18.768 10.475-25.313 17.625l1.5-23.813c1.037-16.065 8.907-34.14 22.313-42.937l27.687-18.25z" fill="#094163" fill-rule="evenodd" stroke-width="1"/><path d="M54.457 119.756c-6.535 2.977-17.902 17.444-19.49 31.651-2.9 25.972 1.27 63.627 1.018 79.754-.196 12.534-6.707 32.14-6.976 48.516-.32 19.622 9.977 35.651 10.024 40.378.045 4.596-2.127 26.313-1.451 25.13 2.713-4.748 7.227-18.92 7.261-24.835.088-15.347-8.922-26.369-9.153-40.965-.247-15.6 7.3-29.159 7.12-46.625-.214-20.746-3.005-50.778-1.741-76.84.459-9.462 7.17-23.83 13.36-28.466l.028-7.698zm9.467-5.106c2.699 6.876 7.748 20.437 8.008 34.73.382 21.047-11.215 48.179-14.578 63.953-2.454 11.508-4.86 36.038-5.13 52.415-.32 19.622 17.247 48.811 20.762 59.24 1.554 4.611 2.87 7.426 4.643 13.232 2.507-7.826.623-14.591-1.09-18.682-7.588-18.118-17.608-33.535-17.633-54.082-.02-15.603 1.35-30.8 4.452-47.036 3.894-20.378 13.41-41.954 14.675-69.248.435-9.463-4.32-30.806-11.059-40.572l-3.05 6.05z" fill="#f0cb46" fill-rule="evenodd" stroke-width="2"/><path d="M75.611 131.293l-5.03 4.06m6.976 8.324l-5.305 4.061m5.067 8.376l-5.474 3.584m-30.914-5.11l-5.98 2.251m5.708 8.558l-6.082 2.185m5.89 9.27l-5.867 2.035m40.796-8.704l-6.139 2.565m2.69 10.958l-6.33 1.91M40.875 188.6l-6.252 2.284m33.797 6.232l-6.682 1.989m3.809 9.306l-6.93 1.82m-17.55-9.948l-5.732 2.012m6.569 8.039l-5.947 2.204m6.218 7.847l-6.003 2.306m26.268-2.306l-6.13 1.572m4.511 10.878l-6.13 1.9m-12.244-3.71l-6.149 1.956m5.798 9.442l-7.28 2.012m4.397 11.272l-6.84 1.165m26.923-10.196l-5.825 1.707m5.394 11.478l-6.139 1.539m-16.058 6.026l-6.321 1.03m5.01 10.775l-6.185 1.222m7.678 8.796l-6.152 4.497m28.406-21.636l-5.597 2.69m7.744 8.975l-4.613 3.233m8.955 8.46l-4.047 3.617m8.932 7.43l-3.799 3.472m8.684 6.896l-3.472 4.501m6.672 5.124l-3.303 3.818m-35.12-30.605l-5.98 5.732m9.124 5.507l-4.749 5.507m5.54 8.366l-5.381 2.555m5.338-184.501l-7.484 2.11" fill="none" stroke-width="2"/></g><g stroke="#000"><path d="M348.367 108.539l-1.437 12.875 13.375 15.75 4.25 49.812-4.25 44.188-.375 18.562-8.625 9.125c3.102-6.671 5.318-13.828 5.125-21l-1.188-43.812c-.204-7.54-8.579-12.795-14.812-17.813l14.375 7.313c.906-6.07-1.587-13.534-6.563-20l-11.312-14.688 14.375 13.5c2.641-9.013 2.498-20.27-4.188-28.937l-9.629-20.799-10.87 36.674 19.562 90.875-.438 37.312-18.187 45.688-2.438 14.5c5.32-12.842 11.823-15.944 24.313-25.688l.937-15.375 8.938-14.125-.688 35.063 13.5-41.563 8.563-42.5c1.778-8.841-2.662-16.517-8-26.125 5.819 4.937 11.836 11.9 15.437 19 6.806-10.444 14.423-25.18 1.125-37.187l-14.687-13.25c9.36 4.505 18.767 10.475 25.312 17.625l-1.5-23.813c-1.036-16.065-8.907-34.14-22.312-42.937l-27.688-18.25z" fill="#094163" fill-rule="evenodd" stroke-width="1"/><path d="M347.998 119.756c6.535 2.977 17.903 17.444 19.49 31.651 2.9 25.972-1.27 63.627-1.018 79.754.196 12.534 6.708 32.14 6.976 48.516.321 19.622-9.977 35.651-10.024 40.378-.045 4.596 2.128 26.313 1.451 25.13-2.713-4.748-7.227-18.92-7.26-24.835-.089-15.347 8.921-26.369 9.152-40.965.247-15.6-7.3-29.159-7.12-46.625.215-20.746 3.005-50.778 1.741-76.84-.459-9.462-7.17-23.83-13.36-28.466l-.028-7.698zm-9.467-5.106c-2.699 6.876-7.748 20.437-8.007 34.73-.382 21.047 11.214 48.179 14.577 63.953 2.454 11.508 4.861 36.038 5.13 52.415.32 19.622-17.246 48.811-20.761 59.24-1.554 4.611-2.872 7.426-4.643 13.232-2.508-7.826-.624-14.591 1.09-18.682 7.587-18.118 17.607-33.535 17.633-54.082.02-15.603-1.35-30.8-4.453-47.036-3.894-20.378-13.41-41.954-14.674-69.248-.435-9.463 4.32-30.806 11.058-40.572l3.05 6.05z" fill="#f0cb46" fill-rule="evenodd" stroke-width="2"/><path d="M326.844 131.293l5.03 4.06m-6.976 8.324l5.305 4.061m-5.067 8.376l5.474 3.584m30.914-5.11l5.98 2.251m-5.708 8.558l6.083 2.185m-5.891 9.27l5.867 2.035m-40.796-8.704l6.14 2.565m-2.691 10.958l6.33 1.91m24.743 2.984l6.25 2.284m-33.795 6.232l6.681 1.989m-3.809 9.306l6.93 1.82m17.55-9.948l5.733 2.012m-6.57 8.039l5.947 2.204m-6.218 7.847l6.003 2.306m-26.267-2.306l6.129 1.572m-4.51 10.878l6.128 1.9m12.246-3.71l6.148 1.956m-5.798 9.442l7.281 2.012m-4.398 11.272l6.84 1.165m-26.922-10.196l5.825 1.707m-5.395 11.478l6.139 1.539m16.058 6.026l6.321 1.03m-5.01 10.775l6.185 1.222m-7.678 8.796l6.152 4.497m-28.405-21.636l5.596 2.69m-7.744 8.975l4.613 3.233m-8.955 8.46l4.047 3.617m-8.932 7.43l3.8 3.472m-8.685 6.896l3.472 4.501m-6.672 5.124l3.303 3.818m35.12-30.605l5.98 5.732m-9.124 5.507l4.75 5.507m-5.54 8.366l5.38 2.555m-5.338-184.501l7.484 2.11" fill="none" stroke-width="2"/></g><g stroke="#000"><path d="M344.944 99.142c11.383 4.193 21.97 13.688 27.663 18.37 4.931 4.058 1.104 10.795-3.043 7.197-6.793-5.893-23.409-16.862-23.409-16.862l2.434 17.84 5.484 15.65c1.036 2.954-5.535 2.92-6.685-.71l-10.366-32.025c-2.375 7.344-8.496 18.94-11.852 27.97-1.3 3.499-7.454-1.091-6.383-3.83 2.314-5.919 11.067-29.003 10.948-34.22l15.21.62z" fill="#f0cb46" fill-rule="evenodd" stroke-width="1.824"/><path d="M354.901 104.253l-2.425 7.665m10.695-1.516l-2.988 6.928m10.566-1.213l-3.291 6.886m-47.805 8.486l7.102.477m-3.68-7.492l7.318.217m-4.634-8.357l7.752.78m-4.938-8.66l7.926.649m9.831 29.268l6.239-.347m-8.665-8.49h5.892" fill="none" stroke-width="2"/><g><path d="M346.76 90.743c11.352 5.054 24.027 12.845 29.705 18.49 4.918 4.89-.41 11.914-4.547 7.577-6.775-7.102-25.764-16.67-25.764-16.67l3.334 25.157 10.609 16.671c1.903 2.991-4.215 4.388-6.365.606l-8.79-15.458-13.64-26.067c-2.37 8.852-8.17 20.637-11.518 31.523-1.297 4.216-7.736.876-6.668-2.425 2.308-7.135 13.455-29.48 13.336-35.766l20.308-3.638z" fill="#f0cb46" fill-rule="evenodd" stroke-width="2"/><path d="M324.937 103.474l4.85-.606m43.04 3.637l-3.377 7.794m-6.669-14.81l-2.468 8.055m-6.797-13.337l-2.21 7.751m-37.195 26.76l6.279-.086m-2.729-8.834l6.366.043m-2.511-8.833l6.149.65m25.077 29.139l5.892-.693m-10.917-7.972h6.065" fill="none" stroke-width="2"/></g></g><path d="M171.28 344.778c-30.238-1.176-57.002-10.456-82.198-23.395 21.505 6.082 43.173 12.877 68.288 13.91-30.078-2.957-50.895-11.636-72.082-23.395 18.78 5.059 36.75 9.697 58.803 12.014-22.422-3.632-42.856-11.801-61.964-21.498 16.777 5.405 34.522 9.857 51.215 11.381-18.983-2.682-38.433-10.812-53.744-20.865 14.833 5.612 29.886 10.577 44.26 10.749-17.18-2.94-33.655-10.969-46.79-21.498 13.114 5.809 26.978 11.26 40.467 12.013-17.471-4.866-30.386-12.164-43.628-22.13 12.192 5.71 25.217 9.67 37.305 11.381-16.014-3.763-28.063-11.511-38.57-22.13 11.627 4.798 22.858 11.375 35.409 12.014-14.847-3.71-27.581-11.69-37.938-22.13 10.888 5.226 21.79 10.408 34.144 10.748-14.855-3.229-24.961-9.888-34.776-21.498 9.968 6.061 18.85 10.116 30.982 11.382-14.137-3.347-23.192-9.312-31.614-22.13 9.186 6.854 19.031 11.291 29.717 12.645-12.516-3.567-22.813-11.306-29.085-23.395 7.905 7.416 16.448 13.707 27.82 15.175-13.392-4.238-21.195-14.324-25.923-25.291 7.325 7.96 15.274 14.908 26.556 16.44-14.133-5.43-21.321-14.347-25.292-25.292 6.484 8.61 14.808 14.462 25.292 17.072-12.954-5.901-19.801-15.16-22.762-26.557 5.41 8.947 13.117 15.39 24.027 18.337-11.9-5.548-19.33-14.144-20.234-27.189 5.065 8.658 11.936 15.309 21.498 18.969-11.589-6.956-14.96-17.566-17.704-28.453 5.418 7.95 10.642 16.161 18.969 20.233-8.995-9.426-10.547-18.232-13.91-27.188 4.71 6.963 8.863 14.392 16.439 18.968-7.638-8.725-8.909-17.98-10.749-27.188 3.273 5.901 7.17 11.803 13.91 17.704-5.506-8.009-8.083-16.018-7.587-24.027 3.227 5.72 5.855 12.159 11.45 15.036-5.058-7.396-5.001-13.654-5.76-20.094 2.266 5.088 5.11 9.598 9.367 12.694-2.574-5.707-3.6-11.414-3.676-17.12 2.126 4.049 4.147 8.202 7.727 10.797-3.064-5.174-3.055-9.91-2.668-14.591 1.624 3.232 3.124 6.525 5.711 9.276-1.765-4.588-2.38-8.847-.653-12.438 1.303 2.687 2.304 5.936 4.072 7.872-1.479-4.088-2.156-7.888.986-11.665l2.995 6.982c.161-3.855.245-7.75 3.328-10.144l38.57 217.509z" fill="#197351" fill-rule="evenodd" stroke="#000"/><g stroke="#000"><path d="M57.51 99.142c-11.382 4.193-21.969 13.688-27.662 18.37-4.93 4.058-1.104 10.795 3.044 7.197 6.792-5.893 23.408-16.862 23.408-16.862l-2.434 17.84-5.484 15.65c-1.036 2.954 5.535 2.92 6.685-.71l10.366-32.025c2.375 7.344 8.496 18.94 11.852 27.97 1.3 3.499 7.454-1.091 6.383-3.83-2.314-5.919-11.066-29.003-10.947-34.22l-15.21.62z" fill="#f0cb46" fill-rule="evenodd" stroke-width="1.824"/><path d="M47.554 104.253l2.425 7.665m-10.695-1.516l2.988 6.928m-10.566-1.213l3.291 6.886m47.805 8.486l-7.102.477m3.68-7.492l-7.317.217m4.633-8.357l-7.751.78m4.937-8.66l-7.926.649m-9.831 29.268l-6.238-.347m8.664-8.49h-5.892" fill="none" stroke-width="2"/><g><path d="M55.695 90.743c-11.352 5.054-24.027 12.845-29.704 18.49-4.918 4.89.41 11.914 4.546 7.577 6.775-7.102 25.764-16.67 25.764-16.67l-3.334 25.157-10.609 16.671c-1.903 2.991 4.215 4.388 6.366.606l8.79-15.458 13.64-26.067c2.368 8.852 8.17 20.637 11.517 31.523 1.297 4.216 7.736.876 6.669-2.425-2.309-7.135-13.456-29.48-13.337-35.766l-20.308-3.638z" fill="#f0cb46" fill-rule="evenodd" stroke-width="2"/><path d="M77.519 103.474l-4.85-.606m-43.041 3.637l3.378 7.794m6.668-14.81l2.468 8.055m6.798-13.337l2.208 7.751m37.196 26.76l-6.279-.086m2.729-8.834l-6.366.043m2.512-8.833l-6.15.65m-25.077 29.139l-5.892-.693m10.918-7.972h-6.065" fill="none" stroke-width="2"/></g></g><path d="M231.726 344.778c30.237-1.176 57.002-10.456 82.198-23.395-21.505 6.082-43.174 12.877-68.288 13.91 30.078-2.957 50.895-11.636 72.081-23.395-18.779 5.059-36.75 9.697-58.803 12.014 22.422-3.632 42.857-11.801 61.965-21.498-16.778 5.405-34.522 9.857-51.216 11.381 18.984-2.682 38.434-10.812 53.745-20.865-14.833 5.612-29.886 10.577-44.26 10.749 17.18-2.94 33.654-10.969 46.79-21.498-13.114 5.809-26.978 11.26-40.467 12.013 17.471-4.866 30.386-12.164 43.628-22.13-12.192 5.71-25.217 9.67-37.305 11.381 16.013-3.763 28.062-11.511 38.57-22.13-11.627 4.798-22.858 11.375-35.409 12.014 14.847-3.71 27.58-11.69 37.938-22.13-10.889 5.226-21.79 10.408-34.144 10.748 14.855-3.229 24.961-9.888 34.776-21.498-9.968 6.061-18.85 10.116-30.983 11.382 14.138-3.347 23.193-9.312 31.615-22.13-9.186 6.854-19.031 11.291-29.718 12.645 12.516-3.567 22.814-11.306 29.086-23.395-7.905 7.416-16.448 13.707-27.821 15.175 13.393-4.238 21.196-14.324 25.924-25.291-7.325 7.96-15.274 14.908-26.556 16.44 14.133-5.43 21.32-14.347 25.291-25.292-6.483 8.61-14.807 14.462-25.291 17.072 12.954-5.901 19.8-15.16 22.762-26.557-5.41 8.947-13.117 15.39-24.027 18.337 11.9-5.548 19.33-14.144 20.233-27.189-5.064 8.658-11.935 15.309-21.498 18.969 11.59-6.956 14.96-17.566 17.705-28.453-5.418 7.95-10.642 16.161-18.97 20.233 8.996-9.426 10.548-18.232 13.911-27.188-4.71 6.963-8.864 14.392-16.44 18.968 7.639-8.725 8.91-17.98 10.75-27.188-3.274 5.901-7.17 11.803-13.91 17.704 5.505-8.009 8.083-16.018 7.587-24.027-3.227 5.72-5.855 12.159-11.451 15.036 5.058-7.396 5.002-13.654 5.76-20.094-2.265 5.088-5.108 9.598-9.366 12.694 2.574-5.707 3.6-11.414 3.676-17.12-2.126 4.049-4.148 8.202-7.727 10.797 3.063-5.174 3.055-9.91 2.668-14.591-1.624 3.232-3.124 6.525-5.712 9.276 1.766-4.588 2.38-8.847.654-12.438-1.303 2.687-2.304 5.936-4.072 7.872 1.479-4.088 2.156-7.888-.986-11.665l-2.995 6.982c-.162-3.855-.246-7.75-3.328-10.144l-38.57 217.509z" fill="#197351" fill-rule="evenodd" stroke="#000"/><path d="M201.224 225.872v134.114l-55.73-40.27-32.72-42.428-10.787-52.495 99.237 1.079z" fill="#fff" fill-rule="evenodd"/><path d="M141.93 285.539c-5.705 0-11.42 1.49-17.125 2.5 1.327 2.19 2.703 4.32 4.187 6.438 4.315-.853 8.623-1.75 12.938-1.75 6.472 0 12.965 2.874 19.437 2.875 6.472 0 12.903-2.875 19.375-2.875 6.472 0 14.119 1.916 20.59 2.875v-7.188c-6.471-.959-14.118-2.875-20.59-2.875-6.472 0-12.903 2.875-19.375 2.875-6.472 0-12.965-2.875-19.437-2.875zm0 16.563c-2.206 0-4.42.23-6.625.562 1.899 2.256 3.898 4.481 6 6.625.207-.004.417 0 .625 0 6.472 0 12.965 2.875 19.437 2.875 6.472 0 12.903-2.875 19.375-2.875 6.472 0 14.119 1.916 20.59 2.875v-7.187c-6.471-.96-14.118-2.875-20.59-2.875-6.472 0-12.903 2.875-19.375 2.875-6.472 0-12.965-2.875-19.437-2.875zm39.562 16.875c-6.472 0-12.965 2.875-19.437 2.875-2.752 0-5.499-.528-8.25-1.125 3.227 2.704 6.728 5.444 10.312 8.187 5.787-.487 11.588-2.75 17.375-2.75 6.472 0 14.056 1.916 20.528 2.875v-7.187c-6.472-.96-14.056-2.875-20.528-2.875zm-.75 17.25c-1.97 0-3.905.316-5.875.687a539.197 539.197 0 009.688 6.75c5.207.515 11.57 1.916 16.778 2.688v-7.25c-6.472-.96-14.119-2.875-20.59-2.875z" fill="#45d" fill-rule="evenodd" stroke="#000"/><g stroke="#000"><path d="M151.693 238.17l-21.138 2.217-2.275 1.829.867-3.715c.378-1.617 1.562-2.726 4.205-2.949l19.945-1.685-1.604 4.303z" fill="#fff" fill-rule="evenodd" stroke-width="1" stroke-miterlimit="4.5"/><path d="M150.114 248.828c-4.483-2.434-13.113-4.071-16.716.192-3.685 4.359-3.26 10.907-.769 17.1l5.909 16.798-7.83 19.709 2.387 1.753 10.468-17.103-7.653 19.14 3.367 2.65 10.141-18.816-7 20.772 3.469 2.363 11.733-13.298s9.342 10.638 12.656 13.298c2.248 1.805 5.315.06 4.118-2.205l-8.821-19.708 11.528 18.243c1.729 2.098 5.3.01 3.4-2.479l-8.963-18.697 11.334 16.525c1.07 1.708 3.734-.19 2.583-2.438l-8.646-19.79 6.725-16.717c2.491-6.193 2.916-12.741-.769-17.1-3.603-4.263-12.233-2.626-16.716-.192l.23-11.913c.157-8.098-10.621-10.593-13.485-3.092l-1.13 4.419-1.55 10.586z" fill="#094163" fill-rule="evenodd" stroke-width="1"/><path d="M149.975 255.897c2.03-5.523 14.071-5.318 16.197 0 2.389 5.973 0 13.518 0 13.518-5.399 1.864-10.798 1.366-16.197 0 0 0-1.94-8.236 0-13.518z" fill="#fff" stroke-width=".934" stroke-linecap="round" stroke-linejoin="round"/><path d="M125.93 273.414v9.25h26.937v46.437h9.313v-46.437h26.625v-9.25H125.93z" fill="#c22e2b" stroke-width=".954" stroke-linecap="round" stroke-linejoin="round"/><path d="M161.766 234.719a2.082 2.082 0 11-4.164 0 2.082 2.082 0 114.164 0z" fill="#fff" stroke-width="1" stroke-linecap="round" stroke-linejoin="round" stroke-miterlimit="4.5"/></g><path d="M200.535 225.872v134.114l55.73-40.27 32.72-42.428 10.787-52.495-99.237 1.079z" fill="#45d" fill-rule="evenodd" stroke="#000"/><path d="M102.484 226.01H298.01l-4.24-38.68-18.545-41.332-18.016-22.255-56.697 3.71-56.698-4.77-23.844 32.323-13.777 33.383-3.71 37.621z" fill="#f7e13b" fill-rule="evenodd" stroke="#000" stroke-width="2"/><path d="M144.907 121.666v4.75h1.25v-4.657l-1.25-.093zm-1.22.062l-1.218 1.656v3.032h1.219v-4.688zm3.688.156v4.532h1.22v-4.438l-1.22-.093zm2.438.188v4.344h1.219v-4.25l-1.22-.094zm2.219.687v1.22h11v-.782l-5.032-.438h-5.968zm103.28 0l-7.28.47v.75h10.28l-1-1.22h-2zm-91.28.5v3.157h1.218v-3.063l-1.218-.094zm83 .032l-1.22.093v3.032h1.22v-3.125zm-2.438.156l-1.219.094v2.875h1.22v-2.97zm-78.125.031v2.938h1.219v-2.844l-1.219-.094zm75.688.125l-1.25.094v2.719h1.25v-2.813zm-73.25.063v2.75h1.25v-2.625l-1.25-.125zm70.78.093l-1.218.094v2.563h1.219v-2.657zm-68.312.125v2.532h1.22v-2.438l-1.22-.094zm65.875.063l-1.218.062v2.407h1.218v-2.47zm-63.437.125v2.344h1.219v-2.22l-1.22-.124zm49.219.781l-1.22.094v1.469h1.22v-1.563zm-2.438.156l-1.219.094v1.313h1.22v-1.407zm-79.344.032l-1 1.375h1v-1.375zm76.907.125l-1.25.093v1.157h1.25v-1.25zm-66.125.03v1.22h11v-1.22h-11zm24 0v1.22h11v-1.22h-11zm48 0v1.22h11v-1.22h-11zm24 0v1.22h11v-1.22h-11zm-60 .095v1.125h1.218v-1.032l-1.218-.093zm27.656.03l-1.219.094v1h1.219v-1.093zm-25.219.157v.938h1.219v-.844l-1.219-.094zm22.781.031l-1.218.063v.843h1.218v-.906zm-2.218.125l-10.5.688-.5-.031v.125h11v-.781zm-18.125.063v.719h1.25v-.625l-1.25-.094zm2.468.187v.532h1.22v-.438l-1.22-.093zm2.438.22v.312h1.219v-.219l-1.22-.094zm62.219 0v.312h.25l-.25-.313zm-120 1.312v1.218h11v-1.218h-11zm12 0v11h1.218v-11h-1.218zm2.437 0v11h1.219v-11h-1.219zm2.438 0v11h1.25v-11h-1.25zm2.468 0v11h1.22v-11h-1.22zm2.438 0v11h1.219v-11h-1.22zm2.219 0v1.218h11v-1.218h-11zm12 0v11h1.218v-11h-1.218zm2.437 0v11h1.219v-11h-1.219zm2.438 0v11h1.25v-11h-1.25zm2.468 0v11h1.22v-11h-1.22zm2.438 0v11h1.219v-11h-1.22zm2.219 0v1.218h11v-1.218h-11zm12 0v11h1.218v-11h-1.218zm2.437 0v11h1.219v-11h-1.219zm2.438 0v11h1.25v-11h-1.25zm2.468 0v11h1.22v-11h-1.22zm2.438 0v11h1.219v-11h-1.22zm2.219 0v1.218h11v-1.218h-11zm12 0v11h1.218v-11h-1.218zm2.437 0v11h1.219v-11h-1.219zm2.438 0v11h1.25v-11h-1.25zm2.468 0v11h1.22v-11h-1.22zm2.438 0v11h1.219v-11h-1.22zm2.219 0v1.218h11v-1.218h-11zm12 0v11h1.218v-11h-1.218zm2.437 0v11h1.219v-11h-1.219zm2.438 0v11h1.25v-11h-1.25zm2.468 0v11h1.22v-11h-1.22zm2.438 0v11h1.219v-11h-1.22zm2.219 0v1.218h2.03l-.968-1.218h-1.062zm-121 .625l-1.22 1.656v8.719h1.22V128.04zm1 1.812v1.219h11v-1.219h-11zm24 0v1.219h11v-1.219h-11zm24 0v1.219h11v-1.219h-11zm24 0v1.219h11v-1.219h-11zm24 0v1.219h11v-1.219h-11zm24 0v1.219h4l-.97-1.219h-3.03zm-123.438 1.5l-1.219 1.656v5.407h1.22v-7.063zm3.438.938v1.25h11v-1.25h-11zm24 0v1.25h11v-1.25h-11zm24 0v1.25h11v-1.25h-11zm24 0v1.25h11v-1.25h-11zm24 0v1.25h11v-1.25h-11zm24 0v1.25h6l-1-1.25h-5zm-125.875 2.375l-1.25 1.687v2.063h1.25v-3.75zm5.875.093v1.22h11v-1.22h-11zm24 0v1.22h11v-1.22h-11zm24 0v1.22h11v-1.22h-11zm24 0v1.22h11v-1.22h-11zm24 0v1.22h11v-1.22h-11zm24 0v1.22H268l-.968-1.22h-7zm-120 2.438v1.219h11v-1.22h-11zm24 0v1.219h11v-1.22h-11zm24 0v1.219h11v-1.22h-11zm24 0v1.219h11v-1.22h-11zm24 0v1.219h11v-1.22h-11zm24 0v1.219H270l-1-1.22h-8.968zm-128.344.812l-.313.407h.313v-.407zm-1.031 1.407l-.907 1.218h9.282v-1.218h-8.375zm9.375 0v11h1.218v-11h-1.218zm2.437 0v11h1.219v-11h-1.219zm2.438 0v11h1.25v-11h-1.25zm2.468 0v11h1.22v-11h-1.22zm2.438 0v11h1.219v-11h-1.22zm2.219 0v1.218h11v-1.218h-11zm12 0v11h1.218v-11h-1.218zm2.437 0v11h1.219v-11h-1.219zm2.438 0v11h1.25v-11h-1.25zm2.468 0v11h1.22v-11h-1.22zm2.438 0v11h1.219v-11h-1.22zm2.219 0v1.218h11v-1.218h-11zm12 0v11h1.218v-11h-1.218zm2.437 0v11h1.219v-11h-1.219zm2.438 0v11h1.25v-11h-1.25zm2.468 0v11h1.22v-11h-1.22zm2.438 0v11h1.219v-11h-1.22zm2.219 0v1.218h11v-1.218h-11zm12 0v11h1.218v-11h-1.218zm2.437 0v11h1.219v-11h-1.219zm2.438 0v11h1.25v-11h-1.25zm2.468 0v11h1.22v-11h-1.22zm2.438 0v11h1.219v-11h-1.22zm2.219 0v1.218h11v-1.218h-11zm12 0v11h1.218v-11h-1.218zm2.437 0v11h1.219v-11h-1.219zm2.438 0v11h1.25v-11h-1.25zm2.468 0v11h1.22v-11h-1.22zm2.438 0v11h1.219v-11h-1.22zm2.219 0v1.218h11v-1.218h-11zm12 0v11h1.218v-11h-1.218zm2.437 0v11h1.219v-11h-1.219zm2.438 0v11h1.25v-11h-1.25zm2.468 0v11h1.22v-11h-1.22zm2.438 0v11h1.219v-10.72l-.25-.28h-.97zm-140.969 2.437l-.812 1.094v.125h11v-1.219h-10.188zm23.188 0v1.219h11v-1.219h-11zm24 0v1.219h11v-1.219h-11zm24 0v1.219h11v-1.219h-11zm24 0v1.219h11v-1.219h-11zm24 0v1.219h11v-1.219h-11zm24 0v1.219h1.718l-.968-1.219h-.75zm-144 2.438v1.25h11v-1.25h-11zm24 0v1.25h11v-1.25h-11zm24 0v1.25h11v-1.25h-11zm24 0v1.25h11v-1.25h-11zm24 0v1.25h11v-1.25h-11zm24 0v1.25h11v-1.25h-11zm24 0v1.25h3.468l-.28-.657-.47-.593h-2.718zm-145 .03l-1.22 1.657v4.438h1.22v-6.094zm1 2.438v1.22h11v-1.22h-11zm24 0v1.22h11v-1.22h-11zm24 0v1.22h11v-1.22h-11zm24 0v1.22h11v-1.22h-11zm24 0v1.22h11v-1.22h-11zm24 0v1.22h11v-1.22h-11zm24 0v1.22h4.562l-.531-1.22h-4.031zm-147.438.844l-1.219 1.656v1.157h1.22v-2.813zm3.438 1.594v1.219h11v-1.22h-11zm24 0v1.219h11v-1.22h-11zm24 0v1.219h11v-1.22h-11zm24 0v1.219h11v-1.22h-11zm24 0v1.219h11v-1.22h-11zm24 0v1.219h11v-1.22h-11zm24 0v1.219h5.656l-.531-1.22h-5.125zm-150.25 2.219l-.875 1.218h6.125v-1.218h-5.25zm6.25 0v11h1.218v-11h-1.218zm2.437 0v11h1.219v-11h-1.219zm2.438 0v11h1.25v-11h-1.25zm2.468 0v11h1.22v-11h-1.22zm2.438 0v11h1.219v-11h-1.22zm2.219 0v1.218h11v-1.218h-11zm12 0v11h1.218v-11h-1.218zm2.437 0v11h1.219v-11h-1.219zm2.438 0v11h1.25v-11h-1.25zm2.468 0v11h1.22v-11h-1.22zm2.438 0v11h1.219v-11h-1.22zm2.219 0v1.218h11v-1.218h-11zm12 0v11h1.218v-11h-1.218zm2.437 0v11h1.219v-11h-1.219zm2.438 0v11h1.25v-11h-1.25zm2.468 0v11h1.22v-11h-1.22zm2.438 0v11h1.219v-11h-1.22zm2.219 0v1.218h11v-1.218h-11zm12 0v11h1.218v-11h-1.218zm2.437 0v11h1.219v-11h-1.219zm2.438 0v11h1.25v-11h-1.25zm2.468 0v11h1.22v-11h-1.22zm2.438 0v11h1.219v-11h-1.22zm2.219 0v1.218h11v-1.218h-11zm12 0v11h1.218v-11h-1.218zm2.437 0v11h1.219v-11h-1.219zm2.438 0v11h1.25v-11h-1.25zm2.468 0v11h1.22v-11h-1.22zm2.438 0v11h1.219v-11h-1.22zm2.219 0v1.218h11v-1.218h-11zm12 0v11h1.218v-11h-1.218zm2.437 0v11h1.219v-11h-1.219zm2.438 0v11h1.25v-11h-1.25zm2.468 0v11h1.22v-11h-1.22zm2.438 0v11h1.219v-11h-1.22zm2.219 0v1.218h11v-1.218h-11zm12 0v11h1.218v-11h-1.218zm2.437 0v11h1.219v-11h-1.219zm2.438 0v11h1.25v-11h-1.25zM120 153.853l-.03.031-.5 1.188h7.562v-1.219H120zm20.032 0v1.219h11v-1.219h-11zm24 0v1.219h11v-1.219h-11zm24 0v1.219h11v-1.219h-11zm24 0v1.219h11v-1.219h-11zm24 0v1.219h11v-1.219h-11zm24 0v1.219h11v-1.219h-11zm19.343.281v8.282h1.22v-5.563l-1.22-2.719zm-160.406 2.157l-.5 1.25h8.563v-1.25h-8.063zm21.063 0v1.25h11v-1.25h-11zm24 0v1.25h11v-1.25h-11zm24 0v1.25h11v-1.25h-11zm24 0v1.25h11v-1.25h-11zm24 0v1.25h11v-1.25h-11zm24 0v1.25h11v-1.25h-11zm-142.063 2.468l-.531 1.22h9.594v-1.22h-9.063zm22.063 0v1.22h11v-1.22h-11zm24 0v1.22h11v-1.22h-11zm24 0v1.22h11v-1.22h-11zm24 0v1.22h11v-1.22h-11zm24 0v1.22h11v-1.22h-11zm24 0v1.22h11v-1.22h-11zm21.78.813v2.844h1.22v-.125l-1.22-2.72zm-164.874 1.625l-.5 1.219h10.594v-1.22h-10.094zm23.094 0v1.219h11v-1.22h-11zm24 0v1.219h11v-1.22h-11zm24 0v1.219h11v-1.22h-11zm24 0v1.219h11v-1.22h-11zm24 0v1.219h11v-1.22h-11zm24 0v1.219h11v-1.22h-11zm-144 2.219v11h1.218v-11h-1.218zm2.437 0v11h1.219v-11h-1.219zm2.438 0v11h1.25v-11h-1.25zm2.468 0v11h1.22v-11h-1.22zm2.438 0v11h1.219v-11h-1.22zm2.219 0v1.218h11v-1.218h-11zm12 0v11h1.218v-11h-1.218zm2.437 0v11h1.219v-11h-1.219zm2.438 0v11h1.25v-11h-1.25zm2.468 0v11h1.22v-11h-1.22zm2.438 0v11h1.219v-11h-1.22zm2.219 0v1.218h11v-1.218h-11zm12 0v11h1.218v-11h-1.218zm2.437 0v11h1.219v-11h-1.219zm2.438 0v11h1.25v-11h-1.25zm2.468 0v11h1.22v-11h-1.22zm2.438 0v11h1.219v-11h-1.22zm2.219 0v1.218h11v-1.218h-11zm12 0v11h1.218v-11h-1.218zm2.437 0v11h1.219v-11h-1.219zm2.438 0v11h1.25v-11h-1.25zm2.468 0v11h1.22v-11h-1.22zm2.438 0v11h1.219v-11h-1.22zm2.219 0v1.218h11v-1.218h-11zm12 0v11h1.218v-11h-1.218zm2.437 0v11h1.219v-11h-1.219zm2.438 0v11h1.25v-11h-1.25zm2.468 0v11h1.22v-11h-1.22zm2.438 0v11h1.219v-11h-1.22zm2.219 0v1.218h11v-1.218h-11zm12 0v11h1.218v-11h-1.218zm2.437 0v11h1.219v-11h-1.219zm2.438 0v11h1.25v-11h-1.25zm2.468 0v11h1.22v-11h-1.22zm2.438 0v11h1.219v-11h-1.22zm2.219 0v1.218h11v-1.218h-11zm12 0v11h1.218v-11h-1.218zm2.437 0v11h1.219v-11h-1.219zm2.438 0v11h1.25v-11h-1.25zm2.468 0v11h1.22v-11h-1.22zm2.438 0v11h1.219v-11h-1.22zm2.219 0v1.218h11v-1.218h-11zm12 1.093v9.907h1.218v-7.188l-1.218-2.719zm-169 1.344l-.5 1.219h.5v-1.219zm13 0v1.219h11v-1.219h-11zm24 0v1.219h11v-1.219h-11zm24 0v1.219h11v-1.219h-11zm24 0v1.219h11v-1.219h-11zm24 0v1.219h11v-1.219h-11zm24 0v1.219h11v-1.219h-11zm24 0v1.219h11v-1.219h-11zm-158 2.438l-.532 1.25h1.532v-1.25h-1zm14 0v1.25h11v-1.25h-11zm24 0v1.25h11v-1.25h-11zm24 0v1.25h11v-1.25h-11zm24 0v1.25h11v-1.25h-11zm24 0v1.25h11v-1.25h-11zm24 0v1.25h11v-1.25h-11zm24 0v1.25h11v-1.25h-11zm14.437 1.656v4.469h1.219v-1.75l-1.219-2.72zM113 170.759l-.5 1.22h2.532v-1.22H113zm15.032 0v1.22h11v-1.22h-11zm24 0v1.22h11v-1.22h-11zm24 0v1.22h11v-1.22h-11zm24 0v1.22h11v-1.22h-11zm24 0v1.22h11v-1.22h-11zm24 0v1.22h11v-1.22h-11zm24 0v1.22h11v-1.22h-11zM112 173.197l-.5 1.219h3.532v-1.22H112zm16.032 0v1.219h11v-1.22h-11zm24 0v1.219h11v-1.22h-11zm24 0v1.219h11v-1.22h-11zm24 0v1.219h11v-1.22h-11zm24 0v1.219h11v-1.22h-11zm24 0v1.219h11v-1.22h-11zm24 0v1.219h11v-1.22h-11zm-160.657 2.219v11h1.22v-11h-1.22zm2.438 0v11h1.219v-11h-1.22zm2.219 0v1.218h11v-1.218h-11zm12 0v11h1.218v-11h-1.218zm2.437 0v11h1.219v-11h-1.219zm2.438 0v11h1.25v-11h-1.25zm2.468 0v11h1.22v-11h-1.22zm2.438 0v11h1.219v-11h-1.22zm2.219 0v1.218h11v-1.218h-11zm12 0v11h1.218v-11h-1.218zm2.437 0v11h1.219v-11h-1.219zm2.438 0v11h1.25v-11h-1.25zm2.468 0v11h1.22v-11h-1.22zm2.438 0v11h1.219v-11h-1.22zm2.219 0v1.218h11v-1.218h-11zm12 0v11h1.218v-11h-1.218zm2.437 0v11h1.219v-11h-1.219zm2.438 0v11h1.25v-11h-1.25zm2.468 0v11h1.22v-11h-1.22zm2.438 0v11h1.219v-11h-1.22zm2.219 0v1.218h11v-1.218h-11zm12 0v11h1.218v-11h-1.218zm2.437 0v11h1.219v-11h-1.219zm2.438 0v11h1.25v-11h-1.25zm2.468 0v11h1.22v-11h-1.22zm2.438 0v11h1.219v-11h-1.22zm2.219 0v1.218h11v-1.218h-11zm12 0v11h1.218v-11h-1.218zm2.437 0v11h1.219v-11h-1.219zm2.438 0v11h1.25v-11h-1.25zm2.468 0v11h1.22v-11h-1.22zm2.438 0v11h1.219v-11h-1.22zm2.219 0v1.218h11v-1.218h-11zm12 0v11h1.218v-11h-1.218zm2.437 0v11h1.219v-11h-1.219zm2.438 0v11h1.25v-11h-1.25zm2.468 0v11h1.22v-11h-1.22zm2.438 0v11h1.219v-11h-1.22zm2.219 0v1.218h11v-1.218h-11zm12 0v11h1.218v-11h-1.218zm2.437 0v11h1.219v-11h-1.219zm2.438 0v11h1.25v-11h-1.25zm2.468 0v11h1.22v-11h-1.22zm2.438 0v11h1.219v-11h-1.22zm2.219 0v1.218h5.437l-.531-1.218h-4.906zm-173.875 2.218l-1.25 3.032v5.75h1.25v-8.782zm5.875.22v1.218h11v-1.219h-11zm24 0v1.218h11v-1.219h-11zm24 0v1.218h11v-1.219h-11zm24 0v1.218h11v-1.219h-11zm24 0v1.218h11v-1.219h-11zm24 0v1.218h11v-1.219h-11zm24 0v1.218h11v-1.219h-11zm24 0v1.218h6.53l-.53-1.219h-6zm-168 2.437v1.25h11v-1.25h-11zm24 0v1.25h11v-1.25h-11zm24 0v1.25h11v-1.25h-11zm24 0v1.25h11v-1.25h-11zm24 0v1.25h11v-1.25h-11zm24 0v1.25h11v-1.25h-11zm24 0v1.25h11v-1.25h-11zm24 0v1.25h7.656l-.563-1.25h-7.093zm-168 2.468v1.22h11v-1.22h-11zm24 0v1.22h11v-1.22h-11zm24 0v1.22h11v-1.22h-11zm24 0v1.22h11v-1.22h-11zm24 0v1.22h11v-1.22h-11zm24 0v1.22h11v-1.22h-11zm24 0v1.22h11v-1.22h-11zm24 0v1.22h8.75l-.563-1.22h-8.187zm-176.344.875l-1.156 2.782h1.156v-2.782zm8.344 1.563v1.219h11v-1.22h-11zm24 0v1.219h11v-1.22h-11zm24 0v1.219h11v-1.22h-11zm24 0v1.219h11v-1.22h-11zm24 0v1.219h11v-1.22h-11zm24 0v1.219h11v-1.22h-11zm24 0v1.219h11v-1.22h-11zm24 0v1.219h9.78l-.03-.188-.47-1.031h-9.28zm-177.844 2.219l-.125 1.218h8.969v-1.218h-8.844zm9.844 0v11h1.218v-11h-1.218zm2.437 0v11h1.219v-11h-1.219zm2.438 0v11h1.25v-11h-1.25zm2.468 0v11h1.22v-11h-1.22zm2.438 0v11h1.219v-11h-1.22zm2.219 0v1.218h11v-1.218h-11zm12 0v11h1.218v-11h-1.218zm2.437 0v11h1.219v-11h-1.219zm2.438 0v11h1.25v-11h-1.25zm2.468 0v11h1.22v-11h-1.22zm2.438 0v11h1.219v-11h-1.22zm2.219 0v1.218h11v-1.218h-11zm12 0v11h1.218v-11h-1.218zm2.437 0v11h1.219v-11h-1.219zm2.438 0v11h1.25v-11h-1.25zm2.468 0v11h1.22v-11h-1.22zm2.438 0v11h1.219v-11h-1.22zm2.219 0v1.218h11v-1.218h-11zm12 0v11h1.218v-11h-1.218zm2.437 0v11h1.219v-11h-1.219zm2.438 0v11h1.25v-11h-1.25zm2.468 0v11h1.22v-11h-1.22zm2.438 0v11h1.219v-11h-1.22zm2.219 0v1.218h11v-1.218h-11zm12 0v11h1.218v-11h-1.218zm2.437 0v11h1.219v-11h-1.219zm2.438 0v11h1.25v-11h-1.25zm2.468 0v11h1.22v-11h-1.22zm2.438 0v11h1.219v-11h-1.22zm2.219 0v1.218h11v-1.218h-11zm12 0v11h1.218v-11h-1.218zm2.437 0v11h1.219v-11h-1.219zm2.438 0v11h1.25v-11h-1.25zm2.468 0v11h1.22v-11h-1.22zm2.438 0v11h1.219v-11h-1.22zm2.219 0v1.218h11v-1.218h-11zm12 0v11h1.218v-11h-1.218zm2.437 0v11h1.219v-11h-1.219zm2.438 0v11h1.25v-11h-1.25zm2.468 0v11h1.22v-11h-1.22zm2.438 0v11h1.219v-11h-1.22zm2.219 0v1.218h11v-1.218h-11zm12 0v11h1.218v-11h-1.218zm2.437 0v11h1.219v-11h-1.219zm2.438 0v11h1.25v-11h-1.25zm2.468 0v11h1.22v-11h-1.22zm2.438 0v11h1.219v-.813l-1.125-10.187h-.094zm-187.875 2.437l-.125 1.219h9.219v-1.219h-9.094zm22.094 0v1.219h11v-1.219h-11zm24 0v1.219h11v-1.219h-11zm24 0v1.219h11v-1.219h-11zm24 0v1.219h11v-1.219h-11zm24 0v1.219h11v-1.219h-11zm24 0v1.219h11v-1.219h-11zm24 0v1.219h11v-1.219h-11zm-166.344 2.438l-.125 1.25h9.469v-1.25h-9.344zm22.344 0v1.25h11v-1.25h-11zm24 0v1.25h11v-1.25h-11zm24 0v1.25h11v-1.25h-11zm24 0v1.25h11v-1.25h-11zm24 0v1.25h11v-1.25h-11zm24 0v1.25h11v-1.25h-11zm24 0v1.25h11v-1.25h-11zm-166.594 2.468l-.094 1.22h9.688v-1.22h-9.594zm22.594 0v1.22h11v-1.22h-11zm24 0v1.22h11v-1.22h-11zm24 0v1.22h11v-1.22h-11zm24 0v1.22h11v-1.22h-11zm24 0v1.22h11v-1.22h-11zm24 0v1.22h11v-1.22h-11zm24 0v1.22h11v-1.22h-11zm-166.813 2.438l-.125 1.219h9.938v-1.22h-9.813zm22.813 0v1.219h11v-1.22h-11zm24 0v1.219h11v-1.22h-11zm24 0v1.219h11v-1.22h-11zm24 0v1.219h11v-1.22h-11zm24 0v1.219h11v-1.22h-11zm24 0v1.219h11v-1.22h-11zm24 0v1.219h11v-1.22h-11zM105 199.416l-.968 9.843v1.157h1.218v-11H105zm1.47 0v11h1.218v-11h-1.219zm2.437 0v11h1.25v-11h-1.25zm2.468 0v11h1.22v-11h-1.22zm2.438 0v11h1.219v-11h-1.22zm2.219 0v1.218h11v-1.218h-11zm12 0v11h1.218v-11h-1.218zm2.437 0v11h1.219v-11h-1.219zm2.438 0v11h1.25v-11h-1.25zm2.468 0v11h1.22v-11h-1.22zm2.438 0v11h1.219v-11h-1.22zm2.219 0v1.218h11v-1.218h-11zm12 0v11h1.218v-11h-1.218zm2.437 0v11h1.219v-11h-1.219zm2.438 0v11h1.25v-11h-1.25zm2.468 0v11h1.22v-11h-1.22zm2.438 0v11h1.219v-11h-1.22zm2.219 0v1.218h11v-1.218h-11zm12 0v11h1.218v-11h-1.218zm2.437 0v11h1.219v-11h-1.219zm2.438 0v11h1.25v-11h-1.25zm2.468 0v11h1.22v-11h-1.22zm2.438 0v11h1.219v-11h-1.22zm2.219 0v1.218h11v-1.218h-11zm12 0v11h1.218v-11h-1.218zm2.437 0v11h1.219v-11h-1.219zm2.438 0v11h1.25v-11h-1.25zm2.468 0v11h1.22v-11h-1.22zm2.438 0v11h1.219v-11h-1.22zm2.219 0v1.218h11v-1.218h-11zm12 0v11h1.218v-11h-1.218zm2.437 0v11h1.219v-11h-1.219zm2.438 0v11h1.25v-11h-1.25zm2.468 0v11h1.22v-11h-1.22zm2.438 0v11h1.219v-11h-1.22zm2.219 0v1.218h11v-1.218h-11zm12 0v11h1.218v-11h-1.218zm2.437 0v11h1.219v-11h-1.219zm2.438 0v11h1.25v-11h-1.25zm2.468 0v11h1.22v-11h-1.22zm2.438 0v11h1.219v-11h-1.22zm2.219 0v1.218h11v-1.218h-11zm12 0v11h1.218v-11h-1.218zm2.437 0v11h1.219v-11h-1.219zm2.438 0v11h1.25v-11h-1.25zm2.468 0v11h1.22v-11h-1.22zm2.438 0v11h1.219v-11h-1.22zm2.219 0v1.218h11v-1.218h-11zm-168 2.437v1.219h11v-1.219h-11zm24 0v1.219h11v-1.219h-11zm24 0v1.219h11v-1.219h-11zm24 0v1.219h11v-1.219h-11zm24 0v1.219h11v-1.219h-11zm24 0v1.219h11v-1.219h-11zm24 0v1.219h11v-1.219h-11zm24 0v1.219h11v-1.219h-11zm-168 2.438v1.25h11v-1.25h-11zm24 0v1.25h11v-1.25h-11zm24 0v1.25h11v-1.25h-11zm24 0v1.25h11v-1.25h-11zm24 0v1.25h11v-1.25h-11zm24 0v1.25h11v-1.25h-11zm24 0v1.25h11v-1.25h-11zm24 0v1.25h11v-1.25h-11zm12 2.406v3.719h.406l-.406-3.719zm-180 .062v1.22h11v-1.22h-11zm24 0v1.22h11v-1.22h-11zm24 0v1.22h11v-1.22h-11zm24 0v1.22h11v-1.22h-11zm24 0v1.22h11v-1.22h-11zm24 0v1.22h11v-1.22h-11zm24 0v1.22h11v-1.22h-11zm24 0v1.22h11v-1.22h-11zm-168 2.438v1.219h11v-1.219h-11zm24 0v1.219h11v-1.219h-11zm24 0v1.219h11v-1.219h-11zm24 0v1.219h11v-1.219h-11zm24 0v1.219h11v-1.219h-11zm24 0v1.219h11v-1.219h-11zm24 0v1.219h11v-1.219h-11zm24 0v1.219h11v-1.219h-11zm-180 2.219v1.218h11v-1.218h-11zm12 0v11h1.218v-11h-1.218zm2.437 0v11h1.219v-11h-1.219zm2.438 0v11h1.25v-11h-1.25zm2.468 0v11h1.22v-11h-1.22zm2.438 0v11h1.219v-11h-1.22zm2.219 0v1.218h11v-1.218h-11zm12 0v11h1.218v-11h-1.218zm2.437 0v11h1.219v-11h-1.219zm2.438 0v11h1.25v-11h-1.25zm2.468 0v11h1.22v-11h-1.22zm2.438 0v11h1.219v-11h-1.22zm2.219 0v1.218h11v-1.218h-11zm12 0v11h1.218v-11h-1.218zm2.437 0v11h1.219v-11h-1.219zm2.438 0v11h1.25v-11h-1.25zm2.468 0v11h1.22v-11h-1.22zm2.438 0v11h1.219v-11h-1.22zm2.219 0v1.218h11v-1.218h-11zm12 0v11h1.218v-11h-1.218zm2.437 0v11h1.219v-11h-1.219zm2.438 0v11h1.25v-11h-1.25zm2.468 0v11h1.22v-11h-1.22zm2.438 0v11h1.219v-11h-1.22zm2.219 0v1.218h11v-1.218h-11zm12 0v11h1.218v-11h-1.218zm2.437 0v11h1.219v-11h-1.219zm2.438 0v11h1.25v-11h-1.25zm2.468 0v11h1.22v-11h-1.22zm2.438 0v11h1.219v-11h-1.22zm2.219 0v1.218h11v-1.218h-11zm12 0v11h1.218v-11h-1.218zm2.437 0v11h1.219v-11h-1.219zm2.438 0v11h1.25v-11h-1.25zm2.468 0v11h1.22v-11h-1.22zm2.438 0v11h1.219v-11h-1.22zm2.219 0v1.218h11v-1.218h-11zm12 0v11h1.218v-11h-1.218zm2.437 0v11h1.219v-11h-1.219zm2.438 0v11h1.25v-11h-1.25zm2.468 0v11h1.22v-11h-1.22zm2.438 0v11h1.219v-11h-1.22zm2.219 0v1.218h11v-1.218h-11zm12 0v11h1.218v-11h-1.218zm2.437 0v11h1.219v-11h-1.219zm2.438 0v11h1.25v-11h-1.25zm2.468 0v11h1.22v-11h-1.22zm2.438 0v11h1.219v-11h-1.22zm2.219 0v1.218h.656l-.125-1.218h-.531zm-192 2.437v1.219h11v-1.219h-11zm24 0v1.219h11v-1.219h-11zm24 0v1.219h11v-1.219h-11zm24 0v1.219h11v-1.219h-11zm24 0v1.219h11v-1.219h-11zm24 0v1.219h11v-1.219h-11zm24 0v1.219h11v-1.219h-11zm24 0v1.219h11v-1.219h-11zm24 0v1.219h.906l-.125-1.219h-.781zm-192 2.438v1.25h11v-1.25h-11zm24 0v1.25h11v-1.25h-11zm24 0v1.25h11v-1.25h-11zm24 0v1.25h11v-1.25h-11zm24 0v1.25h11v-1.25h-11zm24 0v1.25h11v-1.25h-11zm24 0v1.25h11v-1.25h-11zm24 0v1.25h11v-1.25h-11zm24 0v1.25h1.187l-.125-1.25h-1.062zm-192 2.468v1.22h11v-1.22h-11zm24 0v1.22h11v-1.22h-11zm24 0v1.22h11v-1.22h-11zm24 0v1.22h11v-1.22h-11zm24 0v1.22h11v-1.22h-11zm24 0v1.22h11v-1.22h-11zm24 0v1.22h11v-1.22h-11zm24 0v1.22h11v-1.22h-11zm24 0v1.22h1.468l-.156-1.22h-1.312zm-193 .72l-.282 2.937h.282v-2.938zm1 1.718v1.219h11v-1.219h-11zm24 0v1.219h11v-1.219h-11zm24 0v1.219h11v-1.219h-11zm24 0v1.219h11v-1.219h-11zm24 0v1.219h11v-1.219h-11zm24 0v1.219h11v-1.219h-11zm24 0v1.219h11v-1.219h-11zm24 0v1.219h11v-1.219h-11zm24 0v1.219h1.718l-.125-1.219h-1.593zm-193.375 2.219l-.125 1.218h.5v-1.218h-.375zm1.375 0v1.468h1.218v-1.468h-1.218zm2.437 0v1.468h1.219v-1.468h-1.219zm2.438 0v1.468h1.25v-1.468h-1.25zm2.468 0v1.468h1.22v-1.468h-1.22zm2.438 0v1.468h1.219v-1.468h-1.22zm2.219 0v1.218h11v-1.218h-11zm12 0v1.468h1.218v-1.468h-1.218zm2.437 0v1.468h1.219v-1.468h-1.219zm2.438 0v1.468h1.25v-1.468h-1.25zm2.468 0v1.468h1.22v-1.468h-1.22zm2.438 0v1.468h1.219v-1.468h-1.22zm2.219 0v1.218h11v-1.218h-11zm12 0v1.468h1.218v-1.468h-1.218zm2.437 0v1.468h1.219v-1.468h-1.219zm2.438 0v1.468h1.25v-1.468h-1.25zm2.468 0v1.468h1.22v-1.468h-1.22zm2.438 0v1.468h1.219v-1.468h-1.22zm2.219 0v1.218h11v-1.218h-11zm12 0v1.468h1.218v-1.468h-1.218zm2.437 0v1.468h1.219v-1.468h-1.219zm2.438 0v1.468h1.25v-1.468h-1.25zm2.468 0v1.468h1.22v-1.468h-1.22zm2.438 0v1.468h1.219v-1.468h-1.22zm2.219 0v1.218h11v-1.218h-11zm12 0v1.468h1.218v-1.468h-1.218zm2.437 0v1.468h1.219v-1.468h-1.219zm2.438 0v1.468h1.25v-1.468h-1.25zm2.468 0v1.468h1.22v-1.468h-1.22zm2.438 0v1.468h1.219v-1.468h-1.22zm2.219 0v1.218h11v-1.218h-11zm12 0v1.468h1.218v-1.468h-1.218zm2.437 0v1.468h1.219v-1.468h-1.219zm2.438 0v1.468h1.25v-1.468h-1.25zm2.468 0v1.468h1.22v-1.468h-1.22zm2.438 0v1.468h1.219v-1.468h-1.22zm2.219 0v1.218h11v-1.218h-11zm12 0v1.468h1.218v-1.468h-1.218zm2.437 0v1.468h1.219v-1.468h-1.219zm2.438 0v1.468h1.25v-1.468h-1.25zm2.468 0v1.468h1.22v-1.468h-1.22zm2.438 0v1.468h1.219v-1.468h-1.22zm2.219 0v1.218h11v-1.218h-11zm12 0v1.468h1.218v-1.468h-1.218zm2.437 0v1.468h1.219v-1.468h-1.219zm2.438 0v1.468h1.25v-1.468h-1.25zm2.468 0v1.468h1.22v-1.468h-1.22zm2.438 0v1.468h1.219v-1.468h-1.22zm2.219 0v1.218h11v-1.218h-11zm12 0v1.468h1.218v-1.468h-1.218z" fill="#e19459"/><g stroke="#000"><path d="M261.85 125.774c50.185 48.937 60.052 137.986 1.685 193.52-20.09 19.115-74.01 57.878-109.936 78.21-9.673 5.474-16.927-3.946-7.378-9.46 33.826-19.532 85.28-49.99 112.15-75.996 51.185-49.54 45.78-132.452-2.001-185.38l5.48-.894z" fill="#f0cb46" fill-rule="evenodd" stroke-width="2"/><path d="M205.465 352.58l7.5 6.16m6.429-15.267l7.098 5.09m-74.33 36.428l8.438 7.901m29.865-30.803l8.17 6.428m32.679-33.883l7.633 4.821m5.625-14.866l7.768 3.884m4.554-14.464l7.768 3.348M266 304.5l8.84 1.875m-.403-12.455l8.17 1.875m-1.473-13.26l7.901 2.01m-2.812-13.26l8.304 1.34m-3.617-14.33l7.634.937m-4.687-15.67l7.902.536m-6.563-15.67l7.902.402m-.536-15.803l-8.17-1.34m5.358-15.937l-7.902-1.339m3.348-14.598l-7.5-.536m1.607-13.794l-7.098-.268m.804-11.786l-6.965-.402m-.803-11.384l-6.429-.134m-2.276-10.178h-5.625" fill="none" stroke-width="2"/></g><g fill="#fff" fill-rule="evenodd" stroke="#000" stroke-width="2"><path d="M252.082 43.23l26.517-8.84 22.232 15.268-20.892.268.268 17.678-24.643-16.071c-5.064-3.303-3.482-8.304-3.482-8.304zM152.057 44.033l-26.518-8.84-22.231 15.268 20.892.268-.268 17.678 24.643-16.07c5.064-3.303 3.482-8.304 3.482-8.304z"/><path d="M120.078 25.768C178.3-5.02 226.533-4.51 284.058 26.549l-14.9 25.536c-52.954-26.354-89.083-26.71-134.47-.224l-14.61-26.093z"/></g><g font-weight="700" font-size="28" font-family="Times New Roman"><path d="M142.87 20.048l12.851 7.123-3.05-7.364q-.638-1.541-1.305-1.901-.91-.482-2.327.135l-.194-.467 5.66-2.344.193.467q-1.029.589-1.314.973-.277.367-.283.96.002.577.505 1.79l5.906 14.26-.43.178-17.489-9.463 4.51 10.888q.612 1.478 1.496 1.719.897.235 1.768-.126l.404-.167.194.467-6.076 2.517-.193-.468q1.41-.598 1.73-1.397.32-.799-.245-2.163l-5.007-12.088-.554-.303q-.826-.457-1.332-.5-.506-.041-1.3.258l-.193-.467 6.076-2.517zM172.33 24.42l-6.397 1.406-.373 1.93q-.18.964-.054 1.538.168.761.861.987.408.134 1.847-.07l.108.493-6.022 1.325-.108-.494q.942-.361 1.426-1.153.48-.806.946-3.078l3.298-15.873.254-.055 9.796 13.411q1.398 1.904 2.12 2.32.545.314 1.387.198l.109.494-8.76 1.927-.108-.494.36-.08q1.055-.231 1.418-.619.247-.278.159-.679-.053-.24-.19-.476-.052-.115-.62-.914l-1.458-2.045zm-.672-.889l-4.07-5.642-1.405 6.847 5.475-1.205zM191.988 8.32q4.408-.472 7.354 2.077 2.96 2.548 3.247 6.667.246 3.519-1.627 6.336-2.48 3.736-7.458 4.084-4.992.348-7.956-2.844-2.341-2.523-2.597-6.191-.288-4.12 2.317-7.056 2.617-2.951 6.72-3.073zm.225.862q-2.537.177-3.68 2.86-.928 2.203-.65 6.186.33 4.732 2.152 6.88 1.27 1.501 3.357 1.356 1.404-.098 2.298-.846 1.14-.957 1.674-2.913.534-1.97.319-5.052-.256-3.669-1.065-5.435-.809-1.78-1.925-2.456-1.103-.677-2.48-.58zM213.382 10.523l-.888 7.495.366.043q1.752.208 2.67-.799.917-1.006 1.389-3.125l.516.06-1.143 9.64-.516-.06q.024-1.595-.387-2.662-.396-1.066-1.049-1.488-.65-.435-1.967-.591l-.615 5.186q-.18 1.52-.098 1.875.095.355.423.614.327.26 1.114.353l1.1.13q2.58.306 4.269-.705 1.703-1.01 2.671-3.373l.503.06-1.522 5.753-15.912-1.887.06-.502.61.072q.801.095 1.324-.132.376-.148.62-.587.188-.308.352-1.693l1.436-12.11q.148-1.25.114-1.543-.08-.491-.415-.793-.471-.44-1.367-.547l-.611-.073.06-.502 15.41 1.827-.646 5.444-.516-.06q-.157-2.043-.774-2.997-.603-.953-1.858-1.515-.731-.334-2.822-.582l-1.9-.226zM231.404 22.797l-1.275 5.036q-.37 1.458-.294 1.886.091.418.485.758.393.34 1.626.651l-.124.49-9.198-2.328.124-.49q1.246.315 1.74.2.511-.124.777-.452.28-.324.649-1.782l2.953-11.663q.369-1.458.277-1.876-.075-.428-.468-.767-.394-.34-1.627-.652l.124-.49 8.35 2.114q3.26.825 4.658 1.658 1.396.833 2.042 2.294.649 1.448.236 3.078-.503 1.988-2.263 2.925-1.123.59-2.87.585l2.78 7.177q.55 1.394.834 1.777.44.548 1.145.769l-.124.49-5.66-1.432-3.718-9.657-1.18-.3zm2.23-8.814l-1.992 7.873.755.191q1.843.467 2.841.367 1.002-.113 1.74-.857.755-.754 1.114-2.172.52-2.055-.2-3.28-.705-1.223-2.839-1.763l-1.418-.359zM258.94 20.251q4.195 1.435 5.788 4.99 1.607 3.56.127 7.414-1.264 3.294-4.151 5.056-3.827 2.339-8.486.55-4.671-1.793-6.01-5.938-1.056-3.276.262-6.71 1.48-3.854 5.081-5.415 3.619-1.57 7.39.053zm-.16.876q-2.374-.911-4.543 1.039-1.773 1.604-3.203 5.331-1.7 4.43-.956 7.146.517 1.897 2.47 2.646 1.314.505 2.44.205 1.437-.386 2.748-1.933 1.316-1.56 2.423-4.444 1.318-3.434 1.331-5.376.019-1.956-.707-3.04-.714-1.079-2.003-1.574z"/></g><g stroke="#000"><path d="M140.016 125.238c-50.186 48.937-60.053 137.986-1.686 193.52 20.09 19.115 74.01 57.878 109.936 78.21 9.673 5.474 16.927-3.946 7.379-9.46-33.826-19.532-85.28-49.99-112.15-75.996-51.186-49.54-45.782-132.452 2-185.38l-5.479-.894z" fill="#f0cb46" fill-rule="evenodd" stroke-width="2"/><path d="M196.4 352.044l-7.5 6.16m-6.429-15.267l-7.098 5.09m74.33 36.428l-8.437 7.901M211.4 361.553l-8.17 6.428m-32.678-33.883l-7.634 4.821m-5.625-14.866l-7.768 3.884m-4.554-14.464l-7.767 3.348m-1.34-12.857l-8.839 1.875m.402-12.455l-8.17 1.875m1.473-13.26l-7.901 2.01m2.812-13.26l-8.303 1.34m3.616-14.33l-7.634.937m4.687-15.67l-7.901.536m6.562-15.67l-7.902.402m.536-15.803l8.17-1.34m-5.358-15.937l7.902-1.339m-3.348-14.598l7.5-.536m-1.607-13.794l7.098-.268m-.804-11.786l6.965-.402m.803-11.384l6.429-.134m2.277-10.178h5.625" fill="none" stroke-width="2"/></g><g stroke="#000"><path d="M73.992 94.603l-8.197-5.721c8.024-6.59 21.897-17.912 43.733-17.624 42.478.561 83.803 52.36 83.803 52.36l-15.102-.587s-36.57-42.755-68.066-44.144c-17.086-.326-23.691 5.587-36.17 15.716z" fill="#f0cb46" fill-rule="evenodd" stroke-miterlimit="10" stroke-width="2"/><path d="M78.004 81.592l7.742 3.463m5.297-9.575l4.686 4.075m9.575-7.538l2.445 5.908m10.39-5.093l1.223 7.13m11.612-4.074l-1.426 7.741m11.613-2.852l-2.038 7.946m11.002-2.853l-2.649 8.557m12.632-1.834l-2.853 9.576m12.835-1.834l-3.26 10.39m10.798-2.852l-2.444 10.798" fill="none" stroke-linecap="round" stroke-width="2"/></g><g stroke="#000"><path d="M327.273 94.603l8.197-5.721c-8.023-6.59-21.896-17.912-43.732-17.624-42.479.561-83.804 52.36-83.804 52.36l15.102-.587s36.57-42.755 68.066-44.144c17.086-.326 23.691 5.587 36.17 15.716z" fill="#f0cb46" fill-rule="evenodd" stroke-miterlimit="10" stroke-width="2"/><path d="M323.26 81.592l-7.74 3.463m-5.298-9.575l-4.686 4.075m-9.575-7.538l-2.445 5.908m-10.39-5.093l-1.222 7.13m-11.613-4.074l1.426 7.741m-11.612-2.852l2.037 7.946M251.14 85.87l2.649 8.557m-12.631-1.834l2.852 9.576m-12.835-1.834l3.26 10.39m-10.798-2.852l2.445 10.798" fill="none" stroke-linecap="round" stroke-width="2"/></g><g stroke="#000"><path d="M326.45 96.675l2.462 5.47c-20.96 12.5-46.284 22.462-70.835 25-37.514 3.879-77.104 3.262-113.64-.757-24.137-2.656-52.487-12.743-72.69-24.991l3.066-4.463c20.582 11.49 48.68 20.831 72.844 23.23 35.56 3.532 70.157 4.494 108.716 1.137 24.588-2.14 48.738-12.883 70.077-24.626z" fill="#f0cb46" fill-rule="evenodd" stroke-width="2"/><path d="M90.415 105.221l-4.216 3.313m13.4.3l-3.764 4.066m14.153-.452l-3.312 4.668m14.604-1.355l-2.71 5.119m14.755-2.41l-2.258 5.421m14.755-3.463l-1.958 5.57m14.003-4.667l-1.205 5.722m14.153-4.517l-.753 5.57m14.002-4.968l-.3 5.571m127.4-23.462l4.216 3.312m-13.112.686l3.764 4.065m-13.864-.26l3.312 4.668m-14.22-.875l2.422 4.831m-14.563-2.12l1.97 5.131m-14.466-3.174l1.957 5.282m-14.099-4.379l1.301 5.625m-14.441-4.9l.753 5.57m-14.099-5.065l.398 5.667" fill="none" stroke-width="2"/></g><g stroke="#000"><g fill-rule="evenodd"><path d="M85.48 64.894l3.24 5.235c1.84 2.972 8.632-.798 6.98-3.49l-3.365-5.484c-1.62-2.64-8.603.915-6.855 3.739z" fill="#f0cb46" stroke-width="2"/><path d="M92.46 60.905l5.858-3.365 3.614 5.858-6.107 3.24-3.365-5.733z" fill="#094163" stroke-width="1"/></g><g fill-rule="evenodd"><path d="M112.057 86.31l.275 6.15c.156 3.492 7.924 3.514 7.795.358l-.262-6.429c-.127-3.095-7.957-3.397-7.808-.08z" fill="#f0cb46" stroke-width="2"/><path d="M120.095 86.232l6.755-.08.298 6.877-6.912-.15-.141-6.647z" fill="#094163" stroke-width="1"/></g><g fill-rule="evenodd"><path d="M118.768 101.768l-1.033 6.07c-.587 3.446 7 5.112 7.542 2l1.105-6.338c.532-3.052-7.057-5.005-7.614-1.732z" fill="#f0cb46" stroke-width="2"/><path d="M126.64 103.395l6.62 1.353-1.166 6.784-6.723-1.611 1.27-6.526z" fill="#094163" stroke-width="1"/></g><g fill-rule="evenodd"><path d="M97.82 120.473l-4.14 4.556c-2.352 2.587 3.141 8.079 5.275 5.75l4.346-4.744c2.093-2.284-3.247-8.019-5.48-5.562z" fill="#f0cb46" stroke-width="2"/><path d="M103.575 126.087l4.847 4.706-4.638 5.086-4.795-4.98 4.586-4.812z" fill="#094163" stroke-width="1"/></g><path d="M68.888 90.904c15.816-2.992 27.624-3.665 43.194-4.5l.132 6.04c-10.294.63-24.298 2.489-33.772 3.69 11.261 2.352 27.65 4.577 40.408 5.873l-1.172 5.896c-13.154-.926-32.717-4.89-45.209-7.803 6.835 6.53 16.136 13.863 25.188 20.549l-4.04 4.483c-8.557-6.183-17.653-13.665-24.609-20.453L58.977 86.691c6.294-9.428 14.669-16.749 26.593-21.65l3.205 5.313c-10.57 3.67-16.438 9.744-19.887 20.55z" fill="#f0cb46" fill-rule="evenodd" stroke-miterlimit="10" stroke-width="2"/><path d="M71.078 74.462l1.222 7.13m6.723-13.039l.815 6.112M105.712 87.5l2.648 4.686m-12.224-3.667l2.853 4.686m-12.835-3.667l2.648 4.482m.204 4.89l1.63 4.481m8.556-3.056l1.63 4.482m8.557-3.26l1.63 4.89m-20.985 9.372l-1.426 4.685m-7.13-11.408l-.611 5.093" fill="none" stroke-linecap="round" stroke-width="2"/></g><g stroke="#000"><g fill-rule="evenodd"><path d="M315.785 64.894l-3.24 5.235c-1.84 2.972-8.632-.798-6.98-3.49l3.365-5.484c1.62-2.64 8.603.915 6.855 3.739z" fill="#f0cb46" stroke-width="2"/><path d="M308.805 60.905l-5.858-3.365-3.614 5.858 6.107 3.24 3.365-5.733z" fill="#094163" stroke-width="1"/></g><g fill-rule="evenodd"><path d="M289.209 86.31l-.276 6.15c-.156 3.492-7.924 3.514-7.795.358l.263-6.429c.126-3.095 7.956-3.397 7.808-.08z" fill="#f0cb46" stroke-width="2"/><path d="M281.17 86.232l-6.755-.08-.298 6.877 6.912-.15.141-6.647z" fill="#094163" stroke-width="1"/></g><g fill-rule="evenodd"><path d="M282.497 101.768l1.034 6.07c.587 3.446-7 5.112-7.543 2l-1.105-6.338c-.532-3.052 7.057-5.005 7.614-1.732z" fill="#f0cb46" stroke-width="2"/><path d="M274.625 103.395l-6.62 1.353 1.166 6.784 6.724-1.611-1.27-6.526z" fill="#094163" stroke-width="1"/></g><g fill-rule="evenodd"><path d="M303.445 120.473l4.14 4.556c2.352 2.587-3.14 8.079-5.274 5.75l-4.347-4.744c-2.093-2.284 3.247-8.019 5.48-5.562z" fill="#f0cb46" stroke-width="2"/><path d="M297.69 126.087l-4.847 4.706 4.638 5.086 4.795-4.98-4.586-4.812z" fill="#094163" stroke-width="1"/></g><path d="M332.377 90.904c-15.816-2.992-27.624-3.665-43.193-4.5l-.133 6.04c10.294.63 24.298 2.489 33.772 3.69-11.261 2.352-27.65 4.577-40.408 5.873l1.172 5.896c13.155-.926 32.717-4.89 45.21-7.803-6.836 6.53-16.137 13.863-25.189 20.549l4.04 4.483c8.558-6.183 17.653-13.665 24.609-20.453l10.032-17.988c-6.295-9.428-14.67-16.749-26.594-21.65l-3.205 5.313c10.57 3.67 16.438 9.744 19.887 20.55z" fill="#f0cb46" fill-rule="evenodd" stroke-miterlimit="10" stroke-width="2"/><path d="M330.188 74.462l-1.223 7.13m-6.723-13.039l-.815 6.112M295.554 87.5l-2.649 4.686m12.224-3.667l-2.852 4.686m12.835-3.667l-2.649 4.482m-.204 4.89l-1.63 4.481m-8.556-3.056l-1.63 4.482m-8.557-3.26l-1.63 4.89m20.985 9.372l1.426 4.685m7.13-11.408l.612 5.093" fill="none" stroke-linecap="round" stroke-width="2"/></g><g stroke="#000"><path d="M53.147 86.993c8.312-1.239 16.183.61 23.486 6.44-7.73 14.272-12.412 25.777-23.846 37.57-3.258-16.508-.51-28.228.36-44.01z" fill="#f0cb46" fill-rule="evenodd" stroke-width="1"/><path d="M61.64 87.029l-3.179 9.913c1.552 4.203 4.706 4.434 8.32 2.709l3.892-9.62M52.682 98.023c2.149.234 4.386.008 5.883-.877M66.782 99.65c.237 1.874 1.86 3.598 3.607 4.613" fill="none" stroke-width="1"/><path d="M63.876 108.608a3.87 3.096 18.343 11-7.346-2.435 3.87 3.096 18.343 117.346 2.435z" fill="none" stroke-miterlimit="5" stroke-width="2"/><path d="M59.768 110.4l-2.71 8.901-1.24-.344.784-2.548 1.188.35" fill="none" stroke-width="2"/></g><g fill="#a05a2c" fill-rule="evenodd" stroke="#000" stroke-width=".5"><path d="M344.325 543.118l1.335 3.398c.22.558-.714 1.077-.995.34l-1.408-3.69 1.068-.048zM343.136 543.118l1.335 3.398c.22.558-.714 1.077-.995.34l-1.408-3.69 1.068-.048z" transform="matrix(2 0 0 2.56675 -542.494 -1120.444)"/><path d="M345.417 543.118l1.335 3.398c.22.558-.714 1.077-.995.34l-1.408-3.69 1.068-.048z" transform="matrix(2 0 0 2.56675 -542.494 -1120.444)"/></g><g fill="#a05a2c" fill-rule="evenodd" stroke="#000" stroke-width=".5"><path d="M344.325 543.118l1.335 3.398c.22.558-.714 1.077-.995.34l-1.408-3.69 1.068-.048zM343.136 543.118l1.335 3.398c.22.558-.714 1.077-.995.34l-1.408-3.69 1.068-.048z" transform="matrix(-2 0 0 2.56675 857.52 -1120.444)"/><path d="M345.417 543.118l1.335 3.398c.22.558-.714 1.077-.995.34l-1.408-3.69 1.068-.048z" transform="matrix(-2 0 0 2.56675 857.52 -1120.444)"/></g><path d="M232.742 231.789c-2.647 9.609.17 25.288 8.438 35.375 0 0 4.276 6.486 4.187 6.75l-6.562-5.062c-6.52-10.929-18.454-19.21-33.563-20.188.793 13.402 15.066 27.452 33.313 28.563l5.312 2.375c-1.37 6.993-1.992 15.23-4.312 21.062-.265.666-.544 1.26-.813 1.875l-2.5-3.5c-5.356-11.116-15.883-17.324-27.437-18.312 3.162 9.365 10.283 17.593 21.812 22.25l5.688 4.437c-.361.635-.746 1.27-1.125 1.875-11.236-4.095-23.974-6.88-32.375-2.812 7.492 6.02 18.058 8.462 29.875 6.5-2.234 3.072-4.82 6.24-8.125 10.625l3.5 2.625c5.391-7.218 11.499-14.183 15-22.25l8.937-2.75c12.57-3.505 22.214-12.242 26.188-21.375-9.797 1.313-22.85 5.76-29.625 16.187l-3.5 1.75c1.7-7.347 1.827-15.41 4.437-22.25l4.875.75c12.237-1.4 25.275-5.208 33-16.75-11.427-1.109-21.66 2.272-31.937 6.5 2.667-2.922 5.721-5.903 9.937-9.062 11.766-3.45 23.749-13.016 25.188-24.813-11.047 1.993-21.988 10.795-28.313 21.5 0 0-10.267 8.742-13.937 14.25l-1.875-3.625c-.678-12.841-5.859-27.213-13.688-32.5z" fill="#23a65b" fill-rule="evenodd" stroke="#000" stroke-linejoin="round"/><path d="M233.43 233.752c4.758 7.923 9.19 20.528 9.74 30.898-4.97-8.968-9.235-22.465-9.74-30.898zM289.836 233.01c-5.541 7.739-15.773 17.174-25.587 22.097 6.46-8.378 17.632-18.04 25.587-22.097zM286.44 260.173c-8.414 5.54-22.003 11.025-33.383 12.255 9.55-5.83 24.132-11.194 33.383-12.255zM277.298 280.607c-7.165 7.403-19.61 16-30.883 19.935 8.249-7.958 21.735-16.676 30.883-19.935zM205.827 249.363c10.056 4.636 22.954 14.144 30.506 24.069-10.971-5.53-24.307-16.037-30.506-24.07zM209.54 281.345c8.305 4.054 18.886 12.213 24.995 20.611-9.053-4.815-19.98-13.813-24.996-20.61zM204.065 306.614c7.927-.795 19.391.69 27.692 4.628-8.82.535-20.92-1.478-27.692-4.628z" fill="#f7ffee" fill-rule="evenodd"/><g fill="#f7e9dc" stroke="#000" stroke-width=".5" stroke-linecap="round" stroke-linejoin="round"><path d="M261.845 293.029a3.94 3.94 0 11-7.881 0 3.94 3.94 0 117.881 0z" stroke-width="1"/><path d="M255.998 289.088a3.94 3.94 0 11-7.882 0 3.94 3.94 0 117.882 0z" stroke-width="1"/><path d="M261.718 285.91a3.94 3.94 0 11-7.882 0 3.94 3.94 0 117.882 0z" stroke-width="1"/><path d="M267.439 288.58a3.94 3.94 0 11-7.882 0 3.94 3.94 0 117.882 0z" stroke-width="1"/><path d="M269.218 294.554a3.94 3.94 0 11-7.881 0 3.94 3.94 0 117.881 0z" stroke-width="1"/><path d="M265.277 299.639a3.94 3.94 0 11-7.881 0 3.94 3.94 0 117.881 0z" stroke-width="1"/><path d="M258.54 299.512a3.94 3.94 0 11-7.882 0 3.94 3.94 0 117.882 0z" stroke-width="1"/><path d="M255.235 295.698a3.94 3.94 0 11-7.882 0 3.94 3.94 0 117.882 0z" stroke-width="1"/></g><g fill="#f7e9dc" stroke="#000" stroke-width=".5" stroke-linecap="round" stroke-linejoin="round"><path d="M234.641 293.665a3.94 3.94 0 11-7.881 0 3.94 3.94 0 117.881 0z" stroke-width="1"/><path d="M228.794 289.724a3.94 3.94 0 11-7.882 0 3.94 3.94 0 117.882 0z" stroke-width="1"/><path d="M234.514 286.546a3.94 3.94 0 11-7.882 0 3.94 3.94 0 117.882 0z" stroke-width="1"/><path d="M240.235 289.215a3.94 3.94 0 11-7.882 0 3.94 3.94 0 117.882 0z" stroke-width="1"/><path d="M242.014 295.19a3.94 3.94 0 11-7.881 0 3.94 3.94 0 117.881 0z" stroke-width="1"/><path d="M238.073 300.275a3.94 3.94 0 11-7.881 0 3.94 3.94 0 117.881 0z" stroke-width="1"/><path d="M231.336 300.148a3.94 3.94 0 11-7.882 0 3.94 3.94 0 117.882 0z" stroke-width="1"/><path d="M228.03 296.334a3.94 3.94 0 11-7.88 0 3.94 3.94 0 117.88 0z" stroke-width="1"/></g><g fill="#f7e9dc" stroke="#000" stroke-width=".5" stroke-linecap="round" stroke-linejoin="round"><path d="M261.608 255.013a3.94 3.94 0 11-7.881 0 3.94 3.94 0 117.881 0z" stroke-width="1"/><path d="M255.76 251.072a3.94 3.94 0 11-7.881 0 3.94 3.94 0 117.882 0z" stroke-width="1"/><path d="M261.481 247.894a3.94 3.94 0 11-7.882 0 3.94 3.94 0 117.882 0z" stroke-width="1"/><path d="M267.202 250.563a3.94 3.94 0 11-7.882 0 3.94 3.94 0 117.882 0z" stroke-width="1"/><path d="M268.981 256.538a3.94 3.94 0 11-7.881 0 3.94 3.94 0 117.881 0z" stroke-width="1"/><path d="M265.04 261.623a3.94 3.94 0 11-7.881 0 3.94 3.94 0 117.881 0z" stroke-width="1"/><path d="M258.303 261.496a3.94 3.94 0 11-7.882 0 3.94 3.94 0 117.882 0z" stroke-width="1"/><path d="M254.998 257.682a3.94 3.94 0 11-7.882 0 3.94 3.94 0 117.882 0z" stroke-width="1"/></g><g fill="#f7e9dc" stroke="#000" stroke-width=".5" stroke-linecap="round" stroke-linejoin="round"><path d="M250.461 273.53a3.94 3.94 0 11-7.881 0 3.94 3.94 0 117.881 0z" stroke-width="1"/><path d="M244.614 269.589a3.94 3.94 0 11-7.882 0 3.94 3.94 0 117.882 0z" stroke-width="1"/><path d="M250.334 266.41a3.94 3.94 0 11-7.882 0 3.94 3.94 0 117.882 0z" stroke-width="1"/><path d="M256.055 269.08a3.94 3.94 0 11-7.882 0 3.94 3.94 0 117.882 0z" stroke-width="1"/><path d="M257.834 275.055a3.94 3.94 0 11-7.881 0 3.94 3.94 0 117.881 0z" stroke-width="1"/><path d="M253.893 280.14a3.94 3.94 0 11-7.881 0 3.94 3.94 0 117.881 0z" stroke-width="1"/><path d="M247.156 280.013a3.94 3.94 0 11-7.882 0 3.94 3.94 0 117.882 0z" stroke-width="1"/><path d="M243.85 276.2a3.94 3.94 0 11-7.88 0 3.94 3.94 0 117.88 0z" stroke-width="1"/></g><g fill="#f7e9dc" stroke="#000" stroke-width=".5" stroke-linecap="round" stroke-linejoin="round"><path d="M224.753 264.72a3.94 3.94 0 11-7.881 0 3.94 3.94 0 117.881 0z" stroke-width="1"/><path d="M218.906 260.779a3.94 3.94 0 11-7.882 0 3.94 3.94 0 117.882 0z" stroke-width="1"/><path d="M224.626 257.6a3.94 3.94 0 11-7.882 0 3.94 3.94 0 117.882 0z" stroke-width="1"/><path d="M230.347 260.27a3.94 3.94 0 11-7.882 0 3.94 3.94 0 117.882 0z" stroke-width="1"/><path d="M232.126 266.245a3.94 3.94 0 11-7.881 0 3.94 3.94 0 117.881 0z" stroke-width="1"/><path d="M228.185 271.33a3.94 3.94 0 11-7.881 0 3.94 3.94 0 117.881 0z" stroke-width="1"/><path d="M221.448 271.203a3.94 3.94 0 11-7.882 0 3.94 3.94 0 117.882 0z" stroke-width="1"/><path d="M218.143 267.39a3.94 3.94 0 11-7.882 0 3.94 3.94 0 117.882 0z" stroke-width="1"/></g><g stroke="#000"><path d="M349.498 86.993c-8.312-1.239-16.183.61-23.485 6.44 7.73 14.272 12.41 25.777 23.845 37.57 3.259-16.508.51-28.228-.36-44.01z" fill="#f0cb46" fill-rule="evenodd" stroke-width="1"/><path d="M341.006 87.029l3.178 9.913c-1.552 4.203-4.706 4.434-8.32 2.709l-3.891-9.62M349.963 98.023c-2.149.234-4.386.008-5.883-.877M335.864 99.65c-.238 1.874-1.86 3.598-3.608 4.613" fill="none" stroke-width="1"/><path d="M338.77 108.608a3.096 3.87 71.657 107.346-2.435 3.096 3.87 71.657 10-7.347 2.435z" fill="none" stroke-miterlimit="5" stroke-width="2"/><path d="M342.878 110.4l2.708 8.901 1.242-.344-.785-2.548-1.188.35" fill="none" stroke-width="2"/></g><g><path d="M253.731 356.372l7.075 23.9c-18.305 5.588-39.607 11.05-60.851 11.07-21.245.018-49.965-5.33-65.18-14.009l9.36-21.371c18.305 5.588 34.805 10.655 56.05 10.636 21.244-.018 35.242-4.638 53.546-10.226z" fill="#fff" fill-rule="evenodd" stroke="#000" stroke-width="2"/><g stroke="#000"><path d="M71.955 370.548l8.29-23.903-26.077-12.632v15.891l-14.516 7.491 32.303 13.153z" fill="#fff" fill-rule="evenodd" stroke-width="2"/><path d="M153.407 365.09c2.231-3.12-6.65-6.619-8.823-8.792" fill="none" stroke-linecap="round" stroke-width="2"/><path d="M68.988 348.555c.09-2.304 7.862-2.046 11.257-1.91" fill="none" stroke-width="2"/><path d="M153.427 365.097c.277 8.002-6.025 19.369-11.206 23.682-7.469-.14-11.445-4.408-14.88-5.195-14.825-3.397-32.98-.842-47.918-2.744-8.687-1.106-20.21-9.444-21.46-14.768l11.065-17.508c-.079 2.44 8.5 5.431 13.255 5.822 15.008 1.235 34.627-.364 49.348 3.46 7.087 1.84 19.69 10.194 21.796 7.25z" fill="#fff" fill-rule="evenodd" stroke-linejoin="round" stroke-width="2"/></g><g stroke="#000"><path d="M326.24 371.07l-8.29-23.903 26.077-12.632v15.891l14.516 7.491-32.303 13.153z" fill="#fff" fill-rule="evenodd" stroke-width="2"/><path d="M244.788 365.611c-2.231-3.119 6.65-6.618 8.824-8.79" fill="none" stroke-linecap="round" stroke-width="2"/><path d="M329.207 349.077c-.09-2.304-7.862-2.046-11.257-1.91" fill="none" stroke-width="2"/><path d="M244.768 365.619c-.277 8.002 6.025 19.369 11.206 23.682 7.469-.14 11.445-4.408 14.88-5.195 14.825-3.397 32.98-.842 47.918-2.744 8.687-1.106 20.21-9.444 21.46-14.768l-11.065-17.508c.079 2.44-8.5 5.431-13.255 5.822-15.008 1.235-34.627-.364-49.348 3.46-7.087 1.84-19.69 10.194-21.796 7.25z" fill="#fff" fill-rule="evenodd" stroke-linejoin="round" stroke-width="2"/></g><g font-weight="700" font-family="Times New Roman"><g font-size="20"><path d="M89.294 361.725v4.668h-.36q-.655-1.915-1.964-2.91-1.308-.997-2.861-.997-1.485 0-2.47.84-.987.83-1.397 2.324-.41 1.494-.41 3.067 0 1.904.449 3.34.449 1.435 1.445 2.109 1.006.674 2.383.674.478 0 .976-.098.508-.107 1.036-.303v-2.754q0-.78-.108-1.005-.107-.235-.449-.42-.332-.186-.81-.186h-.342v-.361h6.435v.361q-.732.049-1.025.205-.283.147-.44.498-.088.186-.088.908v2.754q-1.27.567-2.646.85-1.367.293-2.842.293-1.885 0-3.135-.508-1.24-.517-2.197-1.348-.947-.84-1.484-1.884-.684-1.348-.684-3.018 0-2.988 2.1-5.049 2.1-2.06 5.283-2.06.986 0 1.777.156.43.078 1.387.45.967.36 1.143.36.273 0 .507-.195.235-.205.43-.761h.361zM99.02 361.842q3.164-.117 5.137 1.845 1.982 1.963 1.982 4.913 0 2.52-1.474 4.433-1.953 2.54-5.518 2.54-3.574 0-5.527-2.423-1.543-1.914-1.543-4.54 0-2.95 2.002-4.913 2.012-1.972 4.941-1.855zm.117.625q-1.816 0-2.763 1.855-.772 1.524-.772 4.375 0 3.389 1.192 5.01.83 1.133 2.324 1.133 1.006 0 1.68-.488.859-.625 1.337-1.993.479-1.377.479-3.584 0-2.627-.488-3.925-.489-1.309-1.25-1.846-.752-.537-1.739-.537zM106.225 375.557l.046-.358.436.055q.571.072.894-.065.333-.144.517-.436.113-.193.242-1.21l1.091-8.642q.128-1.008.053-1.273-.075-.266-.381-.491-.295-.234-.848-.304l-.436-.055.046-.359 5.88.743q2.355.298 3.708 1.118 1.655 1.006 2.355 2.71.71 1.703.457 3.709-.175 1.385-.769 2.501-.592 1.107-1.396 1.783-.803.666-1.792 1.014-.978.339-2.347.422-.606.041-1.875-.119l-5.88-.743zm6.575-11.759l-1.295 10.25q-.103.814-.049 1.008.054.194.226.314.244.179.738.241 1.618.205 2.61-.792 1.35-1.345 1.747-4.485.32-2.528-.284-4.14-.48-1.262-1.415-1.813-.66-.388-2.279-.583zM124.9 370.063l-.467-.046-.652-3.814q-.125-.71-.068-1.292.063-.632.513-1.01.46-.385 1.063-.326.69.069 1.014.552.335.485.283 1.01-.043.437-.355 1.3l-1.331 3.626zM140.375 368.131l-1.697 4.077-.366-.163q.417-1.632-.191-3.004-.595-1.376-1.773-1.9-.91-.406-1.664-.153-.74.247-1.022.88-.18.402-.13.798.071.534.46 1.199.288.48 1.47 1.905 1.66 1.99 1.987 3.247.318 1.253-.214 2.449-.675 1.517-2.35 2.086-1.662.564-3.482-.246-.571-.255-1.028-.597-.457-.342-1.081-1.005-.349-.37-.626-.492-.231-.103-.57-.04-.338.063-.661.357l-.33-.147 2.033-4.567.33.147q-.465 2.101.197 3.615.676 1.508 1.97 2.084.998.445 1.83.163.84-.278 1.161-1 .19-.429.138-.934-.045-.5-.35-1.064-.3-.572-1.22-1.676-1.29-1.547-1.758-2.44-.468-.892-.547-1.772-.07-.875.307-1.723.644-1.445 2.158-1.99 1.515-.544 3.13.175.588.262 1.078.65.371.295.838.855.48.556.72.663.233.103.43.02.197-.083.556-.576l.267.12z"/></g><g font-size="10"><path d="M191.953 371.843l-.054.357q-.371-.027-.649.11-.277.135-.524.463-.076.107-.835 1.405l-5.74 10.183-.376-.057-1.967-8.93-4.85 7.897-.357-.054-2.688-11.34q-.413-1.712-.622-2.09-.21-.377-.819-.529l.054-.357 5.678.86-.054.357q-.689-.084-.95.074-.25.15-.292.43-.056.366.238 1.626l1.606 6.742 2.808-4.652-.33-1.472q-.272-1.207-.456-1.62-.183-.422-.477-.635-.284-.21-.892-.303l.054-.357 6.344.96-.054.358q-.668-.091-.972-.039-.213.037-.354.184-.14.137-.17.34-.034.221.228 1.427l1.446 6.56 2.984-5.287q.47-.818.595-1.125.125-.307.166-.577.06-.396-.176-.659-.236-.273-.996-.408l.055-.357 3.398.515zM200.525 384.781v.362H193.6v-.362h.44q.576 0 .927-.205.254-.137.39-.469.108-.234.108-1.23v-8.711q0-1.016-.107-1.27-.108-.253-.44-.44-.322-.194-.879-.194h-.439v-.362h6.924v.362h-.44q-.576 0-.927.205-.254.136-.4.468-.108.235-.108 1.23v8.712q0 1.015.107 1.27.117.253.44.449.332.185.888.185h.44zM216.398 379.771l-.12 4.674-11.718.953-.03-.36.438-.035q.575-.047.908-.28.242-.157.352-.499.088-.242.007-1.235l-.707-8.682q-.082-1.012-.21-1.257-.127-.244-.473-.402-.337-.169-.892-.124l-.438.036-.03-.36 7.038-.573.03.36-.575.047q-.574.047-.908.28-.242.157-.361.5-.088.242-.007 1.234l.684 8.41q.082 1.012.222 1.285.14.263.49.372.251.067 1.186-.009l1.1-.09q1.05-.085 1.722-.512.67-.426 1.111-1.266.451-.84.782-2.435l.4-.032zM230.331 377.499l.323 4.664-11.577 2.056-.063-.356.433-.077q.567-.1.877-.364.226-.179.303-.53.065-.25-.11-1.23l-1.523-8.577q-.178-1-.328-1.23-.15-.232-.51-.357-.35-.136-.899-.038l-.432.076-.064-.355 6.952-1.235.063.356-.567.1q-.567.101-.878.365-.226.179-.312.531-.065.25.11 1.23l1.475 8.308q.178 1 .343 1.258.163.249.523.324.256.043 1.18-.12l1.086-.193q1.038-.185 1.665-.673.628-.489.988-1.366.37-.879.548-2.497l.394-.07z"/></g><g font-size="20"><path d="M265.552 365.51l1.125 5.321.373-.078q.86-.182 1.35-.555.49-.373.733-1.064.253-.692.148-1.758l.334-.07 1.376 6.506-.335.071q-.571-1.806-1.507-2.217-.927-.422-1.95-.206l-.372.078.838 3.966q.21.993.368 1.22.167.224.522.348.364.113.908-.002l.43-.091.075.353-6.774 1.432-.075-.353.43-.091q.564-.12.865-.393.22-.186.286-.539.056-.251-.15-1.226l-1.801-8.523q-.21-.993-.368-1.22-.158-.226-.521-.339-.356-.124-.9-.009l-.43.091-.075-.353 10.93-2.311.786 3.717-.392.082q-.41-1.28-1.098-1.794-.678-.515-1.774-.553-.603-.022-2.15.305l-1.205.255zM282.215 375.628l.037.36-6.888.707-.037-.36.437-.045q.574-.058.902-.298.239-.162.341-.507.083-.244-.019-1.235l-.89-8.665q-.103-1.01-.236-1.252-.133-.241-.482-.392-.34-.161-.894-.105l-.437.045-.037-.36 6.887-.706.037.36-.437.044q-.573.059-.902.299-.238.162-.35.507-.083.244.019 1.235l.89 8.665q.103 1.01.236 1.252.142.24.483.402.349.15.903.094l.437-.045zM287.762 369.812l.18 3.706q.053 1.073.193 1.35.15.267.49.416.34.15 1.247.106l.017.36-6.77.33-.017-.36q.917-.045 1.231-.227.323-.192.437-.47.123-.28.07-1.354l-.417-8.583q-.052-1.073-.202-1.34-.14-.276-.48-.426-.34-.15-1.247-.106l-.018-.36 6.145-.3q2.4-.116 3.528.161 1.128.278 1.874 1.14.745.854.804 2.054.071 1.463-.936 2.47-.644.638-1.838 1l3.397 4.322q.667.837.94 1.039.415.283.944.287l.017.36-4.165.203-4.556-5.82-.868.042zm-.316-6.487l.282 5.794.556-.027q1.356-.066 2.017-.342.661-.287 1.01-.949.358-.673.308-1.716-.074-1.512-.821-2.2-.738-.687-2.308-.61l-1.044.05zM305.88 361.666l.376 4.4-.4.024q-.383-1.64-1.556-2.576-1.163-.947-2.45-.868-.994.06-1.546.633-.543.561-.501 1.253.027.439.252.768.311.44.962.85.478.294 2.185 1.012 2.39.998 3.26 1.963.862.965.942 2.27.101 1.658-1.122 2.936-1.214 1.268-3.202 1.39-.624.038-1.187-.055-.564-.093-1.423-.393-.48-.166-.782-.147-.254.015-.525.227-.27.213-.421.623l-.361.022-.305-4.99.36-.023q.558 2.08 1.845 3.116 1.295 1.027 2.708.94 1.092-.067 1.7-.7.616-.635.568-1.425-.03-.468-.31-.89-.27-.424-.8-.783-.532-.369-1.857-.924-1.858-.777-2.685-1.352-.828-.576-1.304-1.32-.466-.744-.523-1.67-.097-1.58.995-2.761 1.092-1.182 2.857-1.29.643-.04 1.257.08.465.088 1.138.37.682.272.945.255.253-.015.39-.18.137-.165.227-.767l.293-.018zM320.255 361.41l.15 3.58-.351.015q-.364-1.226-.767-1.746-.404-.53-1.08-.825-.379-.16-1.306-.122l-.985.042.426 10.206q.043 1.014.16 1.263.128.25.458.431.34.172.906.148l.439-.018.015.36-6.928.29-.015-.361.44-.018q.575-.024.918-.244.248-.147.38-.485.098-.239.056-1.234l-.426-10.206-.956.04q-1.337.056-1.918.647-.816.826-.98 2.299l-.37.015-.15-3.58 11.884-.497z"/></g></g></g><path d="M196.184 134.579v11.774h-12.438v8.88h12.438v8.879l-32.215 46.196 73.604.065-32.01-46.068v-9.073h12.436v-8.879h-12.437V134.58h-9.378zm26.478 68.475l-43.383.135 21.557-32.829 21.826 32.694z" fill="#fff" stroke="#000" stroke-linecap="round" stroke-miterlimit="5"/><path d="M245.753 80.507l-21.223 6.445 15.157 16.194-21.602-5.03 5.03 21.602-16.194-15.157-6.445 21.223-6.445-21.223-16.193 15.157 5.03-21.602-21.603 5.03 15.157-16.194-21.223-6.445 21.223-6.445-15.157-16.194 21.602 5.03-5.03-21.602 16.194 15.157 6.445-21.223 6.445 21.223 16.194-15.157-5.03 21.602 21.602-5.03-15.157 16.194 21.223 6.445z" fill="#fff" stroke="#000" stroke-width="1.34054"/></svg>