<svg xmlns="http://www.w3.org/2000/svg" height="1872" width="1779.627" version="1.0"><path d="M13.995 932.847a876 914 0 01875.813-913.83 876 914 0 01876.187 913.44 876 914 0 01-875.115 914.559A876 914 0 0113.996 934.304l875.999-1.29z" fill="#fff"/><g fill-rule="evenodd"><path d="M279.875 275.406c-6.178.35-12.334 4.518-15.219 6.75 5.18 2.267 10.71 4.037 16.594 5.25 9.375 1.574 18.75 1.563 28.125 1.563 1.53-.193 3.045-.41 4.531-.656l19.75-6.657s-9.5-6.271-17.031-6c-7.531.272-12.615 7.639-18.688 7.094-6.072-.544-8.504-7.344-17.25-7.344-.273 0-.539-.015-.812 0z" font-size="12" fill="#083d9c" stroke="#083d9c" stroke-width="2.194" transform="matrix(10.00001 0 0 9.99999 -2086.212 -1070.149)"/><path d="M229.677 257.103l134.133.466c2.348-1.654 2.69-1.077 4.057-2.963-.664-1.148-1.84-2.393-3.344-3.564-3.006-2.34-7.317-4.381-11.446-4.742-6.804.24-11.66 6.962-17.247 7.203-5.587.24-11.902-6.963-18.219-6.721-6.315.239-12.874 6.721-19.19 6.721-6.315 0-10.931-6.963-18.947-6.963s-11.66 7.682-17.732 7.203c-6.075-.48-11.418-7.682-17.248-7.682-5.83 0-15.546 8.642-17.49 8.161-1.942-.48 2.429 3.602 2.673 2.881z" font-size="12" fill="#083d9c" stroke="#083d9c" stroke-width="2.061" transform="matrix(10.00001 0 0 9.99999 -2086.212 -1070.149)"/><path d="M262.713 213.65l71.903.24" font-size="12" fill="#630810" stroke="#630810" stroke-width="2.792" stroke-linecap="round" transform="matrix(10.00001 0 0 9.99999 -2086.212 -1070.149)"/><g fill="#630810" stroke="#630810" stroke-width="1.806" stroke-linecap="round"><path d="M171.25 126.893l5.469 7.344M171.25 134.237l5.938-7.187M174.375 126.424l-.156 4.531" transform="matrix(15.54645 0 0 15.36458 -2087.405 -1053.758)"/></g><g fill="#630810" stroke="#630810" stroke-width="1.806" stroke-linecap="round"><path d="M171.25 126.893l5.469 7.344M171.25 134.237l5.938-7.187M174.375 126.424l-.156 4.531" transform="matrix(15.54645 0 0 15.36458 -1951.374 -1053.758)"/></g><g fill="#630810" stroke="#630810" stroke-width="1.806" stroke-linecap="round"><path d="M171.25 126.893l5.469 7.344M171.25 134.237l5.938-7.187M174.375 126.424l-.156 4.531" transform="matrix(15.54645 0 0 15.36458 -1812.913 -1053.758)"/></g><g fill="#630810" stroke="#630810" stroke-width="1.806" stroke-linecap="round"><path d="M171.25 126.893l5.469 7.344M171.25 134.237l5.938-7.187M174.375 126.424l-.156 4.531" transform="matrix(15.54645 0 0 15.36458 -1669.594 -1053.758)"/></g><g fill="#630810" stroke="#630810" stroke-width="1.806" stroke-linecap="round"><path d="M171.25 126.893l5.469 7.344M171.25 134.237l5.938-7.187M174.375 126.424l-.156 4.531" transform="matrix(15.54645 0 0 15.36458 -1531.134 -1053.758)"/></g><path d="M57.524 1073.557l306.065 2.402V886.3L13.79 869.506zM42.938 811.885l325.513 31.209-2.423-134.44L87.586 599.421l-42.213 98.43zM108.527 543.005l250.208 120.032 35.726-36.863s-23.01-15.668-21.87-30.083c.432-14.582 23.146-16.794 23.58-32.62.416-14.583-25.73-16.335-26.012-30.925-1.708-15.81 20.154-32.763 20.154-32.763L220.884 353.94zM1750.626 1075.96h-323.073l-2.423-184.855 332.479-24.761zM1758.48 808.911c-4.08-30.01-8.358-59.945-15.313-89.375-9.311-39.4-21.205-78.166-35.625-115.937-1.064-2.788-2.658-5.348-3.75-8.125l-276.25 115.625 2.5 136.875zM1569.73 364.537l-165.313 125c-.08.105-.26.502-.312.625-.01.04.01.266 0 .312-.008.05.005.262 0 .312-.003.05 0 .258 0 .312.002.06-.004.255 0 .312.01.119-.02.499 0 .625 1.423 7.169 16.024 24.802 18.125 37.812-1.107 19.758-18.051 28.504-20.938 37.188-.07.223-.264.714-.312.938-.03.149.02.476 0 .625-.02.224 0 .712 0 .938.006.148-.02.48 0 .625.02.143-.03.485 0 .625.04.139.268.489.312.625.172.47.35 1.12.625 1.562 4.542 6.88 20.626 10.88 20.625 25.313 0 15.759-14.695 25.133-16.562 26.25 19.049 12.57 22.534 27.88 26.562 43.437l247.5-128.75c-29.521-62.166-66.289-121.025-110.312-174.687zM1109.35 844.291l138.454-5.994 2.423-55.235zM686.67 840.081l-145.747-4.195v-57.621zM686.068 823.287l-145.145-73.83v-96.022s-17.01 2.395-14.578-16.81c.802-40.01 106.675 73.028 160.935 109.836zM1109.334 814.28l-.594-62.412s131.153-117.027 159.09-138.642c0 24.01-15.173 42.604-15.173 42.604v91.233zM259.144 288.524c2.423 2.403 147.175 161.4 147.175 161.4 4.06-15.066 37.436-17.357 71.438-14.955 34.018 2.395 61.128-2.252 61.128 21.758 0 24.002-17.258 20.592-17.258 37.402 0 16.81 25.859 15.399 25.859 36.982 0 21.607-18.75 17.198-18.847 33.929-.06 13.829 19.56 14.566 19.56 14.566l137.853 132.045.602-141.052-266.439-412.991zM486.542 121.717c2.158 6.407 192.498 389.055 192.498 389.055s2.158-359.13 34.604-378.366l-40.551-73.754zM1107.854 80.475l-71.875 248.437s34.7 4.32 62.813 2.187c7.03-.535 11.154.908 13.437 3.125.474.498.942 1.3 1.25 1.875.204.418.495 1.114.625 1.563.28 1.09.377 2.557.312 3.75-.5 6.785-5.312 14.375-5.312 14.375l-.312 160 203.125-358.75c-41.461-21.173-82.447-55.014-129.367-69.727-24.415-9.227-51.24-.86-74.696-6.835zM1360.667 184.225l-251.25 386.249-.312 148.75 165.312-156.875c2.019-1.915 3.518-3.602 4.375-5 .263-.456.472-1.15.625-1.562.08-.242.27-.71.312-.938.02-.15-.006-.481 0-.625-.001-.141.02-.49 0-.625-.02-.134.04-.496 0-.625-.04-.127-.257-.502-.312-.625a6.168 6.168 0 00-.625-.938c-3.992-4.714-17.131-7.41-18.437-21.563.266-2.787.932-5.121 1.875-6.875 3.58-6.303 10.974-7.423 15.625-13.125 2.418-3.088 4.062-7.587 4.062-15 0-5.212-.614-8.742-1.562-10.937-.113-.244-.19-.721-.312-.938a9.816 9.816 0 00-.938-1.25l-.312-.312c-.05-.05-.262-.267-.312-.312-2.161-1.82-5.147-2.173-7.813-4.063-.127-.09-.499-.21-.625-.312-.25-.214-.692-.684-.938-.938a16.615 16.615 0 01-1.25-1.562c-1.615-2.448-3.116-6.42-4.062-12.5-.493-2.422-.638-5.018 0-7.5.119-.427.46-1.14.625-1.563.139-.337.455-.917.625-1.25.535-.994 1.336-2.189 2.187-3.125.22-.233.696-.71.938-.938 5.81-5.277 17.835-9.375 40.313-9.375 40.773 0 83.626-7.821 90.625 8.75.704-.708 90.417-90.428 128.438-129.687-48.44-50.457-104.25-95.241-166.876-132.812z" fill="#ff9c10"/><path d="M289.935 221.582c-6.921 11.33-25.425 7.97-29.752.06-1.296-.363-.529-48.8-.529-48.8s-2.068-.93-2.163-2.42c-.095-1.504 2.811-1.64 2.811-3.565 0-1.924-2.968-1.17-3.027-3.106.013-1.852 3.168-1.596 3.027-3.308-.167-1.928-3.534-1.643-3.677-3.42-.109-1.412 2.409-2.644 3.108-3.279l-2.35-.034-5.3.107c-3.766.004.065.811.01 2.958-.035 1.403-1.91 2.336-2.078 3.556-.059 1.252 2.683 2.131 2.718 3.634.031 1.34-2.694 1.432-2.596 2.677.169 2.109 2.414 2.573 2.38 3.85-.034 1.274-3.02 1.76-3.029 2.778.105 1.968.433 49.807.433 49.807 4.758 24.37 32.228 30.569 40.015-1.495zM308.048 221.582c6.922 11.33 25.425 7.97 29.751.06 1.297-.363.53-48.8.53-48.8s2.068-.93 2.163-2.42c.095-1.504-2.63-1.64-2.63-3.565 0-1.924 2.787-1.17 2.846-3.106-.012-1.852-2.925-1.716-2.784-3.428.166-1.928 2.453-1.703 2.583-3.48.11-1.531-1.436-2.464-2.135-3.099l2.23-.034 5.298.107c3.766.004-.065.811-.009 2.958.034 1.403 1.909 2.336 2.078 3.556.058 1.252-2.684 2.131-2.719 3.634-.03 1.34 2.695 1.432 2.597 2.677-.17 2.109-2.415 2.573-2.38 3.85.034 1.274 3.02 1.76 3.028 2.778-.104 1.968-.432 49.807-.432 49.807-4.76 24.37-32.228 30.569-40.015-1.495z" font-size="12" fill="#ce1126" stroke="#630810" stroke-width="1.932" stroke-linejoin="round" transform="matrix(10.00001 0 0 9.99999 -2086.212 -1070.149)"/><path d="M283.215 243.862l30.908-.018s-5.409-9.427-15.45-9.823c-9.501.246-15.458 9.841-15.458 9.841zM373.837 243.118h-34.363s5.474-3.197 6.966-6.147c2.736 1.475 1.99 2.95 7.464 3.196 5.473.246 10.697-6.146 15.923-5.9.653.03 1.329.196 2.013.46.683.266 1.374.63 2.056 1.061.682.43 1.356.926 2.004 1.452zM220.39 243.118h37.006s-5.474-3.197-6.966-6.147c-2.736 1.475-1.99 2.95-7.464 3.196-5.472.246-10.697-6.146-15.923-5.9-2.612.123-5.597 2.397-7.929 4.61.235 2.805.41 2.464 1.275 4.241zM218.26 229.976l30.12.239s-1.942-4.08-2.185-9.122c-7.775-2.64-14.09 5.762-19.677 6.002-5.586.24-11.415-6.002-11.415-6.002zM379.07 229.976l-30.122.239s1.943-4.08 2.186-9.122c7.774-2.64 14.09 5.762 19.676 6.002 5.587.24 11.416-6.002 11.416-6.002zM290.891 230.215l15.302-.02s.244-5.02-7.772-5.02-7.53 5.04-7.53 5.04z" font-size="12" fill="#083d9c" stroke="#083d9c" stroke-width="2.061" transform="matrix(10.00001 0 0 9.99999 -2086.212 -1070.149)"/><path d="M281.66 223.734c2.672-1.441 5.1-2.88 6.802-6.242l-10.446.24s-4.857 2.882-7.287 6.002z" font-size="12" fill="#630810" stroke="#630810" stroke-width="2.792" stroke-linecap="round" transform="matrix(10.00001 0 0 9.99999 -2086.212 -1070.149)"/><path d="M244.008 270.308l108.719.465c.288-1.234 1.053-.63 1.81-1.602a44.215 44.215 0 00-4.588-3.574c-3.856-2.611-9.14-5.252-14.849-5.371-11.416-.242-8.258 4.8-17.003 5.52-8.744.72-10.932-5.281-18.948-5.042-8.015.24-12.631 5.042-18.703 5.283-6.073.24-13.846-6.003-18.462-5.761-4.616.239-21.134 7.2-21.134 7.2z" font-size="12" fill="#083d9c" stroke="#083d9c" stroke-width="2.061" transform="matrix(10.00001 0 0 9.99999 -2086.212 -1070.149)"/><path d="M315.425 223.734c-2.673-1.441-5.1-2.88-6.801-6.242l10.445.24s4.857 2.882 7.286 6.002z" font-size="12" fill="#630810" stroke="#630810" stroke-width="2.792" stroke-linecap="round" transform="matrix(10.00001 0 0 9.99999 -2086.212 -1070.149)"/></g><path transform="matrix(72.5399 0 0 80.79992 -19857.89 -11076.382)" d="M274.077 148.666a11.941 11.259 0 0111.938-11.257 11.941 11.259 0 0111.944 11.252 11.941 11.259 0 01-11.929 11.266 11.941 11.259 0 01-11.953-11.243" fill="none" stroke="#fff" stroke-width=".651" stroke-linecap="round" stroke-linejoin="round"/><path d="M746.944 752.866l317.96 86.463V377.41c-145.633 7.415-266.976-281.587-9.708-301.346-252.419-37.056-281.55 29.64-310.673 101.27z" font-size="12" fill="#ce1126" fill-rule="evenodd" stroke="#630810" stroke-width="19.589" stroke-linejoin="round"/></svg>