<svg version="1.1" id="Layer_1" xmlns="http://www.w3.org/2000/svg" x="0" y="0" viewBox="0 0 595.3 683" xml:space="preserve"><style>.g{fill:#01411c}</style><path id="zuaen" class="g" d="M174.9 624.6c-5.8-3.5-14.1-2.6-20 .2-1.9.9-3.8 1.7-5.7 2.2 1 .2 2 .4 3.1.7 7.4 1.5 15.2 2.8 22.4 5.1 1 .3 2.1.7 3.1 1 2.4-2.8 0-7.4-2.9-9.2z"/><path id="wreath" class="g" d="M21.8 322.8c.1-.4.2-.9.4-1.2-1.4-.6-2.8-1.4-4-2.4-4.8-1.8-10.3-.7-14.8 1.1 2.4 2.8 6 4.8 9.8 5.5 1.5.2 2.9.2 4.3 0 1.5-.2 3-.6 4.3-1.3-.1-.6-.1-1.2 0-1.7zm3.3-3.9c-.8-2.1-1.2-4.3-1.1-6.5-2-4.5-6.1-7.5-10.1-9.5-.3 4 .8 8.2 3.1 11.6.7 1 1.4 1.9 2.3 2.6 1.2 1.1 2.6 2 4.1 2.5.1 0 .2.1.2.1.5-.3 1-.6 1.5-.8zm-.8 11.4c.2-.7.2-1.5.2-2.2-.1-.1-.3-.1-.4-.2-.4-.2-.7-.5-1-.8-.2-.2-.3-.4-.5-.6-1.3.6-2.6 1.1-4 1.3-3.7 3.9-4.7 9.6-4.7 14.6 3.6-1.3 6.8-4.1 8.8-7.6.8-1.4 1.3-3 1.6-4.5zm4.9-6.7v-.1c0-.2 0-.3-.1-.5 0 0-.1-.1-.2-.1 0 0 .1.1.2.1-.1-.4-.3-.8-.6-1.1 0 0-.1-.1-.1-.2-.3-.3-.6-.5-1-.6-.3-.1-.6-.2-.9-.2h-.4c-.3.1-.7.2-.9.4-.1 0-.1 0-.1.1-.1.1-.2.2-.4.3-.1.2-.3.3-.4.5s-.2.4-.2.6c-.1.2-.1.4-.1.5v.1c0 .3 0 .6.1.8.1.2.1.4.2.6 0 .1.1.2.2.3 0 .1.1.1.1.2s.1.1.1.2c.5.5 1.1.8 1.8.8h.2c.6 0 1.2-.3 1.6-.7l.1-.1.2-.2c.1 0 .1-.1.1-.1.3-.4.5-1 .5-1.6zm2.4-6.4c3.2-5 2.4-11.4.7-16.8-2.7 2-4.8 5.2-5.7 8.8-.2.9-.4 1.8-.4 2.8-.1 2.4.3 4.7 1.3 6.8.2.1.5.1.7.2 1.1-.7 2.2-1.4 3.4-1.8zm5.2 26.1c.8-3.6.2-7.6-1.5-11-1.2-2.3-2.9-4.3-5-5.6-.1.1-.2.3-.4.5-.8.8-2 1.3-3.2 1.4 0 .6-.1 1.2-.2 1.8 1 5.7 5.7 9.9 10.3 12.9zm9.1-21.9c-2.8-2-6.4-3.1-10-2.9-1.1.1-2.1.3-3 .6-1 .3-1.9.7-2.7 1.3.2.3.5.6.6 1 .3.7.5 1.4.5 2.2v.4c5.3 2 10.6 0 14.6-2.6zm-4.4-77.3c1.4-9.5 1.9-19.6-1.9-27.9-2.4 6.4-4.2 13.9-2.7 20.5.3 1.5.9 3 1.6 4.4l-.2.2c-1-1.1-2.2-2.3-3.4-3.3-5.9-5.3-13.7-9.7-21.7-12.3 2.1 5.9 6.6 10.1 11.8 13.1 1.2.7 2.5 1.4 3.7 1.9-1.4 0-2.6.2-3.7.7-2.8 1.1-4.8 3.5-6.6 6.3 2.6-.2 5.3 0 7.8.3 4.8.4 9.4.8 14.1-1.2.3-.1.5-.2.8-.3.1-.3.1-.7.2-1v-.3c0-.2.1-.4.1-.7.1-.1.1-.3.1-.4zm16.7 170.8v-.3c-.5-.6-1-1.2-1.6-1.7-6.2-6.7-12.5-12.4-21.6-11.6 1.5 4.5 4.3 7.5 7.5 9.4 1.5.9 3.1 1.6 4.7 2.1-1.7-.1-3.4 0-5.1.3-7.2 1.2-13.7 6-16.9 12.9 7.2 0 14.9-.2 21.2-3.6 1.3-.7 2.5-1.5 3.7-2.4-.8 1.3-1.4 2.7-2 4.1-1.9 4.8-2.5 10-2.7 14.5 8.7-5.6 11.8-15.5 12.8-23.7zm3.6-15.4c-.6-1.2-1.1-2.5-1.7-3.7-1.9-4.2-3.9-8.6-6.3-12.6-2.8-4.7-8.4-11.7-14.5-14.6 3.6 4.6 6.9 9.5 10.3 14.3 3.2 4.7 6.3 9.1 9.5 13.2.9 1.3 1.8 2.4 2.7 3.4zm-.8-228c-.1-.1-.1-.3-.1-.4-.1-.4-.2-.9-.2-1.3 0-.2 0-.5.1-.7.1-.5.2-1 .4-1.4-1.4-.4-2.8-.6-4.2-.6-5.3.1-10 3.4-13.5 7 3.5 1.6 7.6 2 11.5.9 1.6-.4 3-1.1 4.3-2 .6-.5 1.2-.9 1.7-1.5zm2.8-6.3c-.1-1.7-.5-3.2-1.1-4.5-2.1-4.8-6.8-7.9-11.3-9.9-.2 3.8.9 7.7 3.2 10.9.9 1.2 1.9 2.2 3 3.1 1.6 0 3.3.3 5.1 1 .4-.3.7-.5 1.1-.6zm1.9 17c.8-2.5.9-5.1.4-7.5-.2 0-.4.1-.6.1-1.3 0-2.4-.5-3.3-1.3-.4.4-.9.8-1.4 1.1-3.3 4.8-3 11.2-1.7 16.6 3.1-2.1 5.5-5.3 6.6-9zM71 272c-1.2.3-2.5.4-3.8.4-1.8 0-3.7-.3-5.4-.8-1.2 3.4-2.2 7-3 11-.9 3.9-1.5 7.8-2 11.7 3.5-8.1 8-15.9 14.2-22.3zm-2.9-102.1v-.2c0-.4-.1-.9-.3-1.2-.1-.2-.3-.5-.5-.7l-.3-.3c-.3-.2-.6-.3-.9-.4h-.6c-.2 0-.4 0-.6.1-.2 0-.4.1-.6.2-.2.1-.3.2-.5.3h-.1c-.2.2-.4.4-.5.7-.1.2-.2.4-.2.6 0 .1-.1.2-.1.3v.4c0 .7.3 1.4.7 1.9 0 0 .1.1.2.1.4.4 1 .6 1.7.7h.4c.6-.1 1.2-.4 1.6-.8l.1-.1c.1-.1.2-.2.2-.3.2-.4.3-.8.3-1.3zm3.5-10.4c1.4-4.5.6-9.3-.8-13.4-3 2.6-5.1 6.4-5.8 10.4-.2 1.2-.2 2.3-.2 3.4.1 1.7.5 3.3 1.2 4.8 0 .1.1.1.1.2.6.1 1.1.2 1.6.5.1 0 .1.1.2.1 1.8-1.8 3-3.8 3.7-6zM73.1 375s0-.1 0 0c0-.2-.1-.4-.2-.6-1.5-3.5-4.6-5.6-7.4-6.8 0 6.4.5 11.8 6.9 13.5.3-2.1.5-4.1.7-6.1zm.6-22.4c0-.1 0-.3.1-.4l-2.4-.3c-3.4-.4-7.2-.8-10.2-3.8.3 3.1 1.7 5.6 4.1 7.2 2.7 1.8 6.3 2.4 9.8 1.6-1.1-1.2-1.6-2.7-1.4-4.3zM75 197.8c.4-4.6.8-9.2 1.4-13.8-2.1-.9-4.2-2.1-5.9-3.8 1.3 4.8 2.1 9.9 2.8 14.9.6.9 1.2 1.8 1.7 2.7zm1.1 65.7l.3-.6c-4.2-1.2-8.1-.3-11.6 1.6-.7 1.3-1.3 2.7-1.9 4-.1.3-.3.7-.4 1 2.7.7 5.7.8 8.4.2 1.9-.4 3.7-1.2 5.1-2.3-.5-1.2-.5-2.6.1-3.9zm1.7-89.3l-.9-.9c-1-.9-2.1-1.7-3.3-2.2-.8.2-1.6.3-2.5.3-.3 0-.6 0-1-.1-.3.9-.8 1.7-1.5 2.2 1.6 3.9 4.7 6.4 8.1 8 .3-2.4.7-4.9 1.1-7.3zm.5-2.6c.2-.9.3-1.7.5-2.5-.7.5-1.4.8-2.2 1.2.6.4 1.1.8 1.7 1.3zm.7 175.9c.2-3.4-.1-6.5-.8-9.2-1.5-5.9-4.7-10.2-7.9-13.2-1.7 9.5.3 19.6 4.6 24.5.7-.9 1.6-1.5 2.7-1.8.4-.2.9-.3 1.4-.3zm1.3-94c-.3-2.7-1.4-5.3-2.8-7.6-1.7 2-3.4 4.1-5 6.3 0 .1 0 .2.1.3.8 3.7 2.9 6.7 5.7 8.6.3-.1.5-.3.8-.4-.2-2.3.2-4.8 1.2-7.2zm-.7-87.8c.8-3.1 1.6-6.1 2.7-9.1-2.2.3-4.4 1-6.3 2.3-.8.5-1.7 1.1-2.4 1.8-.8 2.2-2.1 4.4-4 6.3.2.2.3.4.4.7.2.4.3.9.4 1.3 1.3.1 2.5 0 3.6-.3 2-.5 3.9-1.6 5.6-3zm-4.9 215.4c4.4-1.4 7.4-5.1 8.3-10.3-3.2.9-5.5 2-7.5 4.1l-.1.1c0 .2-.1.5-.1.7-.3 1.8-.5 3.6-.6 5.4zm4.8-101.2c.9-2.4 1.3-4.9 1-7.2-.2-.7-.3-1.4-.4-2.1 0-.1 0-.1-.1-.2-.5-.1-1-.2-1.5-.4-.3-.1-.5-.3-.8-.4-6.1 4.4-6.5 12.1-5.6 18.6 3.3-1.7 6-4.8 7.4-8.3zm3 225.4c-.1-.1-.1-.2-.2-.3-.4-.4-.8-.8-1.1-1.2-4.4-4.1-11.2-4.3-17-3.4 1.5 3 4.3 5.6 7.6 7.1 2.2.9 4.5 1.4 6.8 1.2.4-.1.9-.2 1.3-.3.5-.1 1.1-.2 1.7-.2h.1c0-.6 0-1.3.2-1.8.1-.3.3-.7.6-1.1zm.2-151.9v-.8c-.1-.6-.4-1.2-.8-1.6l-.3-.3c-.2-.1-.4-.3-.6-.4-.2-.2-.5-.3-.7-.3-.2-.1-.4-.1-.7-.1-.1 0-.2-.1-.4-.1-.1 0-.3.1-.4.1-.3 0-.6.1-.8.2-.4.1-.7.4-1 .7-.2.1-.4.3-.5.6-.3.4-.5.9-.6 1.4v.8c0 .7.2 1.3.6 1.8.2.2.3.4.5.6.1.1.2.2.4.3.3.2.7.4 1.1.5.1 0 .2.1.3.1h.8c.2-.1.4-.1.6-.2h.1c.6-.2 1.1-.6 1.4-1 .2-.3.4-.6.5-.9s.2-.6.3-1c.1-.3.2-.3.2-.4zm.2-86.9c.2-.4.2-.9.2-1.3 0-.2-.1-.3-.1-.5 0-.1 0-.1-.1-.2v-.1c-.3-.6-.8-1.1-1.4-1.4-.1-.1-.2-.1-.3-.1-.1 0-.1-.1-.2-.1s-.2-.1-.4-.1h-.4c-.3 0-.6.1-.9.2-.3.2-.6.4-.9.7-.2.2-.3.4-.4.7-.2.4-.2.9-.2 1.3 0 .1 0 .2.1.4s.1.4.2.6c.2.4.5.8.9 1 .1.1.1.1.2.1 0 .1.1.1.2.1h.2c.1.1.3.1.5.1.2.1.3.1.4 0 .4 0 .7-.1 1-.3.3-.1.6-.3.8-.6.1-.1.2-.2.2-.3.1-.1.2-.2.2-.4.2.3.2.2.2.2zm1.3 245.9c-.2-.1-.5-.2-.7-.4-.5-.4-.9-.8-1.2-1.3h-.4c-.9.2-1.9.4-2.9.4-6.1 1.6-10.1 7.1-12.6 12.4 4 .4 8.2-.6 11.7-3 1.2-.8 2.3-1.8 3.2-2.9 1.4-1.5 2.3-3.3 2.9-5.2zm2.4-9.2c2.8-7-1-13.8-5.2-18.7-1.8 3.2-2.4 7.2-1.7 11 .5 2.5 1.5 4.8 3 6.7.5.4.9.9 1.3 1.4l.2.2c.5-.3 1-.4 1.5-.6h.9zm2.5 5.3v-.8c0-.1-.1-.3-.1-.4-.1-.3-.2-.6-.4-.8-.2-.3-.5-.5-.7-.7-.4-.2-.9-.3-1.3-.3H86c-.2 0-.3.1-.4.2s-.3.1-.4.2c-.3.2-.5.4-.7.7 0 .1 0 .1-.1.1 0 0 0 .1-.1.1-.2.3-.2.6-.3.9v.9c0 .2.1.3.1.5.1.3.2.6.4.8.1.1.2.3.4.4l.2.2c.5.4 1.2.6 1.9.4.1 0 .2-.1.3-.1.1 0 .1 0 .2-.1s.3-.1.4-.2c.1 0 .2-.1.3-.2.2-.1.4-.3.6-.6 0-.1.1-.1.1-.2v-.1c0-.2.1-.6.2-.9zm-2.4 25.4c2.8-3.5 4.5-8.4 4.4-12.9 0-.6-.1-1.3-.2-2-.2-2-.9-4.4-2.5-6.4-.1.1-.2.1-.3.1-.3.1-.5.2-.8.2-.3.1-.5.1-.8.1h-.1c-.6 2-1.6 4-2.9 5.6-1.1 5.5.8 11 3.2 15.3zm2-275.6c3.8-4.1 5.1-9.7 5.4-14.6-4.3 1.4-8.2 4.6-10.6 8.4-.3.5-.6 1.1-.9 1.8-.9 1.9-1.5 4.2-1.4 6.8.1 0 .2 0 .4.1.3.1.6.2.8.3.3.1.6.3.8.5 1.6-1.6 3.4-2.6 5.5-3.3zm16.9 5.2c-3.1-2.6-7.3-4-11.4-3.9-1.5 0-2.9.2-4.2.6-1.9.6-3.7 1.5-5.2 2.9l.3.6v.1c.2.6.3 1.2.3 1.8.1.1.3.2.4.2.9.3 1.8.7 2.7 1.2 5.8 2 12.1-.4 17.1-3.5zm-18.5 83.6c7-6.2 8.3-16 7.9-24.4-5.5 2.1-10.3 6.5-13.1 12.1-.6 1.2-1.1 2.4-1.5 3.6.7 2.8.9 6 .7 9.5.9.3 1.7.9 2.3 1.6 0 .1.1.1.1.1 1.4-.7 2.6-1.6 3.6-2.5zm8.1-63c.4-3.4-.6-7.1-2.6-10.1-1.3-2-3-3.6-4.9-4.8-1-.3-1.9-.7-2.9-1.3-.5 1-1.3 1.7-2.3 2.1v.4c.1.5.2 1 .3 1.6 1.4 5.8 7 9.7 12.4 12.1zm1.9 84.2c-.7-.7-1.3-1.4-2-2.1-2-2.1-4-4.2-6.2-5.9-2.2-.3-4.5-1-6.8-2.2-.5.3-1 .6-1.6.7 4.5 4.8 9.9 9.4 16.6 9.5zm6.7 104.1c-3.1-6.4-8.1-11.4-12.2-14.8-.1 1 0 2 .2 3.1.5 1.5 1.1 3.1 1.7 4.6.5.3.9.7 1.4 1 2.8 2.1 5.8 4.2 8.9 6.1zm5.8-122c-4.4-2.9-10.2-4.1-15.6-3.2-2 .3-3.9.9-5.6 1.8-1.1 1-2.4 1.8-3.8 2.6.2.7.3 1.5.2 2.3-.1.5-.2.9-.3 1.4-.2.5-.4.9-.7 1.2 2 .9 3.9 1.4 5.8 1.6 7.6.8 14.7-3.3 20-7.7zM92.5 507.5c5.8-2.3 8.7-8.1 10.1-13.4-3.8.4-7.6 2.2-10.4 5.1-1.4 1.4-2.4 3.1-3.1 4.8 1.1.7 1.8 1.9 2.1 3.3v.1c.4.1.7.1 1.1.1h.2zm11.2-374.7c-1.6-3.1-2.7-6.7-3-10.5-1.1-1-2.2-1.5-4-1.7 1.2 4.8 2.6 9.9 7 12.2zm1.3 392c-.4-3.7-2.1-7.4-4.9-10.2-2.6-2.6-5.9-4.1-9.3-4.2-.1.2-.2.3-.3.5-.1.1-.2.2-.2.3 1.4 1.9 2.3 4.2 2.8 6.8 2.9 3.7 7.5 5.7 11.9 6.8zm2.6-398.6c.2-1.4.3-2.8.3-4.2-.1-3.6-.9-7.2-2.4-10.8-1.9 3.1-2.7 6.6-2.5 10.1 0 .9.1 1.7.2 2.6.3 2 .8 3.9 1.6 5.7.4 1 .8 1.9 1.3 2.8.2-.5.3-.9.5-1.4.4-1.6.7-3.2 1-4.8zm4.1 52.3c.1-.8.1-1.7-.2-2.8-.2-.5-.3-1-.4-1.6-.3.1-.5.1-.8.1-.9 0-1.8-.3-2.5-.8-1.1 2-2 4.1-2.2 5.9-.1 1.6.2 3 .7 4.4.4.8.8 1.5 1.3 2.3.1.2.2.3.3.5 1.9-2.4 3.4-5.6 3.8-8zm1.2-9.2c0-.3 0-.5-.1-.7-.1-.3-.2-.6-.4-.9-.1-.1-.2-.2-.2-.3-.5-.5-1.1-.7-1.8-.7h-.1c-1.1.1-2 .8-2.3 1.8-.1.3-.2.5-.2.8v.3c0 .5.2.9.5 1.3.2.2.4.5.7.6.3.2.7.4 1.2.4h.2c.1 0 .2 0 .3-.1.6 0 1.1-.3 1.5-.7.2-.2.4-.4.5-.7.1-.1.1-.2.1-.3.1-.2.1-.5.1-.8zm-4.4-37.5c3.8-2.3 8.5-6.6 7.9-13.8-2 .9-4.6 2.3-6.4 4.7 0 3.1-.5 6.1-1.5 9.1zm15.7 296.6c-4.8-.6-10.4-.7-15.7 1-1.5.5-3 1-4.4 1.9 1-1.1 1.9-2.4 2.7-3.7 4.4-7.3 5-17 5.2-26-6.1 3.2-10.5 9.9-12 17.5-.4 1.9-.6 4-.6 5.9-.3-2-.9-3.9-1.8-5.8-1.4-2.8-3.5-5.3-6.7-7.1-2.1 9.3 2.3 16.6 7.7 24 .4.5.8 1 1.2 1.6h.4c2.7.1 5.6 0 8.6-.6.8-.2 1.6-.4 2.3-.6 4.8-1.1 9.4-3.6 13.1-8.1zm-2.8-246.3c-.1-2.8-1-5.9-2.3-7.8-.3-.4-.6-.8-1.1-1.3s-1.2-.9-1.9-1.4c-.2-.1-.7-.3-1.2-.6 0 .1 0 .1-.1.2-.3.8-.9 1.5-1.6 2v.2s0 .1.1.1c.2.5.3 1.2.5 1.8.4 1.2.9 2.4 1.6 3.3 1.5 2.2 3.5 3.1 6 3.5zm-10.5 272.3c3.5 5.5 6.8 9.9 12.3 8.6-.8-1.8-1.7-3.6-2.5-5.4-.1-.3-.3-.6-.4-.9-.1-.1-.1-.2-.2-.3-3.1-2.1-6.5-2.3-9.2-2zm9.1-291.3c1.7-2 2.2-4.2 2.2-6.7-2.6.7-5.5 2.1-7.1 3.7-.8.8-1.4 1.9-2 3.6-.1.3-.2.8-.3 1.3v.1c.6.4 1.2.9 1.6 1.5 2.1-.9 4.2-2.1 5.6-3.5zm10.2 350.8l-6.3-.9c-.9-.1-1.9-.2-2.9-.3-3.2 2.2-6.6 4.8-8.1 9.2 6.1.7 13.6-1.6 17.3-8zm-6-3.1c2.2.3 4.4.6 6.6 1-1.7-7.4-11.2-9.9-17.6-10.2 1 1.6 2.6 3.1 4.2 4.6 1.5 1.4 3 2.8 4.1 4.4.9 0 1.8.1 2.7.2zm1.1-48.5c5.3-4.8 7.2-10.5 5.3-15.9-3.7 3.3-6.2 6.1-7.6 9.6-.1.2-.2.5-.3.7.1.1.1.2.1.3.8 1.7 1.7 3.5 2.5 5.3zm14.3 32.3c-5.6-8.7-9.9-17.9-14.2-27-.3-.6-.6-1.3-.9-1.9h-.1l-.4-.6c-.9.2-1.8.4-2.6.4-4.3 0-7.5-3-10.2-6.6-.4-.5-.8-1.1-1.1-1.6-.7-1-1.3-2-2-3l-.8-1.4 1.5-.3c2.7-.6 6.1-.8 9.5.5-2.5-4.8-5.1-9.4-8.1-13.9-3 .7-5.9.9-8.5.9-.6 0-1.2 0-1.8-.1H99s0 .1-.1.1c-1.3 2-2.6 4.1-3.7 6.1 4.1 2.8 8.2 6.1 11.5 10.3.5.7.9 1.5 1.4 2.1.4.6.7 1.1 1.1 1.7 1.2 2 2.5 4 3.7 6 4.5 7.3 9.1 14.9 14.7 21.7 3.8 2.3 7.8 4.4 12 6.6zm-.5-374.7c.1-1.1.1-2.3 0-3.4-.1-.7-.1-1.3-.3-2-.6-2.9-1.7-5.4-3.2-7.3-.6 4.6-.5 10.3 1.7 14.8.3.6.6 1.2 1 1.7.5-1 .6-2.3.8-3.5v-.3zm3.5 425.2v-3-.2c-.7-.6-1.4-1.2-2.2-1.8-7.7-5.9-16.3-10.7-28.7-11.9 2.3 5.7 8.2 9.7 14.8 12.4 1.1.4 2.2.9 3.4 1.3.1.1.2.1.3.1-1 .2-1.9.4-2.9.7l-.9.3c-9.1 3.1-17.2 10.5-24.5 17.6 9.1 2.5 20.3-1.4 28.4-9.2 1.3-1.2 2.5-2.6 3.6-4-.6 1.7-1.2 3.4-1.6 5.2-2.4 9.6-2.2 20.3-1.3 29.2 8.6-9.2 11-23.1 11.4-34.4.2-.8.2-1.6.2-2.3zm6.1-415.7c2.3-.2 3.6-.3 5.5-1.2-2.1-2.2-5.5-4.9-9.9-4.3-.3 0-.6.1-.9.1-.9.2-1.7.5-2.5.9-.4.2-.8.4-1.2.7 2.4 2.4 5.3 3.7 9 3.8zm-4.9-7.6c5.2-2.5 11.2-6.8 11.1-13.4-5.4.9-10.8 4.2-13.6 8.6.1 1 0 2.1-.1 3.2v.4c-.1.7-.1 1.3-.3 2.1.7-.3 1.4-.5 2.1-.7.3-.1.6-.2.8-.2zm20.4 364.8c.1-.3.3-.6.5-.8-.9-.6-1.7-1.3-2.4-2-7.9-4.8-15.5-4.4-21.2-2.6 5.3 4.7 12.7 8.2 18.7 8.5 1.4.1 2.8 0 4-.4v-1.1c.1-.6.3-1.1.4-1.6zm2.3 6.7c-.2-.2-.5-.3-.7-.5-.5-.4-.9-.9-1.2-1.5-1.3.4-2.7.5-4.2.6-4.6 2.2-7.5 5.5-9.4 8.8l3.3 1.8c4.8-1.7 9-4.6 11.3-7.8.4-.5.7-.9.9-1.4zm2.4-13.9c.5-6.5-3.9-12.6-8.5-17.2-1.7 3.3-2.2 7.3-1.3 11.3.7 3.3 2.3 6.2 4.6 8.5.8.9 1.7 1.6 2.8 2.2.1-.1.2-.1.2-.1.3-.1.6-.3.9-.4.2-1.6.6-3 1.3-4.3zm3.1 9.9c.1-.4.1-.8 0-1.2v-.1c0-.1-.1-.3-.1-.5-.2-.6-.6-1-1.1-1.3 0 0 0-.1-.1-.1-.1-.1-.3-.2-.4-.3-.2-.1-.4-.1-.6-.2h-1c-.1 0-.2 0-.2.1-.3.1-.7.2-.9.4-.3.2-.6.5-.8.8-.1.2-.2.3-.3.6v.1c-.1.3-.2.6-.2 1s0 .9.2 1.3c0 .1.1.3.2.4.1.1.1.2.2.3.2.2.4.5.7.6.1.1.3.2.4.3.1.1.3.1.4.1.4.1.9.1 1.3 0 .2 0 .4-.1.6-.2.1-.1.2-.1.3-.2s.2-.1.2-.2c.4-.3.8-.7 1-1.2.1-.1.1-.2.1-.4 0 .1.1 0 .1-.1zm3.5 19.9c1.3-3 1.6-6.6.7-10.1 0-.1-.1-.2-.1-.3-.5-1.6-1.2-3-2-4.3-.5-.7-1-1.3-1.5-1.9-.1.1-.3.2-.4.3-.2.1-.3.2-.5.3-.8.5-1.6.7-2.5.7h-.3c-.3.6-.6 1.1-.9 1.6 0 5.4 3.7 10.1 7.5 13.7zm-.1-24.7c6.6-3.2 9.7-9.5 11.2-15.1-6.3 1.1-12.7 5.1-15.6 10.4-.6 1.2-1 2.4-1.3 3.7.2 0 .3.1.5.1.3.1.5.2.8.3.7.3 1.3.8 1.8 1.3.9-.3 1.8-.6 2.6-.7zm17.2 9.5c-2.2-3.3-5.9-5.9-9.9-7-2.2-.6-4.4-.7-6.5-.4-.8.1-1.5.3-2.2.6 0 .1.1.2.1.3.3 1.1.2 2.2-.3 3.3 0 .1 0 .1-.1.1.6.6 1 1.1 1.5 1.7 5.2 3.5 11.9 2.9 17.4 1.4zm5.3 61.1v-.4c-.3-3.3.3-6.6 1.6-9.4-3.2 1.3-6.3 2.9-9.4 4.5-2.7 1.3-5.4 2.7-8.2 3.9 5.3-.6 11.2-.5 16 1.4zm5.3-32.5c-.8-.7-1.7-1.3-2.6-2-7.5-5.9-15.1-11.8-22-19 .4 3.5-.4 6.9-2 9.7l-.6 1.1-.9-.8c-4-3.5-8.1-8.3-9.2-13.8-2.3 2.4-5.5 4.5-9 6 1.2.6 2.5 1.3 3.7 2 4.3 2.3 9.5 5.1 15 7.6 2.4 1.1 5 2.2 7.5 3.2 7.2 3.1 13.8 5 20.1 6zm-.4 42.9v-.2c-.2-.2-.5-.4-.7-.7-1.8-1.9-3-4.3-3.7-6.9-4.5-2.2-10.4-2.4-15.7-1.9 1.1 3.2 3.6 6.1 6.9 7.9 2.4 1.3 5 2.1 7.7 2.3 1.9.1 3.7-.1 5.5-.5zm1.5 4.6c.1-.3.1-.6.2-.8-.2-.1-.3-.3-.5-.5s-.4-.5-.6-.8c-.1-.2-.1-.3-.2-.5-1.6.4-3.2.6-4.8.6h-.5c-5.9 2.7-9.3 8.7-11.2 14.2 4.6-.1 9.3-1.9 12.8-5.1.9-.9 1.7-1.8 2.5-2.7.6-.9 1.2-1.8 1.6-2.8.3-.4.5-1 .7-1.6zm2.2-9.3c0-1.9.4-3.9 1.1-5.7-.4-4.1-2.4-8-4.7-11.2-.1 0-.2 0-.3.1-2 3-2.9 6.8-2.6 10.5.1.6.1 1.2.2 1.8.2 1.3.7 2.5 1.2 3.6.6 1.2 1.2 2.2 2 3.1.1-.1.1-.2.2-.3.4-.5.8-.9 1.4-1.2.1-.1.2-.1.3-.2.6-.3.9-.4 1.2-.5zm3.7 5.5c.1-.4.1-.8 0-1.2-.1-.2-.1-.5-.2-.7 0 0 0-.1-.1-.1 0-.1-.1-.1-.1-.2-.2-.3-.5-.6-.8-.8-.1-.1-.2-.1-.4-.2-.3-.1-.6-.2-1-.2s-.6.1-.9.2c0 0-.1 0-.1.1-.1 0-.2.1-.3.1-.2.1-.3.2-.5.4-.3.3-.5.6-.6 1V565c0 .1 0 .2-.1.3-.1.4 0 .9.1 1.4.1.1.1.2.1.3v.1c.3.4.6.7 1 1 .2.1.4.2.6.2.1 0 .1 0 .2.1h.8c.4 0 .8-.1 1.1-.3.3-.1.5-.4.7-.6l.1-.1c0-.1.1-.1.1-.1.1-.4.2-.7.3-1zm-1 25.3c2.5-3.2 3.8-7.6 3.5-11.9-.1-2.9-.9-5.5-2.3-7.8l-1.2-1.8c-.1.1-.1.1-.2.1-.5.2-1 .2-1.5.2-.2 0-.5 0-.7-.1-.2.2-.5.5-.7.8-.5 1.4-1.2 2.9-2.1 4.2-.5 5.9 2.1 11.7 5.2 16.3zm6.4-31.8c2.3-3.9 2.7-8.8 2.3-13-3.5 1.7-6.4 4.8-8 8.5v.1c-.7 1.8-1.2 3.7-1.2 5.5.2 0 .4.1.6.2.9.4 1.7 1 2.3 1.9.1.1.1.2.2.2.1.1.1.3.2.4 0 .1.1.1.1.2.1-.1.3-.2.4-.3 1.3-1.1 2.3-2.3 3.1-3.7zm12.9 14.9c-1.6-3.4-4.6-6.2-8.2-7.8-2.3-1-4.7-1.4-6.9-1.2-.3 0-.6 0-.9.1 0 .2 0 .4-.1.6 0 .2-.1.4-.1.6-.2.8-.6 1.5-1.2 2.1.4.5.7 1 1 1.5 4.4 4.2 10.9 4.7 16.4 4.1zm4.9-23.8c1.5-.4 2.9-.8 4.4-1.1-2.1-2.4-5-3.2-7.4-2.9.8 1.8 1.8 3 3 4zm4.7 3.2c.4-.7.7-1.5.7-2.3-1.2.2-2.3.6-3.5.8-.3.9-.8 1.8-1.2 2.6s-.8 1.7-1.1 2.4c2-.5 4-1.7 5.1-3.5zm7.3-18.4c1.1.3 2.2.2 3.3-.2-.8-.9-1.7-1.9-2.5-2.9-1.1 0-2.1-.2-3.1-.4-.9-.2-1.8-.3-2.6-.4 1.2 1.7 2.9 3.4 4.9 3.9zm1.5 12.9c.5 0 1-.1 1.5-.1-15-6.8-30.1-8.7-43.3-5.4 1.8 2.6 3.3 5.5 4.2 8.6 2.2-3.5 5.5-6.3 9.2-7.7l1.3-.5.2 1.4c.5 3.9.5 8.3-.8 12.4 3.8-2.4 7.8-4.3 11.9-5.8-1.3-1.2-2.4-2.9-3.1-5.2l-.3-1 1-.3c3.6-1.2 8.3-.2 11.3 3.8.1.1.2.3.3.4.2 0 .4-.1.6-.1 2-.2 4-.4 6-.5zm3.3-14.8c1.8-3.2 1.3-6.6-.2-8.9-1.6 1.8-2.1 3.7-2.5 5.6.9 1.2 1.8 2.3 2.7 3.3zm-9.3-13.4c7.4-7.7 13.9-15.5 14.5-28.1-5.7 1.9-9.2 7-11.4 12.6-.7 1.9-1.3 3.9-1.8 5.8 0-1.9-.2-3.9-.5-5.9-2-11.8-9.5-22.3-19-25.9 1.6 8.4 3.5 17.2 7.3 24.6.6 1.1 1.2 2.2 1.9 3.3-1.2-.7-2.5-1.3-3.8-1.9-4.2-1.8-8.6-2.8-12.5-3.3 4.7 11.1 14.2 16.4 22.8 18.9.6.2 1.2.3 1.8.5.3-.2.6-.4.7-.6zm106.8 10.2c-.4-1.9-.9-3.8-2.5-5.6-1.5 2.3-2 5.7-.2 8.9l2.7-3.3zm2 5.1c2-.6 3.7-2.2 4.9-3.9-.8 0-1.7.2-2.6.4-1 .2-2.1.4-3.1.4-.8 1-1.6 1.9-2.5 2.9 1.1.5 2.2.5 3.3.2zm12.4 22.1c-.3-.8-.7-1.6-1.1-2.4-.4-.9-.9-1.7-1.2-2.6-1.2-.3-2.3-.6-3.5-.9.1.8.3 1.6.7 2.3 1.2 1.7 3.2 2.9 5.1 3.6zm2.6-10.9c-2.4-.4-5.3.4-7.4 2.9 1.5.3 3 .7 4.4 1.1 1.2-1 2.3-2.2 3-4zm14.8-45.2c-3.9.6-8.3 1.5-12.5 3.4-1.3.5-2.5 1.2-3.8 1.9.7-1.1 1.3-2.2 1.9-3.3 3.8-7.4 5.7-16.2 7.4-24.6-9.5 3.5-17 14.1-19 25.9-.3 1.9-.5 3.9-.5 5.8-.5-1.9-1.1-3.9-1.8-5.7-2.2-5.6-5.7-10.7-11.4-12.6.6 12.6 7.1 20.4 14.5 28.1l.6.6c.6-.1 1.2-.3 1.9-.5 8.5-2.6 18-7.9 22.7-19zm3.5 68.8c.3-.5.6-1 1-1.5-.5-.6-.9-1.3-1.1-2.1 0-.2-.1-.4-.1-.6v-.6c-.3-.1-.6-.1-.9-.1-2.3-.2-4.7.2-7 1.3-3.6 1.6-6.5 4.4-8.2 7.8 5.5.6 12 .1 16.3-4.2zm3.4-9.7c0-1.8-.4-3.7-1.2-5.5 0 0 0-.1-.1-.1-1.6-3.7-4.5-6.8-7.9-8.5-.4 4.3 0 9.1 2.3 13 .8 1.3 1.8 2.6 3.1 3.7.1.1.2.2.4.3 0-.1.1-.1.1-.2.1-.1.1-.3.2-.4l.2-.2c.6-.9 1.3-1.5 2.3-1.9.2 0 .4-.1.6-.2zm3.6 5.7c.2-.4.2-.9.1-1.4 0-.1 0-.2-.1-.2 0-.1 0-.1-.1-.2v-.1c-.1-.4-.4-.7-.7-1-.1-.2-.3-.3-.5-.4-.1-.1-.2-.1-.3-.1l-.1-.1c-.3-.1-.6-.2-.9-.2s-.7.1-1 .2c-.1.1-.2.1-.4.2-.3.2-.6.5-.8.8-.1.1-.1.1-.1.2s-.1.1-.1.1c-.1.2-.2.4-.2.6-.1.4-.1.9 0 1.2v.1c.1.2.2.5.3.7l.1.1c0 .1 0 .1.1.2.2.3.4.5.7.6.3.2.7.3 1.1.3h.8s.1 0 .1-.1c.2-.1.4-.1.6-.2.4-.2.7-.6.9-1 0 0 0-.1.1-.1.3.1.4 0 .4-.2zm-4 25.1c3.1-4.6 5.7-10.5 5.1-16.2-.9-1.3-1.6-2.7-2.1-4.2-.2-.3-.5-.6-.7-.8-.2.1-.5.1-.7.1-.5 0-1-.1-1.4-.2-.1 0-.1 0-.2-.1-.5.6-.9 1.2-1.2 1.8-1.3 2.3-2.1 4.9-2.3 7.8-.3 4.3 1 8.6 3.5 11.8zm9.1-37.1c.3-3.8-.6-7.6-2.5-10.5-.1-.1-.2-.1-.3-.1-2.3 3.2-4.3 7.1-4.7 11.2.7 1.9 1.1 3.8 1.1 5.7.3.1.7.2 1 .3.1.1.2.1.3.2.5.3 1 .7 1.4 1.2.1.1.2.2.2.3.8-.9 1.5-2 2.1-3.1.5-1.1.9-2.3 1.2-3.5 0-.5.1-1.1.2-1.7zm13.3 27.9c-1.9-5.5-5.3-11.5-11.2-14.2h-.5c-1.6 0-3.2-.2-4.8-.6-.1.1-.1.3-.2.5-.2.2-.4.5-.6.8-.1.2-.3.3-.5.5 0 .2.1.5.2.8.2.6.4 1.2.7 1.8.4 1 1 1.9 1.6 2.8.7.9 1.5 1.8 2.5 2.7 3.5 3 8.2 4.9 12.8 4.9zm-2.9-18.7c3.3-1.8 5.8-4.7 6.9-7.9-5.3-.5-11.2-.3-15.7 1.9-.7 2.6-1.9 5-3.7 6.9-.2.2-.4.5-.7.7v.2c1.8.4 3.6.6 5.4.5 2.8-.2 5.5-.9 7.8-2.3zm15.9-72.8s0-.1-.1-.1c-.5-1.1-.6-2.2-.3-3.3 0-.1 0-.2.1-.3-.7-.2-1.4-.4-2.2-.6-2.1-.3-4.3-.2-6.5.4-4 1.1-7.6 3.7-9.9 7 5.5 1.5 12.1 2.1 17.3-1.4.6-.6 1.1-1.2 1.6-1.7zm3.5-7.3c.2 0 .3-.1.5-.1-.2-1.3-.7-2.5-1.3-3.7-2.8-5.3-9.2-9.3-15.5-10.4 1.5 5.6 4.6 11.9 11.2 15.1.9.2 1.7.4 2.5.7.5-.6 1.1-1 1.8-1.3.3-.2.5-.3.8-.3zm2.5 12c-.4-.5-.7-1-.9-1.6h-.3c-.9 0-1.8-.2-2.5-.7-.2-.1-.4-.2-.5-.3-.1-.1-.3-.2-.4-.3-.6.6-1 1.2-1.5 1.9-.9 1.3-1.6 2.7-2 4.3 0 .1-.1.2-.1.3-.9 3.4-.7 7.1.6 10.1 3.7-3.7 7.4-8.4 7.6-13.7zm1.5-5.8c.2-.4.2-.9.2-1.3 0-.3-.1-.7-.2-1v-.1l-.3-.6c-.2-.3-.5-.6-.8-.8-.3-.2-.6-.3-1-.4-.1 0-.1 0-.2-.1h-1c-.2 0-.4.1-.6.2s-.3.2-.4.2l-.1.1c-.5.3-.9.8-1.1 1.4-.1.2-.1.3-.1.5v.1c-.1.4-.1.8 0 1.2v.2c0 .1.1.2.1.3.2.5.6 1 1 1.2.1.1.2.1.3.2.1.1.2.1.3.2.2.1.4.2.7.2.4.1.9.1 1.3 0 .2 0 .3-.1.4-.1.2-.1.3-.2.5-.2.2-.2.5-.4.7-.6.1-.1.2-.2.2-.3 0-.2.1-.3.1-.5zm5.7 16.1c1.2-.7 2.5-1.3 3.7-2-3.5-1.5-6.7-3.6-9-6-1.1 5.5-5.2 10.3-9.2 13.8l-.9.8-.6-1.1c-1.7-2.9-2.4-6.3-2-9.7-6.8 7.1-14.5 13.1-22 19-.8.7-1.7 1.3-2.5 2 6.4-1 13-3 20.1-5.9 2.6-1 5.1-2.1 7.5-3.2 5.4-2.6 10.7-5.4 14.9-7.7zm1.6-32.4c.9-4 .4-8.1-1.3-11.3-4.6 4.6-9 10.7-8.6 17.2.7 1.4 1.1 2.8 1.4 4.3.3.1.6.2.9.4.1.1.2.1.2.2 1-.7 1.9-1.4 2.7-2.2 2.3-2.4 3.9-5.3 4.7-8.6zm4.7 29l3.3-1.8c-1.9-3.3-4.9-6.6-9.4-8.8-1.5 0-2.9-.2-4.2-.6-.4.6-.8 1.1-1.3 1.5-.2.2-.5.3-.7.5.3.4.6.9.9 1.4 2.4 3.2 6.5 6 11.4 7.8zm13.2-21.3c-5.7-1.8-13.3-2.2-21.2 2.6-.7.7-1.5 1.4-2.4 2 .2.3.3.6.5.8.2.5.3 1 .4 1.6v1.2c1.2.3 2.6.4 4 .4 6-.4 13.4-3.9 18.7-8.6zm.1-358.6c-.2-.7-.2-1.4-.3-2.1l-.1-.4c-.1-1-.2-2.1-.1-3.2-2.8-4.4-8.2-7.7-13.6-8.6 0 6.6 5.9 10.9 11.2 13.5.2 0 .5.1.7.1.9.2 1.6.4 2.2.7zm1.1 3.1c-.4-.3-.8-.5-1.2-.7-.8-.4-1.6-.7-2.5-.9-.3-.1-.6-.1-.9-.2-4.3-.6-7.8 2.1-9.9 4.3 1.9.9 3.2 1 5.5 1.2 3.9-.1 6.8-1.4 9-3.7zm2.6-3.7c2.1-4.5 2.3-10.2 1.7-14.8-1.6 1.9-2.7 4.4-3.2 7.3-.1.7-.2 1.3-.2 2-.1 1.1-.1 2.3 0 3.4v.4c.1 1.2.3 2.5.8 3.5l.9-1.8zm14.6 335c0-.1.1-.2.1-.3-.1-.2-.2-.5-.3-.7-1.4-3.4-3.9-6.2-7.6-9.6-2 5.3-.1 11 5.2 15.9.8-1.8 1.7-3.6 2.6-5.3zm5.3 49.1c1.6-1.5 3.2-3 4.2-4.6-6.3.4-15.8 2.9-17.6 10.2 2.2-.3 4.4-.6 6.6-1 .9-.1 1.7-.2 2.6-.3 1.2-1.5 2.7-2.9 4.2-4.3zm-12.8 7.8c3.7 6.3 11.2 8.7 17.3 7.9-1.5-4.4-4.9-7-8.1-9.2-1 .1-2 .2-2.9.4l-6.3.9zm17-340.4v-.2c-.7-.5-1.2-1.2-1.6-2 0-.1 0-.1-.1-.2-.5.2-1 .4-1.2.6-.8.5-1.4.9-1.9 1.4-.5.4-.8.8-1.1 1.3-1.2 1.9-2.1 5.1-2.3 7.8 2.5-.5 4.5-1.3 6.1-3.4.7-.9 1.2-2 1.6-3.3.1-.7.3-1.3.5-1.9v-.1zm.5-8.4v-.1c-.1-.5-.2-1.1-.3-1.3-.6-1.6-1.2-2.8-2-3.6-1.6-1.6-4.5-3.1-7.1-3.8 0 2.6.5 4.8 2.2 6.7 1.3 1.5 3.5 2.6 5.7 3.5.3-.5.9-1 1.5-1.4zm1.8 289.3c-2.8-.4-6.1-.1-9.2 2.1-.1.1-.1.2-.2.3-.1.3-.3.6-.4.8-.9 1.8-1.7 3.6-2.6 5.4 5.6 1.4 8.9-3.1 12.4-8.6zm2.4-322.6c-1-3-1.5-6.1-1.5-9.1-1.8-2.4-4.4-3.9-6.4-4.7-.6 7.3 4.1 11.6 7.9 13.8zm.7 37.8v-.3c0-.3 0-.6-.1-.8-.3-1-1.2-1.8-2.3-1.8h-.1c-.7 0-1.3.3-1.8.7l-.3.3c-.2.3-.4.6-.4.9-.1.2-.1.5-.1.7 0 .3 0 .6.2.8 0 .1.1.2.1.3.1.3.3.5.5.7.4.4.9.7 1.5.8h.5c.4 0 .8-.2 1.2-.4.3-.2.5-.4.7-.6.2-.4.4-.8.4-1.3zm-22.7 381.8c8.1 7.8 19.3 11.7 28.4 9.2-7.3-7.1-15.4-14.6-24.5-17.6l-.9-.3c-.9-.3-1.9-.5-2.9-.7.1 0 .2-.1.3-.1 1.1-.4 2.3-.8 3.4-1.3 6.6-2.7 12.5-6.7 14.8-12.4-12.4 1.2-21 6-28.7 11.9-.7.6-1.5 1.2-2.2 1.8v3.2c0 .7 0 1.4.1 2.2.4 11.3 2.9 25.2 11.4 34.4.9-8.8 1.1-19.6-1.3-29.2-.4-1.8-1-3.5-1.6-5.2 1.2 1.5 2.5 2.9 3.7 4.1zm24.2-367.7c.6-1.3.9-2.7.7-4.3-.2-1.9-1.1-3.9-2.2-5.9-.7.5-1.6.8-2.5.8-.3 0-.5 0-.8-.1-.1.5-.2 1.1-.4 1.6-.2 1.1-.3 2-.2 2.8.3 2.4 1.8 5.5 3.7 7.8.1-.2.2-.3.3-.5.6-.7 1-1.4 1.4-2.2zm3.4-62.4c.2-3.4-.6-7-2.5-10.1-1.5 3.6-2.4 7.2-2.4 10.8 0 1.4 0 2.8.3 4.3.2 1.6.6 3.1 1.1 4.7.2.5.3.9.5 1.4.5-.9.9-1.8 1.3-2.8.7-1.8 1.3-3.7 1.6-5.7 0-.8.1-1.7.1-2.6zm6.1-.7c-1.8.2-2.9.7-4 1.7-.2 3.8-1.4 7.4-3 10.5 4.5-2.3 5.9-7.4 7-12.2zm1.7 325.6c-1.1-2-2.4-4.1-3.7-6.1 0-.1-.1-.1-.1-.1h-.9H493.5c-2.6 0-5.5-.2-8.6-.9-3 4.4-5.6 9.1-8.1 13.9 3.4-1.3 6.9-1.1 9.5-.5l1.5.3-.9 1.4c-.3.5-.6 1-1 1.5-.3.5-.6 1-1 1.5-2.9 4.4-6.4 8.3-11.3 8.3-.8 0-1.7-.1-2.6-.4l-.4.6h-.1c-.3.6-.6 1.3-.9 1.9-4.3 9.1-8.6 18.3-14.2 27 4.1-2.2 8.2-4.4 12.1-6.6 5.6-6.8 10.2-14.3 14.7-21.7 1.5-2.5 3.1-5.1 4.7-7.7.4-.7.9-1.4 1.4-2.1 3.6-4.2 7.7-7.5 11.8-10.3zm-3.6-10.1c5.4-7.4 9.8-14.7 7.7-24-3.2 1.8-5.4 4.3-6.7 7.1-.9 1.8-1.5 3.8-1.8 5.8 0-2-.2-4-.6-5.9-1.5-7.6-5.9-14.4-12-17.5.3 9 .8 18.7 5.2 26 .8 1.3 1.7 2.5 2.7 3.7-1.4-.8-2.9-1.4-4.4-1.9-5.3-1.7-11-1.6-15.7-1 3.7 4.5 8.3 7 13 8.2.8.2 1.6.4 2.3.6 3 .6 5.9.7 8.5.6.2.1.3 0 .4 0 .6-.6 1-1.1 1.4-1.7zm8.5 75.1c-.1-.1-.1-.2-.2-.3-.1-.2-.2-.3-.3-.5-3.4.1-6.7 1.5-9.4 4.2-2.8 2.7-4.6 6.5-4.9 10.2 4.3-1.1 9-3.1 12-6.8.4-2.6 1.4-4.8 2.8-6.8zm1-7.2c-.6-1.7-1.7-3.3-3.1-4.8-2.8-2.9-6.6-4.7-10.4-5.1 1.5 5.3 4.4 11 10.1 13.4h.2c.4 0 .7-.1 1.1-.1v-.1c.3-1.4 1-2.5 2.1-3.3zm4.2-240.3l.3-.6c-1.5-1.3-3.3-2.3-5.2-2.9-1.3-.4-2.8-.6-4.2-.6-4.2-.1-8.4 1.3-11.4 4 4.9 3 11.2 5.4 17.2 3.5.8-.5 1.7-.9 2.7-1.2.1-.1.3-.1.4-.2 0-.6.1-1.3.3-1.8l-.1-.2zm1.1 92.8c-.3-.4-.5-.8-.6-1.3-.2-.4-.3-.9-.3-1.3-.1-.8 0-1.6.2-2.3-1.4-.8-2.7-1.7-3.8-2.7-1.7-.9-3.6-1.5-5.6-1.8-5.5-.9-11.2.3-15.6 3.2 5.4 4.5 12.4 8.6 20 7.8 1.8-.2 3.8-.7 5.7-1.6zm0 151.9v-.4-.4l-.3-.9s0-.1-.1-.1c0-.1 0-.1-.1-.1-.2-.3-.4-.5-.7-.7-.1-.1-.2-.2-.4-.2-.1-.1-.3-.1-.5-.1-.1 0-.1 0-.2-.1h-.4c-.5 0-.9.1-1.3.3-.3.2-.5.4-.7.7-.2.2-.3.5-.4.8-.1.1-.1.3-.1.4v.8c.1.3.2.6.4.9v.1l.1.1c.2.2.3.4.6.6.1.1.2.2.3.2.1.1.2.1.3.2.1 0 .1.1.2.1s.2.1.3.1c.7.1 1.4-.1 1.9-.4.1-.1.2-.1.2-.2l.4-.4c.2-.2.3-.5.4-.8 0-.1.1-.3.1-.4v-.1zm-2.8 25.5c2.4-4.4 4.3-9.8 3.3-15.3-1.3-1.7-2.3-3.6-2.9-5.6h-.1c-.2 0-.6 0-.8-.1-.3 0-.6-.1-.8-.2-.1 0-.2-.1-.3-.1-1.5 2.1-2.2 4.4-2.5 6.4-.1.7-.2 1.4-.2 2-.2 4.6 1.5 9.4 4.3 12.9zm4.3-263.5c0-.1 0-.2.1-.4-1-.4-1.8-1.1-2.3-2.1h-.1c-1 .6-1.9 1-2.9 1.3-1.9 1.2-3.6 2.8-4.9 4.8-2.1 3.1-3 6.8-2.6 10.1 5.4-2.4 11-6.2 12.5-12.1 0-.6.1-1.1.2-1.6zm1.9 88.4c-.6-.1-1.1-.3-1.6-.7-2.3 1.2-4.6 1.9-6.8 2.2-2.2 1.7-4.2 3.8-6.2 5.9-.6.7-1.3 1.4-2 2.1 6.7-.1 12-4.7 16.6-9.5zm-.7-10.9c-.2-3.5.1-6.7.7-9.5-.4-1.2-.9-2.4-1.4-3.6-2.8-5.5-7.6-10-13.1-12.1-.4 8.3.9 18.1 7.9 24.4 1 .9 2.2 1.8 3.5 2.5 0-.1.1-.1.1-.1.6-.8 1.4-1.3 2.3-1.6zm0-87.3c.2-2.6-.5-4.9-1.3-6.8l-.9-1.8c-2.3-3.9-6.3-7-10.5-8.5.3 5 1.6 10.6 5.4 14.7 2 .7 3.9 1.7 5.4 3.1.2-.2.5-.3.8-.5.3-.1.6-.2.8-.3 0 .2.2.1.3.1zm1.6 234.9c.7-3.8.1-7.8-1.7-11-4.3 4.9-8 11.7-5.2 18.7.3 0 .6 0 .9.1.5.1 1 .3 1.5.6l.2-.2c.4-.5.9-1 1.3-1.4 1.4-2 2.5-4.3 3-6.8zm1.3-323.9c.5-.5 1.1-.9 1.7-1.3-.8-.3-1.5-.7-2.2-1.2.2.8.3 1.6.5 2.5zm.4 94.1c0-.4 0-.9-.2-1.3-.1-.2-.2-.5-.4-.7-.2-.3-.5-.5-.8-.7-.3-.1-.6-.2-.9-.2H514.7c-.1 0-.2 0-.4.1-.1 0-.1 0-.2.1-.1 0-.2 0-.3.1-.6.3-1.1.8-1.3 1.4-.1 0-.1 0-.1.1s-.1.1-.1.2c-.1.2-.1.3-.1.5-.1.5 0 .9.2 1.3 0 0 0 .1.1.1.1.1.1.3.2.4.1.1.1.2.2.2.2.3.5.5.8.6.3.2.7.3 1 .3h.4c.2 0 .3 0 .5-.1.1 0 .2 0 .2-.1.1 0 .1-.1.1-.1.1 0 .2-.1.2-.1.4-.3.7-.6.9-1 .1-.2.2-.4.2-.6.1-.3.1-.4.1-.5zm2 87.7v-.6-.2c-.1-.5-.3-1-.6-1.4-.1-.2-.3-.4-.5-.6-.3-.3-.6-.5-1-.6-.2-.1-.5-.2-.8-.2h-.8c-.2 0-.5.1-.7.1-.3.1-.5.2-.7.3-.2.1-.4.2-.6.4l-.3.3c-.4.5-.7 1-.8 1.6-.1.3-.1.6-.1.8v.2c.1.3.1.7.3 1 .1.3.3.6.5.9.3.5.9.8 1.4 1 0 .1.1.1.1.1.2.1.4.1.6.2h.8c.1 0 .2-.1.4-.1.4-.1.8-.2 1.1-.5.1-.1.3-.2.4-.3.2-.2.4-.4.5-.6.6-.5.8-1.1.8-1.8zm1.2 27.7c-.2-1.8-.3-3.6-.6-5.4 0-.2 0-.5-.1-.7l-.1-.1c-2.1-2.1-4.4-3.2-7.5-4.1.9 5.2 3.9 8.9 8.3 10.3zm2.5-92.9c.9-6.5.5-14.2-5.6-18.6-.2.2-.5.3-.8.4-.5.2-1 .3-1.6.4 0 .1 0 .1-.1.2-.1.7-.2 1.4-.4 2.1-.2 2.3.1 4.8 1 7.2 1.6 3.5 4.3 6.6 7.5 8.3zm-1.1-93.2c.6-5 1.5-10 2.8-14.9-1.7 1.6-3.8 2.8-5.9 3.8.5 4.6 1 9.2 1.4 13.8.5-.8 1.1-1.7 1.7-2.7zm6.7 66.2c-1.3-2.3-2.7-4.6-4.2-6.7-.7 2.1-1.7 4-3 5.6 2.5-.2 4.9.2 7.2 1.1zm-8.3 88.4c4.3-4.9 6.4-15 4.6-24.5-3.2 3.1-6.4 7.4-7.9 13.2-.7 2.7-1 5.8-.8 9.2.5 0 1 .1 1.4.3 1.1.3 2 .9 2.7 1.8zm6.3-176c-.7-.6-1.3-1.3-1.5-2.2-.4 0-.7.1-1 .1-.9 0-1.7-.1-2.5-.3-1.1.5-2.2 1.3-3.3 2.2-.3.2-.6.6-.9.9.4 2.4.8 4.9 1.1 7.4 3.4-1.7 6.5-4.2 8.1-8.1zm-1.3-5.9c.1-.2.2-.5.4-.7-2-1.9-3.3-4.1-4-6.3-.7-.7-1.5-1.3-2.3-1.8-2-1.2-4.1-2-6.3-2.3 1 3 1.9 6 2.6 9.1 1.7 1.4 3.6 2.5 5.7 3.1 1.1.2 2.3.4 3.6.3-.1-.5.1-.9.3-1.4zM517 520.6c3.5 2.4 7.7 3.4 11.7 3-2.5-5.3-6.5-10.8-12.7-12.4-1-.1-1.9-.2-2.9-.4h-.4c-.3.5-.7 1-1.2 1.3-.2.2-.4.3-.7.4.6 1.9 1.5 3.7 2.9 5.3 1 1 2.1 1.9 3.3 2.8zm6.4-13c3.3-1.5 6.1-4.1 7.6-7.1-5.8-.9-12.6-.8-16.9 3.4-.3.4-.7.8-1.1 1.2-.1.1-.2.2-.2.3.3.4.5.8.6 1.2.2.6.3 1.2.2 1.8h.1c.6 0 1.1.1 1.7.2.4.1.9.2 1.3.3 2.2.1 4.5-.3 6.7-1.3zm-.7-126.5c6.4-1.8 6.9-7.1 6.9-13.5-2.8 1.2-5.9 3.3-7.4 6.8-.1.2-.2.4-.2.6.3 2 .5 4 .7 6.1zm7.6-221.1c.1-1.1 0-2.3-.2-3.5-.7-4-2.8-7.8-5.8-10.4-1.4 4.1-2.1 9-.7 13.4.7 2.1 1.8 4.2 3.7 6 .1-.1.1-.1.2-.1.5-.2 1-.4 1.6-.5 0-.1.1-.1.1-.2.6-1.4 1-3 1.1-4.7zm2 9.8v-.2-.2-.3c0-.2-.1-.4-.2-.6-.1-.2-.3-.5-.5-.7l-.1-.1c-.1-.1-.3-.2-.5-.3s-.4-.2-.6-.2c-.2-.1-.4-.1-.6-.1h-.5c-.3.1-.6.2-.9.4-.2.1-.2.2-.4.3-.2.2-.3.4-.5.7s-.3.8-.3 1.2v.2c0 .4.1.9.4 1.2.1.1.2.2.2.3 0 0 0 .1.1.1.4.5 1 .8 1.7.8h.4c.6 0 1.2-.2 1.6-.7l.1-.1c.3-.3.6-1 .6-1.7zm.4 99.7c-.1-.3-.2-.7-.4-1-.6-1.4-1.3-2.7-1.9-4-3.4-1.9-7.4-2.8-11.6-1.6l.3.6c.5 1.3.5 2.7 0 3.9 1.4 1.1 3.2 1.9 5.1 2.3 2.9.7 5.8.6 8.5-.2zm-2.7 85.8c2.4-1.7 3.8-4.1 4.1-7.2-3 3-6.8 3.4-10.2 3.8-.8.1-1.7.2-2.5.3 0 .1.1.3.1.4.2 1.6-.3 3.2-1.3 4.3 3.5.8 7.1.3 9.8-1.6zm6-164.2c1.3-5.4 1.6-11.8-1.7-16.6-.5-.3-.9-.7-1.3-1.1-.9.8-2 1.3-3.3 1.3-.2 0-.4 0-.6-.1-.6 2.4-.4 5 .4 7.5 1.1 3.8 3.4 7 6.5 9zm2.5 103.1c-.5-3.9-1.1-7.9-2-11.7-.9-3.9-1.9-7.6-3-11-1.8.5-3.6.8-5.5.8-1.3 0-2.6-.1-3.8-.4 6.2 6.5 10.7 14.3 14.3 22.3zm2.1-132.5c2.3-3.2 3.5-7.2 3.2-10.9-4.5 2-9.1 5.1-11.3 9.9-.6 1.4-1 2.9-1.2 4.5.4.1.8.4 1.1.6 1.7-.6 3.4-.9 5.1-1 1.2-.8 2.2-1.9 3.1-3.1zm11.1 12.4c-3.5-3.6-8.2-6.8-13.5-7-1.4-.1-2.8.1-4.2.6.2.4.3.9.4 1.4.1.2.1.5.1.7 0 .5-.1.9-.2 1.3 0 .2-.1.3-.1.4.5.5 1.1 1 1.7 1.4 1.3.9 2.8 1.6 4.3 2 3.8 1.1 8 .8 11.5-.8zm4.2 194.5c-6.2 2.9-11.8 9.9-14.6 14.6-2.4 4-4.4 8.4-6.3 12.6-.6 1.2-1.1 2.5-1.7 3.7.9-1 1.8-2.1 2.7-3.3 3.2-4.1 6.3-8.6 9.5-13.2 3.5-4.9 6.8-9.8 10.4-14.4zm14.2 57.4c-3.2-6.9-9.8-11.6-16.9-12.9-1.7-.3-3.4-.4-5.1-.3 1.6-.5 3.2-1.2 4.7-2.1 3.2-1.9 6-4.9 7.4-9.4-9.1-.7-15.4 4.9-21.6 11.6-.6.6-1.1 1.1-1.6 1.7v.3c.9 8.2 4 18 12.8 23.7-.2-4.5-.8-9.7-2.7-14.5-.6-1.4-1.2-2.8-2-4.1 1.2.9 2.4 1.7 3.7 2.4 6.4 3.3 14.1 3.6 21.3 3.6zm-5.8-104.6c.2-.4.4-.7.6-1-.8-.5-1.7-1-2.7-1.3s-2-.5-3-.6c-3.5-.2-7.1.8-10 2.9 4.1 2.6 9.4 4.6 14.6 2.6v-.4c0-.7.2-1.5.5-2.2zm4.3 8.9c-.1-.6-.2-1.2-.2-1.8-1.2 0-2.3-.6-3.2-1.4-.1-.2-.2-.3-.4-.5-2 1.3-3.7 3.2-5 5.6-1.7 3.4-2.3 7.4-1.5 11 4.7-2.9 9.4-7.1 10.3-12.9zm-.9-11.5c1-2.1 1.4-4.5 1.3-6.8 0-.9-.2-1.9-.4-2.8-.9-3.6-2.9-6.8-5.7-8.8-1.7 5.4-2.5 11.9.6 16.8 1.2.4 2.3 1.1 3.4 1.9.2-.2.5-.2.8-.3-.1 0-.1 0 0 0zm3.6 4.6v-.1c0-.2-.1-.4-.1-.6l-.3-.6c-.1-.2-.2-.3-.4-.5-.1-.1-.2-.2-.4-.3l-.1-.1c-.3-.2-.6-.3-.9-.4h-.4c-.3 0-.6.1-.9.2-.4.1-.7.3-1 .6 0 .1-.1.1-.1.2-.3.3-.5.7-.6 1.1.1 0 .1-.1.1-.1-.1 0-.1.1-.1.1-.1.2-.1.3-.1.5v.1c0 .6.2 1.1.5 1.6l.1.1c0 .1.1.1.2.2h.1c.4.4 1 .6 1.7.7h.2c.7 0 1.3-.3 1.8-.8 0 0 .1-.1.1-.2.1-.1.1-.1.1-.2.1-.1.2-.2.2-.3.1-.2.2-.4.2-.6.1 0 .1-.3.1-.6zm-1.1-84.5c5.2-3 9.7-7.2 11.8-13.1-8 2.6-15.7 7-21.7 12.3-1.2 1.1-2.4 2.2-3.4 3.3l-.2-.1c.7-1.4 1.2-2.9 1.6-4.4 1.5-6.6-.3-14.1-2.7-20.5-3.7 8.3-3.3 18.4-1.9 27.9 0 .1 0 .2.1.3 0 .2.1.4.1.7v.3c.1.3.1.7.2 1 .2.1.5.2.7.3 4.7 2 9.3 1.6 14.1 1.2 2.5-.2 5.2-.4 7.8-.3-1.8-2.8-3.8-5.2-6.6-6.3-1.1-.4-2.3-.7-3.7-.7 1.4-.6 2.6-1.2 3.8-1.9zm11.1 103.5c0-5-1-10.7-4.7-14.6-1.4-.2-2.8-.7-4-1.3-.2.2-.3.4-.5.6-.3.3-.7.6-1.1.8-.1.1-.2.1-.4.2 0 .7.1 1.5.2 2.2.3 1.5.8 3.1 1.7 4.5 2 3.5 5.2 6.3 8.8 7.6zm-3.1-27.9c2.3-3.3 3.4-7.6 3.1-11.6-4 2-8 5-10.1 9.5.1 2.2-.3 4.4-1.1 6.5.6.2 1.1.4 1.5.7.1 0 .1 0 .2-.1 1.4-.5 2.9-1.4 4.1-2.5.8-.6 1.6-1.5 2.3-2.5zm3.8 11.2c3.8-.6 7.4-2.6 9.8-5.5-4.6-1.8-10-2.9-14.8-1.1-1.2 1-2.6 1.9-4 2.4.2.4.3.8.4 1.2.1.5.1 1.1 0 1.6 1.3.7 2.8 1.1 4.3 1.3 1.3.3 2.8.3 4.3.1zm-168.7 228c-2.8-1.2-5.5-2.6-8.1-4-3.1-1.5-6.2-3.2-9.4-4.5 1.3 2.9 1.8 6.2 1.5 9.4v.4c4.8-1.8 10.7-1.9 16-1.3zm-295.6-41.4c-2.8-.3-5.8-.6-9-.9-3.5-.4-7-.7-10.6-1 1.2.7 2.4 1.6 3.5 2.7 3.4 3.4 5.5 8.1 5.6 12.7v1.9l-1.3-.3c-4.3-.9-9.1-2.6-12.7-5.8 0 5.6-2.2 11.2-6 15l-1 1-.7-1.2c-2.5-4.2-4.8-9.6-4.6-15.2l-1.5 1.2c-3.3 2.2-7.3 3.5-11.1 3.5-1.3 0-2.5-.1-3.7-.4l-1.3-.3.6-1.2c2.1-4.9 5.4-10.2 10.4-13.2-1.1-.2-2.2-.6-3.2-1-4.4-1.9-7.8-5.4-9.3-9.7l-.4-1.2 1.3-.2c5.1-1 11.1-1.3 16.1.9-.5-1.1-.8-2.3-1.1-3.6-.6-3.5-.3-7.1.9-10.3.5-1.3 1.1-2.5 1.9-3.6l.8-1.1.9 1c4 4.3 8 10.3 7.8 16.9.3-.4.6-.7.9-1.1 3.5-3.6 8.5-5.9 13.4-5.9h1.4l-.3 1.4c-1.2 5.2-3.7 11.2-8.6 14.7 4.1.4 8.2.8 12.4 1.2 3.4.3 6.5.7 9.5 1-.7-.8-1.6-1.6-2.5-2.4-2.3-2.1-4.6-4.3-5.5-7l-.5-1.5h1.5c7 0 20.1 2.8 21.6 12.9 12.8 2.1 25.2 5.1 37.4 8.2-19.7-8.9-40.5-19.4-59.8-31.9-3.9-2.3-7.7-4.6-11.6-6.8l-3.7-2.2c-7.4-4.4-15.1-9-22.7-13.4-.9-.5-1.8-1-2.8-1.7-5.7-3.5-14.2-8.6-19.7-7.2-1.8.5-3.6 2.1-3.3 4.3.2 1.8 2 2.9 3.9 3.9.6.3 1.2.6 1.7 1 1.2.8 2.7 1.6 4.3 2.5 5.7 3.2 13.1 7.3 15.6 13.9.4 1 .7 2.1.8 3.3l-.1.1c-.8-.8-1.7-1.5-2.6-2.1-3.5-2.6-7.6-4.3-11.1-4.7-9.1-1-18.4-7.9-17.7-18.8.5-8.1 8.4-11.5 15.9-11.3 10.4.3 19.5 5.4 28.5 11.2l-2.4-8.7c-4.6-3.5-8.9-7-12.3-11.1-4.1-5-6.1-10.2-6-16 0-1.4.1-2.8.4-4.3.5 1.3 1.1 2.5 1.8 3.7 2.9 5.1 7.1 8.9 11.9 12.2-.9-3.5-1.9-7-2.8-10.5-1.3-2-2.8-3.8-4.3-5.5-2-2-4.2-3.8-6.5-5.6-1.8-.2-3.5-.2-5.2-.1l-.2.2c-.9 8.1-4.2 20.5-15.6 26.8l-1.6.9v-1.9c0-4.5.5-9.9 2.1-15.1-6.8 2.8-14.6 2.8-21.8 2.8h-1.7l.6-1.5c2.9-7.8 9.5-13.3 17.1-15.4-3.1-2.3-5.6-5.8-6.9-10.7l-.3-1.2 1.2-.1c11.4-1.6 18.8 5.7 25.8 13.3h.2c1.1-.1 2.1-.2 3.2-.2-.1-.1-.3-.2-.4-.3-2.4-1.8-4.9-3.6-7.3-5.7-6.4-6-11-13.6-15.9-21.7-2.1-3.5-4.4-7.1-6.7-10.6-1.2-1.9-2.3-3.6-3.3-5.2-1.4.9-1.5 2.3-1.6 4.6v2.7c0 1.9.1 3.6-1.2 6-.2.3-.4.7-.6 1-.6 1-1.3 1.8-2.1 2.6 0-1.1 0-2.1-.1-3.2-.1-1.2-.2-2.5-.6-3.7-.2-.8-.5-1.7-.7-2.4-.6-1.8-1.2-3.7-1.3-5.9-.2-3.4.6-6.6 2-8.8.1-.2.3-.4.5-.6-2.8-3.4-5.6-6.3-8.4-8.9-1.3-1.2-2.6-2.3-4-3.3-1.7-1.3-3.5-2.5-5.3-3.6 2.1.3 4.1.8 5.9 1.4.2 0 .3.1.4.1 6.4 2.1 12 5.8 17 10.3 4-1.3 8.8-.6 12.9.8 2.7 1 5.1 2.5 7.3 4.3-.7-4.4-.9-8.7-.8-13.1-3-6.2-6.3-11.9-10.2-16.4 1.7 4.1 1.9 8.7.6 12.6l-.4 1.3-1.2-.7c-4.5-2.6-9.3-6.5-11.6-11.7-.3.6-.5 1.1-.9 1.7-2.5 4.4-6.8 7.8-11.4 9.1l-1.3.3v-1.4c-.2-5.1.6-11.2 3.8-15.9-.9 0-1.7-.1-2.6-.2-4.9-.8-9.5-3.6-12.2-7.5L0 319.2l1.2-.6c4.2-1.8 9.3-3.3 14.2-2.6 0-.1-.1-.2-.2-.2-2.9-4.3-4.2-9.7-3.3-14.7l.2-1.4 1.3.6c3.9 1.8 8.2 4.5 11 8.5v-.1c1.1-4.7 4-8.8 7.8-11l1.1-.7.4 1.3c1.9 5.5 3.2 12.4.7 18.2.3 0 .5-.1.8-.1 4.4-.3 8.9 1.3 12.1 4.3l1 .9-1.1.8c-4.1 3-8.2 4.6-11.9 4.6 5 4.3 9.3 10.5 12.8 17.5.2-3.6.5-7.2.9-10.7.3-2.8.5-5.7.7-8.5-.1-.8-.2-1.6-.3-2.5 0-.4-.1-.9-.1-1.2v-.3c-1.3-8.7-7.7-16.2-13.8-23.5-.4-.5-.8-1-1.2-1.4-1.9-2.3-3.7-4.5-5.3-6.7-9.3-12.9-11.9-23.9-8.3-34.5l1.3-3.8.8 3.9c2.1 10.2 8.6 17.9 14.8 25.3 4.1 4.9 8.4 9.9 11.3 15.7-1.8-14-5.2-28.4-16.2-38.4l-2.7-2.5 3.6.5c8.6 1.2 14.2 7.4 19 13.2-2.8-7.5-6.5-13.7-10.8-19.9l-.6-.1c-5.3 2.3-10.4 1.8-15.3 1.4l-3.9-.3c-2-.1-3.9-.1-5.9.3l-2.6.5 1.5-2.4c2-3.2 4.1-6.6 7.4-8.6-5.6-3.6-10.3-8.6-12-15.7l-.5-1.9 1.8.5c8.2 2.4 16.1 6.5 22.4 11.6-.6-6 .7-13.2 4.2-21.4l.9-2.1 1.1 1.9c5.3 9.5 4.8 21.2 3.1 32.1-.1.6-.2 1.3-.3 1.9.2.2.4.5.5.7 4.5 6.5 8.5 13.1 11.3 21.1.2-4 0-8.2-.7-12.7-.4-2.9-1-5.9-1.7-9.2-.6-2.8-1.3-5.5-2-8.2-4.1-16.6-8.2-33.7-.7-50.8.6-1.4 1.3-2.9 2.2-4.3v4.7c.4 9.7 2.8 19.4 5 28.8 1.9 8.1 3.9 16.3 4.7 24.6.1-.4.1-.8.2-1.2 1.5-6 2.8-10.3 4.8-14.2 2.8-9.3 4.7-23.4 1.4-34.2l-1.7-5.5L70 191l.1.1c-.6-3.5-1.2-7.1-2.1-10.5-.1.7-.3 1.4-.5 2.1-.4 1.2-.8 2.3-1.4 3.5-.1.1-.1.2-.2.3-1.7 3.1-4.3 5.7-7.3 7.2l-1.2.6-.4-1.3c-.7-2.6-1.3-5.6-1.3-8.5v-.8c0-2.5.4-4.9 1.3-7.2-.6.2-1.1.4-1.7.6-1.7.4-3.4.7-5.2.7-3.3 0-6.6-.9-9.3-2.5l-1.2-.7.9-1c3.4-3.8 8.1-7.6 13.7-8.6-.6-.6-1.2-1.3-1.7-2-2.9-4.1-4.2-9.3-3.4-14l.2-1.4 1.3.5c4.3 1.7 8.9 4.3 11.9 8.3v-.3c.8-5.1 3.8-9.9 7.8-12.8l1.2-.8.5 1.3c1.5 4 2.6 8.7 2 13.4.1-.1.2-.2.4-.2 2.6-1.6 5.5-2.5 8.3-2.7 2.4-6.3 5.6-12.2 9.9-17.6l3.5-4.5-1.6 5.5c-4.7 15.8-7.3 31.9-9.9 47.4 0 .2-.1.3-.1.5v.7l-.2-.1c-.1.8-.3 1.6-.4 2.4 1.1-2.1 2.2-4.1 3.4-6 1.8-3.1 3.7-6 5.7-8.9-4-12 .6-24.2 5.2-32.4l2.1-3.7v4.2c0 3 .5 6.1 1 9 .4 2.5.9 5 1 7.6 2.3-6.7 2.9-13.7 2-22.8-3-.9-5.1-2.7-6.6-4.9-2-3-3-6.8-3.8-10.2l-.6-2.2h1.4c2.4 0 4 .4 5.4 1.2.2-4 1.4-7.9 4-11.2l1.1-1.4.8 1.5c1.8 3.7 2.9 7.4 3.3 11.1 1.9-1.8 4.3-3.2 7.2-4.2l1.2-.4.2 1.3c1.3 7.9-2.9 14.9-11.1 18.7-.1.2-.2.3-.3.5.8 7.6.7 15.6-2.2 23.8 1.5-1.8 3.1-3.5 4.7-5.2 1.5-1.6 3-3.2 4.6-4.8.6-.6 1.1-1.2 1.7-1.7l.2-.2c-2.1-7 .7-13 3.4-18.8 2.1-4.4 4.2-8.8 4.2-13.7v-2.7l1.9 1.9c5.1 5.2 5.5 12.5 4.5 18.6l.2-.2 1.6-2c1.5-1.8 3.1-3.7 4.9-5.3-4.1-6-4.2-14.5-2.8-20.7l.4-1.8 1.4 1.2c2.6 2.3 4.5 5.7 5.3 9.8 3.2-4 8.3-7.1 14.9-7.9l1.1-.1.1 1.1c.8 7-3.8 11.9-8.9 15 3.1.7 6.1 2.7 8.7 5.9l.8 1-1.1.7c-3.1 1.8-4.8 1.9-7.8 2.1-4.5-.2-8-1.7-10.7-4.6-1.6 1.4-3.1 3.2-4.6 5l-1.6 2c-.3.3-.6.7-.8 1 5.8-1.4 12.1-2.5 17.7-.3l2 .8-1.9 1.1c-2.1 1.2-4.3 2.7-6.7 4.3-6.6 4.5-14 9.4-21.9 9.4-1.2 0-2.4-.1-3.6-.3-1.8 1.8-3.7 3.7-5.5 5.7-3.1 3.3-6.1 6.7-9 10.3-.6.8-1.3 1.6-1.9 2.5-1.4 1.8-2.8 3.7-4.1 5.6l-.6.9c-2 2.8-3.9 5.7-5.7 8.8 4.7-5.5 9.9-10.1 15.9-13.9 0-.2-.1-.4-.1-.6 0-2.7 2.1-4.9 4.8-4.9h.3c.1-.6.2-1.2.4-1.6.4-1.2 1.2-3.1 2.5-4.4 2.4-2.5 6.7-4.2 9.6-4.6l1.2-.2.1 1.2c.2 3.1 0 6.4-2.5 9.3h.9c3.5.4 7.4 2.7 9.6 4.7l.9.8-.9.8c-2.3 2-4.9 3.9-8.6 3.9h-.6c-.5 0-.9-.1-1.4-.2 1.4 2.9 2.1 6.6 1.9 9.1v1.2l-1.2-.2c-3.1-.4-6.3-1.2-8.7-4.4-.8 3.3-3 6.8-4.9 8.8l-.8.9-.8-.9c-.2-.3-.4-.5-.6-.8s-.5-.6-.7-.9c-.2-.3-.4-.7-.7-1-1.2-1.9-1.9-4.1-1.7-7 .2-2.2 1.2-4.5 2.4-6.7-7.1 4.7-13.2 10.7-18.5 18 1.4-.9 2.9-1.7 4.3-2.5 2-1.1 4.1-2.2 5.9-3.7l3.3-2.5-1.6 3.9c-2.4 5.6-6.4 9.6-10.3 13.4-3 3-5.9 5.9-8 9.4-.1.8-.3 1.5-.4 2.3 2.2-1.9 4.4-3.7 6.6-5.5 5.3-4.3 10.4-8.5 14.4-13.5.9-1.1 1.7-2.3 2.5-3.5-.1 1.5-.2 3-.5 4.5 0 .3-.1.6-.2.9-1 5.6-4.3 11.5-8.3 16.5-.1.2-.3.3-.4.5-2.6 3.2-5.5 5.9-8.2 8.1-.9.7-1.7 1.3-2.5 2-2.4 1.9-4.7 3.7-6.9 5.7 0 .1-.1.2-.1.3l-.2-.1c-2.3 2.2-4.4 4.6-6 7.5-1.5 2.7-2.8 5.5-3.8 8.2 3.4-3.7 7.4-7.1 11.4-10.4 6.6-5.5 13.4-11.2 17.5-18.4.5-.9 1-1.8 1.4-2.7.5 1 .8 2 .9 3.1.3 2.1.2 4.4-.6 7-1 3.6-3 7.1-5.8 9.9-4.5 4.6-8.8 8.9-12.7 13.4 1.3 1.9 2.3 4 3 6.3 3-4.7 7.8-8.1 13-9.4l1.4-.3v1.4c-.1 4.9-1.1 10.7-4.2 15.3.6-.1 1.3-.1 1.9-.1 5.2-.1 10.5 1.9 14.1 5.6l1 1-1.1.8c-4.2 2.8-9.6 5.4-15.1 5.4h-.6c.8.8 1.5 1.7 2.2 2.7 2.7 4 3.7 8.9 2.7 13.2l-.3 1.3-1.2-.5c-4.8-2-10-5-13-9.6-.2 1.2-.6 2.4-1 3.6l-.6 1.2c-.2.4-.4.7-.6 1.1-.2.3-.4.7-.6 1-2 3.1-4.8 5.5-8 6.8l-1.3.5-.2-1.3c-.8-4.5-1.1-9.9.5-14.5-6.7 7.7-11.3 17.2-14.9 26.5-.4 5-.6 10-.8 15 3.1-5.8 8.1-10.7 12.9-15.5 4.4-4.4 8.9-8.8 12.1-13.9.7-1.2 1.4-2.4 2-3.7.2 1.5.3 2.9.2 4.4-.1 12.2-7.2 22.1-14.1 31.8-.1.1-.2.2-.2.3-4.1 5.8-8 11.3-10.4 17.2-2.2 7.7-2.4 15.9-1.8 24.1.1 1.2.2 2.5.4 3.8.2 2.1.5 4.3.8 6.5 2.2 3.5 4.1 7.3 5.9 10.9 1.2 2.5 2.4 5.2 3.5 7.7 1.7 3.8 3.4 7.7 5.3 11.4-.1-6.3.1-12.5.6-18.6-8.9-2.2-8.9-10.2-8.9-17.4v-1.5l1.5.5c3 1 6.6 2.9 8.9 6.3.6-4.1 1.5-8.2 2.5-12.2-1.4.4-2.9.6-4.4.6-2.9 0-5.6-.8-7.9-2.3-3.9-2.7-5.7-7.1-5-12.3l.4-3.1 1.6 2.7c2.7 4.3 6.3 4.8 10.6 5.2.2 0 .4.1.6.1-4.2-5.8-6.3-15.9-3.7-26.9l.4-1.9 1.3 1.1c3.4 2.9 7 7 9.2 12.7.2-.4.3-.8.5-1.1 3.3-6.5 9.2-11.6 15.8-13.7l1.3-.4.1 1.4c.6 7.8-.2 17.2-5.4 24.3.6-.2 1.3-.3 1.9-.4 6.5-1 13.4.6 18.4 4.4l1.1.8-1 .9c-5.2 4.6-12.1 9-19.7 9.3 1.5 1.3 2.8 2.8 4.2 4.2 1.2 1.3 2.5 2.6 3.8 3.8l1.7 1.6-2.3.3c-.8.1-1.6.2-2.4.2H97c-7.8-.2-13.9-5.6-18.7-10.8-1 4-1.8 7.9-2.4 11.9 2.3-1.7 4.9-2.6 8.2-3.4l1.5-.3-.1 1.5c-.7 7.3-4.9 12.5-11 14.1-.6 7.4-.7 14.8-.5 22.6.6.9 1.1 1.9 1.7 2.7 2.1-7 6.4-12.3 10.6-17.6 4.1-5.1 8-10.1 9.9-16.2.3-1 .6-2.1.7-3.2.7 1 1.2 2.1 1.6 3.2 2.2 5.6.4 11-1.5 15.2-1 2.3-2.3 4.6-3.5 6.8-.4.7-.7 1.3-1.1 2-1.8 3.1-3.4 6.3-4.6 9.6-1.5 4.3-2.5 8.7-2.9 13.5-.3 3.8-.3 7.8 0 12 .4 2.3.8 4.4 1.3 6.6.5.3 1 .6 1.4.9 1.4.9 2.8 1.7 4.2 2.6.4.3.8.6 1.2.8 1.2-2.1 2.5-4.1 3.8-6.1.1-.2.3-.5.4-.7-6-8.2-11.4-16.8-8.2-27.9l.3-1.2 1.2.6c3.5 1.7 6 3.9 7.7 6.5 2.3-7.9 7.5-14.6 14.4-17.4l1.7-.7-.1 1.8c-.3 9-.6 18.9-4.5 26.9 5.7-1.3 11.6-.9 16.3-.2l1.8.3-1 1.5c-4.1 5.7-9.4 8.7-14.7 10.3 3.3 5 6.2 10.2 8.9 15.6 1.8-3.7 4.8-6.8 8.9-10.4l1-1 .6 1.3c3.4 6.8 1.3 14.3-5.7 20.3.4.8.7 1.6 1.1 2.3 4.8 10.2 9.7 20.7 16.3 30.2 1.6.9 3.2 1.7 4.8 2.6.1.1.3.2.5.2 1.7-2.9 4.1-5.8 7.5-8.1-5.9-1-12.6-4.3-18.2-10.1l-1.2-1.2 1.6-.6c5.4-2 12.6-3.2 20.4-.1-1-1.7-1.7-3.6-2.2-5.7-1.2-5.1-.3-10.3 2.3-14.2l.7-1.1.9.9c4.6 4.3 9.3 10.1 10.2 16.5 4-5 10.6-8.5 17-9.1l1.5-.2-.3 1.5c-1.2 5.4-3.7 11.8-9.2 16 1.1.1 2.1.2 3.2.6 5.1 1.4 9.6 4.9 12 9.3l.6 1.2-.8.3-.5.1c-.2.1-.4.1-.6.2l-3.3.9c-2 .4-4.1.7-6.2.7-2.4 0-4.8-.4-7.1-1.2.2.4.3.8.5 1.2 7.4 8.3 15.9 14.9 24.2 21.4.9.7 1.9 1.5 2.9 2.3-.1-5.5-2.9-11.1-5.7-16.6-.9-1.7-1.8-3.4-2.5-5.1-.4-1-.9-2-1.3-3 .8.3 1.6.7 2.4 1 4.6 2 8.9 4.6 12.7 7.6 2.7 2.1 5.1 4.4 7.3 6.9l.1.1c2.8 3.2 5.1 6.8 6.9 10.5 5.8 10.4 16.6 17.2 32 20.5-2.3-1.9-4.4-3.9-6.4-5.9-1.2.6-2.3.9-3.6.9-.7 0-1.3-.1-2-.3-3.2-.9-5.8-3.9-7.1-6.4l-.6-1.2 1.3-.4c1.7-.6 3.5-.2 5.2.1.3.1.6.1.8.1-1.4-2-2.8-4-4-6-.2-.4-.4-.7-.6-1.1-.4-.1-.7-.2-1.1-.3-5.9-1.6-13-4.7-18.7-10.7-.4-.4-.7-.7-1-1.2-2.3-2.7-4.4-6.1-5.8-10.1l-.6-1.6 1.6.2c3.9.4 8.3 1.2 12.6 2.8-3.4-7.7-5.2-16.5-6.7-24.7l-.4-1.8 1.8.5c10.2 2.8 18.6 13 21.7 25 2.7-5.4 6.8-10 13.1-11.5l1.4-.3v1.4c-.1 14.1-7.1 22.9-14.8 30.8-.3.3-.6.6-.8.9.2.4.5.8.7 1.2.9 1.5 1.9 3.1 3 4.6.5-1.9 1.5-4 3.6-5.9l.8-.7.7.8c2.8 2.9 3.9 8.3.9 13 2.5 2.6 5.2 5.1 8.1 7.3-1.2-7.4.8-14.9 5.8-21.3 3-3.8 6-7.9 6.7-12.1.4-2.4.1-6.2-1-9.1-.5-1.2-1-2.2-1.8-2.9 1.2.3 2.4.7 3.5 1.2 3.2 1.4 6.1 3.6 7.6 6.6 2.4 4.5 1.9 9.7-1.4 15.4-.9 1.6-1.9 3-2.9 4.4-2.1 3.1-3.9 5.8-4.9 9.8-1.4 5.6.1 13.2 3.8 18 .8 1 1.9 2.2 3.2 3.2-1.3-7.3.4-17.3 4-23.7.7-1.2 1.4-2.3 2.2-3.2 0 1.3 0 2.5.1 3.7.7 11.2 5.9 19.6 12.9 27.1 7-7.4 12.2-15.8 12.9-27.1.1-1.2.1-2.4.1-3.7.8.9 1.5 2 2.1 3.2 3.6 6.4 5.2 16.3 4 23.7 1.3-1 2.4-2.1 3.2-3.2 3.6-4.8 5.2-12.4 3.8-18-1-4-2.8-6.7-4.9-9.8-.9-1.4-1.9-2.8-2.8-4.4-3.3-5.7-3.8-10.9-1.4-15.4 1.5-3 4.4-5.2 7.6-6.6 1.2-.5 2.3-.9 3.5-1.2-.7.7-1.3 1.7-1.8 2.9-1.1 2.9-1.4 6.8-1 9.1.7 4.2 3.7 8.3 6.7 12.1 5 6.5 7 13.9 5.8 21.3 2.9-2.2 5.6-4.7 8.1-7.3-3-4.8-1.9-10.1.9-13l.8-.8.8.7c2.1 1.8 3.1 3.9 3.6 5.9 1.1-1.5 2.1-3 3-4.6.3-.4.5-.8.7-1.2l-.9-.9c-7.6-7.9-14.7-16.7-14.8-30.8v-1.4l1.3.3c6.3 1.5 10.4 6.1 13.1 11.5 3.1-12 11.5-22.3 21.7-25l1.8-.5-.4 1.8c-1.6 8.2-3.3 17.1-6.8 24.7 4.4-1.6 8.8-2.4 12.6-2.8l1.7-.2-.6 1.5c-1.5 4-3.5 7.3-5.8 10.1-.3.4-.7.8-1 1.2-5.6 6-12.8 9.1-18.7 10.7-.4.1-.8.2-1.1.3-.2.4-.4.7-.6 1.1-1.2 2.1-2.5 4.1-4 6 .3-.1.6-.1.8-.1 1.7-.4 3.4-.7 5.2-.1l1.2.4-.6 1.2c-1.3 2.5-3.8 5.5-7.1 6.4-.6.2-1.3.3-2 .3-1.2 0-2.4-.3-3.6-.9-2 2.1-4.1 4-6.4 5.9 15.4-3.2 26.2-10.1 32-20.5 1.8-3.8 4.1-7.3 6.9-10.5 0-.1.1-.1.1-.1 2.1-2.5 4.6-4.8 7.3-6.9 3.8-3 8.1-5.5 12.7-7.6.8-.4 1.6-.7 2.4-1-.4 1-.8 2-1.3 3-.8 1.7-1.6 3.3-2.5 5.1-2.8 5.4-5.7 11-5.7 16.6 1-.8 1.9-1.5 2.9-2.3 8.3-6.5 16.9-13.1 24.2-21.4.1-.4.3-.8.5-1.2-2.3.9-4.7 1.2-7.2 1.2-2.1 0-4.2-.3-6.2-.7-1.2-.2-2.3-.5-3.3-.9-.2-.1-.4-.1-.6-.2l-.5-.1-.8-.3.7-1.2c2.4-4.4 6.9-7.9 12-9.3 1.1-.3 2.1-.5 3.2-.6-5.5-4.2-8-10.5-9.2-16l-.3-1.5 1.5.2c6.4.6 13 4.1 17 9.1.9-6.4 5.6-12.2 10.2-16.5l1-.9.7 1c2.6 4 3.5 9.2 2.3 14.2-.5 2-1.2 3.9-2.2 5.7 7.8-3.2 15-2 20.4.1l1.6.6-1.2 1.2c-5.7 5.8-12.3 9.1-18.2 10.1 3.4 2.3 5.8 5.2 7.5 8.1.2-.1.3-.2.5-.2 1.6-.9 3.2-1.7 4.8-2.6 6.7-9.5 11.6-20 16.3-30.2.4-.8.7-1.5 1.1-2.3-7-6-9.1-13.4-5.7-20.3l.6-1.3 1 1c4.1 3.6 7.1 6.7 8.9 10.4 2.6-5.3 5.5-10.6 8.9-15.6-5.3-1.6-10.6-4.6-14.7-10.3l-1-1.5 1.8-.3c4.7-.8 10.6-1.2 16.4.2-3.9-8-4.2-17.9-4.5-26.9v-1.8l1.7.7c7 2.8 12.2 9.4 14.4 17.4 1.7-2.6 4.2-4.9 7.8-6.5l1.2-.6.4 1.2c3.2 11.2-2.2 19.8-8.2 27.9.1.2.3.4.4.7 1.3 2 2.6 4 3.7 6.1.4-.3.8-.6 1.3-.8 1.4-.9 2.8-1.8 4.2-2.6.5-.3 1-.6 1.4-.9.5-2.1.9-4.4 1.3-6.6.3-4.1.4-8.2 0-12-.4-4.8-1.4-9.2-2.9-13.5-1.2-3.3-2.7-6.5-4.5-9.6-.4-.6-.7-1.3-1.1-2-1.2-2.2-2.5-4.5-3.5-6.8-1.9-4.3-3.7-9.6-1.5-15.2.4-1 .9-2.1 1.7-3.2.2 1.1.4 2.2.7 3.2 1.8 6.2 5.7 11.1 9.9 16.2 4.2 5.2 8.5 10.6 10.6 17.6.6-.9 1.2-1.8 1.7-2.7.2-7.8.1-15.2-.4-22.6-6.1-1.5-10.2-6.7-11-14.1l-.2-1.5 1.5.3c3.3.8 5.9 1.7 8.2 3.4-.6-4-1.4-7.9-2.4-11.9-4.8 5.2-10.9 10.6-18.7 10.9h-.5c-.8 0-1.6-.1-2.4-.2l-2.3-.3 1.7-1.7c1.3-1.2 2.5-2.5 3.8-3.8 1.3-1.4 2.7-2.9 4.2-4.2-7.6-.3-14.5-4.7-19.7-9.3l-1-.9 1.1-.8c5-3.8 11.9-5.5 18.4-4.4.6.1 1.3.3 1.9.4-5.2-7-6-16.5-5.4-24.3l.1-1.4 1.3.4c6.6 2 12.4 7.1 15.7 13.7.2.4.4.8.5 1.1 2.1-5.7 5.7-9.9 9.2-12.7l1.4-1.1.4 1.7c2.6 11 .5 21.1-3.7 26.9.2 0 .4-.1.6-.1 4.2-.5 7.9-.9 10.5-5.2l1.6-2.7.4 3.1c.7 5.3-1.1 9.7-5 12.3-2.3 1.5-5 2.3-7.9 2.3-1.5 0-2.9-.2-4.4-.6 1 4.1 1.8 8.2 2.5 12.2 2.3-3.4 5.9-5.3 8.9-6.3l1.5-.5v1.6c0 7.1 0 15.2-8.9 17.4.5 6.1.6 12.3.6 18.6 1.9-3.7 3.6-7.6 5.3-11.4 1.1-2.6 2.3-5.2 3.5-7.7 1.7-3.6 3.6-7.4 5.9-10.9.3-2.1.6-4.3.8-6.5.1-1.3.3-2.5.3-3.8.6-8.1.4-16.3-1.8-24.1-2.4-5.9-6.2-11.4-10.3-17.2-.1-.1-.1-.2-.2-.3-6.9-9.7-13.9-19.6-14.1-31.8 0-1.4.1-2.9.2-4.3.6 1.3 1.2 2.5 2 3.7 3.2 5.1 7.7 9.5 12.1 13.9 4.9 4.8 9.9 9.7 13 15.5-.2-5-.4-10-.8-15-3.6-9.3-8.2-18.8-14.9-26.5 1.6 4.7 1.3 10 .5 14.5l-.2 1.3-1.2-.5c-3.2-1.3-6-3.7-8-6.8-.2-.3-.4-.7-.6-1-.2-.3-.4-.7-.6-1.1l-.6-1.2c-.5-1.2-.8-2.4-1-3.6-3 4.6-8.2 7.6-13 9.6l-1.2.5-.3-1.3c-.9-4.4 0-9.2 2.7-13.2.6-1 1.4-1.9 2.2-2.7h-.6c-5.5 0-10.9-2.6-15.1-5.4l-1.1-.8.9-.9c3.6-3.6 8.8-5.7 14.1-5.6.6 0 1.3.1 1.9.1-3.1-4.6-4.1-10.4-4.2-15.3v-1.4l1.4.3c5.2 1.2 10.1 4.7 13 9.4.6-2.2 1.7-4.3 3-6.2-4-4.5-8.2-8.8-12.7-13.4-2.8-2.8-4.8-6.3-5.8-9.9-.7-2.6-.9-4.9-.6-7 .2-1.1.5-2.1.9-3.1.4.9.9 1.8 1.4 2.7 4.1 7.3 10.9 12.9 17.5 18.4 4 3.3 8 6.7 11.4 10.4-.9-2.7-2.3-5.5-3.8-8.2-1.6-2.9-3.7-5.3-6-7.5l-.2.1c0-.1-.1-.2-.1-.3-2.1-2-4.5-3.8-6.9-5.7-.8-.7-1.7-1.3-2.5-2-2.8-2.1-5.6-5-8.2-8.1-.2-.2-.3-.4-.4-.6-.2-.3-.5-.6-.8-.9-3.7-4.8-6.6-10.2-7.6-15.5-.1-.3-.1-.6-.1-.9-.3-1.5-.4-3-.5-4.5.8 1.2 1.6 2.4 2.5 3.5 4 5 9.1 9.2 14.3 13.5 2.2 1.8 4.4 3.6 6.6 5.5-.1-.8-.3-1.6-.5-2.3-2.1-3.6-5-6.4-8-9.4-3.9-3.8-7.9-7.8-10.3-13.4l-1.6-3.9 3.3 2.5c1.8 1.4 3.9 2.6 5.9 3.7 1.4.8 2.9 1.6 4.3 2.5-5.2-7.4-11.3-13.3-18.4-18.1 1.2 2.2 2.2 4.5 2.4 6.7.2 2.8-.6 5-1.7 7-.5.7-.9 1.4-1.4 2-.2.3-.4.5-.6.8l-.8.9-.8-.9c-1.9-2-4.1-5.4-4.9-8.8-2.5 3.2-5.7 4-8.7 4.4l-1.2.1v-1.2c-.1-2.6.5-6.3 1.9-9.1-.5.1-.9.2-1.4.2h-.6c-3.7 0-6.3-1.8-8.6-3.9l-.9-.8.9-.8c2.1-2.1 6.1-4.3 9.5-4.7h.9c-2.4-3-2.6-6.2-2.5-9.3l.1-1.2 1.2.2c2.9.4 7.1 2.1 9.6 4.6 1.4 1.4 2.1 3.2 2.5 4.4.1.4.2.9.4 1.6h.3c2.6 0 4.8 2.2 4.8 4.9 0 .2 0 .4-.1.6 5.9 3.8 11.2 8.3 15.8 13.9-1.8-3-3.7-6-5.7-8.8l-.6-.9c-1.3-1.9-2.7-3.8-4.2-5.6-.6-.8-1.3-1.6-1.9-2.5-2.9-3.6-5.9-7.1-9-10.3-1.8-2-3.7-3.9-5.5-5.7-1.2.2-2.4.3-3.6.3-8 0-15.3-4.9-21.9-9.4-2.3-1.6-4.5-3-6.7-4.3l-1.8-1.1 2-.8c5.6-2.2 11.9-1.2 17.7.3-.3-.3-.6-.6-.8-1l-1.7-1.9c-1.5-1.8-3-3.6-4.6-5-2.6 2.9-6.2 4.5-10.7 4.6-3-.2-4.7-.3-7.8-2.1l-1.1-.7.8-1c2.6-3.2 5.6-5.2 8.7-5.9-5.1-3.2-9.7-8-8.9-15l.1-1.1 1.1.1c6.6.8 11.7 3.9 14.9 7.9.8-4.1 2.7-7.5 5.3-9.8l1.4-1.2.4 1.8c1.3 6.2 1.2 14.7-2.8 20.7 1.8 1.6 3.4 3.5 4.9 5.3l1.6 2 .2.2c-1-6.1-.6-13.4 4.5-18.6l1.9-1.9v2.7c0 4.9 2.1 9.4 4.2 13.7 2.7 5.8 5.6 11.8 3.5 18.8l.2.2 1.7 1.7c1.5 1.5 3.1 3.2 4.6 4.8 1.6 1.7 3.1 3.4 4.7 5.2-2.9-8.2-3-16.2-2.2-23.8-.1-.2-.2-.3-.2-.5-8.3-3.8-12.4-10.8-11.1-18.7l.2-1.3 1.2.4c2.9 1 5.3 2.4 7.1 4.2.4-3.7 1.5-7.4 3.3-11.1l.8-1.5 1.1 1.3c2.6 3.4 3.9 7.3 4 11.2 1.3-.8 3-1.2 5.4-1.2h1.4l-.6 2.2c-.8 3.3-1.7 7.1-3.8 10.2-.2.3-.4.6-.6.8-1.4 1.8-3.4 3.3-6 4.1-.9 9-.3 16.1 2 22.7.1-2.5.6-5.1 1-7.5.5-3 1-6.1 1-9v-4.2l2.1 3.7c4.6 8.2 9.1 20.4 5.2 32.4 2 2.8 3.9 5.8 5.7 8.9 1.2 2 2.3 4 3.4 6-.1-.8-.3-1.6-.4-2.4h-.2v-.7c0-.2-.1-.3-.1-.5-2.6-15.5-5.2-31.6-9.9-47.4l-1.6-5.5 3.6 4.5c4.3 5.5 7.5 11.4 9.9 17.6 2.9.2 5.7 1.1 8.3 2.7.1.1.3.2.4.2-.6-4.7.5-9.4 2-13.4l.5-1.3 1.1.8c4.1 2.9 7 7.7 7.9 12.8 0 .1 0 .2.1.3 3-4 7.6-6.6 11.9-8.3l1.3-.5.2 1.4c.8 4.7-.5 10-3.5 14-.5.7-1.1 1.4-1.7 2 5.5 1 10.2 4.8 13.7 8.5l1 1-1.2.7c-2.7 1.6-6 2.5-9.3 2.5-1.7 0-3.5-.2-5.1-.7-.6-.2-1.2-.4-1.7-.6.9 2.3 1.3 4.8 1.3 7.2v.8c-.1 2.9-.7 5.9-1.4 8.5l-.4 1.3-1.2-.6c-3-1.5-5.6-4.1-7.3-7.2l-.1-.1-.1-.1c-.6-1.1-1.1-2.2-1.4-3.4-.2-.7-.4-1.4-.5-2.1-.9 3.5-1.6 7-2.2 10.5 0-.1.1-.1.1-.1l3.6-4.5-1.7 5.6c-3.3 10.8-1.4 24.9 1.4 34.2 2.1 4 3.3 8.3 4.8 14.2.1.4.2.8.2 1.2.9-8.4 2.8-16.6 4.7-24.6 2.2-9.4 4.6-19.1 5-28.8.1-1.6.1-3.2.1-4.8.8 1.4 1.5 2.9 2.2 4.3 7.5 17.1 3.4 34.2-.7 50.8-.7 2.7-1.3 5.5-1.9 8.2-.8 3.3-1.4 6.3-1.7 9.2-.6 4.5-.9 8.7-.7 12.7 2.9-8 6.8-14.6 11.3-21.1.2-.2.3-.5.5-.7-.1-.7-.2-1.3-.3-1.9-1.7-10.9-2.2-22.7 3.1-32.1l1.1-2 .9 2.1c3.4 8.2 4.8 15.4 4.2 21.4 6.3-5.1 14.2-9.2 22.4-11.6l1.8-.5-.4 1.9c-1.7 7.1-6.5 12.1-12 15.7 3.3 1.9 5.4 5.4 7.4 8.6l1.5 2.4-2.6-.5c-2-.3-3.9-.4-5.9-.3-1.3 0-2.6.2-3.9.3-4.9.4-10.1.8-15.4-1.4l-.6.1c-4.3 6.2-8 12.4-10.8 19.9 4.9-5.8 10.5-12 19-13.2l3.6-.5-2.7 2.5c-11 10.1-14.4 24.4-16.2 38.4 3-5.8 7.2-10.8 11.3-15.7 6.3-7.4 12.7-15.1 14.8-25.3l.8-3.9 1.3 3.8c3.7 10.6 1.1 21.6-8.2 34.5-1.6 2.2-3.4 4.4-5.3 6.7h-.1c-.4.5-.8.9-1.2 1.4-6.2 7.3-12.5 14.9-13.9 23.5v.3c-.1.4-.1.8-.1 1.3-.1.9-.2 1.7-.3 2.5.2 2.9.5 5.7.7 8.5.3 3.6.6 7.1.9 10.7 3.6-7 7.8-13.2 12.8-17.5-3.8-.1-7.8-1.6-12-4.6l-1.1-.8 1-1c3.2-3 7.7-4.6 12.1-4.3.2 0 .5.1.8.1-2.5-5.7-1.2-12.6.7-18.1l.5-1.3 1.1.7c3.8 2.2 6.7 6.3 7.8 11v.1c2.8-4 7.1-6.7 11-8.5l1.3-.6.2 1.4c.9 5-.3 10.4-3.3 14.7-.1.1-.1.2-.2.3 4.9-.7 10 .8 14.2 2.6l1.3.6-.8 1.1c-2.7 3.9-7.2 6.7-12.2 7.5-.9.2-1.7.2-2.6.2 3.3 4.7 4 10.7 3.8 15.9v1.4l-1.3-.3c-4.7-1.2-9-4.6-11.5-9.1-.3-.6-.6-1.1-.8-1.7-2.2 5.2-7 9.1-11.6 11.7l-1.2.7-.4-1.3c-1.3-3.9-1-8.6.6-12.6-3.9 4.5-7.2 10.2-10.2 16.4.1 4.4-.1 8.8-.8 13.1 2.2-1.8 4.6-3.3 7.3-4.3 4-1.4 8.8-2.1 12.9-.8 5-4.6 10.6-8.2 17-10.3.1-.1.3-.1.4-.1 1.9-.6 3.9-1.1 5.9-1.4-1.9 1.1-3.6 2.3-5.4 3.5-1.3 1-2.6 2.1-4 3.3-2.9 2.5-5.6 5.5-8.5 8.9.1.2.3.4.4.7 1.4 2.1 2.1 5.3 2 8.8-.1 2.2-.7 4.1-1.3 5.9-.3.8-.5 1.6-.8 2.5-.3 1.2-.5 2.5-.6 3.7-.1 1-.1 2.1-.1 3.2-.8-.7-1.5-1.6-2.1-2.5-.2-.3-.4-.6-.6-1-1.3-2.3-1.2-4.1-1.2-5.9v-2.2l-.1-.6c-.1-2.3-.2-3.6-1.6-4.5-1 1.6-2.1 3.3-3.3 5.2-2.4 3.5-4.6 7.1-6.7 10.6-4.9 8-9.6 15.7-15.9 21.6-2.4 2-4.9 3.9-7.3 5.7-.1.1-.3.2-.4.3 1.1 0 2.1.1 3.2.2h.2c7-7.6 14.4-14.9 25.8-13.3l1.2.2-.3 1.2c-1.3 5-3.8 8.4-6.8 10.7 7.6 2.1 14.2 7.7 17.1 15.4l.6 1.6h-1.7c-7.2 0-15 0-21.8-2.8 1.6 5.2 2.1 10.6 2.1 15.1v1.8l-1.6-.9c-11.4-6.2-14.7-18.6-15.6-26.8l-.2-.2c-1.7-.1-3.5-.1-5.2 0-2.3 1.7-4.5 3.6-6.5 5.6-1.6 1.6-3.1 3.4-4.4 5.5-.9 3.5-1.9 7-2.8 10.5 4.7-3.3 8.9-7.1 11.8-12.2.7-1.2 1.3-2.4 1.8-3.7.3 1.5.4 2.9.4 4.3.1 5.8-1.8 11-6 16-3.3 4.1-7.6 7.5-12.3 11.1l-2.4 8.7c9-5.8 18.1-10.9 28.5-11.2 7.5-.2 15.3 3.2 15.9 11.3.7 10.9-8.6 17.8-17.7 18.8-3.6.4-7.7 2.1-11.2 4.7-.9.7-1.8 1.4-2.5 2.1l.5-.2c.1-1.2.4-2.3.8-3.3 2.5-6.5 9.9-10.7 15.6-13.9 1.6-.9 3-1.7 4.3-2.4.5-.3 1.1-.7 1.7-1 1.9-1 3.7-2 4-3.9.3-2.2-1.5-3.8-3.3-4.3-5.5-1.4-14.1 3.8-19.7 7.2-1 .6-1.9 1.2-2.8 1.7-7.6 4.4-15.3 9-22.7 13.4l-3.7 2.2c-3.9 2.3-7.8 4.6-11.6 6.9-19.4 12.5-40.1 23-59.8 31.9 12.1-3.2 24.5-6.1 37.3-8.3 1.5-10.2 14.6-12.9 21.6-12.9h1.5l-.5 1.5c-.9 2.8-3.2 4.9-5.5 7-.9.8-1.7 1.6-2.5 2.4 3-.3 6.1-.6 9.5-1 4.1-.4 8.3-.8 12.4-1.2-5-3.5-7.4-9.5-8.6-14.7l-.3-1.4h1.4c4.9 0 9.9 2.2 13.4 5.9.3.4.6.7.9 1.1-.2-6.6 3.8-12.5 7.8-16.9l.9-1 .8 1.1c.8 1.1 1.4 2.3 1.9 3.6 1.2 3.2 1.6 6.8.9 10.3-.2 1.2-.6 2.4-1 3.6 4.9-2.2 11-1.9 16.1-.9l1.3.3-.4 1.2c-1.5 4.2-4.9 7.7-9.3 9.7-1 .5-2.1.8-3.2 1 4.9 3 8.3 8.3 10.4 13.2l.6 1.3-1.3.3c-1.2.3-2.4.4-3.7.4-3.8 0-7.8-1.2-11.1-3.4-.5-.4-1.1-.8-1.5-1.2.2 5.6-2.1 11-4.7 15.2l-.7 1.2-1-1c-3.7-3.9-5.9-9.5-6-15-3.6 3.2-8.4 4.8-12.7 5.8l-1.3.3v-1.4-.5c.1-4.7 2.2-9.4 5.7-12.8 1.1-1 2.3-2 3.5-2.7-3.5.3-7 .7-10.6 1-3.2.3-6.2.6-9 .9 3.1 2.3 6.1 5.4 7.3 10.2l.3 1.1-1.1.2c-1.3.2-2.5.4-3.9.4-4.9 0-10.3-1.8-14.2-5.5-.6-.5-1-1.1-1.5-1.7-.7-.9-1.3-1.7-1.7-2.7-14.8 2.5-29.2 6-43.1 9.8 13.1 1.6 27.2 3 38.2-2.5 1.7-.8 3.3-1.8 4.8-3.1-1.1 1.8-2.3 3.5-3.5 4.9-11.3 13.3-28.4 12.3-45 11.4-3.9-.2-7.8-.4-11.7-.5 6.8.8 13.7 1.5 20.4 2.1 9.1.9 18.4 1.8 27.7 3 .4.1.9.1 1.3.2.3-.3.6-.5.9-.7 8.4-6.6 18.1-12.1 32.2-13.2l1.6-.1-.4 1.5c-1.8 6.6-7.6 11.2-14.5 14.5 9.2 3.8 17.1 11.5 24.3 18.6l1.3 1.2-1.7.6c-2.5.9-5.3 1.4-8.1 1.4-7.4 0-15.5-3.2-22-8.5 1.9 9.9 1.5 20.7.5 29.2l-.2 2.1-1.6-1.5c-9-8.3-12.5-20.8-13.5-32.7-.1-.5-.1-1-.1-1.5 0-.2 0-.5-.1-.8-.1-2.1-.2-4.2-.2-6.2v-2c-.3-.1-.7-.1-1-.1-8.9-1.2-18-2.1-26.8-2.9-7.1-.7-14.4-1.3-21.7-2.2 4.8 1.4 9.5 3 14.2 5.2.8.4 1.7.8 2.6 1.2 7.5 3.6 17.2 8.1 25.6 8.2 1.3 0 2.5-.1 3.8-.3-1 .9-2 1.8-3.1 2.5-3.7 2.6-7.8 4.1-12.2 4.6h-.4c-5.9 0-11.3-1.5-16.3-3.6l-.2.6c-1 4.3-4 8.1-8.3 10.5-1.7 1-3.7 1.7-5.6 2.1 5.3 3.7 8.3 9.9 10 15.4l.4 1.3-1.4.1h-1.3c-5.2 0-10.5-2-14.5-5.6-.3-.3-.6-.5-.8-.8-.3 5.8-3.3 11.4-6.4 15.9l-.8 1.1-.9-1c-3.4-3.7-5.3-9.1-5-14.6.1-1.7.4-3.4.9-4.9-3.2 1.8-6.9 2.4-10.5 2.4-1.9 0-3.8-.2-5.6-.5l-1.3-.2.5-1.3c1.6-4.5 5.3-8.3 9.9-10.4 1.8-.8 3.6-1.3 5.5-1.4-.6-.7-1.1-1.3-1.5-2.1-4.8-3.4-10-6.1-15.3-7.8.1.2.3.5.4.8.8 1.5 1.6 3.1 1.6 5v1.4h-.2l-1.1-.2c-2.7-.6-6.2-2.1-8-5.1-.7-1.2-1.1-2.5-1.1-3.9-1.9-.3-3.9-.5-5.9-.6-2.1-.1-4.2-.1-6.3.1-.6.3-1.2.6-1.8 1v-.1c-1.9 1-3.8 1.9-5.7 2.8-2.5 1.2-5 2.4-7.5 3.8 5.6-.2 11 .2 17 1.3 1.5.3 3 .6 4.4.9 4.6 1 9.1 1.9 13.6 1.8.9 0 1.8-.1 2.8-.2.5-.1 1-.1 1.5-.2-1.1 1-2.3 1.9-3.5 2.7-11.6 7.6-26.5 6-39.9 4.6-1.7-.2-3.4-.4-5.1-.5-3.9-.4-7.2-.3-10.3.1 1.7 1.5 3.5 2.9 5.2 4.4 6.5 5.4 13.2 10.9 18.5 17.3.5.6.9 1.2 1.4 1.8-.6.4-1.3.7-2 1-2.2 1-4.5 1.5-6.8 1.6h-.6c-.5 0-1 0-1.5-.1l-.9-1c-.4-.5-.9-1-1.3-1.6-2.7-3.3-5.5-6.6-8.6-9.7-4.2-4.2-8.6-7.6-13.3-10.1-4.8 2.6-9.2 5.9-13.3 10.1-3.1 3.1-5.9 6.5-8.6 9.7-.4.6-.9 1.1-1.3 1.6l-.8 1c-.5 0-1 .1-1.5.1h-.6c-2.3-.1-4.7-.6-6.8-1.6-.7-.3-1.3-.6-2-1 .5-.6.9-1.2 1.4-1.8 5.3-6.4 11.9-11.9 18.4-17.3 1.8-1.5 3.5-2.9 5.2-4.4-3.1-.5-6.4-.5-10.3-.1-1.7.1-3.3.3-5.1.5-13.4 1.5-28.3 3-39.9-4.6-1.2-.8-2.4-1.7-3.5-2.7.5.1 1 .2 1.5.2.9.1 1.9.2 2.8.2 4.6.2 9-.8 13.6-1.8 1.4-.3 2.9-.6 4.4-.9 6-1.2 11.4-1.6 17-1.3-2.5-1.4-5-2.6-7.5-3.8-1.9-.9-3.8-1.8-5.6-2.8v.1c-.6-.3-1.2-.7-1.8-1-2.1-.2-4.2-.2-6.3-.1-2 .1-4 .3-5.9.6 0 1.4-.4 2.7-1.1 3.9-1.8 3-5.3 4.6-8 5.1l-1.2.2h-.1v-1.4c0-1.9.8-3.5 1.6-5 .1-.3.3-.6.4-.8-5.4 1.7-10.5 4.4-15.3 7.8l-1.5 2.1c1.8.1 3.7.6 5.4 1.4 4.6 2 8.2 5.9 9.9 10.4l.5 1.3-1.3.2c-1.8.3-3.7.5-5.6.5-3.6 0-7.3-.6-10.5-2.4.5 1.5.8 3.2.9 4.9.3 5.4-1.6 10.8-5 14.6l-.9 1-.8-1.1c-3.1-4.4-6.1-10.1-6.4-15.9-.2.3-.5.5-.8.8-4 3.6-9.3 5.6-14.5 5.6h-1.3l-1.4-.1.4-1.3c1.7-5.5 4.7-11.7 10-15.4-2-.4-3.9-1.1-5.6-2.1-4.3-2.4-7.3-6.3-8.3-10.5l-.1-.6c-5.1 2.1-10.4 3.6-16.4 3.6h-.4c-4.5-.5-8.5-2-12.2-4.6-1-.8-2.1-1.6-3.1-2.5 1.2.2 2.5.3 3.7.3 8.5-.1 18.1-4.6 25.6-8.2.9-.4 1.7-.9 2.6-1.2 4.7-2.2 9.4-3.8 14.2-5.2-7.2.9-14.5 1.6-21.7 2.2-8.9.9-17.9 1.7-26.8 2.9-.3 0-.7.1-1 .1v2c0 2 0 4.1-.2 6.2v.8c0 .5-.1 1-.1 1.5-1 12-4.5 24.4-13.5 32.7l-1.6 1.5-.2-2.1c-1-8.6-1.5-19.3.4-29.2-6.5 5.3-14.5 8.5-21.9 8.5-2.8 0-5.6-.5-8.1-1.4l-1.6-.6 1.3-1.2c7.2-7.1 15.2-14.8 24.3-18.6-6.8-3.2-12.6-7.8-14.4-14.5l-.4-1.5 1.5.1c14.2 1.1 23.9 6.6 32.2 13.2.3.2.6.5.9.7.4-.1.9-.1 1.3-.2 9.3-1.2 18.6-2.1 27.7-3 6.7-.6 13.6-1.3 20.4-2.1-3.9 0-7.8.2-11.7.5-16.6.9-33.6 1.9-45-11.4-1.2-1.5-2.4-3.1-3.5-4.9 1.5 1.2 3.2 2.2 4.8 3.1 11 5.5 25.1 4.1 38.2 2.5-14-3.8-28.3-7.3-43.1-9.8-.5.9-1.1 1.8-1.7 2.7-.2.3-.5.6-.7.9-.2.3-.5.5-.8.8-3.9 3.8-9.2 5.5-14.2 5.5-1.3 0-2.6-.1-3.9-.4l-1.1-.2.3-1.1c.6-5 3.6-8.1 6.7-10.4zm373.8-39.9c3.1-1.9 6-4 8.9-6.1.5-.3.9-.6 1.4-1 .6-1.5 1.2-3.1 1.7-4.6.2-1 .2-2.1.2-3.1-4.2 3.4-9.1 8.5-12.2 14.8zm-26.1-302.6c2 1.6 4 2.6 6.6 2.5 1.3-.1 2.7-.5 4-1.1 1.4-.6 2.8-1.5 4.1-2.3v-.1c-.6-.2-1.3-.5-2.1-1-.5-.2-.9-.5-1.2-.6-1.7-.6-2.9-.8-4.1-.7-2.2.3-5.2 1.6-7.3 3.3zm-335.6 0c-2.1-1.7-5.1-3.1-7.3-3.3-1.1-.1-2.4.1-4.1.7-.3.1-.8.4-1.2.6-.9.5-1.5.8-2.1 1v.1c1.3.8 2.7 1.7 4.1 2.3s2.8 1.1 4 1.1c2.6.1 4.6-.8 6.6-2.5zm387.9 76.1c-1.4 2.3-2.5 4.9-2.8 7.6 1 2.3 1.4 4.8 1.2 7.2.3.1.6.2.8.3 2.8-1.9 4.8-4.9 5.7-8.6 0-.1.1-.2.1-.3-1.6-2.1-3.2-4.1-5-6.2zM66.6 261.2c2.3-.9 4.7-1.3 7.2-1-1.3-1.6-2.4-3.5-3-5.6-1.5 2-2.9 4.2-4.2 6.6zm297.6 290.5c4.1 1.4 8.1 3.4 11.9 5.8-1.4-4.1-1.3-8.6-.9-12.4l.2-1.4 1.3.5c3.7 1.4 7 4.2 9.2 7.7.8-3.1 2.4-6.1 4.2-8.6-13.2-3.4-28.3-1.4-43.3 5.4.5 0 1 0 1.5.1 2.1.1 4.1.3 6.1.6.2 0 .4.1.6.1.1-.1.2-.2.3-.4 3-4 7.8-5 11.3-3.8l1 .3-.3 1c-.7 2.2-1.9 3.8-3.1 5.1"/><path id="shield" class="g" d="M221.9 240.1c0-3.2-2-6.6-4.1-8.6-1.2-1.1-2.2-1.3-3.7-1.5-.3-.1-.6-.1-.9-.1-2-.4-2.4-1.6-2.7-2.7-.2-.5-.3-1.1-.6-1.6-.8-1.5-1.9-2.3-3.1-2.4-1.2-.1-2.4.6-3.4 2l-.5.7-.6-.6c-1.3-1.2-3-1.7-4.5-1.2-1.4.4-2.4 1.6-2.9 3.2l-.2.8-.7-.3c-.4-.1-.7-.3-1.1-.4-2-.8-3.7-1.5-5.5-.1-1.9 1.4-1.6 2.8-1 5l.2.8-.8.2c-1.7.3-3.4 2.3-3.3 3.9.1 1.5 1.2 2.5 2.7 3.6l.8.5-.7.6c-.3.3-.6.5-.9.8-2 1.7-3.5 3.2-2.7 4.7 1.2 2.5 3.7 4.1 6.3 3.9l1.5-.1-.8 1.2c-.4.6-.5 1.3-.3 2 .3 1.1 1.3 2.1 2.4 2.6 1 .4 2.5.6 4 .6.2-2.1 1.9-3.3 3.4-4.3l1.2-.9c-.4-.9-.5-1.8-.3-2.8.3-1.1 1-2.1 2-2.8-2.1-.8-4.6-.6-7-.1 2.3-2.6 4.9-2.2 8.1-2.4.3-2.3-1-4.9-1.2-7.2 1.7 1.5 3.6 3.4 4.5 5.6 1.1-1.9 3.2-5.1 5.5-6-.7 2-1.6 4-2.1 5.9.5 0 1 .1 1.4.2.7.1 1.3.2 1.8-.1.7-.4 1.1-.9 1.4-1.4.7-.9 1.4-1.9 4-1.5 1.5.2 3 .8 4.2 1.8.1-.4.2-.9.2-1.5zm1.9 15.9c1.3-2.3 1-7.3-.2-9.5-.4-.8-.9-1.6-1.5-2.2-.3-.4-.7-.8-1.1-1.1-1.1-.9-2.4-1.5-3.8-1.7-1.5-.2-1.9.1-2.6 1-.4.5-1 1.2-1.9 1.7s-1.9.4-2.9.2c-.4-.1-.8-.2-1.1-.2h-.4c-.3.1-.7.2-1.2.6-.2.2-.5.6-.8 1-.4.6-.8 1.2-1.3 1.5s-1.1.3-1.7.4c-.3 0-.5 0-.8.1-.2 0-.3.1-.5.2-.9.5-1.6 1.3-1.8 2.2-.2.7 0 1.4.4 2.1l.3.5-.4.4c-.5.5-1.1.9-1.8 1.4-1.5 1-2.5 1.9-2.7 3v.7c.1.2.1.5.2.7.7 1.9 2.7 4.2 4.3 4.9.1.1.5.1.7.1.6 0 1 .1 1.3.3.5.3.7.8.8 1.2.1.2.2.4.2.5.6.8 1.7 1.8 2.3 2 .4.1.7.2 1.1.2 1.1 0 2.1-.6 2.8-1.4.6-.6 1-1.3 1.4-1.9.3-.6.6-1.1.8-1.6l.3-.7.7.3c1 .4 2 .6 2.8.4.8-.1 1.4-.5 2.1-1.1l.4-.4c.3-.4.5-1 .8-1.5.3-.9.7-1.8 1.4-2.3.3-.2.8-.3 1.2-.4.3-.1.7-.1.9-.2.5-.4 1.1-1.1 1.3-1.4zm4.7 51.9v-27.7c-.3-.8-.8-1.7-1.2-2.4-.3-.6-.7-1.2-.9-1.6-.6-1.4-1.5-2.8-2.8-4.6-.6-.8-1.3-1.7-2-2.5-.5-.6-1-1.2-1.5-1.9-.7-1-1.7-1.8-2.6-2.7-.1-.1-.2-.2-.3-.2-.6.3-1.2.4-1.9.4-.6 0-1.3-.1-2-.3-.3.6-.6 1.1-.9 1.7 1.4 2.2 2.6 4.7 3.6 6.8l.4.7c1.8 3.8 3.2 7.8 4 11.1.6 2.7 1.5 6.7 1.9 10.5.1 1.1.2 2.3.4 3.5.2 1.4.3 2.8.4 4.2l4.8 5h.6zm19-41.7c-.4-.6-.7-1.2-.9-1.7-1.4.4-2.8.4-3.9 0-.1.1-.2.2-.3.2-.9.9-1.8 1.7-2.6 2.7-.5.6-1 1.2-1.5 1.9-.7.8-1.3 1.7-1.9 2.5-1.3 1.7-2.2 3.2-2.8 4.6-.2.5-.6 1-.9 1.6-.4.6-.7 1.3-1.1 2v28l5.4-5.6c.1-1.2.2-2.3.4-3.5s.3-2.3.4-3.4c.3-3.8 1.2-7.8 1.8-10.5.8-3.3 2.3-7.3 4-11.1l.3-.7c1-2.3 2.2-4.8 3.6-7zm8.1-52.1c.6-.7.8-1.6.6-2.6-.2-.9-.8-1.7-1.7-2.1l-.6-.3.3-1.2c.5-1.9.9-3.5-.4-5-1.6-1.7-3.7-2.3-6.1-1.6l-1.2.4.2-1.2c.5-2.4-.6-5-2.6-6.7-1.1-.9-1.7-1.2-3.1-1-.8.1-1.3.4-1.8.9-.5.3-1.5 1.2-2.1.7-.4-.4-.6-1.1-.9-1.5-.4-.7-.9-1.4-1.5-2.1-1.2-1.4-2.6-2.2-4.5-2.4-1.9.2-3.3 1-4.5 2.4-.6.7-1.1 1.4-1.5 2.1-.3.5-.4 1.1-.9 1.5-.6.4-1.5-.4-2-.7-.6-.4-1.1-.8-1.8-.9-1.4-.2-2.1.1-3.1 1-2.1 1.7-3.1 4.3-2.6 6.7l.2 1.2-1.2-.4c-2.3-.7-4.5-.1-6.1 1.6-1.4 1.4-.9 3-.4 4.9l.3 1.2-.6.3c-.8.4-1.4 1.2-1.7 2.1-.2 1 0 1.9.6 2.6 1.1 1.2 2.6 1.1 4.4.9.7-.1 1.5-.1 2.2-.1h.5l.2.4c.2.5.3.9.5 1.4.6 1.9 1 3.4 3.2 4 1.6.5 3.1.3 4.4-.5-.9-.9-1.9-1.7-2.7-2l-1.1-.3.8-.9c.9-1 2.2-1.5 3.8-1.5 1.9 0 4 .7 5.6 1.3 0-.2 0-.4-.1-.7-.1-1.7-.2-3.5.3-5 .6-1.9 2.8-4.2 4-5.2l.7-.5.4.7c.4.6.8 1.2 1.3 1.9 1.6 2.2 3.5 5 3.8 7.6 1.4-.3 3.3-.2 4.9-.1.3 0 .6.2.8.6.4 1-.9 3.6-1.5 4.7 1 .4 2.1.3 3.2 0 2.1-.7 2.6-2.1 3.2-4 .1-.5.3-1 .4-1.5l.2-.4h.5c.7-.1 1.5 0 2.2.1 2 .3 3.5.4 4.6-.8zm8 44.2c.1-.3.1-.5 0-.7-.2-1.1-1.2-2-2.7-3-.6-.5-1.3-.9-1.8-1.4l-.4-.4.3-.5c.4-.7.6-1.4.4-2.1-.2-.9-.9-1.7-1.8-2.2-.1-.1-.3-.1-.5-.2-.2 0-.5 0-.8-.1-.6 0-1.1-.1-1.7-.4-.5-.3-.9-.9-1.3-1.5-.3-.4-.5-.8-.8-1-.4-.4-.8-.6-1.1-.6h-.4c-.3 0-.7.1-1.1.2-.9.2-2 .3-2.9-.2s-1.4-1.2-1.8-1.7c-.7-.9-1.1-1.2-2.6-1-1.4.2-2.7.8-3.8 1.7-.4.3-.7.7-1.1 1.1-.6.6-1 1.3-1.5 2.2-1.2 2.2-1.5 7.2-.2 9.6.1.3.8 1.1 1.1 1.2.2.1.6.2.9.2.5 0 .9.1 1.2.4.7.5 1 1.4 1.4 2.3.2.6.5 1.2.7 1.5.1.2.2.3.4.4.6.6 1.3 1 2.1 1.1.8.2 1.8 0 2.8-.4l.7-.3.3.7c.2.5.5 1 .8 1.6.4.7.8 1.4 1.4 1.9.8.8 1.7 1.4 2.9 1.4.4 0 .7-.1 1.1-.2.6-.2 1.7-1.1 2.3-1.9.1-.1.1-.3.2-.5.2-.4.4-.9.8-1.2.3-.2.8-.3 1.4-.3.2 0 .6-.1.7-.1 1.6-.6 3.7-3 4.3-4.9 0-.2.1-.5.1-.7zm14.7-11c.8-1.6-.7-3-2.7-4.7-.3-.3-.6-.6-.9-.8l-.7-.6.8-.5c1.5-1 2.6-2 2.7-3.5s-1.6-3.6-3.3-3.9l-.8-.1.2-.8c.6-2.2.9-3.6-1-5-1.8-1.4-3.5-.7-5.5.1-.4.1-.8.3-1.1.4l-.8.3-.2-.8c-.4-1.7-1.5-2.8-2.9-3.2-1.5-.4-3.2 0-4.5 1.2l-.6.6-.5-.6c-1-1.4-2.2-2.1-3.4-2s-2.3.9-3.1 2.4c-.3.6-.5 1.1-.6 1.6-.3 1.1-.7 2.4-2.7 2.7-.3.1-.6.1-.9.1-1.5.2-2.5.3-3.7 1.5-2.1 2-4.2 5.4-4.1 8.6 0 .6.1 1.2.2 1.7 1.2-1 2.6-1.6 4.2-1.8 2.5-.4 3.3.6 4 1.5.4.5.7 1 1.4 1.3.5.3 1.1.2 1.8.1.4-.1.9-.2 1.4-.2-.6-2-1.4-3.9-2.1-5.9 2.2.9 4.4 4.1 5.5 6 .8-2.1 2.8-4.1 4.5-5.6-.2 2.3-1.6 4.9-1.2 7.2 3.2.2 5.9-.2 8.1 2.4-2.4-.5-4.8-.7-7 .1 1 .7 1.8 1.7 2.1 2.9.2.9.2 1.8-.3 2.7.4.3.7.6 1.2.9 1.4 1 3.2 2.2 3.4 4.3 1.5 0 3-.2 4-.6 1.2-.5 2.1-1.5 2.5-2.6.2-.7.1-1.4-.3-2l-.9-1.2 1.5.1c2.5-.2 5.1-1.8 6.3-4.3zm18.3 231.9V310.9H163.9v70.7c0 28.8 19.7 53.8 52.7 66.9 7.9 3.1 17 5.3 25.8 7.3l2 .5c23.4 3.8 40.9 11.4 52.2 22.9zm.8-239.6l-.8-.8-38.6-40.1-26.7-27.6-1.6-1.7-1.6 1.7-64 66.4-2.1 2.1 2.1 2.2 56.5 58.6c-.1-.4-.1-.9-.2-1.3-.2-1.2-.3-2.4-.4-3.6-.3-3.7-1.2-7.5-1.8-10.1-.7-3.1-2.1-7-3.9-10.7l-.4-.8c-.9-1.9-1.9-4.1-3-6-1 .9-2.2 1.6-3.6 1.6-.5 0-1-.1-1.5-.2-1.1-.3-2.4-1.7-3-2.5-.2-.3-.4-.6-.4-.9-.1-.2-.2-.5-.3-.5s-.4-.1-.7-.1c-.4 0-.8-.1-1.1-.2-2.2-.9-4.7-3.8-5.3-6.2-1.7 0-3.4-.2-4.7-.8-1.6-.7-2.9-2.1-3.3-3.6-.2-.7-.2-1.4 0-2.1-2.8-.3-5.3-2.1-6.6-4.7-1.3-2.8 1.3-5 3.1-6.5l.2-.2c-1.3-1-2.4-2.3-2.5-4.1-.2-2.2 1.7-4.5 3.7-5.2-.5-1.9-.7-4 1.7-5.9 2.5-1.9 4.9-.9 7-.1.1.1.2.1.3.1.7-1.7 2-3 3.6-3.5 1.7-.6 3.7-.1 5.3 1 1.2-1.4 2.7-2.1 4.2-2 1.7.1 3.2 1.2 4.3 3.1.4.7.6 1.4.8 1.9.3 1 .4 1.5 1.5 1.7.3.1.6.1.8.1 1.6.3 2.9.5 4.5 1.9 2.1 2 4.7 5.8 4.6 9.7 0 1-.2 1.9-.5 2.7.8.8 1.5 1.8 2.1 2.9 1.4 2.6 1.7 8.2.2 11-.3.5-1.1 1.4-1.6 1.7-.4.3-1 .4-1.5.4-.2 0-.5.1-.6.1-.3.2-.6 1-.9 1.7-.3.7-.6 1.4-1 1.9-.1.2-.3.4-.5.5.9.9 1.9 1.7 2.7 2.8.5.6 1 1.2 1.4 1.9.7.8 1.3 1.7 2 2.5 1.4 1.9 2.3 3.4 3 4.9 0 .1.1.1.1.1v-45.7c-.4-.3-.9-.7-1.3-1.1l-.5-.5c-1.7-1.4-3.5-2.2-5.3-2.3H220l.7-1.1c.4-.7 1.1-1.1 1.6-1.4.1-.1.2-.1.4-.2l-.6-.6c-.3-.3-.6-.6-.8-.9-1.2.8-2.4 1.2-3.7 1.2-.7 0-1.4-.1-2.1-.3-2.9-.9-3.5-3-4.2-5-.1-.3-.2-.6-.2-.9-.5 0-1 .1-1.5.1-1.9.2-4.1.3-5.6-1.4-.9-1-1.3-2.5-.9-3.9.2-1.2 1-2.2 1.9-2.9-.5-2-1.1-4.3.8-6.4 1.8-1.9 4.1-2.6 6.5-2.2-.1-2.6 1.1-5.2 3.3-7 1.3-1.1 2.4-1.6 4.3-1.3 1.1.2 1.8.7 2.5 1.1.2.1.3.2.5.3.5-1.2 1.6-2.6 1.9-3 .9-1.1 1.9-1.8 2.9-2.2s1.9-.6 2.9-.7c.9.1 1.8.3 2.7.7 1 .5 1.9 1.2 2.9 2.2.3.4 1.4 1.8 1.9 3 .2-.1.3-.2.5-.3.7-.4 1.4-.9 2.5-1.1 1.9-.3 3 .3 4.3 1.3 2.2 1.7 3.4 4.4 3.3 7 2.5-.4 4.8.3 6.5 2.2 1.9 2.1 1.3 4.4.8 6.4 1 .6 1.7 1.7 2 2.9.3 1.4-.1 2.8-.9 3.9-1.5 1.7-3.7 1.6-5.6 1.4-.5-.1-1-.1-1.5-.1l-.3.9c-.6 2-1.3 4.1-4.2 5-.7.2-1.4.3-2.1.3-.9 0-1.7-.2-2.5-.6-.5.4-1 .8-1.4 1.1-.3.2-.6.4-.8.6.3.3.8.7 1 .8l1.6.9-1.7.5c-.5.1-1.1.1-1.8.1s-1.4 0-1.8.2c-1 .3-1.9 1.1-2.9 2.3-.2.2-.3.5-.5.7-.2.3-.3.6-.6.8v45c.7-1.5 1.7-2.9 3-4.7.6-.9 1.3-1.7 2-2.6l1.5-1.8c.8-1.1 1.8-2 2.8-2.9l-.5-.5c-.4-.5-.7-1.2-1-1.9-.2-.7-.6-1.4-.9-1.7-.1 0-.3-.1-.5-.1-.5-.1-1-.2-1.5-.4-.5-.3-1.3-1.3-1.6-1.7-1.5-2.8-1.2-8.4.2-11 .6-1.1 1.3-2.1 2.1-2.9-.4-.8-.5-1.7-.6-2.7-.1-4 2.5-7.7 4.6-9.7 1.6-1.4 2.9-1.7 4.5-1.9.2 0 .5-.1.8-.1 1.1-.2 1.2-.6 1.5-1.7.2-.5.4-1.2.8-1.9 1.1-1.9 2.6-3 4.3-3.1 1.5-.1 3 .6 4.2 2 1.6-1.2 3.6-1.6 5.3-1 1.7.5 3 1.7 3.6 3.5.1 0 .2-.1.3-.1 2.1-.8 4.4-1.8 7 .1 2.5 1.9 2.2 4 1.7 5.9 2 .8 3.9 3 3.7 5.2-.2 1.9-1.3 3.1-2.6 4.1l.2.2c1.7 1.5 4.4 3.8 3.1 6.5-1.3 2.6-3.9 4.4-6.6 4.7.2.7.2 1.4 0 2.1-.4 1.5-1.7 2.9-3.3 3.6-1.3.6-3 .8-4.7.8h-.1c-.7 2.4-3.2 5.3-5.3 6.2-.3.1-.7.1-1.1.2-.2 0-.6.1-.7.1 0 0-.1.3-.2.5-.1.3-.2.6-.5.9-.6.8-1.9 2.1-3 2.5-.5.2-1 .2-1.5.2-1.4 0-2.7-.6-3.6-1.6-1.2 1.9-2.2 4.1-3 5.9l-.3.8c-1.7 3.7-3.2 7.5-3.9 10.7-.6 2.6-1.5 6.5-1.8 10.1-.1 1.2-.2 2.4-.4 3.6 0 .2 0 .4-.1.6l57.2-59.2.3-.8zm28.7 44.4c.1-.2.2-.3.2-.3s-.1-.1-.3-.2c-.2-.1-.5-.2-.9-.2s-.8 0-1.2.1c-.4.1-.8.3-1.2.5-.2.1-.3.2-.5.3-.2.1-.3.2-.5.3-.1.1-.3.2-.4.3-.1.1-.2.1-.3.2-.1.1-.2.2-.4.2-.1 0-.3.1-.4.1-.2.1-.3.2-.3.2s.1.1.2.3c.2.2.3.4.8.5.2.1.5.1.7.1s.4 0 .7-.1c.5-.1.9-.2 1.3-.4s.7-.4 1-.6c.3-.3.6-.5.8-.7.3-.3.5-.4.7-.6zm.9-39.9c.3-.2.4-.3.4-.3s-.2-.1-.5-.1c-.3-.1-.8-.1-1.3-.2-.2-.1-.5-.1-.7-.2s-.6-.1-.9-.2c-.6-.1-1.3-.3-1.9-.4-.7-.1-1.4-.2-2.1-.2s-1.4.1-1.9.2c-.6.1-1 .3-1.3.4-.3.2-.5.2-.5.2s.2.1.5.2.7.2 1.2.4c.2.1.5.2.8.2l.9.3c.6.2 1.3.3 2 .4.3.1.7.1 1.1.1h1.1c.4 0 .7 0 1-.1.4-.1.7-.2.9-.3.6.1.9-.2 1.2-.4zm9.4 43h-.5c-.3 0-.7.1-1.1.1-.4.1-.9.2-1.5.3-.5.2-1.1.3-1.6.5l-1.5.6c-.2.1-.5.2-.7.3-.2.1-.4.2-.6.2-.2.1-.4.2-.5.2-.2 0-.4.1-.5.2-.3.1-.4.2-.4.2s.1.1.4.2c.2.2.6.4 1.1.4.2.1.6.1.8.1h.9c.6 0 1.2-.2 1.8-.4.6-.2 1.2-.4 1.7-.8.5-.3.9-.6 1.3-1 .6-.5.9-1.1.9-1.1zm1.5-82.1s-.3-.5-.8-1.1c-.6-.7-1.5-1.2-2.5-1.5-.9-.3-1.9-.5-2.8-.5-.8 0-1.4.1-1.4.1s.4.5.9 1c.6.5 1.5 1 2.5 1.4.5.2.9.3 1.4.4.5.1.9.1 1.3.2.7.1 1.4 0 1.4 0zm4.5 48.9l-.6-.3c-.4-.2-.9-.3-1.6-.4-1.3-.2-3.1 0-4.7.3-.8.1-1.5.3-2.2.4-.7.1-1.4.2-1.9.2s-1 0-1.4-.1-.6-.1-.6-.1.1.2.4.5c.1.2.3.3.5.5s.5.4.8.5c.6.3 1.5.5 2.3.6.9.1 1.7-.1 2.6-.2 1.7-.3 3.2-.9 4.4-1.2.6-.2 1.1-.3 1.4-.5l.6-.2zm-.5 38.3c.3-.5.5-1 .5-1s-.5-.2-1.2-.1-1.4.4-2 .9c-.6.4-1 .9-1.3 1.2-.1.1-.2.2-.2.3-.1 0-.2.1-.2.2-.2.1-.3.2-.3.2s.1.1.2.3c.1.2.5.3.9.4s.8 0 1.2-.1c.4-.1.8-.3 1.1-.6.6-.6 1-1.2 1.3-1.7zM348 214s-.6-.6-1.5-1.1-2.2-1.1-3.6-1.5c-.7-.2-1.5-.3-2.1-.3h-1c-.3 0-.6.1-.8.1-1.1.2-1.8.5-1.8.5s.6.4 1.7.8c.3.1.5.2.8.2l.9.3c.6.2 1.2.4 1.8.5.7.2 1.3.3 2 .4.6.1 1.3.2 1.8.1 1 .2 1.8 0 1.8 0zm7 4.6c0-.7 0-1.4-.1-2.1 0-.5-.1-.9-.2-1.4-.2-.8-.3-1.6-.2-2.5-.6-1-1.3-2.1-1.9-3.2-.7-1.1-1.4-2.1-1.9-3.1-1.9-3.8-4-7.7-7.3-10.4-1.4-1.2-3.1-1.7-4.9-2.3-.9-.3-1.9-.6-2.9-1.1-.7-.3-1.3-.7-1.9-1-.9-.5-1.7-.9-2.8-1.2-2-.6-4.2-.8-6.3-.9-1.2-.1-2.5-.2-3.8-.3.3.1.5.2.8.4.5.2 1 .4 1.5.7 1 .5 1.7 1.2 2.4 1.9.6.5 1.1 1 1.7 1.4.8.6 1.6 1 2.5 1.4 1.1.5 2.2 1 3.2 1.8.4.3.8.7 1.2 1.1.4.4.8.8 1.2 1.1 0-.2-.1-.3-.1-.5-.3-1.2-.6-2.5.4-3.6l.5-.5.6.4c1 .8 1.2 1.8 1.3 2.7.1.5.1.9.3 1.3.3.6.5 1 .8 1.5.5.9 1 1.8 1.3 3 .5 1.7 1.7 3.4 3.4 4.7v-.2c0-1.5 0-3.8 2-4l.9-.1-.1.9c-.1 5.6 4.5 10.6 8.4 14.1zm.4 46.2v-.7c-2.2-2.2-4.1-5.6-4.3-8.3-.1-1.4 0-2.7.1-3.8.2-2.3.3-4.1-1.5-6.3-4-4.9-7.9-8.9-12.4-12.9-.6-.6-1.3-1.2-1.9-1.7-1.1-.9-1.7-1.1-2.9-1.3-.4-.1-.8-.2-1.3-.3-1.5-.3-2.1-1-2.7-1.6-.3-.4-.7-.8-1.3-1.1-2-1.2-5.2-.9-8.1-.7-1.2.1-2.4.2-3.5.2h-.7c-1.2-.1-2.2-.4-3.1-.8-.7-.3-1.4-.6-2.2-.6-.7-.1-1.2 0-1.5.3 1.8 2 3.8 3.6 6 5.3 1.1.9 2.2 1.7 3.3 2.6.5.4 1.1 1 1.7 1.6 2.2 2.1 5.4 5.1 7.7 5.6 0-1.9-.5-3-1.8-5-.2-.3-.5-.6-.9-1-1.1-1.3-2.9-3.4-1.4-4.9l.4-.4.5.3c4 2.7 6.6 7.8 7.8 11.6.9 3 4.2 5.4 7.1 7.6.2.2.4.3.7.5.5-1.6-.3-3.5-1.2-5.5-.7-1.7-1.5-3.4-1.5-5v-.9l.8.1c2.9.4 3.6 3.7 4.1 6.3.2.9.4 1.8.6 2.3.5 1.1.9 2.2 1.4 3.2.5 1.1.9 2.2 1.3 3.2.5 1.3 1.8 2.9 3.8 4.7.3.3.6.6.8.7.8.6 1 .9 1.3 2.2.2.9.1 2 0 3 0 .2 0 .5-.1.7v.1c.1.5.1.6.9.8.5.2 1.1 0 1.7-.1.2 0 .4-.1.7-.1.2 0 .3-.1.5-.1h.3c.4.2.6.2.8.2zm3.7 15.7c.4-.6.5-1.4.2-2.2-.1-.1-.3-.3-.6-.5-.6-.4-.9-.7-1-.9-.3-.4-.4-.8-.4-1-.1-.4-.1-.5-.4-.6h-.1c-.2-.1-.3-.1-.5-.1-.3 0-.6.1-1 .2-.6.3-1.2.7-1.4 1.2-.4.9 0 1.9.2 2.3.3.5.6.9 1.1 1.3.4.4 1 .7 1.5.9.2.1.3.1.5.1h.3c.9.1 1.3-.4 1.6-.7zm1.9-21.6c0-.1 0-.3-.1-.5-.3-1.1-.9-1.3-1.3-1.3-.6 0-1.3.3-2 .8-.2.1-.4.3-.6.5-.4.4-.6.9-.7 1.4-.1.3-.1.6-.1.9 0 .5.1 1 .2 1.3.1.4.3.8.6 1.1.3.4.7.6 1 .6.5 0 .9-.4 1.1-.7.2-.3.4-1 .6-1.5.1-.4.2-.8.3-1 .2-.5.5-.8.7-1 .1-.2.3-.3.3-.6zm5.1-55.8c.6-2.5.3-5.3.1-8-.1-.8-.2-1.6-.2-2.4-1.3 0-2.9.7-4.4 2l-.1.1c-.1.7-.5 1.2-.8 1.7s-.6.9-.6 1.4c0 .8.5 1.7.9 2.6.2.3.3.6.5.8.6 1.3 1.4 2.1 2.2 2.3.6.3 1.4.1 2.4-.5zm1 98.1c1.2-1 1.8-2.4 1.8-4 0-1.7-.4-2.1-.6-2.2-.8-.4-2.7 1.1-3.9 1.9-.1.1-.2.1-.3.2 0 1.8.1 3.6.1 5.4 1-.1 2.1-.6 2.9-1.3zm23.8-66.7s-.3-.5-.9-1-1.4-1-2.3-1.3-1.8-.3-2.6-.2c-.7.1-1.3.3-1.3.3s.3.5.9.9c.6.5 1.4.9 2.3 1.2s1.8.4 2.5.3c.8 0 1.4-.2 1.4-.2zm2.3 39.1l.3-.3s-.2 0-.5-.1c-.3 0-.6 0-1-.2-.2-.1-.4-.1-.7-.1-.2-.1-.5-.2-.7-.2s-.5-.1-.7-.2-.5-.1-.8-.2c-.5-.1-1-.2-1.5-.4-.5-.1-1-.3-1.4-.3-.4-.1-.8-.2-1.1-.2h-.5l.2.4c.2.2.4.6.7.9.3.3.8.7 1.3 1 .2.1.5.3.8.4l.9.3c.3.1.7.1 1 .2.3 0 .6.1.9 0 .3 0 .6-.1.9-.1.3-.1.6-.2.8-.3.5 0 .9-.4 1.1-.6zm4.6-76.1c.1-.2.2-.3.2-.3s-.1 0-.4-.1c-.2 0-.5 0-.9-.1-.3 0-.7-.1-1.1-.1h-1.2c-.8 0-1.7.2-2.4.4s-1.1.6-1.1.6.4.4 1.1.7c.6.3 1.6.6 2.5.5.5 0 1-.1 1.4-.3.5-.2.9-.4 1.2-.6.3-.2.5-.5.7-.7zm.9 36.2s-.2-.6-.5-1c-.2-.2-.4-.5-.6-.8s-.5-.5-.8-.7-.8-.4-1.1-.6c-.4-.1-.7-.1-1-.1-.6 0-1.1.2-1.1.2s.2.5.6 1c.1.1.2.2.3.4.2.1.2.3.3.4.2.2.5.4.8.6.3.2.6.4 1 .5.3.1.7.2 1 .2.6.1 1.1-.1 1.1-.1zm4-44.6c.7-1 1.5-2 2-3-.8-.1-1.7-.2-2.5-.2-.9 0-1.9.1-2.8.3s-1.7.7-2.6 1.2-1.7 1-2.8 1.3c-1.6.5-3.1.7-4.5 1-2.1.4-4 .7-6.1 1.7-2.4 1.1-4.3 2.9-5.9 5-.9 1.3-1.8 2.6-2.7 4.1-.3.5-.6 1.1-1 1.6-1.3 2.3-2.7 4.6-4.4 6.6-2.2 2.7-3.8 5.8-5.5 9-1 2-2.1 4.1-3.4 6.1v.4c1.6-1.9 3.2-4 4.2-6.2.1-.4.2-.7.3-1 .1-.2.1-.3.2-.5.8-2.5 1.8-3.8 3.1-4.7l.1-.3c.2.1.4 0 .8-.2 2.1-.9 6.5-4.5 7.8-6.1.7-.8 1.1-2 1.6-3.2.8-2 1.6-4 3.4-4.7l1.3-.6-.2 1.3c0 .2-.2.6-.3 1.1-.6 1.9-.8 3.1-.7 3.6.6-.4 1.6-1.6 2.1-2.1.6-.7 1-1.1 1.3-1.3l.9-.6c1.1-.8 1.7-1.2 2.3-2.6.7-1.6 1.2-2.6 2.3-4.1l1-1.4.3 1.7c.2.8-.1 1.7-.3 2.3-.1.3-.2.5-.2.7.4-.4.8-.7 1.2-1.1.8-.8 1.6-1.5 2.5-2.3 1.2-.9 2.6-1.2 3.9-1.4 1.2-.2 2.2-.4 3-1.1l.3-.3zm4.6 42s-.2-.5-.6-.9-.9-.9-1.6-1.1c-.7-.3-1.5-.4-2.1-.2-.6.1-1 .4-1 .4s.2.4.7.9c.2.2.5.4.7.6.2.2.5.3.8.4.6.3 1.3.4 2 .3.6-.1 1.1-.4 1.1-.4zm6.9-7.9c-.5-.3-1-.5-1.6-.7-.8-.4-1.6-.7-2.3-1.2-2.4-1.3-4.7-2.1-6.9-2.2-2.1-.1-4.4.1-6.6.7-.2 0-.3.1-.4.1-2.3.6-4.4 1.5-6.4 2.6-.6.3-1.1.7-1.6 1.1-.9.7-1.8 1.3-2.9 1.7-.6.2-1.2.3-1.7.4-.3 0-.6.1-.8.1h-3.5c-3.9.3-6.3 2.6-9.2 5.4-.3.4-.7.7-1.1 1.1-2.1 2-3.1 3.9-4 6.2-.1 1.5-.3 3-.4 4.6l.6-.6-.2-.2c1.4-1.1 2.7-2.4 4-3.6 1.4-1.3 2.9-2.7 4.4-4 1.1-.9 2.2-2.1 3.2-3.2 1.4-1.6 2.9-3.3 4.6-4.2l.9-.5.1-.1.1 1.1c0 .6.1 1.3.1 1.9v.8c2.4-.2 5.8-1.9 7.5-3.5.7-.7 1.3-1.5 2-2.2 1.2-1.5 2.4-3 4.4-3.8l.6-.3.3.6c.8 1.4-.4 3-1.7 4.5-.7.9-1.4 1.8-1.8 2.6 1.8-.3 4.4-1.1 5.6-1.8.8-.5 1.4-1.1 2.1-1.7.9-.8 1.7-1.6 3-2.3l.9-.4.2.9c.2 1.2-.2 2-.6 2.7-.2.3-.3.6-.4.9 2.3 0 3.9-.9 5.7-1.9 1.1-.5 2.3-1.2 3.8-1.6zm18 158.4v-70.7H299.6v88.6H320v50.6h5.5v-50.6h22.9v43.4h5.4v-43.4h19.9v36.7h5.5v-36.7h21.4v24h5.4v-24h23.5c1.8-5.7 2.7-11.7 2.7-17.9zm4.5-73.7v73.6c0 8.1-1.4 15.8-4.1 23.1-7.7 20.7-25.7 37.8-51.4 48-8.3 3.3-17.5 5.4-26.4 7.5l-2.1.5h-.2c-24.5 3.9-42.2 12.3-52.6 24.9l-.1.1c-.4.5-1 .7-1.6.7s-1.2-.3-1.7-.7l-.1-.1c-10.4-12.6-28.1-21-52.6-24.9h-.1l-2.1-.5c-9-2.1-18.2-4.3-26.4-7.5-34.8-13.8-55.5-40.4-55.5-71.1V168.8c0-1.2 1-2.2 2.2-2.2h272.7c1.2 0 2.2 1 2.2 2.2l-.1 139.1zM398 265.1s.2.1.4.3c.2.2.6.4 1 .6.5.2 1.1.4 1.7.5s1.3.1 2 .1c.7-.1 1.3-.2 1.9-.4.6-.2 1.1-.6 1.5-.9s.7-.7.9-.9c.2-.2.3-.4.3-.4h-.5c-.3 0-.7.1-1.2.1-.2 0-.5 0-.7.1s-.6 0-.8.1c-.5.1-1.1.1-1.7.1s-1.1.1-1.7.2-1.1.1-1.5.2-.9.1-1.2.2c-.2 0-.4.1-.4.1zm16.8-15.8c-.5-.1-1-.3-1.5-.4-1-.3-2-.6-3.2-.5-1.2 0-2.2.1-3.1.2-.3.1-.6.1-.9.2-.2 0-.4.1-.6.1-.6.2-1.2.3-1.8.6-1.2.4-2.4.3-3.6.3-1-.1-2-.1-2.9.2-1.2.4-2.1 1.4-2.9 2.6-.3.4-.6.8-1 1.2-1.6 1.8-3.3 2.6-4.9 3.4-1.4.7-2.8 1.3-4 2.6-1.4 1.4-3.1 2.1-4.8 2.9-1.7.8-3.4 1.5-4.4 2.9-.9 1.1-1.6 2.3-2.2 3.4-1.2 1.9-2.4 3.9-4.3 5.6-.5.4-.9.8-1.3 1.1-1.2 1-2.4 2-3.5 3.2 0 2.8 0 5.6.1 8.4.4.1.5 0 .8-.2s.6-.4 1.1-.5c.1 0 .2 0 .4-.1h.6c1.1.1 1.9.7 2.7 1.2.7.5 1.3.8 1.8.9h.8c.7-.2 1.1-.5 1.3-1 .3-.8.1-2-.6-3-.9-1.3-2.6-1.7-4.3-2.1-.3-.1-.7-.1-1-.2l-1.7-.4 1.4-.9-.1-.7c1.5-.1 3.5-2.1 5-3.6l.9-.9c2.1-1.9 4.4-3.6 6.6-5.1 2.3-1.5 3.6-2.5 4.9-4.8 1.2-2.2 2.5-4 4.7-5.6l1-.7.2 1.2c.3 2.1-1 3.8-2.2 5.5-.7.9-1.3 1.8-1.7 2.6 3.2-1.2 7.2-4.4 9.4-6.4 1.1-1 1.4-2.2 1.7-3.6.2-.9.5-1.8.9-2.8 1-2 2.5-3.4 4.7-4.6l1.2-.6-.1 1.3c-.1.8-.5 1.7-1 2.7-.6 1.2-1.3 2.6-1 3.3.2.2 1 .1 3.8-1.9l.4-.3c2.7-1.9 5.1-3.9 7.7-6.1l.5-.6zm-103.2 27c1.7.7 3.5 1.2 5.4 1.7 2.1.6 4.2 1.2 6.2 2.1 1.2.5 2.3 1.2 3.4 1.7 3 1.6 6.1 3.3 9.5 3.3 2.1 0 3.5 1 4.8 2 1.1.8 2.1 1.5 3.5 1.8.4.1 1 .2 1.6.4 1.6.4 4 1 5 .3.1-.1.4-.3.5-.9-2.8-3-5.5-5.9-8.4-8.5-2.1-2-4.8-3.3-8.2-4.2-3.1-.8-8.7-1.5-11.4-.6-.6.8-2.4.7-5.5.6-2.1.1-4.7 0-6.4.3zm54-42.1c.6-1 1.4-2 2.5-3 .4-.4.8-.7 1.1-1.1 2.9-2.8 5.6-5.5 10.1-5.8.7-.1 1.3 0 2 0h1.5c.3 0 .5 0 .7-.1.5-.1.9-.2 1.3-.3.9-.3 1.7-.9 2.5-1.5l1.8-1.2c4.3-2.5 9.6-3.8 14.3-3.6 2.4.1 4.9.9 7.5 2.4.7.4 1.4.7 2.2 1.1 1.2.5 2.3 1.1 3.4 1.7.6.3 1.1.8 1.6 1.2l.4.5-.4.5c-.4.5-.7 1-1.1 1.5-1.7 2.3-3.7 5-6.5 5.9-.8.3-1.4.4-2 .4-.9.2-1.5.2-2.5 1.1-.4.4-.8.9-1.3 1.3-.7.8-1.5 1.7-2.5 2.3-2.9 1.7-5.5 1.4-7.9 1-1.1-.1-2.2-.3-3.4-.3-1.4 0-1.7.3-2.4.9-.3.3-.7.6-1.3 1-2 1.3-4.3 1.2-6 1-.9-.1-1.7-.2-2.6-.3-3.2-.5-6.5-.9-9.5.4-1.3.6-2.4 1.6-3.5 2.6-.4.4-.7.8-1 1.2-.3 4.5-.5 9-.6 13.6-.2 5.9-.2 11.9-.2 17.8.8-.8 1.7-1.5 2.5-2.2.4-.4.9-.7 1.3-1.1 1.8-1.5 2.9-3.3 4-5.2.7-1.2 1.4-2.4 2.4-3.6 1.3-1.7 3.2-2.5 5-3.3 1.5-.7 3.2-1.4 4.4-2.6 1.5-1.4 3-2.2 4.4-2.9 1.6-.8 3-1.5 4.4-3.1.3-.3.6-.8.9-1.1.9-1.2 2-2.6 3.7-3.1 1.1-.3 2.3-.3 3.4-.2s2.1.1 3-.2c.7-.2 1.4-.4 2-.6.2 0 .4-.1.6-.1.3-.1.7-.1 1-.2.9-.1 2-.2 3.2-.2 1.4 0 2.5.3 3.6.6.8.2 1.6.4 2.4.5l.6.1V249.6c0 4-1.2 7.5-3.6 10.4-1.3 1.6-1.9 2.6-2.4 4.6-.5 2.3-.9 3.3-2.6 5.3l-.2.2c-2.7 3.2-4.5 5.3-9 5.7-1.8.2-3.6 1.4-5.5 2.6-1.3.9-2.6 1.7-4 2.3-3.2 1.3-7.8 1.7-12.3 1-1.6-.2-4.4-.7-6.6-.5 1.2.4 2.4 1 3.2 2.2.9 1.3 1.3 3 .8 4.4-.2.7-.9 1.6-2.4 2-.3.1-.6.1-.8.1h-.4c-1-.1-1.9-.7-2.6-1.1-.7-.5-1.3-.8-1.9-.9H365.7c-.2 0-.3.1-.5.3-.4.3-.9.5-1.6.5 0 2.2.1 4.4.1 6.6 1.7-1.2 3.5-2.4 4.9-1.7 1 .5 1.4 1.6 1.4 3.5s-.8 3.7-2.3 5.1c-1.1 1-2.5 1.6-4 1.8 0 1.3 0 2.6.1 3.8h68V171.1H299.6v136.8H355c0-3.1 0-6.3.1-9.4-1.9-.1-3.9-.4-6.1-1-2.7-.7-4.1.1-6.4 1.2l-.9.5c-1.4.7-2.7.9-4 .9-1.6 0-3.1-.4-4.7-.8-.7-.2-1.5-.3-2.2-.5-3.5-.7-5.5-2.8-7.7-5l-.9-.9c-.9-.9-2-1.5-3.2-2.2-2-1.2-4-2.4-5.2-4.9-.4-1-.8-1.9-1.2-2.8-.9-2.2-1.6-4.1-3.5-6.2l-.1-.1-.4-.5.5-.5c1.3-1.2 4.4-1.3 8.8-1.2 1.5.1 3.6.1 4.3-.1v-.2l.4-.2c3.2-1.3 9.4-.4 12.6.4 3.6.9 6.5 2.5 8.9 4.6 3.7 3.5 7.4 7.4 11 11.4 0-2.9.1-5.7.1-8.6-1-.6-1.8-1.4-2.3-2.3-.7-1.2-.8-2.5-.3-3.6.5-1 1.6-1.9 2.8-2.2 0-2.5.1-5 .1-7.5-.2-.1-.3-.1-.5-.1h-.3c-.2 0-.3 0-.4.1-.2 0-.3.1-.5.1-.7.2-1.6.4-2.5.1-1.3-.4-1.7-1-1.9-1.7h-.1v-.5c-.1-.3-.2-.5-.4-.7-.7-.7-1.6-.6-3-.5-.4.1-.9.1-1.3.1-4.6.2-8-.2-11.6-2.7-1.4-1-2.8-1.3-4.4-1.6-.7-.2-1.4-.3-2.2-.5-1.9-.6-3-1.6-4.1-2.7-.4-.4-.7-.7-1.2-1.1-3.1-2.8-5.4-5.1-7.5-9-.7-1.4-1.2-2.8-1.7-4.3-.6-1.7-1.1-3.3-2-4.7-.5-.7-1-1.3-1.4-1.9-1.3-1.7-2.6-3.3-2.6-6.1 0-.4 0-.9.1-1.4.1-.7.2-1.3.4-1.9.4-1.4 1.2-2.4 3.5-2.1 1 .1 1.7.4 2.5.7s1.7.7 2.6.7h.6c1 0 2.1-.1 3.3-.2 3.1-.3 6.6-.6 9.1.9.8.5 1.3 1 1.6 1.4.5.6.8.9 1.9 1.2.5.1.9.2 1.2.2 1.3.2 2.2.4 3.6 1.6.7.6 1.3 1.1 2 1.7 4.5 4 8.4 8.1 12.5 13 2.2 2.7 2.1 5 1.9 7.4-.1 1.1-.2 2.3-.1 3.6.1 1.5.9 3.4 2 5 0-.3 0-.7.1-1 .1-.6.3-1.2.7-1.7v-1c.1-10.3 0-18.9-.2-26.9 0-1.9-.1-3.9-.1-5.9-.6 0-1.2-.1-1.8-.1-1.9 0-4 0-5.9-1.3-1.2-.7-2.4-1.4-3.6-2-2.2-1.2-4.6-2.4-6.6-4.4-.5-.5-1.1-1.1-1.8-1.7-2.3-2.1-5.1-4.7-6.3-6.9-.3-.6-.4-1.2-.5-1.7s-.2-.9-.3-1.2c-.1-.3-.4-.6-.8-.9-.3-.3-.6-.6-.8-.9-.8-1.1-1.5-2.4-2.1-3.7l-.6-1.2c-.2-.5-.5-1-.8-1.6-.8-1.8-1.7-3.6-2.8-5.1-.3-.4-.7-.8-1.2-1.2-.8-.8-1.8-1.6-2-2.9l-.1-1.2 1.1.4c2 .7 4.2.8 6.5 1 2.2.2 4.5.3 6.6.9 1.2.4 2.1.9 3.1 1.4.6.3 1.1.7 1.8.9.9.4 1.8.7 2.8 1 1.8.6 3.7 1.2 5.3 2.6 3.5 2.9 5.7 7 7.7 10.9.4.9 1.1 1.9 1.8 3 .5.7.9 1.4 1.4 2.1l.3-.5.7.7c.7.7 1.3 1.3 1.8 1.9-.1-2.5-.8-6.4-1.1-8.2-.3-1.8-.6-3.1-.6-3.7 0-2.1 1.3-4.7 3.5-6.8l.6-.6c2.1-1.8 4.4-2.6 6.2-2.3l.6.1v.6c.1 1 .1 2 .3 3 .3 3 .6 6.2-.3 9.1-.3 1-.7 2-1.2 2.9-.7 1-1.5 1.9-2.3 2.7-1 1-1.9 2.1-2.5 3.3-.5 1-.9 2.1-1.2 3.3.3 1.1.4 2.3.4 4.1v.8c.8-1.3 1.5-2.7 2.2-4.1 1.7-3.2 3.4-6.4 5.7-9.3 1.6-1.9 2.9-4.2 4.2-6.4.3-.6.6-1.1 1-1.7.9-1.4 1.7-2.9 2.7-4.2 1.7-2.3 3.7-4.2 6.5-5.5 2.3-1 4.4-1.4 6.5-1.8 1.4-.2 2.9-.5 4.3-1 .9-.2 1.7-.7 2.5-1.2.9-.5 1.9-1.1 3-1.3 1.8-.5 4.1-.4 5.9-.2.4.1.8.1 1.1.2l.9.2-.3.8c-.6 1.4-1.7 2.7-2.6 4-.2.2-.3.4-.5.6-1 1.4-2.1 2.9-2.5 4.4-.2.8-.2 1.5-.2 2.2 0 1.1 0 2.3-.9 3.7-1.1 1.6-2.8 3.1-4 4-.9.7-1.6 1.4-2.4 2.2-1.7 1.7-3.4 3.6-6.5 3.8-1.7.2-3.5.2-5.2.2-2.4.1-4.6.1-6.8.4-2.3.3-3.9.5-5 1.1-1.4.7-2.3 1.8-3.1 4.2-.1.2-.1.3-.2.5-.2.4-.3.8-.5 1.2-1 2.4-2.7 4.6-4.4 6.5-.2.3-.4.6-.7.8-.1.1-.2.2-.3.4 0 .7.1 1.5.1 2.2 1-1.2 2.1-2.3 3.2-3.3.5-.5 1-.9 1.4-1.3l1.6-1.6-.3 2.3c-.4 4.3-.9 7.6-1.2 10.8zm23-27.7s-.2-.1-.3-.2c-.2-.1-.5-.3-.9-.4-.3-.2-.7-.3-1.1-.5s-.8-.3-1.3-.4c-.9-.3-2-.4-2.8-.3-.4 0-.7.1-1 .2-.2.1-.4.1-.4.1s.4.4 1.1.9c.6.4 1.5.9 2.5 1.2s2.1.3 2.9.1c.4-.1.7-.3.9-.4.3-.2.4-.3.4-.3"/><path id="crescent" class="g" d="M310.3 0c29.2 5.9 51.3 31.8 51.3 62.8 0 35.4-28.7 64.1-64.1 64.1-32.8 0-59.8-24.6-63.6-56.3 8.7 18.4 27.5 31.2 49.2 31.2 30.1 0 54.5-24.4 54.5-54.5 0-20.3-11-37.9-27.3-47.3"/><path id="jute" class="g" d="M417.2 373.3c1.1 4.1 3.4 7.1 2.5 11.7-.6 2.9-1.1 7.5-3.6 9.7 1.7-4 1.9-8.3-.2-12.3-1.6-3.2-5.3-6.5-5.9-9.7-.8-4.4 1.5-8.1 2.5-12 .8-3.2-1.1-8.2-4.6-4.9-.8.8-1.4 1.7-1.8 2.9v41h-5.5v-34c-.9-.6-1.9-.6-2.7.8-1.3 2-.2 8-.2 10.4 0 5.9-.8 12.7-5.9 16.3.3-.5.6-1 .8-1.6 1.2-3.8 2.4-6.8 2.2-11-.2-4-1.4-7.6-2.1-11.4-.3-1.8-.4-3.8-.1-5.7.3-1.8 1-3.5 2.4-4.8 1.7-1.7 3.8-2.3 5.7-1.8v-.2h1.2c-3.8-6.8-3.4-13.8-3.6-21.8-.2-5.7 1.5-12 1.8-17.9.1-.5.8-4 .7-4.2 2.7 3.2 4.5 6.9 5.6 10.9 1.2 4.4.8 7.5.3 12-.3 2.7.4 5 .5 7.6.1.9 0 1.8-.1 2.7 4.6-3.5 10.4-2.6 12.8 4.2 1 3 .3 9.2-.9 11.9-1.6 3.4-2.7 7.5-1.8 11.2m-27.6-23.2c1.8 3.6 1.7 8.4.7 12.2 0 .2-.1.4-.2.6-1 3.5-3.1 6.6-2.1 10.3 2 7.8 3 15.7-4.4 20.9.3-.7.7-1.3.9-2 1.3-3.5 2.3-8 1.3-11.9-1-4-3.1-6.8-2.7-11.3.4-4.2 3.7-8.2 1-12.4-1.2-1.9-2.4-2.5-4.1-.9-.5.5-.8.9-1 1.4v42.4h-5.5V358c-1-2-2.1-3.9-3.9-5.5-1.5-1.3-4.3-3-6-1.1-1.2 1.3-.7 5.2-.3 6.8-2.5-2-4.7-5.2-5-8.5-.2-1.9.4-3.8 2-5.5 3.9-4 7.4-2.6 11.1-.1.2-2.5.5-5 .3-7.5-.2-3.5-1.9-6.4-2.3-9.8-.7-5.5 2.1-12.4 8-13.7-3.3 4-2.6 9.3-1.3 13.7 1.1 3.8 1.8 7.2 1.5 11.2-.1 2.2-.7 5.2 0 7.6 4.5-1.7 9.4-.5 12 4.5m-35.8 8.3c14.3 1.3 2.9 25.3 10.2 36.3-11.4-5.7-6.3-17.1-8.9-27.1-.4-.5-.9-.8-1.3-1v33h-5.5V361c-.8-2.1-2.1-4.5-3.6-4.7-4.6-.9-1.3 9.2-.6 11.1 1.6 4.3 1.4 9.2 1.2 13.8-.2 4.3-2 8.3-.8 12.6-.2-.2-.5-.7-.8-1-8.6-7-3.1-20.2-5.4-29.4-.5-2.1-1.1-4-1.3-5.8-.4-2.8 0-5.4 2.5-8.1 2.3-2.5 4.7-3.6 7.6-3-6-10.2.2-22.9 4.2-32.1 5.9 7.4 1.5 14.9.7 22.4-.3 4.2 1.6 7.7 2 11.7 0 .6.1 1.1.1 1.7.2 2.6.2 5.5-.3 7.9v.3m-19.5-.4c.4 3.4-.1 7.6-.1 11 0 3.9-1.4 7.3-.4 11.2-4.5-2.9-3.6-9.4-4.1-14-.2-2.5.3-5.5-1.9-7.3-.9-.7-1.7-.8-2.3-.5v41H320v-40.3c-2.5-3.3-7.8-4-8.8 1.3-.8 4.2.7 8.6 1.5 12.7 1.5 7.1 2.5 14.6-3.1 20.2 2.4-2.6-.7-10.9-1.6-13.5-1.7-4.8-4-9.4-5.4-14.3-.5-1.8-.9-3.7-.9-5.4 0-2.1.5-4.2 2-6 4.2-5.3 10.2-2 15.6-1.1-7.2-12.9 4.9-25.8.7-38.6 11.1 9.7 9.3 26 5.2 39.2.9-.5 1.7-.7 2.7-1 3.1-.8 5.6 1.3 6.2 4.6.1.2.2.5.2.8"/><path id="star" class="g" d="M307.9 45.9l-20 2-4.2 19.7-8.1-18.4-20 2 15-13.4-8.1-18.4 17.4 10.1 15-13.4-4.2 19.7 17.2 10.1"/><path id="wheat" class="g" d="M204.1 416.1l14.1-36.3c-.6 0-1.2-.1-1.8-.1l-18 34.6c.4.4.9.7 1.3 1 1 .7 1.7.7 3.1.7.3 0 .7 0 1.1.1h.2zm6.7 4.1l11.3-40.4c-.5 0-1 0-1.4.1L205.8 418c.3.3.7.6 1 .9l.5.4c.9.8 1.2.8 2.1.8.3 0 .8 0 1.4.1zm6.9 2.5l7.8-43h-1.2l-11.5 41.2c.3.2.6.4.8.7.3.3.6.6 1 .8.7.4 1.1.4 1.8.4.3-.1.7-.1 1.3-.1zm6.8 2.1l4-45.2h-1l-7.9 43.6c.2.1.5.3.7.4.4.2.7.5 1.1.6 1 .5 1.9.5 3.1.6zm7 .9v-46.1h-.9l-.1.7v.1l-4 44.6c.3.1.6.1.8.2.5.1 1 .2 1.6.3.6.1 1.3.1 2.1.1.2.1.3.1.5.1zm1.8-50.3c.9-1.1.5-2.4-.4-3.3h-6.6c-1.6-.1-3.2-.1-4.8-.1-.4 0-.8 0-1.3-.1h-1.7c-2 0-4.8.1-6 1.2-.4.4-.6.8-.6 1.3 0 .8.5 1.6 1.3 2.3.6.4 1.2.8 1.8 1 .7.3 1.5.4 2.3.5.5.1 1.1.1 1.6.1s1 0 1.5-.1h2.1c.7 0 1.4 0 2.2-.1h4.7c.4-.3.9-.6 1.4-.9.2-.1.5-.3.7-.4s.3-.2.4-.3c.6-.3 1-.7 1.4-1.1zm5.2 49.7l-4-45.5h-.9v46.2h.3c.7 0 1.5 0 2.1-.1s1.1-.2 1.6-.4c.2 0 .6-.1.9-.2zm6.9-1.7l-7.9-43.7h-1l4 45.2c1.1-.1 2.1-.1 3-.5.4-.1.8-.3 1.1-.6.3-.2.5-.3.8-.4zm6.9-2.3l-11.6-41.4h-1.2l7.8 43.2h1.2c.7.1 1.2.1 1.8-.3.4-.2.7-.5 1-.8.4-.3.7-.5 1-.7zm7-3l-15-38.5h-1.4l11.4 40.7c.5-.1.9-.1 1.3-.1.9 0 1.2 0 2.1-.8l.5-.4c.4-.2.8-.5 1.1-.9zm7.3-3.5l-18.2-35h-1.8l14.3 36.7H262.1c1.4 0 2.1-.1 3.2-.7.4-.2.9-.6 1.3-1zm-18.3-85.2c.4-.3.8-.5 1.2-.4-.2 1.5-1.3 2.2-1.7 3.5.6.1.9-.6 1.5-.4-.1 1.5-1.5 2.2-1.7 3.7.3-.1.6 0 .9 0-.3 1.6-1.3 2.5-1.7 3.9.3 0 .7.3 1 .3-.2 1.2-1.6 2.5-2.8 3.3l-6.5 27.1h.6l9.4-25.2c-.3-.3-.5-.8-.6-1.3-.3-1.3-.1-2.3 1.2-1.6-.2-.7-.4-1.4-.4-2.2 0-.6.1-1.2.3-1.7.2.1.6.1.7.3.2-1.3.1-2.1.7-3.5.2.1.5.1.6.2.3-1.1 0-2.4.6-3.5.2.2.5.3.8.5 0-1 .1-1.8.6-2.9.1.3.4.5.4 1 .6-.3 1.7-1.1 1.8-2-.1.7 1 3.3.2 3.8.4-.2.9-.4 1.3-.2-.4 1.4-1.6 1.9-2.1 3.1.6.2 1-.4 1.5-.1-.3 1.5-1.7 2-2.1 3.4.4-.1.6.1.9.2-.5 1.6-1.6 2.3-2.2 3.6.3.1.6.4.9.5-.4 1.2-1.9 2.2-3.2 2.9l-9.2 24.8h.8l11.6-22.5c-.2-.4-.4-.8-.4-1.4-.2-1.3.2-2.3 1.4-1.4-.1-.7-.2-1.5-.1-2.3.1-.6.3-1.2.5-1.7.2.2.6.2.7.4.3-1.3.4-2.1 1.1-3.4.2.1.5.2.6.3.4-1 .2-2.3.9-3.3.2.3.5.4.8.6.2-1 .4-1.8.9-2.8.1.3.3.6.2 1.1.6-.2 1.8-.9 2-1.7-.1.7.6 3.4-.3 3.8.4-.1.9-.2 1.3 0-.6 1.4-1.8 1.7-2.5 2.9.5.2 1-.3 1.5.1-.5 1.4-1.9 1.7-2.5 3 .3-.1.6.2.9.3-.7 1.5-1.9 2-2.6 3.3.3.2.5.5.8.6-.5 1.2-2.1 1.9-3.4 2.4l-11.3 21.8h1.1l13-19c-.2-.4-.3-.9-.3-1.4 0-1.3.5-2.2 1.5-1.2-.1-.7 0-1.6.2-2.3 0-.1 0-.1.1-.2.2-.5.4-1 .7-1.3.2.2.5.3.7.5.5-1.2.6-2.1 1.5-3.2.2.2.5.3.6.4.5-1 .5-2.3 1.3-3.2.2.3.5.4.7.7.3-1 .6-1.7 1.2-2.6 0 .3.2.6.1 1.1.6-.1 1.9-.6 2.2-1.4-.2.6.2 3.6-.7 3.7.5-.1.9-.1 1.3.2-.7 1.2-2 1.4-2.8 2.4.5.3 1-.1 1.5.3-.6 1.4-2.1 1.4-2.8 2.7.3 0 .6.3.8.4-.9 1.4-2.1 1.7-3 2.8.3.2.5.6.8.8-.6 1-2.3 1.6-3.7 1.8l-12.5 18.3c.5 0 .9.1 1.3.1h.1l13.6-15.2c-.1-.4-.2-.9-.1-1.5.2-1.3.7-2.1 1.7-1 0-.8.2-1.7.6-2.5.2-.5.5-.9.8-1.2.1.2.5.4.6.6.6-1.1.9-1.9 1.9-3 .1.2.4.3.5.5.6-.9.8-2.2 1.7-3 .1.3.4.5.6.8.4-.9.8-1.6 1.5-2.4 0 .3.2.6 0 1.1.7 0 2-.3 2.3-1.1-.3.6-.2 3.6-1.2 3.6.5 0 1 0 1.3.4-.9 1.1-2.1 1.1-3.1 2 .5.4 1.1 0 1.5.6-.8 1.3-2.3 1.1-3.1 2.2.3.1.5.4.8.6-1 1.2-2.3 1.4-3.3 2.4.3.2.4.6.7.8-.7 1-2.5 1.3-3.9 1.3l-12.9 14.5c1.8.5 3.2 1.6 2.9 4.2-.2 2-1.5 3.3-3.9 4l17.5 33.6 1.1 2.3c-.5.6-1.1 1.1-1.7 1.6-.4.4-.8.6-1.2.9-1.6 1-2.9 1-4.3 1h-.3-.1c-.4.7-1 1.2-1.6 1.8-.2.1-.4.3-.6.4l-.4.4c-1.5 1.2-2.3 1.3-3.6 1.4h-.7c-.2 0-.4.1-.6.1-.5.1-.8.3-1.4.8-.3.3-.8.7-1.3 1-1.3.8-2.3.7-3.2.7-.2 0-.4 0-.6-.1h-.6c-.4.1-.8.3-1.3.6-.4.3-.9.5-1.5.8-1.2.5-2.4.6-3.6.7h-.2l-.6.1c-.4 0-.8.1-1.2.1-.2 0-.4.1-.6.2-.6.1-1.1.2-1.8.4-.8.1-1.6.1-2.4.1h-.8v.1c-.2-.1-.4-.1-.7-.1-.2 0-.5 0-.7.1v-.1h-.8c-.8 0-1.6-.1-2.4-.2-.7-.1-1.2-.2-1.8-.4-.2-.1-.3-.1-.5-.2-.4-.1-.8-.1-1.3-.2H223.9c-1.3-.1-2.4-.2-3.7-.7-.6-.2-1-.5-1.4-.7-.6-.3-.9-.6-1.4-.6H216.1c-.9.1-1.9.2-3.2-.7-.5-.3-.9-.7-1.3-1-.6-.6-.9-.8-1.4-.9-.2 0-.4 0-.5-.1-.3 0-.5 0-.7-.1-1.3 0-2.1-.1-3.6-1.4l-.4-.4c-.2-.1-.3-.3-.5-.4-.6-.5-1.2-1.1-1.6-1.8h-.3c-1.5-.1-2.7-.1-4.3-1.1-.4-.2-.8-.6-1.2-.9-.6-.5-1.1-1.1-1.7-1.7l1.2-2.3 17.3-33.5c-.7-.3-1.3-.7-2-1.2-1.2-.9-1.8-2.2-1.9-3.4 0-1 .4-1.8 1.2-2.5.5-.4 1-.7 1.7-.9l-12.5-13.9c-.4.1-.8.2-1.3.1-1.1-.2-1.9-.8-.8-1.9-1.2-.1-2.6-.6-3.4-1.5.2-.1.4-.5.5-.7-1-.7-1.7-1-2.6-2.1.1-.1.3-.4.4-.6-.8-.7-2-.9-2.6-1.9.3-.1.4-.4.7-.6-.8-.5-1.5-.9-2.1-1.7.3 0 .6-.2 1 0 0-.7-.3-2.3-.9-2.6.5.3 3.2.2 3.2 1.3 0-.5 0-1.1.3-1.4 1 1 1 2.4 1.8 3.4.3-.5 0-1.2.5-1.6 1.1.9 1 2.5 2 3.4 0-.4.3-.6.5-.9 1.1 1.1 1.3 2.5 2.1 3.6.2-.3.6-.5.8-.8.9.8 1.1 2.8 1.1 4.4l13.8 15.5c.5-.1 1-.1 1.5-.1L204.8 353c-.4.1-.9.1-1.3-.1-1.1-.4-1.8-1.1-.6-2-.6-.1-1.3-.4-1.9-.8-.5-.3-.9-.7-1.2-1.2.2-.1.4-.5.6-.6-.9-.8-1.6-1.2-2.4-2.4.2-.1.3-.5.5-.5-.7-.8-1.8-1.2-2.4-2.2.3-.1.5-.4.8-.6-.8-.6-1.3-1-1.9-2 .3 0 .6-.1 1 .2.1-.8 0-2.3-.6-2.8.5.4 3 .6 3 1.7.1-.5.2-1 .5-1.3.9 1.1.7 2.5 1.4 3.7.4-.5.1-1.2.7-1.6 1 1 .7 2.7 1.5 3.7.1-.4.4-.5.6-.8 1 1.3 1 2.7 1.7 3.9.2-.2.6-.4.8-.6.8.9.8 2.9.6 4.5l13.4 19.5h1l-11-21.4c-.4 0-.8-.1-1.3-.3-1.1-.5-1.6-1.3-.4-2-.6-.2-1.3-.6-1.8-1.1-.4-.4-.8-.8-1-1.4.2-.1.5-.4.7-.5-.8-1-1.4-1.4-2.1-2.8.2-.1.4-.3.6-.4-.6-.9-1.7-1.4-2.1-2.6.3-.1.6-.3.8-.4-.7-.7-1.2-1.2-1.7-2.3.3.1.6 0 .9.3.2-.7.2-2.3-.3-2.8.4.5 3 1.1 2.8 2.1.1-.5.3-1 .7-1.3.7 1.2.4 2.6.9 3.8.5-.4.3-1.1.9-1.4.9 1.2.4 2.8 1.1 3.9.1-.3.5-.4.7-.7.8 1.4.6 2.8 1.2 4.1.2-.2.7-.3.9-.6.6 1 .5 3 .1 4.6l11.9 23h.8l-9-24.4c-.4 0-.8-.2-1.3-.5-1-.6-1.4-1.6-.2-2.1-.6-.3-1.2-.8-1.7-1.3-.4-.4-.7-.9-.9-1.5.2-.1.5-.4.7-.4-.7-1.1-1.3-1.6-1.7-3.1.2-.1.4-.3.6-.3-.5-1-1.5-1.7-1.8-2.9.3 0 .6-.2.9-.3-.6-.8-1.1-1.4-1.4-2.5.3.1.6.1.9.4.2-.7.5-2.2 0-2.8.4.5 2.8 1.5 2.5 2.5.2-.5.4-.9.8-1.2.6 1.3.1 2.7.5 4 .5-.3.4-1.1 1-1.3.7 1.3 0 2.8.6 4 .2-.3.5-.4.8-.6.6 1.5.3 2.9.7 4.3.3-.2.7-.2.9-.4.5 1.1.1 3-.5 4.5l9.6 25.9H226.5l-6.4-26.7c-.4-.1-.8-.3-1.2-.7-.9-.8-1.3-1.7.1-2.1-.5-.4-1.1-.9-1.5-1.6-.3-.5-.6-1-.7-1.6.2 0 .6-.3.8-.3-.6-1.2-1.1-1.8-1.4-3.2.2-.1.5-.3.7-.3-.4-1.1-1.3-1.9-1.5-3.1.3 0 .6-.2.9-.2-.5-.8-.9-1.5-1.1-2.6.2.2.6.2.8.5.3-.7.7-2.1.3-2.8.3.6 2.6 1.9 2.2 2.9.2-.5.5-.9.9-1 .4 1.4-.2 2.6 0 4 .5-.2.5-1 1.1-1.2.6 1.4-.3 2.8.1 4.1.2-.3.6-.3.8-.5.5 1.6 0 2.9.2 4.4.3-.1.7-.1 1-.3.4 1.2-.2 3-1 4.4l6.7 27.9h.5l-3.3-28.1c-.4-.2-.8-.4-1.1-.8-.8-.9-1-1.9.3-2.1-.5-.5-1-1.1-1.3-1.8-.3-.5-.5-1.1-.5-1.7.3 0 .6-.2.8-.2-.4-1.3-.9-1.9-1-3.5.2 0 .5-.2.7-.1-.3-1.1-1.1-2-1.1-3.3.3.1.6-.1.9-.1-.4-.9-.7-1.6-.8-2.8.2.2.5.2.7.7.4-.6 1-2 .7-2.7.2.6 2.4 2.3 1.8 3.2.3-.4.6-.8 1-.9.3 1.5-.5 2.6-.4 4 .6-.2.6-.9 1.3-1 .4 1.4-.6 2.7-.3 4.1.2-.2.6-.2.9-.4.3 1.7-.4 2.9-.3 4.4.3-.1.7 0 1-.1.2 1.2-.6 3-1.5 4.2l3.4 29h.4v-28.7c-.4-.2-.7-.5-1-1-.7-1-.8-2.1.6-2-.4-.5-.8-1.2-1.1-1.9-.2-.6-.3-1.3-.3-1.9.2.1.6-.1.8 0-.3-1.3-.6-2.1-.6-3.6.2 0 .5-.1.7-.1-.2-1.1-.9-2.1-.7-3.4.3.1.6 0 .9.1-.3-1-.5-1.8-.4-2.9.2.2.5.3.7.8.4-.5 1.2-1.8 1-2.6.2.7 2.1 2.6 1.4 3.5.3-.4.7-.8 1.2-.8.1 1.5-.8 2.5-.9 3.8.6-.1.8-.8 1.4-.8.2 1.5-.9 2.6-.8 4 .3-.2.6-.1.9-.2.1 1.7-.7 2.8-.8 4.3.3-.1.7.1 1 0 .1 1.2-.9 2.9-1.9 4v29.2h.4l3.4-28.4c-.4-.3-.6-.6-.9-1.1-.6-1.1-.6-2.2.8-1.9-.4-.6-.7-1.2-.9-2-.2-.6-.2-1.3-.1-1.9.2.1.6 0 .8.1-.1-1.3-.4-2.1-.2-3.6.2.1.5 0 .7.1 0-1.2-.6-2.3-.3-3.5.3.2.6.1.9.2-.2-1-.3-1.8-.1-2.9.2.2.4.4.6.9.5-.5 1.4-1.6 1.3-2.4.1.6 1.8 2.9 1.1 3.6.3-.3.7-.6 1.2-.6-.1 1.5-1.1 2.4-1.3 3.7.6 0 .8-.7 1.5-.6.1 1.5-1.2 2.4-1.2 3.8.3-.2.6-.1.9-.1-.1 1.7-1 2.7-1.3 4.1.3 0 .7.2 1 .2-.1 1.2-1.3 2.7-2.4 3.7l-3.4 28.6h.5l6.5-27.2c-.3-.3-.6-.7-.8-1.2-.4-1.2-.3-2.3 1-1.8-.3-.6-.5-1.3-.6-2.1-.1-.7-.1-1.3.1-1.9.2.1.6.1.8.2 0-1.3-.1-2.1.3-3.6.2.1.5.1.7.1.1-1.1-.3-2.3.1-3.5.2.2.6.2.9.3-.1-1-.1-1.8.2-2.9.2.3.4.5.5.9.5-.4 1.6-1.4 1.6-2.2.2 1 1.6 3.4.8 4zM237 378.1h10.6c.9 0 1.7-.1 2.4-.3 2.9-.6 3-2.1 3.1-2.7.2-2.1-.8-2.6-4.2-3-.6-.1-1.1-.1-1.7-.2-2.3 1.4-4.7 3-7 4.5-.1.1-.3.1-.4.2-.2.1-.3.2-.5.3-.1.1-.2.1-.3.2-.6.4-1.3.6-1.9.9 0 .1-.1.1-.1.1"/><path id="meem2" class="g" d="M73.4 603.9c1.1.2 2.2.7 3 1.8.9 1.1 1.8 2.8 3.2 3.3 2.2.8 3.4-.7 3.2-2.8v-.2c-1.6-1.2-3.1-2.5-4.5-4-.5-.5-2.7.7-4.9 1.9z"/><path id="ribbon" class="g" d="M541.7 566.7c-.4-4.6-2.2-9.1-5.7-11.7-6.5-4.9-17.2-3.6-23.2.7-3.1 2.2-6.4 6.5-6.9 10.9-.1 1.3 0 2.6.4 3.8l.1.2v.1c.1.3.2.6.4.8v.1l6.8 16.4c-5 1.1-10.1 1.5-14.8 1.8-9.9.7-19.7 1.5-29.6 2.8l-.7.1c-8.3 1-16.9 2.1-25.3 3.5-17.8 2.8-32.1 6.2-44.8 10.8-8 2.9-14.4 5.7-20.2 8.8-2.3 1.2-4.8 2.6-7 4.4-.1.1-.2.2-.4.3-.9.7-1.6 1.3-2.1 1.7-9.1-3.9-19.2-6.3-30.7-7.5-11.8-1.2-24-1.8-37.3-1.8-10.2 0-21.1.3-33.2 1.1-1.1.1-2.2.1-3.3.2-8.9.5-18 1-26.8 3.2-4.1 1-8.2 2.5-12.1 4.3-.4-.3-.8-.7-1.3-1.1-.2-.2-.3-.3-.4-.3-2.2-1.7-4.7-3.1-7-4.4-5.8-3.1-12.2-5.9-20.2-8.9-12.8-4.6-27-8.1-44.8-10.8-8.4-1.3-16.9-2.4-25.2-3.4l-.8-.1c-9.9-1.3-20.1-2.1-29.6-2.9-4.7-.4-9.8-.8-14.8-1.8l6.8-16.6.2-.6.1-.3c.4-1.2.5-2.5.4-3.8-.4-4.4-3.7-8.7-6.8-10.9-6-4.3-16.8-5.6-23.3-.7-3.4 2.6-5.2 7.1-5.7 11.6L46 605.2l.1.3c2.1 6.9 7.5 12.6 15.8 17.1 7.6 4.1 16.2 6.2 22 7.3 14.7 2.7 29.9 4 44.6 5.3l4.1.4c1.5.1 3 .2 4.5.4 5.3.5 10.8.9 16.2 1.6 25.5 3.3 42.6 7.2 48.8 10 0 6.3-.1 17.2-.1 24.4v5c.2.6.4 1.2.7 1.7.3.6.8 1.2 1.4 1.8 1.8 1.8 4.2 2.4 6.6 2.4 3.6 0 7.2-1.2 9.5-2 2.5-.9 4.6-2.1 6.6-3.2 9-5.2 15.3-10.8 19.4-17.3 1-1.7 2.6-4.4 3.6-7.5 2.3 0 39.5.1 50.4.1h3l42.3.1c1 3 2.6 5.7 3.6 7.4 4.1 6.4 10.7 12.3 19.7 17.4 2.1 1.2 4.3 2.4 6.8 3.2 2.3.8 6 2.1 9.7 2.1 2.5 0 4.9-.6 6.7-2.4.6-.6 1.1-1.3 1.5-2 .3-.5.5-1 .6-1.6v-5c0-7.4 0-19-.1-25.2 7.2-2.7 23.6-6.3 47.2-9.4 5.4-.7 10.9-1.2 16.2-1.6 1.5-.1 3-.2 4.5-.4l4.1-.4c14.6-1.3 29.8-2.6 44.5-5.3 5.8-1.1 14.4-3.2 22-7.2 8.4-4.4 13.7-10.2 15.8-17.1l.1-.4-6.7-38.5zm-357.1 49.5c.3-.4.4-.9.4-1.4-.2-1 1-1.7 1.8-1.9.7-.2 2.4-.3 2.5.7.2 1.4-.2 2.5-1.1 3.6-.7.8-2.1 1.1-3 .8-1-.2-1.2-1.1-.6-1.8zm-14.4-5.5c.3-.3.4-.9.4-1.4-.2-1 1-1.7 1.8-1.9.7-.2 2.4-.3 2.5.7.2 1.4-.2 2.5-1.1 3.6-.7.8-2.1 1.1-3 .8-1.1-.2-1.2-1.1-.6-1.8zM60.3 557.6c5.2-4 14.4-2.8 19.4.8 2.4 1.7 5.2 5.1 5.5 8.5.1.9 0 1.8-.3 2.6l-.2.6c-.3.6-.7 1.2-1.2 1.7-3 3.1-10.4 1.6-16.4-.9l-1.5-.6-3 7.4c-3.4-3.9-6.2-8.9-6.1-13.6.6-2.6 1.9-5.1 3.8-6.5zM200 625.3c-1.7 1-3.1 1.7-4.8 2.1-.2 2.1-.3 4.2-1 5.9a8.8 8.8 0 01-7.8 5.2c-3.4 0-6.6-.6-9.7-1.5-1.5-.4-2.9-.9-4.4-1.4-7.2-2.3-14.9-3.6-22.4-5.1-2.4-.5-4.8-1-7.3-1.5-15-3.2-30.1-6.6-43.8-13.5-4.2-2.1-8.5-4.4-12.5-7.1-1.4 2-4.1 3-6.6 3-1.7 0-3.8-.2-5.1-1.5-.9-1-1.7-2.4-2.8-3.2-.7-.5-1.3-.7-1.9-.8-.2.1-.3.2-.4.2-2.4 1-5 1.5-7.5 1.9-3 .5-1.8-2.5.5-2.9 5.7-.9 9.3-4.1 14.3-6.4.9-.4 2.2-.7 3.2-.4 2.9.9 4.9 4.3 7.4 5.9 3.4 2.2 6.8 4.6 10.4 6.6 12.6 6.7 26.5 10.7 40.4 13.8 1.3.3 2.7.6 4 .9 2.6.6 4.7.4 7.3-.4 2.7-.8 5.2-2.1 7.8-3.1 0-2.1 0-4.7.8-6.7h-1c-3 0-2-3 .4-3h5.7c2.6.2.9 3-.9 3 0 .1-.1.2-.2.5-.2.7-.3 1.4-.3 2.1-.1 1-.1 1.9-.1 2.9.4-.1.8-.1 1.2-.2 4-.3 9-.9 12.8.7 5.2 2.1 10.7 9 5.4 13.5 1.2.3 2.4.6 3.6.6 5.8.4 6.3-6.2 6.6-10.5.2-3-.6-7.3 3.7-7.7 4-.4 5.5 3.2 5.9 6.6-.1.6-.4 1.2-.9 1.5zm27.2 12.9c.2 3.5-.1 11.2 6.5 9.1 5-1.7 8.2-6.1 5.6-11-2.2-4.3-2.2-7.9 2.2-10.7 1.7-1.1 5.3.3 2.9 1.9-5.7 3.7 1.9 8.8.3 13.7-1.2 3.9-4.8 6.8-8.5 8.5s-7.7 1.1-10.9-1.3c-3.1-2.3-2.3-6.4-2.5-9.7-.1-2 4.3-2.7 4.4-.5zm16.2 20.3c-3.7 5.9-9.8 11.3-18.2 16.2-1.9 1.1-3.9 2.2-6.1 3-2.9 1-9.8 3.4-12.7.4-.3-.2-.5-.6-.7-.8 1.7-4.1 7.2-9.7 14.2-14.5 8.6-5.8 18-9.3 26.3-9.9-.9 2.4-2.2 4.6-2.8 5.6zm55-32.3c.3-.3.4-.9.4-1.4-.1-1 1-1.7 1.8-1.9.7-.2 2.4-.3 2.5.7.2 1.4-.2 2.5-1.1 3.6-.7.8-2.1 1.1-3 .8-1-.2-1.2-1.1-.6-1.8zm-10.4 1.5c.3-.4.4-.9.4-1.4-.1-1 1-1.7 1.8-1.9.7-.2 2.4-.3 2.5.7.2 1.4-.2 2.5-1.1 3.6-.7.8-2.1 1.1-3 .8-1.1-.2-1.3-1.1-.6-1.8zm52.7.8c-.2-1.5-.3-2.9-.4-4.4-3.9 2.1-6.7 6.3-11.6 6.7-1.7.1-4 .5-5.6-.3-2.5-1.4 2.8 2.6 3.7 3.3 1.9 1.5 8.8 5.4 6.5 8.7-1.3 2-5 2.1-7 2-7.1-.6-14.1-1.8-21.3-1.7-9.5.1-18.8 1.7-28.3 1.8-12.9.2-23.6-2.4-23.2-17.4.1-1.5 4.4-2.3 4.3-.5-.6 21.5 25.7 14.7 39.8 13.9 6.7-.4 13.5-.5 20.3.1 2.3.2 4.6.5 6.8.9.4.1 5.7.8 3.8-1.2-2.1-2.1-15.4-10.1-7.8-13.3 5.9-2.5 4.7 6.4 13.8-1.5 2.5-2.1 4.5-3.8 7.7-4.6.5-.1 2.4-.4 2.5.6.1 2 .2 3.9.5 5.9.1 1.5-4.3 2.5-4.5 1zm16.1-4.8c1.1 1.4 2.6 2.5 4 3.6.8.7-.4 1.6-1.7 2 1.8 6.1 1.6 12.5.2 18.8-.4 1.7-4.8 2.3-4.4.5 1.7-7.8 1.8-15.9-2.1-23.1-.9-1.8 3-3.1 4-1.8zm32.8 54.6c-3.1 3-10.1.6-13.1-.4-2.2-.7-4.2-1.8-6.2-3-8.6-4.8-14.8-10.3-18.6-16.3-1.2-1.9-2.2-3.8-2.9-5.6 18.7.9 38.2 16 41.5 24.4-.1.3-.4.6-.7.9zm28-62.1c.3-.4.4-.9.4-1.4-.1-1 1-1.7 1.8-1.9.7-.2 2.4-.3 2.5.7.2 1.4-.2 2.5-1.1 3.6-.7.8-2.1 1.1-3 .8-1.1-.2-1.2-1.1-.6-1.8zm14.1 15.7c-11.2 5-23.8 2.6-32.1-6.5-1.4-1.6 2.7-3.3 4-1.9 5.8 6.3 14.9 9.9 23.3 7 9.9-3.3 12.7-14.6 3.3-20.5-2-1.3 1.8-3.5 3.3-2.5 9.8 6.2 8.8 19.6-1.8 24.4zm73.7-20.2c-3.8 1.9-7.6 2.2-11.3 1.5-1.7 3-5.2 4.9-8.5 5.8-4.2 1.1-8-1-11.5-3.1-3.8 2.7-9.1 4.7-13.8 4.5-5.6-.3-11.1-2.3-13.6-7.7-1.7-3.6-2-5.9 1.8-7.3 1.6-.6 4.4-.1 1.5.9-1.9.7 2.1 7.4 2.8 8 5.4 5 14 6 19.7.3.6-.6 1.2-1.2 1.7-2 2.1-2.9 3.9-5.1 6.6-7.2.7-.6 3.2-1.7 4-.9 1.5 1.4 5.4 4.3 9.3 6 .4 0 .6.1.7.3 4.3 1.8 8.5 2.1 9.6-2.4 1.1-4.2-.2-8.3-4.8-9.3-1.2-.2 2.5-1.9 3.6-1.7 6.6 1.5 8.7 11.1 2.2 14.3zm6.9 4.4c-.7.8-2 1.2-3.1.8-.9-.3-1.3-1.3-.5-2 .1-.1.2-.2.1-.6-.1-1.1.9-1.8 1.8-2 .7-.2 2.4-.2 2.5.8.2 1.2 0 2.2-.8 3zm7.4-2.6c-.7.8-2.1 1.1-3.1.8s-1.1-1.1-.5-1.8c.3-.4.4-.9.3-1.4-.1-1 1-1.7 1.8-1.9.6-.2 2.4-.3 2.5.7.4 1.4 0 2.6-1 3.6zm9.9-2c-.6 1.3-4.9 1.9-4.4.6 1.3-3 1.7-7.1.2-10.1-1.2-2.3-3.8-3.1-5-5.3-2-3.9 4.4-5.5 7-5.9 3-.4 1.4 2-.6 2.3-3.5.5-2.1 2.6-.2 4.1 1.3 1 2.5 2 3.1 3.6 1.3 3.4 1.3 7.3-.1 10.7zm8.4-47.3c.1 4.7-2.7 9.7-6 13.5l-3-7.3-1.5.6c-6 2.5-13.5 3.9-16.4.9-.5-.6-.9-1.2-1.2-1.8l-.2-.6c-.3-.8-.4-1.7-.3-2.6.3-3.4 3.1-6.8 5.5-8.5 5-3.6 14.2-4.8 19.4-.8 1.8 1.4 3 3.8 3.7 6.6 0-.1 0-.1 0 0z"/><path id="meem" class="g" d="M476.9 613.6c2 1.2 4 2.7 6.3 3.3 3.4.9 6.5-1.7 7.4-4.7-2.9-1.1-5.7-2.8-8.2-4.8-1.9 2-3.5 4.2-5.5 6.2z"/></svg>