<svg xmlns="http://www.w3.org/2000/svg" width="800" height="800" preserveAspectRatio="none"><path d="M33.06 124.036c0-56.559 45.848-102.414 102.401-102.414 56.57 0 102.42 45.855 102.42 102.414 0 56.561-45.85 102.412-102.42 102.412-56.553 0-102.401-45.851-102.401-102.412z" stroke-miterlimit="3.864" fill="#fff" stroke-width="1.035" transform="matrix(3.86679 0 0 3.8667 -123.836 -79.606)" fill-rule="evenodd" stroke="#70193d"/><path d="M158.5 372.018c.108-4.134-1.785-10.288-1.17-13.965l-13.34 24.72-6.775-24.615-8.267 24.616-7.17-24.616-7.895 24.268-9.32-24.268-7.883 24.268-8.616-24.268-7.528 24.268-8.256-24.268-7.184 24.616-8.96-24.616-7.884 24.616-8.271-24.616-7.888 24.616-8.616-24.616-6.813 24.616-9.794-24.94C3.614 369.322 4.85 386.404 4.667 398c-2.85 224.563 179.776 399.764 398.847 397.552 206.076.328 393.681-170.902 392.445-396.647 0-11.608-2.368-40.923-2.368-40.923l-10 24.792-7.54-24.616-8.244 24.616-7.873-24.616-7.567 24.616-8.256-24.616-7.872 24.616-8.237-24.616-8.634 24.616-8.244-24.616-8.26 24.616-7.86-24.616-7.564 24.616-8.248-24.616-7.537 24.616-8.58-24.616-6.864 24.616-13.746-24.672s-3.34 39.96-3.533 69.38c-.023 3.38-1.56 6-1.835 9.036-.146 1.547-3.256 7.818-3.588 9.288-4.284 18.707-10.745 37.999-18.181 55.793-18.634 38.385-43.975 57.63-66.588 76.294-20.823 17.165-52.008 40.902-91.113 49.142-39.105 8.252-53.435 12.54-98.286 6.106-44.84-6.47-73.243-18.271-97.63-36.224-24.411-17.915-38-35.86-51.65-51.288-13.626-15.417-32.418-51.195-37.317-67.056-5.136-16.635-8.913-36.885-11.361-54.935-1.137-8.421-3.697-13.348-2.448-20.087 1.323-7.17-.756-19.121-.435-31.533z" fill="#70193d" fill-rule="evenodd"/><path d="M46.075 9.04c0-2.157 2.945-3.905 6.577-3.905 3.633 0 6.579 1.748 6.579 3.906 0 2.157-2.946 3.907-6.58 3.907-3.631 0-6.576-1.75-6.576-3.907z" stroke-miterlimit="3.864" fill="#ffe756" fill-rule="evenodd" stroke="#70193d" stroke-width=".082" transform="matrix(37.38302 0 0 62.94324 -1567.748 -169.439)"/><path d="M529.76 462.76s-10.39-.049-17.664 0c-8.286.053-6.508-3.41-17.721-.145-11.202 3.217-6.848 2.54-18.09 3.724-11.201 1.176-9.77-.189-18.602-1.082-8.878-.87-8.283-3.562-17.312-3.55-10.916.048-14.651 1.77-14.651 1.77s.762-8.263 5.773-10.335c5.023-2.054 4.447-4.13 15.664-4.13 11.202 0 16.24-.881 18.603-1.458 3.221-.831 10.236-.384 8.84-10.042-1.47-10.474-9.16-46.94-9.713-56.67-.476-6.85-3.863-50.761-3.863-50.761s1.453-9.458 1.751-12.114c.326-2.657 2.982-11.508 2.982-11.508s5.583.298 6.52 2.649c.853 2.362 5.057 2.939 3.553 6.469-2.173 5.011-3.902 24.164-2.12 38.494 1.528 12.057 2.48 29.369 4.032 38.966 1.801 11.213 10.152 39.751 14.015 45.056 2.173 3.167 3.832 1.488 5.885.302 2.077-1.195 4.51-22.972 5.58-32.163.905-7.633-.526-29.278-.727-34.576-.704-18.282-6.338-37.453-15.189-52.208-2.803-4.655 0 .31.273-2.653.314-2.946.314-5.01.314-5.01s3.23.286 5.901.88c2.676.577 2.962.886 2.962.886s6.028 9.46 10.583 24.099c3.365 10.88 7.016 26.595 6.401 46.338-.53 15.656.722 52.346.722 52.346s2.66 3.542 8.53 4.126c5.92.585 21.677-.283 32.581 1.489l-22.953 22.96z" fill="#7d000b" fill-rule="evenodd"/><path d="M338.358 397.807c.849 6.038 5.074 16.087 7.548 21.154l-2.105 2.36c-1.813-6.644-7.252-16.553-8.201-22.675z" fill-rule="evenodd"/><path d="M292.699 194.597s18.316 26.549 47.035 70.989c9.153 14.148 42.523 59.133 44.468 70.68.452 2.636 2.374 60.818 2.374 60.818l.3 7.66s-14.366-18.18-44.067-11.596c-17.373 3.863-39.433 17.802-39.816 42.905 0 2.034-16.5-21.004-20.915-54.617-1.694-12.795-2.603-62.977-2.672-71.735-.284-20.354 11.144-84.638 14.485-97.704.955-4.21-3.925-12.849-2.889-15.497.816-2.139 1.698-1.903 1.698-1.903z" fill="none"/><path d="M263.852 462.76s15.27-4.988 20.893-.788c4.245 3.19 9.674 7.346 13.924 5.8 4.261-1.536 20.76-7.734 27.071-7.734 10.812 0 19.33 5.8 27.064 4.624 5.034-.735 20.877-10.424 32.666-7.366 7.54 1.934 19.938 6.133 25.722 6.357 6.18.245 14.88-1.709 22.98-2.471 12.788-1.145 29.199 5.053 41.209 3.878 12.273-1.175 28.003-11.588 57.782-2.3.746.239-14.114 12.744-33.065 27.036-16.295 11.932-35.996 24.05-43.297 29.019-20.521 13.909-57.592 31.471-57.592 31.471s-39.302-19.735-57.236-30.698c-12.42-7.601-42.225-28.311-52.987-36.346-7.726-5.804-25.134-20.482-25.134-20.482z" fill="#fff" fill-rule="evenodd"/><path d="M355.33 391.973c.85 6.038 3.13 13.258 5.604 18.326l-2.105 2.359c-1.813-6.644-5.308-13.724-6.257-19.846zM382.523 396.257c.612 4.913-.535 12.764-.217 18.912l-2.678-2.616c.385-4.682.723-11.918 1-16.6zM384.043 414.6l31.253-15.001.75 2-32.003 16zM323.507 405.232c.849 6.038 4.72 18.032 7.195 23.1l-2.105 2.359c-1.814-6.644-6.9-18.497-7.848-24.62z" fill-rule="evenodd"/><path d="M288.704 391.362s-4.49 2.459-6.825 3.94c-2.374 1.47-7.374 4.126-7.374 4.126s-.618 4.153.266 5.642c.905 1.445 4.447 2.629 4.447 4.694s-2.336 20.091-3.543 25.377c-.467 2.065.3 2.958.882 4.74.584 1.771 1.695 2.113 3.45 4.5 1.756 2.358 1.72 5.825 2.161 9.65.303 2.66 3.507 11.007 9.679 12.696 4.752 1.257 10.7-.497 19.53-4.415 7.375-3.251 14.87-2.492 22.53-.722 7.66 1.783 11.711 4.535 21.46 2.493 5.394-1.187 10.58-4.113 17.37-5.002 6.801-.87 5.827-.967 5.827-.967s6.46-9.833 10.098-19.593c1.894-5.083 1.82-12.215 1.82-12.215s-10.62-23.865-18.747-22.326c-7.277 1.396-21.677 10.8-33.788 18.17-10.754 6.588-14.976 10.068-21.24 15.373-2.9 2.432-9.524 6.895-18.689 5.507-8.244-1.234-9.245-1.122-13.993-4.644-4.583-3.341-6.887-3.824-6.887-3.824s.905-3.836 1.778-5.012c.886-1.164 7.958-6.62 10.858-8.947 3.856-3.086 6.562-5.02 6.562-5.02s-1.206-3.716-2.706-6.956c-1.454-3.217-.967-.87-2.398-6.476-1.488-5.615-2.525-10.788-2.525-10.788z" fill="#70193d" fill-rule="evenodd"/><path d="M528.92 263.656c3.543.882 7.073 2.073 7.073 2.073s-2.08-7.973-6.47-12.679c-4.434-4.74-7.396-6.805-15.057-6.206-7.694.584-11.546 2.95-11.546 2.95s2.084-2.95 5.626-5.606c3.55-2.672 7.7-1.78 11.504-.905 3.867.905 8.573 1.79 8.573 1.79s-8.287-8.855-13.573-11.503c-5.297-2.66-10.915-2.947-15.328-1.195-4.462 1.767-9.748 7.98-14.794 13.267-5.034 5.324-11.794 9.164-11.794 9.164s.3-2.054.886-3.534c.58-1.477 4.416-4.15 7.989-9.447 3.542-5.32 2.63-5.011 4.087-10.332 1.489-5.293 2.084-4.427 4.748-6.202 2.668-1.74 11.825 2.95 11.825 2.95s-.622-2.95-2.672-5.892c-2.073-2.95-6.802-7.672-12.988-9.748-6.199-2.057-7.981 3.244-9.74 5.614-1.795 2.351-2.661.584-2.661.584s-.882-4.713-4.424-7.087c-3.534-2.34-10.135-.159-11.496 1.786-2.374 3.248 0 7.66 0 11.202 0 3.534-.905 7.671-1.206 8.866-.284 1.168-.874.882-2.336-.885-1.489-1.779-1.206-3.558-1.489-8.58-.314-5.023.58-4.714.905-8.554.258-3.843-1.531-3.402-2.699-3.248-7.076.743-10.904 4.44-11.786 7.374-.754 2.386.58 2.077-3.21 2.66-3.866.585-8.58 2.36-14.535 7.668-5.355 4.884-8.545 10.645-9.125 16.534-.452 4.342 2.958 5.325 2.958 5.325s5.622-7.397 9.164-10.645c3.534-3.245 6.779-3.558 9.126-3.245 2.413.298 2.413 1.195 3.232 2.375.932 1.156-.568 2.347-.568 2.347s-6.717.24-13.294 4.137c-2.498 1.539-4.772 3.175-8.283 5.607-2.038 1.47-4.021 4.81-7.66 10.034-6.763 9.794-3.84 19.472-4.091 22.732-.337 3.233 3.209 7.668 4.996 8.866 1.755 1.168 1.755 1.907 2.08 3.813 1.172 7.006 6.48 9.454 6.48 9.454s-2.064 9.443-1.186 14.755c.874 5.305 1.755 6.771 6.794 11.813 5.034 4.996 7.973 4.996 7.973 4.996l-.897-7.084c-1.095-7.656 0-10.308.897-13.557.9-3.244 3.813-2.962 3.813-2.962s.622 8.283 2.946 16.225c2.39 7.973 5.344 10.336 5.344 10.336s2.285-17.992 2.618-23.026c.634-9.141 4.126-17.702 5.63-23.007.85-2.885 5.622-1.191 4.165 1.175-1.505 2.359-2.959 23.32-1.207 30.396 1.79 7.088 5.905 8.271 5.905 8.271s.299-.889.885-4.427c.585-3.557 3.283-24.793 5.035-24.496 1.756.31 5.073 2.614 9.771 8.816 4.749 6.183.808 17.907 2.862 16.156 3.712-3.171 8.615-9.342 9.485-15.231.553-3.662.19-4.838-.165-5.182.79.25 2.827.824 6.953 1.922 5.622 1.489 2.343-2.053 2.676-5.607.273-3.534-.63-6.488.858-6.202 1.493.313 9.447 5.332 11.248 10.046 1.756 4.725 2.66 16.534 2.66 16.534s4.714-3.542 6.172-7.97c1.466-4.415 1.466-9.45 1.752-11.503.228-1.407 2.66.565 3.58-1.19.875-1.783 2.34-16.836 1.172-22.138-1.173-5.309-2.963-7.98-7.093-12.706-4.11-4.713-10.316-5.606-10.316-5.606s5.286-4.42 10.904-5.011c5.6-.577 6.79.904 10.34 1.786zm-101.255 3.245c-3.055 1.67-4.2 2.265-5.104 3.124-.8.789-1.431 1.84-3.148 4.253-2.432 3.48-6.79 10.645-6.79 10.645s-.874-2.08-.284-6.496c.58-4.435 2.037-10.046 5.282-12.694 3.298-2.66 14.794-5.011 17.745-3.248 2.308 1.315-1.799 1.171-7.703 4.416zm54.348.31s-2.41-6.23 8.244-12.981c3.26-2.077 9.465-3.554 5.904 0-1.195 1.171-3.863 3.248-6.786 6.492-2.985 3.232-7.362 6.488-7.362 6.488zm36.282 29.518c.587 3.828.287 6.179.287 6.179s-1.457-3.465-7.374-9.71c-4.435-4.752-7.694-5.622-12.076-6.52-4.446-.88-7.69-1.758-7.69-1.758s-1.47-3.82 2.358-4.44c3.844-.572 6.79-.885 13.878 3.53 7.068 4.44 10.03 8.875 10.614 12.718z" fill="#02a03b" fill-rule="evenodd"/><g fill-rule="evenodd" fill="#fff"><path d="M169.522 551.598l9.427 22.33 3.244-.75c1.191-.263 1.945-.414 2.266-.387.36.03.658.174.882.425a.972.972 0 01.263.832c0 .332-.104.595-.371.808-.321.313-1.265.65-2.78.963l-20.378 4.481 5.692 6.036c1.79 1.933 3.507 4.45 5.154 7.614 1.694 3.197 2.71 6.345 3.02 9.43.406 3.078.143 5.963-.68 8.654-.766 2.722-2.232 5.042-4.32 7.007-3.89 3.615-9.149 5.444-15.807 5.575-6.632.128-15.723-2.177-27.32-6.882-1.418-4.091-3.185-8.654-5.285-13.785-9.652-4.118-16.488-8.46-20.475-13.027-2.861-3.271-4.354-6.415-4.508-9.473-.097-3.024.715-5.398 2.528-7.084 1.922-1.802 4.614-2.367 8.063-1.72 3.46.618 7.003 3.003 10.641 7.183 1.43 1.644 3.016 3.836 4.834 6.612l7.482-1.794-4.903-5.13c-1.172-1.296-2.545-3.249-4.095-5.8-1.574-2.603-2.54-5.012-2.908-7.235-.406-2.228-.251-4.242.367-6.114.635-1.871 1.636-3.445 2.993-4.729 2.173-2.022 4.81-3.035 7.9-3.016 1.945 0 4.393.79 7.243 2.32l.417-.456c2.266-2.096 5.777-3.51 10.537-4.126 4.768-.696 11.728-.259 20.877 1.238zm.55 24.364c-1.563-5.746-2.947-10.019-4.285-12.853-1.265-2.842-2.637-5.112-4.126-6.782-2.038-2.39-4.389-3.724-6.991-3.999-2.587-.301-4.76.368-6.493 2.007-1.693 1.578-2.602 3.511-2.602 5.812.062 2.297 1.172 4.764 3.414 7.347 1.505 1.69 5.166 5.27 11.048 10.737zm-20.665 4.578a105.389 105.389 0 01-8.832-8.928c-2.981-3.434-4.713-6.226-5.189-8.414-.464-2.177-.201-4.393.874-6.64-2.734-.769-4.919-.386-6.597 1.176-1.492 1.396-2.138 3.271-1.852 5.584.333 3.047 2.506 6.863 6.442 11.375 1.814 2.096 4.269 4.637 7.347 7.633zm-5.8 3.774c5.943 5.413 9.891 9.33 11.944 11.681 2.792 3.186 4.25 6.307 4.292 9.342.097 2.985-.846 5.398-2.803 7.207-1.705 1.597-4.126 2.309-7.169 2.147-3.055-.12-7.993-1.845-14.852-5.074l4.292 9.605c4.88 1.458 9.222 2.007 13.089 1.67 3.901-.332 7.184-1.801 9.976-4.384 1.779-1.69 3.055-3.875 3.828-6.64.778-2.764.692-5.788-.32-9.07-.975-3.291-2.792-6.477-5.43-9.482-2.15-2.47-5.12-5.386-8.94-8.738zm-18.746 4.168c1.647 2.935 2.98 5.398 3.924 7.358.967 1.976 2.603 5.557 4.869 10.78 7.443 3.249 12.408 3.674 14.949 1.335.773-.72 1.156-1.74 1.156-3.074 0-1.3-.44-2.51-1.43-3.608-1.184-1.384-2.781-2.915-4.834-4.655-5.56-4.869-9.091-8.178-10.619-9.918zm-3.817 12.2c-3.724-8.21-7.37-14.342-10.835-18.352-1.825-2.084-3.708-3.306-5.618-3.723-1.338-.283-2.398-.02-3.244.788-.955.84-1.311 1.914-1.11 3.248.286 2.127 1.492 4.466 3.662 6.968 3.387 3.84 9.094 7.529 17.145 11.07zM190.642 613.496l21.643-3.554 1.06.99-9.486 10.123 7.374 6.871-3.735 4.269-7.351-6.844-22.25 25.528 1.373 6.944 3.998.314-.073 1.987-13.901-.843c-.228-5.487-1.636-10.366-4.238-14.643l.669-.77c1.585.236 2.819.12 3.793-.324 1.23-.55 2.637-1.698 4.153-3.469l18.936-21.73-3.403-3.16zM244.31 649.255l1.156 1.558c-2.912 1.508-5 2.796-6.172 3.855-1.167 1.013-2.374 2.66-3.65 4.86l-10.835 18.63c-1.825 3.102-2.706 5.174-2.706 6.245 0 1.063.398 1.771 1.04 2.185.332.236.715.336 1.218.387.286 0 1.264-.109 2.888-.325l.082 2.014-14.114 2.193c-1.145-3.098-1.694-5.565-1.62-7.397.061-1.845.812-4.037 2.173-6.57l-18.97 2.498c-2.472-7.072-2.53-12.59-.229-16.576 1.527-2.657 3.507-4.807 5.905-6.489 3.147-2.208 7.61-4.323 13.386-6.275l1.42-14.354 1.31-.85c1.002.789 1.814 1.357 2.34 1.682 3.34 2.06 7.076 2.517 11.202 1.372a37.4 37.4 0 004.976 7.177c2.015 2.297 3.666 3.832 4.965 4.655.62.345 1.11.526 1.528.526.448-.03 1.365-.375 2.707-1.001zm-15.514 1.728l-11.82-13.583-1.397 14.515 6.74 10.282zm-7.563 13l-7.374-11.306c-3.639 2.579-6.241 5.224-7.792 7.915-2.734 4.698-2.923 9.891-.584 15.517l9.52-1.357zM253.458 658.67l19.818-9.593 1.299.646-6.442 12.431 8.94 4.513-2.448 5.173-8.924-4.493-14.543 30.88 3.147 6.306 3.913-.85.5 1.921-13.577 3.16c-1.694-5.205-4.354-9.505-7.993-12.896l.418-.932c1.597-.193 2.765-.688 3.592-1.357 1.025-.901 2.026-2.39 3.043-4.536l12.432-26.286-4.153-2.084zM305.335 674.872l7.529 20.683-26.082 7.234-3.078 8.758 9.227 8.441 9.067-2.378.526 1.814-18.85 5.204c-2.471-2.865-4.548-5.022-6.276-6.511-1.717-1.466-4.285-3.306-7.626-5.475l.418-1.207c1.264-.243 2.243-.758 2.888-1.558.75-.82 1.66-2.803 2.723-5.92l9.701-27.438c3.28 0 6.002-.074 8.233-.263 1.628-.15 5.518-.615 11.6-1.384zm-8.998 2.834l-.773.089-7.637 21.742 15.297-4.241zM384.33 696.463l-1.957 38.126c-5 1.813-8.657 3.31-10.9 4.524-1.756.885-3.426 2.015-5.073 3.403-4.583-3.26-8.45-5.537-11.504-6.86-2.3-1.013-4.965-1.662-7.946-1.964l-.43-1.044c1.3-1.013 2.112-1.964 2.494-2.834.526-1.133.847-3.086 1.017-5.812l1.393-27.995c6.097-1.76 11.441-4.392 15.88-7.915 4.513 3.434 10.17 6.225 17.026 8.371zm-24.566 31.924l12.614 6.167 1.62-32.403c-3.956-2.177-6.713-3.615-8.376-4.288-1.133-.518-2.567-.974-4.222-1.376zM419.22 671.786l-1.11 8.596-9.114-1.694.607 12.289 7.641-.434.282 5.727-7.625.402 1.752 34.205 5.788 4.017 3.658-3.414 1.195 1.369-10.94 10.162c-4.256-3.604-8.552-5.97-12.86-7.103l-.36-1.2c1.149-.827 1.91-1.689 2.34-2.578.719-1.427 1.048-3.12.94-5.1l-1.528-29.809-4.644.244-.294-5.7 4.652-.263-.623-12.265c4.772-3.747 8.318-6.882 10.684-9.384zM519.207 711.868c-5.42 8.116-11.565 13.468-18.425 16.07-5.131 1.903-10.595 2.483-16.349 1.609-5.738-.828-10.773-3.066-15.022-6.717-4.304-3.673-7.409-8.328-9.404-13.958-1.133-3.217-1.907-6.47-2.305-9.667-.414-3.24-.49-7.134-.247-11.69 2.494-2.721 5.32-6.22 8.46-10.524 1.694-2.332 5.951-8.05 12.807-17.176 1.408-1.845 2.92-3.998 4.594-6.539 5.583-1.427 10.061-2.215 13.48-2.335 5.096-.213 9.844.421 14.249 1.933 4.446 1.427 8.278 3.685 11.538 6.697 3.252 3.059 5.688 6.782 7.243 11.206a26.355 26.355 0 011.264 12.509c-.8 6.163-3.024 12.679-6.566 19.503l15.498 4.555 2.115-3.662 1.787 1.002-6.76 12.323zm-36.038-47.703c-2.173.661-4.246 1.35-6.322 2.045l9.968 28.34c1.08 3.004 1.617 5.185 1.651 6.51.039 1.327-.193 2.735-.734 4.3-.565 1.536-2.487 5.576-5.72 12.15 3.57 1.527 6.887 2.386 9.93 2.56 3.067.108 6.505-.434 10.31-1.67zm6.48 12.064c2.947 1.137 5.546 1.794 7.846 1.933 2.32.093 4.656-.282 7-1.171 2.145-.824 4.032-2 5.521-3.554 1.52-1.6 2.981-3.747 4.304-6.523-2.587-1.69-4.826-2.83-6.787-3.41a35.798 35.798 0 00-10.714-1.5c-3.57.011-7.475.548-11.64 1.546zm-20.083-.17c-1.953 3.035-3.218 5.444-3.86 7.234-.908 2.378-1.395 5.081-1.496 8.113-.07 3.004.414 6.059 1.531 9.187 2.359 6.763 7.111 12.15 14.234 16.105.893-1.903 1.384-3.616 1.326-5.131-.035-1.532-.754-4.288-2.173-8.248zM496.69 696.2c1.396-3.054 2.885-5.386 4.482-6.994 1.589-1.609 3.638-2.885 6.144-3.836 2.63-.982 5.158-1.384 7.594-1.234 2.479.163 5.31.994 8.554 2.44-.283-3.468-.847-6.384-1.663-8.727-.746-2.127-1.574-3.936-2.428-5.413-.696-1.09-1.694-2.378-3.094-3.844-1.898 3.237-3.708 5.657-5.36 7.235-1.693 1.558-3.77 2.776-6.167 3.685-2.22.82-4.358 1.222-6.407 1.175-2.115-.089-4.717-.657-7.695-1.728zm7.567 21.449c3.801-1.67 6.76-3.523 8.782-5.526 3.182-3.039 5.58-6.468 7.3-10.366 1.721-3.898 2.73-8.21 3.055-12.926-5.715-2.56-10.82-2.986-15.258-1.319-2.564.982-4.807 2.625-6.636 4.95-1.396 1.681-2.602 4.071-3.576 7.195zM561.897 640.883l1.871-.332c-.062 3.391.07 5.889.395 7.47.37 1.532 1.171 3.392 2.428 5.607l10.85 18.641c1.79 3.078 3.152 4.892 4.033 5.387.94.456 1.756.506 2.37.1.325-.212.615-.526.932-.928.093-.274.464-1.214 1.052-2.807l1.752.874-4.714 13.908c-3.21-.406-5.583-1.044-7.11-1.975-1.532-.963-3.094-2.622-4.583-5.062l-6.794 18.49c-7.215-1.07-11.917-3.603-14.257-7.59a21.419 21.419 0 01-2.768-8.445c-.383-3.917-.097-8.978.916-15.153l-11.596-8.054-.132-1.59a31.09 31.09 0 002.564-1.338c3.302-2.072 5.475-5.274 6.434-9.604 2.753-.012 5.615-.403 8.48-1.153 2.873-.75 4.984-1.546 6.264-2.34.58-.393 1.006-.757 1.207-1.14.127-.456.328-1.407.406-2.966zm-5.793 14.98l-17.157 4.404 11.732 8.078 11.902-1.272zm7.533 12.984l-13.09 1.439c.488 4.535 1.524 8.147 3.052 10.83 2.768 4.73 7.076 7.332 12.988 7.807l3.322-9.303zM573.482 636.943l.715-22.612 1.14-.89 7.83 11.539 7.92-6.164 3.341 4.602-7.923 6.175 19.972 27.422 6.898-.03 1.06-4.01 1.898.437-3.488 13.927c-5.224-.788-10.134-.293-14.705 1.508l-.622-.808c.525-1.546.676-2.865.452-3.897-.298-1.377-1.148-2.993-2.529-4.88l-17.022-23.394-3.673 2.866zM623.889 588.501l1.756-.707c.556 3.337 1.105 5.746 1.74 7.258.63 1.426 1.774 3.085 3.457 5.03l14.07 16.144c2.336 2.66 3.972 4.191 4.973 4.485 1.014.302 1.78.162 2.305-.356.325-.301.565-.638.739-1.113.104-.283.263-1.276.526-2.947l1.883.487-2.085 14.605c-3.197.243-5.599.05-7.296-.538-1.69-.626-3.515-1.995-5.46-4.071l-3.225 19.496c-7.277.344-12.393-1.195-15.386-4.625-2.015-2.308-3.45-4.891-4.315-7.753-1.08-3.777-1.733-8.785-1.887-15.064l-12.877-5.607-.379-1.547c1.071-.788 1.825-1.384 2.278-1.844 2.85-2.672 4.377-6.225 4.509-10.66 2.733-.573 5.429-1.497 8.128-2.82 2.66-1.306 4.617-2.493 5.738-3.553.487-.475.812-.92.916-1.338.12-.468.058-1.419-.108-2.962zm-2.939 15.854l-16.024 7.683 13.016 5.614 11.442-3.615zm9.803 11.244l-12.602 3.979c1.287 4.373 2.962 7.71 5 10.042 3.569 4.09 8.278 5.788 14.194 5.1l1.52-9.767zM643.455 557.146l11.635-.584.766 10.263-9.977.232.596 6.836 23.003 17.907 6.582-2.139-.167-6.72 1.96.043.492 16.75c-3.569.72-6.318 1.52-8.271 2.39-1.91.831-3.782 1.964-5.572 3.41l-.85-.669c.061-1.86-.19-3.271-.747-4.253-.588-1.044-2.015-2.47-4.381-4.288l-16.047-12.532c-2.015-1.578-3.57-2.355-4.582-2.41-1.017-.05-1.717.194-2.135.75-.468.639-.564 1.923-.298 3.806l-1.863.07-.859-14.149c3.399-.97 6.028-1.396 7.873-1.264 1.206.1 2.502.669 3.913 1.77z"/></g><g fill-rule="evenodd"><path d="M337.395 34.679c0-4.989 4.029-9.045 9.029-9.045 4.996 0 9.067 4.056 9.067 9.045 0 5-4.067 9.067-9.067 9.067-4.996 0-9.03-4.068-9.03-9.067zM357.796 30.955c0-5.011 4.068-9.056 9.068-9.056 4.984 0 9.056 4.045 9.056 9.056 0 5.011-4.072 9.056-9.056 9.056-5 0-9.068-4.045-9.068-9.056zM419.05 43.541c0-4.996 4.072-9.029 9.071-9.029 4.996 0 9.064 4.033 9.064 9.029a9.066 9.066 0 01-9.064 9.071c-5-.004-9.071-4.048-9.071-9.071zM439.814 43.386c0-5 4.057-9.067 9.103-9.067 4.95 0 9.017 4.064 9.017 9.067 0 5-4.068 9.045-9.017 9.045-5.05 0-9.103-4.045-9.103-9.045zM649.433 205.768l22.764 1.172s.456 3.913 3.963 11.523c3.52 7.586 7.436 15.509 14.16 29.97 7.502 16.198 16.013 37.128 18.124 46.74 1.601 7.452.491 16.898-5.247 23.394-8.182 9.354-28.085 14.029-28.085 14.029s-8.53-33.524-14.222-48.442c-12.795-33.594-34.82-63.909-34.82-63.909l13.162-10.668s26.082 42.008 30.521 52.58c8.913 20.926 15.645 44.74 15.645 44.74s5.607.283 6.07-4.987c.681-8.519-9.948-34.739-18.683-53.473-8.677-18.618-23.352-42.669-23.352-42.669zM635.675 116.069c-10.997-1.3-13.828-3.078-13.828-3.078l-.734 6.395-32.644 37.275s-31.263-24.851-70.654-42.951c-12.447-5.703-62.185-19.542-62.185-19.542l2.482-39.78s-6.24 3.533-10.301 4.987c-4.122 1.481-9.764 1.817-19.16 2.838-11.7 1.265-14.207 16.681-14.207 16.681V106.6s45.443 1.957 88.422 19.52c46.908 19.182 88.418 55.107 88.418 55.107l54.932-63.398c-.004-.004-2.092-.754-10.541-1.76zM431.137 90.61c-.881 0-.812-5.394.36-8.162 2.602-6.168 7.444-3.554 7.444-3.554l.348 12.42s-4.938-.704-8.152-.704z"/><path d="M648.838 173.052c-3.496-2.266-12.76-6.24-17.54-8.495-6.984-3.294-15.2 2.625-15.2 2.625s-15.56 15.061-16.674 19.017c-1.002 3.673 10.634 14.461 12.122 15.915 1.431 1.454-2.173 7.088-7.11 8.863-4.653 1.67-7.468-.345-9.95-4.041-2.47-3.604-4.702-12.196-6.786-15.119-2.007-2.923-4.64-5.634-8.105-7.1-3.554-1.453-9.976.36-9.976.36s-3.183 4.262 2.498 7.111c2.014 1.516 6.917 1.968 8.066 2.17 2.877.622 2.103 1.12 4.64 4.118 3.248 3.793.874 3.495 3.816 11.097 2.9 7.575 5.847 13.143 15.475 14.028 9.644.886 19.067-9.674 26.236-15.807 7.181-6.155 31.963-29.827 31.963-29.827s-7.722-1.191-13.475-4.915zm-23.878 17.37s-5.259-1.466-4.354-4.676c.371-1.36 2.742-3.232 5.46-3.147 2.889.07 6.07 2.123 6.07 2.123zM383.522 38.638c-15.216 3.198-21.217 4.748-25.189 6.43-7.85 3.21-6.38 18.398-6.693 22.489-.274 4.103 1.338 13.839 3.534 14.531 1.91.646 19.566-.789 19.566-.789l.263 8.472s-19.187 1.408-31.928 4.03C331 96.31 317.83 99.12 317.83 99.12s-7.397-9.95-13.816-13.147c-6.407-3.22-18.623-1.837-25.413.29-11.407 3.507-37.964 16.928-49.085 23.672-11.109 6.705-39.182 27.751-39.182 27.751s-12.23-15.188-18.696-21.046a640.756 640.756 0 00-9.354-8.472l-5.235 27.179s5.56-1.172 9.33.595c2.042.955 21.07 22.787 24.268 26.87 3.21 4.08.217 8.313-1.167 9.663-14.366 13.661-30.64 35.817-38.897 46.327-9.941 12.567-23.444 39.78-27.144 48.333-.979 2.216-1.756-.595-7.278.287-5.595.881-13.777 3.507-13.777 3.507l13.159 17.54s5.75-3.868 13.05-5.04c5.669-.885 10.63.716 12.385 3.287 2.112 3.11 4.989 5.951 4.095 11.384-.657 3.778-2.34 7.614-6.72 11.387-4.404 3.794-4.292 3.84-5.178 9.114-.348 2.22 1.435 7.467 5.333 6.369 7.11.382 3.928-9.33 3.928-9.33s-.584-1.188.584-5.863c1.18-4.678 7.3-4.678 9.652-10.215 2.339-5.565 2.304-14.241 1.133-18.619-1.207-4.392-6.098-5.927-9.03-7.969-2.923-2.053-1.755-5.262-1.755-5.262s4.961-11.991 19.005-34.766c14.01-22.798 36.735-43.392 46.734-53.178 35.927-35.199 86.098-55.17 101.299-60.035 39.754-12.79 81.357-13.626 81.357-13.626v-71.55c-.008 0-4.312 3.268-7.892 4.08zm-15.235 29.244s-.824-5.259-.36-6.74c.885-2.923 6.241-2.745 6.241-2.745l.128 9.485zM259.232 122.94c-28.622 14.604-49.898 33.454-49.898 33.454s-9.713-5.274-4.415-9.686c5.235-4.365 22.323-15.726 33.92-23.621 18.123-12.277 39.754-20.463 39.754-20.463s8.483-3.213 13.158-2.053c3.57.955 6.206 4.976 6.206 4.976s-23.715 9.783-38.725 17.393z"/></g><path d="M49.913 5.817s.49.422 1.258 1.128c.245.225 1.138.94 1.19 1.123.012.042.063.966.063.966l.008.122s-.384-.289-1.178-.184c-.465.061-1.055.283-1.065.681-.608-.612-.835-1.289-.82-1.973.015-.696.252-1.348.5-1.833.02-.033.044-.03.044-.03z" stroke-miterlimit="3.864" fill="#fff" fill-rule="evenodd" stroke="#000" stroke-width=".029" transform="matrix(37.38302 0 0 62.94324 -1567.748 -169.439)"/><path d="M51.921 9.118c-.017.222.02.625-.236.89" stroke-miterlimit="3.864" fill="none" stroke="#fff" stroke-width=".029" transform="matrix(37.38302 0 0 62.94324 -1567.748 -169.439)"/><g fill="#02bee7" fill-rule="evenodd"><path d="M276.253 472.557s18.035 5.67 26.287 3.33c5.073-1.438 9.926-7.044 19.674-7.044 9.76 0 13.708 5.01 26.7 5.892 13.008.886 16.898-5.053 21.024-6.244 4.126-1.187 9.149-3.948 20.629-.186 8.565 2.819 14.021 6.43 20.204 6.43 6.237 0 18.027-3.959 22.509-5.366 4.64-1.408 10.75-1.064 16.302.193 5.274 1.195 11.144 3.662 18.812 3.955 10.827.453 30.153-6.87 35.192-6.925 6.19-.02 17.729 5.617 17.729 5.617l-2.576 2.421s-8.665-5.316-15.153-5.316c-8.546 0-18.201 6.945-30.939 7.734-10.494.638-22.064-6.558-34.031-5.414-5.023.488-19.497 6.957-26.283 6.957-6.794 0-25.989-9.667-30.93-9.667-10.07 0-16.237 8.128-27.056 9.268-9.748 1.064-22.803-6.558-33.255-6.175-7.764.282-12.095 6.365-15.47 7.347-10.132 2.904-22.026-1.558-22.026-1.558z"/><path d="M297.413 488.167c5.057-1.415 15.056-9.658 24.805-9.658 9.76 0 13.707 5.012 26.7 5.89 13.008.873 16.898-5.043 21.024-6.253 4.125-1.164 9.148-3.92 20.629-.162 8.565 2.803 14.02 6.414 20.204 6.414 6.237 0 18.027-3.963 22.508-5.343 4.64-1.447 10.75-1.071 16.303.193 5.274 1.187 11.144 3.155 18.812 3.94 15.413 1.597 33.051-8.412 44.25-4.144 2.196.843-1.111 3.656-3.138 2.535-4.583-2.536-24.125 4.374-36.863 5.14-10.494.637-22.064-6.59-34.031-5.414-5.023.487-19.497 6.956-26.283 6.956-6.794 0-25.989-9.667-30.93-9.667-10.07 0-16.237 8.128-27.056 9.28-9.748 1.052-22.803-6.569-33.255-6.175-7.764.283-17.452 7.697-20.577 9.274z"/><path d="M306.59 495.713c4.115-2.311 5.93-5.592 15.628-6.373 13.553-1.079 13.707 5.011 26.7 5.893 13.008.858 16.898-5.073 21.024-6.245 4.125-1.171 9.148-3.94 20.629-.185 8.565 2.818 14.02 6.43 20.204 6.43 6.237 0 18.027-3.979 22.508-5.348 4.64-1.427 10.75-1.082 16.303.194 5.274 1.163 11.144 3.654 18.812 3.928 10.827.445 28.969-7.623 34.007-6.9l-5.026 3.478c-8.541 0-13.568 5.7-26.286 6.964-11.593 1.145-20.51-6.589-32.473-5.413-5.023.475-19.497 6.967-26.283 6.967-6.794 0-25.989-9.69-30.93-9.69-10.07 0-16.237 8.136-27.056 9.28-9.749 1.052-22.957-8.108-33.255-6.175-6.179 1.164-8.328 4.353-11.692 5.304z"/><path d="M315.091 501.803c13.928-3.867 20.838 2.602 33.83 3.472 13.009.881 16.899-5.054 21.024-6.245 4.126-1.168 9.15-3.94 20.63-.162 8.565 2.814 14.02 6.407 20.204 6.407 6.237 0 18.027-3.98 22.508-5.336 4.64-1.439 10.75-1.071 16.303.193 5.274 1.164 19.723 4.831 27.445 5.144l-4.38 2.323c-10.839-.387-22.064-6.578-34.032-5.425-5.023.487-19.496 6.967-26.282 6.967-6.794 0-25.989-9.678-30.93-9.678-10.07 0-16.284 7.834-27.056 9.292-14.33 1.921-22.803-8.12-33.65-4.265z"/><path d="M331.91 511.95c9.737 0 3.633 2.087 16.625 2.995 12.98.874 17.277-5.061 21.407-6.252 4.125-1.168 9.148-3.94 20.629-.143 8.565 2.784 14.02 6.395 20.204 6.395 6.237 0 18.027-3.967 22.508-5.344 4.64-1.438 10.75-1.051 16.303.163 5.274 1.195 7.075 1.675 14.642 2.95 2.336.383-3.2 2.231-3.2 2.231-8.867 0-10.44-4.269-22.408-3.097-5.023.487-19.497 6.964-26.283 6.964-6.794 0-25.989-9.675-30.93-9.675-10.07 0-16.237 8.117-27.056 9.269-9.749 1.071-11.606-2.688-17.023-2.688z"/><path d="M352.8 524.604c12.753 0 14.28-3.774 18.147-5.606 3.708-1.74 8.143-4.188 19.624-.414 8.565 2.788 14.02 6.407 20.204 6.407 6.237 0 18.027-3.975 22.508-5.344 4.64-1.427 13.939-.182 19.484 1.083l-5.106 3.078c-10.069-3.492-28.538 5.05-35.324 5.05-6.794 0-25.989-9.748-30.93-9.667-11.199.193-11.305 7.85-23.478 9.006z"/><path d="M364.192 532.33c6.755-1.361 7.706-3.929 11.79-5.205 3.089-.962 3.317-1.5 14.782 2.278 8.542 2.795 14.491 6.88 20.72 6.88 6.164 0 18.264-7.972 22.443-5.324.727.313-3.432 2.357-3.432 2.357-7.354.56-11.407 5.587-19.496 5.587-8.545 0-26.12-10.053-31.143-9.079-9.536 1.84-6.956 2.498-11.024 4.25zM374.811 537.568c2.15-.587 2.35-3.034 13.838.72 8.546 2.808 13.998 6.43 20.2 6.43l-3.078 1.73c-6.79 0-20.298-7.345-27.088-6.959zM263.852 462.76s14.543-5.224 20.139-1.77c4.38 2.776 6.504 5.888 12.922 5.448 7.517-.53 13.855-5.824 24.206-6.806 4.753-.421 10.657.313 17.409 2.077 6.786 1.778 11.86 3.917 22.764-.53 7.014-2.862 12.636-5.963 24.17-3.886 11.5 2.053 18.933 6.357 25.723 6.357 7.37 0 24.635-4.594 35.578-2.471 8.84 1.74 18.147 4.234 25.513 3.878 8.113-.398 22.404-5.216 31.487-6.364 7.534-1.244 24.45 1.573 28.811 4.067 4.714 1.477 1.049.727 1.049.727l-3.53 2.987s-4.432-2.213-8.357-3.33c-3.816-1.122-8.627-3.724-17.81-1.965-9.126 1.794-23.158 6.202-31.283 6.202-10.069 0-21.298-1.697-29.004-3.48-7.664-1.76-26.236 2.977-32.872 2.691-9.833-.363-20.668-7.903-34.604-7.126-7.432.402-14.28 6.364-22.798 7.126-12.084 1.106-13.318-1.496-20.692-2.691-7.374-1.195-12.404-2.784-20.69.758-8.256 3.553-13.186 4.655-16.43 4.655-3.222 0-6.79-1.233-10.047-3.48-3.673-2.517-8.874-2.022-10.63-2.327-1.778-.283-6.79 2.327-6.79 2.327z"/></g><g fill-rule="evenodd" stroke-width=".647" stroke-miterlimit="3.864" fill="#fff" stroke="#000"><path d="M82.176 120.377s2.777 7.738 7.693 13.583c3.934 4.662 7.803 8.793 14.104 14.002 7.519 6.22 21.984 16.426 31.164 19.483 5.411 1.807 11.537 4.152 11.537 4.152.691.536.916 1.073.691 1.751-.229.686-.994 1.296-1.688 2.217-.682.914-.803 1.684-.37 2.215.409.523.989 1.142 2.359.609 1.771-.706 1.599-1.374 2.216-2.979.604-1.6.469-3.142.469-3.142s1.12-.277 1.861.095c.903.455 1.86.118 3.387.35 1.521.23 2.977-.28 3.364.333.389.612.765 1.45 1.78 1.636 1.295.232 2.413.092 3.032-.799.688-1.013.774-2.458-.234-3.664-.765-.914-2.366-1.223-5.042-1.676-2.671-.461-4.337-.23-5.032-.688-.688-.455-1.147-.765-1.073-1.372.083-.614-.143-1.148.462-2.06.611-.919.764-1.228 1.368-1.835.613-.612.312-1.681-.377-2.136-.688-.459-2.595-.459-3.283.764-.682 1.218-.916 1.597-.993 3.207-.074 1.6 0 1.5-.151 2.06-.303 1.218-1.277 1.063-3.508.38-8.072-2.477-13.42-4.863-21.3-9.468-11.632-6.774-23.972-15.558-33.062-25.387-4.018-4.33-9.374-11.631-9.374-11.631z" transform="matrix(3.86679 0 0 3.8667 -123.836 -79.606)"/><path d="M188.302 120.377s-2.793 7.738-7.708 13.583c-3.928 4.662-7.801 8.793-14.102 14.002-7.51 6.22-21.987 16.426-31.168 19.483-5.408 1.807-11.533 4.152-11.533 4.152-.679.536-.916 1.073-.679 1.751.222.686.99 1.296 1.679 2.217.688.914.805 1.684.38 2.215-.423.523-.991 1.142-2.371.609-1.774-.706-1.598-1.374-2.212-2.979-.611-1.6-.479-3.142-.479-3.142s-1.117-.277-1.854.095c-.907.455-2.243.506-3.773.738-1.537.23-2.585-.668-2.981-.055-.385.612-.768 1.45-1.783 1.636-1.281.232-2.41.092-3.024-.799-.697-1.013-.781-2.458.231-3.664.759-.914 2.364-1.223 5.039-1.676 2.669-.461 4.351-.036 5.039-.494.679-.455 1.142-.959 1.067-1.566-.077-.614.154-1.148-.45-2.06-.617-.919-.778-1.228-1.382-1.835-.611-.612-.302-1.681.385-2.136.682-.459 2.589-.459 3.277.764.688 1.218.917 1.597.991 3.207.077 1.6 0 1.5.164 2.06.299 1.218 1.274 1.063 3.511.38 8.072-2.477 13.404-4.863 21.294-9.468 11.636-6.774 23.965-15.558 33.064-25.387 4.014-4.33 9.378-11.631 9.378-11.631z" transform="matrix(3.86679 0 0 3.8667 -123.836 -79.606)"/></g><path d="M49.92 5.796l-.066.038c.689.702 1.743 1.52 2.527 2.258l.027-.066z" fill-rule="evenodd" stroke="#000" stroke-width=".021" transform="matrix(37.38302 0 0 62.94324 -1567.748 -169.439)"/><path d="M49.46 9.79c.437.125.763.06 1.037-.04.643-.234.716-.307 1.404-.508.13.02.254.143.442.346" fill="none" stroke="#fff" stroke-width=".021" transform="matrix(37.38302 0 0 62.94324 -1567.748 -169.439)"/><path d="M335.68 240.09c-.413 3.39-.355 8.174-.18 11.074l-4.58-.155c.243-3.752-1.205-7.563.131-10.909z" fill-rule="evenodd"/></svg>