<svg xmlns="http://www.w3.org/2000/svg" xmlns:xlink="http://www.w3.org/1999/xlink" version="1.0" width="670.378" height="732.24"><defs><radialGradient xlink:href="#a" id="d" cx="1997.255" cy="257.878" fx="1997.255" fy="257.878" r="69.506" gradientTransform="matrix(-.00668 .67526 -.61841 -.00612 2170.068 -1090.671)" gradientUnits="userSpaceOnUse"/><radialGradient xlink:href="#b" id="c" cx="1993.186" cy="253.59" fx="1993.186" fy="253.59" r="51.981" gradientUnits="userSpaceOnUse" gradientTransform="matrix(.96154 -.03846 .03997 .9992 69.597 77.692)"/><linearGradient id="b"><stop offset="0" stop-color="#f37d00"/><stop offset=".5" stop-color="#ea9704"/><stop offset=".75" stop-color="#dfb609"/><stop offset="1" stop-color="#d4d50f" stop-opacity=".114"/></linearGradient><linearGradient id="a"><stop offset="0" stop-color="#fb6a00"/><stop offset=".25" stop-color="#f26c00"/><stop offset=".5" stop-color="#ea9704"/><stop offset="1" stop-color="#d4d50f"/></linearGradient></defs><path d="M325.812 376.194v23.133a79.737 79.737 0 00-10.813 1.74l-7.129-22.045-13.106 4.237 7.113 21.998a79.737 79.737 0 00-7.106 3.403l-12.78-19.236-11.471 7.62 12.713 19.139a79.737 79.737 0 00-6.76 6.052l-17.628-14.732-8.832 10.569 17.58 14.691a79.737 79.737 0 00-5.322 8.657l-21.095-8.781-5.293 12.716 21.021 8.749a79.737 79.737 0 00-2.435 9.306l-22.572-2.27-1.377 13.705 22.522 2.263a79.737 79.737 0 00-.08 1.605 79.737 79.737 0 00.293 6.416l-22.215 3.895 2.377 13.566 22.15-3.882a79.737 79.737 0 001.808 5.874l-20.503 9.239 5.66 12.559 20.421-9.202a79.737 79.737 0 004.352 7l-17.113 14.388 8.864 10.542 17.017-14.308a79.737 79.737 0 007.629 6.702l-12.05 18.699 11.577 7.463 11.994-18.612a79.737 79.737 0 007.52 3.505l-6.473 21.161 13.17 4.03 6.464-21.131a79.737 79.737 0 009.908 1.49v22.09h13.773v-22.099a79.737 79.737 0 0011.126-1.81l6.815 21.081 13.107-4.239-6.82-21.092a79.737 79.737 0 007.312-3.557l12.28 18.487 11.472-7.62-12.273-18.474a79.737 79.737 0 006.862-6.264l17.086 14.279 8.831-10.569-17.1-14.29a79.737 79.737 0 005.26-8.885l20.677 8.606 5.294-12.714-20.693-8.615a79.737 79.737 0 002.262-9.427l22.416 2.254 1.378-13.704-22.47-2.258a79.737 79.737 0 00.029-.574 79.737 79.737 0 00-.417-7.429l22.337-3.916-2.377-13.568-22.374 3.922a79.737 79.737 0 00-1.883-5.78l20.803-9.373-5.66-12.557-20.894 9.415a79.737 79.737 0 00-4.343-6.825l17.577-14.776-8.864-10.544-17.602 14.798a79.737 79.737 0 00-7.493-6.497l12.499-19.394-11.577-7.461-12.503 19.4a79.737 79.737 0 00-7.298-3.363l6.76-22.094-13.17-4.029-6.759 22.092a79.737 79.737 0 00-9.613-1.413v-23.127zm4.873 64.803a36.681 36.681 0 0136.681 36.68 36.681 36.681 0 01-36.681 36.682 36.681 36.681 0 01-36.682-36.682 36.681 36.681 0 0136.682-36.68z" style="line-height:normal;font-variant-ligatures:normal;font-variant-position:normal;font-variant-caps:normal;font-variant-numeric:normal;font-variant-alternates:normal;font-feature-settings:normal;text-indent:0;text-align:start;text-decoration-line:none;text-decoration-style:solid;text-decoration-color:#000;text-transform:none;text-orientation:mixed;white-space:normal;shape-padding:0;isolation:auto;mix-blend-mode:normal;solid-color:#000;solid-opacity:1" color="#000" font-weight="400" font-family="sans-serif" overflow="visible" fill="#13406b" fill-rule="evenodd"/><path d="M323.156 376.194v23.133a79.737 79.737 0 00-10.812 1.74l-7.13-22.045-13.106 4.237 7.114 21.998a79.737 79.737 0 00-7.106 3.403l-12.78-19.236-11.472 7.62 12.713 19.139a79.737 79.737 0 00-6.76 6.052l-17.628-14.732-8.831 10.569 17.58 14.691a79.737 79.737 0 00-5.323 8.657l-21.094-8.781-5.294 12.716 21.021 8.749a79.737 79.737 0 00-2.434 9.306l-22.572-2.27-1.378 13.705 22.522 2.263a79.737 79.737 0 00-.08 1.605 79.737 79.737 0 00.294 6.416l-22.215 3.895 2.377 13.566 22.15-3.882a79.737 79.737 0 001.807 5.874l-20.502 9.239 5.659 12.559 20.421-9.202a79.737 79.737 0 004.353 7l-17.113 14.388 8.864 10.542 17.017-14.308a79.737 79.737 0 007.628 6.702l-12.05 18.699 11.577 7.463 11.994-18.612a79.737 79.737 0 007.521 3.505l-6.473 21.161 13.17 4.03 6.464-21.131a79.737 79.737 0 009.907 1.49v22.09h13.774v-22.099a79.737 79.737 0 0011.125-1.81l6.816 21.081 13.106-4.239-6.819-21.092a79.737 79.737 0 007.311-3.557l12.28 18.487 11.472-7.62-12.272-18.474a79.737 79.737 0 006.861-6.264l17.086 14.279 8.832-10.569-17.1-14.29a79.737 79.737 0 005.26-8.885l20.677 8.606 5.294-12.714-20.693-8.615a79.737 79.737 0 002.261-9.427l22.417 2.254 1.378-13.704-22.47-2.258a79.737 79.737 0 00.028-.574 79.737 79.737 0 00-.417-7.429l22.338-3.916-2.377-13.568-22.374 3.922a79.737 79.737 0 00-1.883-5.78l20.802-9.373-5.659-12.557-20.894 9.415a79.737 79.737 0 00-4.343-6.825l17.576-14.776-8.864-10.544-17.601 14.798a79.737 79.737 0 00-7.494-6.497l12.5-19.394-11.578-7.461-12.503 19.4a79.737 79.737 0 00-7.298-3.363l6.76-22.094-13.17-4.029-6.758 22.092a79.737 79.737 0 00-9.613-1.413v-23.127zm7.529 64.803a36.681 36.681 0 0136.681 36.68 36.681 36.681 0 01-36.681 36.682 36.681 36.681 0 01-36.682-36.682 36.681 36.681 0 0136.682-36.68z" style="line-height:normal;font-variant-ligatures:normal;font-variant-position:normal;font-variant-caps:normal;font-variant-numeric:normal;font-variant-alternates:normal;font-feature-settings:normal;text-indent:0;text-align:start;text-decoration-line:none;text-decoration-style:solid;text-decoration-color:#000;text-transform:none;text-orientation:mixed;white-space:normal;shape-padding:0;isolation:auto;mix-blend-mode:normal;solid-color:#000;solid-opacity:1" color="#000" font-weight="400" font-family="sans-serif" overflow="visible" fill="#0071e3" fill-rule="evenodd" stroke="#13406b" stroke-width=".98382"/><path d="M330.685 417.75a59.928 59.928 0 00-59.93 59.927 59.928 59.928 0 0059.93 59.929 59.928 59.928 0 0059.928-59.929 59.928 59.928 0 00-59.928-59.927zm0 22.022a37.906 37.906 0 0137.907 37.905 37.906 37.906 0 01-37.907 37.907 37.906 37.906 0 01-37.908-37.907 37.906 37.906 0 01.19-3.785 37.906 37.906 0 0137.718-34.12z" fill="#1f216a" paint-order="fill markers stroke"/><path d="M330.685 419.688a57.99 57.99 0 00-57.992 57.989 57.99 57.99 0 0057.992 57.991 57.99 57.99 0 0057.991-57.991 57.99 57.99 0 00-57.991-57.99zm0 21.31a36.681 36.681 0 0136.681 36.679 36.681 36.681 0 01-36.681 36.682 36.681 36.681 0 01-36.682-36.682 36.681 36.681 0 01.182-3.662 36.681 36.681 0 0136.5-33.018z" fill="#043b88" paint-order="fill markers stroke"/><path d="M526.01 494.68c12.446-22.697 24.042-56.249 26.266-76 .372-3.3 1.303-9.067 2.069-12.816 2.367-11.582 2.056-13.29-3.497-19.161-6.284-6.645-8.785-11.651-10.625-21.263-4.214-22.023.404-41.978 12.433-53.723l5.082-4.962-.013-6.538c-.02-10.013-6.275-44.464-8.095-60.963-2.359-21.39-19.868-48.371-21.213-68.154 2.773-2.772 32.403 25.093 40.493 38.08 12.198 19.582 17.25 31.448 22.905 53.795 4.738 18.72 7.723 37.08 8.795 54.086l.785 12.454 3.922 3.394c2.156 1.867 6.284 5.22 9.171 7.453 2.888 2.232 5.25 4.608 5.25 5.281s-3.543 4.214-7.872 7.867c-8.268 6.978-9.128 8.564-9.128 16.847 0 2.16-.627 6.942-1.394 10.625a528.332 528.332 0 00-2.62 13.698c-4.67 26.68-14.616 55.198-26.235 75.222-13.6 24.528-32.966 45.199-58.002 57.952-28.261 16.58 6.62-24.573 11.523-33.174zm31.122-121.75c.942-7.757 1.657-41.172.985-46.037-.363-2.632-1.124-4.632-1.69-4.443-2.103.7-6.677 11.454-7.707 18.116-1.839 11.898.28 27.785 4.58 34.347 2.186 3.337 3.252 2.785 3.832-1.983zM137.294 487.259c-12.447-22.696-24.043-56.249-26.267-76-.372-3.3-1.303-9.067-2.069-12.816-2.367-11.582-2.055-13.29 3.497-19.161 6.284-6.645 8.786-11.651 10.625-21.262 4.214-22.024-.404-41.98-12.432-53.724l-5.083-4.962.014-6.538c.02-10.013 6.275-44.464 8.094-60.963 2.36-21.39 19.868-48.371 21.213-68.154-49.895 20.253-68.181 98.281-72.193 145.96l-.785 12.455-3.921 3.394c-2.157 1.867-6.284 5.22-9.172 7.453-2.887 2.232-5.25 4.609-5.25 5.282 0 .672 3.543 4.213 7.873 7.867 8.268 6.977 9.127 8.563 9.127 16.846 0 2.16.628 6.942 1.395 10.625a528.332 528.332 0 012.62 13.698c11.052 57.028 33.138 102.64 84.236 133.174 28.262 16.58-6.62-24.573-11.522-33.174zm-31.122-121.75c-.943-7.757-1.658-41.172-.986-46.037.364-2.632 1.124-4.632 1.69-4.443 2.103.7 6.677 11.454 7.707 18.117 1.839 11.897-.279 27.784-4.579 34.346-2.186 3.337-3.253 2.785-3.832-1.983z" fill="#e2ba65"/><path d="M283.754 506.487c-4.217-2.068-6.17-4.253-11.57-12.94-10.497-16.887-20.59-27.848-25.644-27.848-.781 0-2.677-1.47-4.212-3.266-3.294-3.852-9.746-7.78-16.51-10.052-2.67-.897-6.054-2.396-7.52-3.332-1.465-.935-5.835-2.745-9.711-4.023-3.876-1.278-9.507-3.539-12.512-5.024-3.006-1.485-6.404-2.71-7.55-2.722-1.148-.012-5.045-.836-8.661-1.832-3.617-.996-7.748-1.81-9.182-1.81-3.073 0-11.523-4.776-13.425-7.589-.732-1.081-2.345-4.715-3.585-8.075-1.24-3.36-3.033-6.84-3.985-7.732-1.271-1.19-1.732-2.818-1.732-6.122 0-4.249.111-4.463 1.99-3.847 7.476 2.45 11.595 5.365 11.09 7.848-.144.713.501 1.25 1.518 1.262 2.056.024 11.571 4.97 17.06 8.868 7.862 5.584 11.286 6.625 22.308 6.782 9.595.137 11.705.454 21.043 3.163 2.086.606 4.061.822 4.39.481.33-.34-2.445-6.939-6.166-14.662l-6.764-14.043-6.35-3.79c-3.493-2.086-10.96-5.658-16.593-7.939-8.573-3.47-12.38-4.442-23.346-5.957-18.656-2.577-26.401-4.253-28.512-6.17-1.013-.92-2.936-2.154-4.274-2.743-1.339-.59-2.433-1.66-2.433-2.378 0-.72-1.394-3.034-3.097-5.145-1.703-2.11-3.096-4.34-3.096-4.953 0-.614 1.162-2.27 2.582-3.678l2.583-2.562 6.383 3.306c3.51 1.819 7.582 3.307 9.048 3.307 1.932 0 3.818 1.117 6.858 4.061 4.98 4.824 9.038 5.954 14.976 4.17 2.209-.664 5.669-1.383 7.69-1.598 4.8-.511 23.308 3.168 25.3 5.029 1.433 1.34 1.547 1.28 1.547-.814 0-2.595-4.616-17.283-6.725-21.397-1.918-3.743-.376-10.52 2.394-10.52 2.36 0 5.216 1.621 5.216 2.96 0 .585.97 2.529 2.156 4.32 1.271 1.918 3.606 8.896 5.685 16.995 1.941 7.557 4.773 17.245 6.292 21.527a1275.73 1275.73 0 014.992 14.367c2.714 8.015 4.333 9.821 5.632 6.284.494-1.347.899-3.07.899-3.83 0-.76 1.21-7.099 2.688-14.088 2.788-13.181 6.448-22.09 14.48-35.252 4.812-7.887 12.728-16.031 15.582-16.031 3.575 0 4.444 1.487 3.136 5.373-.617 1.83-1.399 7.245-1.739 12.032-.716 10.082-3.093 22.125-6.402 32.428-1.928 6.005-3.906 9.417-11.62 20.034l-9.298 12.797 3.419 7.261c1.88 3.994 4.126 7.924 4.991 8.734 1.792 1.68 2.085 4.524.521 5.063-1.103.381-.078 1.524 5.258 5.864 3.283 2.67 13.761 18.581 16.941 25.726 1.17 2.627 2.463 4.56 2.875 4.297.411-.263.748-5.504.748-11.646 0-6.245.6-14.398 1.358-18.496.747-4.03 1.754-10.214 2.238-13.74 1.465-10.669 3.384-15.817 6.287-16.865 1.376-.497 2.503-.695 2.503-.44 0 .255.844 4.665 1.875 9.8 2.716 13.52 1.875 28.767-2.378 43.095-1.667 5.616-3.032 11.735-3.033 13.597-.004 3.93 4.943 13.37 8.384 16.003 2.115 1.618 2.151 1.816.971 5.344-1.387 4.146-2.476 4.629-6.262 2.773z" fill="#35b95d"/><path d="M278.42 500.737c-2.615-2.897-7.176-8.897-10.136-13.334-7.49-11.226-12.53-16.77-19.386-21.32-3.24-2.15-7.698-5.338-9.906-7.082-5.142-4.064-22.225-12.675-30.237-15.242-3.406-1.09-7.188-2.33-8.404-2.754-11.355-3.959-19.287-6.107-27.348-7.405-3.12-.502-6.99-1.756-8.6-2.787-4.151-2.656-9.782-9.562-11.02-13.513-.578-1.847-1.766-4.413-2.639-5.704-.873-1.29-1.873-3.557-2.221-5.038l-.634-2.692 2.027 1.832c1.114 1.008 3.1 4.168 4.414 7.022 2.764 6.007 6.008 10.246 10.49 13.706 2.888 2.23 3.27 2.313 4.253.937.824-1.155 1.327-1.26 2.128-.442.625.638 2.31.858 4.173.545 2.317-.39 3.403-.131 4.203 1.001.956 1.355 1.202 1.37 2.187.142 1.477-1.842 3.535-1.751 4.928.219.717 1.015 2.377 1.629 4.52 1.673 21.964.452 26.832.867 26.832 2.285 0 .413-3.737.653-8.305.533s-9.64.247-11.271.816c-2.876 1.002-2.908 1.067-1.042 2.1 1.058.587 2.846 1.08 3.972 1.097 1.127.018 3.641.828 5.588 1.801 1.946.974 4.733 1.799 6.193 1.834 1.46.035 3.649.653 4.865 1.373 1.217.72 3.062 1.323 4.1 1.341 1.04.018 2.542 1.063 3.339 2.323.797 1.26 1.876 2.29 2.399 2.29.522 0 4.309 2.267 8.414 5.038 4.106 2.771 7.67 5.038 7.92 5.038 1.48 0-7.116-10.59-15.239-18.779-5.08-5.12-6.244-7.786-3.399-7.786 3.123 0 2.088-3.91-4.767-18.023l-7.042-14.496-7.373-4.234c-12.024-6.905-24.603-11.487-34.798-12.676-4.865-.567-13.566-1.852-19.333-2.855-9.238-1.606-10.969-2.204-14.532-5.021-2.224-1.76-4.812-4.528-5.749-6.153-.937-1.625-2.691-4.043-3.898-5.373-1.465-1.616-1.863-2.63-1.198-3.056 1.323-.847 3.19.855 5.397 4.922 1.991 3.669 6.44 7.203 11.354 9.022 2.89 1.07 15.635 2.413 19.997 2.107.973-.068 6.149-.227 11.501-.354 5.352-.126 10.826-.564 12.164-.974 1.936-.593 2.433-.447 2.433.71 0 1.684-3.512 2.836-6.414 2.104-1.094-.276-2.893.007-3.996.629-1.863 1.05-1.539 1.273 4.534 3.123 3.596 1.095 10.426 3.885 15.177 6.199 5.7 2.776 8.935 3.898 9.513 3.3 1.294-1.34 7.715 7.454 11.28 15.45 1.01 2.267 2.858 5.652 4.105 7.522 1.987 2.98 2.427 3.235 3.558 2.064.742-.768 1.059-2.092.746-3.114-.3-.977-.16-2.524.31-3.438.47-.913 1.327-4.752 1.904-8.53 1.394-9.116 3.697-16.134 8.568-26.107 4.768-9.763 14.984-26.108 16.318-26.108.516 0 .7.64.411 1.422-.29.783.075 2.373.81 3.536 1.415 2.235.881 5.447-.802 4.832-.549-.2-.883-1.454-.743-2.786.14-1.333-.158-2.423-.663-2.423s-.918.953-.918 2.117c0 1.283-1.029 2.906-2.609 4.115-3.147 2.41-12.431 21.764-12.431 25.915 0 1.926 2.668-.56 3.541-3.3.535-1.678 1.55-3.547 2.255-4.153.705-.606 1.282-1.697 1.282-2.425 0-.727.949-2.635 2.109-4.239 1.16-1.604 2.369-3.805 2.687-4.892.319-1.087 1.188-2.219 1.933-2.515.94-.373 1.17-1.17.752-2.604-.478-1.636-.372-1.838.506-.974.882.867.108 3.402-3.777 12.367-9.063 20.914-15.411 38.298-13.987 38.298 1.898 0 13.102-17.278 15.946-24.589.968-2.488.977-3.198.051-3.79-.626-.401-.84-1.232-.473-1.846.513-.859.853-.83 1.478.127.66 1.011.776.987.626-.131-.36-2.672 1.208-8.245 2.318-8.245.619 0 1.315-1.03 1.548-2.29.284-1.535.026-2.29-.782-2.29-1.4 0-1.548-1.695-.32-3.664.716-1.145.86-1.076.872.412.03 3.875 1.685-.338 3.582-9.114 1.089-5.039 2.229-9.454 2.533-9.813 1-1.177-.655 19.443-2.099 26.152-3.59 16.678-7.94 25.828-19.02 39.997-2.562 3.275-5.071 6.882-5.578 8.016-.507 1.133-1.454 2.06-2.106 2.06-.652 0-1.185.634-1.185 1.407 0 1.146-.345 1.215-1.864.374-1.466-.813-1.754-1.601-1.349-3.697.287-1.484.133-2.664-.348-2.664-.474 0-.862.584-.862 1.298 0 .714-.4 1.436-.89 1.605-.53.183-.168 2.337.899 5.343 1.085 3.059 1.578 6.035 1.256 7.577-.46 2.203-.183 2.665 2.083 3.483 1.81.653 3.376 2.407 5.093 5.705 4.856 9.325 10.327 15.567 13.066 14.907.946-.227 1.817.242 2.125 1.146.288.843 1.108 2.238 1.823 3.101.715.863 1.05 2.243.744 3.067-.347.938.522 2.923 2.322 5.302 4.135 5.468 10.047 11.59 11.192 11.59.54 0 .982.426.982.948 0 .521.653 1.98 1.45 3.24l1.45 2.292 1.005-2.087c2.33-4.84 7.166-1.929 6.166 3.712-.326 1.84-.934 3.482-1.35 3.65-1.366.55-.795 2.816.952 3.785 2.457 1.361 2.905 1.187 2.27-.884-.823-2.685.41-2.202 4.751 1.863 3.798 3.556 3.84 3.66 2.413 5.916-2.29 3.617-4.755 2.888-10.043-2.97zm-44.5-95.78c.073-2.461-1.44-1.047-2.007 1.875-1.553 8.004-1.55 8.06.21 3.904.961-2.267 1.769-4.868 1.796-5.78zm2.993-11.056c1.589-2.51 1.987-6.066.68-6.066-1.151 0-2.63 4.901-3.13 10.38-.351 3.842-.3 4.102.27 1.379.386-1.846 1.367-4.408 2.18-5.693zm36.07 83.081c-1.623-3.686-2.206-16.394-1.086-23.65 2.821-18.273 4.691-27.513 6.4-31.627 1.894-4.558 4.077-6.383 2.985-2.495-1.547 5.508-2.545 8.891-3.983 13.511-1.677 5.383-2.121 10.993-.871 10.993.418 0 .943-.722 1.165-1.603.223-.882.411 1.282.42 4.809.02 9.318-1.356 12.932-1.57 4.122l-.168-6.87-1.251 4.58c-1.486 5.436-1.304 10.992.359 10.992.798 0 1.273 1.815 1.52 5.812.3 4.884.146 5.728-.969 5.285-1.114-.443-1.233.202-.742 4.036.645 5.035-.458 6.086-2.21 2.105zm4.119 1.35c-.214-.65-.056-1.801.35-2.557 1.415-2.628 5.839-17.883 6.11-21.069.15-1.763.3-6.813.332-11.222.051-6.913.267-8.016 1.565-8.016 1.337.001 1.453.893 1.04 8.017-.537 9.25-2.188 18.743-4.822 27.722-1.876 6.397-3.82 9.425-4.575 7.125zm-14.647-4.572c-.583-.605-1.061-1.416-1.061-1.804 0-1.14 2.473.179 3 1.6.59 1.59-.49 1.703-1.939.204zm-18.534-26.084c-1.094-.79-1.99-2.354-1.99-3.474s-.839-2.822-1.864-3.782c-1.025-.96-2.632-3.305-3.572-5.212-1.646-3.339-3.411-3.859-3.411-1.005 0 .756-.398 1.12-.885.808-.486-.311-.884-1.524-.884-2.695 0-1.785.428-2.106 2.655-1.99 2.287.119 3.115.962 5.971 6.084 3.113 5.582 6.639 12.859 6.178 12.752-.114-.027-1.103-.695-2.198-1.486zm-24.107-14.039c-1.144-.765-1.12-.89.169-.902.822-.007 1.742.398 2.042.902.692 1.16-.479 1.16-2.211 0zm63.697-5.954c0-1.366.38-2.154.885-1.832.486.311.884 1.136.884 1.832 0 .696-.398 1.52-.884 1.832-.504.322-.885-.466-.885-1.832zm-94.081-.576c-1.87-1.016-3.264-1.987-3.097-2.159.168-.172 2.096.046 4.286.484 2.19.439 6.867.815 10.395.837 3.66.023 6.414.433 6.414.956 0 .504-.896.957-1.99 1.008-1.095.05-4.38.233-7.3.406-4.038.24-6.12-.127-8.708-1.532zm-15.178-3.437c-3.387-1.61-7.778-5.626-6.108-5.587.44.01 3.587 1.651 6.993 3.646 6.325 3.703 5.701 5.072-.885 1.941zm30.652-37.896c-1.08-2.669-1.487-5.622-1.292-9.39.222-4.314-.36-7.529-2.703-14.951-1.642-5.2-3.435-9.92-3.984-10.489-1.279-1.324-1.26-2.993.078-6.823 1.526-4.37 4.254-3.803 5.64 1.173l1.036 3.718-2.514-.382c-2.485-.377-2.504-.345-1.57 2.694.52 1.692 1.497 5.114 2.172 7.604.675 2.491 1.65 4.964 2.17 5.497.664.682.768.495.352-.636-.402-1.096-.159-1.603.77-1.603 2.014 0 4.155 2.598 4.018 4.875-.12 1.979-.124 1.978-.504-.066-.21-1.133-.953-2.06-1.649-2.06-.986 0-1.265 1.53-1.265 6.93 0 3.811.352 7.624.782 8.473 1.394 2.751 2.123 9.33 1.033 9.33-.546 0-1.703-1.753-2.57-3.894zm5.166 0c-.006-.63-.255-2.176-.553-3.435-.527-2.234-.506-2.245.869-.458 1.584 2.06 1.928 5.038.58 5.038-.486 0-.89-.515-.896-1.145zm-19.033-12.027c-.96-.696-2.541-1.472-3.514-1.726-.974-.254-.179-.504 1.769-.554 3.962-.104 6.286.99 5.37 2.525-.796 1.333-1.512 1.285-3.625-.245zm19.35-1.066c-.288-.777-.326-1.618-.084-1.868.241-.25.651.385.911 1.413.551 2.183-.061 2.52-.827.455zm46.583-26.984a.93.93 0 01.937-.916c.516 0 .691.412.39.916-.3.504-.722.916-.936.916-.215 0-.39-.412-.39-.916z" fill="#009d31"/><g stroke="#e7c460" fill-rule="evenodd"><path d="M559.007 626.594c-1.58 4.29-13.086 19.777-22.007 20.07 0 0-13.204 3.346-18.486 5.106-.528 2.993-6.338-22.887-6.338-22.887s37.148-10.387 46.831-2.289z" fill="#e49824"/><path d="M542.81 607.228c-3.986 5.802-13.254 13.472-29.93 22.183 10.085-4.669 28.278-5.829 33.803-7.042-.284-4.91-2.175-7.739-3.873-15.14z" fill="#f7e964"/><path d="M538.761 604.411c2.873-.089 4.942 1.467 3.697 4.578-3.71 4.87-16.86 13.564-30.105 20.774.487 4.394 2.945 8.17 2.64 11.62-3.297 2.57-6.953 3.749-11.795 4.754-4.843 1.004-17.347 3.191-20.247.528-.083-.727.163-4.69-.352-5.986 12.337-7.634 48.008-30.193 56.162-36.268z" fill="#f07a01"/></g><path d="M102.846 621.343c-3.61 7.941-5.945 10.254-16.902 27.465 77.071 96.788 380.913 120.602 489.437 7.746-9.786-18.489-10.306-18.165-16.197-30.281-80.54 105.49-367.518 99.805-456.338-4.93z" fill="#f7e964" fill-rule="evenodd" stroke="#e7c460"/><path d="M103.022 621.167c1.58 4.29 13.086 19.777 22.007 20.07 0 0 13.204 3.346 18.486 5.106.528 2.993 6.338-22.887 6.338-22.887s-37.148-10.387-46.831-2.289z" fill="#e49824" fill-rule="evenodd" stroke="#e7c460"/><path d="M119.219 601.801c3.986 5.802 13.254 13.472 29.93 22.183-10.085-4.669-28.278-5.829-33.803-7.042.284-4.91 2.175-7.739 3.873-15.141z" fill="#f7e964" fill-rule="evenodd" stroke="#e7c460"/><path d="M123.268 598.984c-2.873-.09-4.942 1.467-3.697 4.578 3.71 4.87 16.86 13.564 30.105 20.774-.487 4.393-2.945 8.17-2.64 11.62 3.297 2.57 6.953 3.749 11.795 4.753 4.843 1.005 17.347 3.192 20.247.529.083-.727-.163-4.691.352-5.986-12.337-7.634-48.008-30.193-56.162-36.268z" fill="#f07a01" fill-rule="evenodd" stroke="#e7c460"/><path style="line-height:normal;font-variant-ligatures:normal;font-variant-position:normal;font-variant-caps:normal;font-variant-numeric:normal;font-variant-alternates:normal;font-feature-settings:normal;text-indent:0;text-align:start;text-decoration-line:none;text-decoration-style:solid;text-decoration-color:#000;text-transform:none;text-orientation:mixed;white-space:normal;shape-padding:0;isolation:auto;mix-blend-mode:normal;solid-color:#000;solid-opacity:1" d="M335.19-.05C150.182-.05-.028 150.603 0 336.048v.004c-.027 185.445 150.183 336.1 335.19 336.1 185.006 0 335.215-150.656 335.187-336.102C670.405 150.605 520.197-.051 335.189-.051zm0 25.55c171.16 0 309.665 138.875 309.638 310.549v.004c.027 171.674-138.478 310.549-309.639 310.549-171.16 0-309.665-138.875-309.638-310.55v-.003C25.524 164.375 164.029 25.5 335.189 25.5z" color="#000" font-weight="400" font-family="sans-serif" overflow="visible" fill="#009d31" stroke="#10556b" stroke-width="3"/><path d="M105.696 622.723c8.065 46.774 309.678 153.226 452.42 5.645" fill="none"/><path d="M199.952 573.774L173.1 587.633s63.634 79.63 156.236 40.17c.308-.132-29.715-15.456-34.893-15.07-72.455 5.38-94.254-38.722-94.491-38.96zM250.846 662.843s42.18 5.687 61.612-8.057c19.431-13.744 83.412-13.744 83.412-13.744s9.665 19.416-17.536 25.593c-33.735 7.66-33.649 2.843-33.649 2.843s-43.77 33.083-74.881 15.166c-13.761-7.924-19.432-19.905-18.958-21.8z" fill="#009d31" fill-rule="evenodd" stroke="#10556b" stroke-width="3"/><path d="M296.344 614.502s-48.341-3.317-49.763-7.109c-1.422-3.791 16.588-18.01 42.18-15.64 25.592 2.37 39.81 9.953 39.81 9.953s45.68 19.975 54.029 21.327c2.52.408 15.166 20.135 15.166 20.135s-54.029-3.074-67.773-13.5c-13.744-10.427-33.175-14.218-33.65-15.166z" fill="#009d31" fill-rule="evenodd" stroke="#10556b" stroke-width="3"/><path d="M330.941 677.535l11.848-7.109s69.669-1.422 51.66-30.805c-18.01-29.384-46.92-22.275-46.92-22.275s-22.749-9.953-23.697-16.114c-.948-6.161 105.652-19.538 102.844 45.971-.396 5.702-10.427 61.612-95.735 30.332z" fill="#009d31" fill-rule="evenodd" stroke="#10556b" stroke-width="3"/><path d="M415.203 614.181s32.842-7.349 55.63-36.36c.829-1.054 16.254 18.431 16.254 18.431s-42.56 38.204-60.992 36.361c-18.432-1.843-10.557-18.6-10.892-18.432z" fill="#009d31" fill-rule="evenodd" stroke="#10556b" stroke-width="3"/><g fill="#f07a01" fill-rule="evenodd" stroke="#e6bd7b" stroke-width="1.006"><path d="M497.67 165.997l-2.624 17.44s-12.099-15.422-23.563-22.835c11.814 6.344 26.188 5.395 26.188 5.395z" fill="#f7e964"/><path d="M506.718 163.3c-2.494-3.608-14.1-19.828-14.1-19.828s-9.403-.73-15.07-5.45c-2.179 5.489-4.579 13.187-7.75 20.826 17.351 11.282 32.676 8.687 36.92 4.452z"/><path d="M470.258 159.253s22.233 20.088 24.951 24.183c-7.246 11.434-27.954-12.535-27.954-12.535s-10.847-3.695-20.594-6.291c.81-5.492 1.238-22.217 1.238-22.217s16.382-.089 26.229 4.427c-1.302 4.39-3.87 12.433-3.87 12.433z"/></g><path d="M166.744 167.916l9.04 15.725s6.41-13.707 18.44-21.12c-12.397 6.343-27.48 5.395-27.48 5.395z" fill="#f7e964" fill-rule="evenodd" stroke="#e6bd7b" stroke-width="1.031"/><path d="M157.251 165.219c2.617-3.609 14.797-19.828 14.797-19.828s9.866-.73 15.812-5.45c2.286 5.488 4.805 13.186 8.132 20.826-18.207 11.282-34.288 8.687-38.74 4.452z" fill="#f07a01" fill-rule="evenodd" stroke="#e6bd7b" stroke-width="1.031"/><path d="M195.51 161.172s-18.187 18.373-21.04 22.47c7.605 11.433 24.192-10.822 24.192-10.822s11.667-5.98 21.895-8.577c-.85-5.492-4.728-19.93-4.728-19.93s-14.047-.09-24.38 4.426c1.366 4.39 4.06 12.433 4.06 12.433z" fill="#f07a01" fill-rule="evenodd" stroke="#e6bd7b" stroke-width="1.031"/><path d="M144.618 135.193c116.85-138.629 342.432-70.332 375.786-2.285-4.932 11.474-6.758 15.3-13.714 30.142-56.671-104.586-276.921-102.838-347.803-1.202-5.169-5.793-11.69-17.74-14.269-26.655z" fill="#f5f62d" fill-rule="evenodd" stroke="#fade4f"/><path d="M163.888 93.25c65.978-52.065 222.914-56.074 298.338 17.742" style="text-align:start" font-size="24" fill="none"/><path d="M478.279 240.723s-1.568 157.539-98.462 268.462c1.154.961 1.736 3.377 1.736 3.377s86.118-82.28 100.14-271.743c-.518.1-3.414-.096-3.414-.096z" fill="#c27259" fill-rule="evenodd"/><g fill="#578554" fill-rule="evenodd" stroke="#72997c"><path d="M469.747 221.52c-2.729.351-1.232 29.753 11.796 29.929 15.493-4.402-6.602-32.042-11.796-29.93zM473.268 264.653s-12.852-26.937-37.147-23.768c15.968 26.008 37.147 24.296 37.147 23.768z"/><path d="M499.097 216.203c-4.681-.263-23.232 19.712-19.366 32.558 13.603 2.705 29.022-19.682 19.366-32.558zM509.71 243.166c-5.032-2.848-29.8 9.902-27.803 28.716 9.921 9.926 31.382-24.4 27.802-28.716zM437.061 295.696c-3.08 2.817 13.909 25.177 30.106 23.592.704-18.486-21.743-25.704-30.106-23.592zM427.554 337.598c-.968 6.338 14.26 20.95 26.937 22.887 9.155-13.204-19.278-27.817-26.937-22.887zM484.949 290.415c-5.546 0-19.895 24.472-8.98 27.817 15.494-4.402 14.173-29.93 8.98-27.817z"/><path d="M501.28 315.237c-9.42-9.155-35.74 5.105-31.163 8.45 19.367 5.106 36.004-5.986 31.162-8.45zM499.87 359.795c-3.434-5.281-40.67-5.457-43.839 10.916 17.254 6.162 48.328-6.338 43.839-10.916zM443.188 405.389c-2.025 5.282 38.204 8.627 47.007-6.338-17.606-12.5-42.165 2.465-47.007 6.338zM380.723 435.837c-2.729.352 8.275 25.529 27.289 23.944 11.268-11.796-22.095-26.056-27.289-23.944zM365.23 484.077c-2.729.352 30.458 9.33 42.43-8.099-7.747-8.979-37.94-3.169-42.43 8.099zM466.287 462.95c-2.73.352-19.19-12.852-43.134 9.86 32.042 4.753 48.327-11.973 43.134-9.86zM402.906 373.161c1.497 8.099 16.726 24.824 38.557 29.93.704-20.95-29.49-33.099-38.557-29.93z"/><path d="M441.081 408.364c-2.729.352 8.979 27.289 29.05 29.93 7.746-17.782-23.856-32.043-29.05-29.93z"/></g><path d="M479.14 272.751a4.457 4.28 0 01-8.913 0 4.457 4.28 0 118.914 0z" fill="#8d313e" fill-rule="evenodd" stroke="#a42e50" stroke-width=".481"/><path d="M475.894 281.15a3.452 3.452 0 11-6.904 0 3.452 3.452 0 116.904 0zM482.782 272.645a3.452 3.452 0 11-6.904 0 3.452 3.452 0 116.904 0zM484.789 280.162a3.452 3.452 0 11-6.904 0 3.452 3.452 0 116.904 0z" fill="#8d313e" fill-rule="evenodd" stroke="#a42e50" stroke-width=".375"/><path d="M455.542 373.28a4.457 4.28 0 01-8.914 0 4.457 4.28 0 118.914 0z" fill="#8d313e" fill-rule="evenodd" stroke="#a42e50" stroke-width=".481"/><path d="M460.824 372.223a4.457 4.28 0 01-8.914 0 4.457 4.28 0 118.914 0zM450.612 422.223a4.457 4.28 0 01-8.914 0 4.457 4.28 0 118.914 0z" fill="#8d313e" fill-rule="evenodd" stroke="#a42e50" stroke-width=".481"/><path d="M460.452 330.314c-4.956 6.29-6.99 17.917-1.017 32.658 12.834-12.835 9.53-24.843 1.017-32.658z" fill="#578554" fill-rule="evenodd" stroke="#8da37d"/><g fill="#8d313e" stroke="#a42e50" fill-rule="evenodd" stroke-width="2"><path d="M352.465 1136.87a19.542 16.901 0 11-39.085 0 19.542 16.901 0 1139.085 0z" transform="matrix(.22806 0 0 .25328 378.327 131.108)"/><path d="M352.465 1136.87a19.542 16.901 0 11-39.085 0 19.542 16.901 0 1139.085 0z" transform="matrix(.22806 0 0 .25328 386.25 86.038)"/><path d="M352.465 1136.87a19.542 16.901 0 11-39.085 0 19.542 16.901 0 1139.085 0z" transform="matrix(.22806 0 0 .25328 376.919 75.475)"/><path d="M352.465 1136.87a19.542 16.901 0 11-39.085 0 19.542 16.901 0 1139.085 0z" transform="matrix(.22806 0 0 .25328 383.257 77.235)"/><path d="M352.465 1136.87a19.542 16.901 0 11-39.085 0 19.542 16.901 0 1139.085 0z" transform="matrix(.22806 0 0 .25328 389.947 77.939)"/><path d="M352.465 1136.87a19.542 16.901 0 11-39.085 0 19.542 16.901 0 1139.085 0z" transform="matrix(.22806 0 0 .25328 391.356 26.531)"/><path d="M352.465 1136.87a19.542 16.901 0 11-39.085 0 19.542 16.901 0 1139.085 0z" transform="matrix(.22806 0 0 .25328 394.877 38.151)"/><path d="M352.465 1136.87a19.542 16.901 0 11-39.085 0 19.542 16.901 0 1139.085 0z" transform="matrix(.22806 0 0 .25328 400.158 29.348)"/><path d="M352.465 1136.87a19.542 16.901 0 11-39.085 0 19.542 16.901 0 1139.085 0z" transform="matrix(.22806 0 0 .25328 362.13 118.08)"/><path d="M352.465 1136.87a19.542 16.901 0 11-39.085 0 19.542 16.901 0 1139.085 0z" transform="matrix(.22806 0 0 .25328 357.905 129.348)"/><path d="M352.465 1136.87a19.542 16.901 0 11-39.085 0 19.542 16.901 0 1139.085 0z" transform="matrix(.22806 0 0 .25328 367.412 125.122)"/><path d="M352.465 1136.87a19.542 16.901 0 11-39.085 0 19.542 16.901 0 1139.085 0z" transform="matrix(.22806 0 0 .25328 375.158 123.01)"/><path d="M352.465 1136.87a19.542 16.901 0 11-39.085 0 19.542 16.901 0 1139.085 0z" transform="matrix(.22806 0 0 .25328 342.06 170.193)"/><path d="M352.465 1136.87a19.542 16.901 0 11-39.085 0 19.542 16.901 0 1139.085 0z" transform="matrix(.22806 0 0 .25328 334.665 171.953)"/><path d="M352.465 1136.87a19.542 16.901 0 11-39.085 0 19.542 16.901 0 1139.085 0z" transform="matrix(.22806 0 0 .25328 332.553 182.517)"/><path d="M352.465 1136.87a19.542 16.901 0 11-39.085 0 19.542 16.901 0 1139.085 0z" transform="matrix(.22806 0 0 .25328 342.06 184.277)"/><path d="M352.465 1136.87a19.542 16.901 0 11-39.085 0 19.542 16.901 0 1139.085 0z" transform="matrix(.22806 0 0 .25328 349.454 177.587)"/><path d="M352.465 1136.87a19.542 16.901 0 11-39.085 0 19.542 16.901 0 1139.085 0z" transform="matrix(.22806 0 0 .25328 352.27 187.798)"/><path d="M352.465 1136.87a19.542 16.901 0 11-39.085 0 19.542 16.901 0 1139.085 0z" transform="matrix(.22806 0 0 .25328 339.947 178.644)"/></g><path d="M260.177 318.98c1.983 44.95 7.083 89.396 40.884 122.04 3.556 3.113 41.728 10.585 61.57 1.245 36.613-27.05 44.907-81.738 43.211-122.662" fill="#ddb461" fill-rule="evenodd" stroke="#000" stroke-width="2.38265"/><path d="M333.582 226.708a14.852 14.852 0 00-2.511.074c-.758.096-1.359.184-1.87.633-.32.28-.388.513-.57.883-.181.37-.388.84-.613 1.391a66.13 66.13 0 00-1.472 4.024c-2.8 8.436-8.817 23.048-11.396 27.738-1.153 2.095-4.028 5.858-7.83 10.34-3.8 4.484-8.543 9.73-13.51 14.978-9.933 10.498-20.796 21.029-26.756 25.484-1.839 1.375-2.897 2.216-3.43 3.092-.134.219-.259.467-.27.837-.01.37.194.78.407.958.427.354.818.337 1.36.337.192 0 1.725.13 3.782.342 2.056.213 4.73.506 7.52.829 5.6.647 14.928 1.482 20.764 1.86 16.203 1.046 71.187.384 85.39-1.034 8.377-.836 13.437-1.37 16.417-1.764 1.49-.197 2.456-.356 3.087-.513.315-.078.542-.148.75-.26a1.03 1.03 0 00.326-.252c.116-.135.253-.407.247-.707-.008-.457-.144-.536-.222-.647a2.45 2.45 0 00-.25-.297 8.89 8.89 0 00-.71-.647 28.982 28.982 0 00-2.19-1.633c-3.383-2.302-10.605-8.959-18.537-16.911-7.932-7.953-16.625-17.23-23.131-24.876-3.005-3.531-6.613-8.658-7.885-11.146-2.843-5.558-7.836-17.802-10.324-25.337a121.33 121.33 0 00-1.438-4.116 47.844 47.844 0 00-.58-1.49c-.165-.403-.28-.676-.426-.916-.22-.364-.474-.491-.752-.622a4.925 4.925 0 00-.946-.315c-.707-.17-1.56-.274-2.431-.317z" fill="#ddb461" paint-order="fill markers stroke"/><path d="M272.827 396.539c.355 1.088.717 2.172 1.091 3.25 16.05 1.854 40.497 4.046 74.012 5.361l-15.817 6.438c-21.892-.732-40.077-1.852-54.883-3.052.484 1.177.985 2.345 1.497 3.508 14.878 1.19 32.992 2.293 54.612 3.013l.254.009c10.539-4.149 19.84-8.676 30.256-12.806-30.262-1.192-60.751-1.853-91.022-5.721zm113.99 15.11c-14.52 1.382-31.963 2.747-52.628 3.857l-.254.013c-10.54 5.066-19.84 10.402-30.256 15.438 24.996-1.19 50.863-2.65 76.399-4.665.164-.268.326-.537.488-.807.456-.876.906-1.756 1.343-2.647-15.703 1.227-36.405 2.608-62.311 3.844l15.816-7.814c19.516-1.044 36.057-2.32 49.943-3.624.5-1.19.988-2.387 1.46-3.596z" fill="#4f3b0a" fill-rule="evenodd"/><path d="M260.725 329.672c.06 1.127.12 2.254.184 3.38h46.493l-17.996 6.876h-28.068c.076 1.128.157 2.254.24 3.38H289.9l34.94-13.565h-8.334l-.011-.071zm29.175 13.636l-27.415 10.643c.095.974.19 1.95.29 2.922h.518l.011.071h65.093v-.078h8.72l34.94-13.565h-8.334l-.012-.071h-53.073v.078zm37.631 3.302h27.087l-17.996 6.876h-25.119v.078h-39.106l17.996-6.876h37.138zm77.404 9.943c-2.346.316-4.768.765-6.991.88h-40.089v.079h-20.738l-34.94 13.565h8.333l.011.071h65.093v-.078h3.186l-27.118 15.18 8.335-.62.01.07 38.592-2.872 1.498-.112v-.078l1.43-.107c.206-1.14.407-2.28.598-3.424l-17.423 1.298-1.499.11v.079l-18.098 1.347 15-7.993 17.629-1.312 1.497-.111v-.078l3.954-.294c.158-1.138.299-2.275.443-3.413l-19.79 1.472-1.498.111v.078l-2.077.155 24.597-13.41c.017-.197.038-.396.055-.593zm-30.187 4.26h18.099l-15 6.877H358.72v.078h-39.106l17.996-6.876h37.138z" style="line-height:normal;font-variant-ligatures:normal;font-variant-position:normal;font-variant-caps:normal;font-variant-numeric:normal;font-variant-alternates:normal;font-feature-settings:normal;text-indent:0;text-align:start;text-decoration-line:none;text-decoration-style:solid;text-decoration-color:#000;text-transform:none;text-orientation:mixed;white-space:normal;shape-padding:0;isolation:auto;mix-blend-mode:normal;solid-color:#000;solid-opacity:1" color="#000" font-weight="400" font-family="sans-serif" overflow="visible" fill="#4f3b0a" fill-rule="evenodd" paint-order="fill markers stroke"/><path d="M332.647 217.422v.722c-1.508 1.252-2.4 3.084-2.4 3.084l-.056.11-.033.119s-2.227 7.82-5.704 17.466c-3.469 9.626-8.206 21.064-13.083 28.194-22.91 25.143-36.517 37.344-44.332 43.215-3.911 2.94-6.374 4.294-7.806 4.904-.715.305-1.172.423-1.422.467-.248.045-.18.035-.18.035h-.001l-.324 2.216c.002 0 29.478 5.02 75.904 4.874 46.425.145 75.902-4.874 75.902-4.874l-.324-2.216s.068.01-.18-.035c-.25-.044-.706-.162-1.422-.467-1.432-.61-3.895-1.965-7.806-4.904-7.815-5.871-21.422-18.072-44.332-43.215-4.877-7.13-9.614-18.568-13.083-28.194-3.476-9.645-5.704-17.466-5.704-17.466l-.033-.12-.055-.109s-.892-1.832-2.401-3.084v-.722a4.73 4.73 0 00-.562.301 4.73 4.73 0 00-.563-.3zm.563 3.044a11.094 11.094 0 011.295 1.813c.07.247 2.256 7.89 5.707 17.467 3.508 9.732 8.25 21.295 13.392 28.794l.044.064.051.057c23.008 25.256 36.693 37.542 44.685 43.547 2.777 2.087 4.675 3.244 6.238 4.093-6.585.999-32.339 4.495-70.85 4.35-.383.003-.744-.001-1.125 0-38.511.145-64.265-3.351-70.85-4.35 1.563-.849 3.461-2.006 6.238-4.093 7.992-6.005 21.677-18.29 44.685-43.547l.051-.057.044-.064c5.142-7.499 9.884-19.062 13.392-28.794 3.451-9.576 5.636-17.22 5.707-17.467.044-.08.578-1.02 1.296-1.813z" style="line-height:normal;font-variant-ligatures:normal;font-variant-position:normal;font-variant-caps:normal;font-variant-numeric:normal;font-variant-alternates:normal;font-feature-settings:normal;text-indent:0;text-align:start;text-decoration-line:none;text-decoration-style:solid;text-decoration-color:#000;text-transform:none;text-orientation:mixed;white-space:normal;shape-padding:0;isolation:auto;mix-blend-mode:normal;solid-color:#000;solid-opacity:1" color="#000" font-weight="400" font-family="sans-serif" overflow="visible" fill-rule="evenodd"/><path d="M333.18 212.068a1.117 1.26 0 01-.114.105c-1.783 1.421-2.91 3.587-2.91 3.587a1.117 1.26 0 01-.008.016l-.013.024-.007.026a1.117 1.26 0 01-.002.005s-1.462 4.903-3.9 12.028c3.656-1.554 9.196-2.823 14.08.503-2.545-7.402-4.074-12.53-4.074-12.53a1.117 1.26 0 01-.002-.006l-.007-.026-.013-.024a1.117 1.26 0 01-.007-.016s-1.128-2.166-2.911-3.587a1.117 1.26 0 01-.112-.105z" fill="#6d746c" fill-rule="evenodd" stroke="#000" stroke-width="1.42101246"/><path d="M260.177 318.98c1.983 44.95 7.083 89.396 40.884 122.04 3.556 3.113 41.728 10.585 61.57 1.245 36.613-27.05 44.907-81.738 43.211-122.662" fill="none" stroke="#000" stroke-width="2.38265"/><g transform="translate(-1160.118 -43.142) scale(.74692)"><circle r="51.981" cy="253.419" cx="1998.255" fill="url(#c)" paint-order="fill markers stroke"/><path d="M1997.552 303.568c-.397-.642-.986-4.926-1.31-9.52-.323-4.594-1.037-8.456-1.587-8.583-.55-.127-1.78 2.92-2.733 6.77-2.068 8.355-3.592 11.5-5.573 11.5-1.503 0-1.371-5.498.4-16.75.981-6.235-.995-5.392-4.689 2-4.717 9.44-8.905 13.39-8.905 8.399 0-4.115 2.102-8.824 3.67-8.222.789.302 1.182.143.875-.355-.308-.498-.172-1.955.301-3.239.474-1.283 1.165-3.59 1.537-5.126l.676-2.793-2.707 1.774c-2.658 1.742-2.696 1.736-2.156-.33.444-1.7.18-2.008-1.375-1.602-1.648.431-1.83.124-1.262-2.138.572-2.276.406-2.547-1.198-1.958-1.024.376-4.467 2.435-7.653 4.577-5.631 3.786-9.208 4.55-9.208 1.966 0-1.273.669-1.75 8.404-5.994 3.835-2.104 7.16-6.478 5.89-7.748-.623-.623-6.342.737-13.048 3.101-3.958 1.396-5.019 1.456-6.34.36-1.441-1.196-1.423-1.437.195-2.62.98-.716 3.028-1.302 4.552-1.302 1.525 0 5.151-.866 8.06-1.924 2.907-1.057 7.895-2.484 11.082-3.169 6.098-1.311 7.624-2.388 5.87-4.141-.745-.746-2.776-.623-6.862.417-10.287 2.619-33.036.088-24.258-2.698 1.186-.376 2.598-.242 3.138.297.642.642 2.006.595 3.944-.137 2.232-.842 3.143-.826 3.693.064.516.835 1.872.924 4.624.303 2.142-.483 6.06-.622 8.707-.308 5.08.602 8.152-.75 7.221-3.176-.28-.73-.048-1.611.516-1.96.563-.348.77-1.293.461-2.1-.973-2.535 2.58-1.657 5.183 1.282 1.34 1.512 2.906 4.417 3.479 6.454 1.15 4.09 3.364 6.796 5.56 6.796 2.57 0 1.498-2.729-1.571-4-1.65-.684-3-1.774-3-2.422 0-3.184 5.546-4.926 6.636-2.084.315.822.957 1.257 1.425.968.468-.29.597-1.189.287-1.998-.399-1.038.35-1.654 2.543-2.093 1.71-.342 3.109-1.015 3.109-1.496 0-1.382 2.635-1.02 3.928.539 1.01 1.217 1.55 1.217 3.873.006 1.484-.775 3.005-1.411 3.379-1.414.374-.003 3.524-1.313 7-2.91 7.204-3.31 13.733-5.268 14.983-4.495.469.289 1.556-.178 2.416-1.038 2.22-2.22 6.664-2.088 6.244.186-.214 1.159-2.42 2.427-6.526 3.753-3.412 1.102-6.765 2.565-7.45 3.25-.686.686-2.657 1.247-4.38 1.247-6.076 0-14.467 2.196-14.467 3.785 0 1.27 1.21 1.407 7.627.864 4.195-.355 9.324-1.153 11.397-1.774 3.872-1.16 16.976-.384 16.976 1.005 0 2.13-3.017 3.12-9.5 3.12-3.905 0-7.566.466-8.135 1.035-.713.713-3.28.686-8.256-.086-8.008-1.242-11.038-.773-9.212 1.427 1.341 1.617 13.702 3.956 25.914 4.905 2.976.232 5.995 1.097 6.867 1.969 1.407 1.407 1.354 1.662-.552 2.683-1.619.866-3.535.757-8.275-.471-3.393-.88-7.266-1.324-8.606-.987-1.34.336-2.956.182-3.591-.343-2.351-1.945-12.093-5.093-12.988-4.198-1.087 1.087 6.1 5.062 11.834 6.544 2.795.723 3.92 1.519 3.737 2.642-.199 1.219.346 1.491 2.25 1.127 1.47-.28 2.513-.017 2.513.637 0 .614.787 1.118 1.75 1.12 2.227.005 8.25 3.641 8.25 4.982 0 2.128-6.59.917-10.9-2.004-4.746-3.216-6.7-3.684-7.34-1.76-.245.732-2.862-.912-6.523-4.097-3.383-2.942-6.613-5.01-7.229-4.63-.613.379-.978 1.006-.811 1.394.684 1.594 17.805 16.116 18.714 15.874 1.495-.398 7.083 3.56 7.086 5.019 0 2.05-2.82 2.565-5.255.957-1.233-.815-4.267-3.345-6.742-5.622-6.37-5.86-6.66-1.712-.475 6.781 2.984 4.097 3.305 8.102.649 8.102-2.241 0-5.041-3-8.634-9.25-4.193-7.294-6.95-8.05-4.041-1.108.888 2.122 1.88 6.67 2.203 10.108.488 5.199.33 6.25-.943 6.25-2.243 0-4.581-4.138-6.158-10.896-.763-3.272-1.688-6.434-2.054-7.027-1.715-2.775-2.547-.377-2.547 7.341 0 4.63-.273 9.13-.607 10-.712 1.854-2.963 2.088-3.996.416zm14.603-6.774c0-.518-.45-1.22-1-1.56-.55-.34-1 .084-1 .942 0 .857.45 1.559 1 1.559s1-.424 1-.941zm-13.338-3.31c-.277-.687-.504-.124-.504 1.25 0 1.376.227 1.938.504 1.25.277-.687.277-1.812 0-2.5zm-9-8c-.277-.687-.504-.124-.504 1.25 0 1.376.227 1.938.504 1.25.277-.687.277-1.812 0-2.5zm28.722.5c-.359-1.512-1.159-3.424-1.777-4.25-.619-.824-1.966-3.163-2.995-5.196-2.16-4.272-6.154-8.353-6.936-7.09-.576.934 4.852 9.578 6.348 10.108.499.178 1.902 2.315 3.119 4.75 2.549 5.104 3.165 5.566 2.241 1.679zm-12.288-5.97c-.944-1.622-1.038-1.587-1.066.389-.017 1.192.303 2.992.71 4 .668 1.65.774 1.61 1.067-.39.178-1.221-.142-3.021-.711-4zm-14.096-.78c0-2.23-1.59-4.243-2.574-3.26-.242.243-.157 1.856.189 3.585.709 3.545 2.385 3.317 2.385-.324zm5.693-.23c-.254-.973-.478-.42-.498 1.23-.02 1.65.187 2.447.46 1.77.275-.677.291-2.027.038-3zm-11.219-5.22c.84-1.622 1.526-3.647 1.526-4.5 0-2.147-2.964-1.96-3.157.2-.444 4.963-.513 7.25-.22 7.25.179 0 1.012-1.327 1.851-2.95zm17.98.7c-.852-2.822-2.212-4.325-3.106-3.431-.834.833 1.63 5.682 2.888 5.682.494 0 .593-1.013.219-2.25zm-6.854-1.35c-.356-.927-.872-1.46-1.147-1.186-.275.275-.21 1.26.147 2.187.356.927.872 1.46 1.147 1.186.275-.275.209-1.259-.147-2.186zm-5.996-2.129c-1.017-1.016-1.855.514-1.021 1.864.63 1.02.865 1.02 1.204.004.232-.695.15-1.535-.183-1.868zm-10.156-.635c2.783-2.58 3.393-5.635 1.124-5.635-1.668 0-5.572 4.648-5.572 6.634 0 2.019 1.573 1.666 4.448-1zm-2.198-5.153c2.164-.861 2.315-3.482.2-3.482-2.468 0-7.575 2.99-6.92 4.05.6.97 3.462.728 6.72-.568zm-16.79 25.455c-.886-1.435 2.189-4.677 6.273-6.615 4.882-2.317 5.18-.842.749 3.696-3.95 4.046-5.84 4.83-7.021 2.919zm2.224-41.32c-.292-.759-2.028-1.638-3.857-1.952-10.222-1.754-12.607-2.924-9.705-4.762 2.128-1.348 3.876-1.062 3.263.536-.391 1.018.446 1.626 2.87 2.08 1.882.354 4.057.518 4.833.365 2.725-.534 12.12 2.97 11.34 4.232-.899 1.454-8.154 1.041-8.745-.498zm26.316-2.618c3.344-2.617 8.592-3.583 10.565-1.945 1.345 1.116 1.135 1.452-1.626 2.613-1.743.733-5.03 1.323-7.304 1.31l-4.135-.022zm21.563-3.101c.374-.607 2.2-1.738 4.059-2.514 1.858-.776 3.378-2.074 3.378-2.884s1.462-2.167 3.25-3.014c4.084-1.935 7.114-3.714 9.016-5.293 1.704-1.414 4.734-.587 4.734 1.292 0 .7-1.365 1.837-3.034 2.529-1.669.69-3.806 2.208-4.75 3.37-.944 1.164-4.191 2.966-7.216 4.005-3.025 1.04-5.928 2.277-6.45 2.75-1.381 1.25-3.789 1.056-2.987-.241zm-43.134-.863c-2.86-1.158-5.774-5.704-4.256-6.642.633-.392 1.883.193 2.78 1.3.896 1.107 2.623 2.545 3.838 3.195 4.179 2.236 2.232 4.006-2.362 2.147zm19.234-3.023c1.54-1.64 10.337-2.647 10.337-1.183 0 .6-1.238 1.07-2.75 1.045-1.513-.025-4.1.275-5.75.666-2.363.56-2.753.447-1.837-.528zm21.337-.375c0-.837 5.91-7.718 6.392-7.44.289.166 1.59-1.14 2.89-2.903 3.416-4.63 11.262-12.294 12.586-12.294 2.042 0 1.192 1.977-2.694 6.272-2.104 2.325-4.513 5.246-5.354 6.491-1.967 2.915-13.82 11.383-13.82 9.874zm-35.185-3.117c-3.268-2.22-7.444-8.225-6.428-9.241.52-.52 11.613 9.93 11.613 10.941 0 1.331-1.399.873-5.185-1.7zm32.65-4.77c.7-2.376 1.956-4.39 2.847-4.565 1.949-.384 3.09-3.592 2.824-7.935-.145-2.368.226-3.25 1.366-3.25.86 0 2.494-1.575 3.63-3.5 2.318-3.93 3.868-4.514 3.868-1.46 0 4.1-12.549 24.96-15.015 24.96-.426 0-.21-1.913.48-4.25zm-52.81 1.42c-1.95-2.154-2.188-3.623-.405-2.504.687.43 1.997.66 2.911.51 2.196-.36 3.472 1.809 1.717 2.92-1.94 1.23-2.356 1.138-4.223-.925zm26.908-1.048c-.871-1.685-2.48-3.542-3.574-4.128-1.094-.586-1.99-1.746-1.99-2.58 0-.832-.686-2.841-1.525-4.464-.84-1.623-1.177-2.945-.75-2.938 1.45.023 10.83 15.767 9.93 16.667-.279.278-1.22-.872-2.09-2.557zm19.844-.372c2.526-8.872 2.936-11.92 1.709-12.679-.862-.533-1.045-1.933-.578-4.425.643-3.425 2.424-5.137 2.494-2.396.058 2.27 2.968-2.574 2.968-4.942 0-2.757 1.624-3.067 2.45-.468.75 2.363-2.986 14.53-4.967 16.173-.83.69-1.414 1.756-1.296 2.37.43 2.244-1.308 8.617-2.35 8.617-.633 0-.81-.919-.43-2.25zm-16.207-6.95c-.66-.66-1.2-2.55-1.2-4.2 0-3.701 1.52-2.38 2.474 2.15.746 3.543.544 3.868-1.274 2.05zm7.83-6.35c.027-2.587.163-2.723 1.104-1.104.769 1.323.76 2.159-.03 2.95-.805.805-1.096.305-1.073-1.846zm3.517-3.13c-.4-3.398-.395-7.223.01-8.5.71-2.228.77-2.241 1.52-.32 1.013 2.59 1.007 10.432-.01 13-.582 1.47-.985.362-1.52-4.18zm-10.39-3.32c0-1.375.228-1.938.505-1.25.277.687.277 1.812 0 2.5-.277.687-.504.125-.504-1.25zm-4.962-2.5c.02-1.65.244-2.204.498-1.231.253.973.237 2.323-.037 3-.274.677-.482-.12-.461-1.77z" fill="url(#d)"/></g><g><path d="M173.642 346.98c-1.428-1.194-4.232-3.137-6.23-4.318-3.155-1.864-3.842-2.699-5.224-6.35-.875-2.313-1.736-5.394-1.913-6.846-.177-1.453-1.168-3.72-2.202-5.04-1.369-1.747-1.991-3.562-2.292-6.687-.227-2.36-.596-4.659-.819-5.109-.223-.45.04-2.262.582-4.027.952-3.097.91-3.365-1.236-7.704-1.223-2.473-2.193-5.096-2.156-5.828.102-2.027 2.223-5.653 5.404-9.238 5.272-5.94 5.863-9.334 2.146-12.32-.861-.693-1.717-2.285-1.901-3.54-.27-1.83.03-2.661 1.526-4.22 2.208-2.303 2.506-4.893.817-7.113-.86-1.13-1.213-2.902-1.184-5.948.04-4.107.16-4.42 2.256-5.886 3.07-2.146 4.383-4.98 5.433-11.725.959-6.162 1.615-7.428 4.643-8.961 1.786-.905 2.247-.752 7.29 2.418 3.918 2.463 5.803 4.174 6.929 6.287 1.106 2.078 2.413 3.28 4.6 4.231 1.68.731 3.714 2.088 4.522 3.015.807.928 2.606 1.966 3.997 2.307 1.74.427 2.431.952 2.217 1.683-1.98 6.775-.935 11.741 3.233 15.351 2.342 2.029 2.572 2.55 2.423 5.51-.208 4.143.469 6.461 3.036 10.393 1.128 1.726 3.02 5.244 4.206 7.816 1.54 3.341 2.897 5.156 4.752 6.35 3.966 2.554 5.422 6.483 5.074 13.682-.265 5.475-.161 6.013 1.534 7.952 2.208 2.524 2.98 4.316 3.354 7.78.3 2.771.114 3.205-3.943 9.221-1.32 1.959-2.772 4.808-3.225 6.33-.454 1.524-1.42 3.084-2.15 3.466-2.18 1.147-7.323.5-11.777-1.48-3.996-1.776-4.269-1.807-6.02-.668-1.01.656-2.058 2.105-2.33 3.22a438.82 438.82 0 00-.859 3.591c-.507 2.178-5.88 4.037-11.364 3.93-2.424-.047-5.79.079-7.48.28-2.662.319-3.418.078-5.669-1.804z" fill="#d08d6a"/><path d="M173.994 345.762c-.5-.743-2.617-2.356-4.704-3.585-2.087-1.229-4.22-2.666-4.741-3.194-1.323-1.341-3.972-9.02-3.862-11.196.053-1.065-.827-2.927-2.147-4.542-1.41-1.725-2.202-3.457-2.14-4.683.054-1.07-.196-3.294-.555-4.942-.506-2.322-.43-3.752.338-6.346.929-3.138.892-3.51-.578-5.886-1.977-3.196-2.79-8.18-1.78-10.898.446-1.2 1.737-2.476 3.19-3.15 1.343-.624 2.287-1.446 2.099-1.827-.626-1.265.566-2.991 1.904-2.755 1.142.2 1.384-.328 1.814-3.971.485-4.107.444-4.247-1.784-6.09-4-3.306-3.665-6.917.808-8.721 1.743-.704 2.665-1.495 2.485-2.132-.158-.557-.259-1.582-.224-2.278s-.95-1.94-2.19-2.764c-1.78-1.185-2.316-2.108-2.55-4.396-.364-3.583.014-4.206 3.323-5.474 1.905-.73 2.663-1.461 2.742-2.643.178-2.656 1.789-9.205 2.652-10.78.44-.803.85-2.456.912-3.674.148-2.956 2.034-3.667 2.789-1.05.308 1.065.498 3.157.423 4.65-.117 2.338-.011 2.545.773 1.503.808-1.074 2.625-1.677 5.176-1.716 1.345-.02 1.085-1.861-.571-4.05-1.05-1.387-1.972-1.907-2.97-1.672-.834.196-1.43-.013-1.406-.494.065-1.294 2.19-.877 4.552.894 1.178.882 2.69 1.632 3.361 1.666 1.916.096 4.324 3.774 4.191 6.403-.115 2.294-.08 2.319 3.502 2.556 3.047.203 3.832.561 4.975 2.273.747 1.118 2.465 2.49 3.819 3.047l2.46 1.014-.48 4.806c-.264 2.644-.215 5.008.109 5.253.324.246.556 1.085.517 1.864-.044.88.791 1.926 2.206 2.76 3.328 1.965 3.93 3.271 3.77 8.188-.111 3.49-.335 4.326-1.063 3.973-.506-.246-1.557.189-2.334.965-1.494 1.494-1.987 3.633-.849 3.69.373.019.703-.479.735-1.106.031-.628.882-1.44 1.89-1.805 2.188-.792 3.797.742 6.714 6.403 2.168 4.207 2.23 4.762.477 4.36-.721-.165-1.335.036-1.364.447-.03.411.672.784 1.56.829.955.048 2.173.957 2.989 2.231.757 1.183 2.383 2.679 3.615 3.324 3.409 1.787 4.771 5.27 4.465 11.413-.297 5.904.598 10.99 1.94 11.058 1.32.066 3.375 4.657 3.247 7.255-.068 1.364-1.2 3.753-2.956 6.236-1.566 2.213-3.255 5.393-3.754 7.068-.498 1.674-1.369 3.428-1.935 3.897-1.803 1.494-6.216 1.499-8.613.01-1.21-.752-4.027-1.65-6.262-1.997-3.91-.608-4.097-.558-4.987 1.325-.508 1.077-.964 2.759-1.014 3.739-.19 3.782-5.18 6.236-11.823 5.813-2.422-.154-6.107-.16-8.19-.013-3.104.22-3.95.024-4.696-1.083zm6.117-8.382c.352-1.213.668-1.394 1.305-.751 1.31 1.324 4.59.502 4.674-1.171.063-1.248-.275-1.375-2.812-1.057-1.651.207-3.398.994-4.087 1.842-1.027 1.263-1.356 1.325-2.246.422-.573-.581-1.055-.8-1.071-.487-.039.763 2.045 2.661 3.006 2.74.422.034.976-.658 1.231-1.538zm15.31-2.104c.027-1.985-.163-2.636-.566-1.931-.537.94-.302 4.884.293 4.914.127.007.249-1.336.272-2.983zm-23.758-.873c.76-1.877-.59-2.883-2.83-2.11-1.742.601-1.79.691-.44.812.878.078 1.497.61 1.464 1.258-.074 1.479 1.212 1.507 1.806.04zm6.576-3.834c-.635-.848-3.94-1.636-4.32-1.03-.201.32-.11 1.085.202 1.7.389.766.585.824.624.182.032-.514.395-.917.808-.896.48.024.545.768.18 2.069l-.57 2.031 1.72-1.786c.945-.982 1.556-2.004 1.356-2.27zm-11.283-2.902c-.136-.735-.745-1.335-1.355-1.333-.704.002-.807.157-.282.423.455.23.795 1.487.756 2.791-.058 1.925.041 2.097.528.913.33-.801.488-2.059.353-2.794zm18.316 1.472c-.043-.415-.534-1.107-1.091-1.538-1.21-.937-2.878.368-2.207 1.724.522 1.054 3.412.891 3.298-.186zm3.914-1.26c.03-.592-.22-1.285-.555-1.54-.777-.59-1.657.77-1.154 1.786.566 1.144 1.646.99 1.709-.245zm-17.25-1.984c1.205-1.328 1.198-1.37-.18-1.046-1.458.343-1.941-.888-.658-1.673.385-.235.729-.988.763-1.672.054-1.064-.15-1.031-1.41.226-1.087 1.088-1.38 1.996-1.119 3.485.42 2.397.928 2.53 2.605.68zm8.16-.094c.959-1.302.845-5.504-.15-5.554-.356-.018-.493.621-.307 1.42.187.8.012 1.655-.389 1.9-.784.48-1.158 3.336-.441 3.372.238.012.817-.5 1.286-1.138zm26.738 1.985c.015-.309-.918-.683-2.074-.831-1.155-.149-2.42-.778-2.812-1.4-.392-.62-1.468-1.276-2.392-1.456-1.305-.253-1.698.009-1.756 1.17-.062 1.23.307 1.473 2.07 1.368 1.18-.07 2.327.24 2.55.69.456.922 4.372 1.329 4.414.459zm8.654-2.115c.513-.819.245-.808-3.123.123-.568.156-.784.151-.48-.012.92-.496-2.29-3.604-4.976-4.817-1.64-.741-2.767-.896-3.22-.444-.453.453.142.915 1.698 1.32 1.317.343 2.377.966 2.356 1.385-.02.42.752 1.752 1.718 2.962 1.63 2.044 1.888 2.134 3.626 1.265 1.028-.514 2.109-1.317 2.401-1.782zm-36.879-5.24c.14-.088-.301-1.031-.982-2.097-.93-1.457-1.44-1.734-2.057-1.118-1.212 1.212-1.064 2.344.173 1.32.889-.737 1.049-.615.98.751-.045.898-.376 1.408-.736 1.136-.36-.273-.668-.196-.687.17-.065 1.298.822 1.687 1.931.848a37.772 37.772 0 011.378-1.01zm11.038 1.24c.233-.808-.459-2.24-1.846-3.819l-2.218-2.526.282 2.173c.196 1.513-.025 2.286-.726 2.542-.691.253-.981-.14-.925-1.253.052-1.045-.165-1.377-.61-.932-.38.38-.563 1.389-.405 2.242.222 1.207.711 1.504 2.205 1.338 1.056-.117 2.107.167 2.337.63.62 1.251 1.484 1.072 1.906-.394zm6.71-1.436c.039-.775-.21-1.423-.551-1.44-1.155-.059-2.809.764-2.841 1.413-.018.355.511.45 1.177.214 1.037-.37 1.075-.267.264.727-.82 1.006-.759 1.115.467.827.795-.187 1.444-.949 1.484-1.741zm-27.78-1.123c.042-1.297-1.12-2.645-1.88-2.18-.581.355-.478.818.353 1.59 1.385 1.283 1.504 1.33 1.528.59zm47.79-.578c-1.372-1.228-3.004-1.142-3.477.183-.462 1.293 2.512 2.606 3.712 1.639.777-.626.734-.955-.235-1.822zm-51.6-1.047c-.454-.231-.794-1.065-.755-1.854.04-.788-.384-1.456-.943-1.485-.558-.028-1.027.175-1.04.452-.045.88 2.05 3.351 2.822 3.328.43-.012.394-.199-.083-.441zm16.944-4.838c.027.517.362.955.744.974.389.02.264-1.018-.284-2.36l-.978-2.397-1.496 1.495c-1.41 1.409-1.434 1.58-.425 2.948.59.798 1.083 2.1 1.096 2.893.013.793.31.107.659-1.525.35-1.633.657-2.545.684-2.028zm-9.484 1.585c.096-1.91-.799-2.542-1.658-1.172-.614.978-.043 2.961.865 3.007.384.02.741-.806.793-1.835zm29.443 1.106c.509.025 1.058.475 1.22.998.162.524.33.617.375.207.204-1.887-.93-2.73-2.773-2.062-1.838.666-2.307 1.464-1.464 2.495.244.298.73.042 1.08-.571.35-.613 1.053-1.093 1.562-1.067zm23.42.91c-.854-1.045-2.446.392-1.825 1.647.32.645.7.65 1.462.02.714-.591.825-1.102.362-1.668zm-32.767-.818c.838-1.294 3.48-2.637 5.033-2.559 1.633.082 2.627-1.33 1.526-2.166-.631-.48-.602-.69.13-.945.763-.266.746-.58-.088-1.654-.964-1.243-1.121-1.21-2.5.534-1.099 1.39-2.092 1.83-3.932 1.737-2.837-.143-3.741 1.192-2.733 4.035.726 2.045 1.658 2.416 2.564 1.018zm-1.687-2.897c.02-.411.342-.733.714-.714.373.019.66.37.64.782-.02.412-.342.733-.715.714-.372-.019-.66-.37-.64-.782zm29.748 1.828c-1.233-2.91-2.904-3.787-5.355-2.81-1.802.717-2.213.616-3.502-.864-.803-.922-2.33-1.72-3.394-1.774-2.161-.108-4.305-2.072-4.247-3.892.028-.898-.324-.762-1.417.547-1.573 1.883-1.747 4.981-.264 4.708.501-.092 1.323.249 1.825.758.71.721 1.196.669 2.2-.238 1.703-1.541 3.566-1.39 3.482.282-.041.81.76 1.727 2.046 2.341 1.749.835 2.316.825 3.291-.056 1.054-.953 1.36-.891 2.897.586.945.91 1.69 2.2 1.657 2.87-.047.935.134 1.022.782.375.647-.647.647-1.304 0-2.833zm-17.901-6.92c.076-.869.245-1.038.431-.43.169.55.112 1.193-.125 1.43-.238.238-.375-.212-.306-1zm-40.129 2.223c-.54-.41-.666-1.25-.332-2.226.632-1.844-.336-2.12-1.698-.483-.816.98-.725 1.36.624 2.605.869.801 1.736 1.3 1.927 1.11.19-.19-.044-.644-.521-1.006zm60.474 3.738c.251-.4-.036-.752-.639-.782-.602-.03-.924.291-.714.714.209.423.497.775.639.782.142.007.464-.314.714-.714zm-35.542-5.111c2.565-.743 1.977-2.318-.785-2.102-1.787.14-2.34.483-2.101 1.305.179.613.31 1.508.292 1.99-.025.63.116.648.505.064.297-.445 1.237-1.01 2.09-1.257zm-16.763-4.049c1.246-2.592 1.254-3.633.047-6.193-.984-2.086-1.05-2.108-2.999-1.016-1.096.614-2.014 1.517-2.041 2.007-.073 1.33 1.323 2.124 1.957 1.113.411-.656.637-.592.883.25.181.623-.128 1.733-.687 2.466-1.495 1.962-1.357 3.193.37 3.273.99.046 1.855-.62 2.47-1.9zm42.604 1.844c-.369-1.3-1.408-3.007-2.309-3.794-1.391-1.216-1.831-1.291-2.919-.5-1.388 1.011-1.462 3.346-.123 3.917.457.194.857-.18.89-.83.093-1.845 2.063-1.293 2.65.741.29 1.003.918 2.02 1.397 2.261.478.241.918.467.977.503.06.035-.194-.999-.563-2.298zm-19.063-.99c2.192-.346 1.244-1.723-1.107-1.61-2.68.129-2.982.432-1.952 1.959.453.67 1.02.915 1.257.543.239-.372 1.05-.774 1.802-.893zm-17.459-3.762c.686-1.094 1.741-.824 1.678.43-.036.718-.438.913-1.158.565-.741-.36-.956-.24-.657.365.629 1.27 4.415 1.349 4.478.094.028-.553-.528-1.646-1.235-2.428-.707-.782-1.292-2.13-1.3-2.994-.012-1.53-.022-1.53-.38.04-.221.964-1.183 1.878-2.398 2.277-1.116.367-2.056 1.19-2.088 1.828-.032.638-.363 1.145-.735 1.127-.373-.02-.695.31-.716.733-.043.856 3.778-.869 4.511-2.037zm23.968-1.47c.562.272.891-.229.953-1.453l.094-1.869-2.114 1.557c-2.277 1.677-2.385 1.925-1.755 4.044.36 1.21.517 1.125 1.189-.65.456-1.207 1.126-1.875 1.633-1.63zm-8.96-.894c1.377-.61 1.687-1.157 1.443-2.552-.249-1.427-.04-1.763 1.06-1.708.755.038 1.504.497 1.666 1.021.176.569.342.426.414-.354.065-.719.558-1.284 1.094-1.257.537.027 1.17-.26 1.407-.639.661-1.054-4.313-2.638-5.416-1.725-.665.552-1.334.22-2.546-1.263l-1.644-2.01-.872 1.846c-.716 1.516-.68 2.08.2 3.158 1.004 1.228 1.077 1.226 1.14-.025.044-.871.476-1.229 1.24-1.026.74.197 1.137.995 1.078 2.172-.084 1.673-.386 1.857-3.006 1.835-2.707-.023-2.932-.179-3.196-2.223-.329-2.533-.196-2.457-2.497-1.44-2.118.937-2.362 2.785-.62 4.71 1.078 1.194 1.448 1.264 2.417.461.97-.804 1.232-.75 1.725.359.676 1.52 2.433 1.755 4.912.66zm24.822-.138c.786-.785 1.455-1.933 1.486-2.55.03-.617.513-1.1 1.072-1.071.558.028 1.04-.454 1.071-1.07.064-1.271-.984-1.559-1.673-.46-.908 1.448-1.83.592-2.984-2.775-1.302-3.795-2.27-4.257-4.276-2.044-1.147 1.265-1.203 1.585-.387 2.219.525.407 1.668.782 2.54.832 1.011.058 1.687.64 1.865 1.605.153.833.7 1.535 1.215 1.56 1.454.074.985 2.392-.557 2.755-.756.178-1.397.789-1.426 1.358-.07 1.402.368 1.326 2.054-.359zm-53.733-5.435c.328-1.001.141-2.044-.508-2.838-1.133-1.385-4.969-1.907-5.03-.683-.061 1.211 1.864 1.827 2.936.938.747-.618 1.053-.522 1.328.42.57 1.954.364 2.6-.81 2.541-.914-.046-.963.147-.29 1.142.892 1.323 1.59.876 2.374-1.52zm14.687 1.667c.691.511.695.386.018-.642-.695-1.055-1.106-1.133-2.353-.45-.831.456-1.62.885-1.755.954-.134.068-.05.517.187.995.303.612.82.52 1.738-.31.778-.704 1.654-.925 2.165-.547zm29.338.28c.186.01.137.517-.11 1.128-.32.791-.133.995.652.708.847-.31.959-.74.484-1.86-.34-.8-.873-1.468-1.187-1.484-1.12-.056-2.347 2.132-1.938 3.455.372 1.2.488 1.167 1.088-.31.37-.91.825-1.646 1.011-1.637zm7.79 1.142c.02-.412-.437-.772-1.018-.801-.58-.03-.884.293-.674.716.21.423.667.783 1.018.8.35.018.654-.304.674-.715zm-48.22-6.19c-.346-.697-.599-.69-1.052.034-.778 1.24-.14 2.53.791 1.599.393-.393.51-1.127.26-1.632zm17.31-4.726c-.455-1.559 1.087-2.291 1.917-.91.85 1.412 3.541 2.399 4.103 1.503.228-.363-.32-1.012-1.216-1.443-.896-.43-2.078-1.577-2.627-2.547-.549-.97-1.018-1.358-1.043-.86-.025.496-1.31 1.733-2.853 2.747-3.077 2.02-3.13 2.137-2.288 5.051l.58 2.008 1.875-2.221c1.031-1.222 1.73-2.72 1.552-3.328zm-6.4 2.103c.656-2.215.667-2.779.053-2.81-.824-.041-2.428 2.87-2.028 3.678.617 1.246 1.457.877 1.975-.868zm-8.426-1.932c.172-.76-.123-1.31-.716-1.34-.555-.028-1.127-.479-1.272-1.002-.176-.635-.505-.714-.992-.237-1.12 1.096.057 4.29 1.495 4.06.656-.106 1.325-.772 1.485-1.481zm40.718 2.574c.032-.641-.262-.97-.653-.73-.391.238-.552.756-.357 1.15.528 1.067.944.894 1.01-.42zm-9.628-1.018c.961.466 1.12-.405.35-1.919-.419-.824-.848-.874-2.059-.238-1.233.649-1.844.551-3.156-.503-1.708-1.372-1.738-4.073-.038-3.459.528.19 1.655.416 2.504.5.85.086 1.779.629 2.066 1.208.903 1.825 2.096-1.114 1.314-3.236-.656-1.777-4.433-3.306-4.955-2.006-.142.354-.8.617-1.462.584-.964-.049-1.323.777-1.813 4.17-.336 2.326-.497 4.46-.358 4.741.14.281 1.72.34 3.512.132 1.792-.208 3.635-.197 4.095.026zm-26.076-4.251c.017-.333.64-.575 1.384-.537 1.364.068 1.82-1.144.968-2.576-.535-.9-4.825-1.253-6.002-.494-.457.295-.952.007-1.149-.668-.459-1.571-1.736-.73-1.833 1.21-.053 1.039.249 1.412.937 1.16.559-.204 1.18-.04 1.38.364.575 1.162 2.309.95 2.371-.288.031-.618.361-1.107.733-1.088.77.038.85 1.045.14 1.755-.262.261-.607 1.397-.767 2.524-.277 1.945-.239 1.978.758.646.577-.772 1.063-1.675 1.08-2.008zm17.11-2.86c.022-.425-.495-1.608-1.147-2.63l-1.187-1.858-.473 1.628c-.283.977-.067 2.178.541 3.002 1.017 1.378 2.194 1.304 2.266-.141zm-11.174-4.49c-.13-2.361-.386-2.666-2.705-3.221-1.41-.337-2.71-1.121-2.892-1.742-.247-.847-1.247-1.12-4.007-1.091-3.122.032-3.6.222-3.16 1.258.284.672.997 1.708 1.583 2.303.916.929 1.169.901 1.794-.193.66-1.155.919-1.047 2.75 1.142 1.83 2.188 2.105 2.303 2.91 1.211 1.497-2.033 3.006-.612 2.351 2.215-.484 2.088-.415 2.315.478 1.583.676-.555.992-1.77.898-3.464zm28.102 1.893c.18-.506-.12-1.137-.669-1.403-1.138-.552-4.079.765-3.649 1.634.47.948 3.963.761 4.318-.23zm-23.116-6.038c-.361-.946-.752-2.218-.869-2.827-.135-.71-.642-.268-1.414 1.236-1.17 2.279-1.165 2.322.187 1.612 1.16-.61 1.438-.465 1.684.87.162.88.469 1.427.682 1.215.212-.213.09-1.16-.27-2.106zm12.664 1.208c.567-.681 1.478-.879 2.494-.541 1.267.42 1.527.283 1.25-.666-.473-1.621-2.725-2.446-3.936-1.442-.543.45-1.533.689-2.2.532-1.557-.365-2.95.503-3.02 1.882-.073 1.464 4.232 1.651 5.412.235zm-19.019-7.526c-.332-1.455.893-1.814 1.251-.367.124.5.604.66 1.09.363.651-.398.689-.794.15-1.592-1.043-1.545-.048-2.772 1.446-1.784.899.595 1.321.52 1.65-.29.241-.599.906-1.065 1.476-1.037.57.03 1.064-.489 1.098-1.15.044-.878.47-1.067 1.575-.7 1.992.662 6.494-.81 6.194-2.025-.128-.517.064-.925.428-.907.922.047 1.666-2.024.928-2.584-.334-.254-1.322.36-2.198 1.365-1.685 1.933-3.974 2.277-5.197.78-.556-.68-.953-.444-1.616.961-1.01 2.137-3.814 3.62-5.524 2.922-.89-.363-1.29.055-1.69 1.767-.328 1.403-.94 2.222-1.635 2.187-.822-.041-1.027.387-.788 1.648.178.937.307 2.209.287 2.826-.033.999.042 1.002.67.034.39-.599.572-1.687.405-2.417zm-7.161-1.453c1.271-2.644 1.234-3.264-.185-3.074-.88.118-1.13-.282-.95-1.514.155-1.055-.12-1.694-.744-1.725-.798-.04-.875.352-.395 2.013.327 1.135.395 2.775.151 3.646-.42 1.497-.096 2.58.78 2.611.218.008.822-.873 1.343-1.957zm3.833.66c-.198-.401-.659-.547-1.024-.323-.364.223-.5.733-.302 1.134.198.4.659.546 1.024.322.364-.223.5-.733.302-1.134zm18.282-.664c.426-.265.563-.742.303-1.06-.26-.317-.852-.196-1.317.269-1.067 1.066-4.419.936-4.978-.193-.294-.594-.613-.553-1.054.134-1.087 1.691-.78 2.022 1.589 1.72 1.56-.2 2.578.082 3.18.882.786 1.047.918 1.041 1.193-.046.17-.673.658-1.44 1.084-1.706zm4.132-.662c1.681-3.85.572-8.698-1.51-6.596-.632.639-.557 1.03.317 1.637 1.36.947 1.388 3.227.055 4.56-.829.828-.976 2.81-.21 2.848.15.007.756-1.095 1.348-2.45zm4.885-.987c-.21-.423-.82-.792-1.357-.819-.536-.027-.992.288-1.013.7-.02.41.59.779 1.357.818.766.038 1.222-.276 1.013-.7zm-24.502-4.848c.538.16 1.003-.215 1.034-.832.042-.833-.556-1.086-2.326-.98-3.27.195-3.72.614-2.362 2.197.986 1.15 1.282 1.203 1.921.343.416-.56 1.196-.887 1.733-.728zm-4.673-6.007c1.722-2.158 2.309-2.452 3.941-1.972 1.442.423 1.855.307 1.664-.466-.38-1.532-4.574-1.52-5.548.017-.443.7-1.142 1.255-1.554 1.234-.412-.02-1.45.57-2.306 1.311-1.116.967-1.315 1.471-.703 1.78 1.765.891 2.537.565 4.506-1.904zm16.55-1.752c1.484-1.483 1.009-2.542-.838-1.866-.605.221-1.132 1.04-1.17 1.818-.09 1.788.259 1.796 2.008.048zm-17.552-4.06c1.302-1.3 1.115-2.793-.359-2.867-1.557-.078-2.395 1.025-1.947 2.563.393 1.344 1.164 1.446 2.306.305zm24.517 1.009c.03-.618-.532-1.152-1.252-1.188-.72-.036-1.457-.704-1.64-1.484-.181-.78-.896-2.043-1.588-2.808-1.044-1.154-1.445-1.235-2.36-.476-.972.805-.816 1.207 1.295 3.356 3.54 3.601 5.45 4.497 5.545 2.6zm-12.06-1.732c1.828.092 1.96-.067 1.635-1.98-.194-1.144-.61-2.207-.924-2.363-.314-.156-.977-.78-1.473-1.387-1.08-1.32-2.337-1.5-2.395-.344-.027.542-.844.622-2.35.23-1.878-.489-2.455-.333-3.096.836-1.126 2.055-.99 2.902.213 1.324 1.203-1.579 2.58-.877 1.846.942-.474 1.176-.39 1.178 1.216.026 2.805-2.01 3.516-2.142 4.57-.853.908 1.11.78 1.364-1.378 2.738-1.308.832-1.81 1.338-1.116 1.122.695-.215 2.158-.346 3.252-.29zm-9.81-8.742c.022-.412-.096-.755-.26-.763-.164-.009-.504.312-.755.712-.25.4-.133.743.261.763.395.02.734-.3.755-.712zm8.216-1.418c.06-1.191-1.112-2.364-1.738-1.739-.588.588.175 2.741.986 2.782.384.02.722-.45.752-1.043zm-9.644-3.904c.25-.4.59-.72.754-.712.165.009.282.352.261.764-.02.41-.36.731-.754.711-.395-.02-.512-.363-.261-.763z" fill="#8c2800"/><path d="M171.354 346.114c-1.139-1.098-3.71-2.902-5.715-4.01-3.364-1.858-3.784-2.395-5.453-6.967-.995-2.725-1.77-5.71-1.724-6.633.046-.923-.787-2.779-1.852-4.123-1.354-1.71-2.081-3.672-2.42-6.532a541.077 541.077 0 00-.761-6.155c-.203-1.511.038-2.183.895-2.496 1.931-.707 3.718 2.249 3.854 6.374.083 2.537.585 4.242 1.625 5.522 1.522 1.873 5.656 3.224 5.724 1.872a.745.745 0 01.786-.696c.419.021.533.574.258 1.252-.683 1.689.549 6.288 1.7 6.346.52.026 1.478-.753 2.126-1.731 1.016-1.533 1.076-2.158.432-4.522-.539-1.977-1.073-2.666-1.915-2.468-.853.2-1.479-.656-2.326-3.185-1.12-3.344-1.188-3.404-2.06-1.812-.497.905-1.132 1.346-1.412.978-.748-.981.281-5.503 1.241-5.455 1.183.06 3.927-3.05 4.002-4.534.074-1.48 2.767-1.606 3.93-.185.576.706 1.045.662 2.01-.189.824-.724 2.016-.94 3.442-.624 2.11.47 2.185.4 2.313-2.136.109-2.173-.154-2.717-1.537-3.177-1.187-.394-1.643-1.061-1.58-2.31.12-2.402-2.339-6.2-3.356-5.183-.421.42-1.349.736-2.061.7-1.155-.058-1.268.322-1.04 3.51.25 3.502.232 3.54-.868 1.92-.618-.91-1.418-2.278-1.778-3.04-.62-1.31-.737-1.3-2.214.176-.858.857-2.04 1.534-2.625 1.505-.882-.045-.807-.379.438-1.954.826-1.045 1.54-2.67 1.588-3.61.047-.939.575-2.639 1.173-3.776.598-1.138 1.284-2.67 1.524-3.406.24-.736.722-1.122 1.07-.857.407.309.36 1.163-.135 2.394-.422 1.053-.623 2.091-.446 2.308.514.628 2.566-1.36 3.305-3.201.371-.927 1.175-1.66 1.786-1.629 1.024.052 1.018.194-.076 1.845-.653.984-1.212 2.294-1.243 2.91-.06 1.181 2.12 3.024 2.788 2.357.792-.792 3.761 2.37 3.683 3.922-.044.88.85 3.22 1.989 5.202l2.07 3.601 2.381-1.029c5.286-2.282 6.907-3.266 6.955-4.222.033-.662.502-.818 1.38-.46.847.346 1.347.203 1.377-.394.026-.516.753-1.687 1.615-2.604 2.049-2.178 1.26-3.08-3.259-3.73-3.414-.492-5.42-1.625-5.35-3.02.047-.948 1.912-.716 2.156.268.112.456 1.653 1.003 3.423 1.216 1.77.213 3.733.956 4.361 1.65.629.696 1.347 1.275 1.597 1.287.705.036.7-3.23-.008-5.944-.864-3.31.31-4.541 2.166-2.271.739.903 1.328 1.947 1.309 2.32-.019.373.697.342 1.59-.068 1.431-.657 1.553-.997 1.024-2.845-.458-1.6-.329-2.655.544-4.438l1.145-2.34 1.367 2.903c.752 1.596 1.193 3.075.98 3.288-.212.212-.366-.007-.342-.487.024-.48-.26-.888-.633-.907-.372-.018-.7.428-.728.993-.029.565-.806 2.635-1.727 4.6-.92 1.966-1.629 3.943-1.573 4.395.055.452-.541 1.402-1.326 2.112-1.695 1.533-1.913 3.838-.564 5.976.972 1.54.984 1.54 2.101-.082.618-.897 1.584-1.608 2.146-1.58 1.848.093 5.283 3.255 5.618 5.17.426 2.438 1.63 2.49 1.75.076.052-1.029.66-2.435 1.35-3.125.692-.69 1.812-2.367 2.49-3.725 1.2-2.4 1.254-2.424 1.933-.823.884 2.086 1.053 6.434.394 10.096-.58 3.22-2.1 4.473-6.124 5.047-2.387.34-2.597.243-2.08-.958 1.315-3.06 1.381-3.92.305-3.975-.594-.03-1.23-.905-1.412-1.946-.19-1.085-.819-1.916-1.476-1.949-.63-.031-1.456-.438-1.836-.903-.497-.607-1.127-.586-2.23.075-1.272.762-1.505 1.416-1.348 3.78.159 2.399.043 2.71-.722 1.934-.501-.508-.88-1.536-.843-2.284.096-1.908-1.145-2.634-1.753-1.026-.942 2.491-2.595 3.845-4.088 3.35-.941-.313-1.899.031-2.775.997-1.7 1.875-3.18 1.821-3.083-.113.05-.98.527-1.473 1.384-1.43.735.037 1.54-.613 1.838-1.483.386-1.127.723-1.314 1.235-.688 1.023 1.252 1.573 1.1 2.058-.57.236-.814.914-1.454 1.508-1.425 1.128.057 1.348-.574 1.283-3.685-.056-2.705-.9-3.4-2.087-1.72-.567.801-1.889 1.65-2.938 1.885-1.094.245-2.201 1.161-2.599 2.15-.398.995-1.5 1.904-2.603 2.148-1.051.233-2.76 1.045-3.798 1.806-1.038.76-2.346 1.16-2.908.888-.56-.272-1.22-.176-1.465.215-.55.875.64 5.984 1.401 6.022.304.015 1.58-.932 2.837-2.104 1.256-1.173 2.586-1.903 2.955-1.623.408.31.228.754-.457 1.132-2.121 1.168-2.766 3.268-1.761 5.73.508 1.247 1.376 2.578 1.928 2.959.552.381 1.044 1.988 1.093 3.572.094 3.052 1.74 5.11 2.528 3.16.735-1.815 2.418-1.159 2.542.991.1 1.722.604 2.152 3.785 3.223 4.048 1.364 6.73 1.143 6.815-.561.089-1.764 1.153-1.244 3.027 1.479 1.072 1.558 1.865 2.172 2.072 1.604.505-1.39 1.383-1.056 1.697.648.402 2.186 1.449 1.917 2.565-.659.782-1.806.82-2.59.2-4.057-.975-2.3-.074-5.963 1.303-5.296.677.329.992-.057 1.054-1.29.056-1.108.579-1.875 1.41-2.071.928-.218 1.2-.007.91.708-.74 1.83 2.262 1.26 3.832-.726l1.489-1.884.588 2.037c.875 3.028.751 3.438-2.432 8.077-1.61 2.346-3.344 5.544-3.853 7.106-.509 1.561-1.483 3.343-2.164 3.96-1.608 1.453-6.523 1.284-7.954-.274-.651-.709-3.18-1.515-6.193-1.975l-5.093-.778-.953 2.927c-.525 1.609-.982 3.476-1.016 4.148-.034.672-.509 1.2-1.055 1.172-.606-.03-.864.396-.661 1.092.221.758-.09 1.128-.925 1.102-.692-.022-1.875.425-2.628.993-1.547 1.166-4.537 1.19-7.563.06-1.427-.532-2.553-.483-3.736.161-2.626 1.432-5.532.971-7.827-1.24zm4.074-3.909c.446-.814 1.038-1.307 1.316-1.097.277.211 1.38-.062 2.449-.605 2.638-1.342 3.398-1.2 4.086.757.322.918.96 1.822 1.417 2.009.99.406 1.287-2.458.33-3.185-.36-.273-.595-1.668-.523-3.1l.131-2.604-3.226.055c-2.169.038-3.603.506-4.374 1.43-.63.755-1.475 1.124-1.877.819-1.01-.767-.158-2.576 1.433-3.045.723-.214 1.342-.935 1.375-1.603.054-1.06.166-1.038.877.164.778 1.314.944 1.308 3.513-.112 2.582-1.429 2.723-1.432 3.329-.09.347.771.613 2.073.589 2.894-.036 1.258.35 1.475 2.468 1.383 2.387-.104 2.526.02 2.824 2.536.172 1.455.094 2.994-.173 3.42-.703 1.12.195.99 1.39-.203 1.082-1.082 1.927-10.08.95-10.13-.289-.014-1.246.476-2.127 1.09-.955.664-2.235.904-3.17.593-1.394-.463-1.514-.845-1.073-3.402.282-1.633.202-3.106-.186-3.4-.458-.349-.332-1.177.384-2.516 1.493-2.79 1.41-3.762-.405-4.793-.867-.493-1.898-1.802-2.29-2.909l-.714-2.013-1.316 1.619c-1.296 1.594-2.82 2.116-2.762.946.017-.33.422-.99.9-1.468.684-.684.627-1.441-.268-3.538-1.365-3.201-2.37-3.402-4.085-.815-1.035 1.56-1.142 2.222-.554 3.397.402.802.971 2.292 1.265 3.31.772 2.672-.557 2.296-1.941-.55l-1.136-2.333-1.251 1.887c-1.555 2.344-1.19 5.684.886 8.117 1.934 2.266 2.607 5.161 1.184 5.09-.57-.029-1.357-.807-1.748-1.729-.689-1.627-.743-1.598-1.808.943-.96 2.292-1.359 2.584-3.185 2.333-1.709-.236-2.242-.791-2.933-3.057-.881-2.888-3.042-3.908-3.882-1.833-.774 1.914 2.625 8.464 5.385 10.377 1.413.978 2.552 2.094 2.533 2.48-.02.384.374.72.875.745.501.025 1.428.747 2.06 1.604 1.45 1.962 2.042 1.988 3.058.132zm-3.089-2.116c-.434-.223-.62-.826-.41-1.342.208-.515-.07-1.392-.62-1.949-1.128-1.144-1.254-3.09-.196-3.038.384.02.827.632.985 1.362.157.73.666 2.274 1.131 3.432.832 2.07.678 2.336-.89 1.535zm9.118-12.34c-1.5-.332-1.843-.889-2.1-3.418-.362-3.55.267-4.672 1.067-1.903.719 2.49 1.747 3.244 3.004 2.203 1.574-1.305 2.452-.12 1.463 1.975-.47.993-1.03 1.745-1.247 1.673-.216-.073-1.2-.311-2.187-.53zm-10.447-13.117c-.195-.835-.28-2.405-.191-3.49.092-1.119-.27-2.18-.836-2.455-.725-.351-1.025.025-1.092 1.373-.052 1.02-.485 2.474-.963 3.229-.7 1.106-.651 1.786.256 3.507 1.087 2.063 1.16 2.088 2.152.744.574-.776.872-2.061.674-2.908zm4.69-5.014c.03-.617-.23-1.136-.581-1.154-.854-.043-1.524 1.095-1.013 1.72.72.88 1.535.591 1.593-.566zm24.653 15.823c-1.076-.853-2.607-1.584-3.402-1.626-1.478-.078-2.164-1.838-2.015-5.167.093-2.087-.964-2.238-2.03-.29-.881 1.606-2.818 1.908-2.727.425.083-1.346.93-2.424 2.566-3.268 1.898-.979 2.773-.196 3.356 3.005.537 2.951 2.475 3.821 2.35 1.054-.13-2.848 1.18-1.812 1.516 1.201.425 3.802 1.266 4.948 3.295 4.494 1.184-.265 1.565-.098 1.323.58-.52 1.454-2.066 1.305-4.232-.408zm10.301-.722c-.2-.246-.188-.728.028-1.072.518-.826 2.353-.714 2.31.14-.042.826-1.839 1.542-2.338.932zm-2.593-2.224c-.184-.628-1.028-1.188-1.877-1.243-1.965-.13-3.514-1.57-4.02-3.74-.219-.934-.82-2.216-1.336-2.848-.825-1.01-.691-1.116 1.114-.885 1.307.167 2.17.763 2.376 1.642.295 1.259.4 1.277 1.188.207 1.243-1.687 3.387-.557 2.391 1.26-1.024 1.868-.978 2.925.13 2.98.886.045 1.688 1.608 1.61 3.142-.055 1.108-1.213.73-1.576-.515zm1.843-4.782c.02-.411.342-.733.714-.714.373.019.66.37.64.782-.02.411-.342.733-.715.714-.372-.019-.66-.37-.64-.782zm4.736.282c.02-.387.35-.896.736-1.132.385-.235.674.097.641.738-.032.642-.363 1.151-.735 1.132-.372-.018-.661-.35-.642-.738zm4.979-1.434c.172-.481.68-.99 1.131-1.13.504-.158.638.192.349.907-.54 1.336-1.954 1.549-1.48.223zm-58.112-5.961c-.408-.5-.705-1.646-.66-2.548.046-.902-.388-1.869-.965-2.148-1.48-.718-1.607-.674-1.67.585-.032.624-.658 1.092-1.41 1.054-.822-.041-1.33-.567-1.29-1.336.034-.697-.695-2.237-1.622-3.42-1.733-2.216-2.879-8.802-1.986-11.426.792-2.332 2.248-1.261 3.284 2.415 1.044 3.705 4.145 7.81 6.011 7.959 1.838.145 2.587 1.862 2.404 5.506-.189 3.753-.875 4.853-2.096 3.359zm48.397.364c-.21-.423-.058-.753.336-.733.394.02.7.372.68.784-.021.411-.173.741-.337.733-.164-.009-.47-.361-.679-.784zm9.139.46c.02-.412.342-.733.714-.715.373.019.66.37.64.782-.021.412-.343.733-.715.714-.372-.018-.66-.37-.64-.782zm-12.04-3.517c.021-.412.354-.941.739-1.177.385-.235.683-.091.662.32-.02.412-.353.94-.738 1.176s-.683.092-.662-.32zm-34.143-9.305c.049-.964.418-1.477.912-1.267.457.195.808.803.78 1.352-.027.549-.437 1.118-.911 1.266-.513.16-.83-.387-.78-1.351zm33.507-2.809c-1.562-2.61-1.673-3.84-.34-3.772.515.026 1.07.772 1.233 1.659.222 1.204.615 1.487 1.55 1.12 1.89-.744 2.6-.711 2.785.125.092.417-.388.844-1.066.947-.678.104-1.587.638-2.02 1.187-.642.813-1.038.58-2.142-1.266zm-18.426-.182c.02-.412.342-.733.715-.714.372.018.66.37.639.782-.02.411-.342.732-.715.714-.372-.019-.66-.37-.639-.782zm-8.689-2.658c.02-.395.53-1.128 1.133-1.63.603-.501 1.725-1.536 2.494-2.3 1.038-1.03 1.585-1.16 2.12-.506 1.13 1.383.037 3.046-2.732 4.16-2.991 1.202-3.062 1.209-3.015.276zm-21.9-4.566c.26-.64.495-1.64.525-2.224.029-.583.473-1.04.985-1.014 1.51.076 2.846-1.942 2.058-3.109-.426-.631-.422-1.386.01-2.061 1.562-2.435.956-4.753-1.735-6.647-2.121-1.492-2.596-2.258-2.506-4.044.085-1.682.596-2.448 2.166-3.243 1.13-.572 2.56-1.015 3.179-.984.932.047 1.067-.427.79-2.773-.373-3.17-1.202-4.747-2.531-4.814-1.282-.064-2.853-3.15-2.732-5.366.08-1.471.733-2.185 2.948-3.219 3.243-1.514 4.156-3.258 4.417-8.435.1-2.006.48-3.829.843-4.05.363-.222.943-1.915 1.289-3.762 1.067-5.699 2.195-3.465 1.62 3.206-.589 6.813-2.576 11.77-5.18 12.92-1.802.797-1.77 2.212.044 1.953 1.688-.242 1.784 1.802.103 2.198-1.462.344-1.456.38.266 1.766 1.722 1.386 1.935 2.276 2.075 8.7.042 1.952-.201 2.271-1.825 2.395-1.856.142-2.488 1.034-1.347 1.901.326.248.414 1.064.196 1.815-.625 2.154 3.438 6.984 5.588 6.641 1.931-.307 4.602 2.425 3.206 3.279-.428.261-1.128.123-1.556-.306-.429-.43-1.686-.944-2.794-1.143-1.758-.315-2.12-.059-2.841 2.004-.454 1.3-1.54 3.124-2.412 4.051-.873.928-1.632 2.59-1.688 3.696-.084 1.666-.402 1.994-1.866 1.92-1.33-.067-1.649-.374-1.294-1.251zm50.634-.017c.021-.412.36-.732.755-.712.394.02.512.363.26.763-.25.4-.59.72-.754.712-.164-.009-.281-.352-.26-.763zm-32.26-2.911c-1.296-.591-.898-1.909.416-1.373 1.77.723 3.521-3.386 2.485-5.832-.83-1.958-.21-4.511.893-3.674.377.286.477 1.128.223 1.87-.77 2.246.579 2.356 2.633.214l1.935-2.017-1.514-3.597-1.513-3.598-1.171 2.207c-.645 1.214-1.79 2.532-2.544 2.928-1.808.95-4.607-.027-5.01-1.747-.257-1.102-.825-1.317-2.934-1.112-1.556.151-2.787-.093-3.04-.603-.257-.521.11-.83.937-.788.748.037 1.71-.505 2.136-1.205.718-1.177.824-1.177 1.39 0 .377.784 1.141 1.149 1.988.95 1.056-.249 1.357.044 1.296 1.26-.055 1.084.346 1.604 1.274 1.65.745.038 1.377-.384 1.404-.937.075-1.488 3.174-4.831 4.42-4.769 1.42.072 2.788 2.16 2.716 4.147-.032.871.427 1.715 1.02 1.875 1.617.434 6.095-2.686 6.304-4.392.168-1.375.202-1.382.437-.079.209 1.158.692 1.356 2.686 1.1 2.667-.34 6.687-3.67 6.248-5.175-.215-.737.084-.743 1.341-.029 1.41.801 1.593 1.408 1.421 4.726-.17 3.304-.42 3.908-1.893 4.571-1.423.641-1.878.518-2.822-.76-.803-1.088-1.621-1.414-2.86-1.14-.954.21-2.523.324-3.487.252-2.647-.198-4.33 2.011-3.56 4.675.468 1.621.815 1.934 1.446 1.303.972-.97 3.283-1.008 3.235-.051-.14 2.777-5.768 2.757-5.984-.022-.182-2.339-2.044-2.282-2.162.066-.059 1.171-1.215 3.012-3.135 4.99-3.332 3.432-5.378 4.697-6.654 4.116zm9.01-2.416c-.531-1.818.153-1.947 1.334-.253.917 1.315.922 1.524.038 1.48-.566-.029-1.184-.58-1.373-1.227zm7.87.76c.023-.436.335-.57.694-.297.36.273.647.645.637.827-.009.181-.32.314-.693.295-.372-.018-.66-.39-.637-.826zm6.714-2.92c-.362-1.24.25-2.075 1.067-1.455.742.564.623 2.591-.15 2.552-.333-.016-.745-.51-.917-1.097zm-25.409-3.182c.02-.387.35-.896.736-1.132.385-.236.674.097.641.738-.032.641-.363 1.15-.735 1.132-.373-.019-.661-.35-.642-.738zm21.732-.301c.017-.33.416-.984.888-1.455 1.26-1.259 1.95-1.002 1.865.693-.05.998-.526 1.474-1.429 1.428-.744-.037-1.34-.337-1.324-.666zm6.552-2.07c.25-.4.742-.713 1.093-.695.35.017.62.368.6.78-.022.411-.513.724-1.094.695-.58-.03-.85-.38-.6-.78zm-30.545-12.272c-.643-.576-1.03-1.639-.86-2.363.255-1.082.564-.892 1.737 1.075 1.494 2.502 1.11 3.065-.877 1.288zm16.151-.042c-.62-2.128 1.033-2.92 5.184-2.484 2.154.226 1.398 2.022-.822 1.953-.957-.03-2.246.366-2.864.878-.946.784-1.184.729-1.498-.347zm-13.06-1.816c.041-.822.38-1.48.752-1.462.373.019.643.708.602 1.53-.041.823-.38 1.481-.752 1.462-.373-.018-.643-.707-.602-1.53zm3.691-2.545c-.963-.507-.987-3.03-.035-3.613.359-.22.826-.047 1.039.383.596 1.204 1.654.986 1.721-.357.04-.774-.318-1.063-1.002-.813-.605.222-1.206-.097-1.393-.74-.456-1.561-1.354-1.458-1.93.222-.264.774-.958 1.581-1.542 1.795-1.388.508-3.608-.987-3.537-2.382.065-1.298 1.201-1.416 1.513-.158.148.598.816.486 2.11-.355 1.362-.886 1.925-1.862 2.007-3.48.096-1.916.257-2.104 1.081-1.268.533.54.937 1.614.898 2.387-.126 2.505 1.952 1.338 4.815-2.704 1.153-1.627 2.14-2.298 3.081-2.095 1.778.384 2.272 2.219.575 2.133-1.802-.09-2.973 1.31-3.093 3.7-.057 1.128-.389 2.225-.738 2.438-.349.214-.536.984-.416 1.711.12.727-.038 1.705-.35 2.172-.674 1.01-3.634 1.64-4.804 1.024zm17.711-.503c-.352-1.255-1.069-2.978-1.592-3.828-.95-1.544-.956-1.544-2.961-.067-2.996 2.206-5.017 2.637-5.448 1.162-.494-1.695.3-2.285 1.472-1.096.815.826 1.1.674 1.743-.93.424-1.055 1.181-1.897 1.684-1.872 1.068.054 3.603-2.592 4.328-4.517.284-.753.826-1.09 1.244-.772.484.368.54 2.182.163 5.246-.32 2.591-.3 5.024.043 5.445.342.418.474 1.379.293 2.136-.258 1.08-.465.886-.969-.907zm-28-.69c.04-.812 2.885-3.451 3.245-3.01.55.674-1.426 3.508-2.413 3.459-.47-.024-.844-.226-.833-.449zm-.961-7.89c.02-.412.467-.727.993-.7.525.026 1.796-.949 2.823-2.166 1.16-1.373 1.847-1.786 1.812-1.089-.031.619.317 1.289.774 1.489.456.2.315.253-.315.118-.629-.135-1.662.537-2.296 1.492-1.131 1.707-3.865 2.323-3.791.855zm2.407-7.379c.02-.411.495-.725 1.053-.697.559.028.999.388.978.8-.02.41-.495.724-1.053.696-.559-.028-.999-.387-.978-.799zm15.219-.277c-.454-1.553.045-2.177 1.412-1.765.875.264.874.488-.013 1.68-.938 1.262-1.054 1.27-1.4.085zm-12.401-1.77c.09-1.809 1.622-3.729 2.922-3.663.732.036 1.347-.27 1.368-.682.072-1.431 1.236-.676 1.545 1.003.397 2.157-.65 3.238-1.745 1.8-.72-.942-1.08-.844-2.489.673-.906.976-1.626 1.367-1.601.868zm8.633-5.064c-.407-1.944-.832-2.43-2.018-2.304-.826.088-1.484-.198-1.462-.636.071-1.418 2.475-.718 3.896 1.135.762.993 1.357 2.373 1.322 3.066-.107 2.13-1.193 1.342-1.738-1.26z" fill="#611d08"/></g><g aria-label="REPUBULIKA Y'U RWANDA" style="line-height:13.5624094px" font-weight="400" font-size="20.667" font-family="NYCTA Standard" letter-spacing="0" word-spacing="0" stroke-width=".542"><path d="M203.053 113.013l-2.543 1.572-8.586-14.04 5.825-3.6q2.308-1.426 4.349-.99 2.04.437 3.233 2.387.887 1.45.748 2.956-.134 1.48-1.255 2.796l6.801 3.62-3.061 1.893-6.369-3.48q-1.852 1.145-2.452 1.473zm-2.195-8.896q1.523-.942 1.961-1.922.44-.98-.276-2.15-.659-1.077-1.607-1.178-.943-.127-2.403.775l-2.653 1.64 2.575 4.212q.597-.261 2.403-1.377zM212.891 107.025l-7.492-14.66 10.497-5.446 1.216 2.378-7.795 4.044 1.606 3.144 5.88-3.05 1.24 2.427-5.88 3.05 2.073 4.056 8.303-4.308 1.357 2.655zM225.478 85.485l-2.99 1.309 2.128 4.961 2.956-1.293q1.352-.592 1.811-1.532.47-.964-.064-2.209-.505-1.177-1.489-1.506-.984-.328-2.352.27zm-.273 15.221l-6.493-15.137 6.03-2.639q2.383-1.042 4.41-.291 2.021.734 2.973 2.954.946 2.203.075 4.102-.861 1.875-3.294 2.94l-3.294 1.441 2.33 5.433zM243.881 93.322q-2.891 1.056-5.01.328-2.123-.745-3.099-3.487l-3.69-10.367 3.013-1.1 3.567 10.022q.503 1.414 1.57 1.882 1.066.469 2.642-.107 1.49-.543 2.022-1.576.55-1.038.046-2.453l-3.58-10.057 3.013-1.1 3.69 10.368q.927 2.604-.249 4.632-1.182 2.01-3.935 3.015zM255.27 81.24l-3.301.986 1.358 4.699 3.495-1.044q1.783-.533 2.367-1.3.601-.772.2-2.162-.642-2.218-4.12-1.179zm-1.75-6.054l-3.301.986 1.094 3.784 3.3-.986q1.307-.39 1.817-1.078.529-.693.28-1.555-.56-1.936-3.19-1.15zm-2.312 15.22l-4.579-15.838 6.496-1.94q2.913-.87 4.408-.208 1.513.657 2.098 2.68.651 2.253-1.268 3.572 3.26-.132 4.262 3.334.585 2.024-.456 3.73-1.04 1.707-3.812 2.535zM271.525 85.055q-2.991.713-5.007-.257-2.02-.987-2.67-3.828l-2.456-10.738 3.117-.744 2.374 10.38q.335 1.466 1.338 2.056 1.004.59 2.634.2 1.54-.367 2.188-1.332.666-.97.331-2.434l-2.382-10.417 3.116-.744 2.456 10.738q.617 2.698-.785 4.578-1.406 1.862-4.254 2.542zM279.135 83.025l-2.887-16.249 3.202-.601 2.364 13.306 7.145-1.342.522 2.943zM290.833 80.905l-2.403-16.333 3.18-.5 2.403 16.332zM298.463 79.745l-3.085.376-1.834-16.412 3.086-.376.853 7.64 5.591-8.427 3.725-.455-4.57 6.806 6.914 9.544-3.633.444-5.217-7.441-2.366 3.505zM310.65 78.297l4.42-16.862 3.704-.254 6.328 16.13-3.172.216-.974-2.51-6.456.441-.676 2.623zm9.288-5.915l-2.789-7.152-1.943 7.475zM339.996 77.139l.163-6.87-5.373-9.737 3.453.045 3.696 6.811 4.035-6.709 3.214.043-5.811 9.57-.163 6.889zM353.959 62.486l-.336 5.594-1.712-.085.335-5.594zM362.226 78.441q-3.054-.259-4.657-1.815-1.601-1.575-1.325-4.486l1.047-11.002 3.182.27-1.012 10.635q-.143 1.502.622 2.378.765.877 2.429 1.018 1.573.133 2.489-.583.934-.714 1.077-2.215l1.015-10.672 3.182.27-1.046 11.001q-.263 2.764-2.18 4.115-1.915 1.333-4.823 1.086zM381.251 80.409l-2.93-.493 2.908-16.306 6.71 1.128q2.658.447 3.885 2.128 1.228 1.68.824 3.945-.3 1.685-1.4 2.732-1.078 1.031-2.78 1.286l2.657 7.24-3.526-.593-2.43-6.847q-2.134-.359-2.797-.507zm4.254-8.187q1.754.295 2.729-.157.974-.452 1.217-1.81.222-1.25-.416-1.955-.616-.72-2.298-1.002l-3.056-.514-.873 4.892q.617.197 2.697.546zM399.023 83.789l-3.245-.772.758-16.856 2.906.692-.659 11.578 5.401-10.45 2.817.67-.35 11.708 5.271-10.538 2.906.691-7.568 15.236-3.601-.857.485-11.488zM412.25 87.07l10.279-14.132 3.525 1.123L426 91.448l-3.02-.961.019-2.702-6.143-1.956-1.589 2.202zm10.774-2.12l.039-7.703-4.542 6.27zM429.724 92.905l-2.673-1.056 6.216-15.386 2.605 1.03 2.32 12.97 4.2-10.393 2.74 1.083-6.216 15.386-2.724-1.077-2.207-13.104zM450.668 86.78l-1.583-.762-4.769 9.742 1.583.762q2.802 1.35 4.49.689 1.713-.67 2.913-3.122 1.25-2.552.598-4.299-.628-1.756-3.232-3.01zm-10.492 10.282l7.3-14.91 5.208 2.507q2.357 1.136 3.502 2.916 1.153 1.763 1.084 3.777-.045 2.005-1.124 4.209-.778 1.59-1.84 2.717-1.052 1.11-2.395 1.733-1.327.63-3.012.536-1.685-.095-3.515-.976zM453.693 103.617l13.123-11.544 3.182 1.876-3.893 16.987-2.725-1.607.615-2.637-5.544-3.27-2.033 1.802zm10.951.309l1.74-7.523-5.804 5.126z" style="-inkscape-font-specification:'NYCTA Standard'"/></g><g aria-label="UBUMWE  UMURIMO  GUKUNDA IGIHUGU" style="line-height:13.5624094px" font-weight="400" font-size="20.667" font-family="NYCTA Standard" letter-spacing="0" word-spacing="0" stroke-width=".542"><path d="M121.937 673.005q-2.586-1.65-3.296-3.781-.7-2.147.87-4.61l5.94-9.306 2.694 1.72-5.741 8.997q-.81 1.27-.533 2.405.278 1.136 1.687 2.036 1.332.85 2.469.638 1.153-.201 1.963-1.471l5.761-9.028 2.695 1.72-5.94 9.306q-1.492 2.339-3.804 2.65-2.303.296-4.765-1.276zM138.052 673.33l-3.013-1.65-2.356 4.3 3.19 1.748q1.628.892 2.578.763.966-.12 1.663-1.393 1.112-2.03-2.062-3.769zm3.036-5.543l-3.013-1.65-1.897 3.464 3.013 1.65q1.192.653 2.035.528.86-.115 1.292-.905.97-1.772-1.43-3.087zm-12.346 9.156l7.943-14.5 5.929 3.247q2.658 1.456 3.242 2.99.6 1.544-.415 3.397-1.13 2.062-3.407 1.632 2.383 2.227.644 5.4-1.015 1.853-2.948 2.324-1.933.47-4.463-.916zM147.213 686.886q-2.77-1.318-3.74-3.345-.96-2.044.295-4.682l4.743-9.97 2.887 1.374-4.585 9.638q-.648 1.36-.232 2.453.416 1.093 1.926 1.811 1.426.679 2.529.328 1.119-.342 1.766-1.702l4.6-9.672 2.887 1.373-4.743 9.97q-1.191 2.505-3.447 3.1-2.249.578-4.886-.676zM156.965 691.032l-2.53-1.045 6.312-15.282 4.312 1.782-1.654 10.983 6.748-8.88 4.245 1.754-6.312 15.28-2.58-1.065 5.133-12.429-8.292 11.125-2.343-.968 2.087-13.667zM175.654 698.36l-3.154-1.107 2.34-16.701 2.825.992-1.745 11.459 6.355-9.84 2.739.961-1.451 11.62 6.235-9.94 2.825.992-8.96 14.376-3.502-1.229 1.564-11.386zM188.405 702.718l4.774-15.83 11.273 3.4-.774 2.568-8.372-2.524-1.024 3.394 6.315 1.904-.79 2.62-6.315-1.903-1.32 4.38 8.917 2.688-.865 2.867zM213.74 701.927q.3-1.215 1.349-1.839 1.06-.631 2.295-.325 1.215.3 1.838 1.35.637 1.04.336 2.255-.304 1.225-1.355 1.858-1.05.634-2.275.33-1.225-.303-1.858-1.354-.634-1.05-.33-2.275zM234.21 714.76q-3.007-.61-4.436-2.344-1.425-1.752-.843-4.614l2.197-10.82 3.133.636-2.125 10.46q-.3 1.476.368 2.436.667.96 2.305 1.294 1.548.314 2.534-.292 1.003-.602 1.303-2.078l2.132-10.496 3.132.636-2.197 10.82q-.553 2.718-2.599 3.84-2.042 1.103-4.905.522zM244.66 716.506l-2.698-.463 2.795-16.295 4.599.788.802 11.079 4.63-10.147 4.526.776-2.795 16.296-2.752-.472 2.273-13.254-5.64 12.676-2.5-.428-.97-13.792zM264.337 719.93q-3.037-.43-4.567-2.075-1.528-1.664-1.118-4.556l1.546-10.931 3.165.447-1.495 10.568q-.211 1.492.512 2.41.724.92 2.38 1.154 1.563.22 2.51-.443.966-.661 1.177-2.153l1.5-10.604 3.166.448-1.547 10.932q-.389 2.746-2.364 3.988-1.973 1.224-4.865.815zM275.165 721.082l-2.957-.338 1.877-16.426 6.771.773q2.683.307 4.015 1.92 1.332 1.613 1.072 3.894-.194 1.697-1.226 2.8-1.012 1.086-2.697 1.43l3.11 7.086-3.559-.407-2.857-6.706q-2.154-.246-2.825-.36zm3.732-8.393q1.77.202 2.716-.3.945-.502 1.101-1.871.144-1.26-.538-1.93-.66-.685-2.358-.879l-3.085-.352-.563 4.928q.629.164 2.727.404zM286.557 722.328l1.59-16.457 3.2.31-1.59 16.456zM293.863 723.024l-2.73-.212 1.284-16.484 4.652.362 1.819 10.958 3.675-10.53 4.58.356-1.284 16.484-2.784-.217 1.044-13.407-4.45 13.142-2.528-.197-2.236-13.643zM319.69 716.395q.055-1.138-.152-2.16-.208-1.021-.699-1.891-.473-.87-1.367-1.391-.875-.54-2.067-.597-1.505-.074-2.611.737-1.107.81-1.646 2.071-.521 1.263-.596 2.785-.055 1.138.153 2.16.208 1.003.68 1.872.492.87 1.367 1.41.894.521 2.087.58 1.504.073 2.61-.738 1.107-.81 1.627-2.054.54-1.261.614-2.784zm-12.275-.598q.106-2.184 1.1-4.067.993-1.9 2.853-3.08 1.86-1.178 4.172-1.065 1.816.088 3.267.895 1.468.807 2.344 2.082.877 1.257 1.317 2.805.44 1.548.36 3.18-.107 2.184-1.1 4.085-.994 1.883-2.854 3.061-1.859 1.16-4.17 1.048-1.817-.089-3.286-.896-1.45-.806-2.327-2.063-.877-1.256-1.316-2.804-.44-1.548-.36-3.181zM334.279 717.34q.01-1.252.885-2.103.885-.86 2.157-.85 1.251.011 2.102.886.86.865.85 2.116-.01 1.262-.886 2.122-.875.86-2.136.85-1.262-.01-2.122-.886-.86-.875-.85-2.136zM362.304 724.712l-.04-1.395q-1.714 1.777-4.156 1.848-3.525.102-5.703-2.113-2.178-2.216-2.295-6.237-.068-2.333.758-4.286.843-1.973 2.59-3.218 1.764-1.246 4.151-1.315 2.645-.077 4.54 1.283 1.914 1.36 2.463 3.163l-2.79 1.404q-.37-1.367-1.515-2.198-1.128-.85-2.615-.806-2.148.062-3.315 1.658-1.166 1.596-1.09 4.222.077 2.644 1.368 4.096 1.31 1.45 3.386 1.39 1.8-.052 2.836-1.057 1.055-1.004 1.098-2.678l-3.948.115-.08-2.773 6.812-.198.262 9.016zM372.905 724.468q-3.062.175-4.886-1.137-1.824-1.331-1.991-4.247l-.631-11.023 3.19-.182.611 10.655q.086 1.504.976 2.263.89.759 2.56.663 1.576-.09 2.375-.927.817-.838.73-2.342l-.612-10.693 3.191-.182.632 11.022q.158 2.77-1.535 4.375-1.694 1.588-4.61 1.755zM383.822 723.466l-3.093.266-1.416-16.473 3.093-.266.66 7.669 5.8-8.224 3.735-.321-4.74 6.64 6.668 9.788-3.642.313-5.025-7.625-2.454 3.419zM402.395 721.927q-3.047.353-4.944-.851-1.898-1.223-2.235-4.124l-1.271-10.967 3.175-.368 1.23 10.602q.173 1.496 1.105 2.202.933.705 2.593.513 1.57-.182 2.318-1.064.767-.884.593-2.38l-1.233-10.64 3.175-.367 1.271 10.967q.32 2.755-1.277 4.457-1.598 1.683-4.5 2.02zM413.016 720.311l-2.854.418-2.396-16.359 2.78-.407 8.581 10.032-1.619-11.052 2.927-.428 2.396 16.358-2.908.426-8.55-10.203zM426.594 704.25l-1.736.312 1.909 10.632 1.736-.312q3.073-.552 4.051-2.071.993-1.54.512-4.217-.5-2.784-2.065-3.81-1.55-1.047-4.407-.534zm-2.415 14.413l-2.92-16.273 5.713-1.026q2.586-.464 4.57.3 1.982.745 3.12 2.407 1.153 1.64 1.585 4.046.311 1.736.12 3.263-.197 1.51-.917 2.796-.703 1.284-2.127 2.192-1.423.91-3.43 1.27zM439.019 715.98l1.752-17.298 3.626-.788 8.768 15.015-3.106.675-1.353-2.338-6.32 1.372-.262 2.688zm8.27-7.19l-3.87-6.66-.762 7.665zM462.27 710.574l-4.264-15.974 3.106-.829 4.264 15.974zM477.95 706.112l-.398-1.338q-1.199 2.158-3.54 2.854-3.381 1.005-6.056-.576-2.674-1.582-3.82-5.438-.665-2.237-.37-4.337.308-2.123 1.676-3.775 1.386-1.658 3.675-2.338 2.535-.754 4.717.073 2.199.822 3.193 2.424l-2.335 2.074q-.71-1.227-2.03-1.735-1.308-.53-2.734-.107-2.06.613-2.777 2.455-.718 1.842.031 4.36.754 2.536 2.375 3.606 1.64 1.065 3.63.474 1.725-.513 2.469-1.75.761-1.242.373-2.871l-3.786 1.126-.79-2.66 6.532-1.942 2.57 8.646zM481.793 704.865l-5.177-15.702 3.054-1.006 5.177 15.701zM486.184 703.482l-5.653-15.537 3.073-1.118 2.079 5.714 6.629-2.412-2.08-5.714 3.073-1.118 5.654 15.536-3.073 1.118-2.594-7.13-6.63 2.413 2.595 7.13zM506.4 696.041q-2.828 1.19-4.985.563-2.164-.644-3.297-3.337l-4.28-10.176 2.946-1.24 4.138 9.838q.584 1.389 1.677 1.806 1.092.418 2.633-.23 1.456-.613 1.929-1.669.49-1.063-.095-2.451l-4.152-9.872 2.946-1.24 4.28 10.177q1.076 2.557.018 4.636-1.066 2.063-3.758 3.195zM524.047 687.6l-.612-1.254q-.828 2.325-3.023 3.397-3.17 1.547-6.068.427-2.898-1.12-4.662-4.736-1.024-2.096-1.077-4.217-.046-2.144 1.032-4 1.094-1.862 3.24-2.91 2.377-1.16 4.665-.703 2.305.45 3.548 1.866l-1.962 2.43q-.902-1.093-2.287-1.377-1.378-.31-2.715.343-1.931.943-2.336 2.878-.405 1.935.748 4.296 1.16 2.377 2.935 3.167 1.792.78 3.658-.13 1.618-.79 2.148-2.132.547-1.35-.104-2.893l-3.55 1.733-1.216-2.493 6.125-2.99 3.956 8.106zM533.498 682.784q-2.668 1.514-4.884 1.146-2.225-.385-3.667-2.925l-5.45-9.602 2.78-1.578 5.269 9.282q.743 1.31 1.877 1.596 1.134.286 2.588-.539 1.374-.78 1.72-1.884.36-1.113-.384-2.423l-5.286-9.314 2.78-1.578 5.45 9.602q1.369 2.412.563 4.602-.816 2.173-3.356 3.615z" style="-inkscape-font-specification:'NYCTA Standard'"/></g></svg>