<svg xmlns="http://www.w3.org/2000/svg" width="1000" height="1125"><g stroke="#000"><path d="M323.997 984.143l31.279-109.916-17.091 12.146c-4.662-3.345-7.812-5.757-12.275-9.272l8.221-23.67-22.044 12.001a319.1 319.1 0 01-12.627-12.016l11.112-22.422-23.512 9.24c-4.082-4.638-8.005-9.253-11.694-13.921l13.473-21.076-24.366 6.708c-3.285-4.52-5.913-8.38-8.955-12.912l14.016-21.527-55.303 22.686-4.4-11.395 61.494-64.372c3.362-3.52 4.263-8.052.597-11.471l-97.251-90.688c-5.732-5.345-8.758-21.556-4.175-17.13l97.435 94.091 4.71-4.878-143.2-138.287c-6.218-6.005-13.462-30.058-6.551-23.147L252.585 662.61l4.68-4.91L94.412 494.847c-7.499-7.498-11.475-31.758-4.226-24.119l155.575 162.549 4.762-4.84L72.275 440.601c-5.99-6.313-11.118-29.166-5.009-22.615l139.587 149.688 6.377-5.946-157.9-169.326c-8.79-9.427-18.33-53.901-6.797-40.635l153.611 176.709 7.336-6.326L42.635 330.217c-13.72-15.782-19.38-64.693-7.497-50.533l133.724 159.367 8.846-7.543L27.59 252.604c-11.01-13.122-20.294-63.37-8.426-49.226l123.283 146.923 8.905-7.472-131.93-157.23c-11.313-13.481-20.486-63.596-8.182-48.933l121.645 144.972 8.721-7.692L15.079 123.158C3.85 109.774-5.048 59.839 6.653 73.932L125.99 216.154l8.906-7.473L19.3 70.921C3.837 52.49-7.741-14.053 7.957 4.656L305.675 359.46c13.357 15.919 53.533 22.845 53.533 58.915 0 22.042-10.648 44.298-52.788 44.299l124.704 378.555-56.377 167.21z" stroke-linejoin="round" stroke-width=".96872"/><g fill="#fff" stroke-width="5"><path d="M274.942 393.667L116.289 204.592c-22.341-26.625-21.703-93.413-3.966-72.544l196.012 233.598c12.074 14.39 20.548 15.585 30.35 26.783 13.098 14.964 13.716 52.28-23.268 52.28-25.314 0-9.875-14.512-14.12-19.616-5.881-7.069-26.355-31.426-26.355-31.426z" stroke-width="4.8436"/><path d="M271.65 447.012l-142.514-169.84c-19.743-23.53-20.49-81.451-4.816-63.009L299.85 423.35z" stroke-width="4.8436"/><path d="M274.585 507.778l-138.84-165.464c-19.744-23.53-20.492-81.45-4.817-63.008l171.856 204.81zM246.386 531.44L154.24 421.627c-19.743-23.53-20.49-81.45-4.816-63.008l125.16 149.16z" stroke-width="4.8436"/><path d="M283.023 621.518L188.99 513.346c-20.15-23.181-23.868-78.514-8.193-60.072l125.16 149.16z" stroke-width="4.8436"/><path d="M269.59 643.476l-67.361-72.238c-20.948-22.463-28.365-75.06-12.371-56.894l98.537 113.354z" stroke-width="4.8436"/></g></g><g stroke="#000"><path d="M676.003 984.143l-31.279-109.916 17.091 12.146c4.662-3.345 7.812-5.757 12.275-9.272l-8.221-23.67 22.044 12.001a319.1 319.1 0 0012.626-12.016l-11.11-22.422 23.511 9.24c4.082-4.638 8.005-9.253 11.694-13.921l-13.473-21.076 24.366 6.708c3.285-4.52 5.913-8.38 8.955-12.912l-14.016-21.527 55.303 22.686 4.4-11.395-61.494-64.372c-3.362-3.52-4.263-8.052-.597-11.471l97.251-90.688c5.732-5.345 8.758-21.556 4.175-17.13l-97.435 94.091-4.71-4.878 143.2-138.287c6.218-6.005 13.462-30.058 6.551-23.147L747.415 662.61l-4.68-4.91 162.852-162.852c7.499-7.498 11.475-31.758 4.226-24.119L754.238 633.278l-4.762-4.84 178.249-187.836c5.99-6.313 11.118-29.166 5.009-22.615L793.147 567.675l-6.377-5.946 157.9-169.326c8.79-9.427 18.33-53.901 6.797-40.635L797.856 528.477l-7.336-6.326 166.845-191.934c13.72-15.782 19.38-64.693 7.497-50.533L831.138 439.051l-8.846-7.543L972.41 252.604c11.01-13.122 20.294-63.37 8.426-49.226L857.554 350.301l-8.905-7.472 131.93-157.23c11.313-13.481 20.486-63.596 8.182-48.933L867.116 281.638l-8.721-7.692 126.526-150.788c11.23-13.384 20.127-63.319 8.426-49.226L874.01 216.154l-8.906-7.473L980.7 70.921c15.464-18.43 27.042-84.974 11.344-66.265L694.325 359.46c-13.357 15.919-53.533 22.845-53.533 58.915 0 22.042 10.648 44.298 52.788 44.299L568.876 841.229l56.377 167.21z" stroke-linejoin="round" stroke-width=".96872"/><g fill="#fff" stroke-width="5"><path d="M725.058 393.667l158.653-189.075c22.341-26.625 21.703-93.413 3.966-72.544L691.665 365.646c-12.074 14.39-20.548 15.585-30.35 26.783-13.098 14.964-13.716 52.28 23.268 52.28 25.314 0 9.875-14.512 14.12-19.616 5.881-7.069 26.355-31.426 26.355-31.426z" stroke-width="4.8436"/><path d="M728.35 447.012l142.514-169.84c19.743-23.53 20.49-81.451 4.816-63.009L700.15 423.35z" stroke-width="4.8436"/><path d="M725.415 507.778l138.84-165.464c19.744-23.53 20.492-81.45 4.817-63.008l-171.856 204.81zM753.614 531.44l92.145-109.813c19.743-23.53 20.49-81.45 4.816-63.008l-125.16 149.16z" stroke-width="4.8436"/><path d="M716.977 621.518l94.033-108.172c20.15-23.181 23.868-78.514 8.193-60.072l-125.16 149.16z" stroke-width="4.8436"/><path d="M730.41 643.476l67.361-72.238c20.948-22.463 28.365-75.06 12.371-56.894l-98.537 113.354z" stroke-width="4.8436"/></g></g><path d="M475.177 191.214a72.685 72.685 0 00-8.325.394c-18.858 1.939-35.927 7.086-51.797 15.045-13.663 6.853-14.349 14.192-14.349 22.13 0 7.027-1.632 7.93-6.78 7.93-20.796 0-29.239 7.079-37.054 15.38-15.51 16.471-12.176 42.928-9.566 61.725 2.005-10.674 6.246-24.806 11.08-24.067 5.873.898 12.363 6.39 25.428 3.451 4.356-.98 10.152-1.669 15.348-.575 6.218 1.309 4.959 6.987 13.2 15.378 15.45 15.735 26.316 34.879 35.993 52.402 4.543 8.226 7.487 19.89 7.81 28.82.388 10.676 2.644 22.179-.181 32.724-4.405 16.44-15.684 18.59-18.587 27.73-7.765-.477-11.938 4.557-14.047 11.443-6.141 1.487-10.881 5.134-11.988 11.503-4.466.994-8.984 2.796-10.171 7.63-5.8.005-10.06.8-13.32 5.57-4.754-2.112-10.581-2.888-15.742 2.663-6.065-4.862-13.567-4.918-17.286-2.15-1.222.911-2.835-.555-3.087-3.48-.47-5.434-6.164-9.705-12.927-9.476 1.3-3.9-.819-9.046-3.632-9.99-1.806-.606-2.422-2.18-2.422-4.813-3.623-2.917-14.713-11.384-14.713-20.555 20.928 0 21.132-32.936-2.724-41.504-22.168-7.961-45.52 11.716-54.279 37.447-28.218 82.893-11.557 149.592 8.234 213.361H729.98c19.792-63.77 36.453-130.468 8.235-213.36-8.76-25.732-32.111-45.409-54.28-37.448-23.856 8.568-23.651 41.504-2.724 41.504l-4.298 23.461c0 1.22.474 3.188-.394 4.269-2.81 3.5-2.36 5.564-.605 8.264 1.142 1.757 1.93 4.17-.242 5.298-2.538 1.316-3.378 2.449-2.967 5.085.247 1.587-.625 2.568-2.543 2.301-2.717-.378-4.989.84-6.145 4.057-.493 1.37-2.288 2.132-3.754.666-1.56-1.56-3.442-1.856-5.813 0-1.314 1.029-4.696 1.388-6.569-.485-3.36-3.36-9.318.17-9.081-1.15.998-5.578-4.846-12.666-10.202-12.563 1.996-5.54.22-13.194-7.326-15.62.977-4.704-2.459-8.497-7.417-9.749 2.018-3.889 1.639-11.556-4.51-14.53 1.568-6.435 1.774-16.905-3.664-19.89-3.442-1.394-15.12-43.96-21.281-67.144 10.754 22.862 20.309 48.342 43.108 57.185 12.979-38.31-43.841-105.314-54.006-121.817-2.223-3.609-.22-5.023 2.543-1.816 42.53 49.366 80.25 88.176 119.97 72.533-8.156-27.1-67.934-44.48-110.283-80.404-2.445-2.074-1.117-4.43 2.543-2.603 42.622 21.267 80 43.524 113.34 29.606-22.174-21.202-74.98-32.475-119.607-46.075-5.612-1.71-8.907-8.868 2.876-7.598 58.51 6.306 139.643 53.951 172.947 9.233-24.58-25.552-109.698-23.264-161.322-22.16-19.037.408-28.342-1.531-40.565-7.93-7.466-3.91-33.646-18.586-50.162-28.82-8.321-5.157-18.845-8.271-30.605-8.416z" fill="#fff" stroke="#000" stroke-linejoin="round" stroke-width=".96872"/><path d="M474.087 191.365c-.752-.003-1.518.015-2.27.03-5.474.115-10.96.71-16.227 1.635-13.794 2.424-27.598 6.608-40.08 13.23-9.624 5.105-13.517 9.626-14.622 17.83-.312 2.314-.317 7.691-.939 9.475-1.007 2.889-3.605 3.003-9.202 3.118-10.503.216-21.667 3.155-31.605 12.866-12.816 12.524-17.46 33.211-11.746 62.876 3.056-8.09 2.48-14.828 8.083-21.1 2.196-3.32 7.92.418 10.807 1.12 13.137 3.91 21.097-.735 29.425-.151 5.588.392 7.473 1.322 11.655 9.475 2.875 5.604 15.977 16.395 26.852 34.42 6.552 10.86 15.992 23.722 19.738 39.233a94.24 94.24 0 01.999 4.632c.42 3.809.826 6.631 1.332 8.81-.074 8.704 2.472 21.091-.243 32.784a.556.556 0 01-.15-.272 36.784 36.784 0 01-1.515 5.056c.082.205.184.402.273.605-.954.851-2.022 2.46-3.179 5.207-1.056 2.509-6.618 7.466-11.17 12.079-.28.3-.461.649-.575.999-.602.583-1.355 1.894-2.331 4.359-10.005-.613-12.895 8.038-13.986 11.17-3.045 1.397-10.5 2.882-11.928 11.625-.257.046-.483.102-.726.151-.031.236-.04.463-.06.697-3.362-1.042-9.681 4.597-9.658 7.023-6.37-.469-11.006 1.881-12.956 5.237-7.395-2.861-12.864-1.212-16.014 2.846-5.315-4.706-13.627-5.424-17.861-1.908-3.886-.215.34-12.007-15.288-13.38-.054-1.57 2.29-7.265-5.055-10.474-.899-1.276-1.185-2.783-1.363-4.299-2.06-1.4-15.114-12.53-14.228-20.1 15.653-.912 17.271-16.305 13.805-25.036-6.889-17.35-22.34-20.434-34.027-17.68-16.418 3.87-31.113 19.372-38.567 43.17-13.401 42.785-16.852 80.53-11.17 120.302 4.636 32.46 8.387 48.006 21.22 88.366H729.92s14.204-48.635 18.436-71.292c4.514-24.17 7.327-55.148 2.18-90-4.573-30.957-10.973-61.413-28.396-78.285-10.862-10.52-23.614-16.351-37.932-11.413-9.665 3.334-18.198 10.284-18.314 25.369-.115 14.842 11.879 16.32 15.136 16.316l-3.966 22.947c-.293 2.387.383 3.236-1.09 5.661-4.126 4.461 3.058 9.322.424 11.685-6.863 3.84-1.93 8.556-5.116 8.265-8.2-.751-5.677 5.553-9.96 5.358-5.847-3.872-3.749-.241-10.383.03-2.935-.171-4.773-4.237-11.806-1.907.19-2.947-1.813-12.125-10.233-13.138 2.098-7.978-2.736-14.014-7.93-15.56 2.075-2.277-1.408-8.333-6.51-9.779 1.814-8.564-1.012-12.48-5.085-14.651 2.174-5.686 1.035-16.58-2.967-19.314-5.007-1.711-13.187-37.498-17.83-52.826-4.226-13.266-2.503-11.522 1.967-.938 5.59 10.495 16.694 36.292 37.024 43.32 6.565-20.8-6.186-45.453-12.564-58.335-10.49-20.358-24.995-40-38.96-59.062-5.883-9.161-3.736-11.555 5.721.817 25.785 27.004 68.059 83.597 114.46 65.782-7.43-27.437-71.933-46.559-106.589-77.83-8.953-5.48-4.983-7.924 3.3-2.725 43.959 22.249 79.24 39.669 108.406 27.094-16.633-19.443-89.416-37.07-113.34-44.47-15.837-3.475-16.47-12.906 8.657-7.387 51.493 9.145 130.953 49.533 161.292 7.538-25.045-27.91-133.73-22.528-149.576-22.432-15.016.092-32.887 1.832-46.771-5.025-20.562-10.351-35.281-18.618-56.126-31.847-9.016-5.722-20.117-7.944-31.392-7.992zm7.023 11.595c1.82 0 3.133 1.376 5.6 4.026 1.179 1.265 2.218 2.686 4.269 2.059 4.28-1.309 5.152 2.259 7.992 5.146 1.4 1.424 2.669 3.615 4.783 3.179 7.764-1.604 4.294 1.949 4.299 3.208.008 2.185 2.716 1.794 4.692 1.635 3.608-.29 5.581-.702 3.027 3.875-1.373 2.46.248 3.386 1.211 3.088 2.918-.904 4.782-1.005 5.146 3.723.124 1.603.158 3.653 2.27 4.45 1.381.521 3.027.5 3.089 1.665.103 1.945-2.49 1.588-4.844 3.3-2.512 1.826-4.584 3.089-6.72 4.571-9.52 6.606-13.653 8.725-13.653 15.62 0 1.152.212 4.525-1.575 3.876-.96-.349-1.128.592-1.06 2.33.32 8.07 1.133 9.494-5.57 8.628-5.012-.647-5.18 3.323-5.509 16.045-.248 9.613-.272 13.077-2.27 15.5-3.74 4.531-8.572 6.335-12.351 1.664-.914-1.129-.633-2.089-3.452-2.119-1.048-.01-1.554-1.521-1.695-2.33-.269-1.546-.638-3.71-2.815-3.754-1.905-.04-.44-3.363-6.63-3.906-4.012-.351-6.998.595-3.723 1.393 3.058.745 5.66.909 5.66 2.482 0 1.104.77 1.955 1.938 2.361 1.638.57 2.203 1.621 2.12 2.786-.388 5.395 4.19 8.629 7.93 11.17 1.995 1.355 3.128 1.565 5.631 1.453 2.115-.094 3.93.29 4.874-.605.428-.405.89-1.334 1.968-1.302.69.02 1.629-.737 2.755-1.756 1.902-1.722 1.883-1.464 2.664-.272 5.93 9.054 12.08 15.606 36.478 32.573 3.444 2.395 7.002 1.643 2.119-1.907-12.607-9.165-36.416-28.742-36.963-36.448-.317-4.477.381-4.776 3.603.575 7.076 11.755 24.083 18.388 40.686 23.764.4.13.844.206 1.332.272-.335.558-.681.975-1.06 1.12-2.04.784-2.111 2.975.424 5.238 1.164 1.038 2.043 1.607 1.393 4.177-.517 2.041-.565 3.906 1.21 5.268 1.232.944 2.439.971 2.12 3.3-.106.771 1.33 2.638 2.755 3.571 2.17 1.423 3.147 1.04 4.631-.151 1.129-.906-.459-3.059 1.09-3.602 3.96-1.39 2.055 1.418 3.027 1.725 4.375 1.382 5.022-1.204 8.204.363 4.707 2.319 3.836-6.931 4.844-6.962 1.286-.04.953 6.683.878 7.477-.555 5.826-4.274 2.839-4.39 5.267-.108 2.271-1.774 1.57-2.694-.06-1.19-2.106-2.82.117-2.028 3.27.53 2.116 1.674 2.447 3.996 2.118 2.252-.319 3.73-.15 4.39 1.786.536 1.579.807 4.327.544 4.753-.263.426.178 2.164.969 2.695 2.304 1.547 1.008 1.083-2.755 2.785-3.715 1.68-3.313 6.667.09 6.115 2.618-.425 2.719 4.215-.907 5.479-2.89 1.007-5.282-1.483-5.752-6.57-.527-5.697-.312-6.014 1.846-7.204 1.388-.765 2.26-1.906 1.968-2.664-.418-1.088-1.124-1.015-3.42.303-2.435 1.397-3.78 2.296-3.573 6.417.245 4.868-1.104 11.292-6.266 11.292-2.336 0-4.29-.4-7.084-4.722-1.394-2.156-1.926-2.94-3.27-2.755-1.343.185-1.788 4.863-2.512 6.932-1.098 3.152-1.835 5.42-4.51 5.419-2.561-.002-6.045-1.583-8.083-7.084-.88-2.375-.943-3.358-2.301-3.118-1.358.24-1.189 1.355-1.332 3.088-.375 4.536-1.818 8.143-5.661 8.143-2.773 0-4.738-1.003-6.206-3.239-1.303-1.985-1.54-3.082-2.694-2.997-1.154.086-1.106 1.118-2.12 3.118-1.41 2.785-2.525 3.724-4.177 3.724-1.793 0-2.85-1.153-4.117-3.663-1.155-2.289-1.084-3.097-2.18-3.179-1.153-.085-1.39 1.012-2.694 2.997-1.468 2.236-3.402 3.24-6.175 3.24-3.844 0-5.317-3.608-5.692-8.144-.143-1.733.026-2.847-1.332-3.088-1.357-.24-1.42.743-2.3 3.118-1.174 3.167-2.831 5.01-4.511 6.024-1.594-.994.676-10.368-.787-12.078-.742-.868 2.558-.375 2.785-1.211.203-.75 8.522-4.736-3.42-4.904-3.39.08-4.666-3.693-1-3.572 4.902.16 4.556-.413 4.42-1.484-.403-3.178.9-3.676 1.786-5.54 1.144-2.408.337-3.935-.848-4.329-.634-.21-1.02.95-1.09 2.18-.128 2.26-2.474 3.64-5.025 1.332-3.052-2.763-4.895-6.351.182-5.903 2 .176 3.385.471 3.754-.454.602-1.512-1.787-2.274-4.723-2.543-3.392-.311-3.396-2.288-2.482-3.996.594-1.11 1.561-2.05 1.271-3.027-.329-1.11-2.935-.84-3.693 1.301-.511 1.446-2.109 2.695-3.36.727-1.83-2.878 1.622-2.439 2.391-4.632.872-2.485.723-2.445-1.362-3.905-1.287-.901-2.18-2.235-2.18-3.057 0-2.903-2.98-7.293-5.267-7.69-3.64-.63-7.481-4.026-8.416-7.356-1.005-3.584-2.44.388-3.027-1.18-1.433-3.826-8.158-5.085-7.598-6.085.742-1.325 5.808-.844 5.873.212.036.588.319 1.468.908 1.483 1.233.032 1.271-1.29 1.271-2.634 0-1.731-.356-2.682-2.633-3.542-1.768-.667-4.387-1.092-4.239-.151.274 1.74-3.863 2.257-5.66 1.241-1.512-.854.254-2.146.484-3.45.322-1.829-1.95-2.184-4.632-3.422-2.352-1.085-2.906-2.672-3.451-4.843-.522-2.079-.22-3.229-3.754-4.33-1.52-.473-5.58-1.804-4.692-2.724.712-.738 2.627-.572 1.756-2.543-.823-1.86-5.656-4.638 4.39-2.724 2.508.478 4.767-.055 4.903-1.484.185-1.926-3.107-3.08-9.687-3.178-3.391-.05-6.558 1.119-8.96-1.423-2.265-2.395-13.763-2.769-17.982.272-6.76 4.873-12.02 2.856-17.135.666-5.135-2.199-5.458-2.7-2.966-4.752 3.184-2.623 7.664-4.91 12.351-5.964 3.697-.831 24.677-3.07 23.128-.394-1.513 2.615 16.667 5.21 16.62 2.15-.065-4.139 11.403.55 13.017 4.57 1.508 3.759 2.72 4.76 7.598 2.271 2.86-1.458 6.491.446 7.054 1.696.907 2.016 4.35 1.584 5.025.212.29-.59 1.207-1.121 3.27-1.15 2.255-.033 3.334.496 3.753 1.15.318.496.945 1.09 2.09 1.09 1.143 0 2.36.47 2.724 1.059.364.59 1.622 1.09 2.785 1.09 1.162 0 2.77.577 3.118 1.483.347.906 1.697 2.559 3.45 3.451 2.617 1.33 6.413-.078 5.54-2.33-.299-.774-1.513-1.577-1.513-2.302 0-3.023-4.788-7.175-11.08-7.265-4.623-.066-12.694-3.293-26.64-7.144-4.739-1.31-9.82-2.46-14.954-3.603-6.788-1.51-14.256-3.918-28.365-3.905-9.264.009-14.916.425-15.924-.121-1.906-1.033-3.058 2.592-8.113 3.42-1.018.168-1.877.501-1.877 1.09 0 .59-.81 1.04-1.574 1.151-1.32.193-2.976 1.712-4.39 2.361-1.847.85-2.932 2.4-4.904 3.754-3.196 2.195-3.66 2.12-5.206.575-2.118-2.117-1.874-10.866.302-10.837 2.488.032 1.95-1.32 1.393-3.33-.478-1.722 1.933-1.159 3.542-3.088.519-.622-1.59-3.988-.545-3.724 4.129 1.046 3.426-3.083 3.754-3.935.542-1.412 1.365-1.665 1.695.09.387 2.062 1.63 1.883 2.361-.423.394-1.241.627-3.208 3.451-2.725 2.231.383 3.998-.102 3.754-2.36-.409-3.78.39-4.772 5.116-4.057 3.013.455 6.565-.092 7.598-.848 1.498-1.095 2.266-1.75 3.028.515.436 1.296 2.153 2.68 3.542 2.3 1.667-.455 2.633.5 2.633 1.09 0 .59.68 1.06 1.514 1.06.835 0 1.216.928 1.514 1.665.297.736 2.073.271 1.846-1.484-.097-.75-.23-4.37 1.06-4.298 1.318.073 1.11-.894 1.24-1.726.197-1.254 3.43-1.853 6.63-1.06 2.163.537 3.751-.024 4.239 1.605.172.574 1.554 1.146 1.967.666 1.51-1.752.683-3.796-3.208-5.086-2.124-.704-3.778-3.294-2.362-3.42 2.552-.229 2.59-1.335 1.574-4.027-1.142-3.026-2.391-.993-2.391-3.42 0-1.38 2.727-1.023 2.694-3.058-.009-.544.21-3.446.969-3.3 3.443.664.248-4.445 3.784-4.117 1.32.123 2.57.228 2.028-2.33-.375-1.77.095-2.917 2.846-2.362 1.55.313 4.15.241 4.268-.666.448-3.41 4.124-4.624 9.566-3.754 2.964.474 6.395 1.086 5.843-1.483-.819-3.813 3.424-2.31 11.352-2.937 9.447-.746 10.443 1.854 13.138 2.089 3.642.318 7.245.362 8.416-1.302 1.527-2.168 2.189-1.482 5.51-2.482.494-.149.942-.242 1.362-.242zm-.454 3.996c-.785.04-1.635.564-1.635 1.271 0 .26 1.08.636 1.998.636.92 0 1.158-.794.787-1.393-.229-.37-.68-.538-1.15-.514zm-23.128 1.786c-.814 0-2.149.682-2.513 1.271-.377.61 1.006 1.544 2.604 1.544 1.597 0 2.405-1.176 2.028-1.786-.364-.59-1.305-1.03-2.12-1.03zm17.982 2.906c-1.333.04-2.546.234-2.331.757.579 1.411 4.19 1.383 4.692 1.332 1.243-.127 1.286-1.384.696-1.816-.257-.189-1.725-.313-3.057-.273zm-29.365.121c-.842.012-1.775.119-2.785.363-3.889.942-7.697 1.37-11.352 1.332-1.439-.014-.822 2.596-.151 2.664 2.462.251 6.277-.4 9.445-.938 2.956-.501 7.257-1.46 8.113-2.059.812-.567-.742-1.398-3.27-1.362zm.364 3.39c-.638.027-1.302.758-1.302 1.575 0 .933.575 1.481 1.483 1.695 1.506.355 1.337-2.867.091-3.24a.835.835 0 00-.272-.03zm-17.014 4.905a4.6 4.6 0 00-1.301.12c-1.717.422-3.342.268-3.149 1.212.119.577 1.115 1.366 2.876 1.21 1.833-.16 4.187.26 4.299-1.301.046-.633-1.358-1.174-2.725-1.241zm101.656 22.068c1.3-.228 3.436 1.318 1.15 2.15-3.186 1.16-8.105 4.017-10.232 5.025-1.721.816-3.443-.793-1.726-1.816 1.738-1.036 7.74-4.116 10.565-5.268.078-.031.156-.075.243-.09zm14.016 2.15c2.192-.108 4.644 3.112.757 4.026-8.182 1.923-18.25 3.592-28.033 10.565-1.191.85-3.977-1.073-2.028-2.361 9.865-6.52 19.218-9.566 28.85-12.17.141-.038.308-.053.454-.06zm5.51 7.144c1.854.022 3.137 2.976-.727 2.937-3.546-.037-9.288.35-12.472.908-1.764.31-2.237-1.488-.576-1.907 4.686-1.182 9.696-1.987 13.774-1.938zm-2.12 5.812c1.441-.002 2.677.067 3.572.182.999.128 2.142.604 1.847 5.419-.136 2.223.288 4.77 1.998 5.903 2.318 1.536-1.057 2.146-4.42 2.12-2.072-.017-1.902 2.333-.151 2.451 3.855.261 6.941 2.86 4.601 3.724a5.143 5.143 0 00-1.392.787c-1.375-.041-2.877-.06-4.632-.06-1.41 0-13.716.156-22.25.241-5.801.058-11.667.396-11.776-1.15-.158-2.228 7.023-1.42 9.172-2.028 4.881-1.38 14.858-5.014 22.311-5.177 2.703-.059 4-2.596-.484-2.543-7.726.092-13.886 1.708-20.07 3.633-1.769.55-2.873-.068-1.303-2.059 2.729-3.459 12.229-5.233 18.679-6.387 1.193-.213.887-2.577-1.211-2.331-6.7.786-16.205 3.441-21.736 6.478-1.445.794-2.48-.864-.545-1.907 6.194-3.34 10.059-5.222 14.53-6.175 2.924-.623 8.937-1.112 13.26-1.12zm4.39 22.705c-.325.7-.523 1.414-.575 2.028-6.001.226-22.218-.12-27.427.424-8.775.917-10.035-1.66-3.724-1.877 7.381-.255 26.323-.545 29.213-.545.888 0 1.719-.016 2.513-.03zm-48.285 5.146c.2-.016.413-.009.636 0 .51.02 1.073.1 1.695.273 5.409 1.502 12.875 1.792 23.855 1.786 18.555-.011 19.67.26 22.34 1.513 2.383 1.118 5.482 4.794 4.572 6.055-1.193 1.653-4.404-.486-7.144-.03-2.45.407-3.863 5.796-1.241 7.507 4.961 3.238 1.455 2.818-.454 6.297-2.176 3.963-6.832 5.935-10.808 6.357-2.746.292-3.206 3.106.969 3.209 2.619.065 5.21-.493 6.902.727 2.026 1.46 1.3 3.714-2.3 3.39-2.475-.222-2.783-2.456-4.33-2.089-1.692.402-1.572 6.338-.06 6.842 1.01.336.83 3.158.121 5.6-.316-.12-.622-.265-.999-.393-19.373-6.61-31.884-13.756-39.808-24.854-3.97-5.559-3.111-8.894.03-5.722 8.292 8.375 17.78 13.86 30.484 18.073 2.708.898 4.062-.275.394-1.937-18.24-8.264-20.843-11.943-28.002-19.102-5.894-5.893-4.098-8.307 2.573-1.877 10.098 9.733 24.334 11.443 33.118 12.14 9.48.75 9.39-2.16 1.06-2.725-12.126-.823-21.07-4.603-27.306-9.143-2.126-1.547-1.75-3.108 1.06-2.028 8.434 3.24 23.325 3.179 26.306 3.179 5.663 0 5.472-2.632-.363-2.755-12.323-.26-23.82-1.959-32.422-5.389-4.19-1.67-3.873-4.656-.878-4.904zm-77.043 19.435c-1.75.104-2.8 1.07-1.514 2.089 1.335 1.058 2.753.985 4.147-.757.436-.544-.786-1.242-1.846-1.332a5.442 5.442 0 00-.787 0zm144.066 55.913c1.016-.213 1.248 2.801 1.272 3.663.078 2.786-.517 4.775-1.514 4.602-1.06-.184-.968-2.39-.968-3.24 0-.848.532-4.882 1.21-5.025zm-43.32 3.996c-.629.093-1.224.592-1.301 1.514-.458 5.494-2.304 12.775-6.781 12.775-4.492 0-6.361-7.904-7.387-11.715-.452-1.68-3.012-1.431-2.694.635.918 5.971 3.98 13.926 10.172 13.926 7.242 0 9.25-10.19 9.596-15.59.071-1.118-.796-1.664-1.605-1.545zm46.106 9.294c1.128-.161 2.227.695 2.3 2.24.029.6.077 2.383-.635 2.543-.833.187-2.759-1.158-3.028-1.937-.651-1.89-.48-2.583 1.363-2.846zm-2.301 8.295c2.225 2.215 3.543-1.072 4.208.03 1.557 4.114.867 7.586.605 10.262-1.06.093-2.192-.543-2.997-1.937-1.155-2.588-1.86-5.538-1.816-8.355zm-31.484 7.477c1.791 2.7 4.295 5.583 8.568 5.691-.213 3.892.416 6.901-1.393 13.653-2.282 8.517-6.606 7.907-10.505.545-1.706-3.222-2.313-5.7-2.997-9.566 4.389-1.676 5.073-5.614 6.327-10.323zm17.135.03c1 2.22 2.835 6.058 7.931 6.236.387 2.132.675 9.894-1.03 13.532-3.68 7.862-12.123 1.263-12.32-7.447-.088-3.87-.06-5.596-.06-6.962 3.518-1.343 4.165-2.527 5.479-5.359zm13.35 1.817c1.456 2.743 3.618 3.871 5.63 3.875 3.24 6.827-4.287 5.551.485 15.317-2.72 1.55-6.27-1.419-6.933-2.966-2.498-5.829-1.414-11.716.818-16.226zm-94.3 2.664c.377 1.503 1.72 5.869 6.025 6.841.199 3.164-.62 5.548-1.846 8.628-2.434 6.108-9.815 8.435-11.807-.666-.627-2.867-.993-5.255-.696-8.84 3.95-.532 6.697-3.165 8.325-5.963zm46.257 0c1.628 2.798 4.375 5.43 8.325 5.963.298 3.585-.068 5.973-.696 8.84-1.992 9.1-9.373 6.774-11.806.666-1.227-3.08-2.045-5.464-1.847-8.628 4.304-.972 5.649-5.338 6.024-6.841zm-29.758 2.633c1.645 3.719 3.61 4.483 4.662 4.753-.182 2.64.178 4.88-1.634 10.505-1.92 5.955-6.983 9.708-9.203 1.422-1.487-5.549-1.611-8.308-1.09-12.29 2.825-.33 5.085-1.354 7.265-4.39zm13.26 0c2.18 3.036 4.44 4.06 7.265 4.39.521 3.982.397 6.741-1.09 12.29-2.22 8.286-7.283 4.533-9.202-1.422-1.813-5.624-1.453-7.866-1.635-10.505 1.053-.27 3.018-1.034 4.662-4.753zm-200.283 1.423c4.785.103 9.505 1.563 14.228 4.45-2.066 3.943-3.346 5.831-8.597 7.084-3.23.77-7.492 2.149-10.081 1.03-1.33-.576-1.823-5.048-2.12-11.868 2.218-.498 4.395-.743 6.57-.696zm387.306 0c2.175-.047 4.352.198 6.57.696-.296 6.82-.79 11.292-2.12 11.867-2.588 1.12-6.85-.259-10.08-1.029-5.251-1.253-6.532-3.14-8.598-7.084 4.723-2.887 9.443-4.347 14.228-4.45zm-397.478 1.574c.446 1.09 1.35 6.005.939 9.778-.32 2.92-5.352 3.416-7.478 2.967-2.388-.505-3.716-2.894-5.176-5.449 3.318-2.87 8.309-6.002 11.715-7.296zm407.65 0c3.406 1.294 8.397 4.426 11.715 7.296-1.46 2.555-2.787 4.944-5.176 5.449-2.125.45-7.159-.046-7.477-2.967-.413-3.773.492-8.688.938-9.778zm-380.586 4.995c2.503 2.286 5.032 5.568 6.478 9.9-.668.42-2.924 1.384-4.57 1.513-3.409.267-5.672-2.748-5.51-5.449.093-1.558 1.791-3.865 3.602-5.964zm353.522 0c1.811 2.1 3.51 4.406 3.603 5.964.161 2.701-2.102 5.716-5.51 5.449-1.647-.13-3.902-1.093-4.571-1.514 1.446-4.331 3.975-7.613 6.478-9.899zM551.01 408.36c1.876 6.263 11.07 10.732 15.53 3.784.756 2.14.784 7.074.212 10.444-1.92 11.322-9.351 6.008-11.897 3.45-1.742-1.749-5.086-6.544-6.811-11.049 1.457-1.902 2.586-4.666 2.966-6.63zm-17.194.212c2.949 7.452 5.694 10.553 10.867 8.87-.474 4.417-.893 6.117-1.937 8.657-2.562 6.23-8.736 5.713-11.564 1.393-1.93-2.947-3.045-4.091-1.695-10.989 2.165-1.366 3.825-4.93 4.329-7.931zm-251.716.484c.969 1.342 2.8 3.503 3.027 5.57.291 2.662-2.903 4.664-5.45 4.844-1.079.076-2.797-.398-4.934-1.817 1.32-1.98 5.56-7.09 7.357-8.597zm435.803 0c1.796 1.508 6.036 6.618 7.356 8.597-2.137 1.419-3.855 1.893-4.935 1.817-2.546-.18-5.74-2.182-5.449-4.844.227-2.067 2.059-4.228 3.028-5.57zM500 409.872c.747 3.316 2.34 8.447 6.418 10.505.332 4.628-2.894 10.353-6.418 10.353s-6.75-5.725-6.418-10.353c4.078-2.058 5.672-7.189 6.418-10.505zm-16.408 1.03c1.203 5.922 2.93 7.653 4.39 8.87-1.193 3.522-1.88 6.33-3.27 9.081-1.872 3.71-5.96 6.422-8.082.303-1.316-3.792-1.597-6.25-2.694-11.503 5.203.648 7.91-2.884 9.656-6.751zm32.816 0c1.747 3.867 4.453 7.4 9.657 6.75-1.097 5.255-1.379 7.712-2.694 11.504-2.123 6.12-6.21 3.407-8.083-.303-1.39-2.751-2.077-5.559-3.27-9.081 1.46-1.217 3.188-2.948 4.39-8.87zm52.886.151c1.702 1.819 4.034 2.934 6.299 2.948 3.533 3.001.964 7.831 7.445 9.252-1.675 3.141-5.13 3.805-8.961-1.847-1.535-2.265-6.443-12.127-4.783-10.353zm-256.257 1.241c4.596.058 7.832 3.788 6.539 8.628-1.085 4.06-4.858 6.09-6.932 5.298-1.036-.396-1.743-1.199-.545-3.21.885-1.485-1.37-3.097-2.452-1.513-2.754 4.028.078 7.914 4.177 7.78 4.575-.15 7.387-4.27 8.265-6.63 1.348-3.624 2.955-2.89 8.415-5.206.383 2.4 1.04 10.621-3.42 14.076-5.041 3.906-11.503 3.643-16.62 2.301-5.767-1.512-8.625-6.667-6.66-13.169 1.905-6.306 5.947-8.396 9.233-8.355zm373.926 0c3.286-.04 7.328 2.05 9.233 8.355 1.965 6.502-.892 11.657-6.66 13.169-5.116 1.342-11.579 1.605-16.62-2.3-4.459-3.456-3.802-11.678-3.42-14.077 5.46 2.316 7.068 1.582 8.416 5.206.877 2.36 3.69 6.48 8.264 6.63 4.1.134 6.932-3.752 4.178-7.78-1.084-1.584-3.338.028-2.452 1.514 1.197 2.01.49 2.813-.545 3.209-2.075.792-5.848-1.239-6.933-5.298-1.293-4.84 1.943-8.57 6.54-8.628zm-387.851 1.423c.47.007.906.034 1.301.09 2.742.397 1.98 5.114-.938 7.6-1.954 1.663-7.796 2.257-9.566-.546-.729-1.152-2.54-3.793-.727-4.934 1.81-1.14 6.633-2.254 9.93-2.21zm401.777 0c3.297-.044 8.119 1.071 9.929 2.21 1.813 1.14.002 3.782-.727 4.934-1.77 2.803-7.612 2.21-9.566.545-2.918-2.485-3.68-7.202-.938-7.598.396-.057.83-.085 1.302-.09zm-231.737 2.3c.363.002 1.226-.14 1.363.485 1.435 6.577.234 8.042-1.696 10.99-1.58 2.412-3.412 3.757-3.795 1.806-.226-1.148 1.825-3.974 1.434-7.317-.312-2.665 1.007-2.739 1.272-4.813 0 0 .334-1.153 1.422-1.15zm-183.027 2.937c.408 2.28 1.915 5.789 6.054 6.66.946 5.025-.813 7.173-2.24 8.416-3.04 2.649-6.03 1.819-8.81-.787-2.493-2.34-1.837-6.679-2.148-10.898 1.1 0 4.483.042 7.144-3.39zm427.75 0c2.661 3.433 6.044 3.391 7.145 3.39-.312 4.22.345 8.56-2.15 10.899-2.779 2.606-5.768 3.436-8.809.787-1.427-1.243-3.186-3.39-2.24-8.416 4.14-.871 5.646-4.38 6.054-6.66zm-143.945 1.15c1.84 3.296 3.617 6.081 7.023 7.871.805 4.582 1.03 5.696 1.302 10.777.51 9.539-3.797 12.605-8.75 8.174-4.27-3.821-6.824-11.19-8.203-14.5 3.124-.019 7.82-1.31 8.628-12.321zm-22.674.122c2.039 3.491 4.785 8.571 9.96 11.2.688 1.677.656 10.03-1.12 14.895-2.092 5.727-7.542 4.518-11.535.09-2.83-3.139-4.88-10.19-5.358-12.835 5.746-2.458 7.264-8.838 8.053-13.35zm-274.724.756c2.231 2.222 3.036 3.815 3.452 5.994.489 2.568-.727 6.453-3.088 7.78-2.031 1.142-5.124 1.232-7.114 1.12.408-3.243 4.935-12.163 6.75-14.894zm454.936 0c1.815 2.73 6.342 11.651 6.75 14.895-1.99.11-5.082.021-7.113-1.12-2.362-1.328-3.578-5.213-3.088-7.78.415-2.18 1.22-3.773 3.45-5.995zm-236.943.455c.356 8.313 5.23 10.13 5.994 11.23-.31 5.764-.997 10.866-2.785 14.743-3.043 6.596-8.438 4.046-10.293-2.028-.946-3.098-1.328-4.934-1.665-9.748 4.78-1.02 5.96-6.015 8.749-14.197zm18.95 0c2.788 8.182 3.97 13.176 8.75 14.197-.338 4.814-.72 6.65-1.666 9.748-1.854 6.074-7.25 8.624-10.292 2.028-1.79-3.877-2.476-8.98-2.786-14.742.764-1.101 5.638-2.918 5.994-11.231zm-209.152 2.875c-.062 3.589 1.105 7.416 4.631 9.99-1.472 2.147-3.585 3.339-5.479 2.785-1.094-.32-4.326-1.721-4.268-5.267.027-1.677-1.305-5.85 5.116-7.508zm399.355 0c6.42 1.657 5.089 5.831 5.116 7.508.057 3.546-3.175 4.948-4.269 5.267-1.894.554-4.007-.638-5.48-2.785 3.528-2.574 4.694-6.401 4.633-9.99zm-226.893 1.484c.196 1.466 1.063 8.552 5.903 9.838.083 1.926-1.396 9.707-4.995 12.442-2.646 2.012-7.299 2.487-8.9-3.905-1.205-4.81-1.043-7.245-.969-10.262 6.04-.14 8.413-7.263 8.961-8.113zm54.43 0c.548.85 2.922 7.973 8.96 8.113.075 3.017.237 5.452-.968 10.262-1.601 6.392-6.253 5.917-8.9 3.905-3.599-2.735-5.078-10.516-4.995-12.442 4.84-1.286 5.707-8.372 5.903-9.838zm57.488.242c3.92 4.977-.625 8.045 3.663 14.258-1.533 2.552-3.77.966-5.57-3.057-1.447-3.234-2.51-7.273-2.665-8.719 1.913-.191 3.453-1.14 4.572-2.482zm-306.025 9.566c.177-.006.368-.015.545 0 1.813.15 3.548 1.366 4.208 3.663.622 2.168.27 5.233-.606 9.385-2.123.505-3.46 1.222-5.116 3.118-.842-3.905-2.337-5.904-5.207-7.296.499-3.527 1.7-6.042 2.816-7.296a4.653 4.653 0 013.36-1.574zm442.1 0a4.695 4.695 0 013.905 1.574c1.116 1.254 2.317 3.769 2.815 7.296-2.87 1.392-4.365 3.39-5.207 7.296-1.655-1.896-2.993-2.613-5.116-3.118-.876-4.152-1.228-7.217-.605-9.385.66-2.297 2.394-3.512 4.208-3.663zM500 436.391c1.384 6.326 3.078 17.467 9.082 17.467.608 7.465.637 14.757-1.423 16.832-1.994 2.008-3.338 3.209-7.659 8.325-4.32-5.116-5.665-6.317-7.659-8.325-2.06-2.075-2.03-9.367-1.423-16.832 6.004 0 7.698-11.141 9.082-17.467zm-208.517.757c.32-.029.658-.024 1 0 3 .215 6.673 2.488 7.537 6.902-2.664.227-6.857 2.133-8.81 8.78-1.26-2.144-3.22-3.731-5.448-4.088 1.382-6.752.271-7.78 3.36-10.625.569-.554 1.402-.883 2.361-.969zm416.035 0c1.365-.098 2.602.23 3.36.969 3.089 2.846 1.978 3.873 3.36 10.625-2.228.357-4.187 1.944-5.448 4.087-1.953-6.646-6.146-8.552-8.81-8.779.864-4.414 4.536-6.687 7.538-6.902zm-397.599.908c.415-.01.826-.011 1.241 0 1.663.046 3.284.247 4.45.515.686 3.63 1.53 9.254 1.847 10.928-4.947.092-7.42-.204-12.018-3.844-3.14-2.486-3.631-5.807.999-7.145 1.016-.293 2.237-.424 3.481-.454zm378.921 0c1.663-.046 3.367.063 4.723.454 4.63 1.338 4.138 4.66.999 7.145-4.598 3.64-7.072 3.936-12.019 3.844.317-1.674 1.161-7.297 1.847-10.928 1.166-.268 2.787-.469 4.45-.515zm-128.386.06c2.33 5.17 4.83 9.216 8.174 11.837.511 1.849.73 3.581.938 5.45 1.545 13.899-5.902 12.416-11.05 7.567-3.952-3.723-5.372-6.524-7.507-9.929 8.515.487 9.289-11.302 9.445-14.924zm-289.284.334c-.925 2.124-1.244 3.81-1.544 5.63-1.036.187-1.697.424-2.421.848-.107-2.274-.727-4.801-1.302-6.145.934.022 2.696.151 5.267-.333zm457.66 0c2.571.484 4.333.355 5.267.333-.575 1.344-1.194 3.871-1.301 6.145-.725-.424-1.385-.661-2.422-.848-.3-1.82-.619-3.506-1.544-5.63zm-268.836.991c-2.566 6.543-4.887 8.306-8.097 9.755-1.956.884-2.318.584-4.104-.024-1.692-.576.404-2.759 4.217-4.881 2.685-1.496 2.805-3.706 6.403-4.816 1.468-.453.857-1.04 1.58-.034zm132.368.765c3.762 5.045-.548 3.939 5.206 10.262-.771.819-1.95 1.005-3.48.121-2.66-1.536-5.053-4.469-6.54-6.66 1.622-.245 3.703-1.184 4.814-3.723zm-11.201.06c5.38 7.628 8.732 10.474 10.08 14.44 4.137 12.163-4.55 10.32-7.961 8.083-5.307-3.481-8.798-8.962-10.172-11.02 7.924.363 7.918-9.17 8.053-11.503zm-119.819 1.605c.617 3.518 2.398 11.837 10.414 10.201-1.325 3.65-3.59 9.483-7.78 12.654-5.882 4.451-10.272 1.865-11.443-5.994-.303-2.034-.577-5.478-.424-6.357 4.88-1.92 7.55-6.543 9.233-10.504zm77.316 0c1.683 3.961 4.353 8.585 9.233 10.504.153.88-.12 4.323-.424 6.357-1.17 7.86-5.561 10.445-11.443 5.994-4.19-3.17-6.455-9.003-7.78-12.654 8.017 1.636 9.797-6.683 10.414-10.201zM264.026 442.9c.28 1.252.5 4.187.242 7.386-.224 2.785-1.453 4.503-2.33 5.57 0 0 .573-4.587.756-5.872.23-1.615 1.332-7.084 1.332-7.084zm471.948 0s1.103 5.47 1.332 7.084c.183 1.285.757 5.872.757 5.872-.878-1.067-2.106-2.785-2.33-5.57-.258-3.199-.039-6.134.241-7.386zm-256.045.696c.39 1.574 1.886 9.31 8.083 10.474-1.195 3.73-2.346 6.69-4.39 9.627-4.059 5.834-7.679 4.815-8.657-3.996-.316-2.962-.362-6.048 0-9.021 3.204-2.3 4.275-5.441 4.964-7.084zm40.142 0c.69 1.643 1.76 4.783 4.965 7.084.361 2.973.315 6.06 0 9.021-.98 8.811-4.599 9.83-8.658 3.996-2.044-2.937-3.194-5.896-4.39-9.627 6.197-1.163 7.693-8.9 8.083-10.474zm-219.809 2.876c.235-.017.465-.015.696 0 2.04.132 3.92 1.482 4.935 3.723.938 2.071.556 5.485-.696 9.415-2.638-7.352-8.393-7.04-11.02-6.66.515-1.785 1.634-4.676 3.966-5.873a5.51 5.51 0 012.12-.605zm398.78 0a5.38 5.38 0 012.815.605c2.332 1.197 3.451 4.088 3.966 5.873-2.626-.38-8.381-.692-11.02 6.66-1.252-3.93-1.633-7.344-.696-9.415 1.015-2.24 2.895-3.59 4.935-3.723zm-428.78.515c.999-.045 1.981.442 2.906 1.453 2.143 2.342 2.155 7.566 1.726 9.414-5.637 1.149-6.888 4.523-8.477 6.176-1.023-1.956-1.376-2.663-3.632-4.995 4.492-3.837 4.398-8.268 4.48-10.353.984-1.077 1.998-1.651 2.997-1.695zm459.113 0c.124-.011.238-.006.363 0 .999.044 2.013.618 2.997 1.695.082 2.085-.011 6.516 4.48 10.353-2.255 2.332-2.609 3.039-3.632 4.995-1.589-1.653-2.84-5.027-8.476-6.176-.43-1.848-.418-7.072 1.725-9.414.81-.885 1.673-1.376 2.543-1.453zm-445.37 4.48c1.5-.003 2.993.695 4.148 1.998.802.905 1.142 1.864 1.272 2.876-.743 1.855-1.882 4.383-1.514 8.446-1.534.663-2.145.59-3.724 2.21-1.643-4.597-4.018-7.905-6.417-8.689.612-1.983 1.453-4.676 3.602-6.054a4.855 4.855 0 012.634-.787zm431.99 0c.899.002 1.8.252 2.633.787 2.149 1.378 2.99 4.071 3.603 6.054-2.4.784-4.775 4.092-6.418 8.689-1.579-1.62-2.19-1.547-3.724-2.21.368-4.063-.771-6.591-1.513-8.446.13-1.012.469-1.97 1.271-2.876 1.155-1.303 2.648-2.001 4.148-1.998zm-404.805.393c1.09.021 2.519.477 3.906.515.218 3.049.369 6.085-.364 8.658-1.266-.315-4.402-.39-5.328-.817-1.134-.525-.887-7.66.818-8.204.278-.125.605-.158.968-.152zm377.62 0c.363-.006.69.027.969.152 1.704.544 1.95 7.68.817 8.204-.926.428-4.062.502-5.328.817-.733-2.573-.582-5.609-.363-8.658 1.386-.038 2.815-.494 3.905-.515zm-90.212 1.423c5.404 0-1.243 10.159 1.1 13.535 1.856 2.678 9.906 1.38 10.01 4.296.462 4.579-1.881 9.592-6.72 4.753-5.478-5.478-6.694-7.944-8.931-11.11 2.055-3.46.823-8.083-.09-11.02 1.361.282 2.92.642 4.63-.454zm-302.725 2.331a6.08 6.08 0 01.726 0c1.546.092 3.11.75 4.147 1.938 1.594 1.824 1.949 3.398 2.331 5.933-1.944 2.296-3.266 5.986-2.997 10.384-.385.139-.508.28-1.15.605-.613-2.8-1.644-8.69-8.113-9.748-.055-4.559.328-5.062 1.06-6.69.68-1.516 2.28-2.323 3.996-2.422zm407.528 0c1.987-.118 3.944.69 4.723 2.422.731 1.628 1.114 2.131 1.06 6.69-6.47 1.058-7.5 6.947-8.114 9.748-.642-.325-.765-.466-1.15-.605.27-4.398-1.053-8.088-2.997-10.384.383-2.535.737-4.109 2.33-5.933 1.039-1.188 2.603-1.846 4.148-1.938zm-130.898.424c5.642 7.484 8.776 9.243 11.715 10.474 4.606 9.711 2.191 17.519-7.174 10.596-3.774-2.79-7.336-7.236-8.477-8.598 4.426-2.703 4.225-9.107 3.936-12.472zm-124.905-.817c-1.2 1.785-3.887 5.65-6.115 7.75-1.95 1.836-4.854 2.665-6.83 2.603-2.176-.068-4.025-1.77 2.76-4.54 2.107-.86 1.507-4.64 6.021-6.268 1.162-.419 2.027-.035 4.164.455zm1.877 2.512c.578 5.008 2.52 10.193 6.358 11.534-1.498 2.946-4.394 7.373-8.87 9.506-9.04 4.307-9.198-5.54-9.233-9.9 4.46-1.556 9.014-6.735 11.745-11.14zm101.05 0c2.73 4.405 7.284 9.584 11.746 11.14-.036 4.36-.193 14.207-9.233 9.9-4.477-2.133-7.373-6.56-8.87-9.506 3.837-1.341 5.78-6.526 6.357-11.534zm-78.557 1.211c.612 6.6 2.451 9.964 5.207 11.05-1.922 4.915-5.305 9.101-10.323 10.656-7.258 2.248-7.573-4.404-7.417-10.99 4.094-.543 7.991-2.555 12.533-10.716zm56.064 0c4.542 8.161 8.44 10.173 12.533 10.717.157 6.585-.159 13.237-7.416 10.989-5.018-1.555-8.402-5.741-10.323-10.656 2.755-1.086 4.595-4.45 5.206-11.05zm-252.654 1.817c1.837.035 3.381 1.5 4.662 3.965 1.142 2.198 1.591 3.73 2.12 5.661-1.111 2.737-2.349 7.47-1.878 15.802-1.688-4.103-5.323-12.23-12.926-11.957.604-1.729.787-4.309.333-6.539 1.549-2.7 2-3.653 4.056-5.358 1.332-1.105 2.531-1.596 3.633-1.574zm449.244 0c1.102-.022 2.302.47 3.633 1.574 2.055 1.705 2.508 2.658 4.056 5.358-.454 2.23-.27 4.81.333 6.539-7.602-.274-11.237 7.854-12.926 11.957.471-8.332-.767-13.065-1.877-15.802.528-1.931.977-3.463 2.12-5.66 1.28-2.465 2.825-3.93 4.661-3.966zm-463.502.544c1.581 1.999 3.668 4.263 3.905 8.416.204 3.59-1.299 6.107-4.45 8.113-.321-2.86-.216-1.46-.212-7.81 0-1.495.466-6.998.757-8.719zm477.76 0c.291 1.721.757 7.224.757 8.719.004 6.35.11 4.95-.212 7.81-3.15-2.006-4.654-4.523-4.45-8.113.237-4.153 2.324-6.417 3.906-8.416zm-251.2 1.242c.026 1.732.186 6.768 1.664 9.202l7.205 7.599s-6.419 2.551-9.748 3.966c-5.894 2.504-9.426 4.237-9.293-1.575.097-4.256 2.016-9.979 2.754-11.655 3.921-1.063 6.653-6 7.417-7.537zm24.641 0c.764 1.537 3.496 6.474 7.417 7.537.738 1.676 2.657 7.4 2.755 11.655.133 5.812-3.4 4.08-9.294 1.575-3.329-1.415-9.748-3.966-9.748-3.966l7.205-7.599c1.478-2.434 1.638-7.47 1.665-9.202zm-200.586.968c.485.006.943.038 1.363.091 1.123.641 1.518 5.168 3.33 6.206 9.456 5.416 8.727 11.142 5.168 8.531-1.942-1.424-4.343-5.315-7.378-5.02-1.047.102-1.833 1.122-2.573 1.968-.537.613-1.088 1.691-1.544 2.755-1.372-2.689-4.248-4.467-7.145-4.601.103-4.525 1.07-7.994 3.996-9.112 1.59-.498 3.294-.827 4.783-.818zm376.53 0c1.453-.018 3.161.198 4.783.818 2.926 1.118 3.893 4.588 3.996 9.112-2.897.134-5.772 1.912-7.144 4.601-.457-1.064-1.008-2.142-1.544-2.755-.74-.846-1.642-1.478-2.573-1.967-.703-3.238-.944-8.54 1.12-9.718.42-.053.877-.085 1.362-.09zm-96.751 3.088c1.642 1.834 4.307 5.74 6.024 9.718 2.726 6.312 1.161 15.087-7.326 11.533-2.5-1.047-4.815-2.951-6.115-5.176 6.326-1.8 6.197-9.44 3.663-15.379 1.956.08 2.803-.39 3.754-.696zm-302.06 1.332c1.349-.002 2.818.433 4.118 1.272 2.088 2.016 2.56 5.353 2.755 8.597-1.025 2.305-1.35 4.855-1.393 6.63-4.661-2.74-9.102-2.628-11.746.908-.243-3.754-.087-12.587 2.907-16.105.785-.862 2.012-1.3 3.36-1.302zm421.091 0c1.349.002 2.575.44 3.36 1.302 2.994 3.518 3.15 12.35 2.907 16.105-2.644-3.536-7.085-3.649-11.746-.908-.043-1.775-.368-4.325-1.392-6.63.194-3.244.666-6.58 2.754-8.597 1.3-.84 2.77-1.274 4.117-1.272zm-282.986.03c.988-.027 2.622.162 3.874.545-1.14 1.362-4.703 5.808-8.476 8.598-9.366 6.922-5.03-1.486-3.035-2.526 4.069-2.12 2.744-6.263 7.637-6.617zm7.204 1.211c-.104 9.086 3.099 13.175 7.507 13.441-4.1 6.642-8.078 8.64-12.472 10.686-5.408 2.52-13.538 2.91-7.81-12.109 2.76-1.617 4.614-2.533 12.775-12.018zm130.474 0c8.161 9.485 10.016 10.4 12.775 12.018 5.729 15.02-2.402 14.629-7.81 12.11-4.394-2.047-8.371-4.045-12.472-10.687 4.409-.266 7.611-4.355 7.507-13.44zm-108.678 4.45c.245 4.26 1.43 7.67 3.875 9.445-4.737 6.512-3.9 8.75-3.996 10.929-10.719 6.392-25.231 9.526-10.293-11.837 4.726-1.27 7.915-4.926 10.414-8.537zm86.882 0c2.5 3.61 5.688 7.266 10.414 8.537 14.938 21.363.426 18.229-10.293 11.837-.096-2.18.742-4.417-3.996-10.929 2.445-1.774 3.63-5.186 3.875-9.445zm68.9 1.302c3.197 1.773 2.228 5.157 4.034 8.725 1.279 2.528 5.358 5.063 7.046 7.562-.423 2.884-5.406.911-9.051-1.363-3.22-2.008-8.227-6.948-13.2-11.685 6.964 5.965 10.207.631 11.171-3.239zm-297.306 1.241c.659-.4 4.217 6.995 12.866 10.747 11.836 5.134 6.717 11.144 3.118 7.326-3.296-3.497-5.148-6.897-9.324-5.873-3.216.789-5.825 3.02-6.872 7.175-1.23-1.816-1.391-1.924-3.027-3.542.69-5.283-.548-13.534 3.24-15.833zm369.93 0c3.87 3.126 2.55 10.55 3.24 15.833-1.636 1.618-1.798 1.726-3.028 3.542-1.047-4.154-3.67-6.33-6.872-7.175.965-5.026 3.578-7.706 6.66-12.2zm-382.614.182c1.827-.056 3.886 1.085 4.995 2.724 2.21 3.268 1.885 7.826 1.695 11.14-3.237-1.709-7.244-.315-8.567 2.15-.654-2.036-1.44-3.448-2.694-5.237-.09-4.335.543-7.315 1.786-9.233.677-1.046 1.689-1.51 2.785-1.544zm395.298 0c1.097.033 2.108.498 2.785 1.544 1.243 1.918 1.876 4.898 1.787 9.233-1.255 1.789-2.04 3.201-2.695 5.237-1.323-2.465-5.33-3.859-8.567-2.15-.19-3.314-.515-7.872 1.695-11.14 1.11-1.64 3.168-2.78 4.995-2.724zm-429.506.787c1.356.034 2.838.612 4.42 1.937 2.868 2.403 4.477 6.377 5.57 9.809-5.367-2.687-12.79-.412-14.047 7.416-1.272-2.058-3.872-11.167-2.936-13.168 1.619-3.46 4.01-6.07 6.993-5.994zm463.714 0c2.984-.076 5.374 2.534 6.993 5.994.937 2.001-1.664 11.11-2.936 13.168-1.256-7.828-8.68-10.103-14.047-7.416 1.093-3.432 2.702-7.406 5.57-9.809 1.582-1.325 3.064-1.903 4.42-1.937zm-256.983 1.816c-.802 6.109.718 9.714 4.904 9.506-1.288 1.655-1.741 3.047-1.483 4.45-7.535 3.479-11.106 3.982-13.714 3.845-2.476-.131-9.807-1.668-1.18-12.866 2.425-.054 6.874-.13 11.473-4.935zm50.252 0c4.6 4.805 9.048 4.88 11.474 4.935 8.626 11.198 1.295 12.735-1.181 12.866-2.608.137-6.178-.366-13.713-3.845.257-1.403-.196-2.795-1.484-4.45 4.186.208 5.706-3.397 4.904-9.506zm-112.02 1.856c.83.995 1.284 1.437 2.797 1.868-1.3 2.225-3.694 3.955-6.115 5.176-4.432 2.236 1.992-1.642 3.319-7.044zm83.443 1.535l-.09 13.168c-3.118.537-7.896.442-10.93-.181-4.198-.864-6.361-3.343-1.846-6.57.87-.62 4.635-3.581 12.866-6.417zm6.902 0c8.231 2.836 11.996 5.796 12.866 6.418 4.516 3.226 2.353 5.705-1.847 6.569-3.033.623-7.811.718-10.928.181zm98.325.514c2.33 1.798 5.865 5.802 6.872 8.053 3.9 8.717-1.842 12.514-7.628 9.354-4.93-2.692-9.237-5.87-12.11-9.838 10.41 4.424 12.912-5.156 12.866-7.569zm-312.866 2.574c1.985-.025 4.243 1.004 5.721 2.482 4.187 4.187 4.603 12.637 4.632 16.983-2.409-2.344-7.11-7.54-14.41-6.267-.486-4.008-1.06-7.92.394-10.958.746-1.56 2.12-2.221 3.663-2.24zm422.18 0c1.544.019 2.917.68 3.663 2.24 1.454 3.039.88 6.95.394 10.958-7.3-1.274-12.001 3.923-14.41 6.267.03-4.346.445-12.796 4.632-16.983 1.478-1.478 3.736-2.507 5.721-2.482zm-293.643.605c-2.313 12.334 7.567 15.133 20.01 6.236-3.42 5.542-9.072 9.61-13.774 12.805-13.144 8.933-13.94-.153-12.714-6.054.947-4.566 4.914-11.704 6.478-12.987zm165.106 0c1.564 1.283 5.53 8.42 6.479 12.987 1.224 5.901.429 14.987-12.715 6.054-4.702-3.195-10.354-7.263-13.774-12.805 12.443 8.897 22.323 6.098 20.01-6.236zm-171.463 4.39c-2.872 3.969-7.18 7.146-12.11 9.838-10.527-7.996 8.276-8.354 12.11-9.838zm-137.922.181c1.266-.035 2.695.333 4.269 1.241 2.768 2.222 3.615 4.627 4.692 7.841-2.899 1.944-4.006 6.167-2.906 11.231-1.334-1.41-6.732-6.56-11.807-1.423-.887-3.616-.742-8.558-.605-11.564.246-3.502 2.56-7.22 6.357-7.326zm453.664 0c3.797.106 6.111 3.824 6.357 7.326.137 3.006.283 7.948-.605 11.564-5.075-5.138-10.473.013-11.806 1.423 1.1-5.064-.008-9.287-2.907-11.231 1.077-3.214 1.924-5.619 4.693-7.84 1.573-.91 3.003-1.277 4.268-1.242zm-403.381.454c1.65-.2 7.55 6.75 6.993 9.627-7.016 5.322-2.947 13.353-1.635 15.59-.62-.303-2.836-.774-4.45-.908-4.458-7.42-5.955-10.8-6.781-14.803-.913-4.424.033-8.799 5.873-9.506zm353.098 0c5.832.772 6.787 5.082 5.873 9.506-.826 4.002-2.323 7.382-6.78 14.803-1.615.134-3.831.605-4.45.908 1.311-2.237 5.38-10.268-1.636-15.59-.312-2.908 5.887-4.393 6.993-9.627zm-64.298.939c3.585 2.558 5.972 1.282 8.748 8.597 1.938 5.104.815 7.354-4.722 7.175-3.38-.11-8.002-.63-11.11-3.482 4.31.34 9.557-4.614 7.084-12.29zm-306.025.363c1.31.105 2.798.855 4.298 2.452 2.896 3.082 4.505 6.871 5.117 9.99-1.31-1.146-10.797-5.364-11.625 6.418-.94-3.329-2.399-8.728-1.877-14.713.234-2.68 1.902-4.322 4.087-4.147zm387.548 0c2.185-.175 3.854 1.468 4.087 4.147.522 5.985-.937 11.384-1.877 14.713-.828-11.782-10.315-7.564-11.624-6.418.61-3.119 2.22-6.908 5.116-9.99 1.5-1.597 2.988-2.347 4.298-2.452zm-67.72 3.027c.855-.023 1.584.553 1.333 1.514-1.178 4.51 4.941 9.088 8.84 8.537-.016 2.467-.46 5.229-2.271 7.144-2.114 2.237-13.82 1.623-17.255-1.877 8.048-.28 8.844-4.719 7.72-9.021-1.596-4.532.21-6.258 1.634-6.297zm-168.163 1.393c4.982 6.043 18.478.323 15.197 4.934-8.236 3.801-12.221 5.186-14.53 5.389l-2.635 4.026c-2.71 1.075-6.113 2.266-8.779 2.482-4.413.663-5.152-3.842-2.27-7.81 1.578-2.172 4.094-5.15 8.567-7.084zm84.218 0l4.45 1.937c4.473 1.935 6.99 4.912 8.567 7.084 2.882 3.968 2.165 8.473-2.27 7.81-2.666-.216-6.069-1.407-8.78-2.482l-2.633-4.026c-2.31-.203-6.295-1.588-14.53-5.389-3.282-4.611 10.214 1.11 15.196-4.934zm-202.674.303c.168-.019.33-.006.514 0 4.223.124 7.682 2.785.243 4.54-2.045.813.87 4.804 3.178 4.239-.922 4.88.524 10.006 4.087 12.654 3.47 2.577-7.754.408-10.444 2.33-5.05-3.44-10.78-12.039-5.116-17.315 1.639-1.277 3.704-6.036 7.538-6.448zm97.901.484c.813 2.953 3.067 4.735 7.114 4.178-5.409 5.98-4.231 11.737-1.604 14.228-9.581 10.179-14.414 1.218-13.139-3.542 1.833-6.84 4.836-10.755 7.629-14.864zm125.328 0c2.793 4.11 5.796 8.024 7.629 14.864 1.275 4.76-3.616 13.71-13.138 3.542 2.616-2.448 3.804-8.248-1.605-14.228 4.047.557 6.301-1.225 7.114-4.178zm-154.36.03c-2.14 8.454.81 16.39 9.627 13.623-6.328 4.153-11.157 6.285-14.38 7.356-8.524 2.833-13.896-4.013-7.022-11.837 2.662-3.03 10.263-8.121 11.776-9.142zm183.392 0c1.512 1.021 9.113 6.112 11.776 9.142 6.873 7.824 1.502 14.67-7.024 11.837-3.222-1.07-8.051-3.203-14.38-7.356 8.818 2.767 11.768-5.169 9.628-13.623zm-207.549 1.575c13.11-6.6 6.83 1.484 13.714 2.936-3.109 2.851-10.757 5.551-14.138 5.66-5.537.18-6.66-2.584-4.722-7.688 2.239-.65 3.998-.412 5.146-.908zm-97.326 2.058c.205 0 .423.012.636.03 2.04.17 4.4 1.154 6.69 2.785 3.945 2.81 9.955 11.526 10.838 17.044-7.148-4.918-15.689-4.178-15.349 5.418-1.996-1.454-7.334-9.868-7.81-18.617-.252-4.637 1.92-6.66 4.995-6.66zm426.358 0c3.075 0 5.247 2.023 4.995 6.66-.476 8.749-5.814 17.163-7.81 18.617.34-9.596-8.2-10.336-15.348-5.418.882-5.518 6.892-14.234 10.837-17.044 2.29-1.631 4.65-2.614 6.69-2.785.213-.018.431-.03.636-.03zm-337.685-.231c-1.124 4.302-.243 9.427 7.806 9.706-3.436 3.5-15.141 4.114-17.256 1.877-1.81-1.915-2.34-5.362-2.356-7.83 5.015-.004 5.569-1.694 11.806-3.753zm292.61 2.532c5.662 5.276-.066 13.874-5.117 17.315-2.69-1.922-13.913.247-10.444-2.33 3.563-2.648 5.009-7.775 4.087-12.654 2.925-2.911 6.986-.946 11.473-2.331zm-238.366.787c-7.404 13.726.462 23.73 10.928 17.073-1.943 4.187-11.674 7.02-17.134 8.567-10.853 3.077-10.76-5.2-6.176-13.138 2.573-4.456 7.798-8.926 12.382-12.502zm140.525 0c4.584 3.576 9.809 8.046 12.381 12.502 4.583 7.939 4.72 16.058-6.175 13.138-5.973-1.707-15.02-4.36-17.135-8.567 10.486 6.66 18.333-3.347 10.929-17.073zm-214.784.174c2.041.02 3.957.322 5.419.878.143 2.87.886 7.352 3.33 9.452-5.3 1.345-6.948 3.037-8.234 4.541-4.431-1.546-8.209-2.578-9.718-7.84-.226-.79-.346-3.348-.272-4.7 2.364-1.62 6.073-2.366 9.475-2.331zm289.042 1.37c3.402-.035 7.111.711 9.475 2.33.074 1.353-.046 2.542-.272 3.33-1.51 5.263-5.287 6.295-9.718 7.841-1.286-1.504-2.933-3.196-8.234-4.54 2.445-2.101 3.187-5.213 3.33-8.083 1.462-.556 3.378-.858 5.42-.878zm-333.966.212c1.62-.073 3.654.953 5.842 3.148 1.938 1.943 3.184 3.844 4.965 6.69-4.896 2.134-6.873 8.183-1.756 14.591-1.25-.558-2.31-.699-4.056-1.029-7.08-4.908-9.058-11.181-8.688-17.74.205-3.65 1.61-5.567 3.693-5.66zm378.89 0c2.084.093 3.488 2.01 3.694 5.66.37 6.559-1.61 12.832-8.688 17.74-1.747.33-2.806.471-4.057 1.03 5.117-6.409 3.14-12.458-1.756-14.592 1.781-2.846 3.028-4.747 4.965-6.69 2.189-2.195 4.222-3.221 5.843-3.148zm-297.972 2.996c-2.6 4.05-.76 14.127 9.506 12.957-5.936 6.113-9.364 7.984-15.197 8.416-7.712.571-8.944-3.965-7.629-8.688 1.154-4.145 7.55-10.369 13.32-12.685zm217.054 0c5.77 2.316 12.166 8.54 13.32 12.685 1.315 4.723.083 9.26-7.629 8.688-5.832-.432-9.261-2.303-15.196-8.416 10.265 1.17 12.106-8.907 9.505-12.957zm-335.964 1.09c.95.072 2.019.525 3.209 1.514 2.734 2.273 5.373 6.499 7.114 10.141-7.175-2.858-13.517 1.67-15.076 3.663-1.584-1.35-.566-8.996.394-11.624.777-2.13 2.269-3.85 4.359-3.694zm454.875 0c2.09-.156 3.581 1.564 4.359 3.694.96 2.628 1.977 10.274.393 11.624-1.558-1.994-7.9-6.52-15.075-3.663 1.74-3.642 4.38-7.868 7.114-10.141 1.19-.99 2.258-1.442 3.209-1.514zm-270.425 3.694c-1.62 2.361-8.558 8.124-12.412 9.445-3.775 1.293-3.982.757-2.997-2.059.561-1.602 1.732-2.119 2.664-3.36 1.81 1.4 4.587-.864 12.745-4.026zm85.974 0c8.159 3.162 10.935 5.426 12.745 4.026.932 1.241 2.103 1.758 2.664 3.36.986 2.816.778 3.352-2.997 2.059-3.853-1.32-10.792-7.084-12.412-9.445zM377.82 516.34c-3.433 4.59-3.587 8.64-2.18 12.412-4.26.887-9.806 1.188-14.197.09-5.145-1.285-5.346-6.875-1.605-9.142 5.634-3.413 12.692-2.618 17.982-3.36zm244.36 0c5.29.742 12.349-.053 17.982 3.36 3.742 2.267 3.54 7.857-1.605 9.142-4.39 1.097-9.938.797-14.197-.09 1.407-3.772 1.253-7.823-2.18-12.412zm-208.245.726c-2.441 4.178-5.435 16.639 5.57 16.317-7.258 2.813-11.013 5.417-16.256 6.176-8.41 1.217-9.33-6.532-1.786-14.077 4.126-4.126 9.996-7.166 12.472-8.416zm172.13 0c2.477 1.25 8.346 4.29 12.472 8.416 7.545 7.545 6.624 15.294-1.786 14.077-5.243-.759-8.997-3.363-16.256-6.176 11.005.322 8.011-12.139 5.57-16.317zm-262.402 1.272c.303-.027.63-.02.968 0 3.76.212 7.125 2.596 10.535 4.753-2.064 5.14.294 8.577 2.997 11.322-3.136.103-3.979.12-6.932 1.392-3.298-1.207-6.236-3.026-9.99-8.052-2.69-3.602-2.125-9.007 2.422-9.415zm351.706 0c5.418-.306 6.26 5.573 3.39 9.415-3.754 5.026-6.692 6.845-9.99 8.052-2.953-1.273-3.796-1.29-6.932-1.392 2.703-2.745 5.061-6.182 2.997-11.322 3.41-2.157 6.775-4.541 10.535-4.753zm-378.89 2.603c.551-.014 1.168.066 1.846.242 4.066 1.061 10.348 5.82 12.865 8.416-6.174 2.559-7.84 8.618-1.301 16.923-2.26-.534-2.916-.516-4.238-.424-5.11-4.907-10.279-11.96-12.503-17.316-1.39-3.348-.536-7.743 3.33-7.84zm407.043 0c3.866.098 4.72 4.493 3.33 7.84-2.224 5.357-7.392 12.41-12.502 17.317-1.322-.092-1.979-.11-4.238.424 6.538-8.305 4.872-14.364-1.302-16.923 2.517-2.597 8.8-7.355 12.866-8.416.677-.176 1.294-.256 1.846-.242zm-356.852.545c2.568-.01 5.176.244 7.931.666-.41 3.375-.073 5.985 3.39 8.355-5.326 1.32-6.672 2.8-8.536 6.448-3.485-.87-8.02-3.031-10.08-5.449-3.829-4.491-2.237-8.946 2.693-9.687 1.532-.23 3.061-.326 4.602-.333zm306.66 0c1.541.007 3.07.103 4.602.333 4.93.741 6.522 5.196 2.694 9.687-2.06 2.418-6.596 4.58-10.08 5.45-1.865-3.648-3.211-5.13-8.538-6.449 3.464-2.37 3.802-4.98 3.391-8.355 2.755-.422 5.363-.677 7.931-.666zm-375.227 2.361a9.553 9.553 0 013.3.515c3.1 1.05 5.94 3.733 8.657 6.72-3.33-1.357-7.618-2.055-12.381 1.242l-7.66-4.965c1.812-1.785 4.823-3.438 8.084-3.512zm443.795 0c3.26.074 6.27 1.727 8.082 3.512l-7.659 4.965c-4.763-3.297-9.052-2.599-12.381-1.241 2.717-2.988 5.557-5.672 8.658-6.72a9.552 9.552 0 013.3-.516zm-286.62 5.207l1.09 15.742c-2.625 1.523-7.739 3.688-12.291 4.117-7.58.714-6.877-7.808-4.995-10.626 3.477-5.206 10.752-7.462 16.196-9.233zm129.445 0c5.443 1.771 12.719 4.027 16.196 9.233 1.881 2.818 2.584 11.34-4.995 10.626-4.553-.429-9.667-2.594-12.291-4.117zm-170.798 2.604c-.643 1.972-.83 5.528 1.15 8.173-4.907 2.457-9.3 5.056-16.65 6.327-7.257 1.256-7.413-6.36-3.602-10.171 4.248-4.248 10.864-1.245 19.102-4.33zm212.15 0c8.238 3.084 14.854.08 19.102 4.329 3.812 3.812 3.655 11.427-3.602 10.171-7.349-1.271-11.742-3.87-16.65-6.327 1.98-2.645 1.793-6.2 1.15-8.173zm-231.01.212c-2.76 2.564-8.077 6.835-4.238 14.56-5.073 2.638-11.494 2.357-14.954.758-5.89-2.724-4.888-10.286-.848-12.503 4.997-2.741 14.17-1.807 20.04-2.815zm249.87 0c5.87 1.008 15.043.074 20.04 2.815 4.04 2.217 5.043 9.78-.847 12.503-3.46 1.6-9.881 1.88-14.955-.757 3.84-7.726-1.478-11.997-4.238-14.561zm-310.93.333c.354.006.73.034 1.12.09 4.797.698 9.257 3.528 12.867 6.116-3.743 4.57-3.882 11.032 2.15 16.831-2.056.09-2.93-.005-5.117.363-4.51-1.99-10.247-6.4-15.47-15.075-1.915-3.183-.84-8.43 4.45-8.325zm371.99 0c5.29-.105 6.365 5.142 4.45 8.325-5.223 8.675-10.96 13.085-15.47 15.075-2.188-.368-3.06-.274-5.116-.363 6.031-5.799 5.893-12.261 2.15-16.831 3.609-2.588 8.07-5.418 12.865-6.115a9.04 9.04 0 011.12-.091zm-401.777.666c.221-.013.436-.004.666 0 1.223.021 2.552.29 4.026.878 5.21 2.074 7.629 7.384 13.713 13.38-1.142.805-2.349 2.015-2.906 3.481-3.044-2.764-7.839-6.667-12.866-4.42l-10.383-8.597c1.976-2.448 4.428-4.527 7.75-4.722zm430.899 0c3.67-.065 6.308 2.11 8.415 4.722l-10.383 8.598c-5.027-2.248-9.821 1.655-12.866 4.42-.557-1.467-1.763-2.677-2.906-3.482 6.085-5.996 8.504-11.306 13.713-13.38 1.474-.587 2.803-.857 4.027-.878zm-377.771 4.45c.403-.015.81-.02 1.241 0 3.754.166 7.772 1.68 10.262 2.724.036 2.725.209 5.814 3.845 8.658-8.32.811-13.281 4.856-14.046 8.507-3.261-1.161-9.947-5.067-10.414-11.474.158-4.253 3.065-8.19 9.112-8.415zm324.067 0c6.9-.305 10.184 3.878 10.353 8.415-.467 6.407-7.153 10.313-10.413 11.474-.765-3.651-5.726-7.696-14.047-8.507 3.637-2.844 3.81-5.933 3.845-8.658 2.49-1.043 6.508-2.558 10.262-2.724zm-245.298.393c-2.416 4.775-1.43 12.406 5.328 14.864-4.094 1.728-12.246 3.832-15.923 3.39-5.71-.685-5.737-8.332-.394-12.26 3.327-2.445 8.634-4.598 10.989-5.994zm167.77 0c2.356 1.396 7.662 3.549 10.99 5.994 5.342 3.928 5.316 11.575-.394 12.26-3.678.442-11.83-1.662-15.924-3.39 6.76-2.458 7.745-10.089 5.328-14.864zm-182.846 4.904c.321-.011.617-.011.908 0-5.949 6.052-3.334 12.366-1.392 14.198-3.057 2.58-8.754 6.665-15.53 7.175-5.489.413-11.539-7.505-2.482-14.228 5.682-4.218 13.681-6.97 18.496-7.145zm197.014 0c4.659-.186 13.344 2.646 19.404 7.145 9.057 6.723 3.007 14.64-2.482 14.228-6.776-.51-12.473-4.595-15.53-7.175 1.943-1.832 4.557-8.146-1.392-14.198zM289.546 548.4a4.25 4.25 0 01.484 0c2.974.154 6.64 3.293 9.142 5.692.411 2.084.428 5.061 6.751 12.472l-19.828-15.47c.071-.508 1.122-2.553 3.45-2.694zm420.424 0c2.667-.137 3.86 2.152 3.936 2.695l-19.829 15.469c6.324-7.41 6.34-10.388 6.751-12.472 2.502-2.4 6.168-5.538 9.142-5.692zm-403.26.545c1.09-.031 2.291.192 3.542.727 3.606 1.542 8.077 5.394 10.323 7.114-5.979 2.424-6.73 9.147-3.572 13.23-1.308-.198-2.258-.078-3.21.09-4.35-3.172-9.877-9.712-11.533-15.258-1.013-3.393 1.182-5.808 4.45-5.903zm386.58 0c3.268.095 5.464 2.51 4.45 5.904-1.656 5.545-7.182 12.085-11.534 15.257-.951-.168-1.9-.288-3.209-.09 3.159-4.083 2.407-10.806-3.572-13.23 2.246-1.72 6.717-5.572 10.323-7.114 1.25-.535 2.453-.758 3.542-.727zm-314.38.091c-6.006 5.609-4.362 12.59-.151 15.802-1.921 1.93-8.639 4.786-11.897 4.935-7.695.353-7.415-9.692-4.027-13.774 6.735-8.115 12.745-6.727 16.075-6.963zm242.18 0c3.33.236 9.34-1.152 16.075 6.963 3.388 4.082 3.668 14.127-4.026 13.774-3.259-.15-9.976-3.006-11.897-4.935 4.21-3.211 5.855-10.193-.152-15.802zm-262.039 2.3c1.4-.028 2.796-.015 4.148 0-4.701 4.177-6.644 9.526-4.935 15.47-3.617.397-9.4.47-13.38-1.15-6.196-2.521-4.653-10.325 2.21-12.684 3.494-1.167 7.76-1.549 11.957-1.635zm277.75 0c5.407-.064 11.446.08 16.106 1.636 6.862 2.359 8.405 10.163 2.21 12.684-3.981 1.62-9.763 1.547-13.381 1.15 1.71-5.944-.233-11.293-4.934-15.47zm-217.174 5.026l-7.296 19.042c-1.185 3.097-9.489 2.921-14.168 1.574-3.349-.965-4.568-8.478-1.09-13.108 3.758-5.002 18.67-5.133 22.554-7.508zm160.747 0c3.884 2.375 18.795 2.506 22.553 7.508 3.478 4.63 2.26 12.143-1.09 13.108-4.679 1.347-12.983 1.523-14.168-1.574zm-250.203 1.756c.534-.007 1.071.006 1.605.03 2.133.098 4.266.477 6.448 1.302-.585 3.656 1.253 7.973 8.264 9.748-6.412 2.93-6.671 5.323-7.295 8.203-8.904-2.015-14.687-4.39-18.315-7.507-4.85-4.167-3.594-10.478 4.48-11.413 1.613-.187 3.212-.342 4.813-.363zm339.658 0c1.6.021 3.2.177 4.813.363 8.074.935 9.33 7.246 4.48 11.413-3.628 3.117-9.41 5.492-18.314 7.508-.624-2.881-.884-5.274-7.296-8.204 7.012-1.775 8.85-6.092 8.264-9.748 2.182-.825 4.315-1.204 6.448-1.302.534-.024 1.071-.037 1.605-.03zm-276.66 6.72c-.824 1.394-3.364 12.95 5.055 15.197-4.32 1.932-6.441 2.462-9.475 3.179-5.092 1.203-9.881-5.47-5.994-12.805 1.83-3.456 6.504-3.758 10.413-5.57zm213.663 0c3.91 1.813 8.583 2.115 10.414 5.57 3.887 7.335-.902 14.01-5.994 12.806-3.035-.717-5.156-1.247-9.476-3.179 8.419-2.247 5.88-13.803 5.056-15.197zm-225.228 1.544c-5.133 7.854-3.394 13.926.303 17.377-5.924 4.02-11.313 6.079-15.863 6.085-6.262.007-11.192-12.064 1.574-17.195 4.508-.996 8.62-1.833 13.986-6.267zm236.792 0c5.366 4.434 9.478 5.271 13.986 6.267 12.767 5.13 7.836 17.203 1.574 17.195-4.55-.006-9.938-2.064-15.863-6.085 3.698-3.451 5.436-9.523.303-17.377zm-258.8 3.27c.718 1.318 1.609 1.943 2.937 2.633-4.743 3.26-6.505 7.184-5.964 10.929-1.937.096-6.59.944-11.322-.817-4.353-1.621-3.775-6.84-.696-8.84 4.488-2.917 10.395-3.739 15.045-3.905zm280.808 0c4.65.166 10.557.988 15.045 3.905 3.08 2 3.658 7.219-.696 8.84-4.732 1.761-9.384.913-11.322.817.541-3.745-1.22-7.67-5.963-10.929 1.328-.69 2.218-1.315 2.936-2.633zm-323.976 3.239c3.825.057 6.896 2.196 7.931 2.694 5.61 2.699 12.937 4.558 15.197 4.874.511 1.104.86 2.037 2.755 3.633-3.657.988-5.734 5.887-6.327 7.356l-26.973-15.62c2.567-2.243 5.121-2.971 7.417-2.937zm367.145 0c2.295-.034 4.85.694 7.416 2.936l-26.972 15.621c-.594-1.469-2.67-6.368-6.327-7.356 1.894-1.596 2.243-2.529 2.754-3.633 2.26-.316 9.587-2.175 15.197-4.874 1.035-.498 4.106-2.637 7.932-2.694zm-276.812 6.993c2.55.586-7.235 19.859-7.235 19.859-6.095.049-11.289-1.392-13.502-3.905-2.832-3.216-1.182-4.413 1.12-7.236 2.981-3.655 10.876-5.106 19.617-8.718zm186.478 0c8.741 3.612 16.636 5.063 19.617 8.718 2.302 2.823 3.952 4.02 1.12 7.236-2.213 2.513-7.407 3.954-13.501 3.905 0 0-9.785-19.273-7.236-19.86zm-207.185 5.51c-7.518 8.219-4.49 12.536 1 14.863l-21.191 4.117c-.604-5.272 1.236-8.286 3.905-10.262 3.973-2.942 13.244-7.766 16.286-8.719zm227.892 0c3.042.952 12.313 5.776 16.286 8.718 2.669 1.976 4.51 4.99 3.906 10.262l-21.191-4.117c5.489-2.327 8.517-6.644.999-14.864zm-256.741.635c1.591 4.237 4.607 6.719 9.596 6.751-3.208 2.565-4.57 7.993-3.784 12.17l-24.279-12.533c1.627-2.963 2.056-6.146 8.477-6.115 3.476.016 6.233.291 9.99-.273zm285.59 0c3.757.564 6.514.29 9.99.273 6.42-.03 6.85 3.152 8.477 6.115l-24.279 12.533c.787-4.177-.575-9.605-3.784-12.17 4.99-.032 8.005-2.514 9.597-6.75zm-245.782 16.65c1.237.043 3.118-.065 3.118.575 0 .77-1.245 3.663-3.209 3.451-1.23-.132-16.287-1.182-13.108-2.785 1.852-.933 11.362-1.305 13.2-1.24zm205.974 0c1.837-.064 11.347.308 13.199 1.241 3.179 1.603-11.878 2.653-13.108 2.785-1.964.212-3.209-2.682-3.209-3.45 0-.641 1.882-.533 3.118-.576z"/><path d="M262.603 434.151c8.76-25.73 31.294-45.59 53.462-37.628 23.856 8.567 23.652 41.503 2.724 41.503l1.843 10.059M737.397 434.151c-8.76-25.73-31.294-45.59-53.462-37.628-23.856 8.567-23.652 41.503-2.724 41.503l-1.843 10.059" fill="none" stroke="#000" stroke-width="6.78104" stroke-linejoin="round"/><g stroke="#000" stroke-linejoin="round"><path d="M376.186 291.828c4.006 6.38.335 10.627 4.754 18.283 2.98 5.16 5.391 5.345 10.365 14.281-.113-4.257-1.444-11.588-3.146-14.657-1.311-2.363-1.016-6.912-.07-7.08 1.769-.318 1.714 6.172 4.989 12.725 1.603-5.885.004-12.853 1.209-13.136 1.107-.26 1.489 3.483 6.359 7.384 1.036-6.751-5.546-13.107-4.057-20.949zM428.618 326.278c-1.723 7.23-1.44 14.55 1.392 22.643.402-5.855-.03-12.228 3.27-16.286zM435.343 337.784c-1.013 8.735.225 16.254 6.477 21.478-2.28-4.969-4.72-8.942-1.703-13.515z" stroke-width=".96872"/></g><g fill="none" stroke="#fff" stroke-width="3" stroke-linecap="round"><path d="M610.831 243.544c55.52 9.7 82.31 15.282 128.08 15.226M686.237 299.94c-30.918-7.736-51.315-15.878-81.211-28.807M682.362 352.01c-34.045-16.233-60.662-34.916-83.322-55.806M618.823 388.898c-8.327-23.439-27.065-58.249-42.699-82.587" stroke-width="2.90616"/></g><path d="M474.969 251.1c0 6.687-6.072 12.109-13.562 12.109-7.49 0-13.563-5.422-13.563-12.11 0-6.687 6.072-12.108 13.563-12.108 7.49 0 13.562 5.42 13.562 12.109z" fill-rule="evenodd"/><path d="M460.04 252.825a4.36 4.36 0 11-8.719 0 4.36 4.36 0 018.719 0z" fill="#fff" fill-rule="evenodd"/><path d="M457.149 266.954c8.15 1.574 12.82.836 17.5-5.612M428.838 253.115c4.302 4.753 8.626 6.631 15.657 5.558M433.299 238.538c-.11 5.37 1.946 10.185 9.295 11.462M446.635 241.252c-4.107-4.731-4.478-10.025-1.013-15.359M453.98 234.623c-.34-7.29 3.892-12.628 12.69-14.11M462.808 234.24c2.608-6.17 7.27-10.391 16.158-10.604M471.64 235.404c4.952-4.959 12.078-5.597 19.175-2.722M478.767 242.837c6.923-2.97 12.653-2.8 19.535-.274M479.35 250.852c6.297-1.813 11.41-1.474 17.12.555" fill="none" stroke="#000" stroke-width="2.90616" stroke-linecap="round"/><g><path d="M451.715 969.218l-44.228 67.326h185.026l-44.228-67.326h-96.57z" fill="#fff"/><g fill="none" stroke="#000" stroke-width="3"><path d="M475.177 975.018v55.217M459.677 975.018v55.217M444.178 975.018v55.217M524.824 975.018v55.217M540.323 975.018v55.217M555.823 975.018v55.217" stroke-width="2.90616"/></g><path d="M582.341 899.942c69.01-72.335 117.336-127.692 156.282-220.925 48.445-115.972 25.816-200.538-1.892-246.846 26.836 94.9-50.592 178.253-154.39 178.253z"/><g fill="#fff" fill-rule="evenodd"><path d="M582.3 791.13l55.693 48.412-8.816 10.307-46.958-40.82zM582.896 754.68l72.753 63.244-8.205 10.838-64.893-56.411zM720.606 541.69l44.998 39.116-2.377 15.903-50.748-44.114zM702.477 562.898l57.363 49.864-3.751 14.709-63.745-55.412zM681.054 581.241l70.828 61.57-4.657 13.922-78.127-67.915zM654.682 595.283l87.638 76.183-5.75 12.972-96.168-83.598zM623.837 605.437l106.608 92.673-6.32 12.476-117.023-101.727zM586.563 610.002L717.95 724.215l-6.82 12.041-130.566-113.499zM582.996 643.867l120.933 105.126-7.27 11.65-114.46-99.498zM582.922 680.77l105.97 92.118-7.632 11.336-98.795-85.881zM582.823 717.65l90.04 78.272-8.288 10.765L582.1 734.99z"/></g><g fill="none" stroke="#000" stroke-width="3" stroke-linecap="round"><path d="M597.792 817.196l34.514 30.003M600.822 812.6l34.942 30.374M612.922 793.382l37.057 32.213M615.78 788.636l37.446 32.552M627.125 768.762l40.126 34.88M629.802 763.859l40.698 35.378M640.429 743.36l43.508 37.821M642.924 738.299l43.79 38.066M652.85 717.19l45.902 39.902M655.182 711.988l46.354 40.295M664.453 690.31l48.665 42.304M666.63 684.972l49.03 42.621M675.251 662.73l50.68 44.056M677.271 657.256l51.325 44.617M685.283 634.484l52.953 46.031M687.156 628.882l52.737 45.844M694.59 605.607l54.173 47.092M696.324 599.885l54.03 46.968M703.19 576.117l53.992 46.934M704.794 570.281l53.909 46.862M715.153 549.55l48.188 41.889M718.157 544.93l46.405 40.34" stroke-width="2.90616"/></g><path d="M582.341 899.942c69.01-72.335 117.336-127.692 156.282-220.925 48.445-115.972 25.816-200.538-1.892-246.846 26.836 94.9-50.592 178.253-154.39 178.253z" fill="none" stroke="#000" stroke-width="6.78104" stroke-linejoin="round"/><g><path d="M417.659 899.942c-69.01-72.335-117.336-127.692-156.283-220.925-48.444-115.972-25.815-200.538 1.893-246.846-26.836 94.9 50.592 178.253 154.39 178.253z"/><g fill="#fff" fill-rule="evenodd"><path d="M417.7 791.13l-55.693 48.412 8.816 10.307 46.958-40.82zM417.104 754.68l-72.753 63.243 8.205 10.839 64.893-56.412zM279.394 541.69l-44.998 39.116 2.377 15.903 50.748-44.114zM297.523 562.898l-57.363 49.864 3.751 14.709 63.745-55.412zM318.946 581.241l-70.828 61.57 4.657 13.922 78.127-67.915zM345.318 595.283l-87.638 76.183 5.75 12.972 96.168-83.598zM376.163 605.436L269.555 698.11l6.32 12.476 117.023-101.727zM413.437 610.002L282.05 724.215l6.82 12.041 130.566-113.5zM417.004 643.867L296.071 748.993l7.27 11.65 114.46-99.498zM417.078 680.77l-105.97 92.118 7.632 11.336 98.795-85.881zM417.177 717.65l-90.04 78.272 8.288 10.765L417.9 734.99z"/></g><g fill="none" stroke="#000" stroke-width="3" stroke-linecap="round"><path d="M402.208 817.196l-34.514 30.003M399.178 812.6l-34.942 30.374M387.078 793.382l-37.057 32.213M384.22 788.635l-37.446 32.553M372.875 768.762l-40.126 34.88M370.198 763.858l-40.698 35.38M359.571 743.36l-43.508 37.82M357.076 738.299l-43.79 38.066M347.15 717.19l-45.902 39.902M344.818 711.988l-46.354 40.295M335.547 690.31l-48.665 42.304M333.37 684.972l-49.03 42.621M324.749 662.73l-50.68 44.055M322.729 657.256l-51.325 44.616M314.717 634.484l-52.953 46.031M312.844 628.882l-52.737 45.844M305.41 605.607L251.237 652.7M303.676 599.885l-54.03 46.968M296.81 576.117l-53.992 46.934M295.206 570.281l-53.909 46.862M284.847 549.55l-48.188 41.889M281.843 544.93l-46.405 40.34" stroke-width="2.90616"/></g><path d="M417.659 899.942c-69.01-72.335-117.336-127.692-156.283-220.925-48.444-115.972-25.815-200.538 1.893-246.846-26.836 94.9 50.592 178.253 154.39 178.253z" fill="none" stroke="#000" stroke-width="6.78104" stroke-linejoin="round"/></g><g><path d="M555.701 619.497c0 30.763-24.938 55.702-55.701 55.702s-55.701-24.939-55.701-55.702c0-30.763 24.938-55.7 55.701-55.7s55.701 24.937 55.701 55.7z" fill="#d21034"/><path d="M500 490.175c-39.888 0-104.749 66.371-102.14 154.238 2.019 67.954 8.83 121.94 3.422 192.654-3.859 50.438-11.275 106.194-35.6 166.802l59.969 17.316c14.227-33.907 26.593-44.713 48.618-44.713h51.463c22.024 0 34.39 10.806 48.617 44.713l59.97-17.316c-24.325-60.608-31.742-116.364-35.6-166.802-5.41-70.714 1.403-124.7 3.42-192.654 2.61-87.867-62.25-154.238-102.139-154.238zm12.533 76.347l1.635 8.93c2.054 11.304-4.011 56.056-8.567 63.24-2.53 3.989-3 8.54-1.908 18.193 1.553 13.723-.514 17.794-5.872 11.534-2.204-2.575-2.746-5.686-1.635-9.415l1.665-5.57.575 5.57c.92 8.794 3.705-25.599 4.026-49.707.188-14.073-.503-21.381-1.937-20.495-1.226.758-2.24 9.848-2.24 20.192 0 11.053-.9 18.8-2.21 18.8-2.807 0-2.815-.06.333-32.846 1.441-15.012 3.457-27.306 4.48-27.306 1.024 0 1.847 2.458 1.847 5.449 0 2.991 1.054 6.083 2.33 6.872 1.353.835 2.093 8.302 1.787 17.89-.29 9.054.178 17.162 1.029 18.013.85.85 1.544-4.988 1.544-12.987 0-7.998.714-19.467 1.574-25.46l1.544-10.897zm-23.976 3.36h5.661l-1.574 17.255c-1.906 20.899-3.27 23.609-3.27 6.509 0-17.795-4.107-15.765-4.904 2.422-.463 10.575-1.493 14.862-3.45 14.47-1.635-.327-2.786 1.757-2.786 5.025 0 3.064-1.037 5.57-2.3 5.57-1.264 0-2.145-3.282-1.968-7.265.177-3.983-.42-12.946-1.332-19.92-1.346-10.293-.982-13.336 1.967-16.286 3.36-3.36 3.65-2.577 3.996 10.444.249 9.335.62 11.084 1.12 5.177 1.743-20.6 2.822-23.401 8.84-23.401zm38.658 4.45c1.299 0 1.657 4.306.908 10.595-1.664 13.974-2.638 16.708-5.328 15.046-2.917-1.803-2.855 5.813.091 13.562 1.596 4.197 1.596 6.79 0 8.385-1.595 1.596-2.33.11-2.33-4.813 0-3.921-1.05-7.114-2.332-7.114-3.141 0-.261-15.671 3.724-20.252 1.683-1.935 3.057-6.172 3.057-9.445 0-3.274 1.008-5.964 2.21-5.964zm-62.603 6.69c1.594 0 2.378 5 2.21 13.926-.31 16.35-2.397 27.26-4.753 24.884-2.378-2.398-2.062-27.17.363-28.668 1.11-.687 1.488-3.242.848-5.692-.651-2.489-.058-4.45 1.332-4.45zm81.584 11.746c.786-.16 1.09.916 1.09 3.39 0 5.38-1.147 6.212-3.451 2.483-.824-1.332-.395-3.54.968-4.904.57-.57 1.036-.896 1.393-.969zm-92.513 8.295c1.008-.276 1.441 4.472 2.331 17.83.776 11.642 2.154 23.429 3.058 26.186 2.64 8.059.12 5.782-4.208-3.814-2.65-5.877-3.599-11.777-2.816-17.619.648-4.83.262-9.729-.877-10.868-1.277-1.276-1.029-4.568.666-8.567.788-1.862 1.388-3.023 1.846-3.148zm76.62 2.664c.152-.056.33-.004.515.181.74.74.825 2.66.181 4.269-.711 1.777-1.255 1.233-1.362-1.362-.073-1.762.21-2.92.666-3.088zm17.83 6.66c.152-.056.33.026.515.212.74.74.825 2.66.182 4.268-.712 1.777-1.256 1.233-1.363-1.362-.072-1.762.21-2.95.666-3.118zm-78.557 2.845c1.227-.252 1.968 3.516 1.968 10.111 0 7.035.866 10.87 2.24 10.02 1.226-.757 2.21.21 2.21 2.12 0 2.22 2.01 3.45 5.57 3.45 5.117 0 5.57.842 5.57 10.051 0 5.515-.999 10.02-2.21 10.02-1.21 0-2.026-1.76-1.846-3.905.18-2.144.164-6.265-.03-9.172-.3-4.488-.881-4.862-3.784-2.452-5.864 4.866-12.17-4.307-12.17-17.68 0-6.106.985-11.715 2.21-12.472.086-.053.19-.074.273-.09zm19.102 1.938c.383-.056.474 1.533.545 4.964.078 3.738 1.209 7.839 2.513 9.143 1.304 1.304 2.026 6.765 1.604 12.139-.731 9.318-.834 9.461-2.452 3.088-.933-3.677-2.6-10.013-3.693-14.107-1.137-4.259-1.17-9.508-.06-12.26.762-1.89 1.246-2.924 1.544-2.967zm42.382 8.93c.617-.017 1.456.918 2.997 2.815 1.773 2.184 1.996 3.25.514 2.362-1.988-1.194-2.848 2.876-3.33 15.56-.358 9.439-1.7 17.503-2.966 17.921-2.5.826-1.658-28.416 1.029-35.691.723-1.96 1.139-2.95 1.756-2.967zm-17.195 3.693c1.225 0 2.113 3.76 1.968 8.356-.145 4.595-1.033 11.369-1.968 15.045-1.314 5.165-1.734 3.266-1.937-8.355-.153-8.717.646-15.046 1.937-15.046zm34.238.818c.855.03.9 1.781.091 5.146-2.05 8.537-3.118 9.345-3.118 2.361 0-3.195 1.026-6.477 2.3-7.265.286-.176.53-.25.727-.242zm-25.217 1.423c1.788 0 1.16 13.568-1.423 30.635-.602 3.983-2.168 7.235-3.481 7.235-1.51 0-1.807-2.24-.787-6.115.887-3.37 2.104-11.904 2.694-18.95.59-7.046 1.938-12.805 2.997-12.805zm15.954 3.178c1.026-.1 1.648 1.854 1.513 5.056-.144 3.442-1.032 9.25-1.967 12.926-1.461 5.741-1.742 5.06-1.968-4.874-.145-6.361.742-12.2 1.968-12.956.163-.101.307-.137.454-.152zm-59.274 13.017c.638.06.878 1.172.878 3.421 0 5.38-1.146 6.212-3.451 2.482-.823-1.332-.365-3.54.999-4.904.683-.682 1.192-1.035 1.574-.999zm-7.084.424c.16-.035.352.157.545.636.618 1.532.618 4.038 0 5.57s-1.12.279-1.12-2.785c0-2.106.225-3.343.575-3.42zm-7.326 7.144c.961.055 2.23.717 3.452 1.938 4.287 4.287 3.113 5.912-2.15 2.967-2.16-1.21-3.32-3.14-2.603-4.3.275-.445.725-.638 1.301-.605z"/><path d="M581.403 1006.053c-3.268-6.037-10.38-22.891-25.1-33.306-7.98-5.646-17.497-8.85-31.843-8.85H500v12.331c49.932 0 55.423 1.505 74.31 45.368l11.819-5.44s-2.84-6.618-4.726-10.103zm52.501-3.209c-28.473-78.486-35.95-131.24-37.758-213.094-1.126-50.954 7.396-122.384 5.328-167.831-2.439-53.578-53.68-131.746-101.474-131.746v12.603c21.641 0 53.29 27.175 71.251 61.814 12.924 24.924 17.91 50.759 18.3 69.73.514 24.968-3.473 68.084-5.074 121.644-.873 29.176-.538 60.594 3.387 101.803 4.231 44.43 12.388 90.67 29.784 137.818 1.879 5.092 4.071 10.91 4.071 10.91z" fill="#d21034" stroke="#d21034" stroke-width=".96872"/><path d="M418.598 1006.053c3.268-6.037 10.38-22.891 25.1-33.306 7.98-5.646 17.497-8.85 31.842-8.85H500v12.331c-49.931 0-55.422 1.505-74.31 45.368l-11.818-5.44s2.84-6.618 4.726-10.103zm-52.502-3.209c28.474-78.486 35.951-131.24 37.76-213.094 1.125-50.954-7.397-122.384-5.329-167.831 2.438-53.578 53.679-131.746 101.474-131.746v12.603c-21.642 0-53.29 27.175-71.251 61.814-12.924 24.924-17.91 50.759-18.3 69.73-.514 24.968 3.472 68.084 5.074 121.644.873 29.176.538 60.594-3.387 101.803-4.231 44.43-12.389 90.67-29.784 137.818-1.879 5.092-4.071 10.91-4.071 10.91z" fill="#d21034" stroke="#d21034" stroke-width=".96872"/><path d="M500 490.185c-39.888 0-104.748 66.372-102.14 154.239 2.019 67.953 8.831 121.94 3.422 192.654-3.858 50.438-11.275 106.193-35.6 166.802l59.97 17.315c14.226-33.907 26.593-44.712 48.617-44.712h51.463c22.024 0 34.39 10.805 48.618 44.712l59.97-17.315c-24.326-60.609-31.743-116.364-35.601-166.802-5.41-70.714 1.403-124.7 3.42-192.654 2.61-87.867-62.25-154.239-102.139-154.239z" fill="none" stroke="#000" stroke-width="4.8436" stroke-linejoin="round"/><path d="M489.344 534.734v-68.779A10.633 10.633 0 01500 455.299a10.633 10.633 0 0110.656 10.656v68.78zm21.312 402.02V1037.5A10.633 10.633 0 01500 1048.156a10.633 10.633 0 01-10.656-10.656V936.753z" fill-rule="evenodd"/></g></g><g><path d="M458.752 113.981c-39.019 2.908-65.67 10.818-97.092 20.328-16.975 5.139-13.801 32.1 13.35 24.612 25.074-6.914 45.36-13.47 75.106-15.167 7.376-.42 11.378 4.704 10.929 10.722zM541.248 113.981c39.019 2.908 65.67 10.818 97.092 20.328 16.975 5.139 13.801 32.1-13.35 24.612-25.074-6.914-45.36-13.47-75.107-15.167-7.375-.42-11.377 4.704-10.928 10.722z" fill="#fff"/><path d="M219.071 255.224l12.836-63.087-64.36-.091c49.125-40.096 105.608-68.297 172.04-87.73-2.446-11.396-4.828-22.273-7.539-37.326-1.669-9.266-.159-18.842 10.868-23.007C378.091 30.695 435.35 21.823 500 21.823s121.909 8.872 157.084 22.16c11.027 4.165 12.537 13.74 10.868 23.007-2.711 15.053-5.093 25.93-7.538 37.326 66.431 19.433 122.914 47.634 172.039 87.73l-64.36.09 12.836 63.088c-61.55-43.608-127.307-74.812-232.553-89.546-13.94-1.951-11.555-22.662 1.513-21.917 29.747 1.697 50.032 8.252 75.106 15.167 27.152 7.487 30.326-19.474 13.35-24.612C597.563 121.971 558.3 112.538 500 112.883c-58.3-.345-97.562 9.088-138.345 21.433-16.975 5.138-13.802 32.099 13.35 24.612 25.074-6.915 45.36-13.47 75.106-15.167 13.068-.745 15.453 19.966 1.514 21.917-105.246 14.734-171.003 45.938-232.554 89.546z" fill="#fff" stroke="#000" stroke-width="2.90616" stroke-linejoin="round"/><path d="M339.319 103.078l12.071 46.723M461.045 154.476l-2.293-40.495M660.681 103.078l-12.071 46.723M538.955 154.476l2.293-40.495" fill="none" stroke="#000" stroke-width="2.90616"/><path d="M500 112.735v-3.73c-41.234 0-76.76 3.433-126.067 17.634-13.187 3.798-20.634 4.882-24.65 13.346l1.292 6.958c1.609-13.318 14.919-14.935 62.785-25.852 27.969-6.38 56.963-8.645 86.64-8.356z" stroke="#000" stroke-width=".96872"/><path d="M500 21.81c-64.65 0-121.909 8.871-157.084 22.159-8.676 3.277-11.463 9.913-11.443 17.104l.688 2.865c-.324-11.532 8.936-15.296 16.204-17.82C389.488 31.836 447.705 25.714 500 25.714zM334.107 73.636l-.757.302c2.184 11.539 4.193 20.84 6.236 30.364-66.43 19.433-122.914 47.634-172.039 87.73l64.36.09-12.836 63.088c61.551-43.608 127.308-74.812 232.554-89.546 5.49-.769 8.433-4.435 9.203-8.567l-.512-6.066c1.291 7.483-4.28 10.116-8.025 10.637-45.606 6.344-94.253 17.136-140.495 36.72-29.788 12.617-58.44 28.348-87.034 48.225 3.606-17.743 7.232-35.498 10.838-53.25.694-3.416-1.508-5.08-4.178-5.085-17.975-.031-35.242-.038-52.734-.091 21.276-16.614 45.946-32.25 72.896-45.681 27.911-13.911 57.542-25.254 89.334-34.541z" stroke="#000" stroke-linejoin="round" stroke-width=".96872"/><path d="M459.998 146.109c-2.556-2.85-5.308-4.561-10.999-4.23-21.567 1.257-40.196 5.435-64.713 12.458-14.817 4.653-27.527 7.576-31.998-4.047 2.845 13.494 17.975 10.111 24.019 8.338 24.091-7.066 44.196-12.086 65.146-14.228 9.928-1.014 12.227-.848 18.545 1.709z" stroke="#000" stroke-width=".96872"/><g stroke="#000"><path d="M500 112.735v-3.73c41.235 0 76.762 3.433 126.068 17.634 13.187 3.798 20.634 4.882 24.65 13.346l-1.292 6.958c-1.609-13.318-14.92-14.935-62.785-25.852-27.969-6.38-56.963-8.645-86.64-8.356z" stroke-width=".96872"/><path d="M500 21.81c64.65 0 121.91 8.871 157.085 22.159 8.676 3.277 11.463 9.913 11.443 17.104l-.688 2.865c.323-11.532-8.936-15.296-16.204-17.82C610.513 31.836 552.296 25.714 500 25.714zM665.894 73.636l.757.302c-2.184 11.539-4.193 20.84-6.236 30.364 66.43 19.433 122.914 47.634 172.038 87.73l-64.359.09 12.836 63.088c-61.551-43.608-127.308-74.812-232.554-89.546-5.49-.769-8.433-4.435-9.203-8.567l.512-6.066c-1.291 7.483 4.28 10.116 8.025 10.637 45.606 6.344 94.252 17.136 140.495 36.72 29.787 12.616 58.44 28.348 87.033 48.225-3.605-17.743-7.232-35.498-10.837-53.25-.694-3.416 1.508-5.08 4.177-5.085 17.975-.031 35.242-.038 52.735-.091-21.277-16.614-45.946-32.25-72.896-45.681-27.912-13.911-57.542-25.254-89.334-34.541z" stroke-linejoin="round" stroke-width=".96872"/><path d="M540.002 146.109c2.557-2.85 5.309-4.561 11-4.23 21.567 1.257 40.196 5.435 64.713 12.458 14.816 4.653 27.527 7.576 31.997-4.047-2.845 13.494-17.974 10.111-24.018 8.338-24.092-7.066-44.196-12.086-65.146-14.228-9.928-1.014-12.227-.848-18.546 1.709z" stroke-width=".96872"/></g><g font-size="120" font-weight="400" letter-spacing="0" word-spacing="-15" fill="#007229" font-family="Adobe Arabic"><path d="M623.462 109.828c2.113-1.171 3.772-2.294 4.978-3.368 1.206-1.075 2.084-2.321 2.634-3.74a60.935 60.935 0 001.647-4.006c.566-1.513 1.123-3.1 1.671-4.76a632.027 632.027 0 006.099-19.364c1.956-6.574 3.639-12.92 5.049-19.039l-.432-.322a46.477 46.477 0 00-3.592 1.801 50.106 50.106 0 00-3.578 2.165c-1.15 5.01-2.544 10.672-4.184 16.985-1.64 6.313-3.294 12.039-4.963 17.176l-1.747 5.281a130.398 130.398 0 01-1.897 5.418 50.38 50.38 0 01-2.26 5.164zM598.068 93.205c-1.307-.286-2.36-.108-3.127.458-.768.566-1.24 1.21-1.417 1.928-.255.79-.219 1.658.109 2.605.327.947 1.193 1.75 2.691 2.069 1.585.338 3.02.701 4.3.77 1.27.067 2.556.068 3.794-.17 1.416-.29 2.75-.72 3.823-1.593s2.207-1.957 3.157-3.204c1.248-1.414 2.15-3.34 3.137-5.52.986-2.181 1.893-4.746 2.72-7.695a210.51 210.51 0 002.392-9.47c.745-3.26 1.503-6.486 2.274-9.68 1.573-.557 2.983-1.16 4.23-1.81-.766-2.76-1.24-5.3-1.422-7.623-.182-2.322 0-4.367.545-6.136l-.304-.381c-1.52.71-2.804 1.427-3.856 2.151-1.438.91-2.33 1.975-2.676 3.194a35.73 35.73 0 00-.724 3.283 398.362 398.362 0 01-.666 3.698 526.1 526.1 0 01-3.08 14.968 317.13 317.13 0 01-3.375 13.822c-.814 2.837-2.336 4.53-4.567 5.077-1.346.278-2.534.217-3.604.116-1.64-.155-2.955-.552-4.354-.857z" style="text-align:start;line-height:125%;-inkscape-font-specification:Adobe Arabic"/><path d="M572.455 86.415c-1.734-.158-2.138-.02-2.872.592-.733.61-1.166 1.28-1.3 2.008-.208.803-.12 1.668.263 2.594.382.926 1.296 1.874 2.804 2 .393.032.722.056 1.177.1 2.612.25 4.56.434 6.781.13 2.209-.3 3.892-.45 5.289-2.092l.221.05c.508 2.265 1.644 4.05 3.41 5.351 1.767 1.302 4.02 2.243 6.76 2.822l1.275.282 1.566-7.095-.998-.22c-1.46-.325-2.709-.8-3.747-1.423a9.595 9.595 0 01-2.636-2.311 4.544 4.544 0 01-.979-2.28c-.112-.843-.057-1.752.166-2.725.14-.624.438-1.471.895-2.541a50.414 50.414 0 011.743-3.619l-.247-.461-4.436 1.927-2.929 5.63c-.844 1.477-2.08 1.458-4.2 1.709-2.148.254-3.915-.064-6.307-.253-.59-.046-1.356-.144-1.7-.175z" style="text-align:start;line-height:125%;-inkscape-font-specification:Adobe Arabic"/><path d="M507.5 80.484c1.864-.733 4.008-1.45 6.432-2.152a143.83 143.83 0 017.918-2.032c.03 1.63.416 3.206 1.16 4.73.742 1.523 1.893 2.976 3.452 4.36-1.413 3.017-2.558 5.885-3.434 8.604l1.132.775c.839-1.247 1.702-2.489 2.589-3.725a57.268 57.268 0 012.79-3.581c1.343.76 2.898 1.364 4.665 1.81 1.767.447 3.688.753 5.763.919 2.884.22 5.394.227 7.53.023 2.135-.205 4.073-.514 5.813-.929 2.893 1.307 4.574 2.32 8.403 3.075 2.723.536 5.488.916 8.293 1.138l1.471.12.59-7.241-7.524-.613c.973-1.583 1.853-4.058 2.525-5.715.673-1.657 1.084-3.296 1.234-4.918.248-3.42-.642-6.422-2.669-9.009-2.026-2.587-5.06-4.099-9.098-4.536-2.508-.16-4.844.23-7.007 1.166a28.919 28.919 0 00-6.14 3.628c-2.636 1.985-4.964 4.088-6.985 6.308-2.021 2.22-3.923 4.5-5.704 6.838-2.365-1.44-3.984-3.12-4.857-5.037a15.06 15.06 0 01-1.353-6.118 309.89 309.89 0 00-21.097 5.911c-.996 2.444-1.748 4.68-2.255 6.707 1.033 1.316 1.717 1.327 2.57 2.541.482.687.726 2.029-.586 3.827-1.248 1.687-2.868 3.401-4.861 5.142-2.384 1.738-4.828 3.07-7.33 3.994a18.377 18.377 0 01-7.778 1.096 17.035 17.035 0 01-3.381-.61 16.402 16.402 0 01-3.4-1.424l-.979 1.515c4.861 4.06 9.276 6.261 13.244 6.604 1.77.175 3.726-.183 5.868-1.074 2.141-.89 4.54-2.494 7.197-4.81 1.594-1.602 2.89-3.27 3.89-5.007.999-1.736 1.63-3.458 2.071-5.5.284-1.31.4-2.608.51-3.928.11-1.32.002-1.47-.672-2.872zm26.082.702c3.454-4.069 6.862-7.22 10.224-9.453 3.362-2.233 6.709-3.239 10.041-3.018 2.594.258 4.83 1.243 6.707 2.952 1.878 1.71 2.94 3.823 3.185 6.34-.087.822-.576 1.558-1.468 2.207-.892.65-2.064 1.203-3.516 1.657-1.646.521-3.812.928-6.5 1.222-2.687.293-5.493.335-8.417.125-2.506-.211-4.597-.496-6.273-.853-1.676-.357-3.004-.75-3.983-1.179zM594.07 51.676a785.396 785.396 0 012.675 3.518 90.92 90.92 0 012.606 3.635c2.222-1.205 4.156-2.677 5.799-4.417-1.658-2.759-3.439-5.225-5.342-7.399a103.228 103.228 0 00-5.737 4.663z" style="text-align:start;line-height:125%;-inkscape-font-specification:Adobe Arabic"/><g><path d="M432.74 88.085c-5.237 2.228-12.718 4.715-18.819 6.435-3.215.906-7.228 1.966-13.644 3.118-7.765 1.393-13.948 1.521-15.993 1.412-10.12-.538-14.924-2.036-15.792-10.902-.687-7.01-.63-6.304-1.408-13.299-.777-6.994-.93-5.882-1.973-12.088l-.418-.188a29.72 29.72 0 00-2.322 2.58c-.794.982-1.62 2.046-2.476 3.192 1.016 5.942 1.178 4.009 1.998 9.627.82 5.618.74 3.395 1.27 8.757.328 4.08.942 7.269 1.406 9.665.519 2.676 4.377 8.608 17.302 9.815 4.969.464 13.13-.348 18.674-1.256 5.814-.952 9.532-1.842 15.103-3.375 7.242-1.993 13.948-4.426 19.441-6.573zM410.879 76.082c1.36.594 2.708 1.188 4.045 1.78a90.917 90.917 0 014.041 1.916c1.36-2.132 2.337-4.357 2.93-6.675-2.787-1.609-5.54-2.902-8.259-3.88a103.23 103.23 0 00-2.757 6.86z" style="text-align:start;line-height:125%;-inkscape-font-specification:Adobe Arabic"/><path d="M433.076 87.936c-2.016.831-3.044 2.565-2.693 4.2.464 2.167 3.124 3.475 4.848 2.814 1.235-.51 2.567-1.08 3.759-1.666 1.342-.659 2.326-1.319 3.375-2.275 1.656-1.51 2.696-3.322 3.121-5.436l.218-.065c1.542 1.737 3.114 2.906 5.323 3.45l1.514-6.889c-2.406-.813-3.379-1.18-5.133-3.078-.577-.624-.899-1.504-1.176-2.463-.18-.614-.33-1.5-.45-2.657a50.614 50.614 0 01-.23-4.01l-.44-.284-2.945 3.837.17 6.345c-.023 1.7-.809 3.224-2.357 4.572a13.101 13.101 0 01-3.287 2.099c-1.407.616-2.321.972-3.617 1.506z" style="text-align:start;line-height:125%;-inkscape-font-specification:Adobe Arabic"/><path d="M452.594 82.078c-1.797-.554-2.722 1.196-3.094 2.658-.343 1.35-.038 3.174.431 3.873.803.262.819.297 2.478.706 1.428.352 3.407.667 5.134.635 1.996-.038 3.358-.195 5.413-.786 2.912-.837 5.558-2.64 7.21-4.613 1.734-2.07 3.033-4.784 3.237-6.606.34-3.036-.189-6.734-.612-11.06-.107-1.09-.204-1.82-.512-4.504-.381-3.323-.173-.833-.508-4.101 1.3-1.048 2.429-2.086 3.388-3.113-1.64-2.349-2.932-4.587-3.876-6.717-.944-2.129-1.452-4.118-1.525-5.968l-.415-.259c-1.196 1.175-2.17 2.279-2.92 3.311-1.054 1.337-1.541 2.637-1.462 3.902.075 1.049.211 2.161.408 3.337.197 1.176.398 2.413.602 3.71.785 5.19.91 4.451 1.506 9.355.596 4.903.466 3.841.846 8.374.212 2.519-2.045 5.291-5.035 6.96-2.712 1.512-4.608 1.583-6.361 1.566-1.357-.014-2.983-.243-4.333-.66z" style="text-align:start;line-height:125%;-inkscape-font-specification:Adobe Arabic"/></g></g><g><path d="M216.136 846.19c-7.905.063-13.749 6.668-11.322 12.624 12.402 30.442 41.221 65.888 82.614 96.085a6572.57 6572.57 0 0123.551-27.79c-28.485-21.046-58.827-39.94-77.709-69.536-5.365-8.41-11.726-11.426-17.134-11.383zM783.866 846.19c7.904.063 13.748 6.667 11.322 12.623-12.402 30.442-41.222 65.889-82.614 96.085a6572.57 6572.57 0 00-23.551-27.79c28.485-21.046 58.826-39.94 77.709-69.536 5.365-8.41 11.726-11.425 17.134-11.382z" fill="#fff"/><path d="M202.573 744.565l-18.315 93.845-73.017-49.041c14.78 37.775 32.177 77.558 55.035 111.463a3887.882 3887.882 0 00-27.124 32.452c-5.275 6.38-4.877 12.2 2.301 21.282 77.95 98.612 206.75 168.98 358.548 168.98 151.797 0 280.598-70.368 358.547-168.98 7.179-9.082 7.576-14.902 2.301-21.282a3887.882 3887.882 0 00-27.124-32.452c22.858-33.905 40.255-73.688 55.035-111.463l-73.017 49.041-18.315-93.845c-9.137 42.44-33.795 114.787-106.59 169.436-5.649 4.24-5.354 8.935-1.816 13.108 3.06 3.608 7.624 3.7 11.746.514 25.704-19.87 48.617-42.861 65.964-70.05 13.207-20.701 32.543-8.79 28.456 1.24C766.916 928.21 653.31 1023.588 500 1023.588S233.085 928.21 204.813 858.814c-4.086-10.031 15.25-21.942 28.457-1.241 17.346 27.189 40.26 50.18 65.963 70.05 4.122 3.187 8.686 3.094 11.746-.514 3.539-4.173 3.833-8.867-1.816-13.108-72.795-54.649-97.453-126.995-106.59-169.436z" fill="#fff" stroke="#000" stroke-width="2.90616" stroke-linejoin="round"/><path d="M310.98 927.109l-23.762 27.982M166.28 900.847c13.59-16.336 28.362-32.223 39.363-49.311M689.023 927.108l23.76 27.983M833.72 900.846c-13.588-16.335-28.36-32.223-39.362-49.31" fill="none" stroke="#000" stroke-width="2.90616"/><path d="M204.359 854.878l-3.724 4.027c10.255 25.222 28.7 49.9 52.644 72.654 27.302 25.944 70.436 56.404 126.358 75.68 43.647 15.047 84.74 20.223 120.363 20.223v-3.875c-153.31 0-266.915-95.377-295.187-164.773a7.388 7.388 0 01-.454-3.936zM140.287 932.139c-.292.353-.843.792-1.135 1.145-5.275 6.38-4.878 12.2 2.3 21.282 77.95 98.612 206.75 168.98 358.548 168.98v-3.874c-47.224 0-104.45-6.992-163.562-29.152-48.876-18.323-88.824-42.446-120.727-67.569-32.203-25.359-56.481-51.735-71.806-71.564-5.867-7.59-8.987-12.398-3.618-19.248z" stroke="#000" stroke-width=".96872"/><path d="M202.573 744.565l-18.315 93.845-73.017-49.041c14.775 37.762 32.158 77.536 55.005 111.433l2.573-3.149c-12.985-19.398-22.806-38.447-31.817-57.457-6.558-13.836-12.136-27.285-17.648-40.686 20.748 13.996 39.532 26.437 62.15 41.715 3.464 2.341 5.999.803 6.901-3.814 5.035-25.758 11.315-58.158 14.592-74.864 8.991 33.276 24.455 66.839 45.68 95.752 14.793 20.15 32.915 39.172 53.401 55.157 4.668 3.642 11.907 8.406 7.871 13.895l3.482-4.995c.508-2.805-.688-5.667-4.269-8.355-72.794-54.649-97.452-126.995-106.59-169.436zM795.642 854.878l3.724 4.026c-10.254 25.223-28.7 49.901-52.644 72.654-27.301 25.944-70.436 56.405-126.357 75.682-43.648 15.045-84.741 20.222-120.364 20.222v-3.875c153.31 0 266.916-95.378 295.187-164.774a7.388 7.388 0 00.454-3.935zM859.715 932.139c.292.353.843.792 1.134 1.145 5.275 6.38 4.878 12.2-2.3 21.281-77.95 98.613-206.75 168.982-358.548 168.982v-3.875c47.224 0 104.45-6.992 163.562-29.153 48.876-18.323 88.825-42.445 120.727-67.568 32.203-25.359 56.482-51.736 71.807-71.564 5.866-7.59 8.986-12.398 3.618-19.248z" stroke="#000" stroke-width=".96872"/><path d="M797.429 744.565l18.314 93.845 73.018-49.042c-14.776 37.762-32.159 77.536-55.005 111.433l-2.574-3.148c12.985-19.398 22.806-38.448 31.817-57.457 6.558-13.836 12.136-27.286 17.649-40.686-20.748 13.996-39.533 26.437-62.15 41.715-3.465 2.341-6 .803-6.902-3.814-5.035-25.758-11.315-58.158-14.591-74.864-8.992 33.276-24.456 66.839-45.681 95.752-14.792 20.15-32.914 39.172-53.401 55.156-4.668 3.642-11.906 8.407-7.871 13.895l-3.481-4.995c-.509-2.804.687-5.666 4.268-8.355 72.795-54.648 97.453-126.995 106.59-169.435zM206.343 860.174c-2.173-5.556 1.937-10.895 8.08-11.945 6.135-1.048 12.875 3.172 17.736 11.185 4.136 6.819 14.794 21.218 24.21 31.51 12.37 13.52 26.78 26.707 42.469 38.808 2.36 1.82 5.101 2.227 7.856 2.515l1.07-2.311c-7.578 2.36-33.913-23.413-49.718-40.165-20.137-21.346-29.186-47.271-44.21-43.79-6.29 1.458-10.266 5.545-10.276 12.16z" stroke="#000" stroke-width=".96872"/><path d="M793.658 860.173c2.173-5.555-1.937-10.894-8.08-11.944-6.134-1.048-12.875 3.171-17.735 11.185-4.136 6.819-14.795 21.218-24.21 31.51-12.37 13.52-26.782 26.707-42.47 38.808-2.36 1.82-5.1 2.227-7.856 2.515l-1.07-2.312c7.578 2.361 33.914-23.413 49.718-40.165 20.138-21.345 29.186-47.27 44.211-43.789 6.29 1.458 10.265 5.545 10.275 12.159z" stroke="#000" stroke-width=".96872"/><g font-size="120" font-weight="400" letter-spacing="0" word-spacing="0" fill="#007229" font-family="Adobe Arabic"><path style="text-align:start;line-height:125%;-inkscape-font-specification:Adobe Arabic" d="M422.168 1036.952a44.35 44.35 0 00-3.188 1.788c-.005 1.523-.064 2.83-.177 3.921-.112 1.091-.236 1.823-.37 2.194-.211.094-.455.133-.733.118a2.09 2.09 0 01-.742-.168 3.09 3.09 0 01-.784-.537 3.591 3.591 0 01-.66-.809c-.428-.512-.62-1.26-.575-2.243.045-.984.346-2.161.905-3.534l-.108-.174c-.418.056-.794.139-1.128.249-.334.11-.696.23-1.086.362l-1.472 3.633c-.24.559-.652 1.016-1.235 1.37-.583.356-1.316.354-2.197-.004-.539-.258-.84-.685-.906-1.28-.064-.595.088-1.298.457-2.108.425-.908 1.003-1.81 1.733-2.703l-.107-.174c-.785.079-1.593.209-2.425.39a13.69 13.69 0 00-1.946 3.167c-.678 1.438-1.003 2.787-.975 4.048.076.577.274 1.112.593 1.605.318.492.797.89 1.435 1.194 1.492.65 3.472.369 5.94-.844l.155.07a4.347 4.347 0 001.147 1.469 6.965 6.965 0 001.605.975c.64.308 1.302.36 1.987.159.685-.202 1.428-.736 2.23-1.602a6.43 6.43 0 00.914-1.353c.24-.477.46-.95.665-1.42.326-.698.623-1.724.892-3.08.268-1.356.389-2.884.363-4.585zM711.934 1027.097c-1.253.923-1.91 1.877-1.972 2.86-.062.983.133 1.783.584 2.4.455.725 1.166 1.273 2.132 1.643 2.486.34 3.905-1 5.988-2.408 3.782-2.557 7.16-5.47 9.898-8.94 2.737-3.47 5.01-7.364 6.82-11.681l4.51-10.78c.439-1.065 1.23-2.242 2.375-3.531 1.145-1.289 2.744-2.607 4.797-3.954l-.885-6.834-.211.002-3.895 2.713a31.316 31.316 0 01-4.722 2.55c-1.593.685-3.133 1.193-4.621 1.524-4.795 1.045-8.721 2.124-11.779 3.238-3.057 1.114-5.386 2.226-6.987 3.334-2.941 2.035-4.843 4.468-5.706 7.297-.863 2.829-.494 5.685 1.106 8.57l6.718 4.788.485-.33-1.506-5.35-2.227-2.03c.275-2.5 1.78-4.7 4.513-6.602 2.242-1.505 4.841-2.823 7.797-3.954 2.956-1.13 6.2-2.125 9.73-2.982l.084.227c-2.925 6.36-6.005 11.683-9.24 15.97a44.955 44.955 0 01-10.829 10.253zm26.418 9.12c1.523.16 3.035.324 4.536.49 1.5.166 3.025.374 4.574.623.673-2.522.94-5.016.8-7.483-3.245-.713-6.358-1.126-9.338-1.24a106.514 106.514 0 00-.572 7.61z"/><path style="text-align:start;line-height:125%;-inkscape-font-specification:Adobe Arabic" d="M672.438 1048.162c-1.34.791-2.09 1.673-2.252 2.645-.16.971-.048 1.787.338 2.447.379.768 1.03 1.385 1.954 1.85.924.467 2.097.353 3.519-.34l.774-.417c2.749-1.543 4.767-3.256 5.822-5.317 1.055-2.06 1.481-4.132 1.277-6.213l.207-.111c3.375 1.078 6.778 1.52 10.21 1.328 3.43-.192 6.19-.85 8.279-1.974 1.186-.64 2.015-1.819 2.486-3.537.299-1.381.145-2.985-.462-4.81l.207-.111c2.007 1.11 3.864 1.632 5.57 1.566a10.447 10.447 0 004.791-1.36l.98-.528-3.558-6.602-.877.472c-2.105 1.103-4.043 1.63-5.814 1.578-1.77-.05-3.275-.541-4.512-1.47-2.894-2.132-5.083-3.687-6.566-4.665-1.483-.979-2.756-1.73-3.818-2.252-1.54-.783-2.956-1.17-4.247-1.164-1.29.006-2.559.354-3.805 1.044-1.781.967-3.106 2.749-3.975 5.345-.869 2.597-.964 5.797-.285 9.598.624 2.838.666 5.236.125 7.196-.54 1.959-2.241 3.565-4.872 4.996zm9.266-13.563c-.26-1.623-.108-3.136.457-4.54.566-1.402 1.557-2.502 2.973-3.299 1.121-.6 2.46-.814 4.014-.64 1.555.172 3.252.747 5.09 1.724a22.771 22.771 0 013.652 2.483c1.167.967 2.042 1.963 2.624 2.987.29.583.291 1.051.001 1.406-.29.354-.695.658-1.214.912-.947.497-2.182.89-3.706 1.182-1.524.292-3.069.42-4.635.385-1.586-.036-3.306-.273-5.16-.713-1.854-.44-3.22-1.07-4.096-1.887z"/><path style="text-align:start;line-height:125%;-inkscape-font-specification:Adobe Arabic" d="M639.026 1062.41c-1.405.67-2.232 1.48-2.48 2.433-.247.954-.208 1.776.118 2.468.309.799.902 1.471 1.78 2.018.88.547 2.057.538 3.536-.025l1.023-.438c.712-.306 1.431-.644 2.157-1.012a35.254 35.254 0 001.983-1.08l1.13 2.639a18.713 18.713 0 005.347 7.048c2.351 1.93 4.988 3.148 7.909 3.655 1.501.244 2.997.251 4.487.022 1.49-.23 2.851-.61 4.084-1.144 1.68-.774 3.028-1.96 4.045-3.558 1.017-1.598 1.638-3.253 1.864-4.966.167-1.111.159-2.295-.023-3.552a14.744 14.744 0 00-1.022-3.65c-.482-1.12-1.179-2.232-2.09-3.335a17.017 17.017 0 00-3.234-2.99l.223-.222c.831-.107 1.7-.31 2.609-.608.907-.299 1.623-.563 2.146-.792l1.4-.6-2.953-6.894-10.503 4.5c-.297-2.678-.971-5.194-2.022-7.548-1.012-2.237-2.71-4.328-5.094-6.272-2.384-1.944-5.2-3.89-8.446-5.84a108 108 0 01-1.807-1.185 15.972 15.972 0 01-1.57-1.192l-.416.37c-.95 5.294-1.02 10.784-.21 16.471a229.477 229.477 0 002.008 12.718zm11.364 3.164a42.029 42.029 0 015.878-3.093c2.151-.89 4.09-1.242 5.817-1.058 1.728.185 3.26.707 4.6 1.567 1.448.926 2.547 1.89 3.295 2.892.748 1.002 1.273 1.892 1.575 2.671.327.771.332 1.513.013 2.226-.319.713-.988 1.297-2.006 1.752-1.765.737-3.76 1.024-5.983.858-2.224-.165-4.428-.778-6.612-1.837a16.801 16.801 0 01-3.863-2.6c-1.181-1.055-2.086-2.181-2.714-3.378zm-2.37-7.017a266.996 266.996 0 01-1.998-18.65l.27-.115c2.834 1.68 5.38 3.357 7.637 5.03 2.257 1.673 3.791 3.37 4.602 5.088.236.513.18 1.126-.167 1.84-.348.715-1.084 1.525-2.21 2.43a23.86 23.86 0 01-3.7 2.318 65.377 65.377 0 01-4.433 2.059z"/><path style="text-align:start;line-height:125%;-inkscape-font-specification:Adobe Arabic" d="M634.549 1063.886c-2.767-5.479-5.811-9.488-9.133-12.03-3.322-2.54-6.314-3.405-8.974-2.593a9.095 9.095 0 00-4.301 3.112c-1.12 1.462-1.953 3.15-2.5 5.062-.448 1.407-.69 2.936-.728 4.585-.037 1.649.248 3.419.855 5.31 1.289 3.88 3.676 6.28 7.163 7.196 3.487.917 8.068.43 13.743-1.46l2.726-.902a12.43 12.43 0 01-.583 4.56c-.482 1.522-1.172 3.175-2.07 4.958-1.572 3.251-3.42 5.96-5.542 8.129-2.124 2.168-4.584 3.723-7.383 4.664-1.67.54-3.24.852-4.713.934-1.474.082-2.85.01-4.127-.232l-.339 2.149c3.24.78 6.39 1.233 9.452 1.356 3.06.122 5.87-.223 8.428-1.037 1.584-.513 3.397-1.969 5.437-4.368 2.04-2.4 3.648-5.592 4.823-9.58.589-2.18.922-4.399 1-6.657.077-2.257-.105-4.306-.545-6.146l4.617-1.527-2.355-7.12zm-3.783 1.252a89.205 89.205 0 01-5.25 1.62c-1.697.466-3.377.752-5.04.858-1.923.092-3.592-.12-5.008-.635-1.415-.515-2.374-1.47-2.877-2.867-.322-1.2-.026-2.511.89-3.935.914-1.424 2.174-2.437 3.777-3.04 1.036-.337 2.143-.405 3.32-.203 1.176.203 2.379.659 3.607 1.368 1.297.73 2.51 1.683 3.64 2.862a19.841 19.841 0 012.941 3.972zM587.91 1054.293a148.034 148.034 0 00-2.383 8.08c3.402 3.225 6.663 6.876 9.783 10.95.297.447.59.91.88 1.389.29.478.5.961.626 1.448.174.661.16 1.547-.04 2.657-.967 4.796-2.924 9.067-5.872 12.814-2.949 3.748-6.466 6.172-10.552 7.275a20.2 20.2 0 01-3.515.506 22.22 22.22 0 01-3.058-.052l-.174 2.086c6.248 1.588 11.479 1.909 15.69.964 1.426-.32 2.82-1.078 4.185-2.272 1.364-1.195 2.703-2.902 4.015-5.122 1.617-3.215 2.745-6.304 3.383-9.268.639-2.964.67-5.722.096-8.274l-1.468-6.276c-.592-2.414-1.365-4.41-2.318-5.987-.953-1.577-1.976-2.973-3.07-4.186l-5.852-6.755zM544.069 1086.002c-1.529.294-2.533.87-3.012 1.731-.479.86-.648 1.667-.507 2.418.099.851.504 1.651 1.217 2.401 1.536 1.007 2.494 1.017 4.053.798 4.371-.612 7.778-1.45 10.092-2.34 2.315-.888 3.993-2.07 5.033-3.542.952-1.7 1.66-3.812 2.143-5.678.482-1.866.571-3.88.267-6.041-.523-2.941-1.623-5.92-3.299-8.937-1.675-3.018-3.402-5.635-5.178-7.852l-.29.044c-1.223 2.093-2.34 4.495-3.35 7.207 2.017 2.774 3.782 5.353 5.295 7.737 1.513 2.384 2.403 4.28 2.672 5.69.064.493-.164.991-.684 1.498-.52.506-1.255 1.352-2.223 1.882-1.214.646-2.774 1.189-4.679 1.629-1.905.44-4.093.842-6.566 1.205zm14.885 23.19a72.312 72.312 0 00-3.763-2.822 46.5 46.5 0 00-3.783-2.373 49.834 49.834 0 00-1.881 2.878 54.023 54.023 0 00-1.86 3.32c1.292.772 2.56 1.562 3.806 2.37 1.245.809 2.541 1.684 3.888 2.625a22.865 22.865 0 001.843-2.695 52.126 52.126 0 001.75-3.303zm11.066-2.452a72.32 72.32 0 00-3.763-2.822 46.505 46.505 0 00-3.783-2.373 49.848 49.848 0 00-1.881 2.879 54.007 54.007 0 00-1.86 3.32 120.47 120.47 0 013.806 2.37c1.245.808 2.54 1.683 3.888 2.624a22.869 22.869 0 001.842-2.695 52.099 52.099 0 001.75-3.303z"/><path style="text-align:start;line-height:125%;-inkscape-font-specification:Adobe Arabic" d="M531.229 1086.166c1.327 3.157 3.046 5.235 5.159 6.235 2.112 1 4.602 1.37 7.47 1.11l1.286-.083-.484-7.485-1.403.091c-1.297.094-2.48.062-3.551-.093-1.07-.156-1.966-.499-2.687-1.03-.91-.704-1.568-1.733-1.976-3.087-.408-1.353-.667-3.024-.779-5.014-.616-9.08-1.32-18.155-2.112-27.225l-.643.042a40.543 40.543 0 00-2.206 2.44 66.897 66.897 0 00-2.104 2.653l.635 4.363c-9.735 6.246-15.625 12.01-17.672 17.29-1.083 2.917-1.56 5.238-1.429 6.961.21 2.328 1.329 3.988 3.354 4.98 2.025.992 4.602 1.383 7.73 1.174 2.269-.163 4.336-.544 6.202-1.143a31.786 31.786 0 005.21-2.179zm-1.34-6.196c-1.677.665-3.21 1.177-4.598 1.537-1.389.36-2.705.58-3.95.66-2.051.138-3.813-.01-5.284-.444-1.472-.435-2.276-1.217-2.412-2.347-.091-1.554 1.13-3.49 3.66-5.808 2.532-2.317 6.318-4.992 11.358-8.022zm5.868-41.833a72.36 72.36 0 00-3.506-3.135 46.54 46.54 0 00-3.565-2.69 49.9 49.9 0 00-2.122 2.705c-.727.992-1.44 2.04-2.138 3.148 1.22.88 2.416 1.776 3.587 2.689 1.17.913 2.387 1.896 3.648 2.95a22.853 22.853 0 002.067-2.527 52.093 52.093 0 002.029-3.14zm-11.236 1.49a72.351 72.351 0 00-3.506-3.136 46.539 46.539 0 00-3.565-2.69 49.914 49.914 0 00-2.122 2.706 54.07 54.07 0 00-2.138 3.147c1.22.88 2.416 1.777 3.587 2.69 1.171.912 2.387 1.895 3.648 2.949a22.852 22.852 0 002.068-2.526 52.087 52.087 0 002.028-3.14zM469.194 1095.723c1.822-1.702 3.203-3.241 4.142-4.62.94-1.377 1.506-2.846 1.702-4.404a62.9 62.9 0 00.647-4.424c.188-1.657.35-3.386.482-5.186.527-6.874.947-13.847 1.261-20.92.314-7.072.411-13.849.291-20.33l-.512-.214a47.976 47.976 0 00-3.147 2.703 51.726 51.726 0 00-3.042 3.063c.103 5.306.124 11.325.062 18.058-.062 6.733-.286 12.88-.672 18.443l-.428 5.727a134.593 134.593 0 01-.543 5.9 52.001 52.001 0 01-.972 5.738zM440.598 1084.452c-1.547-.17-2.674.141-3.371.837-.698.695-1.082 1.424-1.153 2.185-.139.845.031 1.726.51 2.643 1.242 1.418 2.22 1.705 3.871 1.91 1.154.142 2.44.134 3.747.01a16.069 16.069 0 003.8-.841c1.401-.512 2.583-1.295 3.544-2.35.962-1.056 1.832-2.293 2.611-3.712 1.058-1.634 2.068-4.567 2.741-6.945.674-2.377 1.208-5.134 1.603-8.271.4-3.247.731-6.592.994-10.034.263-3.441.544-6.851.842-10.23 1.522-.808 2.87-1.64 4.043-2.493-1.204-2.7-2.076-5.223-2.617-7.566-.54-2.342-.667-4.458-.38-6.347l-.37-.343c-1.442.957-2.644 1.885-3.607 2.785-1.329 1.149-2.077 2.372-2.244 3.67a36.892 36.892 0 00-.238 3.462c-.03 1.23-.068 2.523-.114 3.877a543.062 543.062 0 01-.858 15.752 327.368 327.368 0 01-1.334 14.627c-.398 3.02-1.837 5.909-4.03 6.808-1.332.49-2.552.768-3.66.837-1.573.097-2.814-.105-4.33-.27z"/><path style="text-align:start;line-height:125%;-inkscape-font-specification:Adobe Arabic" d="M441.302 1084.592l-1.255-.296c-2.766-.626-4.893-1.617-6.38-2.973-1.488-1.355-1.994-3.153-1.52-5.393.271-1.089.711-2.307 1.322-3.654a45.007 45.007 0 011.947-3.822l-.187-.225-5.02 1.886a81.855 81.855 0 01-1.372 2.686c-.342.63-.62 1.146-.832 1.55-.62 1.152-1.298 2.128-2.03 2.93a6.688 6.688 0 01-2.57 1.764c-.491.203-1.085.359-1.78.468-.696.11-1.513.062-2.45-.142-1.097-.302-1.822-.852-2.177-1.65-.355-.797-.434-1.6-.237-2.41.229-1.012.675-2.118 1.34-3.32.665-1.2 1.67-2.762 3.017-4.683l-.175-.282-4.805.973-2.162 3.042a15.293 15.293 0 01-2.317 2.486c-.866.743-1.723 1.296-2.574 1.658a8.55 8.55 0 01-2.72.713 8.276 8.276 0 01-2.645-.173c-.9-.22-1.574-.648-2.023-1.282-.448-.634-.576-1.4-.384-2.296.22-.848.827-1.869 1.821-3.062.994-1.193 2.264-2.599 3.81-4.218l-.16-.34-4.755.505-3.901 3.775c-1.876 1.578-3.525 2.009-5.728 2.276-3.517.426-5.928.136-9.057-.885-1.48-.482-2.737-.117-3.503.503-.765.62-1.223 1.304-1.372 2.054-.226.826-.149 1.72.233 2.681 1.111 1.581 2.04 1.876 3.827 2.31 1.982.482 4.119.707 6.437.563 2.317-.144 4.226-.396 6.478-1.948l.228.054c-.213 1.717.06 3.078.82 4.084.76 1.006 1.93 1.691 3.51 2.055 2.103.472 4.058.47 5.865-.01 1.807-.478 3.513-1.277 5.118-2.397l.229.054c.046 2.063.586 3.55 1.619 4.46 1.033.912 2.193 1.491 3.48 1.74 1.65.402 3.39.366 5.218-.108 1.828-.475 3.76-1.459 5.798-2.952l.343.081c.289 1.779 1.236 3.367 2.841 4.764 1.606 1.397 4.153 2.52 7.642 3.368l1.425.337z"/><path style="text-align:start;line-height:125%;-inkscape-font-specification:Adobe Arabic" d="M378.886 1068.556c1.226-6.014 1.324-11.048.293-15.101-1.031-4.054-2.842-6.587-5.433-7.6a9.095 9.095 0 00-5.304-.224c-1.785.453-3.485 1.26-5.1 2.422-1.224.826-2.362 1.874-3.413 3.145-1.052 1.271-1.926 2.837-2.623 4.696-1.395 3.845-1.008 7.207 1.159 10.088 2.167 2.881 6.063 5.34 11.688 7.375l2.697.983a12.431 12.431 0 01-3.283 3.216c-1.323.895-2.89 1.764-4.7 2.606-3.248 1.576-6.378 2.557-9.388 2.942-3.01.384-5.904.079-8.684-.918-1.644-.611-3.07-1.34-4.277-2.19-1.207-.849-2.238-1.762-3.094-2.74l-1.598 1.476c2.058 2.621 4.25 4.93 6.575 6.923 2.325 1.994 4.744 3.465 7.256 4.413 1.56.58 3.885.561 6.973-.056 3.088-.618 6.33-2.126 9.724-4.526a29.283 29.283 0 004.912-4.603c1.46-1.724 2.588-3.444 3.383-5.16l4.57 1.665 2.567-7.048zm-3.744-1.364a89.203 89.203 0 01-5.124-1.983 25.098 25.098 0 01-4.485-2.452c-1.567-1.12-2.746-2.321-3.537-3.603-.79-1.282-.95-2.626-.48-4.033.492-1.141 1.538-1.987 3.138-2.537 1.601-.55 3.217-.564 4.849-.042 1.022.377 1.932 1.01 2.73 1.898.798.889 1.459 1.992 1.983 3.31.565 1.377.925 2.877 1.08 4.502a19.841 19.841 0 01-.154 4.94zM321.378 1035.503a23.967 23.967 0 00-1.287 2.148c-.333.639-.596 1.173-.79 1.603-1.779 3.925-2.169 7.214-1.17 9.867 1 2.653 3.041 4.685 6.124 6.097 2.517 1.14 5.23 1.835 8.139 2.083 2.909.249 5.884.209 8.925-.12a25.657 25.657 0 003.73-3.721 22.004 22.004 0 002.843-4.525 17.64 17.64 0 001.602-7.11c.045-2.51-.28-5.151-.975-7.926a51.864 51.864 0 00-3.189-8.986c-1.347-2.922-2.8-5.567-4.36-7.933l-.45-.145a38.48 38.48 0 00-3.337 2.417c-1.097.886-1.83 1.675-2.198 2.368-.16.316-.188.702-.088 1.155.1.454.39.988.868 1.603a45.977 45.977 0 014.051 6.171 40.778 40.778 0 013.03 6.906c.759 2.489 1.162 4.814 1.208 6.977.047 2.163-.265 3.977-.935 5.441-.22.447-.772.706-1.657.778-2.429.2-4.711.165-6.848-.105-2.136-.27-4.23-.88-6.283-1.83-3.23-1.578-5.12-3.427-5.67-5.546-.55-2.12-.288-4.353.787-6.699zM298.67 1042.83c2.363-.795 4.257-1.626 5.681-2.492 1.425-.867 2.549-1.969 3.372-3.307a62.904 62.904 0 002.418-3.761c.857-1.43 1.718-2.938 2.584-4.522a652.44 652.44 0 009.798-18.525c3.21-6.31 6.101-12.44 8.672-18.39l-.378-.408c-1.223.294-2.55.68-3.983 1.16-1.433.48-2.778.99-4.036 1.531-2.1 4.874-4.57 10.363-7.411 16.467-2.84 6.105-5.587 11.61-8.239 16.515l-2.757 5.037a134.607 134.607 0 01-2.935 5.148 52.006 52.006 0 01-3.257 4.822zM301.196 1003.873a69.262 69.262 0 00-3.99 1.819 191.725 191.725 0 00-3.804 1.938c-.083 3.584-.79 7.707-2.124 12.367a51.661 51.661 0 01-1.546 4.677c-.624 1.641-1.475 3.315-2.552 5.022-.312.47-.988.869-2.026 1.194-1.038.325-2.374.559-4.008.7-2.403.196-4.94-.002-7.609-.596-2.67-.594-5.026-1.53-7.069-2.81-1.862-1.222-3.413-2.653-4.655-4.295-1.242-1.64-2.083-3.31-2.521-5.008-.416-1.502-.478-3.138-.189-4.908.29-1.77 1.096-3.7 2.419-5.788.77-1.17 1.939-2.432 3.507-3.786a32.318 32.318 0 015.191-3.64l-1.203-2.242c-2.357 1.09-4.684 2.526-6.982 4.308-2.297 1.781-4.463 4.21-6.498 7.286-2.824 4.489-3.773 8.95-2.848 13.382.925 4.433 3.704 8.196 8.335 11.29 2.98 1.878 6.353 3.081 10.118 3.61 3.765.527 7.467.356 11.106-.513 1.73-.47 3.678-1.671 5.846-3.602 2.167-1.931 4.084-4.164 5.75-6.697 2.39-3.716 4.19-7.502 5.404-11.358 1.214-3.855 2-7.93 2.356-12.226zm-9.95-21.972c.449 1.464.89 2.92 1.323 4.366a93.896 93.896 0 011.215 4.454c2.584-.366 4.984-1.095 7.2-2.188-.613-3.265-1.449-6.292-2.509-9.08-2.33.693-4.74 1.509-7.228 2.448z"/></g></g></g></svg>