<svg height="300" width="231.9" xmlns="http://www.w3.org/2000/svg" xmlns:xlink="http://www.w3.org/1999/xlink"><g transform="matrix(3.15002 0 0 3.15002 -350.022 363.886)"><path d="M147.927-115.519c-13.085.018-25.48 3.346-34.178 7.443v.011c-.904.378-1.789.757-2.631 1.136l2.842 44.52c1.97 23.265 17.13 36.81 33.975 42.128C164.78-25.6 179.94-39.144 181.91-62.409l2.826-44.378a64.418 64.418 0 00-2.631-1.284v-.005c-8.694-4.095-21.081-7.423-34.16-7.443h-.018z" fill="#005be5" fill-rule="evenodd"/><path d="M147.934-84.712l-8.314 16.237-5.375-6.983-14.046 18.561c.254 1.153.552 2.265.878 3.35 1.568 2.648 4.583 5.67 8.449 5.67 3.068 0 6.136-2.454 9.204-2.454 3.068 0 6.136 2.455 9.204 2.455 3.068 0 6.136-2.455 9.205-2.455 3.068 0 6.136 2.455 9.204 2.455 3.831 0 6.825-2.967 8.406-5.597.338-1.115.64-2.263.902-3.448l-14.027-18.537-5.375 6.983zm-9.204 36.836c-3.068 0-6.136 2.454-9.204 2.454-2.428 0-4.514-.86-6.13-2.08a41.98 41.98 0 001.835 3.504c1.265.787 2.704 1.319 4.295 1.319 3.068 0 6.136-2.455 9.204-2.455 3.068 0 6.136 2.455 9.204 2.455 3.068 0 6.136-2.455 9.205-2.455 3.068 0 6.136 2.455 9.204 2.455 1.568 0 2.987-.52 4.24-1.289a42.193 42.193 0 001.835-3.491c-1.609 1.197-3.675 2.037-6.075 2.037-3.068 0-6.136-2.454-9.204-2.454-3.069 0-6.137 2.454-9.205 2.454-3.068 0-6.136-2.454-9.204-2.454zm0 5.197c-3.068 0-6.136 2.454-9.204 2.454-.667 0-1.3-.078-1.914-.196 5.307 7.091 12.549 11.838 20.316 14.567 7.751-2.725 14.982-7.475 20.286-14.555-.6.113-1.22.184-1.871.184-3.068 0-6.136-2.454-9.204-2.454-3.069 0-6.137 2.454-9.205 2.454-3.068 0-6.136-2.454-9.204-2.454z" fill="#fff" fill-rule="evenodd"/><g id="b" fill="#ffe500"><path id="a" d="M134.094-109.56h6.96l-3.48 6.027" fill="#ffe500" fill-rule="evenodd"/><use height="300" transform="matrix(1 0 0 -1 0 -215.104)" width="600" xlink:href="#a"/></g><use fill="#ffe500" height="300" transform="translate(20.72)" width="600" xlink:href="#b"/><use fill="#ffe500" height="300" transform="translate(10.36 13.875)" width="600" xlink:href="#b"/><path d="M182.105-108.072l-2.638 44.189c-1.828 22.618-15.902 35.787-31.54 40.958-15.638-5.171-29.712-18.34-31.54-40.958l-2.637-44.182c-.905.378-1.79.757-2.632 1.136l2.842 44.52c1.97 23.264 17.13 36.81 33.975 42.128C164.78-25.6 179.94-39.145 181.91-62.409l2.826-44.378a64.419 64.419 0 00-2.631-1.285z" fill="red" fill-rule="evenodd"/></g></svg>