<svg xmlns="http://www.w3.org/2000/svg" text-rendering="geometricPrecision" viewBox="0 0 12494784 11960116" height="423.78" shape-rendering="geometricPrecision" width="442.731" clip-rule="evenodd" image-rendering="optimizeQuality" fill-rule="evenodd"><defs><clipPath id="a"><path d="M6729600 1184800c66510-76010 101350-126680 148860-212190 69670-133020 240700-41180 380050-50680-22170-6330-41170 6340-41170 22170 0 91850-50680 202700-158360 218530-98180 12670-190030-22170-285040-15830-15830 0-28500 22170-44340 38000z"/></clipPath><clipPath id="b"><path d="M7358300 4086200l804110 1056800c218900 1443600-382400 2704900-1664000 3521700-1279800-817300-1879600-2079400-1660800-3521700l800830-1056800h1719800z"/></clipPath></defs><path fill="#f8c300" stroke="#000" stroke-width="53340" d="M6290291.87 10824196.87l2093800-591000 1240900-1136300-2133200-1929600-2540300-20100-2039500 1916700 1441200 1109300z"/><g fill="#f8c300" stroke="#000" stroke-width="53340"><path d="M4488791.87 6331496.87l-188530 84840c-103690 84840-131970 216810-131970 216810s122550 28270 245090-9430c122540-37710 179100-94260 179100-94260l-103690-197960zM4601291.87 6556596.87l-188520 84840c-103690 84830-131970 216800-131970 216800s122540 28280 245080-9420c122540-37710 179100-94270 179100-94270l-103690-197950zM4713891.87 6791696.87l-188530 84840c-103690 84840-131970 216810-131970 216810s122540 28280 245090-9430c122540-37700 179100-94260 179100-94260l-103690-197960zM4835891.87 7037396.87l-188530 84840c-103690 84840-131970 216810-131970 216810s122540 28280 245080-9430c122550-37710 179110-94260 179110-94260l-103690-197960zM4976691.87 7280996.87l-188530 84830c-103690 84840-131970 216810-131970 216810s122540 28280 245090-9430c122540-37700 179100-94260 179100-94260l-103690-197950z"/></g><g fill="#f8c300" stroke="#000" stroke-width="53340"><path d="M7993891.87 6331496.87l188530 84840c103690 84840 131970 216810 131970 216810s-122540 28270-245090-9430c-122540-37710-179100-94260-179100-94260l103690-197960zM7881391.87 6556596.87l188530 84840c103690 84830 131960 216800 131960 216800s-122540 28280-245080-9420c-122540-37710-179100-94270-179100-94270l103690-197950zM7768791.87 6791696.87l188530 84840c103690 84840 131970 216810 131970 216810s-122540 28280-245080-9430c-122550-37700-179110-94260-179110-94260l103690-197960zM7646791.87 7037396.87l188520 84840c103690 84840 131970 216810 131970 216810s-122540 28280-245080-9430c-122550-37710-179100-94260-179100-94260l103690-197960zM7505991.87 7280996.87l188530 84830c103690 84840 131970 216810 131970 216810s-122540 28280-245090-9430c-122540-37700-179100-94260-179100-94260l103690-197950z"/></g><path d="M6245791.87 8408596.87l-76010-53840s-44340 734770-297710 1143300c-139350 221690-253370 462400-275540 506740-22170 41170-142520 190020 133020 209030 186860 9500 506740 9500 506740 9500l503570-9500c275540-19010 155190-167860 133020-209030-22170-44340-136190-285050-275540-506740-253370-408560-297710-1143300-297710-1143300l-53840 53840z" stroke="#000" stroke-width="17780"/><path d="M7810391.87 3521696.87s-231200-364210 0-728430-171030-383220-126690-627090c41180-240700 335720-1175000 1412500-1133800 1080000 41170 1840100 810780 2030100 931130 190030 123520 399060 304050 525740 63350 0 0 85510 202690-19000 323040-107680 117180-234370 199530-424390 117180 0 0 443390 649260 487730 851960 41170 202690 63340 202690 231200 142520 0 0-22170 183690-126680 202700-104520 22160-253370 101340-357890-60180 0 0 190030 446560 126690 709430-85520 345220 19000 668270 104510 731610 0 0-338880 79180-506740-142520 0 0 22170 1095800 316710 1437900 0 0-338880 142520-484560-79180 0 0 253370 1539200 1456900 3772000 0 0-402220 139350-718940-487740 0 0-357880 120350-633420-487730 0 0-674600 22170-886790-1032500 0 0-443400 101340-633430-566920l-570080-630250s-381360 144350-570080-566920c-121270-457070-196410-757870-259740-1568700-166620 470660-303330 76210-333300-39300-117420-452630-40380-1131600-40380-1131600z" fill="#f8c300" stroke="#000" stroke-width="53340"/><g stroke="#000" stroke-width="17780"><path d="M7627791.87 7681196.87c222100 338530 641230 853230 1291100 1177200 129850 66510 186860 88680 98180 167860-88680 76010-177360 174190-342050 107680-138800-56050-902960-539570-1244100-1217300 68350-76220 134000-154690 196870-235430z"/><path d="M7363091.87 7990496.87c190330 344590 552050 863070 1144000 1222600 123520 72840 174200 98180 82350 167850-91850 66510-183690 155190-338880 79180-126980-66140-817310-585320-1098500-1258400 72690-68250 143070-138630 211060-211150z"/><path d="M7045491.87 8298696.87c177920 352920 515700 877160 1081600 1256400 120350 79180 171020 107690 76010 171030s-190030 148850-342050 63340c-124180-68700-788350-618030-1041900-1302100 77430-60810 152910-123680 226320-188610zM6711191.87 8569796.87c131040 293890 382720 726660 858440 1222800 98180 104510 158350 120350 60170 177360s-288210 142520-430730 50670c-117880-76880-553000-674300-723170-1285400 80070-53210 158550-108350 235290-165430zM4856291.87 7668996.87c-221370 338500-640240 855050-1289800 1179800-133020 66510-186860 88680-98180 164690 85510 76010 174190 177360 338880 110850 138850-56070 901250-542150 1243400-1220900-67450-75920-132230-154070-194260-234450z"/><path d="M5118391.87 7978096.87c-190880 345220-553120 864540-1143400 1222300-120350 76010-171030 101350-82350 167850 91850 66510 183700 155190 338880 79180 129550-63450 815190-583840 1097200-1257000-72440-68600-142550-139370-210260-212250z"/><path d="M5434391.87 8287396.87c-177060 353540-513630 877930-1079300 1255000-117180 79170-167860 107680-76010 171020 95010 63340 193200 148860 342050 66510 126670-71250 787510-619710 1039300-1302600-77360-61250-152730-124570-226010-189950zM5767891.87 8560196.87c-130540 294200-381220 726620-855460 1223000-95010 101340-158350 117180-60170 174190 95010 57010 285040 145690 430730 50670 115170-74210 550820-669610 722180-1279800-80790-54040-159930-110020-237280-168030z"/></g><path d="M4798391.87 4322996.87l-310380-658760c275540-88680 177360-484570 177360-484570 177360-88680 525740-788620 525740-788620l-221700-44340c177360-88680 395890-440230 395890-440230l-262870-44340c133020-41170 351550-525740 351550-525740h-262870c262870-88680 589080-810780 965970-1099000 484570-376880 1099000-133020 1099000-133020s440230-44340 484570 218540-484570 44340-570080 266030c0 0 361050-310370 560580-79170 0 0-297710-9510-342050 209030 0 0 44340 177350-133020 617580 0 0 177360 262870 177360 484570 0 218530-88680 918470 262870 962810l177360 307210s-133020 484570 174190 617580l-307210 614430h-2942200z" fill="#f8c300" stroke="#000" stroke-width="53340"/><path d="M5716891.87 1048196.87c88680-65450 177360-130910 266040-196370-109800 154140-219590 308260-329380 462400 160460-102410 320930-204810 481400-307210-35900 102400-71790 204800-107680 307210 117180-131970 234360-263930 351550-395890m680930 152030s-66510 155180-22170 266030m-329380-266030s66510 221690 44340 288200 107680-288200 174190-329380m-547910 41180s-22170 133010-22170 221690 174190-177350 240700-243860M5453991.87 1776596.87s93580-88120 110850-177360c43290 102410 86570 204820 129850 307210 0 0 272440-201690 310380-329380 14960 129490 63340 221700 129850 262880 66510-102400 133020-204810 199530-307220 0 0 151370 189970 218530 288210 0 0 139530-159080 199530-266040 43280 102410 86560 204820 129850 307210 59120-109780 118230-219570 177360-329380 0 0 22170 199530 110850 266040M5257691.87 2280196.87c35900-50670 71800-101340 107680-152020 0 0 22170 262870 66510 326220 0 0 240700-196370 262870-348390 0 0 199530 196360 243870 262870 0 0 173130-126640 196360-329380 45410 105150 110850 351550 133020 414900 0 0 205510-193450 218530-392730 69320 119490 133020 351550 221700 392730 0 0 175510-182820 196360-414900 75380 180040 95480 279870 177360 351550 44340-124560 88680-249140 133020-373720 0 0 0 177360 85510 262870M5124691.87 2739496.87s22170 155190 110850 266030 240700-266030 262870-354710c0 0 133020 310370 196360 395890 144130-178460 168910-241180 243870-373720 0 0 66510 243870 129850 332540 0 0 127170-216510 155190-376880 45430 121880 110850 332540 221700 395890 87630-138300 175250-276590 262870-414900 0 0 110850 262880 174190 329390 0 0 84820-128500 177360-351560 38240 83650 110850 240710 155190 307220 0 0 129850-221700 107680-307220" fill="none" stroke="#000" stroke-width="35560"/><path d="M6476991.87 664996.87c66510-76010 101350-126680 148860-212190 69670-133020 240700-41180 380050-50680-22170-6330-41170 6340-41170 22170 0 91850-50680 202700-158360 218530-98180 12670-190030-22170-285040-15830-15830 0-28500 22170-44340 38000z" fill="#fff"/><g clip-path="url(#a)" transform="translate(-252608.13 -519803.13)"><path d="M7081200 1096100c60180 0 107680-50670 107680-110840 0-60180-47500-107690-107680-107690-60170 0-107680 47510-107680 107690 0 60170 47510 110840 107680 110840z"/></g><path d="M6476991.87 664996.87c66510-76010 101350-126680 148860-212190 69670-133020 240700-41180 380050-50680-22170-6330-41170 6340-41170 22170 0 91850-50680 202700-158360 218530-98180 12670-190030-22170-285040-15830-15830 0-28500 22170-44340 38000z" fill="none" stroke="#000" stroke-width="35560"/><path d="M7157991.87 664996.87c6340-53840-28500-41170 12670-76010 0 0 361050-310370 560580-79170 0 0-266830-8500-332870 176040-86760-19520-171630-35080-240380-20860zm12670-76010c-98180-107680-82350-380050 22170-497230l5930-6580c36680 11060 57410 19240 57410 19240s440230-44340 484570 218540-484570 44340-570080 266030z" fill="#ef9b11" stroke="#000" stroke-width="35560"/><path d="M4684391.87 3521696.87s231200-364210 0-728430 171030-383220 126690-627090c-41180-240700-335720-1175000-1412500-1133800-1080000 41170-1840100 810780-2030100 931130-190030 123520-399060 304050-525740 63350 0 0-85510 202690 19000 323040 107680 117180 234370 199530 424390 117180 0 0-443390 649260-487730 851960-41170 202690-63340 202690-231200 142520 0 0 22170 183690 126680 202700 104520 22160 253370 101340 357890-60180 0 0-190030 446560-126690 709430 85520 345220-19000 668270-104510 731610 0 0 338880 79180 506740-142520 0 0-22170 1095800-316710 1437900 0 0 338880 142520 484560-79180 0 0-253370 1539200-1456900 3772000 0 0 402220 139350 718940-487740 0 0 357880 120350 633420-487730 0 0 674600 22170 886790-1032500 0 0 443400 101340 633430-566920l570080-630250s381360 144350 570080-566920c121270-457070 196410-757870 259740-1568700 166620 470660 303330 76210 333300-39300 117420-452630 40380-1131600 40380-1131600z" fill="#f8c300" stroke="#000" stroke-width="53340"/><g fill="none" stroke="#000" stroke-width="53340"><path d="M1286091.87 2467096.87c104500-117200 1013500-1048300 2049100-1048300M3290891.87 1760796.87s-861460 76010-1456900 687260c-528910 547910-782280 1156000-782280 1156000"/><path d="M3249691.87 2086996.87s-617590 139350-1076800 503570c-253370 202700-677770 709440-741110 1095800-63340 383230-104510 1013500-104510 1216200"/><path d="M3208591.87 2467096.87c-107690 41180-497240 129860-867800 427570-253360 202690-547910 608080-592250 1317500-41170 709430 22170 1276400-253370 2049100"/><path d="M3335191.87 2752096.87c-171020 82340-1121200 304040-1225700 1542400-107690 1235200-126690 2068100-465570 2980300-253370 680930-886790 2270800-886790 2270800"/><path d="M1390591.87 9057896.87s630260-1374500 845620-2248700c253370-1035600 262870-2090300 275540-2372200 19000-570080 41170-953300 801280-1238300"/><path d="M3398591.87 3543896.87c-126680 19010-500400 142520-487730 1013500 22170 1441000-566920 3306500-633430 3468000M3588591.87 3927096.87c-85510 22170-288210-60180-275540 649260 22170 1137000-275540 2394300-402220 2882100M3860991.87 4436996.87s0 1133800-380050 2391200"/></g><path d="M4978991.87 4028496.87s-209030-709430-589080-788610 63340-345210-231200-528910c0 0 272370-361050 209030-646090-63340-281870-183690-703100-737940-810780-185660-36020-182380-89720-167830-217420-15240-3690-9960-5120-63370-4280-22830 186110-44340 446560-85510 589080-41170 139360-190030 988140 22170 1130700 0 0-85510 547910 19000 731600 107680 180530 212200 484570 380060 525740 0 0 44340 731610 760110 731610l12660-114020 471900-598590z" fill="#f8c300" stroke="#000" stroke-width="53340"/><g fill="none" stroke="#000" stroke-width="53340"><path d="M11208391.87 2467096.87c-104000-117200-1013000-1048300-2048800-1048300M9203891.87 1760796.87s861460 76010 1456900 687260c528910 547910 782280 1156000 782280 1156000"/><path d="M9245091.87 2086996.87s617590 139350 1076800 503570c253370 202700 677770 709440 741110 1095800 63340 383230 104510 1013500 104510 1216200"/><path d="M9286191.87 2467096.87c107690 41180 497240 129860 867790 427570 253370 202690 547920 608080 592260 1317500 41170 709430-22170 1276400 253370 2049100"/><path d="M9159591.87 2752096.87c171020 82340 1121200 304040 1225700 1542400 107690 1235200 126690 2068100 465570 2980300 253370 680930 886790 2270800 886790 2270800"/><path d="M11104391.87 9057896.87s-630260-1374500-845620-2248700c-253370-1035600-262870-2090300-275540-2372200-19000-570080-41170-953300-801280-1238300"/><path d="M9096191.87 3543896.87c126680 19010 500400 142520 487730 1013500-22170 1441000 566920 3306500 633430 3468000M8906191.87 3927096.87c85510 22170 288210-60180 275540 649260-22170 1137000 275540 2394300 402220 2882100M8633791.87 4436996.87s0 1133800 380050 2391200"/></g><path d="M2331291.87 10505196.87c31670 0 57010-25340 57010-60180 0-31670-25340-57000-57010-57000s-57000 25330-57000 57000c0 34840 25330 60180 57000 60180z" stroke="#000" stroke-width="7620"/><path d="M6267991.87 11933196.87c2134600-22170 3585200-1342900 3585200-1342900 22170 88680 462400 418060 462400 418060s44340 186860 285040 88680c323040-129850 440230-703100 440230-703100 0 66510 528910 285040 528910 285040-22170-196360-22170-329380 0-547910 22170-221700 41170-199530-418060-684100-462400-484570-528910-22170-573250-88680l-196360-196360c-155190-133020-595420-551080-902630-218530-1371400 1466400-2837700 1517000-3211500 1517000-373720 0-1836900-50670-3208300-1517000-307210-332550-747440 85510-902630 218530-152020 133020-196360 196360-196360 196360-44340 66510-110850-395890-573250 88680s-440230 462400-418060 684100c22170 218530 22170 351550 0 547910 0 0 528910-218530 528910-285040 0 0 114020 582750 440230 703100 209030 76010 285040-88680 285040-88680s440230-329380 462400-418060 1450500 1365000 3582000 1342900z" fill="#007a3d" stroke="#000" stroke-width="53340"/><g fill="none" stroke="#000" stroke-width="53340"><path d="M1960691.87 9358696.87c-88680 88680-221700 288210-266040 395890-41170 110850-63340 310380 155190 639760 221700 329380 373720 395890 373720 614420M991591.87 9932196.87c110850-44340 395890-88680 506740 462400"/><path d="M1675691.87 9865196.87c107680-129850 174190-110850 525740 266040 351550 373720 351550 351550 484570 459230"/></g><g fill="none" stroke="#000" stroke-width="53340"><path d="M10591391.87 9380896.87c85510 88680 209030 253370 250200 364220 44340 110850 66510 307210-152020 636590-221700 332550-373720 395890-373720 617590M11547391.87 9922196.87c-110850-44340-395890-88680-506740 459230"/><path d="M10863391.87 9856196.87c-107680-133020-174190-110850-525740 262870s-351550 351550-484570 462400"/></g><path d="M7512691.87 4028496.87s209030-709430 589080-788610-63340-345210 231200-528910c0 0-272370-361050-209030-646090 63340-281870 183690-703100 737940-810780 185660-36020 182380-89720 167830-217420 15240-3690 9960-5120 63370-4280 22830 186110 44340 446560 85510 589080 41170 139360 190030 988140-22170 1130700 0 0 85510 547910-19000 731600-107680 180530-212200 484570-380060 525740 0 0-44340 731610-760110 731610l-12660-114020-471900-598590z" fill="#f8c300" stroke="#000" stroke-width="53340"/><g fill="#ef9b11" stroke="#000" stroke-width="53340"><path d="M1871991.87 10065196.87c-41170-57010-66510-186860 66510-297710 107680-88680 152020-98180 174190-142520 0 0 66510 152020 12670 285040-25340 60180-120350 329380-253370 155190z"/><path d="M2049391.87 10306196.87c-47510-50670-60180-158350 38010-259700 104510-101350 253360-72850 281870-114020 28500-41170-3170 199530-38010 288210 0 0-161520 218530-281870 85510zM2280591.87 10527196.87c-53840-47510-28500-199530 82340-285040 114020-91850 190030-85510 228040-117180 50670-38010 72840 215360-15840 310370-91840 98180-218530 155190-294540 91850z"/><g><path d="M10227391.87 10505196.87c104510-72840-57010-250200-60180-253370-117180-91850-266030-79180-297710-114020-31670-38000 15840 212200 72850 297710 0 0 142520 167860 285040 69680zM10645391.87 10087196.87c88680-66510 44340-313540-88680-351550-76010-22170-133020-44340-152020-88680-22170-44340 9500 186860 9500 253370 0 63340 110850 275540 231200 186860zM10458391.87 10283196.87c6330-6330 85510-133020-28510-247030-104510-104520-240700-142520-269200-183700-28500-38000-34840 240700-6340 300880-69670-145690 95020 338880 304050 129850z"/></g></g><path fill="#009e60" d="M6328191.87 5456796.87h414900l-335800 243900 129900 392700-335700-243800-332600 243800 126700-392700-335700-243900h414900l126700-392700zM6328191.87 6710996.87h414900l-335800 243900 129900 392700-335700-243800-332600 243800 126700-392700-335700-243900h414900l126700-392700z"/><path d="M7250091.87 3241496.87l932110 1230800c258400 1679600-446000 3153600-1936400 4102500-1488600-949400-2191400-2424200-1933200-4102600l928830-1230800h2008600z" fill="#f8c300" stroke="#000" stroke-width="53340"/><path d="M7105691.87 3566396.87l804110 1056800c218900 1443600-382400 2704900-1664000 3521700-1279800-817300-1879600-2079400-1660800-3521700l800830-1056800h1719800z" fill="#fff"/><g clip-path="url(#b)" transform="translate(-252608.13 -519803.13)"><path d="M6499980 9942360V2825072.26h2250168.424V9942360z"/><path fill="none" stroke="#000" stroke-width="7620" d="M6500000 1082000v10587000"/><path fill="#ce1126" d="M6499980 9942360V2825072.26H4249811.576V9942360z"/><path fill="#fff" d="M5944640 9934150V2816862.26h1110733.122V9934150z"/></g><path d="M7105691.87 3566396.87l804110 1056800c218900 1443600-382400 2704900-1664000 3521700-1279800-817300-1879600-2079400-1660800-3521700l800830-1056800h1719800z" fill="none" stroke="#000" stroke-width="53340"/><g fill="#007a3d"><path d="M6247391.87 5284896.87l-273800 199700 105300-322100-274600-198700 339000 700 104100-322600 104100 322600 339000-700-274600 198700 105300 322100zM6247391.87 6605496.87l-273800 199700 105300-322100-274600-198700 339000 700 104100-322600 104100 322600 339000-700-274600 198700 105300 322100z"/></g><path d="M2986291.87 9592196.87c-18140 14500-37000 29220-55140 44390-15230-23870-29020-47290-44250-70720-13780 14060-27570 28110-40630 41950-20310-30790-40620-61580-59480-91920 17410-14720 33370-29000 51500-43280 15240 23650 31200 47070 46430 70720 15240-12940 29750-25660 44260-38150 18860 29000 38450 57780 57310 87010zm-730 627790c-16680-12050-32880-23320-49330-35030-8940-6360-16840-14610-23940-23870-13930-18170-25600-41000-33370-69380-10370-37900-13060-83440-11610-135870-18860 10710-34120 16880-44980 19640-14530 3700-26040 2330-35540-4240-5000-3460-10930-8450-18140-15400-14540-14010-29000-28360-42800-41940-18840-18540-30030-30680-34100-35690-3930-4840-5650-9190-5080-14060 880-7440 11500-24870 34820-51310 23100-26200 39200-41220 48610-44620 7260-2620 18870-5180 37000-4910 10890 160 25360 1300 44980 2680 5780 400 13060 670 20310 1560 0-4460 390-8650 730-12490 390-4440 890-8010 1450-11600 1610-10240 6900-21430 13780-33910 6900-12520 18140-25880 33370-40610-2900 45960-3630 93060-5800 138990-2170 45780-2900 92590-2900 138770 0 43950 4140 76380 11600 97040 4860 13460 12280 23960 22490 31460 15890 11680 31920 23200 49340 35470-5080 36370-7980 72950-10890 109320zm-117520-333310c0-18070-730-36140 0-53540-7980-2010-14480-3340-19590-4010-15200-2000-25420-2730-35550-1790-6560 610-12300 2540-16680 4240-6490 2530-8080 5330-8710 8250-810 3780 2000 9780 10160 18070 8520 8650 16760 15310 25390 21870 5150 3910 11630 6560 16680 7140 6540 750 15960 1340 28300-230zm333710-104400c-3530 20310-10810 34220-18860 41940-10080 9670-20320 9370-33370 220-5080-3560-8110-7270-11610-12050-3030-4140-7250-10040-10880-17170-7260 6460-13020 9500-18140 11150-10100 3250-18870 890-27570-5800-10150-7800-16360-17290-20310-28560-4020-11480-3380-23700-1450-37250 970-6850 2180-13400 5800-18520 3620-5130 7260-11380 11610-17850 2180 890 5810 1560 7980 2460-720 2230-750 5570-2170 9810-1480 4450-2400 8660-2910 11830-930 5760-1110 11660 0 18290 1060 6320 3980 11370 7980 14500 10540 8270 20800 6470 30470-4010 4120-4460 9430-15400 18140-31910 2900 1340 5080 2460 7980 3800 0 14500 140 23180 730 27210 1580 10690 4740 18930 10880 23650 9830 7560 18720 5890 26840-3350 6380-7260 10160-16730 13060-28110 2900 900 5080 2240 7980 3350 0 5360-10 12270-730 18960s-640 12740-1450 17410zm-3620 586510c-79810-52430-158160-109090-235780-165090 2900-36590 6530-72950 10880-109540 65290 47520 130580 95260 195880 141670-730-20080-3630-39250-8710-56450-2900-9830-10880-27660-22490-54210 13790-25210 28290-50190 43530-74960 15230 34810 24270 66890 28290 96600 3950 29180 2170 68270-2900 117130-3630 35010-6530 70050-8700 104850zm-10160 66710c-15960 18290-29750 37480-44250 55770-18870-23650-35550-47290-53690-70500-10160 13840-21040 27670-31190 41500-23220-30560-47160-60910-68920-90580 12330-17180 26840-33910 40620-50420 17410 22980 37000 46630 55860 69830 10890-14500 21770-28330 34100-42160 21760 29890 44250 58670 67470 86560zm349670 155490c-610 16070-11080 31220-30470 46630-19050 15150-39870 26270-63840 30570-28260 5060-50010 1710-68920-9820-23160-14120-47520-35380-73990-65140-22130-24880-56590-70280-103750-134080 5810-5140 11610-10040 16690-14950 23210 30560 41580 52650 55140 66700 14000 14510 28290 26790 44970 37040 18130 11150 36290 16420 53690 17180 18140 790 43460-3620 74720-12500 45630-12970 67000-29490 68920-50640 970-10760-1130-26870-7980-49530-7650-25310-16680-48850-28290-70270 10150-31460 21760-62910 33370-93930 15230 29900 25720 59500 32650 89910 6840 30040 8930 60490 5800 91250-4110 40400-7160 80990-8710 121580zm364190 161530c-2080 45510-23020 80640-61670 104850-38960 24410-76060 26990-113890 7360-22370-11600-46430-30790-72550-58450-26110-27660-64570-78970-116080-153040 4360-4460 10160-8700 16690-12940 26840 36360 50040 63160 67470 80090 14480 14070 31890 25500 50060 35030 26070 13670 51520 19450 77620 18290 29030-1290 60210-12940 94310-33690-11610-4460-20980-8600-28290-12490-25330-13500-46660-32890-61670-58230-14730-24850-19130-52230-16680-81650 3340-39960 15350-73890 37000-100840 24050-29940 49140-37120 73990-23870 21580 11500 37400 35130 48610 71830 11270 36920 14760 75160 11610 115790-2640 34090-4990 68060-6530 101960zm-42080-105310c-3630-46400-16620-75520-39170-87450-8640-4570-14280-5300-21040-890-4960 3230-8070 9620-8710 17400-800 9660 3850 20120 13790 31900 9640 11420 23300 22160 39900 31010 5150 2740 10150 5580 15230 8030zm241580-324150c-2950 19960-9620 34420-18140 43950-9610 10760-20380 13280-34090 6470-5140-2550-8990-6420-12340-9820-3950-4000-7980-8250-12330-14500-6530 6690-12960 10740-18860 13160-9330 3820-18320 3240-28290-2010-10340-5450-17710-13920-22490-24540-4650-10350-6000-22350-3630-35470 1250-6940 3540-12990 6530-18740 2800-5390 7250-11600 10160-18510 3620 220 7250 660 10150 1110-720 2230-1790 5490-2900 9820-1070 4160-1670 8210-2180 11370-930 5770-320 12110 730 17630 1120 5870 4170 10360 8700 12720 12170 6340 22350 3670 31200-7370 4200-5240 10160-16280 17410-33460 2180 670 5080 1560 8710 2010 0 14050 230 22680 1450 26550 3130 9950 5950 16470 13780 20970 8860 5090 18560 2010 26120-8260 6230-8470 10150-18520 12330-29670 2900 450 6530 1120 9430 1340 0 5580-720 11600-720 18070 0 6920-50 12550-730 17180zm298170 687800c-29750-12940-54520-25500-74720-38600-19690-12770-39910-27880-58040-45280-15960 4230-31210 5190-42080 3790-11610-1490-31240-7930-55860-18300-22530-9480-43760-18240-65290-28110-18370-8420-31780-20620-41350-34800-10010-14820-18870-34580-26850-60010-15230 14950-32640 22310-50780 22310-15230 0-34060-5450-55860-16730-19540-10120-37000-19860-55860-29450 1450-35920 2900-71840 6530-107760 18140 9600 37080 19270 56590 29680 26910 14350 50120 19410 70370 13380 26180-7790 39900-33020 44250-74510 8700 5570 17410 10930 26120 16950-2180 7810-2900 16970-4360 27890-1430 10710-2910 22090-4350 35470-1450 13380 3370 27610 11610 40830 8440 13540 18600 23980 30470 29220 16440 7260 33240 14370 48600 20970 33960 14590 57280 19630 71100 16740 18090-3790 27500-20090 30470-49750 640-6470 2720-11400 7250-14730 2740-2020 8650-3980 15960-6470 5750-1960 10890-3570 15960-5580 0 5360 370 12670-720 21200-1080 8440 230 14640 0 17400-1220 14460-5810 32570-10880 54660 9430 9150 19700 17910 32640 26770 12450 8530 24670 16730 37730 24540 1450-9150-730-21860-7260-39040s-9330-28320-8700-33470c810-6670 2200-11360 4350-14500 740-1090 4780-3010 10880-8030 12070-9940 24670-20750 36270-30790 6530 19640 10840 36930 13060 52210 2130 14630 1980 32340 730 52430-3090 49730-6530 99720-7980 149470zm196600 77190c-76170-28110-150170-57780-224170-89240 730-35920 2180-71610 4350-107530 58040 24760 116080 47970 174120 70940-6530-48630-10560-96860-15240-144560-4740-48220-7250-95930-9430-143900-9430-8700-16690-17400-24670-25880 2180-15610 6340-30300 13060-44390 8510-17820 22490-37930 40630-60460 5800 5350 10880 10480 16680 15840 0 1780-290 5720-2170 12270-2470 8620 3130 19010 13060 31230 8920 10980 23210 24990 44980 41720-5810 16060-10240 31740-16690 46180-6610 14800-13780 27440-21760 37930-4360-3790-8710-7360-13060-11160 2170 43730 5410 87580 9430 131630 3960 43410 7980 87230 13780 130960-1450 36140-2170 72280-2900 108420zm125510-75850c-660 23650-4760 44250-10890 61800-6190 17700-18130 40150-34090 68040-9430-6250-16690-12050-24670-17850 6530-31900 10470-58240 10880-79420 310-16300 0-40580-720-72730-720-32110-1090-64270-2900-96380-1810-32140-5870-70720-10160-116450-1500-16050-1310-26760-730-32350 860-8230 6130-20560 16690-37700 10470-16990 24670-37040 43530-60020 2170 49750 5690 99170 9430 149250 4230 56580 4670 105080 5080 145460 310 31000-670 60470-1450 88350zm581820-294930c-18860 21190-37000 42380-53680 63800-18870-15390-37730-30790-54410-45960-14510 18520-26850 37040-40630 55550-23940-19850-48610-39480-71100-59120 16690-20300 32650-40380 50790-60450 18130 14500 37720 29440 55860 44170 15230-17630 29020-35470 44250-52870 22490 18290 45710 36580 68920 54880zm60210 581830c-18130-3570-36260-7200-54410-11160-9410-2050-19130-6080-27560-12040-15520-10990-29340-28860-40630-51760-15540-31520-23210-72510-26840-122930-18860 18520-34020 30920-44980 37930-15880 10160-28300 14080-39900 11600-5080-1080-10660-3830-17410-6690-17940-7620-35590-14200-51510-21200-21070-9280-35300-16390-39180-19180-4830-3470-7250-7310-7250-12050 0-7390 9950-27580 31190-61130 21550-34040 36580-54970 45710-61800 7590-5680 20220-12520 38450-19630 11510-4490 28420-9240 48600-16280 6660-2320 13790-5130 21040-7590 0-3790 350-7600 0-11600-360-4060-180-7590 0-11150 540-10280 4850-21920 11610-36590 6340-13760 15960-31240 30470-51090 2180 43280 4360 86610 7250 129620 2900 43100 7880 86360 12340 129390 4240 40840 12960 69450 22490 85450 6420 10770 15960 17430 26840 19850 18130 4040 37000 7370 55140 10710-1460 36590-1460 72950-1460 109320zm-155970-261920c-1450-16500-3630-33240-4350-49750-9440 1790-17420 3390-22490 4690-16680 4270-26910 8570-37000 13160-8040 3650-13320 7250-18140 11160-5360 4350-7660 8400-7980 11370-410 3770 4150 8230 12330 12050 9970 4660 20330 7570 29020 9820 5080 1310 13770 1240 19590-450 7220-2100 16690-5800 29020-12050zm340240-256110c-2340 20370-7340 37010-15230 48640-9530 14050-21020 19220-34820 17400-6500-850-10840-2320-14510-4690-3570-2310-7260-5350-13060-9590-6530 8920-12580 15740-17410 19410-10450 7960-20300 9880-29750 8480-11580-1710-19590-6710-24660-15170-5070-8480-7930-19640-6530-32800 760-7130 3150-13710 6530-20300 3140-6120 6530-13390 10150-21640 2900-890 6530-1790 8710-2450 0 2230-360 5880-1450 10480-1080 4560-1680 8660-2180 11820-950 5990-280 11710 1450 16510 1890 5250 5110 7860 10880 8700 10910 1600 23810-4110 31920-18290 3520-6150 8710-19630 15240-39260 2900-230 5800-900 9430-1120 730 13610 1260 21920 2180 24990 2700 8980 7210 14140 14510 15170 11560 1640 20040-4410 27560-16960 6250-10430 10160-21410 11610-32790 2900-450 5810-670 8710-1340 720 5350 720 11380 720 17620 0 6470 560 12310 0 17180zm52960 556400c-87780-10710-174840-26100-262620-43500 0-36370-720-72730 730-109100 73270 13840 147270 27440 220540 37040-2900-18970-7790-35360-15230-49080-4170-7690-13790-20970-29020-40380 11600-30790 25390-61580 37720-92360 18860 25650 33430 51740 39900 77630 6580 26310 8400 64250 7980 113560-300 35460 0 70940 0 106190zm-4350 70720c-15960 25660-29020 51540-42800 77190-20320-12940-41360-26100-61670-39490-10150 19190-21040 37930-30470 56670-27570-19190-53680-38590-80520-57560 13050-22980 27560-46180 39900-69380 21030 14280 42070 28560 64560 43060 10160-20300 21040-40830 32650-61350 26120 16950 51510 33910 78350 50860zm238680-43720c-87780-8930-175570-19640-263350-30570-720-36810-720-73620 0-110430 74000 9150 147270 18290 221270 26100-3630-18740-8630-34850-15960-47960-4260-7630-15230-20530-29020-39270 10880-31010 24670-62240 36270-93920 19590 24540 32990 49660 40630 75630 7590 25780 9850 63800 9430 113550-300 35690 730 71170 730 106870zm-39180 81420c-15960 28560-31920 57120-46430 85230-34820-20970-68190-41940-100840-62690 14510-28780 29750-57780 47160-86560 31920 21640 65290 43050 100110 64020zm414970-56220c610 16510-8580 39390-26840 66260-18750 27580-39980 50560-65290 70500-27640 21770-52240 32540-74000 32130-25380-470-51810-7420-81980-22310-24970-12330-66020-41050-120430-82100 6530-7590 12340-15390 16690-23430 26840 19410 47900 32550 63110 39720 15970 7540 33380 11190 50790 11600 20300 470 38960-4860 57310-14950 19370-10650 45480-29930 77620-58010 45480-39730 67950-70270 67470-92360-240-10920-4030-25380-13060-43280-10550-20910-23210-37920-38450-51760 7260-36810 16690-73620 25390-110650 18870 19850 32960 42260 43530 67370 10460 24860 15240 53100 15240 84780 0 42170 1340 84340 2900 126490zm310500-19850c-21040 1560-40650 2980-60940 4460-22500 1640-42780-1160-59490-8920-17380-8070-32640-22310-42800-42170-18860 22540-41390 38290-70370 47740-18170 5930-39910 9020-63120 9150-15230 80-28290 220-43520 0-1460-37250-2910-74510-2180-111990 14510 220 28300 40 43530-220 23940-400 39220-1820 49330-4240 9470-2260 22490-8040 37000-16740-7980-16280-15190-27710-21040-34800-7200-8740-15250-12850-22490-12720-5080 90-7460 1090-10160 3350-2380 1990-5080 6470-8700 12270-5810-670-13060-1560-18140-2230 0-49750 8040-85630 26840-107530 18920-22040 45710-33750 82710-35030 39890-1390 69020 4310 92130 18070 22580 13450 31920 33690 31920 60240 0 14280-1490 28100-7250 41490-5840 13590-18140 31910-34100 55780 5080 5130 10200 8600 16690 11150 6560 2570 13780 3780 20310 3350 20300-1350 39170-2900 60210-4460 730 37920 2180 75850 3630 114000zm203860-17850c-77630 7810-155250 14060-232880 20080-1450-37930-2900-76070-3630-114000 60220-4690 121160-9150 181370-15170-9430-46630-19580-93040-27570-139440-7960-46180-15960-92580-22490-139430-7980-5350-18130-10490-26840-15620 1450-16510 3890-33410 10160-50190 8240-22040 20310-47750 38450-78310 5080 2450 11600 4690 17410 6920 0 1780-1540 6290-2900 14050-1550 8820 5320 16770 16680 23870 9690 6060 25390 12500 47880 18740-3620 18300-8790 36990-13780 54440-5160 18040-10880 33910-17410 48190-6530-1120-11610-2460-15240-3800 5810 42170 13810 84780 21040 127170 7270 42600 16690 85220 25390 127610 730 38370 2900 76520 4360 114890zm121150-138320c660 25440-2170 48690-7260 70720-5070 21930-13780 51760-29010 88800-7980-2680-17420-5360-25400-8040 3630-36810 5590-66470 4360-89010-940-17380-2570-42650-5810-75630-3270-33270-7240-65820-11600-98160-4340-32130-12260-69850-20320-114000-2810-15410-3190-25850-2900-31910 420-8680 3110-24540 13060-46400 10360-22770 23210-49750 39900-82100 5800 49080 12830 97970 20310 147240 8470 55820 13230 104480 18140 145910 3780 31970 5750 62920 6530 92580zm551350-593650c-17410 30780-31920 61350-47880 92140-20310-6250-39170-12940-57310-19190-13060 25660-23940 51090-34100 76520-25390-8250-50780-16510-75440-24990 14500-28550 29740-57330 45700-86330 18860 5570 39900 10930 59490 16060 12330-24990 25390-49970 38450-75410 23210 7590 47150 14280 71090 21200zm106650 578040c-18860 5130-37790 9860-56590 15170-8030 2260-16850 3360-27570 890-15460-3560-30010-16150-42800-35250-17680-26410-29020-65140-35550-117350-18130 29670-32420 50810-42070 63580-14280 18900-26830 29350-37000 31910-5780 1450-12340 1560-20320 1560-17410 0-36270 300-50780 220-22480-130-36260-510-41350-1340-5790-950-7690-3970-7980-9140-420-7570 8080-34160 26120-79200 18240-45540 31400-73460 40620-85450 6730-8760 17790-22470 35550-38590 11260-10210 25390-23220 44980-40160 7240-6250 14510-12720 22490-19410 0-3790-1830-7540-2180-11600-370-4220-180-7750 0-11600 530-10910 2910-25430 7260-43280 4350-17840 12330-40380 26110-68270 5810 43280 12010 86500 18870 129400 6910 43210 13180 86450 21760 129390 8100 40500 18540 66980 29020 79200 6930 8080 17430 10080 27570 7360 18140-4860 37720-10040 56580-14950 1450 39050 4360 78090 7260 116910zm-175570-199900c-3620-16510-6520-33010-9430-49520-7980 6470-15790 11800-20310 15610-15060 12700-26890 23390-35550 33020-6570 7310-12860 14200-16680 20080-4870 7490-7980 12940-7980 15840 0 4240 5800 6470 14510 6470 10880 0 19520-1810 28290-4020 7190-1810 13630-5080 19590-10260 6370-5530 16680-14720 27560-27220zm312680-427670c0 21860-4430 40800-11610 57110-8050 18260-19580 29910-32640 34580-4350 1560-10150 2140-13060 1790-4340-530-9430-1560-13790-3570-6520 12490-11880 22170-16680 28780-8990 12370-18180 19540-28290 22980-10190 3460-19920 2270-25400-4470-5400-6640-6990-17390-6520-31680 250-7570 1330-14750 3620-22750 2060-7210 4360-16290 8710-26550 2170-1780 5080-3790 7250-6020 730 2450-360 5990-720 11370-350 5120-490 9830-730 13170-470 6490 360 11810 2900 16060 2550 4250 6530 5100 10890 3570 10870-3810 22010-15080 29010-33690 3150-8390 7980-24540 13790-47740 2170-1790 5080-3570 7980-5350 2170 13160 4400 21180 5080 23640 2210 8010 7960 10630 15230 8030 10130-3630 19060-12980 26120-30110 5280-12820 7980-26110 8700-38380 2180-1560 4360-3560 7260-5350 720 4690 1470 10590 2180 16960 750 6640 720 12490 720 17620zm97210 557960c-87050 27440-174830 52650-260440 76520-2180-38820-5800-77860-7250-116900 71820-20080 144360-41940 217640-64030-4360-18960-11660-33300-20320-44840-4440-5930-13780-16730-30470-30340 10160-37930 19590-75850 28300-113780 21760 18070 36970 39060 45700 63580 8670 24330 14460 62960 17410 116010 2110 37980 6530 75850 9430 113780zm0 79200c-12330 34800-25390 69610-36270 103290-21760-5800-42800-11820-63120-18070-8700 25880-18130 51760-26840 77420-27570-7590-55130-14950-81980-22540 11610-31680 23220-63360 35550-95700 19590 5130 42080 9810 64570 14720 8700-26550 18860-53540 29020-80310 26110 7580 52230 15170 79070 21190zm366360-203460c1840 17580-5960 45310-21760 81200-16120 36620-36420 70500-59490 101070-26260 34790-50060 55110-70370 62460-24650 8930-51490 10970-80530 6690-25360-3740-66010-14720-121870-33240 5070-11150 10150-22310 15230-33240 26120 8480 47890 12470 63840 13170 14520 630 31230-2170 49330-8710 18890-6830 38130-19710 55140-37480 17810-18600 41970-48500 71820-91240 41960-60090 60450-101760 58040-124930-1210-11630-5920-25570-15240-40830-11000-18000-25390-30560-40620-39270 5080-41940 9430-84100 15230-126270 19590 12720 34690 30420 47160 53100 12190 22160 19580 50210 21760 83880 2890 44620 7660 88980 12330 133640zm369270-207040c5390 49790-7610 107590-42080 174910-33710 65860-69680 108390-108100 125830-22500 10210-47860 13860-76890 10480-28270-3300-73280-14500-134220-37700 5080-10710 9440-21420 14510-31900 31920 9370 57320 12180 76900 10710 15950-1200 34880-6150 53690-14730 26150-11940 51480-31930 75450-58900 28970-32590 55860-76520 84150-132070-11610 6690-20270 12160-27570 15400-26790 11920-49230 11870-66740 440-18030-11760-27700-33450-30470-65590-3750-43480 2760-89280 18140-138090 16530-52470 37670-84900 62390-95940 21710-9700 41410-1790 58030 22540 16760 24540 28370 58450 31920 102840 2970 37250 6860 74570 10890 111770zm-55860-65360c-12340-43060-28990-59480-52240-49080-8660 3870-15240 10260-19590 19630-4350 9360-6380 18050-5070 26550 1580 10240 5780 16680 18130 18740 11580 1940 24720-800 42810-8700 4390-1910 9430-4240 15960-7140zm427300-96160c-26850 14730-53780 29080-81260 43730-5150 2740-10840 6340-17410 10040-6480 3650-15230 8920-28290 17400 10880 450 20450 20 31190 1790 9740 1600 15950 9930 17420 21640 1420 11300 170 24050-730 38150-540 8450-4250 23330-7250 45280-5690 41640-12500 72310-20320 89910-8140 18320-19550 31090-34820 39490-36220 19920-71710 16970-103740-11380-33260-29430-52240-74510-59490-134300-30470 14500-60210 28550-91410 43060-3630-39050-8700-78310-11610-117580 11610-5800 23290-11240 36280-17400 13840-6560 28640-14890 43520-25430 16310-11550 27570-20300 34100-25210 21040-102180 41940-179210 61670-229790 17260-44220 35430-70940 50780-79200 13660-7350 27040 810 38450 24770 9620 20200 16310 42590 18140 66700 2520 33210-220 65540-10160 95260-11100 33190-29750 62920-54410 89020 18140-13610 36370-25270 51510-34580 16060-9870 30470-17870 44250-25210 26830-14290 52960-28560 79800-43060 4350 39040 9430 78090 13790 116900zm-182100-110870c-910-7340-4150-15230-10150-23880-5630-8110-10850-10840-15960-8250-7210 3650-14310 16380-21770 37260-7770 21760-16680 52870-26840 94810 29020-27660 50170-49010 60210-63130 10260-14420 15760-26760 14510-36810zm48610 281320c-2080-16300-12320-26840-31200-32130-22460-6300-52950-3340-92130 8480 6530 23430 20890 39250 42800 47070 23070 8230 46560 5580 70370-7360 7380-4010 10980-9610 10160-16060zm466480-366100c-26850 16730-59570 30740-98670 42160-33450 9760-63840 15840-89960 15840-11600 33250-29170 60310-50050 80320-10310 9880-24640 19910-43530 30120-26080 14100-52240 28110-78350 42160-4350-39040-10160-78080-13790-117120 26850-13840 52940-27930 78350-41720 23910-12970 42520-26150 55870-40830 15670-17220 26440-38920 31920-62470 10470-44930 26330-85940 46430-123140 18350-33960 35600-54580 49330-63140 12380-7720 32120 3650 55860 35920 24850 33760 40210 70100 44250 109090 3210 31050 7980 61800 12340 92810zm-88510-83880c-880-6230-8130-13400-21040-22090-13920-9370-25350-11530-34100-6250-10830 6530-17410 24540-21760 54440 13060-2230 24720-4340 32640-5800 21100-3890 33350-7420 36280-9150 5760-3400 8550-7120 7980-11150zm498390-183610c-144360 101280-290180 193420-436730 284670-5080-38600-10150-77190-15230-115790 91410-56440 182090-112440 272770-169550-34820-15170-66750-22900-94310-22310-24660 520-47850 7650-71090 21420-6490 3840-12530 7780-18140 12040-5270 3990-12330 10710-23210 19640 10880-43950 21990-80160 37720-107310 16190-27950 34830-47970 56590-61350 16680-10260 33380-15310 49330-15840 17420-580 36320 2110 58040 9810 16000 5670 40940 14460 73270 29230 21370 9770 37000 15620 47880 15620 11610 0 26840-4470 47150-13390 4360 37700 10890 75410 15960 113110zm-126230 190520c-11600 42390-22490 83890-33370 125600-32640 1340-64570 2680-97210 4020 11610-41500 23210-83440 33370-124930 33370-1120 63840-2680 97210-4690zm307600-317690c-69640 48640-138560 97270-207480 145690-5080-37710-10880-75410-16690-113340 54410-37480 108100-74960 162510-112660-15240-41050-29000-82110-42810-123820-13750-41490-24660-83210-35540-124930-9440-450-17420-890-26120-890-730-16290 140-34560 3630-53990 4480-24960 12330-56000 25390-94370 5800 220 11600-890 17410-1560 0 1560-730 6470-730 14500 0 8920 5840 14070 16690 15610 9460 1350 24660 0 45700-3790-2170 18970-4000 38420-6530 57780-2540 19450-6530 37930-10880 54890-5080 1110-10150 2230-13780 3120 10880 37920 22100 75750 34100 113550 11930 37600 24660 75410 37720 112670 5080 37250 11610 74510 17410 111540zm93590-196990c3650 24090 3240 48160 1450 71390-1820 23620-7260 57560-16690 101960-7980 2000-15960 3790-23940 5570 0-39040-2130-69170-5800-90800-2840-16730-7620-40230-13790-70720-6160-30410-14870-59890-22490-88790-7610-28870-18340-62400-31190-99950-4550-13310-6670-22960-7260-28770-850-8460 1450-25210 7980-50870s15960-57340 26850-95260c10150 42830 21470 85990 33370 129390 13490 49190 25400 92360 34820 130290 7250 29220 12370 58010 16690 86560z" fill-rule="nonzero"/><g fill="#007a3d" stroke="#000" stroke-width="35560"><path d="M4060447.566 7490090.113s-519414.31-291372.418-297712.47-440233.653c199531.655-129851.078 319882.654 231201.919 297712.47 440233.653z" stroke-width="35560.3556"/><path d="M4202968.75 7756132.322s-380053.155-452903.76-34840.29-734776.099c0 0 278712.313 250202.077 34840.29 734776.099z" stroke-width="35560.3556"/><path d="M4202968.75 7756132.322s-95010.79-456063.786-608095.048-389553.234c0 0 164691.367 475063.943 608095.047 389553.234z" stroke-width="35560.3556"/><path d="M4301149.564 8019004.503s-47510.394-433893.6-554244.6-367383.049c0 0 60170.5 332542.76 554244.6 367383.05z" stroke-width="35560.3556"/><path d="M4335989.853 8006334.398s-357892.97-418063.47-12670.105-699935.81c0 0 300882.497 310382.577 12670.105 699935.81z" stroke-width="35560.3556"/><path d="M4446840.773 8237536.317s-60180.5-389553.233-566924.705-323042.681c0 0 120350.999 411723.417 566924.705 323042.681z" stroke-width="35560.3556"/><path d="M4465840.931 8272376.606s-357882.97-421223.496-12670.105-703105.835c0 0 278712.313 250202.076 12670.105 703105.835z" stroke-width="35560.3556"/><path d="M4633702.324 8513078.604s-370553.075-399053.312-25340.21-677765.625c0 0 285042.366 215361.787 25340.21 677765.625z" stroke-width="35560.3556"/><path d="M4633702.324 8513078.604s-91850.762-399053.312-598594.968-332542.76c0 0 152021.262 421223.496 598594.968 332542.76z" stroke-width="35560.3556"/><path d="M4776223.507 8766450.707s-79180.657-386393.207-633435.257-367383.05c0 0 186861.55 452893.76 633435.257 367383.05z" stroke-width="35560.3556"/><path d="M4807893.77 8744280.523s-361052.997-218531.814-57010.473-690435.73c0 0 218531.814 205861.708 57010.473 690435.73zM5004255.4 8997652.626s-126681.052-357882.97-630265.231-291372.418c0 0 104520.867 357882.97 630265.23 291372.418z" stroke-width="35560.3556"/><path d="M5004255.4 8997652.626s-433893.602-376893.128-91850.763-655595.441c0 0 310382.577 193191.603 91850.763 655595.441z" stroke-width="35560.3556"/><path d="M5298797.844 9228854.545s-262872.181-351552.918-753776.256-259702.155c0 0 348382.892 361052.996 753776.256 259702.155z" stroke-width="35560.3556"/><path d="M5298797.844 9228854.545s-468733.89-155191.288-199531.656-668265.546c0 0 212201.762 50670.42 199531.656 668265.546z" stroke-width="35560.3556"/><path d="M5498329.5 9425216.175s-224861.866-370553.076-690435.73-240701.998c0 0 262872.182 389563.233 690435.73 240701.998z" stroke-width="35560.3556"/><path d="M5498329.5 9425216.175s-475073.943-335712.787-171021.419-661925.494c0 0 304042.524 136181.13 171021.42 661925.494z" stroke-width="35560.3556"/><path d="M5761201.682 9691278.383s-525744.363-345222.865-250202.076-696775.783c0 0 338882.812 145691.21 250202.076 696775.783z" stroke-width="35560.3556"/><path d="M5761201.682 9691278.383s-209031.735-427563.549-731606.072-231201.919c0 0 300872.497 424393.523 731606.072 231201.92z" stroke-width="35560.3556"/><path d="M6068414.232 9954180.565s-525744.363-307212.55-285042.366-680935.651c0 0 307212.55 129851.077 285042.366 680935.651z" stroke-width="35560.3556"/><path d="M6027243.89 9931980.381s-266042.208-395893.286-728446.046-177361.472c0 0 332552.76 395893.286 728446.047 177361.472z" stroke-width="35560.3556"/><path d="M6223605.52 10131482.037s-440233.654-266042.208-196361.63-639765.31c0 0 351552.918 177361.472 196361.63 639765.31z" stroke-width="35560.3556"/><path d="M6223605.52 10131482.037s-174191.445-354722.944-636595.283-133021.104c0 0 240701.997 351552.918 636595.283 133021.104z" stroke-width="35560.3556"/><g><path d="M8456444.053 7490090.113s519414.31-291372.418 297712.47-440233.653c-199531.655-129851.078-319882.654 231201.919-297712.47 440233.653z" stroke-width="35560.3556"/><path d="M8313922.87 7756132.322s380053.154-452903.76 34840.289-734776.099c0 0-278712.313 250202.077-34840.29 734776.099z" stroke-width="35560.3556"/><path d="M8313922.87 7756132.322s95010.788-456063.786 608095.047-389553.234c0 0-164691.367 475063.943-608095.047 389553.234z" stroke-width="35560.3556"/><path d="M8215742.055 8019004.503s47510.394-433893.6 554244.6-367383.049c0 0-60170.5 332542.76-554244.6 367383.05z" stroke-width="35560.3556"/><path d="M8180901.766 8006334.398s357882.97-418063.47 12670.105-699935.81c0 0-300882.497 310382.577-12670.105 699935.81z" stroke-width="35560.3556"/><path d="M8070050.846 8237536.317s60180.5-389553.233 566924.705-323042.681c0 0-120360.999 411723.417-566924.705 323042.681z" stroke-width="35560.3556"/><path d="M8047880.662 8272376.606s361052.996-421223.496 15840.131-703105.835c0 0-278712.313 250202.076-15840.131 703105.835z" stroke-width="35560.3556"/><path d="M7883189.295 8513078.604s370553.075-399053.312 25340.21-677765.625c0 0-288212.392 215361.787-25340.21 677765.625z" stroke-width="35560.3556"/><path d="M7883189.295 8513078.604s91850.762-399053.312 598594.968-332542.76c0 0-152021.262 421223.496-598594.968 332542.76z" stroke-width="35560.3556"/><path d="M7740668.112 8766450.707s79180.657-386393.207 633425.257-367383.05c0 0-186861.55 452893.76-633425.257 367383.05z" stroke-width="35560.3556"/><path d="M7708997.849 8744280.523s361052.997-218531.814 57010.473-690435.73c0 0-221701.84 205861.708-57010.473 690435.73zM7509466.193 8997652.626s126691.051-357882.97 633435.257-291372.418c0 0-104520.867 357882.97-633435.257 291372.418z" stroke-width="35560.3556"/><path d="M7509466.193 8997652.626s437063.627-376893.128 91850.762-655595.441c0 0-310382.576 193191.603-91850.762 655595.441z" stroke-width="35560.3556"/><path d="M7214923.748 9228854.545s262872.182-351552.918 756946.283-259702.155c0 0-351552.918 361052.996-756946.283 259702.155z" stroke-width="35560.3556"/><path d="M7214923.748 9228854.545s471903.917-155191.288 199531.656-668265.546c0 0-212201.761 50670.42-199531.656 668265.546z" stroke-width="35560.3556"/><path d="M7015392.092 9425216.175s224871.866-370553.076 693605.757-240701.998c0 0-266042.208 389563.233-693605.757 240701.998z" stroke-width="35560.3556"/><path d="M7015392.092 9425216.175s475073.943-335712.787 171031.42-661925.494c0 0-304052.524 136181.13-171031.42 661925.494z" stroke-width="35560.3556"/><path d="M6752519.91 9691278.383s525744.364-345222.865 250202.077-696775.783c0 0-338882.813 145691.21-250202.077 696775.783z" stroke-width="35560.3556"/><path d="M6752519.91 9691278.383s209031.735-427563.549 731606.073-231201.919c0 0-300872.498 424393.523-731606.073 231201.92z" stroke-width="35560.3556"/><path d="M6445307.36 9954180.565s525744.364-307212.55 285042.366-680935.651c0 0-307212.55 129851.077-285042.366 680935.651z" stroke-width="35560.3556"/><path d="M6486477.702 9931980.381s266042.208-395893.286 728446.046-177361.472c0 0-332552.76 395893.286-728446.046 177361.472z" stroke-width="35560.3556"/><path d="M6290116.072 10131482.037s440233.654-266042.208 196361.63-639765.31c0 0-351552.918 177361.472-196361.63 639765.31z" stroke-width="35560.3556"/><path d="M6290116.072 10131482.037s174191.446-354722.944 636595.284-133021.104c0 0-240701.998 351552.918-636595.284 133021.104z" stroke-width="35560.3556"/></g></g></svg>