<svg xmlns="http://www.w3.org/2000/svg" xmlns:xlink="http://www.w3.org/1999/xlink" width="617.806" height="974.597"><defs><pattern patternTransform="translate(187.059 -425.228)" id="f" xlink:href="#a"/><pattern patternTransform="translate(187.059 -425.228)" id="g" xlink:href="#b"/><pattern xlink:href="#c" id="b" patternTransform="translate(25.586 -43.367)"/><pattern id="c" height="5.181" width="30.066" patternUnits="userSpaceOnUse"><path d="M7.597.061C5.079-.187 2.656.302-.01 1.788v1.273c2.783-1.63 5.183-2.009 7.482-1.781 2.298.228 4.497 1.081 6.781 1.938 4.567 1.713 9.551 3.458 15.813-.157l-.004-1.273c-6.44 3.709-10.816 1.982-15.371.273-2.278-.854-4.576-1.75-7.094-2z" fill="#fff"/></pattern><pattern xlink:href="#c" id="i" patternTransform="translate(187.059 -425.228)"/><pattern xlink:href="#c" id="h" patternTransform="translate(187.059 -425.228)"/><pattern patternTransform="translate(25.586 -43.367)" id="a" xlink:href="#d"/><pattern xlink:href="#e" id="d" patternTransform="translate(25.586 -43.367)"/><pattern id="e" height="5.181" width="30.066" patternUnits="userSpaceOnUse"><path d="M7.597.061C5.079-.187 2.656.302-.01 1.788v1.273c2.783-1.63 5.183-2.009 7.482-1.781 2.298.228 4.497 1.081 6.781 1.938 4.567 1.713 9.551 3.458 15.813-.157l-.004-1.273c-6.44 3.709-10.816 1.982-15.371.273-2.278-.854-4.576-1.75-7.094-2z" fill="#fff"/></pattern></defs><path d="M309.151 970.67c64.45-16.37 119.83-56.97 173.08-103.24 56.27-53.56 131.52-172.67 131.52-284.25-.24-86.09-55.16-110.13-55.16-168.3 0-86.94 22.08-103.29 39.6-147.07-65.8-10.1-104.72-47.08-142.83-84.86-98.9 47.96-193.65 45.1-292.93 0-38.11 37.78-77.03 74.76-142.83 84.86 17.52 43.78 39.6 60.13 39.6 147.07 0 58.17-54.92 82.21-55.16 168.3 0 111.58 75.25 231.138 131.52 284.698 53.25 46.27 110.869 86.422 175.329 102.792" fill="#ebc440" fill-rule="evenodd" stroke="#000" stroke-width="7.69"/><g fill-rule="evenodd" stroke="#000"><path d="M72.761 761.14h83.89c-25.51 28.39-58.81 25.32-83.89 0z" stroke-width="1.62"/><path d="M151.631 763.82l-34.65-153.86-37.74 153.96 72.39-.1z" fill="none" stroke-width="5.26" stroke-linejoin="round"/></g><path d="M208.151 446.58l-27.63-66.62-78.16-51.59c42.9 21.72 78.53 46.85 151.43 54.44l.7 11.16c34.09 4.4 68.74 6.51 104.68 3.49l5.58-13.96c50.78 1.11 98.57-5.76 143.76-19.54-14.12 14.41-17 30.6-64.2 39.78l-23.03 44.66-213.13-1.82z" fill="#d35227" fill-rule="evenodd" stroke="#000"/><path d="M323.581 386.3l-18.15-2.1M323.231 378.97l-16.75-1.75M322.881 371.99l-16.05-1.75M322.531 366.06l-15-1.05M322.531 360.82l-14.3-.35M331.951 369.2l11.52-1.05M331.951 376.87l12.91-1.04M331.951 383.85l13.61-.7M332.651 390.83l13.96-1.05M322.531 393.88l-18.14-1.4M199.151 390.57l2.09-5.8M194.581 388.47l2.34-5.3M193.781 388.21l-3.84 6.11M200.761 391.53l-4.89 11.51M209.781 395.62l-5.06 13.26M221.081 397.98l-4.19 13.09M274.551 408.45l-2.26 13.09M263.911 407.41l-2.96 12.38M252.751 405.84l-2.79 12.21M242.631 403.92l-3.32 12.56" fill="none" stroke="#000" stroke-width="2"/><path d="M462.031 385.88l.74 13.57" fill="none" stroke="#000" stroke-width="7"/><path d="M102.061 327.66c47.37 21.24 63.73 44.04 151.98 55.26l.5 11.35" fill="none" stroke="#000" stroke-width="3"/><path d="M102.061 328.15l77.47 50.33c104.02 32.95 229.62 21.45 318.17-.38" fill="none" stroke="#000" stroke-width="4"/><path d="M359.151 397.73l5.92-13.82c47.34.3 95.43-6.88 144.09-19.74-5.71 7.11-20.48 26.42-37.85 32.86-47.11 17.46-240.94 27.92-291.29-18.55l27.14 65.63 12.83-.99-39.97-64.64" fill="none" stroke="#000" stroke-width="4"/><path d="M445.501 403.15l-22.7 42.44" fill="none" stroke="#000" stroke-width="2"/><path d="M437.851 417.22c-85.68 14.28-173.57 8.79-240.28-10.44" fill="none" stroke="#000" stroke-width="4"/><path d="M476.591 382.92l.74 11.35" fill="none" stroke="#000" stroke-width="7"/><path d="M231.811 401.47l-3.84 12.74M189.651 385.76l1.6-3.95M322.881 400.25V223.7l-18.84 175.16M333.351 398.16L322.881 223l25.12 175.86" fill="none" stroke="#000" stroke-width="2"/><path d="M340.331 398.16l-17.45-174.46-9.77 175.16M331.261 361.52l11.86-1.05" fill="none" stroke="#000" stroke-width="2"/><path d="M102.361 327.68c92-58.18 170.71-81.61 215.64-76.07-63.96 14.23-114.84 61.14-168.19 101.89m41.18 16.05c54.88-105.44 143.23-124.56 194-135.39-46.76 71.08-35.18 115.3 1.4 149.34m-20.94 0c3.08-2.06 7.89-5.54 11.87-8.22 13.05-15.01 51.26-34.84 89.9-22.76l26.64 16.33-26.68-16.52c-25.41-53.21-2.51-92.99 7.83-105.61-56.04 10.12-97.98 26.5-137.47 43.97-2.23 48.87 14.06 68.95 27.91 92.81z" fill="none" stroke="#000" stroke-width="3"/><path d="M309.651 969.2v-508" fill="#2282ea" fill-rule="evenodd" stroke="#000" stroke-width="6"/><g fill-rule="evenodd"><path d="M210.761 761.14h83.89c-25.51 28.39-58.81 25.32-83.89 0z" stroke="#000" stroke-width="1.62"/><path d="M289.631 763.82l-34.65-153.86-37.74 153.96 72.39-.1z" fill="none" stroke="#000" stroke-width="5.26" stroke-linejoin="round"/><path d="M179.881 830.185c4.722 7.676 3.595 28.685 6.19 28.724 2.703.04 1.126-21.217 6.11-29.584l-7.13-251.36-5.17 252.22z"/><path d="M179.901 582.2h10.32l-5.09-29-5.23 29z" stroke="#000" stroke-width="1.41" stroke-linejoin="round"/></g><path d="M424.491 364.36l-18.14-2.09m17.79-5.24l-16.75-1.74m25.48-.35l12.91-1.05m-12.91 8.03l13.6-.7m-12.91 7.67l13.96-1.04m-24.08 2.09l-18.14-1.39m18.49 12.02v-142.3l-19.47 143.29m30.13-2.8l-10.66-140.2 25.13 138.36m-7.47.93l-17.94-139.58-9.76 142.67" fill="none" stroke="#000" stroke-width="2"/><path d="M344.471 577l10.64 8.17c-4.98 4.675-9.847 47.932-9.847 47.932s1.504 5.387.799 8.251c-.17.693 6.087.261 5.96 1.008-.049.291 2.018 4.062.41 4.489-3.053.81-11.263-.837-11.402-.32-.174-.61-8.19 1.303-11.679.005-1.582-.589-.25-4.694-.306-4.99-.15-.79 10.047.038 9.858-.703-6.095-23.835-6.068-46.786 5.567-63.842z" fill="#b8bcde" fill-rule="evenodd"/><path d="M442.901 838.47c-1.84-2.04-2.25-8.69-.59-9.71 2.78-4.04 3.2-5.37 8.72-5.46 5.09 0 6.18-.36 8.53-2.81 1.48-1.54 2.69-3.54 2.69-4.44 4.12-5.2 4.65-11.85 7.15-17.63.92-1.47.77-2.36-.75-4.43-3.16-4.3-6.27-5.01-19.69-4.47-14.47.58-18.79 2.02-21.16 7.03-2.04 4.56-6.69 7.24-8.55 11.82-2.88 4.18-2.44 9.64-6 13.43-2.08 1.99-3 3.83-3 5.99-.23 4.25-1.99 7.65-6.6 9.51h-34.4v-5.31c-.33-7.77 5.52-11.55 12.61-11.69 5.28 0 6.34-.34 8.7-2.81 3.95-5.12 4.95-11.97 7.24-17.97 1.01-1.44 1.45-3.85 1.25-6.89-.28-4.27-.64-4.86-4.3-6.96-3.84-4.38-19.01.82-19.5-4.65 2.05-7.19 11.42-10.05 12-17.84-.22-5.67 5.17-17.67 9.37-17.88h13.61c14.42 0 16.02-.47 16.02-4.68 0-2.49-5.3-10.23-8.5-12.42-13.94-3.33-28.74.39-41.84-6.67-3.601-2.959-5.837-4.552-9.181-7.97-.577-.588-5.117 2.175-7.287-.399s.9-4.637.868-5.432c-.063-1.548.414-2.092-.91-2.574-.733-.267-3.453 1.965-5.02-.579-1.567-2.543 1.68-3.773.777-5.186-1.089-1.708-1.932 1.45-3.307-1.378-1.066-2.192 1.083-2.393.694-3.441a27.464 27.464 0 01-1.294-4.701c0-1.74-.54-3.71-1.2-4.37-1.68-1.68-6.31-1.5-7.8.3-1.54 2.69-5.1 2.36-9 1.5v-18.88c0-15.56.678-18.367 1.918-19.387.637-.531-8.91-.55-8.496-1.49.42-.954.473-7.457.639-8.528.18-1.172 9.954.996 9.795.064-2.167-12.7-1.434-16.944-2.408-25.789.56-28.99 7.962-42.074 7.962-42.074l16.57 14.054c-12.125 15.346-11.996 35.527-11.694 54.365.056.46 7.272-.3 7.331.113.114.804.315 9.102.315 9.102s-4.51-.586-6.12.051c5.195 1.728 4.08 1.838 4.188 8.209.15 11.3 2.11 6.96 2.8 10.5.91 4.7 3.42 3.76 6.53 2.69 6.96.36 12.79 5.41 18.98.19 2.93-3.07 3.59-7.95 1.67-11.7-7.16-7.67-4.8-18.88-.23-27.28 2.71-2.76 7.33-8.78 7.25-9.94-.41-5.23-14.54-6.17-7.5-15.27 2.04-1.7 1.98-9.35-.09-11.07-4.33-2.53-4.47 2.9-6.33 5.07-1.44 0-4.08-3.64-4.08-5.62 0-2.33 8.87-11.38 11.16-11.38.87 0 2.15-.68 2.84-1.5.68-.83 2.66-1.5 4.4-1.5 8.62-1 10.83-7.33 15.03-12 7.74 1.63 19.79-3.32 26.57 1.5 1.65 1.99 9.34 1.99 11 0 3.14-1.43 6.97-5.59 10-3 1.71 1.55 2 3.08 2 10.82 0 6.99-.867 11.021.413 12.441 1.54 1.7 5.618 2.67 4.608 7.562.592 2.81-5.51 6.33-3.52 7.98.85 4.47 1.97 3.667 6 6.697 1.92 1.6 1.92 5.4 0 7-1.91 1.58-3.148 6.238-1.238 7.828 1.6 1.84 4.14.603 4.917 4.226.778 3.623-.934 4.955-2.474 6.665-1.995 3.39-1.396 3.37-.918 6.073.153.864 3.698.74 3.898 4.572.165 3.185-3.867 3.3-4.436 4.386-1.91 1.58-1.66 2.66.25 4.25 3.09 2.57.5 9-3.63 9-2.61 0-3.87 2.29-3.87 6.98 0 2.06 3.75 2.37 1.179 6.823-2.127 3.684-4.285.829-7.179 3.697-4.18 2.34-4.8 7.27-7.5 10.5-2.81 2.33-1.78 6.31 2.78 10.79 8.68 7.28 12.74 14.98 42.27 13.21 27.98-17.65 10.39-40.29-.89-60.81-4.26-7.78-8.06-12.14-10.06-31.28-2.33-22.33 6.01-45.59 29.35-45.91 10.44-.15 13.625-1.655 22.175 7.475 1.058.853 2.154 1.932 3.218 3.2 1.007 1.2 3.373-2.197 5.501 1.327.765 1.267-1.436 4.896-.923 6.058 3.149 7.133 4.007 16.363-1.896 25.32-4.97 13.02-27.055 18.47-32.585 5.84-4-9.12.265-22.697 3.715-18.687 3.45 4.01.99 13.59 8.809 10.773 7.82-2.817 8.709-6.168 9.732-9.134.593-1.718-4.743-1.737-5.88-6.332-1.139-4.595 3.928-2.908 3.448-4.08-2.975-7.25-10.19-9.962-19.264-6.26-9.68 3.94-13.183 11.1-10.723 23.904.247 1.287 4.347 1.13 6.008 3.324 1.662 2.194-4.67 6.994-4.482 7.818a79.817 79.817 0 005.347 15.714c5.4 11.63 12.56 22.53 18.94 33.74 4.92 7.78 6.11 15.82 3.79 25.73-2.71 9.23-8.09 17.66-13.88 25.27-6.41 7.3 1.19 6.45.9 9.4 1.29 3.57-4.57 4.36-4.8 8.48.18 4.58 16.05 14.25 6.98 16.12-5.53 0-6.08.68-6.08 7.5-1.32 4.56 2.4 6.5 3 10.28 0 2.28-1.85 4.66-9.07 11.73-4.99 4.88-9.71 10.41-10.5 12.3-.93 2.22-1.43 7.03-1.43 13.61.41 5.01 1.568 17.015-2.515 17.084l-39.835.666zm-98.08-215.68c.357-15.977 1.608-18.414 3.742-25.746l4.698-10.154c-2.68-2.59-5.04-5.63-8.23-7.59-8.895 13.97-5.863 63.524-5.863 63.524l-7.761-.486-.18 3.414 19.595-.012-.2-3.223-5.147-.064s-1.311-12.314-.654-19.663z"/><path d="M423.381 238.4c-11.26-1.94-28.796 4.846-36.486 7.196 8.52-.3 26.189-1.668 36.059-1.278l.427-5.918zm-100.41-15.19c-13.53 3.63-47.832 1.96-56.112-1.9-12.47 4.52-42.617 16.148-55.087 19.238 11.75-.84 41.18-.699 51.57-5.649 10.23 3.25 45.058.076 58.278-4.154l1.351-7.535z" fill="#e70013" fill-rule="evenodd"/><path d="M57.406 435.86l-11.792 26.541h527.735c-6.814-9.832-13.073-18.576-12.89-31.19-1.841.056.103 6.107-3.857 6.107-3.96 0-7.426-8.317-12.871-8.317-5.446 0-2.97 8.678-6.93 9.04-3.96.362-6.436-8.316-12.377-8.678-5.94-.362-5.94 9.04-9.9 9.04s-7.921-8.678-12.376-9.04c-4.456-.362-3.466 7.955-7.921 7.955s-4.95-9.04-10.89-8.317c-5.941.724-6.931 7.594-11.387 7.955-4.455.362-5.94-7.593-9.406-7.231-3.465.361-8.415 8.316-11.88 8.678-3.466.361-4.95-9.763-10.396-9.402-5.446.362-17.327 11.933-22.277 13.018-4.95 1.084-5.446-8.317-8.91-9.04-3.466-.723 0 6.87-5.941 7.593-5.94.723-7.426-3.254-12.871-3.254-5.446 0-7.92-5.786-10.891-6.509-2.97-.723-10.396 5.063-15.346 5.424-4.95.362-8.911-7.955-11.881-7.955-2.97 0-10.396 6.87-15.842 5.062-5.445-1.808-6.93-5.423-8.91-5.423-1.98 0-9.406 6.508-15.842 5.785-6.435-.723-.99-5.785-7.425-5.785-6.436 0-2.97 5.062-6.93 6.87-3.961 1.808-12.872-4.34-15.842-6.147-2.97-1.808-3.465 5.424-9.406 5.424-5.94 0-5.94-6.147-8.415-6.509-2.476-.362-3.96 7.232-9.406 6.147-5.446-1.085-4.95-4.7-6.93-5.062-1.98-.362 2.475 6.508-4.456 7.232-6.93.723-12.376-8.317-14.356-8.679-1.98-.361 2.97 5.424 1.485 7.594s-11.386 3.254-17.326 3.254c-5.94 0-7.921-6.147-10.891-6.87-2.97-.723-4.456 6.508-8.416 6.508s-4.455-7.593-10.396-7.593c-5.94 0-6.93 6.509-11.88 6.509-4.951 0-2.971-6.87-8.911-6.147-5.94.723-9.901 7.231-13.862 7.955-3.96.723-2.97-9.04-8.91-9.04-5.94 0-5.446 9.04-9.901 9.04s-3.96-9.04-10.89-8.678c-6.931.361-9.407 9.04-14.357 9.04-4.95 0-3.96-7.956-9.406-7.956-5.445 0-3.465 8.317-11.386 8.317-7.92 0-.992-9.19-10.893-8.104-9.9 1.084-5.145 10.985-15.045 4.838z" fill="#2368d0" stroke="#000" stroke-width="3.469"/><path style="text-indent:0;text-align:start;line-height:normal;text-transform:none;block-progression:tb;marker:none;-inkscape-font-specification:Accanthis ADF Std" d="M185.09 591.38l-1.438 3.75s8.12 3.162 16.875 6.344c4.378 1.59 8.92 3.202 12.688 4.406 1.884.602 3.59 1.106 5 1.469 1.41.362 2.428.594 3.469.594 2.983 0 4.992-.193 6.656-.907 1.664-.713 2.741-2.113 3.344-3.468.779-1.753.36-3.749-.657-4.97-.71-.852-1.329-1.304-2.713-1.687.362-.173.826-.391 1.15-.406 2.671-.122 7.163 2.646 11.407 5.875 2.122 1.615 4.196 3.264 6.188 4.594 1.99 1.33 3.83 2.434 5.968 2.531 6.05.275 9.182-2.575 10.813-4.75 1.505-2.007 1.446-4.463.75-6.469-.348-1.002-.883-1.928-1.75-2.656-.868-.728-2.459-1.33-3.531-.781-1.912.98-2.545 5.92-2.545 5.92s2.231-2.363 3.545-2.014c.94 1.046.637 2.352.343 3.625-1.384 1.846-2.487 3.35-7.437 3.125-.613-.028-2.161-.657-3.938-1.844-1.776-1.186-3.833-2.82-6-4.468-4.333-3.297-8.981-6.917-14-6.688-2.678.122-4.656 1.348-5.875 3.219-1.627 2.498-.344 6.11-.344 6.11s1.786-1.045 2.944-.71c1.185 1.068 1.27 1.16-.55 2.623-.743.318-1.002.196-3.768.196-.162 0-1.212-.138-2.5-.47-1.289-.33-2.911-.818-4.75-1.405-3.68-1.176-8.182-2.763-12.532-4.344-8.699-3.162-16.812-6.344-16.812-6.344z" font-weight="400" color="#000" overflow="visible" font-family="Accanthis ADF Std"/><path d="M185.624 591.38l1.437 3.75s-8.12 3.162-16.875 6.344c-4.377 1.59-8.92 3.202-12.687 4.406-1.884.602-3.59 1.106-5 1.469-1.41.362-2.428.594-3.469.594-2.984 0-4.992-.193-6.656-.907-1.664-.713-2.741-2.113-3.344-3.468-.779-1.753-.36-3.749.656-4.97.71-.852 1.33-1.304 2.714-1.687-.362-.173-.827-.391-1.151-.406-2.67-.122-7.162 2.646-11.406 5.875-2.123 1.615-4.197 3.264-6.188 4.594-1.99 1.33-3.831 2.434-5.969 2.531-6.05.275-9.181-2.575-10.812-4.75-1.506-2.007-1.447-4.463-.75-6.469.348-1.002.882-1.928 1.75-2.656.867-.728 2.458-1.33 3.531-.781 1.912.98 2.544 5.92 2.544 5.92s-2.23-2.363-3.544-2.014c-.94 1.046-.637 2.352-.344 3.625 1.384 1.846 2.487 3.35 7.438 3.125.612-.028 2.161-.657 3.937-1.844 1.777-1.186 3.834-2.82 6-4.468 4.334-3.297 8.982-6.917 14-6.688 2.679.122 4.657 1.348 5.875 3.219 1.627 2.498.344 6.11.344 6.11s-1.785-1.045-2.944-.71c-1.185 1.068-1.269 1.16.551 2.623.742.318 1.002.196 3.768.196.162 0 1.212-.138 2.5-.47 1.288-.33 2.91-.818 4.75-1.405 3.68-1.176 8.182-2.763 12.531-4.344 8.7-3.162 16.813-6.344 16.813-6.344z" style="text-indent:0;text-align:start;line-height:normal;text-transform:none;block-progression:tb;marker:none;-inkscape-font-specification:Accanthis ADF Std" font-weight="400" color="#000" overflow="visible" font-family="Accanthis ADF Std"/><path d="M76.041 520.3c-17.07 12.96-36.64 30.05-43.18 52.16 9.39-7.95 20.94-12.84 29.35-16.62-8.79 13.16-8.95 29.66-9.5 45 18.09-21.46 39.68-42.98 68.12-49.1 6-1.29 15.79-1.08 17.47-7.65 1.53-5.97-8.04-8.45-12.94-8.79-5.51-.38-15.85.15-15.85.15m86.25-72.04c-.08 12.42 15.21 18.8 25.77 19.25 49.536-9.729 105.558-7.933 155.72-3.152 4.767.567 9.586.465 14.368.762 3.8.24 11.46 1.4 15.22 2.07 3.75.66 18.94-11.26 23.41-18.2 4.47-6.94 1-15.35-6.29-18.55-17.27-8.73-44.348-7.81-63.158-9.97-19.54-1.23-39.13-1.64-58.72-1.44-25.23.67-57.33 4.14-82.43 6.65-11.76.98-23.81 10.16-23.89 22.58zm-.35 1.06c-37.21 4.788-81.685 16.033-116.64 42.46-3.08 3.24-3.53 8.47-1.31 12.31 2.21 3.84 22.79 21.57 30.99 16.57 17.92-11.91 80.16-32.5 101.49-35.87 7.733-2.978 33.577.733 32.16-10.42-5.98-4.57-13.77-5.21-20.57-7.04m297.93 54.92c-7.12-.81-15.97.15-19.77 6.81-1.25 6.35 6.78 9.42 11.42 11.19 24.33 7.98 47.78 20.41 64.85 39.81.69-14.12-2.11-28.47-9.19-40.75 9.33 2.47 18.07 6.66 26.25 11.78-9.12-18.58-17.06-30.61-30.42-41.61-2.75-2.27-10.33-4.91-7.54-8.91M407.01 482.16c-7.17 1.56-19.76 1.18-23.61 8.26-3.74 5.53 2.75 11.41 7.78 12.23 24.53 6.11 47.662 3.06 72.062 10.03 19.92 5.08 39.29 12.85 56.22 24.72 16.93 11.86 31.53-15.88 35.25-21.5 3.71-5.63.69-13.12-5.42-15.42-37.41-23.77-75.512-31.87-118.862-35.46" fill="#ebc440" stroke="#000" stroke-width="5"/><path d="M431.848 485.498c1.268-2.433 1.91-2.68 2.973-1.238 1.063 1.442.34 1.771-.305 1.858-.645.087-1.772.34-2.668-.62zm-4.047 7.22c3.741 3.191 10.981.864 12.101-.115 1.12-.979 2.7-4.705 3.154-7.776.456-3.07-4.292-10.287-9.12-8.95-4.83 1.336-5.732 8.284-7.493 9.753-1.761 1.469-1.508 5.965-9.446 7.996-4.22 1.08-12.422.36-10.96 1.314 1.46.954 7.942 3.162 9.955 3.294 4.289.283 10.417.951 11.809-5.517zm51.474-.325c4.172-2.46 5.109-5.858 3.644-7.135-1.464-1.277-16.968-2.583-20.978.037-4.01 2.62-3.839 3.586-1.901 3.73 1.938.142 4.295 1.976 5.41.513 1.117-1.463 4.092-2.54 6.998-2.406 2.906.134 10.345 1.839 6.827 5.261zm19.323-4.378l4.245-3.348 3.837 4.724-4.646 3.594-3.436-4.97zm19.678 7.56l4.083-3.427 3.756 4.806-4 3.588-3.839-4.967zM491.372 508.9c5.12-4.728 7.547-3.944 8.523-3.146.976.797.518 3.545.518 3.545s-5.156.855-9.04-.399zm29.615.326l3.537-5.6c4.178 5.937 7.273 12.496 1.173 17.376-1.769.662-24.493-1.62-30.814-4.466-6.32-2.845-11.548-4.333-13.031-7.546-7.237 2.65-33.115-3.56-36.564-9.983-3.45-6.422.807-17.113.59-22.92l4.802-4.241s.162 4.153.047 9.157c-.114 5.004-.967 13.12-.967 13.12s8.394 5.15 15.169 6.726c10.997 2.559 19.67.046 19.67.046l.269 2.741s1.303 1.279 1.764-1.146c.461-2.425 2.321-10.511 1.645-13.732-.675-3.221 3.827-4.877 3.827-4.877s1.838 6.599.588 10.967c-1.25 4.37-2.83 7.934-2.83 7.934s5.303-2.309 7.878-3.14c2.574-.831 7.567-1.847 7.567-1.847s5.029 2.858 5.06 6.085c.03 3.227-5.088 8.116-5.088 8.116s6.307 1.393 8.729 1.532c2.421.138 7.268.738 8.229-.078.96-.816.186-1.615-1.25-4.224z" fill-rule="evenodd"/><path d="M227.18 445.227l4.314 3.869-4.204 4.796-4.793-3.853 4.683-4.812zm11.208-.927l-4.71 4.093 4.42 3.927 4.785-4.101-4.495-3.92zm49.67 20.371l-4.28 4.826 4.572 4.304 4.671-5.6-4.964-3.53zm10.942-.88l-4.39 4.499 4.967 4.467 4.319-5.316-4.896-3.65zm-28.984-15.478c16.61-3.513 24.844-5.27 25.405-5.135.56.135 3.952 3.879 2.14 4.455-1.813.577-25.557 3.878-26.537 3.747-.98-.13-4.623-.796-1.008-3.067zm38.296-2.46l3.17-5.064s8.033 6.637 7.388 12.377c-.645 5.74-6.49 8.872-8.306 9.03-1.816.156-32.683 4.503-39.674 4.709-6.99.206-22.941-.623-24.564-9.558-4.036 2.136-7.611 15.906-13.82 17.612-7.974 2.191-14.011-5.061-7.41-14.755 1.334 8.1 7.482 9.473 9.817 4.465 4.203-9.015 5.049-12.574 14.53-16.36.626 6.987 1.913 8.57 5.698 9.514 3.785.943 19.733 1.492 31.326-.155 11.592-1.648 23.889-2.743 25.133-4.293 1.244-1.55.261-1.96-3.288-7.521zm44.318-1.676s3.19-2.827 5.008-2.844c1.818-.017 10.796 2.975 10.812 4.653.016 1.678-7.356 5.943-10.424 6.811-3.069.868-9.498 1.348-12.317-1.003-2.82-2.35-1.43-3.343.95-3.085 2.38.257 7.285 1.33 9.655.608 2.371-.722.796-4.623-3.684-5.14zm17.581 10.603c7.5-5.525 11.136-5.56 12.4-5.012 1.264.548 7.18 5.107 12.925 6.172 5.744 1.064 13.597 3.368 13.597 3.368l-7.91 6.507s-8.273-2.299-11.764-1.707c-3.49.593-14.796 2.937-25.712 2.2-10.915-.735-27.01-1.982-29.42-5.316-1.905 5.472-4.965 7.32-7.892 8.326-2.928 1.007-14.962.28-15.8.289-.84.008 15.466-6.02 16.835-9.11 1.37-3.09-2.315-8.23-2.315-8.23l3.732-4.65s2.969 3.33 5.647 5.541c2.678 2.213 9.847 6.061 26.771 6.321 16.925.26 24.733-2.191 26.555-1.789-4.778-2.472-4.777-2.332-7.717-2.724-2.94-.392-6.165-1.2-9.932-.186zM128.51 491.438c-3.046 4.426-1.229 9.79.365 10.91 3.59 2.525 8.2.952 6.973-2.465-1.227-3.417-1.07-3.948-2.917-4.806-1.847-.859 1.22 3.184-.815 3.826-1.44.454-2.819-.59-2.974-1.372-.371-1.866-.433-6.017-.632-6.093zm-25.455 2.35l6.635.505-.079 8.19-7.972-.036s-.475-5.718 1.416-8.658zm10.406-6.307s-2.705 6.637-1.858 6.717c.847.079 6.339 2.347 7.424 1.849 1.086-.5 2.05-6.597 2.05-6.597l-7.616-1.969zm22.367-5.403l-3.653 5.731s8.644 11.015 8.555 11.723c-.09.707-4.201 5.91-7.18 7.387-2.978 1.476-7.232 2.764-8.368 2.565-1.136-.198-6.879-7.917-7.04-10.149-.16-2.232-6.483 5.374-7.138 9.908-.655 4.534-1.403 8.184-2.307 8.859-5.204 3.886-9.116-.045-9.388-3.81-.27-3.767-3.1 13.402 6.653 12.56 9.754-.843 9.237-17.77 10.811-17.323 1.575.447 3.69 6.464 6.132 7.27 2.441.805 12.394-1.173 15.472-3.217 3.077-2.044 8.354-8.594 8.204-10.686-.151-2.092-7.702-17.392-10.753-20.818zm14.345-5.239s-2.907 4.416-2.349 4.376c.558-.04 4.417 4.87 5.893 7.848 1.476 2.978 5.238 12.382 5.188 11.684-.051-.697 2.875-6.797 2.875-6.797s-6.215-14.274-11.607-17.11zm33.323 7.626c2.601 2.056 8.848.695 8.848.695l6.733-4.831 2.325 6.983s-6.549 4.468-9.63 8.405c-3.082 3.937-12.985 5.632-15.83 5.065-2.845-.566-3.17-3.136-3.543-1.497-.372 1.639-10.63 9.108-14.705 9.962-4.075.854-6.189-2.219-6.892-3.22-.703-1-2.18-3.979-.258-7.482.197 4.683 5.028 3.634 7.474 3.528 2.447-.106 11.684-7.15 11.788-7.649.105-.498-9.82-10.79-9.82-10.79l4.229-5.56c6.38 5.85 9.11 11.68 10.063 13.224.953 1.544 1.819.92 3.603 1.353 1.784.432 6.106-2.823 6.106-2.823s-3.01-1.162-4.77-2.38c-3.961-3.601-1.277-9.06 1.956-12.203 2.817-2.185 5.916-1.48 10.856 1.282-5.261 1.471-10.522 3.472-8.533 7.938z"/><path d="M379.263 493.911l-1-15.875 17.75 1.875-16.75 14z" stroke="#000"/><path d="M233.924 478.58l11.158-.302.095 12.82-10.871-7.672-.382-4.845z" stroke="#000" stroke-width=".785"/><path d="M140.946 540.265l-4.5-17.5-20.75 8.5s1 6 3.5 5.75 21.75 3 21.75 3.25zM496.696 543.265c.25-1 5-17 5-17l17.5 10.25-22.5 6.75z" stroke="#000"/><path d="M402.27 96.206a91.529 91.529 0 11-183.057 0 91.529 91.529 0 11183.057 0z" fill="#fff"/><path d="M313.651 19.21c-41.59 1.05-75 35.16-75 77 0 42.5 34.49 77 77 77 28.85 0 53.99-15.9 67.18-39.41-10.91 13.07-27.34 21.41-45.68 21.41-32.85 0-59.5-26.66-59.5-59.5s26.65-59.5 59.5-59.5c17.36 0 32.99 7.46 43.87 19.34-13.6-21.82-37.79-36.34-65.37-36.34-.67 0-1.34-.02-2 0z" fill="#e70013" fill-rule="evenodd"/><path d="M408.651 97.2c0 51.91-42.09 94-94 94-51.92 0-94-42.09-94-94 0-51.92 42.08-94 94-94 51.91 0 94 42.08 94 94h0z" fill="none" stroke="#e70013" stroke-width="6" stroke-linecap="square" stroke-linejoin="bevel"/><path d="M365.371 122.14l-28.86-7.47-17.94 23.81-1.82-29.76-28.19-9.7 27.74-10.93.53-29.81 18.96 23.01 28.51-8.71-16.03 25.14 17.1 24.42z" fill="#e70013" fill-rule="evenodd"/><path d="M204.706 394.12l-5.06 13.26M215.206 397.23l-4.19 13.09M197.774 388.901l-5.916 11.018M226.186 400.595l-3.84 12.74M237.131 402.17l-3.32 12.56" fill="none" stroke="#000" stroke-width="2"/><path d="M435.221 406.36l.49 12.09M427.221 406.36l.49 12.09M419.221 406.36l.49 12.09M411.221 408.36l.49 12.09M403.221 408.36l.49 12.09M395.221 410.36l.49 12.09M387.221 410.36l.49 12.09M379.221 410.36l.49 12.09M371.326 412.357l.28 12.096" fill="none" stroke="#000" stroke-width="5"/><path d="M446.031 389.88l.74 13.57M430.031 391.88l.74 13.57M414.031 393.88l.74 13.57M398.031 393.88l.74 13.57" fill="none" stroke="#000" stroke-width="7"/><path d="M363.326 412.357l.28 12.096M355.326 412.357l.28 12.096M347.326 412.357l.28 12.096M339.326 412.357l.28 12.096M331.326 412.357l.28 12.096M323.692 412.36l-.452 12.09M315.692 412.36l-.452 12.09M307.75 412.362l-.569 12.086M299.75 412.362l-.569 12.086M291.888 410.37l-.844 12.07M283.888 410.37l-.844 12.07" fill="none" stroke="#000" stroke-width="5"/><path d="M361.471 281.93c25.07-16.39 114.77-34.72 114.77-34.72-40.51 46.3-9.1 105.49-9.1 105.49-56.91-13.5-90.24 22.79-90.24 22.79-21.58-27.54-27.35-58.58-15.43-93.56zm25.07-48.22c-136.96 26.04-173.61 101.27-173.61 101.27l15.43 46.3c32.59-20.29 61.07-29.05 83.91-26.76 45.83 4.59 68.3 23.87 66.56 21.93-57.87-64.62 9.04-143.04 7.71-142.74zm-185.18 119.6s-8.68-13.51-31.83-14.47c0 0 96.57-82.7 149.56-86.8 0 0-77.07 33.7-106.25 81.95-4.05 6.72-8.55 12.81-11.48 19.32zm117.7-101.6c-69.45-12.54-191 61.09-191 61.09 23.14 2.89 40.5 26.04 40.5 26.04 89.71-78.16 150.5-87.13 150.5-87.13z" fill="#c1c9eb"/><path d="M573.404-191.718c-136.96 26.04-173.61 101.27-173.61 101.27l15.43 46.3c32.59-20.29 61.07-29.05 83.91-26.76 45.83 4.59 68.3 23.87 66.56 21.93-57.87-64.62 9.04-143.04 7.71-142.74z" fill="url(#f)" transform="translate(-186.863 425.428)"/><path d="M548.334-143.498c25.07-16.39 114.77-34.72 114.77-34.72-40.51 46.3-9.1 105.49-9.1 105.49-56.91-13.5-90.24 22.79-90.24 22.79-21.58-27.54-27.35-58.58-15.43-93.56z" fill="url(#g)" transform="translate(-186.863 425.428)"/><path d="M388.224-72.118s-8.68-13.51-31.83-14.47c0 0 96.57-82.7 149.56-86.8 0 0-77.07 33.7-106.25 81.95-4.05 6.72-8.55 12.81-11.48 19.32z" fill="url(#h)" transform="translate(-186.863 425.428)"/><path d="M505.924-173.718c-69.45-12.54-191 61.09-191 61.09 23.14 2.89 40.5 26.04 40.5 26.04 89.71-78.16 150.5-87.13 150.5-87.13z" fill="url(#i)" transform="translate(-186.863 425.428)"/><path d="M386.541 233.71c-136.96 26.04-173.61 101.27-173.61 101.27l15.43 46.3c32.59-20.29 61.07-29.05 83.91-26.76 45.83 4.59 68.3 23.87 66.56 21.93-57.87-64.62 9.04-143.04 7.71-142.74z" fill="none" stroke="#000" stroke-width="3"/><path d="M361.471 281.93c25.07-16.39 114.77-34.72 114.77-34.72-40.51 46.3-9.1 105.49-9.1 105.49-56.91-13.5-90.24 22.79-90.24 22.79-21.58-27.54-27.35-58.58-15.43-93.56zM201.361 353.31s-8.68-13.51-31.83-14.47c0 0 96.57-82.7 149.56-86.8 0 0-77.07 33.7-106.25 81.95-4.05 6.72-8.55 12.81-11.48 19.32z" fill="none" stroke="#000" stroke-width="3"/><path d="M319.061 251.71c-69.45-12.54-191 61.09-191 61.09 23.14 2.89 40.5 26.04 40.5 26.04 89.71-78.16 150.5-87.13 150.5-87.13z" fill="none" stroke="#000" stroke-width="3"/></svg>