<svg xmlns="http://www.w3.org/2000/svg" version="1.0" width="330" height="460"><path d="M0 0v347.556c.026 23.5 13.76 45.93 36.819 56.062L165 460l128.181-56.382c23.059-10.133 36.793-32.563 36.819-56.062V0H0z" fill="#ffd500"/><path d="M5 5v340c.025 22.989 13.343 44.931 35.703 54.844L165 455l124.297-55.156C311.657 389.93 324.975 367.989 325 345V5H5z" fill="#005bbb"/><path d="M165 30c-9.32 10.577-15 24.421-15 39.617.552 33.366 4.645 66.664 5 100.02.74 31.087-8.585 60.284-19.922 88.767-3.778 7.87-7.864 15.575-11.953 23.286l-12.031-2.423c-10.826-2.164-17.868-12.692-15.703-23.52 1.893-9.474 10.23-16.053 19.53-16.097l4.376.47-9.766-81.58C106.34 122.214 87.601 90.35 60 69.618a125.645 125.645 0 00-15-9.69v289.745h66.875c5 27.15 19.94 50.802 40.937 67.044A40.365 40.365 0 01165 430c3.01-5.3 7.193-9.84 12.188-13.284 20.998-16.242 35.937-39.894 40.937-67.044H285V59.928a125.645 125.645 0 00-15 9.69c-27.601 20.73-46.34 52.595-49.531 88.923l-9.766 81.578 4.375-.469c9.3.044 17.638 6.623 19.531 16.097 2.165 10.828-4.877 21.356-15.703 23.52l-12.031 2.423c-4.089-7.711-8.175-15.415-11.953-23.286-11.338-28.483-20.662-57.68-19.922-88.767.355-33.356 4.448-66.654 5-100.02 0-15.196-5.68-29.04-15-39.617zM65 101.655c12.943 15.192 21.629 34.125 24.219 54.932l8.047 67.28c-10.247 5.101-18.015 14.461-20.938 25.785H65V101.655zm200 0v147.997h-11.328c-2.923-11.324-10.691-20.684-20.938-25.786l8.047-67.279c2.59-20.807 11.276-39.74 24.219-54.932zm-100 135.26a228.894 228.894 0 0021.953 49.776c-8.74 2.656-16.347 7.821-21.953 14.768-5.606-6.947-13.213-12.112-21.953-14.768A228.895 228.895 0 00165 236.915zM65 269.656h11.328c3.572 13.805 14.348 24.713 28.047 28.521l9.61 2.188A110.105 110.105 0 00110 329.668H65v-60.012zm188.672 0H265v60.012h-45c0-10.144-1.411-19.973-3.984-29.303l9.609-2.188c13.7-3.808 24.475-14.716 28.047-28.52zm-120.156 35.32C145.648 306.69 155 317.062 155 329.668h-25c0-8.575 1.27-16.839 3.516-24.692zm62.968 0c2.246 7.853 3.516 16.117 3.516 24.692h-25c0-12.606 9.352-22.977 21.484-24.692zm-64.218 44.696H155v42.117c-11.033-11.536-19.048-26.022-22.734-42.117zm42.734 0h22.734c-3.686 16.095-11.7 30.58-22.734 42.117v-42.117z" fill="#ffd500"/></svg>