<svg xmlns="http://www.w3.org/2000/svg" xmlns:xlink="http://www.w3.org/1999/xlink" width="398.687" height="500.034"><g stroke-width=".994"><path transform="matrix(1.00626 0 0 1.01405 -.248 9.25)" d="M281.347 342.25c15.043-17.36 23.903-39.544 23.903-63.531 0-54.757-45.403-102.417-105.887-102.417-78.634 0-115.597 46.082-113.457 98.13 2.245 54.573 53.894 80.259 95.743 78.632 69.875-2.715 86.751-57.294 91.584-86.072 1.909-11.368 2.522-30.568 5.472-36.344 7.05 9.629 8.172 24.53 8.34 37.36.717 54.375-22.168 113.44-105.349 116.302-89.906 3.093-132.8-61.027-134.36-109.285-2.801-86.668 67.928-140.633 151.247-140.633 83.318 0 150.861 64.614 150.861 144.319 0 37.022-14.572 70.788-38.529 96.336z" fill="#d0b990" stroke="#000" stroke-width="1.188"/><path d="M199.588 148.81c-41.222 0-79.222 13.447-106.474 37.52-27.252 24.073-43.864 58.685-42.483 101.722 1.511 47.103 42.92 110.73 131.82 107.648 45.285-1.57 71.63-20.67 86.538-46.614 14.907-25.944 18.1-59.091 15.282-88.128-.528-5.442-1.672-9.929-3.522-13.88-.716 3.572-.67 7.254-1.289 12.169.01-.084-.107 2.467-.346 5.736a170.56 170.56 0 01-1.446 12.834c-1.551 10.315-4.529 23.654-10.535 37.044-12.011 26.78-36.64 53.805-84.462 55.678-21.767.853-45.913-5.41-65.124-19.108-19.21-13.699-33.42-35.085-34.59-63.759-1.11-27.198 7.989-53.077 27.61-72.03 19.62-18.952 49.613-30.865 89.808-30.865 62.558 0 109.776 49.784 109.776 107.11 0 24.123-9.623 47.515-24.123 65.34l25.47 28.456c22.163-25.005 36.639-58.36 36.639-93.796 0-78.987-66.38-143.077-148.549-143.077z" fill="#e1d2b5"/><path d="M199.588 152.327c-40.467 0-77.619 13.23-104.147 36.665-26.528 23.434-42.669 56.877-41.32 98.934 1.448 45.12 41.033 107.28 128.235 104.257 44.342-1.537 69.241-19.827 83.614-44.84 12.212-21.253 16.322-47.885 15.597-72.917-.176 1.432-.203 2.347-.44 3.93-1.584 10.536-4.632 24.172-10.818 37.963-12.371 27.582-38.456 55.816-87.512 57.738-22.536.882-47.328-5.528-67.262-19.743C95.6 340.1 80.68 317.59 79.467 287.83c-1.146-28.073 8.303-55.041 28.678-74.723 20.375-19.68 51.353-31.847 92.23-31.847 64.394 0 113.266 51.354 113.266 110.627 0 23.888-10.23 48.55-24.064 66.57l20.817 23.292c20.091-23.964 34.252-56.702 34.252-89.862 0-76.997-64.695-139.56-145.058-139.56z" fill="#f0e9d5"/><path d="M199.588 156.796c-39.51 0-75.644 12.932-101.254 35.555-25.61 22.623-41.088 54.634-39.779 95.448 1.367 42.605 38.594 102.864 123.644 99.916 43.145-1.496 66.24-18.789 79.935-42.622 3.575-6.223 6.416-12.978 8.647-20.06-14.071 26.306-41.236 51.668-87.796 53.492-23.51.92-49.144-5.696-69.997-20.566-20.854-14.87-36.684-38.801-37.955-69.938-1.191-29.183 8.73-57.54 30.062-78.146s53.537-33.083 95.28-33.083c66.723 0 117.7 53.353 117.7 115.095 0 23.587-12.276 50.56-25.318 68.78l14.969 16.732c17.513-22.54 32.487-55.245 32.487-85.512 0-74.474-62.554-135.091-140.625-135.091z" fill="#f7f5e7"/></g><g stroke-width=".994"><path d="M43.657 419.763s9.501-9.789 15.12-12.577c2.839-1.41 8.724-3.751 11.85-3.232 3.808.632 7.182 3.59 7.182 3.59s3.294-1.024 4.668-2.872c2.14-2.878 6.179-5.373 9.696-4.668 2.826.566 5.745 4.309 5.745 4.309s2.806-5.586 6.105-7.182c3.017-1.46 10.772-1.436 10.772-1.436s-2.343-4.886 6.464-9.337c2.203-1.113 5.204.316 7.182-.359 4.671-1.593 8.112-8.292 12.568-10.413 3.135-1.492 7.182-1.078 7.182-1.078s.844-.83 1.363-3.459c.551-2.79 3.342-6.706 5.1-8.032 2.87-2.162 8.26-1.077 8.26-1.077s2.056-5.188 4.31-6.464c2.189-1.24 7.54-.359 7.54-.359s3.05-5.568 5.746-6.823c2.93-1.363 6.759-1.35 9.695 0 2.005.923 4.31 5.028 4.31 5.028s7.523.706 11.49 3.232c4.508 2.869 4.856 8.736 8.978 11.131 3.879 2.255 9.132.459 13.286 2.155 4.612 1.883 9.149 4.688 12.21 8.618 1.024 1.316.334 3.865 1.795 4.668 1.604.883 5.373-.646 7.182-.359 4.34.69 6.8 2.44 9.695 5.746 1.7 1.94 2.873 7.182 2.873 7.182s5.184-1.624 7.54-.718c1.82.699 3.95 4.309 3.95 4.309s5.705-3.193 8.62-2.514c3.794.885 4.763 4.812 8.617 5.386 3.019.45 5.215-1.225 8.26-1.436 2.756-.19 7.9 2.514 7.9 2.514s8.459-4.53 12.927-3.95c2.932.38 4.643 4.084 7.541 4.668 4.514.91 9.17-3.24 13.646-2.155 4.327 1.05 10.772 7.9 10.772 7.9l3.232 8.978c-37.443 49.177-213.42 104.164-311.372 1.086z" fill="#75482a" fill-opacity=".997" stroke="#000" stroke-width="1.2004681799999999"/><path d="M185.35 353.758c-.723-.001-1.324.174-1.792.345-.134.21-1.063.975-1.667 1.824a24.692 24.692 0 00-1.446 2.296 6.488 6.488 0 01-6.73 3.302s-.977-.177-2.138-.22c-.366-.014-.657.066-.975.125-.234.265-.462.52-.66.88-.582 1.062-.975 2.013-.975 2.013a6.488 6.488 0 01-7.327 3.962s-.769-.124-1.792-.125c-1.024-.002-1.836.443-1.29.031.272-.204-.793.814-1.477 1.855-.685 1.041-1.178 2.337-1.164 2.264-.367 1.859-.882 3.328-1.478 4.466-.596 1.137-1.76 2.42-1.76 2.42a6.488 6.488 0 01-5.158 1.762s-2.957.113-3.71.472c-.424.201-2.208 1.786-4.277 3.993-2.069 2.208-4.492 5.163-8.993 6.698-3.241 1.105-5.182.455-6.258.346-.352-.036-.416-.038-.535-.032-2.013 1.109-2.566 1.713-2.641 1.887a6.488 6.488 0 01-6.352 7.862s-1.717.007-3.742.157-4.623.857-4.15.629c.383-.186-.965.852-1.793 2.044a18.575 18.575 0 00-1.321 2.2 6.488 6.488 0 01-10.912 1.101s-.45-.531-1.132-1.163c-.34-.316-.752-.559-.974-.692-.085.164-2.201.976-3.02 2.076-1.836 2.47-3.785 3.377-5.25 4.087-1.466.71-2.768 1.101-2.768 1.101a6.488 6.488 0 01-6.163-1.32s-2.765-1.846-3.962-2.045c.646.108-1.228.097-3.019.66-.278.088-.47.216-.755.315.945.508 1.882 1.125 2.83 1.604.48.12.955.243 1.51.377a6.488 6.488 0 013.742 10.063l-1.793 2.484c8.656 4.688 18.51 9.061 29.653 12.2.033.01.062.023.095.032 1.012.172 1.962.304 3.019.472a6.488 6.488 0 014.874 9.15l-.44.944c32.808 11.86 62.538 16.823 90.06 16.823 27.52 0 57.25-4.963 90.06-16.823l-.441-.943a6.488 6.488 0 014.874-9.151c1.057-.168 2.006-.3 3.019-.472.032-.005.061-.026.094-.031 11.144-3.14 20.998-7.513 29.653-12.201l-1.792-2.484a6.488 6.488 0 013.742-10.063c.565-.137 1.05-.255 1.54-.377a125.73 125.73 0 008.24-4.528c-.467.083-.585.045-2.013.534-2.256.773-5.674 2.269-10.22 1.353-3.8-.766-5.71-2.929-6.824-3.931-.391-.353-.51-.43-.66-.535-.085.098-2.413.391-4.528 1.227-2.291.904-4.12 1.886-4.12 1.886a6.488 6.488 0 01-6.037.032s-1.04-.529-2.327-1.038c-.965-.382-2.226-.565-2.39-.66-.473.06-1.108.216-2.516.629-1.547.453-4.002 1.09-6.886.66-3.976-.592-6.634-3.118-7.893-4.34-.944-.916-.896-.815-.943-.849-.428.063-1.173.181-1.824.44-1.344.537-2.453 1.133-2.453 1.133a6.488 6.488 0 01-8.742-2.359s-.385-.584-.88-1.226c-.33-.012-.643-.036-1.006.031a21.394 21.394 0 00-2.107.503 6.488 6.488 0 01-8.27-4.78s-.261-1.058-.66-2.295c-.4-1.237-1.339-2.71-.755-2.044-2.44-2.785-2.763-3.1-5.818-3.584 1.535.243.013.108-1.572.377s-3.67 1.483-7.736-.755c-1.816-1-3.074-2.77-3.616-4.056-.542-1.286-.663-2.2-.755-2.799-.004-.023.004-.009 0-.031-2.126-2.446-5.355-4.628-8.962-6.1-.439-.18-1.95-.335-4.402-.378-2.452-.043-6.02-.022-9.717-2.17-3.984-2.316-5.61-5.758-6.76-7.861-1.15-2.103-1.797-2.998-2.422-3.396-.646-.412-3.044-1.28-5.062-1.698a36.703 36.703 0 00-3.554-.566 6.488 6.488 0 01-5.062-3.27s-.424-.736-1.007-1.542c-.272-.375-.663-.693-.88-.88-.47-.147-.964-.314-1.604-.314z" fill="#84512f"/><path d="M175.287 359.04c-2.203.1-4.685 1.57-5.314 3.46-.823 2.475 5.297 4.487 3.962 6.729-1.411 2.37-6.037-1.935-8.27-.315-1.203.874-1.434 2.836-1.226 4.308.404 2.862 5.136 4.489 4.59 7.327-.357 1.866-2.722 3.738-4.59 3.396-2.396-.438-1.853-4.97-3.994-6.132-2.872-1.558-7-1.718-9.78 0-1.553.96-1.058 3.725-2.452 4.906-2.12 1.795-5.96.554-7.987 2.453-1.675 1.568-.549 5.088-2.422 6.414-3.25 2.303-8.966-2.326-11.949.315-2.087 1.848.884 6.45-1.226 8.27-2.397 2.068-6.748-1.571-9.497 0-1.454.831-3.378 2.885-2.547 4.34 1.726 3.019 7.121 1.133 10.409 0 2.743-.946 4.111-4.432 6.855-5.378 2.16-.745 4.897 1.18 6.855 0 1.637-.985 1.2-3.884 2.704-5.062 1.935-1.516 5.2-3.305 7.138-1.793 1.097.856.634 2.944 0 4.182-1.004 1.965-3.382 2.862-5.345 3.868-.56.287-1.293.216-1.793.598-1.139.87-1.166 2.84-2.39 3.585-1.537.935-3.686-.019-5.377.597-2.693.98-7.968 2.005-7.138 4.748 1.008 3.329 6.944-.296 10.408 0 2.914.25 5.861 2.394 8.648 1.51 2.143-.68 2.713-3.895 4.78-4.78 3.837-1.643 8.99 1.954 12.515-.283.938-.595.572-2.391 1.51-2.987 3.27-2.08 7.87-1.36 11.603-.315 1.592.446 2.54 2.906 4.182 2.704 2.302-.282 3.141-3.452 4.78-5.094 1.738-1.74 3.06-4.154 5.345-5.062 2.955-1.175 6.826-1.623 9.56 0 1.07.635.893 2.408 1.76 3.301.963.99 2.442 1.303 3.586 2.076.938.634 2.175 1.058 2.673 2.075.392.803-.627 2.066 0 2.704 3.829 3.9 11.228 2.01 16.414.283 2.15-.715 3.08-4.22 5.346-4.182 1.552.026 2.134 2.436 3.585 2.988 2.88 1.095 6.48-1.046 9.245.314 1.963.966 3.443 3.003 4.182 5.063.503 1.403-.799 3.207 0 4.465 2 3.152 8.125 1.627 10.125 4.78.692 1.09-.643 2.747 0 3.868 1.375 2.393 4.404 3.8 7.138 4.182 3.962.552 7.748-3.93 11.635-2.988 2.326.564 3.156 3.86 5.377 4.749 2.677 1.07 6.164-1.15 8.648.314.998.588.75 2.482 1.792 2.987 2.795 1.354 6.328-.047 9.214-1.194 3.767-1.499 7.89-3.616 9.842-7.17.767-1.396-.713-3.531.315-4.748 2.238-2.652 9.025.901 10.125-2.39.246-.736-.764-1.489-1.478-1.793-2.566-1.092-5.827-.56-8.364.598-1.406.642-1.866 2.624-3.27 3.27-4.708 2.166-10.424.17-15.503 1.195-.616.125-1.172.497-1.793.598-2.942.477-6.566 1.816-8.93 0-1.223-.94-.045-3.438-1.195-4.466-1.498-1.339-4.056-1.51-5.975-.912-2.08.649-2.584 4.239-4.748 4.497-3.402.406-9.383-1.694-8.962-5.094.367-2.966 7.01.142 8.648-2.358.77-1.176.085-2.955-.598-4.183-1.953-3.513-7.546-4.124-9.245-7.767-.672-1.44.521-3.246 0-4.748-.789-2.272-2.068-5.462-4.465-5.66-2.944-.243-3.694 6.733-6.54 5.943-1-.277-.916-1.95-.913-2.987.005-1.352 1.727-2.626 1.195-3.868-1.223-2.86-5.253-4.582-8.333-4.15-1.602.223-1.97 3.168-3.585 3.27-2.916.183-5.827-2.468-7.17-5.063-.592-1.148.76-2.854 0-3.9-3.007-4.145-9.68-3.293-14.59-4.748-4.436-1.315-8.925-4.653-13.427-3.585-1.164.277-1.803 1.57-2.673 2.39-1.533 1.446-6.254 4.466-4.465 4.466 1.788 0-7.675 4.75-9.528 2.075-1.146-1.654 3.982-3.181 3.27-5.063-.913-2.412-6.104.124-7.452-2.075-.53-.864.326-2.011.597-2.987.394-1.424 1.802-2.742 1.478-4.183-.278-1.234-2.06-1.566-2.673-2.673-.603-1.09.259-3.077-.849-3.647-.59-.304-1.278-.411-2.013-.378zm-72.764 46.1c-1.823.138-3.726.955-5.252 1.823-1.36.774-1.434 3.285-2.956 3.648-1.79.427-3.232-1.88-5.03-2.264-2.096-.448-4.68-1.211-6.447 0-2.252 1.544-.37 6.766-2.956 7.641-3.15 1.067-5.589-6.846-8.49-5.22-1.768.99-.646 4.18 0 6.1.763 2.273 3.663 3.424 4.34 5.724.425 1.448-1.144 3.246-.347 4.528 4.018 6.465 16.917 14.786 21.194 8.49 1.75-2.574-7.246-3.753-6.446-6.76.466-1.753 4.64.145 5.22-1.573.503-1.492-3.025-2.251-2.767-3.805.313-1.885 2.774-3.26 4.685-3.302 1.718-.037 2.628 2.616 4.34 2.768 1.81.16 3.249-1.722 5.031-2.076 2.498-.496 5.363 1.14 7.641 0 2.33-1.165 4.988-3.67 4.686-6.257-.21-1.797-2.343-3.525-4.151-3.49-1.558.029-2.036 2.586-3.49 3.144-.055.02-.1.004-.158 0-2.335-.175-6.187 1.176-6.95-1.038-.493-1.433 2.84-1.812 3.114-3.302.272-1.48-.42-3.44-1.73-4.182-.916-.52-1.988-.68-3.081-.598zm71.255 8.93c-1.87-.066-3.624.233-4.874 1.446-1.646 1.598 1.076 5.287-.597 6.856-3.263 3.058-9.138-1.052-13.396.314-2.52.808-3.931 4.31-6.572 4.465-2.573.152-4.32-3.121-6.855-3.584-2.461-.45-5.203-.182-7.453.911-3.286 1.597-4.093 8.015-7.736 7.736-1.842-.14-1.488-4.11-3.301-4.465-1.489-.291-2.926 1.201-3.868 2.39-.781.984-.063 3.038-1.195 3.584-2.094 1.012-4.25-1.986-6.54-2.39-1.175-.206-2.447-.353-3.586 0-1.842.573-4.445 1.37-4.78 3.27-.443 2.526 2.112 5.242 4.466 6.259 2.025.874 4.544-1.75 6.572-.88 2.028.868 1.904 4.34 3.868 5.345 2.123 1.085 4.887-.691 7.17 0 2.742.83 4.276 4.94 7.138 4.78 4.928-.276 6.406-9.062 11.32-9.528 2.834-.27 4.698 3.432 7.453 4.15 2.884.753 7.752-2.724 8.962 0 1.14 2.572-6.427 3.55-5.66 6.258.676 2.39 4.673 1.8 7.137 2.107 2.763.344 5.589-.779 8.334-.315 3.784.64 6.935 3.807 10.754 4.183 5.12.504 10.056-3.051 15.188-2.673 2.507.184 4.672 2.107 7.17 2.39 3.074.347 6.912 1.12 9.245-.912 1.617-1.41-.206-4.929 1.478-6.258 4.21-3.326 11.39 2.571 16.1 0 1.451-.792 1.357-3.18 2.673-4.182 2.649-2.02 6.208-2.676 9.528-2.956 3.696-.312 7.377 2.086 11.037 1.478 1.534-.255 2.654-1.784 4.182-2.076 4.507-.859 9.501 2.989 13.71 1.164 1.623-.704 1.68-3.378 3.27-4.15 3.128-1.521 7.2 1.26 10.44 0 1.508-.587 4.24-1.792 3.585-3.271-1.775-4.015-8.73 1.42-13.112 1.163-3.852-.225-7.495-2.43-11.352-2.358-2.458.046-4.925 2.83-7.138 1.76-1.082-.52-.5-2.62-1.51-3.27-2.339-1.506-5.805 1.163-8.333 0-3.329-1.53-3.709-7.041-7.138-8.333-1.315-.495-2.938 1.25-4.182.598-2.165-1.134-.882-7.091-3.27-6.572-2.72.59-1.057 5.681-.315 8.364 1.168 4.224 8.812 6.944 7.17 11.006-.994 2.458-5.258 2.646-7.767 1.793-5.48-1.865-5.737-11.07-11.038-13.396-3.28-1.44-7.246-.268-10.723.597-2.76.688-4.914 3.918-7.735 3.554-2.17-.28-3.933-2.278-5.063-4.151-1.52-2.52.49-6.79-1.792-8.648-2.62-2.133-6.87.776-10.157 0-1.946-.46-3.388-2.3-5.346-2.704-1.706-.352-3.697-.783-5.566-.849z" fill="#896c5a"/></g><g transform="matrix(1.00626 0 0 1.00626 -.504 .153)" stroke-width=".994"><g id="a" stroke-width=".994" stroke-miterlimit="4" stroke-dasharray="none"><path d="M250.44 371.377c4.233-18.448 6.59-40.006 2.581-49.29-1.86 8.027-2.797 26.2-5.868 39.667z" fill="#1c5136" stroke="#000"/><path d="M247.58 362.325c2.966-18.694 3.846-40.363-.785-49.351-1.31 8.134-1.005 26.328-3.15 39.974z" fill="#1c5136" stroke="#000"/><path d="M243.508 353.627c2.402-18.774 2.631-40.46-2.268-49.305-1.065 8.17-.213 26.347-1.947 40.05z" fill="#1c5136" stroke="#000"/><path d="M239.225 346.263c1.85-18.837 1.442-40.52-3.715-49.218-.824 8.198.561 26.342-.77 40.09z" fill="#1c5136" stroke="#000"/><path d="M234.386 336.764c1.279-18.884.215-40.544-5.203-49.082-.576 8.22 1.358 26.313.444 40.096z" fill="#1c5136" stroke="#000"/><path d="M230.034 330.171c.402-18.923-1.665-40.51-7.473-48.788-.194 8.237 2.577 26.222 2.303 40.032z" fill="#1c5136" stroke="#000"/><path d="M225.42 324.795c-.529-18.92-3.656-40.38-9.864-48.362.212 8.237 3.864 26.063 4.27 39.87z" fill="#1c5136" stroke="#000"/><path d="M219.59 317.308c-.765-18.911-4.16-40.33-10.468-48.234.315 8.233 4.19 26.013 4.768 39.814zM134.253 258.703c-7.595-11.465-13.015-20.3-19.6-23.329 1.296 4.458 5.445 11.33 11.04 19.464z" fill="#1c5136" stroke="#000"/><path d="M142.023 262.772c-6.51-12.113-12.119-22.48-18.399-26.1.882 4.558 5.404 12.853 10.23 21.465z" fill="#1c5136" stroke="#000"/><path d="M147.545 265.613c-4.107-13.124-8.967-22.735-14.45-27.476.005 4.643 4.615 14.249 7.728 23.617z" fill="#1c5136" stroke="#000"/><path d="M153.01 268.707c-2.537-13.516-6.235-23.63-11.124-28.983-.54 4.612 2.91 14.693 4.902 24.361zM159.713 272.325c-2.538-13.516-6.873-26.929-11.762-32.281-.54 4.61 3.761 18.735 5.752 28.404zM165.576 275.447c-1.926-13.617-5.652-27.211-10.295-32.779-.748 4.583 2.913 18.886 4.466 28.635z" fill="#1c5136" stroke="#000"/><path d="M171.393 279.258c-1.926-13.616-5.652-27.21-10.295-32.778-.747 4.582 2.913 18.886 4.466 28.634z" fill="#1c5136" stroke="#000"/><path d="M177.21 281.866c-1.926-13.617-5.652-27.211-10.295-32.779-.747 4.583 2.913 18.886 4.466 28.635zM183.428 286.48c-1.926-13.617-5.451-30.02-10.094-35.587-.748 4.582 3.515 23.499 4.265 31.442zM189.646 290.692c-1.925-13.617-5.451-30.02-10.094-35.587-.747 4.582 3.515 23.5 4.265 31.443zM195.664 294.904c-1.926-13.616-5.183-31.36-9.826-36.928-.747 4.582 3.246 24.84 3.997 32.784zM201.882 298.916c-1.925-13.617-5.72-33.903-10.362-39.47-.748 4.582 3.783 27.383 4.533 35.326zM213.372 312.895c-.766-18.911-4.16-39.526-10.468-47.43.314 8.234 4.19 25.209 4.768 39.01z" fill="#1c5136" stroke="#000"/><path d="M208.358 307.078c-.766-18.911-4.362-35.517-10.67-43.42.315 8.233 3.588 23.606 4.167 37.407zM125.938 254.948c-7.595-11.465-13.82-17.35-20.405-20.379 1.296 4.459 6.25 8.38 11.845 16.513z" fill="#1c5136" stroke="#000"/><path d="M120.037 252.266c-9.74-11.465-16.502-13.326-23.088-16.355 1.328 3.394 7.735 8.645 14.528 13.294zM248.357 364.685c-17.807-6.414-36.768-14.075-42.41-22.466 7.758 2.775 23.103 9.799 36.092 14.498zM125.44 255.26c-14.787-.006-21.872-3.6-27.177-7.225 4.418-1.427 11.375 1.51 20.107 3.756z" fill="#1c5136" stroke="#000"/><path d="M245.457 356.525c-18.2-5.197-36.874-12.868-43.07-20.859 7.928 2.245 24.295 9.3 37.572 13.113z" fill="#1c5136" stroke="#000"/><path d="M240.963 348.366c-18.253-5.007-38.356-12.021-44.635-19.947 7.95 2.162 24.4 8.823 37.715 12.496z" fill="#1c5136" stroke="#000"/><path d="M236.068 340.419c-18.372-4.552-36.656-10.392-43.13-18.16 8.002 1.964 22.624 7.542 36.027 10.883z" fill="#1c5136" stroke="#000"/><path d="M231.528 332.723c-18.557-3.721-37.086-8.734-43.903-16.202 8.083 1.601 22.717 5.845 36.257 8.58z" fill="#1c5136" stroke="#000"/><path d="M226.276 324.252c-18.793-2.249-36.763-5.339-44.146-12.248 8.183.96 22.487 4.243 36.2 5.904z" fill="#1c5136" stroke="#000"/><path d="M219.783 317.759c-18.793-2.249-37.659-4.667-45.043-11.576 8.184.96 23.16 3.57 36.872 3.888z" fill="#1c5136" stroke="#000"/><path d="M213.307 309.276c-18.927.13-38.228-2.119-46.421-8.045 8.239-.076 23.927 2.825 37.74 2.75zM198.845 297.911c-13.748.32-34.382-.118-40.631-3.792 4.399-1.484 27.633-.73 35.593-1.283z" fill="#1c5136" stroke="#000"/><path d="M206.981 302.772c-18.898 1.048-38.285-.263-46.756-5.785 8.225-.475 24.036 1.662 37.829.917zM191.594 292.388c-13.673 1.474-31.36 1.653-37.896-1.482 4.26-1.85 24.564-1.931 32.448-3.152z" fill="#1c5136" stroke="#000"/><path d="M185.1 288.357c-13.673 1.474-31.359 1.653-37.895-1.482 4.259-1.849 24.563-1.93 32.448-3.152z" fill="#1c5136" stroke="#000"/><path d="M177.711 283.88c-13.673 1.473-31.359 1.652-37.895-1.483 4.258-1.849 24.563-1.93 32.448-3.152z" fill="#1c5136" stroke="#000"/><path d="M170.994 279.177c-13.673 1.474-31.36 1.653-37.896-1.482 4.26-1.849 24.564-1.93 32.448-3.152zM161.813 274.475c-13.673 1.474-31.359 1.653-37.895-1.482 4.259-1.85 24.563-1.931 32.448-3.152z" fill="#1c5136" stroke="#000"/><path d="M152.857 270.22c-13.673 1.474-28.672 1.43-35.209-1.705 4.26-1.85 21.877-1.707 29.761-2.928zM145.868 264.938c-13.734.705-26.625 2.172-32.975-1.324 4.355-1.607 14.913-2.93 24.78-3.264zM135.12 260.012c-13.734.704-24.61 1.276-30.96-2.22 4.356-1.607 12.898-2.035 22.764-2.368z" fill="#1c5136" stroke="#000"/><path style="text-indent:0;text-align:start;line-height:normal;text-transform:none;block-progression:tb;marker:none;-inkscape-font-specification:Sans" d="M111.24 248.789l-.146-.226c39.317 20.11 136.54 57.803 141.418 156.803-.144 7.207 6.792 4.39 5.613.072-5.038-102.221-111.601-143.98-146.884-156.65z" font-weight="400" color="#000" fill="#215f2f" stroke="#000" overflow="visible" font-family="Sans"/><path d="M142.969 263.188c16.89 8.711 35.843 19.496 53.531 34.093 29.543 24.382 54.755 58.676 57.188 108.031a1.192 1.192 0 010 .094c-.033 1.612.354 2.474.687 2.844.333.37.623.41 1.063.312.88-.193 1.946-1.29 1.53-2.812a1.192 1.192 0 01-.03-.25c-2.475-50.205-29.531-85.639-60.594-110.25-17.922-14.2-36.823-24.406-53.375-32.063z" style="text-indent:0;text-align:start;line-height:normal;text-transform:none;block-progression:tb;marker:none;-inkscape-font-specification:Sans" font-weight="400" color="#000" fill="#24682c" overflow="visible" font-family="Sans"/></g><use height="500" width="400" transform="matrix(-1 0 0 1 373.21 -8)" xlink:href="#a"/></g><g stroke-width=".994"><g transform="matrix(1.00626 0 0 1.00626 -1.8 -1.86)"><use xlink:href="#b" transform="matrix(-1 0 0 1 399.786 0)" width="400" height="500"/><g id="b" stroke-width=".994" stroke-miterlimit="4" stroke-dasharray="none"><path d="M2.286 394.397c7.31 8.414 20.934 23.441 43.43 35.201l23.543-10.515c-18.292-8.804-35.652-22.586-52.116-41.144z" fill="#e7b93c" stroke="#000"/><path d="M35.337 407.137c9.143 3.543 13.015 6.477 34.608 11.718l-13.715 19.2-25.83-20.8z" fill="#e7b93c" stroke="#000"/><path d="M18.36 429.139c16.504 12.748 36.097 27.49 71.15 41.025l15.204-25.82c-34.649-8.773-58.19-29.055-69.427-37.296z" fill="#e7b93c" stroke="#000"/><path d="M65.013 434.842c7.49 2.409 16.632 5.51 39.988 9.215l-9.18 19.795-30.697-16.066z" fill="#e7b93c" stroke="#000"/><path d="M51.92 446.597l9.395-15.082c-15.173-7.737-19.26-12.308-25.713-17.554l-10.631 14.34c8.072 6.706 16.9 12.907 26.949 18.296zM26.949 411.242l8.159-9.148c-8.506-5.686-13.898-11.373-17.801-17.06L8.9 393.689c5.161 6.99 10.915 13.19 18.048 17.554z" fill="#f8ce5c"/></g></g><path d="M49.77 459.614l13.38-23.957c51.335 26.239 95.984 36.313 136.193 36.313 40.21 0 84.858-10.074 136.193-36.313l13.381 23.957c-52.82 29.432-102.298 39.92-149.574 39.92-47.276 0-96.754-10.488-149.574-39.92z" fill="#e7b93c" stroke="#000" stroke-width="1.00022244"/><path d="M65.197 442.12l-8.648 15.44c50.445 27.195 97.563 37.042 142.794 37.042 45.231 0 92.35-9.847 142.794-37.043l-8.647-15.44c-50.105 24.909-94.264 34.78-134.147 34.78-39.882 0-84.041-9.871-134.146-34.78z" fill="#f8ce5c"/><path d="M78.491 452.528l-.125.283-.126.283.44.283c.23.156.543.41.692.566.477.5.606.072-1.572 5.125-2.123 4.93-1.984 4.657-2.516 4.686-.21.011-.443-.048-.88-.189l-.598-.188-.126.283-.094.283 5.251 2.264 5.283 2.295.032-.126c.025-.058.436-.776.88-1.603s.792-1.514.786-1.541c-.006-.027-.147-.117-.314-.189-.282-.12-.304-.129-.41-.031-.392.367-1.692 1.182-2.295 1.446-.425.187-.62.196-1.226.063-.404-.088-.729-.198-1.73-.629-.836-.36-1.304-.582-1.446-.692-.26-.2-.4-.523-.377-.786.011-.13.659-1.713 1.886-4.56 1.79-4.149 1.897-4.353 2.076-4.496.246-.195.56-.214 1.352 0l.597.157.126-.251.126-.283-2.862-1.227-2.83-1.226zm243.105.188a6.69 6.69 0 00-.754.095c-.478.094-.582.143-4.057 1.698l-3.553 1.572.126.283.126.283.566-.157c.718-.216 1.146-.23 1.383-.063.157.114.303.405 2.17 4.528 1.968 4.347 2.04 4.454 2.012 4.686-.038.328-.263.539-.912.911l-.566.315.126.283.126.283 2.924-1.32 2.862-1.29-.126-.283-.126-.283-.66.22c-.772.27-1.156.308-1.415.126-.154-.11-.267-.28-1.038-1.981l-.849-1.918 1.29-.566c1.139-.54 1.337-.687 1.76-1.007 1.783-1.343 2.47-2.988 1.887-4.622-.458-1.285-1.642-1.927-3.302-1.793zm-1.352 1.321c.716-.002 1.36.287 1.856.85.29.328.697 1.166.754 1.572.137.968-.322 1.907-1.258 2.578-.205.148-.604.358-1.132.597l-.817.378-1.132-2.516-1.132-2.484.912-.409c.5-.227 1.052-.427 1.226-.471.254-.065.485-.094.723-.095zm-13.899 4.623c-.068 0-.141.024-.314.094l-.346.157-.031.252c-.013.135-.08 1.746-.158 3.553-.216 5.094-.37 7.849-.44 8.239-.113.64-.555 1.218-1.258 1.635l-.346.22.126.283.095.283 2.578-1.038 2.547-1.037-.126-.283-.125-.283-.504.157c-.645.18-1.187.222-1.477.126-.209-.069-.239-.084-.315-.378-.092-.354-.149-1.255-.126-2.2l.032-.661 2.39-.975 2.39-1.006.251.22c1.237 1.19 2.091 2.022 2.138 2.138.105.258-.197.524-1.069 1.006l-.472.283.126.252.095.314 2.861-1.163 2.83-1.164-.126-.283-.125-.283-.283.095c-.719.201-1.457.068-1.919-.283-.16-.122-8.216-7.653-8.741-8.176-.052-.052-.09-.095-.158-.094zm-212.382.251c-1.157 0-2.31.25-3.334.818-.568.315-1.477 1.087-1.824 1.54-.64.84-1.173 2.127-1.32 3.145-.412 2.85 1.058 5.517 3.836 6.855 1.31.632 2.9.967 4.214.85 1.35-.121 2.728-.68 3.679-1.479 1.926-1.618 2.749-4.543 1.95-6.949-.746-2.245-2.84-3.867-5.157-4.497a7.724 7.724 0 00-2.044-.283zm.849.88c.182 0 .35.039.534.064.249.033.656.143 1.038.283.381.14.75.31.943.44.584.39.954.785 1.32 1.415.293.502.374.67.473 1.195.19 1.013.121 2.016-.22 3.207-.921 3.206-2.77 4.957-5.126 4.811-.61-.037-1.552-.315-2.107-.628-1.275-.722-2.007-2.003-2.075-3.617-.042-.984.173-1.863.691-3.207.413-1.07.643-1.541 1.164-2.201.883-1.12 2.09-1.754 3.365-1.761zm205.653 1.416l-2.83.912-2.83.88.094.283.094.283.66-.063c.91-.094 1.387-.049 1.636.158.494.409.486.396 1.698 4.15l1.1 3.46-.848-.535c-.469-.285-2.87-1.758-5.346-3.27l-4.497-2.736-2.012.629-1.981.628.094.283.094.284.346-.032c.474-.057 1.174-.027 1.54.063.367.09.657.253.913.566.171.215.269.506 1.383 4.025 1.309 4.13 1.319 4.182 1.132 4.717-.117.339-.415.6-1.163 1.006l-.535.283.095.283.094.283 2.862-.912 2.861-.912-.063-.283-.094-.283-.409.063c-.614.094-1.302.106-1.572.032-.336-.092-.646-.37-.912-.85-.188-.34-.4-.95-1.32-3.899l-1.101-3.522 5.754 3.522 5.755 3.49.408-.156.41-.126-1.542-5c-1.623-5.247-1.632-5.287-1.509-5.817.078-.338.397-.63 1.164-1.038l.566-.283-.095-.283-.094-.283zm5.975.409c.029-.014 3.64 3.356 3.773 3.521l.063.095-1.981.817c-1.098.446-2.022.794-2.044.786-.044-.014.144-5.2.189-5.22zm-202.446 1.132l-.095.314c-.088.265-.107.279 0 .315.255.084 1.141.731 1.415 1.037.33.368.456.728.44 1.258-.007.297-.178.756-1.289 4.025-1.134 3.343-1.267 3.727-1.446 3.962-.422.553-.767.652-1.887.503l-.597-.094-.095.283-.094.283 2.862.975 2.861.943.063-.283.094-.283-.597-.346c-.964-.56-1.212-.824-1.29-1.352-.083-.567-.005-.83 1.196-4.528.632-1.95 1.168-3.533 1.195-3.522.026.01 1.213 2.806 2.64 6.226l2.58 6.227.44.125.408.126 1.699-5c1.55-4.56 1.705-4.984 1.886-5.22.42-.544.717-.63 1.856-.471l.597.094.094-.283.095-.283-2.799-.943-2.83-.944-.094.283-.095.283.566.346c.828.478 1.132.711 1.227 1.038.177.61.159.652-1.07 4.402-.901 2.75-1.126 3.415-1.163 3.333-.025-.056-1.121-2.657-2.421-5.786l-2.359-5.691-1.98-.66-2.013-.692zm174.208 5.125c-.069-.005-.168.008-.346.063l-.378.126-.03.251c-.025.134-.237 1.73-.473 3.522-.696 5.302-1.023 7.722-1.132 8.145-.173.673-.622 1.175-1.383 1.54l-.378.19.095.282.094.315 2.61-.818 2.641-.817-.094-.315-.094-.283-.157.031c-.3.093-1.094.214-1.447.19-.184-.014-.425-.071-.503-.127-.128-.09-.148-.153-.189-.503-.04-.351.066-2.004.157-2.547l.032-.22 2.453-.755 2.484-.754.189.251c1.127 1.294 1.88 2.207 1.918 2.327.081.267-.19.477-1.1.88l-.473.22.063.284.063.314 2.956-.912 2.924-.88-.094-.315-.094-.283-.283.063c-.732.138-1.49-.05-1.918-.44-.147-.134-7.451-8.332-7.956-8.93-.047-.056-.089-.09-.157-.095zm-153.832 1.195c-.252 0-.515.01-.786.032-2.308.19-4.298 1.496-5.314 3.459-.311.6-.682 1.841-.723 2.515-.085 1.368.293 2.684 1.1 3.837.836 1.193 1.948 2.056 3.46 2.672.488.2 1.827.533 2.546.63 1.01.135 2.343.147 3.46.062l.314-.031.409-1.51c.451-1.715.537-1.883.912-2.044.258-.11.508-.118 1.163-.03l.44.062.063-.314.094-.315-3.081-.849-3.05-.849-.095.314-.094.283.692.283c.882.358 1.214.622 1.32.975.078.248.081.257-.283 1.573-.436 1.577-.387 1.478-1.226 1.572a5.488 5.488 0 01-3.553-.818c-1.564-1.003-2.342-2.803-2.139-4.905.063-.637.388-1.923.66-2.547.426-.973 1.12-1.87 1.825-2.39.428-.317 1.209-.694 1.698-.786.85-.16 2.054-.003 2.924.377.935.409 1.729 1.323 2.076 2.327.155.451.316 1.376.345 2.012l.032.315.409.094.408.126.283-1.226c.162-.667.432-1.588.566-2.076l.22-.912-.408-.094-.409-.126-.22.189c-.132.103-.266.199-.283.22-.017.021-.228-.094-.472-.283-.957-.742-1.736-1.14-2.956-1.478-.869-.24-1.57-.343-2.327-.346zm146.662 1.195l-6.226 1.447-6.195 1.478.377 1.603.378 1.635.346-.063.346-.094.094-.471c.198-.956.78-2.08 1.258-2.422.204-.145.373-.213 1.352-.471l1.132-.283 1.163 5c1.112 4.761 1.191 5.036 1.132 5.25-.118.434-.37.608-1.383.944l-.66.22.062.283.063.283 3.365-.786 3.365-.786-.063-.283-.063-.283-.346.031c-.192.026-.606.054-.912.063-.47.016-.6-.014-.818-.126a.977.977 0 01-.345-.314c-.078-.129-.488-1.662-1.29-5.094l-1.132-4.906 1.132-.251c1.287-.264 1.382-.254 1.918 0 .589.278 1.677 1.215 1.95 1.698.069.122.078.14.409.063l.346-.095-.378-1.635-.377-1.635zm7.012.535c.036-.012 3.435 3.82 3.46 3.899.012.042-.494.226-2.013.692-1.129.346-2.086.606-2.107.597-.042-.018.614-5.172.66-5.188zm-20.785 2.673l-.377.062-.41.063-.125.315c-.08.173-.177.312-.189.314a3.45 3.45 0 01-.503-.094c-.898-.23-1.496-.292-2.327-.22-2.252.195-4.118 1.659-4.34 3.396-.02.169.009.509.064.817.171.967.626 1.617 1.415 2.076.761.443 1.398.624 3.71.943.662.091 1.392.2 1.604.252.742.181 1.44.74 1.73 1.352.168.357.255.937.188 1.32-.116.67-.497 1.174-1.195 1.51-.45.217-1.837.46-2.327.409-1.443-.148-2.72-1.033-3.616-2.547l-.22-.409-.409.063-.44.094.252 1.132c.134.632.359 1.57.471 2.076l.189.912.409-.063.408-.063.158-.346.157-.346.503.126a9.74 9.74 0 002.138.22c1.054-.031 2.31-.369 3.145-.818 1.261-.678 2.147-1.854 2.264-2.987.05-.488-.104-1.384-.314-1.792-.324-.628-.862-1.12-1.573-1.415-.54-.225-1.67-.48-2.547-.598-1.132-.153-2.297-.357-2.673-.472-.676-.207-1.143-.548-1.415-1.006-.573-.968-.282-1.983.723-2.61.605-.377 1.63-.558 2.39-.409 1.1.216 1.849.812 2.705 2.202l.408.691.41-.063.377-.031-.19-1.132c-.108-.611-.296-1.51-.408-2.013l-.22-.911zm-114.336.188a7.977 7.977 0 00-1.666.315c-2.383.705-4.066 2.497-4.529 4.81-.434 2.175.12 4.125 1.604 5.63.98.993 2.295 1.708 3.805 2.044.545.12 1.857.207 2.579.188a16.793 16.793 0 003.27-.409l.472-.125.188-1.698.189-1.699.189-.188c.23-.236.51-.314 1.226-.346l.566-.031.031-.315.032-.283-3.176-.377-3.208-.378-.031.315-.031.346.597.126c.819.178 1.31.384 1.478.597.224.282.24.596.063 1.95-.187 1.424-.142 1.359-.85 1.572-.722.218-1.275.254-2.137.157-.905-.102-1.304-.218-2.044-.629-1.338-.742-2.17-2.085-2.422-3.9-.067-.484-.055-.706.063-1.76.116-1.055.139-1.273.315-1.761.722-2.003 1.985-3.133 3.773-3.396.395-.058.6-.048 1.29.031.689.08.873.115 1.194.252 1.322.562 2.072 1.595 2.516 3.396l.157.66.44.032.41.063.125-1.541c.074-.853.151-1.836.189-2.17l.094-.597-.44-.063-.41-.032-.22.252a3.25 3.25 0 01-.25.251c-.011.009-.237-.105-.504-.251-1.054-.578-1.89-.834-3.144-.975-.649-.073-1.234-.107-1.793-.063zm16.006 2.107c-2.472-.028-4.762 1.06-6.006 2.924-.7 1.048-.95 1.934-1.006 3.302-.085 2.03.594 3.69 2.044 5 1.042.942 2.19 1.475 3.93 1.761.777.128 2.1.056 2.988-.157a6.861 6.861 0 002.861-1.415c1.42-1.154 2.12-2.642 2.201-4.591.04-.955-.043-1.586-.314-2.39-.789-2.335-2.883-3.952-5.629-4.34a8.385 8.385 0 00-1.07-.094zm84.274.472l-3.302.377-3.27.377.031.283.063.283.566.063c1.258.09 1.601.222 1.73.724.036.147.29 2.33.566 4.874.498 4.596.486 4.621.377 4.78-.202.29-.515.44-1.29.597l-.691.157v.283l.031.314 3.27-.377 3.302-.377-.031-.283-.031-.315h-.504c-.973-.004-1.448-.13-1.666-.471-.084-.13-.197-1.007-.63-4.843-.327-2.923-.495-4.756-.47-4.874.083-.402.422-.617 1.446-.849l.566-.126-.032-.283-.031-.314zm-83.991.314c.618.03.813.06 1.195.189.688.233.996.438 1.54.943.427.395.539.535.787 1.006.632 1.203.852 2.755.66 4.466-.218 1.949-.825 3.246-1.98 4.088-.479.348-.849.507-1.479.66-.574.14-1.55.168-2.17.031-1.764-.389-2.917-1.774-3.301-3.93-.12-.675-.092-2.522.063-3.302.155-.786.399-1.468.723-2.044.618-1.1 1.684-1.874 2.893-2.075a6.162 6.162 0 011.069-.032zm75.846.723l-2.39.19-2.39.188-.03.126c-.134.741-.446 1.644-1.762 5.22-.834 2.268-1.518 4.158-1.54 4.182-.022.023-1.14-1.978-2.485-4.434l-2.452-4.465-2.485.22-2.515.188.031.283.032.315h.44c.87.049 1.36.264 1.698.755l.22.346.314 3.962c.397 4.8.407 4.958-.094 5.471-.28.286-.571.399-1.352.566l-.44.094.031.283.032.315 2.924-.22 2.956-.252-.032-.283-.03-.314h-.252c-.483-.03-1.406-.258-1.604-.378-.222-.133-.43-.385-.598-.754-.098-.216-.157-.853-.471-4.654-.224-2.693-.35-4.4-.315-4.403.031-.002 1.32 2.32 2.862 5.189l2.798 5.22.283-.031.252-.032 1.038-2.736c2.48-6.547 3.126-8.17 3.207-8.175.07-.005.14.704.44 4.56.261 3.34.324 4.66.283 4.81-.032.122-.141.28-.283.41-.268.245-.51.315-1.352.44l-.534.094.031.314.031.283 3.24-.251 3.238-.252-.031-.283-.032-.315-.597-.03c-.709-.042-1.117-.198-1.32-.473-.126-.162-.147-.375-.504-4.937l-.377-4.78.126-.25c.154-.31.365-.424 1.163-.598l.66-.126-.031-.315-.031-.283zm-66.538.126l-.032.283-.031.346.44.063c.247.062.565.24.755.346.276.156.39.22.472.409.1.233.084.28-.472 5.094l-.535 4.842-.188.158c-.23.203-.621.287-1.352.251l-.504-.031-.031.283-.031.314 3.679.378c3.537.38 3.669.387 4.308.346 1.724-.112 3.206-.517 4.308-1.258a5.416 5.416 0 002.232-3.05c.17-.6.248-2.028.158-2.61-.378-2.419-2.11-4.149-5.126-5.095-.5-.156-.774-.214-4.308-.629l-3.742-.44zm4.025 1.195l1.415.157c1.566.202 1.844.276 2.641.724 1.538.863 2.423 2.3 2.61 4.15.061.648-.096 2.107-.314 2.8-.672 2.125-2.094 3.256-4.245 3.364-.547.027-1.724-.085-2.139-.22-.508-.166-.842-.402-.974-.724l-.095-.283.566-5 .535-4.968zm29.118.157v.598l.503.094c.666.115 1.082.305 1.258.598l.126.251v3.93c-.008 4.372-.015 4.4.377 5.095.627 1.108 2.031 1.859 3.868 2.107 1.328.18 2.74.027 3.868-.409 1.021-.394 1.79-1.014 2.233-1.792.145-.257.304-.582.346-.724.053-.183.089-1.302.125-3.93.053-3.808.068-4.057.315-4.466.214-.354.685-.546 1.572-.66l.472-.063v-.597h-6.006v.597l.283.032c.519.063 1.197.256 1.51.408.23.113.34.198.44.378.316.573.325.675.345 4.182.018 2.865.025 3.343-.063 3.71-.28 1.187-1.19 2.023-2.515 2.328-.557.127-1.648.128-2.296.03-1.034-.154-1.802-.636-2.232-1.383-.404-.7-.405-.723-.378-5.125.024-3.877.002-3.945.126-4.088.182-.211.495-.309 1.195-.409l.597-.094v-.566l-3.018-.032h-3.05zm-14.276.032v.597l.283.032c.734.093 1.34.463 1.824 1.069.437.547 2.96 4.498 3.428 5.377l.22.44v1.761c0 1.651-.014 1.763-.126 1.95-.209.347-.58.491-1.667.566l-.503.031v.598h6.855v-.598l-.346-.031c-.532-.053-1.278-.225-1.51-.346a1.047 1.047 0 01-.345-.315c-.117-.196-.113-.3-.094-2.012l.031-1.792.157-.284c.087-.17.587-.983 1.132-1.792 1.605-2.379 2.656-3.738 3.176-4.088a3.8 3.8 0 011.227-.503l.283-.063v-.597h-5.094v.597l.597.063c.91.088 1.352.282 1.352.598 0 .278-.599 1.17-2.452 3.742-.467.647-.885 1.155-.912 1.132-.149-.128-2.79-4.221-3.082-4.78-.12-.229-.112-.317-.063-.409.085-.158.542-.273 1.29-.314l.597-.032v-.597h-6.258z" fill="#34201f"/></g><path d="M163.399 54.24l-5.031.093 1.132 52.263c.476-.462.977-.933 1.509-1.415.418-.38.966-.669 1.572-.723.607-.055 1.244.118 1.793.754.054.063.114.144.157.22l-1.132-51.193z" style="text-indent:0;text-align:start;line-height:normal;text-transform:none;block-progression:tb;marker:none;-inkscape-font-specification:Sans" font-weight="400" color="#000" fill="#d6b14d" stroke="#000" overflow="visible" font-family="Sans"/><path d="M154.782 96.459c-.809-6.352 1.115-11.54 1.773-15.28 1.938-.254 2.98.91 2.533 4.429z" fill="#492728" stroke="#000"/><g stroke-width=".994"><path d="M221.283 424.762c-.863-26.043 16.165-53.4 5.71-77.268 0 0 2.366-6.236 2.664-9.516.241-2.652-.732-7.955-.732-7.955.936-4.088 2.094-7.081 3.53-13.341 2.154-9.39 5.741-21.449 6.335-33.908.761-15.97-2.324-31.161-4.994-47.503l-56.24-3.323c-9.218 7.437-15.257 35.353-19.35 55.413-3.368 16.51-3.092 34.276-3.531 49.716-2.611 3.573-4.356 6.389-4.466 11.655-2.339 5.018-4.254 10.352-5.001 15.837-1.675 12.298-.14 27.088.743 40.434.686 10.369 1.34 18.747 1.34 18.747s-3.96 2.439-5.924 4.287c-4.109 3.866-6.528 10.417-11.163 13.634-2.274 1.578-5.697 1.948-8.216 3.095-2.642 1.203-3.036 3.217-3.036 3.217-.6 2.877 4.278 4.792 10.214 5.803 4.723.805 4.756-1.603 6.756-1.757 2-.155 4.482.212 6.28-.711 7.122-3.657 5.803-6.851 9.674-8.814 1.986-1.007 4.148-.263 5.925-1.606 1.998-1.51 3.015-3.401 3.244-5.895.244-2.662-.507-7.919-.507-7.919s1.41-2.537 1.877-4.168c.728-2.54-.287-5.28-.12-7.918.937-14.794 6.963-28.968 7.919-43.76.359-5.553-.834-16.671-.834-16.671 5.9-4.911 7.127-9.8 6.668-17.504 10.294-17.229 17.744-38.188 17.505-50.846l3.435-16.67 3.014 1.339s-1 39.748 2.679 58.935c.831 4.337 1.76 7.82 3.013 12.055.746 2.519 1.128 4.526.962 7.148-.794 12.597-7.21 17.552-5.315 33.705.459 3.906 1.953 8.113 2.928 13.265 1.87 9.874 3.77 23.569 3.77 23.569-3.57 4.573-.112 8.254.683 9.386 0 0 .237 1.56 0 2.283-.734 2.243-2.809 2.377-3.227 4.99-.844 5.277 4.923 4.982 6.815 7.67 1.655 2.353.99 3.446 1.981 4.97 1.138 1.75 1.836 2.556 4.807 3.162 1.236.789 2.451 2.297 3.807 2.448 5.083.563 10.604-1.588 13.603-5.73 1.613-5.473-1.684-5.225-4.752-8.335-3.193-2.898-4.77-5.272-6.683-8.953-.698-1.343-3.22-5.35-3.79-6.692z" fill="#492728" stroke="#000" stroke-width="1.00022244"/><path d="M172.878 247.654c-14.193 33.372-15.388 51.174-9.95 80.947-1.857.923-3.71-5.642-5.567-10.471-.573 4.664-.255 18.463 1.384 20.66 0 0-3.52 2.553-3.9 4.307-.373 1.725-.19 4.283 1.196 6.321 1.413 2.08 3.747 2.35 6.226 2.767 2.456.414 5.232-.425 7.2-1.95 2.09-1.617 3.17-4.357 3.932-6.886.995-3.306-.23-6.968.691-10.346 1.077-3.944 5.535-8.205 5.535-16.068v-17.83c3.555 5.462 3.365 11.653 2.956 18.05 1.965-6.693 3.74-9 5.706-20.417l-4.59-.315-.315-1.635h-3.616l-5.322-2.61s-.123-15.527-.246-22.537c-.134-7.65.454-20.698.454-20.698zm49.786 28.373l.346 3.554-2.138 1.037-.346 12.072s-.037 1.967-.723 2.485c-.848.64-5.608 1.042-5.608 1.042s-1.343 1.153-2.779 1.599c-2.33.724-7.327-.157-7.327-.157.263 9.367-.115 24.395 6.918 35.313 2.372 3.682 1.516 8.876 4.969 11.572 1.116.872 2.762.765 4.056.189 1.451-.646 2.607-2.04 3.176-3.522.677-1.764.462-3.829 0-5.66-.426-1.69-2.011-2.945-2.484-4.623-.577-2.048-.346-6.383-.346-6.383l2.484 2.452c5.805 5.712 7.524-13.109 10.252-20.848-2.358 3.908-4.483 8.102-8.837 10.629 7.378-13.913 10.546-25.637 10.975-40.75 0 0-3.748.857-6.424.817-2.077-.031-6.164-.818-6.164-.818zm-17.946 49.587s.087 2.673 1.478 8.364c1.143 4.675 4.19 10.204 4.591 15 .222 2.645-.42 5.297-.975 7.893-1.177 5.52-4.158 9.373-4.622 15-.29 3.507.198 7.048.692 10.533 1.297 9.166 3.23 17.69 4.528 26.855.493 3.485.12 7.332-.377 10.817-.164 1.147-1.678 1.896-.912 4.56.21.734 1.13 1.054 1.54 1.698.57.893 1.264 1.865 1.258 2.924-.007 1.29-.815 2.488-1.54 3.553-.696 1.022-2.614 1.715-2.862 2.925-.223 1.084.198 2.763 1.258 3.082 1.556.468 2.626-2.706 4.213-2.359 1.576.345 2.05 1.898 2.453 3.46.45 1.741-.574 3.626-.157 5.376.325 1.365.991 2.75 2.012 3.71.62.584 1.618.6 2.327 1.07 1.154.763 1.791 2.272 3.082 2.767.72.276 1.764.559 2.296 0 .709-.745.269-2.145-.158-3.081-.768-1.687-3.993-3.837-3.993-3.837s4.17 1.295 5.408 2.925c.83 1.091.912 3.993.912 3.993 1.08.07 1.48.375 2.559-1.226 0 0 .074-2.165-.546-3.082-.836-1.234-3.239-3.081-3.239-3.081s2.752.78 3.9 1.876c.964.92 1.583 3.553 1.583 3.553 1.188-.045 1.572-.36 1.604-1.562 0 0-.905-2.217-1.698-3.081a56.758 56.758 0 00-2.15-2.17s1.983.963 3.213 1.77c1.11.729 2.537 3.606 2.537 3.606s.44-2.467 0-3.395c-1.394-2.937-4.569-4.615-6.694-7.075-2.816-3.262-4.097-7.594-6.603-11.1-.777-1.088-2.61-3.05-2.61-3.05s.378-8.212.975-12.264c1.276-8.663 3.825-17.072 5.534-25.66 1.359-6.828 2.941-13.985 3.176-20.943.099-2.914-.377-5.863-1.006-8.71-.809-3.66-2.956-10.251-2.956-10.251s2.943-6.425 3.176-9.874c.153-2.268-1.195-6.73-1.195-6.73l-1.195-.408s-.581 2.63-.566 3.962c.018 1.537.889 3.026.786 4.56-.175 2.618-3.176 8.49-3.176 8.49s1.618 14.275 1.573 21.917c-.034 5.67.266 11.715-1.164 17.2-.409 1.568-1.792 4.12-1.792 4.12.39-23.014-.912-29.36-1.981-41.665 0 0-4.393-1.053-5.912-2.579-1.062-1.065-1.386-2.702-1.793-4.15-.502-1.794-.1-2.408-.754-4.151-.552-1.47-1.097-2.444-1.981-3.742-1.596-2.34-4.057-8.333-4.057-8.333zm-51.696 22.735c-8.357 9.593-5.643 50.405-3.082 75.94 0 0-5.365 3.12-7.641 5.19-3.426 3.114-5.675 8.03-8.868 11.383-1.254 1.317-2.431 2.11-4.025 2.987-2.437 1.34-6.038.893-8.176 2.673-.817.68-1.257 2.39-1.257 2.39s1.456-1.505 2.452-1.824c1.117-.358 3.554-.535 3.554-.535s-2.479.817-3.46 1.572c-.53.41-1.207 1.08-1.037 1.73.156.598 1.014 1.099 1.604.912.605-.192.353-1.297.817-1.73 1.022-.95 4.12-1.792 4.12-1.792s-2.627 1.434-3.334 2.484c-.285.425-.596 1.063-.345 1.51.415.74 1.674 1.19 2.42.786.664-.359.124-1.56.567-2.17.83-1.145 3.365-1.792 3.365-1.792s-1.667 1.132-2.202 2.232c-.272.562-.216 1.333.126 1.855.56.857 1.508.868 2.516.692 1.886-.328 2.967-2.38 4.842-2.767 1.6-.33 3.366.27 4.874-.314 4.151-1.611 4.103-7.68 7.642-9.874 2.009-1.246 5.146-.187 6.95-1.415 1.45-.989 2.44-2.771 2.766-4.497.52-2.757-.723-7.264-.723-7.264 3.277-4.59 1.825-8.96 2.359-14.056.516-4.423 1.325-10.936 2.138-15.314 2.016-10.861 4.819-19.471 5.408-30.502.22-4.1-.345-12.327-.345-12.327l-3.428 1.384s-.286 3.405-1.163 4.874c-.864 1.445-2.376 1.59-3.302 2.641-2.111 2.395-4.154 15.607-3.805 23.647.274 6.327 1.165 12.757 1.76 19.276-3.517-6.27-4.785-14.263-4.716-22.074.114-12.953 3.888-25.398 7.107-28.71 0 0-3.562-1.627-4.78-3.082-.952-1.136-1.698-4.12-1.698-4.12z" fill="#5b3132"/><path style="text-indent:0;text-align:start;line-height:normal;text-transform:none;block-progression:tb;marker:none;-inkscape-font-specification:Sans" d="M160.82 352.94c.161.593.238 1.417.315 2.327.153 1.819.198 3.969.251 5.597.149 4.503-.862 9.183-.817 14.088.01 1.149.251 3.05.251 3.05-.005 1.746 2.696 2.168 2.485-.283 0 0-.213-1.99-.22-2.799-.042-4.524.98-9.229.817-14.15-.053-1.6-.088-3.782-.251-5.723-.082-.971-.173-1.854-.346-2.642-.556.64-2.741-.272-2.485.535z" font-weight="400" color="#000" fill="#e4be58" stroke="#000" overflow="visible" font-family="Sans" stroke-width="1.00022244"/><path style="text-indent:0;text-align:start;line-height:normal;text-transform:none;block-progression:tb;marker:none;-inkscape-font-specification:Sans" d="M149.846 347.531c-.997.345-1.552 1.132-1.258 2.768 5.797 2.658 13.556 7.02 24.936 3.018.959-.703.918-2.828-.974-2.861-10.361 3.643-16.687-.165-22.704-2.925zM219.868 350.767c-.161.593-.238 1.417-.315 2.327-.153 1.818-.198 3.969-.251 5.597-.149 4.502.862 9.183.817 14.087-.01 1.15-.251 3.05-.251 3.05-.44 1.826-2.863 1.216-2.485-.282 0 0 .213-1.99.22-2.799.042-4.525-.98-9.229-.817-14.15.053-1.6.088-3.782.251-5.724.082-.97.173-1.854.346-2.641.535.657 2.741-.273 2.485.535z" font-weight="400" color="#000" fill="#e4be58" stroke="#000" overflow="visible" font-family="Sans" stroke-width="1.00022244"/><path style="text-indent:0;text-align:start;line-height:normal;text-transform:none;block-progression:tb;marker:none;-inkscape-font-specification:Sans" d="M227.516 346.714c-4.885 2.77-9.715 4.091-20.722.251-1.19.522-1.755 1.778-.975 2.862 11.512 4.016 17.864 2.527 23.207-.503.328-1.332.055-2.33-1.51-2.61zM163.151 351.933c-.173-.787-.166-.996-.853-1.634-.656-.612-1.537-.966-2.358-.787h0c-.82.18-1.36.714-1.73 1.227-.739 1.024-1.034 2.202-1.195 2.893-1.59 6.845.62 13.74-.031 20.44-.048.499-.312 1.535-.566 2.358-.254.823-.503 1.446-.503 1.446-.33 2.089 1.957 1.63 2.358.88 0 0 .26-.716.535-1.603.274-.887.57-1.909.66-2.83.716-7.365-1.41-14.192-.031-20.125.11-.474.844-2.345 1.425-2.329z" font-weight="400" color="#000" fill="#e4be58" stroke="#000" overflow="visible" font-family="Sans" stroke-width="1.00022244"/><path style="text-indent:0;text-align:start;line-height:normal;text-transform:none;block-progression:tb;marker:none;-inkscape-font-specification:Sans" d="M217.69 349.134c.144-.352.353-.686.7-1.009.656-.61 1.537-.966 2.358-.786h0c.82.18 1.36.714 1.73 1.226.739 1.025 1.034 2.203 1.195 2.893 1.59 6.846-.62 13.741.03 20.44.05.5.313 1.535.567 2.358.254.823.503 1.447.503 1.447.487 1.573-1.198 2.274-2.358.88 0 0-.26-.716-.535-1.603-.274-.888-.57-1.91-.66-2.83-.716-7.366 1.41-14.192.031-20.126-.476-2.062-1.598-2.508-3.562-2.89z" font-weight="400" color="#000" fill="#e4be58" stroke="#000" overflow="visible" font-family="Sans" stroke-width="1.00022244"/><path style="text-indent:0;text-align:start;line-height:normal;text-transform:none;block-progression:tb;marker:none;-inkscape-font-specification:Sans" d="M231.478 443.66c3.185 1.54 4.04 4.88 2.736 7.044l.723.063c1.65-2.22.776-7.092-3.459-7.107zm-2.232 1.635c3.184 1.54 4.04 4.88 2.735 7.044h.912c1.65-2.22.587-7.029-3.647-7.044zm-106.223.975c-1.522.02-2.512.916-2.925 1.604-.42.703-.715 1.679-.44 2.578.144.471.76.597 1.29.975l.345-.44c-.842-.74-.837-1.912-.408-2.641.428-.73 1.342-1.735 2.83-2.013a4.434 4.434 0 00-.692-.063zm103.298.189c3.185 1.54 4.04 4.879 2.736 7.044l.85.125c1.649-2.22.649-7.154-3.586-7.17zm-4.088.597c3.185 1.54 4.04 4.88 2.736 7.044l.85.535c1.649-2.22.649-7.564-3.586-7.579zm-97.072.032c-1.521.02-2.512.915-2.924 1.603-.421.703-.716 1.68-.44 2.579.144.47.759.596 1.289.975l.346-.44c-.842-.741-.837-1.912-.41-2.642.429-.73 1.344-1.735 2.831-2.012a4.434 4.434 0 00-.692-.063zm2.579.817c-1.934-.026-3.003 1.17-3.365 2.013-.236.549-.4 1.224-.314 1.887.092.72.604.795 1.478 1.257l.44-.22c-.933-.622-1.082-1.767-.755-2.547.327-.78 1.079-1.916 2.516-2.39zm3.207.41c-1.934-.027-3.003 1.17-3.365 2.012-.492 1.146-.638 2.886 1.038 3.773l.566-.849c-.933-.622-1.081-1.767-.755-2.547.327-.78 1.08-1.916 2.516-2.39z" font-weight="400" color="#000" overflow="visible" font-family="Sans"/></g><g stroke-width=".994"><path d="M179.34 239.778s-.859 4.074-1.025 6.143c-1.097 13.676.205 41.159.205 41.159.366 1.67-.391 3.314 6.143 1.843v2.047s.402.771 1.434.615c2.092-.318 6.347 0 6.347 0s2.273.976 3.482 1.023c1.324.052 3.89-.819 3.89-.819s2.626 1.595 4.096 1.638c1.294.038 3.685-1.228 3.685-1.228s4.23 1.07 6.348.819c2.16-.255 2.662-1.843 2.662-1.843l.205-13.72c1.67-.582 1.532-1.527 1.753-2.4l1.114-19.305 5.529-1.638-.205-12.696z" fill="#961f06" stroke="#000" stroke-width="1.00022244"/><path d="M180.16 240.397l-.63 5.723.22 38.898s.02 1.742.598 2.264c.308.278.843.227 1.258.22 1.044-.017 2.018-.79 3.05-.629.694.108 1.855 1.038 1.855 1.038v-40.345l.818-4.717-2.453-1.037-1.038 5.125v37.672c.061.86-1.689.452-1.635-.189l-.409-36.256.818-6.95-2.453-.817zm9.213 2.861l-.63 4.497.19 38.93c-.33 1.987-.055 2.035.157 2.578 1.165-.05 1.88-.426 3.553.692l-.188-42.2.188-3.68-3.27-.817zm5.251.377v5.535l.157 40.564 2.327 1.227 2.296-1.07-.126-45.186 1.981.314.315 45.187 2.327.598 3.081-.912 1.761.786.378-15.912c.238-1.589.356-3.466 1.383-3.081l.315 19.433 2.327-.472.157-10.156 1.698-1.227-.157-8.018 2.138-2.485V252.41l2.484-6.32-2.924.156-1.258.315v7.861l-1.981 3.868-.157 18.804c.215 1.37-.116 2.314-1.541 2.453l-.157-21.886 2.012-5.094-.314-7.704-3.868-.157v18.678l-1.855 1.981.157 3.868-.283 16.194s-.343 2.015-1.1 1.982c-1.174-.053-.598-2.768-.598-2.768l.126-20.66 1.1-3.678.315-16.667h-12.516z" fill="#ad2407"/><path d="M180.757 241.34l-.535 4.78h.032l.22 38.898s-.006.373.063.817c.068.444.282.912.283.912-.027-.024.323.04.786.032.35-.006.769-.134 1.289-.315.52-.181 1.135-.395 1.855-.283.418.065.723.283 1.038.472v-39.087a.71.71 0 01.031-.126l.724-4.15-1.164-.472-.817 4.12v37.67h-.032c.002.434-.286.909-.629 1.07-.358.168-.694.15-1.006.094-.312-.055-.61-.146-.88-.346a1.25 1.25 0 01-.504-1.006h-.031l-.409-36.257a.71.71 0 01.032-.094l.754-6.383-1.1-.346zm9.37 3.082l-.44 3.333.189 38.93a.928.928 0 01-.031.157c-.155.931-.15 1.318-.126 1.477.324-.035.612-.094 1.038-.062.273.02.638.25.943.345l-.189-40.847a.928.928 0 01.032-.063l.157-2.893-1.572-.377zm5.566.283v4.465l.158 39.904 1.289.692 1.195-.566-.126-44.495h-2.516zm6.604 0a1.08 1.08 0 01.031.314l.315 44.338 1.226.315 2.799-.818a1.08 1.08 0 01.755.063l.283.126.03-1.667c-.068.128-.09.247-.188.377-.249.33-.745.754-1.415.724-.712-.032-1.3-.608-1.51-1.1-.208-.494-.25-.933-.25-1.353a8.66 8.66 0 01.157-1.604l.125-20.44a1.08 1.08 0 01.032-.314l1.069-3.585.283-15.376h-3.742zm8.05 1.1v17.578a1.08 1.08 0 01-.283.723l-1.54 1.667.125 3.428a1.08 1.08 0 010 .062l-.063 2.736c.113-.339.22-.687.566-1.006.313-.288.85-.288 1.32-.252l-.094-13.08a1.08 1.08 0 01.063-.41l1.95-4.905-.283-6.447-1.761-.094zm7.484 1.447l-1.132.063h-.094l-.252.062v3.648l1.478-3.773zm-1.918 8.333l-1.541 3.018-.094 11.667 1.635-1.918v-12.767zm-3.68 24.873c-.17.046-.324.138-.502.157l.125 9.182.22-.063.158-9.276z" fill="#c32807"/></g><path d="M177.328 200.46c-1.428.981-4.152 15.053.303 18.06-3.579 4.24-5.844 10.295-4.856 17.606.585 2.349 1.544 2.972 2.543 3.693 9.153 6.6 34.32 8.583 50.576 6.779 7.527-5.581 12.746-14.042 7.589-22.462 3.182-3.093 3.136-15.416-.456-15.784z" fill="#961f06" stroke="#000"/><g transform="matrix(1.00626 0 0 1.00626 -190.156 -254.276)" stroke-width=".994"><path d="M409.24 501.229c-4.479 4.52-6.1 9.775-7.843 13.122 1.375 1.372 2.9 1.085 4.676-1.96z" fill="#492728" stroke="#000"/><path d="M421.325 465.069c.12-3.686 1.918-6.38 3.513-9.06 1.909-3.209 3.01-7.816 3.603-11.844 1.96 3.925 4.117 10.524 10.464 18.557 0 0-3.404 3.493-4.185 4.604-6.784 9.653-21.07 26.092-21.07 26.092-6.747 6.382-9.978 14.362-8.79 25.255.24 2.731 1.946 4.466 4.186 2.79.702 2.992 3.6 3.426 5.163 1.256 1.7 1.812 4.13 1.644 4.967-.962 2.887 2.293 6.95-.736 5.72-4.432 0 0-1.843.908-2.544.6-1.614-.711-1.27-3.398-1.231-4.753.088-3.124 3.135-6.08 3.406-9.193.147-1.688-.763-4.21-.763-4.21s13.69-7.793 20.01-12.837c5.755-4.594 14.893-10.293 15.292-19.256.066-1.476-.924-4.175-.924-4.175-2.219-5.433-12.517-33.13-11.863-39.814.888-9.081-2.684-16.222-11.85-19.968-6.775-1.433-17.138.277-23.34-8.1-2-2.7.194-13.612.823-18.084l-30.485 5.23c-4.038.694-.539 8.881-2.29 11.566-.83 1.272-3.289 1.532-4.802 1.413-4.152-.327-8.498-1.474-13.517-.805-3.124.416-6.165 1.735-8.8 4.76-3.675-2.34-9.389-2.753-13.501.256 0 0 .914-3.75 1.161-5.574.702-5.175-1.04-11.794-2.028-18.28-.988-6.485-.294-12.373-.294-12.373 5.265.765 7.38-2.669 11.611-6.503.832-.753 2.282-1.225 3.371.04.724.84.348 3.017.348 3.017-.041.389 3.711-.214 3.812-4.252.035-1.38-1.237-2.61-1.237-2.61 2.446-1.265 3.017-3.245.057-5.755 2.193-1.372 2.374-3.912-.313-5.528 2.38-2.467-.339-4.991-3.958-4.587-1.95.217-8.516 2.563-9.34 3.447l-9.56 10.25c-1.657 1.776-5.807 7.893-6.201 10.308-1.777 10.88-4.622 21.76-5.406 32.641-.367 5.092-.282 10.184.574 15.275 1.407 2.839 4.291 5.3 8.033 7.205 7.58 3.859 21.98 5.431 28.366 3.214.993 5.639 2.512 9.515 6.485 13.263-1.885 9.345.943 17.54 1.94 22.57 9.001 6.613 29.72 13.046 55.387 9.346z" fill="#492728" stroke="#000"/><path d="M351.45 338.472c-2.336.15-8.18 2.593-8.937 3.438l-9.469 10.593c-1.62 1.808-4.918 7.867-5.312 10.282-1.777 10.88-3.53 20.307-4.313 31.187-.367 5.092.425 7.002 1.281 12.094 3.628 7.19 22.092 13.526 29.657 6.469.988-1.223 1.765-2.693 3.406-2 1.025.433 2.441 2.155 2.469 2.468-.152 5.186 2.308 16.352 13.75 21.157-1.487 2.386-6.51 2.264-6.844 2.812-.905 6.862.911 11.924 1.75 16.15 8.853 5.286 21.14 10.851 47.031 10.1-.022-3.793 2.008-5.01 3.906-9.094 1.244-2.675 2.173-4.277 2.563-6.625-2.912-.12-3.453 4.279-7.844 3.594.883-1.472 1.735-2.971 1.719-5.344-7.031-2.14-11.145-6.112-8.063-6.125 13.077-.054 16.667-5.953 18.032-18 .1-.89 1.859-2.226 2.78-2.406 1.647-.32 2.927 1.417 2.782 4.25-.771 15.117-2.724 15.997 9.5 39.813 0 0-4.531 3.482-5.312 4.593-6.784 9.653-21.47 26.813-21.47 26.813-6.747 6.382-9.312 10.889-8.124 21.781.24 2.732 1.114 4.278 2.844.219 1.204 4.324 2.562 4.793 4.125.75 1.359 4.536 3.952 3.516 3.937-.281 2.015 5.335 7.918 4.336 7.047.998 0 0-1.831.565-2.532.257-1.614-.71-2.928-4.057-2.89-5.412.088-3.123 3.135-6.074 3.406-9.187.147-1.688-2.468-6.094-2.468-6.094s14.018-7.909 20.25-13.062c6.865-5.678 15.1-10.85 15.5-19.813.065-1.476-.25-2.969-.25-2.969-2.219-5.433-11.28-31.69-10.625-38.375.888-9.081-3.5-15.793-13.188-17.843-3.32-.703-12.212 4.438-14.812 3.687-.05-2.667 6.876-5.815 6.25-5.812-1.762.008-11.225 1.87-14.188-7.532 0 0-3.607 2.176-5.531 4.688-2.1 2.743-4.82 8.524-8 8.969-2.665.372-3.724-.733-6.182-2.203-2.484-1.486-6.564-2.558-8.813-4.38-1.779-1.442-3.156-5.36-3.156-5.36-.875.47-2.062-.72-2.787-.776-4.152-.327-8.48-1.481-13.5-.813-3.123.417-7.233 3.55-8.03 7.188-2.287-3.477-9.05-4.964-13.188-2.188-2.133 1.43-3.016 4.826-4.032 6.782-.59 1.138-1.82 1.253-2.5 1.75 0 0-.297-2.14.563-4.97 1.2-3.949 3.668-9.062 3.812-10.124.702-5.176-1.418-13.608-2.406-20.094-.988-6.485-1.281-13.594-1.281-13.594 5.266.765 10.581-2.697 14.812-6.53.832-.754 2.668-.411 4.188.28 1.13.515 2.125 3.844 2.125 3.844s1.297-1.36.055-3.834c-.966-1.924-4.576-3.12-4.576-3.12 4.688.747 5.562-.62 5.765-1.505.202-.884-2.726-2.125-5.811-2.8 3.26-.128 5.652-1.136 5.455-2.15-.373-1.92-2.793-1.97-5.603-2.778 3.57-1.156 3.956-1.926 3.893-2.583-.063-.657-.743-1.089-2.21-1.23a2.535 2.535 0 00-.406 0zm55.907 59.375c.518 2.077.898 4.213 1.937 6 .771 1.326 2.92 1.746 3.719 3.219 0 0-1.178 1.27-1.813 1.344-1.102.128-3.312.187-4.25-.407-.993-.628-1.599-1.352-1.968-2.468-.35-1.057-.36-3.038-.125-4.125.247-1.143 2.5-3.563 2.5-3.563zm-31.594.563s1.1-.036 1.062.812c-.113 2.54 4.458 6.421 5.782 6.344 1.323-.077 2.795 1.159 3.03 1.312 0 0-1.793 1.022-2.374 1.188-1.074.307-3.722-.372-4.719-.875-.979-.494-1.687-1.477-2.156-2.469-.388-.82-1.467-4.557-1.25-5.437.087-.353.625-.875.625-.875z" fill="#5b3132"/><path style="text-indent:0;text-align:start;line-height:normal;text-transform:none;block-progression:tb;marker:none;-inkscape-font-specification:Sans" d="M406.949 398.008c-.222 1.39-.59 3.67.22 5.808.405 1.069 1.038 2.042 2.031 2.687.994.645 2.32.93 3.97.657.36-.334.517-.667-.157-1-1.463.242-2.482-.002-3.25-.5-.768-.499-1.303-1.256-1.656-2.188-.707-1.864-.635-4.3-.438-5.531-.452-.887-.513-.146-.72.068zm-66.686.37c-1.698.627-6.73 5.114-5.031 8.75.564-3.881 2.423-6.453 5.437-7.843zm37.656 6.75c1.13 1.01 2.664 1.447 4.094 1.563 1.376.106 1.985-.713.687-1.094-.234.003-.528.1-.593.094-1.28-.104-2.6-.55-3.532-1.313-.844-.69-1.59-2.262-1.82-2.58-.552.752.136 2.411 1.164 3.33zm53.063-2.312a16.076 16.076 0 00-2.063.125c-2.717.326-5.148 1.265-6.625 2.375l.594.812c1.262-.948 3.598-1.88 6.156-2.187 2.558-.307 5.34.004 7.594 1.344l.5-.875c-1.88-1.118-4.05-1.576-6.156-1.594zm-74.657 9.187l.688 7.938v.031c1 5.686 2.604 9.709 6.656 13.531v.032l.031.03c1.407 1.071 2.338 1.359 4.094 1.344-.887-1.093-2.567-1.45-3.469-2.125l-.03-.03c-3.861-3.657-5.3-7.35-6.282-12.907v-.031c-.77-1.899.008-8.377-1.688-7.813zm73.25 10.157c-1.472-.413-.544 6.814-2.03 11.5h-.126c.005.153 0 .273 0 .406-.343.994-.752 1.902-1.25 2.719-4.274 6.267-11.029 4.088-11.187 5.78 5.788.544 9.751-1.514 12.03-5.25.112-.181.21-.372.313-.562.033 1.366.286 3.603 1.188 8.594l1-.156c-1.608-8.898-1.114-8.861-1.094-10.969 1.13-3.356 1.439-7.482 1.156-12.062z" font-weight="400" color="#000" overflow="visible" font-family="Sans"/><path id="c" d="M391.366 417.529c-.385.342-.49.667-.569 1.505-.08.838.157 1.367.84 1.938.585.253 1.183.13.843-.59-.175-.37-.727-.607-.666-1.254.061-.648.177-.79.367-1.178.446-.908-.633-.584-.815-.421z" style="text-indent:0;text-align:start;line-height:normal;text-transform:none;block-progression:tb;marker:none;-inkscape-font-specification:Sans" font-size="medium" font-style="normal" font-variant="normal" font-weight="400" font-stretch="normal" text-decoration="none" letter-spacing="normal" word-spacing="normal" direction="ltr" writing-mode="lr-tb" text-anchor="start" baseline-shift="baseline" color="#000" fill="#34201f" fill-opacity="1" stroke="none" stroke-width=".994" visibility="visible" display="inline" overflow="visible" font-family="Sans"/><use height="500" width="400" transform="translate(4.166 6.387)" id="d" xlink:href="#c" y="0" x="0" stroke-width=".994" stroke-miterlimit="4" stroke-dasharray="none"/><use height="500" width="400" transform="translate(-5.97 1.944)" id="e" xlink:href="#d" y="0" x="0" stroke-width=".994" stroke-miterlimit="4" stroke-dasharray="none"/><use height="500" width="400" transform="translate(-3.888 -4.305)" id="f" xlink:href="#e" y="0" x="0" stroke-width=".994" stroke-miterlimit="4" stroke-dasharray="none"/><use height="500" width="400" transform="translate(13.052 -4.582)" id="g" xlink:href="#f" y="0" x="0" stroke-width=".994" stroke-miterlimit="4" stroke-dasharray="none"/><use height="500" width="400" transform="translate(-.972 12.358)" id="h" xlink:href="#g" y="0" x="0" stroke-width=".994" stroke-miterlimit="4" stroke-dasharray="none"/><use height="500" width="400" transform="translate(-6.249 3.61)" id="i" xlink:href="#h" y="0" x="0" stroke-width=".994" stroke-miterlimit="4" stroke-dasharray="none"/><use height="500" width="400" transform="translate(-6.11 -1.25)" id="j" xlink:href="#i" y="0" x="0" stroke-width=".994" stroke-miterlimit="4" stroke-dasharray="none"/><use height="500" width="400" transform="translate(-5.97 .555)" xlink:href="#j"/><use height="500" width="400" transform="translate(11.525 .833)" id="k" xlink:href="#i" y="0" x="0" stroke-width=".994" stroke-miterlimit="4" stroke-dasharray="none"/><use height="500" width="400" transform="translate(-13.191 4.582)" xlink:href="#k"/><path d="M389.69 459.13c.385.344.747 1.147.826 1.985.08.838-.083 1.773-.767 2.344-.583.252-1.182.13-.842-.59.175-.37.654-1.013.592-1.66-.06-.647-.434-1.268-.625-1.656-.445-.909.633-.584.815-.422z" style="text-indent:0;text-align:start;line-height:normal;text-transform:none;block-progression:tb;marker:none;-inkscape-font-specification:Sans" font-weight="400" color="#000" overflow="visible" font-family="Sans"/><path style="text-indent:0;text-align:start;line-height:normal;text-transform:none;block-progression:tb;marker:none;-inkscape-font-specification:Sans" d="M416.26 436.13c-.127.37-.92 1.343-2.017 1.341-.94-.002-1.808-.666-2.311-1.282-.253-.583-.13-1.182.59-.841.37.174.657 1.138 1.628 1.106 1.259-.04 1.3-.949 1.688-1.14.908-.445.5.585.422.816z" id="l" font-size="medium" font-style="normal" font-variant="normal" font-weight="400" font-stretch="normal" text-decoration="none" letter-spacing="normal" word-spacing="normal" direction="ltr" writing-mode="lr-tb" text-anchor="start" baseline-shift="baseline" color="#000" fill="#000" fill-opacity="1" stroke="none" stroke-width=".994" visibility="visible" display="inline" overflow="visible" font-family="Sans"/><use xlink:href="#l" transform="rotate(21.481 407.144 310.616)" width="400" height="500"/></g><g stroke-width=".994"><path d="M243.721 199.621c6.166-.257 17.488-3.888 19.36-9.877 7.222 2.515 8.473 10.635 4.83 14.125-4.97 4.76-10.028 6.894-16.673 7.591-6.386.67-11.262-7.382-7.517-11.839z" fill="#d6b14d" stroke="#000" stroke-width="1.00022244"/><path d="M263.624 191.62c-1.626 2.867-4.705 4.948-8.113 6.447-3.708 1.63-7.705 2.54-10.943 2.799-1.013 1.572-.859 3.648.314 5.534 1.277 2.053 3.297 2.612 5.784 2.351 6.389-.67 11.004-2.62 15.754-7.17 2.423-2.32 2.259-7.361-2.796-9.96z" fill="#e4be58"/><path d="M263.99 193.342c-1.968 2.542-4.917 4.293-7.957 5.629-3.529 1.552-7.193 2.398-10.44 2.767-.362.968-.331 2.136.472 3.428 1.025 1.648 2.346 1.725 4.179 1.532 6.151-.646 10.327-2.407 14.873-6.76 1.373-1.315 1.87-4.192-1.128-6.596z" fill="#f6cd5e"/></g><path d="M162.581 104.458c-.606.054-1.154.344-1.572.723-.532.482-1.033.953-1.51 1.415l7.296 331.97c.83 1.19 3.93 1.678 5.031-.094l-7.295-333.04a1.41 1.41 0 00-.157-.22c-.549-.636-1.186-.809-1.793-.754z" style="text-indent:0;text-align:start;line-height:normal;text-transform:none;block-progression:tb;marker:none;-inkscape-font-specification:Sans" font-weight="400" color="#000" fill="#d6b14d" stroke="#000" overflow="visible" font-family="Sans"/><path d="M213.97 223.167c-3.948.846-26.837 1.222-35.734-7.484-3.281-4.024-1.26-9.271-1.159-9.521 11.21 7.287 32.105 11.663 55.558 10.397 1.247 3.467-.249 4.648-1.41 6.107-2.478 1.827-8.13 1.228-12.558.815-1.252.226-2.346.513.626 2.348 0 0 4.72-.41 6.577 0 1.857.41 3.962.49 5 1.728 1.04 1.238 1.249 1.816.021 6.084-1.227 4.268-13.09 7.609-24.438 3.933-.256.507-.333 1.467 2.036 2.662 5.396 1.444 10.723 1.418 16.441.783l-4.289 3.758c-8.326.267-18.86.545-28.503-1-6.849-1.098-12.955-3.314-16.877-7.863-1.37-4.514-.159-4.619.188-5.7 7.065 6.098 14.543 7.49 23.644 7.83 1.421-.05 2.845-.405 2.662-1.41-9.48-.8-18.056-2.19-25.367-7.986-.98-1.48-.867-2.473 0-3.132 16.01 8.367 31.288 8.484 49.482 8.3 2.634-.68 2.657-2.44 2.036-2.82-19.657 2.086-34.908-.25-50.735-6.732-.286-1.712.054-2.391 1.566-3.289 7.157 3.076 36.129 7.227 35.232 2.192z" fill="#ad2407"/><path d="M178.524 208.416c-.05.384-.105.753-.094 1.258.03 1.43.422 3.196 1.792 4.937 5.211 3.572 12.843 5.614 19.56 6.604 3.393.5 6.562.75 9.056.849 2.493.098 4.384.02 4.968-.063.591-.085 1.21.356 1.32.943a2.39 2.39 0 01-.345 1.698c-.32.477-.779.797-1.258 1.038-.958.482-2.129.738-3.553.88-2.85.285-6.668.12-10.723-.283-7.766-.77-16.06-2.405-20.22-4.025-.287.215-.631.44-.691.566-.04.084.011.402 0 .566 15.452 6.084 31.468 7.242 49.495 6.447.229-.014.462.042.66.157 1.005.613 1.122 1.783.692 2.767-.43.984-1.463 1.8-3.019 2.201a1.182 1.182 0 01-.283.032c-17.78.18-33.03.036-48.898-7.893.036.177.093.384.315.755 6.992 5.452 15.215 6.82 24.559 7.61.51.036.97.442 1.069.943.096.53-.073 2.102-.377 2.512-.305.409-.691.622-1.07.786-.756.327-1.562.413-2.358.44h-.063c-8.664-.323-18.199-2.714-23.08-8.14-.042.306.055 1.177.565 2.955 3.663 4.095 9.381 6.24 15.974 7.296 9.378 1.503 19.45 1.603 27.672 1.352l1.447-1.258c-4.547.288-8.996.22-13.459-.975a1.169 1.169 0 01-.22-.094c-1.303-.657-2.09-1.291-2.515-2.075-.426-.785-.277-1.685-.032-2.17a1.21 1.21 0 011.29-.63c5.503 1.165 11.158 1.09 15.533.284 2.188-.403 4.056-.98 5.378-1.635s2.036-1.403 2.17-1.793c.594-1.732.803-2.823.786-3.49-.018-.667-.181-.95-.598-1.447-.277-.33-.788-.586-1.572-.786-.784-.2-1.764-.344-2.767-.566-.644-.142-2.302-.176-3.68-.126-1.377.05-2.547.158-2.547.158-.25.026-.507-.03-.723-.158-.782-.483-1.322-.89-1.73-1.289-.407-.398-.831-.897-.691-1.698.07-.4.311-.726.534-.912.224-.186.438-.273.63-.346.38-.145.71-.223 1.037-.283.073-.007.147-.007.22 0 3.109 0 5.693.094 10.786-.597.475-.576.96-1.098 1.163-1.604.195-.485.185-1.165-.031-2.107-21.536 2.47-43.551-3.319-52.074-9.59z" fill="#c32807"/><g fill="#e4be58" stroke-width=".994" font-weight="400" color="#000" font-family="Sans"><path style="text-indent:0;text-align:start;line-height:normal;text-transform:none;block-progression:tb;marker:none;-inkscape-font-specification:Sans" d="M195.487 138.073l-3.02.22c.418 6.368 1.137 10.721 2.894 14.434 1.652 3.49 4.298 6.299 8.081 9.528-.984.872-1.88 1.786-2.484 2.83-.898 1.551-1.175 3.468-.472 5.282.827 2.131 2.697 3.403 4.591 3.49 1.894.09 3.763-.876 4.906-2.609 1.224-1.857.948-4.16.063-6.069-.47-1.014-1.143-1.948-1.918-2.799 3.543-2.614 6.787-4.984 9.433-8.05 2.51-2.908 5.112-5.802 6.284-10.612.377-2.607.177-4.529-1.048-5.528-.957 5.932-4.83 11.066-7.5 14.16-2.466 2.856-5.743 5.208-9.496 7.986-3.916-3.29-6.268-5.797-7.736-8.899-1.498-3.164-2.17-7.131-2.578-13.364zm10.345 26.288c.61.657 1.141 1.38 1.478 2.107.61 1.318.624 2.406.157 3.113-.587.892-1.488 1.294-2.264 1.258-.776-.036-1.461-.395-1.918-1.572-.379-.976-.249-1.7.314-2.673.398-.688 1.355-1.462 2.233-2.233z" stroke="#000" overflow="visible" stroke-width="1.00022244"/><path style="text-indent:0;text-align:start;line-height:normal;text-transform:none;block-progression:tb;marker:none;-inkscape-font-specification:Sans" d="M206.134 159.956l-.66.754c.828.706 1.6 1.389 2.326 2.044l.66-.754c-.731-.66-1.49-1.331-2.326-2.044zm-2.327 1.95l-.755.691c.262.295.649.496 1.1.85.452.352.943.786 1.29 1.225l.786-.628c-.437-.553-1.001-1.012-1.478-1.384-.477-.373-.922-.73-.943-.755z" fill="#000" overflow="visible"/></g><path d="M157.512 62.832l-1.489-2.067 1.34-2.78c-2.656-3.922-4.092-11.202-4.493-16.178C151.638 26.557 159.046.5 159.046.5s9 25.55 8.712 40.848c-.095 4.991-1.08 12.345-3.487 16.424l1.508 2.692-1.358 2.155-3.455.106z" fill="#d3c6b0" stroke="#000" stroke-width="1.00022244"/><path d="M158.997 4.959c-3.259 15.637-9.414 43.068.62 50.395z" fill="#ece6dc"/><g fill="#f6cd5e" stroke="#000"><path d="M219.262 85.818c.543-5.491 8.745-24.229 15.566-28.405 0 0-3.242-.703-6.023 1.215-4.744 3.272-11.176 23.718-9.543 27.19zM213.717 81.109c3.065-8.598 1.782-32.525-2.602-38.517 0 0 4.749.51 7.088 4.774 3.989 7.273.051 29.268-4.486 33.743z"/><path d="M213.908 79.335c-.14-1.27-.843-1.717-.83-2.837.141-13.004-4.99-15.234-11.499-17.12 0 0 5.4-2.41 9.167.667 6.845 5.59 3.906 13.32 3.162 19.29z"/><path d="M214.97 80.4c3.235-5.067 4.543-25.696 1.758-32.582 0 0 3.928 1.042 5.456 5.172 2.605 7.043-2.959 23.936-7.215 27.41z"/><path d="M215.355 81.843c4.22-5.971 8.532-24.255 6.406-31.994 0 0 2.771 1.353 3.692 5.659 1.57 7.344-5.389 23.507-10.098 26.335zM222.368 82.908c-.497-5.751 7.07-14.152 11.799-16.592 0 0-3.241-.704-6.023 1.215-4.744 3.272-7.409 11.905-5.776 15.377z"/></g><path d="M202.224 88.753s-2.69-1.767-2.66-3.868c.04-2.727 1.638-5.203 3.87-6.77 2.926-2.058 7.061-3.63 10.638-3.628 5.494.005 11.206.492 15.717 3.627 4.517 3.139 7.885 6.263 9.189 11.607.443 1.816-.093 6.237-1.21 7.737-1.528 2.056-6.286 2.902-6.286 2.902z" fill="#1a1a1a" stroke="#000"/><path d="M214.684 92c-7.864-2.119-16.87.673-21.432 8.391-2.273 3.846-3.086 7.832-3.16 12.299-.048 2.94 1.711 2.998 1.742 4.548.034 1.698-1.386 3.253-1.881 4.878-.488 1.599-1.081 3.57.674 6.164.28 1.908.122 4.967.594 6.689 1.113 4.062 1.516 7.748 5.033 10.065 2.401 1.582 5.834 1.426 8.604.65 6.347-1.781 10.359-5.057 14.448-10.228 1.414-1.79 2.076-7.309 2.076-7.309 1.391 1.787 2.063 2.279 3.198 1.775 1.63-.724 5.12-6.757 6.262-11.644.49-2.684-.054-4.748-1.076-5.175-1.399-.585-1.691-.46-3.442.828 4.217-11.576-3.291-19.683-11.64-21.932z" fill="#492728" stroke="#000"/><path d="M205.198 118.21c.547 5.644 10.83 3.458 7.031-1.896z" fill="#613335"/><path d="M194.355 114.212c-1.018.119-1.968.743-2.224 2.441l5.906 1.563c.002-2.681-1.986-4.203-3.682-4.004zm14.333.275c-1.856-.09-3.747 1.272-3.688 3.761l7.912-1.157c-.492-1.786-2.782-2.534-4.224-2.604zm-9.055 16.5l-3.5 1.688s.661 1.494 1.344 1.78c.59.248 1.266-.275 1.906-.25.994.041 1.986 1.005 2.906.626.862-.355 1.531-2.344 1.531-2.344z" fill="#713b3d"/><path d="M197.761 118.312c-1.981 3.112-5.77 2.893-5.168-.833z" fill="#613335"/><path d="M192.519 116.693c.043-2.325 4.39-2.196 5.352 1.505-2.846 1.416-5.385.74-5.352-1.505zM212.408 117.246c-2.555-3.028-6.759-1.502-6.966.81-.268 1.414 5.025 2.942 6.966-.81z" fill="#ece6dc" stroke="#34201f" stroke-width=".8"/><path d="M207.38 86.278a33.535 33.535 0 00-3.562.219c-10.076 1.135-15.74 9.82-13.28 21.062 0 0 .23-1.174 1.687-2.062 2.948-1.798 3.827.657 7.812.906 6.11.383 8.4-1.83 11.406-1.687 2.646.125 3.77 1.06 4.198 2.355.338 1.022-.287 2.839.552 4.207 1.648 2.685 2.27 4.343 2.97 6.781.772 2.214.906 3.676-.126 5.782-.502 1.023-5.406 4.572-6.156 6.062-1.144 2.271-.67 4.842-3.219 5.125-2.287.254-2.23-4.436-3.062-2.969-1.649 2.91-.601 2.776-1.688 3.625-.43.336-1.117.543-1.844.563-1.155.03-2.57-.607-3.875-.75-1.209-.133-2.337.108-3.062.031-1.47-.157-2.65-3.144-4-4.5-.807-.81-2.094-3.906-2.094-3.906-.318 1.956.72 5.405.781 7.437-.233 1.447-1.343 3.832-1.218 5 .332 3.103.656 3.218 2.03 5.344.751 1.16 3.306 2.791 4.845 4.031 1.553 1.252 4.625 2.531 4.625 2.531s3.15-.276 5.218-1.062c1.458-.554 2.83-1.871 4.25-2.531 3.28-1.525 5.523-1.392 7.72-4.438 2.035-2.823 2.587-3.839 4.124-7.5.86-2.047.885-3.692.844-5.219-.843-1.639-1.086-3.31-.813-4.75.449-2.364 2.107-4.212 3.47-5.062 1.356 1.213 4.03.531 4.03.531 3.957-3.012 5.907-6.655 6.563-10.281 1.273-7.036-2.199-14.223-5.563-16.469-8.045-5.37-15.353-8.457-23.562-8.406z" fill="#1a1a1a" stroke="#000"/><path d="M195.546 129.092c-3.362.282-5.476 2.965-5.366 4.234.196 2.26 1.868 1.631 3.11.328.49-.514 3.203.212 4.993-.676l1.406-.099c2.528 1.43 3.498 1.088 5.058 1.4 1.245.25 1.432.895 3.19 1.318 2.422.582 2.475-2.365.416-4.599-1.368-1.482-4.481-1.834-4.631-2.734-.606 1.16.134.69-.976.829-1.323.007-4.757.921-6.08.886-.567-.015-1.12-.887-1.12-.887z" fill="#1a1a1a" stroke="#000"/><path d="M192.07 108.196c-.887.957-.44 2.8-.44 2.8 3.413-1.594 5.612.354 7.97 3.126l-.563 1.594-.531 2.843-.281 3.844-3.125 4.438c.225 2.033 3.62 1.451 4.187.625.33-1.275 2.736-1.305 3.75-.688-.043-1.086-.577-1.787-1.25-2.125-.297-.066-1.529-.337-2.594-.062 1.698-2.67 1.8-8.355 2.063-10.657 0-.002.03.002.031 0 5.203-4.756 9.13-3.308 14.094-.843 0 0-.415-1.123-.719-1.625-1.044-1.727-1.508-2.34-3.179-3.47-1.211-.82-.848-.754-2.297-.954-1.332-.184-7.766 1.885-9.392 1.756-2.236-.178-4.3-2.597-6.214-1.868-.925.352-.836.541-1.51 1.266zm22.598 10.53c-.596 1.36-1.22 3.158-4.552 3.616-1.874.258-4.067-.137-6.074-2.188-1.877 4.182 2.644 6.46 6.28 6.625 5.341.243 7.918-7.027 4.346-8.053zm-22.568 1.656c-1.446 2.105-2.136 4.437.03 6.146.67.212 1.247.363 1.438-.312.661-1.942 2.905-3.715 3.188-5.344-2.025.234-2.941.802-4.656-.49z" fill="#613335"/><path d="M195.885 116.91a1.35 1.35 0 11-2.7 0 1.35 1.35 0 012.7 0zM209.996 117.46a1.55 1.55 0 11-3.1 0 1.55 1.55 0 013.1 0z"/><path style="text-indent:0;text-align:start;line-height:normal;text-transform:none;block-progression:tb;marker:none;-inkscape-font-specification:Sans" d="M199.193 115.372l-1 .031c.125 2.603-.214 5.72-1.312 7.469-.206.327-.634.824-1.063 1.312-.428.488-.866.987-1.125 1.5-.45.892-.462 2.012 0 2.906.556 1.076 1.74 1.397 2.75 1.532 1.949.259 3.487-.949 5-1.375.123-.035.387-.05.688-.063.3-.013.787.023 1-.375.622-1.164-.384-3.596-1.358-3.398 0 0 .41 1.313.514 1.492.104.18.183.41.188.437.052.35.004.714-.063.782-.035.036-.115.052-.344.062-.228.01-.547-.007-.906.094-1.774.5-3.156 1.535-4.594 1.344-.897-.12-1.64-.366-1.968-1-.29-.559-.288-1.431 0-2 .162-.322.547-.802.968-1.282.422-.479.865-.972 1.157-1.437 1.322-2.106 1.598-5.318 1.468-8.031z" font-weight="400" color="#000" fill="#2d1919" overflow="visible" font-family="Sans"/><path style="text-indent:0;text-align:start;line-height:normal;text-transform:none;block-progression:tb;marker:none;-inkscape-font-specification:Sans" d="M191.637 112.347c-.757.077-1.033.317-1.555.781l.617 1.125c.332-.295 2.245-.815 3.682-.662 2.164.23 4.517 3.214 4.758 2.152l.148-.652c-1.088-1.632-2.892-2.548-4.594-2.938-.85-.195-2.3.117-3.056.194zM208.912 112.31c-2.434 0-4.982.683-6.656 2.593l.26.583c.575 1.288 2.735-1.272 6.396-1.583 3.352-.285 5.869.912 6.375.094-1.596-1.026-3.941-1.688-6.375-1.688z" font-weight="400" color="#000" overflow="visible" font-family="Sans"/></svg>