<svg xmlns="http://www.w3.org/2000/svg" width="457.377" height="460.375"><path fill="none" stroke="#ce1126" stroke-width="6.887" d="M229.762 97.776v298.059"/><path d="M183.631 444.626s-15.5 11.852-18.052 12.218c-2.552.365.365 3.1.365 3.1s16.593-.182 17.687.365c1.094.548 18.6-12.948 18.6-12.948s-14.406-5.289-18.6-2.735zM275.892 444.626s15.502 11.852 18.053 12.218c2.554.365-.365 3.1-.365 3.1s-16.594-.182-17.688.365c-1.094.548-18.598-12.948-18.598-12.948s14.403-5.289 18.598-2.735z" fill="#07a64f"/><path d="M268.728 67.801c79.897 16.79 139.63 84.12 139.63 164.625 0 93.144-79.96 168.65-178.596 168.65-98.637 0-178.597-75.506-178.597-168.65 0-80.467 59.678-147.773 139.52-164.602" fill="none" stroke="#ce1126" stroke-width="6.887" stroke-linecap="round" stroke-linejoin="round"/><ellipse cx="236.278" cy="236.915" rx="142.805" ry="137.972" transform="translate(-6.516 -1.164)" fill="none" stroke="#ce1126" stroke-width="6.887"/><path fill="none" stroke="#ce1126" stroke-width="6.887" d="M51.165 230.918h357.193M342.891 102.941l-228.98 258.822M360.107 347.416L100.138 116.141"/><path d="M229.45 117.986c20.922-.317 43.986 9.437 59.544 10.51 15.556 1.074 36.998-10.276 36.998-10.276l34.654 28.098s-30.908 32.782-20.605 75.866 57.133 110.52-51.513 145.175c-45.895 13.113-58.914 33.718-58.914 33.718h-.018s-13.02-20.604-58.914-33.718c-108.646-34.655-61.816-102.09-51.514-145.175 10.303-43.084-20.605-75.866-20.605-75.866l34.654-28.098s21.442 11.35 37 10.276c15.556-1.074 38.622-10.828 59.544-10.51h-.31z" fill="#fff" stroke="#0b295e" stroke-width="6.887"/><path fill="none" stroke="#ce1126" stroke-width="3.944" d="M221.227 45.324v39.024h18.364V45.324h26.05V29.542h-26.05V6.874h-18.364v22.668H195.18v15.782z"/><g fill="#07a64f"><path d="M106.224 401.522c-7.035-4.22-28.334-47.513-28.334-47.513s36.4 25.063 39.886 47.948c0 0-10.46.22-11.552-.435z"/><path d="M93.8 384.303s-28.77-6.32-33.783-11.55c0 0 3.488 18.744 42.284 30.73 0 0 11.115 1.744 4.36-7.629-6.758-9.372-6.322-9.589-12.86-11.55zM47.595 312.597s7.191 15.04 6.974 20.707c-.217 5.667 1.962 11.986 1.962 11.986s-29.642-14.603-34-21.142c0 0 9.155 22.017 32.693 33.35 0 0 16.128 11.113 18.526 13.074 0 0 1.961-36.616-26.155-57.975z"/><path d="M31.466 266.173s-3.27 18.961-.872 28.333c0 0-22.668-13.078-27.898-25.064 0 0 0 18.963 22.014 41.194s17.218 17.653 17.218 17.653 1.308-32.693 1.09-37.488c-.219-4.795-5.013-18.089-11.552-24.628z"/><path d="M2.042 207.324s6.483 19.125 8.064 21.36c1.581 2.233 5.013 14.165 5.013 14.165s5.014-9.587 8.064-13.73c3.051-4.142 6.102-10.025 6.102-12.64 0 0 4.143 20.923-.87 34.871-5.015 13.948-7.848 27.244-7.848 27.244S.951 249.826.298 236.53c-.653-13.295 0-23.32 1.744-29.206z"/><path d="M25.365 149.566s1.962 31.603 0 35.31c0 0 20.488-14.386 21.142-17.437 0 0-1.96 28.99-21.142 44.246 0 0-6.102 8.064-5.884 12.423 0 0-20.27-32.042 5.884-74.542z"/><path d="M55.443 104.45s-7.41 25.938-7.41 30.515c0 0 20.27-3.924 23.757-8.937 0 0-12.205 21.36-27.026 31.168-14.82 9.808-14.167 15.692-14.167 15.692s-7.41-45.989 24.846-68.438z"/><path d="M54.79 126.464s6.756-39.886 49.257-44.68c0 0-15.04 33.564-49.258 44.68z"/></g><g fill="#07a64f"><path d="M351.151 401.522c7.034-4.22 28.335-47.513 28.335-47.513s-36.398 25.063-39.887 47.948c.001 0 10.463.22 11.552-.435z"/><path d="M363.574 384.303s28.771-6.32 33.783-11.55c0 0-3.488 18.744-42.283 30.73 0 0-11.114 1.744-4.358-7.629 6.757-9.372 6.32-9.589 12.858-11.55zM409.781 312.597s-7.19 15.04-6.975 20.707c.218 5.667-1.96 11.986-1.96 11.986s29.64-14.603 34-21.142c0 0-9.156 22.017-32.694 33.35 0 0-16.129 11.113-18.525 13.074 0 0-1.962-36.616 26.154-57.975z"/><path d="M425.91 266.173s3.27 18.961.872 28.333c0 0 22.67-13.078 27.898-25.064 0 0 0 18.963-22.014 41.194s-17.219 17.653-17.219 17.653-1.31-32.693-1.09-37.488c.22-4.795 5.014-18.089 11.553-24.628z"/><path d="M455.333 207.324s-6.483 19.125-8.063 21.36c-1.583 2.233-5.013 14.165-5.013 14.165s-5.015-9.587-8.065-13.73c-3.05-4.142-6.103-10.025-6.103-12.64 0 0-4.143 20.923.872 34.871 5.013 13.948 7.847 27.244 7.847 27.244s19.617-28.769 20.27-42.064c.654-13.295 0-23.32-1.745-29.206z"/><path d="M432.01 149.566s-1.96 31.603 0 35.31c0 0-20.486-14.386-21.142-17.437 0 0 1.962 28.99 21.142 44.246 0 0 6.103 8.064 5.885 12.423 0 0 20.27-32.042-5.885-74.542z"/><path d="M401.933 104.45s7.411 25.938 7.411 30.515c0 0-20.27-3.924-23.758-8.937 0 0 12.204 21.36 27.026 31.168 14.82 9.808 14.168 15.692 14.168 15.692s7.41-45.989-24.847-68.438z"/><path d="M402.588 126.464s-6.757-39.886-49.258-44.68c0 0 15.04 33.564 49.258 44.68z"/></g><path fill="none" stroke="#ce1126" stroke-width="2.296" stroke-linecap="round" stroke-linejoin="round" d="M204.174 1.228l9.657 12.831M215.153 22.129L197.428 5.99M207.613 22.657l-12.83-8.862M208.01 51.758l-14.153 9.656M214.359 52.154l-16.27 16.535M214.095 60.091l-9.656 13.889M255.349 1.228l-9.656 12.831M244.371 22.129L262.096 5.99M251.909 22.657l12.832-8.862M251.513 51.758l14.154 9.656M245.164 52.154l16.271 16.535M245.429 60.091l9.655 13.889"/><path d="M428.51 369.84c.306.201.591.352.875.502l-.094.208c10.583 4.757 19.292 10.387 19.021 12.29-.028.19-.596.75-2.864 1.064-4.136.571-10.14.767-16.492.975-1.574.052-3.047.105-4.468.16l4.021-15.199zm-22.07 24.08l2.212 1.441c5.1 3.31 11.448 7.43 10.953 9.285-.21.792-2.2 2.708-16.104 3.466-.896.05-1.79.054-2.686.076l4.146-15.367c.481.413.998.786 1.478 1.1zM58.707 408.19c-.896-.023-1.789-.027-2.686-.077-13.903-.758-15.894-2.674-16.104-3.463-.495-1.858 5.852-5.977 10.953-9.288l2.215-1.44c.48-.314.997-.687 1.475-1.097l4.147 15.364zm-47.497-25.35c-.273-1.903 8.437-7.53 19.02-12.29l-.093-.208c.284-.15.57-.3.876-.502l4.02 15.198c-1.42-.054-2.892-.107-4.467-.159-6.354-.208-12.355-.403-16.492-.975-2.269-.314-2.836-.874-2.864-1.065zm18.923 39.28c-1.104-.952-1.664-1.999-1.664-3.115 0-5.046-11.2-25.222-15.615-32.976.36.067.684.116.905.148 4.256.59 10.315.786 16.731.995 8.014.262 22.93.751 23.463 2.807 0 .004-.04.654-2.127 2.021l-2.207 1.435c-7.457 4.841-12.846 8.335-11.922 11.803.082.306.222.592.398.865l-.249.11c.07.16 4.363 9.996 7.718 19.297-6.046.527-12.453-.822-15.43-3.39zm377.614 17.384c-.03.554-.332 1.056-.922 1.54-5.817 4.78-32.076 3.434-44.843 1.651l-5.42-.79c-14.278-2.126-38.173-5.679-54.803-2.707l-9.429 1.733c-18.875 3.506-44.725 8.31-62.562 8.166-18.52-.147-45.2-5.017-64.682-8.569l-7.327-1.33c-16.629-2.972-40.52.581-54.8 2.706l-5.423.791c-12.766 1.782-39.025 3.128-44.844-1.65-.587-.485-.889-.987-.92-1.54-.374-6.617-7.56-24.186-10.55-31.242 2.883 1.085 7.606 1.758 14.671 2.141 13.36.727 26.333-1.426 40.065-3.703 15.553-2.58 31.636-5.248 50.731-4.369 18.724.863 34.457 3.701 48.338 6.205 13.053 2.354 24.326 4.388 34.754 4.172 9.811-.204 20.322-2.024 32.495-4.132 14.443-2.499 30.816-5.335 50.551-6.245 19.095-.879 35.177 1.79 50.728 4.37 13.735 2.276 26.706 4.43 40.066 3.702 7.064-.383 11.79-1.056 14.673-2.14-2.988 7.055-10.175 24.624-10.547 31.24zm23.303-20.499c0 1.116-.56 2.163-1.663 3.114-2.98 2.568-9.387 3.918-15.433 3.392 3.356-9.3 7.65-19.138 7.72-19.297l-.25-.11c.175-.273.316-.56.396-.865.926-3.468-4.463-6.962-11.92-11.803l-2.207-1.435c-2.087-1.367-2.125-2.018-2.125-2.024.533-2.053 15.447-2.542 23.462-2.804 6.413-.209 12.475-.406 16.73-.995.221-.032.544-.08.905-.148-4.416 7.753-15.615 27.93-15.615 32.975z" fill="#fff"/><g fill="none" stroke-width="2.3"><path d="M449.258 383.82s-17.06 29.396-17.06 35.185c0 5.79-10.967 8.835-20.105 7.463" stroke="#000"/><path d="M430.22 369.501s-2.285-1.069-2.285-1.98l-4.876 18.431M55.047 390.22l5.18 19.19" stroke="#010101"/><path d="M10.264 383.82s17.06 29.396 17.06 35.185c0 5.79 10.966 8.835 20.106 7.463" stroke="#000"/><path d="M29.304 369.501s2.284-1.069 2.284-1.98l4.875 18.431" stroke="#010101"/><path d="M429.762 369.503s30.162 13.56 15.842 15.538c-14.317 1.98-51.333-.458-38.537 7.92 12.796 8.377 24.524 14.772-3.504 16.297-28.028 1.525-54.38-9.749-90.785-8.072-36.406 1.677-61.69 9.934-83.016 10.375-21.326.441-46.61-8.698-83.016-10.375-36.406-1.677-62.758 9.597-90.787 8.072-28.029-1.525-16.298-7.92-3.503-16.297 12.796-8.378-24.219-5.94-38.539-7.92-14.319-1.979 15.842-15.538 15.842-15.538" stroke="#000"/><path d="M420.622 405.754s-11.273 25.74-11.729 33.814c-.457 8.075-33.969 6.093-47.069 4.264-13.099-1.829-41.125-6.853-59.86-3.504-18.737 3.35-51.029 10.088-72.202 9.918-21.173-.17-53.466-6.568-72.202-9.918-18.736-3.349-46.762 1.675-59.862 3.504-13.1 1.83-46.612 3.812-47.068-4.264-.457-8.074-11.73-33.814-11.73-33.814" stroke="#000"/><path stroke="#010101" d="M404.475 390.22l-5.178 19.19"/></g><path d="M141.641 177.59h29.223c-7.308 0-14.617-6.336-14.617-6.336s-7.302 6.336-14.606 6.336zm-11.443 0h11.443c-6.306 0-12.6-4.708-14.213-6.002l2.77 6.002zm40.666 0h29.23c-7.308 0-14.616-6.336-14.616-6.336s-7.307 6.336-14.614 6.336zm29.23 0h29.228c-7.306 0-14.612-6.336-14.612-6.336s-7.307 6.336-14.617 6.336zm86.471 0h29.224c-7.309 0-14.616-6.336-14.616-6.336s-7.305 6.336-14.608 6.336zm29.223 0h12.388l2.004-6.15c-1.229 1.01-7.802 6.15-14.392 6.15zm-57.835-.032c-7.104-.342-14.006-6.304-14.006-6.304s-7.313 6.336-14.625 6.336h57.243c-7.308 0-14.62-6.336-14.62-6.336s-6.896 5.962-13.992 6.304zM327.11 185.273c-7.307 0-10.676-6.336-10.676-6.336s-7.309 6.336-14.614 6.336c-7.308 0-14.616-6.336-14.616-6.336s-7.304 6.336-14.606 6.336c-7.309 0-14.62-6.336-14.62-6.336s-7.309 6.336-14.617 6.336h1.253c-7.318 0-14.634-6.336-14.634-6.336s-7.313 6.336-14.625 6.336c-7.306 0-14.612-6.336-14.612-6.336s-7.306 6.336-14.616 6.336c-7.307 0-14.615-6.336-14.615-6.336s-7.308 6.336-14.614 6.336c-7.308 0-14.617-6.336-14.617-6.336s-2.987 6.336-10.29 6.336h195.118zM327.11 200.767c-7.307 0-10.676-6.336-10.676-6.336s-7.309 6.336-14.614 6.336c-7.308 0-14.616-6.336-14.616-6.336s-7.304 6.336-14.606 6.336c-7.309 0-14.62-6.336-14.62-6.336s-7.309 6.336-14.617 6.336h1.253c-7.318 0-14.634-6.336-14.634-6.336s-7.313 6.336-14.625 6.336c-7.306 0-14.612-6.336-14.612-6.336s-7.306 6.336-14.616 6.336c-7.307 0-14.615-6.336-14.615-6.336s-7.308 6.336-14.614 6.336c-7.308 0-14.617-6.336-14.617-6.336s-2.987 6.336-10.29 6.336h195.118zM142.334 192.224h29.113c-7.28 0-14.563-6.336-14.563-6.336s-7.275 6.336-14.55 6.336zm-6.826-.287l6.826.287c-6.283 0-12.554-4.708-9.587-6.289l2.761 6.002zm35.94.287h29.12c-7.28 0-14.56-6.336-14.56-6.336s-7.282 6.336-14.56 6.336zm29.12 0h29.12c-7.28 0-14.56-6.336-14.56-6.336s-7.277 6.336-14.56 6.336zm86.147 0h29.115c-7.28 0-14.563-6.336-14.563-6.336s-7.276 6.336-14.552 6.336zm29.115 0h8.624l1.997-6.15c2.493 1.01-4.054 6.15-10.62 6.15zm-57.619-.033c-7.077-.342-13.955-6.304-13.955-6.304s-7.283 6.336-14.568 6.336h57.027c-7.279 0-14.564-6.336-14.564-6.336s-6.872 5.963-13.94 6.304z" fill="#07a64f"/><path fill="none" stroke="#07a64f" stroke-width="1.148" d="M130.84 178.12h196.269M130.84 185.007h196.269"/><path fill="none" stroke="#07a64f" stroke-width="1.13" d="M133.933 191.607h190.082M133.933 200.215h190.082"/><path d="M263.013 137.356c8.918 2.237 17.34 4.35 25.033 4.881 12.662.874 27.016-4.095 35.955-7.899 5.492 4.454 10.26 8.317 17.641 14.302-7.687 11.741-17.492 31.464-17.492 55.702 0 6.696.75 13.735 2.495 21.045 1.84 7.688 4.593 15.652 7.508 24.084 5.438 15.742 11.004 31.844 11.004 46.745 0 7.202-1.3 14.123-4.539 20.588-7.714 15.388-26.646 27.981-56.274 37.433l.401-.123c-28.06 8.02-45.225 18.837-55.139 27.181-9.915-8.344-27.079-19.162-55.139-27.18l.401.122c-29.629-9.45-48.562-22.045-56.274-37.433-3.24-6.465-4.54-13.386-4.54-20.588 0-14.903 5.564-31.003 11.005-46.745 2.914-8.433 5.667-16.396 7.505-24.084a90.197 90.197 0 002.496-21.045c0-24.238-9.805-43.96-17.492-55.702l17.64-14.302c8.94 3.804 23.295 8.773 35.956 7.9 7.693-.532 16.116-2.645 25.034-4.882 11.245-2.82 22.87-5.735 33.252-5.599h.312c10.381-.137 22.007 2.778 33.251 5.6z" fill="none" stroke="#0b295e" stroke-width="3.443"/><path d="M231.941 164.155s9.185-5.93 18.174 1.148c0 0-5.74-8.035-13.393-7.843 0 0 6.887-7.459 19.321-1.53 0 0-6.889-8.99-20.469-4.974 0 0 10.903-6.504 17.79-2.87 0 0-8.034-5.548-13.39-3.443 0 0 1.15-5.164 6.122-7.65 0 0-12.433 1.911-15.495 6.502 0 0-2.104-4.783-8.035-6.887 0 0 3.061 6.122 1.914 8.992 0 0-10.522-10.33-20.278-5.356 0 0-2.678 2.295-2.678 5.165 0 0 7.651-4.208 11.86.574 0 0-9.564-1.148-14.92 8.608 0 0 13.964-5.738 23.146.192 0 0-13.774.19-15.304 10.138 0 0 12.51-6.482 17.982-1.339 0 0 4.02 4.59 7.653.573z" fill="#07a64f"/><path fill="#995037" d="M225.995 166.285h6.974v31.287h-6.974z"/><path d="M233.278 161.478c0 2.454-3.25 4.442-3.25 4.442s-3.253-1.988-3.253-4.442 1.456-4.442 3.252-4.442c1.796 0 3.251 1.988 3.251 4.442z" fill="#f6c906" stroke="#754438" stroke-width=".803"/><path d="M228.698 168.94c-1.165 2.16-4.97 2.367-4.97 2.367s-1.919-3.294-.754-5.454c1.165-2.159 3.39-3.218 4.971-2.366 1.581.853 1.917 3.293.753 5.453z" fill="#f6c906" stroke="#754438" stroke-width=".803"/><path d="M235.675 164.471c1.955 1.483 1.576 5.275 1.576 5.275s-3.55 1.39-5.506-.093c-1.955-1.482-2.659-3.844-1.574-5.275 1.086-1.432 3.55-1.39 5.504.093z" fill="#f6c906" stroke="#754438" stroke-width=".803"/><path d="M284.744 354.114c-.104.028-.199.061-.305.09l-.097.033.402-.123zm49.408-104.642c-2.915-8.433-5.668-16.396-7.508-24.084a90.777 90.777 0 01-2.273-15.047l-.448-.643c-72.789 10.31-94.16-15.476-94.16-15.476-41.72 32.13-94.427 15.476-94.427 15.476-.139-.04-.292-.057-.435-.089a90.528 90.528 0 01-2.336 15.78c-1.838 7.687-4.59 15.651-7.505 24.083-5.44 15.742-11.006 31.842-11.006 46.745 0 7.202 1.3 14.123 4.541 20.588 7.704 15.37 26.605 27.952 56.177 37.398 27.876 8.01 44.957 18.78 54.835 27.092 9.878-8.313 26.96-19.082 54.834-27.092 29.573-9.446 48.473-22.029 56.178-37.398 3.24-6.465 4.54-13.386 4.54-20.588-.003-14.902-5.568-31.003-11.007-46.745zM174.868 354.237l-.098-.034c-.103-.028-.199-.06-.304-.089l.402.123z" fill="#0b295e"/><path fill="#fff" d="M162.88 274.992L148 264.03l18.312.293 5.548-17.736 5.657 17.705 18.307-.4-14.814 11.047 5.764 17.09-14.81-10.477-14.75 10.564zM220.795 230.42l-14.88-10.962 18.312.294 5.548-17.737 5.656 17.705 18.308-.4-14.813 11.046 5.764 17.091-14.81-10.478-14.75 10.565zM220.795 346.25l-14.88-10.962 18.312.293 5.548-17.736 5.656 17.705 18.308-.4-14.813 11.046 5.764 17.091-14.81-10.477-14.75 10.564zM287.807 261.35l-14.88-10.963 18.311.294 5.55-17.737 5.654 17.705 18.31-.4-14.814 11.046 5.763 17.091-14.81-10.478-14.75 10.566zM251.68 298.347l-11.788-8.685 14.506.233 4.394-14.05 4.481 14.025 14.502-.318-11.736 8.752 4.57 13.538-11.734-8.299-11.686 8.368z"/><g fill="#ce1126"><path d="M59.853 416.257l11.91.635-.215 4.044-6.93-.37-.185 3.438 6.52.348-.214 4.018-6.52-.348-.375 7.041-4.978-.265.987-18.54zM77.25 430.866l-.828 4.345-5.144.262 4.448-18.816 6.602-.337 6.474 18.262-5.365.273-1.4-4.232-4.787.243zm3.912-3.893l-1.022-3.287c-.328-1.03-.763-2.526-1.095-3.613l-.055.005c-.218 1.113-.416 2.667-.638 3.728l-.629 3.343 3.44-.176zM92.984 414.793a38.47 38.47 0 01-2.73 8.198l-2.93.571c.64-2.757 1.068-5.409 1.197-8.029l4.463-.74zM99.732 428.685l-.406 4.403-5.096.755 2.624-19.157 6.541-.967 8.194 17.556-5.314.786-1.8-4.077-4.743.701zm3.521-4.252l-1.333-3.172c-.426-.996-1.002-2.44-1.436-3.49l-.055.006c-.11 1.13-.157 2.697-.277 3.773l-.306 3.387 3.407-.504zM117.16 430.602l-7.874-17.817 5.423-.592 2.736 7.044a62.89 62.89 0 012.238 6.295l.055-.005c.218-2.324.504-4.518.837-6.548l1.198-7.558 5.258-.573-4.039 19.117-5.832.637zM134.858 424.803l-.95 4.32-5.15.113 4.981-18.683 6.61-.147 5.951 18.436-5.37.121-1.28-4.269-4.792.11zm4.021-3.784l-.928-3.313c-.299-1.04-.69-2.547-.992-3.64h-.055c-.25 1.106-.49 2.655-.743 3.71l-.724 3.321 3.442-.078zM161.833 423.597l-6.574-1.105-.567 3.37 7.362 1.236-.676 4.02-12.278-2.064 3.078-18.309 11.898 2-.67 3.994-6.98-1.174-.499 2.961 6.574 1.105-.668 3.966zM181.295 415.691l-3.099 18.306-4.917-.832 3.1-18.306 4.916.832zM192.503 417.65l4.939.684-1.978 14.271 7.067.98-.572 4.12-12.006-1.664 2.55-18.392zM217.09 431.64l-6.638-.6-.307 3.402 7.435.668-.365 4.063-12.4-1.119 1.665-18.489 12.017 1.08-.363 4.033-7.05-.635-.27 2.991 6.64.598-.363 4.007zM234.747 435.596l-.749 4.36-5.138.354 4.104-18.894 6.595-.457 6.804 18.14-5.357.372-1.478-4.205-4.78.33zm3.84-3.965l-1.083-3.267c-.347-1.024-.809-2.51-1.158-3.59l-.057.001c-.197 1.118-.367 2.677-.569 3.74l-.569 3.353 3.436-.237zM248.51 424.175l-4.699.614-.54-4.123 14.421-1.892.54 4.125-4.779.625 1.874 14.284-4.945.65-1.873-14.283zM264.587 417.615l1.757 10.377c.471 2.77 1.688 4.184 3.616 3.855 1.955-.329 2.663-1.93 2.17-4.837l-1.758-10.375 4.917-.832 1.71 10.102c.957 5.65-1.383 8.98-6.517 9.85-5.023.853-8.124-1.445-9.122-7.339l-1.689-9.967 4.916-.834zM285.412 428.421l-.244 4.416-5.064.941 1.92-19.24 6.498-1.209 8.835 17.243-5.282.982-1.947-4.009-4.716.876zm3.363-4.379l-1.447-3.122c-.462-.978-1.092-2.4-1.563-3.435l-.057.01c-.069 1.134-.059 2.7-.137 3.778l-.182 3.396 3.386-.627zM306.185 424.2c1.143.553 3.001 1.09 4.846 1.048 1.706-.035 2.521-.634 2.5-1.569-.02-.91-.858-1.414-2.966-2.084-3.165-1.03-5.269-2.722-5.328-5.477-.072-3.275 2.625-5.87 7.308-5.975 2.23-.049 3.81.33 5.06.854l-.96 3.987a9.659 9.659 0 00-4.066-.79c-1.515.033-2.329.6-2.31 1.427.02.938 1.02 1.301 3.38 2.13 3.36 1.14 4.913 2.896 4.97 5.483.071 3.194-2.374 6.003-7.8 6.124-2.23.05-4.42-.509-5.479-1.037l.845-4.122zM327.06 425.19l-1.413 4.191-5.133-.443 6.98-18.032 6.586.57 3.916 18.975-5.353-.464-.81-4.383-4.773-.414zm4.407-3.322l-.563-3.395c-.184-1.066-.41-2.606-.589-3.73l-.057-.004c-.37 1.073-.775 2.587-1.14 3.606l-1.082 3.224 3.431.3zM357.296 426.563c.253-2.107.558-4.566 1.006-7.425l-.083-.014a139.385 139.385 0 01-2.99 6.911l-2.767 6.138-3.842-.564-.619-6.604c-.17-2.058-.343-4.869-.383-7.436l-.054-.007c-.489 2.571-1 5.281-1.39 7.368l-1.235 6.528-4.524-.664 3.813-18.205 6.622.971.502 5.114c.19 2.116.377 4.648.431 6.94l.107.016c.848-2.159 1.827-4.66 2.656-6.515l2.083-4.706 6.485.951-1.769 18.505-4.798-.703.75-6.599zM382.748 425.722c-.289 5.97-4.05 9.595-9.773 9.316-5.75-.28-8.705-4.755-8.454-9.899.263-5.392 4.02-9.512 9.687-9.236 5.971.288 8.782 4.867 8.54 9.82zm-12.969-.41c-.168 3.468 1.24 5.687 3.634 5.804 2.395.116 3.912-2.154 4.073-5.483.155-3.192-1.158-5.683-3.553-5.8-2.365-.115-3.988 2.066-4.154 5.48zM389.744 430.82l-.986 4.31-5.15.074 5.138-18.64 6.61-.095 5.797 18.487-5.37.076-1.245-4.28-4.794.067zm4.051-3.749l-.898-3.32c-.29-1.043-.67-2.554-.962-3.652l-.054.003c-.26 1.104-.514 2.651-.775 3.701l-.75 3.317 3.44-.049z"/></g><g><path d="M236.15 10.317v22.668h26.048v8.896H236.15v39.024h-11.478V41.88h-26.048v-8.896h26.048V10.317h11.478z" fill="#0b295e" stroke="#fff" stroke-width="2.296"/></g></svg>