<svg xmlns="http://www.w3.org/2000/svg" xmlns:xlink="http://www.w3.org/1999/xlink" version="1.0" width="354" height="488"><defs><path d="M179.106 436.796c-37.782 86.991-34.315 172.868 0 257.91" id="b" fill="none" stroke="#000" stroke-width="1.154" stroke-linecap="butt" stroke-linejoin="miter" stroke-opacity="1"/></defs><path fill="#F6C314" stroke="#201B17" stroke-width=".013" d="M144.612 387.938l59.801 1.02-17.89-92.001-19.421-.51z"/><path fill="#F6C314" stroke="#201B17" d="M229.559 279.753c3.522 5.906 22.69 29.013 22.69 29.013 4.56 12.646 21.862 23.729 21.862 23.729 1.761 8.808 20.515 21.759 20.515 21.759 4.663 12.229 24.556 23.729 24.556 23.729 11.19 16.063 24.66 25.486 24.66 25.486l-12.848-284.31s-1.244-16.371-17.614-23.416c-16.371-7.046-26.938 0-36.368 3.522-9.324 3.522-22.479 14.091-33.984 16.371-11.707 2.383-19.894 2.383-66.825-11.708-46.832 14.091-55.018 14.091-66.725 11.708-11.502-2.28-24.66-12.849-34.089-16.371-9.325-3.524-19.894-10.57-36.265-3.524-16.474 7.045-17.613 23.416-17.613 23.416L8.658 403.466s13.469-9.429 24.556-25.489c0 0 19.997-11.5 24.659-23.727 0 0 18.754-12.951 20.516-21.759 0 0 17.303-11.087 21.758-23.728 0 0 19.272-23.104 22.795-29.017l106.617.007h0z"/><path fill="#201B17" stroke="#201B17" stroke-width=".013" d="M319.182 377.977c10.057 15.543 24.659 25.489 24.659 25.489l-12.848-284.31s-10.258-8.6-19.997-9.117v.104l8.186 267.834h0zM286.753 124.75c6.733-7.875 13.158-13.262 20.204-14.92l7.563 264.313s-12.848-5.906-19.894-19.894l-7.873-229.499h0zM274.111 332.492l-5.284-184.015.933-1.45c5.077-4.248 9.016-8.496 13.159-17.511l.519-1.243c2.225 74.208 4.57 148.152 6.791 222.36-5.666-5.278-11.013-8.676-16.118-18.141h0zM252.249 308.764l-4.56-149.719.312-.622c6.01-1.243 10.672-1.657 15.853-5.388l.83-.414 4.978 175.518c-.008 0-10.16-3.212-17.413-19.375h0zM247.482 302.34l-3.834-133.866-.313-.622c-9.321 4.767-24.864 1.762-24.864 1.762l11.088 110.139c3.522 7.045 17.923 22.587 17.923 22.587h0z"/><g fill="#201B17" stroke="#201B17" stroke-width=".013"><path d="M33.214 377.977c-9.946 15.543-24.556 25.489-24.556 25.489l12.848-284.31s10.258-8.6 19.894-9.117v.104l-8.186 267.834h0zM65.748 124.75c-6.734-7.875-19.993-22.154-20.204-14.92-2.583 88.412-5.167 176.654-7.751 265.064 7.944-5.771 16.687-13.649 20.08-20.646l7.875-229.498h0zM78.389 332.492l5.284-184.015-1.036-1.45c-4.974-4.248-9.015-8.496-13.055-17.511l-.622-1.243-7.109 222.829c6.069-5.09 10.665-8.175 16.538-18.61h0zM100.147 308.764l4.56-149.719-.208-.622c-6.009-1.243-10.672-1.657-15.956-5.388l-.828-.414-4.975 175.518s10.258-3.212 17.407-19.375h0zM105.017 302.34l3.834-133.866.311-.622c9.325 4.767 24.866 1.762 24.866 1.762l-11.086 110.139c-3.523 7.045-17.925 22.587-17.925 22.587h0z"/></g><path fill="#FFF" stroke="#201B17" d="M176.198 477.858c88.483 0 131.271-19.896 131.271-19.896l-1.14-8.808s.725-.521 5.284-1.767c4.144-1.14 5.595-9.319 5.283-12.946-.313-3.216 2.896-11.396 4.658-12.854 0 0-7.354-2.59-9.941-5.595-4.248-4.663-8.496-9.325-15.231-5.803-2.59 1.348-1.14-10.882-1.14-10.882s-40.311 19.896-118.842 18.757c-78.537-1.143-119.153-18.755-119.153-18.755s1.451 12.229-1.139 10.882c-6.735-3.522-10.983 1.14-15.231 5.803-2.694 3.005-9.946 5.595-9.946 5.595 1.761 1.451 4.973 9.641 4.662 12.854-.311 3.627 1.14 11.813 5.284 12.946 4.559 1.243 5.284 1.767 5.284 1.767l-1.243 8.808c.005.001 42.797 19.894 131.28 19.894h0z"/><path d="M176.819 472.781c84.34 0 126.199-18.028 126.199-18.028l-1.14-8.186s1.349-1.45 5.699-2.389c3.833-.933 5.284-6.838 4.973-9.429-.311-2.383 2.591-10.771 5.077-11.708 0 0-6.009-.829-7.771-2.383-3.315-2.798-7.046-10.154-16.895-6.01-1.237.622-1.653-8.496-1.653-8.496s-39.578 19.271-114.392 18.339c-74.804-.823-114.59-17.091-114.59-17.091s1.45 7.563-1.14 6.729c-9.222-3.104-11.501 1.554-16.268 5.394-1.554 1.237-7.771 4.036-7.771 4.036 1.762 1.145 2.072 4.247 2.798 6.526.932 3.212-.726 10.153 2.59 12.329 2.383 1.451 7.979 3.005 7.979 3.005l-1.141 9.325c.004.009 43.107 18.037 127.446 18.037h0z" stroke="#201B17" fill="#039E60"/><path fill="#F6C314" stroke="#201B17" d="M227.176 232.92l44.553 159.355s-35.123 12.945-62.063 10.563l-22.275-114.9 39.785-55.018h0z"/><path fill="none" stroke="#201B17" stroke-width=".013" d="M241.266 287.938s1.146 9.435-1.14 14.092c0 0-10.567-12.848-10.567-22.271"/><path fill="none" stroke="#201B17" d="M241.266 287.938s1.146 9.435-1.14 14.092c0 0-10.567-12.848-10.567-22.271"/><path fill="none" stroke="#201B17" stroke-width=".013" d="M221.373 289.182s2.279 17.51-4.663 23.416c0 0-15.229-14.092-12.951-21.137"/><path fill="none" stroke="#201B17" d="M221.373 289.182s2.279 17.51-4.663 23.416c0 0-15.229-14.092-12.951-21.137M202.619 300.889s-1.141 23.416-5.906 24.557c0 0-2.279-5.803-2.279-9.319"/><path fill="none" stroke="#201B17" stroke-width=".013" d="M253.596 328.969l-.621 4.766s-10.563-4.766-13.988-23.52"/><path fill="none" stroke="#201B17" d="M253.596 328.969l-.621 4.766s-10.563-4.766-13.988-23.52"/><path fill="none" stroke="#201B17" stroke-width=".013" d="M220.751 318.503c2.901 12.849 11.708 19.271 13.47 18.753 5.284-1.761 4.146-30.564 4.146-30.564"/><path fill="none" stroke="#201B17" d="M220.751 318.503c2.901 12.849 11.708 19.271 13.47 18.753 5.284-1.761 4.146-30.564 4.146-30.564"/><path fill="none" stroke="#201B17" stroke-width=".013" d="M216.71 320.782s-2.383 25.799-7.045 28.183c-4.767 2.279-12.951-23.521-12.951-23.521"/><path fill="none" stroke="#201B17" d="M216.71 320.782s-2.383 25.799-7.045 28.183c-4.767 2.279-12.951-23.521-12.951-23.521"/><path fill="none" stroke="#201B17" stroke-width=".013" d="M234.221 343.061s-1.14 29.321-4.662 30.461c-3.521 1.244-10.563-10.563-11.707-14.09"/><path fill="none" stroke="#201B17" d="M234.221 343.061s-1.14 29.321-4.662 30.461c-3.521 1.244-10.563-10.563-11.707-14.09"/><path fill="none" stroke="#201B17" stroke-width=".013" d="M213.188 356.011s0 22.173-4.767 24.558l-4.662-9.32"/><path fill="none" stroke="#201B17" d="M213.188 356.011s0 22.173-4.767 24.558l-4.662-9.32"/><path fill="none" stroke="#201B17" stroke-width=".013" d="M264.684 377.044s0 14.091-3.521 15.229c-3.419 1.244-9.325-19.896-9.325-19.896"/><path fill="none" stroke="#201B17" d="M264.684 377.044s0 14.091-3.521 15.229c-3.419 1.244-9.325-19.896-9.325-19.896"/><path fill="none" stroke="#201B17" stroke-width=".013" d="M248.313 374.766s-2.383 22.172-7.045 23.416c-4.664 1.146-14.092-17.613-12.849-21.137"/><path fill="none" stroke="#201B17" d="M248.313 374.766s-2.383 22.172-7.045 23.416c-4.664 1.146-14.092-17.613-12.849-21.137"/><path fill="none" stroke="#201B17" stroke-width=".013" d="M227.176 387.611s-1.035 12.02-4.662 12.849c-4.662 1.243-11.709-5.803-12.849-12.849"/><path fill="none" stroke="#201B17" d="M227.176 387.611s-1.035 12.02-4.662 12.849c-4.662 1.243-11.709-5.803-12.849-12.849"/><path fill="none" stroke="#201B17" stroke-width=".013" d="M256.497 341.92s1.243 24.557-3.522 25.801c-4.662 1.139-13.988-8.289-16.371-16.476"/><path fill="none" stroke="#201B17" d="M256.497 341.92s1.243 24.557-3.522 25.801c-4.662 1.139-13.988-8.289-16.371-16.476"/><g stroke="#201B17"><path fill="#F6C314" d="M298.148 388.751c2.383 3.419-1.146 8.187-2.901 10.568-1.761 2.381-32.327 9.941-49.837 12.945-21.24 3.523-49.319 5.394-57.506 6.43-4.661.519-7.563-3.522-7.563-8.188 0-6.521 5.284-7.668 8.187-7.668 0 0 3.521-.621 3.521 1.762 0 0 2.901-2.896 5.906-2.896 2.898 0 5.283 1.14 5.283 3.521 0 0 2.279-4.145 5.182-4.767 3.005-.52 7.045 0 7.667 2.383 0 0 3.521-.621 6.425-2.383 2.902-1.762 7.047-1.762 9.43.622 0 0 6.428-2.384 9.324-2.901 2.9-.622 8.812-1.762 9.43.521 0 0 1.765-4.662 4.662-5.183 2.899-.623 9.947-3.521 12.852-.623 0 0 2.384-3.521 4.146-3.521s5.903-1.142 6.424.621c0 0 2.387-4.146 7.668-4.767 5.277-.517 8.799-.517 11.7 3.524h0z"/><path fill="#EE9B21" d="M295.249 392.898c-1.14 1.761-3.005 5.802-.622 9.319 2.383 3.522 2.9 5.905 0 8.288 0 0 8.807-1.761 8.186-11.812-.624-9.939-5.803-8.696-7.564-5.795h0zM241.889 400.461c-3.521.622-3.521 3.523-1.762 8.289 1.762 4.662 4.662 8.703 2.9 12.227 0 0 9.947-5.279 7.046-13.982-2.9-8.813-4.662-7.053-8.184-6.534h0zM188.527 408.129c-2.693-1.14-8.188 4.456-8.188 7.563 0 5.279 2.901 10.563 8.188 12.329 0 0-2.383-10.567 0-11.091 2.384-.616 5.909-6.418 0-8.801z"/></g><g fill="none" stroke="#201B17"><path d="M286.441 385.23s-5.284 4.767-.623 6.521c0 0 2.384-1.238 5.285-1.238M274.111 396.938s-4.662-1.14-5.905 1.243c0 0 2.383-4.661 0-5.284M257.119 393.52s-3.523 3.418-.622 5.186c0 0 3.522-2.279 5.284-.521M230.18 405.745s-9.945 0-9.945 2.383c0 0 4.662-8.186 2.279-7.667M210.184 401.082s-3.521 2.901-1.762 5.905"/></g><path fill="#F6C314" stroke="#201B17" d="M125.222 232.92L80.668 392.275s35.229 12.945 62.168 10.563l22.276-114.9-39.89-55.018h0z"/><path fill="none" stroke="#201B17" d="M118.176 271.566s7.045-7.045 9.428-11.707c0 0-2.383 19.894 2.279 21.137 4.767 1.141 5.906-4.766 5.906-4.766M111.131 287.938s-1.141 9.435 1.243 14.092c0 0 10.567-12.848 10.567-22.271M131.127 289.182s-2.383 17.51 4.662 23.416c0 .002 15.231-14.093 12.848-21.137M149.881 300.889s1.141 23.418 5.803 24.557c0 0 2.383-5.803 2.383-9.319M98.904 328.969l.518 4.766s10.568-4.766 14.092-23.52M131.646 318.503c-2.901 12.849-11.708 19.271-13.47 18.753-5.284-1.761-4.041-30.564-4.041-30.564"/><path fill="none" stroke="#201B17" d="M135.789 320.782s2.384 25.799 7.046 28.183c4.663 2.279 12.848-23.521 12.848-23.521M118.176 343.061s1.243 29.321 4.766 30.461c3.523 1.244 10.465-10.563 11.708-14.09M139.313 356.011s0 22.173 4.662 24.558l4.663-9.32M87.714 377.044s0 14.091 3.522 15.229c3.523 1.244 9.429-19.896 9.429-19.896M104.188 374.766s2.279 22.172 6.942 23.416c4.767 1.146 14.091-17.613 12.952-21.137M125.222 387.611s1.14 12.02 4.662 12.849c4.767 1.243 11.812-5.803 12.952-12.849M95.899 341.92s-1.14 24.557 3.522 25.801c4.767 1.139 14.092-8.289 16.475-16.476"/><path fill="#F6C314" stroke="#201B17" d="M54.352 388.751c-2.383 3.419 1.139 8.187 2.9 10.568 1.761 2.382 32.224 9.941 49.838 12.945 21.24 3.523 49.318 5.394 57.4 6.43 4.662.519 7.668-3.522 7.668-8.188 0-6.521-5.285-7.668-8.186-7.668 0 0-3.523-.621-3.523 1.762 0 0-3.004-2.896-5.906-2.896-2.9 0-5.283 1.14-5.283 3.521 0 0-2.279-4.145-5.285-4.767-2.9-.52-7.045 0-7.563 2.383 0 0-3.523-.621-6.528-2.383-2.901-1.762-6.942-1.762-9.325.622 0 0-6.424-2.384-9.428-2.901-2.902-.622-8.704-1.762-9.326.521 0 0-1.761-4.662-4.662-5.183-3.005-.623-9.947-3.521-12.951-.623 0 0-2.279-3.521-4.041-3.521-1.762 0-5.906-1.142-6.527.621 0 0-2.279-4.146-7.564-4.767-5.285-.517-8.808-.517-11.708 3.524h0z"/><path fill="#EE9B21" stroke="#201B17" d="M57.252 392.898c1.14 1.761 2.901 5.802.622 9.319-2.384 3.522-3.005 5.905 0 8.288 0 0-8.808-1.761-8.186-11.812.519-9.939 5.802-8.696 7.564-5.795h0zM110.611 400.461c3.523.622 3.523 3.523 1.762 8.289-1.762 4.662-4.662 8.703-2.9 12.227 0 0-10.051-5.279-7.046-13.982 2.901-8.813 4.662-7.053 8.184-6.534h0zM163.972 408.129c2.694-1.14 8.186 4.456 8.186 7.563 0 5.279-3.005 10.563-8.186 12.329 0 0 2.279-10.567 0-11.091-2.383-.616-5.906-6.418 0-8.801z"/><g fill="none" stroke="#201B17"><path d="M66.059 385.23s5.285 4.767.622 6.521c0 0-2.384-1.238-5.284-1.238M78.389 396.938s4.662-1.14 5.802 1.243c0 0-2.279-4.661 0-5.284M95.381 393.52s3.523 3.418.519 5.186c0 0-3.522-2.279-5.181-.521M122.32 405.745s9.946 0 9.946 2.383c0 0-4.663-8.186-2.383-7.667M142.213 401.082s3.523 2.901 1.762 5.905"/></g><g fill="#201B17" stroke="#201B17" stroke-width=".013"><path d="M162.729 297.988l-16.993 90.763 7.046 11.191 9.429-10.568 9.324-83.822-3.522-6.424zM189.668 297.988l16.992 90.763-5.181 11.191-11.19-10.568-9.324-83.822 3.521-6.424zM166.252 389.374l9.946 14.092 9.947-13.47-9.326-96.564z"/></g><path fill="#F6C314" stroke="#201B17" d="M207.902 135.629c1.763.104-2.383-9.429-2.383-9.429 4.662 4.767 22.271 5.906 22.271 5.906-10.563-4.663-21.139-39.891-19.896-67.97 1.144-28.182-4.041-39.269-8.188-43.413-5.284-5.284-22.276-9.946-33.466-10.568-6.32-.313-5.285 4.767-5.285 4.767-11.707-3.005-23.416-4.145-28.7-.622-4.974 3.315-6.009 19.894-2.383 16.992 8.808-7.046 16.475-.622 21.759 7.046 4.662 6.734 4.352 25.799-2.383 48.076-7.046 23.416-26.318 46.832-26.318 46.832 10.465 0 25.178-9.325 25.178-9.325l-3.522 14.609c11.087-5.284 19.894-13.47 19.894-13.47l10.568 11.086c3.521-4.662 10.568-11.086 10.568-11.086s8.818 9.326 22.286 10.569h0z"/><path fill="none" stroke="#201B17" d="M165.111 68.178s-5.906 43.414-16.992 55.744M174.437 67.039s-2.279 43.931-9.946 58.021M182.727 68.799s0 48.076 2.9 56.262M193.189 71.183s2.384 40.409 12.33 55.018"/><path fill="#201B17" stroke="#201B17" stroke-width=".013" d="M154.439 47.145c-.518-3.834-1.45-6.838-2.797-8.807-5.284-7.668-12.951-14.092-21.759-7.046 0 0 3.005-9.325 9.429-9.636 4.973-.313 16.268 3.729 26.214 20.723 0 0-7.356-1.658-9.118-.104-3.315 2.901-1.969 4.87-1.969 4.87h0z"/><path fill="#201B17" stroke="#201B17" stroke-width=".013" d="M128.951 19.791c.725-2.383 1.865-4.559 3.315-5.491 5.284-3.522 16.992-2.384 28.7.622 0 0-1.036-5.077 5.284-4.767 11.19.622 28.184 5.284 33.467 10.568 1.243 1.347 2.694 3.315 3.938 6.32h-.201c-2.596-3.626-9.947-3.419-11.715-3.212-2.797.311-4.559.207-8.282 1.14-1.767.415-4.456.933-5.906 2.072-1.14.933-2.072 4.352-3.834 4.352-2.797 0-2.59-.726-3.315-1.554-.933-1.141-1.45-2.798-2.383-2.694-2.901.519-7.563-1.761-13.47-6.424-5.907-4.663-8.186-5.802-15.853-5.284-7.563.621-9.946 4.869-9.946 4.869l.201-.517h0z"/><path fill="#F6C314" stroke="#201B17" stroke-width=".013" d="M172.262 26.63c1.761 0 3.107-1.347 3.107-3.108s-1.347-3.108-3.107-3.108c-1.658 0-3.109 1.347-3.109 3.108s1.451 3.108 3.109 3.108z"/><path fill="none" stroke="#201B17" d="M233.514 273.939s-7.047-7.047-9.431-11.709c0 0 2.384 19.894-2.278 21.137-4.767 1.141-5.906-4.766-5.906-4.766"/><path fill="#FFF" stroke="#201B17" d="M176.197 311.688c81.013-62.31 74.065-153.583 74.065-153.583a31.524 31.524 0 01-6.306.642c-16.993 0-57.524-9.722-66.979-22.07-10.129 11.177-51.548 22.07-68.435 22.07a30.77 30.77 0 01-6.307-.642c.001-.001-7.051 91.274 73.962 153.583h0z"/><linearGradient id="a" gradientUnits="userSpaceOnUse" x1="176.246" y1="1057.634" x2="176.246" y2="1226.687" gradientTransform="translate(0 -915)"><stop offset=".3" stop-color="#ce2028"/><stop offset=".3" stop-color="#fdf4f0"/><stop offset=".336" stop-color="#fef9f6"/><stop offset=".416" stop-color="#fffefd"/><stop offset=".64" stop-color="#fff"/><stop offset=".64" stop-color="#fdfdfd"/><stop offset=".64" stop-color="#f6f6f6"/><stop offset=".64" stop-color="#ebebeb"/><stop offset=".64" stop-color="#dadada"/><stop offset=".64" stop-color="#c4c4c4"/><stop offset=".64" stop-color="#a8a8a8"/><stop offset=".64" stop-color="#888"/><stop offset=".64" stop-color="#626262"/><stop offset=".64" stop-color="#373737"/><stop offset=".64" stop-color="#090909"/><stop offset=".64"/></linearGradient><path fill="url(#a)" d="M246.134 162.994c-.721.045-1.446.066-2.177.066-15.93 0-52.932-8.172-67.191-20.426-14.939 11.319-52.551 20.426-68.223 20.426-.734 0-1.461-.09-2.182-.222-.035 3.571.15 7.271.371 10.638.83 12.58 3.036 25.205 6.387 37.354 10.545 38.236 32.13 70.73 63.078 95.38 30.975-24.67 52.583-57.192 63.153-95.458 3.354-12.146 5.567-24.771 6.404-37.352.221-3.296.404-6.91.38-10.406z"/><path fill="none" d="M246.134 162.994c-.721.045-1.446.066-2.177.066-15.93 0-52.932-8.172-67.191-20.426-14.939 11.319-52.551 20.426-68.223 20.426-.734 0-1.461-.09-2.182-.222-.035 3.571.15 7.271.371 10.638.83 12.58 3.036 25.205 6.387 37.354 10.545 38.236 32.13 70.73 63.078 95.38 30.975-24.67 52.583-57.192 63.153-95.458 3.354-12.146 5.567-24.771 6.404-37.352.221-3.296.404-6.91.38-10.406z"/><path fill="none" d="M246.134 162.994c-.721.045-1.446.066-2.177.066-15.93 0-52.932-8.172-67.191-20.426-14.939 11.319-52.551 20.426-68.223 20.426-.734 0-1.461-.09-2.182-.222-.035 3.571.15 7.271.371 10.638.83 12.58 3.036 25.205 6.387 37.354 10.545 38.236 32.13 70.73 63.078 95.38 30.975-24.67 52.583-57.192 63.153-95.458 3.354-12.146 5.567-24.771 6.404-37.352.221-3.296.404-6.91.38-10.406z"/><path fill="none" stroke="#201B17" d="M246.134 162.994c-.721.045-1.446.066-2.177.066-15.93 0-52.932-8.172-67.191-20.426-14.939 11.319-52.551 20.426-68.223 20.426-.734 0-1.461-.09-2.182-.222-.035 3.571.15 7.271.371 10.638.83 12.58 3.036 25.205 6.387 37.354 10.545 38.236 32.13 70.73 63.078 95.38 30.975-24.67 52.583-57.192 63.153-95.458 3.354-12.146 5.567-24.771 6.404-37.352.221-3.296.404-6.91.38-10.406h0z"/><g fill="#119B4A"><path d="M199.328 212.763c-.318-.167-.676-.437-.795-.6-.18-.25-.074-.259.662-.06 1.322.358 2.174.219 3.02-.497l.744-.628.878.447c.483.244.996.413 1.144.374.381-.1 1.168-1.111 1.145-1.461-.029-.432.335-.324.512.15.35.929-.16 1.996-1.063 2.232-.441.115-.851.072-1.517-.16-.82-.286-.959-.282-1.371.033-.923.706-2.207.771-3.359.17zM202.594 209.775c-.32-.408-.705-1.95-.58-2.329.108-.328.221-.393.521-.3.521.164.645.524.564 1.746-.061.996-.208 1.257-.505.883zM164.126 208.668c-.105.747 1.325 2.602 1.97 2.938-.438.196-.984.107-1.387.329-2.249 2.25-10.464 10.259-11.965 12.173 4.444.088 9.373-.061 13.539-.251-.004-3.019 2.859-3.175 4.775-4.275.986 1.553 3.461 1.434 3.771 3.771 0 2.797.005 7.011.005 10.054h-37.96c-.668 2.948-3.33 5.198-7.039 4.273 1.147-1.198 3.081-1.611 3.771-3.268.584-3.627-1.165-5.866-2.296-7.924 1.871-.681 2.155-.851 4.057-2.129-1.334 4.057 3.471 3.611 7.039 3.519.121-1.378.051-3.004-1.006-3.204 1.365-.496 1.592-.666 3.771-2.514v5.652c.579 0 26.288.065 26.288.065 0-1.711.454-4.774-.901-4.774-1.292 0-.061 3.518-1.065 3.518h-20.3c0-.757-.02-2.339-.02-3.479.86-.861.758-.786 6.637-6.665.584-.583 4.707-4.309 8.316-7.809zM214.869 208.523c1.417.763 2.539 1.818 4.273 2.263-.201.718-.841 1.002-1.009 1.759v15.333c1.938.427 2.349-.672 3.271-1.257.252 2.454 1.813 4.86 1.76 6.786h-8.295v-24.884zM203.811 216.734s3.018-2.547 3.018-2.645v13.381l2.174-.003c0-5.099-.066-10.27-.066-15.007.883-.882 2.608-2.161 3.041-3.053v23.964c-6.123 0-17.545.007-19.056.007-.278-4.975-.329-10.125 5.47-9.018v-2.03c-.177-.347-.494.083-.568-.368.922-.921 1.232-1.156 3.727-3.333 0 2.628.047 8.831.047 8.831l2.197.003c-.006.001.016-10.385.016-10.729zm-7.368 10.663c.512.766 2.248.751 2.164-.538-.293-1.063-2.573-.657-2.164.538z"/><circle cx="141.497" cy="236.232" r="1.164"/><path d="M177.404 208.547c1.418.763 2.54 1.818 4.274 2.263-.201.718-.84 1.002-1.008 1.759v15.333c1.938.428 2.348-.671 3.27-1.257.252 2.454 1.813 4.86 1.761 6.787h-8.295c-.002-8.294-.002-16.589-.002-24.885z"/></g><text style="line-height:125%" transform="matrix(-.127 -.99353 1.1112 -.11354 -486.38 818.283)" font-size="16" font-weight="400" letter-spacing="0" word-spacing="0" font-family="Sans"><textPath xlink:href="#b"/></text><g style="text-align:center;line-height:125%;-inkscape-font-specification:Sans" font-size="40" font-weight="400" letter-spacing="0" word-spacing="0" text-anchor="middle" font-family="AlBattar"><path d="M291.603 438.387l-1.703.51c.162.384.332.72.51 1.006l.268.43.455.514c.474.6 1.112 1.105 1.915 1.515a2.911 2.911 0 01-1.395.069l-.753-.192-.826-.356c-.951-.443-1.674-1.231-2.169-2.367l-15.01 4.49-1.018-3.407 14.456-4.324-.644-1.222c-.329-.582-.885-1.096-1.668-1.542-.44-.286-1.085-.449-1.932-.49-.328-.01-.81.034-1.445.131l-.969.174-2.212.592c-1.595.508-2.676.67-3.242.483-.552-.19-.936-.648-1.153-1.372l-.955-3.193.97.452c.324.15 1.022.313 2.094.487l.605.005.67-.085.899-.176.553-.165c1.335-.4 2.18-.575 2.534-.526.7-.086 1.305-.082 1.813.014a4.478 4.478 0 011.83.612c.535.289 1.175.747 1.92 1.375l1.196 1.52c.184.255.646 1.021 1.384 2.3l2.023-.605 1 3.343m-5.641 7.973l-1.716 3.18-3.064-1.634 1.618-3.198 3.162 1.652" style="-inkscape-font-specification:AlBattar"/><path d="M272.865 444.005l-4.648 1.197a5.509 5.509 0 01-1.035 3.112c-.643.945-1.539 1.566-2.687 1.862-1.277.329-2.499.276-3.666-.158-.892-.198-1.78-.941-2.662-2.229l-3.357.865-.876-3.4 3.314-.854c.002-1.24.4-2.313 1.19-3.22a5.16 5.16 0 011.448-1.153c.587-.335 1.117-.563 1.59-.685 1.076-.277 2.1-.22 3.074.172.972.392 1.882 1.16 2.727 2.304l4.713-1.213.875 3.4m-7.894.266c-.148-.574-.498-1.073-1.05-1.497-.553-.424-1.174-.547-1.863-.37-.602.156-1.087.533-1.452 1.132a3.69 3.69 0 00-.226.815c-.041.317-.017.647.071.992a2.738 2.738 0 001.008 1.507c.524.37 1.151.46 1.883.272s1.227-.553 1.485-1.093c.259-.541.307-1.127.144-1.758" style="-inkscape-font-specification:AlBattar"/><path d="M254.837 448.839l-13.429 2.652 1.481 7.5-.628.146c-.276.055-.44.103-.493.143-.843.167-1.403.232-1.682.197l-.427.016a.701.701 0 01-.393-.036l-.387-.014-.423-.075c-.657-.036-1.184-.144-1.581-.322l-.797-.25-1.006-.39a7.968 7.968 0 01-2.759-1.811c-.701-.723-1.354-1.696-1.958-2.92l-4.251.839-.68-3.445 4.36-.86c-.224-1.135-.174-2.33.152-3.587l.474-1.385c.19-.49.426-.937.71-1.34.42-.627 1.136-1.395 2.149-2.305.582-.342 1.537-.817 2.867-1.427l-.289-1.46-1.357-1.25 3.617-3.365 1.06 5.363c.508-.1.787-.14.836-.12.175-.034.38-.03.615.014l.71.041.98.147a8.797 8.797 0 014.658 2.25l.843.944.278.376.456.702c.42.748.721 1.587.905 2.517l4.71-.93.68 3.445m-8.573-1.886c-.448-2.267-1.832-3.693-4.152-4.277-1.016-.025-1.651-.028-1.904-.009-.247.05-.39.092-.428.13l1.034 5.232 5.45-1.076m-8.633 1.705l-1.05-5.32a4.183 4.183 0 00-2.178 1.133c-1.572 1.292-2.146 3.013-1.72 5.164l4.948-.977m1.503 7.609l-.823-4.165-4.578.905c.295.727.646 1.284 1.055 1.671.35.324 1.004.723 1.958 1.2l1.163.381c.372.048.78.05 1.225.007" style="-inkscape-font-specification:AlBattar"/><path d="M226.046 454.363l-4.033.522.083.64c.16 1.233.03 2.356-.393 3.366-.405 1.024-1.182 1.946-2.33 2.767-1.147.836-2.242 1.321-3.285 1.456-1.484.193-2.98-.114-4.488-.92l-.628-.344.994.23.797.098.868-.045a6.421 6.421 0 003.043-1.245c.928-.674 1.566-1.458 1.913-2.355.347-.896.464-1.778.352-2.645l-.077-.595-7.757 1.005-.397-3.063-.088-1.02-.048-.374a3.617 3.617 0 01-.03-.4c.013-.136.017-.278.013-.427.01-.15.043-.416.098-.797.053-.395.24-.8.56-1.215.336-.402.781-.714 1.335-.935l.35-.068.308-.04.243-.031.11-.015a7.088 7.088 0 01-.265-1.175c-.066-.515-.096-.802-.089-.863l.03-.295c.077-.323.317-.72.719-1.19.155-.185.36-.339.612-.461l.851-.178.265-.034.785-.169 1.756-.452c.337-.163.772-.443 1.303-.84l.645-.555 1.26 9.72 4.164-.54.451 3.481m-7.701-2.542l-.654-5.047a.688.688 0 00-.28.081l-.493.176c-.089.012-.243.084-.465.217l-.49.198c-.103.013-.212.095-.327.244a1.459 1.459 0 00-.273.484l-.005.65c.059.456.276.808.652 1.059a1.72 1.72 0 00-.631-.03c-.764.098-1.285.517-1.563 1.255-.035.08-.06.291-.074.637l.031.242.01.425 4.562-.591M206.212 459.624c-.16.858-.392 1.544-.696 2.056-1.43 2.586-3.607 3.986-6.533 4.2-.709.052-1.415.044-2.118-.023l-1.147-.139-.657-.152c-.3-.038-.504-.09-.613-.156l-1.09-.277 1.164.071c.443-.032.68-.035.712-.008.296-.022.452-.018.47.01 2.008-.147 3.703-.843 5.082-2.088 1.463-1.325 2.228-2.948 2.295-4.87l-.025-.644a6.854 6.854 0 00-1.06-3.22c-.623-.994-1.307-1.612-2.052-1.855l-1.158-.294c.501-.452.93-1.197 1.285-2.233l.155-.925.023-.893a3.536 3.536 0 00-.196-.854l-.148-.502-.242-.562.587.403a13.6 13.6 0 011.271.932c.396.327.786.685 1.17 1.073.723.734 1.4 1.658 2.03 2.77.41.713.774 1.436 1.095 2.17.28.767.449 1.557.508 2.37l.021.288.02.265.014.2c.013.177.02.362.019.556.015.206.009.422-.02.647.021.281.006.594-.042.94l-.124.744M188.944 457.924l-10.263.248-.085-3.51 6.865-.166-.116-4.798-1.334-.924 4.597-4.801.336 13.951m.098 5.911l-2.297-2.19-4.399 4.73-2.322-2.278 2.212-2.298 4.619 4.423 2.187-2.387" style="-inkscape-font-specification:AlBattar"/><path d="M172.749 438.658l-2.337-2.527-5.127 4.94-2.379-2.617 2.506-2.405 4.872 5.125 2.465-2.516m5.951 19.579l-16.239-.41.108-4.266.017-.666.09-.91.082-.62.215-.617.167-.44.303-.548c.249-.468.556-.883.92-1.244 1.248-1.258 2.708-1.866 4.381-1.823l.622.037c.355.01.584.045.686.107.252.006.407.047.464.123l.616.237.066-2.599-1.214-1.23 4.864-3.323-.369 14.573 4.31.109-.089 3.51m-7.753-3.709l.105-4.154c-.523-.398-1.133-.606-1.83-.624-.858-.022-1.622.278-2.29.898-.667.606-1.011 1.345-1.033 2.22l-.04 1.532 5.088.128M150.293 436.694l-1.624.793-1.973 19.098-3.183-.329 2.558-24.757 4.222 5.195M139.656 455.765l-7.69-1.009.457-3.481 4.56.598 2.05-15.622-1.46-1.177 5.329-4.053-3.246 24.744" style="-inkscape-font-specification:AlBattar"/><path d="M131.965 454.914l-11.003-1.966-1.527-1.943-1.886 1.333-9.45-1.688.617-3.457 8.576 1.533 7.068-4.313-.222-.65-.21-.466c-.052-.13-.163-.27-.331-.42a2.969 2.969 0 00-.243-.157 4.207 4.207 0 00-.432-.235l-.197-.035-.32-.102a.964.964 0 01-.323-.216l-.355-.29-.421-.548-.295-.37-.391.292-.413.288-.613.274-.91.04c-.263-.047-.68.014-1.252.183l-.442.327-.347.3-.159.13 2.378 2.862-2.563 1.46-1.696-2.13c-.108-.156-.291-.309-.55-.46a2.324 2.324 0 00-.866-.336c-.61-.033-1.197.298-1.758.996l-.202-.51.008-.676a1.68 1.68 0 01.692-1.096c.396-.275.82-.373 1.271-.292l.365.11-.023-.252-.013-.431c.08-.452.454-.942 1.12-1.47.455-.356.879-.58 1.272-.676l1.508-.227c.661-.078 1.12-.161 1.377-.25.37-.055.84-.28 1.407-.675l.438-.305.403-.357.388-.405.412-.536c.098.966.365 1.66.801 2.085l.626.54.7.509 1.403.86.442.305c.141.055.303.16.486.313.26.151.589.496.99 1.034.51.678.72 1.273.629 1.783a.894.894 0 01-.214.436l-.174.217.65.026c.365.065.66.314.883.745.089.091.154.276.194.554.058.266.064.53.017.793-.026.146-.217.458-.574.936-.046-.415-.163-.73-.35-.943-.154-.238-.474-.424-.962-.556a2.491 2.491 0 00-1.574.216l-4.333 2.521 11.09 1.982-.617 3.456" style="-inkscape-font-specification:AlBattar"/><path d="M108.12 450.554l-3.333-.773c-.167.722-.512 1.585-1.033 2.59-.417.815-.852 1.444-1.304 1.887-2.133 2.182-4.636 2.94-7.508 2.276-1.328-.308-2.714-.987-4.159-2.036l-.43-.305.54.125c2.093.485 4.092.423 5.997-.185 1.916-.59 3.33-1.904 4.244-3.944l.184-.596c.274-1.183.25-2.33-.07-3.438-.304-1.12-.778-1.898-1.421-2.336l-1.014-.645c.613-.284 1.24-.861 1.884-1.731l.448-.854.26-.83.08-.437c.036-.16.05-.316.04-.47l.002-.501a1.694 1.694 0 00-.091-.592l.778 1.07.947 1.428.499.8c.626 1.104 1.056 2.435 1.287 3.994l.134 1.194 3.832.888-.792 3.42M93.327 426.359l-1.725.537-4.847 18.578-3.096-.807 6.282-24.083 3.386 5.775M84.589 424.65l-1.482-2.79-5.635 3.157-1.561-2.835 2.829-1.54 3.099 5.594 2.75-1.586m-4.767 19.164a7.342 7.342 0 01-1.212 2.425c-.534.725-1.239 1.346-2.113 1.863-1.981 1.246-4.26 1.496-6.835.75-1.85-.536-3.415-1.653-4.697-3.351-1.421-1.908-1.843-3.858-1.266-5.85a6.943 6.943 0 01.723-1.619l.764-.958.632-.904c.379-.508.626-.96.741-1.359a1.78 1.78 0 00.078-.51c.046-.156-.025-.392-.21-.708-.168-.327-.395-.531-.68-.614a.98.98 0 00-.485-.002c-.787.111-1.297.565-1.528 1.362l-.088-.095a3.528 3.528 0 01-.074-2.22c.247-.853.758-1.391 1.532-1.614l.596-.06.564.049-.032-.45.07-.72.231-.557a2.07 2.07 0 01.411-.46c.204-.171.438-.312.7-.42l1.466-.108.473.044-.371.563-.437.869-.013 1.083v.88c-.027.624-.175 1.399-.443 2.324-.057.199-.543 1.022-1.456 2.47-.913 1.447-1.504 2.634-1.772 3.558l-.19 1.056c-.024 1.15.477 2.267 1.505 3.351l.212.224.481.417c.049.045.198.142.448.291.115.08.24.155.374.225l.826.424c.23.113.55.229.963.349 1.437.416 2.8.348 4.085-.205.444-.149.964-.476 1.558-.983l.31-.35.358-.52c.142-.222.24-.378.298-.47.154-.263.247-.452.28-.566l-7.406-2.146.86-2.967.268-.848.13-.448c.05-.17.13-.34.24-.509a2.99 2.99 0 01.596-.938c.053-.077.239-.24.557-.486l.68-.59c.237-.178.528-.279.874-.302l.586.054.51.079.384.11.065-.304.041-.381.143-.491c.103-.356.295-.755.578-1.198.3-.452.72-.779 1.255-.978l.421-.017.55.02.778.11.945.251c.54.157 1.17.277 1.885.362.73.088 1.269.066 1.615-.065l.342-.062-3.65 12.593-.025.247m-2.245-4.468l1.454-5.016-.391.072-.757-.104c-.298-.087-.57-.08-.815.018-.393.133-.672.484-.837 1.053l-.1.504c.001.154.053.323.154.507l-.436-.173-.347-.077c-.072-.021-.237-.007-.498.04-.242.038-.56.2-.951.488l-.249.298-.286.589-.081.6 4.14 1.2" style="-inkscape-font-specification:AlBattar"/></g></svg>