<svg xmlns="http://www.w3.org/2000/svg" width="504" height="570" version="1.0"><path d="M-894.521 35.521a1.5 1.5 0 11-3 0 1.5 1.5 0 013 0z"/><path d="M431.056 71.772c9.4-3.715 16.683-5.76 24.01 6.311 23.464 38.663 34.144 83.767 30.174 128.108l-28.709-12.05" fill="#fff" stroke="#000" stroke-width="4.288" stroke-linejoin="round"/><path d="M368.31 30.938c7.58-6.688 13.735-11.086 24.726-2.222 63.222 50.982 94.724 135.511 70.175 218.015l-20.965-23.662" fill="#feb402" stroke="#000" stroke-width="4.288" stroke-linejoin="round"/><path d="M302.246 15.926c5.357-8.571 10.002-14.542 23.065-9.181 75.136 30.835 129.436 102.87 129.436 188.948 0 9.455-.648 18.76-1.902 27.872h0l-20.957-7.639" fill="#fff" stroke="#000" stroke-width="4.288" stroke-linejoin="round"/><path d="M252 24.676c0-14.286 14.264-16.07 25.775-14.415 92.065 13.231 163.202 91.826 163.202 187.45 0 8.82-.604 17.499-1.773 25.998h0l-23.03 3.646" fill="#feb402" stroke="#000" stroke-width="4" stroke-linejoin="round"/><path d="M72.944 71.772c-9.4-3.715-16.683-5.76-24.01 6.311C25.47 116.746 14.79 161.85 18.76 206.191l28.709-12.05" fill="#fff" stroke="#000" stroke-width="4.288" stroke-linejoin="round"/><path d="M135.69 30.938c-7.58-6.688-13.735-11.086-24.726-2.222C47.742 79.698 16.24 164.227 40.789 246.73l20.965-23.662" fill="#feb402" stroke="#000" stroke-width="4.288" stroke-linejoin="round"/><path d="M201.754 15.926c-5.357-8.571-10.002-14.542-23.064-9.181C103.553 37.58 49.254 109.615 49.254 195.693c0 9.455.647 18.76 1.901 27.872h0l20.957-7.639" fill="#fff" stroke="#000" stroke-width="4.288" stroke-linejoin="round"/><path d="M252 24.676c0-14.286-14.264-16.07-25.775-14.415C134.16 23.492 63.023 102.087 63.023 197.71c0 8.82.604 17.499 1.773 25.998h0l23.03 3.646" fill="#feb402" stroke="#000" stroke-width="4" stroke-linejoin="round"/><path d="M253.095 24.128c-94.283 0-170.948 75.362-173.375 169.063.13-1.318.183-2.63.5-3.969a34.842 34.842 0 012.313-6.656 36.792 36.792 0 013.718-6.25 34.61 34.61 0 014.97-5.438c1.845-1.627 3.867-3.05 6.062-4.187a27.246 27.246 0 013.406-1.469 26.583 26.583 0 013.656-1.031 26 26 0 013.844-.469 26.83 26.83 0 014.031.094c1.378.138 2.786.39 4.219.75 1.433.36 2.891.837 4.375 1.437a51.248 51.248 0 01-.031-6.031c.11-1.962.354-3.863.687-5.719a44.172 44.172 0 011.313-5.375 41.412 41.412 0 011.906-5 38.217 38.217 0 012.469-4.531 35.655 35.655 0 013-4.031 32.9 32.9 0 013.437-3.469 31.172 31.172 0 013.875-2.875 30.121 30.121 0 014.281-2.219 28.826 28.826 0 014.563-1.468c1.58-.374 3.237-.64 4.906-.75 1.67-.11 3.35-.077 5.094.093 1.744.17 3.54.5 5.344.969 1.803.469 3.62 1.09 5.468 1.875a46.38 46.38 0 015.594 2.844 56.216 56.216 0 015.688 3.875c.915-1.294 1.83-2.406 2.78-3.313a14.475 14.475 0 012.907-2.156c.975-.548 1.948-.936 2.938-1.156a9.933 9.933 0 012.968-.188c.995.08 2.011.277 3 .625.99.349 1.963.819 2.938 1.407.975.587 1.925 1.295 2.875 2.093s1.897 1.71 2.812 2.688c-.568-3.315-.817-6.392-.812-9.188.005-2.795.272-5.313.781-7.562.51-2.25 1.244-4.231 2.188-5.906.472-.838.994-1.593 1.562-2.282a13.42 13.42 0 011.844-1.843c.655-.537 1.36-.994 2.094-1.375a11.599 11.599 0 012.28-.907 12.904 12.904 0 012.532-.406c.865-.06 1.739-.044 2.656.063 1.835.213 3.757.758 5.75 1.656 1.994.897 4.073 2.14 6.157 3.75a67.635 67.635 0 016.312-7.688c2.395-2.513 5.055-4.935 7.906-7.062a51.262 51.262 0 014.407-2.938c1.514-.903 3.071-1.737 4.656-2.437a35.306 35.306 0 014.844-1.719 29.4 29.4 0 014.968-.937c1.675-.166 3.37-.198 5.063-.032 1.693.166 3.399.522 5.094 1.063a26.292 26.292 0 015.062 2.219c1.679.957 3.355 2.145 5 3.562 1.646 1.417 3.249 3.08 4.844 5 1.595 1.92 3.16 4.098 4.687 6.563a82.618 82.618 0 014.47 8.25c1.441 3.052 2.816 6.41 4.155 10.093a57.814 57.814 0 017.407-.281c2.255.065 4.31.294 6.187.688 1.878.393 3.579.938 5.125 1.656a19.333 19.333 0 014.188 2.625 21.139 21.139 0 013.437 3.594c1.022 1.353 1.921 2.865 2.75 4.53.829 1.667 1.569 3.496 2.25 5.47.682 1.973 1.295 4.098 1.875 6.375 2.01-1.384 3.976-2.394 5.875-3.094 1.899-.7 3.731-1.096 5.5-1.219a18.155 18.155 0 015.094.375c1.62.349 3.174.91 4.625 1.625 1.45.714 2.8 1.589 4.062 2.563a28.977 28.977 0 013.47 3.156 32.87 32.87 0 012.843 3.5c.827 1.174 1.545 2.321 2.125 3.437 2.723-2.143 5.515-3.948 8.375-5.406A43.638 43.638 0 01384 150.41a38.74 38.74 0 014.344-.907 35.42 35.42 0 014.281-.343 33.399 33.399 0 014.22.156c1.39.145 2.778.395 4.124.719 1.346.323 2.648.716 3.938 1.218 1.29.503 2.56 1.099 3.78 1.782a30.393 30.393 0 013.532 2.312 32.382 32.382 0 013.313 2.875 34.19 34.19 0 012.968 3.406 38.149 38.149 0 012.657 3.969 43.406 43.406 0 012.312 4.531c.495 1.134.887 2.367 1.313 3.594-11.725-84.439-84.039-149.594-171.688-149.594z" fill="#0182d6"/><path d="M424.521 175.2c.957 7.373 1.302 14.88 1.302 22.512 0 95.811-77.76 173.571-173.572 173.571-95.811 0-173.571-77.76-173.571-173.571 0-95.812-.097 15.294-.097-1.879 0-17.173 17.665-39.427 41.404-29.83-2.02-32.83 27.274-55.306 57.579-31.82 7.323-10.354 15.91-7.829 23.233 0-4.546-26.516 10.354-36.87 27.022-23.991 14.394-20.456 50.063-44.98 71.491 13.948 21.429-2.142 28.572 6.429 33.215 24.643 16.071-11.071 28.928 1.429 33.571 10.357 21.786-17.142 49.494-12.511 58.423 16.06z" fill="#fff" fill-rule="evenodd"/><path d="M348.61 197.153c6.518-.803 15.268 9.108 18.125 10 2.857.893 8.84 1.072 8.84 1.072l-11.161 13.66s-.983.626-3.661.358c-2.679-.268-8.214-3.482-12.768-7.679-4.554-4.196-12.054-4.464-12.054-4.464l12.679-12.947z" fill="#fff" fill-rule="evenodd" stroke="#000"/><path d="M349.24 197.114c-.208.005-.422.007-.626.032l-1.093 1.125 1.718 5.593c6.161-.535 12.398 8.907 15.344 8.907 1.293 0 4.26.09 7.156.187l3.844-4.719s-5.986-.2-8.844-1.093c-2.767-.865-11.058-10.18-17.5-10.032z" fill="#007a3d" fill-rule="evenodd"/><path d="M341.646 205.646l-3.407 2.125-2.312 2.343s7.509.242 12.062 4.438c4.554 4.196 10.072 7.42 12.75 7.687 2.679.268 3.688-.343 3.688-.343l4.531-5.563c-2.92.313-5.958.5-7.844.094-4.553-.982-9.477-7.138-14.03-8.031l-5.438-2.75z" fill="#ce1126" fill-rule="evenodd"/><path d="M348.61 197.153c6.518-.803 15.268 9.108 18.125 10 2.857.893 8.84 1.072 8.84 1.072l-11.161 13.66s-.983.626-3.661.358c-2.679-.268-8.214-3.482-12.768-7.679-4.554-4.196-12.054-4.464-12.054-4.464l12.679-12.947z" fill="none" stroke="#000"/><path d="M264.464 128.433c15.363-7.457 30.646-14.998 45.95-22.535 5.682.776.675 2.97-1.807 4.828-14.722 10.166-28.714 22.109-38.6 37.154-6.192 12.246-11.88 24.814-16.024 37.909 6.285-3.014 11.904-7.31 17.908-10.874 6.454-11.74 12.293-23.859 19.394-35.212 3.26 2.343 2.007 6.978 3.073 10.435-.02 7.037 1.902 11.405 8.13 5.071 14.52-9.176 28.871-18.615 43.382-27.806 3.392 4.08-4.73 6.706-5.915 10.375-3.805 4.137-6.936 8.728-9.043 13.948-7.813 6.002-10.363 16.127-14.719 24.59-1.869 8.168-5.149 16.135-4.567 24.653-.318 7.998-.771 16.003.86 23.899 3.482-.215 7.569.91 10.705-.07 8.767-10.484 15.987-17.799 25.337-27.77.15 1.632.284-.076 1.593.362-3.118.096 3.194 7.25 2.044 9.105-2.351 3.796-4.395 1.302-10.984 2.886-4.102 1.47-4.487 1.023-7.375 4.652l-8.845 10.835 33.253.796c-8.281 9.369-23.202 36.864-27.406 48.698-42.517 7.035-88.41-.05-135.366.997-3.933-7.851-16.693-21.195-22.473-27.717l-15.285-14.318c-8.841 1.022-17.73 1.843-26.625 2.128-3.951-11.87-1.366-24.77 3.19-36.016 3.29-2.694 2.991-4.923-.826-6.695 22.134-11.653 44.965-22.19 67.427-33.306 6.053-18.595 11.901-37.363 18.056-55.857 1.491-2.182 2.101 5.003 3.688 6.418 3.875 10.93 7.945 21.907 12.578 32.493 9.827-4.551 19.54-9.35 29.292-14.056m-17.332 103.2c6.5 2.794 1.488-11.715.357-7.602-.67 2.53-4.621 5.096-2.963 7.602h2.606zm12.406 0c2.254-.606 8.598 1.703 7.38-2.253-1.715-2.67-1.252-8.517-5.638-7.292-5.158.23-14.968-1.283-9.553 6.712-.242 4.898 4.83 2.114 7.811 2.833zm12.626-.155c4.855 1.474 2.035-4.846 3.972-6.212 3.813 1.966 7.693-3.222 2.64-3.184-5.137.54-16.473-2.48-10.99 5.719 1.107 2.663.76 4.837 4.378 3.677zm-138.862-2.096c3.626-5.012 13.416-3.279 15.119-8.706 1.273-5.143 5.691-.138 8.68.43 1.627.088 9.533-.163 6.548-2.131-8.638-7.215-16.696-15.365-26.039-21.546-2.23 1.433-2.855 6.043-4.492 8.65-2.15 8.045-3.811 16.647-1.505 24.845l1.689-1.542zm9.25 1.368c3.614-.48 15.862.56 7.954-4.145-3.229.611-12.737 2.991-11.197 4.168l3.244-.023zm69.843-.012l12.138.1c1.175-4.558-4.777-1.468-7.356-1.997-3.833.238-15.984 1.28-15.785 1.807l11.003.09zm24.434.1c4.522 1.239 6.757-1.361 7.926-5.505-.716-3.489-10.99-.55-13.614 2.048-1.507 4.33 2.864 3.478 5.688 3.456zm-66.117-2.227c5.523 1.116.222-4.613-2.281-4.13-4.206-.311-7.135-.133-2.304 3.021 1.264 1.858 2.657 1.385 4.585 1.11zm7.398-.958c4.343-2.695.401-5.212-3.655-3.98-3.266-1.196 3.359 4.983 3.655 3.98zm11.601-.43c6.234 1.024 14.745-3.352 4.487-2.885l-12.09-.765c-4.454 5.682 2.578 3.914 6.01 3.751l1.593-.1zm13.332-1.346c8.913-.35-8.893-.272 0 0zm29.348-1.074c4.212-4.068 15.17.813 15.142-6.285-1.979-6.986-2.913-14.461-5.888-21.032l-12.525 8.072c.533 6.612.998 13.237 1.976 19.803l1.295-.558zm67.093.463c8.398.613 1.533-1.683-3.268-1.9-5.184.454.794 2.91 3.268 1.9zm-75.746-.796c3.283-3.096-3.071-4.155-.23 0h.23zm86.627-.12c.02-9.442-1.542-18.89.206-28.276.696-11.935 5.606-23.097 10.22-33.978-1.753-3.349-3.775-6.62-8.01-6.837-5.684-1.786-9.692 3.696-14.416 5.871-5.246 3.644 1.696 12.929.625 18.61 2.305 14.608 4.27 29.274 6.834 43.838 1.515.25 3.046.415 4.54.772zm-94.068-1.588c4.766.846 3.958-6.956 7.511-9.382-.885-20.104-1.699-40.253-2.845-60.356-3.64 1.883-10.225 2-9.45 7.54-3.089 20.164-6.883 40.263-9.266 60.501 4.676.623 9.342 1.36 14.05 1.697zm86.039-.018c3.595-5.196-2.126-17.8-2.141-25.849-1.586-10.971-3.59-21.908-4.824-32.916-4.564-1.217-1.798 4.743-2.432 7.373.517 16.882.253 33.82 1.81 50.644 2.527.267 5.053.547 7.587.748zm-48.817-1.517c4.828-.202 12.6.34 7.885-5.893-1.687-5.485-4.71-13.17-7.575-3.466-.286 2.78-6.652 8.078-2.736 9.27l1.129.077 1.297.012zm26.086-.09c5.04-3.314 2.327-15.11 4.473-21.332 1.18-10.115 2.336-20.232 3.506-30.348-2.35-1.727-5.395 2.972-8.014 3.742-3.594 2.506-8.178 4.093-9.51 8.7-3.836 7.28-8.111 14.363-11.252 21.977 1.58 5.55 3.964 10.83 6.015 16.216 4.928.339 9.86.627 14.782 1.046zm-104.42-1.15c10.913 1.028 8.822-14.032 13.01-21.166 3.502-11.668 8.06-23.24 10.543-35.087-2.62.42-6.248 2.92-9.254 4.138l-50.442 24.546c-.665 3.184 4.38 4.565 6.063 7.008l24.111 21.069 5.97-.508zm16.715.503c2.645-.828 8.435 1.751 8.853-1.458 2.986-20.504 6.918-40.899 9.454-61.447-7.087 2.262-11.114 7.254-11.98 14.854-5.03 16.007-10.638 31.91-15.082 48.051h8.755zm56.985-3.184c2.453-4.686 6.02-9.483 7.54-14.354-1.92-3.29-2.126-11.619-5.59-11.476-9.588 3.169-6.407 11.731-3.745 19.49.591 2.113 1.069 4.267 1.795 6.34zm-19.999-15.122c8.177-3.714 15.672-8.449 9.97-18.06-2.895-12.021-5.948-24.004-8.93-36.005-3.118 1.594-7.37 2.564-5.455 6.926 1.556 15.7 2.793 31.495 4.415 47.139zm29.535-2.786c3.011-5.488 8.701-13.711 9.004-18.113-4.89 2.671-9.46 5.871-14.162 8.852 1.722 2.467 2.652 11.625 5.158 9.26zm-11.597-8.436c7.627-1.97.774-9.055-.18-13.888-3.865-10.078-7.772-20.14-11.66-30.208-4.362-1.325-3.396 3.822-2.398 6.402 3.4 13.391 6.516 26.864 10.209 40.173l4.029-2.479zm6.059-7.535c5.124-11.804 8.47-24.434 15.595-35.274.266-2.324-3.623-6.644-6.402-6.726-4.182-1.004-6.554 3.136-9.685 5.116.354-2.997.197-7.378-3.31-7.69l-12.609 5.926c4.069 13.823 9.844 27.315 15.24 40.724.267.846.922-1.917 1.17-2.076zm61.989-76.755c-1.428-1.017 1.427-1.017 0 0zm-38.907 65.266c4.29-2.142 8.168-5.013 12.222-7.561.416-6.262 1.417-12.471 2.134-18.704-5.014 5.636-7.791 13.725-11.824 20.414-.4 1.527-3.667 5.322-2.532 5.851zm17.465-11.143c3.028.117-1.24-11.207-1.147-10.178l-.095 10.178h1.242zm-86.532-4.314c6.358-1.157 4.706-8.365 6.062-13.164 1.048-8.158 4.523-23.787 3.643-27.349-4.97 14.065-9.43 28.313-13.782 42.579l4.077-2.066zm9.694-4.848c4.359-.822 4.7-3.993 3.959-7.798-.394-9.306-.867-18.614-.793-27.93-2.85 3.177-1.855 8.186-3.032 12.16-1.407 8.572-2.516 17.204-4.337 25.698l4.203-2.13zm7.583-3.573c6.13-.483 4.7-4.841 3.305-8.943-2.294-8.27-3.663-17.013-7-24.824 1.749 11.156 1.816 22.832 3.695 33.767zm6.44-3.183c6.213-4.084-4.681-17.98-5.33-21.902 1.452 7.367 3.327 14.667 5.33 21.902z"/><path d="M94.48 269.17c1.376 2.952 2.693 5.94 4.237 8.814.74 1.378 1.606 2.68 2.382 4.038 5.027-2.376 9.662-5.46 14.075-8.332 8.886-5.784 16.836-10.704 25.211-10.704 8.376 0 16.326 4.92 25.212 10.704 8.885 5.783 18.707 12.434 30.717 12.434 12.01 0 21.863-6.65 30.749-12.434 8.885-5.784 16.836-10.704 25.211-10.704s16.295 4.92 25.18 10.704c8.886 5.783 18.708 12.434 30.718 12.434 12.01 0 21.832-6.65 30.717-12.434 8.886-5.784 16.836-10.704 25.212-10.704 8.375 0 16.325 4.92 25.211 10.704 4.376 2.848 8.973 5.9 13.951 8.268.878-1.552 1.86-3.034 2.692-4.615 1.408-2.678 2.602-5.48 3.866-8.236-4.852-1.979-9.739-4.959-14.972-8.365-8.885-5.783-18.738-12.434-30.748-12.434-12.01 0-21.832 6.65-30.718 12.434-8.885 5.784-16.836 10.704-25.211 10.704s-16.295-4.92-25.18-10.704c-8.886-5.783-18.708-12.434-30.718-12.434-12.01 0-21.863 6.65-30.749 12.434-8.885 5.784-16.836 10.704-25.21 10.704-8.376 0-16.296-4.92-25.181-10.704-8.886-5.783-18.739-12.434-30.749-12.434-12.01 0-21.832 6.65-30.717 12.434-5.303 3.452-10.273 6.455-15.189 8.429z" fill="#0182d6" fill-rule="evenodd"/><path d="M100.171 280.452c1.906 3.417 3.857 6.807 5.97 10.095.43.67.923 1.29 1.361 1.955a236.358 236.358 0 007.672-4.807c8.886-5.784 16.836-10.704 25.211-10.704 8.376 0 16.326 4.92 25.212 10.704 8.885 5.783 18.707 12.402 30.717 12.402 12.01 0 21.863-6.619 30.749-12.402 8.885-5.784 16.836-10.704 25.211-10.704s16.295 4.92 25.18 10.704c8.886 5.783 18.708 12.402 30.718 12.402 12.01 0 21.832-6.619 30.717-12.402 8.886-5.784 16.836-10.704 25.212-10.704 8.375 0 16.325 4.92 25.211 10.704a242.242 242.242 0 007.579 4.743c.634-.964 1.331-1.875 1.949-2.852 1.89-2.991 3.633-6.086 5.351-9.198-3.042-1.68-6.111-3.57-9.342-5.673-8.885-5.783-18.738-12.434-30.748-12.434-12.01 0-21.832 6.65-30.718 12.434-8.885 5.784-16.836 10.704-25.211 10.704s-16.295-4.92-25.18-10.704c-8.886-5.783-18.708-12.434-30.718-12.434-12.01 0-21.863 6.65-30.749 12.434-8.885 5.784-16.836 10.704-25.21 10.704-8.376 0-16.296-4.92-25.181-10.704-8.886-5.783-18.739-12.434-30.749-12.434-12.01 0-21.832 6.65-30.717 12.434-3.274 2.131-6.415 4.043-9.497 5.737z" fill="#fff" fill-rule="evenodd"/><path d="M106.327 290.803c2.52 3.909 5.152 7.74 7.919 11.442.302-.197.629-.382.928-.577 8.886-5.784 16.836-10.704 25.211-10.704 8.376 0 16.326 4.92 25.212 10.704 8.885 5.783 18.707 12.402 30.717 12.402 12.01 0 21.863-6.619 30.749-12.402 8.885-5.784 16.836-10.704 25.211-10.704s16.295 4.92 25.18 10.704c8.886 5.783 18.708 12.402 30.718 12.402 12.01 0 21.832-6.619 30.717-12.402 8.886-5.784 16.836-10.704 25.212-10.704 8.375 0 16.325 4.92 25.211 10.704.26.17.542.342.804.512.254-.338.522-.653.774-.993 2.5-3.374 4.885-6.881 7.176-10.448-1.073-.682-2.116-1.334-3.217-2.05-8.885-5.784-18.738-12.403-30.748-12.403-12.01 0-21.832 6.619-30.718 12.402-8.885 5.784-16.836 10.704-25.211 10.704s-16.295-4.92-25.18-10.704c-8.886-5.783-18.708-12.402-30.718-12.402-12.01 0-21.863 6.619-30.749 12.402-8.885 5.784-16.836 10.704-25.21 10.704-8.376 0-16.296-4.92-25.181-10.704-8.886-5.783-18.739-12.402-30.749-12.402-12.01 0-21.832 6.619-30.717 12.402-1.137.74-2.233 1.412-3.341 2.115z" fill="#0182d6" fill-rule="evenodd"/><path d="M113.07 300.514c.474.646.882 1.347 1.362 1.987 2.334 3.112 4.793 6.089 7.27 9.037 6.375-3.823 12.402-6.601 18.683-6.601 8.376 0 16.326 4.92 25.212 10.704 8.885 5.783 18.707 12.434 30.717 12.434 4.434 0 8.5-1.099 12.405-2.532.329-1.022.678-2.026 1.144-2.884a15.07 15.07 0 011.95-2.788 15.7 15.7 0 012.35-2.18c1.69-1.27 3.572-2.2 5.475-2.884 1.903-.683 3.832-1.121 5.6-1.442.707-2.61 1.594-4.9 2.629-6.922a28.534 28.534 0 013.465-5.288 25.773 25.773 0 013.99-3.846 26.012 26.012 0 014.176-2.66 28.041 28.041 0 014.083-1.698 28.99 28.99 0 013.65-.898c2.221-.412 3.943-.48 4.765-.48 2.286 0 4.469.267 6.527.769a25.592 25.592 0 015.784 2.179 25.127 25.127 0 014.919 3.365 25.639 25.639 0 013.96 4.359 26.51 26.51 0 014.547 10.864c.16.913.12 1.884.185 2.82 8.769 5.713 18.446 12.146 30.254 12.146 12.01 0 21.832-6.65 30.717-12.434 8.886-5.784 16.836-10.704 25.212-10.704 6.248 0 12.252 2.744 18.591 6.537a196.325 196.325 0 008.198-10.287c.17-.23.325-.475.495-.705-7.994-5.14-16.788-10.223-27.284-10.223-12.01 0-21.832 6.65-30.718 12.434-8.885 5.784-16.836 10.704-25.211 10.704s-16.295-4.92-25.18-10.704c-8.886-5.783-18.708-12.434-30.718-12.434-12.01 0-21.863 6.65-30.749 12.434-8.885 5.784-16.836 10.704-25.21 10.704-8.376 0-16.296-4.92-25.181-10.704-8.886-5.783-18.739-12.434-30.749-12.434-10.516 0-19.308 5.105-27.314 10.255z" fill="#fff" fill-rule="evenodd"/><path d="M277.733 313.301c.322 1.924.476 3.922.37 5.929a27.786 27.786 0 01-1.05 6.25c-.343 1.186-.463 2.278-.712 3.429.376.243.734.457 1.113.705 8.886 5.783 18.708 12.434 30.718 12.434 12.01 0 21.832-6.65 30.717-12.434 8.886-5.784 16.836-10.704 25.212-10.704 3.307 0 6.548.926 9.806 2.21 2.838-2.926 5.644-5.939 8.352-9.1.55-.644 1.064-1.336 1.609-1.988-5.988-3.238-12.444-5.8-19.767-5.8-12.01 0-21.832 6.65-30.718 12.434-8.885 5.784-16.836 10.704-25.211 10.704s-16.295-4.92-25.18-10.704a393.996 393.996 0 00-5.26-3.365zM120.526 310.096c.987 1.197 1.93 2.453 2.938 3.622 2.24 2.597 4.573 5.047 6.899 7.499 3.332-1.337 6.64-2.307 10.022-2.307 8.376 0 16.326 4.92 25.212 10.704 8.885 5.783 18.707 12.434 30.717 12.434 12.01 0 21.863-6.65 30.749-12.434-.276-1.187-.708-2.437-1.114-3.622-.92-3.215-9.953-1.447-17.478.16.24-.86.593-1.591.928-2.34-4.378 2.142-8.669 3.558-13.085 3.558-8.375 0-16.295-4.92-25.18-10.704-8.886-5.784-18.739-12.434-30.749-12.434-7.369 0-13.841 2.596-19.86 5.864z" fill="#0182d6" fill-rule="evenodd"/><path d="M276.805 326.697c-.609 2.315-1.134 4.6-1.392 6.762-.305 2.553-.372 5.002-.217 7.307.038.56.215 1.027.279 1.57.664.428 1.305.811 1.98 1.25 8.885 5.784 18.707 12.435 30.717 12.435 12.01 0 21.832-6.65 30.717-12.434 7.747-5.043 14.8-9.215 22.025-10.256.857-.735 1.717-1.39 2.568-2.147a196.695 196.695 0 009.59-9.134c.601-.613 1.166-1.299 1.763-1.923-3.405-1.091-6.935-1.923-10.734-1.923-12.01 0-21.832 6.651-30.718 12.435-8.885 5.784-16.836 10.704-25.211 10.704s-16.295-4.92-25.18-10.704c-2-1.301-4.08-2.639-6.187-3.942zM129.435 320.224c1.21 1.292 2.388 2.658 3.619 3.91 3.122 3.174 6.312 6.18 9.528 9.069 7.575.764 14.914 5.111 23.015 10.384 8.885 5.783 18.707 12.434 30.717 12.434 12.01 0 21.863-6.65 30.749-12.434 1.005-.655 1.955-1.233 2.938-1.86-.23-2.078-.52-4.178-1.082-6.473-.598-2.443-1.482-5.079-2.475-7.756a422.734 422.734 0 00-4.919 3.141c-8.885 5.784-16.836 10.704-25.21 10.704-8.376 0-16.296-4.92-25.181-10.704-8.886-5.784-18.739-12.435-30.749-12.435-3.894 0-7.47.879-10.95 2.02z" fill="#fff" fill-rule="evenodd"/><path d="M275.227 339.773c.013.318-.052.68-.03.993.154 2.305.53 4.456 1.113 6.474a24.894 24.894 0 002.35 5.576 21.536 21.536 0 003.496 4.551 20.617 20.617 0 004.548 3.397 22.315 22.315 0 005.506 2.115c1.982.482 4.088.738 6.341.738 2.52 0 5.204-.25 7.981-.738 2.778-.487 5.647-1.23 8.631-2.179a91.567 91.567 0 009.218-3.493 118.525 118.525 0 009.59-4.775c3.242-1.799 6.512-3.808 9.806-5.993a168.526 168.526 0 009.899-7.115c2.826-2.186 5.623-4.551 8.414-6.986-11.09.693-20.33 6.821-28.707 12.274-8.885 5.784-16.836 10.704-25.211 10.704s-16.295-4.92-25.18-10.704a236.131 236.131 0 00-7.765-4.84zM141.654 332.306c.467.424.923.895 1.392 1.314 3.372 3.011 6.759 5.888 10.177 8.556a181.452 181.452 0 0010.27 7.436 155.751 155.751 0 0010.146 6.313 124.27 124.27 0 009.838 5.032c3.22 1.465 6.361 2.711 9.403 3.717 3.043 1.006 6.008 1.79 8.817 2.308 2.34.431 4.508.567 6.65.64 6.823-2.434 13.006-6.314 18.716-10.03.432-.282.84-.524 1.268-.802.026-.058.067-.1.093-.16.773-1.797 1.326-3.8 1.64-5.993.313-2.192.398-4.58.216-7.147-.087-1.218-.446-2.61-.65-3.91a221.478 221.478 0 00-8.105 5.032c-8.885 5.784-16.836 10.704-25.21 10.704-8.376 0-16.296-4.92-25.181-10.704-8.567-5.576-18.05-11.856-29.48-12.306z" fill="#0182d6" fill-rule="evenodd"/><path d="M425.823 197.712c0 95.86-77.71 173.571-173.572 173.571-95.86 0-173.571-77.71-173.571-173.571S156.39 24.14 252.251 24.14s173.572 77.711 173.572 173.572z" fill="none" stroke="#000" stroke-width="4" stroke-linejoin="round"/><path d="M340.985 422.819h0c6.363-2.652 29.875-14.142 29.875-14.142s-6.01-9.193-14.496-13.435c24.395-3.89 57.099-19.622 72.655-41.189-10.607 0-25.81-1.06-25.81-1.06 56.569-30.76 77.075-69.297 77.075-69.297-12.374.707-24.042-1.06-24.042-1.06 31.466-35.356 39.952-83.439 41.72-111.016-22.981 20.506-49.498 44.194-75.307 52.326-7.071 73.892-83.784 135.653-124.09 135.653-18.03 0-27.872-15.485-21.513-36.805 4.822-16.165-6.761-32.734-25.052-32.734-3.288 0-21.103.884-26.76 21.036-7.07 1.238-16.616 4.42-17.5 16.44 3.535-1.944 9.9-3.535 18.208-4.242 10.253 25.102 1.767 40.305-16.264 40.305-40.305 0-121.268-65.76-128.339-139.653-25.81-8.132-52.326-31.82-75.306-52.326 1.767 27.577 10.253 75.66 41.719 111.016 0 0-11.668 1.767-24.042 1.06 0 0 20.506 38.537 77.074 69.296 0 0-15.202 1.061-25.809 1.061 15.556 21.567 48.26 37.3 72.655 41.189-8.485 4.242-14.496 13.435-14.496 13.435s23.512 11.49 29.875 14.142h0" fill="#feb402" fill-rule="evenodd" stroke="#000" stroke-width="3.96"/><path d="M252.014 368.365l-.743.835-1.114 1.237c-13.168 14.917-32.314 20.978-49.559 23.233-17.245 2.255-32.12.68-37.587.68h-2.475v2.476c0 32.324 2.614 62.45 15.252 90.703 12.637 28.255 35.286 54.485 74.895 79.072l.805.495.526.34.525-.34.774-.495c39.609-24.587 62.258-50.817 74.895-79.072 12.638-28.254 15.252-58.38 15.252-90.703v-2.475h-2.475c-5.468 0-20.341 1.574-37.587-.68-17.245-2.256-36.36-8.317-49.528-23.234l-1.114-1.237-.742-.835z" fill-rule="evenodd"/><path d="M164.571 404.678c.433 29.077 3.54 56.022 14.818 81.238 7.5 16.765 18.63 32.813 35.05 48.29v-92.405l-49.868-37.123z" fill="#ce1126" fill-rule="evenodd"/><path d="M219.204 441.523v97.045c9.295 8.199 20.145 16.224 32.792 24.13 12.65-7.907 23.492-15.932 32.791-24.13v-97.045h-65.583z" fill="#fff" fill-rule="evenodd"/><path d="M339.42 404.678l-49.868 37.123v92.405c16.425-15.474 27.581-31.523 35.08-48.29 11.28-25.216 14.355-52.161 14.788-81.238z" fill="#007a3d" fill-rule="evenodd"/><path d="M226.834 321.289c4.375-.875 5.875 4.875 16.062 4.875 10.188 0 16.625-3.75 20.375-4.75-6.937 5.75-17.562 12.187-35.437 4m17.75-21.688c5.75 0 11.062 4.563 11.062 4.563h-21.875s4.647-4.625 10.813-4.563z" fill-rule="evenodd"/><path d="M252.246 24.128c-54.627 0-103.363 25.293-135.188 64.782l35.406 27.093s36.186-48 99.532-48c63.345 0 99.53 48 99.53 48l35.75-27.343c-31.828-39.354-80.513-64.532-135.03-64.532z" fill="#fff" fill-rule="evenodd" stroke="#000" stroke-width="3"/><path d="M78.583 195.833c0-17.173 17.665-39.427 41.404-29.83-2.02-32.83 27.274-55.306 57.579-31.82 7.323-10.354 15.91-7.829 23.233 0-4.546-26.516 10.354-36.87 27.022-23.991 14.394-20.456 50.063-44.98 71.491 13.948 21.429-2.142 28.572 6.429 33.215 24.643 16.071-11.071 28.928 1.429 33.571 10.357 21.786-17.142 49.643-12.5 58.571 16.072" fill="none" stroke="#000" stroke-width="4"/><path d="M144.405 81.15a3.032 3.032 0 01-6.06 0 3.032 3.032 0 016.06 0zm4.42-3.662a3.032 3.032 0 01-6.061 0 3.032 3.032 0 016.06 0zM165.24 88.6a3.032 3.032 0 01-6.061 0 3.032 3.032 0 016.06 0zm4.42-3.662a3.032 3.032 0 01-6.062 0 3.032 3.032 0 016.061 0zM134.05 95.292c.884-.631 2.526 3.03 5.683 3.03 1.662 0 6.862-2.442 10.814-6.365 3.554-3.528 5.98-8.423 5.98-10.933 0-2.652-1.39-6.314-1.39-6.314s6.566 1.137 6.566-.378c0-1.516-3.535-3.536-3.535-6.061 0-2.526 7.45 2.651 7.45 6.44 0 3.787-3.662 3.787-5.177 5.176-1.516 1.39 0 8.713-7.829 16.29-7.829 7.575-12.88 6.944-15.91 3.787-3.03-3.157-4.42-3.157-2.652-4.672zm36.366-4.04c2.778-4.167 9.596-11.365 9.596-19.572-3.73 2.154-10.732 6.187-10.732-4.546s10.48-1.515 13.89-1.515c3.913 0 46.971-17.173 45.456-19.95-1.515-2.778-27.022 12.879-38.26 12.879-11.237 0-3.598-9.912 6.566-20.077 2.715-2.715 3.283.758-.126 4.167-3.41 3.41-9.344 10.228-7.197 11.617 2.146 1.389 29.168-13.385 37.88-13.385 8.713 0 7.703 2.778 7.703 4.42 0 1.641-2.4 4.293-2.4 6.566 0 2.273 1.642 4.924 4.925 4.924s5.556-2.146 5.556-6.818-4.545-15.91-4.672-18.183c-.126-2.273 5.682-2.147 5.177 1.01-.505 3.157 1.515 15.657 1.515 19.32 0 3.661-1.708 10.318-7.702 8.712-5.994-1.606-7.197-7.198-6.692-9.85-7.576 4.294-32.704 17.805-48.109 17.805 0 9.344 2.4 13.51-12.374 22.476zm83.085-61.62c-2.4 2.273-.758 21.592-.505 25.254 3.157-5.808 1.515-21.087.505-25.254zm25.633 7.829c0 11.112-3.788 13.51 8.712 21.466 12.5 7.955 18.31 9.849 26.264 9.849 7.955 0 13.258-17.552 14.395-19.32 1.136-1.767 3.662 2.02 1.263 5.178-2.4 3.156-2.526 2.399-5.051 8.08-2.526 5.683-2.652 8.966-11.364 8.966-8.713 0-20.077-2.525-28.411-8.839-8.334-6.313-8.713-10.733-8.713-13.51-2.525 2.65-5.934 3.282-9.091-.38-3.157-3.661-2.273-5.682 3.536-5.682 5.808 0 6.06-.757 7.07-3.283 1.01-2.525 1.137-3.788 1.39-2.525zm-16.163-3.41c.126-1.893 3.662-2.525 5.177-2.525 1.515 0 .758 1.894 2.273 1.894 1.515 0 2.778-1.262 3.914-1.262 1.137 0 2.147.757 2.147 2.399 0 1.641-1.768 3.283-3.536 3.03-1.767-.252-1.767-2.02-3.535-2.02-1.768 0-1.642 1.136-3.536 1.136-1.894 0-3.03-.631-2.904-2.651zm42.805 16.605c5.493 0 8.46.19 9.66-.063 1.2-.253-2.462 2.525-9.407 2.4-6.945-.127-10.291-3.094-8.586-3.726 1.704-.631 2.21 1.39 8.333 1.39zm42.427 24.307c0 6.692-2.4 12.248-15.026 12.248-12.627 0-16.289-10.228-14.269-9.344 2.02.884 5.556 6.819 15.784 6.819 6.313 0 9.344-1.01 8.207-2.652-1.136-1.642-4.924-.758-4.924-6.566s3.157-5.808 5.935-5.808c2.778 0 4.167 2.146 4.293 5.303zm12.88 10.985c2.903 0 3.282 4.42 3.282 7.829 0 3.41-1.389 10.354-7.323 10.354-5.935 0-12.122-5.935-12.122-8.712 0-2.778 1.641-3.283 2.651-3.283 1.01 0 3.915 7.828 9.47 7.828 5.556 0 3.536-2.904 3.536-5.934 0-3.03-2.02-2.4-2.02-4.42s0-3.788 2.525-3.662zm9.848-4.798c0 .758-15.405-.252-16.667-2.146-1.263-1.895 5.556.757 9.975.757 4.42 0 8.081-.126 6.692 1.39z"/></svg>