<svg xmlns="http://www.w3.org/2000/svg" width="699" height="737" viewBox="-0.787 -0.241 699 737"><path fill-rule="evenodd" clip-rule="evenodd" fill="#007cc3" d="M613.051 415.734c-3.618-38.294-21.108-78.399-34.979-108.251-16.281-34.978-25.026-57.593-29.248-71.766-7.539-25.027 10.855-40.103 10.855-40.103-88.047-6.634-96.793-81.415-96.793-81.415-74.779 29.248-101.013-14.173-106.442-20.806-5.127-6.635-7.538-19.6-7.538-19.6s-2.11 12.965-7.539 19.6c-5.427 6.633-31.359 50.054-106.441 20.806 0 0-8.744 74.78-96.792 81.415 0 0 16.584 11.759 10.855 40.103-2.713 14.475-12.966 36.789-29.249 71.766-13.871 29.852-31.36 69.957-34.978 108.554l528.289-.303z"/><path fill-rule="evenodd" clip-rule="evenodd" fill="#3F5FA5" d="M123.358 514.035c-5.427-.3-12.061 1.509-23.821 1.81-12.666-30.455-15.077-60.608-15.68-81.414 0-6.033.301-12.363.905-18.394h527.986l.303-.303c.604 6.333.906 12.663.906 18.696 0 3.318-.303 6.633-.604 10.252-.303 8.441-17.188-3.619-25.029 1.205-1.203.906 0 3.318.605 5.127 0 .604.903 1.507 1.203 2.109.605 1.51.605 3.318.906 4.225 1.809 2.712 3.921 5.427 6.936 6.633-.603.301-.905.903-1.208.903-3.618 1.206-7.536-.903-11.155.603-6.032 3.016-13.568.904-20.202 1.207h.603c-7.539.303-15.075-1.51-22.314.603-5.124 1.509-9.045 4.824-13.568 6.333.905 2.713 2.715 4.824 2.111 7.84 1.506.303 1.809 2.412 3.315 2.412 4.224.603 8.745-.301 12.966.905 1.207.3 1.51 2.412 2.112 2.712 2.712 1.207 5.127 2.715 7.839 3.318 2.112.604 5.127.301 7.236 1.809 1.207.604 2.412 1.207 3.318 2.412-2.715-.603-3.618 1.81-6.03 2.412-5.729 1.207-11.157-2.412-16.585-2.111-10.856.303-21.41-1.809-32.266-1.506.303 0 .303-.303.604-.604-9.648 1.206-19.6-.604-28.945 1.809-2.715.604-4.826 2.715-6.936 1.207-5.428-3.919-11.458-2.412-17.188-3.016-3.922 5.125-9.651 6.633-15.982 6.03-1.205 0-3.317.3-5.127.603-3.314 1.207-.603 3.619.906 5.127.303 0 0 1.207 0 1.207-5.73 2.109-12.061 4.221-17.791 2.712-4.221-.903-9.951 3.921-12.363.303-1.205-1.509 0-5.729-3.617-6.03-3.318 0-6.031-.906-9.648-1.809-3.621-1.207-7.239 1.506-10.254 0-1.81-1.207-3.919-1.51-6.031-2.112-2.109-.3-4.824-.603-6.33.905-.604.904 1.506 3.919.903 3.919-9.046 2.412-18.091 1.81-27.14 1.81h.904c-3.014-1.81-6.633-1.507-10.251-3.016-3.919-1.506-8.444-2.109-12.965-1.206-1.509.303-2.111 1.509-3.016 2.715-2.713 3.618-7.538 3.015-11.458 3.919-1.508.603-3.618 1.508-5.125 1.508-6.634.904-13.268 0-19.902 0-.301 0-.301 1.81-.603 1.81-3.618.303-5.73 2.412-9.347.603-6.634-3.015-15.983-.905-22.314 3.619-3.015 2.412-7.236 2.412-10.854 2.109-11.157-.301-22.012 0-32.868-3.619-.301 0-.301-1.506.302-1.506 2.11.604 3.316-.604 4.223-1.809.3 0 .3-1.207 0-1.207-5.73-1.809-12.063-2.715-18.094-2.111-1.509.303-1.809 2.715-3.316 3.618h.904c-5.125.303-10.554 1.812-15.68 1.812-10.251 0-20.201.604-30.455-.604-1.205 0 0-1.508 0-2.412 2.111.301 4.222-.303 6.031-.905s2.412-4.222 0-4.824c-3.318-.603-6.936.903-10.253 1.206-4.221.604-8.442-.303-12.665-.604-.903 0 0 2.109-.603 2.109-2.714 1.51-2.714 5.127-5.729 6.334-.906.302-2.112-.604-2.715.602z"/><path fill="none" stroke="#000" stroke-width=".438" stroke-miterlimit="2.613" d="M123.358 514.035c-5.427-.3-12.061 1.509-23.821 1.81-12.666-30.455-15.077-60.608-15.68-81.414 0-6.033.301-12.363.905-18.394h527.986l.303-.303c.604 6.333.906 12.663.906 18.696 0 3.318-.303 6.633-.604 10.252-.303 8.441-17.188-3.619-25.029 1.205-1.203.906 0 3.318.605 5.127 0 .604.903 1.507 1.203 2.109.605 1.51.605 3.318.906 4.225 1.809 2.712 3.921 5.427 6.936 6.633-.603.301-.905.903-1.208.903-3.618 1.206-7.536-.903-11.155.603-6.032 3.016-13.568.904-20.202 1.207h.603c-7.539.303-15.075-1.51-22.314.603-5.124 1.509-9.045 4.824-13.568 6.333.905 2.713 2.715 4.824 2.111 7.84 1.506.303 1.809 2.412 3.315 2.412 4.224.603 8.745-.301 12.966.905 1.207.3 1.51 2.412 2.112 2.712 2.712 1.207 5.127 2.715 7.839 3.318 2.112.604 5.127.301 7.236 1.809 1.207.604 2.412 1.207 3.318 2.412-2.715-.603-3.618 1.81-6.03 2.412-5.729 1.207-11.157-2.412-16.585-2.111-10.856.303-21.41-1.809-32.266-1.506.303 0 .303-.303.604-.604-9.648 1.206-19.6-.604-28.945 1.809-2.715.604-4.826 2.715-6.936 1.207-5.428-3.919-11.458-2.412-17.188-3.016-3.922 5.125-9.651 6.633-15.982 6.03-1.205 0-3.317.3-5.127.603-3.314 1.207-.603 3.619.906 5.127.303 0 0 1.207 0 1.207-5.73 2.109-12.061 4.221-17.791 2.712-4.221-.903-9.951 3.921-12.363.303-1.205-1.509 0-5.729-3.617-6.03-3.318 0-6.031-.906-9.648-1.809-3.621-1.207-7.239 1.506-10.254 0-1.81-1.207-3.919-1.51-6.031-2.112-2.109-.3-4.824-.603-6.33.905-.604.904 1.506 3.919.903 3.919-9.046 2.412-18.091 1.81-27.14 1.81h.904c-3.014-1.81-6.633-1.507-10.251-3.016-3.919-1.506-8.444-2.109-12.965-1.206-1.509.303-2.111 1.509-3.016 2.715-2.713 3.618-7.538 3.015-11.458 3.919-1.508.603-3.618 1.508-5.125 1.508-6.634.904-13.268 0-19.902 0-.301 0-.301 1.81-.603 1.81-3.618.303-5.73 2.412-9.347.603-6.634-3.015-15.983-.905-22.314 3.619-3.015 2.412-7.236 2.412-10.854 2.109-11.157-.301-22.012 0-32.868-3.619-.301 0-.301-1.506.302-1.506 2.11.604 3.316-.604 4.223-1.809.3 0 0-1.207 0-1.207-5.73-1.809-12.063-2.715-18.094-2.111-1.509.303-1.809 2.715-3.316 3.618h.904c-5.125.303-10.554 1.812-15.68 1.812-10.251 0-20.201.604-30.455-.604-1.205 0 0-1.508 0-2.412 2.111.301 4.222-.303 6.031-.905s2.412-4.222 0-4.824c-3.318-.603-6.936.903-10.253 1.206-4.221.604-8.442-.303-12.665-.604-.903 0 0 2.109-.603 2.109-2.714 1.51-2.714 5.127-5.729 6.334-.906.302-2.112-.604-2.715.602h0z"/><path fill-rule="evenodd" clip-rule="evenodd" fill="#05603d" d="M598.275 515.844c-13.569 33.168-39.199 66.94-87.443 88.952 0 0-23.521 18.696-52.77 14.173 0 0-34.074 17.49-45.229 20.805-10.555 3.016-41.614 13.87-63.324 40.709h-1.206c-21.712-26.839-52.769-37.693-63.323-40.709-11.157-3.314-45.23-20.805-45.23-20.805-29.248 4.523-52.769-14.173-52.769-14.173-48.246-22.012-73.875-55.784-87.444-88.952 11.76-.301 18.394-2.109 23.821-1.81 1.508 0 1.809-.3 2.714-.603 3.015-1.207 3.015-4.824 5.729-6.334.603 0-.3-2.109.603-2.109 4.222.301 8.444 1.207 12.665.604 3.317-.303 6.935-1.809 10.253-1.206 2.412.603 1.809 4.222 0 4.824s-3.92 1.206-6.031.905c0 .904-1.205 2.412 0 2.412 10.254 1.207 20.204.604 30.455.604 5.126 0 10.554-1.509 15.68-1.812h-.904c1.508-.903 1.808-3.315 3.316-3.618 6.03-.604 12.363.303 18.094 2.111.3 0 .3 1.207 0 1.207-.906 1.205-2.112 2.412-4.223 1.809-.603 0-.603 1.506-.302 1.506 10.856 3.619 21.71 3.318 32.868 3.619 3.618.303 7.839.303 10.854-2.109 6.332-4.524 15.68-6.634 22.314-3.619 3.617 1.81 5.729-.3 9.347-.603.301 0 .301-1.81.603-1.81 6.635 0 13.268.904 19.902 0 1.507 0 3.617-.905 5.125-1.508 3.921-.904 8.745-.301 11.458-3.919.905-1.206 1.507-2.412 3.016-2.715 4.521-.903 9.046-.3 12.965 1.206 3.618 1.509 7.238 1.206 10.251 3.016h-.904c9.049 0 18.094.603 27.14-1.81.603 0-1.507-3.015-.903-3.919 1.506-1.508 4.221-1.205 6.33-.905 2.112.603 4.222.905 6.031 2.112 3.015 1.506 6.633-1.207 10.254 0 3.617.902 6.33 1.809 9.648 1.809 3.617.301 2.412 4.521 3.617 6.03 2.412 3.618 8.143-1.206 12.363-.303 5.73 1.509 12.061-.603 17.791-2.712 0 0 .303-1.207 0-1.207-1.509-1.508-4.221-3.92-.906-5.127 1.81-.303 3.922-.603 5.127-.603 6.331.603 12.061-.905 15.982-6.03 5.729.604 11.76-.903 17.188 3.016 2.109 1.508 4.221-.604 6.936-1.207 9.346-2.412 19.297-.603 28.945-1.809-.301.301-.301.604-.604.604 10.855-.303 21.409 1.809 32.266 1.506 5.428-.301 10.855 3.318 16.585 2.111 2.412-.603 3.315-3.015 6.03-2.412-.906-1.205-2.111-1.809-3.318-2.412-2.109-1.508-5.124-1.205-7.236-1.809-2.712-.604-5.127-2.111-7.839-3.318-.603-.3-.905-2.412-2.112-2.712-4.221-1.206-8.742-.303-12.966-.905-1.507 0-1.81-2.109-3.315-2.412.604-3.016-1.206-5.127-2.111-7.84 4.523-1.509 8.444-4.824 13.568-6.333 7.239-2.112 14.775-.3 22.314-.603h-.603c6.634-.303 14.17 1.809 20.202-1.207 3.619-1.506 7.537.604 11.155-.603.303 0 .605-.603 1.208-.903-3.015-1.206-5.127-3.921-6.936-6.633-.301-.906-.301-2.715-.906-4.225-.3-.603-1.203-1.506-1.203-2.109-.605-1.809-1.809-4.221-.605-5.127 7.842-4.824 24.727 7.236 25.029-1.205 0 0-1.509 24.123-5.43 40.404-3.616 16.288-9.647 30.76-9.647 30.76z"/><path fill="none" stroke="#000" stroke-width=".438" stroke-miterlimit="2.613" d="M598.275 515.844c-13.569 33.168-39.199 66.94-87.443 88.952 0 0-23.521 18.696-52.77 14.173 0 0-34.074 17.49-45.229 20.805-10.555 3.016-41.614 13.87-63.324 40.709h-1.206c-21.712-26.839-52.769-37.693-63.323-40.709-11.157-3.314-45.23-20.805-45.23-20.805-29.248 4.523-52.769-14.173-52.769-14.173-48.246-22.012-73.875-55.784-87.444-88.952 11.76-.301 18.394-2.109 23.821-1.81 1.508 0 1.809-.3 2.714-.603 3.015-1.207 3.015-4.824 5.729-6.334.603 0-.3-2.109.603-2.109 4.222.301 8.444 1.207 12.665.604 3.317-.303 6.935-1.809 10.253-1.206 2.412.603 1.809 4.222 0 4.824s-3.92 1.206-6.031.905c0 .904-1.205 2.412 0 2.412 10.254 1.207 20.204.604 30.455.604 5.126 0 10.554-1.509 15.68-1.812h-.904c1.508-.903 1.808-3.315 3.316-3.618 6.03-.604 12.363.303 18.094 2.111 0 0 .3 1.207 0 1.207-.906 1.205-2.112 2.412-4.223 1.809-.603 0-.603 1.506-.302 1.506 10.856 3.619 21.71 3.318 32.868 3.619 3.618.303 7.839.303 10.854-2.109 6.332-4.524 15.68-6.634 22.314-3.619 3.617 1.81 5.729-.3 9.347-.603.301 0 .301-1.81.603-1.81 6.635 0 13.268.904 19.902 0 1.507 0 3.617-.905 5.125-1.508 3.921-.904 8.745-.301 11.458-3.919.905-1.206 1.507-2.412 3.016-2.715 4.521-.903 9.046-.3 12.965 1.206 3.618 1.509 7.238 1.206 10.251 3.016h-.904c9.049 0 18.094.603 27.14-1.81.603 0-1.507-3.015-.903-3.919 1.506-1.508 4.221-1.205 6.33-.905 2.112.603 4.222.905 6.031 2.112 3.015 1.506 6.633-1.207 10.254 0 3.617.902 6.33 1.809 9.648 1.809 3.617.301 2.412 4.521 3.617 6.03 2.412 3.618 8.143-1.206 12.363-.303 5.73 1.509 12.061-.603 17.791-2.712 0 0 .303-1.207 0-1.207-1.509-1.508-4.221-3.92-.906-5.127 1.81-.303 3.922-.603 5.127-.603 6.331.603 12.061-.905 15.982-6.03 5.729.604 11.76-.903 17.188 3.016 2.109 1.508 4.221-.604 6.936-1.207 9.346-2.412 19.297-.603 28.945-1.809-.301.301-.301.604-.604.604 10.855-.303 21.409 1.809 32.266 1.506 5.428-.301 10.855 3.318 16.585 2.111 2.412-.603 3.315-3.015 6.03-2.412-.906-1.205-2.111-1.809-3.318-2.412-2.109-1.508-5.124-1.205-7.236-1.809-2.712-.604-5.127-2.111-7.839-3.318-.603-.3-.905-2.412-2.112-2.712-4.221-1.206-8.742-.303-12.966-.905-1.507 0-1.81-2.109-3.315-2.412.604-3.016-1.206-5.127-2.111-7.84 4.523-1.509 8.444-4.824 13.568-6.333 7.239-2.112 14.775-.3 22.314-.603h-.603c6.634-.303 14.17 1.809 20.202-1.207 3.619-1.506 7.537.604 11.155-.603.303 0 .605-.603 1.208-.903-3.015-1.206-5.127-3.921-6.936-6.633-.301-.906-.301-2.715-.906-4.225-.3-.603-1.203-1.506-1.203-2.109-.605-1.809-1.809-4.221-.605-5.127 7.842-4.824 24.727 7.236 25.029-1.205 0 0-1.509 24.123-5.43 40.404-3.616 16.288-9.647 30.76-9.647 30.76h0z"/><path fill-rule="evenodd" clip-rule="evenodd" fill="#966a4b" stroke="#000" stroke-width=".438" stroke-miterlimit="2.613" d="M456.555 240.241s-7.539 54.276-5.73 87.747c4.523 67.544 36.187 216.201 56.689 262.939 0 0 0-8.744 8.745-6.635 8.743 2.111 7.539-5.426 11.761-8.743 4.523-3.018 7.839-2.112 10.854-3.018 3.318-1.204 7.84-8.743 7.84-8.743s-12.061-15.378-31.66-70.559c-19.6-55.48-52.466-182.431-39.199-233.69l-19.3-19.298h0z"/><path fill="none" stroke="#000" stroke-width=".313" stroke-miterlimit="2.613" d="M540.08 553.836s-8.743-5.427-11.458-3.918c-2.715 1.809-3.317 4.822-2.715 7.236.603 2.109 3.317 4.824 3.317 4.824s-2.111-6.33-8.744-3.921c-3.922 1.81-7.539 12.063-7.539 12.063s8.744-14.473-1.507-14.473c-4.524 0-13.87 4.821-11.46 15.678m33.472-31.66s-6.333-4.824-9.046-3.315c-2.715 1.81-3.317 5.124-2.715 7.236.303 2.112 4.222 7.536 4.222 7.536s-3.315-9.346-9.648-6.633c-4.222 1.809-7.839 12.063-7.839 12.063s8.742-14.775-1.51-14.775c-4.221 0-13.568 5.127-11.457 15.982m33.469-29.551s-8.139-5.127-10.854-3.619c-2.412 1.507-2.715 4.524-2.412 6.634.603 1.81 5.729 8.142 5.729 8.142s-4.524-9.65-10.554-7.236c-3.619 1.507-6.937 11.155-6.937 11.155s7.839-13.569-1.509-13.569c-4.219 0-12.664 4.523-10.552 14.475m32.567-26.236s-6.936-5.426-9.348-4.219c-2.715 1.205-3.318 3.918-3.016 5.727.301 2.112 3.316 7.236 3.316 7.236s-2.412-8.441-8.141-6.633c-3.62.906-7.539 9.348-7.539 9.348s8.746-11.76-.3-12.663c-3.618-.303-12.063 3.013-11.157 12.663m30.153-23.52s-4.222-4.824-6.634-3.619c-2.712 1.207-3.314 3.922-3.015 5.73.303 2.111 3.317 7.236 3.317 7.236s-2.412-8.442-8.142-6.633c-3.618 1.205-7.539 9.648-7.539 9.648s8.745-12.061-.3-12.664c-3.619-.604-12.063 2.713-11.158 12.361m31.059-22.008s-6.331-4.826-8.442-3.618c-2.412.903-3.016 3.315-3.016 5.124.303 1.81 3.318 6.634 3.318 6.634s-2.111-7.839-7.539-6.03c-3.318.906-6.936 8.745-6.936 8.745s7.842-11.157-.301-11.761c-3.318-.303-10.857 2.715-9.951 11.458m28.043-22.012s-4.521-3.618-6.634-2.712c-2.111 1.203-3.015 3.617-2.715 5.427.604 1.81 3.318 6.634 3.318 6.634s-2.109-7.84-7.537-6.334c-2.715.906-5.729 7.236-5.729 7.236s6.934-9.045-1.206-9.948c-3.618-.303-11.157 2.712-10.254 11.458m27.441-21.41s-4.224-4.524-6.633-3.317c-2.112 1.208-2.715 3.617-2.415 5.43.303 1.506 3.015 6.33 3.015 6.33s-2.109-7.539-7.536-6.03c-3.317.905-6.937 8.745-6.937 8.745s8.143-10.555 0-11.76c-3.617-.303-11.156 3.015-10.251 11.76m28.646-22.012s-6.031-4.523-8.141-3.618c-2.111.903-2.715 3.618-2.414 5.124.303 1.81 3.018 6.334 3.018 6.334s-2.111-7.539-7.238-6.031c-3.016 1.207-6.331 8.443-6.331 8.443s7.536-10.252-.303-10.855c-3.015-.303-10.251 2.412-9.346 10.553m28.643-19.6s-6.028-4.824-8.14-3.619c-2.111.906-2.715 3.318-2.412 5.127 0 1.51 3.016 6.031 3.016 6.031s-2.112-7.236-7.236-5.729c-3.016.904-6.334 8.141-6.334 8.141s7.537-9.951-.303-10.855c-3.314-.303-10.551 2.715-9.648 10.855m27.439-20.807s-5.728-4.523-7.84-3.617c-2.111.902-2.712 3.314-2.412 4.824.301 1.809 2.715 6.332 2.715 6.332s-1.809-7.236-6.633-5.729c-3.318.905-6.636 7.839-6.636 7.839s7.539-9.648 0-10.551c-3.015-.303-9.948 2.712-9.346 10.551m27.439-19.9s-5.427-4.524-7.539-3.317c-2.109.905-2.712 3.018-2.412 4.523.303 1.509 3.016 6.03 3.016 6.03s-2.109-6.937-6.934-5.427c-3.018.905-6.033 7.839-6.033 7.839s6.937-9.948 0-10.554c-3.015-.301-9.948 2.715-9.346 10.254m26.836-20.204s-5.729-4.222-7.539-3.316c-1.809.904-2.712 3.016-2.412 4.524.301 1.81 2.715 5.728 2.715 5.728s-1.809-6.633-6.332-5.428c-2.715 1.207-6.031 7.84-6.031 7.84s6.934-9.348 0-9.951c-3.015-.301-9.65 2.111-8.744 9.65m24.725-18.696s-5.428-4.222-7.239-3.316c-1.81.904-2.409 3.016-2.409 4.521.3 1.51 2.712 5.43 2.712 5.43s-1.81-6.332-6.333-5.127c-2.713.904-5.728 7.537-5.728 7.537s6.634-9.045 0-9.949c-3.015-.303-9.349 2.412-8.745 9.648m25.63-18.392s-5.127-4.222-6.937-3.316c-2.109.904-2.409 3.016-2.409 4.521.3 1.207 2.712 5.127 2.712 5.127s-1.809-6.332-6.029-4.824c-2.715.904-5.73 6.934-5.73 6.934s6.633-8.742 0-9.348c-2.713-.301-9.045 2.414-8.14 9.348m24.424-18.393s-4.827-3.619-6.636-3.016c-1.809.906-2.412 3.016-2.109 4.221 0 1.51 2.412 5.43 2.412 5.43s-1.809-6.332-6.03-5.127c-2.412.904-5.127 6.934-5.127 6.934s6.03-8.441-.3-9.045c-2.715-.301-8.746 2.111-7.842 9.045m23.22-17.488s-4.824-3.618-6.636-3.015c-1.809.902-2.412 2.712-2.109 4.221.301 1.206 2.412 4.824 2.412 4.824s-1.809-5.73-5.73-4.523c-2.412.603-5.124 6.635-5.124 6.635s6.03-8.142-.303-8.744c-2.412-.301-8.442 2.109-7.539 8.744m22.916-17.188s-4.824-3.922-6.633-3.018c-1.809.605-2.412 2.715-2.111 3.922.303 1.205 2.412 5.127 2.412 5.127s-1.81-6.031-5.73-4.824c-2.713.902-5.125 6.936-5.125 6.936s6.031-8.445-.3-9.048c-2.412-.303-8.444 2.112-7.539 8.745m23.519-16.586s-4.824-3.618-6.331-3.015c-1.81.904-2.412 2.713-2.112 3.918 0 1.206 2.415 4.825 2.415 4.825s-1.509-5.428-5.43-4.522c-2.715.903-5.427 6.635-5.427 6.635s6.029-7.841 0-8.746c-2.412-.301-8.143 2.111-7.539 8.443m23.519-16.283s-4.523-3.618-6.332-2.712c-1.507.602-2.109 2.712-1.81 3.918 0 1.206 2.412 4.524 2.412 4.524s-1.81-5.429-5.427-4.223c-2.412.604-5.127 6.031-5.127 6.031s5.729-7.539 0-8.142c-2.412-.302-8.141 1.809-7.236 8.142m20.805-15.679s-4.824-3.619-6.33-2.715c-1.509.604-2.111 2.715-1.809 3.921.3 1.206 2.109 4.522 2.109 4.522s-1.507-5.427-5.125-4.221c-2.414.603-5.127 6.03-5.127 6.03s5.728-7.538 0-8.141c-2.412-.303-7.84 1.809-7.236 8.141m22.916-16.281s-4.521-3.317-6.333-2.713c-1.506.905-2.109 2.411-1.809 3.918.303 1.207 2.414 4.524 2.414 4.524s-1.509-5.428-5.43-4.222c-2.412.603-4.824 6.031-4.824 6.031s5.43-7.538-.301-8.142c-2.412-.3-7.839 2.111-7.236 8.142m22.313-16.283s-4.521-3.317-6.03-2.713c-1.81.905-2.109 2.713-2.109 3.919.3 1.206 2.412 4.826 2.412 4.826s-1.509-5.73-5.43-4.525c-2.412.604-4.824 6.334-4.824 6.334s5.729-7.841-.3-8.443c-2.412-.302-7.84 2.109-7.239 8.141m23.52-16.284s-4.221-3.919-5.728-3.015c-1.81.603-2.412 2.11-2.412 3.618 0 1.207 2.109 4.824 2.109 4.824s-1.206-5.728-5.127-4.824c-2.412.603-5.427 5.729-5.427 5.729s6.332-7.237.603-8.142c-2.412-.604-8.14 1.206-8.14 7.539m23.218-14.172s-4.224-3.921-6.032-3.316c-1.507.602-2.41 2.412-2.109 3.618 0 1.206 1.809 4.825 1.809 4.825s-1.206-5.729-5.127-4.825c-2.412.603-5.428 6.03-5.428 6.03s6.334-7.539.604-8.442c-2.412-.302-8.14 1.206-7.84 7.538m23.821-13.568s-4.222-3.921-6.03-3.318c-1.509.603-2.109 2.414-2.109 3.618.301 1.208 1.809 4.826 1.809 4.826s-.905-5.73-4.826-4.826c-2.109.604-5.125 5.73-5.125 5.73s6.031-7.237.604-8.142c-2.412-.301-7.842 1.208-7.842 7.538m22.615-13.567s-3.921-3.62-5.73-3.017c-1.506.603-2.111 2.11-2.111 3.316.303 1.206 1.812 4.523 1.812 4.523s-.905-5.427-4.824-4.523c-2.112.604-4.827 5.428-4.827 5.428s5.73-6.634.303-7.84c-2.111-.301-7.539 1.206-7.539 7.236m22.916-13.868s-3.921-3.318-5.428-2.715c-1.508.301-1.809 1.809-1.809 3.016 0 1.206 1.506 4.523 1.506 4.523s-.905-5.127-4.523-4.523c-1.809.602-4.824 5.427-4.824 5.427s5.73-6.635.604-7.538c-2.109-.303-6.937 1.205-6.937 6.634m21.109-12.967s-3.618-3.316-5.125-2.715c-1.508.604-1.809 1.811-1.809 3.017 0 1.207 1.506 4.223 1.506 4.223s-.905-4.826-4.221-4.223c-2.111.603-4.824 5.126-4.824 5.126s5.428-6.332.604-7.236c-2.112-.302-6.937 1.206-6.634 6.633m20.202-12.965s-3.617-3.316-5.127-2.715c-1.205.603-1.809 1.811-1.809 3.017.303 1.206 1.509 4.221 1.509 4.221s-.605-4.824-3.921-4.221c-2.111.603-4.523 5.124-4.523 5.124s5.127-6.33.303-7.235c-1.81-.303-6.634 1.206-6.634 6.633m20.805-12.363s-3.618-3.316-5.127-2.714c-1.206.604-1.809 2.112-1.809 3.016 0 .904 1.508 4.221 1.508 4.221s-.905-4.824-4.223-4.221c-1.81.603-4.521 4.825-4.521 4.825s5.427-6.031.603-6.936c-2.112-.301-6.634 1.208-6.634 6.332m20.807-12.664s-3.621-3.318-5.127-2.714c-1.507.302-1.81 2.109-1.81 3.015 0 .903 1.507 4.221 1.507 4.221s-.904-4.824-3.919-4.221c-2.109.603-4.824 4.824-4.824 4.824s5.427-6.03.603-6.935c-2.111-.303-6.633 1.205-6.633 6.332"/><path fill-rule="evenodd" clip-rule="evenodd" fill="#FFF" stroke="#000" stroke-width=".375" stroke-miterlimit="2.613" d="M182.762 222.449l31.66 18.094-17.489 31.359s-7.237 14.775-14.171 9.95l-31.06-12.363s4.825-1.205 8.745-6.633c3.92-5.428 22.315-40.407 22.315-40.407h0z"/><path fill-rule="evenodd" clip-rule="evenodd" fill="#FFF" stroke="#000" stroke-width=".375" stroke-miterlimit="2.613" d="M151.702 269.489l32.266 12.966s-4.524-2.412-2.112-8.744c1.206-2.714 3.317-4.826 9.648-3.318l-31.96-13.568c-3.318-2.111-7.239.603-8.143 2.713-1.508 3.016-3.016 8.142.301 9.951h0z"/><path fill-rule="evenodd" clip-rule="evenodd" fill="#FFF" d="M229.497 218.229s-11.457-6.333-16.885-9.649c-5.427-3.317-6.935-6.634-5.427-12.061 1.809-5.429 12.965-12.063 15.378-15.682 1.81-3.618 10.252-13.568 9.648-15.679 0 0 4.824 4.222 4.222 9.046-.602 5.125-4.222 13.267-6.332 16.584-2.412 3.017-3.92 9.046-1.206 12.363s9.95 13.569 9.95 13.569l-9.348 1.509z"/><path fill="none" stroke="#000" stroke-width=".375" stroke-miterlimit="2.613" d="M229.497 218.229s-11.457-6.333-16.885-9.649c-5.427-3.317-6.935-6.634-5.427-12.061 1.809-5.429 12.965-12.063 15.378-15.682 1.81-3.618 10.252-13.568 9.648-15.679 0 0 4.824 4.222 4.222 9.046-.602 5.125-4.222 13.267-6.332 16.584-2.412 3.017-3.92 9.046-1.206 12.363s9.95 13.569 9.95 13.569"/><path fill="none" stroke="#000" stroke-width=".188" stroke-miterlimit="2.613" d="M227.689 180.235s7.841-9.648 6.332-12.363m-9.648 19.599s6.633-2.109 11.458-9.347m-13.872 14.474s6.332 0 8.142-1.81m-8.745 8.143s5.429 0 6.333-2.412m-4.825 7.236s5.427-.604 5.427-2.715m-2.109 6.936s3.92-1.507 3.315-3.316m0 6.03l2.112-4.221"/><path fill-rule="evenodd" clip-rule="evenodd" fill="#FFF" d="M236.434 217.625s-5.428-19.297 4.523-28.042c9.648-8.745 24.726-14.775 31.36-16.283 6.633-1.809 19.6-8.744 19.6-8.744s-15.077 21.107-25.028 28.042c-9.648 7.236-7.539 12.665-12.966 16.886-3.317 3.015-7.538 5.73-5.427 9.348l-12.062-1.207z"/><path fill="none" stroke="#000" stroke-width=".375" stroke-miterlimit="2.613" d="M236.434 217.625s-5.428-19.297 4.523-28.042c9.648-8.745 24.726-14.775 31.36-16.283 6.633-1.809 19.6-8.744 19.6-8.744s-15.077 21.107-25.028 28.042c-9.648 7.236-7.539 12.665-12.966 16.886-3.317 3.015-7.538 5.73-5.427 9.348"/><path fill="none" stroke="#000" stroke-width=".188" stroke-miterlimit="2.613" d="M265.683 180.235s18.092-5.428 19.6-6.935m-23.823 13.569s14.775-2.414 16.888-4.523m-22.315 9.347s6.633.603 14.172-1.507m-17.79 5.729s7.539.604 10.251 0m-15.377 4.523s9.347.905 11.459.905m-12.967 3.92s7.538 1.81 9.65 1.81m-10.856 3.315s4.824 1.508 7.236.302"/><path fill-rule="evenodd" clip-rule="evenodd" fill="#FFF" stroke="#000" stroke-width=".375" stroke-miterlimit="2.613" d="M200.249 229.083s6.332-.904 10.856 0c4.221 1.207 19.6 9.95 28.043 8.745 8.744-.904 13.267-3.318 16.283-4.223 3.317-1.206 7.838-2.109 10.854 2.111 3.317 4.524 12.062 12.966 12.062 12.966s8.744-11.759 16.281-12.966c0 0-23.519-10.854-29.851-13.268-6.634-1.809-14.775-6.33-20.203-6.934-6.333-.301-12.966-2.111-17.79.604-3.921 2.11-6.03 3.919-9.349 2.713-3.015-1.208-6.332-2.713-11.457 0-3.317 1.808-3.017 4.523-5.126 5.427-2.413 1.206-3.921 6.031-3.921 6.031l3.318-1.206h0z"/><path fill-rule="evenodd" clip-rule="evenodd" stroke="#000" stroke-width=".188" stroke-miterlimit="2.613" d="M210.804 223.053c.603 0 .904-.604.904-1.206 0-.604-.302-1.207-.904-1.207-.604 0-1.208.603-1.208 1.207 0 .602.604 1.206 1.208 1.206h0z"/><path fill="none" stroke="#000" stroke-width=".188" stroke-miterlimit="2.613" d="M275.029 229.687s13.268 6.633 14.775 7.538m-16.885-4.222l12.965 7.539m-13.567-3.618l9.347 7.538"/><path fill-rule="evenodd" clip-rule="evenodd" fill="#59412d" stroke="#000" stroke-width=".438" stroke-miterlimit="2.613" d="M376.047 469.106l-24.729-.904c-2.411-1.205-13.267.904-13.267.904-3.618-.904-17.489 0-17.489 0-7.539-2.715-20.504 0-20.504 0-2.714-1.507-17.791 0-17.791 0-5.125-2.109-13.568 0-13.568 0-2.414-.604-13.268.603-13.268.603-6.032-2.712-21.108-.603-21.108-.603-6.935-.604-20.504.603-20.504.603s-11.457-15.075-15.981-17.487c0 0 138.706.603 164.64-3.318 25.934-3.618 54.275-16.281 58.196-18.394l-2.715 7.839s-2.109 3.619-7.236 2.412c-.001-.001-29.249 19.602-34.676 28.345h0z"/><path fill-rule="evenodd" clip-rule="evenodd" fill="#FFF" stroke="#000" stroke-width=".438" stroke-miterlimit="2.613" d="M420.973 430.509c-3.617 2.112-31.66 14.775-57.893 18.394-26.235 3.921-164.64 3.318-164.64 3.318l-1.508-3.318s74.177.604 86.239 0c12.061-.301 69.054-1.506 84.732-4.221s51.563-15.68 55.48-17.791l-2.41 3.618h0z"/><path fill="none" stroke="#000" stroke-width=".438" stroke-miterlimit="2.613" d="M248.495 317.735v131.168m54.879-140.817v140.516m47.943-134.787v131.47"/><path fill-rule="evenodd" clip-rule="evenodd" fill="#FFF" stroke="#000" stroke-width=".438" stroke-miterlimit="2.613" d="M351.317 313.212v-18.695s-1.206 4.221-7.236 5.125c-6.03 1.206-9.347 2.713-12.966 5.428-3.918 3.016-6.633 3.919-6.633 3.919s4.824 2.111 7.539 1.509c3.015-.604 6.935-1.811 10.253-.604 2.713 1.207 5.123 3.318 9.043 3.318h0zM337.446 319.242l29.252-.603s6.634 17.489 0 26.836c0 0-8.442-9.347-30.155.906 0 0 8.444-23.219.903-27.139h0zM333.227 348.19l37.391-1.207s12.063 7.237 4.223 32.566c0 0-15.078-13.569-47.042 1.51-.001 0 12.966-18.697 5.428-32.869h0zM322.974 381.662l57.895-.905s12.666 15.078 12.063 31.359c-.303 11.157-6.937 21.711-11.458 27.742l-8.745 2.715s-11.76-2.715-16.584-2.112c-4.827.3-19.602 1.507-37.693 7.539 0 0 13.569-13.269 15.981-33.772.904-10.255 0-21.712-11.459-32.566h0z"/><path fill-rule="evenodd" clip-rule="evenodd" fill="#FFF" stroke="#000" stroke-width=".438" stroke-miterlimit="2.613" d="M267.492 381.662l57.894-.905s12.665 15.078 12.061 31.359c-.3 11.157-10.854 29.852-15.077 35.884l-5.125-5.427s-11.759-2.715-16.584-2.112c-5.125.3-19.601 1.507-37.391 7.539 0 0 13.57-13.269 15.681-33.772 1.205-10.255-.001-21.712-11.459-32.566h0zM286.488 319.242l29.248-.603s6.633 17.489 0 26.836c0 0-8.744-9.347-30.454.906 0 0 8.745-23.219 1.206-27.139h0zM282.267 348.19l37.389-1.207s12.063 7.237 4.222 32.566c0 0-15.077-13.569-47.039 1.51.001 0 12.966-18.697 5.428-32.869h0zM303.374 315.021v-18.997s-1.206 4.22-7.237 5.427c-5.728.904-9.045 2.714-12.965 5.427-3.921 2.715-6.332 3.62-6.332 3.62s4.824 2.412 7.538 1.809c2.713-.603 6.633-2.111 10.251-.603 2.715 1.207 4.826 3.317 8.745 3.317h0zM203.867 380.756s30.154 19.902 21.41 40.707c-9.047 20.504-19.298 28.646-17.489 28.043 1.508-.604-28.345-1.507-44.024-7.84 0 .001 44.325-32.263 40.103-60.91h0z"/><path fill-rule="evenodd" clip-rule="evenodd" fill="#FFF" stroke="#000" stroke-width=".438" stroke-miterlimit="2.613" d="M230.102 348.19s6.935 26.535-6.03 32.566c-12.966 5.729-20.807.303-22.916 0l28.946-32.566h0z"/><path fill-rule="evenodd" clip-rule="evenodd" fill="#FFF" stroke="#000" stroke-width=".438" stroke-miterlimit="2.613" d="M212.01 383.471l58.195-1.207s12.363 15.076 12.062 31.66c-.603 10.855-10.252 29.248-14.775 34.979l-5.427-4.824s-12.062-2.412-16.886-2.111c-4.824.605-19.6 1.811-37.391 7.539 0 0 13.568-13.268 15.68-33.47.905-10.251 0-21.712-11.458-32.566h0zM231.006 321.051h32.264s6.936 17.188-1.205 26.536c0 0-10.253-9.648-31.963.603 0 0 8.744-23.52.904-27.139h0zM228.896 349.698l35.279-1.208s13.568 9.348.604 32.569c0 0-9.347-13.874-41.31 1.205-.001 0 12.965-18.394 5.427-32.566h0zM247.892 316.529v-18.997s-.905 4.222-6.935 5.428c-6.031 1.206-9.348 2.715-13.268 5.428-3.618 2.713-6.333 3.919-6.333 3.919s4.825 2.111 7.539 1.508c3.015-.603 6.635-1.811 10.253-.603 3.015 1.206 4.825 3.317 8.744 3.317h0z"/><path fill="none" stroke="#000" stroke-width=".438" stroke-miterlimit="2.613" d="M385.395 438.651l-33.774-63.926s17.49 37.994 16.284 69.957m-204.141-3.015s21.71 7.236 33.169 7.236c11.156 0 97.696 1.206 114.583-.301 6.634-.603 31.36-1.809 47.644-3.317 16.284-1.507 91.364-26.536 97.998-28.646 0 0-23.521 9.046-105.537-102.824 0 0 64.528 94.683 87.446 108.553m-21.712 5.429l-59.705-84.733"/><path fill-rule="evenodd" clip-rule="evenodd" fill="#fff500" stroke="#fff500" stroke-width=".188" stroke-miterlimit="2.613" d="M578.979 414.831c0-19.902-14.775-33.771-32.266-33.771-17.791 0-32.566 13.869-32.566 33.771h64.832z"/><path fill="none" stroke="#fff500" stroke-width="1.313" stroke-miterlimit="2.613" d="M578.979 410.61h28.345m-29.252-5.43l29.852-6.634m-31.961 2.113l28.646-17.188m-31.963 12.061l25.329-26.838m-30.154 20.507l24.424-33.473m-29.85 29.853l23.82-50.056m-12.967-10.855l-15.678 58.197m-6.633-1.205l10.854-59.706m-15.078 59.103v-59.706m-6.03 60.309l-7.236-55.786m2.411 56.992l-13.87-54.278m9.349 56.387l-20.505-53.372m15.075 57.293l-26.533-42.818m22.312 47.04l-33.168-31.361m29.85 37.39l-32.563-21.408m29.851 28.045l-25.934-13.27m24.125 15.078l-22.012-6.333m22.614 10.855H495.15"/><path fill-rule="evenodd" clip-rule="evenodd" fill="#84746D" stroke="#000" stroke-width=".438" stroke-miterlimit="2.613" d="M219.547 473.93c3.317-.301 76.589 12.063 104.331 30.456 27.742 18.694 60.911 41.312 111.87 46.136 0 0 0 6.029.604 7.536 0 0-51.26-4.824-88.954-28.042-30.152-18.394-53.07-39.5-123.326-47.944-9.349-.905-10.254-7.539-4.525-8.142h0zM472.235 584.292v-58.197h-2.714v58.197h2.714z"/><path fill-rule="evenodd" clip-rule="evenodd" fill="#84746D" stroke="#000" stroke-width=".438" stroke-miterlimit="2.613" d="M492.438 574.643l-41.311-41.309-2.111 2.413 41.31 41.308 2.112-2.412z"/><path fill-rule="evenodd" clip-rule="evenodd" fill="#84746D" stroke="#000" stroke-width=".438" stroke-miterlimit="2.613" d="M499.975 553.836h-58.496v3.016h58.496v-3.016z"/><path fill-rule="evenodd" clip-rule="evenodd" fill="#84746D" stroke="#000" stroke-width=".438" stroke-miterlimit="2.613" d="M490.326 533.334l-41.31 41.309 2.111 2.412 41.311-41.308-2.112-2.413z"/><path fill-rule="evenodd" clip-rule="evenodd" fill="#84746D" stroke="#000" stroke-width=".438" stroke-miterlimit="2.613" d="M436.352 560.47c-.301-1.81-.604-3.618-.604-5.124 0-19.3 15.682-35.281 34.979-35.281 19.6 0 34.979 15.981 34.979 35.281 0 19.297-15.379 34.978-34.979 34.978-17.488 0-31.963-12.363-34.072-29.251l6.333-.3c2.109 13.267 13.87 22.312 27.739 22.312 15.682 0 28.042-12.363 28.042-27.738 0-15.682-12.36-28.043-28.042-28.043-15.379 0-28.042 12.361-28.042 28.043 0 1.506.303 2.712.303 4.221l-6.636.902h0z"/><path fill-rule="evenodd" clip-rule="evenodd" fill="#84746D" stroke="#000" stroke-width=".438" stroke-miterlimit="2.613" d="M463.188 561.375s-16.582 1.81-45.532.906c-15.075-.303-42.815-.303-74.177-15.379-49.15-23.822-68.449-37.393-122.122-44.025-9.347-1.206-10.251-7.84-4.221-8.143 3.015-.3 55.482 5.43 84.43 21.712 76.591 42.817 123.026 41.312 155.592 38.294 5.729-.301 5.127-1.204 6.333-3.014 1.206-2.111 2.109-3.317 5.73-3.92 4.221-.904 8.441 1.205 9.045 3.92.604 3.014 1.206 6.331-2.715 9.046-2.412 1.811-6.936 1.207-12.363.603h0z"/><path fill-rule="evenodd" clip-rule="evenodd" stroke="#000" stroke-width=".438" stroke-miterlimit="2.613" d="M470.727 551.424c-1.809 0-3.618 1.81-3.618 3.922 0 2.109 1.81 3.617 3.618 3.617 2.412 0 3.921-1.508 3.921-3.617-.001-2.112-1.509-3.922-3.921-3.922h0z"/><path fill-rule="evenodd" clip-rule="evenodd" fill="#FFF" stroke="#000" stroke-width=".438" stroke-miterlimit="2.613" d="M359.762 588.514c-1.205-1.508-16.887-25.329-22.315-33.773-5.426-7.838-.903-26.836 9.35-21.406 10.254 5.427 19.6 10.251 22.917 11.758 3.016 1.811 30.154 9.648 54.275 10.856 0 0-5.425 9.349-4.521 16.885.903 5.427 1.206 12.966 3.918 15.075l-63.624.605h0zM327.196 604.796c2.109.603 14.774-2.712 11.458 10.554-2.713 10.555-7.539 17.791-7.539 17.791s-30.454 0-30.454-5.428c0 0 6.332-30.756 17.791-28.344 8.14 1.809 8.744 5.427 8.744 5.427h0z"/><path fill-rule="evenodd" clip-rule="evenodd" fill="#D1945F" stroke="#000" stroke-width=".438" stroke-miterlimit="2.613" d="M367.904 519.162c2.109.903 1.206 4.824-.604 8.743-2.715 6.635-40.104 84.131-40.104 84.131l-6.031 4.824.603-6.334 39.501-87.143s2.112-6.633 6.635-4.221h0z"/><path fill-rule="evenodd" clip-rule="evenodd" fill="#05603d" stroke="#000" stroke-width=".438" stroke-miterlimit="2.613" d="M437.258 114.501s-5.127 15.68 3.918 17.489c0 0 7.539-5.73-3.918-17.489h0zM461.981 203.755s-14.775-13.871-15.075-22.313l16.281 15.077-1.206 7.236h0z"/><path fill-rule="evenodd" clip-rule="evenodd" fill="#05603d" stroke="#000" stroke-width=".438" stroke-miterlimit="2.613" d="M461.981 197.422s-17.79-15.98-18.091-24.424l19.6 17.188-1.509 7.236h0zM462.887 183.552s-20.505-17.49-20.805-28.345l20.805 20.506v7.839h0z"/><path fill-rule="evenodd" clip-rule="evenodd" fill="#05603d" stroke="#000" stroke-width=".438" stroke-miterlimit="2.613" d="M461.682 174.506s-21.109-15.377-20.807-28.345l18.997 18.395 1.81 9.95h0z"/><path fill-rule="evenodd" clip-rule="evenodd" fill="#05603d" stroke="#000" stroke-width=".438" stroke-miterlimit="2.613" d="M460.475 163.35s-22.917-10.854-21.711-23.822l18.696 14.474 3.015 9.348h0zM445.699 134.101s-10.254 3.618-12.966-11.759l11.157 9.046 1.809 2.713h0z"/><path fill-rule="evenodd" clip-rule="evenodd" fill="#05603d" stroke="#000" stroke-width=".438" stroke-miterlimit="2.613" d="M455.65 150.383s-17.79-3.316-21.408-16.886l15.379 8.744 6.029 8.142h0z"/><path fill-rule="evenodd" clip-rule="evenodd" fill="#05603d" stroke="#000" stroke-width=".438" stroke-miterlimit="2.613" d="M449.318 141.036s-15.076-1.508-18.395-14.171l14.473 8.141 3.922 6.03h0zM462.284 203.152s15.679-9.046 16.585-17.188l-17.49 9.349.905 7.839h0z"/><path fill-rule="evenodd" clip-rule="evenodd" fill="#05603d" stroke="#000" stroke-width=".438" stroke-miterlimit="2.613" d="M462.587 196.819s20.2-12.663 21.406-20.806l-22.012 12.967.606 7.839h0z"/><path fill-rule="evenodd" clip-rule="evenodd" fill="#05603d" stroke="#000" stroke-width=".438" stroke-miterlimit="2.613" d="M463.791 188.98s23.822-16.585 20.505-25.63l-21.409 17.789.904 7.841h0zM463.49 180.235s20.806-16.885 17.188-28.947l-18.996 21.71 1.808 7.237h0zM459.569 160.334s16.284-12.363 8.142-22.916l-12.966 13.568 4.824 9.348h0z"/><path fill-rule="evenodd" clip-rule="evenodd" fill="#05603d" stroke="#000" stroke-width=".438" stroke-miterlimit="2.613" d="M455.65 150.383s11.458-11.156 3.316-21.408l-7.537 13.869 4.221 7.539h0z"/><path fill-rule="evenodd" clip-rule="evenodd" fill="#05603d" stroke="#000" stroke-width=".438" stroke-miterlimit="2.613" d="M452.936 144.352s6.634-9.648-.603-20.503l-5.427 12.664 6.03 7.839h0zM446 135.608s7.842-14.474-3.618-21.408l-1.206 16.283 4.824 5.125h0z"/><path fill="none" stroke="#000" stroke-width=".5" stroke-miterlimit="2.613" d="M459.27 210.087s17.487-42.215-19.6-82.318"/><path fill-rule="evenodd" clip-rule="evenodd" fill="#05603d" stroke="#000" stroke-width=".438" stroke-miterlimit="2.613" d="M461.379 170.285s18.695-14.172 15.378-26.837l-16.885 18.696 1.507 8.141h0zM463.49 190.186s-20.503-17.489-20.806-25.027l20.503 16.886.303 8.141h0zM562.092 274.011s-19.9 1.81-17.488-7.839c0 0 9.951-6.633 17.488 7.839h0zM474.647 227.576s8.745 18.695 17.487 20.807l-8.742-20.505-8.745-.302h0z"/><path fill-rule="evenodd" clip-rule="evenodd" fill="#05603d" stroke="#000" stroke-width=".438" stroke-miterlimit="2.613" d="M481.584 228.783s9.648 22.614 18.391 25.026l-9.346-24.726-9.045-.3h0zM497.564 231.194s9.949 25.631 21.709 28.345l-13.266-26.535-8.443-1.81h0z"/><path fill-rule="evenodd" clip-rule="evenodd" fill="#05603d" stroke="#000" stroke-width=".438" stroke-miterlimit="2.613" d="M506.91 234.812s6.937 25.33 21.409 28.345l-11.157-24.424-10.252-3.921h0z"/><path fill-rule="evenodd" clip-rule="evenodd" fill="#05603d" stroke="#000" stroke-width=".438" stroke-miterlimit="2.613" d="M518.368 238.733s1.812 25.932 16.585 28.042l-7.236-23.218-9.349-4.824h0zM544.301 260.745s-8.745 9.95 6.636 16.282l-4.524-13.567-2.112-2.715h0z"/><path fill-rule="evenodd" clip-rule="evenodd" fill="#05603d" stroke="#000" stroke-width=".438" stroke-miterlimit="2.613" d="M530.731 246.573s-4.521 19.298 8.442 26.234l-2.109-18.092-6.333-8.142h0z"/><path fill-rule="evenodd" clip-rule="evenodd" fill="#05603d" stroke="#000" stroke-width=".438" stroke-miterlimit="2.613" d="M537.971 255.318s-5.127 15.98 7.236 22.916l-2.112-17.489-5.124-5.427h0zM475.551 227.576s17.49-14.474 27.139-13.869l-18.996 16.281-8.143-2.412h0z"/><path fill-rule="evenodd" clip-rule="evenodd" fill="#05603d" stroke="#000" stroke-width=".438" stroke-miterlimit="2.613" d="M482.787 228.482s23.521-18.094 32.869-17.189l-24.727 19.6-8.142-2.411h0z"/><path fill-rule="evenodd" clip-rule="evenodd" fill="#05603d" stroke="#000" stroke-width=".438" stroke-miterlimit="2.613" d="M492.135 229.083s29.251-20.806 37.994-15.377l-29.852 18.091-8.142-2.714h0zM501.184 231.497s28.945-17.79 40.402-11.157l-32.563 14.473-7.839-3.316h0zM521.686 240.241s21.712-14.172 29.251-3.316l-21.108 10.251-8.143-6.935h0z"/><path fill-rule="evenodd" clip-rule="evenodd" fill="#05603d" stroke="#000" stroke-width=".438" stroke-miterlimit="2.613" d="M530.731 246.271s17.79-9.047 25.329 2.112l-18.996 4.523-6.333-6.635h0z"/><path fill-rule="evenodd" clip-rule="evenodd" fill="#05603d" stroke="#000" stroke-width=".438" stroke-miterlimit="2.613" d="M536.161 250.793s14.17-4.522 22.614 5.428l-16.584 2.713-6.03-8.141h0zM542.795 260.142s19.6-5.126 22.012 8.442l-18.697-2.111-3.315-6.331h0z"/><path fill="none" stroke="#000" stroke-width=".5" stroke-miterlimit="2.613" d="M466.506 228.783s54.88-8.143 82.016 39.801"/><path fill-rule="evenodd" clip-rule="evenodd" fill="#05603d" stroke="#000" stroke-width=".438" stroke-miterlimit="2.613" d="M511.435 236.02s24.727-16.283 37.39-9.65l-28.645 12.664-8.745-3.014h0zM490.629 229.083s9.648 25.631 17.791 27.742l-9.046-25.329-8.745-2.413h0zM540.08 327.987s-19.6-10.856-16.282-21.71c0 0 12.06-6.634 16.282 21.71h0z"/><path fill-rule="evenodd" clip-rule="evenodd" fill="#05603d" stroke="#000" stroke-width=".438" stroke-miterlimit="2.613" d="M525.002 305.071s-9.949 15.377 6.335 24.123l-4.224-20.806-2.111-3.317h0zM525.002 305.071s17.189-4.523 20.505 13.568l-18.091-10.251-2.414-3.317h0zM462.284 227.877s24.124 1.809 30.153 9.648l-26.232-.903-3.921-8.745h0z"/><path fill-rule="evenodd" clip-rule="evenodd" fill="#05603d" stroke="#000" stroke-width=".438" stroke-miterlimit="2.613" d="M466.506 234.209s31.662 3.619 37.692 11.457l-34.075-2.712-3.617-8.745h0z"/><path fill-rule="evenodd" clip-rule="evenodd" fill="#05603d" stroke="#000" stroke-width=".438" stroke-miterlimit="2.613" d="M472.535 242.351s31.663 3.315 37.693 11.157l-34.074-2.715-3.619-8.442h0z"/><path fill-rule="evenodd" clip-rule="evenodd" fill="#05603d" stroke="#000" stroke-width=".438" stroke-miterlimit="2.613" d="M479.472 251.397s35.278-3.618 41.009 11.157l-37.088-2.412-3.921-8.745h0z"/><path fill-rule="evenodd" clip-rule="evenodd" fill="#05603d" stroke="#000" stroke-width=".438" stroke-miterlimit="2.613" d="M485.502 260.443s34.979-3.618 40.708 11.157l-34.075-.603-6.633-10.554h0z"/><path fill-rule="evenodd" clip-rule="evenodd" fill="#05603d" stroke="#000" stroke-width=".438" stroke-miterlimit="2.613" d="M493.342 270.093s35.28-3.62 41.01 10.854l-34.377-.604-6.633-10.25h0z"/><path fill-rule="evenodd" clip-rule="evenodd" fill="#05603d" stroke="#000" stroke-width=".438" stroke-miterlimit="2.613" d="M501.184 279.44s31.057-3.316 36.787 11.156l-28.346-2.713-8.441-8.443h0z"/><path fill-rule="evenodd" clip-rule="evenodd" fill="#05603d" stroke="#000" stroke-width=".438" stroke-miterlimit="2.613" d="M509.322 288.787s25.029-3.316 31.058 11.157l-22.915-2.713-8.143-8.444h0z"/><path fill-rule="evenodd" clip-rule="evenodd" fill="#05603d" stroke="#000" stroke-width=".438" stroke-miterlimit="2.613" d="M518.368 298.738s20.806-4.522 26.839 9.95l-21.409-3.316-5.43-6.634h0zM460.775 229.083s-3.315 24.124 3.318 31.36l4.221-25.933-7.539-5.427h0z"/><path fill-rule="evenodd" clip-rule="evenodd" fill="#05603d" stroke="#000" stroke-width=".438" stroke-miterlimit="2.613" d="M466.205 234.511s-3.318 31.662 3.315 39.201l4.222-33.471-7.537-5.73h0z"/><path fill-rule="evenodd" clip-rule="evenodd" fill="#05603d" stroke="#000" stroke-width=".438" stroke-miterlimit="2.613" d="M472.535 242.05s-3.015 31.662 3.318 39.199l4.521-33.772-7.839-5.427h0z"/><path fill-rule="evenodd" clip-rule="evenodd" fill="#05603d" stroke="#000" stroke-width=".438" stroke-miterlimit="2.613" d="M480.375 250.793s-10.854 33.772 2.111 42.518l5.428-37.09-7.539-5.428h0z"/><path fill-rule="evenodd" clip-rule="evenodd" fill="#05603d" stroke="#000" stroke-width=".438" stroke-miterlimit="2.613" d="M487.914 258.634s-10.854 33.469 2.109 42.214l6.636-33.772-8.745-8.442h0z"/><path fill-rule="evenodd" clip-rule="evenodd" fill="#05603d" stroke="#000" stroke-width=".438" stroke-miterlimit="2.613" d="M495.453 268.284s-10.854 33.47 2.111 42.215l6.634-33.472-8.745-8.743h0z"/><path fill-rule="evenodd" clip-rule="evenodd" fill="#05603d" stroke="#000" stroke-width=".438" stroke-miterlimit="2.613" d="M503.293 278.234s-9.951 29.249 3.317 37.993l3.015-28.344-6.332-9.649h0z"/><path fill-rule="evenodd" clip-rule="evenodd" fill="#05603d" stroke="#000" stroke-width=".438" stroke-miterlimit="2.613" d="M510.832 287.883s-8.746 23.821 4.221 32.565l2.109-22.917-6.33-9.648h0z"/><path fill-rule="evenodd" clip-rule="evenodd" fill="#05603d" stroke="#000" stroke-width=".438" stroke-miterlimit="2.613" d="M518.368 298.738s-8.743 19.6 4.224 28.042l1.206-21.709-5.43-6.333h0z"/><path fill="none" stroke="#000" stroke-width=".5" stroke-miterlimit="2.613" d="M456.555 223.656s38.898 36.787 63.926 79.303"/><path fill-rule="evenodd" clip-rule="evenodd" fill="#05603d" stroke="#000" stroke-width=".438" stroke-miterlimit="2.613" d="M460.775 217.927s8.445-22.614 3.921-31.359l-10.251 24.424 6.33 6.935h0z"/><path fill-rule="evenodd" clip-rule="evenodd" fill="#05603d" stroke="#000" stroke-width=".438" stroke-miterlimit="2.613" d="M458.967 216.721s-24.121.302-30.755-6.936l26.233-1.206 4.522 8.142h0zM402.279 157.921s-25.029 3.316-30.757-11.459l22.614 3.017 8.143 8.442h0z"/><path fill-rule="evenodd" clip-rule="evenodd" fill="#05603d" stroke="#000" stroke-width=".438" stroke-miterlimit="2.613" d="M393.534 148.273s-21.108 3.92-24.424-8.443l21.409 3.618 3.015 4.825h0zM424.291 174.205s-34.678 6.633-41.611-7.236l34.072-2.412 7.539 9.648h0z"/><path fill-rule="evenodd" clip-rule="evenodd" fill="#05603d" stroke="#000" stroke-width=".438" stroke-miterlimit="2.613" d="M415.546 165.46s-30.151 6.03-37.087-7.841l28.342.302 8.745 7.539h0zM456.857 211.293s9.348-31.36 5.427-38.596l-11.761 31.661 6.334 6.935h0z"/><path fill-rule="evenodd" clip-rule="evenodd" fill="#05603d" stroke="#000" stroke-width=".438" stroke-miterlimit="2.613" d="M452.03 202.548s10.254-29.851 5.43-38.896l-11.761 31.963 6.331 6.933h0z"/><path fill-rule="evenodd" clip-rule="evenodd" fill="#05603d" stroke="#000" stroke-width=".438" stroke-miterlimit="2.613" d="M445.396 193.201s14.173-30.755.604-38.294l-8.442 33.47 7.838 4.824h0z"/><path fill-rule="evenodd" clip-rule="evenodd" fill="#05603d" stroke="#000" stroke-width=".438" stroke-miterlimit="2.613" d="M437.558 186.568s14.473-30.757.603-38.295l-9.348 30.756 8.745 7.539h0z"/><path fill-rule="evenodd" clip-rule="evenodd" fill="#05603d" stroke="#000" stroke-width=".438" stroke-miterlimit="2.613" d="M430.021 177.823s10.854-31.058-3.018-38.295l-6.031 30.757 9.049 7.538h0zM373.031 134.101s10.854 19.6 21.709 15.981c0 0 6.333-11.76-21.709-15.981h0z"/><path fill-rule="evenodd" clip-rule="evenodd" fill="#05603d" stroke="#000" stroke-width=".438" stroke-miterlimit="2.613" d="M395.644 149.177s4.524-17.49-14.473-20.202l10.554 18.394 3.919 1.808h0zM421.576 172.697s8.745-33.169-9.045-37.691l.603 29.551 8.442 8.14h0z"/><path fill-rule="evenodd" clip-rule="evenodd" fill="#05603d" stroke="#000" stroke-width=".438" stroke-miterlimit="2.613" d="M411.928 164.556s3.618-25.028-11.157-31.059l3.015 22.916 8.142 8.143h0z"/><path fill-rule="evenodd" clip-rule="evenodd" fill="#05603d" stroke="#000" stroke-width=".438" stroke-miterlimit="2.613" d="M402.279 155.811s4.521-21.107-10.252-26.836l3.616 21.408 6.636 5.428h0zM454.143 210.69s-31.66-.603-38.294-7.839l33.772-.303 4.522 8.142h0z"/><path fill-rule="evenodd" clip-rule="evenodd" fill="#05603d" stroke="#000" stroke-width=".438" stroke-miterlimit="2.613" d="M447.509 203.454s-37.09-1.811-44.023-9.047l39.502.906 4.521 8.141h0z"/><path fill-rule="evenodd" clip-rule="evenodd" fill="#05603d" stroke="#000" stroke-width=".438" stroke-miterlimit="2.613" d="M441.781 193.805s-37.996 2.714-44.93-10.855l40.706 2.713 4.224 8.142h0z"/><path fill-rule="evenodd" clip-rule="evenodd" fill="#05603d" stroke="#000" stroke-width=".438" stroke-miterlimit="2.613" d="M435.445 185.362s-37.99 3.015-45.227-10.856l37.69.905 7.537 9.951h0z"/><path fill="none" stroke="#000" stroke-width=".5" stroke-miterlimit="2.613" d="M458.363 217.323s-15.981-41.31-80.508-74.177"/><path fill-rule="evenodd" clip-rule="evenodd" fill="#05603d" stroke="#000" stroke-width=".438" stroke-miterlimit="2.613" d="M563.6 198.328s-13.568 16.282-20.202 7.236c-.001 0 1.506-12.966 20.202-7.236h0zM457.46 228.179s22.614 7.84 31.36 2.713l-24.727-9.045-6.633 6.332h0z"/><path fill-rule="evenodd" clip-rule="evenodd" fill="#05603d" stroke="#000" stroke-width=".438" stroke-miterlimit="2.613" d="M463.791 223.957s27.139 10.253 35.883 5.127l-29.25-11.76-6.633 6.633h0zM477.662 213.707s29.852 12.061 41.009 5.728l-32.866-10.854-8.143 5.126h0z"/><path fill-rule="evenodd" clip-rule="evenodd" fill="#05603d" stroke="#000" stroke-width=".438" stroke-miterlimit="2.613" d="M487.613 209.484s28.043 14.473 41.009 5.73l-29.551-10.252-11.458 4.522h0z"/><path fill-rule="evenodd" clip-rule="evenodd" fill="#05603d" stroke="#000" stroke-width=".438" stroke-miterlimit="2.613" d="M499.674 203.755s24.727 18.693 37.088 9.347l-25.63-12.363-11.458 3.016h0zM538.271 201.343s2.412 14.172 19.6 7.539l-15.679-6.635-3.921-.904h0z"/><path fill-rule="evenodd" clip-rule="evenodd" fill="#05603d" stroke="#000" stroke-width=".438" stroke-miterlimit="2.613" d="M515.956 200.739s13.569 18.395 29.551 13.871l-17.79-12.362-11.761-1.509h0z"/><path fill-rule="evenodd" clip-rule="evenodd" fill="#05603d" stroke="#000" stroke-width=".438" stroke-miterlimit="2.613" d="M529.225 202.248s9.949 15.981 25.33 11.759l-16.887-11.458-8.443-.301h0zM458.063 227.576s.301-24.122 7.84-30.757l.303 26.536-8.143 4.221h0z"/><path fill-rule="evenodd" clip-rule="evenodd" fill="#05603d" stroke="#000" stroke-width=".438" stroke-miterlimit="2.613" d="M464.094 223.053s1.506-31.661 9.348-38.295l-1.206 34.074-8.142 4.221h0z"/><path fill-rule="evenodd" clip-rule="evenodd" fill="#05603d" stroke="#000" stroke-width=".438" stroke-miterlimit="2.613" d="M471.633 216.42s3.317-38.296 14.775-40.407l-6.334 36.185-8.441 4.222h0zM480.375 211.293s6.033-35.28 20.203-38.898l-11.155 35.883-9.048 3.015h0zM503.593 202.548s3.317-27.137 18.696-24.424l-6.333 24.124-12.363.3h0z"/><path fill-rule="evenodd" clip-rule="evenodd" fill="#05603d" stroke="#000" stroke-width=".438" stroke-miterlimit="2.613" d="M515.656 200.438s5.127-20.204 20.505-17.489l-9.951 17.789-10.554-.3h0z"/><path fill-rule="evenodd" clip-rule="evenodd" fill="#05603d" stroke="#000" stroke-width=".438" stroke-miterlimit="2.613" d="M523.798 199.834s6.03-13.87 21.409-12.363l-9.951 14.172-11.458-1.809h0zM536.762 202.248s10.254-18.695 24.123-10.251l-15.98 12.362-8.143-2.111h0z"/><path fill="none" stroke="#000" stroke-width=".5" stroke-miterlimit="2.613" d="M452.636 235.115s33.47-47.341 96.188-30.455"/><path fill-rule="evenodd" clip-rule="evenodd" fill="#05603d" stroke="#000" stroke-width=".438" stroke-miterlimit="2.613" d="M492.135 207.073s3.922-31.06 18.997-35.28l-9.648 31.359-9.349 3.921h0zM470.424 217.323s29.854 12.363 37.695 8.142l-28.95-12.966-8.745 4.824h0zM433.036 213.707s-24.124-36.787-39.199-35.281l26.836 33.772 12.363 1.509h0zM305.786 227.576s9.95 12.665 33.169-1.507c0-.001-16.585-12.063-33.169 1.507h0z"/><path fill-rule="evenodd" clip-rule="evenodd" fill="#498677" stroke="#000" stroke-width=".438" stroke-miterlimit="2.613" d="M456.555 220.339s-24.725 14.775-37.691 12.664l26.233-16.583 11.458 3.919h0z"/><path fill-rule="evenodd" clip-rule="evenodd" fill="#05603d" stroke="#000" stroke-width=".438" stroke-miterlimit="2.613" d="M446.303 218.229s-28.345 18.394-41.611 16.583l30.454-20.504 11.157 3.921h0zM424.291 213.102s-31.06 21.107-47.944 18.395l35.581-20.505 12.363 2.11h0z"/><path fill-rule="evenodd" clip-rule="evenodd" fill="#05603d" stroke="#000" stroke-width=".438" stroke-miterlimit="2.613" d="M410.119 212.198s-28.043 22.614-48.245 18.394l31.66-18.997 16.585.603h0z"/><path fill-rule="evenodd" clip-rule="evenodd" fill="#05603d" stroke="#000" stroke-width=".438" stroke-miterlimit="2.613" d="M392.027 210.69s-21.107 25.63-41.313 20.807l25.935-19.902 15.378-.905h0zM343.177 220.64s-1.508 18.696-25.932 17.792l21.409-15.983 4.523-1.809h0z"/><path fill-rule="evenodd" clip-rule="evenodd" fill="#05603d" stroke="#000" stroke-width=".438" stroke-miterlimit="2.613" d="M370.617 212.8s-7.84 21.71-30.154 22.616l16.587-17.489 13.567-5.127h0z"/><path fill-rule="evenodd" clip-rule="evenodd" fill="#05603d" stroke="#000" stroke-width=".438" stroke-miterlimit="2.613" d="M354.938 218.531s-4.826 18.394-25.632 19.298l15.378-16.586 10.254-2.712h0zM455.348 219.737s-12.061-22.918-24.424-26.536l12.063 25.33 12.361 1.206h0z"/><path fill-rule="evenodd" clip-rule="evenodd" fill="#05603d" stroke="#000" stroke-width=".438" stroke-miterlimit="2.613" d="M445.396 217.323s-16.885-29.549-29.548-33.167l17.188 31.963 12.36 1.204h0zM367.301 176.919c34.375-2.112 52.166 34.675 52.166 34.675h-12.363c0 .302-12.967-19.298-18.693-23.82-5.731-4.523-21.11-10.855-21.11-10.855h0z"/><path fill-rule="evenodd" clip-rule="evenodd" fill="#05603d" d="M347.397 186.869c17.792-7.539 39.503 23.821 39.503 23.821l-15.378 3.316c-.303.302-8.142-16.885-12.363-20.201-4.221-3.016-11.762-6.936-11.762-6.936z"/><path fill="none" stroke="#000" stroke-width=".438" stroke-miterlimit="2.613" d="M347.397 186.869c17.792-7.539 39.503 23.821 39.503 23.821l-15.378 3.316s-8.142-16.885-12.363-20.201c-4.221-3.016-11.762-6.936-11.762-6.936h0z"/><path fill-rule="evenodd" clip-rule="evenodd" fill="#05603d" stroke="#000" stroke-width=".438" stroke-miterlimit="2.613" d="M332.021 196.519c21.108-14.474 38.899 16.281 38.899 16.281l-10.555 3.318c.303 0-6.633-10.253-10.254-12.363-3.92-2.412-18.09-7.236-18.09-7.236h0z"/><path fill-rule="evenodd" clip-rule="evenodd" fill="#05603d" stroke="#000" stroke-width=".438" stroke-miterlimit="2.613" d="M360.668 214.61s-19.602-17.791-37.694-11.458l24.424 16.886 13.27-5.428h0z"/><path fill-rule="evenodd" clip-rule="evenodd" fill="#05603d" stroke="#000" stroke-width=".438" stroke-miterlimit="2.613" d="M345.59 220.943s-13.871-16.886-32.567-6.333l23.521 10.855 9.046-4.522h0z"/><path fill="none" stroke="#000" stroke-width=".5" stroke-miterlimit="2.613" d="M465.902 225.465s-64.227-34.677-133.882 1.508"/><path fill-rule="evenodd" clip-rule="evenodd" fill="#05603d" stroke="#000" stroke-width=".438" stroke-miterlimit="2.613" d="M355.541 181.139c25.933-8.744 47.642 30.455 47.642 30.455l-13.267-.904s-7.84-10.855-12.061-15.68c-6.333-6.935-22.314-13.871-22.314-13.871h0zM435.146 214.308s-31.058 21.409-43.118 19.6l29.852-21.409 13.266 1.809h0zM399.264 349.999s13.57-19.298 11.155-24.425c0 0-18.694 9.951-11.155 24.425h0zM459.27 227.877s1.809 23.52-6.031 34.978l-3.015-24.725 9.046-10.253h0z"/><path fill-rule="evenodd" clip-rule="evenodd" fill="#05603d" stroke="#000" stroke-width=".438" stroke-miterlimit="2.613" d="M452.936 236.623s3.318 26.233-4.521 37.691l-4.523-27.44 9.044-10.251h0zM437.558 256.221s7.539 28.949-3.015 43.723l-4.521-33.169 7.536-10.554h0zM412.834 301.15s16.584 6.333 7.536 24.123l-9.046-13.568 1.51-10.555h0z"/><path fill-rule="evenodd" clip-rule="evenodd" fill="#05603d" stroke="#000" stroke-width=".438" stroke-miterlimit="2.613" d="M458.363 228.783s-26.836 13.87-36.184 25.026l29.25-14.473 6.934-10.553h0z"/><path fill-rule="evenodd" clip-rule="evenodd" fill="#05603d" stroke="#000" stroke-width=".438" stroke-miterlimit="2.613" d="M451.43 237.526s-35.281 19.299-44.629 30.455l37.996-19.901 6.633-10.554h0z"/><path fill-rule="evenodd" clip-rule="evenodd" fill="#05603d" stroke="#000" stroke-width=".438" stroke-miterlimit="2.613" d="M442.382 248.683s-28.646 12.062-34.072 24.425l27.136-13.871 6.936-10.554h0z"/><path fill-rule="evenodd" clip-rule="evenodd" fill="#05603d" stroke="#000" stroke-width=".438" stroke-miterlimit="2.613" d="M433.939 260.142s-25.63 8.442-33.771 24.727l28.044-14.174 5.727-10.553h0zM417.958 287.883s-23.521 11.458-27.139 24.121l23.521-11.76 3.618-12.361h0z"/><path fill-rule="evenodd" clip-rule="evenodd" fill="#05603d" stroke="#000" stroke-width=".438" stroke-miterlimit="2.613" d="M412.531 300.849s-22.615 7.839-23.821 21.409l21.409-11.156 2.412-10.253h0z"/><path fill-rule="evenodd" clip-rule="evenodd" fill="#05603d" stroke="#000" stroke-width=".438" stroke-miterlimit="2.613" d="M409.516 309.292s-17.488 7.839-19.902 22.012l18.999-11.761.903-10.251h0z"/><path fill-rule="evenodd" clip-rule="evenodd" fill="#05603d" stroke="#000" stroke-width=".438" stroke-miterlimit="2.613" d="M408.612 320.75s-21.712 10.555-19.902 22.917l19.6-16.584.302-6.333h0z"/><path fill="none" stroke="#000" stroke-width=".5" stroke-miterlimit="2.613" d="M468.314 219.133s-61.814 59.702-60.305 111.869"/><path fill-rule="evenodd" clip-rule="evenodd" fill="#05603d" stroke="#000" stroke-width=".438" stroke-miterlimit="2.613" d="M426.4 274.011s-22.012 5.429-33.469 27.139l26.535-15.68 6.934-11.459h0zM443.891 246.874s4.221 32.868-.604 39.803l-7.236-28.345 7.84-11.458h0zM430.321 268.284s7.839 27.439-2.715 42.515l-4.824-28.645 7.539-13.87h0z"/><path fill-rule="evenodd" clip-rule="evenodd" fill="#05603d" stroke="#000" stroke-width=".438" stroke-miterlimit="2.613" d="M420.673 283.361s11.458 15.377 2.712 35.58l-9.045-22.615 6.333-12.965h0zM410.722 313.212s8.745 8.744 6.333 18.092l-8.442-9.648 2.109-8.444h0z"/><path fill-rule="evenodd" clip-rule="evenodd" fill="#05603d" stroke="#000" stroke-width=".438" stroke-miterlimit="2.613" d="M407.404 322.559s12.666 6.03 1.809 25.028l-2.109-21.409.3-3.619h0zM438.16 229.385s-36.484-14.775-47.038-5.729l37.39 11.156 9.648-5.427h0zM351.923 305.372s13.87 4.222 23.521-18.092c-.001-.001-18.394-.302-23.521 18.092h0zM458.967 222.149s-10.252 23.518-21.106 28.947l10.854-25.933 10.252-3.014h0z"/><path fill-rule="evenodd" clip-rule="evenodd" fill="#055f3c" stroke="#000" stroke-width=".438" stroke-miterlimit="2.613" d="M450.523 225.767s-11.457 28.343-22.012 33.771l11.761-30.755 10.251-3.016h0z"/><path fill-rule="evenodd" clip-rule="evenodd" fill="#05603d" stroke="#000" stroke-width=".438" stroke-miterlimit="2.613" d="M431.527 233.306s-11.76 31.66-25.63 38.596l15.378-33.771 10.252-4.825h0z"/><path clip-rule="evenodd" stroke-miterlimit="2.613" d="M420.673 240.241s-8.745 31.057-25.933 38.595l13.569-30.453 12.364-8.142h0z" stroke-width=".438" stroke="#000" fill-rule="evenodd" fill="#05603d"/><path clip-rule="evenodd" stroke-miterlimit="2.613" d="M406.801 248.383s-2.412 29.851-19.9 36.486l8.743-28.043 11.157-8.443h0zM376.047 280.948s8.441 14.474-9.951 26.837l7.536-23.219 2.415-3.618h0z" stroke-width=".438" stroke="#000" fill-rule="evenodd" fill="#05603d"/><path fill-rule="evenodd" clip-rule="evenodd" fill="#05603d" stroke="#000" stroke-width=".438" stroke-miterlimit="2.613" d="M392.027 261.046s4.521 20.806-10.254 32.265l3.016-21.409 7.238-10.856h0z"/><path fill-rule="evenodd" clip-rule="evenodd" fill="#05603d" stroke="#000" stroke-width=".438" stroke-miterlimit="2.613" d="M383.283 273.108s6.33 16.282-8.443 27.741l2.41-20.203 6.033-7.538h0zM458.063 222.149s-20.805-10.253-31.963-6.634l22.012 12.362 9.951-5.728h0z"/><path fill-rule="evenodd" clip-rule="evenodd" fill="#05603d" stroke="#000" stroke-width=".438" stroke-miterlimit="2.613" d="M449.621 225.767s-28.045-12.967-39.202-9.347l29.251 14.473 9.951-5.126h0zM370.92 236.32c24.123-19.297 56.387-1.508 56.387-1.508l-9.349 6.333c.605.302-19.297-7.237-25.63-7.839-6.633-.303-21.408 3.014-21.408 3.014h0zM361.571 254.11c9.046-14.774 41.312-3.317 41.312-3.317l-9.349 10.857c-.303.3-14.775-8.444-19.6-8.444-5.126-.3-12.363.904-12.363.904h0z"/><path fill-rule="evenodd" clip-rule="evenodd" fill="#05603d" stroke="#000" stroke-width=".438" stroke-miterlimit="2.613" d="M355.24 268.886c7.84-21.71 36.787-7.839 36.787-7.839l-6.032 7.839c.303-.301-9.948-4.221-13.87-3.919-3.92.302-16.885 3.919-16.885 3.919h0z"/><path fill-rule="evenodd" clip-rule="evenodd" fill="#05603d" stroke="#000" stroke-width=".438" stroke-miterlimit="2.613" d="M385.695 267.378s-23.821-3.016-33.772 11.157h26.536l7.236-11.157h0z"/><path fill-rule="evenodd" clip-rule="evenodd" fill="#05603d" stroke="#000" stroke-width=".438" stroke-miterlimit="2.613" d="M377.855 280.043s-18.996-5.125-27.441 12.363l23.218-4.222 4.223-8.141h0z"/><path fill="none" stroke="#000" stroke-width=".5" stroke-miterlimit="2.613" d="M468.918 220.943s-65.433 7.84-97.998 70.559"/><path fill-rule="evenodd" clip-rule="evenodd" fill="#05603d" stroke="#000" stroke-width=".438" stroke-miterlimit="2.613" d="M364.586 245.667c14.473-20.201 50.66-2.411 50.66-2.411l-10.555 6.332s-10.854-3.921-16.887-5.427c-7.839-1.81-23.218 1.506-23.218 1.506h0zM440.272 228.783s-11.761 31.66-21.409 36.786l10.555-31.359 10.854-5.427h0z"/><path fill-rule="evenodd" clip-rule="evenodd" fill="#fff500" stroke="#000" stroke-width=".876" stroke-miterlimit="2.613" d="M348.906 73.794s-2.11 12.965-7.539 19.6c-5.427 6.633-31.359 50.054-106.441 20.806 0 0-8.744 74.78-96.792 81.415 0 0 16.584 11.759 10.855 40.103-2.713 14.475-12.966 36.789-29.249 71.766-16.283 34.676-36.787 83.527-35.883 126.947 1.206 43.42 10.854 128.152 103.124 170.366l-2.11 12.063s-53.672-23.221-66.338-34.678c-12.965-12.061-17.187-5.428-17.187-1.207 0 0-6.635-1.205-7.539-6.635-1.205-5.125 0-13.87 11.76-11.758 0 0-17.188-21.712-20.504-30.455-3.316-8.744-12.062-15.378-15.075-10.856 0 0 2.109-6.634 6.332-7.536 4.22-1.207 3.015-8.445 1.206-14.176-2.112-6.33-7.538-12.061-10.856-12.061-6.633 0-9.95 1.207-9.95 6.637 0 0-3.921-3.318-4.222-7.539-1.206-9.951 0-15.078 8.442-17.49 3.921-.904 13.268 2.412 13.268 5.427 0 3.317-2.11-16.282-2.11-16.282s-1.206-11.76-5.428-24.727c-4.523-13.266-14.172-13.266-21.71-5.727 0 0-2.412-11.761.904-16.285 3.317-4.221 15.076-17.188 27.138 4.524 0 0 1.206-30.456-2.11-34.978-3.317-4.225-12.062-10.556-19.6-4.225 0 0-3.317-16.281 14.172-15.076 11.759.604 12.062 10.857 12.062 10.857s9.648-43.422 24.725-65.133c15.379-22.013 50.054-81.716 31.662-106.442 0 0-4.222 4.222-8.745 3.016-4.221-.905-3.317-8.442 0-8.442 0 0-9.65 2.109-4.221-8.745 2.714-6.032 7.538-4.523 8.744 0 0 0-2.412-10.856 7.539-7.539 8.442 2.715 4.221 6.333.904 8.444 0 0 73.876-12.967 83.826-70.56 0 0-4.22 8.141-8.744 0-5.428-9.648 6.332-9.648 6.332-9.648s-8.442-2.111 0-8.745c5.125-3.618 13.268-2.11 12.062 3.317 0 0 3.316-6.633 7.539-2.111 0 0 8.744 7.539 0 9.648 0 0 64.226 19.601 96.792-25.026 0 0-8.744-3.016-5.428-8.442 4.222-7.841 8.744-4.524 11.761 0 0 0-6.333-12.967 6.633-12.967 12.968 0 6.635 12.967 6.635 12.967 3.016-4.524 7.539-7.841 11.76 0 3.316 5.427-5.427 8.442-5.427 8.442 32.563 44.627 96.792 25.026 96.792 25.026-8.745-2.109 0-9.648 0-9.648 4.221-4.522 7.539 2.111 7.539 2.111-.906-5.427 7.236-6.935 12.061-3.317 8.745 6.634 0 8.745 0 8.745s11.758 0 6.333 9.648c-4.524 8.141-8.745 0-8.745 0 9.951 57.593 83.826 70.56 83.826 70.56-3.318-2.111-7.236-5.729.905-8.444 9.948-3.317 7.536 7.539 7.536 7.539 1.207-4.523 6.033-6.032 8.746 0 5.729 10.854-4.222 8.745-4.222 8.745 3.317 0 4.222 7.538 0 8.442-4.524 1.206-8.745-3.016-8.745-3.016-18.394 24.727 16.284 84.43 31.662 106.442 15.076 21.71 25.027 65.133 25.027 65.133s0-10.253 11.76-10.857c17.488-1.205 14.17 15.076 14.17 15.076-7.536-6.331-16.281 0-19.6 4.225-3.314 4.521-2.109 34.978-2.109 34.978 12.061-21.712 23.821-8.745 27.139-4.524 3.316 4.524.904 16.285.904 16.285-7.537-7.539-17.188-7.539-21.709 5.727-4.225 12.967-5.428 24.727-5.428 24.727s-2.111 19.6-2.111 16.282c0-3.015 9.348-6.331 13.266-5.427 8.445 2.412 9.648 7.539 8.445 17.49-.303 4.221-4.224 7.539-4.224 7.539 0-5.43-3.315-6.637-9.948-6.637-3.318 0-8.445 5.73-10.555 12.061-2.111 5.73-3.318 12.969.903 14.176 4.224.902 6.333 7.536 6.333 7.536-3.016-4.521-11.76 2.112-15.078 10.856-3.315 8.743-20.503 30.455-20.503 30.455 12.061-2.112 12.966 6.633 12.061 11.758-1.206 5.43-7.839 6.635-7.839 6.635 0-4.221-4.222-10.854-17.188 1.207-12.664 11.457-66.338 34.678-66.338 34.678l-2.109-12.063C603.1 562.583 612.748 477.85 613.957 434.43c.902-43.42-19.6-92.271-35.885-126.947-16.281-34.978-25.026-57.593-29.248-71.766-7.539-25.027 10.855-40.103 10.855-40.103-88.047-6.634-96.793-81.415-96.793-81.415-74.779 29.248-101.013-14.173-106.442-20.806-5.127-6.634-7.538-19.599-7.538-19.599h0z"/><path fill-rule="evenodd" clip-rule="evenodd" fill="#FFEC00" stroke="#000" stroke-width=".876" stroke-miterlimit="2.613" d="M231.609 604.796s-10.854 0-6.332-6.333c4.22-6.633 13.871-4.521 15.077 2.111.903 6.634-1.206 19.6-12.967 23.821-12.062 4.524-40.406 0-43.42 12.966 0 0-7.841-10.554.903-13.869 0 0-27.138-7.238-14.775-17.49 3.317-2.713 10.554 1.206 6.031 7.539 0 0 10.854 2.713 9.95-14.475 0 0 14.776 14.475 31.963 15.681 10.857.603 16.284-5.426 13.57-9.951h0zM466.205 604.796s10.854 0 6.33-6.333c-4.221-6.633-13.869-4.521-15.075 2.111-.905 6.634 1.206 19.6 12.964 23.821 12.063 4.524 40.408 0 43.423 12.966 0 0 7.839-10.554-.905-13.869 0 0 27.139-7.238 14.775-17.49-3.316-2.713-10.555 1.206-6.031 7.539 0 0-10.854 2.713-9.951-14.475 0 0-14.473 14.475-31.96 15.681-10.857.603-16.285-5.426-13.57-9.951h0z"/><path fill-rule="evenodd" clip-rule="evenodd" fill="#fff500" stroke="#000" stroke-width=".876" stroke-miterlimit="2.613" d="M348.001 681.989s21.712-35.278 38.899-39.199c15.379-3.016 52.166-13.869 37.088-30.457 0 0 15.078-6.33 16.284 9.951 0 0 10.552-2.109 10.552-6.633 0 0-7.236-5.125-4.219-8.442 3.315-3.317 15.376-5.427 15.376 5.124 0 11.16-1.206 16.588-12.966 21.712 0 0 7.539 5.729 5.127 12.063 0 0-21.709-10.855-41.309 2.412 0 0 12.061 4.221 3.314 15.075.001 0-28.04-22.917-68.146 18.394h0z"/><path fill-rule="evenodd" clip-rule="evenodd" fill="#fff500" stroke="#000" stroke-width=".876" stroke-miterlimit="2.613" d="M349.51 681.989s-21.108-35.278-38.598-39.199c-15.377-3.016-52.164-13.869-37.089-30.457 0 0-15.075-6.33-16.281 9.951 0 0-10.555-2.109-10.555-6.633 0 0 7.238-5.125 4.222-8.442-3.317-3.317-15.377-5.427-15.377 5.124 0 11.16 1.205 16.588 13.267 21.712 0 0-7.84 5.729-5.427 12.063 0 0 21.71-10.855 41.31 2.412 0 0-12.062 4.221-3.316 15.075-.002 0 27.738-22.917 67.844 18.394h0z"/><path clip-rule="evenodd" stroke-miterlimit="2.613" d="M348.906 45.45c60.912 0 96.19 9.95 96.19 9.95v16.283c0 6.634 4.824 8.745 10.854 6.937 53.674-14.474 66.037-13.569 71.162-13.569 4.824 0 24.727 3.015 62.72 25.026 37.993 22.314 54.577 20.807 54.577 20.807v13.87c1.507 6.635 6.937 3.921 16.285 12.666 22.914 21.409 32.563 51.562 32.563 51.562s22.015-77.192-33.168-104.331l-1.207-17.791s-28.645-5.427-44.926-15.077c-16.285-9.95-47.645-32.263-88.05-32.263-35.278 0-67.845 11.458-67.845 11.458l2.713-18.997S429.417.221 348.905.221c-80.207 0-111.87 11.76-111.87 11.76l.604 16.886s-25.028-9.347-65.736-9.347c-40.104 0-71.765 22.313-88.047 32.263-16.283 9.65-44.929 15.077-44.929 15.077l-1.206 17.791C-17.458 111.788 4.554 188.98 4.554 188.98s9.649-30.153 32.867-51.562c9.047-8.745 14.474-6.031 16.283-12.666v-13.87s16.284 1.507 54.276-20.807c37.995-22.012 57.896-25.026 63.021-25.026 4.824 0 17.489-.905 71.162 13.569 5.729 1.809 10.553-.303 10.553-6.937V55.399s35.581-9.949 96.19-9.949h0z" stroke-width=".838" stroke="#000" fill-rule="evenodd" fill="#FFF"/><path fill="none" stroke="#000" stroke-width=".438" stroke-miterlimit="2.613" d="M237.641 28.865l1.205 29.25s.303 4.523 5.127 6.935c4.522 2.412 8.744 6.633 5.427 12.665m3.316-22.316s-6.935 0-13.871 2.715M37.723 84.348l1.206 29.248s3.016 1.81 7.539 2.714c3.316.302 8.141 4.221 7.236 8.442m-.905-13.869s-9.648-.604-13.871 2.713m419.135-82.62l-1.508 26.536s-.604 4.522-5.125 8.141c-3.318 3.317-6.333 6.03-3.016 12.062m-3.317-22.316s4.222-.301 11.458 2.112M660.09 84.348l-1.207 29.248s-3.015 1.81-7.536 2.714c-3.317.302-8.142 4.221-6.937 8.442m.604-13.869s9.648-.604 13.869 2.713"/><path fill-rule="evenodd" clip-rule="evenodd" d="M256.336 46.957l-.303-1.809c.905 0 1.509-.302 2.412-.603.904-.301.904-1.208.604-1.809l-3.016-16.283c-.302-3.016-.302-3.016-3.016-2.412h-.904l-.302-1.809 13.268-2.412.301 1.808-2.111.303c-1.507.302-1.507.904-1.205 2.11l3.015 16.886c.301 1.507.301 2.111 1.809 2.111.904 0 1.508-.302 2.412-.302 4.825-1.207 6.633-4.223 6.935-9.047l1.508-.301 1.207 9.348-22.614 4.221zM284.076 42.434l-.603-2.111 2.411-.301c1.509-.301 1.208-.904.906-2.413l-1.81-16.886c0-.301 0-.604-.301-.903 0-.604 0-.906-.603-.906h-1.809l-1.208.303v-1.809l13.268-1.81.301 2.111h-1.206c-.603 0-1.809 0-2.11.602-.302.301-.302.603-.302.603v1.206l2.112 17.189c.3.905.3 1.507.904 1.809h.602c.303 0 .906-.302 1.508-.302h.906l.301 1.81-13.267 1.808zM301.565 40.022l-.302-1.809c.904 0 3.316 0 3.316-.905.302-.604.302-.604.302-1.206l-1.206-17.792c0-.301 0-.602-.302-.903 0 0 0-.303-.301-.303h-.301c-.905-.302-1.81-.302-3.016 0v-2.111l14.775-.905c2.111 0 5.125 0 7.236 1.509 1.206.602 2.111 2.412 2.111 3.92.301 4.221-3.317 5.427-6.935 6.332 3.618.301 8.744 1.507 9.046 6.03.301 1.809-.604 3.619-2.111 4.824-1.509 1.509-3.015 1.809-4.826 2.111-.602 0-.903 0-1.808.302-1.207 0-2.412 0-3.618.302l-12.06.604zM331.115 38.213v-1.81c.906 0 3.318.301 3.62-.904v-1.206l-.302-17.791c0-.303.302-.604 0-.905 0-.303-.303-.303-.904-.604h-2.715v-1.809l23.219-.3.303 9.045h-1.509c-1.509-5.127-3.316-7.236-9.047-7.236-.603 0-1.506 0-2.412.602-.301 0-.301.303-.603.604v8.443c3.618 0 5.127-1.811 5.427-5.126h1.81l.303 12.061h-2.112c0-3.315-1.809-5.427-5.427-5.125v7.538c0 1.508 0 2.414 1.809 2.414h1.81c5.426 0 7.54-2.414 8.746-7.539h1.809l-.303 9.348-23.522.3zM375.141 13.788h2.715c2.109.301 3.918.603 5.728 1.81 1.509.905 2.412 3.014 2.112 4.824 0 4.222-3.922 6.03-7.84 6.03 3.013.604 4.521 2.412 5.125 5.428l.303 2.413c0 .602.3 1.506.603 2.11 0 0 0 .301.3.301 1.81.904 2.112-1.81 2.112-3.016l1.81.302c0 .604 0 1.206-.303 1.809-.604 3.016-3.316 3.921-6.031 3.921-1.506 0-3.015-.603-3.918-1.809-.906-1.207-.906-2.412-.906-3.618l-.3-2.112c0-3.015 0-5.125-3.317-5.427-.604 0-.906-.302-1.51-.302h-1.205l-.301 8.143v.904c0 .904.301.904.903 1.205h2.715v2.111l-13.569-.904v-1.809h1.809c1.81 0 1.81-.303 1.81-1.809l.905-15.982c0-.602.301-2.412 0-3.016-.603-.602-1.508-.301-2.412-.602h-.905v-1.809l13.567.904zM392.932 24.342l1.809-9.348 22.615 3.317-.604 9.348-1.809-.301c0-3.317-.906-7.839-4.824-8.444-.604 0-1.207 0-1.207.604-.3.302-.3.904-.3 1.205l-2.412 17.49c0 1.206 0 1.507 1.204 2.109.605 0 1.508 0 2.715.303l-.604 1.809-13.872-1.809.303-1.81h3.015c.303 0 .906 0 .906-.303.301-.602.301-1.205.301-1.506l2.412-17.188V18.61c0-.602-.604-.903-.904-.903-3.92-.604-6.332 3.918-6.936 6.935l-1.808-.3zM421.879 18.914l12.363 2.414-.303 1.809c-.903 0-1.506-.302-2.412 0 0 0-.301 0-.301.3 0 .303.301.906.301.906l3.016 8.744 4.523-5.428c.604-.301.903-.603.903-1.507.303-.301 0-.603 0-.906-.603-1.205-1.81-1.205-2.712-1.506l.3-1.809 9.951 1.809-.303 2.111c-2.712-.302-4.219.904-5.728 2.713-1.206 1.507-2.715 3.015-3.921 4.523-.903.904-1.507 1.809-2.412 2.713l-1.509 7.238v1.507s.303 0 .303.301c1.206.302 2.412.604 3.318.604l-.303 2.11-13.57-2.714.303-1.809c.604 0 2.412.603 3.016.3.903 0 .903-.903.903-1.809l1.509-6.332-4.523-11.76c-.604-1.506-.904-2.109-3.016-2.713l.304-1.809zM465.902 65.954l-.303-1.508c.303 0 1.509-.301 1.509-.904v-.904l-3.618-12.965v-.604c-.303 0-.303-.301-.303-.301h-.301c-.603 0-.905 0-1.205.301l-.604-1.508 7.537-1.809c1.208-.301 2.715-.301 3.92.603.906.302 1.51 1.509 1.81 2.413.605 3.315-.903 4.521-2.712 5.428 2.109-.303 4.521.301 5.727 3.618.303 1.507.303 2.713-.3 3.919-.603.905-1.509 1.507-2.412 1.809 0 0-.303 0-.603.302-.604 0-1.51.301-2.112.301l-6.03 1.809zM481.884 42.434l1.509-.301c.903-.301 2.109-.301 3.016.301.902.604 1.809 1.81 2.109 3.016.603 3.317-.904 5.127-2.713 5.729 1.506 0 2.713 1.206 3.618 3.016l.601 1.809c.303.302.605.905.906 1.508 1.205.302.603-1.508.603-2.413l.905-.302c0 .603 0 1.207.301 1.509 0 2.11-.903 3.618-2.412 3.92-.604 0-1.506 0-2.109-.604-.604-.603-1.206-1.809-1.509-2.713l-.3-1.509c-.604-2.111-.906-3.618-2.715-3.317h-.906l-.604.303 1.51 5.729c0 .301 0 .603.3.905 0 .603.303.603.605.603h.903l.604-.301.303 1.507-6.937 1.508-.303-1.508h.905c.904-.301.604-.603.604-1.809l-2.715-11.761c-.301-.301-.604-1.809-.604-2.11-.603-.302-1.205 0-1.506 0l-.604.302-.3-1.508 6.935-1.509zM495.15 56.003c-1.206-1.507-2.713-3.921-3.016-6.332-.603-2.414-.603-5.127.303-7.238.904-2.111 2.713-3.316 4.222-3.618 1.81-.303 3.618 0 5.427 1.81 1.507 1.507 2.715 3.618 3.318 6.332.301 2.414 0 5.428-.906 7.238-.905 2.411-2.111 3.316-4.221 3.618-1.508.301-3.618-.302-5.127-1.81zM505.404 37.309l6.633-.905.301 1.508c-.604 0-1.206 0-1.506.602-.303.303 0 .906 0 1.208l.902 8.442c.303.905.303 2.414.906 3.317.301.905.604 1.206 1.206 1.509.603.3 1.206.3 1.81.3.902 0 1.809-.603 2.412-1.809.3-1.508.3-3.016 0-4.222l-.906-6.936c0-1.205-.301-2.411-1.206-3.014h-.903l-.604-1.206 5.428-.603v1.205c-1.809.303-1.809 1.809-1.509 3.921l1.208 7.237v2.714c0 1.506-.905 2.712-1.809 3.618-.605.903-1.812 1.205-2.715 1.205-1.206.303-3.016 0-3.921-.603-1.507-1.206-2.109-2.714-2.412-4.824l-1.206-10.553c0-.302-.301-.604-.301-.604-.603-.303-1.508 0-1.809 0v-1.507h.001zM534.352 35.5h.602v7.236l-.904.302c-.603-3.016-.905-5.429-3.317-6.333 0-.301-.3-.301-.603-.301-2.412 0-3.318 2.412-3.619 5.125-.3 1.207-.3 2.413-.3 3.619-.303 1.809 0 3.92.3 5.729.301 1.509 1.51 2.412 2.715 2.412.301 0 .904 0 1.507-.3.605-.604.605-.906.905-1.81.301-.603.301-2.111.301-2.715v-1.206h-.903l-.905-.301v-1.206h6.332v1.507h-1.205v.302c-.303 0-.303.603-.303.904l-.301 6.332h-.906l-.902-2.411c-.906 1.507-2.412 2.411-4.222 2.411-1.812 0-3.317-.904-4.524-3.015-1.205-2.109-1.809-4.221-1.506-6.935 0-3.015.903-5.729 2.713-7.839.905-.905 1.809-1.508 3.015-1.811h1.509c.301 0 .604 0 1.206.303.903 0 1.206.3 1.81.904.3.301.3.301.603 0l.902-.903zM540.38 36.103l6.636 1.206-.303 1.507c-.301 0-1.206-.303-1.809 0-.301.302-.301.905-.301 1.206l-1.206 5.126 4.521 1.206 1.206-5.126c.303-.301.303-.603.303-.905v-.602c-.303-.301-1.509-.603-1.809-.603l.3-1.206 6.937 1.206-.301 1.508-1.509-.303c-.303 0-.603.905-.903 1.509l-2.414 11.759c0 .302 0 1.206-.301 1.508 0 .301.301.604.301.604.603.301.905.301 1.508.603l-.3 1.206-6.636-1.206.303-1.509s.903.302 1.206.302c.603 0 .603-1.508.903-2.109l.906-5.126-4.524-.906-1.206 5.428c-.303.903-.303 1.507.303 1.81 0 0 .903.301 1.206.301l-.303 1.507-6.634-1.507V52.99l1.207.3c.303 0 .603 0 .603-.3.303-.604.303-.906.603-1.208l2.412-12.362c.301-.604.301-1.206 0-1.508-.3-.303-.905-.303-1.205-.603l.3-1.206zM554.855 46.656l2.412-6.634 11.156 3.618-1.809 6.937-.906-.303c.604-2.411.906-6.03-1.203-6.634-.303 0-.605 0-.605.302-.301.302-.301.904-.604 1.206l-3.918 12.363c-.303.904-.604 1.206 0 1.508.601.301.903.301 1.206.603l-.303 1.206-6.937-2.412.604-1.206c.605.302.906.302 1.509.302 0 0 .303 0 .303-.302.3-.301.3-.604.601-.904l3.921-12.363c.303-.302.303-.604.303-.904.3-.302 0-.604-.303-.604-1.81-.905-3.921 2.412-4.824 4.523l-.603-.302zM575.36 46.656l6.331 2.715-.604 1.206c-.604 0-1.206-.905-1.809-.303 0 .303-.301.905-.604.905l-3.315 8.141c-.603.905-1.206 2.111-1.206 3.015-.303.904 0 1.508.301 2.11.303.604.603.905 1.205 1.206.906.302 2.112.302 3.318-.603.903-.905 1.506-2.109 2.109-3.618l2.715-6.032c.604-1.205 1.206-2.411.301-3.317 0-.301-.301-.301-.604-.301l.604-1.205 4.523 1.809-.604 1.205c-1.508-.602-2.412.604-3.317 2.413l-2.712 6.937c-.605.903-.906 1.506-1.51 2.109-.905 1.206-2.109 2.412-3.314 2.412-1.207.301-2.112 0-3.016-.604-1.209-.603-2.715-1.507-3.016-2.713-.605-1.809-.303-3.317.602-5.125l4.523-9.648v-.906c-.301-.301-1.206-.602-1.506-.602l.605-1.206zM585.009 63.843l.603.301c-.603 3.015-.603 6.633 1.51 7.84 1.203.604 2.712.302 3.617-1.507.904-1.509.602-2.414-.303-3.318l-1.205-.904c-.906-.905-1.81-1.81-2.109-3.618-.303-1.206 0-2.714.603-4.523 1.807-3.318 4.824-4.222 7.236-2.715.903.303 1.507 1.206 1.807 2.715l1.509-.905.906.302-3.016 6.332-.906-.302c.604-3.015.604-6.03-1.506-7.236-.906-.302-2.414-.302-3.318 1.206-.905 1.809 0 2.714.904 3.619l.603.602c1.812 2.111 3.62 4.221 1.509 8.141-.903 1.809-2.111 2.715-3.618 3.317-1.206.604-2.412.301-3.317-.301-1.207-.301-2.109-1.509-2.412-3.016l-1.81.604-.905-.301 3.618-6.333zM605.211 61.732l6.031 3.317-.604 1.206c-.301-.302-1.206-.905-1.809-.604-.301.302-.301.604-.604.905l-2.715 4.824 4.221 2.414 2.715-4.523c0-.303.301-.604.301-.906s.303-.302.303-.603c-.303-.301-1.206-.905-1.506-1.206l.603-.905 6.03 3.317-.604.905-1.208-.301c-.601-.301-.903.604-1.204 1.205l-5.729 10.554c-.303.301-.603.905-.903 1.208v.602c.601.302.903.603 1.203.904l-.603 1.206-6.03-3.316.604-1.206c.303.302.905.603 1.205.603.604.301 1.207-.905 1.51-1.509L609.13 75l-4.222-2.111-3.015 4.824c-.3.602-.603 1.507-.3 1.809.3 0 .902.603 1.205.904l-.603.905-6.03-3.318.601-1.205.905.604c.303.301.604.301.906 0 .301-.604.604-.906.903-1.206l5.729-11.157c.301-.303.904-.905.604-1.206-.303-.604-.906-.604-1.206-1.206l.604-.905zM610.338 85.855l.604-1.206c.604.301 1.506.905 2.109.301 0-.301.303-.602.303-.905l5.428-12.061c.3 0 .3-.303.3-.604v-.603c-.3-.3-.903-.602-1.206-.602l.303-1.208 11.157 5.127-2.715 6.03-.903-.303c.903-3.617.601-5.728-1.809-6.934-.605 0-.906-.301-1.209-.301-.301.301-.604.301-.604.603-.3.301-.3.604-.603.905l-2.109 4.523c1.509.904 3.015 0 3.919-2.112l1.205.303-3.918 8.442-.906-.603c.906-2.109.906-3.92-.902-4.523l-2.415 5.125c-.3.906-.601 1.206 0 1.81.303.303.605.303.905.603 2.715 1.206 4.222-.3 6.334-3.015l.902.301-3.015 6.032-11.155-5.125zM636.871 76.809l1.207.604c.905.301 1.809.903 2.715 1.809.3 1.206.3 2.714 0 3.92-1.207 3.017-3.318 3.618-5.428 3.017v.3c1.206.906 1.809 2.412 1.206 4.524v1.809c-.303.301-.603.905-.603 1.508 0 0 0 .302.3.302.603.904 1.509-1.206 1.81-1.81l.905.301c-.303.303-.603.905-.603 1.207-1.207 2.11-2.715 2.714-3.922 2.11-.902-.301-1.205-.904-1.506-1.809-.303-.905 0-1.81.301-3.017l.303-1.508c.603-2.11.902-3.618-.604-4.221 0 0-.303 0-.604-.301h-.603l-2.112 5.428v.904c-.3.603-.3.904 0 .904.301.301.604.301.906.301l.604.303-.604 1.206-6.633-2.414.6-1.205c.303 0 .604.3.906.3.604.302.903-.3 1.206-1.206l3.921-11.457c.301-.303.903-1.509.604-1.81 0-.603-.604-.603-.906-.603l-.604-.302.604-1.508 6.634 2.414zM640.189 97.916l.303-1.507c.601 0 1.807.604 1.807-.301.303-.301.303-.603.303-.905l1.509-13.268v-.603c0-.301 0-.301-.303-.301-.3-.302-.905-.302-1.509-.302l.303-1.508 12.061 1.508-.601 6.635h-1.208c-.301-3.921-.904-5.73-3.619-6.032-.603 0-1.205 0-1.508.301 0 0-.301 0-.301.302-.301.302-.301.906-.301 1.206l-.605 5.126c1.813.301 3.016-1.206 3.318-3.317h.906l-.906 9.046h-.903c.3-2.715-.603-4.222-2.415-4.523l-.603 5.729c-.3 1.206-.3 1.81.603 2.111h.906c2.715.301 3.921-1.507 5.127-5.127l.903.303-.903 6.935-12.364-1.508zM48.578 87.965l-.904-6.633 15.98-3.318 1.81 6.936-1.206.301c-.904-2.411-2.412-5.729-5.428-4.824 0 0-.602 0-.602.604 0 .301.302.603.302.904L60.94 94.9c0 .906.303 1.208 1.206 1.208.603-.301 1.207-.301 1.81-.301l.301 1.206-9.649 2.11-.302-1.508c.604 0 1.206-.301 1.81-.603.303 0 .604-.302.604-.604 0-.301 0-.603-.301-.904L54.005 82.84v-1.208c-.301-.301-.603-.301-1.206-.301-2.713.603-3.015 4.222-3.015 6.633h-1.206v.001zM63.957 77.714l8.442-3.618.603 1.205c-.302 0-1.508.906-1.809 1.206 0 .604 0 .906.301 1.208l1.81 4.826 6.333-2.414-2.111-4.827c-.303-.3-.303-.603-.303-.903-.301 0-.301-.301-.602-.301-.301-.301-1.81.301-2.111.602l-.302-1.206 8.443-3.919.604 1.508-1.81.904c-.603.302 0 1.206 0 1.507l4.824 11.157c.302.603.602.905.905 1.509 0 .3.301.3.603.3.603-.3 1.206-.3 1.811-.603l.602 1.206-8.744 3.618-.603-1.206c.301 0 1.206-.604 1.809-.905.604-.603 0-1.507-.303-2.111l-2.109-4.824-6.031 2.715 2.112 5.125c.301.603.602 1.509 1.507 1.206.302 0 1.508-.604 1.508-.604l.603 1.206-8.745 3.921-.301-1.206 1.206-.905c.301 0 .904-.301.603-.905 0-.3-.301-.603-.301-1.205l-5.125-11.459c0-.603-.302-1.207-.905-1.207s-1.507.604-2.111.604l-.303-1.205zM92.3 85.855l-.602-1.206c.3-.301 2.109-.905 1.808-1.808 0-.301-.3-.604-.603-.906l-6.332-11.759-.302-.303c-.301-.301-.301-.301-.603-.301l-1.81.905-.603-1.206 14.474-8.141 3.316 6.029-.905.603c-3.016-2.713-4.824-3.618-8.141-1.809-.602.302-1.206.603-1.507 1.206-.302.302-.302.302-.302.603.302.603.302.905.904 1.206l2.112 4.222c2.411-.904 2.712-2.713 1.506-5.127l1.206-.301 4.524 7.538-.905.906c-1.507-2.412-3.317-3.016-5.73-1.81l3.015 5.126c.603.904.603 1.508 1.809.904.303 0 .906-.301 1.207-.301 3.317-2.112 3.92-4.221 2.714-8.141l1.206-.604 3.014 6.333-14.47 8.142zM114.614 72.89l-.603-1.208c.603 0 1.205-.602 1.809-.904.604-.3.302-.904-.303-1.506l-5.427-11.157c-.905-1.809-.905-1.809-2.714-.905l-.604.302-.602-1.206 8.745-4.524.602 1.208-1.506.602c-.905.604-.905 1.206-.303 2.112l5.729 11.156c.602.905.905 1.508 1.81 1.206.603-.301.904-.301 1.507-.603 3.317-1.81 3.62-4.222 2.713-7.84l1.206-.603 2.715 6.332-14.774 7.538zM132.104 61.431c-2.112-.905-3.92-3.016-4.825-5.428-1.206-2.413-1.206-5.127-.302-7.539.904-2.11 3.015-4.221 5.127-5.127 2.412-.903 4.522-.903 7.236.303 2.412.905 4.221 3.016 5.127 5.127.903 2.412 1.205 5.428 0 7.838-.906 2.715-2.715 3.921-5.127 5.127-2.111.905-4.824.905-7.236-.301zM143.26 39.419l8.744-2.412.301 1.506c-.603.303-1.809.303-1.809.906 0 .301 0 .603.303.903l6.633 9.349 1.206-10.252c0-.302 0-.604-.301-.906-.301-1.205-1.809-1.205-2.713-.904l-.302-1.506 6.935-1.507.604 1.205c-2.111.604-2.412 2.713-2.714 4.222L158.338 55.4l-2.111.303-9.649-13.569c-.602-.905-.904-1.81-2.109-1.81-.303.303-.604.303-.906.303l-.303-1.208zM165.573 52.989V51.48c.604 0 2.414.603 2.713-.301v-1.207l.604-13.268v-.602c0-.303-.302-.303-.604-.303-.602-.3-1.206-.3-2.109-.3v-1.206l16.885.602-.3 6.634h-1.208c-.602-3.92-1.809-5.426-5.729-5.729-.603 0-1.507 0-2.111.303l-.301.301c-.303.604 0 .905-.303 1.508v4.824c2.414.302 3.62-1.207 3.921-3.316h1.206v9.045h-1.507c0-2.713-1.206-4.221-3.62-4.221l-.3 5.729c0 1.207 0 1.809.903 1.809.604 0 1.207.301 1.509.301 3.919 0 5.427-1.809 6.633-5.427h1.206l-.603 6.935-16.885-.602zM194.219 52.989c-.904-2.112-1.507-4.826-.904-7.238.302-2.414 1.809-4.824 4.221-6.332 1.809-1.206 4.523-1.811 6.936-1.206 2.411.3 4.522 1.507 5.729 3.919 1.508 2.111 1.81 4.824 1.206 7.238-.301 2.712-2.11 5.125-4.221 6.633-2.112 1.508-4.523 1.508-6.937 1.206-2.412-.604-4.522-1.81-6.03-4.22zM210.804 59.019l.603-1.206 1.508.301H213.819v-.301c.303-.302.303-.604.604-1.208l3.015-12.362c.303-.604.303-.906 0-1.206-.301-.302-1.206-.604-1.506-.604l-.604-.301.302-1.206 15.981 3.919-1.508 6.935-1.508-.301c.302-3.617-.603-6.03-4.221-6.935-.604 0-1.509-.301-2.111 0-.303 0-.303.603-.604.905l-1.206 5.427c2.412.604 3.317-.3 4.825-2.713l.904.301-2.11 8.745-1.207-.301v-1.81c-.301-1.81-.905-2.412-2.714-3.016h-.302l-1.206 5.73c-.301 1.206-.603 1.507.905 2.11l1.507.302-.603 1.206-9.648-2.411z"/><path fill-rule="evenodd" clip-rule="evenodd" fill="#FFF" stroke="#000" stroke-width=".838" stroke-miterlimit="2.613" d="M348.906 727.824c-7.237-.905-17.792-2.415-17.792-2.415l-.602 7.539s-9.348 6.634-20.505.604c-18.394-9.348-72.367-36.486-93.777-38.896-20.504-2.715-64.227.903-94.681-9.951-21.71-7.539-39.201-23.82-45.833-31.963-10.252-12.967-3.618-17.488-3.618-17.488-18.394-17.49-19.6-41.613-19.6-41.613.301-5.125 3.618-5.125 3.618-5.125-15.077-15.681-12.965-43.422-12.965-43.422.301-4.824 4.523-4.222 4.523-4.222-32.868-35.278-28.948-72.669-28.948-72.669s38.597 38.896 53.372 46.436c18.394 9.951 11.457 16.585 9.046 17.49l-9.046 9.648s4.824 15.982 12.966 25.631c7.539 9.348 3.618 13.266 3.618 13.266l-4.221 3.619s5.428 13.269 10.854 18.998c9.951 10.252 10.554 13.57 8.142 16.282-1.809 2.112-5.427 3.921-5.427 3.921s25.026 29.248 61.514 27.439c24.424-.906 61.813 2.712 86.237 10.854 25.329 8.746 52.769 32.869 72.67 33.772v-6.634s21.71 3.922 30.455 3.922c8.744 0 30.455-3.922 30.455-3.922v6.634c20.203-.903 47.342-25.026 72.669-33.772 24.427-8.142 61.816-11.76 86.24-10.854 36.487 1.809 61.514-27.439 61.514-27.439s-3.618-1.809-5.427-3.921c-2.415-2.712-1.51-6.03 8.139-16.282 5.73-5.729 10.857-18.998 10.857-18.998l-4.224-3.619s-3.919-3.918 3.618-13.266c8.145-9.648 12.969-25.631 12.969-25.631l-9.048-9.648c-2.112-.905-9.346-7.539 9.048-17.49 14.775-7.539 53.369-46.436 53.369-46.436s3.921 37.391-28.645 72.669c0 0 3.92-.603 4.221 4.222 0 0 2.111 27.741-12.964 43.422 0 0 3.315 0 3.618 5.125 0 0-.906 24.123-19.6 41.613 0 0 6.633 4.521-3.621 17.488-6.633 8.143-24.121 24.424-45.832 31.963-30.454 10.854-74.178 7.236-94.68 9.951-21.412 2.41-75.384 29.549-93.477 38.896-11.458 6.03-20.807-.604-20.807-.604l-.603-7.539c.003 0-10.55 2.715-17.789 2.415h0z"/><path fill="none" stroke="#000" stroke-width=".438" stroke-miterlimit="2.613" d="M69.988 528.208c2.411-2.112 5.728.603 8.442 1.205 2.713.604 3.918 1.81 5.124 0m-1.505 45.23c1.506-.604 2.412 2.111 3.315 3.015 3.317 3.015 4.224.905 4.525 0m-5.428 6.634c-3.618-6.634-2.412-9.648-2.412-9.648l-25.933 13.871m37.692 30.454c1.508-1.207 3.015.3 6.031.3 3.618.303 4.824-1.507 4.824-1.81m-6.633 6.034c-4.524-6.033-4.223-4.523-4.223-4.523l-21.71 16.283m246.656 87.444c1.507 1.507 2.713 3.015 6.633 4.824 3.62 1.507 6.03 2.112 5.127 5.427m.602-7.539c-5.729-.3-12.362-2.712-12.362-2.712l-.302-27.139M47.674 540.871l22.314-12.663s-1.81 6.633 2.109 13.568m555.729-13.568c-2.412-2.112-5.73.603-8.442 1.205-2.715.604-3.921 1.81-4.827 0m1.209 45.23c-1.209-.604-2.412 2.111-3.318 3.015-3.317 3.015-4.221.905-4.523 0m5.429 6.634c3.618-6.634 2.412-9.648 2.412-9.648l25.933 13.871m-37.693 30.454c-1.207-1.207-3.016.3-5.73.3-3.918.303-4.824-1.507-5.127-1.81m6.635 6.034c4.521-6.033 4.222-4.523 4.222-4.523l21.711 16.283m-246.658 87.444c-1.203 1.507-2.712 3.015-6.633 4.824-3.618 1.507-6.03 2.112-5.125 5.427m-.603-7.539c5.728-.3 12.36-2.712 12.36-2.712l.303-27.139m271.08-154.687l-22.615-12.663s1.809 6.633-2.109 13.568"/><path fill-rule="evenodd" clip-rule="evenodd" d="M122.755 650.026l2.412 1.206c1.507 1.206 2.713 2.412 3.919 4.222.604 1.809.303 3.92-.603 5.43-2.109 3.314-6.03 2.712-9.349 1.203 2.112 1.809 2.414 4.224 1.509 6.936l-.904 2.112c-.302.603-.302 1.206-.604 2.112v.6c1.208 1.51 3.017-.6 3.62-1.809l1.206 1.209c-.301.6-.603.902-1.206 1.506-1.809 2.111-4.523 1.809-6.633.303-1.508-.906-2.413-1.809-2.715-3.318 0-1.508.302-2.715.904-3.92l.905-1.507c1.507-2.715 2.414-4.524-.3-6.333-.302-.301-.604-.604-1.207-.903l-.602-.603-4.222 6.633c-.302.301-.604.604-.604.903-.301.603-.301.905.302 1.509.302.301.906.604 1.508.906l.603.6-.904 1.51-11.157-7.236.906-1.51c.602.301 1.206.604 1.507.906 1.508.903 1.81.301 2.714-.605l8.443-13.267c.301-.3 1.205-1.81 1.205-2.412-.3-.903-.904-1.206-1.808-1.507l-.906-.605.906-1.506 11.155 7.235zM127.278 679.577l.603-1.809c.905 0 3.016 1.205 3.318 0 .301-.303.301-.904.602-1.207l3.619-16.885v-.603c0-.303 0-.603-.303-.905-.903-.301-1.809-.301-3.014-.604l.603-1.809 22.012 5.127-1.509 8.441-1.808-.303c-.303-5.127-1.509-7.536-6.634-8.744-.905-.301-1.809-.301-2.412-.301-.301 0-.603.301-.603.604l-.904 1.809-1.206 6.033c3.316 1.203 5.125-.605 6.333-3.318l1.506.301-2.412 11.459-1.809-.605c.603-3.012-.604-5.427-3.92-6.029l-1.508 7.236c-.301 1.508-.603 2.111.903 2.414.604.301 1.206.604 1.509.604 5.428 1.205 7.841-.604 10.252-5.127l1.507.603-2.111 8.442-22.614-4.824zM155.321 684.704l.302-1.809c.603 0 1.206.3 1.809.3 1.508 0 1.81-.903 1.81-2.109l.904-17.79-.302-.303c0-.301-.3-.301-.3-.301-.906-.303-2.112-.303-3.017-.303v-1.809l13.871.603c.603 0 1.206 0 1.506.303 2.414 0 4.223.3 6.032 1.81 1.809 1.506 2.412 3.314 2.412 5.427-.301 6.03-6.935 6.634-11.458 6.333l-3.619-.303-.302 6.936c0 .301 0 .904.302 1.207 0 .3.301.3.301.3.303.303.303.303.604.303h2.412v1.81l-13.267-.605zM182.157 661.786l12.665.906v1.506c-.905 0-2.412-.303-3.016.604-.603.303-.603.906-.603 1.509l-.604 11.155c-.301 1.205-.301 3.018 0 4.523.604 1.206 1.206 1.509 2.412 2.111.905.604 1.81.604 3.016.904a8.196 8.196 0 005.127-1.81c1.206-1.507 1.206-3.618 1.206-5.427l.602-8.443c0-1.809.302-3.617-1.508-4.221-.602-.303-1.206-.303-1.809-.303v-2.109l9.649.604v2.109c-3.316-.301-3.92 1.508-4.223 4.221l-.301 9.65c-.3.904-.3 1.81-.905 3.016-.603 2.109-2.109 3.618-4.221 4.521-1.508.604-3.618.604-5.729.604-2.111-.301-5.127-.604-6.936-2.412-2.11-1.507-2.714-3.919-2.411-6.334l.602-13.566c.301-.604 0-.906-.301-1.209-.604-.3-2.412-.3-3.016-.3l.304-1.809zM208.089 686.813l.303-1.809c.603 0 3.015.905 3.316-.301.302-.303.302-.303.302-.906l3.015-16.885c0-.303.302-.603 0-.905v-.3c-.301-.303-.301-.303-.603-.303-.604-.301-1.508-.604-2.412-.604l.301-1.809 14.171 2.412c2.111.303 4.825 1.205 6.333 3.018.904 1.203 1.507 2.712 1.206 4.219-.905 3.92-4.524 4.223-7.84 4.223 3.315 1.207 7.538 3.619 6.935 7.84-.603 1.809-1.507 3.318-3.317 4.221-1.509.904-3.015.904-4.824.904-.603-.301-1.206-.301-1.507-.602-1.206 0-2.414-.303-3.62-.303l-11.759-2.11zM232.514 691.94l.603-1.509c.905.303 1.809.603 2.715.905.602.303.903-.603 1.205-1.205l6.332-14.775c.906-2.715 1.207-2.715-1.205-3.919l-1.206-.303.903-1.509 12.062 5.127-.603 1.506-1.809-.902c-1.507-.301-1.809 0-2.412 1.205l-6.333 15.379c-.3 1.206-.602 1.809.603 2.715l1.811.903c4.824 1.81 7.839 0 10.553-3.618l1.509.604-3.921 8.139-20.807-8.743zM255.128 701.59l.603-1.508 1.811.902c1.507.303 1.808-.303 2.412-1.506l6.633-15.078c.302-.301.302-.604.604-.903 0-.303.301-.603-.302-.905-.603-.301-.904-.604-1.508-.904l-.904-.603.603-1.509 12.062 5.428-.906 1.809-.903-.604c-.604-.3-1.509-.902-2.111-.3-.302 0-.302.3-.604.3-.3.303-.3.604-.603.906l-6.935 15.379c-.301.603-.603 1.205 0 1.506 0 .303.301.303.301.303.302.301.905.604 1.508.903l.603.303-.905 1.507-11.459-5.426zM298.249 694.655l1.206.601-3.92 8.744-1.508-.301c.602-3.92.602-9.045-3.316-10.854-1.811-.906-3.318-.906-5.127 0-1.508.902-2.412 2.109-3.618 3.617-.604.904-1.206 2.412-1.81 3.619-.905 1.508-1.507 3.314-1.809 4.824-.302 1.809-.302 3.015.301 4.521.602 1.508 1.507 2.412 3.015 3.018 3.92 1.809 7.538 0 9.95-3.318l1.509 1.206c-3.62 5.127-7.841 6.03-13.569 3.317-3.318-1.508-5.428-3.62-6.333-6.936-1.206-3.016-.604-6.333.603-9.348 1.81-3.016 4.223-5.729 7.539-6.937 3.016-1.204 6.332-.903 9.349.603 2.109.906 3.316 1.813 4.824 3.922v.603l2.714-.901zM414.34 713.651l-.903-1.508c.903-.303 1.81-.904 2.412-1.207.903-.603.3-1.508 0-1.809l-6.333-14.775c-.903-2.713-.903-2.713-3.315-1.809l-.905.303-.604-1.51 12.061-5.127.604 1.51-1.81.902c-1.206.605-1.206 1.207-.603 2.412l6.332 15.078c.604 1.207.604 2.112 2.412 1.507.604-.3 1.207-.3 1.81-.603 4.524-2.109 5.427-5.426 4.524-9.951l1.809-.904 3.016 8.746-20.507 8.745zM436.955 703.7l-.904-1.508 2.109-.904c1.207-.905.604-1.508.303-2.715l-6.633-14.775c0-.603-.303-.902-.303-1.205-.301-.301-.604-.301-1.206-.301s-.903.301-1.509.604l-.903.3-.905-1.507 12.063-5.43.903 1.813-1.206.3c-.604.3-1.506.603-1.809 1.206v.604c0 .303.303.905.303 1.205l6.934 15.379c.303.604.605 1.206 1.205 1.206l.303-.3c.604 0 1.207-.303 1.507-.605l.905-.301.604 1.809-11.761 5.125zM449.921 697.67l-.603-1.51c.603-.3 3.015-.905 3.015-1.809 0-.604 0-.604-.303-1.206L446 676.864c0-.303-.301-.605-.301-.605l-.303-.3h-.6c-.906 0-1.81.3-2.715.603l-.604-1.506 13.569-5.127c2.109-.604 4.824-1.206 6.934-.604 1.509.604 2.715 1.81 3.317 3.016 1.507 3.918-1.809 6.33-4.523 7.84 3.318-.604 8.143-.904 9.648 3.317.605 1.507.605 3.618-.601 5.124-.905 1.51-2.412 2.412-3.921 3.018-.303.301-.903.602-1.509.602-1.206.605-2.109.905-3.315 1.508l-11.155 3.92zM473.441 688.924l-.303-1.508c.906-.301 3.016-.301 3.318-1.507 0-.603 0-.905-.303-1.206l-2.412-17.188v-.604c-.301-.303-.301-.303-.904-.303-.905-.3-1.809 0-2.715 0l-.3-1.506 22.312-3.318 1.81 8.443-1.81.303c-2.111-4.524-4.221-6.637-9.348-5.73-.903.303-1.809.303-2.412.906-.301 0-.601.3-.601.603v1.81l.903 6.33c3.618-.301 4.824-2.412 4.824-5.428l1.509-.6 1.81 11.758-1.51.303c-.603-3.318-3.015-5.127-6.029-4.524l.902 7.539c.303 1.206.303 2.109 1.81 1.81h2.112c5.127-.906 6.633-3.318 7.236-8.443h1.809l.906 8.743-22.614 3.317zM510.529 660.883h2.412c2.111-.303 3.92 0 5.729.902 1.509.906 2.412 3.016 2.412 4.524.303 4.222-3.315 6.03-6.937 6.331 3.016.605 4.524 2.111 5.43 5.127l.604 1.809c0 .906.301 1.509.604 2.412l.3.303c1.81.604 1.81-2.111 1.81-3.318h1.809v1.81c-.604 3.015-3.016 4.222-5.428 4.222-1.809.303-3.015-.301-3.92-1.207-1.207-.902-1.507-2.109-1.507-3.617l-.303-1.81c-.3-3.015-.603-4.824-3.919-4.824h-2.412l.301 7.539v1.206c.303.604.605.903 1.206.903h2.715v1.81l-13.267.303v-1.51c.601 0 1.206 0 1.807-.3 1.509 0 1.509-.603 1.509-1.81l-.603-15.681c0-.603 0-2.412-.303-2.712-.604-.604-1.507-.303-2.109-.303h-1.207v-1.81l13.267-.299zM525.607 684.704v-1.809h2.412c1.205 0 1.205-.906 1.205-2.412l-.303-16.285v-.902c-.3-.604-.3-.906-.603-.906-.603-.303-1.509 0-2.109 0h-.905v-1.809l12.966-.303v1.809h-.905c-.604 0-1.507 0-2.412.303v.604c-.301.603-.301.902-.301 1.205l.604 16.888c0 .603 0 1.507.603 1.507h.603c.301.303.904.303 1.51.303h.902v1.506l-13.267.301zM549.428 657.868l2.412-.605 12.363 18.394c1.206 1.81 1.809 2.112 3.918 1.81l.303 1.811-11.457 2.412-.605-1.809c.906-.303 2.111-.303 2.414-.906.301-.603 0-.902-.303-1.508l-2.412-3.316-8.441 1.507c0 1.208-.303 2.415-.303 3.62.603 1.81 2.412 1.81 3.92 1.507l.301 1.81-9.346 1.809-.303-1.506c2.412-.906 3.016-3.922 3.618-6.334l3.921-18.696zM334.433 716.364c-1.809-2.109-2.714-4.523-2.714-6.936.302-2.713 1.205-5.125 3.317-6.934 1.809-1.813 4.523-2.715 6.935-2.715 2.713.303 5.127 1.205 6.936 3.317 1.809 1.81 2.714 4.521 2.714 6.934-.303 2.715-1.509 5.43-3.316 6.937-2.412 1.809-4.524 2.715-7.238 2.412-2.714 0-5.127-1.207-6.634-3.015zM353.732 719.379v-1.507l1.508-.303h.904v-.3c.3 0 .3 0 .3-.303v-1.207l-.903-12.663c0-.603 0-1.206-.604-1.507H352.826v-1.208l16.887-.903.604 6.633h-1.206c-.905-3.317-2.715-5.127-6.634-4.824-.603 0-1.508 0-2.111.303-.301.301 0 .904 0 1.507l.303 5.127c2.713 0 3.315-1.208 3.918-3.62l1.207-.301.603 9.045h-1.507c0-.603 0-1.205-.303-1.809-1.205-1.509-2.109-2.111-3.617-1.809h-.301l.301 5.729c0 1.507 0 1.81 1.508 1.81h1.81v1.203l-10.556.907z"/><path fill-rule="evenodd" clip-rule="evenodd" fill="#FFF" d="M132.104 54.195c.603 1.507 1.809 3.316 2.714 4.522 1.206 1.206 2.713 1.508 4.221.904 2.412-1.206 1.81-3.919 1.206-6.031 0-.904-.303-1.809-.904-2.411-.904-2.715-3.316-7.237-6.332-5.729-3.619 1.507-2.113 6.03-.905 8.745zM198.44 46.957c-.302 1.507-.604 3.919-.302 5.428.302 1.507 1.206 2.713 3.017 3.014 2.412.604 3.617-2.411 4.522-4.22.302-.905.302-1.809.602-2.715.604-2.713 1.208-7.538-2.412-8.442-3.618-.603-5.125 4.222-5.427 6.935zM310.612 25.246c1.507-.3 3.617 0 4.824-.903 1.507-.906 1.809-2.412 1.809-4.223 0-1.206-.603-2.411-1.509-3.015-.903-.602-1.808-.905-3.015-.602-.602 0-2.109 0-2.412.905-.301.603 0 1.205 0 1.809l.303 6.029zM310.912 27.961l.302 7.235c0 .603 0 1.207.301 1.508.303.303 1.507.303 1.81.303 1.508-.303 3.016-.303 4.222-1.208s1.506-2.412 1.506-3.618c-.3-1.507-.903-2.713-2.109-3.919-.905-.604-2.412-.604-3.618-.604l-2.414.303zM370.92 24.041h2.712c3.018.302 4.827-.604 5.127-4.221 0-2.715-1.206-3.921-4.222-4.222-.905 0-1.506 0-2.111.301-.903.301-.903 1.206-.903 1.81l-.603 6.332zM468.314 54.195c.906-.303 1.809-.303 2.412-1.206.604-.604.604-1.81.303-3.317 0-.604-.605-1.509-1.206-1.809-.303-.604-.905-.303-1.81-.303-.303 0-.905.303-.905.603 0 .604 0 1.208.303 1.509l.903 4.523zM468.615 56.305l1.508 5.126c0 .301 0 .904.301.904.303.302.605.302.906.302.603-.302 1.809-.604 2.111-1.206.301-.905.301-1.81 0-3.016-.303-.904-.906-1.81-1.509-2.412-.603-.301-1.509-.301-1.81 0l-1.507.302zM482.184 50.577c.604 0 .906 0 1.209-.303 1.506-.602 2.412-1.507 1.807-3.92-.601-2.11-1.506-2.714-3.016-2.412-.3 0-.6.302-.902.603-.604.301-.303.905 0 1.206l.902 4.826zM495.756 49.068c.301 1.509.903 3.618 1.506 4.824.906 1.507 2.112 2.111 3.016 2.111 2.109-.604 1.809-3.317 1.506-5.427 0-1.206 0-2.112-.3-2.714-.603-3.017-1.81-7.54-4.222-7.237-2.715.603-2.112 5.729-1.506 8.443zM632.65 83.744c.303.604.906.604 1.206.604 1.509.602 2.715 0 3.618-2.413.604-2.112.303-3.015-1.206-3.619-.603 0-.903-.302-1.206-.302-.301.302-.604.906-.903 1.207l-1.509 4.523zM114.312 656.961c.604.604 1.509.906 2.112 1.207 2.712 1.508 4.522 1.809 6.332-.906 1.81-2.713.905-4.221-1.507-5.728-.604-.303-1.208-.905-2.112-.905-.603 0-.903.603-1.205.905l-3.62 5.427zM165.875 672.641h1.809c3.618.303 5.426-.604 5.729-4.521 0-3.318-.904-4.524-4.522-4.824-.604 0-1.508 0-2.112.3-.602.3-.602 1.206-.602 1.509l-.302 7.536zM220.15 675.055c1.508.301 3.318.601 4.522.301 1.81-.604 2.715-1.81 3.017-3.619 0-.905 0-2.412-.904-3.314-.604-.605-1.508-.906-2.714-1.209-.603 0-2.112-.301-2.413.303-.302.301-.302 1.206-.604 1.809l-.904 5.729zM219.547 677.768l-1.206 6.633v1.509c.301.603 1.206.603 1.507.903 1.508 0 3.016.303 4.223-.301 1.508-.603 2.11-2.111 2.411-3.317 0-1.206 0-2.712-.903-3.618-.906-.906-2.412-1.206-3.317-1.506l-2.715-.303zM337.446 709.731c-.3 1.508 0 3.617.604 5.127.603 1.506 1.809 2.412 3.618 2.412 3.015.3 3.318-2.715 3.921-4.824.302-.906.302-1.813.302-2.715 0-2.715 0-7.84-3.921-7.84-3.919-.301-4.524 4.824-4.524 7.84zM454.445 681.688c1.205-.905 3.314-1.205 4.221-2.412 1.206-1.205 1.206-2.715.604-4.221-.303-.906-1.207-2.414-2.112-2.715-.903-.303-2.109 0-3.015.301-.604.303-2.112.905-2.112 1.508 0 .604.303 1.507.303 2.109l2.111 5.43zM455.348 683.797l2.412 6.937c0 .3.303.905.604 1.206.604 0 1.206-.301 1.509-.301 1.507-.303 3.015-.905 3.919-2.412.603-.905.603-2.414 0-3.62-.301-1.206-1.204-2.412-2.412-3.015-1.207-.301-2.713 0-3.619.603l-2.413.602zM507.514 671.134h2.412c3.016-.303 4.523-1.206 4.523-4.524-.303-3.015-1.809-3.918-4.523-3.617-.604 0-1.506 0-2.109.303-.604.3-.604.902-.604 1.809l.301 6.029zM554.855 672.038l-4.524-6.934-1.507 8.143 6.031-1.209z"/></svg>