<svg xmlns="http://www.w3.org/2000/svg" height="599.75" width="528.23" viewBox="-5 -5 528.228 599.75"><path d="M-5-5v350.26c0 137.57 118.48 249.49 264.12 249.49 145.63 0 264.11-111.92 264.11-249.49V-5H-5z"/><path fill="#ed1c24" d="M1.875 1.875v343.38c0 133.63 115.55 242.61 257.24 242.61 141.68 0 257.24-108.99 257.24-242.61V1.875H1.875z"/><path fill="#fff" d="M477.82 378.74c34.94-6.091 23.323-45.122 30.361-52.964-2.843-1.732-5.735-.944-7.758 1.438-1.745-18.91-20.448-32.572-26.979-48.858-1.796 1.238-3.232 3.919-4.615 6.811-14.673-18.07-16.238-36.139-11.179-54.202-15.171 3.041-22.242 20.472-22.604 49.827-5.128-7.161-5.677-16.613-5.839-26.251-6.906 12.405-12.559 24.897-2.915 42.287 6.957 9.947 15.149 18.646 26.012 29.412 3.586 3.952 12.408 10.441 4.857 15.248-9.704 3.116-17.404 1.271-25.033-2.604-15.497-9.371-28.949-20.496-41.563-32.326-9.668-7.137-20.219-11.646-31.114-15.075 4.274-7.164 9.389-14.441.248-19.93-2.998-.971-6.003-1.943-8.996-2.917v-13.37c11.219 8.268 23.178 15.509 36.459 20.901 37.127-39.382 43.257-89.629 13.125-141.7-7.212 1.214-14.424 2.432-21.633 3.644-3.322-5.604-10.615-6.879-18.476-7.532.965-1.361 1.412-3.467.731-5.232-20.37 2.822-3.474-14.394-.42-18.532 5.587-7.565 5.112-13.445 1.323-20.098-4.535-7.539-10.041-14.406-16.222-20.307-8.25.354-16.221 3.244-24.063 7.296l-4.613-3.161c-5.59 6.723-11.8 14.529-17.391 21.255 1.703.483 4.021-.108 6.496-.084-.688 3.46-2.987 6.813-4.905 9.455-.621 1.421-.218 2.636 1.214 3.646-1.518 1.574-1.604 3.358-.243 5.345.255 2.144-.623 5.728-2.012 8.284-1.4-.345-3.216-.141-4.573.939-1.745 1.391-2.753 4.237-1.189 9.248l-1.461.73c-9.281-6.074-18.26-11.845-26.312-17.92 1.134-.649 2.573-1.604 3.709-2.252-2.836-1.619-5.515-3.855-8.351-5.48-.813-3.401-1.933-6.804-2.741-10.208-1.052.566-1.952 1.754-3.001 2.321l-5.374-10.697 4.153-4.618c-7.152-2.495-8.198-9.488-7.536-17.744 51.854-.726 103.7-1.458 155.56-2.186 13.146-.786 25.288-2.799 32.569-10.696-7.526-7.389-19.427-10.4-34.029-10.697-51.446-.321-102.9-.645-154.34-.968-.354-7.869-.456-16.508 7.911-18.961l-9.123-8.745c-7.73 3.443-11.074 14.67-13.437 25.957-3.806-1.946-7.308-4.816-11.113-6.759-2.123-.346-2.6 2.045-3.401 3.89-10.313-.507-15.155 4.276-18.475 9.941l-25.276.026-.354-8.111c-18.619 1.396-17.824 27.36-.135 28.042l.423-7.471 25.099-.063c1.227 4.45 4.159 8.913 8.265 13.365-3.125 6.905-6.504 13.684-10.451 20.173 9.716 1.22 20.4 1.475 31.354 1.457 1.76 4.208 3.728 8.511 7.137 13.125-.891.324-1.628.65-2.519.972 2.618 5.092 4.786 10.37 5.344 16.286l12.819 9.236 2.096-.947c6.31 8.957 13.648 17.94 23.247 25.255 4.043 20.476 13.324 42.18 16.283 60.802-9.561 2.273-19.119 2.813-28.681 3.852.243-8.918-1.958-17.108-5.832-24.793 2.32-.12 3.865-.857 5.104-2.672-7.015-5.843-4.471-13.226-9.477-17.989.887-.973 1.781-1.938 2.668-2.915-5.484-3.838-4.498-12.916-10.447-17.986-13.74-23.144-26.71-29.885-39.619-35.244l-.243-2.915c-5.104-1.751-10.208-2.647-15.312-3.164l-.246-3.157c-7.938-2.909-15.878-3.383-23.819-2.187-5.602-10.184-19.681-8.187-26.979-14.826-7.497 1.683-2.174 6.688 1.232 10.05-2.918-.57-7.53-2.522-9.983-3.245-1.886 3.115.546 6.438 7.29 9.965l-12.879 7.292c.272 2.649 3.085 4.738 7.05 6.561-4.777 5.429-9.56 10.858-14.34 16.286-5.59 6.483-11.18 12.96-16.769 19.443l-6.564 7.29c-2.756 3.487-5.505 6.972-8.264 10.451-2.681 3.892-1.688 7.778.975 11.668-.51 5.19-1.883 10.24 3.158 16.289 2.818 1.732 5.766 2.054 8.996-.731.647-2.351 1.292-4.699 1.94-7.047 2.756-2.271 5.512-4.537 8.268-6.808 1.542 2.108 3.08 4.217 4.618 6.318-1.379 1.458-2.756 2.918-4.135 4.375l2.189 4.375-2.672 2.189c-1.266 6.284 3.125 5.648 6.558 4.132 9.761-.819 16.943-5.102 18.478-17.016 3.083 2.43 4.891 5.491 3.887 9.965l-7.779 15.555c-4.525.342-7.188 3.939-7.581 7.656-.387 3.712 1.491 7.554 6.042 8.365 2.966.528 6.342-.804 8.588-4.354 1.521-2.711 1.602-5.628.24-8.75 5.431 1.542 10.858 3.08 16.286 4.618l-4.618 8.507c-6.633.441-12.433 4.219-17.012 12.883-3.242 4.939-6.483 9.884-9.722 14.826-4.495-4.426-10.006-7.527-16.388-9.779-3.812-1.341-6.415-1.964-8.595-1.984-3.185-.036-5.466 1.189-9.29 3.257L35.945 286.62c-2.855 2.582-5.353 5.347-6.564 8.749-5.431 13.533-10.855 27.063-16.283 40.595a4453.03 4453.03 0 012.183 8.021c4.135-1.137 8.268-2.267 12.397-3.403-1.967 5.083-3.131 9.381-3.686 13.734-.689 5.38-.447 10.84.348 17.959.971 8.667 1.544 17.324 2.609 25.909 1.784 2.023 3.565 4.052 5.35 6.078l27.705-31.357c-1.811-2.233-3.7-4.023-5.722-5.542-2.606-1.952-5.434-3.457-8.618-4.908-1.439-6.211.84-10.664 4.396-10.916 2.138-.154 4.738 1.203 7.272 4.599 5.011-4.469 5.869-10.644 3.889-17.983 5.275-7.842 10.981-15.468 17.228-22.813 3.886-4.576 6.003-7.519 12.396-8.02 7.056-.555 10.475 3.684 13.561 9.254 2.474 4.459 4.111 9.422 4.696 15.013 8.912 11.506 17.828 23.012 26.74 34.516 1.544 2.099 3.607 3.682 6.804 4.132 2.996.279 5.994.3 8.99-.243 3.427-1.421 5.847-3.502 6.807-6.561 7.128 2.507 14.262 5.02 21.387 7.532l3.403 1.702-1.94 4.858c-4.243.012-7.713 1.691-9.485 7.053-17.654 1.203-33.139 9.086-45.446 26.733 2.51 1.865 5.023 3.728 7.533 5.593 4.744-7.014 10.622-9.215 17.015-9.239.078 1.545.159 3.083.24 4.621 10.373.97 20.742 1.94 31.115 2.918.482-1.379.968-2.756 1.457-4.135 3.485.972 7.122 2.252 10.606 3.229.969-1.787 1.791-3.878 2.762-5.659a82773.57 82773.57 0 0125.033 8.751c-4.78 3.56-10.64 7.59-15.422 11.151 7.377-.32 15.83-1.108 23.201-1.434 5.104 6.888 10.21 13.776 15.314 20.661l-3.164-25.762 17.743-10.939c-7.047-.243-14.097-.177-21.144-.423-4.051-5.668-8.1-11.647-12.154-17.317.162 5.344.327 10.69.486 16.04-8.828-3.002-17.663-5.995-26.491-8.996 3.179-6.841 8.99-11.833 16.283-15.795 16.349 4.75 33.457 7.212 51.042 8.263l.975 49.826c-.186 14.628 2.714 28.358 12.396 40.104 7.916-10.058 10.824-23.807 10.934-39.619-.239-16.85-.482-33.702-.729-50.556 2.642.065 5.34.446 6.336 2.401a66.287 66.287 0 001.781 3.289c2.746 4.806 2.041 4.78 7.221 3.575a80.14 80.14 0 0114.756-1.974c.298 7.568 2.147 13.765 5.666 18.69 3.521 4.931 8.714 8.595 15.707 11.116 9.49 4.976 17.188 10.327 23.402 16.127 3.307 7.206 5.361 14.502 2.911 22.119-5.2 9.283-10.256 18.525-16.067 27.63-2.881 4.52-4.51 7.267-9.037 10.007-15.899 9.617-33.526 20.764-41.49 37.955-.327 2.678-.646 5.351-.969 8.021l18.472-.486v5.59c13.854.078 27.705.162 41.56.24.075-4.369.162-8.744.24-13.123 4.104-10.346 10.266-11.236 18.469-2.672 4.444-4.924 7.209-10.843 7.543-18.231 12.233-19.359 24.467-38.729 36.697-58.089 2.171-2.852 3.49-5.725 3.845-8.621.611-4.885-.894-8.103-3.476-10.45-3.771-3.431-9.83-4.998-14.949-7.183-5.305-3.157-9.189-7.479-9.968-14.337 1.722-13.8 15.504-25.6 22.365-39.865 2.063-10.86 2.484-20.315 1.874-30.979 1.341.582 3.134 1.373 3.748 2.87 10.198 24.738 48.544 50.21 70.761 23.099-7.701 2.426-14.901 2.34-20.968-.575zM162.41 212.38c-5.371-1.634-10.742-3.274-16.115-4.909 1.151-7.212.132-13.657-5.677-18.412 2.099-2.198 4.198-4.398 6.292-6.6 7.341.209 14.397-.714 21.333-2.145 2.123 12.188-.186 22.743-5.833 32.066zm112.72 30.886c-2.525-4.447-7.211-6.837-12.504-8.647.236-1.697.475-3.39.711-5.086l30.632-3.23c-4.63 6.989-11.152 12.45-18.839 16.963z"/><path fill="#00adef" d="M319.64 155.02l77.865-15.537c23.09 33.961 26.596 91.12-11.342 131.55-45.607-18.46-71.948-61.27-66.523-116.02M381.01 343.74c.305-16.51.799-34.175-6.097-45.315-3.34-1.251-5.578-2.815-8.909-4.066 7.11 12.907 7.184 29.265 6.576 45.209a295.2 295.2 0 00-27.391-11.383c.937-7.183.451-16.067-1.897-21.828 7.179-5.248 13.967-11.908 19.556-20.423 2.838-5.863 3.311-11.3-4.656-15.204-5.07-2.669-10.137-2.854-15.203-3.185-3.543 9.386-13.494 13.536-27.826 14.097-5.77 4.782-11.529 9.563-17.293 14.345.171 9.807.33 19.615.492 29.424 1.562-.375 3.262-.791 5.084-1.269 10.965 3.155 23.014 6.802 32.457 10.115-1.142 13.775-2.963 29.155 9.315 45.913 2.657-.057 5.312-.104 7.972-.159l.471-6.721c-9.188-9.128-9.671-22.85-9.026-35.87 9.984 3.733 19.171 7.593 27.554 11.588-.789 19.604-.672 37.334 12.886 45.541l5.002-1.877c-.054-2.189-.104-4.377-.156-6.564-9.062-3.844-9.778-17.206-9.284-32.89 18.067 9.431 31.831 19.552 41.17 30.392.779-4.118 1.56-8.238 2.343-12.349-12.31-9.595-26.671-19.022-43.14-27.521zm-62.64-24.25c5.143-1.916 10.579-4.317 15.982-7.377 1.178 4.154 2.066 9.44 2.045 13.063-4.875-1.584-12.098-3.975-18.027-5.686zM255.52 331.21c.351 3.812-.294 7.623-2.393 11.435-1.137-.459-2.27-.921-3.407-1.383-1.469 7.274-4.567 13.936-8.006 20.473 5.677.061 11.35.123 17.027.187 1.043-6.153 3.928-9.843 8.65-11.068l-.186-27.759c-2.726 4.009-6.754 6.56-11.685 8.115M117.31 272.22c-1.308 2.39-2.612 4.783-3.919 7.176 2.972 3.245 5.947 6.492 8.918 9.743 31.154-12.757 67.124-16.286 106.73-12.862l1.754 8.396-51.89 85.56c1.847.944 3.164 1.894 5.011 2.843 12.97-17.238 25.939-34.477 38.909-51.713l.54-10.019c3.563-5.023 9.233-8.628 17.024-10.832 9.851-16.832 21.015-32.722 35.802-46.03-.188-17.836-9.726-20.811-21.885-19.629-12.931 3.631-19.57 13.065-23.345 25.142-39.269-2.852-77.197 1.004-113.65 12.225M138.68 204.48c-2.627 4.853-5.254 9.71-7.878 14.565 48.087 15.002 105.51 16.349 171.43 5.25 12.084-2.822 5.648-10.976-.951-9.788-62.934 11.851-116.87 8.043-162.6-10.027M101.5 158.64c-1.982 2.147-3.958 4.3-5.94 6.451 8.618 3.589 15.812 8.896 22.028 15.371 4.423-5.571 9.392-6.187 14.055-.223 10.151-9.839 19.846-19.943 29.99-29.779 1.487 0 2.612.355 4.096.355 4.096 6.333 7.527 13.53 7.785 23.472 2.519-.941 5.161-1.79 7.92-2.007-.108-12.844-4.058-21.401-10.643-27.03.165-1.49.333-2.976.495-4.462 7.362-5.023 10.739-12.47 11.383-21.576-2.612-1.745-5.578-2.405-8.906-1.985-.465 7.065-3.589 13.722-10.531 18.622-6.313-6.585-13.317-12.334-21.549-16.751-5.494 1.484-7.617 2.87-9.743 5.074 8.271 3.835 16.466 8.941 24.5 16.861-.165 1.323-.419 2.103-.587 3.426-10.31 9.839-21.249 20.844-31.565 30.686-7.95-7.011-15.079-13.104-22.788-16.505"/><path fill="#fdb913" d="M173.09 388.95c-5.82 8.353-13.881 13.963-22.67 18.681l.801 4.168 30.713 3.206 1.28-3.687c-2.456-2.966-4.108-6.065-4.003-9.461l43.035 15.869-14.88 10.585 22.557-1.124 15.518 21.162-3.2-25.812 17.756-11.703-21.594.32-11.839-17.475.318 15.074c-15.995-5.188-31.993-10.369-47.988-15.552.141-.647.333-.387.962-.387 4.237 0 7.677-3.29 7.677-7.338 0-4.055-3.439-7.345-7.677-7.345-4.243 0-7.677 3.29-7.677 7.345 0 1.256.326 2.441.911 3.474M396.68 219.63l-12.514 2.692 3.1 13.813c.855 3.458 1.908 4.525 4.506 6.031l-21.573 4.779c1.916-2.933 2.21-4.944 1.625-7.212l-3.043-14.328-16.216 3.389c-2.991 1.085-3.696 1.402-5.629 4.087l-4.064-19.744c1.646 1.182 2.921 1.385 6.078 1.106l16.751-3.329-3.949-17.854-15.717 3.188c-2.33.565-4.249 1.589-5.888 4.348l-4.316-19.666c2.336 1.317 4.53 1.662 7.059 1.17l16.064-3.248-2.518-12.756c-.875-2.333-1.819-3.568-4.312-5.368l20.274-4.201c-1.814 2.213-1.225 4.876-.818 6.883l2.53 12.103 12.586-2.813c3.677-.752 5.266-1.831 7.269-4.678l4.441 20.479c-2.52-2.045-4.508-1.628-7.281-1.389l-13.768 2.828 3.521 17.285 14.145-2.854c2.424-.508 4.283-1.048 5.759-3.917l4.381 19.891c-3.011-2.124-6.237-1.135-8.483-.715M131.45 219.88a7.587 7.587 0 017.59 7.593 7.587 7.587 0 01-7.59 7.587 7.59 7.59 0 010-15.18M129.26 188.67c5.632 3.059 10.379 7.005 10.139 15.954l7.365 3.059c.417-12.556-4.531-20.568-14.844-24.041.021-.207.03-.417.03-.633 0-4.027-3.269-7.296-7.296-7.296s-7.296 3.269-7.296 7.296a7.3 7.3 0 0011.902 5.661M163.69 135.89a7.3 7.3 0 017.299 7.296c0 4.027-3.271 7.293-7.299 7.293s-7.296-3.266-7.296-7.293a7.298 7.298 0 017.296-7.296M245.68 89.656c-16.475-8.007-17.815-69.74.189-79.864l8.588 9.19c-1.988 1.305-6.801 2.601-7.038 8.262l-.744 43.709c.18 4.933 6.255 8.162 8.63 9.221l-9.625 9.482zM173.89 63.048c-19.936-1.781-17.804-26.056-.378-26.242l.102 7.083 34.302.243c2.474 2.576 4.171 8.601 4.129 11.646l-38.264-.2.109 7.47zM340.21 324.68a7.503 7.503 0 010 15.006 7.503 7.503 0 010-15.006M376.47 338.74c4.144 0 7.498 3.358 7.498 7.5s-3.354 7.51-7.498 7.51a7.517 7.517 0 01-7.51-7.51c0-4.14 3.371-7.5 7.51-7.5M267.22 273.36h23.303c.07 2.792.147 5.581.221 8.369-9.811.055-10.227 11.53-.111 12.448-.07 2.495-.144 4.996-.216 7.494-7.806.146-15.61.291-23.414.438-.067-2.387-.146-4.772-.219-7.158 11.536-1.223 11.914-12.737.326-12.888.035-2.901.069-5.804.11-8.703M122.5 288.47c1.742 2.255 3.479 4.513 5.218 6.771 26.173-7.646 51.947-15.496 103.71-10.063-.705-2.903-1.416-5.806-2.123-8.708-32.135-3.692-73.064.014-106.81 12"/><path d="M386.19 272.48c39.558-41.406 33.258-101.41 11.088-132.84-24.801 4.99-53.133 10.595-77.93 15.59-5.412 28.014 4.235 92.903 66.842 117.25zm-66.35-116.42c24.125-4.759 53.021-10.549 77.148-15.313 26.357 38.572 21.985 96.321-11.228 130.48-50.665-20.393-71.347-70.685-65.92-115.16zm73.586 87.128c-3.58-2.039-5.293-4.597-5.797-7.494l-2.668-12.318 11.755-2.333c3.163-.747 6.435-.114 9.41 1.492-1.567-7.68-3.351-15.47-4.915-23.149-1.632 2.072-3.755 4.261-6.834 5.062-4.088 1.068-8.682 1.754-12.82 2.579l-3.354-15.794 13.323-2.668c2.769-.453 5.565.74 7.961 2.405-1.709-8.021-3.531-16.262-5.244-24.278-1.541 2.937-3.725 5.035-7.322 5.81-3.982.86-8.22 1.741-12.23 2.462-.783-3.703-1.603-7.555-2.395-11.257-.604-2.816-.184-5.387 1.303-7.681l-22.807 4.951c2.339 1.854 4.456 3.958 4.954 6.756.661 3.6 1.364 7.239 1.896 10.858l-14.205 2.828c-3.476.8-6.705-.354-9.113-1.848 1.625 7.788 3.686 16.344 5.312 24.13 1.396-3.059 3.644-5.599 7.08-6.096 4.685-.681 9.692-1.981 14.34-2.87l3.577 15.983-13.662 2.888c-3.958.843-7.419-.411-9.701-1.556 1.523 7.232 3.478 16.004 4.996 23.243 1.949-2.168 4.301-4.805 7.562-5.468l14.25-3.037 2.543 12.657c.704 3.49-.108 6.459-2.091 9.329 8.299-1.861 16.596-3.724 24.896-5.586zm-23.966-17.947c-5.603 1.064-11.224 2.036-16.806 3.194-2.051.426-4.074 1.703-5.389 3.083-1.221-5.248-2.222-11.2-3.441-16.451 1.85.682 3.912 1.026 6.029.621 5.621-1.076 11.207-2.314 16.812-3.472-1.454-6.615-2.905-13.23-4.356-19.846-5.787 1.298-11.621 2.398-17.356 3.897-1.757.458-3.487 1.751-4.453 3.134-1.188-5.196-2.384-11.204-3.571-16.402 1.428.561 3.106 1.157 4.951.792 5.932-1.179 11.827-2.495 17.74-3.742-.905-4.433-1.809-8.864-2.717-13.299a14.488 14.488 0 00-3.323-5.083c5.526-1.169 11.746-2.447 17.272-3.616-.627 1.967-.783 4.084-.41 6.048.978 4.342 1.951 8.684 2.918 13.026 4.494-.912 8.992-1.823 13.476-2.735 2.479-.5 4.922-1.889 6.483-3.919 1.373 5.5 2.43 11.368 3.803 16.868-1.583-.774-3.292-.792-5.02-.702-5.332 1.104-10.664 2.21-15.996 3.313 1.355 6.33 2.701 12.661 4.052 18.994l14.28-2.965c2.27-.663 4.594-1.659 6.002-3.035 1.197 5.484 2.229 11.08 3.422 16.564-1.912-.537-4.057-.64-6.11-.314-4.918 1.028-9.83 2.058-14.744 3.083.968 4.564 1.853 9.146 2.914 13.687.527 2.264 1.604 4.521 3.668 6.336-5.914 1.389-12.146 2.726-18.063 4.114 1.246-2.33 1.451-4.67 1.014-6.979-.915-4.757-2.053-9.465-3.081-14.194zm132.36 137.67c2.947-6.045 3.632-12.996 4.104-19.636.437-6.012.559-12.103 3.713-17.422-2.924-2.15-5.743-2.334-8.488-1.164-4.551-21.081-23.767-33.118-26.956-48.495-2.268 1.238-4.016 3.305-5.409 5.94-15.666-15.86-15.756-40.566-7.215-53.692-20.374 6.262-27.062 20.383-27.625 49.572-2.688-5.083-2.837-14.966-2.456-26.841-8.585 6.318-11.506 19.507-11.513 29.192-.006 7.034 2.02 12.847 5.186 18.066 4.873 8.023 11.481 14.574 17.963 21.255 1.736 1.803 14.841 14.373 14.841 17.678.003 2.611-2.187 3.422-4.187 4.042-8.062 2.504-15.815.327-23.35-4.474-4.316-2.75-8.423-6.108-12.559-9.161-6.061-4.478-11.807-9.284-17.611-14.034-4.129-3.368-7.82-7.407-12.117-10.517-7.021-5.086-17.875-8.861-26.629-12.091 4.369-7.998 5.154-12.913 3.598-16.238-1.762-3.774-6.536-5.515-12.524-7.4-.144-2.937-.42-6.712-.565-9.65 10.065 8.187 22.809 15.516 36.117 21.534 22.87-26.846 33.972-54.919 32.922-83.992-.731-20.217-7.351-40.92-19.978-62.021a426.83 426.83 0 00-22.022 3.552c-4.121-5.323-10.728-6.053-16.981-6.305.339-1.841.12-3.922-.312-5.76-2.201.507-7.818 1.102-9.188-1.522-1.688-3.242 5.509-10.673 7.296-13.09 2.262-3.05 4.553-5.59 5.416-9.383.707-3.115.498-6.362-.521-9.722-1.512-4.979-4.427-8.93-7.571-12.981-3.623-4.666-7.566-9.122-11.71-13.445-8.163 1.724-15.727 4.689-23.369 8.097-1.736-1.235-3.432-2.882-4.646-4.378-6.332 8.459-13.086 16.838-20.586 25.04 1.813.642 4.76.36 7.08.481-.563 2.585-2.084 5.174-3.683 7.477-.915 1.063-1.007 2.408-.214 3.071.736.524.838 1.217.535 2.018-.285.567-.441.636-.724 1.203-.356.972-.207 2.042.821 2.729.613 1.074-.223 1.898-.366 3.197-.129 1.176.256.987-.504 1.88-.338.405-.563.912-.533 1.412 0 1.134-.507 1.086-1.565 1.152-1.156.045-2.058.306-2.726.694-2.815 1.636-2.368 7.048-1.94 9.704-8.368-5.848-18.063-10.496-24.514-16.343l3.293-2.438c-2.693-2.195-5.58-4.139-8.809-5.623-.87-4.486-2.204-8.04-3.61-11.461-1.056.6-2.252 1.466-3.313 2.065-1.308-2.828-2.483-5.925-3.793-8.753 1.805-2.027 3.61-4.16 5.41-6.363-8.738-.95-11.071-6.538-9.02-15.281 50.367 0 100.41-1.596 150.78-1.596 6.517-.078 12.502-.527 18.143-1.757 7.733-1.682 14.822-4.819 21.771-10.44-3.687-2.78-7.536-5.228-11.642-7.113-3.196-1.469-6.553-2.601-10.111-3.287-12.363-1.883-25.265-1.475-37.772-1.613-30.492-.333-60.984-.716-91.476-1.043-13.191-.21-26.587-.354-39.781-.569.018-2.03.039-4.058.057-6.091.033-3.595-.558-5.296 2.57-7.563 1.656-1.2 3.707-2.051 6.061-2.54-3.676-4.177-7.356-8.349-11.038-12.523-5.482 4.045-12.514 11.675-14.058 26.435-4.264-.405-5.938-3.17-7.662-4.945-1.607-1.652-3.761-2.705-5.521-.519-.78.962-1.368 2.258-1.896 3.146-7.8 1.536-16.22 3.926-18.1 10.521h-24.11v-7.894c-8.391-.18-13.249 2.798-15.458 8.708-1.712 4.594-1.643 9.509.357 14.02 2.072 4.675 6.399 7.83 15.102 8.045v-7.533h22.497c1.973 3.757 4.09 7.458 7.851 10.501.402.3.542.867.426 1.697-3.374 7.011-6.843 13.968-11.461 20.266-.795.692-.618 1.118.527 1.277 9.872.713 20.02 1.094 30.773.744.885-.145 1.592.242 2.123 1.164 1.428 3.518 3.74 7.35 5.878 10.51-.528.591-1.557 1.239-1.949 1.521 2.927 5.131 4.858 11.947 5.835 17.789 4.9 2.36 9.419 5.631 13.794 9.23l1.631-.892c6.229 7.943 12.316 15.768 21.195 23.637 1.266 1.125 1.71 2.491 2.061 4.121a142.661 142.661 0 002.219 8.972c3.336 11.898 12.533 36.296 12.67 47.148-8.74 1.355-17.232 2.763-25.797 3.351-.414-7.896-1.236-16.484-4.851-22.242 1.767-1.43 2.979-3.221 4.043-4.831-6.604-5.334-3.038-11.284-8.079-16.496.978-1.208 1.712-2.54 2.339-3.928-7.134-3.652-5.245-14.355-11.251-18.143-7.317-16.324-24.557-28.131-39.58-36.397.291-.675.276-1.344.213-2.015-4.918-2.111-10.217-2.876-15.492-3.72.102-.988-.293-2.048-.584-3.035-8.723-3.031-15.938-3.108-24.179-2.678-2.39-3.134-5.395-5.646-8.654-7.112-6.499-2.924-14.781-1.878-19.534-8.088-2.123 1.077-3.614 2.142-4.372 3.135-1.578 2.063 2.183 5.62 3.311 7.358-2.882-.825-6.1-2.177-8.25-3.466-1.658 2.594-1.518 4.546-.501 6.225 1.224 2.027 4.183 3.597 6.339 5.477-4.492 2.23-9.437 4.975-13.932 7.206 2.072 2.756 4.594 5.064 8.01 6.873-10.118 11.674-20.388 23.126-30.506 34.797-3.113 1.553-5.395 5.167-6.244 8.465-4.066 3.56-6.516 7.116-9.14 11.488-1.125 2.398-1.146 5.089.687 8.261 1.373 2.369 1.313 2.813.852 5.614-.645 3.897.207 7.707 2.552 11.428 2.33 3.691 5.041 4.189 8.975 3.063 2.207-.637 3.838-1.938 4.354-4.676.708-3.757 2.807-7.245 8.388-10.113.486.587 3.194 3.615 3.194 4.356 0 1.004-3.695 3.558-4.489 4.246.618 1.05 1.238 2.099 1.856 3.155.474.807.66 1.271-.105 1.949-2.276 2.032-2.86 2.662-1.64 5.118 1.287 2.589 3.25 3.691 6.417 2.634 3.778-1.269 7.746-1.257 11.545-3.412 5.481-3.11 7.278-7.536 8.78-13.562 3.128 3.488 3.236 6.969-1.143 13.936-1.598 2.951-3.319 5.9-4.804 8.857-5.968 1.544-9.323 7.905-6.538 13.524 1.407 2.839 4.324 4.81 8.1 4.633 2.915-.141 5.164-1.368 6.672-3.146 1.937-2.282 2.648-5.569 1.949-9.074l12.205 3.185c-.92 1.806-1.841 3.61-2.759 5.416-7.056 1.176-12.924 6.601-16.295 12.67-2.936 5.284-6.375 10.43-10.238 15.446-6.324-6.99-12.651-8.723-18.979-10.651-4.153-1.263-6.756-1.69-10.795.333-19.926 9.98-39.856 22.329-59.786 36.528-1.814 1.646-3.328 3.706-4.633 6.149-1.607 3.011-2.912 6.325-4.324 9.446-4.66 10.311-8.648 22.73-13.533 33.741 1.2 3.434 2.402 6.337 3.604 9.768a4087.22 4087.22 0 0010.717-3.604c-.941 3.392-2.597 7.143-2.975 10.605-.957 8.912 2.117 27.987 3.806 46.391 2.231 2.124 4.261 4.44 6.492 6.563 9.905-11.067 19.806-22.14 29.711-33.214-2.825-3.146-5.913-5.854-9.116-8.369-1.841-1.441-3.625-1.531-5.341-2.737-1.712-1.199-1.269-3.865-.765-5.596 1.598-5.484 7.628-5.038 9.59 2.488 4.084-3.021 6.984-7.771 6.933-13.428-.018-1.788-.636-3.578-.492-5.341.078-.996.456-1.94 1.415-2.777 3.848-6.468 11.012-18.77 18.574-24.868 2.624-2.12 5.299-3.49 7.902-3.613 5.796-.303 9.893 3.865 12.583 8.634 2.411 4.271 3.686 9.419 4.453 14.97 8.543 12.049 16.985 24.134 27.339 35.577 2.753 3.047 3.883 4.345 8.366 4.268 3.023-.052 6.045-.108 9.071-.159.633-.138 1.151-.336 1.583-.591 1.613-.954 3.032-3.212 4.252-4.609.486-.759 1.434-.898 2.441-.952 8.42 3.218 15.201 4.894 18.077 6.438 2.297 1.236 1.262 2.588.039 4.321-4.327.336-6.777 2.666-7.833 6.411-18.397.888-32.707 10.559-44.351 25.418-1.673 2.084-2.942 3.321-.558 5.224 2.603 2.081 5.271 3.778 8.525 4.498 2.837-3.781 9.212-10.612 14.918-8.822.108 1.202.147 3.06.255 4.265 11.176 1.095 22.355 2.188 33.532 3.287l.954-4.35 10.396 3.104c.777-1.561 1.791-3.891 2.567-5.446l22.218 7.604-16.169 11.83 25.555-.965 18.041 23.983-3.319-30.164 20.405-12.938-24.78-.162-14.268-19.135.219 17.356-23.066-8.072c2.405-5.335 8.459-9.656 14.355-13.107 15.411 3.79 32.246 6.595 49.75 7.768.524 15.521.539 31.343 1.063 46.864.556 16.43 2.039 31.937 14.022 44.588 9.884-11.113 11.565-30.035 11.565-44.217v-46.97c3.349-.285 4.749 1.772 6.39 5.561 1.303 2.941 1.322 5.677 5.42 3.965 4.061-1.707 8.41-2.705 13.138-2.753 2.364-.024 2.75.817 3.179 3.269.891 5.151 1.977 9.764 4.407 13.989 1.287 2.229 2.647 3.838 4.688 5.386 5.641 4.294 13.084 7.202 20.256 11.521 8.88 5.344 18.332 13.817 18.326 25.077 0 1.4-.146 2.847-.457 4.338-.312 1.547-.93 3.231-1.705 4.982-2.36 5.254-6.318 11.092-8.918 15.507-1.006 1.512-2.017 3.015-2.981 4.489-1.604 2.429-2.759 4.878-4.187 7.376-1.111 1.949-2.416 3.452-4.815 5.206-5.802 4.237-12.87 8.396-19.458 12.661-6.832 4.614-12.373 10.271-17.702 16.583-3.101 3.673-5.755 7.76-8.46 12.039.072 2.864.146 5.728.213 8.598h18.465c.035 1.979.068 3.962.104 5.936h43.929c-.168-3.274-.168-6.489.162-9.575.521-4.905 2.006-12.618 8.731-11.691 3.502.482 6.886 3.712 8.406 7.477 3.938-4.876 6.94-10.364 8.082-16.256.893-4.599 1.776-7.313 4.629-11.521 9.529-14.052 18.056-28.794 27.715-43.105 2.756-3.862 5.324-7.731 8.023-11.598 1.056-1.517 2.059-2.642 2.288-4.533.477-3.981-2.735-10.346-4.708-13.662-1.565-2.572-4.273-2.272-6.855-2.917-2.73-.686-5.104-1.649-7.185-2.841-5.185-2.963-11.002-8.385-10.496-14.854.224-2.9 1.251-5.31 2.55-7.866 4.807-9.491 12.305-17.938 17.773-27.349 3.313-5.706 3.154-9.445 3.424-15.734.223-5.082.391-10.162.066-15.267.021-.815.384-1.163 1.202-.503.588.477.915 1.391 1.189 2.397 1.47 5.332 5.218 9.947 8.777 14.106 4.776 5.574 10.514 9.79 17.018 13.232 17.075 9.035 37.583 10.495 48.217-9.6-7.234 2.837-14.961 3.587-20.979 2.93 9.079-2.168 16.737-8.693 20.908-17.24zm-127.31-62.86c4.728 12.36 6.981 25.737 5.904 38.854-1.826-1.056-4.717-1.127-7.104-.491 1.056-13.516-.656-27.731-5.125-41.315 1.968.807 4.358 1.767 6.325 2.952zm1.893 53.448a6.795 6.795 0 01-6.789-6.788c0-3.748 3.047-6.793 6.789-6.793a6.797 6.797 0 016.795 6.793 6.793 6.793 0 01-6.795 6.788zm2.816 1.608c.006 13.944.2 26.389 9.92 32.656-.024 1.722-.289 2.963-.307 4.689l-3.865 1.347c-11.91-6.879-13.104-22.4-12.304-39.238 1.942.712 4.447.972 6.556.546zm-11.348-8.471c-6.9-3.085-13.701-5.838-20.805-8.517 1.394-1.819 2.051-3.881 1.857-6.499 6.961 2.841 14.557 6.079 21.52 8.926-1.614 1.814-2.773 3.473-2.572 6.09zm.805-41.026c3.522 11.161 3.498 21.837 2.672 33.001-7.879-3.787-15.283-6.615-23.395-9.68-.3-.95-1.473-1.894-2.168-2.643.863-6.601.21-12.583-1.712-18.587 5.761-4.084 10.903-8.914 15.668-14.205 5.866 1.826 7.278 6.901 8.935 12.114zm-16.242 68.825c-.104 1.7-.223 3.396-.326 5.098-2.239-.191-4.178-.417-6.418-.611-8.01-9.529-11.481-22.124-9.49-38.416 1.974 1.124 4.765 1.04 7.173.413-.356 16.675 1.934 27.005 9.061 33.516zm-12.21-35.23a6.48 6.48 0 11.002-12.96 6.48 6.48 0 01-.002 12.96zm-6.226-12.676c-1.436 1.781-2.378 3.677-2.516 6.033-7.635-2.633-15.646-5.029-23.282-7.668 3.536-.846 6.97-1.904 10.22-3.332 4.894 1.669 10.685 3.299 15.578 4.967zm-12-6.502c4.303-1.643 7.848-3.925 11.852-5.793 1.353 3.425 1.564 6.604 1.459 10.425-4.551-1.77-8.768-2.861-13.311-4.632zm14.019-7.037c2.078-1.16 4.461-2.592 6.336-3.952 2.021 5.263 2.779 10.608 2.016 16.072-1.991-1.092-4.518-1.367-6.906-.859.129-3.788-.508-7.477-1.446-11.261zm16.579-41.67c5.941 1.35 10.073 2.966 10.403 7.803.657 9.53-11.019 19.081-17.626 24.266-14.158 11.104-32.459 18.725-46.357 20.616-.035-8.819-.074-17.636-.113-26.461 5.68-4.612 11.353-9.227 17.018-13.842 11.455-.313 21.549-3.443 28.284-13.509 2.581.048 5.489.467 8.391 1.127zm-225.06 23.111c-1.085-1.505-2.171-3.008-3.254-4.513 22.467-10.619 78.153-15.755 103.78-12.277.465 2.12.933 4.249 1.397 6.373-36.202-2.807-70.28.372-101.93 10.417zm15.492-1.898c-2.144 3.604-4.168 7.484-5.76 12.376-3.929-1.484-5.227-5.177-7.545-8.318 4.249-1.635 8.693-2.97 13.305-4.058zm84.984-17.362c-37.454-1.896-72.638 2-105.45 12.714-2.618-2.894-4.837-5.035-7.604-8.304 1.101-1.493 2.06-3.22 2.888-4.711 36.123-12.315 73.352-15.053 111.46-13.432-1.161 4.559-1.461 9.172-1.296 13.733zm-6.274 45.826l-26.029 35.036-5.83-.387 40.237-68.176c1.931 4.646 4.642 9.275 8.229 13.083-5.953 1.977-11.207 5.311-15.831 9.929-.961 3.246-1.139 6.779-.776 10.515zm-27.09 37.04l-10.084 13.529-4.103-1.556 8.241-12.499 5.946.526zm27.732-34.323c.408 2.039 1.017 3.939 1.715 5.693-12.406 17.271-24.688 34.391-37.094 51.659-1.119-1.511-2.573-2.621-4.222-3.395 13.234-18.057 26.371-35.899 39.601-53.957zm-35.454 67.576c1.203.747 2.408 1.5 3.61 2.246-.531.936-1.059 1.87-1.589 2.811-1.721-.769-3.445-1.539-5.169-2.313 1.232-.807 2.33-1.688 3.148-2.744zm1.251-2.438c.513-1.745.402-3.56.093-5.479 12.478-17.272 24.958-34.543 37.436-51.813 4.541-1.15 8.9-1.221 12.874 1.07-1.601 9.797-7.245 17.566-13.74 24.914-5.236 5.922-10.7 10.934-16.577 16.187-6.342 5.65-12.295 11.485-16.454 18.138-1.252-1.009-2.379-2.01-3.632-3.017zm38.47-59.952c-3.35-6.813-2.624-11.341-2.132-16.001 10.768 3.561 20.658 9.659 29.471 18.804.909 4.138.162 7.234-1.332 9.867-9.187-11.99-17.73-13.959-26.007-12.67zm23.795 15.034c1.043.267 2.084.537 3.125.807 2.051-3.867 3.526-7.79 2.945-11.896 3.35-1.253 6.416-3.07 9.284-5.277.091 7.426.179 14.848.265 22.27-4.133 1.493-6.955 5.128-8.475 10.915-4.549.963-9.101 1.002-13.659.53 2.608-5.712 5.376-11.394 6.515-17.349zm15.353-20.661c-2.051 4.09-5.563 5.67-9.284 6.885-10.034-8.31-20.193-15.479-30.704-19.493 3.248-3.446 7.488-6.577 15.264-8.586 5.629 10.108 11.662 19.737 24.724 21.194zm-12.585-8.405c3.604-5.856 7.603-12.109 12.405-16.28.09 7.245.09 14.847.18 22.092-4.353-.087-8.981-1.405-12.585-5.812zm-12.439-15.309c-5.158-4.882-8.675-12.366-9.761-20.791-2.315-17.943 9.305-46.261 31.755-42.045 7.504 1.409 13.194 7.536 12.539 18.199-13.467 11.582-24.979 26.603-34.533 44.637zm8.988-67.099c4.03-.456 7.97-.786 12.09-1.215-.117 1.14-.303 1.877-.424 3.014-4.042-.192-7.805.594-11.485 1.718l-.181-3.517zm25.495 9.7c-3.238-4.307-6.957-6.795-11.359-7.593.191-1.008.384-2.402.578-3.406l27.295-3.113c-3.774 5.395-9.824 9.882-16.514 14.112zm1.834 1.35c6.842-4.187 13.004-8.807 16.76-14.967.948-.096 1.896-.198 2.845-.294 1.307 1.877 3.288 3.368 5.461 4.747-4.531 4.104-8.208 8.546-11.513 13.144-3.702-3.898-8.602-3.338-13.553-2.63zm10.92 3.487c-3.92 1.697-7.435 4.065-10.371 6.135-.018-2.252-.397-4.875-.961-7.056 4.066-1.234 8.129-1.672 11.332.921zm16.05-13.125c1.72.345 3.521.87 5.072 2.093-10.56 6.801-16.725 19.141-19.238 36.54l-4.739-.063c1.228-15.533 6.185-28.797 18.905-38.57zm4.977-1.002c-3.18-1.535-7.704-2.093-9.736-5.144-.553-.983-.759-1.812 1.313-1.539 2.181.438 5.115-.446 7.14-2.063 5.847-4.648.498-9.743-4.604-10.049 1.654-3.638 4.647-5.306 8.566-4.402 2.453.327 5.118.656 7.571.989 2.837 7.323 6.088 14.757 10.573 21.831-4.206 1.799-6.321 8.27-12.217 5.25-2.84-1.763-5.695-3.463-8.606-4.873zm22.676 2.346c5.043 7.362 10.795 13.734 17.581 20.028.142 3.707.288 7.977.44 11.683-17.549-2.99-34.684-2.228-49.887 3.301-.287-11.817 5.422-21.875 17.145-30.17 6.12 4.214 10.205-3.826 14.721-4.842zm-10.688 32.623c2.369-.216 19.087-1.35 19.96 1.676.459 1.583-2.237 3.625-3.32 4.504-6.369 5.149-14.187 6.903-22.703 7.026-4.782 4.768-10.342 9.065-16.25 13.151-.116-6.731-.228-13.457-.338-20.188 7.345-3.486 14.912-5.45 22.651-6.169zm77.307-130.64c21.815 29.126 33.279 88.734-11.322 138.03-57.379-21.521-76.346-77.517-69.887-122.22 27.066-5.27 54.146-10.545 81.209-15.814zm-22.211 1.107c-12.958 2.63-25.925 5.254-38.883 7.884 2.608-12.34 31.623-18.614 38.883-7.884zm-31.7-70.009c6.976 6.804 14.062 13.461 18.192 24.071 2.236 5.835.213 10.166-2.85 14.205-2.129 2.807-4.752 5.473-6.795 8.402-2.381 3.416-5.832 10.237.216 12.121 1.839.576 4.181.546 6.394.444.346 3.722-4.604 4.208-7.688 4.666-19.914 2.981-22.935-16.721-13.881-33.178 1.005.036 2.019.542 3.032 1.52.021 3.306 1.421 5.53 3.38 6.58 3.592 1.931 7.151.129 9.241-2.885 2.375-3.413 2.857-8.388-.605-11.251-1.847-1.521-4.597-1.901-7.814-.159-10.727-3.922-17.053-10.526-22.16-17.881 6.529-3.384 13.564-5.762 21.338-6.655zm-42.445 22.667c5.171-5.649 10.728-11.845 15.272-18.112 8.004 9.72 16.949 17.659 27.754 22.086 2.154-1.539 4.406-1.635 6.096-.783 2.475 1.242 3.754 4.507 1.787 8.229-1.814 3.424-5.098 4.016-7.377 2.747-1.771-.985-3.008-3.143-2.717-6.102-10.099-5.675-23.881-8.314-40.815-8.065zm.97 10.082c1.773-2.696 3.062-5.302 3.979-8.202 2.33.045 5.193.045 7.523.087-1.623 2.417-.511 3.356 1.231 3.674.414.074 2.601.168 4.411.015 1.409-.117 2.585-.387 2.52-.923-.072-.573-1.402-.825-1.926-.996.145-.268.291-.531.438-.798 2.837.354 7.08.317 8.175 3.623 1.522 4.597-4.824 12.424-8.123 14.731-1.248-1.247-2.606-2.018-4.207-1.727-.153-3.829-1.597-6.546-5.885-6.828.567-1.602-.113-2.471-.968-3.235-1.144-.521-1.51.234-.934.755 1.406 1.563 1.037 2.621.21 3.068-1.131.606-1.942-.294-3.056-.063-.52.107-1.057.333-1.473.429-1.049.252-1.547.084-2.314-.462-.915-.891-.344-2.141.399-3.148zm-.777 6.596c.389-.684 1.204-1.271 2.194-1.537 1.963-.52 4.59-.834 6.608-.559 4.534.63 4.771 3.698 3.985 7.008-.1.43-.731 1.594.123 1.785.714.159.885-1.441 1.017-1.69.413-.78 1.247-.825 2.375-.408 1.134.423 1.001 1.315.315 2.233-.767 1.029-2.424 2.31-4.088 2.808-1.138.333-2.269.309-3.121-.411-.885-.738-1.371-2.063-1.543-3.374-.293-2.324.291-2.978-2.51-3.032-1.422-.021-7.131.309-5.355-2.823zm.827 5.839c-.229-1.518 1.373-1.851 2.947-1.658 2.44.288 2.713 1.017 2.885 2.303.181 1.391.404 1.961 1.373 3.056.805 1.722-2.621 1.812-3.631 1.817-1.188.003-3.975-.159-4.612-1.442-.239-.477.12-.959 1.073-1.438.475-.282.727-.573.756-.885.052-.571-.687-1.063-.791-1.753zm-3.59 19.756c5.67 2.561 12.738 1.083 19.582.255 1.147-.474 1.117-.828-.088-1.063-7.593 1.064-15.332 1.839-21.274-2.3-4.027-3.245-3.854-6.93-.618-10.174 19.548 3.328 29.996-5.92 34.779-23.261 1.438.384 2.882.821 4.32 1.679-8.451 21.678-4.465 32.572 8.036 36.09-4.459 3.259-7.956 7.032-9.356 11.941-30.438 7.686-39.307 2.831-44.063-4.252-2.855-4.246-1.271-6.654 1.256-9.278 3.03-3.137 3.988-1.197 7.426.363zm104.71-73.397c-52.186.475-104.09.953-156.27 1.434l-.066-9.519c61.195.069 122.84-.375 184.04-.303-7.173 6.883-18.453 8.301-27.701 8.388zm2.711-17.641c8.478.084 18.363.957 24.754 7.23-61.265.071-122.53.141-183.8.216v-9.098c53.01.551 106.03 1.1 159.04 1.652zm-161.33-29.781c2.288 2.288 4.573 4.582 6.861 6.876-4.252 2.139-7.098 5.254-6.861 10.511l.258 40.75c.267 4.348 1.667 8.236 7.122 10.513-2.285 2.417-4.573 4.84-6.864 7.266-15.101-7.74-17.081-66.527-.516-75.916zm-28.548 23.16c1.026.306 1.568.878 1.982 1.535.693 1.101 1.017 2.438 2.621 3.185 2.393 1.112 2.786 7.704.159 7.978-1.889.03-3.788.141-5.604.561-1.946.447-3.386 1.512-4.669-.863-.911-2.168-2.237-3.994-4.606-4.075l-5.883-.207c2.578-5.215 10.981-9.599 16-8.114zm-44.213 26.136c-7.11.204-12.055-5.728-11.461-12.606.546-6.258 4.846-10.735 11.461-10.417v23.023zm1.806-6.897v-9.23h32.998c2.054 2.76 3.397 5.904 3.185 9.23H174.54zm24.334 34.423c3.326-5.665 6.454-11.722 9.779-17.39 3.494.642 7.314.663 10.813.261.084-.345.168-.693.258-1.038-11.215-.612-14.703-6.009-17.74-11.68-1.298-1.772-.951-2.511 1.035-2.207l5.211.375 2.042.144c1.346.944 1.97.843 2.282.297.405-.705.303-2.149.585-3.077 1.049-3.479 4.264-5.185 10.858-4.356 1.469.114 1.676-.576 1.421-1.556-.846-2.886-.597-5.6-.255-8.308-2.021-.668-3.386-2.348-4.09-4.018-1.167-2.78-.501-5.523 2.021-3.509a51.115 51.115 0 004.132 2.776 43.9 43.9 0 001.946 1.104c3.649 1.97 2.435 2.92 2.315 7.077-.432 14.853 1.484 28.188 6.495 39.394-5.009 7.816-22.438 6.757-39.108 5.711zm31.145 3.043c3.323-1.382 6.63-2.854 9.779-4.93 1.553 1.709 3.326 3.308 5.565 4.672 1.991-1.277 3.736-2.789 5.377-4.411l4.015 8.63c-4.55 4.543-10.41 7.483-18.59 7.523-2.74-3.65-4.79-7.48-6.15-11.484zm4.792 14.082c8.486.063 16.424-2.959 23.702-9.992.975 2.57 1.763 5.176 1.874 7.914a65861.01 65861.01 0 01-20.589 15.833c-1.305-4.675-2.987-9.254-4.987-13.755zm16.511 23.813c-3.35-2.942-6.924-5.555-10.618-7.979l20.459-16.091c2.44.798 4.637 2.075 6.734 3.568-7.989 4.54-13.594 11.296-16.575 20.502zm2.719-1.097c2.21-6.723 6.294-11.968 11.785-16.091 8.328 6.033 17.094 11.854 25.774 17.716-3.419 3.76-6.438 6.702-3.763 10.897-3.775 3.438-7.226 8.177-10.355 12.717-8.926-7.247-17.623-15.916-23.441-25.239zm23.916 28.442c3.041-5.365 6.752-10.208 10.699-14.118 1.154 1.58 2.438 3.322 4.135 4.549-3.867 6.973-7.405 14.541-10.369 23.15-2.508-4.186-3.59-8.849-4.465-13.581zm7.316 23.952c-3.037-10.229 4.895-23.76 9.645-32.369 5.533 2.33 11.849 3.404 18.806 3.434-2.153 17.537-1.164 36.398 4.403 55.081-4.258-.081-8.008-1.958-12.225-.054-1.503.675-2.828 1.897-3.881 4.201-.813 3.235-6.023 3.238-8.385 3.606-1.582-12.096-5.499-22.879-8.363-33.899zm-116.71-73.05c7.173-.927 14.211-.267 21.102 2.132.024 1.206-.342 2.313-.887 3.377 5.353.346 10.654.223 16.313 2.847-.738 2.366-2.858 2.831-4.786 3.553 2.972.483 5.604-.681 8.648.271 3.214 1.001 6.183 3.286 8.903 5.095 11.413 7.578 20.223 16.955 26.764 27.094-1.893-.192-2.927-.168-4.061.237 4.69 1.735 6.597 3.833 7.722 6.23 1.91 4.069 2.684 11.074 7.611 12.886-1.775 1.367-4.252 1.922-6.783.045.279 2.873 6.208 3.02 7.533 10.052.744 3.932 1.481 8.34 4.845 10.021-1.17 4.117-5.419.301-8.515 1.283 9.345 4.534 8.948 14.952 9.233 25.976-3.724.294-7.854.549-11.584.846-1.682-68.938-30.772-96.34-72.947-103.51-4.823-.824-11.342-1.445-9.111-8.435zm-35.994 72.896c9.617-9.671 19.522-19.468 29.136-29.14a8.666 8.666 0 003.299.112c4.702 6.073 7.686 13.141 7.263 22.164-6.501 7.296-16.619 8.546-28.746 6.454.237.917.857 1.682 1.874 2.288l-5.208 4.692c-2.324-1.602-4.882-2.999-7.203-4.281.098-.762-.043-1.524-.415-2.289zm-4.983-5.562a41.26 41.26 0 00-.807-.423l28.629-28.923c.087.198.183.408.282.606a8.597 8.597 0 004.126 4.482l-27.912 28.038a7.093 7.093 0 00-.941-1.287 8.332 8.332 0 00-3.377-2.493zm3.373 7.722a6.469 6.469 0 01-6.96 6.446l-.048-.006h-.009a6.424 6.424 0 114.986-11.146l.027.026a6.462 6.462 0 012.004 4.68zm36.494-47.303a9.51 9.51 0 00-1.268-.51c5.826-5.683 7.484-10.423 8.186-16.792 2.57-.345 5.068.156 7.494 1.502-.267 7.933-4.306 14.367-10.256 20.144-.614-1.864-2.209-3.462-4.156-4.344zm12.553 36.195c-1.931.444-3.868.888-5.704 1.379-.705-8.3-2.663-15.982-7.299-22.043a8.578 8.578 0 004.501-4.501c7.027 7.833 8.904 16.55 8.502 25.165zm-10.102-28.53a6.27 6.27 0 01-12.538 0c0-1.612.612-3.083 1.613-4.191a7.781 7.781 0 014.33-2.069c.108-.003.216-.009.327-.009a6.268 6.268 0 016.268 6.269zm-14.019-3.628c-6.516-6.825-13.851-11.839-21.942-15.264 1.511-2.123 3.977-3.571 7.581-4.216 7.056 3.203 13.299 8.604 19.503 14.958a8.582 8.582 0 00-5.142 4.522zm-8.127 44.309c5.958.633 12.381.32 18.871-2.585 3.332 10.572-.723 20.786-5.985 29.672-4.207-1.364-9.017-2.721-13.05-4.438-.057-6.555-1.161-13.144-5.722-17.573 1.715-1.526 4.168-3.55 5.886-5.076zm21.684-4.531c2.825-4.402 8.258-6.837 17.422-5.613-1.616-.773-3.355-1.551-4.966-2.324.237-11.227-3.463-20.223-9.854-26.623a8.23 8.23 0 00.15-1.589c0-.459-.039-.905-.105-1.343 5.875-5.839 10.562-12.403 11.479-21.356 46.927 9.881 63.81 49.677 64.662 99.375-29.04 1.777-57.555-.271-84.525-7.998 5.668-10.398 8.784-21.302 5.737-32.529zm-31.81-84.709a1.41 1.41 0 01.594-1.322c1.236-.863 2.363.343 3.323 1.005 3.038 2.129 7.065 3.68 11.929 4.734 4.363 1.029 8.207 2.924 10.594 6.003.966 1.25 1.266 2.525 1.416 3.838.276 2.537.351 4.834 1.574 6.276 1.112 1.311 2.666 1.218 4.039 1.631.621.184 1.208.475 1.697 1.046-.836 6.594-3.395 12.395-9.017 16.775l-.129-.003-.246.003c-5.74-5.955-11.977-11.194-19.024-15.281 1.694-1.729 4.039-2.87 7.821-2.702 2.926-.639 3.934-2.453 3.814-4.521-.177-3.018-2.768-6.582-5.311-7.793-4.159-2.153-8.42-4.259-11.251-7.018-.695-.674-1.733-1.639-1.823-2.671zm-5.413 7.68c-1.202-1.542-.927-3.281 1.521-2.441 4.618 3.092 12.868 4.045 16.388 6.942-3.11.585-6.223 1.169-9.329 1.754-3.479-2.051-6.898-4.099-8.58-6.255zm-3.748 14.897c-.684-.681-.807-1.268-.138-1.655 7.359-4.249 13.344-6.107 21.795-6.924 1.418-.069 2.633.391 3.311 1.262 1.227 1.6 1.025 3.116.114 4.101-.626.671-1.583 1.098-2.654 1.127-3.299.132-6.174 1.304-9.044 2.543-2.252.978-4.501 1.994-6.945 2.582-2.793.149-4.595-1.206-6.439-3.036zm-9.305 22.815c5.481 5.625 11.224 11.137 17.635 3.038 1.599-2.016 3.218-4.021 5.812-4.915 1.61-.55 1.77-.589.165-1.797-4.204-3.17-7.26-3.981-9.884-2.714-2.189 1.063-3.305 4.498-5.628 6.903-2.132 2.25-4.912 1.29-5.905-.479-1.754-3.134 2.867-6.219 4.78-8.117 2-1.985 4.012-3.979 5.964-5.933 7.425 2.423 16.334 8.118 23.144 15.542a8.3 8.3 0 00-.156 1.625c0 .333.018.666.057.986-9.961 9.776-20.886 19.927-30.83 29.693-6.849-7.563-13.947-11.921-21.102-15.497 5.009-7.108 10.433-12.863 15.948-18.335zm6.633 2.884c2.093-.789 4.076-2.093 5.074-4.327.692 1.805 2.264 3.191 4.597 3.481-4.444 5.189-7.365 3.893-9.671.846zm-24.098 17.3c6.843 3.035 13.866 7.545 20.442 14.634a8.325 8.325 0 00-4.879 3.896c-7.494-7.005-14.607-12.104-20.34-13.93 1.08-1.898 2.384-3.637 4.777-4.6zm7.758 28.203c-4.462 2.744-9.095 5.236-9.764 10.592-.294 2.357-2.054 4.096-4.033 4.471-1.446.271-3.005-.186-4.202-1.651-2.98-3.665-2.78-7.332-2.354-10.994.324-2.813 1.098-1.977-.582-4.51-2.015-3.047-2.018-6.415-.219-10.062 1.304-2.636 4.078-5.266 6.786-8.307 1.202-1.351 2.462-.987 3.919-.21 5.742 3.044 12.04 8.065 17.482 12.853a8.332 8.332 0 00-.303 2.223c0 .458.042.904.111 1.346-2.247 1.428-4.55 2.837-6.841 4.249zm2.327 1.685c1.502-1.601 3.256-2.854 5.08-4.009a8.36 8.36 0 003.236 3.781c-1.476 1.721-2.975 3.413-4.975 4.486-.996-1.481-2.081-2.911-3.341-4.258zm9.479.384c.411.284 1.004.44 1.472.627-.902 4.95-4.366 8.498-8.094 11.461-1.391-.511-2.258-1.39-2.5-2.705 3.227-2.621 6.561-5.791 9.122-9.383zm1.844 17.642c-2.297.756-4.732 1.263-7.065 1.901-.996.27-1.851.51-2.873.113-1.287-.495-1.946-1.732-1.64-2.768.318-1.083 1.502-1.367 2.39-1.829 5.563-2.873 8.832-8.051 10.895-14.22 1.757-.165 3.368-.906 5.005-1.81 1.679.771 3.215 2.013 4.39 3.482-1.602 8.996-5.869 13.418-11.102 15.131zm7.797-19.546c.765-1.038 1.533-2.315 1.922-3.603 9.782 3.572 13.524 11.591 12.844 20.784-1.635-.393-3.674-1.382-5.047-1.939-.636-7.361-4.471-12.126-9.719-15.242zm.516 45.356a6.553 6.553 0 01-6.552-6.555 6.553 6.553 0 1113.107 0 6.557 6.557 0 01-6.555 6.555zm1.526-15.908c2.156-3.896 4.465-8.229 6.621-12.124 45.008 19.959 108.42 19.348 157.44 10.45 3.043-.455 7.625-1.744 9.979.873 1.09 1.206 1.158 2.343.166 3.739-1.701 2.399-6.828 2.669-9.725 3.137-71.022 10.325-124.98 8.102-164.48-6.075zm15.345 18.463c-.132 3.812-4.486 7.064-4.525 11.977 7.329-4.561 15.386-7.653 23.087-8.166-4.876-3.595-12.685 2.372-18.199 1.904 1.334-5.449 5.979-9.242 7.958-14.694 28.092 4.027 58.014 6.273 91.27 4.627.117 1.298.177 2.465.3 3.768-8.93 3.99-14.379 12.31-18.136 22.175-39.295-1.583-76.971 1.571-110.07 12.895 9.567-10.676 15.961-32.048 28.313-34.486zm-118.3 62.35c1.218 1.338 2.918 2.178 4.924 2.729 1.397.252 1.533-.491.384-.911-7.263-4.201-1.202-10.664 3.08-13.729 16.295-11.653 33.289-20.787 50.145-30.396.243 1.25.471 2.501.833 3.751.147.507 1.022 3.684 1.955 2.252.216-.33.297-.915.063-1.721-.938-8.246 5.197-9.11 11.476-7.674 9.746 2.23 14.46 6.367 18.053 10.921-2.765 4.237-5.527 8.478-8.292 12.715-3.791-3.14-7.053-4.372-12.028-4.537-5.242-.174-10.04.003-14.826.559-5.431.63-9.335 1.646-12.787 5.859-3.497 4.273-7.239 9.032-10.736 13.302-1.616 1.929-3.25 3.487-4.903 4.621-1.874 1.286-4.138 1.631-5.898 3.004-1.364 1.054-1.859 2.337-1.661 3.81.222 1.641 1.424 2.572.441 4.253-.51.869-1.32 1.679-1.793 2.261-1.763 2.165-3.466 4.349-5.287 6.501-5.695-3.26-12.103-4.734-18.583-5.241 1.371-4.36 3.155-8.486 5.44-12.329zm-6.369 15.436c6.792.141 13.416.633 17.995 5.227-6.294 10.229-14.577 11.707-26.137 15.042 1.856-6.904 4.249-13.708 8.142-20.269zm-7.503 28.122l-1.595-5.015c6.249-2.094 12.499-4.191 18.748-6.278-1.691 2.513-3.62 5.027-6.045 7.542l-11.108 3.751zm38.263 27.348l4.054 3.715-26.005 29.271-4.162-4.055c.001.114 26.113-28.931 26.113-28.931zm-1.889-1.094c-7.809 8.627-15.971 17.565-23.774 26.197-1.487-6.813-2.312-14.122-2.588-21.838 6.39-3.484 12.892-6.646 19.584-9.229 2.331 1.34 4.859 2.705 6.778 4.87zm126.2.204c-6.132-1.991-12.553-4.179-18.679-6.166 1.943-4.165 4.597-6.938 9.308-8.066 6.009-1.438 5.083-3.334-1.062-2.003-3.487.759-7.809 3.358-13.203 12.066-1.263 2.036-1.442 3.311-4.108 3.713h-7.563c-3.053 0-4.612-.285-6.517-2.771-8.861-11.532-17.722-23.068-26.583-34.603-1.382-7.917-4.072-16.925-9.539-21.811-6.996-6.259-14.517-3.981-20.316 1.784-7.35 7.312-13.536 15.923-19.356 24.955-1.077-1.622-.837-3.193-.237-4.867.213-.594.369-1.156.108-1.295-.624-.327-1.688 1.687-1.943 2.268-1.829 4.223 1.388 8.398 1.832 13.271.411 4.486-1.364 6.99-3.907 8.792-6.276-10.765-14.628-.94-12.945 7.788-6.129 2.348-12.262 5.026-18.391 8.304-.753-4.414-1.311-8.824-.516-13.235 1.421 1.244 2.912 2.141 4.504 2.456 1.004.193 1.76.364 2.297.348 1.232-.039 1.334-.63.726-1.115-.462-.366-1.43-.501-2.429-.918-2.435-1.002-3.341-3.389-3.701-5.803-1.109-7.565 5.593-15.989 10.717-23.062 11.293-15.563 23.063-30.534 34.995-44.497.51 2.12 1.83 3.855 3.586 5.059 2.735 1.871 2.819.501 1.125-1.265-1.286-1.344-2.357-2.937-2.357-4.912.174-1.82.717-3.215 1.526-4.303 2.378-3.188 7.734-3.854 11.392-3.938 6.693-.149 14.085-.852 19.726 1.557 3.196 1.361 6.402 4.408 9.641 7.875 6.625 7.093 13.029 16.68 17.288 22.425 10.646 4.466 18.397 13.771 16.577 27.162-.795 5.875.09 6.495 1.535.104 2.378-10.521-1.553-20.606-12.415-28.302 1.062-5.568 2.933-10.208 5.845-14.854 25.576-5.948 52.891-8.491 82.477-4.873l-49.438 82.732zm.983 10.042a6.532 6.532 0 016.531 6.527 6.531 6.531 0 11-13.062 0 6.53 6.53 0 016.531-6.527zm-45.766 35.732c-1.655-.243-2.888-.979-3.97-1.878-1.833-1.52-1.395-2.074-.051-3.815 10.406-13.433 23.336-22.446 41.623-22.128-3.617 7.641-10.115 14.152-20.826 19.015-7.522.221-12.341 4.243-16.776 8.806zm46.954-.627c-9.584-.911-19.168-1.816-28.752-2.726-.051-.937-.102-1.868-.156-2.804 8.498-4.327 15.647-9.798 21.045-17.237 1.161 1.602 3.035 2.333 5.032 2.895-1.616 6.159-.479 11.687 3.917 16.599l-1.086 3.273zm13.131-1.091c-3.68-1.325-7.359-2.646-11.035-3.973-1.557-1.896-2.744-3.868-2.642-5.762 5.023 1.868 10.36 3.813 15.387 5.684-.573 1.355-1.143 2.702-1.71 4.051zm34.263-1.481l-1.319-15.729 10.643 16.738 20.28-1.011-17.401 9.733 4.192 24.916-14.064-20.787-20.979 2.255 16.241-10.045-46.076-16.353c-.156-2.231-.051-4.153.543-6.308 15.98 5.535 31.96 11.065 47.94 16.591zm-29.036-12.469c-2.255-.827-4.507-1.651-6.759-2.474 1.901-6.984 7.674-12.67 13.965-18.186 14.52-12.737 28.974-26.062 34.309-45.453 3.343.585 5.991 2.678 7.62 6.983-1.502 13.063-9.176 22.787-18.13 31.825-10.875 10.389-24.858 16.588-31.005 27.305zm19.6-14.81c8.066-6.495 16.271-13.041 22.904-20.736 5.97.441 12.084.456 18.298.184.285-6.114 2.543-9.396 6.156-10.731.119 12.789.236 25.579.359 38.368-17.274-.965-33.539-3.266-47.717-7.085zm46.427-112.2c.076 7.542.154 15.081.232 22.619-5.027 4.846-9.565 11.41-14.115 17.957-3.266-3.103-6.082-6.948-7.914-12.438 9.026-19.704 25.892-42.33 45.931-52.37-3.256 7.474-5.967 15.65-6.834 24.074-5.769.059-11.531.107-17.3.158zm2.893 23.828c9.974-.822 11.774-13.824.18-14.706v-6.411L289.48 275v6.229c-8.97 1.172-10.24 12.906 0 14.616v5.483c-7.058.045-14.286.114-21.336.156v-5.055zm.213-2.511v-9.521c8.472.174 7.638 9.842 0 9.521zm20.966-10.453v9.71c-6.926-.207-6.764-9.332 0-9.71zm.924 170.66c-.996 10.635-4.006 19.688-8.563 27.535-7.205-6.938-10.382-18.606-11.32-31.373-.403-5.448-.348-10.928-.42-16.388l-1.735-130.32h21.281c.223 44.554.795 89.485 1.057 134.08.034 5.49.207 10.995-.3 16.472zm3.209-191.14c2.879-11.448 8.528-20.253 16.942-26.395 1.589.45 3.11 1.074 4.13 2.159-11.035 8.737-15.816 18.517-17.327 30.529-.768 6.089-.519 12.211-.477 18.332.108 16.062.213 32.125.321 48.189-1.181 2.294-3.537 5.128-5.306 6.828v-53.92c.002-8.786-.445-17.137 1.717-25.722zm23.884 136.52c-4.727.439-9.248 1.505-13.758 2.597-1.5.387-2.11-1.487-2.889-3.518-.497-1.3-1.059-2.663-1.967-3.535 6.094-.462 12.193-.921 18.285-1.38.883.065 1.742.168 1.863 1.542.119.933.239 1.864.364 2.794.028.834-.413 1.428-1.898 1.5zm27.116 108.34c4.734-2.696 8.246-6.405 10.549-11.132l12.105-21.482c1.823-3.235 3.41-6.024 4.084-9.752 1.109-6.091-.389-11.578-3.043-18.001 8.447 5.269 16.091 11.344 16.382 20.19.12 3.721-1.163 7.143-2.569 10.51-3.797 9.048-9.138 17.633-14.224 26.144-2.708 3.58-4.69 5.49-8.522 7.929-9.567 6.1-20.256 10.909-27.645 19.611-3.146-2.507-6.475-5.161-10.828-7.269 6.177-6.229 14.285-11.737 23.711-16.748zm-8.39 24.438c8.304 1.099 25.459 6.072 23.59 17.436l-36.335-.436c3.245-6.042 7.178-12.135 12.745-17zm-17.991-5.334c4.594 1.025 9.074 3.312 12.311 7.446-2.582 3.002-5.012 6.168-7.209 9.56-6.021 0-12.402-.146-18.424-.146 3.475-6.325 7.718-12.091 13.322-16.86zm2.185 23.282h-16.68v-4.31l18.064.145-1.388 4.165zm39.762 6.057h-38.303v-4.452l38.303-.145v4.597zm41.703-141.22c-3.568 5.991-4.246 10.675-.533 16.854 4.372 7.277 9.926 9.535 18.757 13.048 4.21 1.67 3.919 2.141 5.37 6.048.414 1.115.854 2.23 1.251 3.338.896 2.471-.489 5.143-1.855 7.218-10.454 15.824-20.253 32.009-30.191 48.172-1.826 3.27-3.655 6.534-5.476 9.804-1.238 2.207-1.687 2.406-2.178-.399-.474-2.684-.084-5.079 1.176-7.188.879-1.196.184-1.461-.82-.243-1.605 2.346-2.285 3.599-2.363 6.55-.174 6.563 2.314 14.288-4.357 21.552-7.557-8.776-14.805-6.841-19.989 1.925-5.82-6.601-13.991-10.472-23.054-11.869 7.088-7.563 16.984-11.073 25.362-17.121 4.081-2.945 5.655-5.591 8.185-9.875 5.428-9.191 10.902-18.373 14.906-27.887 1.691-3.14 2.006-6.327 1.322-9.545-.811-3.858-2.738-6.546-5.17-9.551-2.915-3.593-5.359-5.829-7.671-7.668-3.677-2.93-7.437-5.518-11.455-7.964-5.454-3.326-10.938-6.453-16.444-9.461-3.758-2.049-7.81-3.81-11.449-6.04-3.772-2.314-6.766-5.331-8.543-9.464-1.071-2.501-1.764-5.484-2.375-8.147-1.998-8.708-3.617-23.99-9.957-29.843-1.793-1.5-2.313-.108-1.486.617 2.602 3.364 5.008 7.403 4.357 12.938-8.887.776-17.528 1.351-24.513.492v-45.354c2.297-2.928 4.591-5.856 6.882-8.786-.021-2.685-.048-5.37-.074-8.052 1.422-1.037 2.84-2.08 4.262-3.121 9.4 2.813 18.631 5.386 28.027 8.776.502 1.477 1.572 3.076 2.883 4.282-1.965 15.632-.676 30.422 10.273 42.381 3.063-.081 6.256.18 9.32.096.271-2.82.543-5.644.818-8.459-8.838-6.188-10.484-18.754-9.836-33.357 7.676 2.973 15.18 5.809 22.858 9.468.537 1.395 2.054 3.454 3.238 4.53-2.404 23.666 3.073 36.063 13.932 42.456 2.058-.934 3.743-1.389 5.798-2.314-.027-2.825-.175-5.341-.203-8.16-8.545-3.802-10.277-17.063-9.369-30.266 21.97 11.836 34.045 22.354 39.38 28.677-5.61 10.275-13.026 20.88-18.996 30.912zm19.864-33.077c-11.866-13.099-25.867-20.515-39.425-28.494 1.678-1.683 2.957-3.108 2.93-5.646 13.238 7.626 25.918 14.619 37.454 24.599.518 3.295.016 6.453-.959 9.541zm51.529-3.93c6.253 7.071 14.898 5.404 22.719 4.249-16.062 16.125-48.902 7.293-65.446-23.009-2.216-4.444-3.713-6.33-7.438-9.62-.058 6.65-.11 13.309-.159 19.96-11.754-9.138-23.369-17.585-37.84-24.771-.445-1.286-1.481-3.409-2.691-4.692.361-13.097-.904-26.07-5.075-39.17 3.535 1.875 7.235 3.674 10.471 6.223 12.97 10.22 26.015 22.68 41.687 32.267 8.908 5.393 18.008 7.824 27.52 4.088 5.274-2.068 7.149-5.554 2.813-10.363-9.409-11.953-26.865-25.766-34.077-39.331-5.691-10.718-3.898-23.019 2.948-35.937-.696 11.823 1.57 21.461 8.161 27.902-1.276-26.431 2.831-46.252 18.806-51.554-4.908 14.922-2.902 30.536 7.896 47.032 6.353 9.704 14.085 18.811 22.029 27.217-.162-.537-.318-1.074-.48-1.604-4.552-5.302-17.626-17.998-12-25.501 2.307 5.891 5.871 9.681 9.642 14.604 3.813 4.982 7.185 10.063 10.007 15.277 6.804 12.577 11.362 30.849-4.363 39.154 16.269-3.134 9.251-24.203 17.521-23.492-2.014 2.792-1.646 6.476-1.79 9.74-1.167 27.069-11.083 41.37-30.861 41.331zm-87.623 45.382c3.381 7.107 5.266 14.049 15.969 21.966-.547 1.135-1.096 2.265-1.641 3.393 14.182-4.036 16.732 7.609 9.289 16.066 11.088-6.604 6.629-19.498-5.322-20.422-9.182-6.04-13.405-13.629-18.295-21.003zm-292.16-243.89c-1.008.903-.042 2.129 1.067 1.351 1.454-1.435 2.96-2.21 4.621-.886.953.763 1.526 1.8 1.434 3.06-.087 1.223-.483 2.045-1.602 2.54-.908.408-1.97.546-3.106.579-1.008.078-.954 1.08.11 1.179 1.137.039 2.214-.087 3.182-.498 1.212-.522 2.097-1.445 2.553-2.696.6-1.644-.052-3.353-1.056-4.675-1.865-2.473-4.396-1.75-7.203.046z"/></svg>