<svg width="313" height="313" viewBox="0 0 82.815 82.815" xmlns="http://www.w3.org/2000/svg"><path d="M38.45 82.8c-.17-.019-.75-.078-1.287-.13a38.688 38.688 0 01-1.554-.182c-1.239-.187-1.745-.27-2.086-.344-.196-.042-.595-.127-.888-.187a55.28 55.28 0 01-2.62-.649c-.882-.241-2.914-.929-3.64-1.231-.121-.051-.301-.122-.399-.158a8.619 8.619 0 01-.4-.162c-2.325-1.02-3.33-1.518-4.838-2.401-.537-.315-1.116-.651-1.287-.748-3.409-1.933-8.394-6.537-11.24-10.377-1.847-2.494-3.992-6.165-4.777-8.178-.086-.22-.217-.54-.291-.711-.243-.56-.281-.657-.612-1.556-.343-.93-.71-2.02-.846-2.51a79.963 79.963 0 00-.162-.578C-.095 47.044-.443 40.592.546 34.587c.149-.905.307-1.785.35-1.956.045-.171.203-.811.353-1.422.475-1.941 1.215-4.15 2.054-6.135 3.939-9.31 11.81-17.32 21.12-21.49a33.84 33.84 0 012.1-.873c1.734-.675 3.657-1.273 4.986-1.552a3 3 0 00.444-.117C32.025 1 33.998.602 34.81.467 35.403.37 36.256.26 37.749.094c1.104-.123 6.158-.123 7.262 0 3.344.373 5.03.687 7.733 1.438.723.201.867.243 1.332.388.268.084.568.186.665.227.098.041.358.133.577.205.37.12 2.03.783 2.753 1.1.611.267 2.806 1.356 3.329 1.651 1.405.793 1.502.853 3.143 1.95.655.438 1.377.942 1.605 1.12.227.178.548.424.711.547 3.8 2.838 8.06 7.767 10.574 12.238.458.813 1.718 3.32 1.892 3.762.14.359.26.644.505 1.2.453 1.033 1.487 4.23 1.767 5.467 1.451 6.397 1.601 12.564.44 18.089-1.355 6.45-3.694 11.683-7.529 16.844-3.92 5.277-10.04 10.238-15.727 12.749l-1.11.493c-.293.13-.772.329-1.065.44a19.43 19.43 0 00-.71.281c-.737.331-4.067 1.322-5.327 1.586-1.506.315-1.71.352-3.18.585-1.646.26-2.653.325-5.52.352-1.71.016-3.248.013-3.419-.005zm7.236-.737c13.575-1.52 25.163-9.32 31.673-21.32 1.842-3.394 3.458-7.921 4.102-11.49.574-3.176.704-4.638.698-7.867-.005-3.282-.293-6.234-.823-8.444l-.23-.978C78.82 22.091 72.579 13.125 64.02 7.415 55.338 1.623 44.684-.628 34.434 1.163l-.977.171c-2.063.362-5.106 1.276-7.693 2.312-.722.29-3.424 1.612-4.182 2.046l-.932.536c-4.325 2.491-8.656 6.376-11.93 10.703-.51.673-2.321 3.381-2.526 3.775-.067.13-.269.495-.45.813C3.363 25.723 1.67 30.758.98 35.697c-.456 3.267-.478 8.396-.047 11.11.024.148.089.588.145.979C3.516 64.804 17.64 79.038 34.767 81.738c.488.077 1.007.16 1.154.186 2.03.35 7.222.423 9.766.138zm-7.014-.144c-11.637-.847-21.895-6.266-29.13-15.39C3.575 59.004.374 49.052.889 39.63c.152-2.77.347-4.295.861-6.734C5.095 17.047 18.026 4.422 33.877 1.531c.931-.17 1.475-.251 2.975-.448 2.414-.317 6.803-.318 9.1-.001l1.331.18c1.373.181 3.45.608 4.795.984.766.215 3.043.94 3.285 1.046.097.043.617.248 1.154.456C65.575 7.25 73.709 14.893 77.985 23.92c9.007 19.018 2.201 41.52-15.844 52.38-2.837 1.708-5.871 3.027-9.53 4.145-4.038 1.232-9.426 1.802-13.94 1.474zm6.836-1.104l1.42-.194a37.783 37.783 0 005.772-1.25c.85-.253 1.65-.514 1.864-.609.098-.043.368-.14.6-.215.413-.134 1.15-.432 1.908-.77l.799-.356c.905-.402 2.223-1.093 3.707-1.942 4.848-2.776 10.773-8.54 13.253-12.893.097-.171.407-.691.688-1.156.889-1.47 2.056-3.864 2.663-5.467.13-.342.272-.702.315-.8.375-.852 1.367-4.371 1.666-5.91.796-4.093.996-8.57.543-12.134-.347-2.734-.645-4.313-1.188-6.299-.256-.938-1.12-3.472-1.427-4.19-.063-.146-.238-.566-.39-.933-.367-.89-1.66-3.446-2.136-4.222-.21-.342-.458-.757-.552-.922-.562-.985-2.21-3.248-3.407-4.678C66.471 9.735 59.15 5.108 51.412 3.109c-5.648-1.46-12.769-1.673-17.712-.53-.195.044-.595.13-.888.19-1.529.315-3.529.905-5.342 1.577-.705.262-.85.322-1.737.719a3.801 3.801 0 01-.469.188c-.197 0-3.86 1.943-4.526 2.4-.196.135-.515.334-.71.444-2.41 1.35-6.558 5.037-9.15 8.133-.396.474-.622.766-1.55 2-1.287 1.714-3.324 5.28-4.164 7.29-.113.268-.276.648-.364.844-.439.979-1.508 4.22-1.774 5.378-.485 2.113-.664 3.142-.996 5.733-.154 1.204-.154 6.707 0 7.91.296 2.314.448 3.258.728 4.534.48 2.187 1.393 5.082 2.124 6.733.102.231.186.442.186.467 0 .494 2.995 5.808 4.083 7.245.13.17.491.65.803 1.066 2.568 3.421 6.39 6.961 10.03 9.29.712.457.697.448 2.174 1.293 2.015 1.153 5.25 2.548 7.414 3.195.366.11.765.232.887.272 1.936.628 5.743 1.292 8.346 1.455 1.007.063 6.02-.027 6.703-.12zm-6.57-.902c-2.783-.283-4.001-.467-5.86-.888-1.124-.254-1.491-.345-2.13-.528-.17-.049-.44-.125-.6-.168-.71-.197-2.022-.659-2.164-.763-.148-.108-.138-.174.172-1.132.18-.56.33-1.054.33-1.1.007-.19.26-.418.373-.333.062.047.413.18.78.295.896.283.952.34.817.846-.148.555-.137.639.092.69.11.024.68.17 1.265.323 1.566.412 3.125.714 5.505 1.067.666.098.666.098.666-.48 0-.606-.022-.597 1.108-.473l.95.104-.064 1.117c-.071 1.245-.14 1.524-.372 1.506a54.475 54.475 0 01-.868-.083zm4.49.011c-.11-.069-.343-2.453-.25-2.546.055-.055 1.852-.219 1.921-.176.043.027.106.273.14.548l.062.499.503-.059c1.57-.183 4.307-.698 5.77-1.085.473-.125.969-.248 1.103-.272.284-.052.308-.206.106-.69-.207-.497-.152-.574.582-.814a9.63 9.63 0 00.872-.32c.26-.132.296-.078.6.91.127.416.288.927.357 1.137.068.21.125.396.125.414 0 .019-.29.14-.644.271-2.86 1.055-6.865 1.904-10.054 2.132-.44.032-.86.074-.932.094-.074.02-.19.001-.26-.043zm-2.34-1.394c-.035-.034-.063-.316-.063-.626v-.562h1.34l-.027.6-.026.6-.58.025c-.32.015-.61-.002-.644-.037zm-14.912-1.385c-.479-.206-.495-.267-.234-.876.214-.498.306-.525.904-.268.493.211.535.277.377.596a6.68 6.68 0 00-.219.5c-.109.29-.25.298-.828.048zm29.719-.302c-.256-.58-.244-.616.283-.842.603-.259.69-.231.904.286.259.624.25.65-.267.865-.635.264-.673.252-.92-.309zm-16.513-.175c-2.845-.167-6.105-.818-9.145-1.827-.783-.26-.927-.312-1.376-.504a247.19 247.19 0 00-1.11-.465c-5.454-2.276-10.872-6.519-14.437-11.304-1.986-2.667-3.068-4.573-4.602-8.115-.444-1.027-1.394-4.058-1.678-5.356-.283-1.293-.438-2.163-.543-3.044l-.18-1.503c-.05-.411-.09-1.283-.09-1.938s-.046-1.376-.102-1.602l-.104-.411 1.396-1.314.163.206c.09.114.29.386.445.604l.28.398-.019 1.069c-.036 1.962.394 5.564.88 7.38l.187.711c.05.196.122.456.16.578.037.122.118.402.18.622.06.22.21.7.332 1.067.196.59.35.997.894 2.355.304.76 1.873 3.774 2.36 4.534 1.651 2.574 2.97 4.202 5.081 6.27 2.202 2.158 4.357 3.778 7.077 5.321.718.408 2.668 1.36 3.297 1.609.098.039.318.131.488.205.609.264 2.437.89 3.33 1.141l.621.175c.723.203 1.658.399 2.93.613 3.6.606 7.918.57 11.053-.09 1.784-.376 2.432-.529 3.019-.712.122-.038.461-.139.754-.224.606-.175 1.876-.632 2.108-.758a.684.684 0 01.245-.084c.086 0 .286-.084 1.42-.597A53.213 53.213 0 0057.24 70.4l.623-.353c9.46-5.364 15.999-16.02 16.496-26.883.14-3.07.11-2.96 1.235-4.335.912-1.114 1.299-1.69 1.299-1.935 0-.437-.317-2.069-.458-2.36-.074-.152-.014-.34.318-1 .433-.865.518-.925.92-.65.132.091.35.232.483.313.409.248.508.51.78 2.067.332 1.907.333 1.886-.072 2.403-.876 1.12-1.55 2.018-1.921 2.56l-.406.593v.9c0 1.215-.243 3.997-.442 5.044-.041.22-.124.7-.184 1.067-.29 1.763-1.402 5.495-2.09 7.002a4.82 4.82 0 00-.213.514c0 .314-2.152 4.266-3.047 5.595-2.04 3.03-5.193 6.378-7.874 8.363-1.842 1.364-2.412 1.764-2.93 2.058-.17.097-.75.434-1.287.749-1.368.801-2.465 1.32-5.06 2.394-.383.158-2.092.697-3.019.95-1.927.53-3.112.76-5.593 1.086-.725.096-4.453.183-5.416.126zm-14.827-.561a42.565 42.565 0 00-1.021-.557c-3.158-1.677-5.724-3.652-8.927-6.866-4.245-4.26-6.848-8.127-9.046-13.431a110.6 110.6 0 00-.41-.978c-1.192-2.739-2.123-7.71-2.155-11.511-.02-2.382-.113-2.169 1.754-4.005 1.566-1.54 1.497-1.432 1.729-2.712.053-.296.097-.636.098-.755 0-.612.166-.871.847-1.331.938-.634.886-.635 1.194.016.28.595.32.899.18 1.409a15.77 15.77 0 00-.218 1.222c-.074.501-.197 1.032-.273 1.18-.126.242-1.913 2.045-2.72 2.742-.595.515-.643.724-.58 2.542.07 2.008.22 3.267.687 5.736.295 1.558 1.104 4.187 1.69 5.488.093.207.169.404.169.437 0 .2 1.637 3.536 2.306 4.698 3.119 5.416 7.615 10.182 13.027 13.808.798.534 1.091.653 1.091.445 0-.057.102-.236.226-.399l.225-.295.64.315c.886.435 1.087.555 1.07.635-.065.297-1.12 2.334-1.206 2.329-.061-.003-.231-.076-.378-.162zM57.313 75.1c-.645-1.315-.633-1.277-.42-1.34.085-.026.487-.21.893-.41l.738-.364.176.4c.097.22.219.399.27.399.26 0 3.373-2.254 5.219-3.777 4.62-3.814 8.478-8.892 10.773-14.179.074-.17.216-.492.316-.714.347-.776 1.048-2.726 1.268-3.53.043-.159.122-.439.174-.622.239-.842.684-2.938.835-3.933.52-3.44.49-5.559-.093-6.356l-.195-.267.5-.684c.275-.376.544-.686.597-.689.143-.007 1.227 1.147 1.416 1.507.332.631.147 5.025-.314 7.466l-.182.978c-.219 1.181-.964 3.85-1.328 4.756-.04.097-.242.618-.451 1.155a40.764 40.764 0 01-.94 2.166 45.4 45.4 0 00-.561 1.21c0 .025-.967 1.773-1.322 2.392-2.6 4.526-7.607 9.836-12.314 13.058-1.527 1.045-4.143 2.552-4.431 2.552-.027 0-.307-.528-.624-1.173zm-30.472.395c-.545-.275-.529-.219-.238-.855.263-.576.235-.567.879-.282.562.249.582.319.267.941-.256.507-.281.512-.908.196zm28.436-.191c-.125-.246-.226-.508-.226-.583 0-.127.797-.58 1.022-.58.092 0 .623 1.054.559 1.11-.07.06-.76.384-.934.438-.168.053-.227-.002-.422-.385zM38.937 72.8c-2.174-.223-3.887-.517-5.46-.938l-1.11-.297c-5.55-1.49-11.561-5.557-15.508-10.491-5.887-7.36-8.096-16.617-6.238-26.133 1.218-6.244 4.978-12.7 9.937-17.061.852-.75 1.323-1.125 2.797-2.23a30.455 30.455 0 011.953-1.27c1.15-.658 1.494-.84 2.486-1.318 1.076-.518 1.358-.647 1.731-.792 3.374-1.308 5.554-1.831 9.056-2.174 2.83-.278 6.556-.068 9.278.522 7.546 1.635 14.094 5.83 18.745 12.012 1.419 1.886 3.123 4.906 3.886 6.889.16.415.326.835.368.933.572 1.322 1.426 4.746 1.674 6.711.222 1.767.274 2.573.274 4.267 0 2.817-.277 5.078-.95 7.733-.21.834-.846 2.9-.997 3.244-.043.098-.138.338-.21.534-1.583 4.264-4.864 8.915-8.585 12.169-1.099.96-3.67 2.898-3.847 2.898-.022 0-.385.216-.805.48-.959.603-2.967 1.588-4.36 2.14l-1.243.492c-.173.068-.384.138-1.02.339-.29.09-.485.144-1.776.49-2.835.759-7.3 1.136-10.077.852zm4.68-.792c2.118-.203 2.6-.27 3.976-.55 1.332-.27 4.13-1.082 4.549-1.32a.667.667 0 01.248-.086c.052 0 .26-.08.462-.178.202-.098.398-.178.435-.178.128 0 2.515-1.191 3.361-1.677 4.236-2.433 8.485-6.548 10.793-10.451.143-.242.371-.622.507-.845.39-.64 1.607-3.174 1.924-4.005l.458-1.2c1.672-4.39 2.13-10.71 1.15-15.867-.134-.7-.388-1.82-.525-2.31-1.989-7.143-6.295-13.145-12.457-17.365-.618-.423-1.143-.77-1.167-.77-.024 0-.309-.161-.634-.359-2.387-1.452-5.54-2.658-9.06-3.465-.436-.1-1.757-.311-2.885-.461-2.768-.368-7.928-.022-10.743.721-7.828 2.067-14.13 6.591-18.397 13.21-.824 1.276-2.29 4.014-2.29 4.276 0 .02-.083.226-.186.458-2.368 5.35-3.017 12.383-1.687 18.288.044.195.122.555.174.8.54 2.54 2.03 6.124 3.648 8.774 3.24 5.304 8.767 10.087 14.065 12.172.25.098.575.23.722.295.146.064.406.164.577.224.17.06.39.143.488.185.098.042.457.161.8.265.341.103.72.223.843.266.36.127 1.863.499 2.486.614l.976.182c2.058.386 5.408.548 7.388.357zm-8.66-2.062c-.166-.06-.232-.135-.2-.222a1.37 1.37 0 00.051-.384c0-.29.152-.354.607-.256.4.086.41.105.282.565-.122.436-.236.481-.74.297zm-.97-.225c-.275-.041-.315-.24-.146-.726.104-.297.12-.299.689-.085.162.06.197.123.156.277a1.9 1.9 0 00-.054.398c-.001.208-.074.223-.645.136zm5.704-.53c-1.338-.06-3.99-.467-5.327-.82-1.257-.331-1.417-.38-2.619-.812-1.451-.52-3.751-1.722-5.323-2.782-1.364-.92-3.422-2.576-3.42-2.752 0-.059.41-.573.91-1.144.5-.57 1.148-1.318 1.44-1.661.624-.73.574-.711.974-.36.41.36.412.351-.285 1.128-1.112 1.237-1.614 1.84-1.617 1.942-.006.207 2.959 2.433 3.24 2.433.06 0 .32-.37.578-.823.258-.452.48-.837.495-.855.057-.073.449.086.687.28l.253.205-.5.835c-.276.46-.482.885-.459.945.08.206 2.27 1.229 2.385 1.113.057-.056.25-.472.43-.924.354-.891.413-.94.904-.734.41.172.412.252.013 1.24-.173.432-.297.833-.275.892.035.09.681.32 2.173.776.364.11.349.127.512-.56.366-1.546.308-1.459.876-1.316.479.121.497.216.226 1.192-.26.943-.25.989.245 1.096 1.21.261 3.407.518 3.57.417.057-.035.092-.56.092-1.372 0-2.181.015-2.224.737-2.16l.427.038-.061 1.302c-.034.716-.086 1.741-.116 2.28-.063 1.12.066 1.014-1.165.96zm3.143-.012c-.087-.06-.305-1.575-.302-2.105 0-.326.274-.794.55-.944.44-.238 2.38-.459 2.38-.27 0 .132.184 1.562.228 1.77.054.257.217.255 1.281-.018.811-.208 2.849-.851 3.263-1.03l.444-.187c1.551-.64 1.622-.679 1.553-.852-.036-.09-.395-.809-.797-1.596-.553-1.085-.704-1.453-.621-1.52.156-.124.663-.375.758-.375.085 0 2.06 3.886 2.06 4.052 0 .053-.285.226-.632.384l-1.176.538c-.988.453-1.158.52-2.1.832-1.603.53-3.36.912-5.593 1.211-.415.056-.856.117-.98.136-.125.02-.267.007-.316-.026zm1.796-1.217c.074-.022.073-.165-.004-.548l-.104-.518-.396.031c-.528.042-.608.123-.556.573.069.6.067.599.535.543a5.63 5.63 0 00.525-.08zm-14.017.782c-.367-.147-.394-.24-.204-.695.149-.358.12-.35.58-.165.403.161.404.164.225.595-.171.409-.205.424-.601.265zm-3.282-1.732l-.33-.192.195-.362c.107-.199.205-.378.218-.398.059-.092.735.301.735.427 0 .17-.323.721-.42.718-.037 0-.216-.088-.398-.193zm-.824-.48a3.437 3.437 0 00-.299-.207c-.098-.056-.08-.14.089-.437.242-.425.266-.432.665-.185.35.217.36.274.115.672-.205.33-.307.359-.57.157zm29.078-.402c-.335-.462-.334-.468.033-.695.166-.103.324-.245.351-.316.114-.296-.175-.205-.976.31-.467.3-.86.532-.872.517a27.59 27.59 0 01-1.056-1.645c-.366-.712-.085-1.404.77-1.894 1.017-.585 1.44-.386 2.448 1.15.638.973.674 1.055.675 1.53 0 .563-.099.72-.73 1.155l-.375.26zm-.686-1.854c.494-.314.486-.27.146-.764-.318-.463-.35-.469-.8-.15-.414.293-.41.27-.106.775.289.479.24.47.76.139zM43.12 65.36c-.08-.129-.095-.684-.023-.8.13-.213.756-.133.816.103.127.51.023.72-.375.749-.203.015-.391-.008-.418-.052zm1.139-.132a2.374 2.374 0 01-.064-.46c-.02-.339-.012-.35.327-.423.42-.09.494-.03.558.45.052.392.045.4-.488.492-.19.033-.306.012-.333-.06zm12.579-1.532c-.376-.428-.366-.457.392-1.06s.75-.58.387-1.038c-.35-.444-.375-.44-1.048.147l-.565.494-.197-.185c-.463-.435-.471-.592-.05-.958 1.297-1.128 1.812-1.12 2.808.042l.68.791c.163.187.159.193-.906 1.111-1.275 1.1-1.157 1.049-1.502.656zm-17.325-1.035c-2.28-.233-3.85-.61-5.949-1.43-5.958-2.327-10.998-7.844-12.608-13.801-.248-.917-.342-1.309-.438-1.823l-.182-.977c-.44-2.344-.266-5.815.42-8.445.224-.856.268-1.01.451-1.566 1.901-5.771 6.596-10.714 12.357-13.012 1.356-.54 1.916-.711 3.485-1.061 3.231-.722 6.665-.578 10.41.435.97.262 2.854 1.027 3.735 1.517l.837.466c7.504 4.184 11.773 13.166 10.382 21.844-.182 1.135-.416 2.088-.83 3.38-1.368 4.264-4.473 8.328-8.346 10.927-1.005.674-2.41 1.463-3.083 1.731-.212.085-.506.207-.653.272-2.815 1.248-6.82 1.867-9.988 1.543zm3.995-1.012c1.392-.165 1.412-.169 2.974-.535 6.136-1.438 11.714-6.488 13.99-12.668.293-.793.318-.874.61-1.994 2.375-9.099-2.029-18.867-10.428-23.132-1.34-.68-2.2-1.03-3.551-1.44-2.948-.894-6.916-1.03-10.032-.345-6.64 1.462-12.24 6.264-14.65 12.562-.857 2.24-1.375 5-1.375 7.332 0 1.786.271 3.6.882 5.911.476 1.8 1.901 4.548 3.358 6.475 2.407 3.184 6.684 6.156 10.21 7.093l.621.167c2.336.633 5.098.847 7.391.574zm-7.28-8.402c-7.285-.552-12.344-7.922-10.34-15.062 1.817-6.474 8.733-10.161 15.11-8.057 2.105.695 4.324 2.242 5.607 3.91.505.656.457.763-.101.225-.585-.564-1.168-1.027-1.598-1.269l-.622-.348c-2.069-1.158-4.905-1.463-7.302-.786a9.958 9.958 0 00-6.731 6.464c-.795 2.435-.58 5.428.542 7.559 1.825 3.464 5.013 5.413 8.852 5.413 2.613 0 4.587-.745 6.612-2.497.392-.34.713-.593.713-.565 0 .346-2.062 2.405-3.063 3.06-2.337 1.525-4.859 2.167-7.68 1.953zm13.087-6.53c.033-.39.117-1.29.186-1.999.068-.709.136-1.469.149-1.689l.024-.4-.53-.212c-.499-.199-.909-.352-2.66-.998-1.129-.416-1.124-.469.059-.71.91-.186 1.529-.32 2.07-.449.195-.046.534-.119.754-.16.9-.174.852-.098.918-1.477.032-.672.058-1.659.058-2.193 0-.737.027-.962.111-.935.061.02.637.913 1.28 1.985.642 1.072 1.229 1.962 1.304 1.977.074.015.407-.053.74-.152.333-.098.845-.244 1.138-.323 2.738-.741 2.618-.744 1.886.045-.454.49-1.09 1.21-2.139 2.42l-.516.596 1.21 1.837c.665 1.011 1.19 1.858 1.165 1.882-.038.038-.95-.31-1.695-.65-1.15-.523-2.589-1.106-2.679-1.085-.085.019-2.22 2.62-2.5 3.047-.303.459-.395.36-.333-.357zM19.224 57.032c-.275-.366-.487-.733-.471-.817.036-.186 1.281-1.095 1.5-1.095.155 0 1.147 1.297 1.147 1.499 0 .142-1.304 1.078-1.503 1.078-.112 0-.35-.235-.673-.665zm42.81.36c-1.01-.701-1.024-.758-.39-1.606.582-.776.666-.787 1.44-.195.774.592.785.67.205 1.465-.54.742-.632.767-1.254.335zm-47.951-5.039c-.08-.202-.135-.376-.121-.389.106-.09.619-.31.722-.31.109 0 .47.69.395.754-.106.09-.619.312-.722.312-.07 0-.194-.165-.274-.367zm1.993.089c-.17-.104-.358-.254-.418-.333-.216-.286-.85-1.979-.772-2.058.095-.094 1.348-.619 1.489-.623.4-.011.427-.21.155-1.128-.408-1.374-.639-2.61-.9-4.816-.049-.412-.089-1.376-.089-2.143v-1.395l-.932-.06c-1.234-.08-1.212-.069-1.18-.622l.026-.455 2.154.041.055-.276c.03-.152.056-.421.057-.599 0-.308.218-1.675.313-1.978.057-.18-.05-.225-1.114-.469l-.843-.193.005-.42c.009-.694.005-.694 1.68-.281.54.133.55.127.666-.34.197-.796.518-1.815.755-2.397.052-.125-.021-.193-.367-.344a56.405 56.405 0 01-1.764-.792 15.243 15.243 0 00-.779-.345c-.337-.128-.38-.302-.173-.695.21-.4.305-.402 1.125-.026.713.327.67.327.67.005 0-.247.14-.615.619-1.623.408-.862 1.098-1.008 2.245-.476.38.175.719.32.755.321.036.001.155.071.263.156l.196.153-.356.798c-.926 2.074-1.832 4.602-2.293 6.393-.239.93-.312 1.267-.532 2.454-.663 3.578-.057 7.993 1.77 12.889.397 1.066.395 1.057.207 1.118-.09.03-.245.086-.343.126-1.68.685-1.879.721-2.35.433zm1.188-1.102c.19-.08.317-.186.293-.247-.375-.942-.37-.937-.663-.779a5.683 5.683 0 01-.442.2c-.31.124-.332.168-.21.407.043.085.13.267.195.404.127.272.209.274.827.015zm.707-21.22c.115-.257.298-.655.407-.885.109-.23.173-.458.142-.508-.048-.078-.8-.451-.91-.451-.02 0-.198.342-.394.76-.391.836-.395.8.146 1.3.355.328.37.323.61-.216zm46.755 22.232c-1.044-.43-1.243-.524-1.243-.591 0-.05.478-1.31.8-2.107.87-2.159 1.344-4.108 1.521-6.274.123-1.495.114-1.538-.339-1.685-.587-.19-.813-.41-.966-.934-.24-.825-.178-.969.427-1l.51-.027v.308c0 .396.077.59.232.59.099 0 .124-.207.124-1.017 0-.56.034-1.039.076-1.065.231-.143 2.155-.063 2.473.102.876.455.997 2.053.206 2.72-.254.213-.553.291-1.335.348l-.31.023-.058 1.066c-.048.888-.295 2.612-.487 3.391-.041.167 0 .2.324.254.53.09.49.187.888-2.165.092-.54.204-.718.424-.677l.729.134c1.41.255 1.762.796 1.426 2.188-.058.237-.218.964-.357 1.614-.296 1.392-.233 1.295-.797 1.218-.56-.077-.576.295.133-3.052.155-.737.097-.905-.313-.905-.23 0-.247.031-.355.645-.313 1.775-.711 2.239-1.766 2.058a9.451 9.451 0 00-.488-.076c-.042-.002-.132.176-.2.396-.407 1.299-.496 1.573-.564 1.733-.254.595-.643 1.655-.615 1.673.183.116.74.327.865.327.188 0 .267-.15.728-1.378.264-.704.278-.715.605-.44.507.427.51.486.1 1.507-.558 1.39-1.094 1.635-2.397 1.098zm3.216-11.832c.02-.061.02-.301 0-.533l-.037-.422h-1.048v1.066h.523c.34 0 .537-.039.562-.11zM13.818 51.587c-.062-.061-.318-.624-.318-.698 0-.051.63-.302.759-.302.118 0 .395.47.395.67 0 .165-.718.448-.836.33zm3.296-11.01c-.11-.11-.07-.813.048-.855.061-.021.283-.021.493 0l.382.04-.027.412-.027.413-.402.026c-.222.015-.432-.002-.466-.037zm.062-1.136c-.027-.069-.035-.279-.02-.467.027-.331.04-.343.383-.366.522-.034.612.058.54.547l-.062.41h-.397c-.258 0-.413-.044-.444-.124zm48.486-1.499c-.02-.06-.121-.57-.224-1.133-.474-2.587-1.142-4.616-2.231-6.784-1.242-2.472-2.81-4.597-4.906-6.653l-1.057-1.037.7-.765c1.276-1.396 1.696-1.421 3.012-.178l.791.747-.307.335a78.17 78.17 0 01-.744.797l-.437.462.347.422c1.814 2.205 3.897 5.743 4.57 7.765.041.122.273.802.516 1.51l.441 1.287.34-.042c1.706-.212 2.077.205 2.367 2.66.017.137-.42.265-1.538.451-.367.06-.806.146-.977.189-.429.107-.62.098-.663-.033zm1.795-1.27c.149-.047.143-.674-.008-.881-.097-.133-.199-.155-.54-.116-.564.063-.608.124-.489.678l.1.465.413-.056c.227-.03.463-.07.524-.09zm-7.258-14.455c0-.115-.572-.607-.706-.608-.147 0-.714.522-.714.658 0 .05.148.242.329.427l.329.338.381-.375c.21-.206.381-.404.381-.44zM12.713 34.936c-.186-.074-.202-.122-.148-.417.084-.459.153-.506.597-.41.368.08.381.095.359.392-.043.552-.244.661-.808.435zm7.052-7.507c-1.622-1.123-1.843-1.723-1.047-2.845.58-.817 1.313-.916 2.209-.299.205.142.393.257.418.257.085 0 2.186-2.178 2.164-2.244-.012-.036-.54-.612-1.176-1.28-.634-.667-1.168-1.251-1.186-1.297-.04-.104.519-.69.66-.69.112 0 3.235 3.236 3.234 3.352 0 .039-.44.47-.979.958-.537.489-1.159 1.1-1.382 1.358l-.404.469.226.269c.415.494.47.889.2 1.442-.37.756-.473.815-.925.525-.437-.28-.448-.33-.16-.72.198-.269.223-.542.049-.542-.04 0-.261.27-.493.6-.798 1.138-.774 1.126-1.408.687zm.682-1.469c.324-.469.312-.53-.16-.828-.449-.284-.544-.254-.855.275-.176.298-.146.358.325.675.437.294.397.302.69-.122zm4.36-4.674l-.742-.97c-.122-.16-.492-.63-.822-1.048-.692-.876-.7-.911-.293-1.237.437-.349.188-.567 2.035 1.788 1.302 1.659 1.323 1.7.988 1.879-.122.065-.222.152-.222.193 0 .04-.095.074-.21.074-.16 0-.342-.17-.733-.68zm36.785-.015c-.131-.137-.239-.285-.239-.329 0-.116.46-.577.577-.577.055 0 .215.12.355.266l.254.266-.215.244c-.403.455-.418.458-.732.13zm-6.268-.378a2.999 2.999 0 00-.35-.256c-.112-.063-.043-.206.397-.819.293-.408.906-1.272 1.363-1.92.457-.648.856-1.178.887-1.178.101 0 .802.546.802.625 0 .042-.04.1-.09.132-.05.03-.389.483-.754 1.005-2.011 2.877-1.874 2.73-2.255 2.41zm5.427-.443c-.323-.295-.308-.402.113-.796l.237-.222.626.683-.293.303c-.352.363-.321.361-.683.032zm-33.067-.374c-.53-.82-.956-1.764-.955-2.124 0-.651.177-.843 1.45-1.579.825-.477.798-.48 1.118.08a932.271 932.271 0 00.914 1.6c.097.172.216.361.265.421.128.158.033.34-.257.49-.515.267-2.029 1.148-2.11 1.228-.138.137-.287.096-.425-.116zm1.03-1.452c.48-.268.483-.283.18-.8-.264-.452-.3-.461-.735-.197-.457.278-.47.328-.213.801.27.498.242.49.769.196zm25.575 1.568c-.046-.044-.501-.323-1.013-.62l-.93-.54-.313.349c-.516.574-.922.634-1.755.26-.427-.192-.431-.205-.235-.697.157-.39.345-.45.74-.23.235.13.45.095.45-.072 0-.057-.401-.279-.89-.492-.49-.213-.91-.42-.935-.459-.105-.17.94-2.13 1.228-2.307.703-.43 2.004.01 2.425.82.183.353.153.704-.11 1.313-.13.297-.22.553-.2.568.539.418 1.5.747 1.5.514 0-.046.153-.337.34-.648.189-.31.444-.744.568-.964.806-1.428.735-1.37 1.262-1.058.455.269.592-.063-1.436 3.474-.43.751-.571.91-.696.789zm-2.39-2.911c.279-.667.273-.693-.194-.896-.275-.119-.462-.155-.527-.101-.15.125-.43.911-.337.947.044.017.22.105.391.195.447.236.515.22.667-.145zm-21.044.888c-.207-.497-.153-.566.712-.915.867-.35.92-.419.711-.92-.187-.448-.303-.472-.978-.201-.748.3-.814.294-.974-.09-.23-.552-.203-.591.642-.904 1.34-.495 1.878-.291 2.295.871.182.506.168.501.829.273 3.23-1.11 8.418-1.17 13.234-.149.366.078.694.142.729.142.097 0 .268-.649.234-.886-.033-.223-.094-.251-.963-.444-1.325-.295-1.321-.292-.86-.837l.291-.345.75.158c1.842.386 2.086.806 1.6 2.75-.221.89-.222.89-.905.726-6.338-1.529-10.933-1.253-16.708 1.002-.395.155-.493.12-.64-.231zm-4.434-1.838c-.304-.398-.284-.511.134-.738l.357-.194.219.348c.286.454.281.478-.133.695l-.353.184zm.946-.667c-.245-.436-.251-.404.122-.624.414-.244.433-.24.652.13.253.43.237.515-.128.69-.42.2-.424.2-.646-.196zM74.74 38.24c-.436-.485-.5-.671-.738-2.142-.251-1.547-.249-1.559.714-3.45l.848-1.664-.22-.843c-.323-1.234-.33-1.253-.561-1.671l-.213-.384.228-.645c.125-.354.228-.712.228-.796 0-.224.229-.274.556-.12.158.073.434.194.614.268.44.182.547.371 1.04 1.852.686 2.055.676 1.963.279 2.696-1.607 2.96-1.596 2.925-1.331 4.49.237 1.402.238 1.396-.332 2.126-.642.822-.63.819-1.112.283zm-70.671-.21c-.698-.821-.678-.617-.282-2.976.262-1.56.21-1.48 1.502-2.332a71.595 71.595 0 001.725-1.175c.707-.505.645-.4 1.065-1.804.102-.343.23-.768.284-.945.082-.267.176-.357.554-.525.25-.111.623-.28.829-.374.47-.217.509-.19.647.463.136.64.081 1.126-.211 1.884-.12.31-.31.82-.424 1.135-.26.715-.478.924-2.117 2.028-1.57 1.057-1.62 1.144-1.744 3.045l-.05.755-.545.562c-.785.807-.77.804-1.233.259zm69.669-5.51c-.728-.594-.853-.816-1.225-2.185-.402-1.476-.379-1.913.196-3.658.25-.757.453-1.477.452-1.6 0-.266-.583-1.434-1.06-2.128l-.34-.495.079-.667c.134-1.119.118-1.09.55-1.026 1.07.157 1.263.283 1.74 1.137l.377.667c.48.84.875 1.643.875 1.773 0 .079-.144.587-.32 1.13a78.642 78.642 0 00-.612 1.99l-.292 1.005.222.595c.121.328.252.716.29.862.038.147.147.487.244.756l.176.489-.41.819c-.463.928-.463.929-.942.537zm-68.34-.666a17.774 17.774 0 00-.317-.58c-.202-.356-.25-.895-.107-1.238.046-.113.191-.565.323-1.005.406-1.363.684-1.894 1.075-2.056.43-.178.993-.429 1.67-.743.292-.136.792-.366 1.11-.511.717-.328.665-.265 1.491-1.8.46-.855.61-1.042.882-1.096.135-.027.445-.096.689-.155.899-.214.884-.223.914.563.024.637.004.73-.26 1.2-.156.28-.457.83-.669 1.22-.392.726-.734 1.096-1.221 1.322-.43.199-1.213.546-1.648.731-1.077.458-1.282.601-1.516 1.059-.24.47-.568 1.466-.666 2.023-.053.3-.136.384-.807.822-.877.572-.786.549-.942.244zm66.216-5.005c-.54-.269-.707-.47-1.356-1.63-.9-1.608-.939-1.752-.744-2.783.112-.591.296-2.093.306-2.5.011-.413-.53-1.213-1.354-2.001l-.542-.52V15.63l.739.046c.897.056.892.053 1.863 1.169 1.181 1.358 1.428 1.762 1.357 2.217-.588 3.738-.604 3.615.817 6.033.111.19.12.284.041.445a8.525 8.525 0 00-.296.848c-.217.717-.267.745-.831.463zm-63.916-.955c-.363-.587-.532-1.547-.324-1.84.035-.05.234-.41.443-.8.58-1.089 1.046-1.872 1.174-1.974.148-.118.536-.24 1.536-.479.44-.105 1.219-.306 1.731-.447 1.032-.282.9-.18 2.075-1.608.771-.937.813-.956 2.076-.958l.466-.001v.486c0 .795-.284 1.28-1.434 2.45-.882.896-1.063 1.038-1.451 1.142a50.24 50.24 0 00-.71.195c-.147.042-.626.16-1.066.262-1.407.325-1.408.326-1.771.875-.182.276-.505.861-.717 1.301-.32.666-.435.82-.68.92-.162.066-.498.216-.747.333-.5.236-.538.245-.601.143zm60.7-4.221c-.541-.195-1.356-1.048-2.308-2.42-.24-.345-.385-1.423-.385-2.862 0-.782-.037-1.173-.127-1.348-.139-.268-.982-1.037-1.708-1.557l-.46-.329-.193-.849c-.108-.474-.16-.883-.117-.926.042-.042.404-.104.805-.137.846-.07.732-.131 2.307 1.231 1.297 1.122 1.241 1.022 1.306 2.356.17 3.486.025 2.971 1.228 4.372.767.893.774.917.586 2.055-.117.709-.114.708-.934.414zm-57.511-1.508c-.165-.528-.233-1.31-.132-1.502.15-.28 1.514-1.94 2.045-2.485.417-.429.432-.435.974-.435.48 0 1.334-.065 3.08-.235.432-.042.536-.102 1.323-.772 1.502-1.278 1.231-1.151 2.224-1.04 1.043.116 1.05.121.874.728-.182.626-.41.934-1.115 1.502-.317.256-.737.616-.932.8-.509.478-.982.602-2.688.706-.817.05-1.593.113-1.725.14-.29.06-1.679 1.49-1.936 1.995-.145.284-.245.364-.554.44-.207.051-.522.133-.698.181-.435.119-.699.11-.74-.023zm53.606-2.905c-.445-.073-.721-.26-1.873-1.266-1.058-.925-1.082-.971-1.493-2.88-.178-.828-.364-1.616-.414-1.751-.134-.362-2.055-1.576-2.494-1.576-.142 0-.77-1.337-.77-1.64 0-.185.08-.237.629-.407.78-.241.902-.217 1.984.397.48.272.89.494.911.494.076 0 .873.562 1.115.786.138.128.244.32.244.443 0 .12.039.362.086.539.048.177.233.941.411 1.7.37 1.568.313 1.479 1.656 2.604l.865.725v1.915l-.244-.012a6.601 6.601 0 01-.613-.071zm-49.304-2.754c0-.92-.01-.908 1.509-2.204 1.389-1.186 1.274-1.134 2.243-1.01 2.807.358 3.527.368 3.883.053.128-.113.446-.298 1.198-.697.196-.104.42-.242.5-.307.122-.099.257-.087.844.073.384.105.788.212.898.237.591.135-.241 1.425-1.265 1.959-1.877.98-2.457 1.099-3.982.816a9.706 9.706 0 00-1.241-.11l-.734-.018-.484.393c-.266.217-.744.642-1.061.946l-.577.552-1.731.095zm44.26-.964c-.097-.023-.396-.19-.666-.37-.27-.181-.822-.521-1.226-.756-.993-.577-1.19-.87-2.057-3.053-.36-.906-.53-1.128-1.044-1.362-.569-.26-1.679-.614-1.923-.614-.158 0-.323-.17-.708-.733-.583-.85-.603-.958-.213-1.126.158-.068.394-.198.524-.288.282-.196.785-.21 1.274-.034l1.364.484c.555.196 1.105.42 1.223.498.168.11.742 1.14.742 1.332 0 .022.103.27.23.553 1.012 2.27.98 2.223 1.766 2.61 1.36.672 1.663.897 1.777 1.326.255.957.326 1.353.254 1.419-.095.087-1.08.172-1.317.114zM20.85 11.171c-.814-.126-.795-.112-.69-.5.045-.168.105-.455.133-.637.058-.377.354-.769.723-.96.138-.073.497-.28.798-.46 1.806-1.086 1.843-1.092 3.495-.559 1.783.575 2.279.69 2.663.618.171-.031.351-.087.4-.122.049-.036.268-.12.488-.188.22-.068.61-.215.868-.328.258-.112.55-.204.65-.204.24 0 1.592.702 1.651.858.095.246-.657 1.067-1.153 1.26-2.539.987-2.69 1.006-4.147.521-.22-.073-.809-.26-1.309-.414l-.91-.28-.821.392c-.452.216-1.04.558-1.307.761-.526.4-.52.398-1.532.242zm32.736-.579a106.27 106.27 0 00-1.11-.404c-1.359-.487-1.242-.38-2.453-2.223-.482-.734-.918-1.378-.968-1.432-.173-.185-1.106-.428-2.217-.578l-.799-.108-.6-.583c-.329-.321-.598-.633-.598-.693 0-.06.249-.311.553-.558.598-.484.827-.536 1.605-.367.204.044.652.129.993.188.554.096 1.11.227 1.708.404.11.032.284.204.388.381.737 1.258 2.016 3.04 2.272 3.166.345.17 1.944.759 2.235.824.145.033.265.174.388.457.098.225.273.621.389.88.116.257.211.486.211.507 0 .079-.932.312-1.237.309-.174-.002-.516-.078-.76-.17zM47.86 8.945a111.86 111.86 0 00-1.376-.318c-1.124-.253-1.367-.418-2.626-1.796-.547-.599-1.089-1.14-1.204-1.202-.216-.118-2.065-.164-2.63-.066-.247.043-.38-.02-.953-.447-.779-.58-.808-.648-.456-1.036.146-.161.338-.376.427-.478.09-.102.298-.232.464-.289.38-.13 3.1-.14 3.437-.011.134.051.895.767 1.692 1.59.796.824 1.542 1.521 1.658 1.55.116.03.467.093.778.142.558.088 1.264.222 1.653.314.175.041.998 1.125 1.144 1.505.034.088-.13.209-.542.4-.653.302-.76.313-1.466.142zm-14.47-.069a119.74 119.74 0 01-2.487-1.235c-.268-.137-.595-.25-.725-.251-.297-.003-1.667.473-2.222.773-.404.218-.43.221-.844.091a36.992 36.992 0 00-.847-.253c-.49-.139-.506-.204-.23-.891.306-.76.487-.91 1.53-1.274.2-.07.758-.27 1.24-.444 1.12-.405.954-.429 2.548.373.754.38 1.625.806 1.937.948l.566.257.766-.186c.42-.102 1.014-.234 1.318-.292l.554-.107.467.356c.258.196.578.426.712.511.34.216.312.312-.234.829-.483.457-.572.497-1.297.59-.22.028-.72.11-1.11.182-.833.153-1.335.16-1.643.023zm6.08-.782c-.196-.096-.895-.577-1.554-1.071-1.634-1.225-1.518-1.176-2.46-1.022-.429.07-.96.174-1.179.23-.828.208-.833.208-1.584-.17-.838-.422-.822-.378-.398-1.116.341-.594.602-.775 1.272-.884.17-.028.49-.09.71-.14.22-.05.767-.153 1.216-.229.953-.162.83-.205 2.117.756l1.328.994c.803.601.84.61 2.367.611h1.39l.563.63c.31.346.575.682.59.748.028.12-.538.544-.986.738-.441.19-2.96.135-3.392-.075z" fill="#bc8c46"/></svg>