<svg xmlns="http://www.w3.org/2000/svg" fill-rule="evenodd" height="600" width="477" version="1.0" clip-rule="evenodd" shape-rendering="geometricPrecision" text-rendering="geometricPrecision" image-rendering="optimizeQuality"><defs><style>.fil1{fill:#000}.fil5{fill:#097754}.fil3{fill:#d10429}.fil2{fill:#f5d402}</style></defs><g id="Layer_x0020_1"><path id="path2778" fill="#b07f55" d="M182.93 156.21l-14.64-3.34-30.67-16.18-19.38-1.06-1.33-37.557-37.156-29.869L41.866 109.1l-5.412 12.03 1.738 372.06 24.523-29.67 5.144 1.27 25.324-27.4 21.517-54.26 6.35-22.52 29 34.28-10.96 20.25 9.96-.74.87 8.49 9.15-3.88 2.47 11.7 20.18-20.45 28.07 13.83-53.26 94.89-18.97 14.03 34.2 12.83 35.09-40.89-5.08 26.86-10.43 26.06 42.7 24.59 46.38-27.4-22.79-47.84 7.42-3.41 30.07 43.57 32.75-16.24-42.57-49.78-28-59.87 29.53-9.76 20.12 19.31 3-12.56 10.63 5.14-1.34-10.48 10.69 2.33-13.03-20.65 33.08-27.72 20.91 65.34 30.81 35.22 6.54-.8 22.4 27.66-.21-383.35-41.37-43.501-40.15 32.741 1.67 35.28-18.04.67-26.86 13.77-15.04 4.94-7.08 1.41-9.22-10.03-12.37-24.72-.8-24.392 7.62-15.902-1.41-15.036 6.83.134-4.35-10.159 6.02-2.402-9.02-7.954 3.14-3.674-34.08-14.634-26-1.737-7.02 3.072-3.4 6.349 6.88 19.446-7.35 7.35 7.28 14.232.27 31.207-5.81 26.33-11.7 19.91z"/><path id="rect2244" d="M176.23.001c-3.837 0-7.188.98-9.143 2.5 3.106.905 5.365 3.77 5.365 7.253v8.837h-8.836c-3.46 0-6.327-2.227-7.253-5.302-1.522 1.954-2.5 5.305-2.5 9.141 0 3.838.978 7.19 2.5 9.142.906-3.108 3.769-5.365 7.253-5.365h8.836v42.479c0 3.339-2.089 6.11-4.998 7.13 4.216.574 7.843 6.232 8.837 9.325.997-3.087 4.624-8.75 8.839-9.325-2.941-1.003-5.061-3.769-5.061-7.13v-42.48H188.907c3.462 0 6.327 2.227 7.253 5.305 1.52-1.955 2.498-5.308 2.498-9.143 0-3.838-.977-7.188-2.498-9.142-.906 3.106-3.77 5.362-7.253 5.362H180.069V9.752c0-3.461 2.225-6.327 5.303-7.253C183.419.98 180.066.001 176.23.001z" class="fil1"/><path id="path2303" d="M176.23 1.83c-1.997 0-3.757.374-5.24.853 1.98 1.722 3.291 4.22 3.291 7.07v8.838c0 .126-.037.246-.061.366v1.4h-1.402c-.12.025-.241.06-.365.062h-8.837c-2.818 0-5.284-1.29-7.008-3.23-.495 1.498-.914 3.21-.914 5.241 0 1.998.373 3.757.853 5.24 1.722-1.98 4.218-3.288 7.069-3.288H174.282c-.013.183-.062.36-.062.546v.915c.024.119.06.24.061.364v42.479c0 2.758-1.422 4.928-3.292 6.643a14.226 14.226 0 013.474 3.048c.878 1.053 1.226 2.085 1.828 3.168.604-1.081.951-2.115 1.829-3.168a14.32 14.32 0 013.413-2.987c-1.886-1.71-3.292-3.934-3.292-6.704V24.44h1.464c.12-.024.24-.06.365-.06h8.837c2.817 0 5.283 1.29 7.007 3.23.494-1.498.916-3.208.916-5.241 0-1.996-.375-3.757-.854-5.24-1.722 1.98-4.218 3.289-7.07 3.289h-8.836c-.125 0-.247-.037-.365-.062h-1.402v-1.4c-.025-.118-.06-.24-.062-.367V9.754c0-2.818 1.291-5.283 3.23-7.009-1.498-.493-3.208-.914-5.24-.914l-.001-.001z" class="fil2"/><path id="path2516" class="fil3" d="M143.54 415.77l-25.71 39.31-12.47-.38-12.851 6.05-4.16 13.99 1.89 6.42 13.981 15.12 11.34-6.43 9.08-9.82 2.26-8.7L159.41 429l-1.51-10.59-7.18 4.54-2.65-8.69z"/><path id="path2750" class="fil3" d="M307.97 427.48l34.39 46.5 3.41 9.07 15.12 13.61 4.53-1.14 16.64-19.28-3.78-13.22-15.51-9.45-11.71 1.13-26.09-38.93-4.53-1.89-1.88 7.56-7.57-2.27z"/><path id="rect2290" transform="matrix(.94917 .51749 -.2404 1.1002 121.02 486.2)" class="fil1" d="M0 0h20.32v19.506H0z"/><path id="rect2273" d="M31.242 280.34l-6.947 3.17 78.495 171.92h8.35L31.242 280.34v-.001.001zm92.574 202.76l-5.667 5.851 3.535 7.801 6.886-3.169-4.753-10.484h-.001z" class="fil1"/><path id="rect2288" transform="matrix(.94917 .51749 -.2404 1.1002 123.79 492.27)" class="fil2" d="M0 0h12.604v12.099H0z"/><path id="path2754" fill="#0b45bb" d="M120.48 277.8l.38 92.61 6.8 10.96 43.09 23.81 55.19 25.33 7.18 7.56 47.64-26.08 55.93-26.46 10.59-16.26v-91.09z"/><path id="path2355" d="M117.84 166.32l2.863 8.35-.67 106.35 3.962 4.386 32.727 3.901 35.408-5.182 34.74 5.366.426 2.132s5.144-.784 6.764-1.037l6.704 1.037.427-2.132 34.74-5.366 35.408 5.182 32.727-3.901 3.961-4.387-.67-106.35 2.865-8.349-39.187.302s-44.786.446-76.972.794c-32.18-.348-77.034-.794-77.034-.794l-39.187-.302h-.002z" class="fil3"/><path id="path2762" class="fil2" d="M275.14 178.46l4.81 17.1 7.48 21.92 1.07 20.85-8.55 14.97-15.5 6.41-8.55 2.67-10.16-5.34-11.23 6.95-12.29-7.48-10.16 6.95-6.42-4.28-11.22-1.6-12.83-13.37-2.67-24.05 15.5-42.77-19.25 15.5-16.57 22.45v29.4l11.76 19.78 21.39 13.9 5.88 1.61-10.16 18.71 17.64 5.34 9.09 9.09 4.81 18.17-1.07 39.03-5.35 9.09-11.76 8.02-.53 7.48 12.83 8.02 11.22 9.08 16.58.54 14.43-10.16 12.29-6.95-3.2-10.69-12.83-10.15-2.68-31.01 3.74-31 18.72-11.76 9.62-3.21-10.15-19.25 15.5-5.34 17.1-14.97 8.02-29.94-4.81-18.17-11.76-14.97z"/><path id="path2756" class="fil2" d="M129.2 284.84l17.64-6.95 12.3-9.62 8.55 9.08 17.11 6.95-13.9 8.02-12.3 10.69-10.69-8.01z"/><path id="path2758" class="fil2" d="M308.82 268.8l-8.02 8.55-17.11 6.95 16.04 10.16 10.16 9.09 11.23-9.09 18.17-9.09-18.71-7.48z"/><path id="path2760" class="fil2" d="M233.98 181.13l-5.35 16.04-15.5-7.49 6.95 15.51-14.97 5.88 14.97 5.34-6.42 15.51 14.44-7.49 5.88 16.04 5.88-16.04 14.43 6.42-6.42-14.44 14.97-5.34-14.43-6.42 6.42-15.5-14.97 7.49z"/><path id="path2764" class="fil2" d="M201.9 312.37l7.48 7.48-6.94 6.95-7.22-7.22z"/><path id="path2766" class="fil2" d="M266.32 311.56l-7.49 7.76 6.69 7.22 8.01-6.96z"/><path id="path2768" class="fil2" d="M271.67 331.34l-13.37 3.21-3.47 7.75-.27 21.39 5.61 12.03 7.48 3.2-1.06-28.06z"/><path id="path2770" class="fil2" d="M196.56 331.61l4.81 23.79v22.99l6.68-4.81 4.54-10.43.8-18.17-3.47-10.96z"/><path id="path2772" class="fil2" d="M319.24 350.59l-15.5-7.48-14.97 3.2-7.75 9.09-.8 14.7 10.96 12.83 2.67.8-.27-13.9 11.76-16.03z"/><path id="path2774" class="fil2" d="M171.7 345.51l-1.6-6.41-8.29-4.82-6.95 2.68-3.48 7.21 1.88 6.42-7.22-.8-5.88 5.61-.8 7.48 4.01 4.82 5.61 1.87 3.21-.27-2.67 6.68 2.13 6.68 6.69 3.75 7.48-1.87 4.01-7.49 6.41 4.28 7.75-1.61 5.08-7.75-3.47-7.21-3.74-2.95 5.34-2.93 2.14-8.82-7.22-8.29-6.95 1.07z"/><path id="path2169" d="M195 172.29c-1.117 7.83-40.526 24.108-40.526 56.921 0 42.013 39.308 51.925 39.308 51.925l-1.648 2.986-9.567 17.43s16.244.812 24.866 8.167c10.396 8.867 9.385 27.653 9.385 41.32 0 10.768-1.36 22.13-6.885 26.815-7.419 6.29-12.435 6.756-12.435 14.14 0 6.16 4.735 7.394 12.435 11.458 9.865 5.206 9.406 12.188 24.07 12.188 14.669 0 14.269-6.981 24.136-12.188 7.7-4.064 12.434-5.298 12.434-11.458 0-7.384-5.016-7.85-12.434-14.14-5.526-4.685-6.886-16.048-6.886-26.815 0-13.666-1.011-32.453 9.385-41.32 8.622-7.353 24.865-8.167 24.866-8.167l-9.57-17.43-1.644-2.986s39.308-9.912 39.308-51.925c0-32.813-39.409-49.091-40.528-56.921-3.851 13.548 13.165 32.262 13.165 54.423 0 28.674-21.148 30.046-21.148 30.046-4.948 0-6.953 3.534-8.898 3.534-4.163-.435-6.123-5.73-10.239-5.73-3.866 0-6.834 5.973-11.944 5.973-5.11 0-8.017-5.973-11.884-5.973-4.114 0-6.074 5.295-10.238 5.73-1.945 0-3.95-3.534-8.9-3.534 0 0-21.146-1.372-21.146-30.046 0-22.161 17.018-40.876 13.164-54.423zm80.933 111.83s26.412 11.65 33.338 21.575c15.027-11.369 34.796-20.295 34.796-20.295s-18.948-4.942-34.796-19.198c-9.065 11.984-33.338 17.917-33.338 17.917zm-83.797 0s-24.27-5.934-33.335-17.917c-15.849 14.257-34.8 19.198-34.8 19.198s19.77 8.926 34.8 20.295c6.925-9.924 33.335-21.575 33.335-21.575zm41.869-108.91l-6.827 19.382-18.588-8.838 8.837 18.589-19.38 6.886 19.38 6.887-8.837 18.527 18.588-8.837 6.827 19.38 6.887-19.38 18.588 8.837-8.836-18.527 19.38-6.887-19.38-6.886 8.836-18.59-18.588 8.839-6.887-19.382zm-44.732 8.959c1.616 3.48-13.165 24.94-13.165 42.54 0 21.58 11.509 34.31 26.876 34.31 2.932 0 6.137 3.962 8.898 3.962 4.503 0 7.498-4.997 10.24-4.997 3.484 0 5.833 5.485 11.882 5.485 6.051 0 8.46-5.485 11.946-5.485 2.74 0 5.736 4.997 10.238 4.997 2.763 0 5.967-3.961 8.899-3.961 15.367 0 26.877-12.73 26.877-34.311 0-17.6-14.78-39.06-13.165-42.54 0 0 28.826 20.678 28.826 45.038 0 39.242-39.796 48.939-39.796 48.939l8.958 20.17s-12.334 1.85-19.866 7.925c-10.046 8.1-10.18 29.989-10.18 44.793 0 17.438.649 24.827 6.949 29.558 6.642 4.991 11.64 6.066 11.64 11.153 0 4.432-5.172 6.245-11.884 9.202-7.635 3.365-8.395 9.203-19.441 9.203-11.047 0-11.746-5.838-19.381-9.203-6.711-2.958-11.884-4.77-11.884-9.202 0-5.087 4.996-6.162 11.64-11.153 6.3-4.732 6.947-12.12 6.947-29.558 0-14.804-.131-36.692-10.178-44.793-7.533-6.076-19.867-7.924-19.867-7.924l8.958-20.171s-39.795-9.697-39.795-48.94c0-24.36 28.826-45.037 28.826-45.037h.002zm44.793 4.083l4.388 12.373 11.823-5.668-5.607 11.883 12.312 4.389-12.312 4.387 5.607 11.823-11.823-5.606-4.45 12.31-4.387-12.31-11.823 5.607 5.606-11.823-12.31-4.388 12.31-4.39-5.606-11.882 11.823 5.668 4.449-12.373zm-75.632 83.922c8.01 9.17 20.722 12.676 20.722 12.676-.002 0-13.232 6.934-20.356 15.115v.486c-.07-.065-.17-.115-.246-.183-.14.165-.291.322-.426.488v-.853c-7.538-6.662-22.548-14.139-22.548-14.139s14.389-4.96 22.854-13.59zm151.2 0c8.466 8.629 22.854 13.59 22.854 13.59s-15.011 7.476-22.551 14.139v.853c-.135-.166-.286-.323-.425-.488-.073.068-.174.117-.244.183v-.487c-7.125-8.18-20.355-15.115-20.355-15.115s12.71-3.505 20.72-12.676zm-107.57 37.785l-9.446 9.445 9.446 9.447 9.447-9.447-9.447-9.445zm63.931 0l-9.445 9.445 9.445 9.447 9.447-9.447-9.447-9.445zm-63.931 4.51l4.937 4.934-4.937 4.998-4.997-4.998 4.997-4.935zm63.931 0l4.998 4.934-4.998 4.998-4.936-4.998 4.936-4.935zm-72.644 14.381c1.877 4.642 6.337 19.02 6.337 36.262 0 11.935-1.158 18.222-1.158 18.222s13.317-3.92 15.968-17.43c1.243-6.333 2.628-29.665-3.78-33.64l-17.367-3.414zm81.359 0l-17.37 3.415c-6.406 3.975-5.02 27.307-3.778 33.64 2.651 13.51 15.967 17.43 15.967 17.43s-1.158-6.287-1.158-18.221c0-17.242 4.461-31.622 6.34-36.262v-.001zm-113.72 3.78c-.744.032-1.507.117-2.256.303-5.99 1.503-9.608 7.602-8.105 13.591.23.917.609 1.764 1.036 2.56a11.048 11.048 0 00-2.742-.55c-.385-.026-.78-.013-1.158 0-5.668.19-10.392 4.647-10.787 10.422-.421 6.16 4.26 11.463 10.422 11.884a11.21 11.21 0 002.68-.122c-.53.727-.988 1.503-1.34 2.376-2.305 5.73.487 12.322 6.217 14.628 5.728 2.303 12.26-.55 14.564-6.278.352-.875.549-1.729.67-2.62a11.047 11.047 0 001.89 2.01c4.737 3.961 11.822 3.334 15.783-1.401a11.15 11.15 0 00-1.402-15.724c-.717-.6-1.512-1.071-2.315-1.462a11.077 11.077 0 002.498-1.158c5.233-3.28 6.815-10.248 3.535-15.48-2.254-3.597-6.216-5.446-10.178-5.181-1.8.12-3.606.681-5.241 1.707-.799.5-1.509 1.057-2.132 1.705 0-.9-.076-1.826-.305-2.741-1.315-5.242-6.132-8.697-11.336-8.472l.001.001v.001zm38.454 1.46l9.325 1.952c3.449 4.76 2.863 12.455 2.863 23.16 0 10.794-8.105 14.93-8.105 14.93 0-25.945-2.675-32.183-4.083-40.041v-.001zm69.17 0c-1.41 7.86-4.082 14.097-4.082 40.042 0 0-8.106-4.136-8.106-14.93 0-10.706-.586-18.4 2.864-23.16l9.324-1.95zm-106.96 3.232a8.676 8.676 0 018.776 6.581c.243.971.269 1.927.181 2.866-.07.778-.278 1.486-.548 2.193-1.348-.493-2.808-.732-4.327-.732-3.76 0-7.128 1.654-9.447 4.267a8.736 8.736 0 01-1.584-1.828c-.5-.773-.922-1.618-1.158-2.56-1.17-4.658 1.68-9.375 6.338-10.544a8.786 8.786 0 011.768-.244zm139.26 3.596c-14.307 0-24.777 11.026-23.34 24.56 1.21 11.413 10.486 20.975 21.939 23.707-1.956-3.199-3.256-6.765-3.657-10.542-1.435-13.535 9.033-24.501 23.342-24.501 2.255 0 4.44.278 6.581.793-5.044-8.27-14.542-14.017-24.866-14.017l.002.001h-.002zm-121.83 3.107a8.669 8.669 0 017.068 4.083c2.552 4.069 1.327 9.455-2.742 12.006-.85.533-1.76.886-2.683 1.097-.769.177-1.55.16-2.315.122.003-.124 0-.24 0-.366 0-5.178-3.114-9.654-7.557-11.64.314-.76.684-1.484 1.218-2.133a8.657 8.657 0 012.074-1.829 8.756 8.756 0 014.936-1.34zm121.83 1.951c4.479 0 8.781 1.372 12.494 3.657-13.963 2.7-24.012 15.033-22.55 29.437-4.45-3.686-7.705-8.65-8.288-14.14-1.132-10.688 6.632-18.953 18.345-18.953h-.001zm-149.92 5.24c1.013.07 1.922.35 2.803.73a9.424 9.424 0 011.95 1.16 12.73 12.73 0 00-2.681 7.86c0 2.32.622 4.47 1.705 6.34-.736.46-1.508.824-2.375 1.037a8.584 8.584 0 01-2.622.243c-4.79-.328-8.432-4.471-8.105-9.263.329-4.792 4.534-8.434 9.325-8.106zm14.748 1.28c4.651 0 8.41 3.82 8.41 8.473 0 4.651-3.759 8.41-8.41 8.41a8.402 8.402 0 01-8.412-8.41c0-4.653 3.76-8.473 8.412-8.473zm12.614 9.69a9.405 9.405 0 012.437.61c.831.33 1.654.734 2.376 1.34 3.684 3.082 4.117 8.565 1.037 12.25-3.083 3.684-8.566 4.178-12.25 1.097-.777-.65-1.342-1.432-1.828-2.256-.387-.655-.637-1.353-.853-2.072 4.904-1.416 8.575-5.74 9.081-10.969zm-23.159 5.852a12.731 12.731 0 0010.545 5.607c.92 0 1.814-.118 2.68-.306.183.8.295 1.607.244 2.439-.055.902-.192 1.795-.549 2.682-1.792 4.455-6.88 6.606-11.336 4.814-4.455-1.791-6.668-6.878-4.875-11.336a8.478 8.478 0 011.463-2.376c.527-.612 1.159-1.097 1.828-1.524h.002-.002zm63.746 20.72c-7.818 0-12.797 1.65-12.797 4.023 0 2.374 4.98 3.961 12.797 3.961 2.083 0 4.45-1.213 4.45-3.961s-2.368-4.023-4.45-4.023zm30.169 0c-2.083 0-4.45 1.275-4.45 4.023 0 2.748 2.367 3.961 4.45 3.961 7.819 0 12.797-1.587 12.797-3.961s-4.98-4.023-12.797-4.023z" class="fil1"/><path id="path2206" d="M476.75 250.48l-13.53 9.874 1.525 3.23s-2.477.85-3.598 3.045c-1.118 2.2.732 5.303.732 5.303s-12.862-1.122-14.87.183c-1.818 1.18.77 10.088-.427 17.613-1.669 10.488-5.804 9.608-5.973 11.64-.164 1.975 1.585 5.06 1.585 5.06s-2.412.759-2.925 1.767c-.827 1.622.576 4.614-.427 6.581-5.595 10.98-13.857 27.185-19.319 37.91-.763 1.496-2.813 2.067-3.84 4.082-.948 1.86-.183 4.57-.183 4.57s-3.62.216-4.875 2.682c-1.335 2.619-.55 6.155-.55 6.155s-2.288.293-3.414 2.5c-1.201 2.358.834 3.595.308 4.632-7.344 14.407-15.993 31.39-21.27 41.747-1.941 3.808-8.735 4.57-12.678 12.31-3.825 7.508 1.646 13.043 1.646 13.043s-5.682.513-7.191 3.474c-1.538 3.018-.321 7.6 3.778 9.69 4.1 2.088 8.58.398 10.118-2.62 1.509-2.96-1.524-7.86-1.524-7.86s7.693 1.107 11.518-6.401c3.943-7.74.618-13.62 2.559-17.43 5.278-10.357 13.929-27.34 21.27-41.747.529-1.037 2.699-.14 3.9-2.498 1.123-2.207 0-4.205 0-4.205s3.359-1.465 4.694-4.084c1.256-2.465-.671-5.545-.671-5.545s2.647-.943 3.595-2.803c1.026-2.015.272-3.989 1.035-5.488 5.463-10.72 13.727-26.928 19.32-37.906 1.004-1.97 4.232-2.644 5.058-4.267.514-1.007-.303-3.412-.303-3.412s3.557-.352 5.057-1.647c1.545-1.33-1.592-4.185 5.913-11.7 5.383-5.391 14.068-8.562 13.955-10.727-.125-2.393-8.593-12.128-8.593-12.128s3.573-.3 4.693-2.498c1.12-2.198.366-4.755.366-4.755l3.534-.61v-16.76h.001zm-127.19 241.4c-1.734.175-2.817 1.202-3.168 1.89a4.165 4.165 0 000 3.717s-4.265-1.334-5.728-.61c-1.379.683 0 20.783 0 20.783s17.017-10.736 16.759-12.25c-.274-1.61-3.84-4.327-3.84-4.327 1.378-.221 2.453-1.086 2.987-2.132.56-1.101.634-4.247-3.23-6.218-1.448-.738-2.737-.956-3.78-.852z" class="fil1"/><path id="rect2205" d="M217.92 23.954c-4.257 0-10.525.117-14.2 2.56-3.363 2.233-3.09 5.136-4.266 6.155-2.773 2.4-7.525 2.315-9.813 2.315-14.81 0-15.358 15.847-15.358 15.847s3.787-5.73 10.482-5.73c11.132 0 19.563 6.065 19.563 8.35 0 .925-1.148 1.096-1.217 1.096-7.271 0-18.246-4.186-24.074-4.388v2.316c.078.051.13.12.245.183-.084-.015-.163-.044-.245-.06v.425c13.013 4.528 26.206 10.937 26.206 39.187 0 17.79-2.13 35.94-11.03 50.218-3.153 5.057-7.641 9.383-13.042 13.226-2.404-.726-13.706-4.237-21.635-8.653-13.96-7.777-21.197-15.513-37.786-16.272v-12.616c0-6.741 2.439-12.813 2.439-19.258-6.994-1.875-26.402-25.608-44.307-36.141-26.346 17.065-46.744 45.077-46.744 57.959 0 0 .79 276.8 0 373.22 0 5.557-3.351 13.408-3.351 13.408 9.617-4.07 27.248-28.191 30.959-37.36v4.39c14.525-6.624 25.16-24.028 29.923-33.032.085 1.301.306 4.568.306 4.568 12.976-11.375 29.496-78.616 29.496-78.616l-.853-14.139s-11.425 54.9-24.438 66.185v-236.4l10.3 9.567 15.6-14.565v-11.092l-13.833 12.919v-33.458c2.085-3.154 3.466-5.508 4.51-7.374 2.239 3.904 9.475 15.868 17.977 23.22 1.399-5.688 10.605-11.093 10.605-11.093s3.3 8.939 8.348 11.152c1.777-3.128 12.373-10.055 12.373-10.055s-9.066 1.378-12.738 4.816c-3.153-.707-3.961-13.165-3.961-13.165s-13.342 6.498-15.661 11.152c-2.544-.689-6.504-10.7-8.047-14.81a88.88 88.88 0 019.934-.548c3.805 0 8.673 1.802 13.773 4.204 5.604 2.639 11.465 5.98 16.7 8.35 6.705 3.036 16.848 3.653 19.806 3.78-3.387 2.38-7.11 4.554-11.15 6.582 0 0 15.964-.148 27.18-5.73 4.002-2.574 8.154-5.138 11.701-8.166-1.539 4.278-3.935 9.332-7.68 13.65 16.472-1.393 24.673-10.8 26.999-13.955 1.092 2.828 3.039 7.365 6.094 11.274 3.057-3.908 5.062-8.446 6.156-11.274 2.328 3.156 10.527 12.562 26.998 13.956-3.744-4.32-6.14-9.373-7.678-13.651 3.546 3.027 7.7 5.592 11.7 8.166 11.216 5.582 27.183 5.73 27.183 5.73-4.044-2.028-7.829-4.208-11.213-6.583 2.846-.11 13.108-.718 19.867-3.778 5.233-2.372 11.095-5.712 16.697-8.35 5.1-2.403 9.97-4.205 13.775-4.205 4.32 0 7.605.294 9.933.548-1.542 4.11-5.5 14.12-8.046 14.81-2.32-4.654-15.663-11.152-15.663-11.152s-.808 12.458-3.96 13.165c-3.672-3.438-12.738-4.816-12.738-4.816s10.596 6.926 12.37 10.055c5.051-2.213 8.29-11.152 8.29-11.152s9.267 5.406 10.665 11.093c8.503-7.353 15.737-19.313 17.978-23.22a118.264 118.264 0 004.51 7.374v33.458L347 166.806V177.9l15.601 14.565 10.3-9.567v236.4c-13.016-11.285-24.438-66.185-24.438-66.185l-.855 14.139s16.522 67.241 29.498 78.616c0 0 .22-3.267.305-4.568 4.762 9.003 15.4 26.408 29.923 33.032v-4.39c3.71 9.17 21.34 33.292 30.958 37.36 0 0-3.351-7.851-3.351-13.408-.791-96.428 0-373.22 0-373.22 0-12.884-20.398-40.894-46.744-57.96-17.901 10.534-37.313 34.267-44.306 36.142 0 6.445 2.437 12.517 2.437 19.258v12.555c-16.552.776-23.838 8.564-37.785 16.334-7.981 4.446-19.404 7.97-21.694 8.653-5.4-3.835-9.83-8.168-12.98-13.226-7.587-12.17-10.787-27.11-10.787-42.294 0-6.418 7.19-13.643 7.19-18.833 0-7.844-.73-12.553-.73-12.553 2.55.348 7.008 4.875 7.008 4.875s-.154-13.022-4.267-15.296c0 0 1.664-1.712 7.679-1.89-1.69-4.281-10.055-9.507-10.055-9.507.418-.748 1.19-1.396 2.193-1.95 2.102-1.162 5.054-1.928 7.313-2.377-2.408-.499-5.18-1.263-8.227-2.256-6.954-2.266-15.142-5.591-22.793-9.262-13.966-6.7-24.606-7.132-30.472-7.132v.001h.001zm.305 3.84c1.294.012 2.495.061 3.534.061 13.64 0 23.235 6.219 36.142 11.944 3.382 1.5 6.487 2.716 9.26 3.656-1.737 1.539-3.088 3.086-3.473 4.389 0 0 5.785 1.071 8.41 5.912 0 0-5.501.624-6.4 3.839 3.08.233 6.142 4.115 6.156 7.863l-7.801-2.44s1.89 8.76 1.89 18.285c0 4.863-7.008 10.589-7.008 18.832 0 25.873 6.518 35.819 11.153 43.818 1.813 3.13 3.287 6.73 6.338 9.446-13.355-7.11-23.281-15.999-23.281-24.255V97.88h-3.474v31.264c0 5.987 1.463 8.776 1.463 8.776 2.096 6.623 6.334 16.847 8.96 20.965-12.288-6.64-18.529-14.956-18.529-18.04V97.88h-3.473v43.574l.67 2.985c-1.49 2.239-3.426 4.889-4.754 5.79-1.326-.9-3.202-3.555-4.694-5.79l.67-2.985V97.88h-3.473v42.966c0 3.082-6.242 11.399-18.527 18.039 2.625-4.118 6.862-14.341 8.958-20.965 0 0 1.463-2.789 1.463-8.776V97.88h-3.474v31.264c0 8.247-9.889 17.148-23.22 24.255 3.02-2.718 4.473-6.334 6.277-9.446 5.07-8.748 11.336-19.86 11.336-51.497 0-11.874-1.756-19.946-4.814-25.597-.93-1.864-2.183-6.826 4.935-6.826 3.688 0 12.13 6.52 12.13 6.52s-.348-5.203-4.633-8.165c-.71-.492-1.888-2.039-1.888-3.475 0-1.076 1.846-3.732 3.289-4.388.992-.45-14.504-3.15-14.504-10.178 0-1.463.92-2.438 4.142-2.438 4.22 0 11.086 5.059 17.19 5.059 4.51 0 6.288-1.097 10.908-1.097 5.646 0 17.422 10.689 21.451 10.299-4.503-2.828-11.779-13.53-22.792-13.53-3.822 0-7.283.854-10.85.854-4.572 0-9.074-4.206-14.016-4.206-3.312 0-7.01.184-7.558-.671-.958-1.494-.095-2.361.793-3.595 1.677-2.33 6.388-3.006 11.033-3.168a94.447 94.447 0 014.082-.061h.003zM79.885 74.72v.059s24.482 22.432 32.727 25.292l.303 7.557v22.246c-5.975-2.057-13.484-11.872-17.124-17.065v-3.048c0-2.866 1.687-4.96 2.925-6.094l-3.596-1.28c-1.37 1.563-2.864 3.885-2.864 6.887v1.768l-1.157 1.22-.61.67-8.958 9.628-10.542-15.967v-3.9c0-2.63 2.02-5.56 3.718-7.557l-3.537-1.28c-1.784 2.311-3.656 5.427-3.656 8.349v3.168c-2.48 2.566-12.128 12.495-12.128 12.495l-6.155-13.225c7.387-10.232 19.364-21.69 30.654-29.924h-.001zm308.31 0c11.268 8.216 23.25 19.71 30.657 29.923l-6.156 13.225s-9.646-9.929-12.126-12.494v-3.17c0-2.92-1.872-6.036-3.657-8.348l-3.535 1.28c1.696 1.996 3.718 4.928 3.718 7.557v3.9l-10.545 15.967-8.957-9.627-.61-.671-1.158-1.22v-1.769c0-3-1.493-5.323-2.863-6.885l-3.598 1.279c1.24 1.135 2.927 3.227 2.927 6.095v3.048c-3.643 5.192-11.148 15.007-17.125 17.065v-22.246l.304-7.557c8.245-2.86 32.726-25.292 32.726-25.292v-.06h-.002zm-343.24 36.749l5.608 10.178v18.346l-8.533 7.921v-27.242c0-2.607 1.093-5.75 2.925-9.203zm378.16 0c1.835 3.452 2.925 6.595 2.925 9.203v27.242l-8.532-7.922v-18.346l5.607-10.178zm-355.79 2.316l9.81 14.93v11.336l-9.81 9.203v-35.469zm333.42 0v35.468l-9.813-9.202v-11.336l9.813-14.93v.001-.001zm-336.9 2.681v32.727l-9.813-9.142v-13.285l9.813-10.299zm340.37 0l9.812 10.299v13.285l-9.812 9.142v-32.727zm-310.27 2.376c1.477 2.458 8.254 13.422 14.687 16.577-2.279 3.22-8.247 11.096-14.687 14.566v-31.143zm280.16 0v31.143c-6.44-3.468-12.406-11.347-14.687-14.566 6.434-3.153 13.21-14.119 14.687-16.577zm-283.63 1.585v28.766l-9.813-9.141v-10.178l9.813-9.447zm287.11 0l9.812 9.447v10.178l-9.812 9.142v-28.766zm-327.02 30.654v28.706l-8.533-7.984v-12.738l8.533-7.983zm366.94 0l8.532 7.984v12.738l-8.532 7.984V151.08zm-363.47.063l5.608 5.24 4.206 3.9v10.3l-4.206 3.9-5.608 5.24v-28.583.003zm23.098 0v28.583l-5.607-5.242-4.203-3.961v-10.178l4.203-3.962 5.607-5.24zm3.536 0l9.813 9.202v10.178l-4.268 4.022-5.545 5.181v-28.583zm23.098 0v28.643l-5.607-5.24-4.207-3.963v-9.567c3.385-2.066 6.788-5.862 9.813-9.874v.001zm260.54 0c3.026 4.009 6.428 7.808 9.81 9.872v9.568l-4.203 3.961-5.607 5.24v-28.642zm23.098 0v28.583l-5.547-5.182-4.265-4.021v-10.178l9.813-9.202h-.001zm3.535 0l5.607 5.24 4.206 3.962v10.178l-4.206 3.961-5.607 5.241v-28.583.001zm23.098 0v28.583l-5.608-5.242-4.205-3.9v-10.299l4.205-3.9 5.608-5.241zm-345.49 31.63l10.359 9.69 10.36-9.63v236.46s.724 11.733 1.22 19.38c-4.608 4.657-21.94 22.184-21.94 22.184v-278.09zm330.99 0v278.09s-17.332-17.528-21.94-22.182c.496-7.648 1.218-19.381 1.218-19.381v-236.46l10.36 9.63 10.362-9.691zm-336.9.06v269.19c0 7.602-13.88 25.325-20.598 29.375V182.9l10.238 9.567 10.36-9.628zm342.81 0l10.36 9.629 10.24-9.567v298.5c-6.717-4.05-20.6-21.775-20.6-29.375V182.83zm-257.43 211.48s-9.953 20.21-13.832 23.828c0 0 2.6.33 5.545.305-1.812 2.604-15.65 22.53-19.989 30.045-4.06 7.031-6.923 3.901-13.165 3.901-5.174 0-16.905 8.244-18.832 11.58-2.024 3.506-3.534 7.766-3.534 11.275 0 3.858 4.083 9.142 4.083 9.142.44-1.846 1.218-2.5 1.218-2.5s10.73 13.367 12.311 15.114c1.23 1.36 6.72 2.245 8.655.489 4.84-4.401 9.526-7.48 13.834-13.834 2.218-3.276 2.387-7.03 4.936-10.545 8.526-11.761 25.494-34.285 29.375-39.43.26 1.432.482 2.625.729 4.083 4.397-8.877 25.537-25.84 25.537-25.84l-5.851-3.841s-12.743 14.856-16.882 17.614c0 0-1.769-7.388-2.804-9.996 0 0-4.883 3.693-7.555 3.78 0 0-.798-5.013-1.402-8.29-3.362 2.242-8.958 1.769-8.958 1.769 4.913-2.327 10.726-16.577 10.726-16.577l-4.144-2.073-.002.002zm172.04 0l-4.145 2.072s5.815 14.25 10.726 16.577c0 0-5.596.475-8.958-1.767-.603 3.275-1.402 8.289-1.402 8.289-2.672-.087-7.557-3.78-7.557-3.78-1.035 2.606-2.804 9.996-2.804 9.996-4.136-2.758-16.88-17.615-16.88-17.615l-5.85 3.84s21.138 16.963 25.534 25.842c.25-1.459.471-2.652.731-4.083 3.88 5.145 20.848 27.668 29.375 39.43 2.549 3.516 2.717 7.27 4.937 10.544 4.307 6.355 8.993 9.433 13.834 13.834 1.933 1.757 7.422.873 8.654-.488 1.58-1.748 12.311-15.113 12.311-15.113s.778.652 1.219 2.498c0 0 4.083-5.284 4.083-9.142 0-3.509-1.512-7.768-3.535-11.274-1.926-3.336-13.656-11.58-18.832-11.58-6.24 0-9.105 3.13-13.163-3.9-4.34-7.516-18.18-27.442-19.99-30.046 2.947.026 5.545-.304 5.545-.304-3.878-3.62-13.834-23.83-13.834-23.83h.002zm-173.45 22.793s-.082 6.85 2.074 9.265l7.557-5.182s.503 2.5 1.157 5.913c-3.236 4.423-21.822 29.79-31.02 42.172-2.286 3.077-4.207 10.909-4.207 10.909s-3.35-1.585-3.35-4.448c0-2.812.367-6.156.367-6.156s-2.502 2.864-6.827 2.864c0-3.456 6.684-7.204 6.947-12.126-5.097 3.779-9.522 1.84-15.418 3.657-6.42 1.977-8.209 4.675-10.178 4.57-1.16-.062-2.21-2.063-1.767-3.29.767-2.128 8.707-8.016 14.258-9.081 1.33-.255 11.79 2.276 13.897-.976 8.681-13.395 22.774-35.14 24.134-37.235.895-.214 1.719-.441 2.375-.854h.001zm174.85 0c.659.414 1.482.64 2.378.854 1.36 2.095 15.452 23.841 24.134 37.235 2.107 3.253 12.566.72 13.894.976 5.554 1.066 13.494 6.954 14.262 9.08.442 1.228-.608 3.23-1.769 3.292-1.967.104-3.755-2.593-10.178-4.571-5.896-1.818-10.32.122-15.418-3.657.264 4.92 6.948 8.672 6.948 12.128-4.324 0-6.826-2.864-6.826-2.864s.365 3.342.365 6.155c0 2.863-3.35 4.449-3.35 4.449s-1.921-7.833-4.207-10.911c-9.197-12.38-27.784-37.748-31.019-42.172.655-3.411 1.158-5.913 1.158-5.913l7.555 5.182c2.156-2.414 2.073-9.265 2.073-9.265v.003zm-114.45 4.997s-41.294 94.923-77.947 109.52c0 0 15.946 6.775 35.53 16.943 2.857 1.484 5.8 3.077 8.776 4.694a242.753 242.753 0 007.618-9.692c11.709-15.666 23.16-33.823 23.16-33.823.797 4.715-5.386 19.278-15.846 37.239-2.058 3.53-4.203 7.219-6.583 10.968a395.02 395.02 0 017.923 4.634c19.398 11.673 37.617 25.09 44.366 37.418 6.751-12.327 24.968-25.746 44.37-37.418a391.602 391.602 0 017.92-4.634c-2.38-3.749-4.524-7.437-6.58-10.968-10.461-17.961-16.643-32.524-15.846-37.239 0 0 11.45 18.157 23.16 33.823a242.619 242.619 0 007.617 9.692c2.975-1.617 5.92-3.209 8.776-4.694 19.584-10.169 35.528-16.943 35.528-16.943-36.65-14.592-77.947-109.52-77.947-109.52l-6.093 1.767s32.937 82.023 65.148 106.84c-7.325 2.205-15.899 5.37-24.744 9.143-10.748-12.59-21.866-29.574-30.898-44.674-9.751-16.304-17.734-44.915-17.734-44.915-4.521 10.982 5.114 66.145 24.561 101.05-16.082 8.37-30.392 17.441-37.238 24.865-6.844-7.423-21.154-16.494-37.235-24.865 19.446-34.9 29.081-90.065 24.56-101.05 0 0-7.982 28.611-17.735 44.915-9.03 15.1-20.148 32.084-30.898 44.674-8.843-3.772-17.418-6.938-24.744-9.143 32.212-24.813 65.15-106.84 65.15-106.84l-6.094-1.767h-.002zm-107.87 45.587c.283.031.581.182.792.427.42.485.384 1.197-.062 1.584l-3.412 2.986c-.447.386-1.164.303-1.584-.184-.422-.485-.386-1.197.061-1.585l3.412-2.985a1.02 1.02 0 01.793-.245v.003zm269.8 0c.283-.034.57.049.794.244l3.412 2.986c.445.387.483 1.1.061 1.585-.423.486-1.14.569-1.584.183l-3.414-2.987c-.447-.387-.483-1.098-.062-1.584.212-.244.51-.395.793-.427h-.001zm-266.2 2.986c.848-.068 1.739.303 2.378 1.036 1.02 1.176.954 2.843-.123 3.78l-8.288 7.25c-1.079.938-2.818.75-3.841-.425-1.02-1.176-.956-2.903.123-3.84l8.288-7.191a2.621 2.621 0 011.463-.61zm261.94 0c.214-.035.457-.017.67 0 .51.042 1.057.258 1.463.609l8.289 7.191c1.077.936 1.143 2.665.122 3.841-1.022 1.174-2.762 1.363-3.84.424l-8.29-7.25c-1.076-.936-1.142-2.601-.12-3.78.479-.55 1.067-.926 1.706-1.036v.001zm-257.24 5.607c.847-.069 1.798.3 2.437 1.036 1.02 1.176.955 2.841-.123 3.778l-8.348 7.252c-1.079.937-2.757.75-3.78-.426-1.021-1.175-.955-2.902.124-3.839l8.287-7.192a2.46 2.46 0 011.402-.609h.001zm252.55 0c.218-.037.457-.017.67 0 .509.041.996.259 1.4.61l8.29 7.191c1.078.936 1.145 2.663.12 3.839-1.02 1.176-2.7 1.363-3.779.426l-8.348-7.253c-1.078-.936-1.144-2.6-.122-3.777.48-.55 1.113-.926 1.769-1.037zm-247.25 5.485c.85-.069 1.74.24 2.378.974 1.021 1.177.955 2.904-.122 3.84l-8.29 7.193c-1.078.937-2.756.749-3.778-.428-1.021-1.176-1.016-2.842.06-3.779l8.351-7.25c.403-.353.892-.509 1.4-.55zm241.95 0c.213-.032.458-.017.67 0 .51.041.998.197 1.4.55l8.352 7.25c1.078.935 1.08 2.603.06 3.78-1.021 1.176-2.701 1.364-3.778.427l-8.29-7.193c-1.079-.935-1.142-2.663-.12-3.84.479-.55 1.068-.882 1.706-.974z" class="fil1"/><path id="path2220" d="M474.24 255.42l-7.924 5.607 4.022 2.074 4.022 2.01-.12-9.691h-.002.002zm-7.68 9.325c-1.438.099-2.705.866-3.351 2.133-1.034 2.029-.03 4.626 2.254 5.79 2.286 1.163 4.938.444 5.974-1.584 1.034-2.03.029-4.625-2.256-5.79a4.999 4.999 0 00-2.62-.55h-.002zm-14.93 9.325c-1.194.014-2.06.055-2.255.183-.847.548.304 7.791.061 13.955-.23 5.812-2.09 7.449-3.109 9.446-.939 1.844-4.326 4.023-4.326 4.023l2.803 2.804s1.823-2.84 4.692-8.473c3.385-6.642 3.275-18.676 4.268-19.318.863-.559 7.922-2.316 7.922-2.316s-6.478-.35-10.055-.304h-.002zm12.308 1.645s-7.422 1.423-8.472 2.439c-1.014.98-.567 11.033-4.51 18.77-3.266 6.415-4.873 8.776-4.873 8.776l2.01 1.035 2.011.976s.937-2.604 4.206-9.02c3.941-7.738 12.356-13.35 12.553-14.748.204-1.444-2.924-8.227-2.924-8.227zm2.378.974s2.687 6.776 2.742 7.802c.063 1.177-9.718 8.167-13.103 14.809-2.868 5.632-4.083 8.776-4.083 8.776l3.901.61s-.269-4.009.67-5.851c1.017-1.997 1.285-4.443 5.851-8.045 4.843-3.82 11.39-7.16 11.336-8.167-.05-.931-7.313-9.933-7.313-9.933h-.001zm-22.061 31.936c-1.23.133-2.124.913-2.621 1.889-.74 1.455-.339 3.4-6.217 14.933-2.576 5.056-3.614 7.09-6.4 12.554-2.832 5.56-6.948 13.59-6.948 13.59s-1.398 2.567 1.219 3.9c2.617 1.333 3.778-1.34 3.778-1.34s4.117-8.033 6.948-13.592c2.786-5.462 3.823-7.558 6.4-12.615 5.876-11.534 7.671-12.319 8.41-13.773.797-1.561.607-3.664-2.01-4.998-.981-.499-1.822-.626-2.558-.547v-.001l-.001.001zm-25.293 48.085c-.987.087-1.768.505-2.132 1.218-.728 1.43.519 3.53 2.804 4.694 2.284 1.162 4.757.941 5.485-.488.727-1.43-.579-3.53-2.864-4.694-1.142-.582-2.303-.817-3.29-.73h-.003zm-3.412 7.008c-1.637-.078-3.068.489-3.657 1.645-.943 1.849.527 4.504 3.292 5.914 2.764 1.408 5.761 1.055 6.704-.794.942-1.85-.528-4.502-3.292-5.912-1.037-.527-2.063-.806-3.047-.853zm-4.633 8.715c-.986.088-1.768.505-2.133 1.22-.727 1.428.52 3.528 2.804 4.692 2.284 1.164 4.757.94 5.486-.487.728-1.43-.52-3.53-2.803-4.693-1.144-.583-2.365-.818-3.351-.732h-.003zm-2.01 7.498c-1.443.185-2.134 1.645-2.134 1.645s-14.819 29.166-20.048 39.43c-1.671 3.279-8.705 5.321-11.458 10.727-2.773 5.438-.816 10.528 2.803 12.371 3.617 1.844 8.93.503 11.702-4.936 2.753-5.404.28-12.325 1.949-15.602 5.23-10.266 20.052-39.43 20.052-39.43s1.46-2.567-1.16-3.9a2.823 2.823 0 00-1.705-.304zm-35.774 67.16c-1.665.046-3.146.832-3.84 2.193-1.11 2.18.16 5.082 2.863 6.46 2.705 1.378 5.839.715 6.949-1.463 1.11-2.179-.221-5.083-2.925-6.46-1.014-.518-2.049-.759-3.047-.731zm-23.585 46.744c-.845.028-1.545.296-1.827.854-.568 1.112.605 2.872 2.62 3.9 2.016 1.026 4.124.93 4.693-.183.569-1.115-.607-2.874-2.62-3.9-1.01-.514-2.018-.7-2.866-.671zm-6.947 5.484v14.384l11.702-8.41s-1.587-2.804-5.06-4.572-6.642-1.402-6.642-1.402z" class="fil2"/><path id="path2280" d="M55.626 415.9s6.612 13.657 11.637 15.53c-2.598-.709-11.037 2.388-11.037 2.388s14.88 13.292 27.5 14.164c10.702.737 15.899-4.605 15.899-4.605l-2.144-11.339s-6.548-7.907-17.026-11.556c-10.589-3.689-24.829-4.581-24.829-4.581v-.002z" class="fil1"/><path id="path2282" d="M105.47 391.44s-9.13 7.815-11.628 16.867c-2.5 9.053 1.629 19.342 1.629 19.342l7.671 14.31s10.632-5.659 15.155-14.119c4.522-8.461 2.864-19.878 2.864-19.878s-8.422 3.136-9.494 4.524c1.778-9.387-6.197-21.046-6.197-21.046z" class="fil1"/><path id="path2284" d="M76.136 387.77s-10.383 3.51-20.466 2.902c-9.605-.58-17.591-8.646-17.591-8.646s7.962-5.388 11.891-4.67c-4.323-1.58-10.591-12.409-10.591-12.409s8.907-2.691 16.805.286c7.898 2.98 14.785 11.632 14.785 11.632l5.168 10.905z" class="fil1"/><path id="path2286" d="M79.706 337.06s5.193 10.753 3.961 14.49c1.611-2.489 7.707-6.363 7.707-6.363s3.686 17.41.16 28.162c-3.522 10.752-14.254 14.845-14.254 14.845l-11.837-23.02s-1.762-8.528 1.928-15.282c3.693-6.753 12.333-12.833 12.333-12.833h.002z" class="fil1"/><path id="path2293" d="M12.138 308.6s11.223-1.179 21.489 3.074c8.583 3.564 11.215 10.04 11.215 10.04l4.227 11.333s-12.215 4.582-21.867 1.079c-9.652-3.506-16.744-15.096-16.744-15.096s6.745-2.558 9.313-1.6c-3.74-1.654-7.63-8.832-7.63-8.832v.001h-.002z" class="fil1"/><path id="path2295" d="M47.441 287.56s4.925 6.325 5.073 13.6c1.313-3.868 7.462-8.143 7.462-8.143s6.324 15.305 4.936 26.169c-1.388 10.866-10.487 17.294-10.487 17.294l-11.347-21.54s-3.698-8.827-2.608-15.673c1.09-6.846 6.97-11.71 6.97-11.71v.003z" class="fil1"/><path id="path2297" d="M8.574 246.37s-2.035 11.731 1.428 18.488c3.093 6.03 5.062 7.352 5.062 7.352C9.167 268.32.249 267.983.249 267.983s3.173 12.763 10.759 18.586c7.585 5.823 19.28 4.462 19.28 4.462s7.69-10.238 7.155-21.268c-.535-11.03-9.295-22.853-9.295-22.853s-3.455 7.167-3.76 12.516c-2.236-5.515-15.815-13.055-15.815-13.055z" class="fil1"/><path id="path2299" d="M12.024 253.51s-.304 8.572 2.532 13.435c2.837 4.864 9.172 6.803 9.172 6.803s.302-8.57-2.534-13.433c-2.837-4.864-9.17-6.805-9.17-6.805z" class="fil5"/><path id="path2301" d="M6.093 272.9s7.447.438 11.747 3.733c4.298 3.296 5.964 10.161 5.964 10.161s-4.936.501-9.234-2.794c-4.3-3.297-8.477-11.1-8.477-11.1z" class="fil5"/><path id="path2304" d="M29.46 255.6s-2.476 5.679-2.19 11.8c.284 6.123 3.857 13.02 3.857 13.02s3.23-7.35 2.945-13.474c-.283-6.123-3.746-9.613-4.612-11.347z" class="fil5"/><path id="path2306" d="M16.923 310.78s3.655 5.105 9.285 7.889c5.629 2.782 14.015 2.885 14.015 2.885s-4.186-5.43-9.815-8.215c-5.63-2.782-13.485-2.561-13.485-2.561v.002z" class="fil5"/><path id="path2308" d="M18.738 322.64s2.687 5.263 7.6 7.519c4.916 2.257 14.97 2.071 14.97 2.071s-3.858-4.918-8.771-7.175c-4.915-2.258-13.8-2.415-13.8-2.415z" class="fil5"/><path id="path2310" d="M47.039 294.57s-2.97 4.909-2.68 10.317c.292 5.41 3.842 11.322 3.842 11.322s2.497-6.777 2.205-12.187c-.29-5.41-3.367-9.452-3.367-9.452z" class="fil5"/><path id="path2312" d="M57.978 301.51s-5.082 6.82-5.812 13.834c-.73 7.012 2.89 14.217 2.89 14.217s6.14-6.164 6.87-13.176c.73-7.015-3.948-14.872-3.948-14.872v-.002z" class="fil5"/><path id="path2320" d="M43.961 366.27s.61 2.522 2.734 5.2c2.123 2.68 5.757 5.514 5.757 5.514s3.51-1.13 7.874-.184c4.363.946 10.167 4.833 10.167 4.833s-6.246-9.323-12.732-12.947c-6.485-3.623-13.799-2.416-13.799-2.416z" class="fil5"/><path id="path2322" d="M43.317 382.29s8.087-3.455 14.746-2.563c6.66.892 12.665 6.156 12.665 6.156s-9.001 3.115-15.66 2.224c-6.661-.892-11.752-5.817-11.752-5.817l.001-.001v.001z" class="fil5"/><path id="path2324" d="M77.506 344.7s-7.152 7.576-7.752 14.151c-.598 6.574 5.8 12.702 5.8 12.702s-.315-4.216.786-6.993c1.102-2.776 3.444-5.74 3.444-5.74s.998-3.385.612-6.1c-.54-3.792-2.89-8.02-2.89-8.02z" class="fil5"/><path id="path2326" d="M87.764 353.47s-6.74 6.82-8.522 14.124 1.393 15.091 1.393 15.091 6.13-4.835 7.912-12.138c1.782-7.304-.784-17.076-.784-17.076h.001z" class="fil5"/><path id="path2328" d="M104.64 397.5s3.053 6.374 3.828 11.706c.776 5.33.057 7.175.057 7.175s-3.157 3.104-4.572 4.929c-1.82 2.346-2.086 6.638-2.086 6.638s-6.34-9.424-5.362-16.313c.976-6.888 8.135-14.135 8.135-14.135z" class="fil5"/><path id="path2330" d="M118 412.24s-8.117 5.361-11.337 10.86c-3.223 5.497-1.552 11.13-1.552 11.13s5.784-.51 9.007-6.007c3.221-5.498 3.881-15.984 3.881-15.984H118v.001z" class="fil5"/><path id="path2333" d="M64.672 434.88s11.698-.319 18.848 1.44c7.15 1.756 9.752 5.589 9.752 5.589s-8.04 3.764-15.189 2.006c-7.15-1.756-13.41-9.036-13.41-9.036v.001z" class="fil5"/><path id="path2335" d="M62.695 421.01s5.277 8.183 12.1 11.151c9.403 4.089 20.289 2.107 20.289 2.107s-5.914-7.248-14.053-10.449c-8.14-3.198-18.337-2.809-18.337-2.809h.001-.001z" class="fil5"/><path id="path2350" d="M100.24 442.89l.315 4.21c6.995.066 8.037-.63 9.83 1.574 1.194 1.47 4.034 2.75 6.889 1.447 2.857-1.304 4.137-4.735 2.833-7.591s-3.959-3.476-6.517-2.972c-1.57.31-2.603 1.563-3.935 2.251-2.534 1.312-9.416 1.081-9.416 1.081h.001z" class="fil1"/><path id="path2348" d="M117.74 443.63l.001.001c.71 1.554.021 3.4-1.533 4.11a3.106 3.106 0 01-4.111-1.534c-.005-.01-.014-.033-.02-.042l.017.037a3.109 3.109 0 011.533-4.112 3.108 3.108 0 014.11 1.534c.007.01.016.033.02.044l-.018-.04v.002h.001z" class="fil2"/><path id="path2357" d="M99.634 439.67l3.404 2.494c-3.65 5.97-4.79 6.484-3.87 9.173.612 1.79.197 4.878-2.423 6.61-2.618 1.733-6.207 1.002-7.94-1.616-1.73-2.619-.851-5.198.932-7.101 1.095-1.17 2.703-1.38 3.993-2.146 2.454-1.457 5.903-7.414 5.903-7.414h.001z" class="fil1"/><path id="path2359" d="M90.989 454.91l.001.004a3.11 3.11 0 004.3.875 3.108 3.108 0 00.851-4.34l.022.033a3.11 3.11 0 00-4.299-.875 3.107 3.107 0 00-.876 4.298l.027.042-.025-.038h-.001v.001z" class="fil2"/><path id="path2361" d="M75.941 389.67l.314 4.21c6.996.064 8.036-.63 9.83 1.573 1.192 1.468 4.034 2.75 6.889 1.446 2.858-1.303 4.138-4.733 2.832-7.59-1.304-2.857-3.958-3.475-6.516-2.971-1.571.31-2.603 1.563-3.934 2.251-2.535 1.311-9.416 1.08-9.416 1.08h.001z" class="fil1"/><path id="path2363" d="M93.444 390.4l.001.004a3.106 3.106 0 01-1.533 4.11 3.108 3.108 0 01-4.11-1.534l-.02-.044.016.038a3.108 3.108 0 011.536-4.112 3.11 3.11 0 014.11 1.534c.005.011.014.035.02.045l-.02-.041h-.001z" class="fil2"/><path id="path2365" d="M77.361 391.16l2.976 2.997c-4.534 5.326-5.742 5.658-5.25 8.456.328 1.865-.564 4.851-3.422 6.155-2.856 1.304-6.285.025-7.591-2.832-1.304-2.856-.033-5.268 2.024-6.87 1.263-.984 2.887-.945 4.278-1.498 2.652-1.056 6.985-6.408 6.985-6.408h-.001.001z" class="fil1"/><path id="path2367" d="M66.449 404.87l.002.004a3.11 3.11 0 004.112 1.533 3.109 3.109 0 001.533-4.11l-.02-.044.016.036a3.109 3.109 0 00-4.111-1.534 3.11 3.11 0 00-1.534 4.11l.022.045-.02-.04z" class="fil2"/><path id="path2370" d="M52.395 339.86l.315 4.21c6.996.064 8.037-.63 9.83 1.575 1.195 1.466 4.034 2.748 6.891 1.445 2.855-1.304 4.136-4.733 2.833-7.593-1.307-2.855-3.96-3.474-6.519-2.97-1.57.31-2.603 1.563-3.935 2.251-2.534 1.312-9.415 1.08-9.415 1.08v.002z" class="fil1"/><path id="path2374" d="M69.9 340.59l.001.001a3.108 3.108 0 01-1.534 4.112 3.107 3.107 0 01-4.13-1.578l.016.036a3.108 3.108 0 011.534-4.11 3.106 3.106 0 014.11 1.534l.022.044-.02-.04.001.001z" class="fil2"/><path id="path2376" d="M54.335 338.97l2.975 2.995c-4.534 5.327-5.74 5.66-5.251 8.458.328 1.864-.563 4.85-3.42 6.154-2.856 1.303-6.286.023-7.591-2.833-1.303-2.857-.032-5.268 2.024-6.87 1.263-.985 2.885-.944 4.28-1.5 2.65-1.056 6.983-6.405 6.983-6.405v.001z" class="fil1"/><path id="path2378" d="M43.424 352.68l.002.001a3.11 3.11 0 004.11 1.536 3.109 3.109 0 001.535-4.112c-.006-.01-.016-.033-.021-.044l.017.038a3.108 3.108 0 00-4.111-1.534 3.108 3.108 0 00-1.533 4.11l.02.044-.02-.039z" class="fil2"/><path id="path2380" d="M27.313 287.26l.314 4.21c6.996.064 8.038-.631 9.83 1.571 1.195 1.47 4.035 2.751 6.89 1.45 2.857-1.307 4.137-4.735 2.833-7.592s-3.959-3.478-6.518-2.972c-1.569.31-2.602 1.564-3.934 2.251-2.534 1.311-9.416 1.08-9.416 1.08v.002h.001z" class="fil1"/><path id="path2382" d="M44.816 288l.002.002a3.107 3.107 0 01-1.534 4.112 3.11 3.11 0 01-4.111-1.533l-.02-.045.017.038a3.11 3.11 0 011.535-4.112 3.11 3.11 0 014.11 1.534l.02.044-.019-.04z" class="fil2"/><path id="path2384" d="M29.252 286.37l2.974 2.997c-4.533 5.326-5.741 5.658-5.25 8.457.328 1.864-.565 4.85-3.42 6.154-2.858 1.304-6.286.025-7.59-2.832-1.305-2.856-.033-5.27 2.022-6.87 1.263-.984 2.886-.945 4.279-1.5 2.65-1.056 6.984-6.406 6.984-6.406v-.001.001z" class="fil1"/><path id="path2386" d="M18.342 300.08l.002.004a3.107 3.107 0 004.11 1.534 3.107 3.107 0 001.534-4.11l-.02-.044.017.036a3.11 3.11 0 00-4.111-1.534 3.111 3.111 0 00-1.534 4.112c.006.01.015.033.02.043l-.018-.041z" class="fil2"/><path id="path2340" d="M71.498 377.2c-2.507 1.04-6.227-9.875-8.957-15.855-2.802-6.137-8.49-15.595-6.874-16.334 1.772-.81 4.107 4.157 6.974 10.437 2.866 6.278 11.205 20.772 8.856 21.749v.002h.001z" class="fil2"/><path id="path2342" d="M45.752 319.71c-2.506 1.044-5.25-6.104-7.98-12.085-2.801-6.136-5.53-10.47-3.914-11.209 1.774-.81 4.393 4.567 6.687 9.59 2.221 4.866 7.556 12.725 5.207 13.703z" class="fil2"/><path id="path2337" d="M105.33 450.05c-1.968.527-10.558-17.454-17.504-32.669-6.944-15.213-12.116-27.522-10.5-28.257 1.774-.81 7.396 13.56 14.344 28.776 6.946 15.215 15.135 31.754 13.661 32.15h-.001z" class="fil2"/><path id="path2193" d="M228.34 48.428c.001 3.668-3.941 6.66-8.777 6.66-4.834 0-8.777-2.992-8.777-6.661s3.943-6.663 8.777-6.663c4.836 0 8.778 2.993 8.778 6.663l-.001.001z" class="fil1"/><path id="path2192" d="M177.47 44.577s2.88-5.453 10.16-5.453c3.042 0 13.085-.21 13.085-.21 1.338 3.477 7.44 9.288 7.44 15.33 0 0-6.193-11.162-23.48-11.162-4.343 0-7.206 1.495-7.206 1.495z" fill="#cc092f"/><path id="path2194" d="M199.74 46.104s-4.247-1.362-4.247-2.789c0-1.816 2.063-1.816 3.296-.401.85.975.95 3.19.95 3.19h.001z" class="fil1"/><path id="path2196" d="M205.57 56.381s-3.683 3.879-4.482 5.95c-3.644-1.382-10-7.93-10-7.93s5.387 3.145 14.48 1.98h.002z" class="fil3"/><path id="path2191" d="M225.65 48.428c.001 3.357-2.738 6.093-6.096 6.093s-6.094-2.736-6.094-6.094c0-3.357 2.736-6.096 6.094-6.096 3.357 0 6.096 2.74 6.096 6.096l-.001.001h.001z" class="fil2"/><path id="path2189" d="M222.35 48.428a2.798 2.798 0 01-2.793 2.793 2.799 2.799 0 01-2.794-2.793 2.799 2.799 0 012.794-2.793 2.798 2.798 0 012.793 2.793z" class="fil1"/><path id="rect2189" d="M107.67 163.33s10.361 7.774 10.361 15.663V367.068c0 4.955 1.53 8.182 3.961 11.335 2.43 3.397 7.608 8.09 12.98 11.58 16.596 10.778 44.341 22.142 65.333 31.691 17.493 7.957 24.608 11.167 33.702 22.427 9.095-11.259 16.27-14.468 33.763-22.427 20.99-9.55 48.736-20.914 65.332-31.691 5.376-3.49 10.552-8.183 12.98-11.58 2.431-3.154 3.9-6.38 3.9-11.335V178.993c0-7.889 10.361-15.663 10.361-15.663H107.67h.002zm13.284 5.973h226.112s-3.047 3.667-3.047 9.69V367.068c0 4.104-4.26 13.72-28.826 25.96-40.61 20.236-71.823 29.685-81.177 41.2-9.356-11.516-40.568-20.963-81.177-41.2-24.568-12.24-28.827-21.855-28.827-25.96V178.993c0-6.023-3.048-9.69-3.048-9.69z" class="fil2"/></g></svg>