<svg xmlns="http://www.w3.org/2000/svg" width="300" height="300"><path transform="matrix(1.7641 1.75781 -1.75781 1.7641 149.082 -61.955)" d="M120.366 60.029c0 33.154-26.877 60.03-60.03 60.03C27.18 120.06.303 93.184.303 60.03.304 26.874 27.181-.002 60.335-.002c33.154 0 60.031 26.876 60.031 60.03z" fill="#ff0" stroke="#000" stroke-width=".402" stroke-linecap="round" stroke-linejoin="round"/><path d="M202.5 150c0 28.995-23.505 52.5-52.5 52.5S97.5 178.995 97.5 150s23.505-52.5 52.5-52.5 52.5 23.505 52.5 52.5z" fill="#fff"/><g stroke="#de2919" stroke-width=".986" fill="none"><path d="M160.115 154.835l-24.023-7.139M65.04 174.793c-15.871-4.045-35.788-29.874-37.033-35.165 7.158 0 142.838.312 142.838.312-7.157 17.115-30.185 32.986-35.476 34.23M29.875 143.363h139.103M32.987 147.72h133.502M38.588 154.877h121.988M55.894 170.437h86.322M54.818 169.755H143.6M45.085 161.723h108.79M44.538 161.104h109.86M37.967 143.417l11.355-3.818M160.845 143.409l-11.67-3.667M38.952 154.683l23.724-6.936M141.61 143.373l14.111 4.373M51.872 161.432l11.35-6.47M147.317 161.432l-11.962-6.591M58.097 169.61l10.374-8.056M140.97 170.22l-10.497-8.544M107.528 143.49l-5.249-3.662M85.802 143.49l5.737-3.784M111.433 169.975l-3.417-8.421M87.023 170.097l3.661-8.421M44.073 147.72l12.352-4.337" transform="matrix(1.49477 0 0 1.48883 .523 1.712)"/></g><path d="M92.277 271.225c27.424 13.303 70.983 21.239 115.98-.123" fill="none" stroke="#fff" stroke-width="29.389"/><g fill="none" stroke="#ef8410" stroke-width=".987"><path d="M120.491 64.813l-.002-38.417M118.477 64.813l-.013-19.408M122.516 64.813l-.013-19.408" transform="matrix(1.4667 .29053 -.28831 1.47802 2.45 -34.217)"/></g><g fill="#00943a" fill-rule="evenodd" stroke="#00943a" stroke-width=".98"><path d="M98.92 22.478h-5.306l4.28 40.534 1.077-.04-.052-40.494zM101.023 22.478h5.305l-4.28 40.534-1.077-.04.052-40.494z" transform="matrix(1.49477 0 0 1.5063 .566 -.014)"/></g><g fill="none" stroke="#ef8410" stroke-width=".987"><path d="M120.491 64.813l-.002-38.417M118.477 64.813l-.013-19.408M122.516 64.813l-.013-19.408" transform="matrix(-1.4667 .29053 .28831 1.47802 297.562 -34.217)"/></g><g fill="#00943a" fill-rule="evenodd" stroke="#00943a" stroke-width=".98"><path d="M98.92 22.478h-5.306l4.28 40.534 1.077-.04-.052-40.494zM101.023 22.478h5.305l-4.28 40.534-1.077-.04.052-40.494z" transform="matrix(1.3619 -.62084 .6161 1.37241 -48.604 75.978)"/></g><g fill="none" stroke="#ef8410" stroke-width=".987"><path d="M120.491 64.813l-.002-38.417M118.477 64.813l-.013-19.408M122.516 64.813l-.013-19.408" transform="matrix(-1.2175 .8739 .8672 1.2269 208.003 -78.54)"/></g><g fill="#00943a" fill-rule="evenodd" stroke="#00943a" stroke-width=".98"><path d="M98.92 22.478h-5.306l4.28 40.534 1.077-.04-.052-40.494zM101.023 22.478h5.305l-4.28 40.534-1.077-.04.052-40.494z" transform="matrix(.97873 -1.13851 1.1298 .98628 -60.56 165.503)"/></g><g fill="none" stroke="#ef8410" stroke-width=".987"><path d="M120.491 64.813l-.002-38.417M118.477 64.813l-.013-19.408M122.516 64.813l-.013-19.408" transform="matrix(-.74244 1.30737 1.29736 .74817 108.25 -83.103)"/></g><g fill="#00943a" fill-rule="evenodd" stroke="#00943a" stroke-width=".98"><path d="M98.92 22.478h-5.306l4.28 40.534 1.077-.04-.052-40.494zM101.023 22.478h5.305l-4.28 40.534-1.077-.04.052-40.494z" transform="matrix(.43858 -1.44001 1.42899 .44196 -36.768 250.497)"/></g><g fill="none" stroke="#ef8410" stroke-width=".987"><path d="M120.491 64.813l-.002-38.417M118.477 64.813l-.013-19.408M122.516 64.813l-.013-19.408" transform="matrix(-.15472 1.49822 1.48674 .15592 17.925 -45.654)"/></g><g fill="#00943a" fill-rule="evenodd" stroke="#00943a" stroke-width=".98"><path d="M98.92 22.478h-5.306l4.28 40.534 1.077-.04-.052-40.494zM101.023 22.478h5.305l-4.28 40.534-1.077-.04.052-40.494z" transform="matrix(-1.3619 -.62084 -.6161 1.37241 348.596 75.978)"/></g><g fill="none" stroke="#ef8410" stroke-width=".987"><path d="M120.491 64.813l-.002-38.417M118.477 64.813l-.013-19.408M122.516 64.813l-.013-19.408" transform="matrix(1.2175 .8739 -.8672 1.2269 91.989 -78.54)"/></g><g fill="#00943a" fill-rule="evenodd" stroke="#00943a" stroke-width=".98"><path d="M98.92 22.478h-5.306l4.28 40.534 1.077-.04-.052-40.494zM101.023 22.478h5.305l-4.28 40.534-1.077-.04.052-40.494z" transform="matrix(-.97873 -1.13851 -1.1298 .98628 360.552 165.503)"/></g><g fill="none" stroke="#ef8410" stroke-width=".987"><path d="M120.491 64.813l-.002-38.417M118.477 64.813l-.013-19.408M122.516 64.813l-.013-19.408" transform="matrix(.74244 1.30737 -1.29736 .74817 191.742 -83.103)"/></g><g fill="#00943a" fill-rule="evenodd" stroke="#00943a" stroke-width=".98"><path d="M98.92 22.478h-5.306l4.28 40.534 1.077-.04-.052-40.494zM101.023 22.478h5.305l-4.28 40.534-1.077-.04.052-40.494z" transform="matrix(-.43858 -1.44001 -1.42899 .44196 336.76 250.497)"/></g><g fill="none" stroke="#ef8410" stroke-width=".987"><path d="M120.491 64.813l-.002-38.417M118.477 64.813l-.013-19.408M122.516 64.813l-.013-19.408" transform="matrix(.15472 1.49822 -1.48674 .15592 282.066 -45.654)"/></g><g fill="#60bc24" fill-rule="evenodd" stroke="#60bc24" stroke-width=".493"><path d="M60.425 179.26c1.155-1.307-1.703-4.41-3.072-5.474-.669 1.673.913 5.96 3.072 5.474zM58.696 181.118c-.66 1.616-4.708.426-6.268-.33 1.203-1.34 5.748-1.821 6.268.33z" transform="matrix(1.4945 -.02855 .02867 1.48855 -3.878 2.73)"/><path d="M60.425 179.26c1.155-1.307-1.703-4.41-3.072-5.474-.669 1.673.913 5.96 3.072 5.474zM58.696 181.118c-.66 1.616-4.708.426-6.268-.33 1.203-1.34 5.748-1.821 6.268.33z" transform="matrix(1.4945 -.02855 .02867 1.48855 -11.788 -2.09)"/><path d="M60.425 179.26c1.155-1.307-1.703-4.41-3.072-5.474-.669 1.673.913 5.96 3.072 5.474zM58.696 181.118c-.66 1.616-4.708.426-6.268-.33 1.203-1.34 5.748-1.821 6.268.33z" transform="matrix(1.4945 -.02855 .02867 1.48855 -21.078 -7.573)"/><path d="M60.425 179.26c1.155-1.307-1.703-4.41-3.072-5.474-.669 1.673.913 5.96 3.072 5.474zM58.696 181.118c-.66 1.616-4.708.426-6.268-.33 1.203-1.34 5.748-1.821 6.268.33z" transform="scale(1.49477 1.48883) rotate(10.339 104.08 85.392)"/><path d="M60.425 179.26c1.155-1.307-1.703-4.41-3.072-5.474-.669 1.673.913 5.96 3.072 5.474zM58.696 181.118c-.66 1.616-4.708.426-6.268-.33 1.203-1.34 5.748-1.821 6.268.33z" transform="matrix(1.43709 .40961 -.41125 1.43137 45.475 -34.125)"/><path d="M60.425 179.26c1.155-1.307-1.703-4.41-3.072-5.474-.669 1.673.913 5.96 3.072 5.474zM58.696 181.118c-.66 1.616-4.708.426-6.268-.33 1.203-1.34 5.748-1.821 6.268.33z" transform="matrix(1.3848 .56048 -.56272 1.3793 68.964 -40.679)"/><path d="M60.425 179.26c1.155-1.307-1.703-4.41-3.072-5.474-.669 1.673.913 5.96 3.072 5.474zM58.696 181.118c-.66 1.616-4.708.426-6.268-.33 1.203-1.34 5.748-1.821 6.268.33z" transform="matrix(1.34619 .64713 -.64972 1.34083 80.524 -46.995)"/><path d="M60.425 179.26c1.155-1.307-1.703-4.41-3.072-5.474-.669 1.673.913 5.96 3.072 5.474zM58.696 181.118c-.66 1.616-4.708.426-6.268-.33 1.203-1.34 5.748-1.821 6.268.33z" transform="matrix(1.34619 .64713 -.64972 1.34083 75.252 -55.311)"/><g><path d="M60.425 179.26c1.155-1.307-1.703-4.41-3.072-5.474-.669 1.673.913 5.96 3.072 5.474zM58.696 181.118c-.66 1.616-4.708.426-6.268-.33 1.203-1.34 5.748-1.821 6.268.33z" transform="scale(1.49477 1.48883) rotate(35.45 94.556 103.422)"/></g><g><path d="M60.425 179.26c1.155-1.307-1.703-4.41-3.072-5.474-.669 1.673.913 5.96 3.072 5.474zM58.696 181.118c-.66 1.616-4.708.426-6.268-.33 1.203-1.34 5.748-1.821 6.268.33z" transform="scale(1.49477 1.48883) rotate(39.711 94.512 103.429)"/></g><g><path d="M60.425 179.26c1.155-1.307-1.703-4.41-3.072-5.474-.669 1.673.913 5.96 3.072 5.474zM58.696 181.118c-.66 1.616-4.708.426-6.268-.33 1.203-1.34 5.748-1.821 6.268.33z" transform="scale(1.49477 1.48883) rotate(42.357 96.993 100.712)"/></g><g><path d="M60.425 179.26c1.155-1.307-1.703-4.41-3.072-5.474-.669 1.673.913 5.96 3.072 5.474zM58.696 181.118c-.66 1.616-4.708.426-6.268-.33 1.203-1.34 5.748-1.821 6.268.33z" transform="scale(1.49477 1.48883) rotate(49.725 92.704 104.776)"/></g><g><path d="M60.425 179.26c1.155-1.307-1.703-4.41-3.072-5.474-.669 1.673.913 5.96 3.072 5.474zM58.696 181.118c-.66 1.616-4.708.426-6.268-.33 1.203-1.34 5.748-1.821 6.268.33z" transform="scale(1.49477 1.48883) rotate(49.725 98.733 100.78)"/></g><g><path d="M60.425 179.26c1.155-1.307-1.703-4.41-3.072-5.474-.669 1.673.913 5.96 3.072 5.474zM58.696 181.118c-.66 1.616-4.708.426-6.268-.33 1.203-1.34 5.748-1.821 6.268.33z" transform="matrix(.83616 1.2341 -1.23903 .83283 191.169 -50.445)"/></g><path d="M12.448 109.902c-1.645-.585-.89-4.166-.208-5.76 1.395 1.14 2.332 5.14.208 5.76z" transform="matrix(1.4945 -.02855 .02867 1.48855 -3.878 2.73)"/><g><path d="M60.425 179.26c1.155-1.307-1.703-4.41-3.072-5.474-.669 1.673.913 5.96 3.072 5.474zM58.696 181.118c-.66 1.616-4.708.426-6.268-.33 1.203-1.34 5.748-1.821 6.268.33z" transform="matrix(-1.4945 -.02855 -.02867 1.48855 303.878 2.73)"/><path d="M60.425 179.26c1.155-1.307-1.703-4.41-3.072-5.474-.669 1.673.913 5.96 3.072 5.474zM58.696 181.118c-.66 1.616-4.708.426-6.268-.33 1.203-1.34 5.748-1.821 6.268.33z" transform="matrix(-1.4945 -.02855 -.02867 1.48855 311.788 -2.09)"/><path d="M60.425 179.26c1.155-1.307-1.703-4.41-3.072-5.474-.669 1.673.913 5.96 3.072 5.474zM58.696 181.118c-.66 1.616-4.708.426-6.268-.33 1.203-1.34 5.748-1.821 6.268.33z" transform="matrix(-1.4945 -.02855 -.02867 1.48855 321.078 -7.573)"/><path d="M60.425 179.26c1.155-1.307-1.703-4.41-3.072-5.474-.669 1.673.913 5.96 3.072 5.474zM58.696 181.118c-.66 1.616-4.708.426-6.268-.33 1.203-1.34 5.748-1.821 6.268.33z" transform="matrix(-1.4705 .2672 .26827 1.46465 274.566 -25.746)"/><path d="M60.425 179.26c1.155-1.307-1.703-4.41-3.072-5.474-.669 1.673.913 5.96 3.072 5.474zM58.696 181.118c-.66 1.616-4.708.426-6.268-.33 1.203-1.34 5.748-1.821 6.268.33z" transform="matrix(-1.43709 .40961 .41125 1.43137 254.525 -34.125)"/><path d="M60.425 179.26c1.155-1.307-1.703-4.41-3.072-5.474-.669 1.673.913 5.96 3.072 5.474zM58.696 181.118c-.66 1.616-4.708.426-6.268-.33 1.203-1.34 5.748-1.821 6.268.33z" transform="matrix(-1.3848 .56048 .56272 1.3793 231.036 -40.679)"/><path d="M60.425 179.26c1.155-1.307-1.703-4.41-3.072-5.474-.669 1.673.913 5.96 3.072 5.474zM58.696 181.118c-.66 1.616-4.708.426-6.268-.33 1.203-1.34 5.748-1.821 6.268.33z" transform="matrix(-1.34619 .64713 .64972 1.34083 219.476 -46.995)"/><path d="M60.425 179.26c1.155-1.307-1.703-4.41-3.072-5.474-.669 1.673.913 5.96 3.072 5.474zM58.696 181.118c-.66 1.616-4.708.426-6.268-.33 1.203-1.34 5.748-1.821 6.268.33z" transform="matrix(-1.34619 .64713 .64972 1.34083 224.748 -55.311)"/><g><path d="M60.425 179.26c1.155-1.307-1.703-4.41-3.072-5.474-.669 1.673.913 5.96 3.072 5.474zM58.696 181.118c-.66 1.616-4.708.426-6.268-.33 1.203-1.34 5.748-1.821 6.268.33z" transform="scale(-1.49477 1.48883) rotate(35.45 -5.794 -210.543)"/></g><g><path d="M60.425 179.26c1.155-1.307-1.703-4.41-3.072-5.474-.669 1.673.913 5.96 3.072 5.474zM58.696 181.118c-.66 1.616-4.708.426-6.268-.33 1.203-1.34 5.748-1.821 6.268.33z" transform="scale(-1.49477 1.48883) rotate(39.711 -5.837 -174.455)"/></g><g><path d="M60.425 179.26c1.155-1.307-1.703-4.41-3.072-5.474-.669 1.673.913 5.96 3.072 5.474zM58.696 181.118c-.66 1.616-4.708.426-6.268-.33 1.203-1.34 5.748-1.821 6.268.33z" transform="scale(-1.49477 1.48883) rotate(42.357 -3.357 -158.293)"/></g><g><path d="M60.425 179.26c1.155-1.307-1.703-4.41-3.072-5.474-.669 1.673.913 5.96 3.072 5.474zM58.696 181.118c-.66 1.616-4.708.426-6.268-.33 1.203-1.34 5.748-1.821 6.268.33z" transform="matrix(-.9663 1.1359 1.14044 .96246 131.518 -50.152)"/></g><g><path d="M60.425 179.26c1.155-1.307-1.703-4.41-3.072-5.474-.669 1.673.913 5.96 3.072 5.474zM58.696 181.118c-.66 1.616-4.708.426-6.268-.33 1.203-1.34 5.748-1.821 6.268.33z" transform="matrix(-.9663 1.1359 1.14044 .96246 132.889 -59.103)"/></g><g><path d="M60.425 179.26c1.155-1.307-1.703-4.41-3.072-5.474-.669 1.673.913 5.96 3.072 5.474zM58.696 181.118c-.66 1.616-4.708.426-6.268-.33 1.203-1.34 5.748-1.821 6.268.33z" transform="matrix(-.83616 1.2341 1.23903 .83283 108.831 -50.445)"/></g><path d="M12.448 109.902c-1.645-.585-.89-4.166-.208-5.76 1.395 1.14 2.332 5.14.208 5.76z" transform="matrix(-1.4945 -.02855 -.02867 1.48855 303.878 2.73)"/></g></g><path d="M83.842 156.503c-1.733 35.619 25.545 61.977 43.736 65.603v-9.92c-21.501-7.291-36.59-25.396-43.736-55.683zm132.316 0c-7.146 30.287-22.267 48.392-43.767 55.683v9.92c18.19-3.626 45.5-29.984 43.767-65.603zm-86.996 56.064v9.73c6.335 1.778 10.348 5.564 13.12 11.25 2.432 4.986 3.102 10.604 3.962 14.389.117.513-.055.876-.253.887-.286.017-.42-.482-.475-.697-1.677-6.583-4.44-12.407-7.036-16.607-1.446-2.34-3.113-4.645-5.198-6.307-.714-.569-1.445-.658-2.282-.38.326 2.942.904 5.776 2.219 8.43 1.368 2.762 2.938 4.285 4.247 6.307 1.308 2.022 2.51 4.518 3.517 9.254.784 3.68.739 8.558 1.49 12.519.795 4.191 3.211 6.782 7.511 6.782 4.3 0 6.716-2.59 7.511-6.782.752-3.96.706-8.839 1.49-12.519 1.008-4.736 2.209-7.232 3.518-9.254 1.309-2.022 2.878-3.545 4.247-6.307 1.315-2.654 1.893-5.488 2.218-8.43-.836-.278-1.568-.189-2.282.38-2.085 1.662-3.751 3.967-5.197 6.307-2.596 4.2-5.36 10.024-7.036 16.607-.055.215-.19.714-.476.697-.197-.011-.37-.374-.253-.887.86-3.785 1.53-9.403 3.961-14.389 2.774-5.686 6.787-9.472 13.121-11.25v-9.73c-6.485 2.548-13.888 3.518-20.822 3.518-6.934 0-14.337-.97-20.822-3.518zm-6.655 10.807c-6.974.245-14.22 2.196-15.942 7.32 5.353 1.936 15.85.04 20.664-7.225a45.368 45.368 0 00-4.722-.095zm51.785 0c-.519.018-1.018.06-1.52.095 4.814 7.265 15.31 9.16 20.663 7.226-1.987-5.913-11.356-7.598-19.143-7.321z" fill="#de2919" fill-rule="evenodd"/><g stroke="#de2919"><path d="M111.491 70.11c-3.66 4.792-9.762 16.261-22.054 18.764-.366 2.437-3.095 4.513-3.29 7.19-.3 4.109 2.462 7.055 2.071 9.747-.574 2.621-3.53 4.876-4.265 6.702-1.777 4.413-1.944 6.121 1.828 10.844 3.093 5.672 5.387 5.685 5.605 5.971 9.224-3.653 9.77-6.646 9.87-6.702 1.218-2.558 9.382-31.07 9.382-31.07-.73-1.95-1.218-7.921-1.218-7.921 1.154 2.13 1 1.796 2.924 6.214 2.795-4.273 1.584-6.946 1.584-6.945-2.594-10.611-2.315-12.552-2.437-12.794z" fill="#de2919" fill-rule="evenodd" stroke-width=".986" transform="matrix(1.49477 0 0 1.48883 .523 1.712)"/><path d="M101.865 77.908c.487-1.95.731-2.193.731-2.193" fill="none" stroke-width="1.085" transform="matrix(1.49477 0 0 1.48883 .523 1.712)"/><path d="M112.831 94.48l1.219-2.438" fill="none" stroke-width="1.38" transform="matrix(1.49477 0 0 1.48883 .523 1.712)"/></g><g font-weight="400" font-family="Bitstream Vera Sans"><text style="text-align:start;line-height:139.99999762%" x="-111.813" y="58.161" transform="matrix(.27117 -1.04121 1.02934 .2743 -2.698 -4.04)" font-size="12"><tspan x="-111.813" y="58.161" font-size="20">R</tspan></text><text style="text-align:start;line-height:139.99999762%" x="-90.851" y="67.93" transform="matrix(.37584 -1.00739 .9959 .38018 -2.698 -4.04)" font-size="12"><tspan x="-90.851" y="67.93" font-size="20">E</tspan></text><text style="text-align:start;line-height:139.99999762%" x="-69.34" y="76.108" transform="matrix(.48506 -.95845 .94752 .49066 -2.698 -4.04)" font-size="12"><tspan x="-69.34" y="76.108" font-size="20">P</tspan></text><text style="text-align:start;line-height:139.99999762%" x="-47.328" y="81.753" transform="matrix(.58479 -.8997 .88944 .59153 -2.698 -4.04)" font-size="12"><tspan x="-47.328" y="81.753" font-size="20">O</tspan></text><text style="text-align:start;line-height:139.99999762%" x="-20.742" y="85.376" transform="matrix(.69728 -.81356 .80428 .70533 -2.698 -4.04)" font-size="12"><tspan x="-20.742" y="85.376" font-size="20">B</tspan></text><text style="text-align:start;line-height:139.99999762%" x="1.866" y="85.711" transform="matrix(.7798 -.7329 .72455 .7888 -2.698 -4.04)" font-size="12"><tspan x="1.866" y="85.711" font-size="20">L</tspan></text><text style="text-align:start;line-height:139.99999762%" x="19.086" y="84.676" transform="matrix(.82983 -.67436 .66667 .8394 -2.698 -4.04)" font-size="20"><tspan x="19.086" y="84.676">I</tspan></text><text style="text-align:start;line-height:139.99999762%" x="31.985" y="81.991" transform="matrix(.885 -.5983 .59147 .89521 -2.698 -4.04)" font-size="12"><tspan x="31.985" y="81.991" font-size="20">K</tspan></text><text style="text-align:start;line-height:139.99999762%" x="54.548" y="76.215" transform="matrix(.94754 -.4906 .485 .95847 -2.698 -4.04)" font-size="12"><tspan x="54.548" y="76.215" font-size="20">A</tspan></text><text style="text-align:start;line-height:139.99999762%" x="76.655" y="67.386" transform="matrix(.99932 -.37087 .36665 1.01085 -2.698 -4.04)" font-size="20"><tspan x="76.655" y="67.386">N</tspan></text><text style="text-align:start;line-height:139.99999762%" x="104.439" y="55.304" transform="matrix(1.0376 -.24032 .23758 1.04957 -2.698 -4.04)" font-size="20"><tspan x="104.439" y="55.304">&apos;</tspan></text><text style="text-align:start;line-height:139.99999762%" x="110.104" y="51.676" transform="matrix(1.0449 -.20547 .20313 1.05695 -2.698 -4.04)" font-size="20"><tspan x="110.104" y="51.676">I</tspan></text><text style="text-align:start;line-height:139.99999762%" x="147.145" y="14.382" transform="scale(1.06446 1.07674) rotate(4.829 43.228 -31.934)" font-size="20"><tspan x="147.145" y="14.382">M</tspan></text><text style="text-align:start;line-height:139.99999762%" x="164.331" y="-7.663" transform="matrix(1.03912 .23352 -.23086 1.0511 -2.698 -4.04)" font-size="20"><tspan x="164.331" y="-7.663">A</tspan></text><text style="text-align:start;line-height:139.99999762%" x="175.724" y="-27.674" transform="scale(1.06446 1.07674) rotate(19.01 9.939 -9.446)" font-size="20"><tspan x="175.724" y="-27.674">D</tspan></text><text style="text-align:start;line-height:139.99999762%" x="185.313" y="-50.731" transform="matrix(.95624 .47302 -.46762 .96727 -2.698 -4.04)" font-size="20"><tspan x="185.313" y="-50.731">A</tspan></text><text style="text-align:start;line-height:139.99999762%" x="190.922" y="-74.951" transform="scale(1.06446 1.07674) rotate(33.133 5.04 -6.137)" font-size="20"><tspan x="190.922" y="-74.951">G</tspan></text><text style="text-align:start;line-height:139.99999762%" x="196.823" y="-97.545" transform="matrix(.82038 .6861 -.67827 .82984 -2.698 -4.04)" font-size="20"><tspan x="196.823" y="-97.545">A</tspan></text><text style="text-align:start;line-height:139.99999762%" x="197.401" y="-121.358" transform="scale(1.06446 1.07674) rotate(46.26 3.125 -4.844)" font-size="20"><tspan x="197.401" y="-121.358">S</tspan></text><text style="text-align:start;line-height:139.99999762%" x="200.161" y="-137.951" transform="matrix(.67108 .8358 -.82627 .67882 -2.698 -4.04)" font-size="20"><tspan x="200.161" y="-137.951">I</tspan></text><text style="text-align:start;line-height:139.99999762%" x="194.899" y="-153.123" transform="matrix(.60725 .88434 -.87426 .61425 -2.698 -4.04)" font-size="20"><tspan x="194.899" y="-153.123">K</tspan></text><text style="text-align:start;line-height:139.99999762%" x="189.491" y="-175.777" transform="matrix(.50413 .94832 -.9375 .50995 -2.698 -4.04)" font-size="20"><tspan x="189.491" y="-175.777">A</tspan></text><text style="text-align:start;line-height:139.99999762%" x="180.646" y="-198.575" transform="matrix(.3894 1.0021 -.99068 .3939 -2.698 -4.04)" font-size="20"><tspan x="180.646" y="-198.575">R</tspan></text><text style="text-align:start;line-height:139.99999762%" x="168.492" y="-221.499" transform="scale(1.06446 1.07674) rotate(75.784 1.143 -3.505)" font-size="20"><tspan x="168.492" y="-221.499">A</tspan></text></g><text transform="rotate(20.857 803.909 -815.898)" y="451.894" x="536.176" style="text-align:start;line-height:139.99999762%" font-size="6.387" font-weight="400" font-family="Bitstream Vera Sans"><tspan y="451.894" x="536.176">T</tspan></text><text transform="rotate(19.612 863.753 -857.794)" y="463.512" x="530.147" style="text-align:start;line-height:139.99999762%" font-size="6.387" font-weight="400" font-family="Bitstream Vera Sans"><tspan y="463.512" x="530.147">A</tspan></text><text transform="rotate(18.017 952.379 -919.841)" y="478.181" x="521.323" style="text-align:start;line-height:139.99999762%" font-size="6.387" font-weight="400" font-family="Bitstream Vera Sans"><tspan y="478.181" x="521.323">N</tspan></text><text transform="rotate(16.394 1060.171 -995.306)" y="492.856" x="512.215" style="text-align:start;line-height:139.99999762%" font-size="6.387" font-weight="400" font-family="Bitstream Vera Sans"><tspan y="492.856" x="512.215">I</tspan></text><text transform="rotate(14.91 1179.058 -1078.538)" y="506.026" x="501.07" style="text-align:start;line-height:139.99999762%" font-size="6.387" font-weight="400" font-family="Bitstream Vera Sans"><tspan y="506.026" x="501.07">N</tspan></text><text transform="rotate(13.015 1370.06 -1212.257)" y="522.465" x="488.699" style="text-align:start;line-height:139.99999762%" font-size="6.387" font-weight="400" font-family="Bitstream Vera Sans"><tspan y="522.465" x="488.699">D</tspan></text><text transform="rotate(10.774 1682.168 -1430.763)" y="541.342" x="472.551" style="text-align:start;line-height:139.99999762%" font-size="6.387" font-weight="400" font-family="Bitstream Vera Sans"><tspan y="541.342" x="472.551">R</tspan></text><text transform="rotate(8.668 2122.053 -1738.724)" y="558.512" x="456.97" style="text-align:start;line-height:139.99999762%" font-size="6.387" font-weight="400" font-family="Bitstream Vera Sans"><tspan y="558.512" x="456.97">A</tspan></text><text transform="rotate(6.73 2769.559 -2192.04)" y="573.787" x="442.111" style="text-align:start;line-height:139.99999762%" font-size="6.387" font-weight="400" font-family="Bitstream Vera Sans"><tspan y="573.787" x="442.111">Z</tspan></text><text transform="rotate(4.795 3937.839 -3009.947)" y="588.532" x="426.424" style="text-align:start;line-height:139.99999762%" font-size="6.387" font-weight="400" font-family="Bitstream Vera Sans"><tspan y="588.532" x="426.424">A</tspan></text><text transform="rotate(2.649 7226.933 -5312.628)" y="604.256" x="408.36" style="text-align:start;line-height:139.99999762%" font-size="6.387" font-weight="400" font-family="Bitstream Vera Sans"><tspan y="604.256" x="408.36">N</tspan></text><text transform="rotate(.535 36265.184 -25642.178)" y="619.078" x="390.448" style="text-align:start;line-height:139.99999762%" font-size="6.387" font-weight="400" font-family="Bitstream Vera Sans"><tspan y="619.078" x="390.448">A</tspan></text><text transform="rotate(10.363 1754.053 -1481.09)" y="553.091" x="470.358" style="text-align:start;line-height:139.99999762%" font-size="6.387" font-weight="400" font-family="Bitstream Vera Sans"><tspan y="553.091" x="470.358">F</tspan></text><text transform="rotate(7.239 2566.083 -2049.588)" y="578.11" x="443.447" style="text-align:start;line-height:139.99999762%" font-size="6.387" font-weight="400" font-family="Bitstream Vera Sans"><tspan y="578.11" x="443.447">A</tspan></text><text transform="rotate(4.831 3907.59 -2988.771)" y="596.413" x="423.059" style="text-align:start;line-height:139.99999762%" font-size="6.387" font-weight="400" font-family="Bitstream Vera Sans"><tspan y="596.413" x="423.059">N</tspan></text><text transform="rotate(2.892 6610.487 -4881.056)" y="610.54" x="407.293" style="text-align:start;line-height:139.99999762%" font-size="6.387" font-weight="400" font-family="Bitstream Vera Sans"><tspan y="610.54" x="407.293">D</tspan></text><text transform="rotate(1.192 16205.5 -11598.485)" y="622.489" x="393.649" style="text-align:start;line-height:139.99999762%" font-size="6.387" font-weight="400" font-family="Bitstream Vera Sans"><tspan y="622.489" x="393.649">R</tspan></text><text y="630.618" x="385.231" style="text-align:start;line-height:139.99999762%" font-size="6.387" font-weight="400" font-family="Bitstream Vera Sans" transform="translate(-237.809 -339.68)"><tspan y="630.618" x="385.231">O</tspan></text><text transform="rotate(-2.078 -9485.901 6387.95)" y="644.343" x="367.142" style="text-align:start;line-height:139.99999762%" font-size="6.387" font-weight="400" font-family="Bitstream Vera Sans"><tspan y="644.343" x="367.142">S</tspan></text><text transform="rotate(-5.033 -3983.525 2535.763)" y="662.702" x="337.751" style="text-align:start;line-height:139.99999762%" font-size="6.387" font-weight="400" font-family="Bitstream Vera Sans"><tspan y="662.702" x="337.751">O</tspan></text><text transform="rotate(-6.166 -3272.283 2037.825)" y="669.396" x="329.522" style="text-align:start;line-height:139.99999762%" font-size="6.387" font-weight="400" font-family="Bitstream Vera Sans"><tspan y="669.396" x="329.522">A</tspan></text><text transform="rotate(-9.497 -2163.547 1261.605)" y="687.697" x="294.371" style="text-align:start;line-height:139.99999762%" font-size="6.387" font-weight="400" font-family="Bitstream Vera Sans"><tspan y="687.697" x="294.371">N</tspan></text><text transform="rotate(-15.011 -1407.978 732.634)" y="713.273" x="231.537" style="text-align:start;line-height:139.99999762%" font-size="6.387" font-weight="400" font-family="Bitstream Vera Sans"><tspan y="713.273" x="231.537">A</tspan></text><text transform="rotate(-3.505 -5669.723 3716.261)" y="645.509" x="355.47" style="text-align:start;line-height:139.99999762%" font-size="6.387" font-weight="400" font-family="Bitstream Vera Sans"><tspan y="645.509" x="355.47">F</tspan></text><text transform="rotate(-5.528 -3636.614 2292.892)" y="657.778" x="336.399" style="text-align:start;line-height:139.99999762%" font-size="6.387" font-weight="400" font-family="Bitstream Vera Sans"><tspan y="657.778" x="336.399">A</tspan></text><text transform="rotate(-7.553 -2691.992 1631.566)" y="669.428" x="317.235" style="text-align:start;line-height:139.99999762%" font-size="6.387" font-weight="400" font-family="Bitstream Vera Sans"><tspan y="669.428" x="317.235">H</tspan></text><text transform="rotate(-9.21 -2227.554 1306.415)" y="678.454" x="302.387" style="text-align:start;line-height:139.99999762%" font-size="6.387" font-weight="400" font-family="Bitstream Vera Sans"><tspan y="678.454" x="302.387">A</tspan></text><text transform="rotate(-10.752 -1923.74 1093.716)" y="686.435" x="288.307" style="text-align:start;line-height:139.99999762%" font-size="6.387" font-weight="400" font-family="Bitstream Vera Sans"><tspan y="686.435" x="288.307">F</tspan></text><text transform="rotate(-12.682 -1647.308 900.188)" y="695.904" x="268.966" style="text-align:start;line-height:139.99999762%" font-size="6.387" font-weight="400" font-family="Bitstream Vera Sans"><tspan y="695.904" x="268.966">A</tspan></text><text transform="rotate(-14.312 -1471.7 777.246)" y="703.409" x="253.339" style="text-align:start;line-height:139.99999762%" font-size="6.387" font-weight="400" font-family="Bitstream Vera Sans"><tspan y="703.409" x="253.339">H</tspan></text><text transform="rotate(-15.832 -1340.39 685.316)" y="709.989" x="239.233" style="text-align:start;line-height:139.99999762%" font-size="6.387" font-weight="400" font-family="Bitstream Vera Sans"><tspan y="709.989" x="239.233">A</tspan></text><text transform="rotate(-17.409 -1228.257 606.812)" y="716.418" x="223.906" style="text-align:start;line-height:139.99999762%" font-size="6.387" font-weight="400" font-family="Bitstream Vera Sans"><tspan y="716.418" x="223.906">N</tspan></text><text transform="rotate(-18.894 -1139.606 544.748)" y="722.114" x="209.894" style="text-align:start;line-height:139.99999762%" font-size="6.387" font-weight="400" font-family="Bitstream Vera Sans"><tspan y="722.114" x="209.894">A</tspan></text></svg>