<svg xmlns="http://www.w3.org/2000/svg" width="1220" height="1355" viewBox="0 0 322.792 358.51"><path d="M890.593 475.009h-135.6M822.793 566.313V383.705M826.293 566.313V383.705M819.293 566.313V383.705" fill="none" stroke="red" stroke-width=".1"/><path d="M161.396 17.75A161.396 161.396 0 000 179.145a161.396 161.396 0 0077.156 137.431v11.646c-5.937 2.74-10.167 8.247-10.794 15.09h-.001a10.233 10.233 0 00-7.97 9.97v2.379H264.401v-2.38c0-4.776-3.313-8.913-7.969-9.969h-.001c-.627-6.843-4.858-12.35-10.794-15.09v-11.568a161.396 161.396 0 0077.155-137.51A161.396 161.396 0 00161.396 17.75z" fill="#ffc705"/><path d="M161.396 48.678c-72.055 0-130.467 58.412-130.467 130.467.025 48.213 26.64 92.481 69.207 115.12h122.453c42.594-22.62 69.235-66.893 69.274-115.12 0-72.055-58.412-130.467-130.467-130.467z" fill="#1b4392"/><g transform="matrix(2.55819 0 0 2.55819 -261.269 -232.898)"><circle cx="195.321" cy="197.469" r="4.3" fill="#b5d98b"/><circle cx="195.321" cy="197.469" r="3.1" fill="#6dc235"/><circle cx="195.321" cy="197.469" r="1.9" fill="#093"/></g><g transform="matrix(2.55819 0 0 2.55819 -239.268 -232.898)"><circle cx="195.321" cy="197.469" r="4.3" fill="#b5d98b"/><circle cx="195.321" cy="197.469" r="3.1" fill="#6dc235"/><circle cx="195.321" cy="197.469" r="1.9" fill="#093"/></g><g transform="matrix(2.55819 0 0 2.55819 -305.27 -232.898)"><circle cx="195.321" cy="197.469" r="4.3" fill="#b5d98b"/><circle cx="195.321" cy="197.469" r="3.1" fill="#6dc235"/><circle cx="195.321" cy="197.469" r="1.9" fill="#093"/></g><g transform="matrix(2.55819 0 0 2.55819 -283.27 -232.898)"><circle cx="195.321" cy="197.469" r="4.3" fill="#b5d98b"/><circle cx="195.321" cy="197.469" r="3.1" fill="#6dc235"/><circle cx="195.321" cy="197.469" r="1.9" fill="#093"/></g><g transform="matrix(2.55819 0 0 2.55819 -349.27 -232.898)"><circle cx="195.321" cy="197.469" r="4.3" fill="#b5d98b"/><circle cx="195.321" cy="197.469" r="3.1" fill="#6dc235"/><circle cx="195.321" cy="197.469" r="1.9" fill="#093"/></g><g transform="matrix(2.55819 0 0 2.55819 -327.27 -232.898)"><circle cx="195.321" cy="197.469" r="4.3" fill="#b5d98b"/><circle cx="195.321" cy="197.469" r="3.1" fill="#6dc235"/><circle cx="195.321" cy="197.469" r="1.9" fill="#093"/></g><g transform="matrix(2.55819 0 0 2.55819 -393.271 -232.898)"><circle cx="195.321" cy="197.469" r="4.3" fill="#b5d98b"/><circle cx="195.321" cy="197.469" r="3.1" fill="#6dc235"/><circle cx="195.321" cy="197.469" r="1.9" fill="#093"/></g><g transform="matrix(2.55819 0 0 2.55819 -371.27 -232.898)"><circle cx="195.321" cy="197.469" r="4.3" fill="#b5d98b"/><circle cx="195.321" cy="197.469" r="3.1" fill="#6dc235"/><circle cx="195.321" cy="197.469" r="1.9" fill="#093"/></g><g transform="matrix(2.55819 0 0 2.55819 -437.272 -232.898)"><circle cx="195.321" cy="197.469" r="4.3" fill="#b5d98b"/><circle cx="195.321" cy="197.469" r="3.1" fill="#6dc235"/><circle cx="195.321" cy="197.469" r="1.9" fill="#093"/></g><g transform="matrix(2.55819 0 0 2.55819 -415.272 -232.898)"><circle cx="195.321" cy="197.469" r="4.3" fill="#b5d98b"/><circle cx="195.321" cy="197.469" r="3.1" fill="#6dc235"/><circle cx="195.321" cy="197.469" r="1.9" fill="#093"/></g><g transform="matrix(2.55819 0 0 2.55819 -250.269 -232.898)"><circle cx="195.321" cy="197.469" r="4.3" fill="#b5d98b"/><circle cx="195.321" cy="197.469" r="3.1" fill="#6dc235"/><circle cx="195.321" cy="197.469" r="1.9" fill="#093"/></g><g transform="matrix(2.55819 0 0 2.55819 -294.27 -232.898)"><circle cx="195.321" cy="197.469" r="4.3" fill="#b5d98b"/><circle cx="195.321" cy="197.469" r="3.1" fill="#6dc235"/><circle cx="195.321" cy="197.469" r="1.9" fill="#093"/></g><g transform="matrix(2.55819 0 0 2.55819 -272.269 -232.898)"><circle cx="195.321" cy="197.469" r="4.3" fill="#b5d98b"/><circle cx="195.321" cy="197.469" r="3.1" fill="#6dc235"/><circle cx="195.321" cy="197.469" r="1.9" fill="#093"/></g><g transform="matrix(2.55819 0 0 2.55819 -338.27 -232.898)"><circle cx="195.321" cy="197.469" r="4.3" fill="#b5d98b"/><circle cx="195.321" cy="197.469" r="3.1" fill="#6dc235"/><circle cx="195.321" cy="197.469" r="1.9" fill="#093"/></g><g transform="matrix(2.55819 0 0 2.55819 -316.27 -232.898)"><circle cx="195.321" cy="197.469" r="4.3" fill="#b5d98b"/><circle cx="195.321" cy="197.469" r="3.1" fill="#6dc235"/><circle cx="195.321" cy="197.469" r="1.9" fill="#093"/></g><g transform="matrix(2.55819 0 0 2.55819 -382.27 -232.898)"><circle cx="195.321" cy="197.469" r="4.3" fill="#b5d98b"/><circle cx="195.321" cy="197.469" r="3.1" fill="#6dc235"/><circle cx="195.321" cy="197.469" r="1.9" fill="#093"/></g><g transform="matrix(2.55819 0 0 2.55819 -360.27 -232.898)"><circle cx="195.321" cy="197.469" r="4.3" fill="#b5d98b"/><circle cx="195.321" cy="197.469" r="3.1" fill="#6dc235"/><circle cx="195.321" cy="197.469" r="1.9" fill="#093"/></g><g transform="matrix(2.55819 0 0 2.55819 -426.272 -232.898)"><circle cx="195.321" cy="197.469" r="4.3" fill="#b5d98b"/><circle cx="195.321" cy="197.469" r="3.1" fill="#6dc235"/><circle cx="195.321" cy="197.469" r="1.9" fill="#093"/></g><g transform="matrix(2.55819 0 0 2.55819 -404.271 -232.898)"><circle cx="195.321" cy="197.469" r="4.3" fill="#b5d98b"/><circle cx="195.321" cy="197.469" r="3.1" fill="#6dc235"/><circle cx="195.321" cy="197.469" r="1.9" fill="#093"/></g><g transform="matrix(2.55819 0 0 2.55819 -250.269 -221.898)"><circle cx="195.321" cy="197.469" r="4.3" fill="#b5d98b"/><circle cx="195.321" cy="197.469" r="3.1" fill="#6dc235"/><circle cx="195.321" cy="197.469" r="1.9" fill="#093"/></g><g transform="matrix(2.55819 0 0 2.55819 -294.27 -221.898)"><circle cx="195.321" cy="197.469" r="4.3" fill="#b5d98b"/><circle cx="195.321" cy="197.469" r="3.1" fill="#6dc235"/><circle cx="195.321" cy="197.469" r="1.9" fill="#093"/></g><g transform="matrix(2.55819 0 0 2.55819 -272.269 -221.898)"><circle cx="195.321" cy="197.469" r="4.3" fill="#b5d98b"/><circle cx="195.321" cy="197.469" r="3.1" fill="#6dc235"/><circle cx="195.321" cy="197.469" r="1.9" fill="#093"/></g><g transform="matrix(2.55819 0 0 2.55819 -338.27 -221.898)"><circle cx="195.321" cy="197.469" r="4.3" fill="#b5d98b"/><circle cx="195.321" cy="197.469" r="3.1" fill="#6dc235"/><circle cx="195.321" cy="197.469" r="1.9" fill="#093"/></g><g transform="matrix(2.55819 0 0 2.55819 -316.27 -221.898)"><circle cx="195.321" cy="197.469" r="4.3" fill="#b5d98b"/><circle cx="195.321" cy="197.469" r="3.1" fill="#6dc235"/><circle cx="195.321" cy="197.469" r="1.9" fill="#093"/></g><g transform="matrix(2.55819 0 0 2.55819 -382.27 -221.898)"><circle cx="195.321" cy="197.469" r="4.3" fill="#b5d98b"/><circle cx="195.321" cy="197.469" r="3.1" fill="#6dc235"/><circle cx="195.321" cy="197.469" r="1.9" fill="#093"/></g><g transform="matrix(2.55819 0 0 2.55819 -360.27 -221.898)"><circle cx="195.321" cy="197.469" r="4.3" fill="#b5d98b"/><circle cx="195.321" cy="197.469" r="3.1" fill="#6dc235"/><circle cx="195.321" cy="197.469" r="1.9" fill="#093"/></g><g transform="matrix(2.55819 0 0 2.55819 -426.272 -221.898)"><circle cx="195.321" cy="197.469" r="4.3" fill="#b5d98b"/><circle cx="195.321" cy="197.469" r="3.1" fill="#6dc235"/><circle cx="195.321" cy="197.469" r="1.9" fill="#093"/></g><g transform="matrix(2.55819 0 0 2.55819 -404.271 -221.898)"><circle cx="195.321" cy="197.469" r="4.3" fill="#b5d98b"/><circle cx="195.321" cy="197.469" r="3.1" fill="#6dc235"/><circle cx="195.321" cy="197.469" r="1.9" fill="#093"/></g><g transform="matrix(2.55819 0 0 2.55819 -283.27 -221.898)"><circle cx="195.321" cy="197.469" r="4.3" fill="#b5d98b"/><circle cx="195.321" cy="197.469" r="3.1" fill="#6dc235"/><circle cx="195.321" cy="197.469" r="1.9" fill="#093"/></g><g transform="matrix(2.55819 0 0 2.55819 -261.269 -221.898)"><circle cx="195.321" cy="197.469" r="4.3" fill="#b5d98b"/><circle cx="195.321" cy="197.469" r="3.1" fill="#6dc235"/><circle cx="195.321" cy="197.469" r="1.9" fill="#093"/></g><g transform="matrix(2.55819 0 0 2.55819 -327.27 -221.898)"><circle cx="195.321" cy="197.469" r="4.3" fill="#b5d98b"/><circle cx="195.321" cy="197.469" r="3.1" fill="#6dc235"/><circle cx="195.321" cy="197.469" r="1.9" fill="#093"/></g><g transform="matrix(2.55819 0 0 2.55819 -305.27 -221.898)"><circle cx="195.321" cy="197.469" r="4.3" fill="#b5d98b"/><circle cx="195.321" cy="197.469" r="3.1" fill="#6dc235"/><circle cx="195.321" cy="197.469" r="1.9" fill="#093"/></g><g transform="matrix(2.55819 0 0 2.55819 -371.27 -221.898)"><circle cx="195.321" cy="197.469" r="4.3" fill="#b5d98b"/><circle cx="195.321" cy="197.469" r="3.1" fill="#6dc235"/><circle cx="195.321" cy="197.469" r="1.9" fill="#093"/></g><g transform="matrix(2.55819 0 0 2.55819 -349.27 -221.898)"><circle cx="195.321" cy="197.469" r="4.3" fill="#b5d98b"/><circle cx="195.321" cy="197.469" r="3.1" fill="#6dc235"/><circle cx="195.321" cy="197.469" r="1.9" fill="#093"/></g><g transform="matrix(2.55819 0 0 2.55819 -415.272 -221.898)"><circle cx="195.321" cy="197.469" r="4.3" fill="#b5d98b"/><circle cx="195.321" cy="197.469" r="3.1" fill="#6dc235"/><circle cx="195.321" cy="197.469" r="1.9" fill="#093"/></g><g transform="matrix(2.55819 0 0 2.55819 -393.271 -221.898)"><circle cx="195.321" cy="197.469" r="4.3" fill="#b5d98b"/><circle cx="195.321" cy="197.469" r="3.1" fill="#6dc235"/><circle cx="195.321" cy="197.469" r="1.9" fill="#093"/></g><g transform="matrix(2.55819 0 0 2.55819 -283.27 -210.898)"><circle cx="195.321" cy="197.469" r="4.3" fill="#b5d98b"/><circle cx="195.321" cy="197.469" r="3.1" fill="#6dc235"/><circle cx="195.321" cy="197.469" r="1.9" fill="#093"/></g><g transform="matrix(2.55819 0 0 2.55819 -261.269 -210.898)"><circle cx="195.321" cy="197.469" r="4.3" fill="#b5d98b"/><circle cx="195.321" cy="197.469" r="3.1" fill="#6dc235"/><circle cx="195.321" cy="197.469" r="1.9" fill="#093"/></g><g transform="matrix(2.55819 0 0 2.55819 -327.27 -210.898)"><circle cx="195.321" cy="197.469" r="4.3" fill="#b5d98b"/><circle cx="195.321" cy="197.469" r="3.1" fill="#6dc235"/><circle cx="195.321" cy="197.469" r="1.9" fill="#093"/></g><g transform="matrix(2.55819 0 0 2.55819 -305.27 -210.898)"><circle cx="195.321" cy="197.469" r="4.3" fill="#b5d98b"/><circle cx="195.321" cy="197.469" r="3.1" fill="#6dc235"/><circle cx="195.321" cy="197.469" r="1.9" fill="#093"/></g><g transform="matrix(2.55819 0 0 2.55819 -371.27 -210.898)"><circle cx="195.321" cy="197.469" r="4.3" fill="#b5d98b"/><circle cx="195.321" cy="197.469" r="3.1" fill="#6dc235"/><circle cx="195.321" cy="197.469" r="1.9" fill="#093"/></g><g transform="matrix(2.55819 0 0 2.55819 -349.27 -210.898)"><circle cx="195.321" cy="197.469" r="4.3" fill="#b5d98b"/><circle cx="195.321" cy="197.469" r="3.1" fill="#6dc235"/><circle cx="195.321" cy="197.469" r="1.9" fill="#093"/></g><g transform="matrix(2.55819 0 0 2.55819 -415.272 -210.898)"><circle cx="195.321" cy="197.469" r="4.3" fill="#b5d98b"/><circle cx="195.321" cy="197.469" r="3.1" fill="#6dc235"/><circle cx="195.321" cy="197.469" r="1.9" fill="#093"/></g><g transform="matrix(2.55819 0 0 2.55819 -393.271 -210.898)"><circle cx="195.321" cy="197.469" r="4.3" fill="#b5d98b"/><circle cx="195.321" cy="197.469" r="3.1" fill="#6dc235"/><circle cx="195.321" cy="197.469" r="1.9" fill="#093"/></g><g transform="matrix(2.55819 0 0 2.55819 -272.269 -210.898)"><circle cx="195.321" cy="197.469" r="4.3" fill="#b5d98b"/><circle cx="195.321" cy="197.469" r="3.1" fill="#6dc235"/><circle cx="195.321" cy="197.469" r="1.9" fill="#093"/></g><g transform="matrix(2.55819 0 0 2.55819 -316.27 -210.898)"><circle cx="195.321" cy="197.469" r="4.3" fill="#b5d98b"/><circle cx="195.321" cy="197.469" r="3.1" fill="#6dc235"/><circle cx="195.321" cy="197.469" r="1.9" fill="#093"/></g><g transform="matrix(2.55819 0 0 2.55819 -294.27 -210.898)"><circle cx="195.321" cy="197.469" r="4.3" fill="#b5d98b"/><circle cx="195.321" cy="197.469" r="3.1" fill="#6dc235"/><circle cx="195.321" cy="197.469" r="1.9" fill="#093"/></g><g transform="matrix(2.55819 0 0 2.55819 -360.27 -210.898)"><circle cx="195.321" cy="197.469" r="4.3" fill="#b5d98b"/><circle cx="195.321" cy="197.469" r="3.1" fill="#6dc235"/><circle cx="195.321" cy="197.469" r="1.9" fill="#093"/></g><g transform="matrix(2.55819 0 0 2.55819 -338.27 -210.898)"><circle cx="195.321" cy="197.469" r="4.3" fill="#b5d98b"/><circle cx="195.321" cy="197.469" r="3.1" fill="#6dc235"/><circle cx="195.321" cy="197.469" r="1.9" fill="#093"/></g><g transform="matrix(2.55819 0 0 2.55819 -404.271 -210.898)"><circle cx="195.321" cy="197.469" r="4.3" fill="#b5d98b"/><circle cx="195.321" cy="197.469" r="3.1" fill="#6dc235"/><circle cx="195.321" cy="197.469" r="1.9" fill="#093"/></g><g transform="matrix(2.55819 0 0 2.55819 -382.27 -210.898)"><circle cx="195.321" cy="197.469" r="4.3" fill="#b5d98b"/><circle cx="195.321" cy="197.469" r="3.1" fill="#6dc235"/><circle cx="195.321" cy="197.469" r="1.9" fill="#093"/></g><path d="M161.399 2.85a20.542 20.542 0 00-10.044 11.274 17.483 17.483 0 00-13.614 7.975C60.005 33.793 2.479 100.534 2.379 179.145c.068 55.768 29.345 107.425 77.155 136.135v14.529c-6.365 2.331-10.907 8.445-10.908 15.619a7.935 7.935 0 00-2.375.362c-3.266 1.03-5.474 4.067-5.478 7.492H262.014a7.848 7.848 0 00-5.477-7.492 7.918 7.918 0 00-2.376-.362c0-7.174-4.542-13.288-10.908-15.62V315.25c47.804-28.703 77.081-80.347 77.16-136.105-.068-78.653-57.626-145.44-135.407-157.117-2.927-4.479-7.854-7.547-13.563-7.904A20.542 20.542 0 00161.4 2.85zm-.003 45.828c72.056 0 130.468 58.412 130.468 130.467-.049 50.134-28.82 95.806-74.019 117.498h-113.09c-45.242-21.66-73.757-67.338-73.826-117.498 0-72.055 58.412-130.467 130.467-130.467z" fill="#3c2815"/><path d="M161.396 46.3C88.027 46.298 28.55 105.775 28.549 179.144c.036 49.317 27.391 94.555 71.047 117.498H223.22c43.647-22.949 70.99-68.186 71.023-117.498 0-73.369-59.478-132.846-132.847-132.846zm0 2.377c72.055 0 130.467 58.413 130.467 130.468-.04 48.227-26.68 92.5-69.274 115.12H100.136c-42.568-22.639-69.18-66.907-69.208-115.12 0-72.055 58.413-130.467 130.468-130.468z" fill="#ffc705"/><g transform="matrix(2.55819 0 0 2.55819 84.866 -307.243)"><path d="M39.578 223.87l2.077 6.96c.67 2.32 2.45 3.387 4.217 2.993-.671 1.128-1.59 2.417-2.833 2.417-.901 0-1.045-.466-1.625-.584-.887-.135-2.81.589-2.97-.421v-8.176l1.134-3.188z" fill="#1985c3" stroke="#ffc705" stroke-width=".1" stroke-linecap="round"/><path d="M24.307 227.839c.172.173.344.327.517.472.577-.58 1.33-1.149 2.14-1.432.39-.766.91-1.591 1.507-2.216a2.943 2.943 0 01-.99-.99c-.624.598-1.449 1.118-2.215 1.509-.283.808-.852 1.562-1.432 2.14.145.172.3.345.473.517zM35.523 227.839c.173-.173.327-.345.472-.517-.58-.578-1.149-1.332-1.432-2.14-.767-.39-1.592-.91-2.216-1.508a2.943 2.943 0 01-.99.99c.598.624 1.118 1.449 1.508 2.215.81.283 1.563.852 2.14 1.432.173-.145.345-.3.518-.472z" fill="#ffc705"/><path d="M27.058 222.946a8.136 8.136 0 00-1.488.207c.097 1.463 1.632 2.692 2.386 3.064l.001-.002a2 2 0 103.912-.003l.004.005c.754-.372 2.29-1.6 2.386-3.065-.49-.11-.99-.188-1.488-.206-.223.926-.937 1.7-1.746 2.014l.001.002c-.71.306-1.556.246-2.224.002l.003-.004c-.81-.314-1.524-1.088-1.747-2.014z" fill="#1985c3" stroke="#ffc705" stroke-width=".1"/><path d="M38.646 225.233l1.558 8.94c.167 1.22-1.76-.421-1.76 1.062 0-1.477 1.922.16 1.76-1.063-.12-.76-1.435-1.092-2.692-.335v-5.415l1.134-3.189zM20.255 223.871l-2.078 6.96c-.67 2.318-2.449 3.386-4.217 2.992.671 1.129 1.59 2.417 2.833 2.417.901 0 1.045-.465 1.626-.584.886-.135 2.81.589 2.97-.421v-8.176l-1.134-3.188z" fill="#1985c3" stroke="#ffc705" stroke-width=".1" stroke-linecap="round"/><path d="M21.186 225.233l-1.558 8.94c-.167 1.22 1.76-.421 1.76 1.062 0-1.477-1.922.16-1.76-1.063.121-.76 1.435-1.092 2.692-.334v-5.416l-1.134-3.189z" fill="#1985c3" stroke="#ffc705" stroke-width=".1" stroke-linecap="round"/><path d="M29.916 212.43a9.8 9.8 0 00-9.8 9.8 9.8 9.8 0 009.8 9.8 9.8 9.8 0 009.8-9.8 9.8 9.8 0 00-9.8-9.8zm0 2a7.8 7.8 0 017.8 7.8 7.8 7.8 0 01-7.8 7.8 7.8 7.8 0 01-7.8-7.8 7.8 7.8 0 017.8-7.8z" fill="#ffc705"/><path d="M29.916 219.28a2.95 2.95 0 00-2.95 2.95 2.95 2.95 0 002.95 2.95 2.95 2.95 0 002.95-2.95 2.95 2.95 0 00-2.95-2.95zm0 1.7a1.25 1.25 0 011.25 1.25 1.25 1.25 0 01-1.25 1.25 1.25 1.25 0 01-1.25-1.25 1.25 1.25 0 011.25-1.25z" fill="#ffc705"/><path d="M33.697 221.443c2.833-1.642 2.4-3.326 4.601-4.967 1.19-.768 3.155-.728 3.126 1.058-1.82 1.004-3.31 2.17-5.13 3.174l-1.545 1.7-1.597-.658z" fill="#1985c3" stroke="#ffc705" stroke-width=".1" stroke-linecap="round"/><path d="M35.302 221.042c2.225-1.662 2.768-3.8 4.602-4.074 2.071-.317 3.698.577 3.698 2.498 0 1.377-1.983 1.956-2.512 2.11l-.222-.558c.17-.061.705-.452.41-1.032-1.104-1.892-3.5.669-5.423 1.522l-1.63.298z" fill="#1985c3" stroke="#ffc705" stroke-width=".1" stroke-linecap="round"/><path d="M37.849 222.23c0-.244-.013-.474-.032-.7-.819.003-1.754-.128-2.526-.5-.818.267-1.769.482-2.633.5a2.943 2.943 0 010 1.4c.864.02 1.815.235 2.633.501.772-.371 1.707-.502 2.526-.5.02-.225.032-.456.032-.7zM29.924 230.163c.244 0 .475-.012.7-.031-.002-.82.129-1.754.5-2.526-.266-.818-.481-1.769-.5-2.633a2.943 2.943 0 01-1.4 0c-.019.864-.234 1.815-.5 2.633.371.772.502 1.707.5 2.526.225.019.456.032.7.031zM29.914 214.3c-.244-.001-.475.012-.7.031.003.82-.128 1.754-.5 2.526.266.818.482 1.769.5 2.633a2.943 2.943 0 011.4 0c.02-.864.235-1.815.5-2.633-.37-.772-.501-1.707-.5-2.526a7.816 7.816 0 00-.7-.031zM24.306 216.623a7.807 7.807 0 00-.472.517c.58.577 1.149 1.33 1.432 2.14.767.39 1.592.91 2.216 1.508a2.943 2.943 0 01.99-.99c-.598-.624-1.118-1.45-1.508-2.216-.81-.283-1.563-.852-2.14-1.432-.173.145-.345.3-.518.473zM35.522 216.623a7.806 7.806 0 00-.517-.473c-.577.58-1.33 1.15-2.14 1.432-.39.767-.91 1.592-1.507 2.216a2.943 2.943 0 01.99.99c.624-.598 1.449-1.118 2.215-1.508.283-.809.852-1.562 1.432-2.14a7.817 7.817 0 00-.473-.517z" fill="#ffc705"/><path d="M37.849 222.23c0-.244-.013-.474-.032-.7-.819.003-1.754-.128-2.526-.5-.818.267-1.769.482-2.633.5a2.943 2.943 0 010 1.4c.864.02 1.815.235 2.633.501.772-.371 1.707-.502 2.526-.5.02-.225.032-.456.032-.7z" fill="#ffc705"/><circle r=".7" cy="214.806" cx="37.341" fill="#ffc705"/><circle r=".7" cy="229.655" cx="37.341" fill="#ffc705"/><circle r=".7" cy="229.655" cx="22.491" fill="#ffc705"/><circle r=".7" cy="214.806" cx="22.491" fill="#ffc705"/><g transform="translate(-35.13 -34.182)" fill="#ffc705"><circle cx="81.959" cy="241.018" r=".7" transform="rotate(3.814)"/><circle cx="80.562" cy="241.111" r=".7" transform="rotate(3.814)"/><circle cx="65.047" cy="244.724" r=".7"/></g><g transform="translate(-35.13 -34.182)" fill="#ffc705"><circle transform="scale(1 -1) rotate(3.814)" r=".7" cy="-270.672" cx="47.846"/><circle transform="scale(1 -1) rotate(3.814)" r=".7" cy="-270.578" cx="46.449"/><circle r=".7" cy="-268.101" cx="65.047" transform="scale(1 -1)"/></g><g transform="translate(-35.13 -34.182)" fill="#ffc705"><circle transform="rotate(93.814)" r=".7" cy="-92.457" cx="251.519"/><circle transform="rotate(93.814)" r=".7" cy="-92.364" cx="250.123"/><circle r=".7" cy="-76.734" cx="256.414" transform="rotate(90)"/></g><path d="M29.916 219.28a2.95 2.95 0 00-2.95 2.95 2.95 2.95 0 002.95 2.95 2.95 2.95 0 002.95-2.95 2.95 2.95 0 00-2.95-2.95zm0 1.7a1.25 1.25 0 011.25 1.25 1.25 1.25 0 01-1.25 1.25 1.25 1.25 0 01-1.25-1.25 1.25 1.25 0 011.25-1.25z" fill="#ffc705"/><path d="M26.135 221.443c-2.833-1.642-2.4-3.326-4.601-4.967-1.19-.768-3.155-.728-3.126 1.058 1.82 1.004 3.31 2.17 5.13 3.174l1.546 1.7 1.596-.658z" fill="#1985c3" stroke="#ffc705" stroke-width=".1" stroke-linecap="round"/><path d="M24.53 221.042c-2.225-1.662-2.768-3.8-4.602-4.074-2.071-.317-3.698.577-3.698 2.498 0 1.377 1.983 1.956 2.513 2.11l.22-.558c-.169-.061-.704-.452-.41-1.032 1.105-1.892 3.5.67 5.424 1.522l1.63.298z" fill="#1985c3" stroke="#ffc705" stroke-width=".1" stroke-linecap="round"/><path d="M21.984 222.23c-.001.245.012.476.031.7.819-.001 1.754.13 2.526.5.818-.265 1.769-.48 2.633-.5a2.943 2.943 0 010-1.4c-.864-.018-1.815-.234-2.633-.5-.772.372-1.707.503-2.526.5-.02.225-.032.457-.031.7z" fill="#ffc705"/><g transform="translate(-35.13 -34.182)" fill="#ffc705"><circle cx="260.173" cy="37.345" r=".7" transform="scale(1 -1) rotate(-86.186)"/><circle cx="258.776" cy="37.438" r=".7" transform="scale(1 -1) rotate(-86.186)"/><circle transform="matrix(0 1 1 0 0 0)" cx="256.414" cy="53.356" r=".7"/></g></g><path d="M161.397 2.85a20.542 20.542 0 00-10.044 11.274 17.498 17.498 0 00-16.407 17.443h.008l-.02 7.698c-.776.147-1.588.306-2.458.486l-.967-4.658c-1.572.325-3.087.668-4.56 1.022l-.557-2.312c2.133-.514 4.192-.965 6.173-1.354v-.882c0-3.106.5-4.524 1.118-6.567l-.474.064a156.522 156.522 0 00-18.084 4.434c-2.556.78-4.853 1.584-7.123 2.392l4.866 13.419c-.783.284-1.448.534-2.076.772l-1.692-4.448c-1.5.57-2.942 1.147-4.341 1.73l-.915-2.196c1.481-.62 2.948-1.2 4.41-1.758l-2.537-6.672c-4.659 1.805-9.245 3.743-13.677 5.963l1.054 2.133c3.592-1.75 7.264-3.438 11.14-4.964l.88 2.21c-1.516.606-3 1.225-4.45 1.859l1.902 4.361c-.76.336-1.581.697-2.09.932l-1.971-4.332a152.224 152.224 0 00-6.557 3.175l6.528 12.695c-4.47 2.33-8.875 4.842-13.153 7.711l-1.315-1.983c1.201-.8 2.46-1.599 3.744-2.398l-2.503-4.046c.597-.37 1.246-.763 1.924-1.169l2.44 4.084c1.902-1.121 3.821-2.235 5.846-3.304l-6.724-12.592c1.777-.953 3.018-1.565 4.358-2.24L92.04 38.7h-.001c-2.4 1.173-4.541 2.33-6.655 3.487l6.927 12.482c-.728.404-1.345.756-1.927 1.09l-2.374-4.124c-1.392.8-2.724 1.599-4.013 2.395l-1.251-2.024a150.1 150.1 0 014.078-2.433l-3.562-6.187c-4.315 2.519-8.538 5.157-12.562 8.05-2.184 1.539-4.117 3.02-6.02 4.497l8.814 11.229c-.655.514-1.21.959-1.732 1.381l-2.995-3.697a146.867 146.867 0 00-3.584 3l-1.556-1.8a149.214 149.214 0 013.642-3.049l-4.495-5.544c-3.862 3.17-7.613 6.442-11.13 9.936-1.913 1.864-3.588 3.633-5.234 5.391l10.48 9.694c-.566.611-1.044 1.137-1.492 1.637l-3.543-3.176a147.107 147.107 0 00-3.063 3.529l-1.822-1.531c1.032-1.23 2.071-2.42 3.114-3.587l-5.315-4.764c-3.312 3.74-6.5 7.565-9.42 11.571-1.594 2.143-2.967 4.154-4.315 6.151l11.882 7.915c-.462.693-.85 1.288-1.214 1.852l-4.001-2.575c-.87 1.35-1.687 2.67-2.467 3.969l-2.04-1.225a150.042 150.042 0 012.507-4.032l-6-3.865c-2.68 4.217-5.224 8.498-7.473 12.916-1.235 2.368-2.273 4.571-3.287 6.756l12.983 5.936a147.85 147.85 0 00-.906 2.021l-4.357-1.91a146.512 146.512 0 00-1.809 4.308l-2.207-.885a149.91 149.91 0 011.837-4.379l-6.537-2.867c-1.978 4.588-3.812 9.217-5.334 13.935h-.001c-.845 2.534-1.521 4.873-2.177 7.191l13.759 3.808c-.223.802-.406 1.49-.575 2.139l-4.605-1.198c-.404 1.553-.77 3.063-1.105 4.54l-2.32-.524c.352-1.566.73-3.099 1.122-4.614l-6.907-1.798c-1.228 4.844-2.307 9.706-3.064 14.604h-.001c-.434 2.636-.731 5.053-1.013 7.446l14.187 1.584c-.092.827-.163 1.534-.227 2.202l-4.737-.455a147.635 147.635 0 00-.371 4.659l-2.374-.152c.1-1.603.23-3.175.378-4.733l-7.106-.682c-.447 4.977-.742 9.947-.715 14.904l2.38.001c.025-3.996.138-8.036.486-12.187l2.37.19c-.128 1.627-.23 3.233-.305 4.814l4.752.226c-.035.83-.077 1.726-.092 2.287l-4.757-.153a160.649 160.649 0 00-.079 4.824h.001l2.38.001c.025-.784 0-1.531.026-2.325l4.758.075c.025-1.458.07-3.004.145-4.63l2.376.149a145.32 145.32 0 00-.143 4.52l7.136.112c.102-6.36.649-12.784 1.69-19.283l-14.091-2.263c.138-.771.253-1.51.387-2.292l4.685.827c.25-1.436.546-2.954.878-4.547l2.321.52c-.314 1.502-.6 2.982-.857 4.44l7.028 1.241a135.237 135.237 0 014.72-18.773l-13.557-4.462c.258-.74.488-1.452.744-2.204l4.496 1.558a147.23 147.23 0 011.586-4.352l2.21.881a142.668 142.668 0 00-1.547 4.25l6.742 2.337a135.24 135.24 0 017.63-17.79l-12.681-6.552c.372-.69.712-1.355 1.084-2.057l4.193 2.249a147.165 147.165 0 012.254-4.046l2.042 1.22a141.811 141.811 0 00-2.2 3.95l6.288 3.374a135.24 135.24 0 0110.348-16.36L41.1 90.393c.476-.623.917-1.227 1.396-1.861l3.784 2.884a146.18 146.18 0 012.865-3.64l1.825 1.529c-.968 1.19-1.9 2.375-2.798 3.553l5.675 4.326a135.23 135.23 0 0112.805-14.518l-10-10.183c.569-.54 1.099-1.066 1.672-1.617l3.28 3.446a147.057 147.057 0 013.405-3.14l1.56 1.799a142.15 142.15 0 00-3.325 3.065l4.92 5.168a135.243 135.243 0 0114.94-12.31l-8.263-11.635c.647-.443 1.253-.88 1.906-1.333l2.694 3.923c1.201-.827 2.49-1.682 3.859-2.562l1.256 2.02c-1.291.83-2.548 1.663-3.768 2.502l4.041 5.882a135.192 135.192 0 0116.698-9.791l-6.32-12.798c.71-.335 1.377-.67 2.093-1.014l2.04 4.299a146.983 146.983 0 014.215-1.92l.922 2.195c-1.406.614-2.78 1.24-4.117 1.875l3.06 6.446a135.246 135.246 0 0118.037-7.027l-4.215-13.636c.753-.218 1.465-.444 2.226-.67l1.335 4.567c1.4-.41 2.89-.82 4.466-1.228l.56 2.312c-1.485.384-2.939.783-4.36 1.2l2.003 6.85a135.42 135.42 0 0118.6-4.04l.01-13.742a10.36 10.36 0 0110.361-10.362v-.02a18.163 18.163 0 018.955-15.63 18.163 18.163 0 018.955 15.63v.02a10.36 10.36 0 0110.36 10.362l.01 13.742a135.42 135.42 0 0118.601 4.04l2.003-6.85a142.283 142.283 0 00-4.36-1.2l.56-2.312c1.576.409 3.067.818 4.466 1.228l1.335-4.567c.761.226 1.474.452 2.226.67l-4.215 13.636c6.287 1.945 12.29 4.3 18.037 7.027l3.06-6.446c-1.337-.636-2.71-1.261-4.116-1.875l.92-2.194c1.492.652 2.898 1.292 4.215 1.919l2.042-4.299c.715.344 1.383.68 2.092 1.014l-6.32 12.798c5.9 2.915 11.456 6.19 16.698 9.79l4.041-5.88c-1.22-.84-2.477-1.674-3.767-2.502l1.255-2.022c1.37.88 2.658 1.735 3.86 2.562l2.693-3.922c.653.453 1.26.89 1.907 1.333l-8.264 11.636a135.245 135.245 0 0114.94 12.309l4.92-5.168a142.15 142.15 0 00-3.325-3.066l1.56-1.798a147.055 147.055 0 013.404 3.14l3.282-3.446c.572.55 1.103 1.077 1.672 1.616l-10 10.184c4.694 4.612 8.949 9.46 12.804 14.518l5.675-4.326a142.621 142.621 0 00-2.797-3.553l1.824-1.529a146.18 146.18 0 012.865 3.64l3.785-2.885c.478.635.919 1.239 1.396 1.862l-11.487 8.474a135.241 135.241 0 0110.348 16.359l6.29-3.374a141.89 141.89 0 00-2.202-3.95l2.042-1.22c.813 1.41 1.566 2.76 2.254 4.045l4.194-2.248c.372.702.712 1.366 1.084 2.057l-12.682 6.551a135.245 135.245 0 017.63 17.79l6.743-2.337c-.485-1.4-1.001-2.816-1.548-4.249l2.21-.882c.58 1.521 1.11 2.974 1.586 4.352l4.496-1.557c.257.752.486 1.463.745 2.204l-13.559 4.461a135.237 135.237 0 014.721 18.774l7.027-1.242a141.852 141.852 0 00-.857-4.44l2.322-.52c.332 1.594.627 3.111.878 4.548l4.685-.828c.134.783.249 1.52.387 2.292l-14.092 2.264a135.341 135.341 0 011.69 19.282l7.137-.112c-.023-1.48-.072-2.988-.143-4.52l2.375-.148c.075 1.626.12 3.171.146 4.63l4.758-.076c.025.794 0 1.541.026 2.325l2.38-.001a159.33 159.33 0 00-.079-4.824l-4.756.153c-.016-.56-.057-1.456-.093-2.287l4.753-.226a156.41 156.41 0 00-.306-4.815l2.37-.189c.349 4.151.461 8.191.487 12.188h-.005c-.013 1.5-.01 2.884-.077 4.899l-14.268-.45c-.062 2.29-.208 4.504-.371 6.706l4.742.378c-.064.787-.13 1.543-.197 2.242l-4.736-.451a137.816 137.816 0 01-.491 4.42l-2.362-.302c.678-5.106.977-10.168 1.087-15.207l14.272.228c.026-.709.026-1.534.027-2.462H310.9l-.001-.001-14.278.005a135.213 135.213 0 01-1.379 19.309l7.064 1.016a144.8 144.8 0 00.572-4.485l2.37.23a145.13 145.13 0 01-.588 4.594l4.71.678c-.117.786-.24 1.522-.35 2.299l-14.094-2.253a135.225 135.225 0 01-4.415 18.847l6.814 2.12c.44-1.413.864-2.86 1.274-4.338l2.303.602a146.826 146.826 0 01-1.306 4.444l4.543 1.415c-.24.757-.478 1.465-.708 2.214l-13.561-4.454a135.251 135.251 0 01-7.341 17.912l6.392 3.171a141.723 141.723 0 001.946-4.082l2.178.958a147.334 147.334 0 01-1.993 4.182l4.263 2.115c-.357.71-.703 1.372-1.05 2.075l-12.685-6.542a135.24 135.24 0 01-10.082 16.525l5.81 4.143c.86-1.205 1.715-2.448 2.566-3.724l2 1.291a147.465 147.465 0 01-2.629 3.814l3.875 2.762c-.464.644-.911 1.243-1.364 1.882l-11.492-8.466a135.178 135.178 0 01-12.568 14.723l5.081 5.01a142.311 142.311 0 003.124-3.27l1.77 1.59a147.093 147.093 0 01-3.199 3.35l3.388 3.34c-.56.564-1.096 1.084-1.646 1.644l-10.007-10.178a135.24 135.24 0 01-14.738 12.55l4.225 5.75a142.182 142.182 0 003.602-2.735l1.496 1.851a146.29 146.29 0 01-3.688 2.801l2.817 3.835c-.642.468-1.253.896-1.884 1.362l-8.273-11.63a135.227 135.227 0 01-16.537 10.06l3.263 6.346a142.102 142.102 0 003.989-2.132l1.184 2.065a146.404 146.404 0 01-4.085 2.183l2.176 4.231c-.708.36-1.38.687-2.077 1.047l-6.328-12.794c-5.9 2.917-9.347 5.341-15.392 7.319l-.31 6.783c1.407-.46 2.832-.952 4.275-1.474l.843 2.226c-1.53.553-2.992 1.056-4.378 1.508l1.48 4.524c-.757.243-1.472.46-2.217.705l.705 2.273a152.43 152.43 0 004.585-1.501l-1.552-4.498c.531-.18 1.374-.484 2.157-.764l1.622 4.474a151.535 151.535 0 004.508-1.716l.882 2.209a130.138 130.138 0 01-5.522 2.082l6.698.001c.687-.274 1.372-.552 2.056-.833l-2.752-6.586a149.93 149.93 0 01-4.41 1.761l-.846-2.222c1.416-.54 2.859-1.114 4.34-1.733l-1.835-4.392c.619-.26 1.272-.535 2.036-.869l5.708 13.084c2.202-.977 4.424-1.975 6.813-3.169 4.457-2.172 8.78-4.639 13.044-7.244l-3.76-6.068a150.031 150.031 0 01-4.075 2.436l-1.187-2.06a146.957 146.957 0 004.01-2.399l-2.506-4.045c.57-.354 1.172-.73 1.873-1.18l7.706 12.016c2.02-1.312 4.056-2.65 6.227-4.206 4.056-2.85 7.936-5.97 11.734-9.217l-4.672-5.398a149.365 149.365 0 01-3.64 3.051l-1.499-1.846a147.03 147.03 0 003.583-3.003l-3.115-3.598c.507-.44 1.042-.907 1.663-1.462l9.51 10.647c1.786-1.616 3.584-3.258 5.482-5.138 3.554-3.455 6.892-7.15 10.129-10.957l-5.467-4.59a149.57 149.57 0 01-3.11 3.588L271 277.285c1.01-1.129 2.03-2.301 3.062-3.53l-3.644-3.06c.431-.514.885-1.061 1.41-1.708l11.074 9.01c1.509-1.878 3.026-3.783 4.601-5.94v-.001c2.963-3.974 5.675-8.15 8.268-12.42l-6.123-3.669a149.804 149.804 0 01-2.505 4.035l-2-1.286a146.98 146.98 0 002.464-3.97l-4.082-2.446c.344-.576.707-1.187 1.123-1.909l12.36 7.146c1.193-2.093 2.388-4.216 3.603-6.595 2.297-4.392 4.313-8.945 6.2-13.572l-6.627-2.653a149.426 149.426 0 01-1.834 4.38l-2.18-.954c.607-1.388 1.21-2.82 1.805-4.31l-4.416-1.77c.249-.623.509-1.284.806-2.062l13.334 5.1c.847-2.255 1.692-4.54 2.515-7.08 1.575-4.7 2.846-9.515 3.976-14.382l-6.963-1.572a149.242 149.242 0 01-1.12 4.615l-2.303-.597c.38-1.467.75-2.976 1.103-4.541l-4.643-1.049c.147-.654.3-1.348.472-2.164l13.972 2.927c.48-2.36.952-4.75 1.363-7.389.812-4.89 1.305-9.844 1.652-14.828l-7.124-.452a152.526 152.526 0 01-.376 4.734l-2.367-.225c.143-1.509.269-3.057.368-4.659l-4.748-.301c.04-.67.085-1.379.123-2.21l14.259.679c.1-2.407.201-4.84.176-7.512h-2.376l2.378-.001c.028-4.957-.268-9.927-.715-14.904l-7.106.682c.148 1.558.279 3.13.378 4.733l-2.374.152a147.54 147.54 0 00-.371-4.659l-4.737.455c-.064-.668-.135-1.375-.227-2.202l14.187-1.584c-.282-2.393-.58-4.81-1.013-7.446-.757-4.898-1.837-9.76-3.065-14.604l-6.907 1.798c.391 1.515.77 3.048 1.122 4.614l-2.32.525c-.335-1.478-.7-2.988-1.105-4.541l-4.605 1.198c-.169-.65-.352-1.337-.575-2.14l13.76-3.807c-.657-2.318-1.333-4.657-2.178-7.191-1.523-4.718-3.356-9.347-5.335-13.935l-6.537 2.867a149.963 149.963 0 011.837 4.379l-2.207.885a146.486 146.486 0 00-1.809-4.308l-4.357 1.91c-.27-.614-.56-1.264-.906-2.021l12.984-5.936c-1.015-2.185-2.053-4.388-3.288-6.756-2.25-4.418-4.793-8.699-7.472-12.916l-6 3.865a150.07 150.07 0 012.506 4.032l-2.04 1.225c-.78-1.3-1.597-2.62-2.467-3.97l-4.001 2.576c-.364-.564-.752-1.159-1.214-1.852l11.882-7.915c-1.348-1.997-2.72-4.008-4.315-6.15-2.92-4.007-6.108-7.831-9.42-11.572l-5.315 4.764a150.1 150.1 0 013.114 3.587l-1.822 1.53a147.158 147.158 0 00-3.063-3.528l-3.543 3.176c-.448-.5-.926-1.026-1.491-1.637l10.48-9.694c-1.647-1.758-3.322-3.527-5.235-5.391-3.517-3.494-7.268-6.766-11.13-9.936l-4.495 5.544c1.214.987 2.429 1.997 3.642 3.049l-1.556 1.8c-1.147-.991-2.336-1.99-3.584-3l-2.995 3.697c-.522-.422-1.077-.867-1.732-1.381l8.815-11.23c-1.904-1.475-3.837-2.957-6.02-4.495-4.025-2.894-8.248-5.532-12.563-8.051l-3.562 6.187c1.355.782 2.714 1.587 4.079 2.433l-1.252 2.024a147.234 147.234 0 00-4.013-2.395l-2.374 4.125c-.582-.335-1.199-.687-1.927-1.091l6.927-12.482c-2.114-1.157-4.255-2.314-6.655-3.488l-.001.001-1.053 2.133c1.34.674 2.581 1.286 4.358 2.24l-6.724 12.591c2.025 1.07 3.944 2.182 5.846 3.304l2.44-4.084c.678.406 1.327.799 1.924 1.169l-2.503 4.046c1.285.799 2.543 1.598 3.744 2.398l-1.315 1.983c-4.277-2.868-8.682-5.38-13.152-7.71l6.528-12.695a152.798 152.798 0 00-6.557-3.175l-1.97 4.332c-.51-.236-1.33-.596-2.09-.932l1.902-4.361a152.048 152.048 0 00-4.451-1.86l.88-2.21c3.876 1.527 7.548 3.214 11.14 4.965l1.054-2.133c-4.432-2.22-9.018-4.159-13.677-5.963l-2.537 6.672c1.462.558 2.929 1.138 4.41 1.758l-.915 2.196c-1.399-.583-2.84-1.16-4.341-1.73l-1.692 4.448c-.628-.238-1.293-.489-2.076-.772l4.866-13.42c-2.27-.807-4.567-1.612-7.123-2.391a156.519 156.519 0 00-18.084-4.434l-.473-.065c.617 2.044 1.117 3.462 1.117 6.568v.882c1.98.389 4.04.84 6.173 1.353l-.556 2.312c-1.474-.354-2.99-.696-4.561-1.021l-.966 4.658a142 142 0 00-2.458-.486l-.02-7.698h.007a17.498 17.498 0 00-16.408-17.443A20.542 20.542 0 00161.398 2.85zM11.893 179.097H9.515c0 .929 0 1.753.026 2.462l14.273-.228c.11 5.04.41 10.1 1.086 15.207l-2.36.302a137.796 137.796 0 01-.493-4.42l-4.735.451a163.8 163.8 0 01-.197-2.242l4.742-.378c-.164-2.202-.31-4.416-.371-6.705l-14.269.45c-.066-2.016-.064-3.4-.076-4.9H4.76c-.026 2.671.076 5.104.176 7.511l14.259-.679c.038.832.082 1.54.123 2.21l-4.749.302c.1 1.602.225 3.15.369 4.658l-2.368.225a152.187 152.187 0 01-.375-4.734l-7.124.452c.346 4.985.84 9.939 1.65 14.829h.002c.41 2.64.883 5.028 1.363 7.389l13.972-2.927c.171.815.325 1.51.472 2.164l-4.643 1.048c.353 1.566.723 3.074 1.102 4.541l-2.302.598c-.406-1.554-.773-3.09-1.12-4.615l-6.963 1.571c1.13 4.867 2.4 9.682 3.975 14.382.823 2.541 1.669 4.825 2.516 7.08l13.333-5.1c.298.779.558 1.44.807 2.063l-4.417 1.769c.596 1.49 1.199 2.922 1.806 4.31l-2.18.954a149.397 149.397 0 01-1.835-4.38l-6.626 2.653c1.886 4.627 3.903 9.18 6.2 13.573 1.214 2.379 2.41 4.501 3.603 6.594l12.36-7.145c.416.721.779 1.333 1.123 1.909l-4.082 2.445a146.997 146.997 0 002.464 3.97l-2 1.287c-.87-1.35-1.7-2.694-2.505-4.035l-6.124 3.668c2.594 4.271 5.305 8.447 8.27 12.42l-.002.001c1.576 2.157 3.093 4.062 4.602 5.94l11.073-9.01c.526.647.98 1.195 1.41 1.709l-3.643 3.059a147.135 147.135 0 003.062 3.53l-1.773 1.588a149.657 149.657 0 01-3.11-3.587l-5.467 4.59c3.237 3.806 6.574 7.501 10.129 10.956 1.897 1.88 3.695 3.523 5.482 5.139l9.51-10.648c.62.556 1.155 1.023 1.662 1.463l-3.114 3.598a147.053 147.053 0 003.582 3.002l-1.499 1.847a149.511 149.511 0 01-3.64-3.051l-4.671 5.397c3.798 3.247 7.677 6.368 11.734 9.217 2.17 1.557 4.206 2.894 6.226 4.207l7.706-12.017c.701.45 1.303.827 1.873 1.18l-2.506 4.046a146.98 146.98 0 004.01 2.398l-1.186 2.06c-1.393-.799-2.745-1.613-4.076-2.435l-3.76 6.067c4.264 2.606 8.588 5.073 13.044 7.245 2.39 1.194 4.611 2.192 6.814 3.169l5.708-13.084c.763.333 1.417.61 2.036.869l-1.835 4.391c1.48.62 2.924 1.193 4.34 1.733l-.846 2.223a149.93 149.93 0 01-4.41-1.761l-2.753 6.586a232 232 0 002.056.833l6.699-.001a130.164 130.164 0 01-5.522-2.083l.881-2.209a151.48 151.48 0 004.508 1.716l1.622-4.473c.783.28 1.626.584 2.158.764l-1.552 4.497c1.529.522 3.057 1.034 4.584 1.502l.705-2.274c-.745-.245-1.46-.461-2.216-.704l1.478-4.524a146.87 146.87 0 01-4.378-1.509l.843-2.226a142.35 142.35 0 004.276 1.474l-.31-6.783c-6.046-1.977-9.493-4.402-15.393-7.318l-6.328 12.794c-.697-.36-1.369-.687-2.077-1.047l2.176-4.232a146.457 146.457 0 01-4.085-2.182l1.185-2.065c1.341.744 2.67 1.455 3.988 2.132l3.263-6.347a135.226 135.226 0 01-16.537-10.06l-8.273 11.63c-.63-.465-1.241-.894-1.884-1.361l2.817-3.835A146.288 146.288 0 0172 292.98l1.497-1.851c1.207.947 2.407 1.859 3.6 2.735l4.226-5.75a135.236 135.236 0 01-14.738-12.55l-10.007 10.178c-.55-.56-1.085-1.08-1.646-1.643l3.388-3.341a147.072 147.072 0 01-3.199-3.35l1.77-1.59a142.278 142.278 0 003.124 3.27l5.082-5.01a135.177 135.177 0 01-12.568-14.723l-11.492 8.466c-.454-.639-.9-1.238-1.365-1.882l3.875-2.762a147.477 147.477 0 01-2.63-3.814l2-1.292a142.61 142.61 0 002.567 3.724l5.81-4.143a135.24 135.24 0 01-10.081-16.524l-12.686 6.542c-.347-.703-.693-1.366-1.05-2.075l4.264-2.116a147.414 147.414 0 01-1.994-4.181l2.179-.958a141.753 141.753 0 001.946 4.082l6.391-3.172a135.253 135.253 0 01-7.34-17.911l-13.561 4.454c-.23-.75-.47-1.457-.709-2.215l4.544-1.414a146.78 146.78 0 01-1.306-4.445l2.303-.601c.41 1.478.833 2.925 1.274 4.339l6.813-2.12a135.226 135.226 0 01-4.415-18.848l-14.094 2.252c-.11-.776-.232-1.513-.349-2.299l4.71-.678c-.21-1.443-.405-2.976-.588-4.594l2.37-.23c.17 1.525.36 3.02.572 4.486l7.063-1.017a135.21 135.21 0 01-1.379-19.309l-14.277-.005zm138.72-162.52a20.542 20.542 0 00-.434 2.463 12.74 12.74 0 00-10.477 12.527l-.012 11.698a137.54 137.54 0 00-14.74 3.193l-.631-2.295c1.391-.386 2.836-.752 4.306-1.11l-1.115-4.625c.682-.165 1.423-.336 2.193-.51l1.042 4.641c2.204-.495 4.4-.93 6.586-1.312l-.008-9.68a15.119 15.119 0 0113.289-14.99zm21.57 0a15.119 15.119 0 0113.288 14.99l-.008 9.68c2.187.382 4.382.817 6.586 1.312l1.042-4.641c.77.174 1.51.345 2.193.51l-1.115 4.626c1.47.357 2.915.723 4.307 1.109l-.63 2.295a137.54 137.54 0 00-14.74-3.193l-.013-11.698a12.74 12.74 0 00-10.477-12.527 20.542 20.542 0 00-.433-2.463zM130.475 27.99c-.132.85-.223 1.69-.29 2.526-2.285.48-4.525 1.006-6.727 1.573l1.189 4.609c-.804.211-1.683.43-2.223.583l-1.26-4.589a152.32 152.32 0 00-6.978 2.098l4.439 13.568c-4.781 1.594-9.528 3.378-14.206 5.535l-.986-2.167c1.312-.6 2.682-1.19 4.077-1.775l-1.832-4.392c.647-.271 1.351-.557 2.084-.85l1.764 4.418c2.055-.806 4.127-1.602 6.295-2.337l-4.648-13.496c1.905-.66 3.228-1.068 4.657-1.522 4.882-1.504 9.902-2.81 14.645-3.782zm61.842 0c4.744.972 9.764 2.278 14.645 3.782 1.43.454 2.753.861 4.658 1.522l-4.648 13.496c2.168.735 4.24 1.53 6.295 2.337l1.763-4.418c.734.293 1.438.579 2.085.85l-1.832 4.392c1.395.585 2.764 1.174 4.077 1.775l-.986 2.167c-4.678-2.157-9.425-3.94-14.206-5.535l4.439-13.568a153.157 153.157 0 00-6.979-2.098l-1.26 4.589c-.54-.152-1.418-.372-2.222-.583l1.189-4.609a151.886 151.886 0 00-6.728-1.573 33.622 33.622 0 00-.29-2.526zM82.293 46.713l1.219 2.042a151.771 151.771 0 00-4.101 2.54l2.568 4.006c-.697.452-1.45.937-1.916 1.25l-2.631-3.966a152.4 152.4 0 00-5.973 4.172l8.453 11.504c-4.044 3.008-7.997 6.184-11.767 9.694l-1.613-1.75c1.06-.98 2.176-1.968 3.318-2.96l-3.112-3.6c.53-.46 1.112-.951 1.716-1.46l3.054 3.648c1.7-1.408 3.42-2.81 5.25-4.186l-8.63-11.37c1.603-1.223 2.732-2.022 3.949-2.9 3.27-2.297 6.63-4.544 10.216-6.664zm158.209 0c3.586 2.12 6.946 4.367 10.216 6.664 1.217.878 2.346 1.677 3.949 2.9l-8.63 11.37c1.83 1.376 3.55 2.778 5.25 4.186l3.053-3.647c.605.508 1.186 1 1.716 1.46l-3.112 3.6c1.142.99 2.26 1.978 3.319 2.96l-1.613 1.75c-3.77-3.51-7.723-6.687-11.767-9.695l8.453-11.504a153.803 153.803 0 00-5.973-4.172l-2.63 3.966c-.466-.313-1.22-.798-1.918-1.25l2.569-4.006c-1.332-.855-2.7-1.702-4.1-2.54zM62.342 60.891l1.528 1.823a151.969 151.969 0 00-3.649 3.157l3.17 3.548c-.617.557-1.284 1.155-1.695 1.538l-3.224-3.5a152.39 152.39 0 00-5.238 5.065L63.4 82.544c-3.517 3.61-6.917 7.372-10.085 11.434l-1.87-1.474a141.41 141.41 0 012.809-3.448l-3.642-3.062c.45-.537.946-1.115 1.463-1.712l3.592 3.118c1.456-1.66 2.933-3.316 4.522-4.964l-10.32-9.862c1.39-1.461 2.378-2.429 3.44-3.488 2.867-2.785 5.829-5.534 9.034-8.195zm198.11 0c3.205 2.66 6.167 5.41 9.033 8.195 1.062 1.06 2.051 2.027 3.441 3.488l-10.32 9.862c1.589 1.648 3.066 3.305 4.522 4.964l3.592-3.118c.516.597 1.012 1.175 1.463 1.712l-3.642 3.062a141.43 141.43 0 012.808 3.448l-1.87 1.474c-3.167-4.062-6.567-7.824-10.085-11.434l10.166-10.022a153.866 153.866 0 00-5.237-5.064l-3.225 3.499c-.41-.383-1.077-.981-1.694-1.538l3.17-3.548a151.97 151.97 0 00-3.649-3.157zM44.886 78.045l1.797 1.559a151.492 151.492 0 00-3.103 3.693l3.69 3.004c-.52.647-1.085 1.343-1.43 1.786l-3.737-2.945a151.459 151.459 0 00-4.372 5.828l11.623 8.288c-2.902 4.12-5.665 8.373-8.15 12.885l-2.078-1.16c.7-1.262 1.451-2.549 2.226-3.848l-4.078-2.447c.36-.602.757-1.25 1.173-1.922l4.041 2.51c1.176-1.868 2.37-3.738 3.679-5.616l-11.75-8.105c1.142-1.662 1.965-2.775 2.847-3.989 2.39-3.203 4.878-6.387 7.622-9.52zm233.023 0c2.744 3.134 5.233 6.318 7.622 9.521.882 1.214 1.705 2.327 2.846 3.989l-11.75 8.105c1.31 1.878 2.504 3.748 3.68 5.617l4.041-2.51c.416.67.812 1.32 1.173 1.921l-4.079 2.447a140.333 140.333 0 012.227 3.849l-2.079 1.16c-2.485-4.513-5.247-8.765-8.15-12.886l11.623-8.288a151.435 151.435 0 00-4.372-5.829l-3.737 2.946c-.344-.443-.909-1.139-1.43-1.786l3.69-3.004a151.492 151.492 0 00-3.102-3.693zm-247.546 19.7L32.384 99a151.053 151.053 0 00-2.481 4.138l4.12 2.38c-.412.722-.86 1.5-1.13 1.992l-4.156-2.318a152.327 152.327 0 00-3.394 6.447l12.786 6.345c-2.214 4.528-4.268 9.163-6.008 14.011l-2.235-.815c.491-1.358 1.029-2.748 1.589-4.153l-4.416-1.771c.26-.652.551-1.355.855-2.084l4.387 1.84c.865-2.03 1.75-4.066 2.744-6.128l-12.882-6.145c.864-1.821 1.5-3.051 2.178-4.389 1.853-3.54 3.808-7.078 6.022-10.606zm262.069 0c2.214 3.527 4.169 7.064 6.022 10.605.678 1.338 1.314 2.568 2.178 4.39l-12.883 6.144c.996 2.062 1.88 4.098 2.745 6.129l4.386-1.84c.305.728.595 1.431.856 2.083l-4.416 1.771c.56 1.405 1.097 2.795 1.59 4.153l-2.236.815c-1.74-4.848-3.795-9.483-6.009-14.011l12.786-6.345a152.354 152.354 0 00-3.394-6.447l-4.155 2.318c-.27-.492-.718-1.27-1.13-1.991l4.12-2.381c-.791-1.371-1.62-2.75-2.481-4.138zM19.138 119.491l2.193.92c-.63 1.506-1.23 3-1.794 4.479l4.445 1.7c-.294.778-.612 1.615-.802 2.143l-4.47-1.63a152.348 152.348 0 00-2.331 6.902l13.63 4.244c-1.47 4.82-2.768 9.722-3.72 14.785l-2.335-.453c.27-1.418.583-2.876.913-4.352l-4.64-1.05c.154-.684.329-1.423.514-2.191l4.623 1.122c.533-2.142 1.085-4.292 1.741-6.485l-13.694-4.03c.565-1.935 1-3.25 1.458-4.678 1.27-3.79 2.64-7.592 4.269-11.426zm284.519 0c1.628 3.834 2.999 7.636 4.269 11.426.458 1.428.893 2.743 1.458 4.678l-13.695 4.03c.657 2.193 1.208 4.343 1.741 6.485l4.623-1.122c.186.768.361 1.507.515 2.192l-4.64 1.05c.33 1.475.642 2.933.913 4.351l-2.336.453c-.952-5.063-2.249-9.964-3.719-14.785l13.63-4.244a152.433 152.433 0 00-2.33-6.902l-4.472 1.63c-.189-.528-.507-1.365-.8-2.143l4.444-1.7a151.08 151.08 0 00-1.794-4.479zm-292.164 23.25l2.312.561c-.385 1.587-.74 3.157-1.064 4.707l4.657.975c-.166.815-.348 1.692-.45 2.244l-4.673-.903a151.36 151.36 0 00-1.212 7.183l14.13 2.035c-.69 4.993-1.194 10.038-1.333 15.187l-2.378-.077c.043-1.443.12-2.93.213-4.44l-4.748-.304c.044-.7.1-1.46.162-2.246l4.742.378c.186-2.2.393-4.41.694-6.68l-14.159-1.813c.254-2 .473-3.367.7-4.85.655-3.943 1.406-7.913 2.407-11.956zm299.809 0c1 4.044 1.752 8.014 2.406 11.957.228 1.483.447 2.85.7 4.85l-14.158 1.813c.3 2.27.507 4.48.694 6.68l4.742-.378c.061.787.118 1.545.161 2.246l-4.747.304c.092 1.51.17 2.997.213 4.44l-2.378.077c-.14-5.15-.644-10.194-1.333-15.187l14.13-2.035a151.418 151.418 0 00-1.212-7.184l-4.672.904c-.103-.552-.285-1.43-.451-2.244l4.657-.975c-.324-1.55-.68-3.12-1.064-4.706zM9.992 191.197c.13 1.628.284 3.228.46 4.802l4.73-.528c.096.826.196 1.717.27 2.273l-4.72.601a153.479 153.479 0 001.095 7.202l14.058-2.481c.905 4.958 2 9.91 3.477 14.844l-2.283.67c-.41-1.385-.801-2.822-1.185-4.285l-4.604 1.193c-.177-.679-.361-1.416-.549-2.183l4.623-1.123c-.508-2.148-1.004-4.31-1.427-6.56L9.92 208.32c-.386-1.979-.603-3.347-.85-4.826-.61-3.95-1.136-7.957-1.448-12.11zm302.81 0l2.37.188c-.311 4.153-.837 8.16-1.447 12.11-.248 1.48-.465 2.847-.85 4.826l-14.017-2.7c-.423 2.25-.919 4.413-1.428 6.561l4.623 1.123c-.187.767-.372 1.505-.548 2.184l-4.605-1.194c-.383 1.463-.774 2.9-1.184 4.284l-2.283-.669c1.476-4.934 2.572-9.886 3.476-14.844l14.058 2.481a153.479 153.479 0 001.095-7.202l-4.72-.601c.074-.556.174-1.447.272-2.273l4.728.528c.177-1.573.33-3.174.46-4.802zM13.805 214.99c.386 1.587.79 3.144 1.214 4.67l4.586-1.27c.225.8.465 1.663.626 2.2l-4.565 1.34a152.604 152.604 0 002.22 6.94l13.487-4.674c1.677 4.753 3.544 9.468 5.782 14.107l-2.148 1.023a140.987 140.987 0 01-1.848-4.044l-4.357 1.908c-.283-.642-.581-1.342-.888-2.07l4.387-1.839c-.842-2.04-1.674-4.098-2.447-6.253l-13.413 4.882c-.693-1.893-1.125-3.21-1.604-4.63h.001c-1.226-3.804-2.38-7.677-3.346-11.73zm295.185 0l2.312.56c-.965 4.053-2.12 7.926-3.346 11.73-.478 1.42-.91 2.737-1.603 4.63l-13.412-4.882c-.774 2.155-1.605 4.212-2.447 6.253l4.386 1.839a146.07 146.07 0 01-.887 2.07l-4.357-1.908a140.992 140.992 0 01-1.849 4.044l-2.148-1.023c2.238-4.64 4.105-9.354 5.783-14.107l13.486 4.674a149.031 149.031 0 002.22-6.94l-4.565-1.34c.161-.537.402-1.4.627-2.2l4.586 1.27c.423-1.526.827-3.083 1.213-4.67zM21.33 237.88a151.435 151.435 0 001.937 4.419l4.327-1.98c.349.755.724 1.57.969 2.075l-4.297 2.046a151.535 151.535 0 003.29 6.5l12.578-6.747c2.408 4.428 4.996 8.788 7.94 13.015l-1.96 1.35a139.967 139.967 0 01-2.464-3.702l-4.001 2.573c-.38-.59-.786-1.232-1.203-1.903l4.041-2.51c-1.154-1.882-2.301-3.782-3.405-5.788L26.61 254.17c-.984-1.76-1.617-2.99-2.315-4.318-1.813-3.561-3.564-7.204-5.157-11.053zm280.133 0l2.193.92c-1.594 3.848-3.344 7.49-5.157 11.052-.698 1.328-1.33 2.558-2.315 4.318l-12.473-6.942c-1.104 2.006-2.251 3.906-3.405 5.788l4.041 2.51a143.8 143.8 0 01-1.203 1.903l-4.002-2.573c-.82 1.27-1.642 2.515-2.464 3.702l-1.959-1.35c2.944-4.227 5.532-8.587 7.94-13.015l12.578 6.747a150.974 150.974 0 003.29-6.5l-4.297-2.046c.244-.505.62-1.32.97-2.074l4.326 1.979c.659-1.44 1.305-2.913 1.937-4.419zm-269.08 21.413a151.89 151.89 0 002.61 4.057l3.96-2.639c.465.69.963 1.436 1.284 1.896l-3.918 2.7c.92 1.327 1.848 2.644 2.8 3.927h-.001a155.24 155.24 0 001.476 1.971l11.353-8.652c3.079 3.99 6.324 7.887 9.9 11.595l-1.722 1.643a141.413 141.413 0 01-3.018-3.265l-3.544 3.172c-.47-.522-.97-1.092-1.489-1.688l3.592-3.118c-1.437-1.676-2.87-3.37-4.278-5.176l-11.217 8.828c-1.25-1.582-2.069-2.697-2.968-3.898-2.353-3.23-4.659-6.55-6.84-10.098zm258.027 0l2.02 1.255c-2.181 3.549-4.487 6.868-6.84 10.098-.899 1.2-1.718 2.316-2.968 3.898l-11.217-8.828c-1.408 1.806-2.84 3.5-4.278 5.176l3.592 3.118c-.519.596-1.02 1.166-1.489 1.688l-3.544-3.172a141.538 141.538 0 01-3.018 3.265l-1.721-1.643c3.575-3.708 6.82-7.604 9.899-11.595l11.353 8.652a152.678 152.678 0 004.276-5.899l-3.919-2.7c.321-.46.82-1.205 1.284-1.895l3.96 2.639a151.97 151.97 0 002.61-4.057zM46.683 278.689a151.943 151.943 0 003.22 3.593l3.493-3.232c.567.607 1.177 1.264 1.566 1.668l-3.442 3.285a152.074 152.074 0 003.385 3.436c.663.651 1.256 1.224 1.77 1.712l9.843-10.338c3.67 3.454 7.491 6.787 11.608 9.883l-1.441 1.894a140.254 140.254 0 01-3.497-2.746l-2.997 3.694c-.545-.442-1.13-.927-1.737-1.433l3.054-3.646c-1.684-1.427-3.366-2.874-5.042-4.434l-9.68 10.49c-1.486-1.364-2.47-2.335-3.548-3.379v-.001c-2.834-2.817-5.636-5.73-8.352-8.888zm229.43 0l1.796 1.558c-2.716 3.159-5.518 6.07-8.353 8.888-1.077 1.045-2.062 2.016-3.546 3.38l-9.681-10.49c-1.676 1.56-3.358 3.007-5.042 4.434l3.053 3.646c-.606.507-1.191.992-1.737 1.433l-2.997-3.693c-1.176.95-2.345 1.874-3.496 2.745l-1.441-1.894c4.116-3.096 7.937-6.429 11.608-9.883l9.842 10.338a151.28 151.28 0 001.77-1.71v-.002a152.074 152.074 0 003.386-3.436l-3.442-3.285c.39-.403.999-1.06 1.566-1.668l3.493 3.232c1.075-1.161 2.15-2.36 3.22-3.593zM83.474 292.563c4.17 2.83 8.47 5.518 13.025 7.924l-1.122 2.1a140.864 140.864 0 01-3.888-2.161l-2.376 4.122c-.608-.35-1.263-.735-1.942-1.14l2.44-4.083c-1.888-1.143-3.778-2.306-5.68-3.581l-7.899 11.89c-1.682-1.113-2.81-1.917-4.038-2.777-3.245-2.333-6.471-4.767-9.652-7.456l1.528-1.823c1.252 1.048 2.5 2.062 3.746 3.038l2.94-3.742c.655.51 1.362 1.062 1.81 1.398l-2.88 3.79a152.745 152.745 0 005.905 4.266zm155.845 0l8.083 11.765a152.791 152.791 0 005.905-4.267l-2.88-3.789c.448-.336 1.154-.888 1.81-1.398l2.94 3.742c1.245-.976 2.494-1.99 3.746-3.038l1.528 1.823c-3.181 2.69-6.407 5.123-9.652 7.456-1.229.86-2.357 1.664-4.038 2.776l-7.9-11.89c-1.9 1.276-3.79 2.439-5.68 3.582l2.44 4.083c-.678.405-1.333.79-1.941 1.14l-2.376-4.122a140.865 140.865 0 01-3.888 2.16l-1.122-2.1c4.554-2.405 8.854-5.093 13.025-7.923zM102.393 303.46c4.567 2.135 9.236 4.108 14.114 5.764l-.776 2.248c-1.366-.467-2.764-.98-4.179-1.516l-1.695 4.446c-.656-.249-1.364-.527-2.098-.818l1.764-4.42c-2.046-.83-4.096-1.677-6.175-2.636l-5.92 12.989c-1.836-.833-3.076-1.447-4.426-2.102-3.573-1.791-7.143-3.683-10.71-5.835l1.221-2.043c1.402.837 2.796 1.64 4.18 2.407l2.31-4.16c.728.4 1.513.833 2.009 1.095l-2.245 4.196a152.234 152.234 0 006.506 3.28zm118.008 0l6.121 12.896a151.857 151.857 0 006.506-3.281l-2.245-4.196c.496-.262 1.28-.695 2.01-1.095l2.309 4.16c1.384-.767 2.778-1.57 4.18-2.407l1.22 2.043c-3.567 2.152-7.137 4.044-10.71 5.835-1.349.655-2.59 1.27-4.425 2.102l-5.92-12.989c-2.08.959-4.13 1.807-6.175 2.636l1.763 4.42c-.734.291-1.441.569-2.098.818l-1.694-4.446a140.613 140.613 0 01-4.18 1.516l-.775-2.248c4.877-1.656 9.547-3.63 14.113-5.764z" fill="#ffc705"/><g><path d="M161.397 9.197c-2.566 1.897-6.984 8.236-6.984 12.093a6.983 6.983 0 006.984 6.983 6.983 6.983 0 006.984-6.983c0-3.857-4.418-10.196-6.984-12.093z" fill="#d40000" stroke="#ffc705" stroke-width=".255819"/><path d="M161.397 9.193c-1.9 1.404-5.17 6.097-5.17 8.952a5.17 5.17 0 005.17 5.169 5.17 5.17 0 005.17-5.17c0-2.854-3.27-7.547-5.17-8.951z" fill="#d45500"/><path d="M161.397 9.193c-1.283.949-3.493 4.12-3.493 6.049a3.493 3.493 0 006.987 0c0-1.93-2.21-5.1-3.494-6.05z" fill="#d47f00"/><path d="M161.397 9.193c-.64.473-1.742 2.054-1.742 3.016a1.742 1.742 0 003.484 0c0-.962-1.102-2.543-1.742-3.016z" fill="#fff"/><g><path d="M152.442 24.844c-2.566 1.897-6.984 8.236-6.984 12.094a6.983 6.983 0 006.984 6.982 6.983 6.983 0 006.984-6.982c0-3.858-4.418-10.197-6.984-12.094z" fill="#093" stroke="#ffc705" stroke-width=".255819"/><path d="M152.442 24.844c-1.9 1.404-5.17 6.097-5.17 8.952a5.17 5.17 0 005.17 5.17 5.17 5.17 0 005.17-5.17c0-2.855-3.27-7.548-5.17-8.952z" fill="#6dc235"/><path d="M152.442 24.844c-1.283.95-3.493 4.12-3.493 6.05a3.493 3.493 0 006.987 0c0-1.93-2.21-5.1-3.494-6.05z" fill="#b5d98b"/><path d="M152.442 24.844c-.64.473-1.742 2.054-1.742 3.017a1.742 1.742 0 003.484 0c0-.963-1.102-2.544-1.742-3.017z" fill="#fff"/></g><g><path d="M170.35 24.844c-2.566 1.897-6.984 8.236-6.984 12.094a6.983 6.983 0 006.984 6.982 6.983 6.983 0 006.984-6.982c0-3.858-4.419-10.197-6.984-12.094z" fill="#1b4392" stroke="#ffc705" stroke-width=".255819"/><path d="M170.35 24.844c-1.9 1.404-5.17 6.097-5.17 8.952a5.17 5.17 0 005.17 5.17 5.17 5.17 0 005.17-5.17c0-2.855-3.271-7.548-5.17-8.952z" fill="#1b6692"/><path d="M170.35 24.844c-1.284.95-3.494 4.12-3.494 6.05a3.493 3.493 0 006.987 0c0-1.93-2.21-5.1-3.493-6.05z" fill="#1b8b92"/><path d="M170.35 24.844c-.64.473-1.742 2.054-1.742 3.017a1.742 1.742 0 003.484 0c0-.963-1.102-2.544-1.742-3.017z" fill="#fff"/></g></g><g fill="#fff" stroke="#ffc705" stroke-width=".2"><path d="M161.396 297.922c2.148 3.083 16.628 4.613 16.628 15.25 0 5.83-5.371 11.253-9.177 11.33h-14.901c-3.807-.077-9.178-5.5-9.178-11.33 0-10.637 14.48-12.167 16.628-15.25z" stroke-width=".511638"/><path d="M161.396 301.466c2.148 3.083 12.79 4.374 12.79 11.96 0 6.847-4.912 10.999-8.718 11.076h-8.144c-3.806-.077-8.72-4.229-8.72-11.076 0-7.586 10.644-8.877 12.792-11.96z" stroke-width=".511638"/><path d="M161.396 297.922c-2.148 3.083-16.628 4.613-16.628 15.25 0 5.83 5.371 11.253 9.177 11.33h14.901c3.807-.077 9.178-5.5 9.178-11.33 0-10.637-14.48-12.167-16.628-15.25z" stroke-width=".511638"/><path d="M161.396 301.466c-2.148 3.083-12.79 4.374-12.79 11.96 0 6.847 4.912 10.999 8.718 11.076h8.144c3.806-.077 8.72-4.229 8.72-11.076 0-7.586-10.644-8.877-12.792-11.96zM161.396 352.002c-2.148-3.082-16.628-4.612-16.628-15.25 0-5.83 5.371-11.252 9.178-11.33h14.9c3.807.078 9.178 5.5 9.178 11.33 0 10.638-14.48 12.168-16.628 15.25z" stroke-width=".511638"/><path d="M161.396 348.458c-2.148-3.083-12.79-4.373-12.79-11.96 0-6.847 4.912-10.998 8.719-11.075h8.143c3.806.077 8.72 4.228 8.72 11.075 0 7.587-10.644 8.877-12.792 11.96zM161.396 297.922c-2.148 3.083-16.628 4.613-16.628 15.25 0 5.83 5.371 11.253 9.177 11.33h14.901c3.807-.077 9.178-5.5 9.178-11.33 0-10.637-14.48-12.167-16.628-15.25z" stroke-width=".511638"/><path d="M161.396 301.466c-2.148 3.083-12.79 4.374-12.79 11.96 0 6.847 4.912 10.999 8.718 11.076h8.144c3.806-.077 8.72-4.229 8.72-11.076 0-7.586-10.644-8.877-12.792-11.96zM66.429 349.265c10.209 6.396 27.621 0 27.681-10.795.052-9.386 7.6-12.413 8.537-13.048-10.402.168-24.195 5.529-27.664 9.984-3.137 4.3-2.863 11.532-8.554 13.86z" stroke-width=".511638"/><path d="M70.416 349.032c10.388 2.243 19.294-3.005 20.18-8.658 1.397-8.415 2.971-11.787 12.05-14.952-6.736-.674-17.356-3.308-18.458-7.261-2.225 1.548-1.43 5.2.118 6.454-1.37.985-1.753 2.416-1.753 3.75 0 1.606 1.412 3.653 4.097 3.653 2.965 0 3.88-1.614 3.88-3.638 0-2.234-3.88-2.373-3.88.09 0-2.471 3.88-2.319 3.88-.09 0 2.02-.91 3.638-3.88 3.638-1.365 0-2.29-.612-2.29-.612-11.812 4.551-9.18 15.356-13.944 17.626z" stroke-linecap="square" stroke-width=".511638"/><path d="M118.611 306.996c.219-3.363 2.97-5.846 5.11-7.778-.951-.78-2.999-.958-4.3-.09-1.337-1.424-3.364-1.869-4.47.234-1.128-.627-3.318-.962-4.065.456 2.551 1.594 6.23 3.716 7.725 7.178z" stroke-linejoin="round" stroke-width=".511638"/><path d="M194.653 297.922c-2.148 3.082-14.101 5.946-14.101 13.532 0 9.386-5.428 12.412-6.365 13.048H191.552c2.876-.058 11.384-5.252 11.384-13.242 0-8.364-6.135-10.256-8.283-13.338z" stroke-width=".511638"/><path d="M194.653 301.018c-2.148 3.083-11.097 4.931-11.097 12.518 0 6.847-5.532 10.33-6.468 10.966h9.92c3.806-.077 12.95-5.684 12.95-12.531 0-7.249-3.877-8.251-5.305-10.953zM218.955 297.922c-2.148 3.082-14.1 5.946-14.1 13.532 0 9.386-7.6 12.412-8.537 13.048h18.55c2.875-.058 11.398-5.252 11.398-13.242 0-8.364-5.988-11.292-7.31-13.338z" stroke-width=".511638"/><path d="M218.955 301.018c-2.148 3.083-11.096 4.931-11.096 12.518 0 6.847-7.275 10.33-8.212 10.966h10.527c3.806-.077 12.775-5.684 12.775-12.531 0-7.249-2.17-8.844-3.994-10.953z" stroke-width=".511638"/><path d="M143.78 306.996c1.393-2.94 5.043-5.455 7.318-6.791-.656-.885-3.61-1.73-4.911-.862-1.303-1.713-4.1-2.077-5.684.02-1.128-.627-3.98-.774-4.728.643 2.34 1.679 6.51 3.942 8.005 6.991z" stroke-linejoin="round" stroke-width=".511638"/><path d="M128.14 297.922c2.148 3.082 14.1 5.946 14.1 13.532 0 9.386 5.428 12.413 6.365 13.048h-17.364c-2.876-.058-11.385-5.252-11.385-13.242 0-8.364 6.136-10.256 8.284-13.338z" stroke-width=".511638"/><path d="M128.14 301.018c2.148 3.083 11.097 4.931 11.097 12.518 0 6.847 5.531 10.33 6.468 10.966h-9.92c-3.806-.077-12.95-5.684-12.95-12.531 0-7.249 3.876-8.251 5.305-10.953zM103.837 297.922c2.148 3.082 14.1 5.946 14.1 13.532 0 9.386 7.6 12.413 8.537 13.048h-18.549c-2.876-.058-11.399-5.252-11.399-13.242 0-8.364 5.988-11.292 7.311-13.338z" stroke-width=".511638"/><path d="M103.837 301.018c2.148 3.083 11.097 4.931 11.097 12.518 0 6.847 7.275 10.33 8.212 10.966h-10.527c-3.806-.077-12.776-5.684-12.776-12.531 0-7.249 2.17-8.844 3.994-10.953z" stroke-width=".511638"/><path d="M204.181 306.996c-.218-3.363-2.969-5.846-5.11-7.778.952-.78 3-.958 4.3-.09 1.338-1.424 3.364-1.869 4.47.234 1.129-.628 3.318-.962 4.066.456-2.552 1.594-6.231 3.716-7.726 7.178zM179.012 306.996c-1.392-2.94-5.042-5.455-7.317-6.791.655-.885 3.61-1.73 4.91-.862 1.304-1.713 4.101-2.077 5.684.02 1.129-.627 3.981-.774 4.728.643-2.34 1.679-6.51 3.942-8.005 6.991z" stroke-linejoin="round" stroke-width=".511638"/><path d="M194.653 352.003c-2.148-3.083-14.1-5.946-14.1-13.533 0-9.385-5.429-12.412-6.366-13.047h17.365c2.876.058 11.385 5.252 11.385 13.241 0 8.365-6.136 10.256-8.284 13.339z" stroke-width=".511638"/><path d="M194.653 348.907c-2.148-3.083-11.097-4.932-11.097-12.518 0-6.847-5.531-10.331-6.468-10.966h9.92c3.806.077 12.95 5.684 12.95 12.531 0 7.248-3.876 8.25-5.305 10.953zM218.956 352.003c-2.148-3.083-14.101-5.946-14.101-13.533 0-9.385-7.6-12.412-8.536-13.047h18.549c2.875.058 11.398 5.252 11.398 13.241 0 8.365-5.987 11.293-7.31 13.339z" stroke-width=".511638"/><path d="M218.956 348.907c-2.148-3.083-11.097-4.932-11.097-12.518 0-6.847-7.275-10.331-8.212-10.966h10.527c3.806.077 12.775 5.684 12.775 12.531 0 7.248-2.17 8.843-3.993 10.953z" stroke-width=".511638"/><path d="M143.78 342.928c1.393 2.94 5.043 5.456 7.318 6.792-.656.885-3.61 1.73-4.911.862-1.303 1.712-4.1 2.077-5.684-.02-1.128.627-3.98.774-4.728-.644 2.34-1.678 6.51-3.942 8.006-6.991z" stroke-linejoin="round" stroke-width=".511638"/><path d="M128.14 352.003c2.148-3.083 14.1-5.946 14.1-13.533 0-9.385 5.429-12.412 6.366-13.047H131.24c-2.876.058-11.385 5.252-11.385 13.241 0 8.365 6.136 10.256 8.284 13.339z" stroke-width=".511638"/><path d="M128.14 348.907c2.148-3.083 11.097-4.932 11.097-12.518 0-6.847 5.531-10.331 6.468-10.966h-9.92c-3.806.077-12.95 5.684-12.95 12.53 0 7.25 3.876 8.252 5.305 10.954zM103.837 352.003c2.148-3.083 14.1-5.946 14.1-13.533 0-9.385 7.6-12.412 8.537-13.047h-18.549c-2.875.058-11.399 5.252-11.399 13.241 0 8.365 5.988 11.293 7.311 13.339z" stroke-width=".511638"/><path d="M103.837 348.907c2.148-3.083 11.097-4.932 11.097-12.518 0-6.847 7.275-10.331 8.212-10.966h-10.527c-3.806.077-12.775 5.684-12.775 12.53 0 7.25 2.17 8.844 3.993 10.954z" stroke-width=".511638"/><path d="M204.181 342.928c-.218 3.363-2.969 5.847-5.11 7.779.952.78 3 .958 4.3.09 1.338 1.424 3.365 1.868 4.47-.235 1.129.628 3.319.962 4.066-.456-2.552-1.593-6.231-3.716-7.726-7.178z" stroke-linejoin="round" stroke-width=".511638"/><path d="M179.012 342.928c-1.392 2.94-5.042 5.456-7.317 6.792.656.885 3.61 1.73 4.911.862 1.303 1.712 4.1 2.077 5.684-.02 1.128.627 3.98.774 4.728-.644-2.34-1.678-6.511-3.942-8.006-6.991z" stroke-linejoin="round" stroke-miterlimit="4.5" stroke-width=".511638"/><path d="M118.612 342.928c.218 3.363 2.969 5.847 5.11 7.779-.952.779-3 .958-4.3.09-1.338 1.424-3.365 1.868-4.471-.235-1.128.628-3.318.962-4.065-.456 2.552-1.593 6.231-3.716 7.726-7.178zM95.18 342.95c.218 3.363 3.137 5.825 5.279 7.757-.952.779-2.408.958-3.709.09-1.337 1.424-3.49 1.868-4.597-.235-1.128.628-3.043.962-3.79-.456 2.552-1.593 5.321-3.695 6.816-7.157zM227.613 342.95c-.218 3.363-3.138 5.825-5.28 7.757.953.779 2.408.958 3.71.09 1.336 1.424 3.49 1.868 4.596-.235 1.129.628 3.043.962 3.79-.456-2.551-1.593-5.321-3.695-6.816-7.157z" stroke-linejoin="round" stroke-width=".511638"/><path d="M256.364 349.265c-10.21 6.396-27.622 0-27.682-10.795-.052-9.386-7.6-12.413-8.536-13.048 10.401.168 24.195 5.529 27.663 9.984 3.137 4.3 2.863 11.532 8.555 13.86z" stroke-width=".511638"/><path d="M252.376 349.032c-10.388 2.243-19.294-3.005-20.18-8.658-1.396-8.415-2.97-11.787-12.05-14.952 6.736-.674 17.356-3.308 18.458-7.261 2.226 1.548 1.431 5.2-.118 6.454 1.37.985 1.753 2.416 1.753 3.75 0 1.606-1.411 3.653-4.097 3.653-2.965 0-3.88-1.614-3.88-3.638 0-2.234 3.88-2.373 3.88.09 0-2.471-3.88-2.319-3.88-.09 0 2.02.91 3.638 3.88 3.638 1.365 0 2.291-.612 2.291-.612 11.812 4.551 9.18 15.356 13.943 17.626z" stroke-linecap="square" stroke-width=".511638"/></g><g transform="matrix(2.55819 0 0 2.55819 420.9 -169.507)" fill="#ffc705"><path d="M-103.103 139.352a2.065 2.065 0 011.663-3.286 1.645 1.645 0 000-3.29 3.497 3.497 0 00-1.662 6.576zm1.663-4.43a.5.5 0 01-.5-.501.5.5 0 01.5-.5.5.5 0 01.5.5.5.5 0 01-.5.5z"/><path d="M-99.778 133.2a2.065 2.065 0 01-1.662 3.287 1.645 1.645 0 000 3.29 3.497 3.497 0 001.662-6.576zm-1.662 4.432a.5.5 0 01.5.5.5.5 0 01-.5.5.5.5 0 01-.5-.5.5.5 0 01.5-.5zM-95.512 118.03a5.95 5.95 0 01-5.928 5.51 5.95 5.95 0 01-5.93-5.482 6.15 6.15 0 00-.22 1.606 6.15 6.15 0 006.15 6.15 6.15 6.15 0 006.15-6.15 6.15 6.15 0 00-.222-1.634z"/><circle r=".5" cy="118.689" cx="-70.795"/><circle r="4.95" cy="117.589" cx="-101.44"/><path d="M-104.94 140.54v2.15h7v-2.15zM-82.54 112.589a3.646 3.646 0 00-.663.057 3.888 3.888 0 00-2.32 1.33 3.863 3.863 0 00-.743 1.36 3.854 3.854 0 00-.175 1.152v10.951h-10.95V145.14h24.951v1.55h-4.25a.55.55 0 01-.55-.55h-5.3c-2.201 0-3.895 1.78-3.895 3.8h13.744c2.179 0 4.15-1.753 4.15-4.15v-5.25h-6.835c.055-.159.102-.325.136-.5h7.3v5.757c-.001 2.14-2.093 3.976-4.226 4.143h.325c2.262 0 4.597-1.88 4.6-4.143v-6.307h-7.935c.076-1.373-.795-2.823-2.064-3.399v-16.8a.7.7 0 01.7-.7v4.95c3.457 0 5.18 4.895 1.7 4.895v3.604h1.66a1.75 1.75 0 111.481 0h2.209c0-.708.62-1.45.948-1.45v-18zm11.367 3.233c-.023.11-.066.629.088.78a2.4 2.4 0 010 3.972 3.4 3.4 0 01-.645-1.985c0-.656.191-1.296.547-1.845-.116-.22-.054-.744.01-.922zm.165.057c-.01.192.02.424.045.5a.452.452 0 00.233.25c.79.341 1.62 1.121 1.622 1.96 0 .882-.967 1.672-1.791 1.986.734-.39 1.39-1.154 1.39-1.986 0-.824-.647-1.583-1.372-1.976a.339.339 0 01-.13-.24c-.011-.095-.038-.363.003-.494zm-21.082 11.562a11.4 11.4 0 012.05 6.498 11.388 11.388 0 01-2.05 6.517zm22.52 2.19a.45.45 0 01.45.45.45.45 0 01-.45.45.45.45 0 01-.264-.086c-.066-.046-.283.005-.28.234-.241-.408.003-.998.485-1.043a.45.45 0 01.06-.005zm-11.622 17.058l.36.005a3.268 3.268 0 00-2.749 2.245h-.7a3.25 3.25 0 013.09-2.25zm-1.398 0l.359.005a3.268 3.268 0 00-2.748 2.246h-.7a3.25 3.25 0 013.089-2.25zM-146.49 127.44l.007 5.3a3.518 3.518 0 003.51 3.538l12.883.01c1.842 0 2.938-1.293 3.295-2.349.743-1.944 1.942-3.081 2.899-3.648-.393.42-1.492 1.63-1.494 3.648v6.6h-5.6a.75.75 0 01-.75.75h-10.199a3.815 3.815 0 00-3.85 3.85h25.6a7.068 7.068 0 014.7-1.8 7.066 7.066 0 014.699 1.8h5.3v-17.7h-5.3v13.007a11.386 11.386 0 01-2.05-6.507 11.408 11.408 0 012.05-6.5zm3.6 2.387a2.95 2.95 0 012.424 1.275c.597.964.376 1.916.376 2.257a1.85 1.85 0 00-1.85-1.85c-.89 0-1.474.364-1.474 1.222 0 .287.175.628.494.628a.4.4 0 00.4-.4c0-.423-.394-.466-.536-.375.085-.255.187-.345.411-.345a.85.85 0 110 1.7c-.34 0-.54-.167-.715-.391-.097-.138-.229-.54-.39-.617-.522-.238-.778.62-1.09.62-.156 0-.629-.003-.658-1.09.017.907.328 1.408.773 1.408.27 0 .314-.573.584-.573.221 0 .319.207.386.423v-.004a1.85 1.85 0 003.573.217v.007c.18-.377.242-.898.242-1.162a2.95 2.95 0 012.95-2.95 2.95 2.95 0 012.423 1.274c.598.964.377 1.917.377 2.258a1.85 1.85 0 00-1.85-1.85c-.89 0-1.474.364-1.474 1.222 0 .287.175.628.494.628a.4.4 0 00.4-.4c0-.423-.394-.466-.536-.375v-.001c.085-.254.186-.344.411-.344a.85.85 0 110 1.7c-.34 0-.54-.167-.715-.391-.097-.138-.229-.54-.39-.617-.522-.238-.778.62-1.09.62-.156 0-.629-.003-.658-1.09.016.907.328 1.408.773 1.408.27 0 .314-.573.584-.573.221 0 .319.207.386.423v-.004a1.85 1.85 0 003.573.217v.007c.18-.377.242-.898.242-1.162a2.95 2.95 0 012.95-2.95 2.95 2.95 0 012.434 1.292c.584.958.366 1.901.366 2.24a1.85 1.85 0 00-1.85-1.85c-.89 0-1.474.364-1.474 1.222 0 .287.175.628.494.628a.4.4 0 00.4-.4c0-.424-.394-.466-.536-.376.085-.254.186-.344.411-.344a.85.85 0 110 1.7c-.34 0-.54-.167-.715-.391-.098-.138-.229-.54-.39-.617-.522-.238-.778.62-1.091.62-.155 0-.628-.003-.657-1.09.016.907.328 1.408.773 1.408.27 0 .313-.574.584-.574.22 0 .319.208.386.424v-.004a1.85 1.85 0 003.573.217v.007c.095-.243.573-.063.518.164a2.34 2.34 0 01-2.226 1.623h-12.8a2.95 2.95 0 01-2.95-2.95 2.95 2.95 0 012.95-2.95zm1.077 12.362l.36.005a3.268 3.268 0 00-2.749 2.245h-.699a3.25 3.25 0 013.088-2.25zm1.399 0l.359.005a3.268 3.268 0 00-2.748 2.245h-.7a3.25 3.25 0 013.089-2.25zM-104.94 129.89v2.15h7v-2.15zM-71.934 103.93c-.435 1.818 2.444 1.901 2.444 2.876 0 1.14-1.331 1.55-1.78 1.965a2.093 2.093 0 00-.664 1.528 2.1 2.1 0 104.2 0c0-1.818-1.673-2.585-2.488-1.564l-.001.002a.5.5 0 10.851.123c.222-.129.613.16.613.576 0 .503-.481.913-1.075.913a1.075 1.075 0 01-1.075-1.075c0-.34.357-.775.998-1.072.37-.164 1.101-.393 1.101-1.395 0-1.17-3.252-1.204-3.124-2.877z"/><path d="M-88.533 123.083c-.89 0-1.474.364-1.474 1.222 0 .287.175.628.495.628a.4.4 0 00.4-.4c0-.424-.395-.466-.537-.376.085-.254.187-.344.412-.344a.85.85 0 110 1.7c-.341 0-.54-.167-.715-.391-.098-.138-.23-.54-.391-.617-.522-.238-.778.62-1.09.62-.156 0-.628-.003-.657-1.09.016.907.327 1.408.773 1.408.269 0 .313-.573.583-.573.221 0 .32.207.386.423v-.004a1.85 1.85 0 101.815-2.206zM-88.533 112.639c-.89 0-1.474.364-1.474 1.221 0 .288.175.629.495.629a.4.4 0 00.4-.4c0-.424-.395-.466-.537-.376.085-.254.187-.345.412-.345a.85.85 0 110 1.7c-.341 0-.54-.166-.715-.39-.098-.139-.23-.54-.391-.618-.522-.237-.778.62-1.09.62-.156 0-.628-.003-.657-1.09.016.908.327 1.409.773 1.409.269 0 .313-.574.583-.574.221 0 .32.208.386.423v-.004a1.85 1.85 0 101.815-2.205zM-88.533 117.863c-.89 0-1.474.364-1.474 1.222 0 .287.175.628.495.628a.4.4 0 00.4-.4c0-.423-.395-.466-.537-.376.085-.254.187-.344.412-.344a.85.85 0 110 1.7c-.341 0-.54-.167-.715-.391-.098-.138-.23-.54-.391-.617-.522-.238-.778.62-1.09.62-.156 0-.628-.003-.657-1.09.016.907.327 1.408.773 1.408.269 0 .313-.573.583-.573.221 0 .32.207.386.423v-.004a1.85 1.85 0 101.815-2.206zM-104.94 127.44l3.5 1.976 3.5-1.977h-3.5zM-104.94 143.16l3.5 1.976 3.5-1.977h-3.5zM-136.315 105.144l3.906 5.825h.001a1 1 0 001.387.273l1.098-.736a1 1 0 011.387.272v.002l8.346 12.442c0-1.535 2.162-3.192 3.542-2.395l10.026 5.662h5.182c-5.463 0-8.389-2.635-8.846-3.42l-6.268-9.669-19.761-8.255z"/><path d="M-123.593 119.839c-.889 0-1.473.364-1.473 1.222 0 .287.175.628.494.628a.4.4 0 00.4-.4c0-.424-.394-.466-.536-.376.085-.254.186-.344.411-.344a.85.85 0 110 1.7.82.82 0 01-.715-.391c-.216-.316-.216-.658-.378-.794-.482-.37-.749.492-1.024.015l-2.155-3.213c-.958.038-1.678.212-2.144-.96.18 1.57 1.115 1.808 2.137 1.695l2.048 3.054c.52.775 1.138-1.23 1.138.403 0 .7.85 1.461 1.797 1.461a1.85 1.85 0 100-3.7z"/><path d="M-126.579 115.387c-.89 0-1.474.364-1.474 1.221 0 .288.175.629.495.629a.4.4 0 00.4-.4c0-.424-.394-.466-.536-.376.084-.254.186-.345.41-.345a.85.85 0 110 1.7.82.82 0 01-.714-.39c-.216-.316-.217-.658-.379-.794-.481-.37-.748.492-1.023.015l-2.156-3.213c-.957.038-1.677.212-2.143-.96.18 1.57 1.114 1.808 2.137 1.695l2.048 3.054c.52.775 1.137-1.23 1.137.403 0 .7.851 1.46 1.798 1.46a1.85 1.85 0 100-3.7z"/><path d="M-129.566 110.932c-.89 0-1.474.364-1.474 1.222 0 .287.175.628.494.628a.4.4 0 00.4-.4c0-.423-.394-.466-.536-.375.085-.255.186-.345.411-.345a.85.85 0 110 1.7.82.82 0 01-.715-.391c-.215-.316-.216-.658-.378-.794-.482-.37-.749.492-1.024.016l-5.038-7.513c-.958.039-1.678.213-2.144-.96.18 1.571 1.115 1.809 2.137 1.696l4.931 7.353c.52.774 1.138-1.23 1.138.402 0 .7.85 1.461 1.798 1.461a1.85 1.85 0 100-3.7zM-135.42 102.75c.18 1.57 1.114 1.808 2.136 1.695l.835 1.245.695.29 15.66 7.095 6.522 10.008c.39.605 3.106 3.406 8.132 3.406-4.138 0-7.245-2.574-7.758-3.406l-6.292-10.17-17.198-8.324-.59-.879c-.957.038-1.676.212-2.143-.96zM-101.012 98.098c-.46.38-.836 1.071-.904 1.563-.036.346.195 1.039.031 1.373-.367.671-.99.67-.99 1.488 0 1.249 1.007 3.216 1.007 3.902 0 .795-.932 1.184-1.428.734-.5-.474.235-1.532.235-2.316 0-.66-1.164-1.074-.491-1.996-.645.37-.98.927-.708 1.46.164.314.368.83-.043 1.015-.46.167-.735-.368-.637-1.122-1.244 1.964-.509 4.317.948 5.431.291 1.226 1.395 2.01 2.552 2.01 1.156 0 2.26-.784 2.552-2.01 1.456-1.114 2.192-3.467.948-5.431.097.754-.177 1.29-.637 1.122-.412-.186-.208-.7-.044-1.016.273-.532-.062-1.089-.707-1.46.672.923-.492 1.337-.492 1.997 0 .784.736 1.842.236 2.316-.497.45-1.428.061-1.428-.734 0-.679 1.209-2.645 1.209-3.821 0-1.235-.804-2.258-1.408-2.976-.25-.328-.289-.925.199-1.529zM-111.5 145.14c-2.226-1.857-6.124-1.89-8.572.499h-25.718v.55h25.814c2.381-2.42 5.71-2.875 8.476-1.05z"/></g></svg>