<svg version="1.1" id="圖層_1" xmlns="http://www.w3.org/2000/svg" x="0" y="0" viewBox="0 0 258.068 258.062" xml:space="preserve"><style>.st1{fill:#0f7562}</style><g id="XMLID_2_"><circle id="XMLID_1_" cx="128.413" cy="129.212" r="125.384" fill="#fff"/><path class="st1" d="M258.068 129.03c0 71.251-57.79 129.032-129.03 129.032C57.77 258.062 0 200.28 0 129.029 0 57.763 57.77 0 129.038 0c71.24 0 129.03 57.763 129.03 129.03M129.038 6.444c-67.7 0-122.584 54.884-122.584 122.584 0 67.686 54.884 122.576 122.584 122.576 67.672 0 122.567-54.89 122.567-122.576 0-67.7-54.895-122.584-122.567-122.584"/><path class="st1" d="M26.187 160.419l1.65 5.7-4.883 1.425-1.664-5.697 4.897-1.428zm-7.207-.342l-3.04.89.643 2.252 3.045-.888 2.295 7.84 8.212-2.405-2.298-7.844 5.817-1.7-.654-2.239-5.826 1.694-2.322-7.99-8.217 2.4 2.345 7.99zm4.836-7.768l1.717 5.846-4.9 1.431-1.723-5.84 4.906-1.437zM22.463 133.465l-1.869-.011v-3.478l1.869.006v3.483zm-6.454-1.495h-1.37v-2.52h-1.547v2.52l-1.55-.011v2.105h1.55l-.009 5.104h1.55l.007-5.104h1.346v3.758h1.472v-2.315h1.653v3.89h1.483v-3.89h1.869v2.596h1.454l.018-8.115h1.471v7.577h1.501l.012-7.577h2.406v-2.118H26.92v-7.738h-1.495l-.018 7.733h-1.471l.005-8.288h-1.46v2.573h-1.869l.006-3.714h-1.483v3.714h-1.67l.014-2.4h-1.466v4.076h-1.36v-5.14h-1.548l-.012 5.14-1.533-.018v2.118h1.533v2.447h1.548l.011-2.442h1.358v6.04zm6.454-4.105l-1.852-.006v-3.645l1.852.012v3.639zm-3.33-.006h-1.67v-3.645h1.67v3.645zm-.022 5.595h-1.653l.006-3.478h1.67l-.023 3.478z"/><path id="XMLID_216_" class="st1" d="M16.595 94.79l2.112.61c1.693.515 4.1.413 7.198-.303 3.124-.672 6.01-2.28 8.725-4.8l1.244 1.997c-.093.266-1.034.996-2.841 2.172-1.837 1.198-3.566 2.024-5.18 2.474-1.624.467-3.192.718-4.693.753 4.17 2.579 6.725 6.486 7.654 11.74l-2.088.98c-.41-2.984-1.574-5.612-3.46-7.872-1.902-2.299-4.232-3.86-7.024-4.693l-2.336-.68.69-2.378z"/><path class="st1" d="M38.076 62.282l-7.149 11.065-1.977-1.291 7.146-11.064 1.98 1.29zm2.57-.89l-4.772-3.081-9.496 14.715L38.73 81c-.205.57-.502 1.174-.862 1.855l2.039.426c1.48-3.434 2.651-6.678 3.518-9.718l-1.5-.97c-.444 1.425-1.221 3.542-2.34 6.366l-3.9-2.517 3.606-5.59c1.965.532 3.91.6 5.854.217 1.907-.397 3.26-1.186 4.021-2.389.789-1.22.161-2.77-1.904-4.698l-1.903 1.215c.61.528 1.127 1.042 1.533 1.527.423.485.52.89.31 1.226-.328.514-1.201.891-2.626 1.142-1.43.228-2.818.193-4.117-.108l4.187-6.527-1.445-.94-4.5 6.959c-.587-.184-1.27-.464-2.091-.862l4.035-6.222zm-5.178 8.018c.879.444 1.562.742 2.094.868L34.2 75.455l-1.875-1.209 3.142-4.836zM60.837 45.694l-4.415 3.828-2.719-3.13 4.412-3.817 2.722 3.12zm-6.15 5.33l-4.035 3.495 1.156 1.34L67.67 42.126l-1.16-1.34-3.944 3.398-2.704-3.118 3.16-2.74-1.125-1.316-3.177 2.736-2.468-2.85-1.74 1.498 2.473 2.876-4.424 3.811-2.47-2.853-1.711 1.495 2.464 2.85-3.069 2.663L48.9 50.56l3.098-2.675 2.69 3.14zm15.72-5.128c-1.85.05-4.358.376-7.558.975l-.511 1.986c2.587-.52 5.137-.742 7.642-.651l.426-2.31zM54.978 59.138l2.161.2c1.297-2.468 2.047-5.126 2.26-7.967l-2.088.274c-.137 2.372-.902 4.865-2.333 7.493M93.335 31.45l-4.074 1.875-4.59-10.049 4.073-1.86 4.59 10.034zm-15.019-5.852a21.756 21.756 0 002.836-2.248l-1.431-.993c-1.711 1.597-4.243 3.241-7.54 4.917l1.101 1.256c1.624-.847 2.719-1.478 3.262-1.878l1.042 2.257-4.412 2.015.672 1.466 4.313-1.968c-.15 2.733-.88 5.19-2.22 7.42l1.831 1.119c1-1.969 1.586-3.878 1.79-5.75l3.309 7.253 1.854-.858-3.501-7.671c.876.187 2.102.604 3.694 1.22l.353-2.07c-1.197-.333-2.838-.727-4.99-1.206l-.17-.353 3.46-1.574-.67-1.466-3.452 1.568-1.13-2.456zm12.338 10.784l-.736-1.597 4.088-1.86.634 1.38 1.89-.866-6.588-14.394-7.815 3.569 6.655 14.618 1.872-.85zM120.506 13.54l1.848 13.407-15.497 2.202-1.898-13.407 15.547-2.201zm-15.36 18.152l2.032-.289-.108-.765 15.506-2.207.108.765 2.003-.28-2.418-17.145-19.547 2.763 2.424 17.158zm14.156-16.332c-.239-.251-.461-.502-.712-.765-.205-.234-.508-.432-.771-.605l-1.472.622c.485.342.952.839 1.41 1.495l1.545-.747zm-4.23 9.73l-.19-1.197c-2.681.952-5.23 1.658-7.66 2.12l.616 1.55c2.908-.803 5.247-1.527 6.97-2.19-.347.412-.82.885-1.471 1.405l1.591 1.071c.593-.557 1.232-1.363 1.933-2.394.908 1.124 1.773 1.624 2.634 1.51 1.028-.143 1.723-1.265 2.135-3.335l-1.665-.824c-.19 1.53-.4 2.316-.663 2.345-.186.03-.461-.143-.797-.502-.338-.37-.496-.593-.525-.666.808-1.664 1.465-3.399 1.903-5.189l-1.664-.59c-.196 1.256-.64 2.608-1.294 4.045-.61-1.101-1.095-2.55-1.422-4.322l4.696-.663-.22-1.472-4.721.675-.21-1.568-1.898.277.222 1.557-7.263 1.027.22 1.46 7.338-1.042c.52 2.304 1.226 4.27 2.163 5.878l-.759 1.034zm-7.284-.537l5.601-.798-.616-4.362-5.624.797.64 4.363zm3.724-1.928l-2.22.319-.245-1.641 2.243-.319.222 1.641zM137.987 29.554l-.645-1.63c3.253.24 5.557-.376 6.885-1.83l-5.709-.818.254-1.466 6.425.92.146-.981 2.056.307-.144.97 7.266 1.039-.21 1.466-6.24-.891c.37.695 1.1 1.387 2.148 2.07a11.791 11.791 0 003.624 1.563l-1.074 1.404c-3.323-.855-5.595-2.47-6.74-4.803-1.586 2.052-4.26 2.955-8.042 2.68m8.343-15.08c.44-.45.812-.975 1.051-1.556l2 .48c-.24.519-.534.986-.893 1.392l6.576.94-1.329 9.42-1.924-.283 1.13-7.928-10.294-1.466-1.176 8.098-1.916-.266 1.387-9.59 5.388.76zm1.585 7.535l-.25 1.626-1.618-.228.397-2.777c-.9 1.09-2.07 1.922-3.478 2.491l-.97-1.054c1.18-.4 2.167-.946 2.891-1.662l-2.348-.335.17-1.239 1.375.196a8.38 8.38 0 00-.549-1.04l1.49-.02c.25.374.473.809.633 1.282l.946.137.21-1.393a37.115 37.115 0 00-1.617-.157c-.441-.065-1.022-.132-1.633-.234l-.432-1.256c.403.062.862.143 1.396.222a47.91 47.91 0 006.827.473l.581 1.107c-1.498.03-2.61.012-3.472-.012l-.201 1.49 1.004.149c.377-.485.687-.891.874-1.22l1.425.51c-.09.184-.228.362-.377.526a1.571 1.571 0 00-.318.406l1.118.163-.166 1.244-3.753-.534c1.317.85 2.494 1.653 3.382 2.388l-1.014 1.049a43.644 43.644 0 00-2.523-2.298m-9.017-6.349a27.024 27.024 0 00-2.827-2.575l1.528-1.075c1.244.908 2.213 1.705 2.937 2.386l-1.638 1.264zm-1.22 4.906c-.985-.958-1.91-1.79-2.816-2.48l1.516-1.021c1.3.91 2.254 1.664 2.876 2.263l-1.577 1.238zm.788 2.692c-1.197 2.488-2.47 4.392-3.764 5.768l-1.437-1.574c1.37-1.44 2.555-3.218 3.598-5.318l1.603 1.124zM173.519 24.428l-4.153-1.912.754-1.6 4.135 1.915-.736 1.597zm3.232-2.117l-7.92-3.632-7.171 15.61 1.901.865 3.764-8.153 6.007 2.771 3.42-7.46zm-1.857 15.714l-.286 1.898 2.865 1.317c.79.356 1.39.458 1.778.28.377-.164.753-.628 1.083-1.396l6.133-13.354-8.09-3.705-3.41 7.443 6.229 2.85-2.687 5.75c-.16.383-.485.444-.97.216l-2.645-1.3zm6.912-6.045L177.473 30l.858-1.848 4.319 1.98-.844 1.848zm-2.178-6.681l4.339 1.974-.748 1.603-4.298-1.992.707-1.585zm-10.849-1.522l4.159 1.898-.85 1.843-4.135-1.904.826-1.837zM203.486 52.619l-5.78-5.023 1.073-1.25 5.802 5.035 1.253-1.46-5.972-5.19 1.051-1.22 3.58 3.098 1.34-1.548-3.197-2.765 1.066-1.22 3.189 2.776 1.372-1.603 1.592 1.352-1.39 1.61 3.466 3.022-1.043 1.226-3.486-3.034-1.361 1.545 4.027 3.504-1.069 1.215-1.597-1.422-1.276 1.46 1.67 1.46-1.09 1.238-1.658-1.46-2.853 3.262c-.558.668-1.095.992-1.545.987-.444 0-1.077-.354-1.836-1.014l-2.047-1.752.867-1.682 2.196 1.98c.353.324.666.324.934.015l2.722-3.142zm-6.36.25a23.38 23.38 0 00-.103-3.9l1.951.332c.205 1.516.3 2.827.257 3.928l-2.105-.36zm-3.177-11.657l-1.125-1.763c1.557-.73 3.256-2.114 5.146-4.144l1.287 1.317c-.318.348-.551.634-.78.856-.245.277-.49.528-.686.747l.95.82 2.508-2.902 1.568 1.378-2.52 2.9 1.586 1.367-1.119 1.29-1.585-1.357-2.46 2.818c.407.131.742.233 1 .359.376.146.671.25.884.312l-.884 1.54c-.544-.147-1.288-.404-2.252-.757l-4.301 4.938-1.563-1.37 3.794-4.38c-.383-.12-.88-.312-1.455-.575-.578-.234-1.135-.462-1.661-.657l.555-1.954c2.023.958 3.3 1.527 3.843 1.711l2.955-3.367-1.154-.987c-1.065.868-1.933 1.495-2.531 1.86M225.35 65.788l-2.406 1.545-3.314-5.136 2.415-1.56 3.305 5.151zm-9.546.976l2.155 3.364c-2.339 1.416-3.729 2.129-4.134 2.123-.193.017-.412-.073-.587-.275-.184-.187-.438-.502-.736-.958-.298-.49-.593-.998-.868-1.52l-1.232 1.59c.085.164.222.366.36.614.53.777 1.033 1.44 1.5 1.991.444.526.94.827 1.449.862.58.046 2.949-1.101 7.026-3.466l-3.274-5.09c.412-.17.861-.397 1.329-.707.195-.131.365-.234.52-.336l3.308 5.128 5.39-3.452-5.586-8.675-5.393 3.457 1.174 1.813c-2.041 1.198-3.712 1.928-5.105 2.19-1.38.258-2.879.299-4.5.109l-.508 2.105c3.116.318 5.677.024 7.712-.867m3.662 13.41c-.365.25-.706.148-.998-.305l-1.779-3.034-1.5 1.586 1.824 2.795c.911 1.448 2.088 1.705 3.467.826l12.763-8.2-1.133-1.778-12.644 8.11zm-.4-2.939l10.647-6.856-1.09-1.738-10.675 6.848 1.118 1.746zM236.342 104.936l-7.289 2.129c-.896.274-1.55.274-1.95 0-.365-.275-.73-1-1.084-2.19l-.925-3.087 1.685-1.02.744 3.006c.035.149.088.268.111.394.12.397.222.625.336.707.131.113.377.108.832-.024l6.941-2.035-2.28-7.768 1.653-.496 3.843 13.129-1.647.485-.97-3.23zm-13.105-9.09l-.593-2.004 7.665-2.245c-.537-.24-1.314-.684-2.266-1.37l1.387-1.603c2.447 1.74 4.62 2.938 6.565 3.612l-.497 1.88c-1.191-.443-2.167-.773-2.835-1.013l-9.426 2.742zm16.55-3.227c-2.169-1.189-4.044-2.47-5.658-3.852l1.226-1.75c1.545 1.595 3.136 2.79 4.883 3.599l-.45 2.003zm-1.14 2.131l1.646-.478 3.212 10.883-1.676.485-3.183-10.89zM241.904 135.776c-2.716-.269-4.848-.908-6.44-1.901.856-.558 1.96-1.101 3.269-1.606l1.956-.8s.24.137.672.411c.172.114.341.199.525.257l.018 3.639zm-4.176-6.834c.199.252.426.491.622.678.216.178.42.365.61.549-2.058.683-3.752 1.533-5.02 2.567-1.413-1.449-2.628-3.417-3.56-5.922l-1.664 1.41c.903 2.155 2.144 4.083 3.794 5.782-1.65 1.542-2.92 2.943-3.794 4.17l1.665 1.41c.794-1.273 1.586-2.31 2.333-3.086.771-.8 1.192-1.197 1.262-1.197 2.076 1.466 4.68 2.304 7.91 2.508v1.784h1.688V133c.36.146.742.283 1.113.397.324.114.809.28 1.358.49l.397-2.096c-3.113-.806-5.332-2.13-6.708-3.995v-1.857l4.138.005v3.657l1.612.011v-10.638h-1.612v4.883l-11.082-.018c-.088-.324-.245-.92-.43-1.752l9.12.012v-2.088h-9.546a6.195 6.195 0 01-.131-.666 39.45 39.45 0 01-.16-.736l-1.928.923c.94 3.75 1.927 6.97 2.932 9.651l1.737.006c-.245-.502-.408-1.037-.563-1.62-.155-.611-.336-1.151-.508-1.636l4.74.006v2.657l-.325.347zM234.512 164.942l1.939-6.69 1.533.458-1.968 6.679-1.504-.447zm1.077-9.137l-3.171 10.705 4.494 1.314 3.142-10.69-4.465-1.33zm-5.367-3.656l-2.041 6.935 4.888 1.422 2.03-6.924-4.877-1.433zm-2.465 8.386l-2.023 6.854 4.882 1.442 2.03-6.865-4.889-1.43zm-3.34 7.482l5.171-17.533 12.315 3.633-4.99 16.94 1.652.496 5.595-19.004-16.66-4.9-.616 2.055 1.022.307-5.145 17.52 1.656.486zm3.34-2.041l.958-3.195 1.901.558-.952 3.188-1.907-.551zm2.465-8.3l.952-3.25 1.907.552-.972 3.25-1.887-.552z"/><path id="XMLID_57_" class="st1" d="M75.597 214.67l3.507 1.758-1.077 15.039 11.368-9.896 3.478 1.728-7.353 14.738-2.348-1.168 4.34-8.705c.16-.295.417-.791.794-1.46.365-.677.75-1.425 1.144-2.23l-11.365 9.849-2.403-1.203 1.028-15.01-.234.444c-.178.37-.435.914-.782 1.67a55.84 55.84 0 01-.765 1.65l-4.369 8.696-2.336-1.156 7.373-14.744z"/><path class="st1" d="M101.256 235.723l4.733-6.366 1.399 7.768-6.132-1.402zm-7.134 5.297l2.715.622 3.233-4.333 7.677 1.772.929 5.291 2.914.663-3.405-17.681-3.016-.695-11.047 14.361z"/><path id="XMLID_54_" class="st1" d="M134.77 230.72c1.387 1.1 2.15 2.345 2.304 3.746l-2.622-.006c-.345-1.06-.897-1.91-1.8-2.526-.887-.622-2.12-.946-3.71-.952-1.957 0-3.543.564-4.74 1.682-1.192 1.163-1.814 2.903-1.814 5.254-.035 1.933.547 3.5 1.624 4.698 1.04 1.21 2.654 1.82 4.81 1.825 1.98 0 3.466-.616 4.5-1.869.546-.65.969-1.53 1.267-2.607l2.622.017c-.24 1.73-1.028 3.19-2.333 4.357-1.615 1.399-3.712 2.1-6.41 2.082-2.292 0-4.243-.587-5.802-1.772-2.08-1.536-3.078-3.92-3.078-7.114.035-2.435.826-4.433 2.383-5.983 1.682-1.682 3.98-2.514 6.935-2.491 2.532.018 4.465.563 5.864 1.659"/><path class="st1" d="M149.632 237.317l1.559-7.767 4.579 6.43-6.138 1.337zm-4.202 7.85l2.727-.587 1.06-5.306 7.727-1.677 3.086 4.38 2.915-.639-10.659-14.525-3.002.652-3.854 17.701z"/><path id="XMLID_51_" class="st1" d="M167.177 222.136l4.333 9.21c.508 1.072 1.165 1.843 2.01 2.345 1.232.742 2.73.684 4.5-.131 2.058-.981 3.214-2.231 3.422-3.759.12-.808-.103-1.766-.605-2.858l-4.319-9.199 2.506-1.168 3.922 8.384c.878 1.83 1.261 3.393 1.095 4.675-.266 2.304-1.934 4.193-4.997 5.636-3.078 1.442-5.571 1.524-7.534.251-1.06-.718-2.047-1.986-2.897-3.822l-3.939-8.39 2.503-1.174z"/><path id="XMLID_50_" class="st1" d="M129.038 223.208a94.959 94.959 0 0025.397-3.457h-50.81a94.877 94.877 0 0025.413 3.457"/><path id="XMLID_49_" class="st1" d="M87.717 213.695h82.625a93.037 93.037 0 005.578-2.967H82.128a101.086 101.086 0 005.589 2.967"/><path id="XMLID_47_" class="st1" d="M74.628 205.927h108.787a95.163 95.163 0 005.098-3.872H69.558a85.933 85.933 0 005.07 3.872"/><path id="XMLID_41_" class="st1" d="M65.16 198.244h127.733a86.943 86.943 0 005.169-5.157H59.988a88.763 88.763 0 005.172 5.157"/><path class="st1" d="M129.038 34.84c-52.02 0-94.198 42.168-94.198 94.187 0 18.832 5.54 36.359 15.065 51.08h42.727c20.41 0 33.24-10.84 36.406-14.184 3.16 3.344 16.01 14.183 36.393 14.183h42.725c9.508-14.72 15.068-32.247 15.068-51.079 0-52.02-42.176-94.186-94.186-94.186m70.466 122.812c1.898.552 3.358 1.09 6.027 1.22-9.006 13.188-45.432 30.595-76.493 1.604-31.07 28.991-67.517 11.584-76.511-1.603 2.657-.131 4.123-.669 6.062-1.22 3.274 3.226 15.655 16.676 44.778 13.5-33.883 1.877-48.74-22.553-52.031-32.534 8.777-4.334 37.626-10.898 62.286 8.772-11.003-10.527-24.885-17.833-44.28-18.517-1.37-2.876-2.991-4.176-3.955-5.347 29.698-.969 44.322 16.461 48.235 19.603-22.756-25.767-3.758-58.8-4.254-56.291.893 2.47 2.172 5.475 4.517 8.252-12.513 28.536 2.748 48.04 2.748 48.04-17.521-35.019 10.644-61.294 12.405-63.044 1.734 1.75 29.914 28.025 12.399 63.043 0 0 15.263-19.503 2.739-48.039 2.333-2.777 3.656-5.782 4.517-8.252-.502-2.509 18.517 30.524-4.249 56.291 3.89-3.142 18.534-20.572 48.238-19.603-.993 1.171-2.602 2.47-3.968 5.347-19.393.684-33.264 7.99-44.27 18.517 24.661-19.67 53.497-13.106 62.299-8.772-3.315 9.98-18.167 34.41-52.046 32.533 29.128 3.177 41.527-10.273 44.807-13.5"/><path id="XMLID_21_" class="st1" d="M129.038 173.218c-7.779 5.315-15.444 11.967-36.405 11.967H53.4a108.288 108.288 0 004.26 5.303h142.743c1.46-1.717 2.888-3.49 4.251-5.303h-39.223c-20.96 0-28.644-6.652-36.394-11.967"/><path d="M129.038 40.522l3.74 11.608h12.19l-9.868 7.169 3.782 11.599-9.844-7.164-9.896 7.164 3.793-11.6-9.896-7.168h12.2l3.8-11.608zm41.057 25.718l-7.014-4.882 2.8 8.074-6.82 5.14 8.526-.153 2.777 8.075 2.476-8.18 8.589-.146-7.009-4.882 2.488-8.18-6.813 5.134zm25.873 28.25l-3.577-7.742-1.647 8.39-8.466 1.045 7.467 4.135-1.647 8.384 6.238-5.817 7.484 4.13-3.589-7.737 6.229-5.816-8.492 1.028zM81.154 61.106l2.496 8.18-6.987 4.882 8.532.146 2.488 8.18 2.789-8.075 8.544.152-6.821-5.14 2.777-8.073-7 4.882-6.818-5.134zm-27.56 32.356l6.246 5.816-3.613 7.736 7.473-4.129 6.246 5.817-1.62-8.384 7.466-4.135-8.471-1.045-1.647-8.39-3.606 7.742-8.475-1.028z" fill="#ffde23"/></g></svg>