<svg xmlns="http://www.w3.org/2000/svg" width="452.137" height="537.25"><g><path fill="#1353B4" d="M1.877.987c-1.188 76.184-1.118 152.379 0 228.561 1.077 73.399 4.675 130.679 36.992 175.464 38.929 53.951 103.782 92.884 187.207 131.135 83.424-38.251 148.277-77.184 187.208-131.135 32.315-44.785 35.915-102.064 36.992-175.464 1.116-76.182 1.188-152.376 0-228.561H1.876z"/><path fill="#FFF" stroke="#999" d="M263.576 202.014V0h-75v202.014H1.536l.436 38.441.792 36.559h185.812V518.9l18.036 9.188 19.464 8.162 17.233-7.528 20.267-9.822V277.014h186l.994-39.41v-35.59z"/><path fill="none" stroke="#540" stroke-width="2" d="M1.877.987c-1.188 76.184-1.118 152.379 0 228.561 1.077 73.399 4.675 130.679 36.992 175.464 38.929 53.951 103.782 92.884 187.207 131.135 83.424-38.251 148.277-77.184 187.208-131.135 32.315-44.785 35.915-102.064 36.992-175.464 1.116-76.182 1.188-152.376 0-228.561H1.876h0z"/></g><g stroke="#999"><path fill="#FFF" d="M73.539 29.36c-4.777 2.313-8.56 5.68-8.56 7.362 0 1.893.159 2.937.515 3.453 1.257.732 1.654 1.445 1.396.853-.204-.024 2.097 2.341 3.883 3.267 11.078 2.763 29.84.21 38.2-1.052 6.968-1.052 9.556-.63 11.547 1.893 3.98 4.838-.2 9.046-11.546 11.571-13.935 3.155-19.708 5.89-25.083 11.991-12.94 14.726 2.19 31.346 30.458 33.66 16.523 1.473 27.272 4.84 24.685 7.574-.995 1.051-11.944 2.735-24.485 3.786-27.273 2.314-39.417 6.312-49.768 16.83-5.773 5.89-7.764 9.467-7.764 14.305 0 6.732 0 6.732-10.55 6.732-5.574 0-13.338-.842-16.921-2.104-5.574-1.473-6.37-1.473-4.38 1.052 3.982 5.05 15.329 9.467 24.685 9.467 7.167 0 11.148 1.473 17.519 6.311 12.74 9.888 27.272 13.674 51.36 13.464 31.65-.21 49.767-9.046 49.767-23.982 0-11.15-11.944-17.67-36.828-19.985-12.541-1.262-37.227.841-47.976 4.208-1.991.631.199-.842 4.977-3.366 5.772-2.946 15.328-5.049 28.268-6.312 28.667-2.524 41.606-9.256 41.606-21.878 0-12.202-12.741-19.144-40.013-21.879-26.874-2.524-28.865-7.573-6.171-14.936 16.125-5.049 23.796-16.084 24.287-22.93.084-1.184-.944-12.18-25.92-18.246-12.588-7.076-30.022-4.686-37.188-1.11h0zm71.864 122.225c3.783 1.473 5.176 2.945 3.98 4.208-3.383 3.577-25.281 6.732-38.62 5.68-14.73-1.473-30.655-6.522-25.878-8.625 13.339-5.47 48.375-6.1 60.518-1.263h0z"/><path fill="#1353B4" d="M-505.47 203.235c-.096.797-1.995 1.328-4.243 1.186-2.248-.143-3.992-.904-3.896-1.701.096-.797 1.995-1.328 4.243-1.186 2.247.142 3.992.903 3.896 1.701z" transform="matrix(1.11922 0 0 1.18108 653.493 -207.582)"/><path fill="#FFF" d="M-510.242 201.419c2.255-1.671 5.646-.452 9.775 2.156" transform="matrix(1.11922 0 0 1.18108 653.493 -207.582)"/><path fill="#FFF" d="M65.195 38.806c-6.656 2.376-13.363 2.354-17.345 1.37-2.58-1.13-2.87-.775-5.495-2.12l3.72 3.714c-1.497.882-1.035 1.61-3.681 3.187 2.208-.583 4.547-1.017 6.374-2.035 6.832-.357 13.844-1.023 17.968-2.113"/></g><g stroke="#999"><path fill="#FFF" d="M336.539 29.36c-4.777 2.313-8.561 5.68-8.561 7.362 0 1.893.16 2.937.516 3.453 1.257.732 1.653 1.445 1.395.853-.203-.024 2.098 2.341 3.884 3.267 11.077 2.763 29.84.21 38.2-1.052 6.969-1.052 9.557-.63 11.547 1.893 3.98 4.838-.2 9.046-11.546 11.571-13.935 3.155-19.708 5.89-25.083 11.991-12.94 14.726 2.189 31.346 30.457 33.66 16.523 1.473 27.273 4.84 24.686 7.574-.995 1.051-11.944 2.735-24.485 3.786-27.273 2.314-39.417 6.312-49.768 16.83-5.773 5.89-7.765 9.467-7.765 14.305 0 6.732 0 6.732-10.55 6.732-5.574 0-13.338-.842-16.921-2.104-5.574-1.473-6.37-1.473-4.38 1.052 3.98 5.05 15.328 9.467 24.685 9.467 7.166 0 11.148 1.473 17.519 6.311 12.74 9.888 27.272 13.674 51.36 13.464 31.65-.21 49.768-9.046 49.768-23.982 0-11.15-11.945-17.67-36.828-19.985-12.541-1.262-37.227.841-47.977 4.208-1.99.631.199-.842 4.977-3.366 5.773-2.946 15.328-5.049 28.268-6.312 28.667-2.524 41.606-9.256 41.606-21.878 0-12.202-12.741-19.144-40.013-21.879-26.875-2.524-28.865-7.573-6.172-14.936 16.125-5.049 23.797-16.084 24.287-22.93.084-1.184-.944-12.18-25.92-18.246-12.586-7.076-30.02-4.686-37.186-1.11h0zm71.864 122.225c3.782 1.473 5.176 2.945 3.98 4.208-3.384 3.577-25.28 6.732-38.618 5.68-14.732-1.473-30.656-6.522-25.88-8.625 13.339-5.47 48.375-6.1 60.518-1.263h0z"/><path fill="#1353B4" d="M-270.486 203.235c-.096.797-1.995 1.328-4.242 1.186-2.248-.143-3.992-.904-3.896-1.701.095-.797 1.995-1.328 4.243-1.186 2.247.142 3.991.903 3.895 1.701z" transform="matrix(1.11922 0 0 1.18108 653.493 -207.582)"/><path fill="#FFF" d="M-275.257 201.419c2.255-1.671 5.645-.452 9.775 2.156" transform="matrix(1.11922 0 0 1.18108 653.493 -207.582)"/><path fill="#FFF" d="M328.195 38.806c-6.656 2.376-13.363 2.354-17.345 1.37-2.58-1.13-2.87-.775-5.495-2.12l3.72 3.714c-1.496.882-1.034 1.61-3.68 3.187 2.208-.583 4.547-1.017 6.374-2.035 6.832-.357 13.844-1.023 17.969-2.113"/></g><g stroke="#999"><path fill="#FFF" d="M87.09 295.25c-4.014 1.945-7.192 4.773-7.192 6.188 0 1.59.134 2.468.432 2.901 1.057.615 1.39 1.215 1.173.718-.171-.02 1.762 1.967 3.264 2.745 9.309 2.321 25.076.176 32.103-.885 5.855-.884 8.03-.529 9.703 1.591 3.346 4.066-.167 7.603-9.703 9.725-11.71 2.651-16.562 4.95-21.08 10.076-10.873 12.375 1.84 26.342 25.596 28.286 13.885 1.237 22.918 4.066 20.744 6.364-.836.884-10.038 2.3-20.577 3.183-22.92 1.945-33.124 5.303-41.822 14.144-4.852 4.95-6.525 7.955-6.525 12.021 0 5.658 0 5.658-8.866 5.658-4.684 0-11.208-.708-14.22-1.769-4.684-1.238-5.353-1.238-3.68.884 3.346 4.242 12.88 7.955 20.744 7.955 6.022 0 9.368 1.237 14.722 5.304 10.707 8.31 22.918 11.492 43.16 11.314 26.599-.177 41.823-7.602 41.823-20.153 0-9.37-10.037-14.85-30.95-16.795-10.538-1.062-31.283.706-40.316 3.536-1.673.53.167-.707 4.183-2.829 4.85-2.476 12.88-4.243 23.755-5.304 24.09-2.12 34.964-7.778 34.964-18.386 0-10.254-10.707-16.088-33.625-18.387-22.584-2.12-24.257-6.363-5.186-12.55 13.55-4.244 19.997-13.518 20.409-19.272.07-.992-.793-10.233-21.782-15.33-10.577-5.947-25.228-3.938-31.25-.933h0zm60.393 102.715c3.179 1.237 4.35 2.475 3.346 3.535-2.844 3.005-21.246 5.657-32.455 4.772-12.38-1.237-25.762-5.48-21.748-7.248 11.209-4.596 40.652-5.126 50.857-1.059h0z"/><path fill="#1353B4" d="M-495.39 427.94c-.08.67-1.677 1.117-3.565.997-1.889-.12-3.354-.759-3.274-1.429.08-.671 1.676-1.117 3.565-.997 1.889.119 3.354.759 3.274 1.429z" transform="matrix(1.11922 0 0 1.18108 653.493 -207.582)"/><path fill="#FFF" d="M-499.4 426.415c1.895-1.405 4.744-.38 8.215 1.812" transform="matrix(1.11922 0 0 1.18108 653.493 -207.582)"/><path fill="#FFF" d="M80.079 303.188c-5.593 1.997-11.23 1.98-14.576 1.151-2.168-.95-2.412-.65-4.618-1.782l3.126 3.122c-1.258.741-.87 1.353-3.093 2.678 1.855-.489 3.82-.854 5.356-1.71 5.742-.3 11.634-.86 15.1-1.775"/></g><g stroke="#999"><path fill="#FFF" d="M317.266 296.931c-4.015 1.945-7.194 4.773-7.194 6.188 0 1.59.135 2.468.434 2.901 1.056.615 1.39 1.215 1.172.718-.171-.02 1.763 1.967 3.264 2.745 9.309 2.321 25.076.176 32.103-.884 5.855-.885 8.03-.53 9.703 1.59 3.346 4.066-.168 7.603-9.703 9.725-11.71 2.651-16.562 4.95-21.078 10.076-10.874 12.375 1.84 26.342 25.595 28.286 13.886 1.237 22.919 4.066 20.744 6.364-.836.884-10.037 2.3-20.576 3.183-22.92 1.945-33.124 5.303-41.822 14.144-4.853 4.95-6.525 7.955-6.525 12.021 0 5.658 0 5.658-8.866 5.658-4.684 0-11.208-.708-14.22-1.768-4.684-1.239-5.353-1.239-3.68.883 3.346 4.242 12.88 7.955 20.743 7.955 6.022 0 9.369 1.237 14.723 5.304 10.707 8.31 22.918 11.492 43.16 11.314 26.599-.177 41.823-7.602 41.823-20.153 0-9.37-10.038-14.85-30.95-16.795-10.538-1.062-31.282.707-40.316 3.536-1.673.53.168-.707 4.183-2.829 4.852-2.476 12.88-4.243 23.755-5.304 24.09-2.12 34.964-7.778 34.964-18.386 0-10.254-10.707-16.088-33.625-18.387-22.585-2.12-24.257-6.363-5.187-12.55 13.55-4.244 19.998-13.518 20.41-19.272.07-.993-.794-10.234-21.782-15.332-10.581-5.944-25.231-3.936-31.252-.93h0zm60.39 102.714c3.18 1.237 4.35 2.475 3.347 3.535-2.845 3.005-21.245 5.657-32.454 4.772-12.38-1.237-25.762-5.479-21.748-7.248 11.209-4.595 40.65-5.125 50.856-1.059h0z"/><path fill="#1353B4" d="M-289.735 429.363c-.08.67-1.676 1.117-3.565.997s-3.354-.759-3.274-1.429c.08-.671 1.677-1.117 3.566-.997 1.888.119 3.354.759 3.273 1.429z" transform="matrix(1.11922 0 0 1.18108 653.493 -207.582)"/><path fill="#FFF" d="M-293.744 427.838c1.894-1.405 4.744-.38 8.215 1.812" transform="matrix(1.11922 0 0 1.18108 653.493 -207.582)"/><path fill="#FFF" d="M310.254 304.87c-5.594 1.996-11.23 1.978-14.576 1.15-2.168-.95-2.412-.65-4.618-1.782l3.127 3.122c-1.258.741-.87 1.353-3.093 2.68 1.855-.49 3.82-.856 5.356-1.712 5.74-.3 11.634-.859 15.1-1.775"/></g></svg>