<svg xmlns="http://www.w3.org/2000/svg" width="800" height="800"><path d="M400 123.864c152.505 0 276.134 123.631 276.134 276.136 0 152.506-123.63 276.135-276.134 276.135-152.506 0-276.135-123.63-276.135-276.135S247.495 123.864 400 123.864" fill="#26ab4d" fill-rule="evenodd"/><path d="M400 146.647l31.284 96.914 101.838-.196-82.503 59.7 31.654 96.794L400 339.842l-82.274 60.017 31.656-96.794-82.504-59.7 101.838.196zm151.96 74.29c57.834 45.732 95.018 116.956 95.018 196.977 0 138.006-110.576 249.88-246.978 249.88-136.403 0-246.98-111.874-246.98-249.88 0-80.02 37.185-151.245 95.02-196.977h.001c4.688-3.465 8.939-5.054 9.755-3.858.78 1.146-1.079 2.728-4.824 6.642-37.5 37.521-60.69 89.306-60.69 146.507 0 114.559 92.999 207.429 207.718 207.429 114.72 0 207.717-92.87 207.717-207.43 0-57.2-23.19-108.985-60.689-146.506-3.745-3.914-5.602-5.496-4.824-6.642.816-1.196 5.067.393 9.756 3.858zm-4.932 2.784" fill="#fad606" fill-rule="evenodd"/><path d="M400 118.63c155.396 0 281.369 125.974 281.369 281.37 0 155.396-125.973 281.37-281.37 281.37-155.395 0-281.37-125.974-281.37-281.37 0-155.396 125.975-281.37 281.37-281.37zm0 9.2c150.315 0 272.17 121.855 272.17 272.17S550.315 672.17 400 672.17c-150.316 0-272.17-121.855-272.17-272.17S249.684 127.83 400 127.83" fill="#fad606" fill-rule="evenodd"/><path d="M400 0c220.913 0 400 179.086 400 400S620.913 800 400 800C179.086 800 0 620.914 0 400S179.086 0 400 0zm0 13.077C613.69 13.077 786.92 186.308 786.92 400c0 213.69-173.231 386.922-386.921 386.922S13.077 613.691 13.077 400C13.077 186.308 186.31 13.077 400 13.077" fill="#fad606" fill-rule="evenodd"/><path d="M118.63 400c0-155.396 125.974-281.37 281.37-281.37 155.396 0 281.369 125.974 281.369 281.37 0 155.396-125.973 281.37-281.37 281.37-155.395 0-281.37-125.974-281.37-281.37zm668.291 0C786.921 186.308 613.69 13.077 400 13.077S13.077 186.308 13.077 400c0 213.69 173.232 386.922 386.923 386.922 213.69 0 386.921-173.231 386.921-386.922" fill="#d01e25" fill-rule="evenodd"/><path d="M536.868 76.607l12.646-5 4.057 2.297c-3.894 7.134-6.74 14.317-6.97 22.282-2.98-1.508-4.625-3.37-5.801-5.124-5.605 13.48-17.106 24.087-28.119 26.913l.85-4.325c9.948-8.936 18.303-23.383 23.337-37.043M214.407 104.659l.553-13.587 3.746-2.78c4.943 6.452 10.358 11.964 17.546 15.402-2.587 2.112-4.956 2.864-7.035 3.227 10.051 10.587 15.088 25.4 13.209 36.614l-3.61-2.532c-4.139-12.714-13.96-26.208-24.409-36.344M171.26 164.467c.599.76-8.304 10.39-6.312-1.001.27-1.539 2.83-3.41 6.312 1.001zm19.075-11.447c-.683-.565-.984-2.104-.494-5.24.201-1.282 2.246-2.347 4.63-.8 4.429 2.873-3.208 6.807-4.136 6.04zm3.62-42.21c-3.885-4.43-.748-13.545 1.578-13.184 5.45.846 10.493 8.757 15.278 12.89.657.569-1.912.407-6.502-.496-.124-.025 4.835 5.274 8.561 12.835 1.881 3.812 5.073 8.35 5.281 12.408.325 6.349-4.14 11.794-13.063 13.52l-1.357.283c.668 5.08-.376 8.668-3.25 10.547-6.052 3.956-11.29-1.336-15.552 1.288-.36.99-.427 3.488-1.831 6.693l-5.94 5.706c-2 3.44-5.947 7.19-11.35 4.963-12.826-9.735-10.654-22.202-7.481-24.192 5.04-3.161 10.778-2.84 18.91 3.42 1.148-1.499 2.326-3.12 2.762-3.805 2.452-4.302 2.563-7.892 2.766-10.582.73-9.753 8.616-4.07 14.665-4.319 4.22-.173 10.56-1.71 12.058-6.109.293-.863.242-1.687-.292-2.427-4.003-5.539-5.97-8.861-15.24-19.438M148.213 188.449c-.766-.916-3.23-2.269-3.94-1.708-5.702 4.517-7.072 3.332-8.08-2.505-.134-.773-1.839-7.879-1.904-12.115-.091-5.967 1.613-7.633 5.71-4.93 9.036 5.955 22.382 17.853 23.268 30.385.586 8.283-4.317 16.016-10.663 23.577-1.164-.74-1.61-1.444-1.344-2.247 4.061-12.283 4.379-19.65-3.047-30.457M130.577 215.443c-.66-.997-3.167-2.841-3.728-2.131-4.01 5.073-5.378 2.354-7.756-3.38-.3-.724-1.603-5.144-1.75-9.377-.161-4.647 3.716-7.4 7.49-4.265 8.323 6.912 16.1 13.197 16.174 25.756.055 9.5-8.389 16.607-17.756 17.957.07 2.118.049 4.018-.076 5.727l.06.027c-.767 21.796-12.999 30.775-33.742 18.104-2.769-1.692-4.86-2.023-8.122-2.7-1.67-.345-3.586-.429-6.78-.326-1.723.38-3.208-1.158-3.41-1.843-1.007-3.396-7.153-9.8 2.485-8.778 3.513.374 6.651 1.037 10.682 2.928 4.421 2.073 6.36 2.88 10.388 5.288 17.196 6.131 20.22-14.964 18.216-24.525-1.03-4.923.04-8.326 3.86-6.182 1.287.72 2.444 1.226 3.45 1.16 6.713-.443 12.905-7.357 10.315-13.44M130.763 260.976l-2.422-6.247a1.517 1.517 0 01.863-1.957l6.248-2.422c.15-.059.306-.092.46-.1l-2.03-5.24c-.301-.775.087-1.656.863-1.957l6.247-2.421a1.517 1.517 0 011.957.863l2.422 6.247c.3.775-.09 1.657-.864 1.957l-6.248 2.422c-.151.059-.306.09-.46.098l2.032 5.243c.3.775-.09 1.656-.865 1.955l-6.246 2.42a1.515 1.515 0 01-1.957-.861" fill="#fad606" fill-rule="evenodd"/><path d="M92.203 235.592l-2.91-6.035A1.516 1.516 0 0190 227.54l6.036-2.91c.146-.072.297-.116.452-.135l-2.44-5.065a1.516 1.516 0 01.704-2.019l6.037-2.908a1.517 1.517 0 012.018.705l2.91 6.036c.361.748.042 1.659-.705 2.018l-6.037 2.91c-.146.07-.298.115-.451.135l2.441 5.064c.36.75.042 1.659-.707 2.02l-6.035 2.907a1.515 1.515 0 01-2.019-.705M103.056 330.89l-4.458-5.001a1.516 1.516 0 01.123-2.134l5.002-4.46a1.47 1.47 0 01.397-.254l-3.74-4.196a1.517 1.517 0 01.123-2.136l5.003-4.458a1.52 1.52 0 012.135.123l4.457 5.004c.554.619.498 1.58-.122 2.134l-5.003 4.458a1.492 1.492 0 01-.397.253l3.74 4.199c.554.62.498 1.581-.124 2.136l-5.002 4.456a1.516 1.516 0 01-2.134-.123M46.48 364.063l-4.95-4.515a1.517 1.517 0 01-.098-2.137l4.516-4.951c.109-.12.233-.217.369-.293l-4.152-3.789a1.518 1.518 0 01-.099-2.137l4.517-4.95a1.517 1.517 0 012.136-.096l4.95 4.515c.614.56.658 1.523.098 2.136l-4.517 4.951a1.48 1.48 0 01-.368.293l4.153 3.79c.614.56.657 1.522.097 2.137l-4.516 4.948a1.516 1.516 0 01-2.137.098M342.666 83.635c-.361-.808.05-2.323 1.88-4.915.749-1.061 3.052-1.109 4.505 1.334 2.696 4.538-5.894 4.679-6.385 3.58zm-2.39-12.245c4.977-8.416 9.526.17 15.058 2.63.929.412 1.938.774 3.006 1.07-.778 6.244-1.683 18.011-9.5 18.952-7.178.864-9.53-6.2-14.514-5.738-5.04 4.815-7.798 9.051-18.338 3.39-5.813 9.934-23.29 18.954-35.323 7.038-6.058 11.03-17.209 16.154-21.089 4.685-4.143-12.255 13.103-19.457 15.276-19.605-.286-3.099 1.06-5.852 2.573-6.747 2.643-1.566 6.155.426 6.152 1.11-.049 7.207 2.109 11.354 5.038 13.404 4.617 3.23 15.35.562 18.203-2.827 1.833-1.525 2.352-4.37 4.504-8.081 2.525-4.351 4.978-6.675 6.78-2.683.604 1.347 1.235 2.439 2.084 2.984 7.908 5.065 16.243-3.077 20.09-9.582zm-63.944 22.323c-4.16 6.765-10.097 7.966-9.275 4.076 1.22-3.178 6.36-6.919 8.25-6.635l1.025 2.559M86.05 286.656c-1-.654-4.031-1.36-4.267-.486-1.684 6.244-4.013 4.286-8.46-.046-.562-.547-3.502-4.094-5.308-7.926-1.982-4.207.495-8.267 5.2-6.875 10.375 3.07 20 5.775 25.024 17.288 3.743 8.578-.124 20.028-8.362 24.792 1.017 1.858 1.853 3.565 2.513 5.147l.065-.003c.432 1.046.806 2.16 1.114 3.346l.003.01.001.006c.113.403.212.799.296 1.186l-.016-.005c.044.206.087.413.127.622 1.741 9.045-4.507 18.052-12.47 20.335 7.117 10.379 6.667 22.643-5.32 20.938-12.807-1.822-11.467-20.463-10.618-22.47-2.895-1.14-4.748-3.585-4.865-5.338-.206-3.064 3.155-5.302 3.764-4.99 6.411 3.29 11.084 3.232 14.235 1.54 4.965-2.667 6.153-9.392 4.413-13.464-.536-2.324-2.841-4.068-5.184-7.663-2.747-4.215-3.718-7.45.658-7.258 1.477.063 2.664-.15 3.604-.52 6.118-2.4 9.358-12.904 3.853-18.166zm-10.972 58.999c4.164 6.762 2.561 12.603-.54 10.117-2.29-2.522-3.312-8.796-2.207-10.355l2.747.238M469.358 103.767c.144-1.372.575-2.084 1.415-2.202 2.32-.331 4.438-.7 6.393-1.152 4.824-1.404 11.153-3.486 17.09-6.694.982-7.874-.464-16.634-4.48-24.395l-3.326 2.459c-.314.234-6.83-7.442-7.18-10.745.266-6.72 11.617-12.859 14.292-8.456 4.723 7.776 9.83 25.023 6.993 37.113 7.564-5.754 12.97-14.056 10.964-26.153-.965-5.812 9.7-9.483 10.961-7.495 2.952 4.66.32 13.663.36 19.985.006.87-1.567-1.17-3.908-5.22-.064-.108-.785 7.113-4.018 14.897-3.514 8.452-11.187 17.172-20.38 19.975-6.867 2.091-18.314-.258-25.176-1.917" fill="#fad606" fill-rule="evenodd"/><path d="M397.203 81.022c3.424 10.504 17.04 13.78 30.448 5.167 3.175 9.057 14.675 7.471 21.176 3.544 15.914 12.76 31.655-4.523 25.416-21.241l-7.897 5.189c2.385 13.988-15.212 11.339-8.788-.28.612-1.999-5.854-1.609-6.816.875l-1.975 2.825c-5.073 7.258-13.291 5.198-12.84-2.039.106-1.689.978-3.664 1.626-5.223.546-2.001-5.247-1.612-6.11.874-7.159 11.425-30.406 14.08-28.408-6.9.301-3.15.407-6.822.704-10.93.321-4.442.367-8.842-.544-12.26-2.494-9.369-6.274-1.335-9.084.823-.57.437-1.47 2.373-.5 3.847 1.241 2.943 1.851 4.757 2.125 6.445 1.428 8.786-1.522 17.654-7.334 24.24.41-12.412-7.983-28.32-14.138-35.018-3.487-3.795-13.413 4.453-12.356 11.095.992 3.17 8.886 9.417 9.15 9.127l2.776-3.064c5.462 6.822 8.599 15.127 9.18 23.042-5.192 4.31-10.99 7.594-15.445 9.918-1.829.825-3.835 1.603-6.043 2.381-.799.282-1.084 1.065-.955 2.439 7.053.28 18.739.339 25.064-3.061 4.786-2.573 8.726-6.91 11.568-11.815M752.412 344.48l12.234 5.942 1.049 4.544c-7.89 1.95-15.108 4.71-21.134 9.924-.9-3.216-.643-5.688-.144-7.74-13.723 4.98-29.315 3.673-38.841-2.533l3.764-2.297c13.309 1.293 29.603-2.315 43.072-7.839M688.861 230.27c2.267-1.134 17.566-2.45 15.47 1.602-3.487 6.74-13.179-.98-15.47-1.602zm9.498 41.698c.754-.488 2.315-.291 5.103 1.215 1.138.615 1.456 3.007-.798 4.878-4.189 3.475-5.331-5.426-4.305-6.093zm-21.567-62.32c-.913.368-7.206-11.525 2.961-6.02 1.372.743 2.33 3.888-2.961 6.02zm-10.255 3.193c-2.624-3.064-4.923-8.178-1.09-12.909 13.317-9.86 24.447-3.843 25.323-.047 1.393 6.031-.744 11.689-9.288 17.92-.685 4.094 1.33 5.106 2.278 6.782 12.502-4.4 24.306-4.057 28.093.935 3.519 4.642 1.305 13.323-14.935 17.917-.088 8.93.087 12.497 4.28 18.006 3.232 3.847 6.583 5.13 9.047 6.206 8.942 3.902.94 9.92-.85 16.028-2.194 7.48.52 23.846 10.39 31.281 5.329-7.061 2.784-14.693-5.377-22.732l4.92-8.065c8.758 4.784 12.516 8.986 15.206 16.112 3.547 9.406-3.55 29.885 11.547 22.86.481-3.709 2.081-5.507 5.657-7.075l10.373 4.582-1.168 4.767c-5.5 1.583-9.647 5.379-13.354 9.897 0 0-2.148-2.812-1.936-6.415-16.712 4.745-11.439-8.007-19.844-10.588-1.375 5.24-1.063 11.225.442 17.737l-12.61 5.648c3.687-34.409-19.13-21.09-12.208-54.58-7.313-.52-11.697-2.885-12.689-7.17-1.695-7.322 5.045-10.823 4-15.926-2.19-1.841-5.073-2.464-5.377-10.734-12.237 6.7-23.898-3.107-12.446-24.659-3.684-2.38-3.42-4.784-4.867-8.064-24.814 4.907-30.9-9.588-33.748-27.312 1.32-.463 2.144-.363 2.584.387 7.166 12.193 12.518 18.864 27.647 19.211zm12.917 23.294c22.484 4.223-2.507 23.353 0 0M639.063 176.39c1.079-.516 2.997-2.57 2.63-3.395-2.968-6.643-1.48-7.676 4.425-7.211.782.061 8.09.168 12.21 1.153 5.804 1.386 6.997 3.447 3.365 6.75-8.004 7.284-22.835 17.273-35.195 15.033-8.17-1.48-14.451-8.142-20.208-16.16 1.004-.946 1.796-1.204 2.51-.748 10.898 6.973 17.957 9.102 30.263 4.579M617.526 150.443c1.136-.37 3.588-2.285 3.056-3.017-3.806-5.23-.82-5.814 5.344-6.56.778-.094 5.385-.158 9.5.84 4.52 1.099 6.127 5.574 2.092 8.364-8.9 6.154-17.085 12.078-29.162 8.636-23.6-6.723-29.56-16.603-31.593-21.466-1.295-3.1-1.756-6.49-1.184-9.664-12.454 1.805-23.26-4.015-16.44-14.016 7.286-10.687 23.422-1.258 24.848.39 2.304-2.095 5.314-2.677 6.938-2.011 2.84 1.167 3.363 5.173 2.817 5.58-7.862 5.848-8.75 11.548-6.773 15.678 1.994 4.17 9.472 13.697 30.557 17.246zm-40.551-29.348c-7.906.75-12.44-3.266-8.84-4.951 3.273-.942 9.355.91 10.266 2.59l-1.426 2.36" fill="#fad606" fill-rule="evenodd"/><path d="M693.614 315.225l7.098 1.44a1.628 1.628 0 011.27 1.925l-1.595 7.662a1.653 1.653 0 01-1.937 1.277l-7.1-1.44a1.63 1.63 0 01-1.269-1.927l1.596-7.662a1.651 1.651 0 011.937-1.275M50.865 282.18l5.47-4.75a1.63 1.63 0 012.3.169l5.1 5.936a1.65 1.65 0 01-.17 2.313l-5.47 4.749a1.628 1.628 0 01-2.3-.168l-5.1-5.937a1.649 1.649 0 01.17-2.311M574.571 88.632l6.5-3.253a1.643 1.643 0 012.2.732l3.254 6.497c.078.157.128.322.154.487l5.451-2.73a1.646 1.646 0 012.201.732l3.254 6.499a1.645 1.645 0 01-.733 2.2l-6.498 3.253a1.645 1.645 0 01-2.2-.732L584.9 95.82a1.623 1.623 0 01-.155-.488l-5.452 2.731a1.647 1.647 0 01-2.2-.733l-3.255-6.498a1.646 1.646 0 01.732-2.2M578.58 156.691l5.893-3.19a1.516 1.516 0 012.049.61l3.19 5.893c.078.143.13.291.158.444l4.943-2.676a1.518 1.518 0 012.05.61l3.19 5.892c.395.732.12 1.654-.61 2.05l-5.893 3.19a1.518 1.518 0 01-2.05-.61l-3.19-5.893a1.458 1.458 0 01-.156-.444l-4.945 2.676c-.73.396-1.654.12-2.048-.61l-3.191-5.892a1.517 1.517 0 01.61-2.05M307.62 110.415l2.948-6.018a1.517 1.517 0 012.023-.692l6.017 2.95c.146.071.274.163.385.271l2.475-5.048a1.516 1.516 0 012.023-.692l6.017 2.948a1.518 1.518 0 01.693 2.025l-2.95 6.016a1.517 1.517 0 01-2.024.692l-6.017-2.95a1.525 1.525 0 01-.385-.27l-2.474 5.047a1.516 1.516 0 01-2.024.692l-6.017-2.948a1.517 1.517 0 01-.69-2.023M253.746 74.41l2.056-6.378a1.518 1.518 0 011.905-.976l6.377 2.059a1.5 1.5 0 01.42.213l1.725-5.351a1.516 1.516 0 011.904-.973l6.377 2.056a1.517 1.517 0 01.974 1.905l-2.058 6.376a1.517 1.517 0 01-1.902.975l-6.377-2.058a1.475 1.475 0 01-.42-.212L263 77.394a1.517 1.517 0 01-1.903.976l-6.377-2.058a1.514 1.514 0 01-.974-1.903M169.348 203.98c14.414-9.325 24.813-20.425 11.435-41.48l-5.352 6.55c5.038 13.82 1.19 21.265-6.71 32.387-.49.69-.27 1.493.627 2.543M450.004 54.49c12.683.004-6.569 3.713-6.006 7.74.119.851.782 1.126 1.712 1.051 5.183-.413 14.674-4.793 21.601-13.738-.136-1.1-1.144-1.592-2.424-1.766-.855-.116-9.038-1.857-14.652 0-1.3.43-2.531 1.383-4.753 5.282-3.781 6.637 2.165 1.43 4.522 1.43M287.936 56.39c-.37.42-2.001 4.659 1.068 4.785 3.609 1.306 32.028-8.938 39.303-18.658 4.438-5.93.18-2.6-4.11.11-6.211 3.928-24.98 11.715-36.261 13.762M738.674 280.256c-.513-.222-6.396-.02-5.574 2.937 4.371 7.198 8.92 13.552 16.97 15.686 7.158 1.898 2.529-.63-1.367-3.875-5.648-4.704-7.339-6.763-10.029-14.748M324.776 53.986c-.54-.358-1.122-.254-1.409.328-1.527 3.102-2.213 6.065-3.612 6.774-.6.305-2.147 1.629-3.134.935-.294-.207-.803-1.451-1.354-2.267-1.426-2.109-2.884 1.149-3.235 2.45-.472 1.74-1.656 2.927-2.583 3.385-3.54 1.746-4.802-.052-4.74-3.032.046-2.242-2.803-2.513-3.021 4.261-.067 2.085-.084 5.081 2.104 6.007 4.876 2.06 8.008-2.553 8.9-4.852.154-.394.829-.137 1.317.088 3.226 1.489 5.539.587 7.18-1.333 3.761-4.403 3.99-14.167 3.587-12.744M631.613 123.807c-.17-.626-.675-.93-1.275-.683-3.194 1.321-5.666 3.094-7.185 2.703-.653-.166-2.687-.192-2.97-1.366-.085-.35.354-1.619.478-2.596.322-2.526-2.923-1.041-4.048-.297-1.502.995-3.175 1.106-4.173.837-3.814-1.027-3.573-3.21-1.56-5.407 1.516-1.653-.446-3.738-5.083 1.207-1.424 1.52-3.418 3.761-2.383 5.9 2.302 4.767 7.698 3.37 9.888 2.232.375-.195.714.444.931.935 1.439 3.25 3.771 4.098 6.273 3.74 5.732-.825 12.348-8.007 11.107-7.205M53.746 297.682c-.567.316-.74.88-.354 1.402 2.059 2.779 4.38 4.745 4.37 6.312-.004.675.466 2.653-.603 3.214-.32.168-1.658.051-2.636.167-2.528.302-.298 3.09.697 3.998 1.331 1.216 1.846 2.811 1.827 3.846-.068 3.948-2.244 4.246-4.866 2.826-1.972-1.068-3.517 1.342 2.408 4.637 1.822 1.014 4.478 2.4 6.302.878 4.064-3.392 1.397-8.287-.24-10.133-.28-.317.258-.802.68-1.131 2.803-2.187 3.06-4.655 2.103-6.994-2.194-5.36-10.77-10.03-9.688-9.022M491.203 117.443c.428.957 1.518 1.814 1.152 1.823-1.06.029-2.924.316-3.877 1.25-.655.842-.048 2.31.542 2.336 3.8.158 8.642-1.545 13.233.648.618-1.715 3.831-2.643 2.665-3.646-1.202-1.035-4.98-.507-7.426-3.66-1.44-1.855.12-5.776 3.854-1.94 3.374 3.463 5.334-1.783 5.168-2.185-.781-1.862-4.107-3.136-7.26-3.264-4.635-.19-10.114 4.026-8.051 8.638M721.71 251.402c-2.045-1.81-.286-.784-4.481-1.892-.908-.239-4.782-.743-4.804.298-.033 1.607 3.501 1.453 4.707 5.197 1.042 3.237-8.302-4.09-8.983-4.004-1.757.224 5.554 9.634 16.192 9.16 3.08-1.7-1.66-7.192-2.632-8.759M668.549 180.183c-1.591 1.417-2.725 5.146-2.534 6.91 1.236.556 6.903-.938 7.93-1.445.535-2.095.182-2.733 1.597-4.745 1.79-2.543 3.573-.414 3.51-3.318-2.696-1.07-8.323.655-10.503 2.598M342.796 53.083c-.008 2.13 2.006 5.466 3.448 6.502 1.238-.548 3.914-5.76 4.223-6.863-1.2-1.799-1.91-1.962-2.462-4.36-.695-3.033 2.08-2.935-.122-4.83-2.596 1.29-5.074 6.63-5.087 9.55M119.311 181.397c1.615 1.388 5.463 2.017 7.185 1.594.387-1.3-1.846-6.718-2.483-7.668-2.148-.252-2.733.182-4.916-.954-2.758-1.437-.884-3.485-3.753-3.039-.704 2.814 1.752 8.163 3.967 10.067M184.243 124.03c1.775 1.18 5.669 1.333 7.328.699.225-1.336-2.657-6.439-3.406-7.304-2.165.013-2.692.517-4.997-.344-2.914-1.085-1.304-3.349-4.1-2.553-.35 2.878 2.743 7.885 5.175 9.502M110.42 287.658c1.976.795 5.821.153 7.316-.802-.052-1.355-3.909-5.767-4.818-6.46-2.116.449-2.53 1.051-4.963.676-3.072-.474-1.956-3.017-4.53-1.67.238 2.891 4.285 7.166 6.994 8.256M417.446 44.651c5.118 3.74 1.8 13.402 4.043 14.638 3.69 2.03 3.465-26.281-3.106-17.952-.536.68-1.539 2.062-.937 3.314M77.986 241.59c5.855-2.43 12.389 5.422 14.61 4.145 3.652-2.096-20.659-16.609-16.955-6.669.302.813.964 2.388 2.345 2.524" fill="#fad606" fill-rule="evenodd"/><path d="M172.62 140.634c-1.138 2.383-3.279 4.015-5.348 5.563-1.196.885 4.222-11.67 3.253-14.928-4.039 2.714-7.645-.752-7.762-4.754-.16-5.46 4.924-7.99 8.16-3.206 3.775 5.576 4.629 11.195 1.698 17.325zm-6.55-14.365c-.18.7.39 1.421 1.273 1.608.883.189 1.743-.228 1.922-.93.18-.7-.39-1.421-1.274-1.61-.88-.187-1.742.23-1.921.932" fill="#fad606"/><path d="M248.177 494.154l-6.125 162.68 48.422 14.394-8.75-174.413-29.757-4.075-3.79 1.414" fill="#ffdf00" fill-rule="evenodd"/><path d="M594.55 630.904l16.275-14.477-25.708-48.696c-1.574-3.072-1.673-6.306 1.17-9.214l36.153-31.245c1.916-1.297 3.967-1.07 6.054-.163l19.93.903c13.404 3.585 23.073-20.8 32.45-20.355l10.139.19c5.152.03 5.453-2.05 1.635-2.866-23.144-8.617-22.729 1.083-38.006 4.382l-31.383-23.806c-4.041-2.603-5.692-1.578-8.658 1.572l-49.825 52.935c-3.114 3.429-5.146 3.782-4.603-1.933l1.868-33.6c40.077-55.963 63.181-23.226 94.917-28.135 11.363-2.969 20.617-10.854 28.055-22.983 3.036-5.069 2.836-7.581-3.845-4.5-23.172 4.907-41.443-4.43-60.125-2.036-21.813 2.797-41.506 13.107-58.164 42.595l2.459-44.223 7.128-9.503c8.03 9.568 20.255 7.23 23.815-4.796 6.647 8.004 18.34 8.297 23.461-1.747 11.326 12.803 25.1-5.988 9.16-10.798l9.49-4.58c7.44 8.335 20.305 6.436 21.28-5.803.01-.124.006-.247.008-.37a13.43 13.43 0 002.77-.489c2.173 1.754 5.023 2.815 8.146 2.815 6.81 0 12.33-5.052 12.33-11.286 0-6.235-5.52-11.287-12.33-11.287-5.89 0-10.813 3.779-12.036 8.833-1.555.008-3.017.258-4.294.695-5.509-6.917-17.871-3.002-19.606 8.22-2.9-.53-5.53-.518-7.885 1.308-8.56-3.507-14.177-1.144-21.756 5.4-3.94 3.644-7.297 5.128-11.675 6.152-4.797-6.544-13.135-5.335-19.734 3.663-1.854.6-2.481-1.662-1.146-3.109l11.452-9.815c9.528 7.835 19.264 2.773 17.503-4.743 9.761 3.953 17.56-.438 17.014-9.98 9.538 8.1 20.166 2.313 19.958-9.324 8.451 8.494 22.349 3.502 22.084-8.343 6.24 9.308 17.816 10.143 23.942 6.685 2.814-1.59 5.172-4.87 3.063-8.001-.975-1.448-2.602-1.1-3.61-2.446 1.777-5.78-5.915-8.233-18.834-7.616-19.935.95-44.895 13.134-68.851 25.61l-1.103-2.332c2.98-2.855 6.892-5.553 11.615-11.043 7.481 1.464 13.09-.191 14.68-8.547l3.763-1.798c7.221 4.206 12.982-.089 15.868-5.563 4.186.176 7.974-.938 11.287-3.598 2.185-3.015 7.228 3.25 14.861 1.008 8.877-2.61 8.432-13.25-.703-15.983-3.443-1.03-7.443-.245-10.763 4.137-.898.76-1.372.706-2.32.599h-.003a8.097 8.097 0 00-16.162.71c0 1.276.295 2.485.823 3.56-.653.307-1.336.779-1.546 1.52a8.629 8.629 0 00-8.56-7.533 8.63 8.63 0 00-6.013 14.818c-2.077-1.074-3.284-.402-3.549 2.149l-.058.023a8.096 8.096 0 00-8.088-8.484 8.096 8.096 0 00-8.098 8.098 8.075 8.075 0 002.75 6.08v0c-.868 1.73-2.214 2.184-3.737 2.168v0c-14.834-14.218-28.747 5.082-15.127 15.799-5.916.109-13.633 4.96-8.097 17.34l-10.744 8.704 2.706-48.669c.259-4.935-.755-8.6-2.733-9.464-4.748-2.079-13.032-1.5-20.474 1.703-2.16.928-4.496 2.541-6.581 6.542-6.863 13.172-24.28 54.348-26.56 65.736-.237 1.185-.31 2.047-.191 2.522.155 1.472 3.278-1.13 5.893-3.124 5.626-4.289 13.82-11.843 19.627-16.383l-2.942 59.551c-26.024-39.963-61.822-41.465-88.095-25.934-15.674 10.77-20.335 24.787-37.952 40.569 5.616-.545 10.413-1.58 14.886-6.052.282 8.227-1.855 23.501 3.598 31.572-1.94 11.542 11.394 18.861 5.357 36.48 3.206-2.471 7.062-3.872 8.385-15.377 9.665 8.963 23.456 13.031 36.25 11.16-5.186 1.203-9.622 3.492-10.908 6.581l-39.574 78.285c-.797 1.034.192 4.94 3.272 2.546l49.214-38.244c2.766-2.562 4.756-1.923 6.46.922l45.506 72.482 18.647-1.635 4.38-76.311c-.19-3.543 2.634-5.862 5.221-7.871 3.585-2.785 4.663-5.346 6.995-.797zm47.865-173.413c-14.084-3.318-32.174-5.298-52.61 9.99 43.296-13.305 42.097 4.635 67.072-4.581 1.805-.709 2.842-1.42 2.625-2.06-.594-1.748-2.8.016-17.087-3.35zm-106.88 20.829l-1.267 25.677c-5.52-11.914-11.724-22.347-19.979-30.208-14.176-13.5-36.605-20.77-53.474-7.516a30.794 30.794 0 00-11.55 20.159c-1.81 13.457 5.45 27.188 20.958 29.471 9.693.273 17.464-4.853 17.669-14.397 4.615-1.11 7.568-5.304 7.197-10.714 11.431.3 14.223 11.499 10.533 23.608-4.167 13.677-17.754 27.253-37.535 24.856-8.452-1.025-17.023-5.04-23.916-11.581a5.676 5.676 0 10-7.115-8.662c-3.017-4.762-5.273-10.276-6.449-16.458a6.504 6.504 0 10-.882-11.539 60.28 60.28 0 01.5-6.113c.338-4.067 1.246-8.05 2.64-11.862a7.854 7.854 0 106.603-12.104l-.131.002a52.468 52.468 0 0113.218-12.742 7.852 7.852 0 007.852 7.832 7.85 7.85 0 004.883-14 47.341 47.341 0 0114.338-2.25 57.342 57.342 0 015.223.228 6.196 6.196 0 1010.756 2.128c17.86 5.586 29.825 20.366 39.928 36.185zm-1.663 33.687l-4.512 91.333c-.461 4.207-2.596 2.62-3.454.032l-26.988-56.747c-2.33-3.9-10.125-4.978-17.422-3.952 13.715-3.118 25.742-13.386 29.46-32.17 7.906-13.358-2.182-13.63-1.147-25.683l-2.29 7.689c-3.31-5.244-8.569-7.448-17.012-6.052 5.305 17.835-20.707 16.72-20.693-.572.902-12.803 12.876-18.617 21.587-18.407 16.52.401 30.213 16.6 42.47 44.53zm-10.202 127.94l-49.122-83.162c-8.444-9.752 20.867-11.599 22.434-4.935l29.756 66.52c3.34 5.975-.368 8.536-2.874 3.73l-21.088-43.543c-1.144-2.317-7.115 1.172-5.398 4.09l28.032 52.914c3.15 4.537-.597 6.698-1.74 4.387zm36.199-65.153c-3.571 2.535-4.199-3.517-1.635-5.889l56.305-52.604c5.648-5.802 8.188 1.584 3.403 5.654zm8.67-20.775c-2.372 1.936-5.153-1.935-.981-5.726l44.87-49.61c3.138-4.084 6.994.608 2.57 5.114zm-22.493-186.784c-.696-5.95 18.416-10.382 16.91-2.483l-7.013 167.344c-.82 4.58-4.582 10.352-5.4 7.08l6.709-134.678c-.027-2.97-4.473-1.525-5.972.9l-5.548 126.369c-.502 11.458-5.28-1.502-4.92-7.321z" fill="none" stroke="#26ab4d" stroke-width="6.337" stroke-miterlimit="2.613"/><path d="M594.55 630.904l16.275-14.477-25.708-48.696c-1.574-3.072-1.673-6.306 1.17-9.214l36.153-31.245c1.916-1.297 3.967-1.07 6.054-.163l19.93.903c13.404 3.585 23.073-20.8 32.45-20.355l10.139.19c5.152.03 5.453-2.05 1.635-2.866-23.144-8.617-22.729 1.083-38.006 4.382l-31.383-23.806c-4.041-2.603-5.692-1.578-8.658 1.572l-49.825 52.935c-3.114 3.429-5.146 3.782-4.603-1.933l1.868-33.6c40.077-55.963 63.181-23.226 94.917-28.135 11.363-2.969 20.617-10.854 28.055-22.983 3.036-5.069 2.836-7.581-3.845-4.5-23.172 4.907-41.443-4.43-60.125-2.036-21.813 2.797-41.506 13.107-58.164 42.595l2.459-44.223 7.128-9.503c8.03 9.568 20.255 7.23 23.815-4.796 6.647 8.004 18.34 8.297 23.461-1.747 11.326 12.803 25.1-5.988 9.16-10.798l9.49-4.58c7.44 8.335 20.305 6.436 21.28-5.803.01-.124.006-.247.008-.37a13.43 13.43 0 002.77-.489c2.173 1.754 5.023 2.815 8.146 2.815 6.81 0 12.33-5.052 12.33-11.286 0-6.235-5.52-11.287-12.33-11.287-5.89 0-10.813 3.779-12.036 8.833-1.555.008-3.017.258-4.294.695-5.509-6.917-17.871-3.002-19.606 8.22-2.9-.53-5.53-.518-7.885 1.308-8.56-3.507-14.177-1.144-21.756 5.4-3.94 3.644-7.297 5.128-11.675 6.152-4.797-6.544-13.135-5.335-19.734 3.663-1.854.6-2.481-1.662-1.146-3.109l11.452-9.815c9.528 7.835 19.264 2.773 17.503-4.743 9.761 3.953 17.56-.438 17.014-9.98 9.538 8.1 20.166 2.313 19.958-9.324 8.451 8.494 22.349 3.502 22.084-8.343 6.24 9.308 17.816 10.143 23.942 6.685 2.814-1.59 5.172-4.87 3.063-8.001-.975-1.448-2.602-1.1-3.61-2.446 1.777-5.78-5.915-8.233-18.834-7.616-19.935.95-44.895 13.134-68.851 25.61l-1.103-2.332c2.98-2.855 6.892-5.553 11.615-11.043 7.481 1.464 13.09-.191 14.68-8.547l3.763-1.798c7.221 4.206 12.982-.089 15.868-5.563 4.186.176 7.974-.938 11.287-3.598 2.185-3.015 7.228 3.25 14.861 1.008 8.877-2.61 8.432-13.25-.703-15.983-3.443-1.03-7.443-.245-10.763 4.137-.898.76-1.372.706-2.32.599h-.003a8.097 8.097 0 00-16.162.71c0 1.276.295 2.485.823 3.56-.653.307-1.336.779-1.546 1.52a8.629 8.629 0 00-8.56-7.533 8.63 8.63 0 00-6.013 14.818c-2.077-1.074-3.284-.402-3.549 2.149l-.058.023a8.096 8.096 0 00-8.088-8.484 8.096 8.096 0 00-8.098 8.098 8.075 8.075 0 002.75 6.08c-.868 1.73-2.214 2.184-3.737 2.168-14.834-14.218-28.747 5.082-15.127 15.799-5.916.109-13.633 4.96-8.097 17.34l-10.744 8.704 2.706-48.669c.259-4.935-.755-8.6-2.733-9.464-4.748-2.079-13.032-1.5-20.474 1.703-2.16.928-4.496 2.541-6.581 6.542-6.863 13.172-24.28 54.348-26.56 65.736-.237 1.185-.31 2.047-.191 2.522.155 1.472 3.278-1.13 5.893-3.124 5.626-4.289 13.82-11.843 19.627-16.383l-2.942 59.551c-26.024-39.963-61.822-41.465-88.095-25.934-15.674 10.77-20.335 24.787-37.952 40.569 5.616-.545 10.413-1.58 14.886-6.052.282 8.227-1.855 23.501 3.598 31.572-1.94 11.542 11.394 18.861 5.357 36.48 3.206-2.471 7.062-3.872 8.385-15.377 9.665 8.963 23.456 13.031 36.25 11.16-5.186 1.203-9.622 3.492-10.908 6.581l-39.574 78.285c-.797 1.034.192 4.94 3.272 2.546l49.214-38.244c2.766-2.562 4.756-1.923 6.46.922l45.506 72.482 18.647-1.635 4.38-76.311c-.19-3.543 2.634-5.862 5.221-7.871 3.585-2.785 4.663-5.346 6.995-.797zm47.865-173.413c-14.084-3.318-32.174-5.298-52.61 9.99 43.296-13.305 42.097 4.635 67.072-4.581 1.805-.709 2.842-1.42 2.625-2.06-.594-1.748-2.8.016-17.087-3.35zm-106.88 20.829l-1.267 25.677c-5.52-11.914-11.724-22.347-19.979-30.208-14.176-13.5-36.605-20.77-53.474-7.516a30.794 30.794 0 00-11.55 20.159c-1.81 13.457 5.45 27.188 20.958 29.471 9.693.273 17.464-4.853 17.669-14.397 4.615-1.11 7.568-5.304 7.197-10.714 11.431.3 14.223 11.499 10.533 23.608-4.167 13.677-17.754 27.253-37.535 24.856-8.452-1.025-17.023-5.04-23.916-11.581a5.676 5.676 0 10-7.115-8.662c-3.017-4.762-5.273-10.276-6.449-16.458a6.504 6.504 0 10-.882-11.539 60.28 60.28 0 01.5-6.113c.338-4.067 1.246-8.05 2.64-11.862a7.854 7.854 0 106.603-12.104l-.131.002a52.468 52.468 0 0113.218-12.742 7.852 7.852 0 007.852 7.832 7.85 7.85 0 004.883-14 47.341 47.341 0 0114.338-2.25 57.342 57.342 0 015.223.228 6.196 6.196 0 1010.756 2.128c17.86 5.586 29.825 20.366 39.928 36.185zm-1.663 33.687l-4.512 91.333c-.461 4.207-2.596 2.62-3.454.032l-26.988-56.747c-2.33-3.9-10.125-4.978-17.422-3.952 13.715-3.118 25.742-13.386 29.46-32.17 7.906-13.358-2.182-13.63-1.147-25.683l-2.29 7.689c-3.31-5.244-8.569-7.448-17.012-6.052 5.305 17.835-20.707 16.72-20.693-.572.902-12.803 12.876-18.617 21.587-18.407 16.52.401 30.213 16.6 42.47 44.53zm-10.202 127.94l-49.122-83.162c-8.444-9.752 20.867-11.599 22.434-4.935l29.756 66.52c3.34 5.975-.368 8.536-2.874 3.73l-21.088-43.543c-1.144-2.317-7.115 1.172-5.398 4.09l28.032 52.914c3.15 4.537-.597 6.698-1.74 4.387zm36.199-65.153c-3.571 2.535-4.199-3.517-1.635-5.889l56.305-52.604c5.648-5.802 8.188 1.584 3.403 5.654zm8.67-20.775c-2.372 1.936-5.153-1.935-.981-5.726l44.87-49.61c3.138-4.084 6.994.608 2.57 5.114zm-22.493-186.784c-.696-5.95 18.416-10.382 16.91-2.483l-7.013 167.344c-.82 4.58-4.582 10.352-5.4 7.08l6.709-134.678c-.027-2.97-4.473-1.525-5.972.9l-5.548 126.369c-.502 11.458-5.28-1.502-4.92-7.321l5.234-157.211" fill="#fad606" fill-rule="evenodd"/><path d="M365.384 444.588c7.84-5.317 14.802-10.843 19.424-18.305-10.915 3.397-19.896 9.769-26.905 16.91a89.633 89.633 0 00-4.186-.468c7.782-6.325 14.661-12.681 18.557-21.06-11.231 4.54-19.777 12.35-25.95 20.684a105.845 105.845 0 00-4.008.018c6.629-7.239 12.26-14.35 14.853-23.085-10.244 5.947-17.334 14.569-22.193 23.489-1.322.114-2.65.25-3.985.408 6.038-7.688 11.176-15.255 13.1-24.13-9.77 6.692-16.332 15.93-20.544 25.238-1.44.257-2.884.539-4.33.846 5.508-7.933 10.125-15.696 11.472-24.546-9.38 7.25-15.354 16.85-18.955 26.355-1.543.419-3.086.864-4.626 1.339 4.867-8.091 8.86-15.946 9.488-24.616-8.844 7.767-14.035 17.583-16.838 27.11a140.792 140.792 0 00-4.081 1.582c4.569-8.037 8.385-16.11 8.715-24.466-8.688 7.921-13.77 18.256-16.249 27.79-.987.473-1.97.956-2.948 1.452.748-2.127 1.172-4.308 1.117-6.602-4.164 3.105-6.959 6.873-8.75 10.808-1.44.856-2.862 1.741-4.264 2.654.288-1.922.628-3.952 1.019-6.08 7.56-5.665 14.812-13.027 19.009-22.842-6.536 2.84-11.894 7.465-16.972 12.91.453-2.002.941-4.066 1.466-6.188 7.281-3.52 15.85-10.566 19.837-19.111-6.648 1.503-11.732 5.898-17.605 10.603.483-1.755.99-3.542 1.521-5.356 7.437-3.578 15.897-10.37 20.203-18.841-6.4 1.128-11.559 4.959-17.258 9.24a408.589 408.589 0 011.702-5.18c7.327-3.542 15.5-9.96 19.91-17.993-6.02.94-11.038 4.26-16.447 8.095.64-1.759 1.3-3.532 1.977-5.319 7.328-3.845 14.43-9.1 19.708-16.59-5.682 1.154-10.846 3.624-15.86 6.805a439.894 439.894 0 012.235-5.385c6.662-3.86 13.232-8.965 17.63-16.363-6.112.923-11.184 3.659-15.95 7.242l-.277-.282c4.478-6.312 10.696-16.036 10.848-27.454-7.503 5.488-12.19 15.862-14.349 23.894l-.591-.602c-.18.336-.358.675-.537 1.018-.5-6.219-1.681-12.098-4.35-17.547-2.27 9.493-1.8 19.077-.474 27.775-.74 1.72-1.478 3.5-2.212 5.34-1.599-6.422-3.833-12.355-7.613-17.525-1.223 9.715.815 18.947 3.991 27.127a342.128 342.128 0 00-1.7 4.868c-2.14-6.956-4.173-13.213-8.476-18.026-1.047 9.444 1.675 19.945 5.35 27.569a571.01 571.01 0 00-1.48 4.781c-1.432-3.943-3.692-9.493-8.873-14.222-.022 10.57 2.875 17.817 6.255 23.096-.54 1.88-1.076 3.788-1.613 5.716-1.954-5.55-3.99-10.532-7.922-14.443-1.037 8.323 1.626 17.569 5.25 24.334-.356 1.35-.71 2.71-1.064 4.08-1.258-3.37-2.89-6.016-5.643-9.501-.87 8.255 1.372 13.126 3.57 17.687-.74 2.977-1.477 5.99-2.21 9.04a609.57 609.57 0 00-3.784-11.38c.641-4.043.614-7.831-.236-11.304a25.038 25.038 0 00-2.412 3.739c-.317-.887-.635-1.773-.953-2.657 3.539-5.95 5.705-11.813 6.061-17.56-2.644 1.813-5.965 4.83-9.094 9.321-.306-.814-.613-1.628-.92-2.438 4.916-6.076 8.062-12.362 8.747-18.942-3.39 1.65-7.908 4.965-11.89 10.786-.422-1.084-.848-2.161-1.274-3.237 7.64-6.462 10.439-11.629 11.327-19.752-8.357 6.648-11.381 10.169-13.877 13.405-.499-1.227-.998-2.447-1.497-3.66 8.164-7.23 12.635-13.442 13.538-21.747-5.288 4.252-11.256 9.868-15.78 16.36a812.373 812.373 0 00-1.698-4.015c8.075-6.956 14.009-14.891 16.8-22.751-4.918 2.772-12.343 8.438-19.382 16.752a823.067 823.067 0 00-1.37-3.129c8.726-7.913 15.139-15.825 18.075-23.74-5.14 2.678-13.022 8.42-20.335 18.648a801.987 801.987 0 00-1.833-4.065c8.923-7.251 15.485-14.709 18.465-22.478-5.242 2.272-13.337 7.486-20.772 17.45a746.699 746.699 0 00-1.91-4.093c8.502-6.513 14.764-13.524 17.538-21.303-4.858 1.767-12.463 6.372-19.296 16.295l.976 3.356a629.278 629.278 0 00-2.053-4.299l.168-3.953c7.636-5.683 13.25-11.944 15.829-19.073-4.775 1.451-12.228 7.29-18.958 16.642l-.225-.129-.616-1.237.39-1.345-.096-.106c5.805-6.952 9.549-14.08 10.226-21.471-3.863 2.126-8.947 8.234-12.95 17.188 1.565-14.64.416-20.74-2.42-24.845-3.524 5.24-3.885 14.359-2.085 22.183-5.068-4.128-9.791-6.492-13.079-6.978 2.345 4.886 6.173 9.071 11.13 12.725l.048.1c-4.42-1.184-8.766-1.673-12.588-1.955 3.53 4.781 9.288 7.94 16.435 10.245l1.267 2.762c-7.244-3.41-13.787-4.447-18.269-4.29 4.927 5.776 12.648 9.548 21.968 12.441.485 1.078.965 2.149 1.44 3.215-8.485-3.58-16.316-5.523-21.445-5.677 5.333 5.834 13.937 9.815 24.297 12.119.531 1.205 1.055 2.406 1.577 3.604-9.8-3.612-18.732-5.41-24.261-5.33 6.317 5.617 15.74 9.193 26.702 10.981.46 1.07.916 2.14 1.37 3.207-9.771-3.384-18.663-4.443-24.173-4.343 6.415 5.664 16.005 9.619 27.144 11.393.526 1.258 1.049 2.518 1.572 3.779-9.489-3.297-18.137-4.235-23.481-4.048 6.213 5.604 15.523 9.423 26.336 11.008l1.049 2.582c-8.617-2.532-16.474-2.958-21.325-2.525 5.62 4.762 14.029 7.766 23.8 8.68.516 1.291 1.034 2.592 1.554 3.902-7.865-3.003-15.067-3.756-19.478-3.493 5.14 5.106 12.904 8.463 21.908 9.652.46 1.169.922 2.346 1.386 3.536-5.16-2.147-9.669-2.9-12.922-2.991 3.77 5.114 9.468 9.15 16.577 12.397l1.266 3.28c-4.547-2.75-8.67-3.923-11.577-4.294 2.947 4.957 7.998 9 14.508 12.405l.292.278c.879 2.298 1.776 4.643 2.69 7.039-3.84-4.222-7.738-6.61-10.579-7.794 1.165 4.23 3.641 8.27 7.127 12.163l-1.103.802-.507.368a141.186 141.186 0 00-4.994-2.654c-1.443-7.835-5.44-16.04-13.863-22.368-.39 6.675 2.607 12.683 6.45 18.854-1.33-.591-2.68-1.171-4.048-1.738-2.096-8.503-6.641-17.303-15.16-24.15.066 7.532 3.498 14.308 7.785 21.273a203.035 203.035 0 00-5.08-1.797c-1.57-8.253-5.402-16.852-12.948-23.98-.532 7.482 2.321 14.488 6.017 21.743-1.36-.417-2.733-.824-4.117-1.222-1.494-8.442-5.327-17.3-13.066-24.612-.56 7.858 2.615 15.189 6.578 22.835-1.198-.314-2.404-.62-3.617-.922-1.534-8.502-5.026-17.056-13.023-24.481-.43 8.099 2.612 15.18 6.81 23.01a318.23 318.23 0 00-4.144-.909c-1.632-8.462-5.463-17.058-13.517-23.983-.36 8.078 2.948 15.16 7.197 22.698-1.725-.334-3.461-.659-5.207-.971-.926-7.82-3.815-15.73-11.756-22.67-.94 7.605 2.125 14.2 6.317 21.737-3.327-.548-6.691-1.06-10.081-1.535l5.114.54c-1.713-7.843-6.024-14.709-14.847-20.885-.119 7.75 4.341 13.155 9.406 20.299-1.617-.225-3.24-.442-4.868-.651-2.702-6.577-7.054-13.073-16.4-18.629-.133 6.546 3.668 11.82 9.038 17.74-1.21-.137-2.422-.266-3.635-.395-3.837-5.729-9.867-10.78-19.606-14.593.81 5.628 4.94 9.538 10.18 13.687-1.584-.138-3.171-.27-4.761-.395-3.875-4.493-9.966-8.16-19.473-8.905.662 2.937 3.135 5.878 8.664 9.422-5.16-.336-11.707.475-18.458 2.513 4.326 3.038 11.563 4.743 19.076 4.116-4.114 2.88-8.413 6.481-9.31 10.445 9.56-.759 14.916-4.696 17.836-9.374 1.61.122 3.212.249 4.805.382-6.166 3.6-10.542 7.779-11.983 12.685 5.904-.711 12.812-4.65 20.246-11.933a531.8 531.8 0 014.102.422c-6.352 4.236-11.2 8.984-13.652 14.34 5.795-1.046 13.19-5.48 21.805-13.4.998.124 1.995.251 2.985.38-5.452 4.158-9.602 8.77-13.135 15.122 5.731-1.052 12.95-5.951 20.928-14.034 1.375.204 2.743.415 4.102.632-8.204 5.643-13.145 10.18-15.682 14.874 6.718-1.078 13.945-4.888 23.24-13.596 1.146.206 2.285.417 3.418.631-8.091 5.83-12.695 11.055-15.029 15.47 8.155-2.47 15.25-6.778 22.555-13.96 1.009.215 2.015.432 3.015.654-8.351 6.336-13.385 12.131-15.215 16.854 8.183-2.592 15.672-7.354 22.308-15.187 1.283.317 2.557.642 3.823.973-9.169 6.541-13.423 11.193-15.576 16.07 8.497-2.645 15.013-6.18 22.141-14.263 1.01.292 2.015.587 3.01.89-8.419 6.314-12.296 10.866-14.148 15.635 8.098-2.564 14.296-5.964 20.772-13.529 1.112.371 2.215.75 3.31 1.135-5.662 3.542-10.466 7.476-13.034 13.222 8.782-1.43 14.461-5.887 19.222-10.94.971.375 1.935.755 2.89 1.141-4.724 3.529-9.577 7.017-12.481 12.16 8.06-1.313 13.215-5.383 17.598-10.003 1.643.72 3.261 1.459 4.853 2.216a28.85 28.85 0 00-5.188.521 21.579 21.579 0 003.604 3.22l1.459 4.494c-3.428-.898-7.174-1.173-11.249-.56a21.7 21.7 0 002.743 2.769c-1.876.238-3.728.5-5.56.786-3.566-1.372-7.555-2.07-12.015-1.754a21.66 21.66 0 002.945 3.39c-.824.17-1.643.344-2.459.523-3.953-3.873-11.656-6.657-22.304-7.254 3.077 4.41 7.155 6.717 12.733 9.618-1.541.423-3.067.864-4.58 1.323-5.043-4.899-11.26-7.939-19.999-7.972 3.197 5.356 7.686 7.802 13.183 10.173a203.52 203.52 0 00-3.984 1.418c-5.553-4.915-12.276-7.908-21.401-7.263 3.816 5.433 8.937 7.587 15.12 9.693-1.25.509-2.492 1.028-3.726 1.557-6.367-4.385-13.742-7.332-23.32-5.664 4.557 4.975 10.109 7.059 16.777 8.597-1.416.662-2.822 1.34-4.22 2.028l.115-.12c-6.748-4.017-14.619-6.072-24.195-3.671 4.98 4.699 10.933 5.991 17.87 6.953-1.633.86-3.257 1.735-4.873 2.627-6.365-3.832-13.254-5.263-22.256-2.915 4.66 4.58 9.784 5.545 16.11 6.397a358.69 358.69 0 00-3.246 1.908c-6.747-2.64-14.07-3.19-22.628.08 4.638 3.43 9.521 4.274 15.103 4.51-1.039.648-2.076 1.3-3.113 1.958-6.513-1.491-13.4-1.062-20.957 2.742 5.122 3.037 10.264 3.329 16.081 2.957-4.841 3.333-10.296 8.682-14.284 14.721 6.06-.496 15.555-5.683 21.495-12.568-4.317 8.016-7.717 14.845-7.11 23.32 8.284-7.591 12.075-15.99 13.515-24.822 1.121-.788 2.235-1.56 3.341-2.313-3.852 9.796-3.483 15.621-2.065 20.754 5.29-8.924 7.604-14.335 8.51-25.01a256.65 256.65 0 013.562-2.234c-2.67 9.025-2.565 14.544-1.806 19.736 4.213-6.947 6.681-12.242 7.89-23.346.946-.54 1.887-1.07 2.825-1.586-3.042 11.492-2.678 16.17-2.264 20.36 4.63-6.947 7.346-12.231 9.02-23.92a186.409 186.409 0 013.207-1.572c-3.851 11.402-3.783 16.11-3.634 20.332 5.114-6.672 8.177-11.784 10.604-23.483a166.19 166.19 0 014.013-1.65c-4.894 10.909-5.328 15.53-5.632 19.683 5.725-6.363 9.316-11.29 12.937-22.392 1.486-.513 2.97-1.004 4.459-1.473-7.659 11.31-7.992 16.206-9.088 20.549 7.812-6.192 10.647-10.832 17.648-23.016 1.605-.42 3.217-.819 4.835-1.198-8.544 9.432-9.029 12.274-11.496 17.194 8.895-5.618 12.518-7.49 20.815-19.157.873-.164 1.75-.324 2.63-.48-2.565 3.478-3.413 5.714-5.06 8.73 6.274-3.661 9.973-5.627 14.525-10.233 2.235-.319 4.5-.616 6.793-.898l1.002 3.081c-3.735.917-7.635 2.377-11.811 4.725 3.366.42 7.413.597 11.115.665-.732.575-1.457 1.155-2.178 1.735-7.597.256-15.386 1.156-24.478 6.269 5.008.626 11.518.713 16.163.702-.863.756-1.719 1.514-2.566 2.277-10.916-.664-20.334.744-25.617 4.204 9.067 1.222 13.921.918 20.07.94-.784.752-1.564 1.507-2.335 2.265-11.8-.912-21.416-.225-27.146 3.529 9.262 2.845 14.425 2.623 21.461 2.251-.919.968-1.828 1.94-2.725 2.918-11.835-1.359-21.479-1.034-27.222 2.513 9.623 3.314 14.821 3.151 22.293 3.037a216.498 216.498 0 00-3.341 3.977c-9.368-2.125-17.824-1.903-26.661 1.007 7.628 3.893 14.756 3.822 22.765 3.873a226.447 226.447 0 00-2.99 3.946c-12.93-2.1-20.857-.82-27.071 1.716 8.747 4.192 15.728 3.964 22.936 4.06a223.737 223.737 0 00-2.687 3.97c-13.262-2.688-19.281-2.754-25.653-.254 6.085 5.168 12.71 5.551 22.366 5.383a218.482 218.482 0 00-2.372 3.9c-13.34-2.092-18.728-1.664-25.601 1.039 6.545 5.703 12.137 5.388 22.119 5.033a224.461 224.461 0 00-2.203 4.075c-10.535-1.843-19.205-1.275-24.555 1.635 8.142 5.34 16.946 4.468 21.753 3.861a219.856 219.856 0 00-1.575 3.256c-6.53 2.845-12.149 7.75-16.174 16.3 6.78-.531 14.468-6.44 20.586-11.893-.831 8.038-1.07 17.41 2.358 23.036 4.173-6.63 4.284-17.015 3.341-27.82.434-.986.875-1.966 1.325-2.94.39 7.216 1.587 14.859 5.142 19.504 3.383-7.133 2.005-17.917-.435-28.971.446-.837.9-1.668 1.356-2.494 2.03 12.388 4.667 16.792 7.126 20.702 2.245-8.837 1.24-17.018-2.685-28.308.774-1.26 1.56-2.507 2.357-3.74 1.68 13.366 4.319 17.864 6.781 21.838 2.42-8.729 1.507-16.894-2.275-28.5.973-1.38 1.96-2.742 2.96-4.084 1.021 14.845 3.588 19.575 5.983 23.729 2.887-9.02 2.19-17.439-1.386-29.676a201.895 201.895 0 013.422-4.151c.572 13.764 2.515 20.357 4.67 24.338 2.092-7.879 2.4-17.152 1.235-31.027.908-.984 1.82-1.957 2.738-2.917-1.062 14.51.196 21.43 1.974 25.622 3.032-7.94 4.308-17.485 4.553-32.167 1.146-1.1 3.194-2.181 4.346-3.241l-3.19 121.373h5.074l.16-6.115c2.704-1.79 5.935-4.023 8.333-5.173 1.553.744 12.547 7.926 13.242 7.837.624-.589-.78-2.5-2.917-4.89 2.814-1.843 6.35-4.326 8.923-5.56 3.281 1.574 8.339 5.222 11.211 6.929l.859 33.473h5.073c-1.24-48.184-2.466-95.704-3.703-143.725.813.58 1.681 1.082 2.617 1.493.116-3.158-.65-6.282-1.96-9.53a167.8 167.8 0 014.723 4.564c-1.365 6.428-2.287 13.294 2.393 17.873 2.465-3.359 3.05-7.394 3.12-12.07.958 1.056 1.908 2.13 2.851 3.22-1.551 7.424-2.368 15.125 1.596 20.824 2.552-3.842 3.463-8.604 3.894-14.15a188.549 188.549 0 013.127 4.106c-2.242 7.45-3.854 15.31-.27 21.472 2.987-3.791 4.266-8.734 5.147-14.565.942 1.4 1.874 2.824 2.795 4.27-2.735 7.947-5.121 16.521-1.534 23.15 3.35-4.102 4.778-9.542 5.894-15.99.86 1.478 1.707 2.98 2.544 4.504-3.047 7.942-5.87 17.172-1.914 24.761 3.555-4.056 5.52-9.095 6.505-15.948.702 1.423 1.395 2.86 2.077 4.318l-.462.472c-1.957 10.016-3.939 19.016-1.979 26.087 3.037-3.86 4.981-10.402 5.677-19.35.46 1.069.912 2.146 1.362 3.235-.326 8.422 1.249 14.106 4.924 17.876 3.167-4.332 2.893-9.636.984-16.742 5.802 4.7 10.585 7.147 15.873 5.987-1.948-4.848-6.457-8.562-14.186-11.648-.386-.82-.77-1.633-1.153-2.441l.551.67c10.477 4.224 17.978 6.267 24.263 3.679-4.972-4.896-13.353-7.496-26.731-8.35-.7-1.448-1.4-2.877-2.102-4.288 10.356 2.851 19.663 5.62 26.987 3.916-5.254-4.785-15.256-7.801-29.36-8.617a316.095 316.095 0 00-1.797-3.44l.015.016c10.647 2.81 19.025 3.886 26.921 1.375-5.436-4.498-15.506-6.963-30.043-7.07a219.357 219.357 0 00-2.592-4.47c10.108 2.42 18.555 3.346 26.078.83-5.414-4.334-15.644-6.793-29.792-6.804a178.365 178.365 0 00-2.98-4.45c9.015 1.709 16.28 2.154 22.977-.97-4.897-4.03-14.016-5.81-26.987-4.568a163.144 163.144 0 00-3.254-4.162c7.94.433 13.443 1.066 19.574-.917-4.75-3.944-12.163-5.88-24.143-4.493a170.25 170.25 0 00-3.454-3.796c4.08-.029 7.647-.374 11.424-1.743-3.864-2.985-9.353-4.657-17.386-4.33a205.967 205.967 0 00-4.111-3.89c2.617-.054 5.117-.366 7.742-1.15-3.354-2.917-8.115-4.824-15.005-5.249a262.33 262.33 0 00-6.134-5.022l.14-.433c3.37 1.414 6.527 2.386 10.191 2.645-1.643-3.049-4.301-5.826-8.371-8.242l.59-1.82a26.698 26.698 0 004.495 1.69 18.202 18.202 0 00-1.584-3.676c.957.115 1.912.237 2.866.37 1.59 5.664 3.967 10.629 7.735 13.99.282-4.073-.003-8.34-.745-12.824.722.14 1.443.283 2.164.432 1.456 8.948 3.99 17.291 9.498 22.206.44-6.344-.497-13.164-2.392-20.538 1.286.338 2.565.691 3.839 1.06 1.387 9.917 3.85 19.434 9.894 24.827.48-6.938-.686-14.445-2.949-22.62 1.56.539 3.109 1.106 4.646 1.696.465 9.708 2.053 19.05 7.39 24.84 1.119-6.65.751-13.986-.602-22.044 1.34.59 2.67 1.2 3.985 1.828.532 11.328 2.196 22.108 7.334 28.886 1.063-7.686.782-16.124-.409-25.356 1.191.646 2.37 1.307 3.536 1.984.444 11.968 2.003 23.528 7.409 30.66 1.104-7.982.758-16.774-.55-26.424.908.597 1.806 1.203 2.696 1.817.455 11.878 2.031 23.325 7.4 30.407 1.056-7.653.783-16.05-.394-25.232 1.14.898 2.264 1.812 3.364 2.739-.343 11.146.486 21.767 5.134 28.434 1.494-6.822 1.93-14.248 1.632-22.309.873.85 1.729 1.708 2.568 2.575-.736 9.483-.286 18.536 4.163 24.206 1.532-5.122 2.243-10.646 2.366-16.594 3.629 6.591 9.418 14.712 15.649 17.425-.88-9.04-5.371-15.359-10.88-19.713l1.458-1.616c5.97 2.222 11.565 3.3 16.914 2.938-5.361-6.662-11.386-8.955-21.677-10.648a72.319 72.319 0 00-2.714-3.305c8.84 1.502 16.929 2.257 23.932.115-10.617-4.843-20.673-6.24-29.448-5.846a94.031 94.031 0 00-3.044-2.76c8.627.396 16.54.097 23.448-2.646-10.819-3.54-21.085-3.911-30.113-2.682a118.898 118.898 0 00-3.915-2.766c8.724-.578 16.463-1.599 23.546-5.301-11.17-2.251-21.279-1.488-30.39.97a141.407 141.407 0 00-4.368-2.474c8.497-1.014 16.296-2.614 23.115-6.432-11.144-1.828-21.702-.39-30.921 2.478a164.304 164.304 0 00-4.262-1.933c9.02-1.19 17.228-3.245 24.427-7.275-11.972-1.965-23.158.488-32.828 3.875-1.125-.421-2.261-.83-3.405-1.231 7.856-1.958 15.618-4.595 21.33-9.232-10.305-.843-21.012 2.442-29.125 6.699-1.53-.46-3.077-.905-4.637-1.33 6.014-1.774 13.037-4.434 18.926-10.08-10.792-.517-20.222 3.296-27.203 8.027a194.968 194.968 0 00-6.185-1.282c7.307-1.999 13.74-4.613 19.039-9.415-8.573-.965-16.7 1.118-24.01 4.674l-3.92-1.716c.054.443.109.887.166 1.329l-3.528-2.562c5.035.293 10.496-.678 15.848-3.813-5.04-2.275-10.553-1.727-16.452-.7a138.057 138.057 0 0110.032-5.229c3.517 3.264 8.465 3.915 14.505 3.913-1.643-2.723-4.834-5.182-7.629-6.925a135.8 135.8 0 013.516-1.37c3.433 3.885 8.278 5.648 14.962 7.554-1.26-4.295-4.282-7.5-7.768-10.02.965-.302 1.935-.592 2.909-.87 3.582 4.583 8.775 7.606 13.92 10.354-.037-4.504-1.852-8.587-5.987-12.353 1.118-.242 2.238-.472 3.363-.68 3.707 6.435 8.394 11.322 14.067 15.495-.564-6.031-2.836-11.5-7.359-16.548 1.61-.203 3.223-.37 4.837-.5 2.89 8.081 7.104 14.103 12.524 19.203.228-7.132-1.407-13.585-5.469-19.531 1.849-.021 3.695.012 5.537.101 1.116 8.93 3.475 15.626 8.112 21.4.973-6.908.867-13.73-1.74-20.861 1.027.123 2.05.264 3.072.426.303 9.748 2.123 16.895 6.579 23.012 1.554-7.21 1.926-14.325-.468-21.799 1.147.275 2.286.576 3.422.903.086 9.064 1.686 15.834 5.717 21.666 1.627-6.437 2.31-12.798.934-19.406a72 72 0 012.537 1.058c.944 8.182 3.102 14.443 7.311 19.886.964-5.637 1.206-11.215-.036-16.953 5.757 8.173 11.613 15.447 19.682 19.902-3.184-9.77-8.847-17.775-15.306-24.088 5.48.02 10.556-.58 15.213-3.351-8.103-4.455-15.687-3.985-22.905-2.765a50.67 50.67 0 00-4.05-1.964c7.185-2.627 13.66-5.135 18.235-10.32-10.083-.41-17.561 3.794-24.548 8.021a68.566 68.566 0 00-3.894-1.044zM277.89 563.173c-3.37 3.93-8.275 10.285-7.633 10.889 1.179.05 5.463-3.118 9.398-5.623l.989-.33.605 23.57c-2.405-3.3-8.525-9.024-11.586-12.75-.55-.577-1.025-.824-1.605 0a57.37 57.37 0 01-2.122 2.411c-2.894-3.235-7.132-7.346-9.515-10.247-.55-.578-1.025-.825-1.605 0-2.567 3.124-7.283 7.652-10.157 10.978l.497-19.152c2.884-1.864 6.683-4.567 9.405-5.874 2.39 1.147 5.722 3.393 8.465 5.188-2.53 2.756-4.33 5.034-3.636 5.685 1.134.05 10.952-6.738 13.242-7.836 1.506.722 3.387 1.882 5.258 3.091zm-10.65 69.289c.58-.822 1.054-.575 1.605 0 4.146 5.05 13.91 13.765 12.439 15.15-1.198.154-8.828-5.72-13.242-7.839-4.414 2.119-11.653 7.908-13.242 7.838-1.472-1.384 8.292-10.098 12.44-15.15zm-23.708-7.027l.385-14.826c2.925-1.865 6.948-4.758 9.796-6.123 2.336 1.12 12.4 7.945 13.242 7.836.729-.685-1.297-3.169-4.032-6.112 2.62-1.74 5.654-3.816 7.936-4.909 3.132 1.502 7.885 4.899 10.808 6.688l.463 18.036c-2.855-3.343-7.711-7.992-10.328-11.18-.552-.576-1.026-.823-1.605 0-2.526 3.074-7.131 7.506-10.018 10.817-2.64-2.798-5.724-5.886-7.627-8.204-.55-.576-1.025-.824-1.605 0-1.852 2.255-4.824 5.241-7.415 7.977zm17.26-21.477c-2.285-2.387-4.691-4.854-6.277-6.784-.55-.577-1.025-.825-1.605 0-2.216 2.7-6.038 6.445-8.891 9.56l.556-21.438c2.923-1.719 7.763-5.318 11.044-6.893 2.342 1.123 5.587 3.303 8.299 5.081-4.373 4.579-9.384 9.574-8.299 10.594 1.59.068 8.828-5.719 13.242-7.837 3.826 1.834 10.068 6.492 12.443 7.6l.28 10.857c-2.892-3.297-7.427-7.668-9.923-10.708-.55-.577-1.026-.824-1.605 0-2.315 2.818-6.379 6.777-9.264 9.968zm4.214-43.833c-2.896-3.256-7.224-7.447-9.642-10.392-.551-.577-1.025-.824-1.605 0-2.116 2.578-5.695 6.11-8.498 9.134l.494-19.004c2.568-1.71 5.498-3.698 7.714-4.763 2.75 1.32 6.745 4.094 9.658 5.964-3.195 3.376-5.8 6.369-4.989 7.132 1.59.068 8.828-5.72 13.242-7.837 2.456 1.177 5.903 3.517 8.689 5.334l.375 14.628c-2.49-2.617-5.254-5.413-7.009-7.55-.551-.577-1.025-.825-1.607 0-1.71 2.084-4.38 4.793-6.822 7.354zm-19.127-25.017l.565-21.762c.927-.082 2.098-.593 3.183-1.458.428-.342.805-.71 1.122-1.083.423.529 1.293.605 2.305.294-.43.225-.863.507-1.286.845-1.835 1.467-2.73 3.4-1.996 4.317.733.92 2.815.474 4.651-.992 1.835-1.467 2.73-3.4 1.996-4.317-.421-.527-1.292-.605-2.305-.295.43-.225.865-.507 1.287-.846.717-.572 1.292-1.218 1.68-1.845-.034.381.045.717.25.972.733.92 2.815.474 4.65-.991.932-.745 1.622-1.61 1.978-2.4.948-.042 2.183-.558 3.324-1.468a8.09 8.09 0 001.217-1.199c.733.917 2.815.474 4.651-.993.26-.206.5-.422.72-.644l.258.202c.133.39.27.78.405 1.17a9.062 9.062 0 00-.606.442c-.72.574-1.293 1.22-1.681 1.848.033-.382-.045-.718-.249-.973-.734-.919-2.817-.474-4.652.992-1.13.901-1.902 1.98-2.159 2.891-.974-.264-2.559.257-3.994 1.402-1.386 1.108-2.234 2.48-2.253 3.481-.833.185-1.798.66-2.703 1.382-1.835 1.467-2.73 3.4-1.996 4.317.732.917 2.815.472 4.65-.994 1.386-1.105 2.235-2.477 2.254-3.479.834-.187 1.797-.66 2.703-1.383 1.128-.901 1.901-1.98 2.158-2.891.447.122 1.02.079 1.65-.114-.43.225-.866.508-1.287.844-1.836 1.467-2.73 3.4-1.996 4.317.733.918 2.815.474 4.65-.993 1.836-1.465 2.73-3.398 1.997-4.316-.423-.529-1.292-.605-2.306-.296a7.94 7.94 0 001.288-.844c.717-.574 1.293-1.219 1.68-1.848-.034.384.043.718.25.975.666.836 2.455.542 4.155-.626.91 2.227 1.933 4.376 3.145 6.312l.727 28.347c-2.673-2.84-5.838-6-7.776-8.36-.551-.578-1.025-.825-1.605 0-1.459 1.777-3.613 4.007-5.73 6.213-2.814-3.36-7.88-8.19-10.575-11.47-.552-.577-1.025-.825-1.605 0-1.705 2.075-4.357 4.768-6.79 7.317z" fill="none" stroke="#26ab4d" stroke-width="6.337" stroke-miterlimit="2.613"/><path d="M365.384 444.588c7.84-5.317 14.802-10.843 19.424-18.305-10.915 3.397-19.896 9.769-26.905 16.91a89.633 89.633 0 00-4.186-.468c7.782-6.325 14.661-12.681 18.557-21.06-11.231 4.54-19.777 12.35-25.95 20.684a105.845 105.845 0 00-4.008.018c6.629-7.239 12.26-14.35 14.853-23.085-10.244 5.947-17.334 14.569-22.193 23.489-1.322.114-2.65.25-3.985.408 6.038-7.688 11.176-15.255 13.1-24.13-9.77 6.692-16.332 15.93-20.544 25.238-1.44.257-2.884.539-4.33.846 5.508-7.933 10.125-15.696 11.472-24.546-9.38 7.25-15.354 16.85-18.955 26.355-1.543.419-3.086.864-4.626 1.339 4.867-8.091 8.86-15.946 9.488-24.616-8.844 7.767-14.035 17.583-16.838 27.11a140.792 140.792 0 00-4.081 1.582c4.569-8.037 8.385-16.11 8.715-24.466-8.688 7.921-13.77 18.256-16.249 27.79-.987.473-1.97.956-2.948 1.452.748-2.127 1.172-4.308 1.117-6.602-4.164 3.105-6.959 6.873-8.75 10.808-1.44.856-2.862 1.741-4.264 2.654.288-1.922.628-3.952 1.019-6.08 7.56-5.665 14.812-13.027 19.009-22.842-6.536 2.84-11.894 7.465-16.972 12.91.453-2.002.941-4.066 1.466-6.188 7.281-3.52 15.85-10.566 19.837-19.111-6.648 1.503-11.732 5.898-17.605 10.603.483-1.755.99-3.542 1.521-5.356 7.437-3.578 15.897-10.37 20.203-18.841-6.4 1.128-11.559 4.959-17.258 9.24a408.589 408.589 0 011.702-5.18c7.327-3.542 15.5-9.96 19.91-17.993-6.02.94-11.038 4.26-16.447 8.095.64-1.759 1.3-3.532 1.977-5.319 7.328-3.845 14.43-9.1 19.708-16.59-5.682 1.154-10.846 3.624-15.86 6.805a439.894 439.894 0 012.235-5.385c6.662-3.86 13.232-8.965 17.63-16.363-6.112.923-11.184 3.659-15.95 7.242l-.277-.282c4.478-6.312 10.696-16.036 10.848-27.454-7.503 5.488-12.19 15.862-14.349 23.894l-.591-.602c-.18.336-.358.675-.537 1.018-.5-6.219-1.681-12.098-4.35-17.547-2.27 9.493-1.8 19.077-.474 27.775-.74 1.72-1.478 3.5-2.212 5.34-1.599-6.422-3.833-12.355-7.613-17.525-1.223 9.715.815 18.947 3.991 27.127a342.128 342.128 0 00-1.7 4.868c-2.14-6.956-4.173-13.213-8.476-18.026-1.047 9.444 1.675 19.945 5.35 27.569a571.01 571.01 0 00-1.48 4.781c-1.432-3.943-3.692-9.493-8.873-14.222-.022 10.57 2.875 17.817 6.255 23.096-.54 1.88-1.076 3.788-1.613 5.716-1.954-5.55-3.99-10.532-7.922-14.443-1.037 8.323 1.626 17.569 5.25 24.334-.356 1.35-.71 2.71-1.064 4.08-1.258-3.37-2.89-6.016-5.643-9.501-.87 8.255 1.372 13.126 3.57 17.687-.74 2.977-1.477 5.99-2.21 9.04a609.57 609.57 0 00-3.784-11.38c.641-4.043.614-7.831-.236-11.304a25.038 25.038 0 00-2.412 3.739c-.317-.887-.635-1.773-.953-2.657 3.539-5.95 5.705-11.813 6.061-17.56-2.644 1.813-5.965 4.83-9.094 9.321-.306-.814-.613-1.628-.92-2.438 4.916-6.076 8.062-12.362 8.747-18.942-3.39 1.65-7.908 4.965-11.89 10.786-.422-1.084-.848-2.161-1.274-3.237 7.64-6.462 10.439-11.629 11.327-19.752-8.357 6.648-11.381 10.169-13.877 13.405-.499-1.227-.998-2.447-1.497-3.66 8.164-7.23 12.635-13.442 13.538-21.747-5.288 4.252-11.256 9.868-15.78 16.36a812.373 812.373 0 00-1.698-4.015c8.075-6.956 14.009-14.891 16.8-22.751-4.918 2.772-12.343 8.438-19.382 16.752a823.067 823.067 0 00-1.37-3.129c8.726-7.913 15.139-15.825 18.075-23.74-5.14 2.678-13.022 8.42-20.335 18.648a801.987 801.987 0 00-1.833-4.065c8.923-7.251 15.485-14.709 18.465-22.478-5.242 2.272-13.337 7.486-20.772 17.45a746.699 746.699 0 00-1.91-4.093c8.502-6.513 14.764-13.524 17.538-21.303-4.858 1.767-12.463 6.372-19.296 16.295l.976 3.356a629.278 629.278 0 00-2.053-4.299l.168-3.953c7.636-5.683 13.25-11.944 15.829-19.073-4.775 1.451-12.228 7.29-18.958 16.642l-.225-.129-.616-1.237.39-1.345-.096-.106c5.805-6.952 9.549-14.08 10.226-21.471-3.863 2.126-8.947 8.234-12.95 17.188 1.565-14.64.416-20.74-2.42-24.845-3.524 5.24-3.885 14.359-2.085 22.183-5.068-4.128-9.791-6.492-13.079-6.978 2.345 4.886 6.173 9.071 11.13 12.725l.048.1c-4.42-1.184-8.766-1.673-12.588-1.955 3.53 4.781 9.288 7.94 16.435 10.245l1.267 2.762c-7.244-3.41-13.787-4.447-18.269-4.29 4.927 5.776 12.648 9.548 21.968 12.441.485 1.078.965 2.149 1.44 3.215-8.485-3.58-16.316-5.523-21.445-5.677 5.333 5.834 13.937 9.815 24.297 12.119.531 1.205 1.055 2.406 1.577 3.604-9.8-3.612-18.732-5.41-24.261-5.33 6.317 5.617 15.74 9.193 26.702 10.981.46 1.07.916 2.14 1.37 3.207-9.771-3.384-18.663-4.443-24.173-4.343 6.415 5.664 16.005 9.619 27.144 11.393.526 1.258 1.049 2.518 1.572 3.779-9.489-3.297-18.137-4.235-23.481-4.048 6.213 5.604 15.523 9.423 26.336 11.008l1.049 2.582c-8.617-2.532-16.474-2.958-21.325-2.525 5.62 4.762 14.029 7.766 23.8 8.68.516 1.291 1.034 2.592 1.554 3.902-7.865-3.003-15.067-3.756-19.478-3.493 5.14 5.106 12.904 8.463 21.908 9.652.46 1.169.922 2.346 1.386 3.536-5.16-2.147-9.669-2.9-12.922-2.991 3.77 5.114 9.468 9.15 16.577 12.397l1.266 3.28c-4.547-2.75-8.67-3.923-11.577-4.294 2.947 4.957 7.998 9 14.508 12.405l.292.278c.879 2.298 1.776 4.643 2.69 7.039-3.84-4.222-7.738-6.61-10.579-7.794 1.165 4.23 3.641 8.27 7.127 12.163l-1.103.802-.507.368a141.186 141.186 0 00-4.994-2.654c-1.443-7.835-5.44-16.04-13.863-22.368-.39 6.675 2.607 12.683 6.45 18.854-1.33-.591-2.68-1.171-4.048-1.738-2.096-8.503-6.641-17.303-15.16-24.15.066 7.532 3.498 14.308 7.785 21.273a203.035 203.035 0 00-5.08-1.797c-1.57-8.253-5.402-16.852-12.948-23.98-.532 7.482 2.321 14.488 6.017 21.743-1.36-.417-2.733-.824-4.117-1.222-1.494-8.442-5.327-17.3-13.066-24.612-.56 7.858 2.615 15.189 6.578 22.835-1.198-.314-2.404-.62-3.617-.922-1.534-8.502-5.026-17.056-13.023-24.481-.43 8.099 2.612 15.18 6.81 23.01a318.23 318.23 0 00-4.144-.909c-1.632-8.462-5.463-17.058-13.517-23.983-.36 8.078 2.948 15.16 7.197 22.698-1.725-.334-3.461-.659-5.207-.971-.926-7.82-3.815-15.73-11.756-22.67-.94 7.605 2.125 14.2 6.317 21.737-3.327-.548-6.691-1.06-10.081-1.535l5.114.54c-1.713-7.843-6.024-14.709-14.847-20.885-.119 7.75 4.341 13.155 9.406 20.299-1.617-.225-3.24-.442-4.868-.651-2.702-6.577-7.054-13.073-16.4-18.629-.133 6.546 3.668 11.82 9.038 17.74-1.21-.137-2.422-.266-3.635-.395-3.837-5.729-9.867-10.78-19.606-14.593.81 5.628 4.94 9.538 10.18 13.687-1.584-.138-3.171-.27-4.761-.395-3.875-4.493-9.966-8.16-19.473-8.905.662 2.937 3.135 5.878 8.664 9.422-5.16-.336-11.707.475-18.458 2.513 4.326 3.038 11.563 4.743 19.076 4.116-4.114 2.88-8.413 6.481-9.31 10.445 9.56-.759 14.916-4.696 17.836-9.374 1.61.122 3.212.249 4.805.382-6.166 3.6-10.542 7.779-11.983 12.685 5.904-.711 12.812-4.65 20.246-11.933a531.8 531.8 0 014.102.422c-6.352 4.236-11.2 8.984-13.652 14.34 5.795-1.046 13.19-5.48 21.805-13.4.998.124 1.995.251 2.985.38-5.452 4.158-9.602 8.77-13.135 15.122 5.731-1.052 12.95-5.951 20.928-14.034 1.375.204 2.743.415 4.102.632-8.204 5.643-13.145 10.18-15.682 14.874 6.718-1.078 13.945-4.888 23.24-13.596 1.146.206 2.285.417 3.418.631-8.091 5.83-12.695 11.055-15.029 15.47 8.155-2.47 15.25-6.778 22.555-13.96 1.009.215 2.015.432 3.015.654-8.351 6.336-13.385 12.131-15.215 16.854 8.183-2.592 15.672-7.354 22.308-15.187 1.283.317 2.557.642 3.823.973-9.169 6.541-13.423 11.193-15.576 16.07 8.497-2.645 15.013-6.18 22.141-14.263 1.01.292 2.015.587 3.01.89-8.419 6.314-12.296 10.866-14.148 15.635 8.098-2.564 14.296-5.964 20.772-13.529 1.112.371 2.215.75 3.31 1.135-5.662 3.542-10.466 7.476-13.034 13.222 8.782-1.43 14.461-5.887 19.222-10.94.971.375 1.935.755 2.89 1.141-4.724 3.529-9.577 7.017-12.481 12.16 8.06-1.313 13.215-5.383 17.598-10.003 1.643.72 3.261 1.459 4.853 2.216a28.85 28.85 0 00-5.188.521 21.579 21.579 0 003.604 3.22l1.459 4.494c-3.428-.898-7.174-1.173-11.249-.56a21.7 21.7 0 002.743 2.769c-1.876.238-3.728.5-5.56.786-3.566-1.372-7.555-2.07-12.015-1.754a21.66 21.66 0 002.945 3.39c-.824.17-1.643.344-2.459.523-3.953-3.873-11.656-6.657-22.304-7.254 3.077 4.41 7.155 6.717 12.733 9.618-1.541.423-3.067.864-4.58 1.323-5.043-4.899-11.26-7.939-19.999-7.972 3.197 5.356 7.686 7.802 13.183 10.173a203.52 203.52 0 00-3.984 1.418c-5.553-4.915-12.276-7.908-21.401-7.263 3.816 5.433 8.937 7.587 15.12 9.693-1.25.509-2.492 1.028-3.726 1.557-6.367-4.385-13.742-7.332-23.32-5.664 4.557 4.975 10.109 7.059 16.777 8.597-1.416.662-2.822 1.34-4.22 2.028l.115-.12c-6.748-4.017-14.619-6.072-24.195-3.671 4.98 4.699 10.933 5.991 17.87 6.953-1.633.86-3.257 1.735-4.873 2.627-6.365-3.832-13.254-5.263-22.256-2.915 4.66 4.58 9.784 5.545 16.11 6.397a358.69 358.69 0 00-3.246 1.908c-6.747-2.64-14.07-3.19-22.628.08 4.638 3.43 9.521 4.274 15.103 4.51-1.039.648-2.076 1.3-3.113 1.958-6.513-1.491-13.4-1.062-20.957 2.742 5.122 3.037 10.264 3.329 16.081 2.957-4.841 3.333-10.296 8.682-14.284 14.721 6.06-.496 15.555-5.683 21.495-12.568-4.317 8.016-7.717 14.845-7.11 23.32 8.284-7.591 12.075-15.99 13.515-24.822 1.121-.788 2.235-1.56 3.341-2.313-3.852 9.796-3.483 15.621-2.065 20.754 5.29-8.924 7.604-14.335 8.51-25.01a256.65 256.65 0 013.562-2.234c-2.67 9.025-2.565 14.544-1.806 19.736 4.213-6.947 6.681-12.242 7.89-23.346.946-.54 1.887-1.07 2.825-1.586-3.042 11.492-2.678 16.17-2.264 20.36 4.63-6.947 7.346-12.231 9.02-23.92a186.409 186.409 0 013.207-1.572c-3.851 11.402-3.783 16.11-3.634 20.332 5.114-6.672 8.177-11.784 10.604-23.483a166.19 166.19 0 014.013-1.65c-4.894 10.909-5.328 15.53-5.632 19.683 5.725-6.363 9.316-11.29 12.937-22.392 1.486-.513 2.97-1.004 4.459-1.473-7.659 11.31-7.992 16.206-9.088 20.549 7.812-6.192 10.647-10.832 17.648-23.016 1.605-.42 3.217-.819 4.835-1.198-8.544 9.432-9.029 12.274-11.496 17.194 8.895-5.618 12.518-7.49 20.815-19.157.873-.164 1.75-.324 2.63-.48-2.565 3.478-3.413 5.714-5.06 8.73 6.274-3.661 9.973-5.627 14.525-10.233 2.235-.319 4.5-.616 6.793-.898l1.002 3.081c-3.735.917-7.635 2.377-11.811 4.725 3.366.42 7.413.597 11.115.665-.732.575-1.457 1.155-2.178 1.735-7.597.256-15.386 1.156-24.478 6.269 5.008.626 11.518.713 16.163.702-.863.756-1.719 1.514-2.566 2.277-10.916-.664-20.334.744-25.617 4.204 9.067 1.222 13.921.918 20.07.94-.784.752-1.564 1.507-2.335 2.265-11.8-.912-21.416-.225-27.146 3.529 9.262 2.845 14.425 2.623 21.461 2.251-.919.968-1.828 1.94-2.725 2.918-11.835-1.359-21.479-1.034-27.222 2.513 9.623 3.314 14.821 3.151 22.293 3.037a216.498 216.498 0 00-3.341 3.977c-9.368-2.125-17.824-1.903-26.661 1.007 7.628 3.893 14.756 3.822 22.765 3.873a226.447 226.447 0 00-2.99 3.946c-12.93-2.1-20.857-.82-27.071 1.716 8.747 4.192 15.728 3.964 22.936 4.06a223.737 223.737 0 00-2.687 3.97c-13.262-2.688-19.281-2.754-25.653-.254 6.085 5.168 12.71 5.551 22.366 5.383a218.482 218.482 0 00-2.372 3.9c-13.34-2.092-18.728-1.664-25.601 1.039 6.545 5.703 12.137 5.388 22.119 5.033a224.461 224.461 0 00-2.203 4.075c-10.535-1.843-19.205-1.275-24.555 1.635 8.142 5.34 16.946 4.468 21.753 3.861a219.856 219.856 0 00-1.575 3.256c-6.53 2.845-12.149 7.75-16.174 16.3 6.78-.531 14.468-6.44 20.586-11.893-.831 8.038-1.07 17.41 2.358 23.036 4.173-6.63 4.284-17.015 3.341-27.82.434-.986.875-1.966 1.325-2.94.39 7.216 1.587 14.859 5.142 19.504 3.383-7.133 2.005-17.917-.435-28.971.446-.837.9-1.668 1.356-2.494 2.03 12.388 4.667 16.792 7.126 20.702 2.245-8.837 1.24-17.018-2.685-28.308.774-1.26 1.56-2.507 2.357-3.74 1.68 13.366 4.319 17.864 6.781 21.838 2.42-8.729 1.507-16.894-2.275-28.5.973-1.38 1.96-2.742 2.96-4.084 1.021 14.845 3.588 19.575 5.983 23.729 2.887-9.02 2.19-17.439-1.386-29.676a201.895 201.895 0 013.422-4.151c.572 13.764 2.515 20.357 4.67 24.338 2.092-7.879 2.4-17.152 1.235-31.027.908-.984 1.82-1.957 2.738-2.917-1.062 14.51.196 21.43 1.974 25.622 3.032-7.94 4.308-17.485 4.553-32.167 1.146-1.1 3.194-2.181 4.346-3.241l-3.19 121.373h5.074l.16-6.115c2.704-1.79 5.935-4.023 8.333-5.173 1.553.744 12.547 7.926 13.242 7.837.624-.589-.78-2.5-2.917-4.89 2.814-1.843 6.35-4.326 8.923-5.56 3.281 1.574 8.339 5.222 11.211 6.929l.859 33.473h5.073c-1.24-48.184-2.466-95.704-3.703-143.725.813.58 1.681 1.082 2.617 1.493.116-3.158-.65-6.282-1.96-9.53a167.8 167.8 0 014.723 4.564c-1.365 6.428-2.287 13.294 2.393 17.873 2.465-3.359 3.05-7.394 3.12-12.07.958 1.056 1.908 2.13 2.851 3.22-1.551 7.424-2.368 15.125 1.596 20.824 2.552-3.842 3.463-8.604 3.894-14.15a188.549 188.549 0 013.127 4.106c-2.242 7.45-3.854 15.31-.27 21.472 2.987-3.791 4.266-8.734 5.147-14.565.942 1.4 1.874 2.824 2.795 4.27-2.735 7.947-5.121 16.521-1.534 23.15 3.35-4.102 4.778-9.542 5.894-15.99.86 1.478 1.707 2.98 2.544 4.504-3.047 7.942-5.87 17.172-1.914 24.761 3.555-4.056 5.52-9.095 6.505-15.948.702 1.423 1.395 2.86 2.077 4.318l-.462.472c-1.957 10.016-3.939 19.016-1.979 26.087 3.037-3.86 4.981-10.402 5.677-19.35.46 1.069.912 2.146 1.362 3.235-.326 8.422 1.249 14.106 4.924 17.876 3.167-4.332 2.893-9.636.984-16.742 5.802 4.7 10.585 7.147 15.873 5.987-1.948-4.848-6.457-8.562-14.186-11.648-.386-.82-.77-1.633-1.153-2.441l.551.67c10.477 4.224 17.978 6.267 24.263 3.679-4.972-4.896-13.353-7.496-26.731-8.35-.7-1.448-1.4-2.877-2.102-4.288 10.356 2.851 19.663 5.62 26.987 3.916-5.254-4.785-15.256-7.801-29.36-8.617a316.095 316.095 0 00-1.797-3.44l.015.016c10.647 2.81 19.025 3.886 26.921 1.375-5.436-4.498-15.506-6.963-30.043-7.07a219.357 219.357 0 00-2.592-4.47c10.108 2.42 18.555 3.346 26.078.83-5.414-4.334-15.644-6.793-29.792-6.804a178.365 178.365 0 00-2.98-4.45c9.015 1.709 16.28 2.154 22.977-.97-4.897-4.03-14.016-5.81-26.987-4.568a163.144 163.144 0 00-3.254-4.162c7.94.433 13.443 1.066 19.574-.917-4.75-3.944-12.163-5.88-24.143-4.493a170.25 170.25 0 00-3.454-3.796c4.08-.029 7.647-.374 11.424-1.743-3.864-2.985-9.353-4.657-17.386-4.33a205.967 205.967 0 00-4.111-3.89c2.617-.054 5.117-.366 7.742-1.15-3.354-2.917-8.115-4.824-15.005-5.249a262.33 262.33 0 00-6.134-5.022l.14-.433c3.37 1.414 6.527 2.386 10.191 2.645-1.643-3.049-4.301-5.826-8.371-8.242l.59-1.82a26.698 26.698 0 004.495 1.69 18.202 18.202 0 00-1.584-3.676c.957.115 1.912.237 2.866.37 1.59 5.664 3.967 10.629 7.735 13.99.282-4.073-.003-8.34-.745-12.824.722.14 1.443.283 2.164.432 1.456 8.948 3.99 17.291 9.498 22.206.44-6.344-.497-13.164-2.392-20.538 1.286.338 2.565.691 3.839 1.06 1.387 9.917 3.85 19.434 9.894 24.827.48-6.938-.686-14.445-2.949-22.62 1.56.539 3.109 1.106 4.646 1.696.465 9.708 2.053 19.05 7.39 24.84 1.119-6.65.751-13.986-.602-22.044 1.34.59 2.67 1.2 3.985 1.828.532 11.328 2.196 22.108 7.334 28.886 1.063-7.686.782-16.124-.409-25.356 1.191.646 2.37 1.307 3.536 1.984.444 11.968 2.003 23.528 7.409 30.66 1.104-7.982.758-16.774-.55-26.424.908.597 1.806 1.203 2.696 1.817.455 11.878 2.031 23.325 7.4 30.407 1.056-7.653.783-16.05-.394-25.232 1.14.898 2.264 1.812 3.364 2.739-.343 11.146.486 21.767 5.134 28.434 1.494-6.822 1.93-14.248 1.632-22.309.873.85 1.729 1.708 2.568 2.575-.736 9.483-.286 18.536 4.163 24.206 1.532-5.122 2.243-10.646 2.366-16.594 3.629 6.591 9.418 14.712 15.649 17.425-.88-9.04-5.371-15.359-10.88-19.713l1.458-1.616c5.97 2.222 11.565 3.3 16.914 2.938-5.361-6.662-11.386-8.955-21.677-10.648a72.319 72.319 0 00-2.714-3.305c8.84 1.502 16.929 2.257 23.932.115-10.617-4.843-20.673-6.24-29.448-5.846a94.031 94.031 0 00-3.044-2.76c8.627.396 16.54.097 23.448-2.646-10.819-3.54-21.085-3.911-30.113-2.682a118.898 118.898 0 00-3.915-2.766c8.724-.578 16.463-1.599 23.546-5.301-11.17-2.251-21.279-1.488-30.39.97a141.407 141.407 0 00-4.368-2.474c8.497-1.014 16.296-2.614 23.115-6.432-11.144-1.828-21.702-.39-30.921 2.478a164.304 164.304 0 00-4.262-1.933c9.02-1.19 17.228-3.245 24.427-7.275-11.972-1.965-23.158.488-32.828 3.875-1.125-.421-2.261-.83-3.405-1.231 7.856-1.958 15.618-4.595 21.33-9.232-10.305-.843-21.012 2.442-29.125 6.699-1.53-.46-3.077-.905-4.637-1.33 6.014-1.774 13.037-4.434 18.926-10.08-10.792-.517-20.222 3.296-27.203 8.027a194.968 194.968 0 00-6.185-1.282c7.307-1.999 13.74-4.613 19.039-9.415-8.573-.965-16.7 1.118-24.01 4.674l-3.92-1.716c.054.443.109.887.166 1.329l-3.528-2.562c5.035.293 10.496-.678 15.848-3.813-5.04-2.275-10.553-1.727-16.452-.7a138.057 138.057 0 0110.032-5.229c3.517 3.264 8.465 3.915 14.505 3.913-1.643-2.723-4.834-5.182-7.629-6.925a135.8 135.8 0 013.516-1.37c3.433 3.885 8.278 5.648 14.962 7.554-1.26-4.295-4.282-7.5-7.768-10.02.965-.302 1.935-.592 2.909-.87 3.582 4.583 8.775 7.606 13.92 10.354-.037-4.504-1.852-8.587-5.987-12.353 1.118-.242 2.238-.472 3.363-.68 3.707 6.435 8.394 11.322 14.067 15.495-.564-6.031-2.836-11.5-7.359-16.548 1.61-.203 3.223-.37 4.837-.5 2.89 8.081 7.104 14.103 12.524 19.203.228-7.132-1.407-13.585-5.469-19.531 1.849-.021 3.695.012 5.537.101 1.116 8.93 3.475 15.626 8.112 21.4.973-6.908.867-13.73-1.74-20.861 1.027.123 2.05.264 3.072.426.303 9.748 2.123 16.895 6.579 23.012 1.554-7.21 1.926-14.325-.468-21.799 1.147.275 2.286.576 3.422.903.086 9.064 1.686 15.834 5.717 21.666 1.627-6.437 2.31-12.798.934-19.406a72 72 0 012.537 1.058c.944 8.182 3.102 14.443 7.311 19.886.964-5.637 1.206-11.215-.036-16.953 5.757 8.173 11.613 15.447 19.682 19.902-3.184-9.77-8.847-17.775-15.306-24.088 5.48.02 10.556-.58 15.213-3.351-8.103-4.455-15.687-3.985-22.905-2.765a50.67 50.67 0 00-4.05-1.964c7.185-2.627 13.66-5.135 18.235-10.32-10.083-.41-17.561 3.794-24.548 8.021a68.566 68.566 0 00-3.894-1.044zM277.89 563.173c-3.37 3.93-8.275 10.285-7.633 10.889 1.179.05 5.463-3.118 9.398-5.623l.989-.33.605 23.57c-2.405-3.3-8.525-9.024-11.586-12.75-.55-.577-1.025-.824-1.605 0a57.37 57.37 0 01-2.122 2.411c-2.894-3.235-7.132-7.346-9.515-10.247-.55-.578-1.025-.825-1.605 0-2.567 3.124-7.283 7.652-10.157 10.978l.497-19.152c2.884-1.864 6.683-4.567 9.405-5.874 2.39 1.147 5.722 3.393 8.465 5.188-2.53 2.756-4.33 5.034-3.636 5.685 1.134.05 10.952-6.738 13.242-7.836 1.506.722 3.387 1.882 5.258 3.091zm-10.65 69.289c.58-.822 1.054-.575 1.605 0 4.146 5.05 13.91 13.765 12.439 15.15-1.198.154-8.828-5.72-13.242-7.839-4.414 2.119-11.653 7.908-13.242 7.838-1.472-1.384 8.292-10.098 12.44-15.15zm-23.708-7.027l.385-14.826c2.925-1.865 6.948-4.758 9.796-6.123 2.336 1.12 12.4 7.945 13.242 7.836.729-.685-1.297-3.169-4.032-6.112 2.62-1.74 5.654-3.816 7.936-4.909 3.132 1.502 7.885 4.899 10.808 6.688l.463 18.036c-2.855-3.343-7.711-7.992-10.328-11.18-.552-.576-1.026-.823-1.605 0-2.526 3.074-7.131 7.506-10.018 10.817-2.64-2.798-5.724-5.886-7.627-8.204-.55-.576-1.025-.824-1.605 0-1.852 2.255-4.824 5.241-7.415 7.977zm17.26-21.477c-2.285-2.387-4.691-4.854-6.277-6.784-.55-.577-1.025-.825-1.605 0-2.216 2.7-6.038 6.445-8.891 9.56l.556-21.438c2.923-1.719 7.763-5.318 11.044-6.893 2.342 1.123 5.587 3.303 8.299 5.081-4.373 4.579-9.384 9.574-8.299 10.594 1.59.068 8.828-5.719 13.242-7.837 3.826 1.834 10.068 6.492 12.443 7.6l.28 10.857c-2.892-3.297-7.427-7.668-9.923-10.708-.55-.577-1.026-.824-1.605 0-2.315 2.818-6.379 6.777-9.264 9.968zm4.214-43.833c-2.896-3.256-7.224-7.447-9.642-10.392-.551-.577-1.025-.824-1.605 0-2.116 2.578-5.695 6.11-8.498 9.134l.494-19.004c2.568-1.71 5.498-3.698 7.714-4.763 2.75 1.32 6.745 4.094 9.658 5.964-3.195 3.376-5.8 6.369-4.989 7.132 1.59.068 8.828-5.72 13.242-7.837 2.456 1.177 5.903 3.517 8.689 5.334l.375 14.628c-2.49-2.617-5.254-5.413-7.009-7.55-.551-.577-1.025-.825-1.607 0-1.71 2.084-4.38 4.793-6.822 7.354zm-19.127-25.017l.565-21.762c.927-.082 2.098-.593 3.183-1.458.428-.342.805-.71 1.122-1.083.423.529 1.293.605 2.305.294-.43.225-.863.507-1.286.845-1.835 1.467-2.73 3.4-1.996 4.317.733.92 2.815.474 4.651-.992 1.835-1.467 2.73-3.4 1.996-4.317-.421-.527-1.292-.605-2.305-.295.43-.225.865-.507 1.287-.846.717-.572 1.292-1.218 1.68-1.845-.034.381.045.717.25.972.733.92 2.815.474 4.65-.991.932-.745 1.622-1.61 1.978-2.4.948-.042 2.183-.558 3.324-1.468a8.09 8.09 0 001.217-1.199c.733.917 2.815.474 4.651-.993.26-.206.5-.422.72-.644l.258.202c.133.39.27.78.405 1.17a9.062 9.062 0 00-.606.442c-.72.574-1.293 1.22-1.681 1.848.033-.382-.045-.718-.249-.973-.734-.919-2.817-.474-4.652.992-1.13.901-1.902 1.98-2.159 2.891-.974-.264-2.559.257-3.994 1.402-1.386 1.108-2.234 2.48-2.253 3.481-.833.185-1.798.66-2.703 1.382-1.835 1.467-2.73 3.4-1.996 4.317.732.917 2.815.472 4.65-.994 1.386-1.105 2.235-2.477 2.254-3.479.834-.187 1.797-.66 2.703-1.383 1.128-.901 1.901-1.98 2.158-2.891.447.122 1.02.079 1.65-.114-.43.225-.866.508-1.287.844-1.836 1.467-2.73 3.4-1.996 4.317.733.918 2.815.474 4.65-.993 1.836-1.465 2.73-3.398 1.997-4.316-.423-.529-1.292-.605-2.306-.296a7.94 7.94 0 001.288-.844c.717-.574 1.293-1.219 1.68-1.848-.034.384.043.718.25.975.666.836 2.455.542 4.155-.626.91 2.227 1.933 4.376 3.145 6.312l.727 28.347c-2.673-2.84-5.838-6-7.776-8.36-.551-.578-1.025-.825-1.605 0-1.459 1.777-3.613 4.007-5.73 6.213-2.814-3.36-7.88-8.19-10.575-11.47-.552-.577-1.025-.825-1.605 0-1.705 2.075-4.357 4.768-6.79 7.317" fill="#fad606" fill-rule="evenodd"/><path d="M622.106 572.738C570.62 638.843 490.279 681.37 400 681.37c-72.309 0-138.236-27.286-188.077-72.11l-68.47 80.35c68.286 60.535 158.114 97.312 256.547 97.312 113.627 0 215.811-48.982 286.597-126.98l-64.491-87.204" fill="#d01e25" fill-rule="evenodd"/><path d="M48.077 433.05l-.18-9.694 15.09-10.832-.048-2.566-15.283.283-.15-8.154 38.891-.72.223 12.09c.051 2.737-.23 5.053-.841 6.946-.611 1.895-1.448 3.43-2.51 4.61-1.062 1.18-2.301 2.04-3.717 2.58-1.417.54-2.923.824-4.52.852-1.407.027-2.693-.158-3.86-.556a10.915 10.915 0 01-3.111-1.624 10.302 10.302 0 01-2.328-2.467 11.176 11.176 0 01-1.455-3.083zm26.458-12.98c1.787-.034 3.165-.573 4.134-1.617.97-1.044 1.437-2.537 1.4-4.476l-.08-4.333-11.062.205.08 4.39c.035 1.863.557 3.308 1.564 4.334 1.008 1.029 2.329 1.526 3.964 1.498zm9.589 37.32l-2-14.923-8.31 1.112 1.932 14.416-6.67.893-1.932-14.416-9.553 1.28 2.082 15.546-7.01.94-3.165-23.63 38.554-5.164 3.081 23.007zm13.73-5.752l-5.893-10.49 4.412-2.72 6.794 9.91zm-13.43 32.175c.778-.181 1.5-.474 2.168-.881a5.071 5.071 0 001.626-1.577c.417-.641.688-1.416.81-2.322.122-.906.051-1.933-.214-3.083l-.923-4-11.727 2.705.885 3.834c.308 1.334.727 2.39 1.257 3.164.53.775 1.122 1.352 1.775 1.727a4.655 4.655 0 002.106.628 7.963 7.963 0 002.238-.195zm8.024-21.286l2.796 12.116c.47 2.037.666 3.983.586 5.835-.08 1.852-.472 3.533-1.178 5.043-.705 1.508-1.74 2.81-3.108 3.906-1.366 1.097-3.087 1.884-5.162 2.363-3.816.88-7.102.38-9.858-1.5-2.756-1.881-4.706-5.305-5.853-10.269l-.898-3.89-13.393 3.09-1.834-7.947zM66.32 518.324c-.633-1.954-.945-3.87-.935-5.753.01-1.882.43-3.666 1.262-5.355.832-1.689 2.131-3.229 3.899-4.621 1.767-1.393 4.116-2.564 7.045-3.513l22.354-7.245 2.515 7.759-22.95 7.438c-2.714.88-4.652 2.117-5.813 3.712-1.162 1.597-1.42 3.389-.776 5.377.4 1.231.956 2.18 1.672 2.847a5.585 5.585 0 002.478 1.355c.936.238 1.964.293 3.083.171a17.503 17.503 0 003.47-.765l22.95-7.439 2.497 7.705-22.245 7.21c-2.858.926-5.41 1.374-7.66 1.342-2.247-.03-4.207-.464-5.877-1.302a12.017 12.017 0 01-4.236-3.543c-1.154-1.525-2.065-3.319-2.733-5.38zm45.5 5.884l4.439 9.823c.83 1.836 1.403 3.59 1.72 5.263.318 1.672.346 3.213.086 4.623a8.506 8.506 0 01-1.68 3.763c-.86 1.098-2.034 1.983-3.525 2.657-1.004.453-1.988.7-2.951.74a7.84 7.84 0 01-2.768-.377 8.744 8.744 0 01-2.501-1.312 10.696 10.696 0 01-2.077-2.034l-.104.047c.438 1.43.61 2.78.517 4.053-.093 1.272-.372 2.432-.838 3.477a8.642 8.642 0 01-1.947 2.757 10.005 10.005 0 01-2.806 1.893c-1.629.735-3.216 1.078-4.762 1.025a10.016 10.016 0 01-4.372-1.155c-1.367-.716-2.616-1.727-3.748-3.03-1.13-1.304-2.096-2.841-2.894-4.608l-5.237-11.59zm-17.193 27.607c1.49-.673 2.472-1.732 2.946-3.177.474-1.446.28-3.12-.58-5.027l-1.598-3.534-10.24 4.626 1.739 3.847c.829 1.836 1.91 3.027 3.241 3.574 1.331.545 2.83.442 4.492-.309zm14.195-8.478c1.316-.595 2.119-1.52 2.407-2.777.287-1.256.056-2.717-.696-4.38l-1.104-2.444-8.576 3.876 1.221 2.702c.798 1.767 1.777 2.87 2.933 3.307 1.157.436 2.429.342 3.815-.284zm16.66 8.297l4.02 7.097-27.691 15.687 7.732 13.646-6.154 3.487-11.752-20.743zm13.674 22.594l4.691 6.672-31.818 22.375-4.691-6.671zm-4.001 57.648c-2.634-1.195-4.944-2.944-6.93-5.25-2.332-2.707-3.873-5.457-4.622-8.25-.75-2.792-.913-5.474-.492-8.044a20.29 20.29 0 012.618-7.185c1.325-2.221 2.894-4.111 4.71-5.675 2.103-1.812 4.432-3.142 6.99-3.99a20.722 20.722 0 017.802-1.035c2.644.156 5.216.827 7.716 2.01 2.5 1.184 4.73 2.914 6.69 5.19 2.084 2.42 3.526 4.967 4.324 7.641.799 2.676 1.048 5.311.747 7.903a20.044 20.044 0 01-2.37 7.386 22.074 22.074 0 01-4.988 6.14c-2.248 1.935-4.723 3.314-7.426 4.138-2.704.822-5.421 1.106-8.152.847l-1.453 8.103-6.74-1.271zm.68-28.138c-1.44 1.24-2.575 2.632-3.404 4.175-.83 1.543-1.338 3.12-1.526 4.738a12.026 12.026 0 00.41 4.804c.462 1.584 1.263 3.039 2.405 4.365.819.95 1.798 1.738 2.938 2.362l1.397-7.904 6.74 1.27-1.551 8.337a13.629 13.629 0 004.477-.92c1.471-.564 2.87-1.417 4.194-2.557 1.412-1.217 2.545-2.581 3.4-4.096.854-1.513 1.387-3.064 1.6-4.653.212-1.587.095-3.18-.351-4.777-.448-1.598-1.28-3.102-2.496-4.513-1.14-1.327-2.461-2.334-3.96-3.025a12.341 12.341 0 00-4.707-1.14c-1.64-.069-3.284.193-4.933.785-1.648.591-3.192 1.508-4.632 2.749zm21.837 53.941c-1.49-1.412-2.681-2.947-3.573-4.604a12.115 12.115 0 01-1.452-5.307c-.078-1.88.327-3.855 1.213-5.922.886-2.07 2.389-4.22 4.507-6.455l16.165-17.055 5.92 5.61-16.597 17.51c-1.963 2.07-3.072 4.083-3.328 6.041-.257 1.957.372 3.654 1.891 5.093.938.89 1.88 1.456 2.83 1.7a5.576 5.576 0 002.823.005c.935-.24 1.865-.682 2.789-1.325a17.283 17.283 0 002.68-2.332l16.6-17.51 5.877 5.573-16.089 16.971c-2.066 2.18-4.094 3.795-6.084 4.843-1.988 1.048-3.916 1.605-5.784 1.667a11.998 11.998 0 01-5.415-1.085c-1.743-.787-3.4-1.927-4.973-3.418zm56.666 4.332l-11.85-9.289-5.173 6.598 11.446 8.973-4.15 5.297-11.447-8.973-5.946 7.587 12.343 9.676-4.363 5.566-18.763-14.708 23.996-30.613 18.27 14.32zm19.909 4.422l7.078 4.049-19.31 33.767-7.08-4.05zm24.522 25.047c.565-1.334.68-2.582.34-3.744-.339-1.161-1.15-2.076-2.431-2.743-1.147-.596-2.268-.75-3.36-.46-1.092.288-1.929.99-2.507 2.103-.667 1.281-.65 2.566.054 3.852.702 1.288 1.814 2.69 3.338 4.211 2.93 3.023 4.63 5.89 5.108 8.601.475 2.712.038 5.367-1.314 7.965-.648 1.248-1.541 2.39-2.68 3.426a11.512 11.512 0 01-3.953 2.349c-1.497.53-3.145.733-4.946.61-1.8-.121-3.714-.708-5.737-1.76-1.72-.895-3.172-1.96-4.35-3.194-1.181-1.235-2.043-2.605-2.59-4.11-.545-1.505-.78-3.116-.701-4.833.079-1.716.514-3.504 1.308-5.362l7.136 3.71c-.673 1.707-.854 3.252-.545 4.634.31 1.382 1.275 2.495 2.894 3.336 1.417.737 2.759.877 4.025.421 1.264-.456 2.213-1.291 2.845-2.506.754-1.45.87-2.869.347-4.255-.521-1.385-1.695-3.003-3.52-4.85-2.844-2.937-4.489-5.71-4.932-8.319-.444-2.61-.053-5.094 1.175-7.456.754-1.45 1.73-2.625 2.927-3.525a10.475 10.475 0 013.92-1.851c1.416-.335 2.917-.38 4.503-.133 1.588.245 3.139.763 4.657 1.553 1.654.859 3.02 1.88 4.098 3.062 1.078 1.182 1.87 2.461 2.375 3.838.506 1.377.704 2.83.594 4.36-.109 1.528-.524 3.07-1.245 4.622zm16.225-3.47l7.606 2.941-11.478 29.684 14.63 5.657-2.551 6.596-22.236-8.598zm36.16 12.918l7.345 2.118 2.973 41.342-8.055-2.324-.455-9.331-13.809-3.984-5.41 7.64-7.892-2.276zm-8.526 22.769l10.028 2.892-.49-9.817a91.462 91.462 0 01-.115-3.209 90.565 90.565 0 01.003-2.996l-.272-.08a68.067 68.067 0 01-3.47 5.233zm65.724 27.75l-7.801-1.046.671-19.187c.01-.651.027-1.359.054-2.122l.076-2.292a137.02 137.02 0 01.214-4.172l-.339-.045a231.038 231.038 0 00-1.667 4.063 80.247 80.247 0 01-1.795 4.162l-8.126 18.132-5.653-.757-3.143-19.929a122.41 122.41 0 01-.627-4.112 71.179 71.179 0 01-.47-4.437l-.452-.06a248.817 248.817 0 01-.832 4.06 365.768 365.768 0 01-.88 3.997l-4.562 19.012-7.293-.977 9.744-37.94 8.932 1.196 3.215 18.96c.191 1.138.391 2.373.595 3.705.206 1.332.371 2.543.493 3.634l.227.03c.404-1.02.893-2.163 1.465-3.428.574-1.267 1.078-2.389 1.516-3.366l7.978-17.46 8.875 1.188zm10.798-38.449l8.134.618-2.943 38.787-8.134-.617zm42.007 38.588c-2.601 1.265-5.423 1.926-8.465 1.982-3.572.065-6.673-.504-9.3-1.71-2.627-1.207-4.796-2.793-6.507-4.758a20.336 20.336 0 01-3.857-6.603c-.864-2.437-1.317-4.853-1.361-7.248-.051-2.776.413-5.418 1.394-7.927a20.699 20.699 0 014.184-6.666c1.808-1.935 3.967-3.486 6.474-4.655 2.508-1.167 5.263-1.78 8.267-1.835 3.194-.059 6.074.458 8.642 1.552 2.568 1.093 4.753 2.584 6.558 4.47a20.054 20.054 0 014.171 6.54 22.06 22.06 0 011.54 7.76c.056 2.964-.464 5.751-1.557 8.357-1.092 2.606-2.61 4.878-4.552 6.815l5.307 6.291-5.282 4.376zm-21.222-18.49c.035 1.9.382 3.663 1.04 5.286.657 1.623 1.549 3.023 2.672 4.2a12.047 12.047 0 003.96 2.751c1.514.657 3.144.969 4.893.937a10.482 10.482 0 003.695-.753l-5.19-6.123 5.282-4.376 5.425 6.518a13.606 13.606 0 002.15-4.033c.505-1.493.741-3.113.71-4.862-.035-1.862-.362-3.606-.981-5.23-.62-1.624-1.474-3.025-2.559-4.203a11.761 11.761 0 00-3.902-2.78c-1.515-.675-3.204-.996-5.067-.961-1.749.032-3.368.404-4.856 1.116a12.342 12.342 0 00-3.883 2.895c-1.1 1.219-1.949 2.65-2.544 4.297-.598 1.647-.88 3.42-.845 5.321zm55.417 16.391c-2.025.347-3.967.381-5.827.102a12.097 12.097 0 01-5.12-2.017c-1.552-1.065-2.89-2.572-4.016-4.52-1.123-1.948-1.945-4.44-2.466-7.475l-3.968-23.162 8.04-1.377 4.073 23.78c.481 2.81 1.429 4.904 2.842 6.283 1.413 1.378 3.15 1.89 5.21 1.538 1.274-.219 2.293-.635 3.057-1.247a5.584 5.584 0 001.695-2.259c.37-.892.572-1.9.61-3.026a17.344 17.344 0 00-.26-3.544l-4.073-23.779 7.982-1.367 3.95 23.048c.506 2.961.584 5.552.23 7.772-.351 2.221-1.062 4.098-2.13 5.631a12.016 12.016 0 01-4.113 3.686c-1.675.923-3.58 1.567-5.716 1.933zm36.959-42.244l-14.467 4.173 2.323 8.056 13.975-4.031 1.865 6.466-13.974 4.031 2.671 9.262 15.07-4.348 1.96 6.796-22.906 6.607-10.781-37.374 22.304-6.434zm28.1-17.329c3.187-1.44 6.205-2.241 9.054-2.401 2.848-.16 5.46.193 7.833 1.06a17.297 17.297 0 016.264 3.962c1.803 1.772 3.251 3.872 4.347 6.297 1.08 2.39 1.672 4.856 1.776 7.396.105 2.54-.32 4.995-1.272 7.366-.952 2.37-2.425 4.58-4.422 6.629-1.994 2.048-4.551 3.777-7.67 5.186l-12.058 5.448-16.016-35.448zm12.796 29.017c2.079-.94 3.756-2.053 5.032-3.338 1.275-1.285 2.181-2.654 2.714-4.106.534-1.45.735-2.97.6-4.558a14.132 14.132 0 00-1.233-4.668c-.75-1.663-1.695-3.062-2.834-4.196a10.665 10.665 0 00-3.885-2.501c-1.45-.534-3.059-.725-4.825-.573-1.769.151-3.657.681-5.668 1.589l-4.469 2.02 10.097 22.35zm34.118-45.154l-13.1 7.423 4.133 7.294 12.654-7.169 3.318 5.856-12.654 7.17 4.751 8.386 13.646-7.731 3.487 6.153-20.744 11.751-19.173-33.844 20.197-11.442zm68.386-10.579l-6.195 4.856-13.268-13.876c-.46-.461-.954-.969-1.483-1.52l-1.586-1.655a100.11 100.11 0 01-1.53-1.628c-.49-.533-.926-1.012-1.31-1.437l-.269.21a248.714 248.714 0 001.748 4.03 79.904 79.904 0 011.725 4.191l7.309 18.477-4.489 3.519-16.46-11.664c-1.051-.723-2.18-1.53-3.385-2.421a71.455 71.455 0 01-3.505-2.761l-.36.281a212.189 212.189 0 012.328 3.43 329.519 329.519 0 012.247 3.422l10.426 16.538-5.79 4.539-20.36-33.464 7.09-5.56 15.82 10.936a264.26 264.26 0 013.07 2.16 90.215 90.215 0 012.944 2.185l.181-.141a80.254 80.254 0 01-1.432-3.444c-.507-1.294-.957-2.439-1.352-3.434l-6.93-17.902 7.048-5.525zm-14.536-40.7l5.258-5.547 38.08 16.371-5.768 6.085-8.496-3.887-9.888 10.43 4.298 8.317-5.651 5.961zm16.298 18.042l7.182-7.574-8.946-4.078a88.008 88.008 0 01-5.561-2.755l-.196.205a68.061 68.061 0 013.051 5.487zm41.088-22.339c-1.266 1.616-2.684 2.946-4.25 3.99a12.101 12.101 0 01-5.147 1.942c-1.865.253-3.869.036-6.01-.653-2.143-.687-4.426-1.982-6.85-3.881l-18.494-14.497 5.032-6.42 18.988 14.884c2.245 1.76 4.354 2.675 6.326 2.748 1.971.073 3.603-.714 4.893-2.36.798-1.019 1.274-2.01 1.427-2.976a5.571 5.571 0 00-.26-2.812c-.326-.91-.854-1.793-1.58-2.654a17.554 17.554 0 00-2.572-2.45l-18.988-14.884 4.997-6.373 18.403 14.426c2.366 1.853 4.162 3.72 5.392 5.603 1.23 1.882 1.964 3.75 2.202 5.603a12 12 0 01-.572 5.493c-.621 1.808-1.6 3.567-2.937 5.271zm29.826-46.241l-5.189 8.19-18.56.734-1.374 2.167 12.914 8.18-4.365 6.89-32.86-20.816 6.47-10.214c1.466-2.313 2.976-4.092 4.53-5.336 1.553-1.244 3.097-2.066 4.633-2.465 1.536-.4 3.045-.436 4.523-.106 1.48.33 2.893.922 4.243 1.777 1.188.753 2.16 1.616 2.916 2.59a10.904 10.904 0 011.7 3.07 10.22 10.22 0 01.585 3.34 11.113 11.113 0 01-.483 3.374zm-29.234-3.733c-1.508-.957-2.956-1.266-4.34-.928-1.386.339-2.598 1.327-3.634 2.965l-2.32 3.662 9.347 5.92 2.35-3.709c.997-1.574 1.359-3.067 1.083-4.48-.276-1.412-1.104-2.555-2.486-3.43zm-3.032-19.422l3.76-7.236 34.515 17.943-3.762 7.237zm16.142-16.5l-3.84 8.404-6.432-2.94 11.122-24.33 6.43 2.941-3.864 8.456 28.944 13.232-3.414 7.47zm5.132-32.416l2.48-7.231 41.437-.924-2.718 7.931-9.343-.01-4.663 13.597 7.364 5.781-2.665 7.768zm22.32 9.642l3.384-9.872-9.83.005a84.158 84.158 0 01-6.203-.198l-.09.27a68.351 68.351 0 015.052 3.722zm-1.832-35.147c.45.078 1.007.154 1.667.228.664.075 1.333.16 2.01.257.679.098 1.338.192 1.978.282.642.09 1.187.174 1.635.25l19.058 3.266-1.185 6.915-38.34-6.568 1.186-6.916 18.3-7.86a94.266 94.266 0 013.96-1.665c1.137-.442 2.148-.827 3.035-1.158.886-.33 1.665-.6 2.337-.814.673-.213 1.275-.407 1.808-.586l.03-.17a55.16 55.16 0 00-1.664-.255l-1.891-.268-1.867-.261a54.323 54.323 0 01-1.522-.232l-19.676-3.371 1.185-6.914 38.34 6.569-1.186 6.914-16.685 7.21c-1.91.792-3.53 1.459-4.857 2.004-1.328.543-2.465.995-3.414 1.353-.95.358-1.754.664-2.413.917-.662.254-1.258.47-1.79.648zm-6.82-34.132l1.084-8.084 38.553 5.164-1.083 8.083zm9.598-36.397l-.282 15.054 8.382.157.273-14.54 6.729.124-.271 14.543 9.637.179.292-15.682 7.072.132-.445 23.837-38.892-.725.434-23.21 7.07.131" fill="#fad606"/></svg>