<svg xmlns="http://www.w3.org/2000/svg" width="673.96" height="864.81" viewBox="25 78 673.96 864.81"><g fill-rule="evenodd"><path d="M44.069 22.713h169.303l-.201 120.795c1.408 48.558-28.777 78.69-84.317 92.276-39.441-9.819-84.92-30.132-84.986-90.899l.2-122.172z" fill="#00a2bd" stroke="#000" stroke-width="1pt" transform="matrix(3.94664 0 0 4.03538 -145.635 -11.162)"/><path d="M691.292 625.685C666.985 812.73 526.102 894.454 362.897 937.83 218.432 898.207 63.017 834.948 32.89 626.626l658.402-.94z" fill="#a53d08"/></g><path d="M206.018 170.821l130.412.476-.93-61.435 47.509.476.465 60.96h129.947l.466 47.623-130.413.476-1.042 561.647-46.341.298-.592-562.421-129.509.476.028-48.576z" fill-rule="evenodd"/><path d="M231.23 648.865l118.95 126.174c41.132-46.225 12.602-219.008-41.498-250.831-6.485 20.46-17.512 44.99-29.233 52.9-25.787 17.97-88.98 38.977-67.858 52.431 4.817-6.82 17.416-13.26 23.345 1.897 7.04 23.87-26.31 25.387-26.31 25.387s-21.122-2.656-24.828-24.632c-3.706-21.973 31.461-42.037 34.463-43.57 2.964-1.138 48.914-13.64 56.697-55.321 9.633-40.923 19.638-34.858 21.493-35.617 60.028 6.061 99.31 115.945 101.535 193.238 2.222 77.294-30.756 128.447-36.688 131.857-5.928 3.41-143.037-166.335-143.037-166.335l12.97-7.578z" fill="#ff9a08" fill-rule="evenodd" stroke="#000" stroke-width="2.663"/><path d="M317.944 531.407l.738 227.716M304.605 535.571c0 .38.738 206.882.738 206.882M290.152 565.506l.738 164.442M278.293 577.249l.742 136.029M265.695 583.314v114.807M251.98 592.41v90.933M240.124 599.609v69.715" fill="none" stroke="#000" stroke-width="2.663"/><path d="M229.378 663.263l122.657 143.603" fill="none" stroke="#ffdf00" stroke-width="2.663" stroke-linecap="round"/><path d="M357.963 572.705s55.589 124.282 4.077 226.583M214.925 637.118s4.077-10.989 9.265-6.44M205.29 605.29s-22.233 20.08-10.004 32.966" fill="none" stroke="#ffdf00" stroke-width="4.988" stroke-linecap="round"/><path d="M218.788 64.643c.478-.41.726-.66 1.022-.615.296.046.699.023.995-.068.297-.091 1.766-.274 2.37-.069.205.023.478.137.899.49.422.353 1.037.969.832 2.677-.205 1.708-.138 2.44-.228 3.394-.159 1.686-.533 3.074-1.207 2.962.911 1.595 1.002 2.961 1.594 4.055.593 1.093.957 3.326.729 5.74-.227 2.415-.865 7.837 1.048 11.482-.319.228-1.093 0-1.777-.729-.683-.729-.983-.705-1.549-.273-1.731 1.321-3.352 2.914-5.74 1.321-.547-.364-.72-.802-.319-1.914 1.002-2.779 1.489-6.592 1.331-8.383v-20.07z" fill="#008021" stroke="#000" stroke-width=".063" transform="matrix(17.22679 0 0 17.61415 -3385.189 -849.396)"/><path d="M220.43 62.935c.125.387.193.888-.012 1.344-.205.455-.25 1.002.091 1.663.547-.775 1.322-.615 1.777-1.07.456-.457.547-.89.889-.98-.342-.297-.866-.616-.752-1.481.114-.866 1.321-1.572.228-2.894-.706-.852-1.732-.615-2.176-.284a1.578 1.578 0 00-.455.524c-.069.148.017.485-.149.683a2.24 2.24 0 01-.41.387c-.102.074-.166.182-.057.308.044.05.124.06.212.091a1.782 1.782 0 01-.166.28c-.054.069-.031.135.034.192-.086.273.08.303-.034.508-.099.177-.233.387.137.592.102.057.587.17.843.137zM215.999 67.468c-.638.16-1.663-.114-2.438-.023-.342.04-.615-.136-.569-.478.045-.342.091-.866.022-1.344-.106-.746.251-1.777.752-2.916.501-1.14.752-1.777.752-2.312 0-.353.034-.752.353-.957.236-.152.281-.299.365-.422.193-.284.375-.353.398-.182.014.102-.023.194-.114.33.205-.17.553-.37.632-.427.08-.057.485-.341.507-.074.16-.08.268-.074.308.012.043.092.017.13-.063.199.114-.023.245.177.017.353.12-.04.239.16.029.342-.218.188-.467.319-.547.467-.08.148-.621.564-.837.655-.217.09-.228.216-.228.535 0 3.508-.421 3.223-.421 4.067 0 .227-.046.432.182.364.228-.068.558-.17.9-.17v1.981zM216.135 75.031c1.03-.515 2.21-.706 2.825-.865.615-.16 1.595-.638 2.073-.889.479-.25.866-.592 1.139-.683.274-.091.58-.28.752-.615.888-1.732 1.367-3.121 1.367-4.329 0-.797-.205-1.686-.98-1.048-.728.6-1.521 1.756-1.731 2.597-.319 1.276-.592 1.55-.661 1.8-.068.25-.326.25-.638.319-1.344.296-1.663.501-2.665 1.253a26.855 26.855 0 01-2.825 1.822c-.729.41-.865.456-1.025.786-.159.33-.307.581-.444.73a.575.575 0 00-.148.5c.023.149-.046.832-.057 1.06-.012.228.045.285.137.296.091.011.216-.034.262-.308-.046.274.33.183.353-.022-.012.296.387.125.41-.148 0 .193.302.06.33-.035.068-.227.125-.478.216-.66.133-.265.275-.607.536-.798.296-.216.159-.455.774-.763zM223.516 93.689c.069.25.194.535.239.706.046.17-.034.224-.079.319-.239.501-.496 1.3-.536 1.731-.022.25-.193.49-.273.638-.088.163-.054.29.148.444.097.074.41-.023.444-.182.114.114.319.068.41-.102.103.102.274.034.388-.137.102.068.25-.068.307-.16.16.08.331-.017.336-.33a.583.583 0 01.086-.245c.045-.074.062-.216.057-.342-.006-.125.074-.375.182-.552.108-.177.296-.49.216-.786-.074-.276-.193-.25-.296-.65-.25-.261-.592-.626-.945-.648-.353-.023-.558.216-.684.296zM217.035 95.648c.319.319 1.037.33 1.538-.205-.182-.08-.581-.262-.763-.41-.251.25-.536.535-.775.615z" fill="#ffe1cf" stroke="#000" stroke-width=".063" transform="matrix(17.22679 0 0 17.61415 -3385.189 -849.396)"/><path d="M220.259 59.426c.125-.808.698-.79 1.059-.706.148.034.513.068.854-.023.676-.18 1.185.057 1.117.707.182.136.375.455.341.729-.034.273.023.387.274.421.25.034.786.342.432.775.342.205.604.729.422 1.082-.182.353-.729.41-.957.09-.25.115-.661.137-.911-.124-.171.204-.604.182-.684 0a.572.572 0 00-.375-.33c-.183-.058-.194-.559.079-.616-.034-.148-.022-.319.046-.398.068-.08.011-.228-.148-.354-.16-.125-.296-.603-.137-.865-.273.09-.877-.171-1.002-.353-.126-.183-.296-.194-.41-.035z" fill="#870f00" stroke="#000" stroke-width=".063" transform="matrix(17.22679 0 0 17.61415 -3385.189 -849.396)"/><path d="M220.43 62.935c.444-.057.592-.33.922-.308M219.484 61.698a.602.602 0 00.108.07c.09.048.188.053.279.065M219.616 61.226a.456.456 0 01.187.114M220.646 59.426c-.262-.25.444-.763 1.185-.034.138.136.489.137.592.103M221.671 59.814c.342-.08.854-.08 1.002.307.149.387.445.137.684.593.239.455.615.968.979.615M222.89 62.377c-.103-.137-.148-.433-.08-.638-.137-.16-.08-.49 0-.65M221.91 61.431c.012.137.194.387.479.433M223.801 62.502c-.159-.205-.137-.387-.102-.638" fill="none" stroke="#000" stroke-width=".063" transform="matrix(17.22679 0 0 17.61415 -3385.189 -849.396)"/><path d="M222.138 60.235c-.011.205.114.479.33.57a.707.707 0 00.729.387M223.289 59.404c-.25-.194-.589-.433-1.037-.492M220.509 65.942c-.387.524-.638 1.253-.455 2.278.182 1.025.478 2.528-.274 3.212M223.471 73.414c-.524-.114-1.276-.114-1.686.182-.41.296-1.094.319-1.549.091" fill="none" stroke="#000" stroke-width=".063" transform="matrix(17.22679 0 0 17.61415 -3385.189 -849.396)"/><path d="M222.366 73.38c-.456.08-.672.398-.672 1.241 0 .843-.182 2.073-.023 3.28M221.534 73.733c-.296.08-.603.09-.546.888M219.997 74.644c.011-.49.182-.945.501-.866M223.277 74.735c.023-1.082-.216-1.39-.535-1.378.433.011.728.064.911 1.834.137 1.321.413 1.789.729 2.825.82 2.688.41 6.834.82 8.292M222.651 75.054c.865 2.506 1.321 5.285-.091 9.75.956 2.643 1.913 4.556 2.095 5.65M219.917 80.977c.159-.57-.41-.638.091-2.643.217-.868.251-1.39.114-1.662M220.122 77.856c-.205.889.661 2.552.228 3.759M219.279 81.843c0 .774.182 1.777.137 2.551-.046.775.27 1.134.638 1.868 1.321 2.643 2.22 4.528 2.095 7.017-.022.455.137 1.412-.341 1.685M219.313 95.636c.137.012.285-.056.456-.466.171-.41.718-2.87.49-4.557M220.532 92.527c.068.524.068 1.594-.273 2.437M221.398 90.955c.205 1.116.182 2.119.023 2.825M220.942 93.78c.023.455.228 1.594-.114 1.686M222.651 88.495c.842 1.321 1.503 4.579 2.209 5.262M223.38 93.233c-.023-.364-.046-.866-.251-1.093M214.279 77.287c.011-.251-.034-.49.239-.877M213.869 77.435c.034-.877.022-.957.273-1.196M213.516 77.457c.011-.626-.069-.842.182-1.241M216.659 58.663a39.23 39.23 0 00-.905.678M216.904 58.874c-.108.017-.421.273-.979.706M216.921 59.227c-.176.08-.512.405-.82.62M215.52 59.164c-.085.063-.25.245-.33.308M223.459 97.345c-.051-.057-.051-.256.04-.478M223.869 97.243c-.062-.063 0-.336.063-.513M224.257 97.106c-.074-.034-.097-.194.011-.41M224.564 96.946c-.051-.017-.074-.102.017-.353" fill="none" stroke="#000" stroke-width=".063" transform="matrix(17.22679 0 0 17.61415 -3385.189 -849.396)"/><path d="M406.118 209.99c2.842 3.811 5.788 3.408 6.305 5.865.516 2.46.895 2.635 1.447 3.364.55.728-1.344.582-2.274.189-.913-.393-3.222-.353-4.634-.331-1.396.02-3.067-1.667-2.016-1.866 1.034-.197.896-.53.74-1.279-.154-.746.587-1.928 1.017-2.145.448-.217.138-.176-.258-1.178-.414-1.004-.93-3.44-.327-2.62zM407.84 206.498c3.187.383 8.682 2.142 11.663 5.515 2.343 2.653.43 1.95-.758 2.049-1.189.102-3.515-.76-4.686-2.267-1.154-1.506-4.617-3.415-6.46-3.912-1.12-.296-2.17-1.675.241-1.385z"/></svg>