<svg xmlns="http://www.w3.org/2000/svg" xmlns:xlink="http://www.w3.org/1999/xlink" width="414.213" height="331.248"><defs><linearGradient id="a"><stop offset="0" stop-color="#de2110"/><stop offset=".5" stop-color="#fff"/><stop offset="1" stop-color="#de2110"/></linearGradient><linearGradient xlink:href="#a" id="e" gradientUnits="userSpaceOnUse" x1="120.884" y1="194.42" x2="340.457" y2="194.42"/></defs><path d="M283.103 98.52c-4.048.256-8.099 2.987-11.969 8.53v5.72c4.167-3.98 6.788-8.965 10.906-9.438 3.672-.421 6.718 3.944 7.875 5.875.48-1.966 1.57-3.92 4.063-5.625-3.45-3.396-7.01-5.175-10.563-5.063-.105.004-.206-.006-.312 0z" fill="#fff" fill-rule="evenodd" stroke="#000" stroke-width=".75" transform="matrix(1.67103 0 0 1.58434 -173.716 -10.648)"/><g transform="matrix(1.67103 0 0 1.58434 -2.212 -37.55)"><path d="M128 109h40.5v49.75H128V109z" fill="#ffd600" fill-rule="evenodd"/><g id="b" fill="#006b29" fill-opacity="1" fill-rule="evenodd" stroke="#000"><path d="M137.471 120.063l-.252 17.78 1.77-.045-.364-17.704-1.154-.031z" stroke-width=".75"/><path d="M137.966 119.778c-3.212 2.499-5.334 4.777-4.103 7.498 1.975-1.614 3.9-4.112 4.103-7.498zm-7.347 2.942c2.178-2.04 4.093-2.062 7.347-2.942-3.344-2.2-8.026-1.038-7.347 2.942zm7.347-2.942c2.36-4.622-1.346-9.575-2.815-7.012 1.653 1.347.89 5.355 2.815 7.012zm8.517 1.238c.183-2.15-4.053-4.279-8.517-1.238 4.246-.304 5.952 1.117 8.517 1.238zm-2.083 5.249c-2.232-3.471-1.027-6.755-6.434-6.487.688 1.641 3.41 4.193 6.434 6.487z" stroke-width=".5"/></g><use height="256" width="256" transform="translate(20)" xlink:href="#b" fill="#006b29"/><use xlink:href="#b" transform="translate(9.5 18.5)" width="256" height="256" fill="#006b29"/><path d="M87.5 109H128v49.75H87.5V109z" fill="#2163c6" fill-rule="evenodd"/><g fill="#ffd600"><path d="M109.6 115.984c-.359 0-.391-4.195 0-4.195h3.147c.91 0 1.527.432 1.923 1.223.362.725.524.95.524 2.098 0 1.166.338 1.352.525 2.097.027.111 2.164.35 2.447.35.81 0 1.39-.607 1.923-.874.716-.358 1.118-.63 2.097-.874a4.782 4.782 0 012.448 0c.546.137 1.274 1.499 1.398 1.748.294.587-.084 2.086-.175 2.447-.177.708-.464-1.485-1.049-1.923-1.054-.79-2.043.417-2.272.874-.63 1.26-2.767-1.164-2.797-1.223-.343-.688-.175-1.804-.175-2.622 0-1.038-.794-1.03-1.573-1.224-.851-.213-2.733.465-3.67.7-1.03.257-2.46 1.139-3.497 1.398-.33.082-.864 0-1.223 0z" fill-rule="evenodd" stroke="#000" stroke-width=".5"/><path d="M108.75 111.438v6.812h1v-6.813h-1z" fill-rule="evenodd" stroke="#000" stroke-width=".5"/><rect width="4.401" height="11.472" x="107.155" y="117.632" ry="1.819" rx="1.819" fill-rule="evenodd" stroke="#000" stroke-width=".75" stroke-linecap="round" stroke-linejoin="round" stroke-dashoffset="1"/><path d="M105.469 130.969L99 144.78l.906.438 6.469-13.813-.906-.437z" fill-rule="evenodd" stroke="#000" stroke-width=".25"/><path fill-rule="evenodd" stroke="#000" stroke-width=".75" stroke-linecap="round" stroke-linejoin="round" stroke-dashoffset="1" d="M108.171 128.713h2.539v19.971h-2.539z"/><path d="M102.342 149.352l-4.324 4.417" fill-rule="evenodd" stroke="#000"/><path d="M105.969 130.969l-1.594 16.594 1 .093 1.563-16.594-.97-.093zM111.656 128.656l-.969.156 3.126 18.532 1-.156-3.157-18.532zM112.875 128.438l-.969.25 4.719 17.156.969-.281-4.719-17.125z" fill-rule="evenodd" stroke="#000" stroke-width=".25"/><path d="M91.97 141.5c5.68 14.926 7.531 15.656 16.813 15.656 9.283 0 11.164-.73 16.844-15.656h-7.344c-.784 3.283-2.973 6-9.5 6-6.526 0-8.715-2.717-9.5-6h-7.312z" fill-rule="evenodd" stroke="#000" stroke-width=".5"/><g id="c" fill="#ffd600" fill-opacity="1" fill-rule="evenodd" stroke="#000"><path d="M102.342 149.352l-4.507 4.603"/><path d="M97.469 153.594c-1 .656-2.64 2.328-3.281 3.344-.641 1.015-.282 1.375.718.718 1-.656 2.64-2.328 3.281-3.344.641-1.015.282-1.375-.718-.718z" stroke-width=".5" stroke-linecap="round" stroke-linejoin="round"/></g><use xlink:href="#c" transform="translate(4.5)" width="256" height="256"/><use height="256" width="256" transform="translate(9)" xlink:href="#c"/><use xlink:href="#c" transform="translate(13.5)" width="256" height="256"/><path d="M95.98 137.857v-7.599l7.046 3.406c.234.658-1.688.901-7.046.484v3.709z" id="d" fill="#ffd600" fill-opacity="1" fill-rule="evenodd" stroke="#000" stroke-width=".75" stroke-linecap="butt" stroke-linejoin="miter" stroke-miterlimit="4" stroke-opacity="1" stroke-dasharray="none"/><use xlink:href="#d" transform="translate(24)" width="256" height="256"/><path fill-rule="evenodd" stroke="#000" stroke-width=".5" stroke-dashoffset="1" d="M91.412 137.595h9.274v3.974h-9.274zM116.912 137.595h9.274v3.974h-9.274z"/><path d="M90.406 112.125c1.984 2.358 3.234 5.675 6.438 6.406l.406.219c.028.004.066.027.094.031 3.437.523 7.451 2.768 11.687 5.688 5.959 2.479 8.399 4.377 11.844 6.437a3.494 3.494 0 01-.438.188l.25.156 7.126 1.5c-4.752-3.462-9.195-6.944-17.438-9.969 0 0-5.655-2.337-10.344-5.437-2.911-1.926-6.146-3.732-9.625-5.219z" fill-rule="evenodd" stroke="#000" stroke-width=".5"/><path d="M96.83 118.713c3.545.368 7.743 2.692 12.187 5.755 5.959 2.48 8.405 4.373 11.85 6.433-2.674 1.42-4.928-1.515-5.586-.508-1.24 1.896-4.469-1.114-5.248-.339-4.279 4.257-6.86 2.042-9.31-2.539-4.611-2.934-4.097-5.868-3.894-8.802z" fill-rule="evenodd" stroke="#000" stroke-width=".5"/></g><path d="M87.5 158.75v11.75c4.42 21.234 20.147 34.044 40.5 42v-53.75H87.5z" fill="#ffd600" fill-rule="evenodd"/><path d="M110.531 160.594c-.853.21-1.5 1.021-1.5 1.937 0 .353.086.684.25.969a7.222 7.222 0 00-5.281 5.281 1.93 1.93 0 00-.969-.25 1.932 1.932 0 00-1.937 1.938c0 1.074.863 1.969 1.937 1.969.353 0 .684-.086.969-.25.555 2.27 2.203 4.115 4.344 4.968a3.45 3.45 0 00-.813 2.25c0 1.114.525 2.114 1.344 2.75V198.5h4.219v-4.563h1.656v3h5.781v-3h2.156v3h1.75v-4.75h-5.656v3H116.5v-3h-3.406v-2.25h3.406v-3h2.281v3H124.438v-4.75h-1.75v3h-2.157v-3h-5.781v3h-1.656v-6.062c.81-.638 1.344-1.62 1.344-2.719a3.45 3.45 0 00-.813-2.25c2.14-.853 3.789-2.697 4.344-4.969.28.157.593.25.937.25a1.985 1.985 0 001.969-1.968c0-1.075-.894-1.938-1.969-1.938-.344 0-.657.093-.937.25a7.222 7.222 0 00-5.281-5.281c.156-.28.25-.625.25-.969 0-1.074-.895-1.937-1.97-1.937h-.405c-.014.003-.018-.003-.032 0zm-1.031 4.937h3V169h3.438v2.969H112.5v3.469h-3v-3.47h-3.438V169h3.438v-3.469z" fill="#de2110" fill-rule="evenodd" stroke="#000" stroke-width=".5" stroke-linecap="round" stroke-linejoin="round" stroke-dashoffset="1"/><path d="M128 158.75v53.75c20.353-7.956 36.08-20.766 40.5-42v-11.75H128z" fill="#2163c6" fill-rule="evenodd"/><path d="M146.723 161.344l2.157 6.638h6.98l-5.647 4.103 2.157 6.639-5.647-4.103-5.647 4.103 2.157-6.639-5.647-4.103h6.98l2.157-6.638z" fill="#fff" fill-rule="evenodd"/><path d="M146.688 177.969l-16.72 33.75c11.865-4.897 22.039-11.538 29.126-20.656l-12.406-13.094z" fill="#fff" fill-rule="evenodd"/></g><path d="M190.134 92.02v61.5c4.42 21.233 20.147 34.044 40.5 42 20.354-7.956 36.08-20.767 40.5-42v-61.5h-81z" fill="none" stroke="#000" stroke-linecap="square" stroke-linejoin="round" stroke-dashoffset="1" transform="matrix(1.67103 0 0 1.58434 -173.716 -10.648)"/><g stroke="#000" stroke-width=".75"><path d="M68.836 161.47c12.848.498 18.471-7.262 17.161-22.946v-.474c0-.283.56-.845.759-1.043.283-.283.566-.66.853-.948.204-.204 1.202-.823.569-.19-.274.274-.425 1.272-.474 1.518-.116.579 0 1.306 0 1.896 0 .67-.035 1.342.095 1.991.08.406.75.837.948 1.233.335.67.379.976.379 1.706 0 .52-.285.626-.285 1.233 0 .64-.646 1.243-.758 1.801-.137.686-.366 1.096-.19 1.802.114.456.11.91.19 1.232.117.47.19.754.19 1.328 0 .695-.098.953-.38 1.517-.235.47-.435.775-.663 1.233-.268.534-.075 1.471.094 1.896.167.416.05.807.475 1.232.262.263.477.866.568 1.233.124.495-.083 1.094-.19 1.517-.176.706-.094 1.16-.094 1.802 0 .662.19 1.44.19 2.18 0 .802.094 1.486.094 2.37 0 .683.19 1.299.19 2.087 0 .487-.284 1.036-.284 1.611 0 .424-.089 1.018-.19 1.423-.1.4-1.147.163-1.422.094-.371-.092-.481-.786-.57-1.137-.134-.54-.146-.967-.284-1.517-.123-.495 0-1.19 0-1.707v-1.517-1.707-1.517-1.232c-3.694 3.204-9.078 4.818-17.066 3.982l.095-3.982z" fill="#fff" fill-rule="evenodd" transform="matrix(1.67103 0 0 1.58434 -2.212 -37.55)"/><path d="M69.973 161.564v3.698M72.06 161.66v3.507M79.929 158.91v5.499M83.247 156.065v6.922M86.471 142.412h1.991M86.281 145.446h2.086M85.807 149.523H87.8M85.049 152.557h3.034M86.471 162.607h1.612M86.281 165.641h2.086M86.945 155.117l-3.792.759" fill="none" stroke-linecap="round" stroke-linejoin="round" transform="matrix(1.67103 0 0 1.58434 -2.212 -37.55)"/></g><path d="M61.938 102.5l-1.72 3.625 3.844 1.906-3.03 6.438-3.844-1.906-3.032 6.406 3.875 1.906-3 6.313-3.843-1.907-3 6.375 3.843 1.906-2.843 6.032-3.844-1.906-3.032 6.406L46.188 146l-3.032 6.438-3.843-1.907-3 6.375 3.843 1.875-3 6.375-3.843-1.906-3 6.375 3.843 1.906-2.718 5.813-3.875-1.906-1.125 2.375c.106.026.206.036.312.062.431.108.979 1.212 1.156 1.531.162.292.225.887.375 1.188.173.345.529.777.782 1.156.214.322.307.651.593.938.505.505.538.15.969-.282.366-.366.563-1.107.563-1.625v-1.469c0-.273.314.833.406 1.063.024.06 1.015.465 1.156.5.365.091.666.697.844.875.416.416.092.812.593 1.063.034.016.094-1.583.094-1.75 0-.541.066-1.544.094-1.657.126-.503.55.911.781 1.375.225.45.806.644 1.063 1.156.16.32.49.56.875.657.729.182.843-.11.843-.75 0-.937.209-.533.313.093.11.663.113.682.469 1.157.286.382.216.801.281 1.062.118.472-.004 1.071-.188 1.438-.208.417-.243.65-.656 1.062-.238.238-.218.373-.218.688l.312.062c.402.083.951.125 1.281.125h1.125c.548 0 .708-.093 1.125-.344.263-.157.352-.632.5-.78.236-.236.152-.59.344-.782.223-.223.375-.438.563-.625.358-.359.716-.625 1.28-.625.495 0 .952.034 1.407.125.367.073.81 0 1.188 0 .205 0 .589.248.78.344.464.231-.17-.219-.343-.563-.22-.44-.241-.612-.344-1.125-.079-.394-.099-.76-.281-1.125-.23-.46.215-.933.406-1.125.304-.304.497-.486.719-.781.237-.316.283-.627.563-.906.167-.168.305-.808.343-1 .129-.643.268-.99.625-1.407.225-.261.311-.653.438-.906.171-.343.048-1.008 0-1.344-.07-.482-.287-.628.125-.937.44-.33.538-.482.718-.844.154-.306.157-.59.157-.969 0-.447-.105-.832.187-1.125.318-.317.457-.232.563-.656.118-.474-.03-.96-.125-1.344-.07-.278.513-.694.625-.843.369-.492.64-.5 1.281-.5.708 0 .8.076 1.281.437.284.213.484.3.907.406.38.096.789.455 1.124.657.386.23.745.67 1.188.781.363.09.702.062 1.063.062.38 0 .82-.437 1.218-.437.36 0 .946-.605 1.125-.844.26-.345.44-.754.625-1.125.148-.295.609-.585 1-.781 1.173-.587-.056.034.5-.125.105.418.906.054 1.25.312.282.212.427.303.656.532.163.162.242.513.344.718.19.382.162.714.25 1.157.063.313.147.536.094.75-.016.065.377.533.469.625.214.214.543.262.687.406.183.183.595.313.844.375.306.076.457.187.938.187.528 0 1.11.179.5-.187a1.082 1.082 0 01-.5-.688c-.105-.419-.198-.563-.126-1 .054-.32.1-.47.344-.593.37-.186.478-.451.344-.719-.162-.323-.475-.131-.344-.656.075-.3-.283-.315-.469-.5-.075-.076 1.022-.25.188-.75-.57-.343-.164-.305.219-.688.42-.42-.121-.152-.469-.5-.235-.235-.375-.312-.563-.562-.157-.21.787-.595.907-.625.084-.021-1.175-.424-.281-1.094.635-.477-.078-.738-.344-1.094-.067-.088-.1-.186-.156-.281-.37-.615.087-.613.562-.969.071-.053-.187-.778-.219-.906-.108-.432.27-.656.563-.875.004-.003-.337-.507 0-.844.312-.312.522-.433.625-.844.066-.265 0-.66 0-.937 0-.325-.03-.716-.063-.844-.007-.03-.835 0-.906 0-.424 0-.834.026-1.188-.062-.244-.061-.614.145-.687.531 0-4.547 1.236-6.281-7.281-6.281 0 0 6.467-5.866 6.343-10.344-.099-3.596-1.187-3.023-1.187-6.844 0-4.741 4.394-6.581 4.406-14.562.014-9.285-3.77-13.582-7.344-15.219z" fill="#fff" fill-rule="evenodd" stroke="#000" stroke-width=".75" transform="matrix(1.67103 0 0 1.58434 -2.212 -37.55)"/><path d="M15.118 158.012c-.33-.489-.56-.868-1.29-1.014-.403-.081-1.09-.702-1.384-.922-.567-.426-1.775.032-2.396-.092-1.124-.225-2.286-.27-3.042.184l-.461.276c-.118.071-.246.123-.369.185-.707.353-1.068.884-1.567 1.383-.593.593-.992 1.615-1.383 2.396-.44.88-.645 1.39-.645 2.397 0 .67 1.074-.859 1.383-1.106.457-.366 2.355-.092 2.857-.092.599 0 .153 1.17 0 1.474-.316.634-.728.904-1.014 1.475l-.184.37c-.296.592-.394 1.524-.645 2.027-.364.727-1.044.952-1.567 1.475-.576.576-.725 1.448-1.106 2.212-.33.658-.408 1.67-.554 2.397-.136.68-.024 1.1.093 1.567.159.637 1.274-1.024 1.475-1.29.314-.42.309-.955.645-1.291.75-.75.922.284.922 1.014v4.333c0 1.647.876-.094 1.29-.646.557-.742.922 1.03.922 1.29 0 .404.546 1.469.83 1.752.58.58 1.108.177 1.29-.553.06-.24 1.572-.184 1.844-.184.746 0 1.463-.481 2.12-.645.264-.067 1.41-1.42.553-.277-.164.22-1.728.634-1.936.737-.7.35-.746.99-1.014 1.66-.248.62 1.518 1.257 1.844 1.475.597.397 1.821.187 2.489.092.855-.122 1.902-.614 2.673-.922.563-.225.927-.787 1.475-1.198.81-.608 1.109-1.488 1.29-2.397.147-.734-1.394.556-2.12.737-1.245.312-1.64-.181-1.843-1.198-.216-1.076-.17-1.51-1.107-2.212-.884-.664-1.367-1.353-1.198-2.028.034-.136 1.484.365 2.581 0 1.001-.334 2.063-1.306 2.673-2.12.37-.494.237-1.464 0-1.936-.366-.734-.46-1.851-.46-2.674 0-1.358.358-2.354.092-3.687-.257-1.283-1.859-3.321-2.49-4.424-.399-.7-1.149-.334-1.566 0z" fill="#de2110" fill-rule="evenodd" stroke="#000" stroke-width=".75" transform="matrix(1.67103 0 0 1.58434 -2.212 -37.55)"/><path d="M47.031 71.406c-6.623.24-14.302 4.42-15.531 12.344L30.75 85c-.214.357-.5.667-.75 1-.73.973-1.015 2.529-1.5 3.5-.526 1.052-1.461 2.572.25 3 1.337.334 1.189 1.506 1.5 2.75.332 1.33 1.755 3.612 2 2.5.06-.274 1.705-.485 2.5.5.4.495.252 1.975 2.25.5.343-.253.554 1.663 2 1 .578-.265.381.762.5 1 3.266 4.283 5.943 7.677 6 10 .096 3.93-4.384 4.248-8 5.25-27.71 7.68-24.232 37.543-23.25 41.5 1.903 7.667 4.744 6.126 6.188 11.719 1.111 4.308-.799 4.958 5.937 8.562.023.006.04.026.063.031l1.125-2.375 3.875 1.907 2.718-5.813-3.843-1.906 3-6.375 3.843 1.906 3-6.375-3.843-1.875 3-6.375 3.843 1.906L46.188 146l-3.876-1.906 3.032-6.407 3.843 1.907 2.844-6.032-3.843-1.906 3-6.375 3.843 1.906 3-6.312-3.875-1.906 3.032-6.407 3.843 1.907 3.032-6.438-3.844-1.906 1.718-3.625c-1.216-.557-2.4-.814-3.406-.844-8.588-.254-10.493-6.752-10.718-10.281 3.684 1.18 7.023 3.728 10.28 4.031 2.71.252 5.6 4.739 8.907 6.094 1.29-1.098 9.883-14.567-10.75-18.75 2.971-7.886-2.596-11.584-9.219-11.344z" fill="#de2110" fill-rule="evenodd" stroke="#000" stroke-width=".75" transform="matrix(1.67103 0 0 1.58434 -2.212 -37.55)"/><path d="M43.018 85.246c2.77 6.513 14.177 1.949 17.558 7.9 4.35.963 6.244 3.487 5.443 7.726M61.015 93.322v3.512" fill="none" stroke="#000" stroke-width=".75" transform="matrix(1.67103 0 0 1.58434 -2.212 -37.55)"/><path d="M59.786 88.494c.244.06 1.054-.41 1.054.263 0 .107.263.762.263 1.141 0 .348.096.368.175.527M63.912 87.44v4.302" fill="none" stroke="#000" stroke-width=".75" stroke-linecap="round" stroke-linejoin="round" transform="matrix(1.67103 0 0 1.58434 -2.212 -37.55)"/><path d="M47.056 82.436c1.552 2.344 4.01 2.748 7.2 1.58-2.267-3.474-4.701-3.232-7.2-1.58z" fill="#fff" fill-rule="evenodd" stroke="#000" stroke-width=".75" transform="matrix(1.67103 0 0 1.58434 -2.212 -37.55)"/><path d="M84.195 93.751c0 1.92-.92 3.478-2.053 3.478-1.135 0-2.054-1.557-2.054-3.478 0-1.92.92-3.477 2.054-3.477s2.053 1.557 2.053 3.477z" fill-rule="evenodd"/><path d="M57.363 126.34c-.195.375-.356 1.373-.356 2.134 0 .566 1.723-.118 2.015-.118.832 0 .48.598.948 1.066.536.536 1.581.395 2.134.119.198-.1.857-.215.948-.237M39.111 134.4c.028.395 0 1.537-.118 2.252-.148.885 1.205 1.14 1.777 1.304M31.407 147.2c-.001.009-3.391 2.254-3.674 2.607-.435.544-.474 1.455-.474 2.134 0 .187 1.111.91 1.422 1.066 1.119.56 2.196.83 3.675.83.482 0 1.113-.13 1.54-.237M35.2 130.489c-.426.175-.877.665-1.067 1.422-.137.55-.237 1.022-.237 1.66 0 .658.119 1.15.119 1.896 0 .618.008 1.335.118 1.777.165.66 1.137.732 1.423 1.304.33.66-1.11 1.147-1.423 1.304-.837.418-.761.93-1.066 1.54-.261.523.217 1.384.355 1.66.234.468.297.652.711 1.067.382.382 1.744.237 2.37.237.95 0 1.807.118 2.727.118M31.052 156.207c-.875.042-1.634.186-2.133 1.186l-.712 1.422M22.874 163.319c-.623 1.245.242 1.278-1.304 1.896-.051.02-.079.079-.118.118-.168.168-.474 0-.711 0" fill="none" stroke="#000" stroke-width=".75" stroke-linecap="round" stroke-linejoin="round" transform="matrix(1.67103 0 0 1.58434 -2.212 -37.55)"/><path d="M40.06 125.274c-.736.735.497 1.92.829 2.252.493.493 1.52 1.304 2.252 1.304.52 0 1.7.929 2.252 1.066.877.22 1.862.733 2.726.948.97.243 1.911.123 2.844.356l.474.119c.73.182 1.192.68 1.66 1.303.648.865.715.736.947 1.897.154.766.593 1.422.593 2.251 0 .893.237 1.484.237 2.37 0 .776.46.995.593 1.66.118.593.355.967.355 1.54V146.608c0 .797.119 1.662.119 2.49 0 .788-.237 1.25-.237 2.133 0 1.197-.673 2.099-.948 3.2-.213.852-.99 1.387-1.304 2.014-.428.857-.942 1.457-1.778.83-.463-.348-.394-.907-.593-1.304-.065-.131-.514 1.386-.592 1.778-.232 1.162-.83 1.464-.83 2.726 0 1.568-.808 1.713-2.015 2.015-.003 0-.906-2.205-.948-2.37-.12-.479-.398 1.238-.83 1.777-.95 1.188-.668 1.96-2.725 2.37-1.584.317-1.834-.133-1.541-1.303.32-1.282.676-1.15-1.067.593-.62.62-2.127 1.552-2.607.592-.308-.616-1.1.593-2.133.593-.999 0-2.559.118-3.793.118-1.225 0-2.05-.515-3.556.237a7.69 7.69 0 01-1.303.474M51.674 168.454c.083-.718-.128-.92-.87-1.106-1.13-.283-2.48.693-3.239 1.343-.476.408-.758 1.327-1.185 1.897-.136.18-.263.368-.395.553-.496.694-.692 1.305-1.027 1.975-.13.26-.087.824-.158 1.106M49.778 174.301c-.32.638-1.442-.015-2.134.158-.63.158-.986.434-1.58.79-.472.284-.727 1.06-.948 1.502a3.67 3.67 0 00-.395 1.659M8.02 160.593c-.085-.861-.262-1.044.092-1.752.107-.213 1.428-.184 1.66-.184h.46M10.509 161.607c.37 0 .128-.848.46-1.014.635-.318.36-.89 1.107-1.014.641-.107 1.512-.06 2.12.092.323.08.172.23.276.369M10.324 166.584c.842.21.4-1.783 1.014-2.396.517-.518.748-1.178 1.567-1.383.833-.208 1.462-.024 2.213.276.127.051.246.123.368.185.35.175.866 1.194.922 1.475.216 1.077.584 1.613 1.383 2.212M10.97 169.165c.203.153 2.325-.454 2.857-.276.402.134.342.369.83.369M6.914 168.981c.516.172.025 1.24.46 1.567.526.394 1.03.635 1.383 1.106.253.338.228.182.461.369M6.268 172.668c.144.192 1.195.334 1.567.83.406.54.236 1.208.461 1.66.421.841 2.655.38 3.319.644.6.24-.694.888-.83.922" fill="none" stroke="#000" stroke-width=".75" stroke-linecap="round" stroke-linejoin="round" transform="matrix(1.67103 0 0 1.58434 -2.212 -37.55)"/><g fill-rule="evenodd" stroke="#000"><path d="M175.592 219.65c-8.208 6.9-20.599 9.544-26.017 12.615.332-3.179 6.558-11.162 12.719-14.545 27.614-15.165 23.283-35.747 16.242-41.357 10.501 0 15.96 27.396-2.944 43.287z" fill="#de2110" transform="matrix(1.67103 0 0 1.58434 -2.212 -37.55)"/><path d="M229.823 223.5l7-9.25c-3.64 1.111-22.03 1.45-33.498-1.735-11.507-3.197-29.506-11.372-29.506-23.168 0-1.441-1.46-9.503 4.717-12.984-12.503 0-11.735 32.636 14.306 43.037 8.821 3.522 22.276 4.1 36.98 4.1z" fill="#ffd631" stroke-linejoin="bevel" transform="matrix(1.67103 0 0 1.58434 -2.212 -37.55)"/></g><g><path d="M207.27 90.987c.021-3.304-1.267-5.386-3.903-7.136-5.629-3.737-2.623-5.031-1.45-6.466.103 7.856 5.756 5.366 3.903-1.896-.948-3.714-.433-6.522.67-9.254 1.063 3.326-.64 8.55 3.344 5.463 1.294-1.002 2.345-2.424 1.573-4.384-1.384-3.51.422-4.488 2.106-5.873-1.185 3.805-.504 5.276.67 6.132 2.995-2.832 4.843-5.959 4.905-10.257 3.715 9.503 10.222 5.434 8.14-4.906 2.813 6.663 2.308 7.516 4.236 5.352 2.356-2.646 1.582-6.12.335-9.366 1.316 1.565 3 4.187 2.564 5.686-.665 2.29-.312 3.107-3.79 6.578-2.791 2.785-.93 2.55-7.471 4.237-5.448 1.405-13.441 10.465-14.94 12.488-1.578 2.128-.892 13.602-.892 13.602z" fill="#de2110" fill-rule="evenodd" stroke="#000" stroke-width=".75" transform="matrix(1.67103 0 0 1.58434 -2.212 -37.55)"/><path d="M235.438 192.313l-1.25-2.657-3.063 1.5c.049 1.175-.014 2.878-.281 5.063-.534 4.37-2.125 10.531-2.125 10.531s.015 2.939 1.344 2.906c4.146-.104 4.522-1.423 3.875-4.375 1.457-.514.97-3.727 1-6.531.024-2.384-.252-5.041.5-6.438z" fill="#fff" fill-rule="evenodd" stroke="#000" stroke-width=".75" transform="matrix(1.67103 0 0 1.58434 -2.212 -37.55)"/><path d="M209.773 90.39l-2.646.345c-.274-14.472 7.177-26.47 22.542-36.342-23.389 20.592-19.03 34.948-19.896 35.997z" fill="#de2110" fill-rule="evenodd" stroke="#000" stroke-width=".75" transform="matrix(1.67103 0 0 1.58434 -2.212 -37.55)"/><path d="M205.843 92.27c6.06-4.815 8.152-5.674 8.233-11.818.034-2.561 1.147-1.998 1.936-2.664-.587 9.65 1.339 7.154 3.716 2.932 1.366-2.427.862-5.599 4.193-6.63-5.593 14.726 4.943 1.62 3.903-1.952.69 2.106 2.178-1.539 3.038-1.198 1.45.576 2.438 3.399 4.46-1.986-.246 1.792.75 1.35 1.85.72-4.075 5.238-2.218 4.544-1.952 5.443 3.35-2.33 9.963-3.384 7.087-17.77 2.943 7.096 4.853 8.597 4.52-2.054 2.23 3.703 3.474 5.915-1.027 10.374-3.001 2.973-2.08 6.226-5.444 8.936-3.008 2.423-6.373 3.53-10.58 4.11l-8.628 4.93-5.958 3.39c-3.218 7.139-6.381 4.653-9.347 5.238z" fill="#de2110" fill-rule="evenodd" stroke="#000" stroke-width=".75" transform="matrix(1.67103 0 0 1.58434 -2.212 -37.55)"/><g stroke-width=".75" stroke="#84a510"><path d="M75.095 199.466v-88.973h2.899l1.115 89.42-4.014-.447z" fill="#ffd600" fill-rule="evenodd" transform="matrix(-1.67103 0 0 1.58434 424.857 -37.55)"/><path d="M75.11 120.58h2.96M75.11 128.58h2.96M75.11 137.08h2.96M75.11 146.58h2.96M75.11 157.58h2.96" fill="none" transform="matrix(-1.67103 0 0 1.58434 424.857 -37.55)"/><path d="M75.556 165.58H78.2M75.61 173.58h2.96M75.61 180.58h2.96M75.61 188.58h2.96M75.61 196.58h2.96" fill="none" stroke-linecap="square" transform="matrix(-1.67103 0 0 1.58434 424.857 -37.55)"/></g><path d="M193.625 126.688c.095-1.77.775-3.707 4.031-6.407m-4.031 6.406c-.02.367-.049.739-.031 1.094.49 5.786-4.44 6.757-6.688 9.594-3.421.612-4.529 1.493-5.468 2.719-1.523 1.986-3.227 3.431-4.375 5.344-4.892 8.141-4.405 7.223-6.157 9.937v2.375c-2.716 2.277-3.245 4.18-4.156 6.156 0 0-.515.63.344 1.281.86.652 1.227 2.595 3.094 1.344 3.433-2.3 4.012-4.02 4.875-5.594v-2.375h1.875v-5.437s2.83-5.88 7.25-7.813c1.836-.802 2.874-.675 4.5-1.187 1.914-.603 4.25-1.781 4.25-1.781s1.25-1.715 3.937-2.344m6.031-3.625s-1.882 3.164-4.781 3.344c-.49.03-.835.184-1.25.281m-3.937 2.344c2.36 2.672 4.59 5.129 9.625 7.156 2.499 1.007 10.406 2.614 10.406 17.75 0 5.782 2.664 10.377 15.344 20.031l-.72-1.531 3.845-1.906-3-6.375-3.844 1.906-3-6.375 3.844-1.875-3-6.375-3.844 1.906-3.031-6.437 3.875-1.875-3.032-6.438-3.843 1.906-2.844-6.03 3.844-1.876-3-6.406-3.875 1.906-2.97-6.312 3.876-1.906-3.031-6.407-3.844 1.906-3.031-6.437 3.843-1.875L199.47 116c-2.893 1.528-3.56 2.291-4.969 2.875-7.728 3.205-7.594 8.172-7.594 11.969v6.531" fill="#fff" fill-rule="evenodd" stroke="#000" stroke-width=".75" transform="matrix(1.67103 0 0 1.58434 -2.212 -37.55)"/><g fill="none" stroke="#000"><path d="M169.244 163.437c.535-.267-.237 1.18-.237 1.778 0 .088-.553.869-.592.948" stroke-linecap="round" transform="matrix(1.67103 0 0 1.58434 -2.212 -37.55)"/><path d="M169.6 159.289c.37.806.793.761 1.54.948.605.151.615.439 1.423.237.45-.112.903-.784 1.185-1.067.324-.323.728-.66 1.067-.83" stroke-width=".75" transform="matrix(1.67103 0 0 1.58434 -2.212 -37.55)"/></g><path d="M233.824 205.318c-.32.126-1.337.618-1.918.909-.715.357-1.34.403-2.12.403h-1.01" fill="none" stroke="#000" stroke-width=".75" transform="matrix(1.67103 0 0 1.58434 -2.212 -37.55)"/><path d="M215.75 86.344c-2.211-.27.466 4.175-10.094 6.281-5.504 1.098-6.805 3.275-10.144 3.526-1.779.133-3.418 1.671-6.387 2.662-1.154.192-2.631 7.593 2.469 7.593 3.485 0 4.184-.977 5.5-.625 4.821 1.292 8.147 2.513 8 4.375-.11 1.388-1.354 3.599-5.531 5.781-.059.031-.038.033-.094.063l2.062 4.375-3.843 1.875 3.03 6.438 3.845-1.907 3.03 6.406-3.874 1.907 2.969 6.312 3.875-1.906 3 6.406-3.844 1.875 2.844 6.031 3.843-1.906 3.032 6.438-3.875 1.875 3.03 6.437 3.845-1.906 3 6.375-3.844 1.875 3 6.375 3.844-1.906 3 6.375-3.844 1.906.719 1.531c.93.71 1.484 1.232 2.53 2 .073.053.233.7.282 1.875l3.063-1.5 1.25 2.656c.185-.343.38-.654.718-.812 1.498-.697 1.567-5.51-1.312-8.094-3.508-3.148-6.75-7.098-3.844-11.969 2.685-4.5.903-7.86 2.094-11.25 3.564-.353 5.401-2.242 5.219-7.25-.082-3.245-1.925-4.493-3.313-7.062-1.316-2.436.344-3.656.344-3.656-2.636 1.162-4.867 3.74-1.938 8.375 3 4.746 2.599 6.37-.406 7.219-1.617-8.11-4.1-9.647-7.719-12.813-8.194-7.169-10.031-11.046-10.031-18.375 0-6.107 4.127-13.386 4.188-19.875.074-7.957-1.763-10.414-3.125-14.25l-.563-6.156z" fill="#de2110" fill-rule="evenodd" stroke="#000" stroke-width=".75" transform="matrix(1.67103 0 0 1.58434 -2.212 -37.55)"/><path d="M211.374 95.518c1.078.079 1.572-.37 2.102-.9.414-.415 1.394-.762 1.951-.901.644-.161 1.371-.15 2.102-.15 1.098 0 1.634.15 2.702.15.843 0 1.558.347 2.252 0 .75-.376 1.344-.744 1.651-1.051.536-.536.039 1.574-.3 2.252-.406.812-.71 1.46-1.351 2.101-.837.838-2.273 1.812-4.804 2.102-.795.091-1.949.45-2.852.45-.444 0-.471.079-.901.15" fill="#de2110" fill-rule="evenodd" stroke="#000" stroke-width=".75" transform="matrix(1.67103 0 0 1.58434 -2.212 -37.55)"/><path d="M213.175 96.569h2.703c.99 0 .715-1.501 2.251-1.501.873 0 1.77-.007 2.552.15.715.143-1.394.424-2.101.6-.835.209-1.657 1.054-2.252 1.351-.88.44-2.495-.206-3.153-.6z" fill="none" stroke="#000" stroke-width=".75" transform="matrix(1.67103 0 0 1.58434 -2.212 -37.55)"/><path d="M210.931 95.308l-2.119-2.244c5.463-3.683 21.292-8.009 29.92-45.128-.974 21.799-9.5 36.918-27.8 47.372z" fill="#de2110" fill-rule="evenodd" stroke="#000" stroke-width=".75" transform="matrix(1.67103 0 0 1.58434 -2.212 -37.55)"/><path d="M207.969 106.938a.5.5 0 00-.281.156c-.096.095-.127.095-.063.062s.1 0-.031 0c-.42 0-1.171-.168-1.844 0-.287.072-.671.187-1.188.281-.259.048-.467.08-.625.126-.04.01-.053.026-.125.062-.036.018-.09.033-.188.156a.79.79 0 00-.062.125l-.063.219.063.188.125.156s.037.048.062.062c.026.015.076.024.094.031.036.015.041.027.062.032.043.01.069-.002.094 0h.031c.04.003.481-.113.72-.157.504-.092.863-.215 1.25-.312.293-.073 1.014.031 1.594.031.173 0 .322-.002.5-.094.177-.091.248-.186.312-.25a.5.5 0 00-.437-.875h0zM191.815 103.638c-.327 0-.595.13-.862.28-.267.152-.516.33-.695.532-.27.303-.033.562-.586.562a.437.437 0 00-.39.248.554.554 0 000 .504c.08.156.23.25.39.248.775 0 .824-.423 1.225-.874.046-.052.244-.2.445-.313.201-.114.445-.187.473-.187 1.059 0 2.085-.345 3.088-.205.254.036.584.17.945.25a.411.411 0 00.464-.118.545.545 0 00.104-.52.458.458 0 00-.373-.33c-.252-.057-.623-.193-1.03-.25-1.082-.153-2.147.173-3.198.173z" fill="#fff" fill-rule="evenodd" stroke="#000" stroke-width=".375" stroke-linecap="round" stroke-linejoin="round" transform="matrix(1.67103 0 0 1.58434 -2.212 -37.55)"/><path transform="matrix(1.67103 0 0 1.1277 -1.9 9.116)" d="M191.172 100.357c0 .62-.781 1.122-1.745 1.122-.964 0-1.745-.502-1.745-1.122 0-.62.78-1.122 1.745-1.122.964 0 1.745.502 1.745 1.122z" fill="#fff" fill-rule="evenodd" stroke="#000" stroke-width="1.249" stroke-linecap="round" stroke-linejoin="round" stroke-dashoffset="1"/><path d="M200.646 97.66c2.214-1.41 4.492-1.585 6.864 0-3.399 1.818-5.166.966-6.864 0z" fill="#fff" fill-rule="evenodd" stroke="#000" stroke-width=".563" stroke-linejoin="bevel" transform="matrix(1.67103 0 0 1.58434 -2.212 -37.55)"/><path d="M339.424 117.083c0 1.294-.763 2.343-1.704 2.343-.942 0-1.705-1.049-1.705-2.343 0-1.295.763-2.344 1.705-2.344.94 0 1.704 1.05 1.704 2.344z" fill-rule="evenodd"/><path d="M210.813 156.156c-13.66 6.236-8.081 10.386-6.22 16.813 1.576 5.437 2.434 7.752 1.657 9.156-.68 1.18-2.553 1.769-6.188 3.094-10.078 3.673-9.274 7.86-12.218 12.094l6 .125v-4h3.281s2.277-5.202 7.031-6.22c4.557-.974 8.77-3.649 8.656-5.28-.325-4.645-2.623-4.71.532-11.375-.002-.008.002-.023 0-.032a14.194 14.194 0 01-.375-3.281c0-5.048-.891-8.576-2.156-11.094z" fill="#fff" fill-rule="evenodd" stroke="#000" stroke-width=".75" transform="matrix(1.67103 0 0 1.58434 -2.212 -37.55)"/><path d="M193.556 193.451c-.297.045-1.42.008-1.896-.111-.303-.076-.874-.856-1.003-1.115" fill="none" stroke="#000" stroke-width=".75" transform="matrix(1.67103 0 0 1.58434 -2.212 -37.55)"/></g><g stroke="#000" stroke-width=".75"><path d="M31.054 204.432c1.415-3.952 1.043-8.108 10.821-11.104l-.847-10.351c-1.13-3.066 4.116-3.563 4.14-.565-.625 9.131 1.834 9.777 8.658 9.128 9.183-.873 7.592 2.68 8.564 4.988h-1.6c-.476 0-.982.067-1.412.282-.145.072-.782 1.006-.847.94-.126-.126-.73-.694-1.223-.94-.325-.162-.834-.47-1.317-.47h-2.259c-.517 0-1.04-.023-1.505.093-.182.046-1.007.25-1.318.095-.314-.157-.59-.924-1.035-1.036-.385-.096-.917 0-1.412 0-.429 0-.952.095-1.317.095-.651 0-1.121-.077-1.6.282-.398.299-.826.86-.94 1.317-.245.977-.5.094-1.036.094-.38 0-1.33-.067-1.505.283-.074.148-.164 1.235-.565 1.035-.317-.159-.874-.316-1.317-.094-.309.154-.807.148-1.13.47-.207.207-.674 1.117-.94 1.224-.481.192-.83.528-1.13.752-.242.182-.821.351-1.13.66-.368.368-.555.837-1.034 1.317-.33.33-.812.782-1.318 1.035-.978.489-1.528.24-2.446.47z" fill="#fff" fill-rule="evenodd" transform="matrix(1.67103 0 0 1.58434 -2.212 -37.55)"/><path d="M33.783 198.221l1.882 2.918M37.547 195.21l1.6 3.106M40.652 194.175l1.788 3.105M41.687 188.435l3.2.094M47.521 191.634l1.506 3.388M52.132 191.634l.66 4.235M56.65 191.54l.282 4.8" fill="none" stroke-linecap="round" stroke-linejoin="round" transform="matrix(1.67103 0 0 1.58434 -2.212 -37.55)"/></g><g fill-rule="evenodd" stroke="#000"><path d="M79.98 219.65c8.209 6.9 20.6 9.544 26.017 12.615-.332-3.179-6.558-11.162-12.718-14.545-27.615-15.165-23.283-35.747-16.242-41.357-10.501 0-15.96 27.396 2.943 43.287z" fill="#de2110" transform="matrix(1.67103 0 0 1.58434 -2.212 -37.55)"/><path d="M25.75 223.5l-7-9.25c3.64 1.111 22.03 1.45 33.497-1.735 11.507-3.197 29.507-11.372 29.507-23.168 0-1.441 1.46-9.503-4.717-12.984 12.503 0 11.735 32.636-14.307 43.037-8.82 3.522-22.276 4.1-36.98 4.1z" fill="#ffd631" stroke-linejoin="bevel" transform="matrix(1.67103 0 0 1.58434 -2.212 -37.55)"/></g><g fill="#006b29" stroke="#000" stroke-width=".25" fill-rule="evenodd"><path d="M75 110c.513-6.069 3.61-14.538 10.34-20.895C103.655 71.8 112.67 64.2 123.482 88.1c1.121 2.477 7.664 13.571 12.287 13.658-10.556-1.349-14.05-5.485-15.903-12.359-5.737-21.284-12.142-15.251-21.121-8.11-6.082 4.835-6.4 4.88-10.351 8.893-3.549 3.604-5.304 6.879-6.962 10.794-1.353 3.197-2.984 7.112-3.182 9.024H75z" transform="matrix(-1.67103 0 0 1.58434 424.857 -36.758)"/><path d="M75 110c-.173-10.793 8.227-28.447 18.408-40.346 8.12-9.491 27.874-21.156 36.545-6.75 4.044 6.72 6.412 5.787 10.37 7.411-7.246 1.629-8.788-2.477-12.955-4.427-2.773-1.297-2.838-5.223-4.472-6.93-2.24-2.34-6.283-2.036-13.835.99-6.475 2.594-15.605 13.064-20.99 22.81-4.977 9.01-6.313 16.99-9.821 27.242H75z" transform="matrix(-1.67103 0 0 1.58434 424.857 -36.758)"/><path d="M75 110c7.286-34.247 21.154-55.89 37.229-62.884 12.49-5.435 26.374-.536 26.84 4.603-2.465-4.176-19.25-10.772-33.654 2.366C92.859 65.535 82.665 95.49 78.25 110H75z" transform="matrix(-1.67103 0 0 1.58434 424.857 -36.758)"/><path d="M75 110c-.313-6.566 6.577-18.183 6.95-26.523.28-6.238-.368-8.992.733-13.243 2.28-8.806 6.527-18.478 11.414-24.757 3.932-5.052 11.8-9.477 19.786-6.804 5.225 1.748 8.119 8.134 14.112 13.673-3.306-2.445-7.717-3.61-9.602-5.756-7.312-8.322-11.3-7.727-18.038-2.613C87.63 53.634 85.128 82.8 81.83 95.62c-3.907 15.194-2.023 9.26-3.581 14.381H75z" transform="matrix(-1.67103 0 0 1.58434 424.857 -36.758)"/><path d="M75 110c1.102-11.157 8.463-15.73 8.812-31.326.196-8.502-3.099-22.213-3.099-28.338 0-3.31 1.85-14.64 10.211-20.3 10.037-6.796 20.414-6.131 31.2.534 1.741 1.077 4.064 1.366 5.871 2.553-.75.242-7.785 2.075-13.462-2.388-4.688-3.686-13.224-1.225-17.745.97-16.684 8.1-14.422 27.903-10.992 38.212 3.607 10.844 1.44 19.135-3.016 26.71-4.76 8.093-4.113 12.003-4.53 13.373H75z" transform="matrix(-1.67103 0 0 1.58434 424.857 -36.758)"/><path d="M75 110c-.294-1.707.908-6.254 3.76-14.016.66-1.796 2.824-5.022 2.824-12.125 0-4.95-2.454-7.723-4.117-13.932-1.472-5.494-8.379-17.426-8.379-25.744 0-2.519 2.45-7.695 7.21-11.05 6.87-4.842-.547-10.938.924-9.621 2.177-.42 9.906 12.873.304 14.27-4.438.647-6.537 5.317-6.315 9.252.505 8.934 10.385 15.142 11.573 25.069 1.364 11.393 3.06 19.365-.385 26.167-1.792 3.538-4.079 11.511-4.149 11.73H75z" transform="matrix(-1.67103 0 0 1.58434 424.857 -36.758)"/><path d="M75 110c-.102-.592.221-7.386 3.018-14.336 1.808-4.492 3.398-9.658 3.398-12.715 0-13.269-19.831-24.285-21.585-24.285-9.675 0-4.406 6.455.34 7.727 7.133 1.91 8.433 4.914 9.77 6.742 1.679 2.296 2.314 7.089 2.266 11.39-1.49-4.045-.342-5.56-4.728-9.085-5.509-4.426-14.967-8.37-14.967-13.399 0-3.134 1.818-5.633 4.494-5.633 3.734 0 12.346 3.92 18.762 9.338 5.949 5.024 9.863 11.367 9.863 16.349 0 7.144-4.563 19.26-7.381 27.907H75z" transform="matrix(-1.67103 0 0 1.58434 424.857 -36.758)"/></g><g fill="#006b29" stroke="#000" stroke-width=".25" fill-rule="evenodd"><path d="M75 110c.513-6.069 3.61-14.538 10.34-20.895C103.655 71.8 112.67 64.2 123.482 88.1c1.121 2.477 7.664 13.571 12.287 13.658-10.556-1.349-14.05-5.485-15.903-12.359-5.737-21.284-12.142-15.251-21.121-8.11-6.082 4.835-6.4 4.88-10.351 8.893-3.549 3.604-5.304 6.879-6.962 10.794-1.353 3.197-2.984 7.112-3.182 9.024H75z" transform="matrix(1.67103 0 0 1.58434 -2.212 -36.758)"/><path d="M75 110c-.173-10.793 8.227-28.447 18.408-40.346 8.12-9.491 27.874-21.156 36.545-6.75 4.044 6.72 6.412 5.787 10.37 7.411-7.246 1.629-8.788-2.477-12.955-4.427-2.773-1.297-2.838-5.223-4.472-6.93-2.24-2.34-6.283-2.036-13.835.99-6.475 2.594-15.605 13.064-20.99 22.81-4.977 9.01-6.313 16.99-9.821 27.242H75z" transform="matrix(1.67103 0 0 1.58434 -2.212 -36.758)"/><path d="M75 110c7.286-34.247 21.154-55.89 37.229-62.884 12.49-5.435 26.374-.536 26.84 4.603-2.465-4.176-19.25-10.772-33.654 2.366C92.859 65.535 82.665 95.49 78.25 110H75z" transform="matrix(1.67103 0 0 1.58434 -2.212 -36.758)"/><path d="M75 110c-.313-6.566 6.577-18.183 6.95-26.523.28-6.238-.368-8.992.733-13.243 2.28-8.806 6.527-18.478 11.414-24.757 3.932-5.052 11.8-9.477 19.786-6.804 5.225 1.748 8.119 8.134 14.112 13.673-3.306-2.445-7.717-3.61-9.602-5.756-7.312-8.322-11.3-7.727-18.038-2.613C87.63 53.634 85.128 82.8 81.83 95.62c-3.907 15.194-2.023 9.26-3.581 14.381H75z" transform="matrix(1.67103 0 0 1.58434 -2.212 -36.758)"/><path d="M75 110c1.102-11.157 8.463-15.73 8.812-31.326.196-8.502-3.099-22.213-3.099-28.338 0-3.31 1.85-14.64 10.211-20.3 10.037-6.796 20.414-6.131 31.2.534 1.741 1.077 4.064 1.366 5.871 2.553-.75.242-7.785 2.075-13.462-2.388-4.688-3.686-13.224-1.225-17.745.97-16.684 8.1-14.422 27.903-10.992 38.212 3.607 10.844 1.44 19.135-3.016 26.71-4.76 8.093-4.113 12.003-4.53 13.373H75z" transform="matrix(1.67103 0 0 1.58434 -2.212 -36.758)"/><path d="M75 110c-.294-1.707.908-6.254 3.76-14.016.66-1.796 2.824-5.022 2.824-12.125 0-4.95-2.454-7.723-4.117-13.932-1.472-5.494-8.379-17.426-8.379-25.744 0-2.519 2.45-7.695 7.21-11.05 6.87-4.842-.547-10.938.924-9.621 2.177-.42 9.906 12.873.304 14.27-4.438.647-6.537 5.317-6.315 9.252.505 8.934 10.385 15.142 11.573 25.069 1.364 11.393 3.06 19.365-.385 26.167-1.792 3.538-4.079 11.511-4.149 11.73H75z" transform="matrix(1.67103 0 0 1.58434 -2.212 -36.758)"/><path d="M75 110c-.102-.592.221-7.386 3.018-14.336 1.808-4.492 3.398-9.658 3.398-12.715 0-13.269-19.831-24.285-21.585-24.285-9.675 0-4.406 6.455.34 7.727 7.133 1.91 8.433 4.914 9.77 6.742 1.679 2.296 2.314 7.089 2.266 11.39-1.49-4.045-.342-5.56-4.728-9.085-5.509-4.426-14.967-8.37-14.967-13.399 0-3.134 1.818-5.633 4.494-5.633 3.734 0 12.346 3.92 18.762 9.338 5.949 5.024 9.863 11.367 9.863 16.349 0 7.144-4.563 19.26-7.381 27.907H75z" transform="matrix(1.67103 0 0 1.58434 -2.212 -36.758)"/></g><g stroke-width=".75" stroke="#84a510"><path d="M75.095 199.466v-88.973h2.899l1.115 89.42-4.014-.447z" fill="#ffd600" fill-rule="evenodd" transform="matrix(1.67103 0 0 1.58434 -2.212 -37.55)"/><path d="M75.11 120.58h2.96M75.11 128.58h2.96M75.11 137.08h2.96M75.11 146.58h2.96M75.11 157.58h2.96" fill="none" transform="matrix(1.67103 0 0 1.58434 -2.212 -37.55)"/><path d="M75.556 165.58H78.2M75.61 173.58h2.96M75.61 180.58h2.96M75.61 188.58h2.96M75.61 196.58h2.96" fill="none" stroke-linecap="square" transform="matrix(1.67103 0 0 1.58434 -2.212 -37.55)"/></g><path d="M230.707 209.52c-14.563 0-24.35-7.04-36.657-10.73-16.77-5.028-39.711-15.804-65.666 7.73l-7-9.25c16.103-14.78 29.777-20.976 56.258-16.546 18.515 3.097 40.028 15.795 53.029 15.795 13 0 34.513-12.698 53.028-15.795 26.48-4.43 40.155 1.766 56.258 16.545l-7 9.25c-25.955-23.533-48.896-12.757-65.666-7.729-12.307 3.69-22.094 10.73-36.584 10.73z" fill="url(#e)" fill-rule="evenodd" stroke="#000" transform="matrix(1.67103 0 0 1.58434 -173.716 -10.648)"/><path style="text-align:center;line-height:100%" d="M42.439 295.554c.196.133.459.36.79.68.494.476.86.86 1.098 1.15.075.091.146.199.212.321l-.062.082-.611.39-.11.056c-.786-.498-1.396-.78-1.828-.845-.742-.106-1.39.044-1.942.452-.526.387-.837.828-.931 1.322a1.52 1.52 0 00.336 1.308c.267.326.677.526 1.229.601.547.079 1.421-.104 2.624-.55.402-.15.918-.292 1.546-.43.634-.14 1.17-.18 1.608-.118.58.078 1.051.221 1.411.43.362.198.722.517 1.08.954.393.479.685 1.019.877 1.62.098.32.124.672.078 1.057-.036.272-.137.636-.304 1.094a4.44 4.44 0 01-.692 1.22c-.285.357-.712.745-1.28 1.165-.376.277-.866.556-1.47.838l-1.186.445c-.327.127-.548.188-.664.183-.043 0-.107-.03-.191-.092l-.069-.084a96.075 96.075 0 00-.898-1.016c-.282-.323-.479-.553-.592-.69l-.238-.29.729-.562c.72.375 1.167.594 1.338.655.379.137.735.214 1.067.23a3.29 3.29 0 001.038-.152 3.561 3.561 0 001.022-.533c.29-.214.561-.508.814-.882a2.02 2.02 0 00.368-1.19 1.724 1.724 0 00-.385-1.1c-.309-.376-.78-.589-1.413-.636-.388-.033-1.212.15-2.47.547-1.26.397-2.186.606-2.78.628a3.753 3.753 0 01-1.753-.374c-.58-.276-1.034-.614-1.363-1.016-.664-.81-.921-1.722-.772-2.738.148-1.016.819-1.964 2.01-2.842.258-.19.675-.427 1.25-.713.348-.174.84-.366 1.48-.575m3.342-3.399l.543-.307c.08.038.136.066.171.084.331.173.566.277.706.31.09-.02.497-.236 1.221-.645.45-.254.848-.483 1.195-.687l.16-.124 1.055-.607 1.99-1.102 2.707-1.53.47-.367c.045-.093.043-.272-.005-.538l-.034-.262.38-.226c.058-.033.148-.08.268-.14.246.379.611.953 1.095 1.722l.473.735.258.428c.09.144.157.276.2.394-.194.207-.377.37-.547.49-.288-.13-.651-.35-1.09-.657-.433-.31-.686-.475-.76-.493a.608.608 0 00-.335-.003c-.157.051-.785.387-1.883 1.008-.164.093-.361.22-.593.38.101.236.195.423.282.561l.709 1.108 1.535 2.442 1.69 2.614.67 1.084c.241.382.457.65.649.805.118-.015.313-.076.585-.184.05-.021.294-.1.732-.234.2-.06.382-.103.547-.13.155.183.246.297.274.341.031.05.068.127.11.231a8.5 8.5 0 01-.31.187c-.602.34-1.125.61-1.57.808-.449.193-1.225.602-2.329 1.226-.175.099-.668.423-1.479.971-.319.21-.528.344-.627.4a4.279 4.279 0 00-.138-.181l-.129-.187-.041-.066c.027-.233.195-.49.502-.768.52-.482.863-.844 1.027-1.087a1.175 1.175 0 00-.156-.475c-.377-.687-1.022-1.756-1.934-3.207l-2.018-3.115c-.543-.864-.89-1.377-1.04-1.54a.243.243 0 00-.283-.054c-.195.08-.792.402-1.79.967-.55.31-.886.568-1.01.773-.164.28-.304.87-.42 1.769-.035.26-.087.409-.157.449-.352.019-.593.007-.72-.032-.046-.463-.247-1.324-.605-2.586-.105-.368-.172-.62-.2-.753m14.13-7.136c.37-.114.695-.2.976-.262a14.225 14.225 0 001.783-.533c.229-.083.809-.314 1.74-.694 1.394-.568 2.663-1.06 3.806-1.475l1.716-.644c.388-.14.978-.303 1.77-.487.163.08.285.221.368.426l.751 1.86.169.363c.015.037.033.092.056.166l-.383.16c-.051.019-.161.052-.331.1-.106-.1-.254-.25-.444-.45l-.64-.503a4.723 4.723 0 00-.945-.61 2.88 2.88 0 00-.639.15c-.066.017-.266.072-.6.166a24.79 24.79 0 00-1.933.619 55.73 55.73 0 00-2.062.79c.042.157.272.754.69 1.79l.632 1.51.46 1.137c.165-.04.305-.08.42-.121 1.136-.413 1.937-.728 2.403-.945.465-.218.74-.383.826-.497.083-.12.13-.289.144-.508.004-.153-.064-.636-.202-1.448l.12-.054.556-.192c.242.527.418.928.53 1.205.256.633.413 1.041.474 1.226.066.183.12.326.161.428.066.163.181.421.346.776.163.348.28.61.35.784l.08.199-.676.245a29.022 29.022 0 01-.384-.544c-.353-.514-.608-.822-.766-.923-.12-.08-.28-.116-.48-.106-.143.005-.622.154-1.434.449-.96.348-1.67.634-2.133.857.057.159.095.262.114.31.29.717.543 1.308.76 1.775l.77 1.957c.092.23.24.355.446.377.311.032 1.134-.195 2.467-.679.883-.32 1.607-.655 2.171-1.005.39-.245.683-.583.88-1.013.269-.56.4-1.257.39-2.089.19-.09.348-.157.476-.203.07-.026.175-.06.317-.105l.106.396.052.292.337 1.835.245 1.091c-.406.168-.73.296-.97.384-.356.129-1.318.443-2.885.943-1.103.352-2.42.806-3.95 1.362a55.84 55.84 0 00-2.773 1.11l-.4.145-1.138.455-.252-.623c.109-.074.337-.195.684-.363.631-.312 1.05-.574 1.255-.786 0-.2-.054-.433-.161-.698a25.102 25.102 0 00-.221-.52l-.104-.283-1.404-3.395-.402-1.024-.631-1.427-.403-1.024-.538-1.089a1.687 1.687 0 00-.092-.173.524.524 0 00-.337-.023c-.074.013-.177.03-.307.05-.391.059-.758.143-1.1.253a7.117 7.117 0 01-.433.116l-.244-.74m18.535 5.983c.196-.093.477-.197.841-.313.37-.123.59-.19.656-.202.26-.052.426-.123.498-.215.01-.159.006-.289-.014-.39l-.255-1.215-.179-1.246-.152-.79-.17-.934-.211-.986-.37-2.128-.176-.962-.025-.133c-.176-.658-.293-1.014-.352-1.07-.054-.062-.26-.115-.622-.157l-.408-.077a2.809 2.809 0 00-.478-.054c-.245-.017-.421-.055-.53-.115a5.186 5.186 0 01-.093-.377 3.647 3.647 0 01-.034-.23.403.403 0 01.181-.08c.16-.028.747-.104 1.76-.228l1.433-.258 1.067-.166c.462-.08 1.048-.211 1.76-.394.21-.056.332-.087.365-.093.1-.017.175-.005.225.04.067.06.119.182.154.366.028.146.013.263-.046.352-.031.051-.171.115-.42.19l-1.19.493a2.79 2.79 0 00-.156.105.919.919 0 00-.038.125l.042.268.085.605.033.17.03.104c.007.031.03.207.072.528.01.084.021.167.037.249.02.101.06.271.12.51.093.377.168.708.223.994.063.33.126.708.188 1.137.024.16.06.366.11.62l.83 4.515c.037.19.095.308.173.354l.96-.128.59-.112.636-.09c1.077-.188 1.9-.452 2.47-.794.427-.257.694-.487.8-.69.19-.229.335-.467.432-.713.105-.248.197-.644.279-1.189l.32-.056c.161-.028.344-.046.55-.056l.051.267c.089.456.183 1.266.283 2.428.041.465.048.752.021.861a2.516 2.516 0 01-.283.089l-.372.064-.52.1c-.06.012-.463.055-1.208.132-.135.017-.778.105-1.929.266-1.151.16-2.275.336-3.372.527l-2.035.412c-.786.156-1.518.32-2.197.49l-.15.026-.193.024a1.007 1.007 0 01-.055-.178c-.052-.266-.066-.464-.042-.592m13.238-2.183c.21-.06.506-.118.886-.173.387-.061.614-.093.682-.093.265-.01.442-.053.53-.13.038-.156.058-.285.056-.388l-.033-1.238.049-1.257-.009-.803v-.947l-.03-1.006.019-2.157v-.976l-.002-.136c-.054-.676-.106-1.046-.154-1.11-.041-.07-.236-.156-.584-.256l-.389-.142a2.775 2.775 0 00-.46-.13c-.239-.056-.406-.123-.502-.2a5.346 5.346 0 01-.024-.386c0-.051.001-.129.008-.232a.412.412 0 01.193-.05c.163-.002.755.019 1.776.06l1.458-.022 1.081.01a23.95 23.95 0 001.804-.105c.218-.02.343-.032.377-.032.102 0 .174.024.215.075.056.07.084.2.086.386.001.149-.035.262-.109.34-.04.045-.19.085-.447.12l-1.262.292c-.034.013-.091.04-.173.08a.932.932 0 00-.06.116l-.006.27-.025.61.002.174.012.106c0 .033-.009.21-.025.533a3.164 3.164 0 00-.009.251c.001.103.01.277.026.522.024.387.038.725.041 1.015.003.335-.003.719-.019 1.151-.005.161-.006.37-.003.629l.007 4.583c.001.194.037.32.106.377l.969.03.601-.017.643.013c1.095-.01 1.954-.137 2.577-.381.467-.185.771-.369.912-.55.23-.196.414-.407.555-.634.147-.227.31-.603.488-1.126l.326-.004a4.4 4.4 0 01.551.034l.004.27c.005.465-.049 1.278-.159 2.44-.043.464-.088.748-.134.851a2.532 2.532 0 01-.295.042l-.378.003-.53.014c-.061 0-.466-.021-1.214-.066-.136-.005-.786-.022-1.949-.05a102.946 102.946 0 00-3.417-.026l-2.08.077c-.802.027-1.553.07-2.253.127l-.153.002c-.04 0-.105-.002-.194-.008a.936.936 0 01-.022-.184c-.003-.27.02-.467.065-.59m12.568.682l.116-.649c.134-.021.367-.039.698-.053.533-.027.859-.072.978-.135.126-.061.291-.228.496-.5l2.788-4.795 3.273-5.64c.221.036.433.068.635.094l.454.06.066.185 1.175 4.179c.274.889.51 1.75.71 2.584.2.827.379 1.505.534 2.033.09.318.21.793.357 1.424.073.342.198.775.374 1.3.095.286.173.456.234.51.107.111.293.201.558.269.271.068.557.18.856.338.003.215-.003.374-.019.476-.006.044-.02.114-.04.21a22.38 22.38 0 01-1.637-.286 24.379 24.379 0 00-2.76-.415l-1.73-.142-.498-.046c.033-.224.074-.436.125-.638l1.155-.081c.349-.038.553-.076.614-.114a.304.304 0 00.133-.207.757.757 0 00-.011-.265l-.266-.992-.52-1.983-3.858-.521c-.187.287-.59.999-1.21 2.134-.179.321-.277.542-.295.664-.024.166.006.29.09.373.137.142.42.267.85.376.059.02.293.088.702.2-.027.231-.048.391-.06.48-.01.071-.029.144-.053.218-.418-.055-1.406-.241-2.966-.559l-.424.013c-.51.01-.99-.015-1.441-.074l-.182-.024m5.542-4.753c1.572.228 2.5.361 2.783.399l.254.024a33.965 33.965 0 00-.495-2.087 29.237 29.237 0 00-.532-1.838l-2.01 3.502m29.005-.801c.029.209.043.786.042 1.73a4.853 4.853 0 01-.193 1.316l-.893-.241c-.375-1.013-.84-1.792-1.398-2.338-.555-.552-1.245-.94-2.069-1.161-1.013-.274-1.943-.12-2.79.463-1.149.79-1.996 2.092-2.541 3.909-.317 1.054-.47 1.824-.46 2.309.017.789.137 1.461.359 2.017.17.422.447.795.83 1.12.492.434 1.065.739 1.72.915.718.195 1.475.17 2.269-.07.802-.247 1.637-.709 2.504-1.386.255.022.58.083.974.182a6.823 6.823 0 01-.348.7l-.58 1.121-.172.255-.269.4c-.486.184-1.115.252-1.885.205-.762-.051-1.67-.22-2.723-.503a11.973 11.973 0 01-2.221-.83c-.67-.336-1.214-.727-1.63-1.175-.612-.648-1.052-1.29-1.321-1.925a5.52 5.52 0 01-.44-1.958c-.019-.669.086-1.385.315-2.147.555-1.848 1.654-3.2 3.297-4.057 1.65-.855 3.471-1.014 5.466-.476.81.22 1.56.465 2.249.738.697.269 1.333.564 1.908.887m-1.303 11.762c.22.005.52.038.899.098.388.056.614.094.679.113.254.07.436.08.545.033.089-.136.15-.253.182-.352l.376-1.185.46-1.18.255-.766.312-.9.302-.964.727-2.044.322-.928.043-.129c.17-.659.243-1.026.219-1.1-.017-.08-.174-.219-.471-.416a149.06 149.06 0 00-.323-.25 2.661 2.661 0 00-.395-.26c-.208-.124-.345-.237-.411-.338a5.28 5.28 0 01.104-.374c.017-.05.044-.122.084-.218a.426.426 0 01.2.01c.155.046.71.24 1.667.582l1.393.41 1.024.328c.447.134 1.03.28 1.748.435.214.044.337.07.37.08.097.03.156.075.179.136.029.083.013.213-.046.392-.047.141-.119.238-.215.29-.053.031-.208.025-.465-.018l-1.294-.096-.19.024a.997.997 0 00-.096.093l-.096.256-.224.571-.055.166-.024.105c-.01.03-.077.196-.2.498a3.157 3.157 0 00-.089.236c-.033.099-.082.267-.147.504-.104.374-.203.7-.295.976-.107.32-.24.683-.397 1.088-.058.152-.128.35-.21.597l-1.502 4.357c-.061.184-.07.314-.023.388l.911.315.577.164.606.202c1.044.314 1.901.448 2.574.4.505-.038.854-.122 1.048-.253.282-.118.527-.264.735-.438.214-.172.492-.481.834-.926l.311.094c.156.046.327.111.513.194l-.087.259c-.148.442-.465 1.199-.952 2.27-.194.428-.33.685-.408.77a2.546 2.546 0 01-.294-.048l-.36-.109-.508-.143a51.579 51.579 0 01-1.133-.421c-.127-.046-.739-.253-1.835-.624-1.096-.37-2.175-.715-3.238-1.035l-2.001-.542a45.41 45.41 0 00-2.183-.545l-.145-.044a2.539 2.539 0 01-.182-.065c.01-.071.023-.132.04-.18.086-.259.171-.44.255-.543m11.718 4.176l.248-.614c.135.003.367.03.695.077.528.072.857.09.987.05.136-.037.332-.17.59-.398l3.725-4.185 4.375-4.921c.21.076.411.146.604.21l.433.144.026.193.288 4.316c.085.923.14 1.811.163 2.666.025.848.06 1.546.103 2.093.023.329.041.816.055 1.463 0 .348.034.796.099 1.344.034.298.075.479.123.543.082.13.246.252.492.367.251.118.508.282.77.491-.043.212-.082.366-.117.463a3 3 0 01-.084.198c-.475-.158-.99-.352-1.546-.584a23.916 23.916 0 00-2.621-.92l-1.667-.46-.479-.139c.079-.213.164-.413.255-.602l1.15.135c.35.028.558.028.625.004a.313.313 0 00.174-.178.74.74 0 00.042-.263l-.055-1.022-.1-2.041-3.675-1.229c-.243.248-.786.87-1.629 1.868-.24.282-.382.481-.425.597-.058.158-.055.285.01.382.105.165.357.34.756.527.054.032.27.14.647.327-.075.222-.127.375-.159.46a1.327 1.327 0 01-.097.203c-.398-.132-1.328-.498-2.792-1.1l-.419-.066a9.4 9.4 0 01-1.397-.34l-.174-.058m6.417-3.63c1.495.516 2.377.818 2.647.908l.244.07a34.613 34.613 0 00-.054-2.138 28.912 28.912 0 00-.142-1.901l-2.695 3.06m11.237-2.838l.334-.77c.324.134.52.218.587.25.737.386 1.734.824 2.991 1.315.19.074.58.205 1.174.395.428.132.752.224.973.275l.688.27c-.176.44-.276.686-.3.74a21.577 21.577 0 00-1.169-.279c-.307-.036-.553-.02-.737.047a.354.354 0 00-.205.192c-.028.065-.05.133-.066.204l-.027.9c-.044.693-.037 1.661.019 2.903l.073 2.727c.014.528.019 1.025.015 1.49l1.099-1.056 2.403-2.512.536-.523c.07-.077.166-.187.286-.328.394-.467.704-.816.93-1.049.232-.23.385-.431.46-.604.05-.114.033-.235-.05-.365-.126-.203-.388-.403-.788-.6a2.101 2.101 0 00-.326-.19 4.827 4.827 0 01-.359-.214c.013-.134.034-.23.06-.29.033-.078.106-.21.216-.397.113.045.427.195.94.451a18.53 18.53 0 001.535.683c.522.203.977.357 1.366.46.392.097.706.188.94.273l-.124.286c-.03.071-.08.177-.149.318-.933-.036-1.49-.03-1.672.017-.114.025-.242.09-.383.195-.413.306-1.128.972-2.146 1.996l-2.493 2.49c-.237.241-.495.496-.773.764-.27.264-.562.558-.879.88-.07.078-.373.378-.909.9l-.164.125c-.642.732-1.102 1.232-1.38 1.5a14.876 14.876 0 01-.479-.166 9.962 9.962 0 01-.492-.213c.008-.206.018-.414.03-.626.011-.212.024-.963.04-2.253l-.136-4.488-.005-2.857c-.066-1.322-.107-2.032-.123-2.129a1.013 1.013 0 00-.219-.462c-.104-.117-.355-.274-.754-.472l-.387-.203m9.106 16.342l.264-.65c.141.011.372.036.69.076.452.055.8.068 1.044.04.19-.145.353-.382.487-.713l.424-1.068.856-2.05.188-.491c.53-1.175.8-1.78.816-1.816l.469-1.207.226-.477.371-1.046.148-.391c.018-.063.036-.167.051-.313-.213-.21-.606-.436-1.177-.68a3.545 3.545 0 01-.322-.149l.294-.804 2.678 1.103c.33.135.538.218.62.248.375.137.984.332 1.828.585.475.14.775.228.898.266-.04.117-.076.214-.108.293a5.866 5.866 0 01-.18.39 11.079 11.079 0 01-.975-.077 6.732 6.732 0 00-.891-.067 3.366 3.366 0 00-.333.656 6.125 6.125 0 00-.228.642c-.433 1.01-.76 1.788-.983 2.336l-.96 2.385-.52 1.198-.714 1.812-.15.34a.892.892 0 00-.046.22c.355.22.685.403.99.55.055.026.239.121.552.284-.049.19-.097.345-.146.465a8.036 8.036 0 01-.134.303 1.604 1.604 0 00-.194-.06c-.208-.063-.328-.1-.36-.111a2.093 2.093 0 01-.236-.118c-.084-.044-.489-.24-1.214-.589l-1.677-.634a17.944 17.944 0 00-1.502-.445 29.01 29.01 0 01-.845-.236m18.948-6.683c-.003.229-.047.563-.133 1.004a13.664 13.664 0 01-.362 1.513c-.036.11-.088.227-.156.349h-.106l-.687-.252-.111-.052c-.022-.897-.13-1.532-.322-1.905-.334-.637-.836-1.053-1.505-1.248-.637-.185-1.196-.173-1.677.038-.472.206-.784.544-.936 1.012-.128.394-.065.827.187 1.299.246.47.907 1.043 1.982 1.72.36.227.78.545 1.26.954.485.411.827.804 1.026 1.179.266.496.412.943.44 1.342.035.395-.033.857-.205 1.387a4.865 4.865 0 01-.895 1.611c-.22.26-.508.482-.867.668-.255.128-.628.259-1.12.392a5 5 0 01-1.45.164c-.472-.016-1.052-.124-1.741-.325-.455-.133-.978-.352-1.568-.66l-1.065-.663c-.297-.181-.477-.318-.54-.41-.024-.035-.034-.102-.03-.202l.032-.101c.022-.068.143-.495.362-1.281.117-.404.202-.69.256-.856l.114-.351.903.242c.09.775.158 1.247.203 1.415.1.373.238.693.414.96.185.264.428.503.728.718.302.21.651.372 1.048.488.35.102.76.144 1.229.125a2.294 2.294 0 001.238-.398c.366-.25.609-.561.729-.93.147-.457.06-.944-.263-1.463-.195-.32-.825-.854-1.891-1.603-1.066-.75-1.78-1.348-2.139-1.797a3.312 3.312 0 01-.684-1.575c-.095-.608-.064-1.155.094-1.642.318-.98.958-1.703 1.92-2.172.963-.468 2.166-.492 3.609-.071.312.09.756.277 1.333.56.35.17.8.442 1.346.817m8.893 13.865c.288.234.5.422.637.564.859.871 1.64 1.54 2.347 2.006.294.196.749.39 1.365.584-.025.257-.048.459-.07.606a3.953 3.953 0 01-.079.39 3.723 3.723 0 01-.551-.036c-.95-.127-1.747-.303-2.393-.527-.457-.159-1.064-.462-1.822-.909-.75-.446-1.73-1.151-2.938-2.115a12.775 12.775 0 00-1.547-1.087c-.98-.561-1.772-1.17-2.375-1.823a6.219 6.219 0 01-1.332-2.25 5.722 5.722 0 01-.214-2.696 6.744 6.744 0 011.399-3.22c.755-.966 1.849-1.685 3.279-2.157.968-.319 2.145-.385 3.532-.198 1.097.148 1.997.399 2.7.754a6.463 6.463 0 012.94 2.857c.294.56.5 1.161.616 1.802.124.642.135 1.304.033 1.987a6.097 6.097 0 01-.747 2.165 6.554 6.554 0 01-1.341 1.666 7.444 7.444 0 01-1.736 1.134c-.39.175-.958.343-1.703.503m-2.46-.84c.492.067 1.072-.004 1.742-.214.678-.215 1.293-.698 1.845-1.451.56-.758.948-1.855 1.163-3.291.162-1.085.174-1.989.034-2.71-.132-.722-.319-1.287-.56-1.698a3.516 3.516 0 00-.993-1.07 3.936 3.936 0 00-1.777-.719c-.58-.078-1.063-.055-1.453.069-.628.208-1.132.495-1.51.861a4.794 4.794 0 00-1.179 1.892c-.247.735-.421 1.441-.523 2.118-.112.753-.15 1.53-.111 2.329.044.8.187 1.454.427 1.962a3.28 3.28 0 001.097 1.27c.492.34 1.091.558 1.798.653m7.546-9.989l-.09-.76c.12-.015.246-.026.375-.036.339-.024.696-.04 1.07-.047a54.72 54.72 0 001.582-.044c.542-.039 1.07-.086 1.584-.142.52-.063.98-.112 1.38-.147.406-.035.68-.061.822-.078l-.001.117.065.567.007.077a8.789 8.789 0 01-1.174.161c-.38.027-.625.116-.736.266-.074.096-.084.481-.031 1.156.017.206.033.373.05.501l.037.346.052.908.122.767.091 1.672.324 2.41c.09.699.298 1.27.626 1.711.244.325.57.57.979.735.59.23 1.16.325 1.71.286a6.596 6.596 0 001.801-.37 3.05 3.05 0 00.902-.501c.282-.227.474-.428.576-.603.216-.371.36-.715.43-1.03.095-.433.107-1.097.037-1.99-.124-1.556-.35-3.302-.68-5.237l-.082-.508c-.05-.378-.145-.627-.284-.746a1.066 1.066 0 00-.756-.247l-.954.087-.135-.019-.037-.734.803-.058 1.949-.06c.65-.047 1.269-.12 1.854-.22l.175.007c.057.209.09.355.096.439.005.07-.001.158-.02.263-.246.089-.507.15-.784.182-.45.09-.697.156-.74.198-.09.084-.128.206-.115.367.008.116.033.282.07.5.033.159.065.437.097.836l.042.53.052.394c.057.462.11.93.162 1.405l.256 1.95c.104 1.311.126 2.192.066 2.642-.06.45-.16.81-.303 1.079-.22.404-.548.786-.983 1.146-.436.355-.992.653-1.668.895-.677.235-1.476.386-2.399.452-1.05.074-1.963.008-2.736-.203-.774-.217-1.372-.527-1.792-.93-.414-.41-.72-.957-.918-1.641-.139-.469-.244-1.147-.314-2.034l-.354-4.6c-.086-1.087-.188-1.697-.308-1.83-.165-.189-.638-.268-1.42-.239-.17.013-.313.013-.43.002m13.311-1.74c.38-.078.713-.133.999-.167a14.344 14.344 0 001.83-.36c.237-.06.839-.236 1.806-.524 1.447-.432 2.761-.8 3.943-1.104l1.776-.477c.4-.102 1.004-.208 1.812-.315.154.094.26.247.321.458l.55 1.923.13.378c.01.037.023.094.038.17l-.399.123a5.443 5.443 0 01-.34.067c-.094-.11-.226-.273-.393-.49l-.584-.561a4.652 4.652 0 00-.875-.697 2.881 2.881 0 00-.652.087l-.613.108c-.625.107-1.288.25-1.99.431-.801.206-1.513.402-2.136.59.025.16.19.775.496 1.845l.468 1.563.337 1.176c.17-.023.313-.05.431-.08 1.175-.302 2.005-.54 2.491-.711.487-.172.778-.31.875-.415.095-.111.161-.275.198-.492.02-.152.003-.639-.048-1.46l.125-.043.574-.137c.184.547.318.964.4 1.25.186.653.3 1.075.34 1.265.047.188.085.335.116.441.048.168.135.436.261.805.125.362.213.633.265.813l.058.206-.699.18a29.493 29.493 0 01-.323-.579c-.297-.545-.518-.875-.664-.991-.111-.092-.266-.142-.466-.151-.144-.01-.636.093-1.476.309-.99.255-1.728.471-2.213.649.04.163.067.27.081.32.212.74.401 1.353.568 1.838l.557 2.02c.067.237.202.376.404.418.307.061 1.149-.085 2.527-.44.912-.234 1.668-.498 2.267-.792.413-.207.74-.515.983-.924.327-.532.53-1.212.61-2.04.199-.072.363-.124.494-.158.073-.018.182-.043.328-.074l.063.405.02.295.141 1.857.127 1.11c-.421.128-.756.224-1.006.289-.367.094-1.357.315-2.97.663-1.134.245-2.493.57-4.074.977-.788.202-1.747.482-2.877.84l-.414.106-1.18.343-.184-.644c.115-.063.355-.161.718-.295.662-.25 1.106-.47 1.332-.663a1.914 1.914 0 00-.086-.709 25.15 25.15 0 00-.165-.539l-.073-.291-1.035-3.511-.292-1.058-.476-1.48-.292-1.057-.42-1.135a1.673 1.673 0 00-.072-.182.522.522 0 00-.333-.054c-.076.006-.18.012-.311.02-.396.021-.77.07-1.12.147-.127.026-.275.05-.444.074l-.165-.76m22.54 6.39l-.234-.62c.746-.4 1.181-.746 1.305-1.038.077-.197.024-.611-.16-1.243l-1.249-3.235-1.253-3.296a9.865 9.865 0 00-.135-.366c-.362-.841-.625-1.307-.789-1.397-.157-.092-.615-.065-1.374.083-.192.032-.343.056-.454.07a5.088 5.088 0 01-.18-.368l-.12-.278c.225-.108.495-.222.81-.344l2.805-.98c.066-.02.156-.047.272-.085l.442-.15c.159.077.334.194.526.35.42.345 1.003.865 1.75 1.558l.208.201 2.779 2.466c.062.06.157.144.286.255.187.178.373.346.558.504.183.152.378.324.585.515.214.19.41.354.587.494.027-.177.044-.368.051-.573.015-.647.044-1.246.086-1.798.066-.973.095-2.432.087-4.379-.001-.312.01-.787.038-1.424.03-.645.052-.988.064-1.027.036-.07.14-.138.31-.204.062-.024.158-.065.288-.122.32-.144.707-.311 1.161-.501.659-.262 1.18-.484 1.564-.668.387-.191.606-.297.656-.316.063-.025.141-.048.235-.07.042.081.074.146.094.193l.097.276c.023.054.054.136.094.246-.555.312-.983.624-1.283.935-.206.219-.271.418-.194.597l.058.134 1.34 2.678c.126.243.712 1.469 1.757 3.675a50.1 50.1 0 00.943 1.86c.054.09.092.163.115.216.068.141.14.222.214.241.081.018.722-.028 1.923-.138.048.093.082.164.102.212.054.125.105.251.153.38-.17.065-.612.198-1.327.398-.717.193-1.375.406-1.973.637a33.844 33.844 0 00-2.935 1.293l-.247-.626c.217-.195.525-.408.925-.64.282-.164.439-.319.472-.464.033-.145-.062-.477-.286-.997a13.822 13.822 0 00-.233-.515 69.219 69.219 0 01-1.181-2.593l-1.52-3.098a12 12 0 00-.467-.906l-.148 6.031a25.33 25.33 0 01-.032.618c-.019.349-.03.586-.034.713-.01 1.292.017 2.267.08 2.925.013.169.021.392.023.67l-.73.272-1.1-1.173c-.305-.3-.797-.743-1.476-1.33-.396-.34-.71-.62-.943-.836a7.147 7.147 0 01-.227-.194l-.21-.18a.347.347 0 00-.067-.079l-2.643-2.33-1.611-1.413 1.747 4.264 1.116 2.775c.196.453.424.744.685.873.265.12.722.135 1.373.043l.5-.068.281.654c-.368.135-.771.264-1.211.385-.436.113-1 .303-1.693.571-.145.056-.753.323-1.826.8m17.023-6.776l-.206-.628a6.81 6.81 0 01.597-.347c.462-.253.73-.433.807-.54.083-.108.151-.328.204-.658l.197-5.473.228-6.433c.214-.063.418-.126.61-.188l.435-.142.146.137 3.043 3.222c.668.675 1.29 1.342 1.866 2 .574.651 1.056 1.18 1.447 1.584.232.245.565.617.997 1.117.229.273.547.606.955.998.221.214.372.332.451.354.15.054.358.054.626 0 .275-.054.583-.076.925-.065.105.19.175.335.21.432.016.043.037.111.064.205a22.26 22.26 0 01-1.596.447 23.862 23.862 0 00-2.66.814l-1.61.617-.466.172a6.688 6.688 0 01-.193-.623l.992-.567c.292-.184.457-.306.493-.365a.292.292 0 00.02-.242.767.767 0 00-.137-.231l-.71-.771-1.412-1.545-3.688 1.19c-.029.336-.05 1.144-.061 2.422-.005.363.013.603.055.718.057.159.143.257.257.295.19.068.503.058.939-.03.062-.006.302-.047.721-.121.086.217.144.368.175.454.024.067.044.139.057.216-.399.13-1.37.388-2.912.774l-.372.193c-.45.228-.89.412-1.32.552l-.174.056m2.673-6.615a388.51 388.51 0 002.673-.839l.238-.087c-.39-.48-.869-1.03-1.438-1.649a31.12 31.12 0 00-1.352-1.41l-.12 3.985m11.196 1.656c.14-.137.369-.273.687-.41.316-.142.592-.3.827-.471a2.228 2.228 0 00-.031-.285c-.015-.09-.108-.387-.277-.89l-.697-2.054-.331-1.117-.306-.852-.147-.503a69.256 69.256 0 00-.6-1.89c-.428-1.278-.717-2.09-.869-2.437l-.61.062c-.536.127-.896.202-1.081.223l-.205-.547.005-.113c.308-.146.598-.26.87-.343.15-.044.45-.138.901-.28.48-.104.738-.162.777-.173l.506-.183 1.197-.42c.733-.302 1.522-.58 2.364-.833 1.329-.4 2.493-.395 3.493.014.998.403 1.636 1.02 1.913 1.85.208.62.183 1.25-.074 1.888-.253.631-.777 1.208-1.572 1.731.121.106.275.225.462.358.396.287.721.534.976.742l2.354 1.92c.6.515.978.811 1.131.887.158.067.447.109.866.125.327.017.585.054.776.111.074.093.124.18.15.26.02.055.04.126.062.214l-.263.08-.191.067-.527.087-.399.12a5.581 5.581 0 00-.783.185l-.976.283c-.071.021-.29.111-.659.27a33.61 33.61 0 00-.402.171l-.534-.509a17.525 17.525 0 01-.92-.86 92.501 92.501 0 00-2.42-2.407c-.525-.505-.866-.777-1.023-.818-.237-.07-.592-.035-1.066.107-.13.039-.348.111-.655.217.04.184.102.4.184.645l.723 2.035.531 1.747c.217.05.48.059.79.026a8.818 8.818 0 011.42-.04c.1.3.164.532.19.693-.126.03-.205.051-.237.06l-.393.14c-1.432.301-2.278.492-2.537.57-.169.05-.288.09-.357.117l-1.314.486c-.394.166-.76.3-1.096.4l-.418.127a5.082 5.082 0 01-.118-.29 2.066 2.066 0 01-.067-.294m2.38-7.28c.316-.08.545-.143.687-.185 1.102-.332 1.82-.754 2.155-1.267.335-.513.398-1.083.188-1.71a3.576 3.576 0 00-.539-1.035c-.225-.311-.45-.524-.674-.64-.32-.167-.695-.254-1.125-.26-.316-.006-.788.085-1.417.274-.298.09-.549.182-.752.277l.048.178.426 1.241.234.762.345 1.002c.082.287.195.655.338 1.106l.087.258m11.698 3.665l-.204-.67c.12-.072.319-.184.598-.335.395-.215.68-.404.857-.567.059-.224.036-.506-.067-.847l-.345-1.093-.627-2.124-.163-.499a366.334 366.334 0 00-.51-1.913l-.396-1.23-.124-.51-.372-1.045-.132-.397a2.13 2.13 0 00-.16-.279c-.303-.044-.76.001-1.37.135a3.674 3.674 0 01-.352.066l-.279-.809 2.836-.658c.35-.082.568-.135.653-.158.385-.106.995-.3 1.828-.583.468-.162.763-.263.885-.303.042.116.076.214.1.295.032.105.068.243.106.414-.235.158-.51.324-.825.498a6.43 6.43 0 00-.752.458c.01.172.061.41.154.713.081.266.157.48.228.642.3 1.052.535 1.86.707 2.423l.759 2.45.35 1.252.587 1.853.098.355c.015.05.05.117.105.203.423-.029.802-.072 1.138-.131.06-.01.267-.04.62-.09a3.643 3.643 0 01.268.773 1.61 1.61 0 00-.193.063c-.205.07-.324.109-.357.118a2.122 2.122 0 01-.263.042c-.096.012-.543.088-1.343.227l-1.74.457c-.346.096-.84.264-1.48.507-.42.156-.694.255-.823.297m12.641-15.787c.119.2.257.51.415.932.237.63.399 1.123.486 1.481.027.114.044.239.05.377l-.093.05-.727.109-.124.008c-.493-.766-.921-1.264-1.284-1.496-.626-.393-1.28-.514-1.963-.365-.649.142-1.126.418-1.431.828-.3.403-.392.844-.276 1.321.098.402.38.747.848 1.035.462.29 1.336.473 2.625.548.431.025.963.1 1.593.228.638.125 1.142.303 1.512.533.492.303.855.62 1.09.953.239.324.424.757.555 1.297.144.59.17 1.197.076 1.82a2.591 2.591 0 01-.398.99c-.153.231-.407.522-.761.87-.357.343-.747.62-1.17.831-.416.21-.975.392-1.678.546-.464.101-1.032.159-1.705.174l-1.273-.07c-.353-.015-.58-.048-.684-.098-.039-.018-.083-.071-.133-.16l-.025-.103c-.017-.07-.138-.496-.363-1.28-.113-.406-.19-.694-.23-.863l-.088-.358.91-.219c.487.628.795 1.004.923 1.128.283.276.572.487.866.635.299.14.635.231 1.009.275.372.038.76.013 1.164-.075a3.77 3.77 0 001.13-.475c.396-.239.683-.55.862-.933.184-.39.23-.775.139-1.152-.113-.464-.446-.845-1-1.14-.337-.185-1.165-.348-2.484-.49-1.318-.142-2.252-.322-2.8-.54a3.575 3.575 0 01-1.424-1.038c-.403-.48-.665-.97-.786-1.466-.242-.998-.07-1.93.515-2.791.586-.863 1.614-1.455 3.085-1.776.318-.07.802-.119 1.45-.148.393-.02.926.003 1.597.068m10.88 10.626l-.07-.693c.132-.051.35-.126.654-.225.43-.142.747-.278.953-.407.102-.21.135-.491.1-.844l-.126-1.135-.201-2.197-.063-.519a360.372 360.372 0 00-.128-1.97l-.15-1.278-.021-.523-.162-1.093-.052-.413a2.08 2.08 0 00-.102-.301c-.29-.097-.748-.133-1.374-.109a3.47 3.47 0 01-.358.004l-.116-.845 2.915-.148c.36-.02.584-.034.672-.042.4-.036 1.036-.12 1.91-.251.492-.077.801-.125.93-.143a5.363 5.363 0 01.064.732c-.263.115-.565.23-.909.345a6.577 6.577 0 00-.828.319c-.024.17-.02.413.011.727.028.276.061.5.099.671.09 1.087.164 1.922.223 2.506l.267 2.54.1 1.293.215 1.923.026.367a.895.895 0 00.063.217c.422.046.803.07 1.145.071l.627.02a3.568 3.568 0 01.112.807 1.625 1.625 0 00-.202.028c-.215.032-.34.05-.374.053a2.008 2.008 0 01-.267-.005c-.096-.004-.55-.008-1.364-.012l-1.798.144c-.36.032-.877.112-1.554.238-.443.08-.732.128-.867.147m8.277-12.789l.001-.678.866.048.296.007c.408.003.69.01.847.018a36.729 36.729 0 01.934.08c.062.004.276.01.643.017.367.008.575.013.622.016.075.005.18.013.315.027.99.96 1.794 1.782 2.412 2.469.618.686 2.88 3.095 6.787 7.225l.015-.241.028-1.122c.02-.658.026-1.178.016-1.56a19.06 19.06 0 01.023-1.373 17.98 17.98 0 00.018-1.452c-.03-.848-.04-1.336-.032-1.465.02-.418-.013-.675-.095-.77-.134-.15-.453-.274-.958-.373-.37-.079-.643-.168-.821-.269l.045-.569.267-.014 2.01.054 2.243.066c.15.002.292.007.428.015l-.029.628c-.16.068-.324.117-.489.147-.44.072-.696.126-.766.16-.358.168-.551.27-.58.307-.067.074-.105.192-.114.353-.002.038-.004.174-.005.406 0 .116-.014.387-.04.812-.051.933-.07 1.671-.055 2.215.003.174 0 .371-.005.59l-.098 3.395c-.008.238-.015.406-.02.502l-.074 1.188v.503l-.063.52c.01.265.015.424.011.475l-.031.512-1.174-.027-1.138-1.254-2.33-2.464-1.63-1.737-1.196-1.307a78.952 78.952 0 00-2.134-2.162l-1.572-1.511-.13 3.596c-.007.219-.018.444-.032.676l-.053.685-.017 1.268c-.012.529-.01 1.104.005 1.724.004.168.014.288.029.36.017.066.051.165.104.297.26.105.832.204 1.719.299.06.016.147.043.26.082l-.008.784-.398-.013c-.217-.012-.9-.098-2.048-.259-1.08-.047-1.8-.067-2.162-.062-.361.007-.559.008-.593.007a2.03 2.03 0 01-.333-.058 4.132 4.132 0 01.035-.734 2.93 2.93 0 01.471-.022c.04.002.173.016.396.041.57.032.908.011 1.015-.06.114-.077.188-.293.224-.646.11-1.02.173-1.643.187-1.869l.033-.53.214-3.137.09-1.961c.04-.747.02-1.268-.056-1.563a.822.822 0 00-.21-.399 2.383 2.383 0 00-.762-.565c-.173-.081-.625-.197-1.358-.347m17.56 12.15c.107.001.32.02.642.055.638.067 1.077.044 1.318-.072.15-.073.286-.253.41-.542.028-.072.34-1.01.933-2.814l.302-1.024.387-1.233.928-3.178.123-.37c.049-.16.041-.297-.024-.408-.032-.056-.153-.113-.362-.17a3.748 3.748 0 00-.605-.106 6.899 6.899 0 00-.797-.138l-.194-.023.24-.82c.42-.013 1.008.025 1.76.11 1.246.141 2.737.45 4.474.926 1.45.398 2.488.767 3.113 1.106.945.522 1.665 1.108 2.16 1.76.66.874 1.075 1.79 1.242 2.748.176.954.113 1.927-.19 2.918-.382 1.25-.997 2.246-1.846 2.986-.847.734-1.892 1.223-3.134 1.465-.875.176-1.962.086-3.262-.27l-1.982-.635-.58-.19-.799-.199-.23-.083-.828-.207-1.085-.308c-.039-.011-.378-.08-1.019-.21-.213-.044-.49-.11-.831-.197a8.974 8.974 0 00-.473-.12c.028-.14.098-.392.21-.758m7.91-9.043c-.078.186-.13.32-.154.4l-.452 1.587-.44 1.37a28.41 28.41 0 01-.328 1.178l-.279.88-.431 1.482-.298.905c-.259.849-.268 1.47-.028 1.865.351.566.951.966 1.8 1.199.647.177 1.142.25 1.485.216.712-.06 1.313-.234 1.805-.522.498-.286.953-.758 1.367-1.416a8.95 8.95 0 00.971-2.14c.382-1.25.482-2.33.3-3.24-.177-.907-.57-1.66-1.18-2.256-.61-.604-1.387-1.035-2.334-1.295-.666-.183-1.267-.254-1.804-.213m7.704 14.617l.312-.63c.14.02.368.06.683.122.446.084.792.12 1.038.109.2-.132.38-.358.539-.679l.502-1.037 1.006-1.988.224-.477c.615-1.136.931-1.722.949-1.757l.557-1.173.262-.46.448-1.019.177-.38c.022-.061.047-.164.074-.31-.198-.222-.573-.474-1.125-.755a3.579 3.579 0 01-.31-.17l.354-.783 2.589 1.28c.32.156.52.252.6.288.364.162.957.397 1.78.706.464.17.756.28.876.325a6.104 6.104 0 01-.13.285c-.049.099-.118.225-.209.377a11.272 11.272 0 01-.966-.142 6.727 6.727 0 00-.884-.126 3.396 3.396 0 00-.38.632 6.19 6.19 0 00-.276.625 148.89 148.89 0 00-1.154 2.264l-1.134 2.315-.608 1.161-.848 1.76-.174.328a.906.906 0 00-.062.218c.338.243.653.447.947.613.052.03.228.138.528.32a3.646 3.646 0 01-.336.748 1.579 1.579 0 00-.189-.073c-.203-.076-.32-.12-.35-.134a2.078 2.078 0 01-.227-.134c-.08-.05-.47-.272-1.168-.668l-1.626-.745a17.815 17.815 0 00-1.465-.545 28.862 28.862 0 01-.824-.291m24.373-1.187c-.034.209-.192.766-.475 1.672-.129.41-.321.814-.577 1.21l-.785-.47c-.057-1.072-.272-1.944-.644-2.617-.368-.679-.914-1.235-1.639-1.669-.89-.534-1.829-.634-2.814-.302-1.338.449-2.538 1.472-3.603 3.069-.617.926-.994 1.623-1.129 2.091-.218.762-.303 1.44-.256 2.032.038.45.192.882.463 1.296.342.548.8.994 1.376 1.339.632.379 1.365.559 2.198.54.843-.022 1.781-.241 2.815-.658a6.2 6.2 0 01.88.435 7.117 7.117 0 01-.542.579c-.076.077-.372.383-.89.92l-.242.198-.376.312c-.522.046-1.145-.057-1.87-.309-.716-.253-1.537-.657-2.462-1.212a11.531 11.531 0 01-1.883-1.392c-.543-.5-.948-1.021-1.215-1.563-.393-.785-.624-1.518-.693-2.2a5.483 5.483 0 01.161-1.997c.182-.646.496-1.304.943-1.974 1.082-1.624 2.54-2.627 4.37-3.01 1.838-.378 3.633-.042 5.386 1.009.712.427 1.358.864 1.937 1.31.59.444 1.111.898 1.566 1.361m-5.01 11.882l.457-.545c.132.05.344.14.635.269.414.18.742.29.984.333.227-.084.457-.265.69-.543l.74-.899 1.463-1.714.335-.415 1.35-1.502.828-1.02.366-.39.684-.893.265-.332c.036-.054.086-.15.147-.284-.138-.26-.441-.588-.91-.982a3.43 3.43 0 01-.26-.233l.534-.685 2.208 1.812c.273.222.445.36.514.412.314.236.834.595 1.56 1.076.41.268.667.437.773.508-.075.1-.14.183-.195.249-.072.085-.17.192-.296.32-.272-.089-.574-.205-.906-.348a6.579 6.579 0 00-.829-.316 3.525 3.525 0 00-.524.531c-.182.217-.322.4-.42.548-.73.841-1.289 1.491-1.673 1.95l-1.668 2.006-.874.996-1.253 1.526-.249.282a.93.93 0 00-.114.198c.27.31.527.578.772.804.044.041.19.184.437.428a3.777 3.777 0 01-.51.654 1.55 1.55 0 00-.165-.113 11.122 11.122 0 01-.309-.208 2.01 2.01 0 01-.188-.179c-.066-.066-.39-.368-.973-.906l-1.401-1.08a17.305 17.305 0 00-1.293-.85c-.377-.235-.62-.39-.731-.465" font-size="12.5" font-weight="700" text-anchor="middle" font-family="Garamond"/></svg>