<svg xmlns="http://www.w3.org/2000/svg" xmlns:xlink="http://www.w3.org/1999/xlink" width="531" height="599.735"><defs><linearGradient x1="104.25" y1="737.374" x2="130.561" y2="789.013" gradientUnits="userSpaceOnUse" gradientTransform="matrix(2.2719 0 0 -2.2719 20.242 2098.008)" spreadMethod="pad" id="a"><stop offset="0" stop-color="#cd8c5d"/><stop offset=".76" stop-color="#fec00f"/><stop offset=".76" stop-color="#fec00f"/><stop offset="1" stop-color="#fec00f"/></linearGradient><linearGradient x1="147.689" y1="807.89" x2="110.11" y2="766.156" gradientUnits="userSpaceOnUse" gradientTransform="matrix(2.2719 0 0 -2.2719 20.242 2098.008)" spreadMethod="pad" id="b"><stop offset="0" stop-color="#cd8c5d"/><stop offset=".75" stop-color="#fec00f"/><stop offset=".75" stop-color="#fec00f"/><stop offset="1" stop-color="#fec00f"/></linearGradient><linearGradient x1="132.658" y1="785.973" x2="115.907" y2="771.412" gradientUnits="userSpaceOnUse" gradientTransform="matrix(2.2719 0 0 -2.2719 20.242 2098.008)" spreadMethod="pad" id="c"><stop offset="0" stop-color="#cd8c5d"/><stop offset=".86" stop-color="#fec00f"/><stop offset=".86" stop-color="#fec00f"/><stop offset="1" stop-color="#fec00f"/></linearGradient><linearGradient x1="149.915" y1="768.11" x2="127.96" y2="781.829" gradientUnits="userSpaceOnUse" gradientTransform="matrix(2.2719 0 0 -2.2719 20.242 2098.008)" spreadMethod="pad" id="d"><stop offset="0" stop-color="#cd8c5d"/><stop offset=".83" stop-color="#fec00f"/><stop offset=".83" stop-color="#fec00f"/><stop offset="1" stop-color="#fec00f"/></linearGradient><linearGradient x1="137.192" y1="750.453" x2="141.838" y2="769.088" gradientUnits="userSpaceOnUse" gradientTransform="matrix(2.2719 0 0 -2.2719 20.242 2098.008)" spreadMethod="pad" id="e"><stop offset="0" stop-color="#cd8c5d"/><stop offset=".9" stop-color="#fec00f"/><stop offset=".9" stop-color="#fec00f"/><stop offset="1" stop-color="#fec00f"/></linearGradient><linearGradient x1="122.131" y1="753.855" x2="131.511" y2="754.511" gradientUnits="userSpaceOnUse" gradientTransform="matrix(2.2719 0 0 -2.2719 20.242 2098.008)" spreadMethod="pad" id="f"><stop offset="0" stop-color="#cd8c5d"/><stop offset=".94" stop-color="#fec00f"/><stop offset=".94" stop-color="#fec00f"/><stop offset="1" stop-color="#fec00f"/></linearGradient><linearGradient x1="114.849" y1="769.188" x2="119.131" y2="759.099" gradientUnits="userSpaceOnUse" gradientTransform="matrix(2.2719 0 0 -2.2719 20.242 2098.008)" spreadMethod="pad" id="g"><stop offset="0" stop-color="#cd8c5d"/><stop offset=".86" stop-color="#fec00f"/><stop offset=".86" stop-color="#fec00f"/><stop offset="1" stop-color="#fec00f"/></linearGradient><linearGradient xlink:href="#a" id="h" gradientUnits="userSpaceOnUse" gradientTransform="matrix(2.2719 0 0 -2.2719 20.242 2098.008)" spreadMethod="pad" x1="104.25" y1="737.374" x2="130.561" y2="789.013"/><linearGradient xlink:href="#b" id="i" gradientUnits="userSpaceOnUse" gradientTransform="matrix(2.2719 0 0 -2.2719 20.242 2098.008)" spreadMethod="pad" x1="147.689" y1="807.89" x2="110.11" y2="766.156"/><linearGradient xlink:href="#c" id="j" gradientUnits="userSpaceOnUse" gradientTransform="matrix(2.2719 0 0 -2.2719 20.242 2098.008)" spreadMethod="pad" x1="132.658" y1="785.973" x2="115.907" y2="771.412"/><linearGradient xlink:href="#d" id="k" gradientUnits="userSpaceOnUse" gradientTransform="matrix(2.2719 0 0 -2.2719 20.242 2098.008)" spreadMethod="pad" x1="149.915" y1="768.11" x2="127.96" y2="781.829"/><linearGradient xlink:href="#e" id="l" gradientUnits="userSpaceOnUse" gradientTransform="matrix(2.2719 0 0 -2.2719 20.242 2098.008)" spreadMethod="pad" x1="137.192" y1="750.453" x2="141.838" y2="769.088"/><linearGradient xlink:href="#f" id="m" gradientUnits="userSpaceOnUse" gradientTransform="matrix(2.2719 0 0 -2.2719 20.242 2098.008)" spreadMethod="pad" x1="122.131" y1="753.855" x2="131.511" y2="754.511"/><linearGradient xlink:href="#g" id="n" gradientUnits="userSpaceOnUse" gradientTransform="matrix(2.2719 0 0 -2.2719 20.242 2098.008)" spreadMethod="pad" x1="114.849" y1="769.188" x2="119.131" y2="759.099"/></defs><path d="M79.372 212.734c-4.261 2.53-6.495 6.684-4.974 9.248 1.522 2.562 6.24 2.587 10.5.058 4.26-2.53 6.495-6.682 4.974-9.247-1.521-2.563-6.239-2.59-10.5-.06zM451.627 212.734c4.261 2.53 6.496 6.684 4.975 9.248-1.522 2.562-6.24 2.587-10.5.058-4.262-2.53-6.497-6.682-4.974-9.247 1.521-2.563 6.238-2.59 10.499-.06z" fill="#573f2f"/><path d="M229.117.93s-1.304.523-.913 2.608c.39 2.087-3.129.52-3.129-.13 0-.651-1.044.783-.653 1.174.391.392 1.565.912 2.086 1.825.523.912-.13 2.609-.65 2.086-.523-.52-2.218-.65-1.957-.129.26.522 1.566.653 2.608 2.478 1.044 1.823-.13 1.956-.13 1.956s-1.565-.523-1.565.261c0 .783.262 1.564 1.174 2.086.913.523 2.87 2.088 3.912 2.088 1.044 0 .653 1.432.653 1.432s-1.956-.912-2.348.392c-.391 1.303.913 2.348.913 2.348s3.26 2.348 4.564 2.608c1.304.26 2.087 1.956 1.304 2.086-.783.129-3.13.261-3.913.129-.782-.13-1.695 1.435-.912 2.088.783.652 3.26 1.565 5.477 2.088 2.216.519 1.826 1.432 1.304 1.694-.522.261-3.912.653-4.695 0-.783-.653-2.738.782-.912 1.826 1.826 1.043 5.217.52 4.955 2.607-.26 2.086-1.955 1.303-2.738 1.435-.783.13-1.826 1.303-.39 2.086 1.433.782 4.172 2.347 5.605 2.347 1.435 0 1.826 2.217 1.044 2.217s-3.782-.26-3.913-.522c-.13-.26-2.737 0-.13 1.957 2.608 1.825 1.043 1.173 3.521 2.086 2.478.912 0 2.348-.391 2.217-.39-.131-2.217 1.304-.522 1.824 1.696.524 3 1.305 2.479 1.827-.524.523-2.088 1.954-.262 2.346 1.826.392 4.563.785 3.521 2.218-1.044 1.434.391.651 2.216 1.303 1.826.654.13 2.087-.521 1.957-.653-.13-4.825-2.217-5.217-1.044-.39 1.174.262 1.567.262 1.567s3 .521 4.302 1.565c1.304 1.04 1.565 1.954 0 1.954-1.564 0-2.216-1.564-3.128-.652-.913.915 1.042 2.347.39 4.172-.652 1.827-1.826.653-1.826-1.825 0-2.476-2.086-4.432-2.086-4.432s-.782 1.955-.782-1.176c0-3.128-1.827-1.565-1.827-.52 0 1.043 1.174 2.87.262 3.26-.914.391-3.39-3.651-3.39-5.087 0-1.435-2.088-1.694-2.088 0 0 1.696 1.044 5.478 2.348 7.695 1.305 2.217 3.651 5.085 2.478 5.737-1.173.652-2.217.783-2.217-.391s-4.433-11.605-6.65-14.214c-2.218-2.608-2.347-2.479-2.347-.783 0 1.694 4.041 6.39 3.128 9.128-.913 2.74-1.826 0-1.955 0-.13 0-2.088-7.824-6-12.908-3.911-5.085-3.911-1.697-2.867-.392 1.042 1.302 5.085 6.39 4.564 9.65-.523 3.26-1.565 1.823-1.826.26-.261-1.564-3.913-11.474-8.606-15.388-4.695-3.911-3.914-.13-2.87.524 1.044.652 5.999 5.736 6.13 10.301.13 4.564-1.436 1.564-1.827.653-.39-.914-2.216-8.608-7.693-13.171-5.477-4.564-2.608 1.172-2.608.39 0-.783 5.736 5.346 5.736 9.257 0 3.913-1.694 2.48-1.824 1.696-.131-.782-2.477-7.691-6.78-10.562-4.305-2.869-4.043-3.652-5.609-3.128-1.564.52-2.477.129-2.999-.786-.521-.91-4.954-2.475-3.26.786 1.696 3.259-2.608-.653-2.738-.786-.13-.128-5.478-2.604-3.651 0 1.824 2.611 8.606 3.915 8.606 7.175s1.174 3.65-1.174 2.086c-2.348-1.565-3.651-6.52-9.128-8.216-5.477-1.695 0 3-.13 2.35-.13-.654 4.565 2.738 2.086 3.39-2.477.65-2.868-1.697-3.65-2.87-.783-1.174-3.913-3.915-4.695-2.737-.783 1.173.913 1.694-.26 1.694-1.175 0-4.435-1.175-4.304 1.043.13 2.218-1.044.912-1.826.912-.783 0-2.086.392-1.955 1.176.128.783-2.478 0-2.478.912 0 .91 1.303 1.302 2.087 1.435.783.129 1.433.65 0 1.955-1.436 1.303-.914 3.652.783 2.999 1.693-.652 3.128-1.696 4.693-1.696 1.565 0 1.955-.39 1.174.783-.782 1.173-1.696 2.608 0 2.608 1.695 0 6.39-4.04 7.433-2.476 1.042 1.564 1.042 1.955-.262 3-1.303 1.04-.129 2.216 1.956 1.954 2.086-.261 5.347-2.345 7.173-1.304 1.825 1.043.521 1.304-.391 1.826-.914.523-2.087 1.957-.522 1.957 1.564 0 2.868-.523 5.607-.39 2.738.128 1.565-1.567 3-.262 1.434 1.302 2.347 1.302.521 2.086-1.826.783-2.478 2.74-.26 2.607 2.216-.13 4.563-1.823 7.433-1.433 2.868.392 2.998.65 1.824 1.824-1.173 1.174-3 1.044-3 2.35 0 1.303 1.957 1.303 2.74 1.04.783-.257 2.998-1.302 4.042-1.302 1.043 0 2.086.13 1.173 1.174-.912 1.043-1.565.521-2.217 1.565-.651 1.043-.651 1.435 1.305 1.565 1.956.131 5.085-.26 5.607 0 .521.26 3.13.26 1.826.78-1.305.525-4.304 2.09-2.609 2.48 1.696.39 3.521.782 5.608.52 2.086-.259 4.041 1.044 2.868 1.435-1.173.393-2.608 1.565.13 1.565 2.74 0 4.433 0 4.433 1.044 0 1.043-1.694.39-2.477 2.088-.782 1.694 5.347 6.91 8.346 11.607 2.998 4.693 2.738 1.172 1.695 2.999-1.043 1.823-3.13 1.172-3.782-.394-.651-1.565-2.086-4.303-5.999-8.083-3.911-3.782-3.651-4.174-4.172-4.174-.523 0-1.566 1.044.13 3 1.694 1.956 5.867 4.825 6.65 8.216.782 3.39-2.478 1.694-2.609.912-.13-.783-2.216-5.87-7.17-10.303-4.957-4.433-9.39-4.563-7.565-2.478 1.826 2.09 8.346 5.48 9.129 9.78.782 4.306-2.479 1.827-2.608 1.044-.13-.782-2.869-6.13-7.564-9.388-4.694-3.261-7.693-2.87-6.39-.654 1.305 2.217-.782 1.436-1.172 1.043-.39-.389-3.783-2.737-4.695-2.216-.913.521-1.564.653-.782 2.088.782 1.432-1.306.521-3.13-.132-1.826-.65-4.044-1.435-4.044.262 0 1.694-3-.522-3.78-.653-.783-.13-6.782-1.564-6.782-.39 0 1.173 2.478 2.737 0 2.87-2.477.128-5.215.52-3.912 1.955 1.304 1.435 4.825-.522 8.607 4.562 3.782 5.088-1.434 1.957-1.564 1.957-.132 0-1.956-2.739-4.435-3.782-2.477-1.043-5.086-2.347-7.693-2.608-2.608-.258-4.825 1.173-2.478 2.216 2.349 1.045 7.303 1.306 9.911 4.435 2.609 3.13-3.26.915-3.782-.13-.521-1.043-7.042-2.217-7.042-2.217s-9.91-.131-2.998 2.347c6.91 2.48 10.432 4.956 4.042 3.13-6.39-1.824-16.432-1.565-11.867.39 4.564 1.957-1.826.785-2.868.914-1.044.129-4.044 1.043-1.956 3.782 2.085 2.737-2.869.52-.261 1.565 2.608 1.043-3.39 2.217.911 2.477 4.306.26-6.388 2.477-3.78 2.739 2.608.261-4.434 4.825.783 3.651 5.215-1.172.522.39 2.477 1.433 1.955 1.043 2.087-2.605 2.868-2.737.784-.13 3-4.173 3-1.174 0 3-1.304 4.825 2.608.652 3.912-4.172 2.999-1.305 2.738.13-.261 1.435 0 2.999 1.435 2.087 1.435-.914.653 3.259 2.217 1.174 1.564-2.088 1.304-4.825 3.13-5.998 1.826-1.174 3.65-2.48 2.477.52-1.174 2.999-.651 5.869 2.217 1.697 2.868-4.174 4.042-5.088 3.39-2.609-.652 2.476-.261 4.693 1.825 1.694 2.087-2.999 3.913-3.78 2.74-1.173-1.174 2.608.782 1.304 1.955.783 1.175-.522 1.826-.65 1.435 1.043-.393 1.695 3.26-4.172 4.303-5.346 1.043-1.173 4.564-4.564 1.565 1.564-3 6.129 2.215 1.304 2.215 1.304s8.478-8.215 5.347-2.477c-3.13 5.738-1.564 6.261.913 4.433 2.478-1.825 5.608-7.824 3.782-2.998-1.825 4.826-1.174 5.866 1.826 2.738 2.999-3.13 9.389-10.825 7.04-3.913-2.347 6.912 2.609 1.434 3.392.523.781-.915 4.825-3 1.695 1.043-3.129 4.04 2.608 1.564 3.782.65 1.174-.912 5.345-4.693 2.347.261-3 4.955-1.043 3.261 2.216 1.565 3.261-1.695 3.652 0 2.087 2.088-1.564 2.084-3-.524-1.564 3.128 1.435 3.653-1.956 1.697-3.392 1.956-1.434.26 1.304 1.695-1.955 2.346-3.261.653-12.91.915-7.432 3.522 5.477 2.608-1.434.521-2.217 1.303-.782.782-4.434 1.305-2.348 2.217 2.087.915-2.347 1.564-3.26 1.435-.912-.129-11.083 1.827-5.607 2.48 5.476.651 16.56-2.218 17.343.651.785 2.868-5.345 1.043-7.041 1.043-1.695 0-24.386 1.433-14.736 2.477 9.65 1.04 10.693-.132 11.737.783 1.042.91-4.955 1.302-6.781 1.302-1.826 0-14.865 1.827-9.52 2.347 5.347.523 4.826 1.044 1.304 1.826-3.52.783-9.519 2.87-2.738 3.13 6.78.261 15.388.522 7.172 1.957-8.216 1.434-8.477-.653-13.171.911-4.694 1.568-7.173 2.609 7.042 2.741 14.214.13 1.955 1.041 2.346 1.564.391.522-10.561.129-15.908 2.217-5.346 2.085-2.738 3.001-4.304 4.302-1.563 1.305-5.215 4.305 3 3 8.216-1.302-3.13 2.869-4.173 2.869-1.044 0-12.128 8.866 1.955 2.738 14.085-6.128 5.217-1.173 4.304.653-.912 1.825-12.127 4.823-12.127 4.823s-1.044 2.609 2.215 1.826c3.262-.782 5.739-4.564 7.434-2.868 1.695 1.695-3.26 2.609-7.172 4.435-3.912 1.823-9.65 7.301 1.696 2.606 11.344-4.694 1.826 1.176.912 1.696-.912.521-6.78 1.826-8.866 5.608-2.088 3.782-1.174 6.78 1.564 4.954 2.739-1.825 3-1.435 1.695.912-1.303 2.35-1.955 6.522-1.042 7.434.912.914 2.216 2.216 2.737-2.347.523-4.564 2.087-3.781 2.087-1.697 0 2.088 1.435.785 1.826-2.214.392-3.003 2.347-2.478 2.347-.915 0 1.565 1.044 2.87 1.826-2.48.782-5.344 1.695-5.603 1.957-3.256.26 2.346 1.824 6.78 2.476-.391.652-7.173 1.696-6.781 2.087-4.044.392 2.739 1.696 4.435 2.608-1.955.915-6.39.652-11.477 1.956-5.346 1.304 6.13 2.609-1.176 2.609-3.78 0-2.609 1.825-5.738 1.825-2.088 0 3.651 1.956 7.303 4.043.52 2.086-6.778 2.216-9.126 2.216-4.432 0 4.693 2.217 1.565 2.478-.13.26-1.695 2.74-14.866 3.912-5.868 1.174 8.999 2.608 1.435 2.478-.653-.132-2.088 2.346-11.474 2.477-2.088.13 9.392 3.13-1.302 3-1.823-.131-.524 1.172-10.434 2.476-2.35 1.305 8.086 2.609-.52 2.478-1.432-.13-.914 3.13-11.607 2.479-2.347-.652 9.258 2.085 2.215 2.085 1.041 0-1.173 2.087-9.259 2.216-3 .132 6.262 2.218-2.736 2.218-2.347 0 .392.782-.129 1.304-3.261.522-3.128 1.695-.78 1.695.654 0 1.435-2.086 5.345 1.304 3.52 3.39-1.824 1.304.39 1.435 1.826.13 1.435 6.128-3.65 9.39-4.434 3.259-.782 5.214.652.782 1.825-4.434 1.175-11.868 6-12.91 7.696-1.043 1.693-1.825 4.565.26 3.65 2.088-.913 1.305.782.39 1.434-.911.654-4.04 6.39.654 3.131 4.694-3.26 1.173-2.74 7.824-5.087 6.651-2.345 1.566 1.303-.522 2.217-2.086.912-9.78 4.044-12.91 7.826-3.13 3.781.262 3.39.652 3.128.391-.261 3.652-4.302 8.215-6.127 4.565-1.827 4.696-1.957 4.043.129-.652 2.088-4.173 1.435-6.52 3.261-2.347 1.825-6.39 4.172-8.345 7.823-1.957 3.65-2.087 3.13.391 3.26 2.477.131 6.78-8.084 10.693-8.607 3.911-.52 1.042 2.347.521 2.347-.52 0-2.478.132-4.955 2.088-2.477 1.955-5.476 3.52-6.65 6.259-1.174 2.738-1.304.783 2.086.783 3.39 0 2.216-4.434 6.39-5.087 4.174-.653 2.738 2.479 1.565 2.741-1.173.258-8.085 2.476-11.345 7.692-3.26 5.217 2.086 2.477 2.086 2.477s2.348-3.912 6.781-5.739c4.434-1.823 1.435 1.436 1.826 1.568.391.13-7.694 2.476-11.737 8.476-4.04 5.997 1.566 3.519 1.957 2.477.391-1.044 3.39-5.607 7.04-6.522 3.653-.91 1.567 2.217.652 3.133-.911.912-7.432 1.955-10.3 7.824-2.869 5.867 2.086 1.823 2.086 1.823s1.826-5.085 6.52-5.737c4.694-.653 3.129 0 .39 2.347-2.738 2.35-7.433 4.955-7.563 7.824-.13 2.87-.651 4.697 1.957 2.086 2.607-2.606 5.998-5.476 5.998-5.476s3.65.263 0 1.695c-3.652 1.435-8.216 5.869-8.216 7.304 0 1.435-1.695 5.478 2.348 1.173 4.042-4.302 1.825-.783.912 1.044-.912 1.826-2.476 8.215 1.435 3 3.913-5.217.523-4.956 2.609-3.262 2.086 1.697 1.433 1.565.782 2.479-.651.912-.782.391-3 3.781-2.217 3.39-4.954 5.476-2.217 5.868 2.74.39 1.437 3.65 1.566 5.087.13 1.433 1.434 2.345 2.738 1.172 1.304-1.172 1.044 3.261 1.044 4.564 0 1.306 1.826.783 1.826.13 0-.65-.262-5.215 1.173-3.39 1.434 1.825 2.738 1.306 2.347-.26-.391-1.565-3.39-8.478-.522-5.87 2.87 2.61.522-3.26.261-4.042-.261-.783-.261-4.955 1.564-.521 1.827 4.434 1.827-2.738 1.436-3.652-.391-.912.39-3.78 1.303-.65.914 3.128.523-.783-.26-5.087-.783-4.303-2.087-8.869.26-6.781 2.348 2.088 4.694 2.737 3-.653-1.695-3.39-4.825-11.996-1.956-8.998 2.868 3.003 2.608 3.003 2.348.262-.262-2.737-.391-3.91 1.564-1.954 1.956 1.954 2.217-2.48 1.044-3.523-1.174-1.042-3.13-6.258-1.306-4.956 1.827 1.306 1.175-1.04.915-2.084-.262-1.043 1.303-.912 2.085-.13.784.783.13-3.78-.65-4.304-.783-.52-2.61-6.912-.392-4.826 2.217 2.088 1.956 1.044 2.608-.652.651-1.694 1.304-1.04.651 1.176-.651 2.217-2.217 5.736.262 4.825 2.477-.914.39 1.433.13 2.739-.261 1.302-.784 4.562 1.565 2.866 2.346-1.694.651 2.218.39 3.131-.261.912-2.216 8.608 1.565 2.867 3.782-5.738 2.74-4.824 1.435-1.434-1.303 3.391-3 7.566-2.478 8.738.522 1.174 2.738-1.565 5.478-8.348 2.737-6.78 6.388-8.605 5.215-6.258-1.174 2.347-4.433 8.085-5.868 11.998-1.435 3.91-4.303 13.43-1.173 10.692 3.13-2.738.913 1.436.653 2.479-.262 1.043-1.306 5.216.128 3.258 1.436-1.954 1.436 1.567 1.305 3.784-.13 2.215.782 2.737.26 5.996-.521 3.262 1.696 2.87 2.217 1.826.522-1.044.39 2.218.652 3.132.261.911.523 2.867 1.956 1.823 1.435-1.04 1.435 1.435 1.435 2.611 0 1.173 1.825-4.176 1.433.259-.39 4.434 2.478 7.434 2.609 5.346.13-2.086 2.217-.392 2.868 2.608.652 2.999 2.87 3.78 2.87 1.826 0-1.956-2.218-7.953.13-5.346 2.347 2.608 1.694-.523 1.434-1.564-.26-1.043-4.563-4.954-2.217-4.043 2.348.914 3.261-.392 2.348-1.566-.913-1.173-4.304-4.433-1.956-4.563 2.347-.132 2.608-1.567.781-3.914-1.824-2.347 1.044-1.954 2.48-.91 1.433 1.042.913-2.217-.653-3.912-1.565-1.697-3.65-6-.913-4.958 2.739 1.043 1.957-.911 1.566-1.826-.392-.912-6.39-6.91-1.956-4.692 4.433 2.217 3.26 1.302 2.348-1.306-.913-2.606-6.261-8.346-2.74-7.563 3.52.783 2.74-1.565 1.565-3-1.173-1.432-3.26-4.431-.13-3.78 3.13.651-1.173-2.349-1.043-2.868.13-.523-2.477-3.39.13-3.261 2.608.13 1.956-.653.913-2.738-1.043-2.088-1.956-3.782 1.043-2.088 3.001 1.697 1.566-2.085 1.043-3.39-.522-1.302-4.434-4.693-1.173-4.302 3.26.391.913-1.826.782-2.609-.13-.783 3.78 0 2.349-2.478-1.435-2.476-6.392-6.911-3.392-6.39 3 .524.262-3.258-.13-4.564-.392-1.303-2.088-4.432.13-3.52 2.217.911 3.13 4.955 4.825 5.216 1.695.26 3.782-.524 2.999.65-.782 1.174.783 1.043 2.608-.911 1.824-1.956 3.26-5.476 3.52-3.653.262 1.826-1.041 3.914-1.825 4.955-.783 1.043-5.346 6.13-5.346 8.216 0 2.088-.13 2.87 2.87-.912 2.998-3.781 6.389-5.345 4.433-1.435-1.957 3.914-5.477 11.997-1.173 6.78 4.302-5.215 5.607-4.04 1.954 1.174-3.65 5.217-3.39 7.954-.13 4.173 3.261-3.78 7.694-9.649 3.783-1.303-3.913 8.345-7.434 10.954-3.13 8.474 4.303-2.474 4.04-2.736 2.867-.258-1.173 2.476-4.432 4.693-4.432 5.346 0 .65-.782 4.826 3.129.65 3.913-4.17 3.781-1.433 2.477.653-1.303 2.088-11.215 13.694-2.608 7.956 8.606-5.74 1.564.26 1.564 1.041 0 .783-5.215 9.518.652 3.523 5.869-5.999 2.087 1.433 1.043 1.694-1.043.261-8.866 11.216-3.52 8.216 5.347-3 6.65-6.13 5.607-2.87-1.043 3.261-4.564 5.35-5.215 6.26-.652.912-4.564 7.955-.392 5.084 4.173-2.867 6.52-6.78 5.217-3.386-1.305 3.386-5.217 7.43-2.217 6.91 2.999-.524.259 1.826-.392 3.258-.65 1.435-1.042 3.915.784 3.131 1.826-.783 1.304 1.956 1.304 3.13 0 1.173 2.086 1.954 2.608-.26.521-2.217-.652-2.088 1.956-1.696 2.607.39-.393-1.827-.13-3.52.26-1.697 2.606-.653 3.52.128.913.784 2.608 2.609 3.651.912 1.042-1.693-2.348-7.563-4.302-9.78-1.957-2.213-1.827-6.78-.263-4.954 1.566 1.826 4.043 6.519 4.305 7.695.26 1.173 1.954 0 1.173-2.87-.782-2.87-1.955-5.999-3.651-7.563-1.696-1.565-3.26-5.607-1.174-4.173 2.087 1.436 5.217 9.52 5.217 9.52s3.26 5.345 2.606-.784c-.65-6.128-6.26-10.824-6.91-11.735-.651-.914-2.608-4.043-.651-3.912 1.954.13 5.997 8.605 5.997 8.605s2.348.782.39-4.564c-1.954-5.346-5.996-6.91-6.518-7.825-.521-.912-1.566-6.257.912-3.26 2.479 3 5.347 6.781 5.87 9.65.52 2.87 2.216-.522 1.303-2.347-.912-1.826-2.869-7.693-6.52-10.824-3.651-3.129-2.086-4.564-.261-2.607 1.825 1.958 8.476 13.954 8.085 7.955-.391-5.997-6.651-10.823-7.825-12.129-1.173-1.302-1.433-4.563.653-2.084 2.086 2.478 7.172 9.39 5.738 4.172-1.437-5.215-7.824-8.997-7.824-8.997s-2.217-3.52.391-2.347c2.607 1.173 12.91 15.908 9.778 6.91-3.127-8.997-4.04-4.563-4.562-6.519-.523-1.957 2.738-1.304 2.738-1.304s-1.825-2.609-4.043-4.041c-2.216-1.435-1.695-2.479-.13-1.826 1.565.652 3.521.13 1.173-2.48-2.347-2.606-4.433-7.3-1.043-3.781 3.391 3.523 6.13 3.523 4.043-.13-2.086-3.65-5.085-4.694-3.782-6.65 1.304-1.955-1.825-5.216.914-3.782 2.738 1.435 1.565 5.346 3.39 4.174 1.825-1.174 1.696-8.217 2.869-.522 1.173 7.693 3.128 9.258 3.128 4.956 0-4.305 2.739.261 2.739 4.954 0 4.695 1.957 7.694 2.478 3.652.522-4.043 1.957-5.608 1.826 0-.13 5.608 3.651 5.476 3.521.653-.131-4.826 2.869.783 1.826 6.388-1.044 5.607-.915 14.084 2.347 4.566 3.26-9.522 2.607-3.915 3.13-.653.521 3.261.651 7.693 2.868 3.39 2.217-4.305 1.174 4.174 1.042 6.52-.128 2.346 2.74 2.998 2.74.128 0-2.866 2.868 1.045 1.954 4.958-.91 3.91 0 4.434 1.697 4.693 1.694.262 2.999 6.52 3.129 3.653.13-2.87 1.173-1.175 2.606.52 1.436 1.695 3-.782 3.132 1.955.13 2.74 1.956.132 1.564-4.432-.391-4.564 2.217.262 3.39 1.045 1.174.782 3.522.65-.521-7.435-4.041-8.086 1.173-1.043 2.217-1.695 1.044-.653-1.435-3.912-2.347-5.347-.914-1.434-1.044-3.52 1.174-3.911 2.217-.39.912-1.435-2.61-3.78-3.52-2.351-2.085-2.089.262-2.218 2.348-.132-.652-2.088-2.869-3.653-2.216-1.563-5.216-4.302-1.826-4.954 3.39-.653 2.217-2.347-2.477-3.652-4.695-1.303-8.346-2.216-4.174-3.391 4.174-1.174 4.956-1.042 2.479-1.825-2.479-.782-4.826.132-4.564-2.476.26-2.609 1.826-3-1.043-4.044-2.87-1.043-1.566 0-5.478-.52-3.912-.523 2.478-.915 3.26-3 .783-2.088-1.825-1.305-2.998-1.434-1.175-.132-4.435-1.306-1.957-2.347 2.477-1.043-2.607-3.261-4.433-3.261-1.826 0-4.303-1.044-1.174-2.741 3.129-1.694-1.695-2.476-3.52-2.476-1.827 0-4.696-.91-1.827-1.956 2.869-1.043-2.217-2.087-3.259-1.955-1.044.129-6.13-.39-1.696-1.696 4.433-1.303-2.087-2.476-3.782-2.217-1.695.262-3.13-2.868-3.13-2.868s-2.215-7.17-.128-4.956c2.086 2.217 9.128 9.13 7.04 4.956-2.086-4.174-3.39-7.303-.782-4.956 2.608 2.35 5.738 11.477 5.738 6.13 0-5.348-3.65-8.477.39-4.825 4.044 3.651 4.044 10.954 5.479 6.127 1.434-4.824-.263-6.259 2.476-2.476 2.74 3.782 1.696 1.174 2.088-.784.39-1.954 1.173-.52 1.695 1.958.522 2.476 3.782 6.258 3.13.129-.653-6.128 1.434-2.217 2.347 0 .912 2.218 2.347 6.523 3.259 1.956.913-4.563 3.13 1.044 3.522 3.262.391 2.217 3.26 4.954 2.608-.13-.654-5.088 2.739.52 2.739 2.737s3.39 3.912 2.477-1.434c-.913-5.347 2.086-3.653 3.26 1.173 1.173 4.826 3.39 7.433 3.39 2.218 0-5.218 2.217-1.174 3.26 2.084 1.044 3.261 4.434 10.826 4.043 2.217-.392-8.605.261-4.431 1.825-1.041 1.565 3.39 3.652 8.083 3.652 2.476s2.347-.912 2.738 1.958c.392 2.867 1.826 8.603 2.477 2.867.652-5.737 1.696-1.044 2.479.914.782 1.955 4.433 2.346 4.433.65 0-1.694-.522-2.608 1.826-2.086 2.347.522 1.042-4.042.261-3.39-.784.65-.913-2.74 1.693-2.217 2.608.522-.129-3.652-1.172-3.652s0-1.565-2.869-2.347-1.565-2.216-1.302-2.998c.259-.783.391-1.436-1.827-1.957-2.217-.523-.782-1.825-.522-2.74.26-.91-.392-1.694-2.868-.91-2.477.781-7.304-.263-3.522-1.698 3.782-1.433 3.261-3.128.523-3.258-2.74-.132-4.434.129-2.608-1.696 1.825-1.824-1.827-2.867-4.696-2.347-2.867.523-9.78 2.478-6.257.523 3.52-1.957 3.912-4.304 1.173-3.914-2.738.39-10.824 1.956-7.565.523 3.261-1.433 4.957-4.956 1.695-4.566-3.26.392-9.519 2.608-6.258.131 3.26-2.477 3.52-4.433.262-4.304-3.262.132-7.694 3-6.52 1.565 1.173-1.433-.784-3-3-2.476-2.216.521-4.695-1.044-.132-2.217 4.565-1.174-1.564-1.303-6.128-.392-4.565.912-9.127 1.174-4.042-1.173 5.085-2.346-.782-2.738-3.652-1.564-2.868 1.173-7.825 3.259-4.693.52 3.13-2.737-2.87-1.043-4.564-.261-1.695.782-5.999.39-3.39-1.041 2.607-1.435-1.567-2.348-2.609-.782-1.045 1.564-3.912-.785-1.825-1.826 2.085-1.045-2.218-.132-4.435 1.303-2.215 1.434-5.868 1.954-4.954.523.913-1.435-3.522.26-5.476 1.823-1.956 1.567-5.479-2.737-3.522-3.258 1.957-.524.783-2.218-1.304-3-2.086-.783.52-2.088 3.39.782 2.87 2.868 1.306-2.74.654-3.26-.653-.522-4.044-3.39.652-2.609 4.692.784 5.737 1.435 4.172-1.044-1.564-2.476-1.957-3.128 1.826-1.693 3.78 1.435 6.911.262 5.086-1.564-1.827-1.827-.652-2.608 1.694-1.436 2.35 1.174 3.262 1.303 2.089-.91-1.177-2.218-.392-3.262 2.476.128s6.78 1.564 4.173-.783c-2.608-2.347-1.564-3.261 1.042-1.305 2.609 1.958 4.564.915 2.479-1.302-2.087-2.217-1.042-4.305 2.348-1.306 3.39 3 5.085 1.306 2.737-.65-2.347-1.959.262-3.39 3 .913 2.739 4.304 4.303 2.087 3.39.128-.913-1.955-.13-3.52 1.957.132s4.432.652 3.26-.782c-1.173-1.436 1.044-3.131 3.13.65 2.086 3.784 4.825 2.608 3.13-.13-1.697-2.737.911-3.39 2.607 0 1.696 3.39 5.216 3.652 4.304 1.174-.914-2.477 1.826-1.565 2.347-.52.522 1.043 4.823 1.954 2.998-.783-1.824-2.742 1.696-1.565 2.87.911 1.173 2.48 3.782 2.999 3.13.915-.652-2.088 1.955.65 2.999 2.217 1.043 1.565 3.652 1.302 3.26 0-.392-1.306 3.52 1.432 2.477-3.39-1.043-4.826-1.955-3.654-1.304-4.826.652-1.176-1.173-1.176-1.825-1.436-.652-.26-2.217-1.435-.914-2.087 1.306-.65-1.303-2.737-3.52-1.955-2.218.782-8.607.651-3.13-1.565 5.476-2.217 1.305-2.737.262-2.737-1.044 0 3.65-3.391-3.782-2.087-7.433 1.304-4.434-.132-2.217-1.045 2.217-.912.912-3.65-7.694.913-8.606 4.565-12.387 4.045-5.347.392 7.043-3.65 11.737-7.172 1.436-3.65-10.302 3.52-4.564-.263-2.999-1.045 1.563-.783 6.65-5.476-3.522-.783-10.17 4.696-9.779 4.434-5.476 1.436 4.303-3 3.913-7.564-4.303.26-8.215 7.826-10.824 9.91-8.998 6.912 1.825-3 12.259-12.908 3.129-8.216-9.127 4.694-9.257 16.431-10.822 9.65-1.566-6.781 3.91-5.479 6.259-7.824 2.346-2.347-1.436-2.87-4.172-.13-2.74 2.738-4.696 2.998-4.696 8.997s-3.521 2.086-2.74.913c.784-1.173.263-7.954 4.696-11.736 4.434-3.782-4.954 1.044-5.216 1.825-.261.782-4.042 5.218-3.783 2.476.263-2.736-1.04-.519-3.128.392-2.086.914-6.912 1.435-5.477.263 1.434-1.174 4.041-3.653 6.912-3.39 2.869.26 1.693-2.218-1.043-1.828-2.74.391-6.26-1.564-2.218-1.955 4.043-.391 8.346-2.48 6.13-3.39-2.217-.912-1.566-1.436 1.304-1.955 2.868-.522 6.91-2.87 3.26-3.262-3.652-.39-4.694-2.608-.523-2.608 4.172 0 8.607-1.827 6.522-2.867-2.087-1.044-.784-1.306 1.432-1.177 2.217.133 1.827-1.694-.782-2.476-2.607-.781.782-2.087 4.304-2.087 3.521 0 6.128-1.694 4.435-2.215-1.697-.523-1.045-1.958 1.693-1.305 2.738.652 8.348-.912 5.87-1.436-2.478-.52-1.566-2.607 1.173-2.607 2.738 0 4.955-.13 3.78-1.435-1.172-1.304.523-1.042 3.262-1.304 2.738-.261 9.778-.653 7.172-1.435-2.608-.781-5.478-2.738-3.521-3.128 1.956-.39-1.827-2.217-3.522-2.738-1.695-.523-3.65-1.565-3.52-2.35.13-.782-1.695-.782-3 .262-1.302 1.045-3.52.915-3.389-.261.128-1.174 0-1.041-1.825 0-1.826 1.043-3.653 1.566-3.262.261.391-1.302-2.216 0-3.26 1.045-1.043 1.043-2.868 3.52-2.868 1.954 0-1.565-3.131-3.39-3.26-1.302-.13 2.085-2.349 7.172-2.349 5.476 0-1.698-.78-5.608-2.608-3.13-1.825 2.477-.39 7.302-2.085 6.781-1.696-.524-.26-2.87-.132-4.695.132-1.828-2.606-4.564-3.778.652-1.177 5.216 1.954 11.344.128 9.912-1.827-1.435-2.217-2.869-2.086-6.26.13-3.39-2.218-1.827-2.477.912-.263 2.74.65 10.824-.392 6.652-1.043-4.173-1.173-12.26-3.26-6.914-2.088 5.348 1.565 15.388 0 12.912-1.566-2.48-2.217-3.653-2.217-6.52 0-2.869-2.216-2.477-2.87 0-.65 2.477 0 14.344-.52 12.256-.522-2.088 0-4.692-1.175-7.042-1.173-2.347-2.086 4.174-2.086 3 0-1.173 2.086 7.826.913 6.652-1.172-1.173-2.738 2.217-3.782-3.653-1.042-5.866-1.435.263-2.607 1.436-1.174 1.172-2.477-1.565-3.65 4.305-1.173 5.866-2.217 7.822-3.522 5.866-1.304-1.955-2.868.52-2.868 2.738 0 2.216-2.349 3.913-2.609 2.349-.26-1.568-2.999-.782-3.13-2.741-.128-1.954-1.695-1.041-2.346 2.35-.653 3.39-2.609 1.826-1.435-3.652 1.173-5.479 1.563-9.518 0-7.824-1.565 1.695-1.696-1.303-1.565-3.26.13-1.957.13-5.087-.522-4.305-.653.784-2.086 1.827-1.435-2.478.652-4.302-.783-5.737-1.955-1.042-1.174 4.694.13 11.607-1.435 13.039-1.565 1.436-3.13 1.697-2.087-1.173 1.043-2.867 3.13-8.475 2.87-14.865-.262-6.39-2.087-8.215-2.348-4.043-.261 4.174 1.434 11.083-1.304 13.171-2.738 2.088-3.129 1.174-2.477-1.173.65-2.347 2.999-5.346 2.086-11.216-.912-5.869-3.52-8.867-3.651-4.692-.13 4.173 1.695 9.909-.391 10.692-2.086.782-2.086-.524-1.175-2.871.913-2.346 1.566-9.518 1.175-12.908-.392-3.39-2.87-4.434-3.13-1.697-.26 2.741-.523-2.996-.26-5.213.26-2.217-2.088-7.043-2.348-3.39-.262 3.648-2.087 2.866-2.087-.133s.13-10.43-1.043-6.518c-1.174 3.91-2.478 4.563-2.738 2.607-.26-1.955-.26-6.91-1.304-5.737s-2.738 1.04-3.13-.653c-.391-1.694-.652-1.564-1.043.263-.395 1.82-2.351-.394-2.612-.527z" fill="#00a650"/><path d="M76.635 265.992c4.545 16.14 11.056 21.905 18.31 30.924-3.73 11.664-34.79 36.485-48.895 58.524-5.968-15.123-11.801-15.462-18.243-30.312 16.14-29.703 35.197-37.369 48.828-59.136zM454.363 265.992c-4.544 16.14-11.054 21.905-18.31 30.924 3.73 11.664 34.79 36.485 48.897 58.524 5.966-15.123 11.8-15.462 18.242-30.312-16.14-29.703-35.197-37.369-48.83-59.136z" fill="#496e6e"/><path d="M53.857 304.245c3.39-3.649 8.737-6.91 13.822-1.302 3.39 6.127.653 12.255-2.346 16.56.39-3.13 1.041-8.868-1.176-12.388-3.911-4.043-5.216-2.87-10.3-2.87zM477.142 304.245c-3.39-3.649-8.738-6.91-13.822-1.302-3.39 6.127-.652 12.255 2.347 16.56-.39-3.13-1.044-8.868 1.174-12.388 3.911-4.043 5.217-2.87 10.301-2.87z" fill="#fff"/><path d="M87.6 219.974l177.9 315.628v23.347L82.035 223.34c1.991-.7 3.86-1.78 5.564-3.366zM443.398 219.974L265.5 535.602v23.347L448.963 223.34a15.695 15.695 0 01-5.565-3.366z" fill="#573f2f"/><path d="M79.372 212.734c-4.261 2.53-6.495 6.684-4.974 9.248 1.522 2.562 6.24 2.587 10.5.058 4.26-2.53 6.495-6.682 4.974-9.247-1.521-2.563-6.239-2.59-10.5-.06zM451.627 212.734c4.261 2.53 6.496 6.684 4.975 9.248-1.522 2.562-6.24 2.587-10.5.058-4.262-2.53-6.497-6.682-4.974-9.247 1.521-2.563 6.238-2.59 10.499-.06zM262.89 236.97c-.782 109.275-3.78 205.892-4.693 315.17-4.694 17.344-13.3 28.558-29.08 29.47-2.609 0-3.912 1.174-3.65 3.522v6.258c-.132 3 .782 4.304 3.127 3.914 12.65-1.306 24.255 4.041 36.905 4.431 12.649-.39 24.254-5.737 36.904-4.43 2.346.39 3.26-.915 3.128-3.915v-6.258c.262-2.348-1.042-3.522-3.65-3.522-15.778-.912-24.386-12.126-29.08-29.47-.913-109.278-3.52-205.895-4.303-315.17h-5.607z" fill="#573f2f"/><path d="M229.117.93s-1.304.523-.913 2.608c.39 2.087-3.129.52-3.129-.13 0-.651-1.044.783-.653 1.174.391.392 1.565.912 2.086 1.825.523.912-.13 2.609-.65 2.086-.523-.52-2.218-.65-1.957-.129.26.522 1.566.653 2.608 2.478 1.044 1.823-.13 1.956-.13 1.956s-1.565-.523-1.565.261c0 .783.262 1.564 1.174 2.086.913.523 2.87 2.088 3.912 2.088 1.044 0 .653 1.432.653 1.432s-1.956-.912-2.348.392c-.391 1.303.913 2.348.913 2.348s3.26 2.348 4.564 2.608c1.304.26 2.087 1.956 1.304 2.086-.783.129-3.13.261-3.913.129-.782-.13-1.695 1.435-.912 2.088.783.652 3.26 1.565 5.477 2.088 2.216.519 1.826 1.432 1.304 1.694-.522.261-3.912.653-4.695 0-.783-.653-2.738.782-.912 1.826 1.826 1.043 5.217.52 4.955 2.607-.26 2.086-1.955 1.303-2.738 1.435-.783.13-1.826 1.303-.39 2.086 1.433.782 4.172 2.347 5.605 2.347 1.435 0 1.826 2.217 1.044 2.217s-3.782-.26-3.913-.522c-.13-.26-2.737 0-.13 1.957 2.608 1.825 1.043 1.173 3.521 2.086 2.478.912 0 2.348-.391 2.217-.39-.131-2.217 1.304-.522 1.824 1.696.524 3 1.305 2.479 1.827-.524.523-2.088 1.954-.262 2.346 1.826.392 4.563.785 3.521 2.218-1.044 1.434.391.651 2.216 1.303 1.826.654.13 2.087-.521 1.957-.653-.13-4.825-2.217-5.217-1.044-.39 1.174.262 1.567.262 1.567s3 .521 4.302 1.565c1.304 1.04 1.565 1.954 0 1.954-1.564 0-2.216-1.564-3.128-.652-.913.915 1.042 2.347.39 4.172-.652 1.827-1.826.653-1.826-1.825 0-2.476-2.086-4.432-2.086-4.432s-.782 1.955-.782-1.176c0-3.128-1.827-1.565-1.827-.52 0 1.043 1.174 2.87.262 3.26-.914.391-3.39-3.651-3.39-5.087 0-1.435-2.088-1.694-2.088 0 0 1.696 1.044 5.478 2.348 7.695 1.305 2.217 3.651 5.085 2.478 5.737-1.173.652-2.217.783-2.217-.391s-4.433-11.605-6.65-14.214c-2.218-2.608-2.347-2.479-2.347-.783 0 1.694 4.041 6.39 3.128 9.128-.913 2.74-1.826 0-1.955 0-.13 0-2.088-7.824-6-12.908-3.911-5.085-3.911-1.697-2.867-.392 1.042 1.302 5.085 6.39 4.564 9.65-.523 3.26-1.565 1.823-1.826.26-.261-1.564-3.913-11.474-8.606-15.388-4.695-3.911-3.914-.13-2.87.524 1.044.652 5.999 5.736 6.13 10.301.13 4.564-1.436 1.564-1.827.653-.39-.914-2.216-8.608-7.693-13.171-5.477-4.564-2.608 1.172-2.608.39 0-.783 5.736 5.346 5.736 9.257 0 3.913-1.694 2.48-1.824 1.696-.131-.782-2.477-7.691-6.78-10.562-4.305-2.869-4.043-3.652-5.609-3.128-1.564.52-2.477.129-2.999-.786-.521-.91-4.954-2.475-3.26.786 1.696 3.259-2.608-.653-2.738-.786-.13-.128-5.478-2.604-3.651 0 1.824 2.611 8.606 3.915 8.606 7.175s1.174 3.65-1.174 2.086c-2.348-1.565-3.651-6.52-9.128-8.216-5.477-1.695 0 3-.13 2.35-.13-.654 4.565 2.738 2.086 3.39-2.477.65-2.868-1.697-3.65-2.87-.783-1.174-3.913-3.915-4.695-2.737-.783 1.173.913 1.694-.26 1.694-1.175 0-4.435-1.175-4.304 1.043.13 2.218-1.044.912-1.826.912-.783 0-2.086.392-1.955 1.176.128.783-2.478 0-2.478.912 0 .91 1.303 1.302 2.087 1.435.783.129 1.433.65 0 1.955-1.436 1.303-.914 3.652.783 2.999 1.693-.652 3.128-1.696 4.693-1.696 1.565 0 1.955-.39 1.174.783-.782 1.173-1.696 2.608 0 2.608 1.695 0 6.39-4.04 7.433-2.476 1.042 1.564 1.042 1.955-.262 3-1.303 1.04-.129 2.216 1.956 1.954 2.086-.261 5.347-2.345 7.173-1.304 1.825 1.043.521 1.304-.391 1.826-.914.523-2.087 1.957-.522 1.957 1.564 0 2.868-.523 5.607-.39 2.738.128 1.565-1.567 3-.262 1.434 1.302 2.347 1.302.521 2.086-1.826.783-2.478 2.74-.26 2.607 2.216-.13 4.563-1.823 7.433-1.433 2.868.392 2.998.65 1.824 1.824-1.173 1.174-3 1.044-3 2.35 0 1.303 1.957 1.303 2.74 1.04.783-.257 2.998-1.302 4.042-1.302 1.043 0 2.086.13 1.173 1.174-.912 1.043-1.565.521-2.217 1.565-.651 1.043-.651 1.435 1.305 1.565 1.956.131 5.085-.26 5.607 0 .521.26 3.13.26 1.826.78-1.305.525-4.304 2.09-2.609 2.48 1.696.39 3.521.782 5.608.52 2.086-.259 4.041 1.044 2.868 1.435-1.173.393-2.608 1.565.13 1.565 2.74 0 4.433 0 4.433 1.044 0 1.043-1.694.39-2.477 2.088-.782 1.694 5.347 6.91 8.346 11.607 2.998 4.693 2.738 1.172 1.695 2.999-1.043 1.823-3.13 1.172-3.782-.394-.651-1.565-2.086-4.303-5.999-8.083-3.911-3.782-3.651-4.174-4.172-4.174-.523 0-1.566 1.044.13 3 1.694 1.956 5.867 4.825 6.65 8.216.782 3.39-2.478 1.694-2.609.912-.13-.783-2.216-5.87-7.17-10.303-4.957-4.433-9.39-4.563-7.565-2.478 1.826 2.09 8.346 5.48 9.129 9.78.782 4.306-2.479 1.827-2.608 1.044-.13-.782-2.869-6.13-7.564-9.388-4.694-3.261-7.693-2.87-6.39-.654 1.305 2.217-.782 1.436-1.172 1.043-.39-.389-3.783-2.737-4.695-2.216-.913.521-1.564.653-.782 2.088.782 1.432-1.306.521-3.13-.132-1.826-.65-4.044-1.435-4.044.262 0 1.694-3-.522-3.78-.653-.783-.13-6.782-1.564-6.782-.39 0 1.173 2.478 2.737 0 2.87-2.477.128-5.215.52-3.912 1.955 1.304 1.435 4.825-.522 8.607 4.562 3.782 5.088-1.434 1.957-1.564 1.957-.132 0-1.956-2.739-4.435-3.782-2.477-1.043-5.086-2.347-7.693-2.608-2.608-.258-4.825 1.173-2.478 2.216 2.349 1.045 7.303 1.306 9.911 4.435 2.609 3.13-3.26.915-3.782-.13-.521-1.043-7.042-2.217-7.042-2.217s-9.91-.131-2.998 2.347c6.91 2.48 10.432 4.956 4.042 3.13-6.39-1.824-16.432-1.565-11.867.39 4.564 1.957-1.826.785-2.868.914-1.044.129-4.044 1.043-1.956 3.782 2.085 2.737-2.869.52-.261 1.565 2.608 1.043-3.39 2.217.911 2.477 4.306.26-6.388 2.477-3.78 2.739 2.608.261-4.434 4.825.783 3.651 5.215-1.172.522.39 2.477 1.433 1.955 1.043 2.087-2.605 2.868-2.737.784-.13 3-4.173 3-1.174 0 3-1.304 4.825 2.608.652 3.912-4.172 2.999-1.305 2.738.13-.261 1.435 0 2.999 1.435 2.087 1.435-.914.653 3.259 2.217 1.174 1.564-2.088 1.304-4.825 3.13-5.998 1.826-1.174 3.65-2.48 2.477.52-1.174 2.999-.651 5.869 2.217 1.697 2.868-4.174 4.042-5.088 3.39-2.609-.652 2.476-.261 4.693 1.825 1.694 2.087-2.999 3.913-3.78 2.74-1.173-1.174 2.608.782 1.304 1.955.783 1.175-.522 1.826-.65 1.435 1.043-.393 1.695 3.26-4.172 4.303-5.346 1.043-1.173 4.564-4.564 1.565 1.564-3 6.129 2.215 1.304 2.215 1.304s8.478-8.215 5.347-2.477c-3.13 5.738-1.564 6.261.913 4.433 2.478-1.825 5.608-7.824 3.782-2.998-1.825 4.826-1.174 5.866 1.826 2.738 2.999-3.13 9.389-10.825 7.04-3.913-2.347 6.912 2.609 1.434 3.392.523.781-.915 4.825-3 1.695 1.043-3.129 4.04 2.608 1.564 3.782.65 1.174-.912 5.345-4.693 2.347.261-3 4.955-1.043 3.261 2.216 1.565 3.261-1.695 3.652 0 2.087 2.088-1.564 2.084-3-.524-1.564 3.128 1.435 3.653-1.956 1.697-3.392 1.956-1.434.26 1.304 1.695-1.955 2.346-3.261.653-12.91.915-7.432 3.522 5.477 2.608-1.434.521-2.217 1.303-.782.782-4.434 1.305-2.348 2.217 2.087.915-2.347 1.564-3.26 1.435-.912-.129-11.083 1.827-5.607 2.48 5.476.651 16.56-2.218 17.343.651.785 2.868-5.345 1.043-7.041 1.043-1.695 0-24.386 1.433-14.736 2.477 9.65 1.04 10.693-.132 11.737.783 1.042.91-4.955 1.302-6.781 1.302-1.826 0-14.865 1.827-9.52 2.347 5.347.523 4.826 1.044 1.304 1.826-3.52.783-9.519 2.87-2.738 3.13 6.78.261 15.388.522 7.172 1.957-8.216 1.434-8.477-.653-13.171.911-4.694 1.568-7.173 2.609 7.042 2.741 14.214.13 1.955 1.041 2.346 1.564.391.522-10.561.129-15.908 2.217-5.346 2.085-2.738 3.001-4.304 4.302-1.563 1.305-5.215 4.305 3 3 8.216-1.302-3.13 2.869-4.173 2.869-1.044 0-12.128 8.866 1.955 2.738 14.085-6.128 5.217-1.173 4.304.653-.912 1.825-12.127 4.823-12.127 4.823s-1.044 2.609 2.215 1.826c3.262-.782 5.739-4.564 7.434-2.868 1.695 1.695-3.26 2.609-7.172 4.435-3.912 1.823-9.65 7.301 1.696 2.606 11.344-4.694 1.826 1.176.912 1.696-.912.521-6.78 1.826-8.866 5.608-2.088 3.782-1.174 6.78 1.564 4.954 2.739-1.825 3-1.435 1.695.912-1.303 2.35-1.955 6.522-1.042 7.434.912.914 2.216 2.216 2.737-2.347.523-4.564 2.087-3.781 2.087-1.697 0 2.088 1.435.785 1.826-2.214.392-3.003 2.347-2.478 2.347-.915 0 1.565 1.044 2.87 1.826-2.48.782-5.344 1.695-5.603 1.957-3.256.26 2.346 1.824 6.78 2.476-.391.652-7.173 1.696-6.781 2.087-4.044.392 2.739 1.696 4.435 2.608-1.955.915-6.39.652-11.477 1.956-5.346 1.304 6.13 2.609-1.176 2.609-3.78 0-2.609 1.825-5.738 1.825-2.088 0 3.651 1.956 7.303 4.043.52 2.086-6.778 2.216-9.126 2.216-4.432 0 4.693 2.217 1.565 2.478-.13.26-1.695 2.74-14.866 3.912-5.868 1.174 8.999 2.608 1.435 2.478-.653-.132-2.088 2.346-11.474 2.477-2.088.13 9.392 3.13-1.302 3-1.823-.131-.524 1.172-10.434 2.476-2.35 1.305 8.086 2.609-.52 2.478-1.432-.13-.914 3.13-11.607 2.479-2.347-.652 9.258 2.085 2.215 2.085 1.041 0-1.173 2.087-9.259 2.216-3 .132 6.262 2.218-2.736 2.218-2.347 0 .392.782-.129 1.304-3.261.522-3.128 1.695-.78 1.695.654 0 1.435-2.086 5.345 1.304 3.52 3.39-1.824 1.304.39 1.435 1.826.13 1.435 6.128-3.65 9.39-4.434 3.259-.782 5.214.652.782 1.825-4.434 1.175-11.868 6-12.91 7.696-1.043 1.693-1.825 4.565.26 3.65 2.088-.913 1.305.782.39 1.434-.911.654-4.04 6.39.654 3.131 4.694-3.26 1.173-2.74 7.824-5.087 6.651-2.345 1.566 1.303-.522 2.217-2.086.912-9.78 4.044-12.91 7.826-3.13 3.781.262 3.39.652 3.128.391-.261 3.652-4.302 8.215-6.127 4.565-1.827 4.696-1.957 4.043.129-.652 2.088-4.173 1.435-6.52 3.261-2.347 1.825-6.39 4.172-8.345 7.823-1.957 3.65-2.087 3.13.391 3.26 2.477.131 6.78-8.084 10.693-8.607 3.911-.52 1.042 2.347.521 2.347-.52 0-2.478.132-4.955 2.088-2.477 1.955-5.476 3.52-6.65 6.259-1.174 2.738-1.304.783 2.086.783 3.39 0 2.216-4.434 6.39-5.087 4.174-.653 2.738 2.479 1.565 2.741-1.173.258-8.085 2.476-11.345 7.692-3.26 5.217 2.086 2.477 2.086 2.477s2.348-3.912 6.781-5.739c4.434-1.823 1.435 1.436 1.826 1.568.391.13-7.694 2.476-11.737 8.476-4.04 5.997 1.566 3.519 1.957 2.477.391-1.044 3.39-5.607 7.04-6.522 3.653-.91 1.567 2.217.652 3.133-.911.912-7.432 1.955-10.3 7.824-2.869 5.867 2.086 1.823 2.086 1.823s1.826-5.085 6.52-5.737c4.694-.653 3.129 0 .39 2.347-2.738 2.35-7.433 4.955-7.563 7.824-.13 2.87-.651 4.697 1.957 2.086 2.607-2.606 5.998-5.476 5.998-5.476s3.65.263 0 1.695c-3.652 1.435-8.216 5.869-8.216 7.304 0 1.435-1.695 5.478 2.348 1.173 4.042-4.302 1.825-.783.912 1.044-.912 1.826-2.476 8.215 1.435 3 3.913-5.217.523-4.956 2.609-3.262 2.086 1.697 1.433 1.565.782 2.479-.651.912-.782.391-3 3.781-2.217 3.39-4.954 5.476-2.217 5.868 2.74.39 1.437 3.65 1.566 5.087.13 1.433 1.434 2.345 2.738 1.172 1.304-1.172 1.044 3.261 1.044 4.564 0 1.306 1.826.783 1.826.13 0-.65-.262-5.215 1.173-3.39 1.434 1.825 2.738 1.306 2.347-.26-.391-1.565-3.39-8.478-.522-5.87 2.87 2.61.522-3.26.261-4.042-.261-.783-.261-4.955 1.564-.521 1.827 4.434 1.827-2.738 1.436-3.652-.391-.912.39-3.78 1.303-.65.914 3.128.523-.783-.26-5.087-.783-4.303-2.087-8.869.26-6.781 2.348 2.088 4.694 2.737 3-.653-1.695-3.39-4.825-11.996-1.956-8.998 2.868 3.003 2.608 3.003 2.348.262-.262-2.737-.391-3.91 1.564-1.954 1.956 1.954 2.217-2.48 1.044-3.523-1.174-1.042-3.13-6.258-1.306-4.956 1.827 1.306 1.175-1.04.915-2.084-.262-1.043 1.303-.912 2.085-.13.784.783.13-3.78-.65-4.304-.783-.52-2.61-6.912-.392-4.826 2.217 2.088 1.956 1.044 2.608-.652.651-1.694 1.304-1.04.651 1.176-.651 2.217-2.217 5.736.262 4.825 2.477-.914.39 1.433.13 2.739-.261 1.302-.784 4.562 1.565 2.866 2.346-1.694.651 2.218.39 3.131-.261.912-2.216 8.608 1.565 2.867 3.782-5.738 2.74-4.824 1.435-1.434-1.303 3.391-3 7.566-2.478 8.738.522 1.174 2.738-1.565 5.478-8.348 2.737-6.78 6.388-8.605 5.215-6.258-1.174 2.347-4.433 8.085-5.868 11.998-1.435 3.91-4.303 13.43-1.173 10.692 3.13-2.738.913 1.436.653 2.479-.262 1.043-1.306 5.216.128 3.258 1.436-1.954 1.436 1.567 1.305 3.784-.13 2.215.782 2.737.26 5.996-.521 3.262 1.696 2.87 2.217 1.826.522-1.044.39 2.218.652 3.132.261.911.523 2.867 1.956 1.823 1.435-1.04 1.435 1.435 1.435 2.611 0 1.173 1.825-4.176 1.433.259-.39 4.434 2.478 7.434 2.609 5.346.13-2.086 2.217-.392 2.868 2.608.652 2.999 2.87 3.78 2.87 1.826 0-1.956-2.218-7.953.13-5.346 2.347 2.608 1.694-.523 1.434-1.564-.26-1.043-4.563-4.954-2.217-4.043 2.348.914 3.261-.392 2.348-1.566-.913-1.173-4.304-4.433-1.956-4.563 2.347-.132 2.608-1.567.781-3.914-1.824-2.347 1.044-1.954 2.48-.91 1.433 1.042.913-2.217-.653-3.912-1.565-1.697-3.65-6-.913-4.958 2.739 1.043 1.957-.911 1.566-1.826-.392-.912-6.39-6.91-1.956-4.692 4.433 2.217 3.26 1.302 2.348-1.306-.913-2.606-6.261-8.346-2.74-7.563 3.52.783 2.74-1.565 1.565-3-1.173-1.432-3.26-4.431-.13-3.78 3.13.651-1.173-2.349-1.043-2.868.13-.523-2.477-3.39.13-3.261 2.608.13 1.956-.653.913-2.738-1.043-2.088-1.956-3.782 1.043-2.088 3.001 1.697 1.566-2.085 1.043-3.39-.522-1.302-4.434-4.693-1.173-4.302 3.26.391.913-1.826.782-2.609-.13-.783 3.78 0 2.349-2.478-1.435-2.476-6.392-6.911-3.392-6.39 3 .524.262-3.258-.13-4.564-.392-1.303-2.088-4.432.13-3.52 2.217.911 3.13 4.955 4.825 5.216 1.695.26 3.782-.524 2.999.65-.782 1.174.783 1.043 2.608-.911 1.824-1.956 3.26-5.476 3.52-3.653.262 1.826-1.041 3.914-1.825 4.955-.783 1.043-5.346 6.13-5.346 8.216 0 2.088-.13 2.87 2.87-.912 2.998-3.781 6.389-5.345 4.433-1.435-1.957 3.914-5.477 11.997-1.173 6.78 4.302-5.215 5.607-4.04 1.954 1.174-3.65 5.217-3.39 7.954-.13 4.173 3.261-3.78 7.694-9.649 3.783-1.303-3.913 8.345-7.434 10.954-3.13 8.474 4.303-2.474 4.04-2.736 2.867-.258-1.173 2.476-4.432 4.693-4.432 5.346 0 .65-.782 4.826 3.129.65 3.913-4.17 3.781-1.433 2.477.653-1.303 2.088-11.215 13.694-2.608 7.956 8.606-5.74 1.564.26 1.564 1.041 0 .783-5.215 9.518.652 3.523 5.869-5.999 2.087 1.433 1.043 1.694-1.043.261-8.866 11.216-3.52 8.216 5.347-3 6.65-6.13 5.607-2.87-1.043 3.261-4.564 5.35-5.215 6.26-.652.912-4.564 7.955-.392 5.084 4.173-2.867 6.52-6.78 5.217-3.386-1.305 3.386-5.217 7.43-2.217 6.91 2.999-.524.259 1.826-.392 3.258-.65 1.435-1.042 3.915.784 3.131 1.826-.783 1.304 1.956 1.304 3.13 0 1.173 2.086 1.954 2.608-.26.521-2.217-.652-2.088 1.956-1.696 2.607.39-.393-1.827-.13-3.52.26-1.697 2.606-.653 3.52.128.913.784 2.608 2.609 3.651.912 1.042-1.693-2.348-7.563-4.302-9.78-1.957-2.213-1.827-6.78-.263-4.954 1.566 1.826 4.043 6.519 4.305 7.695.26 1.173 1.954 0 1.173-2.87-.782-2.87-1.955-5.999-3.651-7.563-1.696-1.565-3.26-5.607-1.174-4.173 2.087 1.436 5.217 9.52 5.217 9.52s3.26 5.345 2.606-.784c-.65-6.128-6.26-10.824-6.91-11.735-.651-.914-2.608-4.043-.651-3.912 1.954.13 5.997 8.605 5.997 8.605s2.348.782.39-4.564c-1.954-5.346-5.996-6.91-6.518-7.825-.521-.912-1.566-6.257.912-3.26 2.479 3 5.347 6.781 5.87 9.65.52 2.87 2.216-.522 1.303-2.347-.912-1.826-2.869-7.693-6.52-10.824-3.651-3.129-2.086-4.564-.261-2.607 1.825 1.958 8.476 13.954 8.085 7.955-.391-5.997-6.651-10.823-7.825-12.129-1.173-1.302-1.433-4.563.653-2.084 2.086 2.478 7.172 9.39 5.738 4.172-1.437-5.215-7.824-8.997-7.824-8.997s-2.217-3.52.391-2.347c2.607 1.173 12.91 15.908 9.778 6.91-3.127-8.997-4.04-4.563-4.562-6.519-.523-1.957 2.738-1.304 2.738-1.304s-1.825-2.609-4.043-4.041c-2.216-1.435-1.695-2.479-.13-1.826 1.565.652 3.521.13 1.173-2.48-2.347-2.606-4.433-7.3-1.043-3.781 3.391 3.523 6.13 3.523 4.043-.13-2.086-3.65-5.085-4.694-3.782-6.65 1.304-1.955-1.825-5.216.914-3.782 2.738 1.435 1.565 5.346 3.39 4.174 1.825-1.174 1.696-8.217 2.869-.522 1.173 7.693 3.128 9.258 3.128 4.956 0-4.305 2.739.261 2.739 4.954 0 4.695 1.957 7.694 2.478 3.652.522-4.043 1.957-5.608 1.826 0-.13 5.608 3.651 5.476 3.521.653-.131-4.826 2.869.783 1.826 6.388-1.044 5.607-.915 14.084 2.347 4.566 3.26-9.522 2.607-3.915 3.13-.653.521 3.261.651 7.693 2.868 3.39 2.217-4.305 1.174 4.174 1.042 6.52-.128 2.346 2.74 2.998 2.74.128 0-2.866 2.868 1.045 1.954 4.958-.91 3.91 0 4.434 1.697 4.693 1.694.262 2.999 6.52 3.129 3.653.13-2.87 1.173-1.175 2.606.52 1.436 1.695 3-.782 3.132 1.955.13 2.74 1.956.132 1.564-4.432-.391-4.564 2.217.262 3.39 1.045 1.174.782 3.522.65-.521-7.435-4.041-8.086 1.173-1.043 2.217-1.695 1.044-.653-1.435-3.912-2.347-5.347-.914-1.434-1.044-3.52 1.174-3.911 2.217-.39.912-1.435-2.61-3.78-3.52-2.351-2.085-2.089.262-2.218 2.348-.132-.652-2.088-2.869-3.653-2.216-1.563-5.216-4.302-1.826-4.954 3.39-.653 2.217-2.347-2.477-3.652-4.695-1.303-8.346-2.216-4.174-3.391 4.174-1.174 4.956-1.042 2.479-1.825-2.479-.782-4.826.132-4.564-2.476.26-2.609 1.826-3-1.043-4.044-2.87-1.043-1.566 0-5.478-.52-3.912-.523 2.478-.915 3.26-3 .783-2.088-1.825-1.305-2.998-1.434-1.175-.132-4.435-1.306-1.957-2.347 2.477-1.043-2.607-3.261-4.433-3.261-1.826 0-4.303-1.044-1.174-2.741 3.129-1.694-1.695-2.476-3.52-2.476-1.827 0-4.696-.91-1.827-1.956 2.869-1.043-2.217-2.087-3.259-1.955-1.044.129-6.13-.39-1.696-1.696 4.433-1.303-2.087-2.476-3.782-2.217-1.695.262-3.13-2.868-3.13-2.868s-2.215-7.17-.128-4.956c2.086 2.217 9.128 9.13 7.04 4.956-2.086-4.174-3.39-7.303-.782-4.956 2.608 2.35 5.738 11.477 5.738 6.13 0-5.348-3.65-8.477.39-4.825 4.044 3.651 4.044 10.954 5.479 6.127 1.434-4.824-.263-6.259 2.476-2.476 2.74 3.782 1.696 1.174 2.088-.784.39-1.954 1.173-.52 1.695 1.958.522 2.476 3.782 6.258 3.13.129-.653-6.128 1.434-2.217 2.347 0 .912 2.218 2.347 6.523 3.259 1.956.913-4.563 3.13 1.044 3.522 3.262.391 2.217 3.26 4.954 2.608-.13-.654-5.088 2.739.52 2.739 2.737s3.39 3.912 2.477-1.434c-.913-5.347 2.086-3.653 3.26 1.173 1.173 4.826 3.39 7.433 3.39 2.218 0-5.218 2.217-1.174 3.26 2.084 1.044 3.261 4.434 10.826 4.043 2.217-.392-8.605.261-4.431 1.825-1.041 1.565 3.39 3.652 8.083 3.652 2.476s2.347-.912 2.738 1.958c.392 2.867 1.826 8.603 2.477 2.867.652-5.737 1.696-1.044 2.479.914.782 1.955 4.433 2.346 4.433.65 0-1.694-.522-2.608 1.826-2.086 2.347.522 1.042-4.042.261-3.39-.784.65-.913-2.74 1.693-2.217 2.608.522-.129-3.652-1.172-3.652s0-1.565-2.869-2.347-1.565-2.216-1.302-2.998c.259-.783.391-1.436-1.827-1.957-2.217-.523-.782-1.825-.522-2.74.26-.91-.392-1.694-2.868-.91-2.477.781-7.304-.263-3.522-1.698 3.782-1.433 3.261-3.128.523-3.258-2.74-.132-4.434.129-2.608-1.696 1.825-1.824-1.827-2.867-4.696-2.347-2.867.523-9.78 2.478-6.257.523 3.52-1.957 3.912-4.304 1.173-3.914-2.738.39-10.824 1.956-7.565.523 3.261-1.433 4.957-4.956 1.695-4.566-3.26.392-9.519 2.608-6.258.131 3.26-2.477 3.52-4.433.262-4.304-3.262.132-7.694 3-6.52 1.565 1.173-1.433-.784-3-3-2.476-2.216.521-4.695-1.044-.132-2.217 4.565-1.174-1.564-1.303-6.128-.392-4.565.912-9.127 1.174-4.042-1.173 5.085-2.346-.782-2.738-3.652-1.564-2.868 1.173-7.825 3.259-4.693.52 3.13-2.737-2.87-1.043-4.564-.261-1.695.782-5.999.39-3.39-1.041 2.607-1.435-1.567-2.348-2.609-.782-1.045 1.564-3.912-.785-1.825-1.826 2.085-1.045-2.218-.132-4.435 1.303-2.215 1.434-5.868 1.954-4.954.523.913-1.435-3.522.26-5.476 1.823-1.956 1.567-5.479-2.737-3.522-3.258 1.957-.524.783-2.218-1.304-3-2.086-.783.52-2.088 3.39.782 2.87 2.868 1.306-2.74.654-3.26-.653-.522-4.044-3.39.652-2.609 4.692.784 5.737 1.435 4.172-1.044-1.564-2.476-1.957-3.128 1.826-1.693 3.78 1.435 6.911.262 5.086-1.564-1.827-1.827-.652-2.608 1.694-1.436 2.35 1.174 3.262 1.303 2.089-.91-1.177-2.218-.392-3.262 2.476.128s6.78 1.564 4.173-.783c-2.608-2.347-1.564-3.261 1.042-1.305 2.609 1.958 4.564.915 2.479-1.302-2.087-2.217-1.042-4.305 2.348-1.306 3.39 3 5.085 1.306 2.737-.65-2.347-1.959.262-3.39 3 .913 2.739 4.304 4.303 2.087 3.39.128-.913-1.955-.13-3.52 1.957.132s4.432.652 3.26-.782c-1.173-1.436 1.044-3.131 3.13.65 2.086 3.784 4.825 2.608 3.13-.13-1.697-2.737.911-3.39 2.607 0 1.696 3.39 5.216 3.652 4.304 1.174-.914-2.477 1.826-1.565 2.347-.52.522 1.043 4.823 1.954 2.998-.783-1.824-2.742 1.696-1.565 2.87.911 1.173 2.48 3.782 2.999 3.13.915-.652-2.088 1.955.65 2.999 2.217 1.043 1.565 3.652 1.302 3.26 0-.392-1.306 3.52 1.432 2.477-3.39-1.043-4.826-1.955-3.654-1.304-4.826.652-1.176-1.173-1.176-1.825-1.436-.652-.26-2.217-1.435-.914-2.087 1.306-.65-1.303-2.737-3.52-1.955-2.218.782-8.607.651-3.13-1.565 5.476-2.217 1.305-2.737.262-2.737-1.044 0 3.65-3.391-3.782-2.087-7.433 1.304-4.434-.132-2.217-1.045 2.217-.912.912-3.65-7.694.913-8.606 4.565-12.387 4.045-5.347.392 7.043-3.65 11.737-7.172 1.436-3.65-10.302 3.52-4.564-.263-2.999-1.045 1.563-.783 6.65-5.476-3.522-.783-10.17 4.696-9.779 4.434-5.476 1.436 4.303-3 3.913-7.564-4.303.26-8.215 7.826-10.824 9.91-8.998 6.912 1.825-3 12.259-12.908 3.129-8.216-9.127 4.694-9.257 16.431-10.822 9.65-1.566-6.781 3.91-5.479 6.259-7.824 2.346-2.347-1.436-2.87-4.172-.13-2.74 2.738-4.696 2.998-4.696 8.997s-3.521 2.086-2.74.913c.784-1.173.263-7.954 4.696-11.736 4.434-3.782-4.954 1.044-5.216 1.825-.261.782-4.042 5.218-3.783 2.476.263-2.736-1.04-.519-3.128.392-2.086.914-6.912 1.435-5.477.263 1.434-1.174 4.041-3.653 6.912-3.39 2.869.26 1.693-2.218-1.043-1.828-2.74.391-6.26-1.564-2.218-1.955 4.043-.391 8.346-2.48 6.13-3.39-2.217-.912-1.566-1.436 1.304-1.955 2.868-.522 6.91-2.87 3.26-3.262-3.652-.39-4.694-2.608-.523-2.608 4.172 0 8.607-1.827 6.522-2.867-2.087-1.044-.784-1.306 1.432-1.177 2.217.133 1.827-1.694-.782-2.476-2.607-.781.782-2.087 4.304-2.087 3.521 0 6.128-1.694 4.435-2.215-1.697-.523-1.045-1.958 1.693-1.305 2.738.652 8.348-.912 5.87-1.436-2.478-.52-1.566-2.607 1.173-2.607 2.738 0 4.955-.13 3.78-1.435-1.172-1.304.523-1.042 3.262-1.304 2.738-.261 9.778-.653 7.172-1.435-2.608-.781-5.478-2.738-3.521-3.128 1.956-.39-1.827-2.217-3.522-2.738-1.695-.523-3.65-1.565-3.52-2.35.13-.782-1.695-.782-3 .262-1.302 1.045-3.52.915-3.389-.261.128-1.174 0-1.041-1.825 0-1.826 1.043-3.653 1.566-3.262.261.391-1.302-2.216 0-3.26 1.045-1.043 1.043-2.868 3.52-2.868 1.954 0-1.565-3.131-3.39-3.26-1.302-.13 2.085-2.349 7.172-2.349 5.476 0-1.698-.78-5.608-2.608-3.13-1.825 2.477-.39 7.302-2.085 6.781-1.696-.524-.26-2.87-.132-4.695.132-1.828-2.606-4.564-3.778.652-1.177 5.216 1.954 11.344.128 9.912-1.827-1.435-2.217-2.869-2.086-6.26.13-3.39-2.218-1.827-2.477.912-.263 2.74.65 10.824-.392 6.652-1.043-4.173-1.173-12.26-3.26-6.914-2.088 5.348 1.565 15.388 0 12.912-1.566-2.48-2.217-3.653-2.217-6.52 0-2.869-2.216-2.477-2.87 0-.65 2.477 0 14.344-.52 12.256-.522-2.088 0-4.692-1.175-7.042-1.173-2.347-2.086 4.174-2.086 3 0-1.173 2.086 7.826.913 6.652-1.172-1.173-2.738 2.217-3.782-3.653-1.042-5.866-1.435.263-2.607 1.436-1.174 1.172-2.477-1.565-3.65 4.305-1.173 5.866-2.217 7.822-3.522 5.866-1.304-1.955-2.868.52-2.868 2.738 0 2.216-2.349 3.913-2.609 2.349-.26-1.568-2.999-.782-3.13-2.741-.128-1.954-1.695-1.041-2.346 2.35-.653 3.39-2.609 1.826-1.435-3.652 1.173-5.479 1.563-9.518 0-7.824-1.565 1.695-1.696-1.303-1.565-3.26.13-1.957.13-5.087-.522-4.305-.653.784-2.086 1.827-1.435-2.478.652-4.302-.783-5.737-1.955-1.042-1.174 4.694.13 11.607-1.435 13.039-1.565 1.436-3.13 1.697-2.087-1.173 1.043-2.867 3.13-8.475 2.87-14.865-.262-6.39-2.087-8.215-2.348-4.043-.261 4.174 1.434 11.083-1.304 13.171-2.738 2.088-3.129 1.174-2.477-1.173.65-2.347 2.999-5.346 2.086-11.216-.912-5.869-3.52-8.867-3.651-4.692-.13 4.173 1.695 9.909-.391 10.692-2.086.782-2.086-.524-1.175-2.871.913-2.346 1.566-9.518 1.175-12.908-.392-3.39-2.87-4.434-3.13-1.697-.26 2.741-.523-2.996-.26-5.213.26-2.217-2.088-7.043-2.348-3.39-.262 3.648-2.087 2.866-2.087-.133s.13-10.43-1.043-6.518c-1.174 3.91-2.478 4.563-2.738 2.607-.26-1.955-.26-6.91-1.304-5.737s-2.738 1.04-3.13-.653c-.391-1.694-.652-1.564-1.043.263-.395 1.82-2.351-.394-2.612-.527z" fill="#007e3a"/><path d="M82.985 225.083c8.738 31.036 25.64 55.561 39.593 72.903-7.172 22.428-51.9 60.115-79.024 102.496C32.08 371.402 12.388 353.408 0 324.85c32.601-54.118 56.775-60.123 82.985-99.767zM448.013 225.083c-8.737 31.036-25.638 55.561-39.593 72.903 7.172 22.428 51.9 60.115 79.024 102.496 11.475-29.08 31.167-47.075 43.556-75.633-32.602-54.117-56.776-60.122-82.987-99.766z" fill="#d21034"/><path d="M76.635 265.992c4.545 16.14 11.056 21.905 18.31 30.924-3.73 11.664-34.79 36.485-48.895 58.524-5.968-15.123-11.801-15.462-18.243-30.312 16.14-29.703 35.197-37.369 48.828-59.136zM454.363 265.992c-4.544 16.14-11.054 21.905-18.31 30.924 3.73 11.664 34.79 36.485 48.897 58.524 5.966-15.123 11.8-15.462 18.242-30.312-16.14-29.703-35.197-37.369-48.83-59.136z" fill="#007e3a"/><path d="M53.857 304.245c3.39-3.649 8.737-6.91 13.822-1.302 3.39 6.127.653 12.255-2.346 16.56.39-3.13 1.041-8.868-1.176-12.388-3.911-4.043-5.216-2.87-10.3-2.87zM477.142 304.245c-3.39-3.649-8.738-6.91-13.822-1.302-3.39 6.127-.652 12.255 2.347 16.56-.39-3.13-1.044-8.868 1.174-12.388 3.911-4.043 5.217-2.87 10.301-2.87z" fill="#fff"/><path d="M301.229 262.258c-38.077-20.865-94.28-1.697-114.492 33.512-20.213 35.205-24.256 85.804 11.344 120.23 35.6 34.427 80.198 34.687 115.015 15.517 34.817-19.169 48.77-54.377 46.162-80.848-3.52 29.209-18.386 54.247-47.205 66.375-28.82 12.127-73.547 10.433-98.062-20.995-24.517-31.427-28.608-65.896-7.694-98.322 20.915-32.43 57.05-49.308 94.932-35.47z" fill="#fec00f"/><path d="M301.229 262.258c-42.05-14.626-78.202 7.66-96.05 37.292-17.846 29.629-15.584 72.752 12.055 100.733 27.639 27.981 70.381 26.707 95.878 16.666 25.497-10.04 43.498-36.937 46.144-66.28-12.229 24.023-23.334 44.7-47.578 51.64-24.242 6.943-60.053 3.527-79.666-21.377-19.613-24.901-21.487-51.789-9.697-79.447 11.79-27.657 47.29-45.84 78.914-39.227z" fill="#fec00f"/><path d="M269.006 317.856c-15.774 21.093-17.482 42.912-7.837 65.537 9.645 22.625 38.529 37.49 64.317 32.127-31.6 12.867-63.606-5.51-78.075-29.12-13.805-22.525-17.24-53.39 9.234-84.133 1.94-2.254 10.018 17.392 12.361 15.59z" fill="url(#h)" transform="matrix(1.22243 0 0 -1.22243 -96.947 770.157)"/><path d="M241.238 289.821c29.122-27.84 65.819-28.374 94.194-12.799 28.375 15.573 39.895 44.482 37.761 66.136-2.879-23.893-15.282-44.792-38.29-53.972-23.01-9.18-60.529-7.96-80.544 16.851-1.192 1.478-11.415-15.183-13.121-16.216z" fill="url(#i)" transform="matrix(1.22243 0 0 -1.22243 -96.947 770.157)"/><path d="M260.635 400.9l24.664-65.587 7.576 26.653-32.24 38.934zM342.018 380.219L285.3 335.313l27.714.594 29.005 44.312zM345.095 295.246l-59.796 40.067 9.39-26.36 50.406-13.707zM265.376 264.114l19.923 71.199-22.072-17.377 2.149-53.822z" fill="#fec00f"/><path d="M215.02 332.075l70.28 3.238-23.197 15.368-47.084-18.606z" fill="#fec00f"/><path d="M292.516 302.067l20.176 53.654-18.975-12.573-1.2-41.08z" fill="url(#j)" transform="matrix(1.22243 0 0 -1.22243 -96.947 770.157)"/><path d="M359.09 318.985l-46.398 36.736 6.198-21.804 40.2-14.932z" fill="url(#k)" transform="matrix(1.22243 0 0 -1.22243 -96.947 770.157)"/><path d="M361.607 388.497l-48.915-32.776 22.671-.487 26.244 33.263z" fill="url(#l)" transform="matrix(1.22243 0 0 -1.22243 -96.947 770.157)"/><path d="M296.394 413.964l16.298-58.243 7.682 21.563-23.98 36.68z" fill="url(#m)" transform="matrix(1.22243 0 0 -1.22243 -96.947 770.157)"/><path d="M255.2 358.37l57.492-2.65-18.055 14.216-39.436-11.567z" fill="url(#n)" transform="matrix(1.22243 0 0 -1.22243 -96.947 770.157)"/><path d="M375.314 497.348l-11.621 29.885-19.204 5.178c19.917 5.198 40.382 13.036 58.696 21.121-4.433-9.78-8.847-20.561-13.152-30.34 9.26-2.87 18.517-5.74 27.906-8.608-12.49-6.412-27.3-12.81-42.625-17.236z" fill="#c7c4e2"/><path d="M264.195 510.31c33.253.492 66.429 2.768 97.54 12.786l16.3-41.687c-29.73-9.1-63.895-17.136-113.84-16.9-49.944-.237-84.11 7.8-113.841 16.9l16.3 41.687c31.113-10.018 64.288-12.294 97.54-12.787z" fill="#c7c4e2"/><path d="M361.346 489.938s-3.914-7.825-3.914-.39c0 7.431-.13 11.475-1.955 15.126-1.825 3.65-1.435 7.04 1.825 3.39 3.26-3.652 3.52-9.65 3.52-9.65s-.521-2.085 1.043-1.302c1.567.78-.52-6-.52-7.174m-13.822 14.216s-2.869 1.954-.914 4.431c1.956 2.479 2.868 1.045 3-.52.13-1.565 0-2.217-.913-2.609-.913-.391-1.565-.653-1.173-1.302m2.867-19.823s-2.737-4.042-3.259 1.826c-.522 5.867.652 10.04-1.826 11.998-2.476 1.954-15.779.782-16.299-.785-.522-1.563-4.695.132-5.217-8.345-.523-8.474-2.607-8.607-2.869-9.389-.261-.783-3.781-.783-2.347 2.478 1.434 3.262 3 6.652 1.956 10.955-1.043 4.3-11.606 7.433-11.346 4.3.263-3.127 5.217-3.127 4.956-8.344-.26-5.217-3-8.346-3.781-8.865-.784-.524-4.956-1.697-4.956 1.694 0 3.39.652 7.825 3.13 7.563 2.478-.26 4.304-.65 2.608.523-1.695 1.173-3.13 4.04-5.999 4.955-2.869.912-7.042 2.737-9.78 2.866-2.74.132.26 1.96.39 1.96.131 0 7.564.649 8.738-.263 1.174-.911 1.826-2.608 2.216-1.174.39 1.436-.912 2.347.13 2.739 1.043.391 5.477 1.435 7.564.651 2.087-.781 4.432-4.304 6.39-4.304 1.956 0 5.086 3.653 6.78 4.044 1.696.39 10.433 3.39 15.259 2.088 4.824-1.306 6.519-6.782 6.78-8.087.26-1.303-.391-3.912.781-3.652 1.175.262 2.218-.782 1.826-2.476-.389-1.694-1.825-4.956-1.825-4.956m-18.125-3.39s-2.869 6.129 0 6c2.87-.134.522-.263 1.435 2.346.912 2.608 1.173 3.653.912 4.955-.26 1.305 1.305 1.434 1.825-.13.523-1.566 2.218-5.477 2.348-6.65.132-1.174 1.697-2.61 1.827-1.695.13.911 2.869.39 2.084-1.696-.782-2.086-2.997-2.608-4.562-.392-1.565 2.217-1.696 5.216-2.087 3.128-.39-2.084-1.174-7.954-3.782-5.866m-133.924 5.866s-1.173 1.568 0 1.568c1.174 0 .262-.132.653.52.391.783.391 1.043.391 1.436-.13.39.522.39.653 0 .26-.391 1.042-1.565 1.042-1.826 0-.262.651-.783.783-.52 0 .258 1.174.128.783-.392-.262-.652-1.174-.786-1.826-.132-.652.652-.782 1.434-.913.914-.13-.653-.522-2.218-1.566-1.568m128.185-6.91s2.609 1.302 2.217 3.652c-.391 2.347-2.217 1.694-2.084 1.045.129-.654-.261-1.698.652-1.828.912-.131-.785-2.868-.785-2.868m-6.387 19.298s2.607 1.305 2.216 3.652c-.391 2.346-2.216 1.695-2.089 1.043.132-.651-.26-1.696.653-1.826.914-.13-.78-2.869-.78-2.869m-7.434-24.254s2.608 1.303 2.217 3.65c-.39 2.349-2.217 1.697-2.086 1.044.13-.65-.262-1.695.652-1.826.912-.13-.783-2.868-.783-2.868m-17.995 7.301s2.607 1.306 2.217 3.653c-.393 2.347-2.217 1.697-2.088 1.044.131-.652-.26-1.697.652-1.826.914-.13-.781-2.87-.781-2.87m-12.258-8.607s2.607 1.305 2.217 3.65c-.392 2.35-2.217 1.698-2.088 1.045.131-.653-.26-1.696.652-1.825.912-.13-.781-2.87-.781-2.87M184.78 499.72s-2.086 2.868-.52 6.258c1.695 3.128 3.258 1.434 2.868.523-.391-.915-.652-2.48-1.696-2.346-1.043.258-.652-4.435-.652-4.435m66.766-1.306s1.435.654 1.174 1.957c-.13 1.304-1.174.914-1.043.652 0-.392-.13-.913.261-1.044.52-.129-.392-1.565-.392-1.565m-15.517-22.168s2.608 1.306 2.217 3.653c-.393 2.345-2.217 1.695-2.087 1.043.13-.653-.262-1.696.652-1.827.913-.129-.782-2.87-.782-2.87m63.766-2.736s-2.347 1.434-1.174 5.345c1.174 3.913 2.218 7.434 1.174 9.52-1.043 2.086-8.476 5.997-12.259 3.78-3.782-2.215-2.867-7.301-6.78-3.26-3.912 4.044-5.346 10.303-7.3 8.608-1.958-1.695-2.22-.261-2.22-3.261s1.567-.52 2.479-1.303c.913-.784 2.086-2.74.391-2.74-1.696 0-4.042-1.042-5.477-1.824-1.435-.782-6.52-1.173-2.217-2.349 4.303-1.173 4.172.914 5.216 1.043 1.043.132 1.305-.261.783-1.694-.522-1.435-2.738-1.696-2.608-4.304.13-2.609-.521-2.347-.521-3.128 0-.783-.262.39 1.173-.915 1.434-1.303-.652-1.826-1.304-2.738-.651-.912-2.478-3.52-2.609-2.347-.13 1.173-1.303 2.476-.521 4.955.782 2.477 1.303 4.302.652 5.608-.652 1.302-6.65 3.127-7.824 4.433-1.173 1.303-2.349 3.65-.914 3.912 1.436.26 1.044 0 3 .26s-1.696 1.434-3.782 1.434c-2.086 0-7.823.783-8.606-1.824-.783-2.607-2.217 0-3-5.999-.782-5.998-1.303-5.347-2.086-10.304-.782-4.955-3.521.524-3.65.262-.132-.262 1.694 10.042 2.086 11.736.39 1.697 1.695 10.563 0 8.345-1.695-2.217-4.434-8.475-4.956-9.647-.521-1.176-2.478-4.305-2.868-4.436-.392-.13-3.391-.782-1.956 2.088 1.435 2.867 5.346 8.084 2.609 10.04-2.74 1.955-5.348 2.868-6.39 2.74-1.043-.132-2.74-1.177-2.087-3.002.652-1.823 1.696-5.605 0-4.04-1.696 1.563-3 6.781-2.348 8.083.651 1.305 2.74 4.565 6.651 3 3.912-1.565 5.868-4.955 6.912-4.302 1.042.652.39 2.475 2.347 2.999 1.956.52 6.129.52 8.085-1.827 1.955-2.346 3.391-.261 3.65 0 .261.262 5.608.522 10.563-2.088 4.956-2.607 6.52-.912 7.173-.912.652 0 1.303 1.436 1.174 4.435-.132 3 2.608 4.434 3.65 3.911 1.044-.52 2.347-4.434 7.173-8.736 4.825-4.302 2.216-1.435 2.608-.263.39 1.175 4.824 3.915 6.52 3.653 1.694-.262 9.908-2.088 9.908-3.129 0-1.044 3.521-2.608 2.48-9.127-1.043-6.522-2.089-5.479-1.827-6.13.261-.652 3.261.132-1.173-4.56m-24.516-.132s-3.651.912-2.215 3.65c1.434 2.74 1.956 10.566 1.956 9.913 0-.652.521 6.78 2.739 1.173 2.215-5.607 0-4.043-.392-6.52-.391-2.477 1.302-1.434.521-4.042-.783-2.609-2.609-4.174-2.609-4.174m8.867 8.217l-1.302-1.176-1.305 1.958 1.825 1.564 1.564-1.435 2.74 1.173 1.435-2.085-2.349-1.957-2.608 1.958m-26.47-7.175l-10.172 5.217-.783 2.087 12.128-5.607-1.173-1.697m3.13 5.348l-10.172 5.217-.784 2.086 12.13-5.607-1.174-1.696m-39.252-2.998l4.042 1.432s-.651 4.305-2.478 4.566c-1.825.26-4.563 1.435-3.128-1.044 1.433-2.477.26-2.477-.13-1.563-.392.911-1.567-.524-.652-1.436.911-.914 2.346-1.955 2.346-1.955m-51.77 7.691l4.042 1.436s-.651 4.301-2.478 4.563c-1.824.263-4.563 1.436-3.13-1.042 1.436-2.476.262-2.476-.128-1.565-.392.914-1.565-.52-.653-1.435.913-.912 2.348-1.957 2.348-1.957m95.062 13.171s-3.912.392-2.086 1.827c1.825 1.435.13 1.435.391 2.345.26.915 2.868 3.262 3.65 1.568.783-1.697.783-2.35-.129-2.35s-1.303-.651-.912-1.434c.39-.782-.914-1.956-.914-1.956m-30.775 2.609s-3.651.914-4.042 2.087c-.39 1.175 0 2.086 2.086.913 2.086-1.174 3.913-3.13 1.956-3m-15.127-1.694l-1.173-1.306-1.696 2.48 2.608 2.083 1.697-1.825 1.564 1.306 1.043-1.826-1.174-1.827-2.087 1.436-.782-.521m-40.163-13.303l-1.435-1.04-1.173 2.738 3 1.564 1.303-2.088 1.694.914.653-1.955-1.435-1.568-1.825 1.827-.782-.392m40.425 1.827s.912 2.088.391 3.389c-.522 1.304-3.13 1.695-3.39.13-.262-1.565-3.653-5.605-3.912-7.693-.263-2.086-1.565-.261-1.565 1.174s.52 4.043 1.302 5.088c.783 1.04 1.174 3.258.131 3.91-1.042.654-1.957 1.174-2.739.262-.782-.914-3.911-4.564-4.694-2.608-.783 1.955-4.042 5.216-6.65 5.475-2.61.262-4.304 1.958-7.825-.65-3.52-2.609-10.17-6.522-11.346-1.825-1.173 4.691-1.695 12.779-5.606 9.126-3.912-3.65-6.52-5.216-4.825-1.564 1.696 3.652 5.216 7.693 6.78 6.78 1.565-.914 4.304-2.869 5.088-6.65.78-3.782 1.172-8.217 5.214-4.302 4.043 3.91 4.174 4.691 10.694 3.91 6.52-.782 7.302-2.475 8.346-3.652 1.042-1.173.651-1.303 3.52-.13 2.87 1.174 5.999 0 6.39-1.825.39-1.826 2.216-1.565 2.216-.781 0 .781 3.782 1.563 4.826-.522 1.043-2.088.783-5.478-2.346-7.042m-19.952-8.085l-11.605 7.172.39 2.085 12.91-7.172.13-2.609-1.825.524m12.52 21.255l-1.176 1.826 2.349 1.436.782-2.61-1.956-.652z"/><path d="M375.313 497.348l-11.62 29.885-19.204 5.178c19.917 5.198 40.382 13.036 58.696 21.121-4.433-9.78-8.848-20.561-13.152-30.34 9.26-2.87 18.517-5.74 27.906-8.608-12.49-6.412-27.3-12.81-42.626-17.236M264.195 513.28c-25.167.542-52.122 1.444-77.98 7.722l4.713 12.83c-24.592 5.747-48.506 15.196-71.326 25.59 4.633-10.955 9.65-23.381 14.451-34.205-8.714-3.09-19.705-6.44-31.18-9.438 10.328-6.161 26.728-14.391 49.084-21.042l-5.646-15.1c38.991-12.91 78.111-18.125 117.884-18.125 39.774 0 78.893 5.216 117.884 18.125l-5.645 15.1c22.355 6.65 38.755 14.88 49.085 21.042-11.476 2.999-22.469 6.347-31.182 9.438 4.803 10.824 9.819 23.25 14.452 34.204-22.82-10.393-46.734-19.842-71.326-25.59l4.712-12.83c-25.859-6.277-52.811-7.179-77.98-7.72m-111.118-15.932l11.62 29.885 19.204 5.178c-19.916 5.198-40.383 13.036-58.696 21.121 4.433-9.78 8.848-20.561 13.152-30.34-9.259-2.87-18.517-5.74-27.907-8.608 12.492-6.412 27.3-12.81 42.627-17.236m111.118 12.961c33.253.493 66.429 2.769 97.54 12.784l16.3-41.684c-29.73-9.1-63.895-17.135-113.84-16.9-49.944-.236-84.11 7.8-113.841 16.9l16.3 41.684c31.113-10.015 64.288-12.29 97.54-12.784z"/><path d="M153.077 497.348l11.62 29.885 19.204 5.178c-19.917 5.198-40.383 13.036-58.696 21.121 4.433-9.78 8.848-20.561 13.152-30.34-9.259-2.87-18.517-5.74-27.907-8.608 12.492-6.412 27.3-12.81 42.627-17.236z" fill="#c7c4e2"/></svg>