<svg xmlns="http://www.w3.org/2000/svg" xmlns:xlink="http://www.w3.org/1999/xlink" width="678.958" height="449.756" viewBox="0 0 226.319 149.919" version="1.0"><defs><linearGradient id="d"><stop offset="0" stop-color="#fff" stop-opacity="0"/><stop offset="1" stop-opacity=".174"/></linearGradient><linearGradient id="c"><stop offset="0" stop-color="#00a200"/><stop offset="1" stop-color="#005200"/></linearGradient><linearGradient id="b"><stop offset="0" stop-color="#fff"/><stop offset="1" stop-color="#e1e1e1"/></linearGradient><linearGradient id="a"><stop offset="0" stop-color="#fa8226"/><stop offset="1" stop-color="#df6305"/></linearGradient><linearGradient xlink:href="#a" id="s" x1="371.375" y1="240.573" x2="356.101" y2="264.311" gradientUnits="userSpaceOnUse"/><linearGradient xlink:href="#b" id="t" x1="384.142" y1="251.921" x2="369.009" y2="275.493" gradientUnits="userSpaceOnUse"/><linearGradient xlink:href="#a" id="u" x1="347.917" y1="257.239" x2="334.79" y2="283.452" gradientUnits="userSpaceOnUse"/><linearGradient xlink:href="#b" id="v" x1="365.617" y1="272.571" x2="349.024" y2="308.764" gradientUnits="userSpaceOnUse"/><linearGradient xlink:href="#c" id="w" x1="373.968" y1="279.788" x2="356.701" y2="315.422" gradientUnits="userSpaceOnUse"/><linearGradient xlink:href="#b" id="x" x1="389.496" y1="289.855" x2="375.279" y2="316.677" gradientUnits="userSpaceOnUse"/><linearGradient xlink:href="#a" id="r" x1="351.727" y1="318.717" x2="382.715" y2="317.497" gradientUnits="userSpaceOnUse" spreadMethod="reflect"/><linearGradient xlink:href="#b" id="q" x1="343.781" y1="335.282" x2="379.205" y2="348.162" gradientUnits="userSpaceOnUse" spreadMethod="reflect"/><linearGradient xlink:href="#c" id="p" x1="365.024" y1="349.62" x2="393.411" y2="327.511" gradientUnits="userSpaceOnUse"/><linearGradient xlink:href="#a" id="y" gradientUnits="userSpaceOnUse" x1="351.727" y1="318.717" x2="382.715" y2="317.497"/><linearGradient xlink:href="#b" id="f" x1="311.206" y1="337.701" x2="328.503" y2="346.744" gradientUnits="userSpaceOnUse"/><linearGradient xlink:href="#b" id="g" x1="338.253" y1="350.562" x2="325.286" y2="352.511" gradientUnits="userSpaceOnUse"/><linearGradient xlink:href="#d" id="i" x1="342.274" y1="362.616" x2="381.263" y2="359.526" gradientUnits="userSpaceOnUse" spreadMethod="reflect"/><linearGradient xlink:href="#a" id="o" x1="392.911" y1="341.287" x2="404.625" y2="341.287" gradientUnits="userSpaceOnUse"/><linearGradient xlink:href="#a" id="n" x1="392.814" y1="357.714" x2="403.907" y2="354.73" gradientUnits="userSpaceOnUse"/><linearGradient xlink:href="#b" id="m" x1="392.814" y1="357.714" x2="403.907" y2="354.73" gradientUnits="userSpaceOnUse"/><linearGradient xlink:href="#b" id="l" x1="413.342" y1="356.959" x2="396.344" y2="362.396" gradientUnits="userSpaceOnUse"/><linearGradient xlink:href="#c" id="k" x1="413.342" y1="356.959" x2="396.344" y2="362.396" gradientUnits="userSpaceOnUse"/><linearGradient xlink:href="#c" id="j" x1="396.205" y1="367.708" x2="413.842" y2="363.288" gradientUnits="userSpaceOnUse"/><linearGradient xlink:href="#b" id="h" gradientUnits="userSpaceOnUse" x1="338.253" y1="350.562" x2="325.286" y2="352.511" gradientTransform="matrix(-1 0 0 1 839.679 0)"/><linearGradient xlink:href="#c" id="z" gradientUnits="userSpaceOnUse" x1="396.205" y1="367.708" x2="413.842" y2="363.288" gradientTransform="matrix(-1 0 0 1 839.679 0)"/><linearGradient xlink:href="#c" id="A" gradientUnits="userSpaceOnUse" x1="413.342" y1="356.959" x2="396.344" y2="362.396" gradientTransform="matrix(-1 0 0 1 839.679 0)"/><linearGradient xlink:href="#b" id="B" gradientUnits="userSpaceOnUse" x1="413.342" y1="356.959" x2="396.344" y2="362.396" gradientTransform="matrix(-1 0 0 1 839.679 0)"/><linearGradient xlink:href="#b" id="C" gradientUnits="userSpaceOnUse" x1="392.814" y1="357.714" x2="403.907" y2="354.73" gradientTransform="matrix(-1 0 0 1 839.679 0)"/><linearGradient xlink:href="#a" id="D" gradientUnits="userSpaceOnUse" x1="392.814" y1="357.714" x2="403.907" y2="354.73" gradientTransform="matrix(-1 0 0 1 839.679 0)"/><linearGradient xlink:href="#a" id="E" gradientUnits="userSpaceOnUse" x1="392.911" y1="341.287" x2="404.625" y2="341.287" gradientTransform="matrix(-1 0 0 1 839.679 0)"/><linearGradient xlink:href="#c" id="F" gradientUnits="userSpaceOnUse" x1="365.024" y1="349.62" x2="393.411" y2="327.511" gradientTransform="matrix(-1 0 0 1 839.679 0)"/><linearGradient xlink:href="#b" id="G" gradientUnits="userSpaceOnUse" x1="343.781" y1="335.282" x2="379.205" y2="348.162" spreadMethod="reflect" gradientTransform="matrix(-1 0 0 1 839.679 0)"/><linearGradient xlink:href="#a" id="H" gradientUnits="userSpaceOnUse" x1="351.727" y1="318.717" x2="382.715" y2="317.497" spreadMethod="reflect" gradientTransform="matrix(-1 0 0 1 839.679 0)"/><linearGradient xlink:href="#a" id="I" gradientUnits="userSpaceOnUse" x1="371.375" y1="240.573" x2="356.101" y2="264.311" gradientTransform="matrix(-1 0 0 1 839.679 0)"/><linearGradient xlink:href="#b" id="J" gradientUnits="userSpaceOnUse" x1="384.142" y1="251.921" x2="369.009" y2="275.493" gradientTransform="matrix(-1 0 0 1 839.679 0)"/><linearGradient xlink:href="#a" id="K" gradientUnits="userSpaceOnUse" x1="347.917" y1="257.239" x2="334.79" y2="283.452" gradientTransform="matrix(-1 0 0 1 839.679 0)"/><linearGradient xlink:href="#b" id="L" gradientUnits="userSpaceOnUse" x1="365.617" y1="272.571" x2="349.024" y2="308.764" gradientTransform="matrix(-1 0 0 1 839.679 0)"/><linearGradient xlink:href="#c" id="M" gradientUnits="userSpaceOnUse" x1="373.968" y1="279.788" x2="356.701" y2="315.422" gradientTransform="matrix(-1 0 0 1 839.679 0)"/><linearGradient xlink:href="#b" id="N" gradientUnits="userSpaceOnUse" x1="389.496" y1="289.855" x2="375.279" y2="316.677" gradientTransform="matrix(-1 0 0 1 839.679 0)"/><linearGradient xlink:href="#a" id="O" gradientUnits="userSpaceOnUse" x1="351.727" y1="318.717" x2="382.715" y2="317.497" gradientTransform="matrix(-1 0 0 1 839.679 0)"/><linearGradient xlink:href="#b" id="e" gradientUnits="userSpaceOnUse" x1="311.206" y1="337.701" x2="328.503" y2="346.744" gradientTransform="matrix(-1 0 0 1 839.679 0)"/></defs><path d="M515.798 349.663c0-2.463-8.08-3.094-8.08-5.051 0-3.619 13.729-6.655 17.479-11.03l-3.215 8.84h9.822c-6.429 6.517-17.41 10.089-17.41 10.089z" fill="url(#e)" fill-rule="evenodd" stroke="#666" transform="translate(-306.68 -221.52)"/><path d="M323.88 349.663c0-2.463 8.082-3.094 8.082-5.051 0-3.619-13.73-6.655-17.48-11.03l3.215 8.84h-9.822c6.429 6.517 17.41 10.089 17.41 10.089z" fill="url(#f)" fill-rule="evenodd" stroke="#666" transform="translate(-306.68 -221.52)"/><path d="M323.88 360.648v-10.985c0-2.463 8.082-3.094 8.082-5.051v14.458z" fill="url(#g)" fill-rule="evenodd" stroke="#666" transform="translate(-306.68 -221.52)"/><path d="M515.798 360.648v-10.985c0-2.463-8.08-3.094-8.08-5.051v14.458z" fill="url(#h)" fill-rule="evenodd" stroke="#666" transform="translate(-306.68 -221.52)"/><path d="M113.16 143.168c9.338 0 18.035-2.703 34.196-2.703 16.16 0 27.054 5.707 41.16 5.707 14.108 0 20.602-3.888 20.602-7.044v-10.986c0 3.157-6.494 7.938-20.601 7.938s-25-6.34-41.16-6.34c-16.162 0-24.86 3.453-34.197 3.453-9.338 0-18.036-3.452-34.197-3.452-16.16 0-27.053 6.339-41.16 6.339-14.108 0-20.602-4.781-20.602-7.938v10.986c0 3.156 6.494 7.044 20.602 7.044 14.107 0 25-5.707 41.16-5.707 16.161 0 24.859 2.703 34.197 2.703z" fill="#fff" fill-rule="evenodd"/><path d="M21.392 140.788v-5.83l2.14 1.226c.454.202.815.37 1.058.564.243.193.44.44.589.75.148.308.223.623.223.944 0 .413-.123.726-.37.937-.245.21-.615.249-1.118.142.183.165.323.313.418.443.203.28.392.62.577.984l.93 1.862-.89-.263-.695-1.462a27.145 27.145 0 00-.5-.99 3.113 3.113 0 00-.343-.541c-.1-.12-.204-.216-.308-.292-.077-.053-.201-.118-.37-.208l-.745-.421v2.589l-.596-.434m.596-2.823l1.407.731c.309.137.554.198.733.19a.504.504 0 00.408-.201.775.775 0 00.14-.472c0-.276-.09-.536-.27-.779-.18-.243-.469-.426-.847-.594l-1.57-.804v1.929m6.115 5.379v-5.83l3.994.575v.688l-3.267-.439v1.785l3.059.419v.684l-3.06-.419v1.985l3.397.451v.688l-4.123-.587m6.752.775v-5.83l2.105.06c.37.007.654.04.849.071.274.04.504.125.69.254.184.13.333.313.446.55.113.24.17.503.17.792 0 .495-.151.919-.453 1.27-.302.352-.848.539-1.637.524l-1.432-.027v2.37l-.738-.034m.738-3.024l1.443.027c.477.01.816-.08 1.017-.27.2-.192.3-.456.3-.792 0-.244-.059-.451-.177-.622a.846.846 0 00-.466-.335c-.124-.037-.354-.058-.69-.065l-1.427-.026v2.084m9.713-3.316l.73-.114v3.368c0 .586-.062 1.061-.188 1.426-.125.364-.352.68-.68.946-.327.268-.759.424-1.293.488-.52.062-.944.019-1.275-.13a1.38 1.38 0 01-.71-.762c-.142-.346-.212-.828-.212-1.446v-3.368l.736-.056v3.364c0 .507.045.876.135 1.11.09.232.244.397.462.5.218.104.484.137.8.1.539-.065.924-.232 1.153-.525.228-.293.342-.805.342-1.537v-3.364m3.498 5.226v-5.83l2.056-.4c.419-.08.755-.087 1.008-.018.253.068.45.204.592.418.143.214.214.455.214.723 0 .249-.063.497-.19.745-.126.248-.317.47-.573.656.331.039.584.154.761.365.177.21.266.485.266.824 0 .273-.054.54-.162.797a1.976 1.976 0 01-.4.63 2.023 2.023 0 01-.598.414c-.24.112-.535.201-.884.27l-2.09.406m.725-3.521l1.185-.23c.322-.063.552-.13.692-.203a1.01 1.01 0 00.417-.371 1.01 1.01 0 00.14-.536.853.853 0 00-.13-.486.516.516 0 00-.375-.23c-.162-.022-.44.005-.833.081l-1.096.213v1.762m0 2.692l1.365-.266c.234-.045.399-.086.493-.123.167-.065.307-.145.419-.24.112-.097.204-.223.276-.38.072-.158.108-.33.108-.515a.858.858 0 00-.156-.533.65.65 0 00-.436-.252c-.185-.03-.453-.01-.801.058l-1.268.247v2.004m5.951-.552v-5.83l.722-.157v5.141l2.69-.57v.689l-3.412.727m5.974-1.265v-5.829l.725-.143v5.83l-.725.142m7.772-1.893c.34.202.653.34.941.426l-.216.558a3.914 3.914 0 01-1.19-.561c-.41.295-.863.475-1.36.54-.5.066-.952.018-1.358-.172a1.98 1.98 0 01-.938-.922c-.22-.426-.33-.928-.33-1.506 0-.575.111-1.117.332-1.624.22-.507.534-.917.942-1.23a2.832 2.832 0 011.368-.58c.511-.067.972 0 1.382.202.41.202.723.52.938.95.216.433.324.943.324 1.52 0 .48-.07.916-.208 1.317a3.239 3.239 0 01-.627 1.082m-1.613-.774c.423.069.772.209 1.046.419.43-.47.646-1.12.646-1.95 0-.472-.076-.874-.228-1.206a1.513 1.513 0 00-.669-.734 1.605 1.605 0 00-.987-.162c-.547.071-.997.348-1.355.799-.359.451-.538 1.068-.538 1.85 0 .758.177 1.311.532 1.66.355.349.807.471 1.36.399.263-.035.51-.119.74-.253a2.028 2.028 0 00-.724-.238l.177-.584m8.691-4.993l.739-.015v3.368c0 .586-.063 1.052-.19 1.4a1.735 1.735 0 01-.688.855c-.331.223-.765.356-1.302.388-.522.031-.95-.037-1.282-.205a1.457 1.457 0 01-.71-.775c-.142-.348-.213-.825-.213-1.443v-3.368l.737-.05v3.365c0 .506.045.876.135 1.11.09.235.245.41.464.528.22.116.487.165.804.146.542-.033.929-.188 1.16-.45.23-.261.346-.758.346-1.49V132.7m3.595 5.792v-5.83l4.037.07v.687l-3.298-.056v1.785l3.089.053v.684l-3.089-.053v1.984l3.427.059v.688l-4.166-.071M142.253 138.738v-5.83l2.337-.04c.527-.009.93.012 1.207.063a2.33 2.33 0 011.798 1.391c.177.409.266.872.266 1.392 0 .443-.06.834-.18 1.173-.121.34-.275.618-.463.845a2.381 2.381 0 01-.618.54 2.799 2.799 0 01-.81.306c-.316.072-.68.11-1.09.118l-2.447.042m.898-.703l1.448-.025c.447-.008.798-.05 1.052-.126.255-.076.458-.18.609-.312.213-.187.378-.436.497-.746.119-.311.178-.687.178-1.127 0-.61-.116-1.076-.349-1.4-.233-.323-.516-.537-.849-.643-.24-.075-.628-.109-1.161-.1l-1.425.025v4.454m12.34-4.777l.893.087v3.368c0 .586-.077 1.044-.23 1.373-.154.33-.43.583-.831.76-.401.177-.927.234-1.578.17-.632-.06-1.153-.171-1.556-.383-.403-.213-.691-.503-.864-.87-.172-.367-.258-.859-.258-1.477v-3.368l.896.054v3.364c0 .507.054.883.164 1.13.11.246.297.442.563.588.267.146.593.222.977.26.657.063 1.125-.02 1.405-.25.279-.23.419-.71.419-1.442v-3.364m13.304 8.101v-5.829l.901.19 3.482 5.337v-4.577l.84.184v5.83l-.899-.197-3.481-5.34v4.58l-.843-.178m8.775 1.832v-5.829l.881.171v5.83l-.88-.172m7.526-1.25v-.684l2.87.123v2.163c-.44.29-.896.506-1.364.646-.47.14-.949.18-1.441.143-.665-.051-1.269-.213-1.81-.523-.54-.31-.948-.713-1.224-1.21a3.254 3.254 0 01-.414-1.604c0-.568.138-1.08.412-1.54a2.148 2.148 0 011.183-.953c.514-.177 1.11-.255 1.784-.204.489.038.93.144 1.327.29.396.148.707.346.932.596.225.25.396.573.513.968l-.809.17a2.105 2.105 0 00-.38-.71c-.15-.174-.367-.306-.647-.43a2.827 2.827 0 00-.932-.223c-.409-.032-.763-.005-1.06.08-.3.084-.539.197-.721.35a1.693 1.693 0 00-.425.526 2.5 2.5 0 00-.258 1.142c0 .52.104.967.31 1.341.207.375.507.683.904.883.397.2.818.317 1.264.35.388.03.765.007 1.135-.112.37-.119.651-.248.842-.39v-1.085l-1.99-.103m6.159 2.365v-5.83l4.883-.44v.688l-3.987.389v1.785l3.735-.354v.684l-3.735.354v1.985l4.143-.412v.688l-5.04.463m8.199-1.058v-5.83l2.876-.872c.568-.206.98-.36 1.258-.402.278-.044.5.024.66.188.158.164.237.406.237.727 0 .413-.12.866-.394 1.296-.275.43-.7.836-1.295 1.177.217.002.382.025.494.07.24.1.455.234.662.434l.975.927-.93.635-.8-.805a5.74 5.74 0 00-.592-.54c-.155-.117-.3-.2-.425-.228a1.066 1.066 0 00-.385-.015c-.096.016-.25.071-.472.137l-.998.295v2.589l-.871.217m.87-3.474l1.836-.593c.385-.14.678-.309.89-.476.21-.167.37-.356.477-.573.106-.216.16-.419.16-.607 0-.276-.097-.435-.31-.518-.213-.083-.54-.001-1.013.171l-2.04.667v1.929" font-weight="400" font-size="8.144" font-family="Bitstream Vera Sans" fill="#666"/><path d="M419.84 364.689c9.338 0 18.035-2.704 34.196-2.704 16.16 0 27.054 5.708 41.16 5.708 14.108 0 20.602-3.888 20.602-7.045v-10.985c0 3.156-6.494 7.937-20.601 7.937s-25-6.34-41.161-6.34c-16.16 0-24.858 3.453-34.196 3.453-9.339 0-18.036-3.452-34.197-3.452-16.16 0-27.053 6.34-41.16 6.34-14.108 0-20.602-4.782-20.602-7.938v10.985c0 3.157 6.494 7.045 20.601 7.045 14.108 0 25-5.708 41.161-5.708 16.16 0 24.858 2.704 34.197 2.704z" fill="url(#i)" fill-rule="evenodd" transform="translate(-306.68 -221.52)"/><path d="M113.16 143.168c9.338 0 18.035-2.703 34.196-2.703 16.16 0 27.054 5.707 41.16 5.707 14.108 0 20.602-3.888 20.602-7.044v-10.986c0 3.157-6.494 7.938-20.601 7.938s-25-6.34-41.16-6.34c-16.162 0-24.86 3.453-34.197 3.453-9.338 0-18.036-3.452-34.197-3.452-16.16 0-27.053 6.339-41.16 6.339-14.108 0-20.602-4.781-20.602-7.938v10.986c0 3.156 6.494 7.044 20.602 7.044 14.107 0 25-5.707 41.16-5.707 16.161 0 24.859 2.703 34.197 2.703z" fill="none" stroke="#666"/><path d="M121.93 134.203s-2.273-1.768-2.273 10.67h0c0 3.157 3.535 4.546 13.132 4.546v-9.155z" fill="#007900" fill-rule="evenodd" stroke="#998c1d"/><path d="M131.106 128.714c-.038 3.049 7.41 8.437 7.41 12.098 0 5.892-11.346 1.22-14.566 1.22-3.22 0-4.293 1.01-4.293 2.84v-23.485l10.824-4.682z" fill="#007900" fill-rule="evenodd"/><path d="M131.246 128.45c-.038 3.05 7.27 8.701 7.27 12.362 0 5.892-11.346 1.22-14.566 1.22v-22.474l6.531-2.853z" fill="#fefffc" fill-rule="evenodd"/><path d="M131.106 128.714c-.038 3.049 7.41 8.437 7.41 12.098 0 5.892-11.346 1.22-14.566 1.22-3.22 0-4.293 1.01-4.293 2.84v-23.485l10.824-4.682z" fill="none" stroke="#998c1d"/><path d="M128.874 134.651c-.039 3.05 9.643 2.5 9.643 6.161v-15.268c-9.172-.984-9.515-1-9.643 9.107z" fill="#fefffc" fill-rule="evenodd"/><path d="M128.874 134.651c-.018 1.434 2.114 2.073 4.378 2.727v-11.834s-4.25-1-4.378 9.107z" fill="#f36b05" fill-rule="evenodd"/><path d="M128.874 134.651c-.039 3.05 9.643 2.5 9.643 6.161v-15.268c-9.172-.984-9.515-1-9.643 9.107z" fill="none" stroke="#998c1d"/><path d="M139.588 105.99v24.733c-2.849-1.645-10.714-1.429-10.714 3.928v-19.196z" fill="#f36b05" fill-rule="evenodd" stroke="#998c1d"/><path d="M411.07 355.723s2.272-1.767 2.272 10.67v0c0 3.157-3.535 4.546-13.132 4.546v-9.155z" fill="url(#j)" fill-rule="evenodd" stroke="#998c1d" transform="translate(-306.68 -221.52)"/><path d="M401.893 350.234c.039 3.049-7.41 8.438-7.41 12.098 0 5.892 11.346 1.22 14.566 1.22 3.22 0 4.293 1.01 4.293 2.841v-23.486l-10.824-4.682z" fill="url(#k)" fill-rule="evenodd" transform="translate(-306.68 -221.52)"/><path d="M401.753 349.971c.039 3.049-7.27 8.7-7.27 12.361 0 5.892 11.346 1.22 14.566 1.22V341.08l-6.53-2.854z" fill="url(#l)" fill-rule="evenodd" transform="translate(-306.68 -221.52)"/><path d="M95.213 128.714c.039 3.049-7.41 8.437-7.41 12.098 0 5.892 11.347 1.22 14.566 1.22 3.22 0 4.294 1.01 4.294 2.84v-23.485l-10.825-4.682z" fill="none" stroke="#998c1d"/><path d="M404.125 356.172c.039 3.048-9.643 2.5-9.643 6.16v-15.268c9.172-.984 9.515-1 9.643 9.108z" fill="url(#m)" fill-rule="evenodd" transform="translate(-306.68 -221.52)"/><path d="M404.125 356.172c.018 1.434-2.114 2.072-4.378 2.726v-11.834s4.25-1 4.378 9.108z" fill="url(#n)" fill-rule="evenodd" transform="translate(-306.68 -221.52)"/><path d="M97.445 134.651c.039 3.05-9.642 2.5-9.642 6.161v-15.268c9.171-.984 9.515-1 9.642 9.107z" fill="none" stroke="#998c1d"/><path d="M393.41 327.51v24.733c2.85-1.645 10.715-1.429 10.715 3.929v-19.197z" fill="url(#o)" fill-rule="evenodd" stroke="#998c1d" transform="translate(-306.68 -221.52)"/><path d="M379.482 284.564l-49.92-43.24c-20.677 105.733 23.416 108.386 39.58 108.386 13.378 0 23.195-6.671 25.828-23.155 1.261-7.89-15.666-41.99-15.488-41.99z" fill="url(#p)" fill-rule="evenodd" transform="translate(-306.68 -221.52)"/><path d="M379.482 284.564l-49.92-43.24c-18.858 92.538 13.13 105.94 29.295 105.94 9.092 0 28.41-10.86 32.83-30.558 1.75-7.797-12.383-32.142-12.205-32.142z" fill="url(#q)" fill-rule="evenodd" transform="translate(-306.68 -221.52)"/><path d="M379.611 284.693l-49.92-43.241c-16.355 80.26 13.13 93.565 29.295 93.565 9.092 0 22.097-5.555 29.547-21.465 3.389-7.237-9.1-28.86-8.922-28.86z" fill="url(#r)" fill-rule="evenodd" transform="translate(-306.68 -221.52)"/><path d="M389.66 256.707l-24.285-21.428-16.607 27.678 30.714 24.643z" fill="url(#s)" fill-rule="evenodd" transform="translate(-306.68 -221.52)"/><path d="M389.66 256.707l-12.104-10.498-15.667 27.275 17.593 14.116z" fill="url(#t)" fill-rule="evenodd" transform="translate(-306.68 -221.52)"/><path d="M82.981 35.187L58.695 13.758l-16.607 27.68L72.803 66.08z" fill="none" stroke="#998c1d"/><path d="M379.482 284.564l-49.92-43.24c-5.429 26.642 13.89 77.276 37.377 77.276 9.09 0 13.005-4.924 17.172-11.743 4.167-6.818-4.807-22.293-4.629-22.293z" fill="url(#u)" fill-rule="evenodd" transform="translate(-306.68 -221.52)"/><path d="M379.482 284.564l-31.56-27.337-13.132 26.227c6.891 18.917 18.852 35.146 32.149 35.146 9.09 0 13.005-4.924 17.172-11.743 4.167-6.818-4.807-22.293-4.629-22.293z" fill="url(#v)" fill-rule="evenodd" transform="translate(-306.68 -221.52)"/><path d="M379.482 284.564l-13.86-12.005-16.598 36.205c5.379 6.048 11.49 9.836 17.915 9.836 9.09 0 13.005-4.924 17.172-11.743 4.167-6.818-4.807-22.293-4.629-22.293z" fill="url(#w)" fill-rule="evenodd" transform="translate(-306.68 -221.52)"/><path d="M368.184 318.568c8.213-.434 11.956-5.212 15.927-11.71 3.013-4.93-.75-14.386-3.067-19.245l-12.86 30.955z" fill="url(#x)" fill-rule="evenodd" transform="translate(-306.68 -221.52)"/><path d="M72.803 63.044l-49.92-43.24C17.453 46.445 36.773 97.08 60.26 97.08c9.091 0 13.005-4.924 17.172-11.743 4.167-6.818-4.807-22.293-4.628-22.293z" fill="none" stroke="#998c1d"/><path d="M335.37 329.073c-1.375 0-2.66.275-3.812.782 2.906 5.365 6.36 9.167 10 11.812 1.45-1.338 2.344-3.137 2.344-5.125 0-4.122-3.818-7.469-8.531-7.469z" fill="url(#y)" transform="translate(-306.68 -221.52)"/><path d="M23.012 19.932l-2.24-6.487-12.161-6.01 7.664 11.193z" fill="#c3bb0d" fill-rule="evenodd"/><path d="M23.012 19.932L8.611 7.434l7.664 11.194z" fill="#e9d500" fill-rule="evenodd"/><path d="M23.012 19.932l-2.24-6.487-12.161-6.01 7.664 11.193z" fill="none" stroke="#998c1d"/><path d="M58.704 13.793l-2.24-6.486-12.161-6.011 7.664 11.194z" fill="#c3bb0d" fill-rule="evenodd"/><path d="M58.704 13.793L44.303 1.296l7.664 11.194z" fill="#e9d500" fill-rule="evenodd"/><path d="M58.704 13.793l-2.24-6.486-12.161-6.011 7.664 11.194zM72.803 63.044l-49.92-43.24C2.206 125.536 46.298 128.188 62.463 128.188c13.377 0 23.194-6.67 25.827-23.154 1.261-7.89-15.666-41.99-15.487-41.99z" fill="none" stroke="#998c1d"/><path d="M428.61 355.723s-2.273-1.767-2.273 10.67v0c0 3.157 3.535 4.546 13.132 4.546v-9.155z" fill="url(#z)" fill-rule="evenodd" stroke="#998c1d" transform="translate(-306.68 -221.52)"/><path d="M437.786 350.234c-.039 3.049 7.41 8.438 7.41 12.098 0 5.892-11.346 1.22-14.566 1.22-3.22 0-4.293 1.01-4.293 2.841v-23.486l10.824-4.682z" fill="url(#A)" fill-rule="evenodd" transform="translate(-306.68 -221.52)"/><path d="M437.926 349.971c-.039 3.049 7.27 8.7 7.27 12.361 0 5.892-11.346 1.22-14.566 1.22V341.08l6.531-2.854z" fill="url(#B)" fill-rule="evenodd" transform="translate(-306.68 -221.52)"/><path d="M131.106 128.714c-.038 3.049 7.41 8.437 7.41 12.098 0 5.892-11.346 1.22-14.566 1.22-3.22 0-4.293 1.01-4.293 2.84v-23.485l10.824-4.682z" fill="none" stroke="#998c1d"/><path d="M435.554 356.172c-.039 3.048 9.643 2.5 9.643 6.16v-15.268c-9.172-.984-9.515-1-9.643 9.108z" fill="url(#C)" fill-rule="evenodd" transform="translate(-306.68 -221.52)"/><path d="M435.554 356.172c-.018 1.434 2.114 2.072 4.378 2.726v-11.834s-4.25-1-4.378 9.108z" fill="url(#D)" fill-rule="evenodd" transform="translate(-306.68 -221.52)"/><path d="M128.874 134.651c-.039 3.05 9.643 2.5 9.643 6.161v-15.268c-9.172-.984-9.515-1-9.643 9.107z" fill="none" stroke="#998c1d"/><path d="M446.268 327.51v24.733c-2.849-1.645-10.714-1.429-10.714 3.929v-19.197z" fill="url(#E)" fill-rule="evenodd" stroke="#998c1d" transform="translate(-306.68 -221.52)"/><path d="M460.197 284.564l49.92-43.24c20.677 105.733-23.416 108.386-39.58 108.386-13.378 0-23.195-6.671-25.828-23.155-1.261-7.89 15.666-41.99 15.488-41.99z" fill="url(#F)" fill-rule="evenodd" transform="translate(-306.68 -221.52)"/><path d="M460.197 284.564l49.92-43.24c18.858 92.538-13.13 105.94-29.295 105.94-9.092 0-28.41-10.86-32.83-30.558-1.75-7.797 12.383-32.142 12.205-32.142z" fill="url(#G)" fill-rule="evenodd" transform="translate(-306.68 -221.52)"/><path d="M460.068 284.693l49.92-43.241c16.356 80.26-13.13 93.565-29.295 93.565-9.092 0-22.097-5.555-29.547-21.465-3.389-7.237 9.1-28.86 8.922-28.86z" fill="url(#H)" fill-rule="evenodd" transform="translate(-306.68 -221.52)"/><path d="M450.018 256.707l24.286-21.428 16.607 27.678-30.714 24.643z" fill="url(#I)" fill-rule="evenodd" transform="translate(-306.68 -221.52)"/><path d="M450.018 256.707l12.105-10.498 15.667 27.275-17.593 14.116z" fill="url(#J)" fill-rule="evenodd" transform="translate(-306.68 -221.52)"/><path d="M143.338 35.187l24.286-21.429 16.607 27.68-30.714 24.642z" fill="none" stroke="#998c1d"/><path d="M460.197 284.564l49.92-43.24c5.429 26.642-13.89 77.276-37.376 77.276-9.092 0-13.006-4.924-17.173-11.743-4.167-6.818 4.807-22.293 4.629-22.293z" fill="url(#K)" fill-rule="evenodd" transform="translate(-306.68 -221.52)"/><path d="M460.197 284.564l31.56-27.337 13.132 26.227c-6.891 18.917-18.852 35.146-32.148 35.146-9.092 0-13.006-4.924-17.173-11.743-4.167-6.818 4.807-22.293 4.629-22.293z" fill="url(#L)" fill-rule="evenodd" transform="translate(-306.68 -221.52)"/><path d="M460.197 284.564l13.86-12.005 16.598 36.205c-5.379 6.048-11.49 9.836-17.914 9.836-9.092 0-13.006-4.924-17.173-11.743-4.167-6.818 4.807-22.293 4.629-22.293z" fill="url(#M)" fill-rule="evenodd" transform="translate(-306.68 -221.52)"/><path d="M471.495 318.568c-8.213-.434-11.956-5.212-15.927-11.71-3.013-4.93.75-14.386 3.067-19.245l12.86 30.955z" fill="url(#N)" fill-rule="evenodd" transform="translate(-306.68 -221.52)"/><path d="M504.308 329.073c1.377 0 2.661.275 3.813.782-2.906 5.365-6.36 9.167-10 11.812-1.45-1.338-2.344-3.137-2.344-5.125 0-4.122 3.818-7.469 8.531-7.469z" fill="url(#O)" transform="translate(-306.68 -221.52)"/><path d="M167.615 13.793l2.24-6.486 12.162-6.011-7.664 11.194z" fill="#c3bb0d" fill-rule="evenodd"/><path d="M167.615 13.793l14.402-12.497-7.664 11.194z" fill="#e9d500" fill-rule="evenodd"/><path d="M167.615 13.793l2.24-6.486 12.162-6.011-7.664 11.194zM153.517 63.044l49.92-43.24c20.677 105.733-23.416 108.385-39.58 108.385-13.377 0-23.194-6.67-25.828-23.154-1.26-7.89 15.666-41.99 15.488-41.99z" fill="none" stroke="#998c1d"/><path d="M153.517 63.044l49.92-43.24c5.429 26.642-13.89 77.276-37.376 77.276-9.092 0-13.006-4.924-17.173-11.743-4.167-6.818 4.807-22.293 4.629-22.293z" fill="none" stroke="#998c1d"/><path d="M113.16 132.31c40.285-27.654 44.693-64.52 44.693-96.344-10.354 0-34.087-3.283-44.693-16.289-10.607 13.006-34.34 16.289-44.694 16.289 0 31.824 4.408 68.69 44.694 96.343z" fill="#007200" fill-rule="evenodd" stroke="#998c1d"/><path d="M86.378 42.96l-3.25 6.218h2.75v10.219L76.191 48.49l9.562 12.156-4.187 4.719-1.156-.97-.938 1.126 1.125.937-2.531 2.875 1.281 1.063 2.344-3 1.125.937.937-1.125-1.156-.968 3.281-4.188v9.656h1v-9.656l3.282 4.188-1.157.968.938 1.125 1.125-.937 2.344 3 1.281-1.063-2.531-2.875 1.125-.937-.938-1.125-1.156.969-4.188-4.72 9.563-12.155-9.688 10.906V49.178h2.75zm26.782 10.263l1.846 9.646 5.397-8.205-1.985 9.618 8.126-5.515-5.515 8.126 9.618-1.985-8.205 5.397 9.646 1.846-9.646 1.847 8.205 5.397-9.618-1.986 5.515 8.127-8.126-5.515 1.985 9.618-5.397-8.205-1.846 9.646-1.847-9.646-5.397 8.205 1.986-9.618-8.127 5.515 5.515-8.127-9.618 1.986 8.205-5.397-9.646-1.847 9.646-1.846-8.205-5.397 9.618 1.985-5.515-8.126 8.127 5.515-1.986-9.618 5.397 8.205zm26.843-8.17s-.53 2.62-.562 6.219c-.023 2.623.345 5.248.406 7.812v6.47c-1.97-2.795-3.937-5.595-3.937-5.595-1.393-2.157-2.67-4.436-4.157-6.593-2.04-2.964-4.062-4.75-4.062-4.75s1.078 2.447 3.125 5.406c1.492 2.157 3.316 4.065 4.844 6.125 0 0 1.757 2.51 3.468 4.937-2.62-2.369-7.084-2.913-7 3.375 1.854-3.822 4.403-3.802 7.125-1.656-1.476 2.095-3.093 4.406-3.093 4.406l.25.188s1.617-2.312 3.093-4.406c.115.095.23.179.344.28v5.563h.313v-5.562c.115-.102.229-.186.343-.281 1.477 2.094 3.094 4.406 3.094 4.406l.25-.188s-1.617-2.311-3.094-4.406c2.723-2.146 5.241-2.166 7.094 1.656.084-6.24-4.308-5.76-6.937-3.437l3.437-4.875c1.528-2.06 3.32-3.968 4.813-6.125 2.047-2.96 3.125-5.406 3.125-5.406s-1.99 1.786-4.032 4.75c-1.485 2.157-2.763 4.436-4.156 6.593 0 0-1.968 2.8-3.937 5.594v-6.469c.104-2.565.377-5.193.406-7.812.04-3.598-.562-6.219-.563-6.219zm-26.843 78.102c4.108 0 3.79-2.713 4.344-5.005.397-1.642 1.1-2.822 1.837-3.771 1.768-2.273 2.4-5.43 2.4-8.965.769.303 2.279.773 3.972.773 2.89 0 6.129-1.762 6.129-3.235 0-1.01-6.63-2.147-9.218-2.147 0 0 2.158-.686 4.546-5.556 3.22-6.566 6.818-11.111 14.395-13.51 0 0-9.66.441-13.827 4.293-2.264 2.092-3.707 6.116-5.815 8.952-1.772 2.385-4.22 3.864-4.855 3.864-1.389 0-3.093 1.136-3.908 1.136s-2.52-1.136-3.909-1.136c-.634 0-3.082-1.479-4.855-3.864-2.107-2.836-3.551-6.86-5.815-8.952-4.167-3.852-13.826-4.294-13.826-4.294 7.576 2.4 11.175 6.945 14.395 13.511 2.388 4.87 4.545 5.556 4.545 5.556-2.588 0-9.217 1.136-9.217 2.147 0 1.473 3.238 3.235 6.128 3.235 1.694 0 3.203-.47 3.973-.773 0 3.535.632 6.692 2.4 8.965.737.949 1.44 2.129 1.836 3.771.555 2.292.236 5.005 4.345 5.005zm-1.7-20.172c0-.663-3.819-.852-4.608-1.01 1.705 1.61 2.241 2.147 2.904 2.147.663 0 1.736-1.042 1.705-1.137zm-4.829 2.589c-1.452.854 1.61 4.545 2.746 3.693.89-.667-1.657-4.334-2.746-3.693zm-4.886-1.8c0 .297-.809.537-1.806.537s-1.807-.24-1.807-.537c0-.296.81-.536 1.807-.536.997 0 1.806.24 1.806.536zm10 16.636c0 .68-.198 1.231-.442 1.231s-.442-.551-.442-1.23c0-.68.198-1.232.442-1.232s.442.552.442 1.231zm3.114-17.425c0-.663 3.82-.852 4.608-1.01-1.704 1.61-2.24 2.147-2.904 2.147-.663 0-1.736-1.042-1.704-1.137zm4.83 2.589c1.451.854-1.61 4.545-2.747 3.693-.89-.667 1.657-4.334 2.746-3.693zm4.885-1.8c0 .297.81.537 1.807.537.997 0 1.806-.24 1.806-.537 0-.296-.81-.536-1.806-.536-.998 0-1.807.24-1.807.536zm-10 16.636c0 .68.198 1.231.442 1.231s.442-.551.442-1.23c0-.68-.198-1.232-.442-1.232s-.441.552-.441 1.231z" fill="#e9d500" fill-rule="evenodd"/><path d="M203.436 19.803l2.24-6.486 12.162-6.011-7.664 11.194z" fill="#c3bb0d" fill-rule="evenodd"/><path d="M203.436 19.803l14.402-12.497-7.664 11.194z" fill="#e9d500" fill-rule="evenodd"/><path d="M203.436 19.803l2.24-6.486 12.162-6.011-7.664 11.194z" fill="none" stroke="#998c1d"/></svg>