<svg xmlns="http://www.w3.org/2000/svg" xmlns:xlink="http://www.w3.org/1999/xlink" version="1.0" viewBox="0 0 405.516 523.847" height="760.622" width="689.165" fill-rule="evenodd"><defs><linearGradient id="a"><stop offset="0" stop-color="#008fe0"/><stop offset="1" stop-color="#008fe0" stop-opacity="0"/></linearGradient><linearGradient id="b"><stop offset="0" stop-color="#87ceff"/><stop offset=".221" stop-color="#eac102"/><stop offset="1" stop-color="#eac102"/></linearGradient><linearGradient y2="311.002" x2="203.389" y1="311.002" x1="150.866" gradientTransform="matrix(-.96322 0 0 .96507 397.742 13.368)" gradientUnits="userSpaceOnUse" id="d" xlink:href="#a"/><linearGradient y2="311.222" x2="317.446" y1="311.222" x1="169.881" gradientTransform="matrix(-.96322 0 0 .96507 397.742 13.368)" gradientUnits="userSpaceOnUse" id="c" xlink:href="#b"/></defs><g stroke="#000" stroke-width=".344"><path d="M322.415 81.65l68.444 8.907c14.583 2.03 15.54 7.064-7.735 7.032 14.897 5.307 2.115 7.779-5.626 6.094 12.285 7.914-3.014 6.414-8.672 4.22 9.798 8.36-1.065 6.648-7.501 4.453 7.41 6.738 2.288 7.944-8.673 3.985 7.033 7.152 3.745 7.768-7.97 3.047 5.098 4.877 4.668 10.106-8.203 2.344 2.08 5.385 4.601 12.78-9.142 1.875 3.849 9.367-.828 8.257-9.376 2.813 5.893 8.173-.937 8.846-7.5 2.578 6.225 11.181-1.852 9.041-6.798 3.75 3.987 12.474-2.538 7.631-8.907 3.048 3.234 11.076-2.96 7.374-8.438 2.11 2.554 8.889-4.078 7.305-10.917.71 2.383 7.898-2.947 8.533-8.73 1.399 2.888 9.353-4.042 6.66-7.31 1.875 1.417 9.189-2.011 8.846-7.734 3.985.86 9.564-6.36 3.554-7.544 1.172.197 3.346-2.851 8.375-8.63.469.864 3.077-3.965 8.616-7.318.58l-.353.248-3.112-41.29 18.051-5.601 4.15-9.13-3.527-14.939 6.224-6.017 47.1 7.262 25.747 3.02z" fill="#e6e6e6" stroke-width=".689"/><path d="M223.782 99.346c8.164 1.507 16.52 3.43 19.28-6.774 1.16-6.263-11.397-19.934 5.736-25.23 13.356-4.002 45.562 12.73 77.113 13.245-17.433 7.14-58.59-9.441-74.58-6.135-8.1 1.842-.838 9.66-.929 15.506-.115 13.456-11.106 17.633-23.505 18.966l-3.115-9.578z" fill="#e6e6e6" stroke-width=".689"/><path d="M309.86 83.399l17.42 3.803c9.83 2.248 2.875 4.018-1.32 3.96 6.86 2.38.912 3.868-2.299 3.724 4.049 1.808 2.632 3.61-3.197 2.585 3.074 1.798 3.888 4.335-3.059 2.855 2.057 1.977 1.202 3.45-5.197 2.158 1.575 1.64.512 3.056-5.407 1.309 1.778 2.349-1.276 2.624-7.609 1.17 1.027 1.53 2.95 3.913-7.279 1.889 2.11 3.86-3.163 2.692-5.506 1.835 1.321 3.136-3.865 3.19-7.394 1.855 1.122 3.893-3.258 3.575-6.987 2.274.218 3.9-1.953 3.59-6.013 2.601.536 3.727-.842 5.45-6.73 2.448 1.549 5.635-2.47 4.044-6.562 3.147.471 3.567-1.538 4.523-6.898 1.951.49 5.71-3.999 2.927-5.788 1.793-.6 4.078-3.67 3.74-7.06.45" fill="none" stroke-width=".689"/><path d="M326.042 91.063l-17.504-4.025M323.941 94.836l-17.936-5.38M320.288 97.458l-16.932-6.274M317.29 100.281l-18.194-7.14M312.223 102.469l-17.503-7.37M306.811 103.505l-17.503-7.14M299.441 105.002l-16.352-7.254M291.841 106.73l-14.51-7.14M286.659 108.687l-14.28-6.909M279.29 110.53l-12.668-7.716M261.095 104.657l10.887 8.146M257.755 107.766l8.522 7.6M251.767 110.184l7.715 7.6M246.24 112.372l6.448 8.522M240.943 114.79l4.951 8.177M235.53 116.518l4.491 8.291M327.35 123.542c-7.58-6.264-16.342-12.241-26.408-18.09M336.432 121.667c-8.521-6.321-18.05-11.966-28.63-17.463M344.812 119.408c-8.753-5.864-19.344-11.252-30.15-16.295M352.747 116.348c-9.367-5.556-21.794-10.506-33.563-15.262M361.516 112.409c-12.242-5.533-24.781-10.944-39.058-14.441M318.21 126.559c-6.047-7.5-16.175-13.079-24.596-19.393M310.726 129.171c-6.11-7.261-15.236-13.89-23.776-19.937M303.706 132.833c-5.944-7.891-14.531-15.263-23.345-21.925M294.806 135.88c-5.175-8.184-13.958-15.647-21.93-22.633M286.4 137.982c-5.29-7.62-12.815-14.96-19.72-21.772M368.847 107.929c-12.032-4.77-28.58-9.337-43.343-13.025M377.475 103.698c-15.388-5.13-33.262-9.595-49.922-12.527M383.357 97.618c-16.688-3.483-35.495-6.523-53.508-9.785M275.46 138.697c-3.592-6.368-9.602-13.211-15.68-19.993M266.838 140.25c-3.506-6.121-7.781-13.102-13.45-19.051M259.456 142.104c-2.914-6.133-7.192-12.218-12.184-18.35M251.685 145.833c-2.923-6.935-6.848-14.347-11.43-20.867M244.189 147.237c-2.377-6.757-6.344-13.8-9.965-20.556M398.404 95.458c-8.431-1.944-17.368-2.876-26.397-3.625M387.301 102.709c-6.065-2.103-13.65-3.447-20.845-4.985M379.71 107.92c-4.804-2.45-11.581-4.113-17.786-6.004M371.1 112.6c-4.685-2.966-11.227-4.66-17.333-7.059M362.396 117.092c-4.309-3.214-10.445-5.602-16.106-7.7M353.314 120.609c-4.04-3.555-8.485-5.487-12.802-7.93M333.375 115.964c4.231 2.529 8.641 4.939 12.009 8.044M325.218 117.437c3.952 2.996 8.183 5.713 10.989 9.856M316.72 119.136c3.95 3.053 7.671 6.164 10.424 9.516M310.15 122.082c3.004 3.09 6.137 6.136 8.27 9.516M301.653 124.687c3.657 3.37 6.69 6.865 8.837 10.536M292.93 126.273c3.944 4.068 7.525 8.208 9.97 12.576M284.66 129.106c3.428 3.86 6.776 7.738 8.723 11.895M275.936 130.918c3.378 3.63 6.213 7.397 8.383 11.33M266.76 132.051c2.653 3.475 5.005 6.949 6.457 10.423M259.282 134.317c2.378 3.493 4.455 7.005 6.23 10.196M252.031 136.696c2.34 3.588 3.877 7.175 5.325 10.763M244.327 138.169c2.131 3.739 3.873 7.477 5.098 11.216M237.303 139.642c1.61 3.36 2.96 6.722 3.965 10.083M299.82 87.745l-27.983-9.29M294.046 90.418l-28.684-12.124M285.907 92.19l-28.365-15.1M279.69 94.58l-28.028-16.87M274.43 96.732L250.475 81.19M256.466 102.848l-5.953-4.713M253.117 106.32l-4.837-4.216M248.9 109.546l-3.72-4.217M243.94 111.406l-2.358-3.473M238.978 113.143l-1.86-3.101M234.637 114.135l-1.985-3.1M263.66 101.236l-11.41-7.815M268.87 98.259l-16.745-11.411M235.533 147.715c-2.377-6.757-3.905-13.322-7.526-20.078" fill="none"/></g><g stroke="#000" stroke-width=".344"><path d="M83.688 81.606l-68.444 8.907C.66 92.543-.297 97.577 22.979 97.545c-14.897 5.306-2.115 7.779 5.625 6.094-12.284 7.914 3.014 6.414 8.673 4.22-9.798 8.36 1.065 6.647 7.5 4.453-7.409 6.738-2.287 7.943 8.674 3.984-7.034 7.153-3.745 7.768 7.97 3.048-5.098 4.876-4.668 10.105 8.203 2.344-2.08 5.385-4.601 12.78 9.142 1.875-3.849 9.367.828 8.257 9.375 2.813-5.892 8.173.938 8.845 7.501 2.578-6.225 11.181 1.852 9.04 6.798 3.75-3.988 12.474 2.538 7.631 8.907 3.047-3.234 11.077 2.96 7.374 8.438 2.11-2.555 8.89 4.078 7.306 10.917.71-2.383 7.899 2.947 8.533 8.73 1.4-2.888 9.353 4.041 6.66 7.309 1.875-1.416 9.188 2.012 8.846 7.735 3.985-.86 9.563 6.36 3.554 7.544 1.172-.197 3.346 2.851 8.375 8.63.468-.864 3.078 3.965 8.616 7.317.581l.353.248 3.113-41.29-18.051-5.602-4.15-9.129 3.527-14.939-6.224-6.017-47.1 7.262-25.747 3.02z" fill="#e6e6e6" stroke-width=".689"/><path d="M182.321 99.301c-8.164 1.508-16.52 3.43-19.28-6.774-1.16-6.262 11.397-19.933-5.736-25.23-13.356-4.001-45.562 12.73-77.113 13.246 17.433 7.14 58.59-9.442 74.58-6.135 8.1 1.842.838 9.66.929 15.506.115 13.456 11.106 17.632 23.505 18.966l3.115-9.579z" fill="#e6e6e6" stroke-width=".689"/><path d="M96.243 83.355l-17.42 3.803c-9.83 2.248-2.875 4.017 1.319 3.96-6.86 2.38-.911 3.868 2.3 3.723-4.049 1.809-2.632 3.61 3.196 2.585-3.073 1.8-3.887 4.336 3.06 2.856-2.057 1.976-1.202 3.45 5.197 2.157-1.575 1.642-.512 3.057 5.407 1.31-1.779 2.348 1.275 2.623 7.608 1.17-1.026 1.53-2.95 3.913 7.28 1.889-2.11 3.86 3.163 2.692 5.506 1.835-1.322 3.136 3.865 3.19 7.394 1.855-1.123 3.893 3.258 3.574 6.987 2.273-.218 3.9 1.952 3.591 6.013 2.602-.536 3.727.842 5.45 6.73 2.447-1.549 5.636 2.469 4.045 6.562 3.148-.471 3.567 1.537 4.523 6.898 1.95-.491 5.71 3.998 2.927 5.788 1.793.6 4.078 3.67 3.741 7.06.451" fill="none" stroke-width=".689"/><path d="M80.06 91.019l17.504-4.025M82.161 94.792l17.937-5.38M85.815 97.414l16.931-6.274M88.813 100.237l18.194-7.14M93.88 102.425l17.503-7.37M99.292 103.461l17.503-7.14M106.662 104.958l16.352-7.255M114.262 106.685l14.51-7.14M119.444 108.643l14.279-6.91M126.814 110.486l12.667-7.716M145.008 104.613l-10.887 8.146M148.348 107.722l-8.522 7.6M154.336 110.14l-7.716 7.6M159.863 112.328l-6.449 8.521M165.16 114.746l-4.951 8.176M170.573 116.474l-4.491 8.29M78.752 123.497c7.582-6.263 16.343-12.24 26.41-18.09M69.671 121.622c8.521-6.32 18.05-11.965 28.63-17.462M61.29 119.363c8.754-5.863 19.345-11.252 30.15-16.295M53.356 116.304c9.367-5.557 21.794-10.506 33.563-15.262M44.587 112.364c12.241-5.532 24.781-10.943 39.058-14.44M87.893 126.515c6.047-7.501 16.175-13.08 24.596-19.393M95.377 129.127c6.11-7.262 15.236-13.891 23.776-19.937M102.397 132.789c5.944-7.892 14.53-15.263 23.345-21.925M111.297 135.835c5.175-8.184 13.957-15.647 21.929-22.632M119.704 137.938c5.289-7.62 12.813-14.96 19.718-21.773M37.256 107.885c12.032-4.77 28.58-9.337 43.343-13.025M28.628 103.654c15.387-5.131 33.262-9.596 49.922-12.527M22.745 97.573c16.689-3.482 35.496-6.523 53.51-9.784M130.643 138.652c3.592-6.367 9.602-13.21 15.68-19.992M139.264 140.205c3.507-6.12 7.782-13.1 13.451-19.05M146.647 142.06c2.913-6.133 7.192-12.218 12.184-18.35M154.418 145.789c2.923-6.935 6.847-14.347 11.43-20.868M161.914 147.192c2.377-6.756 6.344-13.8 9.964-20.556M7.699 95.414c8.431-1.944 17.368-2.876 26.397-3.626M18.801 102.664c6.066-2.103 13.65-3.447 20.846-4.984M26.392 107.876c4.805-2.451 11.582-4.113 17.787-6.005M35.002 112.557c4.686-2.968 11.228-4.661 17.334-7.06M43.707 117.048c4.309-3.214 10.445-5.602 16.106-7.7M52.789 120.564c4.04-3.554 8.484-5.487 12.802-7.93M72.728 115.92c-4.231 2.529-8.641 4.938-12.009 8.043M80.885 117.392c-3.952 2.997-8.183 5.714-10.99 9.857M89.382 119.092c-3.95 3.053-7.67 6.164-10.423 9.516M95.953 122.037c-3.004 3.09-6.137 6.137-8.27 9.517M104.45 124.643c-3.657 3.37-6.69 6.864-8.837 10.536M113.173 126.23c-3.944 4.067-7.526 8.207-9.97 12.574M121.444 129.061c-3.429 3.861-6.777 7.739-8.724 11.896M130.167 130.874c-3.379 3.63-6.213 7.397-8.383 11.33M139.344 132.007c-2.654 3.474-5.006 6.949-6.458 10.423M146.821 134.273c-2.378 3.492-4.455 7.005-6.231 10.196M154.072 136.652c-2.34 3.587-3.877 7.175-5.325 10.763M161.776 138.125c-2.132 3.738-3.873 7.477-5.099 11.216M168.8 139.598c-1.61 3.36-2.96 6.721-3.966 10.082M106.283 87.7l27.982-9.29M112.057 90.374l28.684-12.124M120.196 92.145l28.365-15.1M126.412 94.536l28.03-16.87M131.673 96.688l23.955-15.542M149.636 102.804l5.954-4.714M152.985 106.277l4.838-4.218M157.202 109.501l3.721-4.217M162.164 111.362l2.356-3.473M167.125 113.098l1.86-3.1M171.466 114.09l1.985-3.1M142.443 101.191l11.41-7.814M137.233 98.214l16.745-11.41M170.57 147.67c2.377-6.756 3.905-13.32 7.525-20.077" fill="none"/></g><g transform="matrix(-.93937 0 0 .94273 645.717 -261.18)" stroke-width=".603"><path d="M328.62 677.24s20.483-.93 37.001-16.422c-17.11-54.294-13.758-96.123-12.222-155.321l-36.13-39.426s-6.472 39.57-6.472 45.863c-.914 54.81-7.858 114.535 17.823 165.306z" fill="#072357"/><path d="M451.231 757.703s-15.432 33.392-75.224 20.75c-7.58.866-71.759-20.19-102.396-96.237-.95-.518 24.657-1.042 55.557-7.625 0 0 44.668 94.915 102.332 71.737 0 0 12.535 7.726 19.731 11.375z" fill="#da121a"/><path d="M364.25 659.614c1.264.258-5.484 6.155-35.06 15.193.086 4.188 40.154 95.129 102.31 71.521" fill="#fff"/><path d="M268.036 418.962l48.33 51.16" fill="none" stroke="#000"/><path d="M274.467 683.288c31.815-1.2 58.093-9.39 54.744-8.613-20.118-51.732-20.535-114.742-17.967-166.032l13.39 14.296c.093-10.183.154-40.206-.075-50.38 0 0-49.871-51.873-52.956-53.445l-2.666 47.246-10.62-10.104c-8.071 102.258 3.987 187.586 5.517 190.133" fill="#fff"/><path d="M385.832 704.35l4.4 10.562-9.818 14.001 17.21-1.423 6.262 13.958 4.784-11.798s-12.09-10.383-22.838-25.3z" fill="#da121a"/><path d="M271.357 420.146l-2.12 47.154-11.123-10.057c-2.731 39.478-2.904 78.956-2.12 118.434 2.693 44.129 5.826 88.244 29.94 131.682 19.346 29.422 42.509 54.456 75.916 67.708 43.103 14.2 79.342 2.433 89.415-17.367" fill="none" stroke="#000" stroke-width=".754"/><path d="M256.258 457.55l94.594 99.598-.06-8.198-89.548-94.772s.333 3.654-4.986 3.372zM353.025 506.246l-84.363-86.67s4.853.305 4.496-3.797l79.834 82.84.033 7.627z" fill="#2b2200" stroke="#000"/><path d="M303.606 606.388l-13.507-2.044-9.15 10.024-2.447-13.535-12.43-5.82 11.986-6.33 1.465-13.617 9.862 9.635 13.336-2.6-5.896 12.27z" fill="#072357"/><path d="M254.793 457.322l4.748-4.966-7.122-15.372-31.336-18.683 18.28 31.69z" fill="#c8c8c8" stroke="#000" stroke-width=".739"/><path d="M221.558 418.774l35.372 35.946" fill="none" stroke="#000" stroke-width=".37"/><path d="M252.66 451.867l-8.044 4.297 9.084 8.55 4.287-7.422z" fill="#072357" stroke="#000" stroke-width=".739"/><path d="M260.863 454.704l8.02-4.345-9.136-8.495-4.242 7.448z" fill="#da121a" stroke="#000" stroke-width=".739"/><circle r="5.152" cy="182.144" cx="42.622" transform="matrix(.8657 0 0 .86537 219.772 295.627)" fill="#fff" stroke="#000" stroke-width=".565" stroke-linecap="round"/><path d="M266.775 419.615l4.748-4.967-7.122-15.371-31.337-18.683 18.28 31.69z" fill="#c8c8c8" stroke="#000" stroke-width=".739"/><path d="M233.54 381.067l35.371 35.946" fill="none" stroke="#000" stroke-width=".37"/><path d="M264.642 414.16l-8.045 4.297 9.084 8.55 4.287-7.423z" fill="#072357" stroke="#000" stroke-width=".739"/><path d="M272.845 416.997l8.019-4.345-9.136-8.495-4.242 7.448z" fill="#da121a" stroke="#000" stroke-width=".739"/><circle r="5.152" cy="182.144" cx="42.622" transform="matrix(.8657 0 0 .86537 231.754 257.92)" fill="#fff" stroke="#000" stroke-width=".565" stroke-linecap="round"/></g><path d="M169.177 519.232c-8.005-26.584-12.28-62.536-12.864-89.795 2.575 17.77 9.651 43.262 21.612 56.347" fill="none" stroke="#000" stroke-width=".221" transform="matrix(-.96322 0 0 .96507 551.865 -238.86)"/><path transform="matrix(-.96322 0 0 .96507 397.592 13.185)" d="M21.106 179.333c-7.852-15.502-11.61-31.412-12.607-47.6.195 8.383 6.763 30.562 12.355 36.15M50.438 431.736c41.015 40.426 80.431 55.284 125.558 24.7M101.896 453.349c21.406 9.648 43.78 12.604 67.925-1.03" fill="none" stroke="#000" stroke-width=".221"/><path d="M185.096 474.095c2.887 12.877 9.254 31.72 19.106 43.961M197.222 483.21c4.24 12.498 12.573 30.557 23.671 41.682M208.874 493.08c6.562 11.448 18.213 27.568 31.243 36.352M164.904 581.39c.004 33.31 26.367 90.996 77.487 124.582M210.275 584.708c5.45 9.112 20.65 31.753 38.333 43.392M209.657 560.32c4.655 13.612 21.86 40.345 40.018 52.84M204.318 631.141c6.769 8.18 25.228 28.254 44.471 37.076" fill="none" stroke="#000" stroke-width=".221" transform="matrix(-.96322 0 0 .96507 551.865 -238.86)"/><g transform="matrix(.93937 0 0 .94273 -240.384 -260.997)" stroke-width=".603"><path d="M328.62 677.24s20.483-.93 37.001-16.422c-17.11-54.294-13.758-96.123-12.222-155.321l-36.13-39.426s-6.472 39.57-6.472 45.863c-.914 54.81-7.858 114.535 17.823 165.306z" fill="#072357"/><path d="M451.231 757.703s-14.087 33.32-75.224 20.75c-10.607-.028-71.759-20.19-102.396-96.237-.95-.518 24.657-1.042 55.557-7.625 0 0 44.668 94.915 102.332 71.737 0 0 12.535 7.726 19.731 11.375z" fill="#da121a"/><path d="M364.25 659.614c1.264.258-5.484 6.155-35.06 15.193.086 4.188 40.154 95.129 102.31 71.521" fill="#fff"/><path d="M268.036 418.962l48.33 51.16" fill="none" stroke="#000"/><path d="M274.467 683.288c31.815-1.2 58.093-9.39 54.744-8.613-20.118-51.732-20.535-114.742-17.967-166.032l13.39 14.296c.093-10.183.154-40.206-.075-50.38 0 0-49.871-51.873-52.956-53.445l-2.666 47.246-10.62-10.104c-8.071 102.258 3.987 187.586 5.517 190.133" fill="#fff"/><path d="M385.832 704.35l4.4 10.562-9.818 14.001 17.21-1.423 6.262 13.958 4.784-11.798s-12.09-10.383-22.838-25.3z" fill="#da121a"/><path d="M271.357 420.146l-2.12 47.154-11.123-10.057c-2.731 39.478-2.904 78.956-2.12 118.434 2.693 44.129 5.826 88.244 29.94 131.682 19.346 29.422 42.509 54.456 75.916 67.708 43.103 14.2 79.342 2.433 89.415-17.367" fill="none" stroke="#000" stroke-width=".754"/><path d="M256.258 457.55l94.594 99.598-.06-8.198-89.548-94.772s.333 3.654-4.986 3.372zM353.025 506.246l-84.363-86.67s4.853.305 4.496-3.797l79.834 82.84.033 7.627z" fill="#2b2200" stroke="#000"/><path d="M303.606 606.388l-13.507-2.044-9.15 10.024-2.447-13.535-12.43-5.82 11.986-6.33 1.465-13.617 9.862 9.635 13.336-2.6-5.896 12.27z" fill="#072357"/><path d="M254.793 457.322l4.748-4.966-7.122-15.372-31.336-18.683 18.28 31.69z" fill="#c8c8c8" stroke="#000" stroke-width=".739"/><path d="M221.558 418.774l35.372 35.946" fill="none" stroke="#000" stroke-width=".37"/><path d="M252.66 451.867l-8.044 4.297 9.084 8.55 4.287-7.422z" fill="#072357" stroke="#000" stroke-width=".739"/><path d="M260.863 454.704l8.02-4.345-9.136-8.495-4.242 7.448z" fill="#da121a" stroke="#000" stroke-width=".739"/><circle r="5.152" cy="182.144" cx="42.622" transform="matrix(.8657 0 0 .86537 219.772 295.627)" fill="#fff" stroke="#000" stroke-width=".427" stroke-linecap="round"/><path d="M266.775 419.615l4.748-4.967-7.122-15.371-31.337-18.683 18.28 31.69z" fill="#c8c8c8" stroke="#000" stroke-width=".739"/><path d="M233.54 381.067l35.371 35.946" fill="none" stroke="#000" stroke-width=".37"/><path d="M264.642 414.16l-8.045 4.297 9.084 8.55 4.287-7.423z" fill="#072357" stroke="#000" stroke-width=".739"/><path d="M272.845 416.997l8.019-4.345-9.136-8.495-4.242 7.448z" fill="#da121a" stroke="#000" stroke-width=".739"/><circle r="5.152" cy="182.144" cx="42.622" transform="matrix(.8657 0 0 .86537 231.754 257.92)" fill="#fff" stroke="#000" stroke-width=".427" stroke-linecap="round"/></g><path d="M169.177 519.232c-8.005-26.584-12.28-62.536-12.864-89.795 2.575 17.77 9.651 43.262 21.612 56.347" fill="none" stroke="#000" stroke-width=".221" transform="matrix(.96322 0 0 .96507 -146.531 -238.678)"/><path transform="matrix(.96322 0 0 .96507 7.742 13.368)" d="M21.106 179.333c-7.852-15.502-11.61-31.412-12.607-47.6.195 8.383 6.763 30.562 12.355 36.15M50.438 431.736c41.015 40.426 80.431 55.284 125.558 24.7M101.896 453.349c21.406 9.648 43.78 12.604 67.925-1.03" fill="none" stroke="#000" stroke-width=".221"/><path d="M185.096 474.095c2.887 12.877 9.254 31.72 19.106 43.961M197.222 483.21c4.24 12.498 12.573 30.557 23.671 41.682M208.874 493.08c6.562 11.448 18.213 27.568 31.243 36.352M164.904 581.39c.004 33.31 26.367 90.996 77.487 124.582M210.275 584.708c5.45 9.112 20.65 31.753 38.333 43.392M209.657 560.32c4.655 13.612 21.86 40.345 40.018 52.84M204.318 631.141c6.769 8.18 25.228 28.254 44.471 37.076" fill="none" stroke="#000" stroke-width=".221" transform="matrix(.96322 0 0 .96507 -146.531 -238.678)"/><path d="M183.023 97.16c-13.396 19.135-9.884 37.781-5.741 53.878 5.016 18.388-12.274 41.415-7.127 42.86l65.375.88c-1.158-13.672-8.649-26.277-7.734-37.331 1.268-22.61 10.702-44.933-6.966-59.396" fill="#e6e6e6" stroke="#000" stroke-width=".689"/><path d="M225.139 124.328s5.27-6.452-1.475-14.016" fill="none" stroke="#000" stroke-width=".344"/><g stroke="#000" stroke-width=".782"><path d="M222.208 56.705c-4.583-6.137-9.38-3.874-12.489-5.036-2.196-.869-4.212-1.58-5.057 0-3.29-.13-5.158.293-4.648 1.64-3.934-.357-3.942.536-3.28 1.64-3.244.727-5.02 1.964-3.418 4.375-3.768 3.123-1.6 4.264-.41 4.784-3.494 4.843-1.088 4.954-.446 4.935-2.024 1.486-3.128 3.239-1.878 4.36-1.002 2.07-3.694 4.476-1.367 5.879-.685 1.07-1.824 2.255-1.23 3.007-.657 1.657-2.243 3.646-.684 4.51-1.108 1.14-2.186 2.114-1.503 3.555-.563 1.366-2.099 2.908-.957 3.964-1.393 2.195-4.662 4.676-3.965 6.562 1.193 1.23 2.229-.17 3.58-.675.658 2.573 3.215 1.942 5.853.401.225 3.715 4.164 2.58 5.954 1.304.52 1.017 2.263 4.042 6.622.2 2.672 3.596 4.394 2.41 6.713 0 1.059 2.013 5.44 2.978 5.98-.477 1.95 1.254 5.675 3.078 5.742-1.163 3.024 2.076 5.753 3.655 5.076-1.094l-1.913-5.194c1.732.32.332-2.493-1.914-6.152 2.298.203-.301-4.493-1.777-8.065 2.156.246 1.166-2.34-.274-5.331 1.104-.253 2.233-.456.137-7.108l1.553-10.821z" fill="#e6e6e6" stroke-width=".68899825"/><path d="M190.739 83.16c-2.618 6.07 4.685 4.861 5.416 2.454" fill="none" stroke-width=".34405461"/><path d="M218.131 58.694c-.75-.783-1.605-1.917-3.449-1.334-2.952 1.202-4.738.77-6.574.685" fill="none" stroke-width=".6952214600000001"/><path d="M214.918 59.78a2.273 1.826 0 01-2.273 1.826 2.273 1.826 0 01-2.274-1.827 2.273 1.826 0 012.274-1.826 2.273 1.826 0 012.273 1.826z" opacity=".99" stroke="none"/><path d="M197.96 95.434c-1.095 6.52 5.709 3.604 5.845 1.092M190.195 93.445c-1.429 6.455 5.516 3.893 5.78 1.391M214.558 88.819c1.733 6.38-5.326 4.15-5.71 1.663M221.398 93.87c2.618 6.07-4.685 4.862-5.416 2.454M190.663 73.38c1.188.49 1.917.577 2.765.053M191.98 68.93c.732.048 1.758.106 2.413-.472M189.288 79.231c.456.127 1.323.602 2.426.162M188.028 82.104c.394.683 1.15.87 2.004.784M185.019 94.328c1.254.811 2.087.897 2.953.485M185.962 90.291c.276.542 1.259.915 2.467.59M184.537 100.19c-.037-.878-.048-1.69.275-2.514M219.866 86.407c.634.594.968 1.726 2.807 1.625M213.667 95.754c.476 6.593-6.023 3.05-5.922.536M200.024 90.123c-.022 6.61 5.506 2.628 5.945.127M192.133 88.885c-1.08 6.523 5.717 3.591 5.848 1.079M221.53 88.123c2.025 5.29-3.623 4.236-4.188 2.139M198.293 84.01c-1.768 6.371 5.303 4.18 5.7 1.695M217.557 83.182c2.035 6.29-5.122 4.4-5.623 1.934M217.498 78.73c1.354 5.18-4.346 3.318-4.637 1.301M194.446 78.874c-1.353 5.18 4.346 3.319 4.637 1.302M195.681 73.171c-1.353 5.181 4.347 3.32 4.638 1.303M210.172 78.875c.446 5.336-4.85 2.526-4.791.489M201.054 63.998c-4.965.561-2.633-3.449-.725-3.495M202.573 74.507c-1.116 4.87 3.131 3.004 3.392 1.113M201.29 59.449c-4.276-2.586.02-4.34 1.558-3.211M202.239 69.18c-4.67 1.775-3.406-2.688-1.57-3.206M210.01 83.737c-.742 5.303-5.288 1.393-4.78-.58M221.469 92.48c.634.592.968 1.725 2.807 1.624M218.114 73.03c.633.593.968 1.725 2.806 1.625M218.428 78.325c.634.593.968 1.725 2.807 1.624" fill="none" stroke-width=".34405461"/><path d="M194.869 56.347c-2.69-.463-8.51 1.662-9.973 5.92 2.823-1.534 7.903-2.667 9.142-1.951M192.586 61.126c-3.651.92-6.705 4.419-8.914 7.685 3.591-2.139 6.984-3.646 10.44-3.085M202.118 52.469c-3.385-1.216-10.552-1.99-15.505 1.288 3.567.291 8.936.679 10.225 2.712" fill="#e6e6e6" stroke-width=".6952214600000001"/><path d="M217.299 58.113c-2.806 3.451-5.995 5.563-8.704.245" fill="none" stroke-width=".34405461"/><path d="M214.573 59.477a1.092 1.024 0 01-1.092 1.024 1.092 1.024 0 01-1.092-1.024 1.092 1.024 0 011.092-1.023 1.092 1.024 0 011.092 1.023z" opacity=".99" fill="#fff" stroke="none"/><path d="M187.211 86.61c.458.34 1.015.457 2.178.147" fill="none" stroke-width=".34405461"/></g><path d="M210.967 171.097s1.535 8.63 3.263 3.489c0 0 1.33 6.232 2.12 2.837.789-3.397 3.229 10.142 5.556 2.984 0 0 1.279 9.19 5.573 3.177 0 0 1.868 3.868 3.864.747" fill="none" stroke="#000" stroke-width=".344"/><path d="M215.609 64.652c2.594.108 3.878 1.468 5.127 2.92 3.326-.923 7.225-2.867 10.55-2.35-.129-7.142-11.031-1.786-15.677-.57z" fill="#e6e6e6" stroke="#000" stroke-width=".689"/><path d="M180.252 124.328s-5.271-6.452 1.474-14.016M179.288 131.477s-2.242 6.414 3.733 9.915" fill="none" stroke="#000" stroke-width=".344"/><path d="M215.841 64.626c5.902.275 17.264-4.787 15.262 3.473 5.468-10.069-3.845-11.28-8.783-11.354-.739 2.865-2.92 5.548-6.479 7.88z" fill="#e6e6e6" stroke="#000" stroke-width=".689"/><g stroke="#000"><g stroke-width=".531"><path d="M386.514 720.277c-4.597 11.673-7.293 26.386-14.291 35.201-2.955 3.33 4.814 8.587 18.097 8.324 0 0 4.267 3.346 7.568-37.22 0 0-7.72-3.128-11.374-5.527zM420.031 720.277c4.597 11.673 7.294 26.386 14.292 35.201 2.954 3.33-4.814 8.587-18.097 8.324 0 0-4.268 3.346-7.569-37.22 0 0 7.72-3.128 11.374-5.527z" fill="#da121a" transform="matrix(1.3491 0 0 1.32225 -340.962 -499.976)"/><path d="M396.238 725.715l-10.441 42.488c-2.012 7.32 35.889 7.088 33.93-.313l-10.46-42.316" fill="#fff" transform="matrix(1.3491 0 0 1.32225 -340.962 -499.976)"/></g><path transform="matrix(1.03468 0 0 1.12382 -6.752 -58.797)" d="M182.318 461.626c-5.085 11.525-7.39 23.977-15.282 34.567M180.499 478c-2.858 7.398-3.485 14.797-9.825 22.196M196.509 473.633l-5.458 35.295" fill="none" stroke-width=".221"/><path d="M359.093 759.36l-1.091 18.192" fill="none" stroke-width=".221" transform="matrix(1.03468 0 0 1.12382 -172.47 -352.303)"/><path transform="matrix(1.03468 0 0 1.12382 -6.752 -58.797)" d="M206.697 488.188l1.455 20.013M208.516 471.086l6.186 29.11" fill="none" stroke-width=".221"/><path d="M383.235 724.249c5.085 11.525 7.39 23.977 15.282 34.567M385.054 740.623c2.857 7.399 3.485 14.797 9.824 22.196" fill="none" stroke-width=".221" transform="matrix(1.03468 0 0 1.12382 -172.47 -352.303)"/></g><g fill="#eac102"><path d="M294.447 17.283l-5.094 8.555-9.692-2.182 6.595 7.5-5.05 8.516 9.17-3.92 6.572 7.445-.928-9.923 9.11-3.914-9.743-2.213-.94-9.864zM222.245 8.654l-3.115 9.463-9.933-.011 8.064 5.879-3.08 9.415 8.1-5.83 8.028 5.83-3.058-9.482 8.042-5.812-9.99-.03-3.058-9.422zM258.633 10.92l-4.124 9.067-9.872-1.096 7.379 6.725-4.083 9.022 8.684-4.91 7.348 6.672-2.012-9.76 8.625-4.899-9.927-1.12-2.018-9.7zM363.118 41.393l-6.825 7.24-8.988-4.243 4.814 8.76-6.772 7.21 9.8-1.826 4.802 8.7 1.243-9.889 9.74-1.834-9.031-4.284 1.217-9.834zM329.536 27.374l-5.988 7.952-9.399-3.222 5.747 8.172-5.938 7.917 9.54-2.9 5.728 8.115.149-9.965 9.479-2.902-9.448-3.258.13-9.909z"/></g><path d="M202.566 463.673s49.74-15.185 82.965-65.244c0 0 26.579-32.179 31.692-100.558l.203-108.894s-60.861 27.565-114.875-11.097c0 0-46.872 37.619-114.848 11.097V291.48S83.31 418.527 202.566 463.673z" fill="#eac102" stroke="#000" stroke-width="1.064"/><path d="M313.562 276.196H204.364V183.22c-1.156.52 42.27 33.084 109.198 11.25v81.726z" fill="#da121a" stroke="#000" stroke-width=".568"/><path d="M91.812 276.196h109.344V183.22c1.094.458-45.755 33.165-109.344 11.25v81.726z" fill="#fff" stroke="#000" stroke-width=".568"/><path d="M201.053 458.95V350.955l-99.552-.249c-.915.286 20.753 80.145 99.552 108.244z" fill="#072357" stroke="#000" stroke-width=".568"/><g fill="#eac102" stroke="#000" stroke-width=".337"><g transform="matrix(1.07325 -1.3131 1.23265 1.19798 -83.847 377.706)" stroke-width=".204"><ellipse ry=".899" rx="1.477" cy="87.956" cx="88.844" class="fil0 str45" stroke-linejoin="round"/><ellipse ry=".942" rx="1.548" cy="87.679" cx="89.456" class="fil0 str45" stroke-linejoin="round"/><ellipse ry="1.013" rx="1.665" cy="87.557" cx="90.374" class="fil0 str45" stroke-linejoin="round"/><ellipse ry="1.068" rx="1.755" cy="87.538" cx="91.196" class="fil0 str45" stroke-linejoin="round"/><ellipse ry="1.124" rx="1.847" cy="87.612" cx="92.098" class="fil0 str45" stroke-linejoin="round"/><ellipse ry="1.236" rx="2.032" cy="88.035" cx="93.024" class="fil0 str45" stroke-linejoin="round"/><ellipse ry="1.343" rx="2.208" cy="88.43" cx="93.927" class="fil0 str45" stroke-linejoin="round"/><ellipse ry="1.469" rx="2.414" cy="89.076" cx="94.674" class="fil0 str45" stroke-linejoin="round"/><ellipse ry="1.547" rx="2.543" cy="89.753" cx="95.323" class="fil0 str45" stroke-linejoin="round"/><ellipse ry="1.609" rx="2.643" cy="90.53" cx="95.904" class="fil0 str45" stroke-linejoin="round"/><ellipse ry="1.699" rx="2.792" cy="91.311" cx="96.397" class="fil0 str45" stroke-linejoin="round"/><ellipse ry="1.759" rx="2.891" cy="92.165" cx="96.734" class="fil0 str45" stroke-linejoin="round"/><ellipse ry="1.865" rx="3.065" cy="93.097" cx="97.071" class="fil0 str45" stroke-linejoin="round"/><ellipse ry="1.987" rx="3.266" cy="94.109" cx="97.206" class="fil0 str45" stroke-linejoin="round"/><ellipse ry="2.16" rx="3.55" cy="95.185" cx="97.409" class="fil0 str45" stroke-linejoin="round"/><ellipse ry="2.265" rx="3.722" cy="96.122" cx="97.41" class="fil0 str45" stroke-linejoin="round"/><ellipse ry="2.48" rx="4.076" cy="97.305" cx="97.25" class="fil0 str45" stroke-linejoin="round"/><ellipse ry="2.683" rx="4.41" cy="98.468" cx="96.885" class="fil0 str45" stroke-linejoin="round"/><ellipse ry="2.882" rx="4.736" cy="99.572" cx="96.386" class="fil0 str45" stroke-linejoin="round"/><ellipse ry="3.185" rx="5.234" cy="100.931" cx="95.863" class="fil0 str45" stroke-linejoin="round"/><ellipse ry="3.395" rx="5.58" cy="102.294" cx="95.298" class="fil0 str45" stroke-linejoin="round"/><ellipse ry="3.6" rx="5.917" cy="103.689" cx="94.761" class="fil0 str45" stroke-linejoin="round"/><path d="M94.18 101.439c-3.54 0-6.412 1.747-6.412 3.901 0 2.155 2.872 3.902 6.412 3.902s6.412-1.747 6.412-3.902c0-2.154-2.871-3.901-6.412-3.901z" class="fil0 str45" stroke-linejoin="round"/><ellipse ry="4.331" rx="7.118" cy="107.124" cx="93.549" class="fil0 str45" stroke-linejoin="round"/><ellipse ry="4.657" rx="7.653" cy="108.836" cx="92.978" class="fil0 str45" stroke-linejoin="round"/><path d="M92.756 105.454c-4.638 0-8.399 2.289-8.399 5.11 0 2.823 3.762 5.111 8.399 5.111 4.638 0 8.4-2.288 8.4-5.11 0-2.822-3.761-5.111-8.4-5.111z" class="fil0 str45" stroke-linejoin="round"/><path d="M92.609 106.87c-4.957 0-8.978 2.447-8.978 5.463s4.02 5.463 8.978 5.463 8.979-2.447 8.979-5.463-4.021-5.463-8.98-5.463h0z" class="fil0 str45" stroke-linejoin="round"/><path d="M92.908 108.361c-5.411 0-9.8 2.67-9.8 5.963s4.389 5.964 9.8 5.964c5.412 0 9.802-2.67 9.802-5.964 0-3.292-4.39-5.963-9.802-5.963z" class="fil0 str45" stroke-linejoin="round"/><path d="M93.265 110.087c-5.832 0-10.562 2.878-10.562 6.426 0 3.55 4.73 6.428 10.562 6.428 5.833 0 10.562-2.879 10.562-6.428 0-3.548-4.73-6.426-10.562-6.426z" class="fil0 str45" stroke-linejoin="round"/><path d="M93.956 112.058c-6.284 0-11.38 3.101-11.38 6.925 0 3.823 5.096 6.925 11.38 6.925 6.285 0 11.382-3.102 11.382-6.925 0-3.824-5.097-6.925-11.382-6.925h0z" class="fil0 str45" stroke-linejoin="round"/><path d="M94.5 113.944c-6.496.08-11.805 3.365-11.854 7.333-.05 3.969 5.18 7.122 11.677 7.042 6.498-.08 11.807-3.365 11.856-7.334.05-3.968-5.18-7.122-11.678-7.041h0z" class="fil0 str45" stroke-linejoin="round"/><path d="M94.48 115.578c-5.452.067-9.905 2.61-9.943 5.675-.038 3.067 4.354 5.5 9.806 5.432 5.454-.068 9.907-2.61 9.945-5.677.038-3.066-4.354-5.498-9.808-5.43z" class="fil10 str45" fill="#8f5a1b" stroke-linejoin="round"/></g><path d="M438.669 707.84a3.454 3.454 0 00-2.211 1.104 3.452 3.452 0 00-.902 1.957 3.594 3.594 0 00.39 2.082 3.59 3.59 0 001.86 1.603c.695.278 1.49.283 2.207.084a3.64 3.64 0 001.794-1.251 3.34 3.34 0 00.704-2.039c.03-.713-.195-1.423-.584-2.017-.505-.727-1.272-1.277-2.143-1.46a3.5 3.5 0 00-1.115-.063z" stroke-linecap="round" transform="matrix(1.02082 -.1384 .13862 1.0225 -374.877 -260.185)"/><path transform="matrix(.40783 -.0553 .05538 .4085 172.887 284.217)" d="M-21.613 280.449a8.748 8.748 0 01-8.747 8.747 8.748 8.748 0 01-8.748-8.747 8.748 8.748 0 018.748-8.748 8.748 8.748 0 018.747 8.748z" stroke-width=".844" stroke-linecap="round"/><path transform="matrix(.40783 -.0553 .05538 .4085 161.453 289.652)" d="M-21.613 280.449a8.748 8.748 0 01-8.747 8.747 8.748 8.748 0 01-8.748-8.747 8.748 8.748 0 018.748-8.748 8.748 8.748 0 018.747 8.748z" stroke-width=".844" stroke-linecap="round"/><path transform="matrix(.40783 -.0553 .05538 .4085 160.4 295.69)" d="M-21.613 280.449a8.748 8.748 0 01-8.747 8.747 8.748 8.748 0 01-8.748-8.747 8.748 8.748 0 018.748-8.748 8.748 8.748 0 018.747 8.748z" stroke-width=".844" stroke-linecap="round"/><path transform="matrix(.40783 -.0553 .05538 .4085 169.853 297.355)" d="M-21.613 280.449a8.748 8.748 0 01-8.747 8.747 8.748 8.748 0 01-8.748-8.747 8.748 8.748 0 018.748-8.748 8.748 8.748 0 018.747 8.748z" stroke-width=".844" stroke-linecap="round"/><path transform="matrix(.40783 -.0553 .05538 .4085 165.777 291.946)" d="M-21.613 280.449a8.748 8.748 0 01-8.747 8.747 8.748 8.748 0 01-8.748-8.747 8.748 8.748 0 018.748-8.748 8.748 8.748 0 018.747 8.748z" stroke-width=".844" stroke-linecap="round"/><path transform="matrix(.40783 -.0553 .05538 .4085 174.608 290.012)" d="M-21.613 280.449a8.748 8.748 0 01-8.747 8.747 8.748 8.748 0 01-8.748-8.747 8.748 8.748 0 018.748-8.748 8.748 8.748 0 018.747 8.748z" stroke-width=".844" stroke-linecap="round"/><path transform="matrix(.40783 -.0553 .05538 .4085 173.788 294.812)" d="M-21.613 280.449a8.748 8.748 0 01-8.747 8.747 8.748 8.748 0 01-8.748-8.747 8.748 8.748 0 018.748-8.748 8.748 8.748 0 018.747 8.748z" stroke-width=".844" stroke-linecap="round"/><path transform="matrix(.40783 -.0553 .05538 .4085 179.743 287.44)" d="M-21.613 280.449a8.748 8.748 0 01-8.747 8.747 8.748 8.748 0 01-8.748-8.747 8.748 8.748 0 018.748-8.748 8.748 8.748 0 018.747 8.748z" stroke-width=".844" stroke-linecap="round"/><path transform="matrix(.40783 -.0553 .05538 .4085 161.844 280.216)" d="M-21.613 280.449a8.748 8.748 0 01-8.747 8.747 8.748 8.748 0 01-8.748-8.747 8.748 8.748 0 018.748-8.748 8.748 8.748 0 018.747 8.748z" stroke-width=".844" stroke-linecap="round"/><path transform="matrix(.40783 -.0553 .05538 .4085 189.352 299.132)" d="M-21.613 280.449a8.748 8.748 0 01-8.747 8.747 8.748 8.748 0 01-8.748-8.747 8.748 8.748 0 018.748-8.748 8.748 8.748 0 018.747 8.748z" stroke-width=".844" stroke-linecap="round"/><path transform="matrix(.40783 -.0553 .05538 .4085 183.65 302.45)" d="M-21.613 280.449a8.748 8.748 0 01-8.747 8.747 8.748 8.748 0 01-8.748-8.747 8.748 8.748 0 018.748-8.748 8.748 8.748 0 018.747 8.748z" stroke-width=".844" stroke-linecap="round"/><path transform="matrix(.40783 -.0553 .05538 .4085 179.539 300.73)" d="M-21.613 280.449a8.748 8.748 0 01-8.747 8.747 8.748 8.748 0 01-8.748-8.747 8.748 8.748 0 018.748-8.748 8.748 8.748 0 018.747 8.748z" stroke-width=".844" stroke-linecap="round"/><path transform="matrix(.40783 -.0553 .05538 .4085 184.466 295.641)" d="M-21.613 280.449a8.748 8.748 0 01-8.747 8.747 8.748 8.748 0 01-8.748-8.747 8.748 8.748 0 018.748-8.748 8.748 8.748 0 018.747 8.748z" stroke-width=".844" stroke-linecap="round"/><path transform="matrix(.40783 -.0553 .05538 .4085 161.458 302.512)" d="M-21.613 280.449a8.748 8.748 0 01-8.747 8.747 8.748 8.748 0 01-8.748-8.747 8.748 8.748 0 018.748-8.748 8.748 8.748 0 018.747 8.748z" stroke-width=".844" stroke-linecap="round"/><path transform="matrix(.40783 -.0553 .05538 .4085 165.74 298.582)" d="M-21.613 280.449a8.748 8.748 0 01-8.747 8.747 8.748 8.748 0 01-8.748-8.747 8.748 8.748 0 018.748-8.748 8.748 8.748 0 018.747 8.748z" stroke-width=".844" stroke-linecap="round"/><path transform="matrix(.40783 -.0553 .05538 .4085 175.537 304.755)" d="M-21.613 280.449a8.748 8.748 0 01-8.747 8.747 8.748 8.748 0 01-8.748-8.747 8.748 8.748 0 018.748-8.748 8.748 8.748 0 018.747 8.748z" stroke-width=".844" stroke-linecap="round"/><path transform="matrix(.40783 -.0553 .05538 .4085 157.624 284.152)" d="M-21.613 280.449a8.748 8.748 0 01-8.747 8.747 8.748 8.748 0 01-8.748-8.747 8.748 8.748 0 018.748-8.748 8.748 8.748 0 018.747 8.748z" stroke-width=".844" stroke-linecap="round"/><path transform="matrix(.40783 -.0553 .05538 .4085 155.239 291.164)" d="M-21.613 280.449a8.748 8.748 0 01-8.747 8.747 8.748 8.748 0 01-8.748-8.747 8.748 8.748 0 018.748-8.748 8.748 8.748 0 018.747 8.748z" stroke-width=".844" stroke-linecap="round"/><path transform="matrix(.40783 -.0553 .05538 .4085 165.413 284.438)" d="M-21.613 280.449a8.748 8.748 0 01-8.747 8.747 8.748 8.748 0 01-8.748-8.747 8.748 8.748 0 018.748-8.748 8.748 8.748 0 018.747 8.748z" stroke-width=".844" stroke-linecap="round"/><path transform="matrix(.40783 -.0553 .05538 .4085 181.732 291.257)" d="M-21.613 280.449a8.748 8.748 0 01-8.747 8.747 8.748 8.748 0 01-8.748-8.747 8.748 8.748 0 018.748-8.748 8.748 8.748 0 018.747 8.748z" stroke-width=".844" stroke-linecap="round"/><path transform="matrix(.40783 -.0553 .05538 .4085 178.228 296.487)" d="M-21.613 280.449a8.748 8.748 0 01-8.747 8.747 8.748 8.748 0 01-8.748-8.747 8.748 8.748 0 018.748-8.748 8.748 8.748 0 018.747 8.748z" stroke-width=".844" stroke-linecap="round"/><path transform="matrix(.40783 -.0553 .05538 .4085 167.211 304.009)" d="M-21.613 280.449a8.748 8.748 0 01-8.747 8.747 8.748 8.748 0 01-8.748-8.747 8.748 8.748 0 018.748-8.748 8.748 8.748 0 018.747 8.748z" stroke-width=".844" stroke-linecap="round"/><path transform="matrix(.40783 -.0553 .05538 .4085 173.665 301.794)" d="M-21.613 280.449a8.748 8.748 0 01-8.747 8.747 8.748 8.748 0 01-8.748-8.747 8.748 8.748 0 018.748-8.748 8.748 8.748 0 018.747 8.748z" stroke-width=".844" stroke-linecap="round"/><path transform="matrix(.40783 -.0553 .05538 .4085 169.553 280.386)" d="M-21.613 280.449a8.748 8.748 0 01-8.747 8.747 8.748 8.748 0 01-8.748-8.747 8.748 8.748 0 018.748-8.748 8.748 8.748 0 018.747 8.748z" stroke-width=".844" stroke-linecap="round"/></g><path d="M204.488 458.95V350.955l99.552-.249c.915.286-20.753 80.145-99.552 108.244z" fill="#fff" stroke="#000" stroke-width=".568"/><g stroke="#000"><g stroke-width=".325"><path d="M-194.034 449.425c4.465-.441 5.752-3.607 6.193-7.497.624-10.243 4.953-11.751 9.56-12.603 6.433-.86 16.54-6.654 18.362-4.454 1.871 2.785-3.857 4.65-5.136 5.212 1.587-.008 4.448-.759 4.593 1.632-.197 2.891-3.625 2.964-6.266 3.547 1.783.355 3.208.695 3.006 2.755-.443 2.783-3.293 1.515-5.686 1.924 1.059.329 2.66.48 2.427 2.965-.692 2.988-4.94 1.64-6.007 1.43 1.857.672 3.724 2.083 2.856 3.785-1.608 2.355-4.907.63-5.882.038 1.712 1.269 2.729 2.648 1.754 4.2-1.09 1.287-2.995.902-4.6.145 1.016 1.086 1.577 2.417.906 3.44-.687.96-2.968.857-5.387-1.308.609.787 1.235 3.641-.222 4.237-2.527.658-3.196-1.283-4.06-2.169.028 1.193.016 3.615-1.413 3.694-1.294-.065-1.814-1.402-2.282-2.825-.228 1.023-.292 2.266-1.63 2.173-.672.003-1.225-1.085-1.194-2.282-.125-2.622-1.902-7.679.108-8.04z" fill="#eac102" transform="matrix(-.95478 0 0 1.19736 54.436 -137.848)"/><path d="M-194.9 451.678c4.364.018 8.922-1.192 10.117-7.188.565-6.574 2.606-10.58 6.55-11.277 5.658-1.06 9.359-2.12 13.325-3.179" fill="none" transform="matrix(-.95478 0 0 1.19736 54.436 -137.848)"/><path d="M-193.793 452.227c.09 2.346 1.358 4.088 2.922 3.725 2.669-.744 1.467-3.647 1.107-4.675.7 2.345 2.485 3.743 3.938 3.06 2.453-1.286.088-4.171-.576-5.058 1.231 2.107 3.613 3.132 4.815 2.069 1.993-1.925-.719-3.937-1.633-4.752 1.85 1.787 3.426 2.35 4.692 1.26 1.789-2.116-1.487-3.9-2.274-4.438 2.096 1.522 4.363 1.51 5.078.072 1.032-2.514-2.99-3.23-3.388-3.596 2.886 1.33 4.448 1.395 5.136-.053 1.08-2.552-2.578-3.282-3.489-3.563 2.454.832 4.615.146 4.87-1.439.16-1.368-.864-2.16-1.895-2.42M-175.59 448.358l-2.344-1.288M-172.948 444.34l-2.525-.884M-169.155 439.88l-4.503-.377M-166.418 435.347l-6.528.276M-178.693 452.633l-2.299-1.885M-183.107 454.978l-1.517-2.023M-187.658 456.633l-1.333-3.448M-191.29 457.506l-.276-1.7" fill="none" transform="matrix(-.95478 0 0 1.19736 54.436 -137.848)"/><path d="M-179.13 433.6c2.69 1.687.468 3.798-.92 3.954 2.027 2.328.217 3.51-1.516 3.31.725 1.345.43 3.95-2.943 3.172" fill="none" transform="matrix(-.95478 0 0 1.19736 54.436 -137.848)"/></g><g stroke-width=".492"><path d="M247.373 419.639h-5.076c7.06-2.803 6.444-31.926 0-34.227h5.076c6.444 2.3 7.061 31.424 0 34.227z" fill="#eac102" stroke-width=".34785876000000004"/><path d="M237.871 404.908l.609-2.126M240.204 405.638l.253-2.191" fill="none" stroke-width=".34785876000000004"/><path d="M859.27 320.446a3.184 8.005 0 01-3.184 8.005 3.184 8.005 0 01-3.183-8.005 3.184 8.005 0 013.183-8.005 3.184 8.005 0 013.184 8.005z" transform="matrix(.51355 0 0 .5151 -193.544 237.698)" fill="#eac102" stroke-width=".676" stroke-linecap="round"/><path d="M241.178 401.5h5.55v2.32h-5.484l-.066-2.32zM248.762 403.955l3.347 4.165-.342 2.582-3.666-5.29.66-1.457zM246.595 406.282v12.836c.606.743 1.171.433 1.652 0v-12.82l-1.652-.016zM248.762 401.329l3.337-4.328-.372-2.572-3.626 5.442.66 1.458zM246.508 385.968v13.645h1.64v-13.627c-.45-.534-1.077-.598-1.64-.018zM246.199 403.955l-4.625 5.963.132 3.049 5.154-7.555-.661-1.457z" fill="#eac102" stroke-width=".34785876000000004"/><path d="M246.199 401.329l-4.625-5.964.132-3.048 5.154 7.554-.661 1.458z" fill="#eac102" stroke-width=".34785876000000004"/><path transform="matrix(.51355 0 0 .5151 -192.234 237.698)" d="M859.27 320.446a3.184 8.005 0 01-3.184 8.005 3.184 8.005 0 01-3.183-8.005 3.184 8.005 0 013.183-8.005 3.184 8.005 0 013.184 8.005z" fill="#eac102" stroke-width=".676" stroke-linecap="round"/><path d="M242.287 419.639h5.077c-7.062-2.803-6.444-31.926 0-34.227h-5.077c-6.444 2.3-7.061 31.424 0 34.227z" fill="#eac102" stroke-width=".34785876000000004"/></g><g stroke-width=".29"><path d="M247.951 399.896c5.346-.528 6.887-4.318 7.415-8.976.747-12.264 5.93-14.071 11.448-15.09 7.702-1.03 19.803-7.968 21.985-5.334 2.24 3.334-4.618 5.568-6.15 6.241 1.9-.01 5.326-.908 5.5 1.955-.236 3.46-4.34 3.548-7.503 4.247 2.135.424 3.842.832 3.6 3.298-.53 3.332-3.944 1.814-6.81 2.303 1.269.394 3.187.576 2.907 3.55-.829 3.579-5.914 1.965-7.193 1.714 2.224.803 4.46 2.493 3.42 4.53-1.925 2.82-5.876.755-7.043.047 2.05 1.519 3.268 3.17 2.1 5.027-1.304 1.542-3.586 1.081-5.508.175 1.217 1.3 1.89 2.894 1.085 4.118-.822 1.151-3.553 1.027-6.45-1.566.73.944 1.479 4.36-.265 5.074-3.027.788-3.828-1.536-4.863-2.597.035 1.429.02 4.329-1.69 4.423-1.55-.077-2.173-1.679-2.733-3.382-.273 1.224-.35 2.712-1.951 2.601-.805.004-1.468-1.299-1.431-2.731-.15-3.141-2.276-9.195.13-9.627z" fill="#eac102" stroke-width=".34723439999999994"/><path d="M246.914 402.593c5.225.022 10.683-1.426 12.114-8.606.676-7.87 3.12-12.668 7.843-13.503 6.774-1.268 11.205-2.537 15.954-3.805" fill="none" stroke-width=".34723439999999994"/><path d="M248.24 403.251c.108 2.81 1.626 4.895 3.498 4.46 3.196-.89 1.757-4.366 1.326-5.597.838 2.808 2.975 4.482 4.714 3.665 2.938-1.541.106-4.996-.689-6.057 1.474 2.522 4.326 3.75 5.766 2.476 2.386-2.304-.861-4.714-1.956-5.689 2.214 2.14 4.102 2.814 5.618 1.508 2.142-2.532-1.78-4.668-2.722-5.314 2.51 1.824 5.223 1.809 6.08.088 1.235-3.01-3.58-3.87-4.057-4.307 3.455 1.592 5.326 1.671 6.15-.064 1.293-3.054-3.087-3.929-4.178-4.265 2.938.996 5.525.175 5.831-1.723.191-1.639-1.034-2.586-2.27-2.899M270.035 398.618l-2.807-1.541M273.198 393.808l-3.023-1.058M277.74 388.467l-5.391-.45M281.017 383.04l-7.816.33M266.32 403.738l-2.753-2.257M261.035 406.545l-1.817-2.422M255.585 408.527l-1.596-4.129M251.236 409.573l-.33-2.037" fill="none" stroke-width=".34723439999999994"/><path d="M265.797 380.948c3.22 2.02.56 4.547-1.101 4.734 2.426 2.788.259 4.204-1.817 3.964.87 1.61.515 4.73-3.523 3.798" fill="none" stroke-width=".34723439999999994"/></g></g><path d="M203.28 279.071H92.026s-1.29 34.156 8.704 69.05l102.547.248z" fill="url(#c)"/><path d="M125.656 291.393a10.15 10.15 0 00-1.308 1.302l-15.837-7.863 14.113 10.724c-.275.672-.533 1.33-.615 2.055l-14.27 1.73 14.31 1.613c.04.63.17 1.237.476 1.797l-12.474 9.74 13.967-6.965c.34.525.849.982 1.453 1.401l-7.862 15.725 10.465-14.1a8.257 8.257 0 002.392.7l1.493 17.51 1.52-17.456c.726-.118 1.427-.29 2.048-.635l9.857 14.655-7.135-16.029a6.31 6.31 0 001.44-1.467l13.954 6.885-12.381-9.58c.353-.74.554-1.49.66-2.247l14.588-1.652-14.614-1.56c-.07-.727-.286-1.329-.542-1.902l14.958-10.228-16.451 7.413c-.385-.499-.865-.921-1.374-1.321l6.24-12.531-.97.053-7.98 10.76a12.375 12.375 0 00-2.193-.476l-.906-10.522-1.373.02-.998 10.502c-.62.055-1.304.221-1.81.456l-7.29-10.753-1.035-.02z" fill="#ff0"/><path d="M203.236 279.071l.083 69.123 101.564-.073s9.641-28.338 8.541-69.298z" fill="url(#d)"/><ellipse cy="296.42" cx="-269.819" transform="scale(-1 1)" rx="10.407" ry="10.446" fill="#fff"/><path d="M144.28 311.192h90.334l-37.994 13.263z" fill="#005293" stroke="#000" stroke-width=".348"/><path d="M203.442 348.05h90.017c-10.895-44.253-193.132-20.116-190.737 0z" fill="#005293"/><path d="M104.284 348.03s4.917-4.52 14.99-6.894c0 0 8.896-1.513 12.41-4.319 0 0 3.747-3.012 7.729-1.721 0 0 6.084 3.45 11.706-1.077 0 0 5.386-4.311 19.432-1.944 0 0 17.56 4.312 32.312-1.292 14.072-4.825 30.302-.258 44.752.467 0 0 29.013-4.562 44.232 16.78l12.935.009c-.216-.054 7.353-25.025 8.637-58.363-5.264.444-7.938 1.609-17.606 4.225-5.162 1.397-10.669 3.488-15.846 4.96-6.032 1.716-10.072 2.49-14.96 3.671-.373.748-4.72.88-10.962 1.18-3.115.15-7.21 2.354-10.781 3.345-3.645 1.01-8.374 1.966-12.027 3.378-2.851 1.101-4.766 2.62-6.833 3.741 0 0-14.778 2.526-18.993 4.678 0 0-7.256 5.387-19.666 1.075 0 0-8.113.84-17.003-2.97-4.285-1.835-7.532-2.61-10.098-2.95-3.255-.433-6.18-2.352-9.064-3.83-.01-.004-8.355-4.742-16.04-7.558-2.01-.737-4.12-1.435-6.285-1.971-2.91-.72-5.072-.86-10.67-1.637 0 0-10.035-1.021-15.034-4.033 0 0-4.604-2.688-9.564-3.174-.028.142.059 29.417 8.626 56.189l3.671.036z" fill="#009b4c" stroke="#000" stroke-width=".348"/><path d="M313.443 279.091s1.028 34.21-8.68 68.907h-204.15s-9.876-28.178-8.728-68.907z" fill="none" stroke="#000" stroke-width=".568"/><path d="M116.611 303.245l-4.658-2.6-10.729-1.51-4.615 1.7-2.645-4.632 1.47 5.491 2.949-.06 4.339 2.413 8.52-1.204-3.177 2.185 1.455 2.987s-2.565-1.616-3.26-1.666c-.696-.05-8.212-.279-8.212-.279l3.734 2.298.749 1.269 7.6-.672 1.52-1.25-.463-1.34 2.794-.507zM96.391 318.847l4.405-1.54 4.093-3.189 4.833 1.134 3.696-.162 2.821-2.396 8.715.432s-.038-1.422-.771-1.338c-.734.084-13.075-1.75-13.075-1.75l-.406 1.861-2.204-1.952-4.39 1.667-3.022 2.808-4.865 1.851zM122.146 308.422l5.535-.129.738 1.417h3.321l5.289-4.122-7.503 2.705-2.214-1.159zM107.912 317.199l-.221 6.085-1.773-.839-2.326.42-4.875-3.463.443 1.574 4.32 3.358v3.462l-3.877-4.826-.332 3.987 2.326 1.993v-1.783l1.995.944 1.44-1.364 3.656 3.463-.443 2.098-1.994-1.679-.998 1.68-2.548-1.47.111 2.938-1.219 2.413-1.44.42v1.784l1.773-.735 1.662-2.203 1.218 1.364 5.761.21.887.84-4.764.104-5.429 2.728.997 2.728 2.88-2.518 1.884 2.623 1.662-.734 2.659-1.784 2.548.21 1.551-2.099 1.773.21 3.434-2.728 7.645-1.05 1.551-1.783h2.77l3.213.42 2.991-1.889 4.543.63-2.216-1.68-1.108.84-2.77-1.679-.886 2.309-2.66.105 2.106-3.463-.997-3.043L132.95 330l-4.1 1.154 2.66-1.889.997-3.987-3.102 3.463-3.435-.315-2.88-.315-2.216 1.364 2.659.21.775 1.679-.221 1.364-2.548-1.154-3.878 1.154-5.54-1.154 2.549-1.68s3.877-.104 4.32-.524c.444-.42 2.438-2.098 2.438-2.098l4.21-2.099h-2.437l-3.324 2.099-6.426 1.364h-2.216l3.324-.735 4.32-1.993 4.543-1.89 2.438-1.573 3.323.315 2.548.734h1.552l-4.21-1.679-2.77-.734-4.653 1.784-2.216 1.469 1.772-3.778-1.218 1.784s-1.551 2.099-1.995 2.099c-.443 0-4.32 1.574-4.32 1.574l-2.66 1.049-1.44.944-.664-1.574 1.661-.105.998-2.623h4.32l1.551-4.512-4.32-.84-.997 2.729-2.216 2.099 1.218-3.253h-1.994zM199 326.676l-.631 1.66-3.47.09-3.66 2.575 1.704-2.674 3.474-1.16zM135.43 315.249l-4.428-.258-1.353 1.288 2.214-3.22 4.182-1.159 1.353-2.834 1.722 1.417 2.829-1.03-3.321-2.061 2.214-.13 1.353 1.804 2.952.129 2.829 1.417 2.705 1.546 3.198 3.22 4.06.773 1.967 2.318 2.706-.515 2.583 1.803 5.043.902.738 2.447 2.09-.386-.491 1.803-4.797-2.447-.123 2.318-3.936-1.417-1.353 1.03s-4.92-5.023-5.412-5.023-4.92-1.803-4.92-1.803l-3.197-3.993-2.091.515v2.834l2.706.773 2.09 2.19 3.69.772 1.722 1.546 2.337 2.447 2.83 1.289-.493 1.674s-2.337-1.803-2.952-2.19c-.615-.386-2.829 0-2.829 0l-4.674-1.674-4.673-3.736-1.722-1.932-2.337 1.417-1.23 1.546 4.059 1.288.123 3.091 1.23 2.061 2.829-1.545 2.951 1.545 3.075-.901 2.952 2.318-3.813-1.03-1.845 1.03-3.443-1.417-1.23 2.576-2.706 1.417-3.936-6.182-2.091-.902v-4.766l-1.353-.644 2.09-1.546-1.721-1.674 4.55-1.932 1.6-2.19h-4.06l-1.967 1.932-1.722.515.984 1.417zM188.508 325.313l-2.706.644-1.968-1.03-3.813 1.674-2.09.129s-1.107-1.03-.493-1.03c.615 0 2.46.128 2.46.128l2.583-3.607 1.845 1.417 1.722-.515 1.722.644 6.765.773-2.583.644zM218.132 323.774l9.393 1.118 2.087-3.035-4.175-2.076 6.436.798 4.349-1.278-4.349 2.876-2.609 3.833 2.783-1.757.174 1.597 5.392.48 1.74 1.597 4.696-1.917 2.435-.48 6.784 1.12 2.262 1.117-7.132-.16-1.566 1.278h-8.87l-4.175-1.597h-10.785l-5.044-1.438-2.61.32-5.566-2.556 5.915-.799 1.217-3.993 4-2.076 2.784.798 4-2.715 2.262-1.597 4.348-2.396 2.958 1.277 1.913 1.917-4.349-.798-.522 3.514v1.278l-5.566-.8-3.653 1.119-2.087 1.438-3.653.639-.695 1.118z" fill="#00784c"/><path d="M288.633 318.827l-1.74 3.825-7.479-.182v5.647l-1.043 2.55-3.131-1.275 1.913-3.643-1.392-3.279-4.348 1.64-8.175 5.1-.696-2.915-3.827-.728 1.913-2.733-4.348-1.821-5.566-1.093-2.436-1.457-2.435 2.368-5.914 4.372-.87-2.004 2.088-4.19v2.186l3.653-3.279 4.174-1.822.174-2.003 2.61-1.64-2.088 2.55 1.913 1.822 3.131.91 5.393-2.55-1.74 3.28 2.783 2.003 3.305-1.64-.174 2.551 2.088.182.521-4.372 1.392 3.28 3.305-.73.696-6.557 1.043 4.007h2.61v1.276l3.826-5.83 2.261.365-3.13 4.007 2.26 1.822 1.218 1.821 2.783.365 1.392-2.368zM207.222 327.946l-2.517-2.529-2.576-.586-1.365 1.448-1.343-.897.843-1.985 1.904.138 2.428-1.021 1.211 2.035z" fill="#00784c"/><path d="M295.42 326.188l-2.59-2.404 2.375-.511.529-3.15.84-3.953 2.463.01-1.022 1.892 1.67 1.595 2.151.815 3.058-1.432-1.419-3.087.506-1.964-2.602.818-6.336-1.07-3.81-.373-2.775.794-1.298-1.712-1.254 1.18-.986-2.517-2.315 1.198-3.727-.869.473-2.818-3.496-.157 1.877-2.788-5.359-.592-2.848 3.328-3.968 2.66s-2.342 1.365-3.03 1.267l-3.44-.49 1.037 1.166-4.898-.187 5.027-2.68 4.184.256 2.053-1.744-1.209-1.19-4.921.997-5.531-.617-3.096-.44s-1.942 1.082-2.686 1.315c-.743.234-3.528-1.01-3.528-1.01l6.037-1.348 3.784.538 6.818.29 4.54-2.918 2.863-.272 5.498-.236 2.314-1.199 3.857-1.997 1.548.22-2.914 1.622.981 1.498 2.752.39-.506 1.965 1.637.742 1.72.245 1.33 2.564 2.397-1.695 1.214 2.209 2.481-2.193 1.022-1.891 1.436.883-.986-2.516-.67-2.301-3.736 3.372-.902-3.014-1.237-1.024 4.689-1.71 3.834-.812-.134 1.848 2.086-.891 1.525 1.404-.328 3.008-2.664.13.848 3.346-2.747.627-.905 2.247-1.338 1.677 3.285-1.74 3.113-1.763-.39 2.32 2.436.177 4.09-1.285-1.53-2.424 2.853-2.31 1.143-1.874-1.308-2.391-.924-6.779 3.434-.53 1.637.742.644 6.16-2.407 7.707.876 3.059-.822 6.204-1.397 5.096-.276 8.898-3.849 11.939-1.737 1.96-1.08-4.058-3.295-.298 3.735-3.372 3.258-1.574.5-2.983-2.996 2.12-5.86 2.39-2.481 2.193-2.27-1.17 3.514-2.047s-3.705-2.054-2.817-2.097c.887-.044 5.725-.544 5.725-.544l.767-1.418-4.05-2.103-.353-2.087 3.25 2.668 2.862-.272 1.386 2.234 1.682-1.628-1.135-3.725-2.287 1.033-2.673-1.908z" fill="#00784c"/><path d="M284.658 327.373l2.957 3.096-1.392 1.64-.87 1.822-1.565 1.457h1.74l1.043-2.368 3.13-1.458-1.739-3.825-1.391-1.822z" fill="#00784c"/><path d="M155.02 343.477c2.19 1.953 4.523 2.474 7.156 0M161.917 343.477c2.19 1.953 4.523 2.474 7.156 0M168.815 343.477c2.19 1.953 4.523 2.474 7.156 0M134.326 343.477c2.19 1.953 4.524 2.474 7.157 0M141.224 343.477c2.19 1.953 4.523 2.474 7.156 0M148.121 343.477c2.19 1.953 4.524 2.474 7.157 0M175.68 336.799c2.19 1.952 4.524 2.473 7.157 0M182.578 336.799c2.19 1.952 4.524 2.473 7.156 0M189.476 336.799c2.19 1.952 4.523 2.473 7.156 0M154.987 336.799c2.19 1.952 4.524 2.473 7.157 0M161.885 336.799c2.19 1.952 4.523 2.473 7.156 0M168.783 336.799c2.19 1.952 4.523 2.473 7.156 0M220.234 341.23c2.19 1.953 4.524 2.474 7.157 0M227.132 341.23c2.19 1.953 4.524 2.474 7.157 0M234.03 341.23c2.19 1.953 4.523 2.474 7.156 0M199.541 341.23c2.19 1.953 4.524 2.474 7.157 0M206.439 341.23c2.19 1.953 4.524 2.474 7.156 0M213.337 341.23c2.19 1.953 4.523 2.474 7.156 0M228.33 334.07c2.19 1.953 4.524 2.474 7.157 0M235.228 334.07c2.19 1.953 4.523 2.474 7.156 0M242.125 334.07c2.19 1.953 4.524 2.474 7.157 0M207.637 334.07c2.19 1.953 4.524 2.474 7.156 0M214.535 334.07c2.19 1.953 4.523 2.474 7.156 0M221.432 334.07c2.19 1.953 4.524 2.474 7.157 0M250.096 338.266c2.19 1.952 4.523 2.474 7.156 0M256.993 338.266c2.19 1.952 4.524 2.474 7.157 0M263.891 338.266c2.19 1.952 4.524 2.474 7.157 0M257.893 343.63c2.19 1.952 4.524 2.474 7.156 0M264.79 343.63c2.191 1.952 4.524 2.474 7.157 0M271.688 343.63c2.19 1.952 4.524 2.474 7.157 0" fill="none" stroke="#fff" stroke-width=".69"/><path d="M168.776 312.626c1.533 1.366 3.166 1.731 5.01 0M173.604 312.626c1.533 1.366 3.166 1.731 5.01 0M178.432 312.626c1.534 1.366 3.167 1.731 5.01 0M163.947 312.626c1.533 1.366 3.167 1.731 5.01 0M185.975 316.316c1.533 1.367 3.166 1.732 5.01 0M190.803 316.316c1.533 1.367 3.166 1.732 5.01 0M195.631 316.316c1.533 1.367 3.167 1.732 5.01 0M181.146 316.316c1.533 1.367 3.167 1.732 5.01 0M204.953 312.692c1.533 1.366 3.166 1.731 5.01 0M209.781 312.692c1.533 1.366 3.167 1.731 5.01 0M214.61 312.692c1.533 1.366 3.166 1.731 5.009 0M200.124 312.692c1.533 1.366 3.167 1.731 5.01 0" fill="none" stroke="#fff" stroke-width=".483"/><g><path d="M135.522 234.994l11.701-24.435 35.475 52.114" fill="none" stroke="#000" stroke-width="1.033" stroke-linejoin="round"/><g stroke="#969696" stroke-width=".377"><path d="M324.798 469.375c22.44 27.052 47.783 44.286 72.473 53.242-1.653 1.65-4.565 2.542-7.187 1.975-24.897-12.799-46.258-30.594-69.24-52.189l3.954-3.028z" fill="#b4b4b4" stroke="#000" transform="matrix(.93483 -.09254 .0922 .93817 -225.255 -188.63)"/><path d="M396.666 522.363c-1.479.774-3.043 1.34-4.88 1.25-30.706-14.615-52.868-37.286-69.649-51.521l2.758-2.64c26.438 25.197 51.048 43.344 71.771 52.91h0z" fill="#c8c8c8" stroke="#000" stroke-width=".366" transform="matrix(.93483 -.09254 .0922 .93817 -225.255 -188.63)"/><path d="M106.541 211.667l-1.935 2.271c-.107.792.88 1.347 1.463.995-.057.78.835 1.38 1.525.996-.251.68 1.1 1.768 1.577 1.205-.14.724.93 1.69 1.58 1.267-.25.697.796 1.607 1.518 1.112-.278.758.597 1.6 1.38 1.269-.297.776.67 1.49 1.474 1.195-.212.804.415 1.621 1.33 1.384-.282.801.958 1.586 1.406 1.23l3.041-3.012c-4.39-3.767-9.093-7.167-14.359-9.912z" stroke="none"/><path d="M309.159 456.323l-1.171-.416a4.36 4.36 0 00-1.782 1.813l.285.942 2.668-2.34z" fill="#eac102" stroke="#000" transform="matrix(.93483 -.09254 .0922 .93817 -225.255 -188.63)"/><path d="M331.236 464.887c-.037-1.687-2.383-3.901-4.636-1.584-1.576 2.177-2.807 4.683-4.558 6.623-5.708 6.23-9.413 4.754-13.142.133-4.147-5.766-3.747-8.984.961-12.367 4.396 1.897 9.014 6.796 13.368 10.849l.686-1.12c-4.398-4.391-9.204-9.516-14.52-11.812-4.659 3.676-7.757 7.508-2.963 14.715 6.704 9.93 13.68 5.093 17.323.652 1.51-2.079 2.032-3.184 2.82-4.77 1.454-3.38 2.354-2.073 2.566-1.511l2.095.192h0z" fill="#eac102" stroke="#000" stroke-width=".366" transform="matrix(.93483 -.09254 .0922 .93817 -225.255 -188.63)"/><path d="M330.883 466.789h-.002a1.492 1.492 0 11-1.595-2.52h.003a1.492 1.492 0 111.594 2.52h0z" fill="#eac102" fill-rule="nonzero" stroke="#000" stroke-linecap="round" stroke-linejoin="round" transform="matrix(.93483 -.09254 .0922 .93817 -225.255 -188.63)"/><path d="M109.381 206.96l1.987-2.108" transform="matrix(.93483 -.09254 .0922 .93817 -15.301 30.986)" fill="none" stroke-width="1.109"/><path d="M310.523 462.018l2.123-2.38M312.024 463.473l2.35-2.607M313.48 464.906l2.44-2.698M315.026 466.27l2.395-2.652M316.3 467.68l2.713-2.789M317.8 469l2.623-2.744M319.074 470.41l2.896-2.79" fill="none" stroke-width="1.109" transform="matrix(.93483 -.09254 .0922 .93817 -225.255 -188.63)"/></g><path d="M184.085 218.742l-37.175-8.67-39.971 50.458" fill="none" stroke="#000" stroke-width="1.033" stroke-linejoin="round"/><g fill="#b4b4b4" stroke="#000" stroke-width=".297"><path d="M171.031 108.948c-.407.01-.795.856-.962 1.257l1.698-.021c-.11-.293-.347-1.246-.736-1.236z" class="fil2 str2" fill-rule="nonzero" stroke-width=".288" stroke-linejoin="round" transform="matrix(.96926 -.69722 -.7019 -.9702 104.43 442.135)"/><path class="fil2 str2" fill-rule="nonzero" stroke-width=".288" stroke-linejoin="round" d="M170.069 110.205l-3.617.046.034 1.018 6.267-.079-.034-1.018-.952.012-1.698.021z" transform="matrix(.96926 -.69722 -.7019 -.9702 104.43 442.135)"/><path d="M112.43 114.555c-.556.448-.675 1.506.067 1.972.222.14.57.009.29-.174-.255-.145-.39-.439-.405-.733a1.108 1.108 0 01.694-1.1l-.646.035z" class="fil2 str2" fill-rule="nonzero" stroke-linejoin="round" transform="matrix(.96926 -.69722 -.7019 -.9702 104.43 442.135)"/><path d="M112.915 116.92c-1.026.087-2.008-.385-2.032-1.183-.016-.536.183-.936.657-1.13-.436.025-.81.049-1.107.07-.019.063-.263.955.009 1.63.333.827 1.558 1.238 2.653 1.107.775-.093 1.871-.44 2.131-1.278.16-.517.063-1.253-.16-1.72l-1.002.051c.354.122.613.467.67.933.134 1.082-.897 1.441-1.819 1.52h0z" class="fil2 str2" fill-rule="nonzero" stroke-width=".288" stroke-linejoin="round" transform="matrix(.96926 -.69722 -.7019 -.9702 104.43 442.135)"/><path d="M111.657 111.242l-1.224 3.435c2.37-.167 9.619-.502 14.609-.78 13.737-.52 24.433-.851 37.772-1.279l.01.422 3.715-.136-.094-2.88-3.69.043-1.567-.36-16.754-.027-20.804-.12-.06.414h-6.422l-.495-.52-5.05.064v.549h-1.315l.01 1.044 1.347-.338.012.469h0z" class="fil2 str2" fill-rule="nonzero" stroke-width=".288" stroke-linejoin="round" transform="matrix(.96926 -.69722 -.7019 -.9702 104.43 442.135)"/><path d="M162.764 110.45l-39.512.219M162.755 110.066l.072 3.081" class="fil4 str2" stroke-linejoin="round" transform="matrix(.96926 -.69722 -.7019 -.9702 104.43 442.135)"/><path class="fil2 str2" fill-rule="nonzero" stroke-linejoin="round" d="M144.433 109.448v4.241h.758v-4.241h-.758z" transform="matrix(.96926 -.69722 -.7019 -.9702 104.43 442.135)"/><path d="M92.377 121.986c.425.864 1.72.214 1.357-.51" class="fil4 str2" stroke-linejoin="round" transform="matrix(.96926 -.69722 -.7019 -.9702 104.43 442.135)"/></g><path class="fil2 str2" d="M134.466 256.349c-2.077.848-5.107 1.372-7.555 2.22-2.06.58-3.547 2.283-5.36 3.41l-12.312 7.645c-.78.494-1.218.59-1.527.105l-4.155-6.227c-.776-1.134-1.061-2.332-.185-2.62 4.71-1.692 11.13-3.088 16.697-4.469 3.327-.824 9.226-1.55 10.8-2.543 2.415-1.49 9.676-6.22 14.707-9.43l2.315 3.162-8.585 6.24c-1.213.855-2.395 1.713-4.84 2.507h0z" fill="#8f6b31" stroke="#000" stroke-width=".344" stroke-linejoin="round"/></g><g stroke="#000"><path d="M234.258 247.439c-7.912 4.267-14.579 11.555-10.718 19.975 8.148 6.177 19.957.28 24.005-5.094-3.074-6.315-8.135-10.644-13.287-14.881z" fill="#e6e6e6" stroke-width=".344"/><path d="M244.446 261.93c-.989-1.639-8.695-9.698-10.403-11.05-3.445 1.69-6.097 3.925-8.381 6.412" fill="none" stroke-width=".344"/><path d="M234.217 259.019l4.428-3.769c1.035-.76.08-2.546 1.375-3.52l5.93-5c1.302.57 1.884 1.473 2.392 2.48l-5.819 4.874c-1.15 1.133-.802 2.79-1.777 3.51l-4.941 3.22" fill="#e6e6e6" stroke-width=".344"/><path d="M234.245 247.548l-.253 3.383M246.33 260.211c-3.943 4.293-10.297 9.046-17.842 9.537" fill="none" stroke-width=".344"/><path d="M232.31 259.983l-7.897 5.671M234.32 261.85l-8.4 5.384" fill="none" stroke-width=".069"/><path d="M245.639 247.02l28.593-21.841 2.317 2.575-28.526 21.783-2.384-2.517z" fill="#8f6b31" stroke-width=".344"/><path d="M273.382 225.932l4.658-3.816c-.38-2.945-1.56-5.911 1.684-8.755 1.946-1.82 4.01-2.968 5.956-4.388l9.646 8.26-.056 2.694-5.503 4.735c-2.568 1.714-6.246 1.455-9.37.27l-4.658 3.301c-.485-.767-1.13-1.534-2.357-2.3zm11.426-13.35c-3.003 1.892-7.271 5.865-4.009 9.406 4.574 2.8 7.786.533 11.155-2.674l-7.146-6.732z" fill="#e6e6e6" stroke-width=".344"/><path d="M285.68 209.01l-.793 3.572M291.872 219.368l3.016-2.46M281.157 212.185c-2.144 2.114-2.921 6.276-.993 9.128" fill="none" stroke-width=".344"/><path d="M276.016 249.666l-52.685-42.548c-.634-1.074 1.297-3.156 2.842-2.585l52.04 42.215c1.219.7 2.853-.12 4.582.327l-1.736 3.054c-1.19.23-3.311.661-5.043-.463z" fill="#8f6b31" stroke-width=".344"/><path d="M284.084 259.71c1.417 4.144 1.007 7.886.348 12.191l14.487-14.844c.34-3.31.547-7.316-.494-10.52l-6.294 6.07c-1.722-2.356-5.386-5.868-11.183-5.66-1.06 1.23-1.037 2.219-1.022 3.365 3.902-.737 7.922 2.428 9.716 4.5l-5.558 4.898z" fill="#e6e6e6" stroke-width=".344"/><path d="M287.368 258.042c.689 3.12.768 5.993.293 9.112M291.532 254.172c.69 3.12.768 5.993.293 9.112M295.549 250.008c.69 3.12.768 5.993.294 9.112" fill="none" stroke-width=".069"/></g><path d="M224.886 126.233c1.08 6.522-5.718 3.591-5.848 1.079M187.835 133.175c-1.08 6.522 5.718 3.59 5.848 1.078M185.693 142.69c-1.08 6.521 5.718 3.59 5.848 1.078M223.514 159.968c1.08 6.522-5.717 3.591-5.847 1.079M225.845 146.255c1.08 6.522-5.717 3.59-5.847 1.078M190.219 109.091c-1.08 6.523 5.717 3.591 5.847 1.079M188.573 117.045c-1.08 6.522 5.718 3.591 5.848 1.079M182.814 123.49c-1.08 6.523 5.717 3.591 5.847 1.079M182.814 151.466c-1.08 6.522 5.717 3.59 5.847 1.078M226.102 131.477s2.243 6.414-3.733 9.915M212.524 109.876c-.801 5.295-5.304 1.335-4.775-.633M209.854 121.947c.445 5.337-4.851 2.526-4.792.49" fill="none" stroke="#000" stroke-width=".344"/><g><path d="M63.586 153.969c13.746 3.276 17.345 14.586 23.097 24.192-1.104 4.93-2.734 10.713-5.855 16.072-9.965 1.59-14.968-18.287-27.246-19.756 4.826-3.84 9.421-3.72 14.247-5.12-.699-4.755-1.286-9.51-4.243-15.388zM341.72 153.969c-13.746 3.276-17.346 14.586-23.098 24.192 1.104 4.93 2.734 10.713 5.856 16.072 9.964 1.59 14.968-18.287 27.245-19.756-4.825-3.84-9.42-3.72-14.246-5.12.699-4.755 1.286-9.51 4.243-15.388z" fill="#fff" stroke="#000" stroke-width=".689"/><path d="M318.241 165.834c-40.858 20.435-81.048 15.257-105.52-8.649-19.491-23.33-4.521-56.873 12.972-91.162l-4.149 1.31c-22.22 36.32-48.811 73.801-18.86 109.978 24.883 16.879 66.503 32.96 124.977 6.857 3.6-2.02 4.017-.437 5.066.43l-8.273-17.238c-.795-1.424-1.458-4.012-6.213-1.526zM332.565 184.462c2.446 4.095-12.485 5.525-7.994 9.825" fill="#fff" stroke="#000" stroke-width=".689"/><path d="M87.064 165.834c40.859 20.435 82.822 14.961 107.293-8.944 22.809-24.984 25.878-61.913 32.484-93.247 2.387-.41 3.575.545 4.207 1.57-2.51 42.064-9.17 97.18-28.427 112.098-24.883 16.879-66.503 32.96-124.976 6.857-3.6-2.02-4.017-.437-5.067.43l8.273-17.238c.796-1.424 1.459-4.012 6.213-1.526zM72.74 184.462c-2.445 4.095 12.485 5.525 7.995 9.825" fill="#fff" stroke="#000" stroke-width=".689"/><path d="M228.135 63.743c-.891 6.538-1.684 13.437-3.293 19.975M229.758 64.1c-.403 4.689-.951 9.448-1.713 14.014M224.131 66.734c-3.122 5.813-6.408 11.734-8.95 17.969M222.994 67.118c-2.429 4.03-5.037 8.202-7.105 12.344" fill="none" stroke="#000" stroke-width=".207"/><path style="text-align:start;line-height:125%;-inkscape-font-specification:Arial Bold" d="M91.73 185.757l4.116-11.617 3.764 1.333c1.427.505 2.336.893 2.728 1.163.604.41 1.027.986 1.27 1.729.242.743.199 1.577-.129 2.501-.252.713-.594 1.267-1.025 1.661-.431.395-.895.66-1.392.796a3.607 3.607 0 01-1.412.12c-.6-.087-1.43-.32-2.492-.695l-1.53-.542-1.551 4.382-2.346-.83zm5.766-8.821l-1.168 3.297 1.284.454c.924.328 1.564.486 1.919.475.354-.011.666-.115.935-.311.268-.196.464-.466.585-.81.15-.422.15-.815-.002-1.177a1.721 1.721 0 00-.76-.85c-.262-.151-.815-.377-1.66-.677l-1.133-.401zm5.113 12.595l3.081-11.933 5.071 1.31c1.276.329 2.175.675 2.697 1.039.523.363.887.864 1.093 1.502.206.638.217 1.31.035 2.015-.231.895-.685 1.567-1.362 2.014-.677.447-1.559.612-2.646.493.443.439.787.884 1.032 1.335.245.451.536 1.215.872 2.291l.855 2.705-2.881-.744-1.072-3.047c-.379-1.088-.651-1.782-.817-2.082a1.91 1.91 0 00-.596-.684c-.232-.155-.624-.304-1.178-.447l-.488-.126-1.287 4.982-2.41-.623zm4.187-6.264l1.783.46c1.156.299 1.89.436 2.203.413a1.34 1.34 0 00.806-.33c.225-.197.383-.475.476-.833.103-.401.08-.753-.07-1.055-.151-.303-.414-.537-.788-.703-.188-.077-.77-.242-1.747-.495l-1.88-.485-.783 3.028zm8.275 3.191c.184-1.242.525-2.256 1.021-3.044a5.8 5.8 0 011.383-1.503 4.798 4.798 0 011.739-.865c.807-.208 1.707-.24 2.699-.092 1.796.266 3.151 1.036 4.064 2.31.913 1.275 1.223 2.904.929 4.889-.292 1.968-1.055 3.429-2.29 4.382-1.235.953-2.748 1.296-4.539 1.031-1.812-.269-3.172-1.035-4.078-2.3-.906-1.265-1.215-2.867-.928-4.808zm2.55.293c-.206 1.38-.042 2.474.49 3.281.532.807 1.289 1.283 2.27 1.429.981.145 1.839-.089 2.573-.702.734-.614 1.206-1.628 1.415-3.042.208-1.397.056-2.484-.455-3.263-.51-.778-1.273-1.242-2.288-1.393-1.015-.15-1.884.077-2.608.68-.724.604-1.19 1.607-1.398 3.01zm15.063 7.926l-.213-12.323 3.724-.065 2.381 8.368 2.066-8.444 3.732-.065.213 12.323-2.312.04-.167-9.7-2.279 9.742-2.396.042-2.605-9.659.168 9.7-2.312.04zm12.723-12.674l2.466-.333.894 6.615c.142 1.05.264 1.726.367 2.029.173.485.479.853.917 1.102.438.249 1.001.327 1.69.234.7-.095 1.208-.31 1.525-.644.317-.334.483-.714.5-1.14.015-.426-.042-1.123-.173-2.09l-.913-6.756 2.466-.333.867 6.415c.198 1.466.271 2.511.22 3.134-.051.624-.228 1.168-.53 1.633-.302.465-.736.862-1.303 1.19-.566.328-1.333.558-2.299.688-1.166.158-2.07.143-2.708-.045-.64-.188-1.163-.474-1.57-.857-.409-.383-.7-.803-.875-1.26-.256-.678-.476-1.7-.66-3.067l-.881-6.515zm14.006 10.396l-2.855-11.99 2.355-.56 6.814 6.838-1.907-8.007 2.249-.535 2.855 11.99-2.429.578-6.695-6.668 1.862 7.819-2.25.535zm8.178-14.706l4.32-1.426c.973-.321 1.74-.492 2.3-.512.754-.024 1.46.14 2.12.495.66.355 1.242.864 1.744 1.527.502.664.935 1.544 1.297 2.64.318.963.472 1.833.463 2.61-.012.948-.202 1.775-.571 2.481-.278.534-.729 1.029-1.352 1.482-.467.337-1.137.65-2.01.938l-4.447 1.468-3.864-11.703zm3.017 1.2l2.56 7.751 1.764-.582c.66-.218 1.124-.413 1.392-.584.351-.222.616-.49.793-.802.177-.312.26-.757.246-1.334-.014-.576-.17-1.317-.469-2.222-.298-.905-.607-1.573-.927-2.005-.32-.431-.668-.735-1.045-.912-.377-.176-.802-.24-1.275-.19-.355.035-1.014.211-1.977.53l-1.062.35zm12.545 6.47l-4.44-11.498 2.322-.896 4.44 11.497-2.322.897zM229.082 174.814l4.663 1.587c.924.314 1.599.587 2.026.819.428.231.779.53 1.054.896s.463.792.564 1.28c.1.486.065.982-.107 1.486a2.871 2.871 0 01-.954 1.354c-.45.356-.965.562-1.547.619.64.449 1.067.988 1.28 1.616.212.63.203 1.28-.026 1.954-.18.531-.48 1.005-.897 1.422-.418.418-.891.704-1.42.858-.53.154-1.119.16-1.768.015-.407-.09-1.363-.387-2.868-.887l-3.972-1.352 3.972-11.667zm1.694 2.744l-.918 2.698 1.544.525c.918.313 1.493.493 1.725.543.42.09.784.058 1.093-.094.31-.153.528-.417.656-.794.123-.36.123-.688.001-.98-.122-.294-.371-.531-.748-.713-.224-.106-.89-.347-2-.725l-1.353-.46zm-1.579 4.64l-1.062 3.12 2.18.741c.85.29 1.396.449 1.64.479.373.055.71-.003 1.015-.175.304-.171.526-.464.667-.878.12-.35.136-.676.049-.978a1.52 1.52 0 00-.555-.784c-.283-.22-.96-.513-2.032-.878l-1.902-.648zm7.724 8.18l2.917-11.974 8.88 2.163-.494 2.026-6.461-1.574-.647 2.655 6.012 1.464-.492 2.018-6.012-1.465-.794 3.26 6.69 1.63-.492 2.017-9.107-2.22zm11.225 2.642l1.714-12.205 2.398.337 3.85 8.852 1.145-8.15 2.29.32-1.714 12.206-2.473-.347-3.803-8.65-1.117 7.959-2.29-.322zm12.321 1.577l.412-12.318 9.133.305-.07 2.084-6.646-.222-.091 2.73 6.184.207-.07 2.075-6.183-.206-.112 3.352 6.881.23-.07 2.076-9.368-.313zm11.518.232l-.796-12.3 8.432-.544.134 2.08-5.948.385.188 2.911 5.135-.332.134 2.08-5.134.333.338 5.226-2.483.16zm10.398-.847l-1.59-12.221 2.467-.321 1.59 12.221-2.467.321zm11.682-6.562l2.515.285c-.104 1.392-.514 2.49-1.233 3.297-.718.807-1.726 1.338-3.024 1.593-1.606.315-3.033.026-4.283-.868-1.25-.894-2.061-2.292-2.435-4.195-.396-2.013-.184-3.678.637-4.996.82-1.318 2.078-2.143 3.772-2.476 1.479-.291 2.766-.09 3.862.603.652.409 1.21 1.07 1.675 1.984l-2.303 1.052c-.266-.599-.662-1.035-1.187-1.309-.525-.273-1.112-.347-1.761-.219-.896.176-1.56.64-1.992 1.394-.432.753-.506 1.85-.223 3.291.3 1.529.79 2.564 1.467 3.105.678.54 1.456.724 2.336.551.65-.127 1.167-.443 1.553-.947.387-.505.594-1.22.624-2.145zm5.232 3.401l-3.04-11.944 2.411-.614 3.04 11.944-2.411.614zm2.488-6.876c-.358-1.203-.478-2.267-.36-3.19a5.8 5.8 0 01.618-1.947 4.798 4.798 0 011.211-1.518c.644-.53 1.446-.938 2.408-1.224 1.74-.517 3.294-.39 4.66.379 1.366.77 2.334 2.116 2.906 4.039.567 1.907.491 3.553-.225 4.939-.717 1.385-1.943 2.335-3.679 2.851-1.757.522-3.313.401-4.668-.363-1.355-.763-2.312-2.085-2.871-3.966zm2.434-.81c.397 1.337 1.008 2.26 1.83 2.766.823.507 1.71.62 2.661.337.951-.283 1.63-.857 2.036-1.724.406-.866.406-1.984 0-3.354-.403-1.354-1-2.276-1.792-2.765-.791-.49-1.679-.59-2.662-.297-.983.292-1.675.865-2.077 1.718-.401.853-.4 1.959.004 3.318z" font-size="17.218" font-weight="700" font-family="Arial"/></g><g fill="#eac102"><path d="M117.076 17.283l5.095 8.555 9.691-2.182-6.594 7.5 5.049 8.516-9.17-3.92-6.571 7.445.927-9.923-9.11-3.914 9.743-2.213.94-9.864zM189.278 8.654l3.116 9.463 9.932-.011-8.064 5.879 3.08 9.415-8.1-5.83-8.028 5.83 3.059-9.482-8.043-5.812 9.99-.03 3.058-9.422zM152.89 10.92l4.124 9.067 9.872-1.096-7.378 6.725 4.083 9.022-8.684-4.91-7.349 6.672 2.012-9.76-8.625-4.899 9.927-1.12 2.019-9.7zM48.405 41.393l6.825 7.24 8.988-4.243-4.814 8.76 6.772 7.21-9.8-1.826-4.802 8.7-1.243-9.889-9.74-1.834 9.032-4.284-1.218-9.834zM81.988 27.374l5.987 7.952 9.4-3.222-5.748 8.172 5.939 7.917-9.54-2.9-5.729 8.115-.148-9.965-9.48-2.902 9.448-3.258-.13-9.909z"/></g></svg>