<svg xmlns="http://www.w3.org/2000/svg" width="472.441" height="642.519" viewBox="0 0 4922 6692" shape-rendering="geometricPrecision" text-rendering="geometricPrecision" image-rendering="optimizeQuality" fill-rule="evenodd"><defs><style>.str0{stroke:#2b2828;stroke-width:13}.fil3{fill:none}.fil4{fill:#969594}.fil0{fill:#dededd}.fil2{fill:#fff}.fil6{fill:#131516}.fil1{fill:#2b2828}</style></defs><g id="Layer_x0020_1"><defs><clipPath id="id0"><path d="M3399 2249c-9 1-19 1-29 1-214 0-711-110-902-274-201 152-706 274-916 274-10 0-20-1-29-3-1 48 2 98 5 143 11 169 40 338 85 502 142 513 432 949 847 1280 416-331 706-768 848-1281 45-164 75-333 86-502 3-44 6-93 5-140z"/></clipPath></defs><path class="fil0 str0" d="M2022 5345l830 14-248-1277-270-8-312 1271z"/><path class="fil0 str0" d="M3201 3843c49 82 316 403 316 403 63 175 303 329 303 329 25 122 285 302 285 302 65 170 341 330 341 330 156 223 343 354 343 354l-179-3949s-17-227-244-325c-228-98-375 0-506 49-129 49-312 195-472 227-162 33-276 33-928-162-650 195-764 195-926 162-160-32-343-178-474-227-129-49-276-147-504-49s-244 325-244 325L133 5561s187-131 341-354c0 0 278-160 343-330 0 0 260-180 285-302 0 0 240-154 302-329 0 0 268-321 317-403h1480z"/><path class="fil1 str0" d="M4446 5207c140 216 343 354 343 354l-179-3949s-142-119-278-127v2l114 3720zM3996 1690c93-110 183-184 280-207l105 3671s-178-82-276-277l-109-3187zM3820 4575l-73-2556 13-20c70-59 125-118 183-243l7-17c31 1030 63 2057 94 3088-79-73-153-120-224-252zM3517 4245l-64-2079 5-9c83-17 148-23 220-74l11-6 69 2438s-141-45-241-270zM3450 4156l-53-1859-4-9c-130 67-346 25-346 25l154 1530c49 97 249 313 249 313zM474 5207c-138 216-341 354-341 354l179-3949s142-119 276-127v2L474 5207zM926 1690c-93-110-277-308-280-207-36 1227-72 2453-108 3681 110-80 232-190 279-287l109-3187zM1102 4575l73-2556-14-20c-69-59-125-118-182-243l-8-17-99 3095c84-71 148-114 230-259zM1404 4245l63-2079-3-9c-83-17-148-23-221-74l-12-6-69 2438s143-45 242-270zM1472 4156l53-1859 4-9c130 67 346 25 346 25l-154 1530c-49 97-249 313-249 313z"/><path class="fil2 str0" d="M2460 6594c1229 0 1824-276 1824-276l-16-123s10-7 73-24c58-16 78-130 74-180-5-45 40-158 64-178 0 0-102-36-138-78-59-65-118-130-211-81-36 19-16-151-16-151s-560 277-1651 261-1655-261-1655-261 20 170-16 151c-93-49-152 16-211 81-38 42-138 78-138 78 24 20 69 133 64 178-4 50 16 164 74 180 63 17 73 24 73 24l-17 123s594 276 1823 276z"/><path class="fil0 str0" d="M3168 3192l619 2213s-488 180-862 147l-309-1596 552-764z"/><path class="fil3 str0" d="M3364 3956s16 131-16 196c0 0-147-178-147-309m163 113z"/><path class="fil3 str0" d="M3364 3956s16 131-16 196c0 0-147-178-147-309m163 113zM3088 3974s31 243-65 325c0 0-212-196-180-294m245-31z"/><path class="fil3 str0" d="M3088 3974s31 243-65 325c0 0-212-196-180-294m245-31z"/><path class="fil2 str0" d="M2469 6524c1171 0 1753-251 1753-251l-16-114s19-20 79-33c53-13 73-95 69-131-4-33 36-149 71-162 0 0-84-12-108-33-46-39-98-141-235-84-17 9-23-118-23-118s-550 268-1589 255c-1039-12-1591-238-1591-238s20 106-16 94c-128-43-160 22-226 75-22 17-108 56-108 56 25 16 29 59 39 91 13 44-10 141 36 171 33 20 111 42 111 42l-16 129s599 251 1770 251z"/><path class="fil3 str0" d="M2827 4136s-16 325-82 341c0 0-31-80-31-129m113-212zM3535 4526l-8 66s-147-66-195-326m203 260z"/><path class="fil3 str0" d="M3535 4526l-8 66s-147-66-195-326m203 260zM3079 4381c40 178 163 267 187 260 74-24 58-424 58-424m-245 164z"/><path class="fil3 str0" d="M3079 4381c40 178 163 267 187 260 74-24 58-424 58-424m-245 164zM3023 4412s-33 359-98 392c-66 32-180-327-180-327m278-65z"/><path class="fil3 str0" d="M3023 4412s-33 359-98 392c-66 32-180-327-180-327m278-65zM3266 4722s-16 407-65 423c-49 17-146-147-162-196m227-227z"/><path class="fil3 str0" d="M3266 4722s-16 407-65 423c-49 17-146-147-162-196m227-227zM2974 4902s0 308-66 341l-65-130m131-211z"/><path class="fil3 str0" d="M2974 4902s0 308-66 341l-65-130m131-211zM3689 5194s0 196-49 211c-47 18-129-276-129-276m178 65z"/><path class="fil3 str0" d="M3689 5194s0 196-49 211c-47 18-129-276-129-276m178 65zM3462 5162s-33 308-98 325c-65 16-196-244-178-293m276-32z"/><path class="fil3 str0" d="M3462 5162s-33 308-98 325c-65 16-196-244-178-293m276-32zM3168 5341s-14 167-64 178c-65 17-163-81-179-178m243 0z"/><path class="fil3 str0" d="M3168 5341s-14 167-64 178c-65 17-163-81-179-178m243 0zM3576 4706s17 341-49 358c-65 16-195-115-228-228m277-130z"/><path class="fil3 str0" d="M3576 4706s17 341-49 358c-65 16-195-115-228-228m277-130z"/><path class="fil0 str0" d="M4154 5356c33 48-16 114-40 147-25 33-449 138-692 180-295 49-685 75-799 89-65 8-105-49-105-113 0-91 73-107 114-107 0 0 48-8 48 25 0 0 41-41 82-41s74 16 74 49c0 0 32-57 72-66 42-7 98 0 106 33 0 0 49-8 90-33 40-24 97-24 130 9 0 0 90-33 130-41s122-24 131 8c0 0 24-65 65-72 40-9 138-49 178-9 0 0 33-49 58-49 24 0 82-16 89 9 0 0 33-58 106-66 74-8 123-8 163 48z"/><path class="fil4 str0" d="M4114 5414c-16 24-42 81-9 130 33 48 40 82 0 115 0 0 122-25 114-164-9-139-81-121-105-81zM3373 5519c-49 9-49 49-25 115 25 65 65 121 40 170 0 0 139-73 98-194-40-123-64-98-113-91zM2632 5626c-38-16-114 61-114 105 0 73 40 146 114 171 0 0-34-147 0-154 33-9 82-89 0-122z"/><path class="fil3 str0" d="M3991 5308s-73 66-8 90c0 0 33-17 73-17m-65-73zM3820 5470s-65-16-82 17c0 0 33-64 0-73m82 56zM3584 5423s-49 47-8 72c0 0 48-32 73-8m-65-64zM3210 5592s-138 0-138 34c0 0 65-114 32-107m106 73zM2932 5528s-49 40-24 82m24-82z"/><path class="fil0 str0" d="M1752 3192l-619 2213s490 180 864 147l309-1596-554-764z"/><path class="fil3 str0" d="M1654 3729s98-98 131-163c0 0-33 277 32 294 66 16 82-66 82-66m-245-65zM1557 3956s-16 131 17 196c0 0 147-178 147-309m-164 113zM1834 3974s-33 243 65 325c0 0 212-196 178-294m-243-31zM2095 4136s16 325 80 341c0 0 33-80 33-129m-113-212zM1387 4526l7 66s147-66 196-326m-203 260zM1841 4381c-40 178-162 267-187 260-73-24-56-424-56-424m243 164zM1899 4412s33 359 98 392c65 32 178-327 178-327m-276-65zM1654 4722s18 407 67 423c49 17 145-147 162-196m-229-227zM1948 4902s0 308 65 341l64-130m-129-211zM1231 5194s0 196 49 211c49 18 131-276 131-276m-180 65zM1460 5162s32 308 97 325c66 16 195-244 179-293m-276-32zM1752 5341s16 167 65 178c66 17 164-81 180-178m-245 0zM1345 4706s-16 341 49 358c66 16 196-115 229-228m-278-130z"/><path class="fil0 str0" d="M768 5356c-33 48 16 114 40 147 25 33 448 138 692 180 295 49 685 75 798 89 64 8 106-49 106-113 0-91-73-107-114-107 0 0-48-8-48 25 0 0-42-41-82-41-41 0-74 16-74 49 0 0-32-57-73-66-41-7-98 0-105 33 0 0-49-8-91-33-40-24-96-24-129 9 0 0-90-33-131-41s-121-24-130 8c0 0-24-65-65-72-41-9-138-49-180-9 0 0-31-49-56-49-24 0-82-16-90 9 0 0-32-58-105-66-74-8-123-8-163 48z"/><path class="fil4 str0" d="M808 5414c16 24 41 81 9 130-33 48-42 82 0 115 0 0-122-25-114-164 7-139 81-121 105-81zM1549 5519c49 9 49 49 25 115-25 65-65 121-40 170 0 0-140-73-98-194 40-123 64-98 113-91zM2290 5626c38-16 114 61 114 105 0 73-42 146-114 171 0 0 32-147 0-154-33-9-82-89 0-122z"/><path class="fil3 str0" d="M931 5308s73 66 8 90c0 0-33-17-73-17m65-73zM1102 5470s65-16 80 17c0 0-31-64 0-73m-80 56zM1338 5423s49 47 7 72c0 0-49-32-72-8m65-64zM1712 5592s138 0 138 34c0 0-65-114-33-107m-105 73zM1988 5528s49 40 25 82m-25-82z"/><g><path class="fil1 str0" d="M2273 4096l-236 1260 98 156 131-147 130-1164-49-89-74-16zM2647 4096l236 1260-72 156-155-147-130-1164 49-89 72-16zM2322 5365l138 196 138-187-129-1341-147 1332z"/></g><path class="fil0 str0" d="M2901 1841c24 1-33-131-33-131 64 66 309 82 309 82-147-65-294-554-276-944 15-392-56-545-114-603-73-73-309-138-465-147-88-4-73 66-73 66-163-41-325-57-399-8-69 46-83 276-33 236 122-98 229-9 302 98 65 93 61 358-33 667-98 326-365 651-365 651 145 0 349-130 349-130l-49 203c154-73 277-187 277-187l146 154c49-65 147-154 147-154s123 130 310 147z"/><path class="fil3 str0" d="M2306 904s-82 603-236 774m236-774zM2436 888s-32 610-138 806m138-806zM2551 913s0 667 40 781m-40-781zM2696 946s33 561 172 764m-172-764z"/><path class="fil1 str0" d="M2158 612c-7-53-20-95-39-122-73-107-180-196-302-98 0 0 42-130 131-134 69-4 226 52 364 288 0 0-102-23-127-2-46 41-27 68-27 68z"/><path class="fil1 str0" d="M1804 232c10-33 26-63 46-76 74-49 236-33 399 8 0 0-15-70 73-66 156 9 392 74 465 147 17 19 37 46 55 88h-3c-36-51-138-48-163-45-39 4-63 3-115 16-24 6-62 13-82 29-16 13-29 60-53 60-39 0-36-10-46-21-13-16-20-39-33-38-41 7-105-24-187-89-83-65-114-81-221-73-105 8-138 67-138 67l3-7z"/><path class="fil0 str0" d="M2406 327c24 0 43-19 43-43 0-25-19-43-43-43-23 0-44 18-44 43 0 24 21 43 44 43z"/><path class="fil3 str0" d="M3256 3762s-98-98-131-163c0 0 33 277-31 294-66 16-82-66-82-66m244-65z"/><path class="fil2 str0" d="M2460 4286c1125-865 1029-2133 1029-2133-30 6-58 9-88 9-236 0-799-135-930-307-141 156-716 307-950 307-30 0-60-3-88-9 0 0-98 1268 1027 2133z"/><path d="M3399 2249c-9 1-19 1-29 1-214 0-711-110-902-274-201 152-706 274-916 274-10 0-20-1-29-3-1 48 2 98 5 143 11 169 40 338 85 502 142 513 432 949 847 1280 416-331 706-768 848-1281 45-164 75-333 86-502 3-44 6-93 5-140z" fill="#fff"/><g clip-path="url(#id0)"><path class="fil6" d="M2151 4007s-715-942-669-1797l655-1 14 1798z"/><path d="M2784 4030s714-941 668-1796l-655 7-13 1789z" fill="#00873b"/><path d="M1482 2210s605-37 948-323c0 0 657 422 1022 347l-1022 675-948-699z" fill="#d82624"/></g><path class="fil3" d="M3399 2249c-9 1-19 1-29 1-214 0-711-110-902-274-201 152-706 274-916 274-10 0-20-1-29-3-1 48 2 98 5 143 11 169 40 338 85 502 142 513 432 949 847 1280 416-331 706-768 848-1281 45-164 75-333 86-502 3-44 6-93 5-140z"/><g><path class="fil6" d="M3277 5875c-20 4-30 21-27 39 4 21 21 31 39 28 20-4 30-22 26-40-4-19-21-30-38-27zM3211 6108c9 50 37 59 93 50 3-1 9-2 17-3 5-1 10-2 16-3l8 43c-72 12-145 24-218 34l-43-324-36 31c-11 12-16 26-14 42l31 259c-40 4-80 9-120 12l-11-117c-28 17-44 28-48 32-7 7-10 17-9 30 1 11 4 35 6 60-15 2-29 3-45 4l-6-97c-31 18-47 27-49 29-7 6-10 18-9 34 0 5 1 17 3 37-15 1-30 2-46 2l-3-69-40 20c-19 9-20 18-19 51-40 1-81 2-121 2v-71c0-22-14-41-34-41-77-2-153-4-230-8-27-2-52 12-61 26l19-245c-27 13-40 20-41 20-13 10-21 22-22 37l-24 264c-43-4-85-9-128-14l13-108c-36 18-56 30-60 35-5 7-10 29-15 66-57-9-114-17-171-27l12-68-39 10c-18 5-29 11-35 18-7 8-12 21-15 39-1 4-6 38-7 42-9 43-26 68-73 58-67-15-57-57-51-122-12 0-24 7-35 22-10 13-16 26-19 39-7 29 0 56 22 81 20 22 46 37 80 44s66 1 96-18c29-19 46-44 52-76 53 9 107 17 161 25 54 7 108 14 163 20 54 5 108 9 162 13 55 3 109 6 164 7 54 1 109 2 163 2 55-1 109-3 164-5 54-3 108-6 163-10 54-5 108-11 163-17 54-7 107-14 161-22 54-9 108-19 162-29 15-3 20-19 14-48l-44-220c-8 20-30 33-68 40-5 1-10 2-14 3-7 1-11 1-14 2-26 5-44 11-54 19-15 13-21 32-17 58zm58-10c-1-10 7-20 17-22l36-6 7 35-38 7c-12 1-20-5-22-14zm-787 168c-89-2-177-6-266-12l4-52c77 5 153 9 230 11 21 1 32 9 32 23v30zM1695 6033c-21-3-37 8-41 27-4 20 9 36 27 40 21 4 37-8 41-26 4-21-9-37-27-41z"/><path class="fil6" d="M2016 6355c-22-2-38 11-40 30-2 21 13 35 32 38 22 2 39-11 41-30 1-20-13-35-33-38zM1917 6342c-21-2-38 9-41 29-3 21 12 36 32 39 21 2 38-10 41-29 2-20-12-36-32-39z"/></g></g></svg>