<svg xmlns="http://www.w3.org/2000/svg" width="802" height="864.116" version="1.0"><g fill-rule="evenodd"><path d="M414.44 200.69h-41.867c-28.8 62.249-4.934 72.06-11.47 74.558-5.353 2.034-10.706.26-16.059-.573 8.079 12.098 18.645 26.425 12.044 30.396-7.647-1.147-11.28-1.912-14.338-9.176l-1.72 34.41c-2.256 8.68-10.54 9.216-13.191-.573-6.095-51.42 4.565-99.032 32.117-142.805l-7.456-3.442c-9.546 16.847-29.163 22.056-24.088 68.822-4.724 6.357-8.265 5.62-11.47 2.868l-1.72 71.116c-3.485 7.365-7.269 12.786-13.765.574l-12.618-43.014c-6.288-18.418-14.864-60.939 27.53-89.469 14.476-10.68 27.58-20.672 38.998-29.823l-17.205 4.588c-41.803 38.355-100.124 50.274-91.763 140.512-2.95 6.652-7.495 9.832-13.19 1.147-5.974-22.04-16.472-42.701-3.442-75.704 17.667-28.833 38.156-49.165 66.528-69.97-23.07 2.878-46.725 1.46-65.38 36.706-5.73 11.973-10.117 9.194-14.339 4.588l-6.309 24.661c-6.966 10.43-16.723 1.198-12.617-8.029 4.78-11.47 21.634-119.927 126.174-77.425 11.78 5.627 22.556 3.89 5.162-9.75-12.684-6.3-30.508-31.591-71.69-12.617-16.557 14.27-15.727-5.243-6.309-12.044-18.271 8.082-35.81 18.359-51.043 35.558-9.682 8.536-15.997-.061-12.044-8.602 17.506-21.586 37.746-44.627 84.88-44.735 12.992-3.44 5.08-6.882 2.295-10.323-43.518-11.286-47.935 1.985-66.528 19.5-2.634 4.862-14.098 4.613-10.897-6.31 24.982-49.883 118.452-63.296 160.011 4.589 4.662 6.262 10.486 1.154 5.736-4.588-10.453-9.906-26.337-47.05-64.234-45.308-5.477.483-13.411-4.874-9.177-8.603-23.323-5.206-53.528 4.004-76.85 20.073-.732 2.069-22.184 4.213-18.927-8.029C246.251 6.832 336.36 14.168 366.264 63.62c-.358-9.35 2.846-29.814-20.646-34.41-8.768-11.809 30.4-29.892 38.999-26.383 19.032 5.709 16.1 16.909 17.779 26.956 1.372 7.586 3.899 10.557 10.323-.574 33.692-47.238 100.375-19.315 123.306-12.044 10.754 7.59 8.722 14.195-2.867 14.912l-44.735-5.735c4.581 2.216 5.995 8.96-2.867 8.602-24.169-4.357-38.866-.88-48.768 11.453.087.976-1.945 13.219-15.8 11.849-4.983.133-11.487 2.525-13.81 10.474-.835 4.8 3.186 6.56 6.641 4.156 24.46-22.44 85.889-46.74 138.265-12.123l29.25 27.529c11.275 11.814-5.254 18.008-9.75 10.896-41.905-38.117-76.659-30.058-116.425-18.352-1.495 4.514-3.716 9.443 5.162 8.029 70.556-20.68 127.382 22.33 137.07 63.087 3.42 24.369-10.533 22.168-17.205 9.75-7.592-17.452-12.045-41.544-24.087-39.573 0 0-2.771 9.286-13.765 5.735-4.793-1.548-14.234-19.795-29.823-21.22 2.414 8.4-44.51 9.895-70.542 9.176-2.651 3.119-6.21 6.388 0 8.03 66.695-16.308 120.075 3.129 157.717 64.807l13.19 32.117c8.941 35.948-8.66 34.6-22.366 17.206-17.983-25.605-33.79-53.385-54.485-76.278-2.081 11.363-7.609 8.944-12.617 8.602-29.045-26.188-54.764-27.43-80.866-31.543-3.333 3.535-7.075 7.128 0 9.176 48.84 11.668 117.365 34.974 118.718 141.086.191 13.719-15.676 32.815-23.514 8.602l6.309-36.131c2.759-5.67-2.086-11.48-5.736-8.603-5.561 5.347-9.344 4.767-10.323-5.162.816-8.542-2.162-18.033-7.456-28.102-3.842 13.95-10.99 9.71-17.779 7.456 0 0-31.536-34.75-35.108-36.051 41.396 65.287 17.067 99.066 11.02 110.034-6.8 4.758-14.61 8.241-16.058-2.867.953-11.968 1.658-21.003 10.897-29.823 6.094-10.959.42-14.166-4.015-13.764-9.322 2.461-7.272-20.096-9.75-32.69-9.666-.52-9.325-6.044-6.882-12.618 6.06-10.995-3.212-16.24-8.602-22.941l-11.47 2.868c21.809 37.059 27.244 88.478 24.087 114.13-2.519 9.8-14.28 15.824-20.647.573-.54-34.411-12.686-68.822-21.793-103.233z" fill="#00582b" stroke="#003000" stroke-width="2.66914774"/><path d="M466.574 4.936c-21.029.043-42.979 9.993-53.574 28.796-1.89 3.266-6.474 7.398-10.098 4.105-4.574-5.49-2.771-13.4-4.624-19.871-1.509-8.08-10.183-12.546-17.733-12.94-10.078 1.702-19.99 5.976-27.935 12.504-2.42 2.386-6.861 5.506-5.217 9.378 9.193 1.537 19.203 7.686 20.344 17.743 1.205 9.186.129 18.336 1.887 27.446-7.718-10.366-15.012-21.695-26.108-28.724-26.424-18.29-60.585-21.927-91.52-15.39-20.443 4.455-40.093 13.76-55.488 28.016-.522 4.694 5.77 5.615 9.289 5.515 6.57.434 10.867-5.341 16.476-7.716 22.15-12.42 48.9-19.573 74-12.696-1.213.984-6.13 2.426-4.319 4.69 5.488 4.617 13.014 1.444 19.388 3.392 19.072 3.323 33.709 17.93 44.34 33.228 3.57 5.362 8.24 9.972 11.662 15.402 1.88 4.201-2.027 10.08-6.823 8.273-6.087-2.048-7.48-9.212-11.66-13.423-18.888-24.9-51.453-38.494-82.366-35.32-26.322 2.143-53.357 15.41-66.13 39.324-2.068 2.933.259 8.071 4.14 6.023 3.7-2.233 5.981-6.273 9.34-9.02 7.866-8.373 17.562-16.598 29.619-17.07 11.244-.908 22.756 1.302 33.336 4.555 2.502 2.663 7.444 5.833 5.18 10.141-4.732 6.058-13.437 4.485-20.156 5.187-23.2 1.498-45.51 12.64-60.75 30.294-4.151 4.788-9.188 9.302-11.737 15.136-.973 3.165 2.018 7.527 5.392 5.202 5.945-3.168 9.185-9.573 14.69-13.383 12.677-10.86 27.239-19.768 42.932-25.47 2.806-.67 2.882 2.993.978 4.13-3.483 3.173-7.99 8.375-5.69 13.194 5.084-.246 7.964-5.62 12.926-6.58 15.878-6.835 35.258-7.6 50.338 1.722 7.883 4.713 15.253 10.333 22.585 15.583 3.437 2.94 8.547 7.22 6.61 12.27-3.116 4.528-9.65 2.345-13.787.752-19.553-7.984-41.518-14.125-62.378-9.232-18 3.615-33.129 16.345-42.896 31.715-10.827 16.52-16.33 35.725-21.595 54.526-1.275 3.817 3.03 9.1 6.694 5.602 3.739-3.464 2.83-9.213 4.73-13.643l4.381-17.13c2.61 2.089 4.586 6.933 8.48 6.333 5.621-5.53 7.67-13.757 12.962-19.714 9.85-13.485 25.765-21.745 42.28-23.27 8.885-1.186 17.822-1.93 26.71-3.104-28.482 20.084-55.326 43.897-73.076 74.316-7.35 15.59-8.098 33.746-3.842 50.283 2.17 8.453 4.565 16.883 7.687 24.991 1.256 2.04 4.437 3.637 5.861.82 2.908-4.47.164-9.654.726-14.628-1.004-26.206 5.658-53.794 23.59-73.631 19.934-23.006 48.215-36.208 70.267-56.766 8.843-2.262 17.57-5.103 26.663-6.243-16.842 15.348-35.766 28.135-53.79 41.987-14.9 12.531-24.111 31.66-23.62 51.231.12 20.232 8.789 38.838 13.595 58.17 2.464 6.35 2.74 14.143 7.861 19.113 2.586.935 3.966-3.115 4.689-5.072 1.302-6.766.223-13.828.849-20.749l1.355-55.943c2.075 2.413 6.515 7.61 9.785 3.838 2.952-2.407.298-6.515.833-9.726-1.149-16.751 2.596-34.75 14.36-47.326 4.32-5.107 9-10.045 12.02-16.084 3.511 2.805 9.22 2.655 11.521 6.93-25.066 38.505-37.265 84.995-33.718 130.748.577 5.147.073 11.078 3.03 15.507 2.75 2.971 6.07-.804 6.162-3.8.58-6.014.186-12.114.914-18.106.341-8.365.756-16.73 1.66-25.056 3.094 5.6 4.48 14.502 12.115 15.586 1.423.611 4.586 1.057 3.251-1.576-2.316-9.849-9.71-17.352-14.689-25.813-.559-3.33 3.925-2.74 5.827-1.935 3.852.615 7.93 1.863 11.775.567-4.661-11.179-4.899-23.66-2.297-35.374 2.676-13.784 8.045-26.856 13.86-39.575h45.528c9.087 34.745 21.525 69.273 22.465 105.531 1.379 4.185 6.455 9.091 10.865 5.906 6.7-4.83 4.89-14.08 5.289-21.246-.264-32.984-7.447-66.361-23.23-95.565-1.5-2.774-4.8-6.224.562-6.072 4.282-1.071 8.564-2.14 12.845-3.212 4.734 6.054 12.875 11.464 12.166 20.132.005 4.958-5.416 9.714-2.425 14.498 2.597 1.659 7.94.292 7.63 4.928 1.775 9.495.174 19.821 4.526 28.671 2.842 1 6.56-.432 8.882 2.26 4.982 4.575 2.424 12.803-1.653 17.092-4.853 5.145-7.678 11.757-8.346 18.773-.284 4.008-1.885 9.08.824 12.507 3.354 2 7.149-1.251 9.763-3.209 5.59-8.12 8.946-17.768 10.53-27.573 4.19-26.122-6.008-52.237-19.15-74.644-1.102-3.203-5.348-6.241-4.082-9.88 2.234-1.99 4.74 1.463 6.377 2.739 11.706 11.795 22.72 24.466 35.061 35.521 3.487 1.594 9.184 3.03 10.946-1.67 1.752-3.41 2.358-7.25 3.553-10.863 6.354 11.103 11.769 23.486 10.966 36.55.094 1.65 1.034 5.887 3.34 3.603 2.557-2.627 6.998-4.936 10.174-1.88 4.013 3.173 3.426 8.87 1.929 13.151-1.701 11.45-4.729 22.866-5.439 34.355 1.293 3.513 3.987 9.376 8.6 7.724 8.48-4.485 10.028-15.266 9.11-23.877-1.132-29.6-8.56-60.17-27.367-83.605-19.196-24.359-48.77-37.926-78.268-45.547-5.364-2.202-12.917-1.24-16.494-6.609-1.72-4.34 2.654-7.776 5.192-10.6 23.569 3.177 48.265 6.733 68.315 20.544 5.297 3.36 10.116 7.52 14.985 11.359 3.104.871 7.397.135 7.868-3.683.815-2.627 1.133-5.374 1.76-8.046 23.582 24.791 39.842 55.23 60.068 82.567 3.838 4.02 8.811 9.431 14.954 8.031 4.781-4.03 2.87-11.028 2.702-16.444-2.136-13.393-9.235-25.233-13.753-37.871-5.935-12.463-15.435-22.648-24.153-33.163-20.555-21.74-49.013-36.129-79.026-37.976-18.26-1.57-36.449 1.44-54.193 5.02-4.176-.369-6.994-5.911-3.678-9.048 1.53-2.85 4.615-5.083 7.924-3.994 20.766-.064 41.832.644 62.042-4.661 1.82-.279 2.813-1.511 2.276-3.21 1.3-2.947 5.135-.749 7.403-.566 11.19 2.975 17.953 13.208 26.09 20.505 4.281 2.252 10.442-.51 10.882-5.498 7.05-2.286 13.422 3.73 16.2 9.696 5.5 10.252 7.72 22.073 13.186 32.208 2.319 2.568 4.976 7.559 9.175 5.989 4.266-4.72 2.745-11.865 1.641-17.52-7.859-26.193-30.143-45.58-54.772-55.85-25.264-10.457-53.99-10.531-80.024-2.725-3.876.87-9.267-1.628-8.162-6.3.29-3.602 1.817-8.024 6.252-7.928 23.812-7.108 49.781-12.929 74.213-5.226 16.824 5.006 31.302 15.607 44.146 27.2 3.767 1.684 9.115-2.952 5.643-6.497-4.874-6.823-12.054-11.485-17.782-17.531-7.717-7.74-15.718-15.618-26.04-19.767-34.374-16.223-75.844-10.72-107.751 8.6-6.02 3.379-11.168 8.107-16.789 11.977-4.794 1.98-10.338-3.166-8.454-8.104 1.878-8.61 11.406-13.719 19.786-12.323 5.497-.247 9.678-5.378 9.942-10.587 8.724-11.94 24.604-15.871 38.717-14.444 5.232.158 10.64 2.072 15.762 1.246 1.818-2.62-2.904-3.258-4.02-4.995-1.962-1.764.533-4.046 2.585-3.351 16.077 1.685 32.046 4.808 48.152 5.613 2.442-.205 6.51-2.232 4.025-5.086-4.475-6.686-13.485-6.804-20.228-9.767-17.1-5.5-34.784-9.767-52.867-9.448z" fill="#006c35"/><path d="M466.6 7.525c-20.865-.129-42.57 10.441-52.595 29.38-2.808 4.222-9.874 6.883-13.462 2.13-6.185-7.653-1.144-19.306-8.064-26.501-5.313-5.21-13.629-5.96-20.181-2.763-8.601 2.999-17.54 7.39-22.656 15.093 10.829 1.71 21.287 11.042 20.969 22.628.575 11.198.516 22.46 2.958 33.43-11.376-13.141-19.961-29.764-35.782-38.189-29.557-17.908-66.979-19.07-99.177-8.344-14.366 4.882-28.053 12.281-39.264 22.676 3.07 2.868 8.35 2.156 11.856.47 5.7-3.534 11.224-7.347 17.431-9.986 22.367-10.955 48.97-15.71 73.045-7.622-1.566 2.271-4.404 3.544-6.48 4.803 6.52 2.48 13.83-.008 20.363 2.714 19.71 5.072 34.116 21.094 45.036 37.392 3.464 4.924 9.181 9.177 9.865 15.527.158 5.92-6.998 10.981-12.242 7.556-6.814-3.65-8.576-11.98-14.079-17.002-21.865-26.146-59.697-37.278-92.41-28.542-20.497 5.102-40.268 17.46-49.616 36.914.342 2.606 3.084.088 3.63-1.048 9.707-10.06 20.095-22.113 34.839-23.92 12.816-1.537 25.973.597 38.012 4.97 3.798 3.09 8.715 8.351 5.502 13.504-5.465 7.16-15.653 5.68-23.377 6.365-24.33 1.795-47 15.019-61.956 34.087-2.678 3.255-6.983 6.676-6.78 11.2 1.664 1.935 3.558-1.55 4.927-2.136 5.361-5.318 10.332-11.079 16.676-15.294 11.971-9.1 25.157-17.248 39.659-21.423 4.806.206 5.122 7.381 1.241 9.27-1.993 2.005-4.633 4.608-4.68 7.392 4.105-2.527 7.89-5.812 12.765-6.857 17.832-6.916 39.44-5.52 54.846 6.437 8.125 5.733 17.118 10.775 23.639 18.41 3.078 3.879 2.83 10.986-2.453 12.748-7.822 2.919-15.217-2.782-22.482-4.802-20.755-7.59-44.719-11.08-65.236-.837-20.147 10.209-32.842 30.769-40.2 51.577-3.418 9.786-6.957 19.728-8.793 29.896.62 2.312 3.42 1.66 3.644-.519 2.043-5.528 2.438-11.528 4.464-17.081 1.225-4.787 2.45-9.575 3.673-14.362 4.023 1.453 5.383 6.073 9.027 7.928 5.817-7.253 8.761-16.485 15.549-23.04 11.807-13.257 29.575-19.79 47.018-20.601 9.954-1.101 19.895-2.27 29.852-3.393-31.217 21.808-62.032 46.784-80.876 80.603-8.434 18.919-6.134 40.36.525 59.54 1.481 4.217 2.178 9.43 5.051 12.796 2.5-2.485.513-6.883.746-9.983-1.864-28.721 5.563-59.361 25.712-80.729 20.225-22.077 47.761-35.556 69.638-55.608 11.589-3.146 23.227-6.542 35.276-7.312-19.357 18.884-42.346 33.387-63.153 50.507-15.943 15.148-22.74 38.788-17.88 60.222 3.677 18.794 10.9 36.646 15.527 55.2.636 1.641 1.58 4.273 2.93 4.74 3.36-6.55.9-14.191 1.86-21.22.576-21.162 1.06-42.326 1.578-63.49 3.792 2.35 5.295 7.952 9.985 8.68 2.428-2.678-.357-6.475.398-9.705-1.194-18.282 4.347-37.583 17.661-50.62 4.16-4.765 8.043-9.666 10.515-15.464 4.3 4.878 13.072 4.24 15.388 11.16-27.316 41.288-39.567 92.347-32.996 141.39.092 1.997 2.292 4.363 2.855 1.146.898-17.098 1.328-34.31 3.443-51.345 5.4 5.85 5.598 14.884 11.776 20.055 2.35 1.737 2.827.461 1.482-1.76-3.262-8.273-10.493-14.494-13.46-22.784.1-4.508 5.897-5.453 9.202-3.797 2.464.335 5.194 1.23 7.45.924-6.61-19.253-.9-39.996 6.114-58.278 2.261-5.787 4.78-11.469 7.368-17.116h49.188c9.306 35.568 21.92 70.889 23.168 107.976 1.031 3.302 5.921 6.35 8.173 2.473 4.328-6.285 2.065-14.293 2.635-21.418-.71-33.286-8.946-66.477-25.448-95.51-1.021-3.716 3.463-5.422 6.394-5.287l12.869-3.219c5.299 6.882 14.263 13.013 13.793 22.719.5 4.609-4.002 8.24-3.036 12.814 3.515.495 8.467 2.042 8.23 6.457 1.676 8.89.09 18.386 3.853 26.842 4.575-.26 9.653 1.624 11.266 6.277 3.302 7.678-1.97 15.488-7.068 20.89-4.394 6.832-5.6 15.399-5.084 23.227 2.523 1.762 5.363-1.742 7.034-3.355 6.02-9.1 9.026-19.753 10.002-30.518 2.09-25.855-8.949-50.692-22.184-72.34-2.832-2.685-2.817-8.625 1.502-9.695 4.128-.345 6.897 3.768 9.757 6.147 10.756 11.224 21.149 23.068 32.897 33.248 2.5 1.388 6.964 1.602 7.376-2.119 1.84-4.79 2.678-9.904 4.66-14.65 7.977 13.054 15.026 27.74 14.306 43.422 4.054-4.06 11.847-3.904 14.652 1.546 4.125 6.786-.307 14.66-.828 21.777-1.451 8.509-3.88 17.074-3.642 25.645.783 2.317 3.303 6.833 6.116 4.036 7.36-5.851 6.614-16.297 5.903-24.711-1.707-31.162-11.322-63.458-33.917-86.089-21.519-21.515-50.822-32.502-79.977-38.885-4.812-1.049-9.885-5.646-8.057-10.951 1.128-3.723 4.367-6.178 6.804-9.018 25.935 3.28 53.23 7.634 74.676 23.761 4.225 2.667 7.546 7.181 12.326 8.699 4.126-.504 2.984-5.887 4.104-8.707.713-1.594.486-7.132 2.27-5.169 25.624 25.768 42.197 58.699 64.4 87.078 2.603 2.581 5.945 5.976 10.034 5.3 3.466-5.504 1.136-12.33.266-18.254-3.574-12.752-9.491-24.832-14.929-36.925-7.859-13.05-17.828-24.673-28.81-35.293-23.137-20.87-54.525-31.967-85.408-30.177-13.38.404-26.633 3.587-39.864 5.153-6.078-1.317-8.335-9.887-3.682-14.006 2.48-3.883 7.443-4.906 11.68-4.016 19.852-.12 40.064.688 59.37-4.797.188-3.832 4.501-5.503 7.752-4.267 12.273 2.037 20.532 12.15 28.717 20.547 3.02 3.403 8.937.088 8.114-4.208 8.159-3.873 17.314 2.368 20.697 9.845 6.58 11.415 7.734 25.63 16.076 35.892.918 1.391 3.498 2.8 3.653-.099 2.52-8.47-1.626-17.113-5.162-24.655-13.455-25.504-39.752-42.137-67.461-47.987-20.298-4.27-41.562-2.024-61.393 3.492-5.668.454-11.203-5.222-9.14-10.912.471-4.835 4.556-9.103 9.53-9.067 24.374-7.298 51.188-12.617 75.99-4.16 16.473 5.16 30.367 16.036 43.374 26.892 2.383-.039 2.878-2.99.751-3.985-7.188-8.35-16.258-14.812-23.639-22.988-15.32-14.483-36.6-20.55-57.334-21.503-29.517-1.073-59.05 9.826-81.712 28.854-5.462 4.269-13.933-.457-14.003-7.14.111-9.923 9.936-17.329 19.373-17.547 3.358.3 7.183.17 9.02-3.227 1.984-2.898 1.562-6.749 4.583-8.991 11.491-12.341 30.066-14.718 45.886-11.639 1.13.074 4.119 1.056 2.136-.52-3.126-3.164.48-8.202 4.482-7.608 16.376 1.796 32.709 5.192 49.096 5.584 2.927-.478-.28-2.286-1.095-3.199-6.204-4.46-14.207-4.824-21.086-7.833-15.41-4.72-31.306-8.213-47.611-7.936z" fill="#00803f"/><path d="M466.64 11.41c-20.36-.375-41.127 10.836-50.612 29.284-4.686 5.888-15.597 6.628-19.485-.506-5.682-7.55-.818-18.782-7.669-25.68-6.273-5.164-15.072-1.827-21.411 1.354-3.87 1.804-7.794 3.76-10.834 6.896 11.378 4.291 19.475 16.375 18.02 28.626.351 14.488 1.746 29.063 6.138 42.97-15.162-13.416-23.758-33.026-40.025-45.176-29.528-20.284-69.208-22.32-102.388-10.581-10.518 3.772-20.64 8.74-29.468 15.567 5.829-2.784 10.727-7.216 16.798-9.589 23.118-11.57 50.503-16.424 75.655-9.03 2.946.26 5.554 3.789 3.795 6.524 19.772.271 37.034 13.004 49.087 27.78 5.772 7.235 11.294 14.667 16.963 21.965 3.937 5.19 4.376 13.398-.943 17.81-5.096 4.674-13.836 4.106-18.065-1.455-5.798-6.087-8.868-14.362-15.556-19.685-24.746-24.88-65.095-32.125-97.08-17.969 14.119-1.633 28.867.28 41.886 6.073 5.516 3.932 10.18 12.225 5.736 18.522-5.92 7.958-16.995 7.662-25.891 7.892-1.342.252-4.734-.264-2.34 1.37 1.668 2.016 2.34 4.763 1.988 7.336 19.461-7.382 42.885-5.573 59.607 7.425 8.415 6.45 18.632 11.398 24.611 20.47 4.273 6.342.728 16.128-6.89 17.693-4.553.879-9.267.092-13.548-1.578-32.965 22.818-66.25 47.99-86.437 83.402-7.715 15.894-6.564 34.528-1.881 51.12.272-28.384 10.23-57.544 31.24-77.28 20.368-19.951 45.872-33.69 67.243-52.325 15.062-4.31 30.513-8.14 46.293-7.902-7.846 7.925-16.039 15.517-24.729 22.511 5.323 2.43 12.195 5.033 13.51 11.509a42.573 42.573 0 01-2.318 4.874h53.777c9.617 36.73 22.457 73.227 24.215 111.446 1.5 1.904 1.658-1.106 2.114-2.105 2.025-7.927.158-16.162.465-24.221-1.67-30.35-10.165-60.314-25.034-86.808-1.655-5.69 4.488-10.483 9.771-10.096l14.769-3.696c2.937 3.899 6.31 7.25 9.507 10.951.797-5.163 7.022-9.2 11.765-6.192 7.957 4.252 12.748 12.328 19.344 18.224 7.13 7.306 13.82 15.743 22.404 21.119 1.271-2.532 1.414-5.703 2.59-8.374 1.335-4.743 3.067-9.375 5.316-13.763 8.876 13.734 17.2 29.067 18.78 45.367 3.03-.795 6.634-.004 9.156 1.122-6.653-25.61-22.13-49.63-44.918-63.887-19.34-12.856-42.066-19.457-64.297-24.904-6.921-2.828-10.406-12.55-5.46-18.584 1.075-2.04 3.816-3.864 4.527-5.526-7.795-3.499-9.11-15.472-2.49-20.777 5.789-6.45 15.396-3.777 22.919-4.152 15.823-.096 31.814.143 47.041-4.27 2.763-5.914 10.613-6.031 15.837-3.677 11.305 3.44 18.846 13.388 27.257 20.79 1.435-.697.741-2.662-.332-3.373 3.664-2.713 8.4-3.863 12.894-3.075-24.125-18.345-56.181-24.331-85.677-18.399-6.369.853-12.605 3.658-19.06 3.382-7.898-1.424-12.618-10.95-9.18-18.158 2.025-6.504 8.918-9.632 15.202-10.294 25.45-7.537 53.763-11.653 79.14-1.564 4.763 1.74 9.928 4.44 13.914 6.723-14.885-15.275-36.876-21.694-57.71-22.288-27.814-.74-55.166 9.69-76.767 26.859-4.822 5.64-13.86 4.343-18.28-1.002-4.342-4.38-3.928-11.24-1.174-16.342 4.544-9.218 15.357-14.003 25.282-13.173 3.874-2.4 2.92-8.242 6.724-10.9 11.492-12.343 29.718-15.758 45.852-13.393.83-6.022 8.032-9.274 13.427-7.154 9.59 1.138 19.091 2.781 28.676 3.89-13.688-4.121-27.27-8.43-41.588-9.505a110.87 110.87 0 00-11.698-.438zm17.564 115.795c-10.797-.076-21.403 1.996-32.07 3.638 25.908 3.667 53.041 10.615 72.665 28.959 1.558 1.758 2.79 1.24 2.656-1.115.882-3.683.355-9.44 4.717-10.948 4.879-.817 7.106 4.754 10.209 7.319 23.254 25.278 38.71 56.5 60.54 82.832.906.657 3.272 3.554 3.129.884.896-10.642-4.28-20.262-7.761-30.08-5.502-14.244-13.24-27.606-23.439-39.01-16.851-20.179-40.11-35-66.01-40.023a117.86 117.86 0 00-24.636-2.456zm95.81 8.186c2.687 7.354 4.633 15.072 8.687 21.845-.493-8.191-4.473-15.66-8.888-22.389zm-301.928 9.503c-19.432-.24-37.775 10.525-48.809 26.366-5.018 6.942-9.597 14.905-12.396 22.815 2.108.987 3.76 3.974 5.289 4.601 5.957-10.212 12.086-20.885 22.107-27.675 14.015-10.524 31.894-13.751 49.012-14.662 8.605-.965 17.208-1.99 25.824-2.912-13.036-5.17-26.89-8.733-41.027-8.533zm53.824 49.156c-12.553 9.47-26.96 18.464-33.515 33.467-7.234 15.204-7.424 32.952-2.3 48.785 3.015 11.755 6.863 23.272 10.376 34.882.483-24.736 1.4-49.455 1.844-74.196 4.35.69 7.706 3.859 10.283 7.15-1.487-17.998 3.145-36.813 14.581-51.017l-1.27.929zm30.902 5.522c-12.14 20.996-20.502 44.257-24.668 68.083 3.425-3 8.335-2.834 12.325-1.208-5.088-23.366 3.85-46.758 13.114-67.863.935-1.88-.459.543-.77.988zm101.14 3.745c.15 3.41-1.654 6.962-2.634 9.69 5.633 1.366 8.709 7.305 8.305 12.782.893 6.524-.322 13.818 2.573 19.747 3.23.199 6.68 2.274 8.732 3.979-2.015-16.57-8.79-32.287-16.969-46.686zm87.333 69.454c-1.1 8.374-3.916 16.738-3.552 25.256.57 2.736 2.397-1.683 2.948-2.611 2.972-7.573 1.009-15.428.718-23.228zm-71.33 1.714c-4.146 4.74-7.343 10.358-7.744 16.763-.255 1.553-.541 3.98.888 1.26 3.375-5.38 5.517-12.05 6.855-18.023z" fill="#009449"/><path d="M380.347 18.335c-4.125.32-7.927 2.174-11.5 4.137 9.961 8.187 13.954 21.845 12.433 34.363.623 19.736 5.475 39.355 13.674 57.354a1938.605 1938.605 0 01-14.356-11.318c-1.12 10.157-11.484 18.427-21.691 16.166-8.836-1.51-14.766-9.102-18.79-16.515-12.95-18.652-35.144-30.117-57.33-32.274 9.089 4.282 15.208 15.368 11.491 25.17a16.941 16.941 0 01-3.587 5.717c15.696 1.206 30.162 8.768 42.093 18.7 9.006 5.993 19.359 13.539 20.696 25.134.493 1.464-1.464 5.025.97 4.041 13.507-2.752 27.427-3.557 41.144-2.076-8.459 9.673-17.97 18.337-27.422 27.015 3.851 2.651 7.128 6.57 7.942 11.283 13.534-.53 27.41.45 40.72-.323 1.966-7.83 10.34-11.993 17.885-12.18l15.518-3.885c2.385 2.183 3.742 6.178 6.496 7.459 6.883-5.107 17.057-2.539 22.16 3.903 10.058 9.113 18.36 20.103 28.364 29.164a118.822 118.822 0 014.695-12.425c-20.91-19.573-49.116-28.497-76.52-34.767-11.297-4.191-16.531-20.525-8.134-29.718-8.735-10.224-2.531-28.45 10.65-31.268 1.955-.856 5.325-.708 6.412-1.29-7.817-6.972-8.241-19.983-1.686-27.946-8.57 4.281-16.135 10.056-23.724 15.803-12.345 6.5-29.169-5.125-27.52-18.983.284-6.84 4.324-13.344 8.842-17.822-9.05-2.922-13.721-12.97-13.385-21.99-.218-4.103-.537-11.283-6.54-10.629zm41.963 23.753c-.283 1.008.65-.83 0 0zm71.849 92.059c10.1 3.747 19.813 8.711 28.377 15.285.995-2.88 3.462-5.425 5.667-7.017-10.914-4.792-22.55-7.463-34.343-8.377zM277.23 151.353c-8.994-.013-18.17 2.968-25.72 7.667 8.397-3.994 17.487-6.376 26.673-7.676l-.648.006zm276.396 6.784c15.093 17.901 26.96 38.225 40.422 57.271-8.34-22.355-21.957-43.253-41.033-57.997l.417.495zm-239.563 58.236c-3.729 3.94-7.669 8.977-9.466 13.626 2.533.122 5.073.47 7.485 1.275.372-5.266 1.317-10.483 2.664-15.585l-.458.458zm-12.302 19.86c-3.831 10.92-3.194 22.59-.724 33.834.306-11.369.607-22.737.824-34.108zm238.264 1.356c-2.229 2.343 2.237 2.196.486.097a.867.867 0 00-.486-.097z" fill="#00a853"/><path d="M305.619 87.54c.567 2.286-1.51 6.135 1.755 6.365 7.04 2.25 13.74 5.484 20.047 9.32-5.775-7.213-13.595-12.25-21.83-16.161zm118.929 8.71c-7.59 4.25-17.247 5.28-25.126 1.19 4.15 11.997 9.703 23.5 15.559 34.774-2.152-5.633-2.793-12.077-1.323-18.055 1.62-7.121 5.648-13.734 11.445-18.214zm-40.12 23.02c-6.112 7.561-16.672 11.07-25.817 10.437a38.877 38.877 0 013.665 7.468c16.915-2.427 34.156-1.262 50.927 1.683.159-1.731-3.098-1.724-4.142-2.89-8.73-4.713-16.852-10.844-24.632-16.698zm28.43 22.735c-8.39 12.305-20.024 22.326-29.938 32.961 9.008-.837 18.278.525 27.369-.362 2.7-4.175 7.239-7.106 11.314-9.351-6.03-6.044-9.122-14.935-8.745-23.248z" fill="#009449"/></g><g fill="none" stroke="#003000" stroke-width="4.123" stroke-linecap="round"><path d="M245.444 238.1c42.044-77.474 100.833-77.792 147.436-94.183l-33.074 34.163h0M320.063 166.774c-8.922 10.528-14.96 12.995-27.052 29.863M352.213 225.352l40.146-80.579c24.314 25.634 47.019 59.818 53.337 112.983" stroke-width="2.66914774"/><path d="M428.747 173.214c6.68-28.941-16.727-26.96-36.518-28.695 36.677-.283 55.449 12.225 60.02 34.876M392.003 143.896c63.143 4.638 118.297 44.73 151.888 96.518M475.384 171.997l12.978 28.793M495.661 186.596l10.139 29.2M228.006 177.675c23.221-24.64 56.389-35.113 89.747-34.614M235.306 70.613c53.112-1.474 105.325 11.99 151.671 65.697C427.011 74.38 472.45 34.44 547.976 67.368" stroke-width="2.66914774"/><path d="M225.179 43.547c32.263-14.651 130.548-44.96 162.305 91.763L381.75 20.606M390.746 26.283l-7.957 15.602M396.624 48.363l-12.544 18.9M363.433 21.838c8.253 8.065 14.093 17.163 19.713 26.356M382.414 131.347c-13.095-10.65-27.688-6.314-41.77-7.107M363.658 112.997c-18.249-6.405-36.498-3.457-54.747-3.458M342.57 97.586c-18.506-3.159-37.234-6.896-53.124-3.255M268.154 62.305l22.711 13.169M281.942 79.844l26.767 1.206M438.88 60.89c-4.603 10.808-9.033 21.66-17.842 31.418M404.01 129.117c49.118-35.938 100.935-44.665 156.538-15.219M424.286 44.968C435.58 23.1 459.78 12.293 501.339 16.366M385.354 93.632c4.08-8.965 8.242-17.344 13.384-18.868M413.742 135.403c96.585-17.524 159.58 12.309 190.198 87.788M488.767 132.158l20.683 20.47M548.38 152.84c17.807 21.682 35.504 43.46 43.8 73.595" stroke-width="2.66914774"/></g><g fill-rule="evenodd"><path d="M395.41 174.05c-2.651 0-6.515 1.954-9.566 4.731-8.651 7.872-19.083 28.276-19.083 28.276l10.324 6.882.573 13.765h-12.044l11.471 12.043v12.618l-13.765.573 13.429 12.548.312 9.474-11.564-.177 11.47 12.045v12.616l-13.764.575 13.428 12.548.158 15.729-11.639.406 11.47 12.043v12.618l-13.764.573 13.429 12.548.312 9.474-11.564-.177 11.47 12.045v12.616l-13.764.574 13.428 12.549-.167 11.678-12.521-.804 12.166 15.41v10.544l-12.978.81 12.166 13.383v12.977l-12.977.406 14.6 16.221.405 12.978h-12.978l12.978 13.383v12.572l-14.194-.812 13.788 18.655-.406 15.186h38.722l-.406-15.186 13.789-18.655-14.195.812V520.55l12.978-13.383H413.96l.406-12.978 14.599-16.221-12.977-.406v-12.977l12.167-13.382-12.978-.81v-10.545l12.166-15.41-12.522.804-.167-11.678 13.428-12.549-13.764-.574v-12.616l11.47-12.045-11.564.177.313-9.474 13.428-12.548-13.765-.573v-12.618l11.471-12.043-11.639-.406.158-15.73 13.428-12.547-13.764-.575v-12.616l11.47-12.045-11.564.177.313-9.474 13.428-12.548-13.765-.573v-12.618l11.471-12.043h-12.043l.572-13.765 10.324-6.882s-10.431-20.404-19.082-28.276c-3.052-2.777-6.915-4.731-9.567-4.731z" fill="#00582b" stroke="#003000" stroke-width="2.66914774"/><path d="M395.18 177.665c-9.606 2.478-14.174 12.356-19.382 19.816a194.374 194.374 0 00-5.557 9.685l9.472 6.314.732 17.583c-2.824.747-6.429-.19-8.77.197 2.644 3.286 7.196 5.843 8.096 10.1v14.453c-2.448.617-9.93-.597-9.405 1.101 3.052 3.054 7.292 5.71 9.062 9.611-.449 3.89 1.598 8.294-.753 11.835-2.347.68-4.787-.057-7.156-.089 2.642 3.349 7.195 5.886 8.134 10.169v14.452c-2.446.62-9.951-.601-9.4 1.11 3.086 3.016 7.114 5.656 9.064 9.504l.18 17.978c-2.667 1.112-6.209.068-8.492.532 2.662 3.424 7.364 5.97 8.302 10.341v14.454c-2.447.617-9.934-.597-9.404 1.101 3.052 3.057 7.292 5.711 9.061 9.61-.45 3.89 1.598 8.295-.753 11.836-2.347.68-4.787-.057-7.156-.089 2.641 3.349 7.195 5.886 8.134 10.169v14.452c-2.617.504-9.098-.358-9.673.864 3.16 3.124 7.392 5.812 9.337 9.813l-.204 14.31c-3.197.165-6.354-.485-9.54-.579 3.057 4.14 7.023 7.888 9.222 12.516v12.892c-3.336.62-6.782.27-10.113.686 3.097 3.667 7.209 6.848 9.301 11.159v15.397c-3.07.678-7.816-.26-9.768.627 3.775 4.467 8.534 8.437 11.388 13.499.164 5.216.325 10.432.492 15.648-2.485.404-8.82-.8-9.094.527 3.052 3.303 7.042 6.23 9.01 10.266v15.314c-3.824-.22-7.649-.438-11.473-.657 3.66 5.251 8.271 10.12 11.067 15.827l-.335 12.528h33.436c.25-4.782-1.306-10.163.523-14.657l10.121-13.694c-3.825.22-7.65.436-11.476.656.587-5.652-.898-11.698.787-17.12l8.718-8.99c-2.742-.854-9.182 1.755-9.488-1.38.524-5.226-.406-10.85 1.11-15.92 3.457-3.997 7.837-8.4 10.735-12.15-3.262-.054-6.946.587-9.808-1.41.487-5.31-.828-10.946.703-16.054 2.606-3.088 6.51-6.722 8.325-9.478-3.3-.153-7.039.36-9.887-1.72.72-5.705-1.91-12.685 3.442-16.959.867-2.047 7.214-7.193 4.501-7.22-2.588.196-6.94 1.297-8.215-1.393.424-4.74-1.153-9.934.65-14.4l8.91-8.328c-3.053-1.058-10.195 1.652-10.042-2.36.309-4.938-.823-10.228.686-14.945 1.503-2.216 7.572-6.7 6.363-7.57-2.442.484-7.005.775-7.156-2.688.491-4.478-1.295-10.762 3.584-13.493 1.572-2.239 9.872-6.972 3.213-6.159-3.507-.21-8.336.909-6.78-4.038.325-4.438-1.131-9.66 1.108-13.601 1.605-2.237 6.846-6.154 6.512-7.494-2.792.449-7.943.59-7.835-3.429.52-5.57-.854-11.603.972-16.894l8.912-8.327c-3.054-1.058-10.196 1.652-10.043-2.36.309-4.938-.823-10.228.686-14.945 1.503-2.215 7.572-6.7 6.363-7.57-2.442.484-7.005.775-7.156-2.688.491-4.478-1.295-10.762 3.584-13.493 1.571-2.238 9.872-6.972 3.213-6.159-3.507-.21-8.336.909-6.78-4.038.324-4.438-1.13-9.658 1.106-13.601 1.272-2.086 7.892-6.769 5.772-7.211-2.642.529-7.814.643-7.479-3.279l.604-14.488 9.447-6.298c-5.965-10.09-11.24-21.699-21.394-28.344-1.274-.664-2.712-1.32-4.174-1.173z" fill="#006c35"/><path d="M395.736 179.63c-9.588 3.132-13.603 13.477-18.978 21.082-.437 1.904-4.465 4.781-1.504 5.899 3.403 2.138 8.667 4.272 7.47 9.32l.683 16.412c-1.26.79-4.35.603-4.784 1.162 3.397 3.177 4.988 7.93 4.027 12.487-.445 3.602.875 8.572-.627 11.354-1.58.72-4.663.357-5.378.78 3.672 2.786 6.467 7.054 5.816 11.824.622 3.741.535 9.419-4.018 10.552 3.595 3.317 5.12 8.453 3.993 13.197-.118 3.59 1.041 7.57-.972 10.84-1.692.44-3.449.522-5.188.454 3.772 2.925 7.178 7.424 5.967 12.473l.151 15.055c-1.5.784-3.15 1.284-4.844 1.371 3.694 3.247 5.72 8.226 4.636 13.1-.446 3.601.876 8.571-.627 11.352-1.58.721-4.668.355-5.378.78 3.673 2.785 6.468 7.054 5.816 11.824.622 3.741.535 9.419-4.018 10.552 3.596 3.318 5.12 8.454 3.993 13.2-.13 3.59 1.057 7.601-.987 10.867-1.695.435-3.454.438-5.19.397 3.812 2.944 7.244 7.549 5.87 12.628-.057 4.024-.113 8.048-.172 12.072-2.103.185-4.22.205-6.325.033 3.925 4.108 7.593 9.616 5.86 15.556.098 2.954 1.704 8.262-2.379 9.389-1.283.614-5.599-.36-3.56 1.31 3.697 3.31 6.457 8.114 5.309 13.213v12.184c-2.104.765-5.03.693-6.804.882 4.371 4.352 9.743 9.402 8.584 16.263l.402 12.76c-1.962.44-3.98.55-5.983.412 3.664 3.15 7.055 7.715 5.829 12.828v13.238c-2.953.394-5.878-.367-8.823-.438 4.19 5.37 10.196 11.478 8.179 18.967-.178 1.633-.927 5.239 2.151 4.001h25.961c-.637-6.016-.943-13.133 3.902-17.604 1.017-1.945 3.511-3.783 4.144-5.39-2.743-.213-7.285 2.231-8.787-1.247.63-6.542-1.462-13.699 1.521-19.877 1.016-1.547 3.928-3.353 3.892-4.262-3.266.33-6.454-2.611-5.27-5.999.278-6.32-1.32-14.118 4.174-18.784 1.524-1.635 3.118-3.208 4.542-4.934-3.442.132-8.098-2.247-6.694-6.294-.11-6.314-1.663-14.22 4.156-18.716 1.325-1.264 2.699-2.445.085-2.322-3.095-.32-6.203-2.907-5.174-6.312-.241-5.622-.708-12.462 4.074-16.467.565-1.143 2.92-2.642.447-2.436-3.406-.21-5.602-3.557-4.79-6.808-.437-5.417-1.398-12.757 4.022-16.25 1.162-.983 1.992-1.567-.079-1.47-3.15-.225-5.314-3.455-4.427-6.399-.076-6.177-1.641-14.12 4.302-18.283-3.393-.797-5.31-4.457-4.44-7.735-.414-5.036.403-11.005 5.115-13.86 1.995-1.386-1.944-.614-2.961-1.628-4.166-2.09-1.473-7.24-2.284-10.781-.623-4.978.62-10.497 4.913-13.525-3.666-.727-5.984-4.647-4.904-8.213.297-5.678-1.476-12.488 2.33-17.373.781-1.017 3.522-2.518 3.273-3.078-3.312.25-6.8-2.583-5.823-6.041.12-6.167-1.824-14.14 3.997-18.462.01-.782-2.788-1.382-3.318-2.861-1.795-3.007-.478-6.699-.73-10.01.067-4.17 2.68-7.568 5.971-9.832-3.537.377-7.55-2.586-6.128-6.46.12-5.967-1.42-13.407 3.822-17.784 1.374-.883-1.787-.872-2.234-1.853-4.143-3.226-1.232-9.014-1.777-13.277.286-3.44-.84-7.853 3.178-9.254 1.874-1.22 4.055-2.116 5.542-3.841-5.689-9.473-10.65-20.983-21.188-25.942-.183-.024-.379-.078-.552.031z" fill="#00803f"/><path d="M395.54 183.365c-8.1 4.043-11.317 13.393-16.36 20.404 4.82 2.408 8.831 7.602 7.497 13.22-.055 5.667 1.047 11.644.334 17.135-.847 1.034-2.768.925-1.274 2.593 1.939 5.983.412 12.377.807 18.507-.275 1.78-1.054 3.577-2.503 4.705 3.174 5.712 3.36 12.972 1.267 19.051-.758 1.084-2.017 2.105-.41 3.187 2.928 6.202 1.286 13.285 1.436 19.852-.07 1.934-1.865 3.666-2.238 5.12 4.248 7.247 1.061 15.84 2.28 23.655.062 1.77-.41 3.845-2.086 4.766 3.387 6.495 1.437 14.084 1.733 21.04-.309 1.653-1.092 3.283-2.443 4.33 3.168 5.714 3.36 12.974 1.261 19.052-.765 1.084-2.009 2.102-.41 3.183 2.914 6.177 1.313 13.217 1.487 19.765-.025 1.984-2.08 3.69-2.3 5.185 4.024 6.453 1.056 14.182 1.939 21.206.072 1.872-.836 4.24-2.566 4.714 3.17 5.204 2.1 11.417 2.301 17.154.017 2.74-1.773 5.463-3.472 7.009 4.369 6.665 1.927 14.856 2.567 22.25-.077 1.989-.952 4.113-2.825 5.03 5.261 5.537 4.984 13.633 4.62 20.713.203 2.95 1.511 7.375-1.723 9.12 3.954 7.16.926 15.531 1.933 23.227.208 2.44-2.14 4.098-4.417 3.613 2.9 4.261 4.8 9.555 3.859 14.747 6.6-.252 13.206.027 19.808-.045-.272-5.24.802-10.767 3.92-15.048-3.686-1.313-5.11-5.567-4.174-9.11-.404-6.278-.83-13.436 2.382-18.872-4.195-4.258-1.902-10.72-2.423-16.007.094-4.923 2.32-10.026 5.307-13.478-3.649-2.567-3.73-7.337-3.456-11.302-.59-5.35.558-11.296 2.809-15.783-3.92-2.736-4.047-7.876-3.706-12.146-.048-4.522.75-9.226 3.258-13.071-4.866-4.1-3.425-11.166-3.615-16.754.146-2.862 1.191-5.794 2.43-8.192-4.227-4.214-2.478-10.727-2.884-16.032-.01-3.354 1.285-6.815 2.22-9.766-3.697-5.23-2.44-12.311-.914-18.069.436-1.665 2.419-3.18.298-4.401-2.905-4.634-1.41-10.408-1.711-15.563.122-3.23 1.52-6.511 2.467-9.323-4.176-5.015-1.995-11.94-2.52-17.858.142-3.438.788-6.99 2.717-9.906-4.313-3.888-2.615-10.215-3.047-15.291-.077-3.633 1.24-7.418 2.215-10.626-3.609-4.881-2.034-11.447-1.383-16.967.185-1.997 3.205-3.902.935-5.36-3.3-4.27-1.499-9.922-1.839-14.83.119-3.288 1.174-6.647 2.095-9.637-4.753-5.528-1.408-13.17-2.169-19.64.035-4.617 3.507-8.437 7.66-9.845-4.677-7.425-8.57-16.37-16.724-20.73z" fill="#009449"/><path d="M395.584 189.518c-3.954 3.44-6.921 8.436-8.753 13.049 4.938 4.61 6.172 11.979 5.178 18.49.431 5.224 1.373 10.802-.672 15.768 1.177 6.975.862 14.219-.08 21.187-.518 1.688-1.576 3.135-.344 4.796 2.07 6.136.784 12.826-.552 18.85 2.668 7.803 1.768 16.538.225 24.366-1.58 2.035.98 4.017.717 6.296.914 7.407.051 14.963-.064 22.295-1.948 2.068.09 4.023.043 6.311.713 6.73.575 13.936-1.301 20.318-.796 1.3 1.192 2.943.942 4.506 1.308 5.473.556 11.357-1.202 16.517 3.009 7.67 1.754 16.327.768 24.199-.662 1.015-1.648 2.342-.345 3.277 1.924 7.7.526 15.787.181 23.531-1.068 1.347-1.362 2.88-.387 4.305 1.192 7.186 1.647 15.211-1.777 21.74 3.011 8.005 1.505 17.01.905 25.373-1.849 1.45 1.237 3.337 1.094 5.152 2.25 7.802 1.57 16.142 1.414 24.12-1.242 1.926-.822 3.872-.147 5.846.932 7.484.192 15.151-.382 22.56-.705 1.448-2.772 2.533-.912 4.18.721 1.54.643 3.896 1.404 5.02 2.96-.084 5.984.423 8.853-.096-.006-3.561 3.496-7.356.864-10.51-2.553-5.98-1.102-12.676-1.26-18.97-.067-3.492 2.456-6.944.73-10.21-1.818-6.718-.578-13.826.218-20.588.773-3.102 4.027-6.11 1.794-9.273-1.899-6.671-1.179-13.948.15-20.63 1.923-3.05-1.008-5.339-1.438-8.246-1.65-6.891-.095-14.228 1.701-20.772-3.948-6.937-2.974-15.846-1.247-23.384.954-2.693-2.12-5.138-1.569-8.038-.714-6.325-.074-12.772 1.408-18.876-1.118-3.862-2.37-7.777-1.696-11.886.265-3.292 1.297-6.504 1.918-9.682-3.237-6.396-1.93-13.973-1.4-20.837.61-2.71 1.706-5.286.295-7.94-1.824-7.557-1.033-15.558.273-23.112 1.574-2.71-1.314-5.012-1.179-7.837-1.029-6.733.248-13.576 1.23-20.144-2.446-6.709-1.821-14.262.428-20.97-3.447-5.769-1.923-12.858-1.754-19.222.938-3.254 1.818-6.673.004-9.783-1.76-6.891.127-14.02.244-20.88.815-2.99 2.844-5.423 4.982-7.524-2.674-4.43-5.257-9.917-9.502-12.642z" fill="#00a853"/><path d="M342.486 605.367H457.19c-1.44-27.332 19.554-43.8 34.126-63.335-10.639 4.368-29.33 14.122-41.336 33.261.399-10.322 5.346-14.851 6.636-20.969-14.26 4.88-17.978 18.495-24.24 25.307 3.026-14.29 8.075-29.557 22.52-37.35-15.382-.506-24.352 10.964-35.558 27.528.396-16.434 9.162-30.992 19.5-40.146-8.427 1.482-30.1 10.208-33.337 38.01-5.128-11.76-1.176-27.304 1.22-41.451-12.034 9.599-15.295 26.508-18.353 43.587 0 0-13.182-31.43-17.206-38.999-.272 9.07 1.62 30.974 2.294 41.293-12.235-18.756-21.029-28.807-29.823-33.264 0 0 15.737 27.602 20.647 36.705-14.351-9.122-28.875-17.554-44.734-20.646 10.836 10.041 23.881 19.2 27.529 32.117-16.511-8.69-27.246-10.764-37.853-11.47 12.616 8.412 26.796 13.542 33.264 29.822z" fill="#00582b" stroke="#003000" stroke-width="2.66914774"/><path d="M402.284 534.822c-8.779 12.795-9.716 28.912-12.905 43.698l-14.843-33.647 2.036 36.633c-7.782-11.334-14.688-23.486-24.616-33.148 6.49 11.527 13 23.04 19.387 34.624-13.481-8.319-26.738-17.427-41.822-22.683 9.795 8.33 19.645 18.44 21.528 31.743-9.264-5.184-18.979-9.623-29.37-11.96 9.16 5.54 18.28 12.546 22.544 22.696h110.295c-.197-18.867 11.328-35.211 23.204-48.848 2.677-2.817 1.83-2.59-1.072-.515-10.506 6.682-20.323 15.126-26.293 26.215-.984 2.223-4.269 1.444-3.91-1.021.352-6.606 2.793-13.284 5.232-19.112-9.845 6.255-13.22 18.257-20.835 26.49-2.007 1.48-3.502-1.359-2.7-3.103 2.481-8.307 5.132-16.625 8.334-24.698 1.29-3.282 3.729-7.152 5.424-9.536-10.234 6.07-15.961 16.995-23.009 26.083-3.087.85-2.317-3.537-2.127-5.298.337-11.911 4.725-23.57 11.787-33.117-12.4 6.886-20.564 20.73-20.603 34.894.086 2.299-3.036 2.98-3.787.766-5.332-11.822-3.759-25.274-1.532-37.645z" fill="#006c35"/><path d="M413.915 559.702c-1.882 4.645-1.866 10.016-2.969 14.824-2.667 4.674-10.721 2.517-11.081-2.725-1.6-3.984-2.499-8.224-2.9-12.491-2.189 10.47-3.513 21.127-6.437 31.439l-10.93-24.78c.54 9.711 1.078 19.421 1.62 29.132-9.435-8.807-23.23-15.299-34.397-22.523 5.538 7.597 8.897 16.863 8.817 26.316 31.696-.015 63.45.03 95.11-.023.544-8.22 3.22-16.176 6.982-23.462-2.797 2.68-3.732 7.408-7.318 9.136-5.036 1.81-9.781-4.234-7.599-8.887-2.164 3.24-4.725 8.194-7.974 11.467-1.848 2.518-5.373 4.452-8.176 2.111-3.496-2.596-3.05-7.531-1.158-10.938 1.112-3.55 2.188-7.111 3.357-10.643-2.892 3.791-5.344 8.54-9.495 10.975-4.872 1.138-7.964-4.91-6.55-8.999a61.707 61.707 0 011.261-10.392zm-71.814 32.154c1.765 2.182 3.332 4.53 4.596 7.038 2.123-.43 11.742 1.109 6.352-1.296-3.517-1.916-7.697-4.462-10.948-5.742z" fill="#00803f"/><path d="M398.364 579.95c-.933 4.622-1.974 9.224-3.246 13.765 9.617-.001 19.234.004 28.85-.001-3.285-2.12-4.86-6.257-5.253-9.801-2.804.25-5.558-1.132-7.652-2.697-4.073 1.95-9.167 1.053-12.595-1.79zm-39.29 6.116a46.984 46.984 0 011.475 7.62c3.587-.038 7.172.115 10.759.055-3.905-2.763-8.368-5.667-12.233-7.675zm82.314 1.424c-1.683 2.44-3.752 4.674-6.305 6.215 3.62-.12 7.61.204 11.003-.19.105-1.56 1.887-4.072-.719-4.004-1.434-.346-2.887-1.537-3.979-2.02z" fill="#009449"/></g><g><g fill-rule="evenodd"><path d="M354.032 772.459s143.32-143.636 145.1-145.1c109.908-90.366 204.401-58.288 297.082-40.72-65.718-55.006-185.815-100.294-309.7 0-1.954 1.583-173.202 146.247-173.202 146.247z" fill="#adc8db" stroke="#505050" stroke-width="2.66914774"/><path d="M642.863 530.915c56.414.165 98.379 21.053 139.455 49.133.773.856-4.877-1.163-6.476-1.361-48.469-12.295-106.2-20.474-149.092-13.987-47.719 7.051-92.348 29.604-128.956 60.614-13.976 13.102-27.022 27.162-40.777 40.498l-103.01 103.01-36.84-35.8c58.076-48.815 115.718-98.175 174.082-146.631 44.07-32.054 96.33-56.105 151.614-55.476z" fill="#c9dbe7"/><path d="M642.84 533.504c43.188.094 85.26 15.94 121.816 38.222 2.869 1.636 5.276 3.117.895 1.74-49.12-11.915-100.813-19.54-150.943-9.259-45.467 9.35-87.96 31.802-122.341 62.834-46.211 45.928-92.17 92.116-138.286 138.145l-32.957-32.026c58.404-48.893 115.95-98.837 174.96-146.982 42.778-30.46 93.385-53.278 146.856-52.674z" fill="#e4edf3"/><path d="M644.598 539.982c27.666.384 55.032 7.413 80.407 18.38-46.836-8.012-96.143-8.333-141.44 7.547C538.79 580.816 498.756 608.353 467 643.07c-37.74 37.63-75.376 75.363-113.08 113.029l-23.236-22.579c58.42-48.64 115.292-99.183 175.025-146.229 40.808-27.94 88.718-48.291 138.89-47.31z" fill="#f2f7fa"/></g><g fill-rule="evenodd"><path d="M328.223 795.973l-52.19 55.058c-17.431 17.431-47.739 12.264-59.51-5.94-15.53-24.02 14.255-44.265 31.981-31.912l48.75-52.764c8.282-10.157 2.79-14.87-4.015-18.926-3.472-2.07-6.909-4.285-10.323-8.603-14.435-18.25 7.803-28.918 17.779-18.352l23.514 25.234 119.865-90.615-96.925 113.556 25.235 18.353c19.658 14.695.208 30.116-13.764 18.926l-10.897-9.177c-7.805-3.926-13.989-2.573-19.5 5.162z" fill="#d8ad00" stroke="#9c6000" stroke-width="2.66914774"/><path d="M326.553 742.867c-4.62 2.074-7.861-3.073-10.268-6.136-7.88-6.95-13.485-16.441-22.4-22.155-5.639-2.194-13.832 2.91-11.357 9.403 2.867 9.486 13.315 12.757 19.535 19.473 4.004 4.306 4.234 11.07.71 15.722-5.235 8.394-13.325 14.326-19.361 21.946l-34.244 37.065c-9.899-8.463-28.7-4.318-31.676 9.119-1.946 7.91 1.079 16.991 8.195 21.284 10.346 8.582 25.583 12.45 37.94 5.902 13.283-6.62 21.235-19.759 31.865-29.594 12.128-12.442 23.553-25.666 36.072-37.698 8.115-5.124 19.03-1.243 24.659 5.832 4.529 4.432 11.85 9.44 18.1 5.494 3.996-3.048 2.49-9.067-1.282-11.592-7.474-7.272-16.997-11.989-24.818-18.806-2.333-1.26-7.104-3.556-4.936-6.874l74.667-87.482-91.4 69.097z" fill="#fc0"/><path d="M329.68 747c-6.037 3.956-13.699-.751-16.914-6.247-7.8-6.829-12.888-16.88-22.353-21.62-3.173.208-3.912 4.338-1.56 6.135 5.907 8.204 17.936 11.166 20.937 21.603 2.765 9.265-3.691 17.977-9.876 24.196-17.18 17.943-33.67 36.544-50.684 54.657-5.852-10.37-24.645-8.504-26.942 3.686-1.665 7.91 4.219 14.992 10.926 18.301 10.847 7 26.099 6.488 35.544-2.847 11.664-9.89 20.637-22.468 31.885-32.797 9.88-10.282 18.893-21.776 30.326-30.438 10.859-5.093 23.924.571 30.88 9.521 2.454 1.922 6.586 5.13 9.456 2.633-.985-4.512-6.259-6.028-9.196-9.133-7.66-6.056-16.805-10.513-23.461-17.7-2.717-4.743.468-10.187 4.244-13.215l40.238-47.143L329.68 747z" fill="#ffd429"/><path d="M331.767 754.77c-4.305 2.184-9.806 1.248-13.891.391-2.409 14.408-15.232 23.474-24.175 33.87-16.957 18.222-33.615 36.722-50.817 54.713 8.658 2.614 18.483-.5 24.016-7.67 18.538-18.54 35.426-38.702 54.48-56.73 3.504-2.964 7.496-5.499 11.972-6.673-4.091-5.01-4.592-12.616-1.162-18.106zm-95.856 71.788c-4.739-.034-8.092 5.81-4.47 9.665 3.169 3.371 4.895 4.658 8.868 6.082 1.95-5.341 5.645-12.22-.737-15.081-1.175-.38-2.418-.723-3.66-.666z" fill="#ffdc51"/></g><g stroke="#9c6000" stroke-linecap="round" fill="none"><path d="M329.903 771.186h-14.6l-.81-14.6M310.031 793.896h-14.6l-.81-14.6M291.376 816.606h-14.599l-.811-14.6M248.795 813.361l14.6 13.789" stroke-width="2.9043"/></g><path style="line-height:normal;font-variant-ligatures:normal;font-variant-position:normal;font-variant-caps:normal;font-variant-numeric:normal;font-variant-alternates:normal;font-feature-settings:normal;text-indent:0;text-align:start;text-decoration-line:none;text-decoration-style:solid;text-decoration-color:#000;text-transform:none;text-orientation:mixed;white-space:normal;shape-padding:0;isolation:auto;mix-blend-mode:normal;solid-color:#000;solid-opacity:1" d="M435.425 656.028l-96.396 86.941 3.623 3.923 94.452-89.637z" color="#000" font-weight="400" font-family="sans-serif" overflow="visible" fill="#9c6000"/><g fill-rule="evenodd"><path d="M447.968 772.459s-143.32-143.636-145.1-145.1C192.96 536.993 98.467 569.071 5.786 586.639c65.718-55.006 185.815-100.294 309.7 0 1.954 1.583 173.202 146.247 173.202 146.247z" fill="#adc8db" stroke="#505050" stroke-width="2.66914774"/><path d="M159.137 530.915c-56.414.165-98.379 21.053-139.455 49.133-.773.856 4.877-1.163 6.476-1.361 48.469-12.295 106.2-20.474 149.092-13.987 47.719 7.051 92.348 29.604 128.956 60.614 13.976 13.102 27.022 27.162 40.777 40.498l103.01 103.01 36.84-35.8c-58.076-48.815-115.718-98.175-174.082-146.631-44.07-32.054-96.33-56.105-151.614-55.476z" fill="#c9dbe7"/><path d="M159.16 533.504c-43.188.094-85.26 15.94-121.816 38.222-2.869 1.636-5.276 3.117-.895 1.74 49.12-11.915 100.813-19.54 150.943-9.259 45.467 9.35 87.96 31.802 122.341 62.834 46.211 45.928 92.17 92.116 138.286 138.145l32.957-32.026c-58.404-48.893-115.95-98.837-174.96-146.982-42.778-30.46-93.385-53.278-146.856-52.674z" fill="#e4edf3"/><path d="M157.402 539.982c-27.666.384-55.032 7.413-80.407 18.38 46.836-8.012 96.143-8.333 141.44 7.547C263.21 580.816 303.244 608.353 335 643.07c37.74 37.63 75.376 75.363 113.08 113.029l23.236-22.579c-58.42-48.64-115.292-99.183-175.025-146.229-40.808-27.94-88.718-48.291-138.89-47.31z" fill="#f2f7fa"/></g><g fill-rule="evenodd"><path d="M473.777 795.973l52.19 55.058c17.431 17.431 47.739 12.264 59.51-5.94 15.53-24.02-14.255-44.265-31.981-31.912l-48.75-52.764c-8.282-10.157-2.79-14.87 4.015-18.926 3.472-2.07 6.909-4.285 10.323-8.603 14.435-18.25-7.803-28.918-17.779-18.352l-23.514 25.234-119.865-90.615 96.924 113.556-25.234 18.353c-19.658 14.695-.208 30.116 13.764 18.926l10.897-9.177c7.805-3.926 13.989-2.573 19.5 5.162z" fill="#d8ad00" stroke="#9c6000" stroke-width="2.66914774"/><path d="M475.447 742.867c4.62 2.074 7.861-3.073 10.268-6.136 7.88-6.95 13.485-16.441 22.4-22.155 5.639-2.194 13.832 2.91 11.357 9.403-2.867 9.486-13.315 12.757-19.535 19.473-4.004 4.306-4.234 11.07-.71 15.722 5.235 8.394 13.325 14.326 19.361 21.946l34.244 37.065c9.899-8.463 28.7-4.318 31.676 9.119 1.946 7.91-1.079 16.991-8.195 21.284-10.346 8.582-25.583 12.45-37.94 5.902-13.283-6.62-21.235-19.759-31.865-29.594-12.128-12.442-23.553-25.666-36.072-37.698-8.115-5.124-19.03-1.243-24.659 5.832-4.529 4.432-11.85 9.44-18.1 5.494-3.996-3.048-2.49-9.067 1.282-11.592 7.474-7.272 16.997-11.989 24.818-18.806 2.333-1.26 7.104-3.556 4.936-6.874l-74.667-87.482 91.4 69.097z" fill="#fc0"/><path d="M472.32 747c6.037 3.956 13.699-.751 16.914-6.247 7.8-6.829 12.888-16.88 22.353-21.62 3.173.208 3.912 4.338 1.56 6.135-5.907 8.204-17.936 11.166-20.937 21.603-2.765 9.265 3.69 17.977 9.876 24.196 17.18 17.943 33.67 36.544 50.684 54.657 5.852-10.37 24.645-8.504 26.942 3.686 1.665 7.91-4.219 14.992-10.926 18.301-10.847 7-26.099 6.488-35.544-2.847-11.664-9.89-20.637-22.468-31.885-32.797-9.88-10.282-18.893-21.776-30.326-30.438-10.859-5.093-23.924.571-30.88 9.521-2.454 1.922-6.586 5.13-9.456 2.633.985-4.512 6.259-6.028 9.196-9.133 7.66-6.056 16.805-10.513 23.461-17.7 2.717-4.743-.468-10.187-4.244-13.215l-40.238-47.143L472.32 747z" fill="#ffd429"/><path d="M470.233 754.77c4.305 2.184 9.806 1.248 13.891.391 2.409 14.408 15.232 23.474 24.175 33.87 16.957 18.222 33.615 36.722 50.817 54.713-8.658 2.614-18.483-.5-24.016-7.67-18.538-18.54-35.426-38.702-54.48-56.73-3.504-2.964-7.496-5.499-11.972-6.673 4.091-5.01 4.592-12.616 1.162-18.106zm95.856 71.788c4.739-.034 8.092 5.81 4.47 9.665-3.169 3.371-4.895 4.658-8.868 6.082-1.95-5.341-5.645-12.22.737-15.081 1.175-.38 2.418-.723 3.66-.666z" fill="#ffdc51"/></g><g stroke="#9c6000" stroke-linecap="round" fill="none"><path d="M472.097 771.186h14.6l.81-14.6M491.969 793.896h14.6l.81-14.6M510.624 816.606h14.599l.811-14.6M553.205 813.361l-14.6 13.789" stroke-width="2.9043"/></g><path d="M366.575 656.028l96.396 86.941-3.623 3.923-94.452-89.637z" style="line-height:normal;font-variant-ligatures:normal;font-variant-position:normal;font-variant-caps:normal;font-variant-numeric:normal;font-variant-alternates:normal;font-feature-settings:normal;text-indent:0;text-align:start;text-decoration-line:none;text-decoration-style:solid;text-decoration-color:#000;text-transform:none;text-orientation:mixed;white-space:normal;shape-padding:0;isolation:auto;mix-blend-mode:normal;solid-color:#000;solid-opacity:1" color="#000" font-weight="400" font-family="sans-serif" overflow="visible" fill="#9c6000"/></g></svg>