<svg xmlns="http://www.w3.org/2000/svg" version="1.0" width="1216.747" height="1009.132"><g fill="#d6b61e" fill-rule="evenodd" stroke="#000"><path d="M292.91 675.489c-29.891 1.402-67.886 3.541-101.964 15.477s-65.14 24.912-114.431 47.929c51.048-8.829 80.435-26.116 111.789-36.848 31.353-10.732 67.626-15.206 88.407-17.335 20.78-2.129 23.993-2.323 23.676-6.588 4.884 1.158 9.384 2.42 14.347 3.601-3.25 1.556-8.958 2.212-13.364 2.2-72.89 12.373-155.034 33.738-198.926 95.782 67.03-58.345 116.145-65.806 195.915-85.66 7.764.372 23.566-7.278 22.903-10.62a461.836 461.836 0 0031.22 6.376c.23 1.348-10.147 2.11-13.693 1.851-69.272 15.965-156.16 29.885-189.825 97.985 59.819-63.237 109.134-65.906 187.245-88.343 7.344-2.11 20.296-4.563 22.832-10.059 2.217.706 4.538 1.201 6.755 1.695a491.31 491.31 0 0131.447 9.498c-3.472.87-13.765.028-17.595-.354-55.656 3.373-147.362 26.067-180.223 74.663-4.342 8.196-8.733 16.1-13.46 23.988 52.892-70.435 109.645-73.036 190.673-88.789 7.58-1.473 27.88-3.819 27.358-7.268 12.156 2.606 19.292 6.261 28.14 9.36-1.351 1.845-9.396.93-13.082.332-54.025-.105-150.179 22.88-184.904 67.67-4.695 7.626-9.42 14.967-14.471 22.274 55.421-64.6 118.149-69.827 197.367-82.1 7.51 1.03 16.2-2.712 20.948-5.836 8.659 3.233 12.73 6.267 19.044 9.102 0 0-6.314-2.835.485-.11.32.688-6.305-1.014-10.365-1.673-54.024-.106-148.42 20.923-183.145 65.713-4.695 7.627-9.42 14.968-14.471 22.275 55.421-64.601 114.707-66 193.925-78.272 7.51 1.03 16.86-3.909 18.704-5.79 6.975 1.793 12.076 5.057 17.042 8.404 0 0-5.49-2.766.851.208-2.713 1.71-9.236 1.118-13.108.49-54.024-.106-144.903 17.013-179.628 61.803-4.695 7.626-9.42 14.968-14.471 22.275 55.421-64.601 110.63-61.466 189.847-73.738 7.51 1.03 21.408-5.737 22.8-8.17 1.9 1.35 3.725 2.317 5.534 3.291 3.467 1.962 6.847 4.027 11.08 6.554-2.797 2.12-9.469 2.53-13.37 1.897-51.224-.1-137.39 16.132-170.316 58.599-4.451 7.231-8.932 14.192-13.72 21.12 52.547-61.252 104.776-58.15 179.887-69.785 7.121.976 20.448-6.212 22.468-8.5 4.407 3.26 8.493 6.257 12.525 9.312 0 0-4.032-3.055.12.094-3.094 3.433-8.943 1.907-12.252 1.531-48.947 2.271-130.522 21.82-160.004 64.068-3.917 7.14-7.874 14.024-12.128 20.89 47.358-61.171 96.067-59.363 167.293-73.993 6.85.608 18.157-5.208 21.303-9.243a758.32 758.32 0 0111.653 9.137c-3.138 3.17-9.027 2.517-12.493 2.274-44.206 4.054-120.035 26.981-136.65 73.93-3.82 6.655-7.665 13.078-11.777 19.498 48.886-65.407 76.97-64.979 141.757-81.182 6.148.274 17.812-8.148 22.237-12.482 1.075 1.185 2.2 2.065 3.326 2.942 0 0 1.608 1.223 3.579 3.04-1.808 3.239-6.857 3.114-9.524 3.287-34.096 7.903-86.238 27.758-101.634 72.24-2.27 5.66-4.586 11.138-7.11 16.642 38.63-60.84 54.27-58.18 103.138-77.86 4.833-.438 16.338-7.709 19.057-11.833 2.056.683 3.656 2.965 6.149 4.812 19.68 21.753 52.185 61.24 58.625 99.455 1.982 5.36 3.442 12.11 5.18 20.25 3.062 2.76 13.038-14.543 18.38-20.575-19.676-40.664-25.534-65.978-86.396-117.925-14.736-12.577-25.724-21.168-46.974-34.385-23.234-13.345-53.02-27.314-78.42-35.84-27.828-9.343-60.94-17.352-97.245-24.98 0 0-35.554-5.197-39.84-5.11-31.642.631-64.782-2.352-94.919 2.301-33.023 6.508-63.395 14.355-111.909 29.023 48.291-1.479 77.678-13.481 108.029-19.24 30.35-5.76 52.333-3.515 84.268-3.995 7.21-.129 20.673-1.685 21.514-2.596-.537.591-1.707.248-2.906-.076"/><path d="M961.948 675.489c29.89 1.402 67.885 3.541 101.963 15.477 34.078 11.936 65.14 24.912 114.431 47.929-51.048-8.829-80.435-26.116-111.789-36.848-31.353-10.732-67.626-15.206-88.407-17.335-20.78-2.129-23.993-2.323-23.676-6.588-4.884 1.158-9.384 2.42-14.347 3.601 3.25 1.556 8.958 2.212 13.364 2.2 72.89 12.373 155.034 33.738 198.926 95.782-67.03-58.345-116.145-65.806-195.915-85.66-7.764.372-23.566-7.278-22.903-10.62a461.836 461.836 0 01-31.22 6.376c-.23 1.348 10.147 2.11 13.693 1.851 69.272 15.965 156.16 29.885 189.825 97.985-59.819-63.237-109.134-65.906-187.245-88.343-7.344-2.11-20.296-4.563-22.832-10.059-2.217.706-4.538 1.201-6.755 1.695a491.31 491.31 0 00-31.447 9.498c3.472.87 13.765.028 17.595-.354 55.656 3.373 147.362 26.067 180.223 74.663 4.342 8.196 8.733 16.1 13.46 23.988-52.892-70.435-109.645-73.036-190.673-88.789-7.58-1.473-27.88-3.819-27.358-7.268-12.156 2.606-19.292 6.261-28.14 9.36 1.351 1.845 9.396.93 13.082.332 54.025-.105 150.179 22.88 184.904 67.67 4.695 7.626 9.42 14.967 14.471 22.274-55.421-64.6-118.149-69.827-197.367-82.1-7.51 1.03-16.2-2.712-20.948-5.836-8.659 3.233-12.73 6.267-19.044 9.102 0 0 6.314-2.835-.485-.11-.32.688 6.305-1.014 10.365-1.673 54.024-.106 148.42 20.923 183.145 65.713 4.695 7.627 9.42 14.968 14.471 22.275-55.421-64.601-114.707-66-193.925-78.272-7.51 1.03-16.86-3.909-18.704-5.79-6.975 1.793-12.076 5.057-17.042 8.404 0 0 5.49-2.766-.851.208 2.713 1.71 9.236 1.118 13.108.49 54.024-.106 144.903 17.013 179.628 61.803 4.695 7.626 9.42 14.968 14.471 22.275-55.421-64.601-110.629-61.466-189.847-73.738-7.51 1.03-21.408-5.737-22.8-8.17-1.9 1.35-3.725 2.317-5.534 3.291-3.467 1.962-6.846 4.027-11.08 6.554 2.797 2.12 9.469 2.53 13.371 1.897 51.223-.1 137.39 16.132 170.315 58.599 4.451 7.231 8.932 14.192 13.72 21.12-52.547-61.252-104.776-58.15-179.887-69.785-7.121.976-20.448-6.212-22.468-8.5-4.407 3.26-8.493 6.257-12.525 9.312 0 0 4.032-3.055-.12.094 3.094 3.433 8.943 1.907 12.252 1.531 48.947 2.271 130.522 21.82 160.004 64.068 3.917 7.14 7.874 14.024 12.128 20.89-47.358-61.171-96.067-59.363-167.293-73.993-6.85.608-18.157-5.208-21.303-9.243a758.32 758.32 0 00-11.653 9.137c3.138 3.17 9.027 2.517 12.493 2.274 44.206 4.054 120.035 26.981 136.65 73.93 3.82 6.655 7.665 13.078 11.777 19.498-48.886-65.407-76.97-64.979-141.757-81.182-6.148.274-17.812-8.148-22.237-12.482-1.075 1.185-2.2 2.065-3.326 2.942 0 0-1.608 1.223-3.579 3.04 1.808 3.239 6.857 3.114 9.524 3.287 34.096 7.903 86.238 27.758 101.634 72.24 2.27 5.66 4.586 11.138 7.11 16.642-38.63-60.84-54.27-58.18-103.138-77.86-4.833-.438-16.338-7.709-19.057-11.833-2.056.683-3.656 2.965-6.149 4.812-19.68 21.753-52.185 61.24-58.625 99.455-1.982 5.36-3.442 12.11-5.18 20.25-3.062 2.76-13.038-14.543-18.38-20.575 19.676-40.664 25.534-65.978 86.396-117.925 14.736-12.577 25.724-21.168 46.974-34.385 23.234-13.345 53.02-27.314 78.42-35.84 27.828-9.343 60.94-17.352 97.245-24.98 0 0 35.554-5.197 39.84-5.11 31.642.631 64.782-2.352 94.919 2.301 33.023 6.508 63.395 14.355 111.909 29.023-48.291-1.479-77.678-13.481-108.029-19.24-30.35-5.76-52.333-3.515-84.268-3.995-7.21-.129-20.673-1.685-21.514-2.596.537.591 1.707.248 2.906-.076"/></g><g fill="#d6b61e" stroke="#000" stroke-width=".436"><path d="M530.985 207.102c10.472-5.206 17.007-3.53 23.355-1.528-6.578-10.881-14.668-15.7-23.606-17.108l.251 18.636z" fill="#000" stroke-width="1.0002014399999999"/><path d="M322.501 256.51c32.82 38.135 30.727 11.648 70.356 43.355 1.972-10.152-7.316-22.183-24.036-38.723 25.896 21.998 33.866 3.31 61.255 13.713 1.107-6.129-8.07-11.842-16.798-17.605 27.233 11.236 29.93-15.744 70.211 5.986-1.165-8.167-7.741-15.384-15.375-22.43l28.72 6.181c4.36-5.272 9.463-9.385 15.615-11.861l21.302-3.514c-3.243-10.665 1.206-15.668 2.162-23.832-.448-6.665-4.7-9.625-.836-20.009-29.33-2.074-43.839-14.51-61.348 7.855-19.44-1.279-39.7-4.143-56.374.066-63.639-28.642-82.81-19.743-104.24-6.357M490.557 215.564c21.393 2.277 26.185-16.35 45.335-8.156M393.407 209.091c32.156 15.749 34.259-4.269 77.591 6.474" stroke-width="1.0002014399999999"/></g><g fill="#eac102" stroke="#000" stroke-width=".436"><path d="M723.769 204.986c-10.471-5.206-17.006-3.53-23.353-1.528 6.577-10.88 14.666-15.699 23.604-17.108l-.251 18.636z" fill="#000" stroke-width="1.00014476"/><path d="M932.24 254.39c-32.817 38.133-30.725 11.648-70.35 43.354-1.973-10.152 7.315-22.183 24.034-38.721-25.895 21.996-33.865 3.309-61.252 13.711-1.107-6.128 8.07-11.84 16.797-17.603-27.232 11.235-29.929-15.743-70.207 5.985 1.165-8.166 7.741-15.383 15.374-22.429l-28.718 6.182c-4.36-5.272-9.462-9.385-15.614-11.862l-21.3-3.513c3.242-10.664-1.207-15.667-2.162-23.83.447-6.665 4.699-9.625.835-20.008 29.329-2.074 43.836-14.51 61.344 7.854 19.44-1.278 39.698-4.143 56.371.066 22.855-10.286 39.974-15.73 53.522-17.863 24.174-3.807 32.725-37.716 46.458-29.138" fill="#d6b720" stroke-width="1.00014476"/><path d="M764.195 213.447c-21.392 2.277-26.184-16.349-45.333-8.156" stroke-width="1.00014476"/><path d="M886.924 176.434a137.48 137.48 0 00-9.907 2.312c-1.75 7.11-2.787 14.588-1.062 23.563 2.11 7.257 8.661 11.887 13.312 24.812 2.938 6.185 1.662 13.598 5.5 21.688 1.904 3.416 3.707 5.5 5.313 6.625 4.374-.431 8.839-.762 7.25-7.094-.066-.843-.197-1.724-.438-2.562a49.835 49.835 0 00-.812-6.032c-3.526-18.107-15.914-23.883-19.344-48.156-1.124-5.977-.78-10.803.188-15.156zM855.642 185.903c-5.467 2.115-11.327 4.583-17.625 7.406a48.002 48.002 0 00.844 10.781c2.11 7.257 8.661 11.887 13.313 24.813 2.938 6.184 1.661 13.597 5.5 21.687 1.903 3.417 3.707 5.5 5.312 6.625 4.374-.43 8.839-.762 7.25-7.094-.066-.843-.196-1.724-.437-2.562a49.835 49.835 0 00-.813-6.031c-3.341-17.159-9.762-33.325-13.344-55.625zM816.236 191.371c-6.892.01-14.047.53-21.219 1.094-1.002 6.68 1.387 13.875-1.093 26.094-.699 6.811-5.614 12.468-6.532 21.375-.145 3.908.306 6.642 1.094 8.437 3.963 1.902 7.947 3.925 9.875-2.312.381-.755.74-1.565.969-2.406a50.054 50.054 0 002.437-5.594c5.284-14.325 8.152-29.206 14.47-46.688z" fill="#000" stroke-width="1"/></g><path d="M876.929 203.34v277.366C865.862 718.423 650.112 793.105 627.357 802.34c-23.746-9.753-232.824-82.332-249.428-321.634V203.34h499" style="marker:none" fill="#ce1126" fill-rule="evenodd" overflow="visible" stroke="#000" stroke-width="3"/><g stroke="#fff"><path d="M473.227 505.185a158.387 158.387 0 00-4.408 37.094c0 87.408 71.005 158.262 158.6 158.262 87.594 0 158.619-70.854 158.619-158.262 0-12.774-1.545-25.196-4.408-37.094-16.736 69.505-79.425 121.169-154.211 121.169-74.787 0-137.456-51.664-154.192-121.169z" fill="#fff"/><path d="M472.634 508.712s3.94 137.903 154.795 137.903 154.794-137.903 154.794-137.903" fill="none"/><g fill="#fff" stroke-width="1.292"><path d="M565.866 438.443l11.874 36.173 37.854-.044-30.734 22.471 11.74 35.988-30.734-22.286-30.734 22.286 11.656-36.245-30.65-22.214 38.072-.115 11.656-36.014z" stroke-width=".99973668"/><path d="M535.62 532.369l42.175-57.847M596.168 532.528l-42.016-58.193M546.768 496.816l68.188-21.979M516.658 474.743l68.21 22.268M565.866 510.764v-72.147" fill-rule="evenodd" stroke-width=".99973668"/><g><path d="M688.991 438.443l11.874 36.173 37.854-.044-30.734 22.471 11.74 35.988-30.734-22.286-30.733 22.286 11.655-36.245-30.65-22.214 38.072-.115 11.656-36.014z" stroke-width=".99973668"/><path d="M658.745 532.369l42.176-57.847M719.293 532.528l-42.016-58.193M669.893 496.816l68.188-21.979M639.783 474.743l68.21 22.268M688.991 510.764v-72.147" fill-rule="evenodd" stroke-width=".99973668"/></g><g><path d="M726.783 321.226l11.874 36.173 37.854-.044-30.733 22.472 11.739 35.987-30.734-22.285-30.733 22.285 11.656-36.244-30.65-22.215 38.072-.114 11.655-36.015z" stroke-width=".99973668"/><path d="M696.537 415.152l42.176-57.847M757.085 415.311l-42.016-58.193M707.685 379.599l68.188-21.979M677.575 357.527l68.21 22.267M726.783 393.547V321.4" fill-rule="evenodd" stroke-width=".99973668"/><g><path d="M528.074 321.226l11.874 36.173 37.854-.044-30.734 22.472 11.74 35.987-30.734-22.285-30.734 22.285 11.656-36.244-30.65-22.215 38.072-.114 11.656-36.015z" stroke-width=".99973668"/><path d="M497.828 415.152l42.175-57.847M558.376 415.311l-42.017-58.193M508.975 379.599l68.188-21.979M478.865 357.527l68.21 22.267M528.074 393.547V321.4" fill-rule="evenodd" stroke-width=".99973668"/></g></g><g><path d="M627.429 249.139l11.874 36.173 37.853-.044-30.733 22.471 11.74 35.988-30.734-22.285-30.734 22.285 11.656-36.244-30.65-22.215 38.072-.114 11.656-36.015z" stroke-width=".99973668"/><path d="M597.183 343.065l42.175-57.847M657.73 343.224l-42.016-58.193M608.33 307.512l68.188-21.979M578.22 285.44l68.21 22.267M627.429 321.46v-72.147" fill-rule="evenodd" stroke-width=".99973668"/></g></g></g><g fill="#d6b61e" stroke="#000" stroke-width=".436"><path d="M285.637 671.592c-9.423 6.753-6.288 12.193-6.711 20.93-5.968-7.615-12.59-13.317-11.556-27.826 8.316 3.38 15.121-2.424 18.267 6.896zM321.886 686.7c11.386 2.179 10.822 8.432 14.87 16.185 2.224-9.416 5.843-17.369-1.18-30.106-6.132 6.557-14.744 4.141-13.69 13.92zM350.325 659.217c11.279 2.684 10.437 8.906 14.135 16.831 2.641-9.307 6.611-17.09.163-30.128-6.418 6.277-14.914 3.48-14.298 13.297z" fill="#000" stroke-width="1.0002014399999999"/><path d="M338.816 671.643c11.278 2.684 10.436 8.906 14.135 16.832 2.64-9.308 6.611-17.091.163-30.13-6.419 6.278-14.915 3.481-14.298 13.298z" fill="#000" stroke-width="1.0002014399999999"/><path d="M281.254 416.653l-61.156 15.25v89.187l16.719 52.344c8.294 29.069-8.724 38.96-25.5 64.219 11.386-2.053 24.297-5.23 30.594-15.188 2.214 17.703-1.32 33.43-15.344 45.719 12.18-.55 24.702 2.657 35.187-16.531l5.813 18.187c5.068-1.531 10.037-3.315 19.281 5.594 9.561 6.813 18.066 15.08 33.781 13.687 6.14-7.402 10.777-17.081 20.907-18.5 3.975-5.135 5.76-12.442 13.625-13.687l12.062-2.344c3.317-20.919-12.181-31.297-25.687-28.187 0 0-38.326 14.415-52.25-23.313-9.75-26.416 16.97-52.049 24.218-81.469 15.6-15.392 24.14-10.43 37.47-2.218-13.048-20.09-26.381-25.596-36-16.875-1.525-13.907-9.246-28.749-28.126-44.938-10.47-8.979-5.594-40.937-5.594-40.937z" stroke-width="1"/><path d="M255.504 471.273c13.311-.36 36.159 15.45 24.116 45.82-9.89 24.943-7.512 42.71-4.019 54.662" stroke-width="1.0002014399999999"/></g><path d="M154.869 748.021c7.435 8.895 3.04 13.379 1.266 21.943 7.681-5.881 15.518-9.746 18.145-24.053-8.898 1.194-14.036-6.127-19.411 2.11z" stroke="#000"/><path d="M135.036 753.085c7.435 8.895 4.94 12.956 6.963 21.31 7.681-5.881 12.986-12.49 15.613-26.796-8.898 1.194-17.2-2.751-22.576 5.486zM108.979 758.254c7.435 8.895 8.737 17.176 10.76 25.53 7.682-5.881 12.142-17.131 14.77-31.437-8.898 1.194-20.155-2.33-25.53 5.907z" stroke="#000"/><path d="M237.82 484.938c8.693-1.14 19.514 2.51 20.096-16.88 7.83-9.647 16.222-19.293 34.566-28.94-17.149-5.97-31.886 8.278-49.035 14.47" fill="#d6b61e" stroke="#000"/><path d="M313.723 141.934l-52.687 21.062-81.375 35.063c33.77 79.358 35.023 139.264.531 195.219-9.565 15.516-33.557 34.463-39.875 60.093-11.078 18.577-20.19 24.007-43.812 23.844-25.641-.176-55.888-13.858-46.375-46.594 3.087-11.007 41.657-24.426 48.53-1 2.152 12.015-14.864 17.749-23.5 7.75-.723 17.233 33.452 14.162 35.688-1 1.3-8.814-.222-15.972-9.875-22.593 6.798 2.622 16.16 0 20.782-2.875-11.369 1.297-25.04-2.41-24.032-4.72 25.094-.436 30.343-26.664 7.969-32.405 13.288 13.717-1.773 25.937-17 23.656-10.44-1.564-18.846-3.229-24.594 7.312 5.565-15.058 12.894-18.558 23.813-35.406 17.436-26.905 22.337-62.525 16.719-93-3.753-20.35-17.696-36.161-23.25-54.469-1.607-9.357 3.804-18.584 11.562-19.218 7.886-.655 11.686 6.75 2.844 12.343 7.127.843 13.56-2.095 13.844-10.78-1.223-11.307-22.29-19.472-33.532-12.688-7.477 4.247-12.294 10.41-14.062 18.656v.062h-.063c-5.302-3.872-12.4-4.717-21.375-2.718-8.972 1.998-16.476.403-22.593-4.72-6.171-6.371-8.26-17.619-.563-22.655 8.414-2.208 16.23-1.826 21.063 6.375 1.807-4.216.733-7.438-3.063-10.25-9.43-6.844-23.088-5.945-30.844 3.156-4.263 5.002-4.45 13.401-3.843 20.344 1.359 8.37 5.432 15.847 12.093 22.593 3.941 3.623 8.854 5.406 14.563 5.157 2.448-.125 4.845-.25 7.156-.375-2.04.999-3.889 1.719-5.656 2.593-11.012 5.497-19.975 13.245-22.281 24.032-4.742 22.176 9.31 32.679 25.28 45.437 5.974 4.772 1.27 9.308-8.374 11.469 17.122 4.635 25.773-12.169 10.531-20.563 1.767 1 3.38 1.72 4.875 2.344 6.934 2.623 12.65 1.841 17-2.656 5.438-5.497 5.055-11.473-1.062-17.844 3.202 20.833-29.094 13.304-29.907-2.875-.096-16.243 10.42-24.178 26.25-24.937 38.363-1.333 41.871 53.188 32.313 87.687-4.285-15.517-19.783-22.125-33.031-12.344-4.085 3.775-3.936 10.62 4.062 11.344-5.915-10.866 20.578-13.437 21.094 7.875-.603 18.554-11.065 34.986-23.938 47.813-5.165 4.87-9.124 12.255-11.843 21.875-2.221-19.923-46.537-15.36-23.72-47.47-26.212 9.262-12.685 30.36 3.657 44.75-.135 0-.456-.061-.594.063h-.125c-8.564.75-12.1 4.254-10.468 10.25 4.078-2.248 7.239-2.968 9.687-2.593 3.127.624 4.894 3.096 5.438 7.468.135 25.237 5.677 47.977 21.656 60.5 26.361 20.661 69.412 20.46 97.062 4.094-2.152 15.242-1.709 30.43 2.563 44.938 3.73 12.67 1.1 32.578-4.438 54.343-14.234 14.017-30.745 22.004-50.593 21.282 7.62 8.961 15.082 14.676 22.437 16.437-15.894 7.304-22.644 22.32-37.437 21.563 9.319 5.289 7.446 9.578 31.843 12.468-21.718 5.772-23.73 23.981-52.343 28.907 32.993 16.779 42.773 10.3 45.75-2.938 1.668 2.097 2.558 3.636 2.218 5.875v.156c-2.917 6.503-4.875 10.594-4.875 10.594-16.613 11.565-22.58 22.815-7.093 33.406 5.403 8.93 4.196 26.37 16.25 26.75 11.329-5.025 17.577-7.63 28.906-3 6.248-6.169 15.408-7.847 21.656-6.25 6.569-4.234 11.907-1.186 17.563.063 3.682-25.218-11.277-29.08-22.813-36.906-33.27-16.569-1.405-55.105 18.438-67.75 13.904-8.862 64.37-28.998 79.718-70.5 16.497-4.973 22.142 2.67 30.438 14.343-4.186-23.658-14.348-33.936-26.656-29.562 1.355-10.001.732-21.04-2.625-33.219-5.192-18.832-21.374-67.803 9.812-83.219 70.672-34.936 92.518-72.563 94.844-157.5 1.685-61.54-27.178-96.603-42.313-143.812zM27.411 408.684c2.204 1.444 4.037 3.397 5.312 6.094-1.574-2.385-3.252-4.488-5.312-6.094z" fill="#d6b720" stroke="#000"/><path d="M220.135 537.993c7.942 33.046-10.955 60.725-45.82 85.21M167.884 463.234c19.312 36.184-9.73 68.492 14.469 72.348 14.822 2.361 22.335-14.513 20.097-27.332M135.97 756.236c-1.217-33.77-24.914-18.356-29.582-43.555M157.45 750.067c-4.785-25.148-20.306-21.18-25.42-35.528M341.798 671.335c-10.644-20.827-26.89-11.666-39.743-20.168M354.848 657.692c-8.23-18.276-19.364-10.403-29.066-15.423" fill="#d6b61e" stroke="#000"/><g fill="#d6b720" stroke="#000" stroke-width=".436"><path d="M397.588 413.92c-6.846-8.139-4.672-15.748-3.877-23.439l-16.214-.704c-1.302 10.215 11.539 18.985 20.091 24.144zM415.212 404.58c11.33 2.9 15.182 8.437 18.68 14.1 2.128-12.536-.85-21.468-6.696-28.375l-11.984 14.275zM437.779 369.95c11.33 2.899 15.182 8.436 18.681 14.099 2.128-12.536-.85-21.468-6.697-28.374l-11.984 14.275z" fill="#000" stroke-width="1.0002014399999999"/><path d="M428.086 385.811c11.33 2.899 15.182 8.437 18.681 14.1 2.127-12.536-.85-21.469-6.697-28.375l-11.984 14.275z" fill="#000" stroke-width="1.0002014399999999"/><path d="M237.958 287.028c-.062 50.313 15.656 28.892 24.948 78.786 8.125-6.399 8.952-21.576 7.097-45.02 5.237 33.571 23.48 24.628 37.421 50.397 4.842-3.918 1.625-14.238-1.218-24.303 13.28 26.298 32.946 7.632 49.25 50.397 4.452-6.944 4.188-16.704 3.01-27.026l17.708 23.442c6.745-1.144 13.296-.925 19.571 1.219l18.424 11.255c4.511-10.193 11.148-11.075 17.205-16.632 4.015-5.339 4.486-10.648 14.195-15.987-1.862-7.8 4.941-10.382 10.681-13.62-8.286-17.352-18.905-21.427-28.46-23.156-23.674-4.917-23.777 1.91-35.558 2.94-13.884-13.668-27.352-29.072-42.726-36.777-29.474-63.258-49.802-69.043-74.772-72.908M391.948 365.808c14.71 15.699 30.507 4.727 39.654 23.44M446.23 373.563c-4.077-20.46-16.44-11.134-39.654-19.034M322.62 297.444c14.059 32.93 28.728 19.148 54.52 55.588" stroke-width="1.0002014399999999"/></g><path d="M132.643 76.971c-2.733-10.383 2.488-15.795 7.474-21.354.028-14.38 7.306-19.696 19.22-19.219-.51-12.196 5.846-18.998 19.218-20.287 4.792-2.874 6.855-11.204 17.084-3.203 10.447-10.606 20.44-11.205 29.896 0 4.437-5.039 9.957-7.729 20.287 0 8.702-6.896 19.788-11.673 37.37-10.677-1.046 18.545-2.886 35.7-11.745 40.573 12.268 2.54 23.517 6.95 29.896 20.287 10.656 14.433 20.104 14.785 27.76 11.745-6.745 23.705-15.95 15.429-24.557 14.948 9.548 18.88 17.2 22.58 36.303 20.287-1.337 19.595-10.121 20.038-18.152 22.422 13.43 9.095 9.252 24.657 29.897 25.625-2.502 13.998-24.34 15.155-41.641 10.906 5.216 10.245 10.353 13.797 8.865 24.042.346 12.333 13.018 13.03 19.591 16.255-24.853 20.48-43.846 6.672-53.014-10.63-2.083 9.841 5.897 22.081 6.646 33.159 1.818 15.818-6.287 22.705-14.12 29.837 2.225-24.877-15.149-26.582-23.49-46.98 14.214 38.896-8.086 42.953-18.247 54.826 9.403-21.71-10.489-30.034-11.745-62.528-6.917 13.632-2.576 40.508-24.462 36.53 5.888-13.496-7.951-21.538-4.366-44.94-6.815 23.867-16.368 31.328-30.868 23.586 16.11-6.478 2.295-31.7 10.857-50.278-11.512 15.408-19.324 21.862-35.787 8.913 19.828-3.135 13.836-23.386 13.041-41.04-4.012 8.318-1.908 21.588-25.481 14.071 13.827-3.51-4.744-26.738 11.744-50.183-15.26-.776-26.356-7.108-35.691-15.787 9.84-8.837 19.367-13.93 28.217-10.906zM106.215 87.698c12.349 1.186 25.543 4.486 36.07 1.115M282.474 1.799c-10.99 6.545-18.098 15.419-24.17 24.914" fill="#d6b61e" stroke="#000"/><path d="M260.288 55.962c5.441 7.63 11.672 16.537 13.759 24.17-.847 13.47-.57 24.564-1.488 36.814M160.877 108.15c2.679 12.589 6.88 19.087 11.528 23.799 6.85 4.118 11.265 8.617 25.658 19.336" fill="#d6b61e" stroke="#000"/><path d="M189.025 63.83c-20.49 6.276-27.537 19.956-34.872 24.925 14.022-1.206 33.33 2.598 41.679-11.841-14.2 2.398-10.079-2.864-6.807-13.084z" fill="#e3e4e5" stroke="#000"/><path d="M182.018 77.491a8.18 5.02 66.197 11-9.186 4.052 8.18 5.02 66.197 119.186-4.052z" stroke="#000" stroke-width="1.0002014399999999"/><path d="M212.132 52.328c17.315-6.683 20.9-16.18 32.898-15.291-6.027 13.963-9.785 29.808-26.462 30.1 8.989-11.25 4.088-12.71-6.436-14.809z" fill="#e3e4e5" stroke="#000"/><path d="M226.251 53.847a5.02 8.18-22.382 109.284-3.823 5.02 8.18-22.382 10-9.284 3.823z" stroke="#000" stroke-width="1.0002014399999999"/><g fill="#eac102" stroke="#000" stroke-width=".323"><path d="M1488.113 162.628c1.308-2.126-3.264 2.317-7.088 2.03-3.255-.244-3.547-.56-7.768-2.61 2.598 3.253.75 13.678 3.883 15.856 2.094 1.456 4.051.543 6.299.086 2.915-.592 1.957-10.905 4.674-15.362z" fill="#ce1126" fill-rule="evenodd" transform="matrix(2.73155 -1.34876 1.33268 2.85148 -4033.845 1653.447)"/><path d="M1471.914 180.8c1.297 1.837 4.865.922 5.199.127-1.646-2.396-1.972-8.327-2.137-8.5-1.155-1.208-2.217 5.42-3.062 8.372zM1470.254 159.879c.73 2.761 1.356 9.8 2.763 10.754 1.117.758.921-5.511 2.567-7.357M1482.412 180.39c1.46-2.077 2.385-7.36 2.714-7.6.903-.662 1.515 6.583 2.168 9.23M1485.414 163.6c1.434 2.033-.253 8.72 1.04 7.954 1.446-.86 3.74-8.937 4.93-11.737" fill="#e3e4e5" fill-rule="evenodd" stroke-linecap="round" stroke-linejoin="round" transform="matrix(2.73155 -1.34876 1.33268 2.85148 -4033.845 1653.447)"/><path d="M1467.087 159.2c2.248-1.704 7.468 5.492 13.72 5.479 6.135-.013 11.769-6.986 13.206-5.736 1.475 3.547-2.803 8.373-4.231 12.565.54 5.556 2.278 12.548-3.718 10.258-4.02-2.038-7.307-2.32-9.617-.256-3.241 1.357-4.393-.42-5.642-2.052-.226-2.262.676-6.532-.296-9.823-1.346-4.561-4.52-8.187-3.422-10.436z" fill="none" transform="matrix(2.73155 -1.34876 1.33268 2.85148 -4033.845 1653.447)"/></g><path d="M202.787 101.89c.314-4.396 8.89.628 14.93-3.72 6.04-4.349 6.06-10.665 9.096-9.247 3.057 1.428 1.46 18.975-2.496 22.077-4.101 3.215-21.852-4.638-21.53-9.11z" fill-rule="evenodd" stroke="#000" stroke-linecap="round" stroke-linejoin="round"/><path d="M233.92 133.677l15.333 31.42" fill="none" stroke="#000"/><g fill="#d6b720" stroke="#000" stroke-width=".436"><path d="M969.103 669.449c9.423 6.753 6.288 12.193 6.711 20.928 5.967-7.614 12.588-13.315 11.556-27.823-8.317 3.38-15.121-2.425-18.267 6.895zM932.857 684.556c-11.386 2.179-10.822 8.431-14.87 16.184-2.224-9.415-5.843-17.367 1.18-30.104 6.131 6.556 14.743 4.14 13.69 13.92zM904.418 657.075c-11.277 2.683-10.435 8.905-14.133 16.83-2.641-9.306-6.611-17.09-.163-30.127 6.418 6.277 14.913 3.48 14.297 13.297z" fill="#000" stroke-width="1.00014476"/><path d="M915.927 669.5c-11.278 2.684-10.435 8.905-14.134 16.83-2.64-9.306-6.014-20.67.434-33.708 6.418 6.277 14.317 7.061 13.7 16.878h0z" fill="#000" stroke-width="1.00014476"/><path d="M971.404 408.798l63.225 20.984v89.175l-5.274 59.603c-5.436 29.587-1.224 39.646-12.7 48.884-.475-6.987-5.834-8.337-8.493-13.099 1.162 21.858-7.515 16.822-6.999 33.527-11.92-6.264-6.79-8.8-15.456-18.118-5.457 21.977 8.706 31.434 1.467 37.95-5.068-1.532-10.04-3.317-19.283 5.59-9.56 6.813-18.05 15.086-33.764 13.692-6.14-7.402-10.803-17.076-20.932-18.494-3.975-5.135-5.755-12.447-13.62-13.692l-12.043-2.366c-3.317-20.917 12.158-31.281 25.663-28.172 0 0 38.335 14.428 52.258-23.297 16.144-43.74-67.724-85.358 2.438-145.52 10.47-8.979 3.513-46.647 3.513-46.647z" stroke-width="1.00014476"/><path d="M960.455 462.34c-3.843 3.852-7.075 7.639-9.75 11.344 11.563 1.896 22.278 1.917 36.313 9.375 6.543 3.352 8.499-3.236 4.156-5.188-13.36-12.088-21.952-13.66-30.719-15.53zM944.205 484.684c-2.237 4.86-3.598 9.583-4.25 14.219 10.126-1.2 19.526-3.527 33.813 1.812 7.071 2.452 13.141 10.069 20.53 14.281 6.382 4.256 8.594-4.553 3.907-8.812-5.793-8.066-12.998-13.69-21.562-16.906-12.236-3.434-22.057-3.634-32.438-4.594zM940.018 513.215c.852 6.046 2.638 11.937 4.937 17.688 13.113 1.548 26.603 1.63 37.906 9.812 5.484 3.544 16.79-.943 3.907-9.094-3.29-2.672-30.236-15.214-46.75-18.406zM952.111 546.215c3.14 6.183 6.335 12.252 9.032 18.25 9.28 1.024 17-.574 30.812 8.219 7.039 5.478 6.79-3.21 0-8.063-12.343-8.723-26.301-9.685-39.844-18.406zM966.736 580.871c.978 4.957 1.131 9.915.157 14.875 6.456 1.8 12.918 3.696 19.375 11.782 8.176 6.31 6.489-4.567 1.562-10.907-6.162-8.273-13.697-11.797-21.094-15.75z" fill="#000" stroke-width="1"/></g><path d="M1099.864 745.874c-7.435 8.894-3.04 13.378-1.266 21.942-7.681-5.881-15.517-9.746-18.144-24.052 8.897 1.194 14.035-6.127 19.41 2.11z" stroke="#000"/><path d="M1119.696 750.937c-7.435 8.895-4.94 12.956-6.963 21.31-7.68-5.882-12.985-12.49-15.612-26.795 8.897 1.194 17.2-2.752 22.575 5.485zM1145.751 756.106c-7.435 8.895-8.736 17.176-10.76 25.529-7.68-5.881-12.141-17.13-14.768-31.436 8.897 1.194 20.153-2.33 25.528 5.907z" stroke="#000"/><path d="M1016.918 482.806c-8.693-1.14-19.514 2.51-20.096-16.88-7.83-9.646-16.221-19.292-34.564-28.938 17.148-5.969 31.885 8.278 49.033 14.47" fill="#d6b720" stroke="#000"/><path d="M941.023 139.845c-15.133 47.207-43.993 82.256-42.308 143.793 2.325 84.932 24.14 122.564 94.808 157.499 31.184 15.415 15.03 64.38 9.839 83.211-20.787 75.407 62.4 107.13 80.893 118.915 19.841 12.645 51.682 51.182 18.413 67.75-11.535 7.825-26.523 11.68-22.841 36.897 5.655-1.25 11.002-4.305 17.57-.07 6.248-1.597 15.398.086 21.646 6.255 11.328-4.63 17.627-2.003 28.956 3.022 12.053-.38 10.832-17.848 16.235-26.777 15.486-10.591 9.513-21.82-7.099-33.383-2.962-6.029-6.6-10.607-2.67-16.657 4.015-6.504 4.692 7.281 18.202.633-10.948-10.64-10.105-23.392-24.809-26.566 24.396-2.89 10.846-3.29 26.918.773-4.922-14.828-16.576-27.485-32.47-34.789 7.355-1.76 16.861-4.39 33.313 1.195-11.795-19.019-47.262-24.92-61.495-38.935-.873-3.431-1.605-6.803-2.32-10.12 5.703-.068 10.274-5.344 14.689-11.527-6.425-2.782-17.869-7.076-18.484-15.25 7.092 1.311 14.178 2.043 21.857-6.044-10.124-4.43-14.807-11.086-18.483-18.203 1.218-5.787 1.86-11.633 2.038-17.57 7.775 13.211 27.159 39.896 53.272 32.259 27.266-7.975 28.608-31.296 28.112-51.938-.7-29.174-29.296-61.36-52.499-86.725-24.264-26.526-29.791-35.968-32.329-75.622 16.855-9.37 14.852-36.487 12.159-44.839-7.433-23.047-20.873-19.799-25.863-42.8-28.441 31.241-36.37 62.512-6.115 93.753-.814 45.818 26.025 76.9 47.51 100.571 24.387 26.87 45.017 75.919 23.544 80.682-20.204 4.482-32.643-35.657-47.861-61.776-7.596-23.734-29.706-41.55-38.795-56.295-25.538-41.429-23.109-83.745-19.168-137.103 1.488-20.14-39.674-85.88-30.91-106.477l-30.744 13.272-52.71-21.014h0z" fill="#d6b720" stroke="#000"/><path d="M933.704 176.074c-19.615 5.478-29.57 15.328-38.045 25.757-3.737 5.267-5.704 10.09 10.398 10.398-4.224 9.418-10.283 16.083-17.014 21.74-8.214 11.194.387 15.661 3.78 22.212 3.843 9.6-2.58 20.91-5.67 31.665-3.097 19.59 7.516 17.854 15.123 20.795 22.26-4.945 21.281-28.904 31.192-43.953-4.055-7.89-13.81-2.953-22.685 0 23.456-9.788 30.293-25.618 40.644-40.171 5.65-6.932 2.011-6.302-8.507-9.453 21.674 3.21 29.048-15.032 41.59-25.52-4.08-15.847-46.992 5.38-50.806-13.47z" fill="#d6b720" stroke="#000"/><path d="M1118.762 754.089c1.217-33.769 24.913-18.356 29.58-43.553M1097.283 747.92c4.784-25.147 20.304-21.18 25.418-35.526" fill="none" stroke="#000"/><path d="M912.945 669.192c10.644-20.826 26.89-11.665 39.741-20.167M899.896 655.55c8.229-18.276 19.363-10.402 29.064-15.422" fill="#d6b720" stroke="#000"/><g fill="#eac102" stroke="#000" stroke-width=".436"><path d="M857.159 411.793c6.845-8.14 4.671-15.749 3.877-23.439l16.212-.704c1.302 10.215-11.537 18.984-20.09 24.143zM843.416 400.364c-11.33 2.898-19.061 10.524-22.56 16.187-2.127-12.535.85-21.467 6.697-28.373l15.863 12.186zM816.97 367.824c-11.329 2.899-15.182 8.436-18.68 14.098-2.127-12.535.85-21.466 6.697-28.372l11.983 14.274z" fill="#000" stroke-width="1.00014476"/><path d="M826.662 383.684c-4.931 1.262-8.446 3.024-11.132 5.079-3.484 2.665-5.572 5.822-7.548 9.02-2.127-12.535.85-21.467 6.697-28.373l11.983 14.274z" fill="#000" stroke-width="1.00014476"/><path d="M1016.78 284.907c-13.28 69.534-52.419 57.644-80.191 90.845-9.97-9.815-22.75-6.88-40.311-1.125-4.573 5.944-5.18 12.77-17.707 16.947-6.744-1.144-13.294-.925-19.57 1.218l-18.422 11.255c-4.511-10.193-11.148-11.075-17.205-16.631-4.014-5.338-4.485-10.647-14.193-15.986 1.862-7.8-4.941-10.381-10.681-13.62 8.285-17.35 18.904-21.425 28.458-23.154 23.673-4.916 23.776 1.909 35.556 2.94 13.883-13.667 27.35-29.07 42.724-36.775 29.472-63.255 49.8-69.04 74.767-72.904M862.798 363.683c-14.71 15.697-30.505 4.726-39.651 23.438M808.52 371.437c4.076-20.46 16.438-11.134 39.651-19.033" fill="#d6b720" stroke-width="1.00014476"/><path d="M887.08 313.59c-4.098 3.59-8.098 7.5-12.094 11.5l-1.218 2.125c9.416 12.048 35.282 6.299 54.562 7.25 9.99 1.351 20.09 3.063 28.063-2.312 2.883-1.6 10.462-8.842-5.47-6.75-16.398 3.161-28.825-4.143-48.062-1.063-4.94 1.19-11.058-5.452-15.781-10.75zM849.08 333.871c4.779 9.793 7.053 22.3 20.281 22.938 14.98-.004 22.001-6.664 35.594-1.813 10.13 4.243 12.71-3.993 5.438-8.062-13.406-7.802-33.221 2.925-47.813-9.406l-.062.062c-5.943-.52-8.914-2.5-13.438-3.719zM989.049 287.965c-.486.04-.985.14-1.5.281-13.84 2.55-23.013 8.725-30.656 16.094-8.228 6.392-24.145 1.073-27-4.937-3.067-7.516-9.401-9.376-18.563-11.063a390.922 390.922 0 00-6.094 12.469c-.15.075-.288.173-.437.25 5.093.465 9.967 1.211 11.312 7.437 1.882 7.932 27.055 10.717 43.657 7.282 14.609-3.696 18.114-17.836 32.187-17.938 8.13-.403 4.387-10.47-2.906-9.875z" fill="#000" stroke-width="1"/><path d="M997.58 268.059c-18.447-.19-26.596 10.805-51.062 9.281-11.173-.186-17.595-4.442-24.25-8.5a219.338 219.338 0 00-4.875 8.156c11.735 5.25 21.496 12.86 37.437 13.063 7.533-.606 13.403-6.107 27-8.063 6.65-1.633 13.647 1.101 22.344-1.03 3.73-1.178 6.137-2.498 7.562-3.845.458-4.371 1.022-8.813-5.5-8.53-.839-.106-1.724-.162-2.593-.095a49.893 49.893 0 00-6.063-.437z" fill="#000" stroke-width="1"/></g><path d="M1003.414 17.041c28.038-1.898 42.11 13.54 53.877 31.665 11.178-.373 24.483.203 36.864 9.452-5.172 6.753-12.345 10.816-23.63 15.124 5.06 17.782 12.908 35.962-7.562 50.096 1.43 8.001 4.061 18.236-5.199 25.049-3.816-.547-3.362-13.616-8.507-7.562 1.74 19.525-9.383 21.858-16.069 26.938 4.093-6.647-.747-11.508-2.363-17.013-12.564 11.857-16.314 6.724-24.103 4.253-2.53 11.707-7.258 22.681-20.794 30.72-36.11 3.805-44.256-13.243-60.494-23.158-1.852-3.954-6.026-10.193-1.89-16.541-14.897 5.663-13.143-6.062-18.905-11.816 10.009 1.744 18.346.145 24.576-5.671-7.388 1.77-16.85-.292-21.726-4.8 10.942-4.611 16.257-7.361 17.117-17.014-11.124 6.154-11.015-.58-16.186-2.762 8.05-4.277 12.743-9.113 13.233-14.65-7.727 8.317-11.533 6.177-15.596 4.726 11.842-12.482-.856-30.618 19.377-36.391-7.212 2.486-7.28-2.173-9.925-4.254 8.987-3.929 13.226-10.88 18.432-19.85 3.938-3.883 7.877-3.825 11.815-1.417 1.942-11.774 4.243-15.321.472-31.665 8.768 2.697 20.53 2.348 21.74 11.343 11.973-2.05 23.473-.304 35.446 5.198z" fill="#d6b720" stroke="#000"/><path d="M947.485 49.062c-5.441 7.629-9.781 16.536-11.868 24.169.847 13.469-1.322 24.561-.403 36.812" fill="none" stroke="#000"/><path d="M1046.89 101.246c-2.679 12.589-1.681 19.559-6.329 24.27-6.85 4.119-16.463 8.145-30.855 18.863" fill="#d6b720" stroke="#000"/><g fill="#eac102" stroke="#000" stroke-width=".323"><path d="M1488.113 162.628c1.308-2.126-3.264 2.317-7.088 2.03-3.255-.244-3.547-.56-7.768-2.61 2.598 3.253.75 13.678 3.883 15.856 2.094 1.456 4.051.543 6.299.086 2.915-.592 1.957-10.905 4.674-15.362z" fill="#ce1126" transform="matrix(-2.7314 -1.34868 -1.3326 2.85132 5241.373 1646.456)"/><path d="M1471.938 180.835c.62 1.326 3.515 1.45 5.075.319-1.645-2.397-1.872-8.554-2.037-8.726-1.155-1.209-2.194 5.453-3.038 8.407zM1470.254 159.879c.73 2.761 1.356 9.8 2.763 10.754 1.117.758.921-5.511 2.567-7.357M1482.412 180.39c1.46-2.077 2.385-7.36 2.714-7.6.903-.662 1.515 6.583 2.168 9.23M1485.414 163.6c1.434 2.033-.253 8.72 1.04 7.954 1.446-.86 3.74-8.937 4.93-11.737" fill="#e3e4e5" stroke-linecap="round" stroke-linejoin="round" transform="matrix(-2.7314 -1.34868 -1.3326 2.85132 5241.373 1646.456)"/><path d="M1467.087 159.2c2.248-1.704 7.468 5.492 13.72 5.479 6.135-.013 11.769-6.986 13.206-5.736 1.475 3.547-2.803 8.373-4.231 12.565.54 5.556 2.278 12.548-3.718 10.258-4.02-2.038-7.307-2.32-9.617-.256-3.241 1.357-4.393-.42-5.642-2.052-.226-2.262.676-6.532-.296-9.823-1.346-4.561-4.52-8.187-3.422-10.436z" fill="none" transform="matrix(-2.7314 -1.34868 -1.3326 2.85132 5241.373 1646.456)"/></g><path d="M1003.151 96.36c-.314-4.395-7.058.673-13.098-3.675-6.04-4.349-6.99-12.865-10.025-11.448-3.057 1.429-.53 19.758 3.425 22.86 4.102 3.214 20.02-3.264 19.698-7.737z" stroke="#000" stroke-linecap="round" stroke-linejoin="round"/><path d="M973.851 126.773l-15.332 31.418" fill="#eac102" stroke="#000"/><path d="M1095.299 235.34a154.466 154.466 0 00-5.563 6.563c4.828 23.366 8.898 42.953.25 67.656-1.323 8.144 6.226 3.962 6.47-1.125-3.05-19.708 19.856-28.202-1.157-73.094z" fill="#000" stroke-width="1" stroke="#000"/><path d="M1110.009 322.686c-9.152 5.572-13.923 5.494-19.874 5.937a93.583 93.583 0 000 3.593c.126 6.447.84 12.598 1.969 18.468 4.247-2.276 12.159-5.3 19.967-7.593-.896-5.85-1.544-12.537-2.062-20.405zM1114.634 355.277c-6.259 6.866-11.993 10.547-17.906 12.25 2.07 5.703 4.555 11.104 7.312 16.249 6.075-3.83 11.865-7.918 17.593-12.093-3.055-5.139-5.296-10.363-7-16.406zM1129.79 383.182c-1.39 6.743-7.994 11.753-15.969 16.374 3.474 4.947 7.129 9.598 10.812 14.03 7.736-2.38 12.263-9.697 16.624-17.186-4.433-4.866-8.225-9.184-11.468-13.218zM1154.131 410.65c-2.652 6.64-6.607 12.927-16.842 17.436.132.145.275.293.406.437 3.674 4.048 7.254 8.608 10.624 13.437 6.303-2.996 12.262-5.208 17.124-17.936a411.923 411.923 0 00-11.312-13.375zM1178.224 441.273c-4.794 7.61-12.21 13.783-21.343 14.405 3.172 5.692 5.923 11.446 8.093 16.999 11.58-3.418 19.632-8.994 22.843-14.655-2.648-5.599-5.903-11.206-9.593-16.75zM1194.223 477.677c-7.879 4.826-17.253 6.715-25.874 5.062 1.76 6.631 2.339 12.586 1.407 17.186 7.526.804 17.093 5.881 24.56 1.782.673-5.779.67-11.746.532-17.5a47.911 47.911 0 00-.468-5.5 53.073 53.073 0 00-.155-1.03zM1165.756 507.113c-1.237.993-2.75 1.722-4.563 2.124a13.893 13.893 0 01-5.687.094c3.46 9.23 5.775 18.457 7.312 27.686a33.98 33.98 0 003.875-.875c11.22-3.281 18.062-9.152 22.186-16.374-6.942-4.987-14.766-9.084-23.123-12.655zM1129.07 478.208c-3.548 11.795-7.947 21.616-12.999 29.904 4.73 7.287 11.917 16.523 21.124 22.687 3.763-7.884 5.631-17.986 7.25-28.374-5.498-5.823-10.494-14.637-15.375-24.217zM1114.392 677.965c1.641 3.986 2.625 7.992 2.72 11.844 12.233 1.687 26.989-.485 26.03-2.594-9.897.081-19.354-4.302-28.75-9.25zM1083.299 642.684c.32.194.68.41.969.594 5.176 3.299 11.153 8.338 16.593 14.312 6.755-3.78 22.015 1.902 36.563 6.781-9.083-23.724-32.822-20.475-54.125-21.687zM1091.705 612.715c-16.021-.126-32.376 1.517-47.688 6.875 8.405 5.927 16.805 10.774 23.97 14.688 9.612-8.15 19.713-16.127 40.874-20.813-5.63-.411-11.377-.705-17.156-.75zM1096.83 578.278a7.298 7.298 0 00-1.5.125c-8.08 3.84-16.753 6.46-26.219 7.53-38.046 5.919-41.572 1.673-57.531 1.095 5.847 9.317 13.434 17.303 21.531 24.156 15.185-4.021 27.514-8.53 39.625-13.063 8.848-3.603 17.723-7.193 25.219-13.5 5.799-3.653 2.378-6.21-1.125-6.343zM1000.205 542.59c-.594 9.252.494 17.724 2.781 25.5 21.722-2.643 36.553-8.58 73.907-3.719 4.863 1.559 12.077-5.215 0-7.812-21.013-11.23-49.996-10.943-76.688-13.969zM1023.393 515.008c32.536 4.627 37.388 23.164 67.015 30.39 7.18 3.183 17.141-6.646 6.494-9.61-40.824-4.736-36.39-30.273-69.093-32.47-5.65-.066-11.833 9.565-4.416 11.69zM1114.424 449.371c-6.652 13.97-23.622 39.676-26.875 42.532-7.522 8.793 1.882 12.394 8.844 6.468 12.261-10.617 19.55-22.361 25.624-34.406-2.498-5.047-4.999-9.995-7.593-14.594zM1091.049 411.809c1.195 14.228-2.49 26.274-6.094 38-4.461 12.31-9.7 16.065-10.406 24.687-.942 11.857 7.547 7.65 9.625 1.813 4.292-11.491 6.634-14.984 15.062-24.406 4.66-5.07 6.82-11.568 8.125-17.844-4.636-8.133-10.571-15.495-16.312-22.25zM1068.58 380.496c3.389 15.608.411 28.95-2.531 41.907-3.528 12.61-8.473 16.724-8.531 25.375-.053 11.893 8.083 7.07 9.718 1.093 3.42-11.78 5.52-15.441 13.219-25.468 3.826-4.846 5.548-10.702 6.469-16.438-4.863-5.657-9.367-10.932-12.375-15.812a140.648 140.648 0 01-5.969-10.657zM1024.432 478.123c-4.94 4.844-5.844.512-5.195-3.117-.347-9.87 4.242-18.183 3.896-28.053 4.636-22.85 15.252-29.75 23.637-42.6l9.611-13.506c2.764-.298 7.036-2.774 3.896 5.454-5.696 25.635-16.95 39.044-25.715 57.925l-10.13 23.897zM1054.424 331.84c-4.775 8.515-10.473 16.914-11.031 26.031-1.504 15.724-18.254 20.425-28.063 30.125l-12.719 14.282c-6.568 5.116-4.207 18.72 10.906 5.437 4.373-3.29 6.155-6.554 7.813-9.844 9.178-5.887 19.206-8.387 27.531-17.687 5.312-4.937 8.507-12.4 11.469-20.156-2.878-9.201-4.767-18.565-5.906-28.188zM1053.517 283.121c-24.04 19.354-35.458 45.622-46.5 72.125-4.37 12.051 1.821 22.98 10.657 9.625 11.131-15.526 21.477-31.732 35.718-44.593-.722-11.876-.51-24.217.125-37.157zM938.714 383.314c9.87-.433 19.741 2.309 29.611-1.299 16.327-7.546 15.998-26.622 23.898-40.002 1.624-2.677 6.28-4.827 5.714 6.234 1.343 26-6.931 33.884-15.065 43.639-11.383 9.644-28.223.187-42.34.26-9.213-1.544-9.331-8.305-1.818-8.832z" stroke="#000"/><g fill="#eac102" stroke="#000" fill-rule="evenodd"><path d="M955.212 38.524c19.672.548 22.26-2.197 36.543 28.634" fill="#d6b720" stroke-width="1.00079165" stroke-linecap="round" stroke-linejoin="round"/><path d="M991.365 67.935c-6.54-.19-10.036-.96-13.333-5.15-5.517-6.588-4.905-12.06-8.27-13.935 2.14-2.638 4.484-4.96 9.6-2.95 8.957 9.234 6.088 12.573 12.003 22.035z" fill="#e3e4e5" stroke-width="1.00079165" stroke-linecap="round" stroke-linejoin="round"/><path d="M983.795 58.966c-.998 1.958-2.375 3.537-3.612 4.14-1.237.604-2.147.14-2.385-1.216-.238-1.356.231-3.397 1.23-5.355.999-1.958 2.375-3.537 3.613-4.14 1.237-.604 2.146-.14 2.384 1.216.238 1.356-.23 3.398-1.23 5.355z" fill="#000" stroke-width="1.00079165"/><g stroke-width=".357"><path d="M1924.762 137.212c8.102-6.148 8.387-7.45 15.719-2.02" fill="#d6b720" stroke-linecap="round" stroke-linejoin="round" transform="matrix(2.46571 1.25746 -1.28534 2.52039 -3562.73 -2691.512)"/><path d="M1924.805 137.457c2.136.99 3.388 1.31 5.137.52 2.857-1.189 3.558-3.01 4.949-3.06-.256-1.174-.63-2.282-2.606-2.47-4.398 1.468-4.023 2.98-7.48 5.01z" fill="#e3e4e5" stroke-linecap="round" stroke-linejoin="round" transform="matrix(2.46571 1.25746 -1.28534 2.52039 -3562.73 -2691.512)"/><path d="M1930.61 135.978c0 .777-.183 1.495-.483 1.884-.299.388-.668.388-.967 0-.299-.389-.483-1.107-.483-1.884 0-.777.184-1.495.483-1.884.3-.388.668-.388.967 0 .3.389.484 1.107.483 1.884z" fill="#000" transform="matrix(2.46571 1.25746 -1.28534 2.52039 -3562.73 -2691.512)"/></g></g><path d="M946.701 1.918c5.395 7.028 16.13 9.47 13.706 19.85M1094.155 57.686c-10.344-.36-21.083-3.883-30.247 5.198" fill="#d6b720" stroke="#000"/><path d="M982.147 35.473c17.522 7.526 37.656 17.639 51.514 28.83 7.606 7.577 13.586 5.234 9.925-.473-16.644-14.948-34.755-27.843-57.658-34.028-6.014-2.847-10.218.702-3.781 5.671zM976.861 11.028a57.07 57.07 0 00-8.906.812c-.006-.044-.025-.082-.031-.125l-2.094 6.875c14.919 4.97 27.493 5.987 44.781 14.906 7.087 2.02 7.94-2.548 2.688-5.343-10.367-4.676-16.631-9.356-31.938-14.032l-2.156-3.093c-.777-.023-1.565-.01-2.344 0zM1061.05 50.877a57.064 57.064 0 014.228 7.88c.04-.019.082-.024.122-.042l-4.585 5.534c-12.365-9.713-20.141-19.647-37.109-29.163-5.589-4.801-2.247-8.03 2.98-5.186 9.612 6.076 16.97 8.726 29.303 18.925l3.77.096c.447.636.87 1.3 1.291 1.956zM917.111 97.934c-2.18 2.144-5.095 4.154-8.687 6.062 5.171 2.181 5.063 8.936 16.187 2.782-.381 4.28-1.638 7.2-3.875 9.53a102.595 102.595 0 0010.188 6.532c8.068 6.179 9.79 3.903 6.875-4.562-7.248-6.725-14.322-13.473-20.688-20.344zM1065.392 121.559c-5.811 4.243-13.107 8.475-25.03 12.719-10.13 6.971-8.002 10.123 1.374 11l7.688-1.188a45.052 45.052 0 00-.156-3.219c2.944-3.464 4.06-.661 5.187 2.47l8.563-1.345c2.592-5.958.965-12.874-.063-18.625a43.89 43.89 0 002.438-1.812z" stroke="#000"/><path d="M154.55 74.31c14.454-6.195 21.039-18.057 41.209-12.82M204.916 57.368c1.9-12.477 20.212-17.537 29.763-25.641M191.638 102.24c4.504-7.361 12.614-12.29 21.978-12.362 6.429-7.137 11.452-12.965 21.52-12.821M185.456 94.229c4.505-7.362 12.615-12.291 21.979-12.363 6.429-7.136 11.451-12.964 21.52-12.82" fill="none" stroke="#000"/><path d="M1054.767 247.246c-3.366 3.361-6.984 6.401-10.437 8.47-8.12 4.862-13.878 3.522-17.656 7.905-4.1 4.17-5.825 8.856 4.437 8.907 4.957.126 16.518-4.654 23.594-8.97.22-3.13.45-6.291.688-9.5.14-1.894-.088-4.185-.626-6.812zM1038.799 204.809c-13.004 12.802-19.12 27.497-21.875 43.094-1.328 7.023 4.431 10.256 6.844 5.593 8.377-11.391 10.122-22.266 23.156-29.375-2.498-6.141-5.332-12.701-8.125-19.312zM1027.611 175.934c-5.26 8.799-18.891 25.868-23.281 26.937-3.303.805-23.937 2.532-23.937 2.532-6.416 1.171-7.121 3.897-2.907 7.968 10.969 1.234 18.936 5.456 33.344 3.25 12.396-1.432 18.242-10.49 25.375-18.062-3.221-7.767-6.268-15.49-8.594-22.625z" stroke="#000"/><g><g fill="#fff" stroke="#3c5497" stroke-width="3.281"><path d="M-229.763 709.043c26.132 77.032 109.432 80.22 143.1 144.356 1.81-20.084-2.352-40.168-6.276-60.253 17.155 4.904 34.31 11.19 51.466 25.106-14.816-57.847-70.099-62.764-92.89-94.145M786.43 709.043c-26.133 77.032-109.433 80.22-143.101 144.356-1.81-20.084 2.352-40.168 6.276-60.253-17.155 4.904-34.31 11.19-51.466 25.106 14.816-57.847 70.099-62.764 92.89-94.145" transform="matrix(1.15508 0 0 1.11863 303.993 48.723)"/></g><path d="M59.525 761.981c-3.586 2.724-1.465 25.572-2.593 41.732s-21.737 35.869-17.705 39.32C219.75 901.92 405.795 945.978 625.435 945.978s394.848-42.987 590.256-102.945c4.031-3.451-15.128-26.06-16.256-42.22-1.128-16.16-.457-37.558-4.043-40.282-194.663 69.114-341.192 100.045-570.117 100.045-228.925 0-383.336-38.92-565.75-98.595z" fill="#3c5497" stroke="#3c5497" stroke-width="1.00028196"/><g style="text-align:start;line-height:125%;-inkscape-font-specification:Segoe UI Bold" font-size="80.7" font-weight="700" fill="#d6b61e" stroke="#d6b61e" stroke-width=".866" font-family="Segoe UI"><path d="M-85.416 752.105l-12.07-3.512 9.447-32.462c1.02-3.506 2.298-7.334 3.834-11.484l-.303-.088c-1.6 3.146-2.864 5.377-3.794 6.694l-23.447 33.19-9.989-2.907-2.315-40.276c-.067-1.087.1-3.774.5-8.063l-.341-.099c-1.228 5.443-2.43 10.182-3.604 14.218l-8.73 30.003-11.01-3.203 15.787-54.256 17.896 5.208 1.728 35.385c.134 2.83.025 5.602-.328 8.318l.227.066c1.555-2.803 3.033-5.205 4.436-7.204l20.422-28.859 17.442 5.076zM-24.445 766.105l-13.514-3.128-1.08-13.152-19.58-4.532-6.711 11.349-13.437-3.11 32.781-50.412 14.704 3.403zm-15.232-26.458l-1.63-19.873c-.114-1.482-.04-3.204.226-5.165l-.307-.071a21.555 21.555 0 01-2.07 4.576l-10.308 17.272zM9.985 749.9c-1.47 7.422-4.314 12.764-8.535 16.026-4.22 3.262-9.59 4.248-16.11 2.957-2.912-.576-5.506-1.612-7.78-3.106l2.318-11.713c1.817 2.047 4.053 3.333 6.707 3.859 5.695 1.127 9.38-2.536 11.052-10.988L4.156 714l12.446 2.463zM67.219 757.653c-2.773 16.742-11.96 23.821-27.562 21.237-15.135-2.507-21.349-11.937-18.64-28.29l5.331-32.189 12.596 2.087-5.357 32.343c-1.494 9.02 1.283 14.113 8.333 15.28 6.92 1.146 11.1-2.635 12.543-11.343l5.434-32.81 12.557 2.08zM108.73 787.86l-33.36-4.41 7.404-56.018 12.618 1.668-6.052 45.783 20.744 2.742zM165.768 793.69l-13.803-1.37-2.757-12.905-19.998-1.986-5.203 12.115-13.724-1.362 26.052-54.197 15.018 1.49zm-18.496-24.288l-4.162-19.5c-.305-1.455-.45-3.172-.44-5.151l-.313-.031a21.555 21.555 0 01-1.467 4.804l-8.009 18.45zM221.627 797.069l-12.745-.752 1.355-22.972-23.365-1.379-1.355 22.973-12.706-.75 3.328-56.408 12.705.75-1.327 22.5 23.366 1.378 1.327-22.5 12.745.752zM276.65 796.057l-.12-12.609c4.555 3.793 9.551 5.663 14.989 5.612 2.6-.024 4.618-.575 6.053-1.653 1.434-1.077 2.144-2.47 2.128-4.177-.014-1.471-.632-2.851-1.852-4.14-1.22-1.29-4.127-2.989-8.718-5.1-8.654-3.99-13.014-9.466-13.08-16.427-.048-5.07 1.785-9.152 5.5-12.248 3.714-3.096 8.697-4.673 14.95-4.732 5.516-.052 10.093.627 13.732 2.038l.111 11.781c-3.807-2.591-8.154-3.864-13.04-3.817-2.443.023-4.369.566-5.777 1.63-1.409 1.064-2.105 2.45-2.09 4.158.017 1.68.589 3.107 1.716 4.279 1.128 1.171 3.499 2.594 7.114 4.267 5.594 2.6 9.454 5.205 11.58 7.812 2.126 2.607 3.206 5.696 3.24 9.269.05 5.201-1.784 9.33-5.498 12.386-3.715 3.056-9.145 4.618-16.29 4.685-5.858.056-10.74-.95-14.648-3.014zM335.015 797.094l-12.72.43-1.913-56.473 12.72-.43zM398.55 793.465l-12.819.83-25.534-33.923c-1.498-1.983-2.543-3.481-3.135-4.496l-.157.01c.339 1.98.64 5.013.906 9.103l2.007 30.985-11.993.777-3.653-56.387 13.684-.887 24.598 32.879a81.154 81.154 0 013.129 4.417l.157-.01c-.294-1.297-.566-3.873-.816-7.726l-2.02-31.182 11.993-.777zM457.226 783.643c-5.151 3.742-11.802 6.044-19.953 6.907-9.039.957-16.429-.79-22.17-5.241-5.741-4.45-9.077-11.065-10.006-19.843-.935-8.83 1.15-16.328 6.257-22.495 5.105-6.167 12.387-9.752 21.844-10.753 5.956-.63 11.294-.363 16.013.801l1.257 11.873c-4.602-2.049-10.037-2.741-16.307-2.077-5.25.556-9.348 2.713-12.292 6.472-2.944 3.76-4.114 8.486-3.511 14.181.611 5.773 2.567 10.084 5.866 12.93 3.3 2.848 7.47 4.004 12.513 3.47 3.03-.32 5.388-1.006 7.073-2.056l-1.162-10.972-11.246 1.19-1.07-10.11 23.903-2.53zM517.716 778.909l-13.728 1.978-5.771-11.868-19.891 2.866-2.146 13.01-13.65 1.966L474.828 728l14.937-2.152zm-23.78-19.147l-8.714-17.933c-.645-1.34-1.198-2.973-1.661-4.896l-.312.045a21.554 21.554 0 01-.273 5.015l-3.353 19.832zM533.735 756.206l3.45 19.157-12.527 2.256-10.012-55.612 19.623-3.533c14.013-2.523 22.083 2.123 24.21 13.939 1.006 5.584-.191 10.464-3.59 14.64-3.399 4.175-8.46 6.867-15.181 8.077zm-4.831-26.837l3.12 17.335 4.926-.886c6.67-1.201 9.48-4.723 8.427-10.566-1.028-5.714-4.878-7.97-11.548-6.77zM613.296 734.96c3.614 16.58-2.305 26.555-17.757 29.922-14.99 3.267-24.249-3.197-27.779-19.393l-6.948-31.879 12.475-2.718 6.981 32.032c1.947 8.932 6.41 12.638 13.392 11.116 6.853-1.494 9.34-6.552 7.46-15.177l-7.082-32.494 12.436-2.71zM672.439 745.027l-14.147 3.685-9.194-12.63c-2.997-4.107-6.046-5.756-9.148-4.948l-2.669.696 5.453 20.934-12.317 3.208-14.243-54.681 19.524-5.086c13.27-3.456 21.196-.227 23.778 9.687.987 3.788.735 7.274-.757 10.459-1.491 3.184-4.05 5.792-7.674 7.821l.04.153c3.468.183 6.805 2.313 10.012 6.391zm-41.544-37.716l3.963 15.214 5.338-1.39c2.644-.689 4.573-2.012 5.786-3.97 1.214-1.96 1.523-4.082.927-6.37-1.245-4.78-4.727-6.424-10.447-4.934zM727.52 727.903l-13.225 4.18-7.62-10.775-19.163 6.056-.007 13.185-13.15 4.157 2.584-60.078 14.39-4.548zm-26.571-15.034l-11.51-16.281c-.853-1.218-1.664-2.739-2.434-4.562l-.3.095c.373 1.618.555 3.282.545 4.993l-.09 20.113z" transform="matrix(1.06203 0 0 .95657 328.118 166.572)"/></g></g></svg>