<svg xmlns="http://www.w3.org/2000/svg" version="1.0" width="914.396" height="1085.317"><path d="M727.222 837.844c12.96-76.844-10.173-134.79-18.715-201.71-16.636-9.969-33.272 19.364-49.908 38.817 4.81 68.794 25.324 123.357 8.318 207.255M184.382 837.844c-12.96-76.844 15.025-134.79 23.567-201.71 16.636-9.969 33.272 19.364 49.908 38.817-4.81 68.794-30.176 123.357-13.17 207.255" fill="#fff" stroke="#000"/><g fill="#fff" fill-rule="evenodd" stroke="#000"><g stroke-width=".907"><path d="M697.8 300.025c30.238-5.192 133.438 48.608 146.76 62.034 24.701 24.894 50.083 55.425 66.352 82.662 46.2 77.34 56.812 178.253 8.779 270.297-39.135 74.994-134.289 128.413-152.787 142.92-18.978 14.885-104.754 77.114-110.45 89.52-2.56-5.876-5.064-10.85-.88-19.244 15.284-14.894 82.663-59.666 120.86-83.647 76.757-48.19 152.074-116.38 165.737-224.89 7.51-59.65-8.219-118.934-34.275-167.64-19.368-36.2-47.419-64.777-69.754-85.304-23.428-21.53-124.224-67.114-143.62-63.028l3.277-3.68z" transform="matrix(.95142 .44776 -.32373 1.31011 74.64 -619.955)"/><path d="M794.76 839.662s16.89-14.63 64.2-13.76c47.309.868 91.806-11.34 91.806-11.34s-41.923 24.757-79.168 28.13c-37.244 3.372-74.191-3.95-76.838-3.03zM822.267 816.57s15.27-15.61 60.421-17.566c45.152-1.956 86.878-16.798 86.878-16.798s-38.557 27.214-73.872 32.804c-35.315 5.589-70.956.484-73.427 1.56zM856.938 789.294s13.101-15.746 54.053-20.2c40.95-4.455 78.143-20.986 78.143-20.986s-33.693 28.135-65.52 35.486c-31.826 7.35-64.483 4.533-66.676 5.7zM883.4 764.997s10.679-17.48 50.55-27.828c39.872-10.348 74.273-32.1 74.273-32.1s-29.255 32.725-59.678 44.615c-30.424 11.89-63.145 13.84-65.145 15.313zM905.46 739.886s8.41-18.678 46.675-33.93c38.265-15.25 69.677-41.133 69.677-41.133s-24.934 36.126-53.633 51.726c-28.698 15.6-60.918 21.626-62.718 23.337zM921.485 709.216s6.016-19.581 42.081-39.483c36.066-19.902 64.006-49.499 64.006-49.499s-20.236 38.953-46.766 58.009c-26.53 19.056-57.748 29.05-59.32 30.973zM934.837 674.06s4.223-23.384 40.824-50.37c36.601-26.985 63.316-64.354 63.316-64.354s-17.323 47.406-43.736 72.384c-26.413 24.978-58.93 39.94-60.404 42.34zM946.138 638.059s.976-22.455 33.176-52.47c32.2-30.016 53.313-68.481 53.313-68.481s-10.559 46.655-33.052 73.472c-22.492 26.817-52.318 45.039-53.437 47.479zM949.8 599.71s-1.346-21.23 26.331-52.7c27.677-31.47 43.921-69.782 43.921-69.782s-5.343 44.964-24.083 72.453c-18.74 27.488-45.348 47.62-46.169 50.029zM946.627 569.857s-4.129-20.114 20.792-53.398c24.921-33.284 37.005-71.765 37.005-71.765s.172 43.557-15.91 71.995c-16.083 28.439-41.338 50.773-41.887 53.168zM945.412 534.374s-7.843-17.5 11.217-51.659c19.06-34.158 24.217-70.911 24.217-70.911s8.137 39.333-2.89 67.665c-11.028 28.332-32.427 52.65-32.544 54.905zM938.072 502.78s-10.403-16.11 3.263-52.761c13.667-36.652 13.198-73.762 13.198-73.762s14 37.647 7.39 67.323c-6.608 29.675-24.077 56.954-23.851 59.2zM926.167 472.986s-12.54-14.51-4.095-52.704 2.827-74.88 2.827-74.88 19.093 35.339 16.668 65.645c-2.424 30.306-15.936 59.745-15.4 61.939zM911.071 442.283s-14.387-12.68-11.187-51.665c3.2-38.985-7.33-74.573-7.33-74.573s23.698 32.43 25.396 62.785c1.698 30.355-7.706 61.352-6.879 63.453zM891.415 415.459s-17.102-10.325-18.523-47.22c-1.422-36.897-17.226-69.116-17.226-69.116s29.612 27.828 35.238 56.102c5.625 28.273-.644 58.354.511 60.234zM865.166 386.45s-16.304-7.45-21.296-40.064c-4.992-32.616-22.348-59.635-22.348-59.635s29.235 21.734 37.109 46.272c7.873 24.537 5.315 51.875 6.535 53.427zM836.904 357.864s-14.584-4.513-22.873-33.311c-8.29-28.797-26.22-50.854-26.22-50.854s27.206 15.663 36.889 36.768c9.682 21.105 10.987 46.16 12.204 47.397zM756.263 319.503s-11.989-7.592-40.484-1.89c-28.496 5.702-56.88 2.67-56.88 2.67s28.352 11.399 51.279 9.524c22.926-1.874 44.374-10.609 46.085-10.304zM806.465 338.112s-12.786-.818-25.28-23.885c-12.493-23.066-31.502-38.294-31.502-38.294s25.296 7.765 37.392 23.91c12.096 16.146 18.151 37.459 19.39 38.269zM815.565 351.465s-6.2-11.212-32.393-12.656c-26.193-1.445-48.082-12.128-48.082-12.128s17.826 19.555 37.591 23.597c19.765 4.04 41.623.412 42.884 1.187zM855.001 381.647S848.191 370 819.42 368.5c-28.771-1.5-52.814-12.599-52.814-12.599s19.58 20.314 41.291 24.512c21.71 4.198 45.72.429 47.105 1.233z" transform="matrix(.95142 .44776 -.32373 1.31011 74.64 -619.955)"/><path d="M886.77 415.143s-7.096-13.816-40.225-17.45c-33.13-3.636-60.164-17.968-60.164-17.968s21.272 24.61 46.068 30.87c24.797 6.26 52.775 3.533 54.321 4.548zM903.605 439.9s-7.096-13.817-40.226-17.452c-33.13-3.635-60.164-17.967-60.164-17.967s21.272 24.61 46.069 30.87c24.796 6.261 52.774 3.533 54.32 4.548z" transform="matrix(.95142 .44776 -.32373 1.31011 74.64 -619.955)"/><path d="M923.83 472.656s-5.904-14.581-41.708-22.25c-35.805-7.67-63.484-25.21-63.484-25.21s19.975 27.033 46.295 36.287c26.319 9.253 57.34 9.977 58.897 11.173z" transform="matrix(.95142 .44776 -.32373 1.31011 74.64 -619.955)"/><path d="M934.322 502.8s-4.039-15.204-38.607-27.282c-34.567-12.077-59.841-32.933-59.841-32.933s16.445 29.313 41.404 41.78c24.96 12.465 55.648 17.053 57.044 18.435zM941.253 531.517s-3.754-15.204-35.887-27.281c-32.134-12.078-55.628-32.934-55.628-32.934s15.287 29.313 38.489 41.78c23.201 12.465 51.73 17.054 53.026 18.435z" transform="matrix(.95142 .44776 -.32373 1.31011 74.64 -619.955)"/><path d="M946.704 570.871s-2.264-17.945-35.085-35.785c-32.821-17.84-55.45-44.713-55.45-44.713s12.932 35.588 36.204 52.777c23.272 17.188 53.108 25.973 54.331 27.721zM946.704 598.598s-2.165-17.945-33.55-35.786c-31.385-17.84-53.023-44.713-53.023-44.713s12.366 35.589 34.62 52.778c22.253 17.188 50.783 25.973 51.953 27.721z" transform="matrix(.95142 .44776 -.32373 1.31011 74.64 -619.955)"/><path d="M941.343 637.174s.482-18.07-27.956-40.308c-28.439-22.238-45.914-51.986-45.914-51.986s7.028 37.014 26.529 57.272c19.5 20.258 46.44 33.122 47.34 35.022z" transform="matrix(.95142 .44776 -.32373 1.31011 74.64 -619.955)"/><path d="M933.642 672.909s2.617-17.886-22.99-43.333c-25.607-25.448-39.439-57.055-39.439-57.055s2.599 37.586 19.565 60.01c16.966 22.423 42.193 38.384 42.864 40.378zM917.477 707.44s5.07-17.35-16.766-46.099c-21.836-28.749-31.158-61.967-31.158-61.967s-2.631 37.584 11.066 62.14c13.697 24.558 36.47 43.859 36.858 45.926zM903.418 732.878s5.935-14.355-12.233-40.114c-18.168-25.76-24.427-54.485-24.427-54.485s-5.123 31.64 5.807 53.32 30.642 39.503 30.853 41.279zM878.303 765.395s8.795-12.803-3.606-41.783-12.537-58.378-12.537-58.378-11.604 29.877-5.431 53.359c6.172 23.481 21.737 45.021 21.574 46.802zM854.93 787.024s9.728-10.114 1.125-36.187c-8.602-26.073-5.534-51.298-5.534-51.298s-14.246 24.48-10.95 45.226c3.297 20.744 15.707 40.748 15.359 42.259zM818.738 816.697s12.002-7.272 10.393-34.68c-1.61-27.408 7.842-50.997 7.842-50.997s-20.062 19.995-22.21 40.89c-2.149 20.895 4.7 43.417 3.975 44.787zM787.366 838.175s12.861-5.615 14.905-32.994c2.043-27.38 14.542-49.504 14.542-49.504s-22.539 17.154-27.442 37.58c-4.903 20.424-1.104 43.656-2.005 44.918z" transform="matrix(.95142 .44776 -.32373 1.31011 74.64 -619.955)"/></g><path d="M387.37 1057.742c-10.908-10.169-8.027-17.123-5.548-20.802" stroke-width=".992" transform="matrix(-.94172 0 0 1.23662 757.55 -393.255)"/><path d="M702.045 146.444s-11.9-6.796-16.32-42.61c-4.418-35.814-17.574-64.276-17.574-64.276s21.553 21.5 27.835 48.068c6.281 26.569 5.143 57.202 6.059 58.818zM669.336 113.346s-8.548-15.543-37.358-21.583c-28.81-6.04-54.392-23.392-54.392-23.392s22.56 28.225 44.769 36.615 45.482 7.154 46.98 8.36zM662.464 94.218s-13.044 4.201-42.465-16.693c-29.421-20.894-59.308-30.379-59.308-30.379s30.41-1.41 54.263 11.873c23.851 13.282 45.7 34.786 47.51 35.199z" stroke-width="1.07"/><path d="M670.99 106.42s-9.933-3.268-18.792-29.48c-8.86-26.211-23.096-45.554-23.096-45.554s19.42 12.82 28.233 31.8c8.813 18.982 12.721 42.161 13.656 43.233z" stroke-width="1.07"/><g><g stroke-width=".907"><path d="M697.8 300.025c30.238-5.192 133.438 48.608 146.76 62.034 24.701 24.894 50.083 55.425 66.352 82.662 46.2 77.34 56.812 178.253 8.779 270.297-39.135 74.994-134.289 128.413-152.787 142.92-18.978 14.885-104.754 77.114-110.45 89.52-2.56-5.876-5.064-10.85-.88-19.244 15.284-14.894 82.663-59.666 120.86-83.647 76.757-48.19 152.074-116.38 165.737-224.89 7.51-59.65-8.219-118.934-34.275-167.64-19.368-36.2-47.419-64.777-69.754-85.304-23.428-21.53-124.224-67.114-143.62-63.028l3.277-3.68z" transform="matrix(-.95142 .44776 .32373 1.31011 836.499 -619.955)"/><path d="M794.76 839.662s16.89-14.63 64.2-13.76c47.309.868 88.936-14.919 88.936-14.919s-38.913 30.688-76.158 34.06c-37.245 3.373-74.331-6.301-76.978-5.381zM822.267 816.57s15.27-15.61 60.421-17.566c45.152-1.956 71.031-8.982 71.031-8.982s-22.71 19.398-58.025 24.988c-35.315 5.589-70.956.484-73.427 1.56zM856.938 789.294s13.101-15.746 54.053-20.2c40.95-4.455 78.143-20.986 78.143-20.986s-33.693 28.135-65.52 35.486c-31.826 7.35-64.483 4.533-66.676 5.7zM883.4 764.997s10.679-17.48 50.55-27.828c39.872-10.348 74.273-32.1 74.273-32.1s-29.255 32.725-59.678 44.615c-30.424 11.89-63.145 13.84-65.145 15.313zM905.46 739.886s8.41-18.678 46.675-33.93c38.265-15.25 69.677-41.133 69.677-41.133s-24.934 36.126-53.633 51.726c-28.698 15.6-60.918 21.626-62.718 23.337zM921.485 709.216s6.016-19.581 42.081-39.483c36.066-19.902 64.006-49.499 64.006-49.499s-20.236 38.953-46.766 58.009c-26.53 19.056-57.748 29.05-59.32 30.973zM934.837 674.06s4.223-23.384 40.824-50.37c36.601-26.985 63.316-64.354 63.316-64.354s-17.323 47.406-43.736 72.384c-26.413 24.978-58.93 39.94-60.404 42.34zM946.138 638.059s.976-22.455 33.176-52.47c32.2-30.016 53.313-68.481 53.313-68.481s-10.559 46.655-33.052 73.472c-22.492 26.817-52.318 45.039-53.437 47.479zM949.8 599.71s-1.346-21.23 26.331-52.7c27.677-31.47 43.921-69.782 43.921-69.782s-5.343 44.964-24.083 72.453c-18.74 27.488-45.348 47.62-46.169 50.029zM946.627 569.857s-4.129-20.114 20.792-53.398c24.921-33.284 37.005-71.765 37.005-71.765s.172 43.557-15.91 71.995c-16.083 28.439-41.338 50.773-41.887 53.168zM945.412 534.374s-7.843-17.5 11.217-51.659c19.06-34.158 24.217-70.911 24.217-70.911s8.137 39.333-2.89 67.665c-11.028 28.332-32.427 52.65-32.544 54.905zM938.072 502.78s-10.403-16.11 3.263-52.761c13.667-36.652 13.198-73.762 13.198-73.762s14 37.647 7.39 67.323c-6.608 29.675-24.077 56.954-23.851 59.2zM926.167 472.986s-12.54-14.51-4.095-52.704 2.827-74.88 2.827-74.88 19.093 35.339 16.668 65.645c-2.424 30.306-15.936 59.745-15.4 61.939zM911.071 442.283s-14.387-12.68-11.187-51.665c3.2-38.985-7.33-74.573-7.33-74.573s23.698 32.43 25.396 62.785c1.698 30.355-7.706 61.352-6.879 63.453zM891.415 415.459s-17.102-10.325-18.523-47.22c-1.422-36.897-17.226-69.116-17.226-69.116s29.612 27.828 35.238 56.102c5.625 28.273-.644 58.354.511 60.234zM865.166 386.45s-16.304-7.45-21.296-40.064c-4.992-32.616-22.348-59.635-22.348-59.635s29.235 21.734 37.109 46.272c7.873 24.537 5.315 51.875 6.535 53.427zM836.904 357.864s-14.584-4.513-22.873-33.311c-8.29-28.797-26.22-50.854-26.22-50.854s27.206 15.663 36.889 36.768c9.682 21.105 10.987 46.16 12.204 47.397zM756.263 319.503s-11.989-7.592-40.484-1.89c-28.496 5.702-56.88 2.67-56.88 2.67s28.352 11.399 51.279 9.524c22.926-1.874 44.374-10.609 46.085-10.304zM806.465 338.112s-12.786-.818-25.28-23.885c-12.493-23.066-31.502-38.294-31.502-38.294s25.296 7.765 37.392 23.91c12.096 16.146 18.151 37.459 19.39 38.269zM815.565 351.465s-6.2-11.212-32.393-12.656c-26.193-1.445-48.082-12.128-48.082-12.128s17.826 19.555 37.591 23.597c19.765 4.04 41.623.412 42.884 1.187zM855.001 381.647S848.191 370 819.42 368.5c-28.771-1.5-52.814-12.599-52.814-12.599s19.58 20.314 41.291 24.512c21.71 4.198 45.72.429 47.105 1.233z" transform="matrix(-.95142 .44776 .32373 1.31011 836.499 -619.955)"/><path d="M886.77 415.143s-7.096-13.816-40.225-17.45c-33.13-3.636-60.164-17.968-60.164-17.968s21.272 24.61 46.068 30.87c24.797 6.26 52.775 3.533 54.321 4.548zM903.605 439.9s-7.096-13.817-40.226-17.452c-33.13-3.635-60.164-17.967-60.164-17.967s21.272 24.61 46.069 30.87c24.796 6.261 52.774 3.533 54.32 4.548z" transform="matrix(-.95142 .44776 .32373 1.31011 836.499 -619.955)"/><path d="M923.83 472.656s-5.904-14.581-41.708-22.25c-35.805-7.67-63.484-25.21-63.484-25.21s19.975 27.033 46.295 36.287c26.319 9.253 57.34 9.977 58.897 11.173z" transform="matrix(-.95142 .44776 .32373 1.31011 836.499 -619.955)"/><path d="M934.322 502.8s-4.039-15.204-38.607-27.282c-34.567-12.077-59.841-32.933-59.841-32.933s16.445 29.313 41.404 41.78c24.96 12.465 55.648 17.053 57.044 18.435zM941.253 531.517s-3.754-15.204-35.887-27.281c-32.134-12.078-55.628-32.934-55.628-32.934s15.287 29.313 38.489 41.78c23.201 12.465 51.73 17.054 53.026 18.435z" transform="matrix(-.95142 .44776 .32373 1.31011 836.499 -619.955)"/><path d="M946.704 570.871s-2.264-17.945-35.085-35.785c-32.821-17.84-55.45-44.713-55.45-44.713s12.932 35.588 36.204 52.777c23.272 17.188 53.108 25.973 54.331 27.721zM946.704 598.598s-2.165-17.945-33.55-35.786c-31.385-17.84-53.023-44.713-53.023-44.713s12.366 35.589 34.62 52.778c22.253 17.188 50.783 25.973 51.953 27.721z" transform="matrix(-.95142 .44776 .32373 1.31011 836.499 -619.955)"/><path d="M941.343 637.174s.482-18.07-27.956-40.308c-28.439-22.238-45.914-51.986-45.914-51.986s7.028 37.014 26.529 57.272c19.5 20.258 46.44 33.122 47.34 35.022z" transform="matrix(-.95142 .44776 .32373 1.31011 836.499 -619.955)"/><path d="M933.642 672.909s2.617-17.886-22.99-43.333c-25.607-25.448-39.439-57.055-39.439-57.055s2.599 37.586 19.565 60.01c16.966 22.423 42.193 38.384 42.864 40.378zM917.477 707.44s5.07-17.35-16.766-46.099c-21.836-28.749-31.158-61.967-31.158-61.967s-2.631 37.584 11.066 62.14c13.697 24.558 36.47 43.859 36.858 45.926zM903.418 732.878s5.935-14.355-12.233-40.114c-18.168-25.76-24.427-54.485-24.427-54.485s-5.123 31.64 5.807 53.32 30.642 39.503 30.853 41.279zM878.303 765.395s8.795-12.803-3.606-41.783-12.537-58.378-12.537-58.378-11.604 29.877-5.431 53.359c6.172 23.481 21.737 45.021 21.574 46.802zM854.93 787.024s9.728-10.114 1.125-36.187c-8.602-26.073-5.534-51.298-5.534-51.298s-14.246 24.48-10.95 45.226c3.297 20.744 15.707 40.748 15.359 42.259zM818.738 816.697s12.002-7.272 10.393-34.68c-1.61-27.408 7.842-50.997 7.842-50.997s-20.062 19.995-22.21 40.89c-2.149 20.895 4.7 43.417 3.975 44.787zM787.366 838.175s12.861-5.615 14.905-32.994c2.043-27.38 14.542-49.504 14.542-49.504s-22.539 17.154-27.442 37.58c-4.903 20.424-1.104 43.656-2.005 44.918z" transform="matrix(-.95142 .44776 .32373 1.31011 836.499 -619.955)"/></g><path d="M387.37 1057.742c-10.908-10.169-8.027-17.123-5.548-20.802" stroke-width=".992" transform="matrix(.94172 0 0 1.23662 153.59 -393.255)"/><path d="M209.094 146.444s11.9-6.796 16.319-42.61c4.42-35.814 17.575-64.276 17.575-64.276s-21.553 21.5-27.835 48.068c-6.282 26.569-5.143 57.202-6.059 58.818zM241.803 113.346s8.547-15.543 37.358-21.583c28.81-6.04 54.392-23.392 54.392-23.392s-22.56 28.225-44.769 36.615-45.482 7.154-46.981 8.36zM248.675 94.218s13.044 4.201 42.465-16.693c29.421-20.894 59.308-30.379 59.308-30.379s-30.411-1.41-54.263 11.873c-23.852 13.282-45.7 34.786-47.51 35.199z" stroke-width="1.07"/><path d="M240.148 106.42s9.934-3.268 18.793-29.48c8.86-26.211 23.096-45.554 23.096-45.554s-19.42 12.82-28.233 31.8c-8.813 18.982-12.722 42.161-13.656 43.233z" stroke-width="1.07"/></g></g><g fill="#196331" stroke="#000" stroke-width=".917"><path d="M247.068 889.823l89.375 166.007 17.038-.28-52.789-159.395-53.624-6.332z" transform="matrix(1 0 0 1.19015 110.136 -322.347)"/><path d="M443.8 889.823l-90.836 166.007-16.308-.28 53.519-159.395 53.625-6.332z" transform="matrix(1 0 0 1.19015 110.136 -322.347)"/></g><g fill="#ed1c24" stroke="none"><path d="M455.655 194.262v599c23.746-9.753 232.896-82.332 249.5-321.634V194.262z" style="marker:none" fill="#e6c500" fill-rule="evenodd" overflow="visible"/><path style="marker:none" d="M455.555 579.45v69.125c21.155.028 19.408 13.947 37.67 13.968 18.282.022 18.783-13.968 37.594-13.968 19.067 0 18.751 13.968 37.563 13.968 19.066 0 19.544-13.968 37.594-13.968 15.384 0 17.227 10.422 30.437 13.25 17.66-23.489 33.448-50.763 45.531-82.375-21.165.32-21.827 13.937-38.406 13.937-17.03 0-17.66-13.937-36-13.937-17.822 0-20.322 13.937-37.594 13.937-17.017 0-18.53-13.937-39.125-13.937-20.339 0-21.046 14.004-36.03 13.937-14.978-.067-16.942-13.924-39.234-13.937z" fill="#196331" fill-rule="evenodd" overflow="visible"/><path d="M455.655 194.262l.072 599c23.746-9.753 232.824-82.332 249.428-321.634V194.262h-249.5zM455.57 194.262l-.073 599c-23.745-9.753-232.824-82.332-249.428-321.634V194.262h249.5z" style="marker:none" fill="none" overflow="visible"/></g><path d="M705.07 194.262v277.366c-11.067 237.717-226.817 312.399-249.573 321.634-23.745-9.753-232.824-82.332-249.428-321.634V194.262h499" style="marker:none" overflow="visible" stroke="none" fill="none" stroke-width="3"/><path d="M455.655 194.262v599c-23.746-9.753-232.982-82.332-249.586-321.634V194.262z" style="marker:none" fill="#ce3121" fill-rule="evenodd" overflow="visible"/><path style="marker:none" d="M99.022 382.405v246.541c16.74 212.7 227.685 277.204 251.624 285.873 23.938-8.67 234.79-73.172 251.53-285.873V382.405H99.021z" fill="none" stroke="#000" stroke-width="1.893" overflow="visible" transform="matrix(.99193 0 0 1.12506 107.84 -235.98)"/><g stroke="#000"><path d="M125.967 580.086c.88-1.234 1.082-2.948 1.191-4.14-3.171-.832-7.829-3.023-11.303-2.399-4.7 1.037-8.42 7.578-4.085 11.118.95-3.915 6.21-5.782 7.476-1.873 2.643-.486 4.909-1.388 6.72-2.706z" fill="#eac102" stroke-width=".947" transform="matrix(.99193 0 0 1.12506 107.84 -235.98)"/><path d="M126.798 576.477c-.053 4.557-3.996 5.526-7.552 6.314-1.057.833-1.283 1.805-.68 2.706 2.04.139 3.625.555 4.984 1.25l3.097-.625-3.097.624c.378.278.831.625 1.209.972 1.51 2.29 2.394 4.377 2.47 5.973 1.51 0 2.967-.492 4.401-1.116 2.945-1.597 5.588-3.193 7.627-5.066-2.643-1.11-4.833-2.984-6.72-5.551-.227-1.943-1.133-3.886-2.719-5.828-1.208-.555-2.19-.416-3.02.347z" fill="#eac102" stroke-width=".947" transform="matrix(.99193 0 0 1.12506 107.84 -235.98)"/><g fill="#eac102" stroke-width=".743"><path d="M66.299 204.388c-4.263 3.527-7.648 5.084-12.054 1.615 4.38 8.711 8.759 3.543 15.171 3.703-8.113-.516-4.785 6.15-16.356 7.787 5.807 2.015 10.377 2.82 13.28-1.482-.997 6.564-5.018 8.176-10.34 8.98 6.585 2.368 10.732.28 12.942-4.884-.119 3.377-1.245 6.1-3.319 8.223 2.099 3.29 5.731 4.863 9.304 6.045-5.446.701-4.292-1.137-10.352.011-3.141.644-6.815 2.07-11.2 2.396-2.006-.07-3.573-1.006-5.038-2.287-.178-2.342-.889-4.956-2.193-7.733-.71-.49-1.777-.653-3.2-.544-.652-.11-1.007.054-1.185.599v.163c4.033 5.343-1.743 4.664-5.452 5.5-1.897.872-2.43 1.852-1.66 2.94 1.062 1.507 2.592 2.359 4.208 3.16 2.37.762 5.512.98 9.482.544-2.252 1.58-5.63 1.96-10.252 1.035-1.363-.436-3.023-1.144-4.919-2.179l-1.126.98c1.896 1.907 2.904 3.758 3.14 5.555-.236 1.253-1.066 2.342-2.488 3.323-.446 1.313-.146 1.789.889 2.613l2.963-.055c1.719-.925 2.548-2.178 2.607-3.757.06 1.579.475 2.45 1.126 2.668 2.583.513 4.851-.864 7.408-.545 1.719-.817 2.726-1.742 3.141-2.94-.415 1.198-1.422 2.123-3.14 2.94-1.606-.448-2.996.107-4.386.817l-3.329 2.774c2.441 2.723 6.496 1.637 7.062 6.048l-.059.055c2.326 4.441 7.435.11 8.178-3.54-1.007-1.416-.415-3.212 1.897-5.445-2.312 2.233-2.904 4.03-1.897 5.446.415.599 1.185 1.634 2.193 3.103 1.66-2.667 3.2-4.41 4.682-5.173-1.482 1.906-2.015 2.166-1.66 4.072v1.7c2.249-4.142 6.621-4.603 1.752.326 2.43 4.319 7.072 2.219 10.736.439-1.36-5.785 3.057-4 4.639-4.902-6.473 6.335.67 11.559 7.645 12.307-6.47-5.91-3.569-6.641-.77-11.273 1.89 4.846 3.613 6.213 15.33 4.617-7.628-1.733-9.616-5.11-10.137-8.777 4.452 5.566 12.2 4.325 17.367-.045l-.118-.109.236-.272c-5.434 2.878-10.892-.902-10.963-5.01.404-4.05 3.127-6.915 6.4-8.985v-.109c2.641-5.564 30.557-22.707 10.667-44.87a24.164 24.164 0 01-.236-3.54l-.415-.872c-7.408.49-13.375 1.902-18.312 6.644-10.752-5.033-17.763 8.783-27.294 7.352-2.344-.458-2.222-3.255.623-5.705-10.409 3.14-5.81 10.077-1.218 8.553h0z" transform="matrix(1.26395 0 0 1.43359 195.756 183.116)"/><path d="M36.307 232.48c1.837-.435 3.2-.653 4.03-.708 3.496.273 3.911-1.307 1.422-4.792l-.119-.109c-.059 0-.059-.109-.059-.109-1.6-1.198-3.615-1.742-5.926-1.579-3.437.272-5.808 1.09-7.111 2.342-1.6 1.47-2.252 2.94-1.838 4.411 2.312-1.579 4.92-2.341 7.764-2.341 1.837.817 2.37 1.85 1.54 2.995l.89-.327c-.238.054-.415.163-.593.217zM32.04 238.96c-3.319.926-5.511 2.832-6.637 5.555-.415 2.396-.237 4.466.474 6.208 1.244 1.906 2.963 2.832 5.037 2.886-.948-1.034-1.363-2.341-1.126-4.03.533-1.088 1.482-1.633 2.845-1.524.059-.055.059-.109.059-.217 1.422-.981 2.252-2.07 2.489-3.323-.237-1.797-1.245-3.648-3.141-5.554zM41.522 253.174h-.06c-2.014 2.232-3.022 4.737-3.08 7.569.414 4.084 3.021 5.554 7.88 4.356-2.073-1.197-2.962-2.94-2.607-5.173.712-1.362 1.778-1.906 3.26-1.47h.059c0-.055 0-.055.06-.055.592-.327.651-.871.296-1.634-1.245-1.742-3.2-2.94-5.808-3.593zM69.49 257.1c.372.364.69.755.932 1.122.695 1.177.856 2.61.536 4.273-.03.074-.007.123.017.173-.931 3.405-2.652 5.437-5.215 6.122-1.869.351-3.177-.048-4.01-1.099 2.286-.853 3.671-1.94 4.163-3.383.408-1.343.127-2.476-.925-3.3a.48.48 0 00.19-.152c-.231-1.58.314-3.049 1.635-4.406 1.24-.293 2.116-.109 2.677.65z" transform="matrix(1.26395 0 0 1.43359 195.756 183.116)"/></g><path d="M340.088 442.255c-.076-.073-.076-.147-.076-.147-.227-.368-.453-.59-.679-.884-.076-.147-.151-.22-.151-.294l-.831-.81a11.298 11.298 0 00-3.625-2.358c-.075-.073-.227-.073-.301-.147-1.21-.442-2.417-.884-3.852-1.178-2.643-.295-5.135.368-7.4 1.915-2.266 2.136-2.87 4.124-1.813 5.819 0 .073 0 .147.076.22.076-.073.076-.22.151-.294.906-2.578 3.322-3.978 7.324-4.346 1.738.074 3.172.368 4.23.884a6.056 6.056 0 012.114 1.694c.151.221.227.442.378.663.15.221.226.59.377.958.529 4.345-.528 7.66-3.171 10.017-3.398 3.02-7.551 3.977-12.535 2.799-4.985-1.179-8.91-.663-11.856 1.62h-.075c-2.266 2.136-4.003 4.64-5.136 7.587 1.133-2.946 2.87-5.45 5.136-7.587v-.073c-.983-4.862-3.626-8.47-7.78-10.975-6.243-4-17.972.823-18.65 7.489.157 5.121 3.743 6.855 7.702 6.358-4.912-3.298-2.78-7.696 1.6-7.31 4.31.374 7.296 5.844 6.404 11.362-3.085 10.794-10.869 20.108-12.913 32.114-3.16 17.96.093 38.595 9.289 54.802 6.553 9.59 10.127 12.011 13.218 20.89-3.193-6.215-7.873-5.24-13.672-4.317-8.457 1.345-16.82-5.833-9.439-13.921-12.427 3.385-9.524 18.82 4.415 19.077.56 1.362-6.997 3.559-13.312 2.794 2.567 1.694 7.764 3.245 11.54 1.699-5.361 3.904-6.234 8.135-5.512 13.332 1.242 8.94 20.261 10.75 19.86.59-4.797 5.894-14.258 2.516-13.064-4.568 3.819-13.812 25.244-5.9 26.959.589 5.284 19.301-6.792 30.453-26.505 30.568-17.131-.454-33.676-10.14-37.804-30.446l-2.507-11.68c2.266 1.987 4.531 3.236 6.72 3.161-3.654-3.24-6.808-7.432-7.627-11.63-.212-1.528-.212-3.126-.212-3.569-2.992-47.197-69.342-8.242-68.748-10.123l-17.396 12.323-11.411 12.737c-.907.81-1.058 1.694-.529 2.356-3.171.222-5.663 1.032-7.4 2.8-3.998 4.16-8.68 8.227-14.423 8.692l-7.4-1.4c-2.266-.148-3.625.294-4.003 1.473-.075.294-.075.589 0 .883 1.482 1.947 4.158 1.187 5.74 3.242.679 1.841.226 3.093-1.284 3.757.68 2.872 2.642 4.64 5.814 5.45.151-2.431 1.36-3.977 3.625-4.64l2.945 3.314 3.549-3.24c1.359-1.548 1.812-3.39 1.435-5.525.377 2.136-.076 3.977-1.435 5.524l-3.55 3.24c-1.51 2.064-2.416 4.126-2.793 6.188l1.51 2.946c2.72-4.182 7.03-1.934 8.457 2.063 1.586 1.179 4.078 1.399 7.4.736-1.585-1.473-2.567-3.093-3.02-4.935l-.075-.073c-.151-.81-.302-1.768-.302-2.726 0 .958.15 1.916.302 2.726l.755-.148c2.265-1.547 4.757-1.989 7.325-1.252 3.171-3.167 4.983-6.335 5.437-9.354 1.367 4.633 1.878 7.413 7.181 6.044-4.455.442 9.332 1.62 6.71-3.964-1.562-4.59-5.256-5.2-.752-7.752v-.663c.075.147.226.368.226.516l.076.073c1.133 2.432 2.19 3.315 3.02 2.873.529-4.272 1.813-7.366 3.776-9.133-.151 5.082 1.208 7.808 4.229 8.323.801-5.29 2.133-10.414 6.192-13.92.15 2.356-.529 4.787-2.115 7.144 5.656-2.147.752-4.274.9-10.664 3.097 5.672 2.946 10.974-.377 15.91l9.213-7.145a38.714 38.714 0 012.87-1.915c4.002-2.504 8.381-3.83 13.139-4.051-4.758.22-9.137 1.547-13.14 4.051a38.474 38.474 0 00-2.87 1.915c.68 4.273 0 7.366-1.962 9.502 4.542.351 6.303-3.29 7.928-7.07 2.047 14.867 16.57 10.073 25.901 15.982 2.794 1.768 5.059 4.199 7.023 7.44 1.73-6.202-2.539-10.11-7.174-13.037 5.103 2.726 8.353 6.973 7.174 13.038-.076 0-.15.073-.076.147-1.208 2.135-1.888 4.345-2.114 6.85-.076.368-.076.81-.076 1.179.572 15.02-2.8 15.428-10.875 27.326-5.12 7.548-4.467 17.671-6.343 27.106-1.208 1.03-2.945 1.915-5.361 2.503-2.115.516-4.078.516-5.74 0-2.443-.819-3.766-2.64-4.53-5.082-.529-2.873.604-5.745 3.474-8.545-5.78 1.1-9.822 5.356-8.533 11.785.075.295.226.516.302.811 1.208 2.872 5.176 6.241 5.21 6.26 10.37 5.132 19.703.554 23.107-10.238-1.922 4.296-3.578 13.207-4.276 17.923 3.582-8.35 4.218-6.89 6.088-8.936 1.57 6.812 1.238 14.05-3.398 19.445 9.654-3.803 11.062-13.627 8.759-21.729 2.414 3.87 5.758 6.369 10.27 6.702.15 0 .302 0 .528-.073.302-.075.529-.075.831-.075h.151c1.888-.294 3.474-.736 4.757-1.398-4.09.236-7.449-1.285-10.496-4.052 2.862 3.143 6.548 3.956 10.496 4.052 2.04-1.032 3.247-2.653 3.927-4.715-.68 2.063-1.888 3.683-3.927 4.715-1.283.662-2.87 1.104-4.757 1.398h-.151c-.301 0-.529 0-.83.075 3.246 6.26 9.665 9.943 19.179 11.122.982.074 2.115.22 3.172.295-1.057-.075-2.19-.222-3.172-.295-7.092 9.159-10.542 20.42-12.232 31.968-3.177 3.302-7.523 3.09-11.026.441-1.737-.22-3.7-.22-5.89 0-1.133.442-1.51 1.179-1.133 2.21 1.284.368 2.19 1.326 2.719 2.799.305 3.797-1.062 4.125.047 7.94 4.304-.81 6.296-.428 6.749-4.11.377 2.135 1.36 3.24 2.794 3.461h.226c1.73-3.416 4.77-5.846 8.08-7.366-3.5 1.355-6.048 4.145-8.08 7.366l.832 3.02a11.932 11.932 0 013.926-.442c2.294 1.284 3.898 3.198 4.909 5.672l.301.22c3.625-.736 4.985-2.209 3.927-4.345-.076 0-.076-.147-.151-.22l-.453-.664-2.115-2.062c.985.784 1.754 1.78 2.568 2.725.076.074.076.221.15.221l.303-.22c1.434-.811 2.718-1.621 3.7-2.579 3.097-3.025 3.778-6.838-.604-8.839 4.841 1.835 3.223 5.808.603 8.839l.227.295c2.215 3.83 5.127 2.132 7.853-.222-.378-1.62.151-3.093 1.51-4.345 1.284-.884 2.719-1.4 4.154-1.4.906 0 1.812.516 2.643 1.474h.075c1.133-.221 1.661-.737 1.435-1.474.226-1.398 0-2.725-.378-4.05-.075-.148-.075-.295-.15-.369-.302-.662-.605-1.326-.982-1.989-.151-.146-.302-.368-.453-.515 0-.074-.077-.221-.151-.294l-.077-.074a19.647 19.647 0 000 0l.077.074h0c.075.073.15.147.15.294.15 0 .227.147.378.221.528.221.906.516 1.434.737.227.147.454.22.68.294 1.737.663 4.832.442 9.288-.737-9.681-1.447-6.348-9.052-8.08-13.184-.604-.736-1.888-1.547-3.927-2.357 2.04.81 3.323 1.62 3.927 2.357.454.369 3.915 8.493 4.368 8.935 6.188 1.996 7.627-6.524 7.179-10.022-2.926-2.979-6.735-5.065-10.339-8.046 6.758 4.565 11.97 9.383 20.11 5.272-11.891-1.715-9.816-6.918-14.522-10.427 3.776.957 5.519 1.442 8.313 5.787 1.66-3.608.522-6.303-6.576-12.49 2.87.516 5.06 1.474 6.419 3.02 3.184-4.484-2.682-8.923-6.193-10.68 7.105 3.391 18.05 7.495 23.172-2.287-6.65 4.675-15.413 2.438-19.018-5.52 4.914-3.366 10.51-.307 13.366 4.492.599-12.353-9.274-12.186-16.576-10.274 4.522-2.188 9.996-4.179 9.327-13-5.121 7.586-11.398 9.312-18.386 5.836 4.531-1.105 5.302-5.37 5.605-9.347-7.172 7.386-14.5 4.355-18.405-4.15 4.307 4.553 11.535 6.005 13.44 1.4-8.653.596-12.488-6.997-15.478-14.164 2.174 3.236 7.488 2.788 12.859-.329-6.723-1.617-11.537-6.23-11.764-17.681 15.304 10.277 35.57 3.709 50.57-8.681 8.835-7.44 11.966-20.772 12.04-35.651.302-2.578 1.284-4.051 3.02-4.42 1.36-.22 3.098.221 5.363 1.547.906-3.535-1.057-5.598-5.814-6.04h-.076c-.076-.073-.227-.073-.302-.073-3.445.367-5.425 2.565-7.174 5.377 1.416-3.18 4.036-4.616 7.174-5.377 9.077-8.485 16.587-20.898 2.027-26.358 12.674 18.931-11.97 16.23-13.203 27.977-1.51-5.671-3.7-10.018-6.57-12.89-7.15-7.563-12.955-17.27-13.29-28.21.288-12.566 14.99-11.048 11.705-4.64 4.442-.428 4.557-4.435 2.289-6.66-7.359-5.768-15.994-1.9-18.374 7.248h0c-5.31-20.34-3.336-52.493 17.972-51.707 8.793.448 14.628 5.154 14.574 14.731-.45 9.54-18.392 13.977-16.613 1.694-3.398 3.757-3.625 7.293-.604 10.533 2.415 2.652 5.587 3.094 9.439 1.547.83-.368 1.737-.81 2.718-1.4-8.466 4.95-3.645 14.87 5.866 12.137-5.357-1.274-7.753-3.666-4.657-6.76 9.093-7.242 15.77-13.489 14.046-26.81-2.19-6.114-6.268-10.902-12.384-14.143-.982-.515-2.04-.957-3.172-1.547-2.19 0-4.229.074-6.191.295-1.813.368-3.172.958-4.23 1.694 1.057-.736 2.417-1.326 4.23-1.694 1.963-.22 4.002-.295 6.191-.295 1.284.074 2.643.148 4.003.221 3.17.148 5.89-.883 8.08-3.02 3.7-3.977 5.965-8.396 6.72-13.331.15-3.314-.604-6.629-2.341-9.943h0z" fill="#e6c500" stroke-width=".947" transform="matrix(.99193 0 0 1.12506 107.84 -235.98)"/><path d="M117.358 595.49c-.981-.208-1.434-.555-1.585-1.11-2.794.347-4.909 1.735-6.192 4.163-.907 2.776-.68 5.135.83 7.147.906 2.29 2.643 3.817 5.135 4.51-1.057-2.01-1.36-4.093-.906-6.383.453-1.596 1.586-2.29 3.096-2.22 1.057-.139 1.888-.347 2.492-.624 1.51-.625 1.963-1.805 1.284-3.54-.227-.971-1.586-1.596-4.154-1.943zM140.012 620.887c-.83-1.596-.981-3.47-.226-5.482-.227-1.943-1.51-3.33-3.851-4.025-2.417-.208-3.927.417-4.607 2.082-.604 2.082-.453 3.955.453 5.69 1.209 2.845 3.172 4.719 5.815 5.828 1.208.486 2.492.625 3.7.347 2.19-.485 3.55-1.179 4.229-2.151-2.417-.069-4.229-.763-5.513-2.29zM220.504 614.005c6.645.139 10.648 2.637 12.006 7.564.076.069.076.069.076.208.226-2.36.906-4.441 2.114-6.453-.075-.07 0-.14.076-.14-1.964-3.052-4.23-5.342-7.022-7.008-3.828.458-6.106 2.254-7.25 5.83zM230.094 734.614c-10.108 2.56-11.456 13.432-2.491 18.874-3.216-5.048-.254-8.884 4.856-10.924 1.328-2.958.543-6.5-2.365-7.95zM250.335 746.917a12.608 12.608 0 00-3.874-.765 12.957 12.957 0 00-2.246.103c-1.018 2.517-1.51 5.125-1.333 7.868.321 1.77 1.013 3.366 2.115 4.652 2.134 1.533 3.896 2.225 5.38 2.031 1.679-.06 2.945-.321 3.923-.672-2.225-.472-3.72-1.517-4.597-3.024-.98-2.192-.59-3.96 1.1-5.325l1.483-.704.607-.174a10.772 10.772 0 00-2.558-3.99zM276.912 741.414c-.83-.902-1.737-1.388-2.643-1.388-1.435 0-2.87.486-4.153 1.318-1.36 1.18-1.888 2.568-1.51 4.094 1.359.347 2.19.971 2.491 1.943.454 1.041.605 2.012.227 2.845-.83 1.596-2.416 2.36-4.908 2.29.528 1.596 2.19 2.429 4.908 2.637 3.927-.555 5.89-2.012 6.041-4.51.378-2.984.302-6.037-.378-9.09 0-.07 0-.07-.075-.14z" fill="#eac102" stroke-width=".947" transform="matrix(.99193 0 0 1.12506 107.84 -235.98)"/><g fill="#eac102" stroke-width=".743"><path d="M41.354 39.211c-1.955.163-3.733-.49-5.333-2.178-1.207-1.741-1.825-3.72-2.193-5.773.83-2.014.593-3.92-.593-5.663-1.481-.218-2.31 0-2.726.708-.059 0-.059 0-.059.054.77 1.743.652 3.377-.237 4.847h0c-1.285.394-1.962-.168-2.845-.871-2.608-.296-3.057 2.886-3.259 4.9 1.015 1.34 2.348 1.881 3.97 2.07.178 1.198-.474 2.178-2.014 3.104-.06 0-.06 0-.06.055 2.134 1.579 4.682 2.178 7.704 1.851-3.022.327-5.57-.272-7.704-1.851 0-.055 0-.055.06-.055-.712-.544-1.778-.98-3.141-1.198-1.66.163-3.023-.223-4.03.322-.533.381-.77 1.366-.77 1.584-.06.163.118.272.414.381 1.719-.109 2.963.272 3.734 1.198.83 1.96 0 3.649-2.548 4.901-.652 1.09-.593 2.07.059 2.832 1.126.654 2.193.98 3.2.871 1.245-1.252 2.015-2.505 2.43-3.757.592 1.416.592 2.668 0 3.812 1.955.762 3.615.599 5.037-.6.237-.163.474-.435.711-.707-.237.272-.474.544-.711.708-1.126 1.198-1.837 2.505-2.074 3.866 2.362-.432 4.872-.353 6.222 1.362-.978 1.54-4.072.876-6.06.583.059 1.742 1.616 2.63 3.394 3.446 1.777.763 4.385 1.144 7.763 1.09-3.378.054-5.986-.327-7.763-1.09-2.964 2.342-4.83-.305-4.297 2.744 2.59 3.316 1.083 6.313 4.86 6.301 3.55-.171 6.147-1.606 9.393-.332-2.845 1.525-6.675-.8-9.786 6.005 7.326-3.272 5.34-1.594 10.497-2.356l.059.163c-3.082.872-5.57 2.342-7.645 4.466v.054l-.118.11v.054c.059-.055.177-.055.177-.055h.06c3.674-1.089 7.585-1.143 11.911-.272-4.8.599-7.881 1.47-9.304 2.723-.83.708-1.066 1.524-.77 2.505 4.03-1.416 8.534-.817 13.393 1.742l-.06.11-.118.272c-4.385-.436-6.815.108-7.408 1.633.475 0 .89.055 1.364.11 3.318.49 5.926 1.524 8 3.049-2.37.925-5.156.49-8.356-1.198.948 2.123 3.46 4.366 5.83 5.346 3.29-.222 7.465-1.126 1.46 2.223 1.362 1.198 2.962 1.307 4.859.163 1.896-1.089 2.903-2.668 3.081-4.792a20.577 20.577 0 01-4.563-3.703h-.06a24.473 24.473 0 01-2.784-3.812c-.237-.38-.534-.871-.712-1.307 3.2 3.159 5.69 3.431 7.408.817 1.482-3.975 5.274-6.426 11.378-7.351-8.39-.992 2.089 6.995-.71-4.194l-.297-1.797c-1.067-1.579-2.252-3.158-3.378-4.628-4.622-6.208-9.719-12.362-15.23-18.407-2.512-2.851-5.57-5.102-8.712-7.188z" transform="matrix(1.26395 0 0 1.43359 207.054 233.77)"/><path d="M48.88 23.364a6.99 6.99 0 01-.355 1.416c-.178.926-.889 1.47-2.134 1.743-1.777-.654-2.903-1.743-3.377-3.268-.119-.054-.178-.054-.237-.054-1.6-.654-2.727-.49-3.26.544-.77 1.525-.948 3.377-.474 5.555-1.304 2.287-2.904 3.485-4.86 3.54h-.059a14.889 14.889 0 001.897 4.193c1.6 1.688 3.378 2.341 5.333 2.178.06 0 .119.109.178.109l.237-.381a67.027 67.027 0 005.986-9.149c.71-1.361 1.955-2.614 3.733-3.757.237-.926-.06-1.906-.711-2.778l-1.897.11z" transform="matrix(1.26395 0 0 1.43359 207.054 233.77)"/><path d="M48.525 24.78c.178-.49.296-.98.355-1.416.119-1.361-.355-2.723-1.363-4.084-.059-.054-.059-.109-.059-.163-2.311-2.669-4.74-3.758-7.348-3.268-1.837.49-2.845 1.416-3.141 2.723 2.43-.218 4.148.163 5.215 1.253.948 1.034 1.185 2.178.593 3.376.059 0 .118 0 .237.054.474 1.525 1.6 2.614 3.377 3.268 1.245-.273 1.956-.817 2.134-1.743zM26.48 23.31c-3.429-.696-7.636.602-8.534 5.554 6.671-2.446 7.117.08 7.022 3.602.77.762 4.078-.687 5.204-1.014 1.745-3.596.05-7.134-3.693-8.142zM22.272 42.696c-.77-.926-2.015-1.307-3.734-1.198-.296-.109-.474-.218-.414-.381l-.178.218c-1.067 0-2.074.327-3.082.98-2.252 1.797-3.793 3.703-4.444 5.772-.06 1.362.118 2.397.533 3.104.77 1.253 1.837 1.906 3.2 2.015-.415-2.178.237-4.084 2.074-5.663 1.719-.817 2.904-.763 3.497.054 2.548-1.252 3.378-2.94 2.548-4.9zM32.644 65.951a6.99 6.99 0 01-.696 1.284c-.834 1.082-2.105 1.764-3.768 2.085-.08 0-.117.04-.154.08-3.507.4-6.033-.442-7.621-2.567-1.022-1.604-1.137-2.967-.47-4.13 1.64 1.805 3.164 2.687 4.687 2.607 1.398-.12 2.346-.802 2.72-2.085a.48.48 0 00.212.12c1.38-.802 2.947-.842 4.698-.12.732 1.042.887 1.925.392 2.726z" transform="matrix(1.26395 0 0 1.43359 207.054 233.77)"/></g><path d="M167.865 602.851c.474.466.88.964 1.188 1.432.886 1.499 1.09 3.324.683 5.443-.039.096-.008.158.021.22-1.186 4.34-3.378 6.929-6.645 7.802-2.38.448-4.048-.061-5.108-1.4 2.912-1.087 4.677-2.472 5.303-4.31.52-1.712.162-3.156-1.178-4.207a.611.611 0 00.242-.193c-.295-2.013.4-3.885 2.083-5.614 1.58-.373 2.697-.139 3.41.827zM288.241 721.856a8.907 8.907 0 011.846.227c1.673.484 3.074 1.672 4.23 3.494.037.096.102.12.167.146 2.111 3.972 2.29 7.36.512 10.235-1.426 1.958-2.989 2.731-4.678 2.484 1.374-2.789 1.709-5.007.904-6.774-.795-1.602-2.046-2.409-3.742-2.254a.612.612 0 00.044-.307c-1.595-1.263-2.372-3.102-2.333-5.515.894-1.354 1.868-1.95 3.05-1.736z" fill="#eac102" stroke-width=".947" transform="matrix(.99193 0 0 1.12506 107.84 -235.98)"/><g fill="#e6c500" stroke-width=".717"><path d="M91.789 55.612c2.593.76 3.772 1.025 4.898 2.387 1.422-1.362 1.363-3.105-.06-5.228-.474-.6-1.007-1.198-1.659-1.743-2.489-.544-5.048-.336-7.478-.677-6.912-.555-11.21-.482-19.027 1.046-4.168.597-5.597-3.068-6.62-5.424-2.45 4.794 2.097 9.946 6.384 9.648 12.71-1.696 16.393-.909 23.562-.009z" transform="matrix(1.26395 0 0 1.53936 207.054 221.229)"/><path d="M78.25 53.082c-1.207 1.349-1.734 2.697-1.95 4.045 2.193-.054 3.722.376 5.323.811-1.517-1.487-2.708-3.084-3.373-4.856zM80.508 46.345c-1.422-.11-3.7-1.036-5.36-.981-.861 1.504 1.34 5.26 2.013 6.635 1.106-1.787 1.442-3.866 3.347-5.654zM117.191 101.564a19.615 19.615 0 012.311-3.104 15.583 15.583 0 01-3.259-.654l-1.067.164c-1.482 1.525-3.615 2.614-6.52 3.212-1.244 1.416-1.362 2.778-.236 4.14 2.015 2.07 4.267 3.267 6.993 3.703.06-2.451.593-4.956 1.778-7.461z" transform="matrix(1.26395 0 0 1.53936 207.054 221.229)"/><path d="M98.85 22.127c-4.34 1.692-5.052 4.016-9.63 4.505-8.006 1.202-16.685 2.041-23.824 6.208.119 1.47 1.25 3.62 2.495 3.893-.053.8 0 .054 0 .054h0l2.133-1.143v-.926.926l-2.133 1.143h0c-.237 1.362-.717 1.28-.54 2.315 1.838 3.322 3.095 6.01 6.828 7.425 7.646-.497 17.03.031 22.448 6.244 2.78 4.226-.613 6.078-4.444 6.426-3.734 0-6.815-.436-9.127-1.253-2.883-.934-5.91-.877-8.889-.653-1.067 1.089-1.007 2.178.06 3.267-1.245 2.124-3.377 3.617-6.833.695 2.379 4.718 5.614 4.261 9.675 1.82-1.15.568-4.829 3.486-4.677 6.065 3.12-2.906 6.567-3.618 10.724-3.951-.178 1.47-1.541 2.995-3.97 4.574 4.74-.599 7.94-2.124 9.659-4.465.415 2.341 1.778 3.54 4.148 3.703-.77-1.743-.533-3.213.652-4.302 1.719 2.995 4.622 4.846 8.83 5.39-2.134-1.578-3.142-3.648-2.964-6.262 1.838 1.634 3.378 2.342 4.682 2.233-.237-2.233.533-4.248 2.252-6.045.593 2.07 3.082 3.268 7.468 3.486-3.26-2.614-4.682-5.283-4.505-8.005.237-2.778.711-4.902 1.363-6.426 1.778.218 2.963 1.524 3.674 4.084.474-4.466-1.421-7.406-5.748-8.876 1.245.272 2.489.49 3.674.49.77 0 1.482 0 2.252-.11 3.722-.728 4.158-4.628 3.674-7.787v-.054c-1.716-3.949-6.438-5.01-9.778-2.124 3.428-3.021 8.92-1.662 9.778 2.124.594 3.351.022 6.802-3.575 7.842-.77.109-1.58.109-2.35.109-1.186 0-2.43-.218-3.675-.49 4.327 1.47 6.222 4.41 5.748 8.876-.71-2.56-1.896-3.866-3.674-4.084-.652 1.524-1.125 3.648-1.363 6.426-.178 2.722 1.245 5.39 4.505 8.005-4.386-.218-6.875-1.416-7.468-3.486-1.718 1.797-2.49 3.812-2.252 6.045-1.304.109-2.845-.599-4.682-2.233-.178 2.614.83 4.684 2.963 6.263-4.207-.545-7.111-2.396-8.829-5.391-1.185 1.089-1.422 2.56-.652 4.302-2.37-.164-3.733-1.362-4.148-3.703-1.719 2.341-4.919 3.866-9.66 4.465 2.43-1.58 3.793-2.905 3.97-4.376-4.03.382-6.974 3.35-8.515 4.929 1.422.708 1.393 2.483 1.512 3.245.118.926-1.155.724-2.163.942-.83-.272-3.045-3.102-3.875-3.265-3.022-.653-2.84-.495-5.804-.059-.118 0-.177 0-.237.054-.237 0-.474 0-.652.055-2.903-1.09-4.326-2.94-4.503-5.555-2.49 1.035-3.675 2.56-3.32 4.63 1.6 3.267 4.623 4.9 9.186 5.064h.297-.297c-6.104.925-9.896 3.376-11.378 7.351-1.718 2.614-4.207 2.342-7.408-.817.178.436.475.926.712 1.307a24.473 24.473 0 002.785 3.812h.06a20.577 20.577 0 004.562 3.703c-.059-2.015.652-3.594 2.134-4.792a4.497 4.497 0 010 0c-1.482 1.198-2.193 2.777-2.134 4.792-.177 2.124-1.185 3.703-3.081 4.792-1.897 1.144-3.497 1.035-4.86-.163-.178-.163-.296-.327-.474-.436-.415-.544-.533-1.143-.178-1.851l-1.659-.545c-.415.436-.711.98-.948 1.634-.178 1.035-.178 1.96 0 2.723.296 1.198 1.007 2.07 2.074 2.777.415.218.889.436 1.482.654.71.163 1.422.38 2.074.49.118.054.296.054.415.108.296.055.651.055 1.007.109.77.055 1.54.055 2.311-.054.534-.11 1.126-.218 1.719-.382.118-.054.237-.109.355-.109.297-.163.534-.326.89-.435.71-.381 1.48-.872 2.133-1.47.948-.872 1.718-1.907 2.43-3.213.948-1.852 2.133-3.05 3.614-3.595-1.481.545-2.666 1.743-3.615 3.595-1.032 2.057-2.61 3.54-4.563 4.683-.355.109-.592.272-.889.435-.118 0-.237.055-.355.11l-.119.163c-.533.218-1.066.38-1.54.49-.12.054-.238.054-.238.054-.77.055-1.481 0-2.133-.272-.356-.055-.711-.055-1.007-.109-.119-.054-.297-.054-.415-.108.059.054.059.163.118.217 0 .109.119.272.178.381 0 .055.06.164.119.218 0 .054 0 .108.059.163 1.007 1.579 2.43 2.56 4.207 2.94 1.126-.761 2.252-1.47 3.556-2.069 1.067-.544 2.252-.926 3.497-1.306 3.674-.926 5.985-2.832 6.815-5.773-.83 2.94-3.141 4.846-6.815 5.773-1.245.38-2.43.762-3.497 1.306-1.304.6-2.43 1.307-3.556 2.07-1.303.98-2.489 2.123-3.615 3.43-.414.49-.77.981-1.126 1.47-.71 1.58-.414 2.887.83 3.758 4.503-5.623 11.185-3.74 16.89-6.154l4.563-2.94c-.356.872-.711 1.633-.89 2.396l-.058.054c-1.994 6.032 2.427 9.864 7.881 11.382l-.059-.055c-1.783-1.53-3.652-3.78-3.437-5.718.474-3.05 2.667-5.174 6.46-6.48.177-.055.355-.109.474-.163-.119.054-.297.108-.474.163-.475.381-.89.762-1.304 1.198-3.577 3.86-3.205 9.329 2.548 9.421-2.252-2.56-2.252-4.956.119-7.297.414-.436.83-.871 1.303-1.198 1.186-.871 2.549-1.47 4.149-1.851.592 2.863-.77 5.214-2.667 7.188 4.994-1.188 8.94-4.269 11.97-8.332.06-.109.12-.164.12-.273-.06.055-.178.055-.178.11h-.06l-5.434.688c2.562-1.73 4.578-4.395 5.138-7.387-.799 6.68-10.26 8.02.296 6.698h.06c0-.054.118-.054.177-.109a17.02 17.02 0 003.2-1.524c-.538-3.505.635-6.578 3.022-9.149-2.665 2.431-3.2 5.59-2.885 9.012 4.513 9.617 8.941 10.29 21.75 2.924-6.12.389-16.407.043-13.295-4.857h0c1.878-1.967 2.743-4.426 3.32-7.025-.871 4.786-6.223 10.656 3.2 3.812.118-.109.236-.272.355-.38l.06-.056c.06-.109.177-.217.237-.327h.059-.06l.12-.108c2.013-2.83 2.319-5.485 1.303-8.496 1.15 3.03.51 5.63-1.304 8.496-.06.054-.06.054-.06.108h-.06c-.059.11-.177.218-.236.327l-.06.055c.06.055.12.055.178.055.178.054.356.163.534.163 1.007.327 2.133.545 3.26.654 4.462.115 9.72-.694 12.562-4.466-3.66 1.531-11.926 1.292-11.162-1.743 1.281-3.599 4.917-4.442 7.55-.054 1.54-2.723.35-4.805-1.843-7.636 5.655 3.134 10.954.955 15.154-6.8-7.501 5.68-11.777 3.067-16.69-2.936 5.935-2.581 8.168-1.69 8.248 3.114 5.164-5.872 1.817-8.82-2.322-12.099-2.193-.544-3.438-1.688-3.852-3.485.414 1.797 1.659 2.94 3.852 3.485.356.055.652.163 1.007.163 3.14 0 5.393-1.089 6.756-3.267-4.416 2.24-8.194 1.409-10.37-3.975 1.6-1.96 5.48-1.621 6.558 2.264 2.128-6.92-6.001-7.895-9.404-12.339 2.926 4.701 11.701 3.996 10.49-2.287-1.445 2.96-4.743 3.2-6.694 1.371-2.99-3.288-1.138-9.19-6.777-11.72 3.696.512 5.117-.07 5.751-3.095-1.54.708-4.174 1.477-5.376.157-1.304-2.287-3.378-4.084-6.283-5.282-1.6-.49-3.07-.6-5.155-.577 1.966-.13 7.305-.19 8.913-.525-4.798-2.438-15.754-6.407-21.565-4.6zM44.951 99.712c-1.067-.708-1.778-1.579-2.074-2.777a5.634 5.634 0 00-1.245 2.668c-.237 2.015 1.126 3.159 4.149 3.594-1.66-1.361-1.897-2.505-.83-3.485z" transform="matrix(1.26395 0 0 1.53936 207.054 221.229)"/><path d="M84.811 33.973c1.47-3.877 3.509-4.432 6.432-4.631 1.885 1.579 7.566-1.323 8.77 1.488" stroke-linecap="round" transform="matrix(1.20805 .45273 -.37173 1.47128 224.366 181.969)"/><path d="M91.489 35.039c1.163-1.836 2.409-3.943 6.26-5.441-4.245.407-5.127.418-6.683-.112-5.673-.468-4.882 7.933.423 5.553z" transform="matrix(1.20805 .45273 -.37173 1.47128 224.366 181.969)"/><path d="M90.81 32.7c0 1.158-.993 2.395-1.625 2.395s-1.464-1.077-1.464-2.235.832-2.257 1.464-2.257 1.624.939 1.624 2.097z" style="marker:none" overflow="visible" transform="matrix(1.20805 .45273 -.37173 1.47128 224.366 181.969)"/><path d="M86.79 43.51c4.383.031 9.265 2.11 11.193 4.104M98.357 60.619c3.2-1.61 5.85-4.168 2.398-9.594" stroke-linecap="round" transform="matrix(1.26395 0 0 1.53936 207.054 221.229)"/><path d="M108.851 37.532c1.926.069 3.797-.85 5.418-2.404M111.675 36.998c2.487 1.108 2.928 2.58.839 4.502" transform="matrix(1.26395 0 0 1.53936 207.054 221.229)"/></g></g><g stroke="#000"><g stroke-width=".404"><path d="M894.555 629.898c.937-7.392 5.503-10.893 14.211-13.976 2.336-.732 4.773-1.122 5.355-3.983l.58-15.47c-5.82-2.837-6.542-5.673-9.089-8.51l4.448-5.608c2.913 2.708 3.888 5.415 9.089 8.122 1.828.974 2.625.763 1.934-1.16-5.064-16.326-2.234-28.706-2.708-42.738l6.382-1.933c1.15 12.55.348 25.425 4.254 37.516l2.901 5.415c1.296 2.017 2.707 2.141 4.255 0 1.547-4.716 3.094-8.71 4.64-12.957l.774-16.438 6.575.58-.193 17.598c-.394 3.925-.839 7.8-1.74 11.217-.038 2.28.588 2.305 1.16 2.514 1.903-.268 3.81-.525 5.221-2.514l7.542-11.41 3.674-12.763 6.382 1.933-8.217 18.04c-1.441 2.644-1.59 5.381-5.479 8.024-2.096 1.048-2.185 4.724-2.26 5.85l.872 17.4c3.405 1.514 4.46 4.536 8.896 5.994 2.6 1.581 5.043 6.188 10.249 9.282-6.19.755-11.154-1.413-14.697-6.961 3.046 3.748 6.222 7.438 7.929 11.796-8.946-2.93-18.47-5.21-22.433-13.73 1.698 6.006 3.857 11.818 7.929 16.824-9.884-3.154-13.054-8.968-16.438-14.697-.802 6.432-4.78 11.276-8.509 16.244-2.464-4.378-.943-9.656.387-14.89-2.39 3.065-3.668 6.933-8.122 8.508-3.64.505-4.78 2.74-6.962 4.255-.885-2.34-1.51-4.691.58-7.155l3.868-5.608c-4.243 2.282-8.675 4.43-11.216 7.928.1-3.912.685-7.636 4.641-10.056-4.957 3.236-8.937.147-16.665 7.517z" fill="#7f311a" transform="matrix(2.46295 0 0 2.48351 -1730.084 -1043.458)"/><path d="M947.281 524.656c-1.578-.01-3.086 1.189-4.5 3.657-3.659-1.369-5.714 1.28-7.375 4.906-.966-3.157-2.804-4.83-5.281-5.469-3.968-2.594-7.938-2.235-11.906-1.344-3.101 2.33-6.463 4.67-1.719 7 1.324 2.836.198 3.218-.938 3.594-4.574-1.517-4.741-.11-6.593.188-6.528-.756-5.507 3.3-6.063 6.218-2.364 1.472-3.234 3.34-3.593 5.313-3.938 2.637-8.662 5.149-2.844 9.25-3.247-.084-3.162 2.735-4.532 5.468 1.571 1.705.018 6.235 5.688 4.75-3.152 1.503-2.956 3.474-2.656 5.47-1.33 1.218-3.954 6.341 1.687 8.5-.818.97-2.47 1.777-.937 3.218-2.394 3.78-1.994 5.78 1.156 6.031.192 2.391 1.938 3.23 5.656 2.094 4.705 3.321 6.737.532 7.938-4.156 1.524-.012 3.116.23 4.156-1.719.064-2.079.114-4.14-2.281-6.219 1.898.27 2.872-1.322 3.781-3.031-.345 2.744.669 3.873 2.844 3.594 2.209-.4 3.706-1.375 3.406-3.782 2.477 1.096 4.958 2.25 5.469-2.062 1.692 1.449.08 2.895 6.25 4.344 6.534.248 6.899-1.062 7.562-2.282 1.696 1.565 2.382 3.524 6.407 4.157 1.244 1.668 2.65 3.043 5.875.75.386 1.523 1.05 2.86 4.906 1.906 1.964.852 4.198 2.541 4.718-.938l.75 3.563c-3.543 3.205-.426 4.858 4.532 6.063 2.52 2.393 4.797 2.27 6.812-.375 4.249-.96 4.243-4.403 2.469-8.875 1.988-.244 5.257 2.42 3.969-5.313 1.565-.091 1.56-2.127 1.125-4.719-2.793-2.246-4.847-.762-7.188-.75 4.717-1.061 7.32-2.986 7-6.062 1.606-5.997-1.362-4.806-3.031-5.657-.14-3.66-2.449-3.52-4.531-3.78 2.897-1.779 2.16-3.942.562-6.22-1.596-3.417-3.18-6.86-10.187-4.375 4.11-2.266 8.593-4.471.937-7.718-1.145-3.701-2.914-3.011-4.531-3.407-2.181-.163-4.597-.73-4.344 3-1.95-1.571-2.573-.477-3.593-.187-.139-1.008.252-1.992-2.282-3 3.346.012 5.21-.903 4.532-3.406-1.164-5.662-3.324-5.797-5.47-6.063-1.319-1.387-2.584-2.117-3.812-2.125zm-19.062 24.25c-.378 2.97-2.955 4.671-.188 9.438-3.157-.068-2.943 1.895-3.781 3.218-2.52-2.494-5.043-.638-7.563.75-1.515-1.677-4.387-1.85-6.406 0 .634-2.734 1.688-5.142-.187-7.375 5.026 1.84 3.88-.788 3.593-2.812 3.288 1.29 6.635 3.144 9.438.563 2.592.224 4.003-1.506 5.094-3.782zm22.5 17.188c2.054 1.502 1.278 4.264 7.375 3.968 4.094-1.499 8.187-4.949 12.281-2.28.467 1.778 3.208 3.807-.938 5.124-3.81-.352-6.205-1.834-12.28-.375-2.397-1.664-3.864-1.107-4.75.75-4.247-1.784-8.846-2.127-13.595-1.906-1.971-.542-3.595-1.556-7-.188 1.905-1.637 1.272-3.268.188-4.906 2.144 1.712 3.851 1.14 5.5.375 4.596 1.307 9.12 2.11 13.219-.562z" fill="#196331" transform="matrix(2.46295 0 0 2.48351 -1730.084 -1043.458)"/><path d="M936.922 546.254c1.504 1.033 3.129-.944 2.835 5.48 1.782 1.983 5.447 2.71 11.716 1.7.208-1.782.048-4.141.756-6.424M952.229 543.986c5.251-.456 5.33 3.82 11.15 5.858M961.489 552.868c-3.414 1.934-5.525 5.31-1.323 8.126M978.29 584.487c-.641-2.817-1.509-3.362-2.44-3.273-1.574-1.652-3.149-1.145-4.724-.19-4.767 1.42-2.368-2.218-2.645-3.968M896.64 557.909c1.904-.762 3.515.53 5.134 1.762 3.333.606 1.522-1.79 1.7-3.024M897.616 568.175c2.958-.027 4.676-1.137 5.291-3.213M894.907 573.704c1.111-.97 5.195-2.315 5.507-.776 1.135 2.465 3.773 2.041 5.456 1.252M896.63 582.166c.905-1.153 2.263-1.898 3.82-2.464 3.611-.3 1.921 2.234 2.08 3.78 2.422 3.012 3.534-1.722 5.29-2.646M928.04 549.089c1.89-4.612 3.78-1.401 5.67-2.08M952.418 573.466c3.84 1.885 3.408 3.504 2.646 5.102" fill="none" transform="matrix(2.46295 0 0 2.48351 -1730.084 -1043.458)"/></g><path d="M568.744 495.86c-3.677 1.238-4.793 5.402-13.087 1.364-5.1.335-7.169 3.027-5.725 8.452M469.228 433.97c1.847 3.392 2.668 6.872-.546 9.542-7.501 1.457-6.493 5.468-7.088 8.997M406.519 506.22c-3.218 1.873-4.78 5.4-4.363 10.907 1.608 6.327 3.74 11.606 10.36 7.907M450.688 540.847c-4.114-5.155-3.314-7.502-2.454-9.815 1.326-16.285-10.437-6.391-16.904-7.089" fill="none" stroke-width="1.004" transform="matrix(.99172 0 0 1 108.556 -153.238)"/></g><g fill="#196331" stroke="#196331" stroke-opacity="0"><path d="M455.57 1.607l20.16 61.419 64.272-.075-52.183 38.154 19.932 61.102-52.182-37.838-52.182 37.838 19.79-61.538-52.04-37.718 64.642-.195 19.79-61.149z" stroke="none"/></g><g><g stroke="#000"><path d="M387.776 1030.804c-2.804-8.68 18.371-73.479 25.76-78.828 7.39-5.35 75.56-5.235 82.931.14 7.371 5.374 28.328 70.244 25.494 78.915-2.834 8.671-58.052 48.648-67.175 48.632-9.122-.015-64.206-40.178-67.01-48.859z" fill="#e6c500" stroke-linejoin="bevel"/><path d="M454.872 948.084v131.52M437.375 948.542l33.083 123.468M418.213 950.347l65.254 113.025M406.322 965.293l89.358 89.358M399.698 981.988l108.713 62.766M394.494 997.665l126.947 34.015M390.204 1013.843h129.555M388.374 1031.662l126.879-33.997M401.427 1044.7l108.613-62.708M413.922 1054.794l89.705-89.706M426.246 1063.425l65.218-112.96M439.23 1072.22l33.118-123.597" fill="none"/></g><path d="M455.076 935.533l17.76 54.104 56.616-.066-45.968 33.609 17.558 53.825-45.966-33.332-45.967 33.332 17.433-54.21-45.842-33.224 56.943-.172 17.433-53.866z" fill="#fff" stroke="#000" stroke-width=".9999244799999999"/><path d="M463.576 932.809a8.5 8.5 0 11-17 0 8.5 8.5 0 0117 0zM389.578 989.324a8.5 8.5 0 11-17 0 8.5 8.5 0 0117 0zM417.718 1076.303a8.5 8.5 0 11-17 0 8.5 8.5 0 0117 0zM508.042 1076.303a8.5 8.5 0 11-17 0 8.5 8.5 0 0117 0zM537.166 989.324a8.5 8.5 0 11-17 0 8.5 8.5 0 0117 0z" fill="#eac102" stroke="#000" stroke-width=".99947505" stroke-linejoin="bevel"/><path d="M484.576 1013.843c0 16.293-13.208 29.5-29.5 29.5-16.293 0-29.5-13.207-29.5-29.5 0-16.292 13.207-29.5 29.5-29.5 16.292 0 29.5 13.208 29.5 29.5z" fill="#ce3121" stroke="#000" stroke-width="1.00005888" stroke-linejoin="bevel"/><path d="M455.076 984.343v59M440.326 988.296l29.5 51.095M429.528 999.093l51.095 29.5M425.576 1013.843h59M429.528 1028.593l51.095-29.5M440.326 1039.391l29.5-51.095" fill="none" stroke="#000"/><path d="M478.576 1013.843c0 12.98-10.522 23.5-23.5 23.5-12.98 0-23.5-10.52-23.5-23.5 0-12.978 10.52-23.5 23.5-23.5 12.978 0 23.5 10.522 23.5 23.5z" fill="#196331" stroke="#000" stroke-width=".9997043" stroke-linejoin="bevel"/></g><g><path d="M453.583 803.196v.042c-88.793 2.202-211.174 74.506-270.069 32.984 4.878 22.438 25.464 44.88 68.62 67.319 84.389 12.93 121.484-33.231 203.446-34.001 81.955.774 119.04 46.93 203.424 34 43.157-22.438 63.743-44.88 68.62-67.318-58.898 41.525-181.27-30.793-270.069-32.984v-.042c-.658 0-1.315.013-1.975.02-.664-.01-1.335-.02-1.997-.02z" fill="#fff" fill-rule="evenodd" stroke="#000"/><g style="text-align:start;line-height:100%;-inkscape-font-specification:Trajan Pro" font-size="56.509" font-weight="400" font-family="Trajan Pro"><path d="M337.553 870.59c1.566 3.748 3.206 6.51 4.92 8.283 1.713 1.773 3.464 2.977 5.254 3.613 2.652.886 5.122 1.11 7.41.672 2.287-.438 3.915-.892 4.883-1.363 1.583-.591 3.202-1.517 4.855-2.778 1.653-1.26 3.099-3.093 4.338-5.497 1.245-2.754 1.604-5.66 1.075-8.72a38.9 38.9 0 00-2.656-8.887l-2.288-5.597c-1.611-3.935-2.708-6.63-3.29-8.087-.583-1.456-.99-2.54-1.224-3.254-.332-.921-.453-1.673-.364-2.255.089-.582.449-1.088 1.08-1.518.286-.177.52-.319.705-.425.184-.106.364-.194.54-.266a.57.57 0 00.255-.196.297.297 0 00.034-.289.357.357 0 00-.336-.244c-.162-.007-.386.048-.671.168-.844.352-1.716.74-2.616 1.16-.9.422-1.472.686-1.714.793-.224.083-.904.33-2.04.742-1.135.41-2.325.866-3.569 1.367-.287.115-.486.232-.597.351a.356.356 0 00-.069.41.296.296 0 00.227.182c.105.018.211.005.32-.04.254-.103.562-.214.925-.332.363-.117.669-.197.918-.237.913-.171 1.621-.087 2.125.252.504.34.952.943 1.343 1.81.333.672.802 1.732 1.406 3.179.604 1.447 1.71 4.14 3.317 8.076l2.673 6.538c1.13 2.695 1.92 5.216 2.373 7.562.453 2.345.397 4.51-.169 6.494-.5 1.536-1.334 2.937-2.5 4.204a11.847 11.847 0 01-4.172 2.919c-1.461.633-2.903 1.013-4.326 1.142-1.422.129-3.005-.135-4.749-.79-1.558-.537-3.098-1.635-4.62-3.293-1.52-1.659-3.049-4.333-4.584-8.023l-2.993-7.323c-1.612-3.936-2.708-6.631-3.29-8.087-.583-1.456-.991-2.54-1.224-3.254-.335-.928-.462-1.693-.381-2.294.08-.602.447-1.095 1.097-1.48.285-.177.52-.318.704-.424.184-.106.364-.195.54-.267a.569.569 0 00.255-.196.297.297 0 00.035-.288.357.357 0 00-.336-.245c-.163-.007-.386.049-.672.168-.87.364-1.86.799-2.97 1.305-1.108.507-1.823.83-2.144.969-.313.12-1.09.407-2.334.862s-2.492.935-3.746 1.44c-.287.115-.486.232-.597.35a.357.357 0 00-.069.41.297.297 0 00.227.182c.105.019.211.006.32-.039.254-.103.562-.214.925-.332.363-.118.669-.197.918-.238.913-.17 1.621-.087 2.125.253.504.34.952.943 1.343 1.81.333.672.802 1.732 1.406 3.179.604 1.447 1.71 4.139 3.317 8.076zM384.802 835.378c1.21.89 3.468 2.527 6.775 4.91 3.308 2.384 6.99 5.002 11.048 7.853a612.166 612.166 0 007.613 5.226 841.157 841.157 0 006.727 4.506c1.882 1.245 2.98 1.96 3.293 2.147 1.728 1.123 2.916 1.868 3.564 2.233.648.366 1.057.511 1.228.437.203.024.292-.202.266-.678-.026-.476-.23-1.593-.61-3.351l-6.837-32.4c-.379-1.626-.52-2.836-.425-3.63.096-.795.567-1.37 1.414-1.727.311-.15.57-.256.777-.318.207-.063.378-.107.514-.132.194-.044.336-.113.425-.207a.334.334 0 00.1-.31c-.038-.16-.15-.247-.338-.26-.187-.013-.434.016-.74.086a59.524 59.524 0 00-2.952.72c-.82.227-1.39.378-1.709.454-.351.068-1.08.195-2.186.382a95.104 95.104 0 00-3.595.685c-.337.067-.6.148-.787.24-.187.094-.265.222-.235.384.018.114.063.2.135.26.072.059.202.07.39.032.243-.055.63-.119 1.158-.191.529-.072 1.065-.11 1.608-.114.876.009 1.546.368 2.009 1.079.463.71.887 1.947 1.272 3.708l6.63 27.937c-1.206-.822-3.36-2.346-6.464-4.573a1011.36 1011.36 0 00-9.89-7.003c-5.416-3.775-10.2-7.12-14.356-10.039-4.155-2.918-6.582-4.632-7.28-5.142-.362-.252-.777-.544-1.243-.875-.465-.331-.822-.49-1.07-.478-.223.027-.339.252-.347.674-.008.422.102 1.161.332 2.219l6.737 31.67c.547 2.464.819 4.236.815 5.316-.003 1.08-.325 1.765-.967 2.057a6.74 6.74 0 01-1.22.543 8.957 8.957 0 01-.974.274c-.286.062-.41.204-.371.427.043.187.147.292.313.315.167.024.389.003.666-.063a80.91 80.91 0 003.38-.812 106.1 106.1 0 011.888-.492c.267-.05.917-.16 1.952-.332a97.178 97.178 0 003.94-.759c.333-.068.574-.154.726-.256.151-.103.21-.236.174-.399-.056-.22-.227-.298-.513-.237-.266.061-.662.124-1.187.19-.526.066-1.074.09-1.647.071-.773-.019-1.424-.462-1.954-1.329-.529-.866-1.054-2.405-1.575-4.617zM463.205 843.877a458.697 458.697 0 01-.412 7.264c-.138 2.11-.307 3.766-.504 4.967-.14.827-.336 1.512-.588 2.057-.252.544-.655.865-1.21.963-.264.045-.549.082-.854.11a6.223 6.223 0 01-.85.028c-.167-.006-.287.024-.358.087a.305.305 0 00-.111.228.357.357 0 00.2.364c.144.076.37.12.68.134.436.018.947.025 1.533.023.586-.003 1.168.009 1.745.033a48.578 48.578 0 012.26.061c.14.007.537.042 1.19.104.654.062 1.402.144 2.244.244.845.075 1.647.152 2.407.23.76.079 1.309.128 1.647.15 4.829.114 8.5-.995 11.016-3.327 2.515-2.333 3.852-5.076 4.012-8.23.025-3.312-.943-6.017-2.904-8.115-1.962-2.099-4.042-3.532-6.242-4.299a26.936 26.936 0 003.873-4.191c1.132-1.522 1.784-3.42 1.957-5.692.19-1.581-.442-3.382-1.898-5.403-1.457-2.02-4.44-3.236-8.95-3.646a86.328 86.328 0 00-3.545-.099 74.27 74.27 0 01-2.615-.05 617.7 617.7 0 01-2.337-.206 126.927 126.927 0 00-4.031-.294c-.31-.018-.539.003-.69.064a.356.356 0 00-.236.341c-.001.113.041.2.128.261a.57.57 0 00.306.101c.274.014.6.045.978.093s.689.106.932.176c.899.234 1.504.612 1.815 1.133.311.522.46 1.258.445 2.209.015.75-.012 1.91-.081 3.476-.07 1.566-.216 4.473-.438 8.72zm5.748-23.58a.503.503 0 01.168-.388c.108-.091.288-.157.541-.198a9.724 9.724 0 011.472-.15c.506-.014.924-.011 1.251.008 2.732.253 4.64 1.387 5.723 3.401 1.084 2.014 1.548 4.248 1.393 6.7-.07 1.164-.317 2.224-.737 3.18-.421.955-.95 1.76-1.59 2.414-.568.626-1.199 1.009-1.89 1.147-.693.139-1.8.157-3.32.055-1.036-.06-1.827-.132-2.373-.215a12.976 12.976 0 01-1.059-.19.624.624 0 01-.292-.22c-.058-.089-.082-.229-.07-.42zm-.927 17.889c.014-.273.134-.399.36-.378.507.024 1.255.067 2.242.13.987.063 1.705.133 2.153.21.665.097 1.368.265 2.11.506.742.241 1.572.7 2.49 1.374 2.047 1.677 3.408 3.584 4.081 5.721.674 2.137.943 4.087.808 5.849-.303 3.116-1.359 5.2-3.167 6.251-1.809 1.051-3.544 1.501-5.205 1.35-.557-.018-1.318-.107-2.285-.267a9.152 9.152 0 01-2.637-.836c-.815-.424-1.307-.945-1.475-1.562-.169-.617-.24-1.597-.216-2.94.004-.607.07-2.203.198-4.785.128-2.582.254-5.05.377-7.407zM501.894 845.364c-.881 3.966-1.133 7.167-.755 9.604.377 2.436 1.114 4.43 2.21 5.982 1.657 2.252 3.546 3.86 5.667 4.82 2.121.961 3.713 1.528 4.776 1.702 1.635.43 3.49.606 5.569.529 2.077-.078 4.315-.741 6.713-1.991 2.605-1.533 4.574-3.7 5.906-6.505a38.9 38.9 0 002.953-8.793l1.357-5.892c.952-4.145 1.61-6.98 1.973-8.505.364-1.525.656-2.647.877-3.364.26-.945.593-1.629 1.002-2.053.408-.424.994-.63 1.758-.617.335.02.608.039.82.058.212.02.41.051.595.094a.57.57 0 00.322-.013.297.297 0 00.194-.216.357.357 0 00-.134-.393c-.128-.1-.343-.183-.645-.25a68.2 68.2 0 00-2.807-.56c-.978-.175-1.597-.288-1.857-.34-.231-.061-.93-.25-2.094-.57-1.165-.319-2.4-.632-3.705-.94-.301-.072-.531-.091-.69-.058a.356.356 0 00-.292.295.296.296 0 00.08.28c.075.075.17.126.284.152.267.062.583.15.947.262.365.113.66.224.887.335.845.386 1.375.864 1.591 1.432.216.568.234 1.318.054 2.252-.115.742-.343 1.878-.683 3.409-.341 1.53-.99 4.367-1.946 8.51l-1.586 6.884c-.63 2.853-1.437 5.369-2.42 7.546-.982 2.178-2.275 3.915-3.88 5.21-1.295.966-2.784 1.63-4.468 1.993a11.846 11.846 0 01-5.091-.02c-1.559-.325-2.956-.845-4.193-1.56-1.237-.715-2.378-1.843-3.425-3.384-.964-1.337-1.59-3.121-1.876-5.354-.287-2.232.006-5.298.879-9.198l1.775-7.71c.953-4.144 1.61-6.979 1.974-8.504.363-1.526.655-2.647.876-3.365.261-.95.599-1.649 1.012-2.093.412-.445.995-.637 1.749-.576.335.019.608.038.82.058.211.02.41.051.594.094a.57.57 0 00.322-.013.297.297 0 00.195-.216.356.356 0 00-.134-.393c-.128-.1-.344-.183-.646-.25-.92-.205-1.98-.42-3.178-.646a153.032 153.032 0 01-2.311-.445c-.325-.082-1.126-.296-2.404-.64a125.153 125.153 0 00-3.891-.984c-.301-.072-.531-.09-.69-.057a.357.357 0 00-.293.295.296.296 0 00.081.28c.075.074.17.125.284.152.267.061.583.148.947.261.364.113.66.225.887.335.845.387 1.375.864 1.591 1.432.216.568.234 1.319.054 2.252-.115.742-.343 1.878-.684 3.409-.34 1.53-.989 4.368-1.945 8.511zM572.412 843.309l6.562 2.765c2.433 1.059 3.997 2.034 4.693 2.926.695.892.893 1.743.593 2.554l-.18.597c-.12.368-.173.626-.159.774.014.148.087.243.22.286.106.045.216.025.328-.058.112-.083.216-.241.313-.475.165-.392.529-1.218 1.09-2.478.56-1.26 1.024-2.335 1.39-3.225.071-.161.118-.31.141-.445.023-.136-.027-.232-.15-.29a3.46 3.46 0 00-.555-.116c-.264-.04-.603-.111-1.018-.212-.45-.089-.99-.233-1.623-.433-.633-.2-1.367-.468-2.204-.804l-19.656-7.917c-.353-.143-.922-.4-1.708-.772a62.88 62.88 0 01-2.328-1.158c-.663-.351-1.13-.677-1.403-.977-.273-.3-.49-.494-.65-.581-.115-.021-.267.065-.454.258-.187.194-.344.37-.47.527-.247.34-.813 1.152-1.699 2.438-.886 1.285-1.436 2.135-1.65 2.548-.119.318-.095.51.071.578a.42.42 0 00.324.008c.114-.04.251-.147.412-.321.139-.145.318-.311.536-.5.218-.189.555-.444 1.01-.766.634-.462 1.397-.654 2.288-.578.891.075 2.135.427 3.733 1.054l7.8 3.02-8.93 22.172a458.774 458.774 0 01-2.751 6.735c-.818 1.95-1.515 3.461-2.093 4.533-.4.736-.808 1.32-1.224 1.754-.416.433-.901.605-1.457.517a11.49 11.49 0 01-.844-.172 6.222 6.222 0 01-.813-.252c-.157-.059-.279-.07-.367-.033a.305.305 0 00-.18.179.356.356 0 00.072.41c.111.118.31.234.599.347.888.35 1.918.735 3.091 1.154 1.173.419 1.876.672 2.109.758.2.088.937.415 2.209.981 1.272.566 2.664 1.157 4.175 1.773.57.22.907.193 1.007-.082a.306.306 0 00-.004-.253c-.038-.087-.134-.164-.288-.23-.258-.106-.61-.273-1.055-.5a28.11 28.11 0 01-1.22-.66c-.716-.424-1.106-.95-1.17-1.575-.064-.626.032-1.336.287-2.13.327-1.174.872-2.747 1.634-4.719a457.843 457.843 0 012.686-6.762z"/></g></g><g><path d="M257.693 677.916c-14.98-46.854-33.705-83.146-58.108-103.423-12.12-7.884-122.304-21.128-177.832-60.79-9.985-14.65-34.681-59.27 7.338-144.272-14.417 38.682-44.652 64.986-17.949 174.2 9.77 29.542 24.555 44.15 41.453 52.468 53.267 26.788 106.744 38.14 161.925 45.55 19.755 1.473 29.35 23.056 43.173 36.267z" fill="#fff" stroke="#000"/><g style="text-align:start;line-height:100%;-inkscape-font-specification:Trajan Pro" font-size="49.294" font-weight="400" font-family="Trajan Pro"><path d="M24.085 538.215c-2.048 1.559-3.469 3.014-4.263 4.365-.795 1.352-1.236 2.64-1.323 3.864-.11 1.816.182 3.42.875 4.814.693 1.393 1.266 2.353 1.719 2.88.638.913 1.491 1.81 2.56 2.692 1.067.881 2.46 1.533 4.178 1.955 1.91.364 3.776.149 5.597-.645a23.497 23.497 0 005.083-3.023l3.072-2.298c2.148-1.61 3.62-2.714 4.413-3.312.793-.597 1.39-1.022 1.791-1.273.486-.329.909-.517 1.268-.566.359-.05.726.093 1.102.426.167.157.295.287.384.39.088.104.168.205.238.302a.288.288 0 00.207.11.308.308 0 00.207-.05.231.231 0 00.099-.245c-.019-.103-.09-.238-.217-.404a59.742 59.742 0 00-1.157-1.478c-.413-.511-.672-.835-.778-.97-.09-.128-.372-.527-.843-1.199a98.232 98.232 0 00-1.488-2.06c-.124-.167-.233-.275-.326-.321a.231.231 0 00-.263.025.306.306 0 00-.106.185.287.287 0 00.046.229c.108.146.23.324.367.534.136.21.244.387.323.529.287.526.355.967.204 1.32-.15.355-.453.704-.908 1.048-.364.3-.94.754-1.725 1.362-.785.608-2.253 1.717-4.403 3.325l-3.613 2.701c-1.459 1.116-2.86 1.995-4.201 2.635-1.342.64-2.68.932-4.016.877-1.005-.06-1.991-.358-2.958-.894a8.008 8.008 0 01-2.5-2.183c-.64-.82-1.12-1.656-1.438-2.512-.318-.855-.424-1.88-.317-3.073.048-1.053.45-2.173 1.205-3.36.756-1.189 2.148-2.55 4.177-4.085l4.018-3.004c2.15-1.609 3.625-2.707 4.425-3.295.801-.588 1.403-1.007 1.805-1.257.488-.329.914-.522 1.277-.58.362-.057.718.079 1.067.407.167.157.295.287.384.39.088.104.168.205.239.302.056.068.129.11.219.126s.163.005.219-.032c.163-.122.116-.35-.142-.684-.371-.49-.814-1.058-1.328-1.705-.514-.646-.843-1.063-.987-1.249-.128-.178-.44-.62-.938-1.325a107.531 107.531 0 00-1.544-2.136c-.124-.168-.233-.275-.326-.322a.231.231 0 00-.263.026.305.305 0 00-.097.197c-.012.088 0 .16.037.216.108.147.23.325.367.535.136.21.244.387.323.529.286.526.356.967.207 1.325-.148.358-.443.716-.885 1.077-.354.314-.926.773-1.716 1.375-.79.601-2.261 1.705-4.413 3.312zM51.32 553.044c.23.909.69 2.612 1.381 5.11.692 2.498 1.469 5.29 2.332 8.374.828 2.9 1.66 5.705 2.495 8.413.836 2.708 1.327 4.268 1.473 4.681.448 1.282.767 2.134.956 2.556.19.422.358.658.508.706.09.094.223.014.402-.24.178-.253.534-.883 1.066-1.891l9.936-18.495c.476-.941.889-1.579 1.239-1.913.35-.334.81-.41 1.38-.227a4.296 4.296 0 01.821.342.448.448 0 00.327.036c.102-.03.17-.076.204-.136.044-.093.019-.184-.076-.273a1.774 1.774 0 00-.401-.267 51.56 51.56 0 00-1.778-.899c-.505-.24-.856-.411-1.053-.512-.21-.116-.635-.358-1.273-.725a82.809 82.809 0 00-2.111-1.171 2.002 2.002 0 00-.478-.2c-.131-.032-.222-.003-.274.086a.421.421 0 00-.055.216c0 .084.052.158.157.22.144.076.363.207.658.392.294.186.582.389.864.61.448.335.636.766.566 1.291-.071.526-.372 1.293-.903 2.302l-8.1 16.032c-.248-.884-.69-2.492-1.326-4.824a662.798 662.798 0 00-2.079-7.445 1194.099 1194.099 0 01-3.069-10.813c-.867-3.122-1.379-4.95-1.534-5.485-.077-.28-.175-.593-.295-.938-.12-.346-.272-.58-.456-.703-.126-.083-.29-.03-.494.155-.204.186-.472.589-.804 1.208l-9.644 18.125c-.734 1.41-1.313 2.37-1.734 2.879-.422.508-.854.699-1.295.57a4.894 4.894 0 01-.833-.252 6.141 6.141 0 01-.606-.274.294.294 0 00-.225-.025.294.294 0 00-.174.147c-.057.109-.05.204.021.285.071.082.192.166.362.252a47.25 47.25 0 002.058 1.024c.605.28.993.463 1.164.548.156.089.528.31 1.115.665.587.354 1.35.783 2.287 1.288.187.1.344.158.47.172.125.014.213-.024.264-.116a.294.294 0 00.025-.225.294.294 0 00-.147-.174 9.197 9.197 0 01-.687-.413 7.306 7.306 0 01-.851-.644c-.394-.319-.545-.79-.455-1.412.09-.622.46-1.58 1.11-2.871zM85.421 578.862a247.44 247.44 0 01-1.64 4.32c-.488 1.246-.91 2.204-1.269 2.874-.25.472-.486.84-.709 1.102a.933.933 0 01-.862.336c-.179-.02-.37-.05-.574-.09a3.804 3.804 0 01-.552-.15c-.1-.032-.182-.027-.247.015a.314.314 0 00-.132.159c-.065.193.085.354.45.483.604.22 1.302.458 2.095.714.793.257 1.255.406 1.385.45.13.053.63.262 1.499.626.869.364 1.803.735 2.801 1.113.197.071.348.098.454.08.107-.02.174-.069.203-.15a.315.315 0 00.004-.207c-.022-.075-.081-.132-.178-.173a8.58 8.58 0 01-.692-.315c-.29-.143-.553-.283-.79-.418-.486-.274-.763-.597-.83-.968-.068-.371-.03-.813.112-1.325.187-.733.506-1.73.957-2.989.452-1.26.983-2.705 1.596-4.337l5.1-13.666c.065-.18.14-.317.226-.41.084-.095.18-.134.286-.119.215.03.527.09.934.18.407.09.77.192 1.09.305.444.114 1.083.401 1.916.862.833.46 1.56 1.298 2.18 2.511.544 1.272.755 2.42.633 3.443-.122 1.023-.309 1.82-.56 2.39-.614 1.543-1.697 2.6-3.247 3.17-1.55.57-3.287.515-5.21-.162-.348-.132-.597-.197-.748-.195-.151.003-.249.074-.293.212a.324.324 0 00.037.261c.051.09.118.153.2.187.109.062.269.135.481.22.213.083.377.146.492.188 2.719.977 5.154 1.05 7.304.217 2.15-.832 3.702-2.462 4.654-4.89.32-.926.43-1.807.333-2.642-.097-.835-.286-1.513-.568-2.034-.144-.4-.624-1.012-1.44-1.837-.818-.825-2.314-1.67-4.488-2.535-.851-.314-1.783-.647-2.794-.998a169.601 169.601 0 01-2.173-.765c-.189-.075-.692-.277-1.51-.609-.819-.332-1.648-.656-2.489-.973-.195-.074-.345-.106-.448-.095a.231.231 0 00-.208.165.305.305 0 00.026.217c.036.08.085.135.147.162.17.065.37.149.598.252.229.103.415.193.558.27.527.282.828.606.902.972.075.366.017.838-.173 1.414-.127.456-.36 1.151-.7 2.085-.338.934-.978 2.658-1.918 5.173zM108.78 587.9a247.464 247.464 0 01-1.789 4.261c-.531 1.228-.987 2.17-1.368 2.828-.267.465-.518.829-.753 1.091a.868.868 0 01-.867.292c-.17-.043-.359-.085-.564-.125a3.329 3.329 0 01-.553-.154c-.098-.036-.18-.034-.247.006a.314.314 0 00-.138.154c-.071.191.073.357.433.498.28.115.6.238.96.368s.712.256 1.06.375a31.673 31.673 0 011.496.573 51.9 51.9 0 012.812 1.253c.692.312 1.53.686 2.512 1.123.982.438 2.116.923 3.4 1.457.638.284 1.107.436 1.409.456.301.02.586-.155.855-.525.28-.382.627-.93 1.04-1.646.412-.715.661-1.167.748-1.356a1.18 1.18 0 00.097-.359c.011-.117-.03-.198-.122-.244a.259.259 0 00-.263.017c-.082.053-.181.168-.297.345-.363.612-.742 1.041-1.136 1.287-.394.245-.851.368-1.372.368-.548-.03-1.162-.164-1.841-.402-.68-.237-1.257-.459-1.733-.664-1.66-.653-2.688-1.27-3.084-1.85-.396-.58-.366-1.41.088-2.49.17-.461.53-1.346 1.08-2.655.55-1.309.967-2.307 1.254-2.994l1.143-2.767a.28.28 0 01.11-.142c.05-.033.124-.032.22.005.414.17 1.229.52 2.446 1.05 1.216.53 2.107.946 2.672 1.247.612.348 1.001.66 1.168.939.168.278.223.544.167.798-.014.244-.05.46-.107.646-.058.186-.121.356-.188.51-.083.2-.048.337.105.408.119.038.229.002.33-.11.1-.11.18-.239.239-.385.064-.15.205-.446.425-.89.22-.445.425-.84.616-1.188.27-.523.497-.917.683-1.184.186-.266.301-.444.346-.535.072-.191.044-.309-.082-.353-.059-.02-.146-.007-.261.04a21.12 21.12 0 00-.422.18 1.41 1.41 0 01-.801.062 8.947 8.947 0 01-1.068-.287c-.318-.102-.905-.323-1.758-.663-.854-.34-1.687-.676-2.498-1.008-.811-.332-1.312-.538-1.503-.618-.094-.038-.139-.091-.135-.158a.824.824 0 01.085-.273l3.718-9a.672.672 0 01.148-.247c.051-.047.115-.055.192-.023a205.974 205.974 0 013.47 1.495c.726.32 1.203.542 1.43.666.86.484 1.42.868 1.68 1.15.26.282.378.574.356.877a3.07 3.07 0 01-.11.707 4.495 4.495 0 01-.178.542c-.122.277-.09.457.095.541.081.028.164.017.248-.034a.7.7 0 00.209-.187c.14-.226.331-.584.575-1.074.243-.49.417-.833.521-1.028.235-.44.434-.765.596-.974.163-.208.27-.366.32-.472a.633.633 0 00.055-.228c.002-.071-.025-.12-.081-.148a.65.65 0 00-.26-.033 1.688 1.688 0 01-.272-.004 93.619 93.619 0 01-.674-.164 12.204 12.204 0 01-.965-.285 98.154 98.154 0 01-2.423-.981 1102.634 1102.634 0 01-5.76-2.4 421.95 421.95 0 01-1.459-.648c-.82-.366-1.648-.723-2.482-1.071-.193-.081-.341-.118-.445-.11a.231.231 0 00-.213.157.305.305 0 00.018.218.305.305 0 00.142.167c.167.07.364.161.589.272.225.111.407.208.547.29.518.3.807.634.869 1.002.061.369-.013.838-.223 1.408-.142.451-.4 1.138-.77 2.059-.372.921-1.07 2.622-2.097 5.103zM160.505 605.724a247.5 247.5 0 01-1.314 4.43c-.395 1.279-.745 2.265-1.052 2.96-.214.49-.423.873-.625 1.152a.933.933 0 01-.835.4 6.631 6.631 0 01-.58-.048 3.816 3.816 0 01-.56-.108c-.102-.025-.184-.014-.246.033a.314.314 0 00-.12.168c-.05.198.111.347.484.448.62.174 1.334.36 2.143.557.81.196 1.282.311 1.415.345l1.54.513c.895.298 1.854.598 2.878.901.2.057.354.072.458.046.105-.027.168-.081.19-.164a.315.315 0 00-.01-.207c-.028-.073-.091-.126-.19-.16a8.577 8.577 0 01-.714-.261c-.3-.122-.572-.242-.818-.359-.506-.237-.806-.538-.9-.903-.096-.365-.092-.809.012-1.33.132-.745.377-1.763.733-3.052.356-1.29.78-2.77 1.269-4.444l4.068-14.007c.053-.184.118-.327.195-.427.078-.1.17-.146.277-.139.217.014.532.05.944.11.413.06.783.134 1.11.223.452.08 1.11.32 1.976.717.865.398 1.651 1.178 2.36 2.342.637 1.228.933 2.357.887 3.386-.046 1.03-.172 1.838-.38 2.425-.498 1.585-1.499 2.719-3.002 3.403-1.504.683-3.24.759-5.208.227-.357-.107-.61-.153-.76-.14-.151.015-.243.092-.277.233-.02.086 0 .172.057.258a.412.412 0 00.213.172c.113.054.278.115.496.183.218.067.386.118.505.152 2.783.772 5.217.662 7.3-.328 2.082-.99 3.508-2.73 4.276-5.222.25-.948.295-1.834.136-2.66-.159-.825-.398-1.487-.718-1.986-.172-.388-.697-.963-1.573-1.725-.876-.762-2.43-1.493-4.664-2.194-.872-.25-1.825-.512-2.86-.787a169.49 169.49 0 01-2.223-.602c-.194-.06-.712-.225-1.552-.494-.841-.27-1.692-.532-2.554-.786-.2-.06-.352-.08-.455-.06a.231.231 0 00-.194.179.305.305 0 00.041.215.305.305 0 00.16.15c.174.052.379.12.615.207.235.085.427.161.576.227.547.242.87.543.972.903.101.36.079.834-.068 1.423-.092.464-.273 1.175-.542 2.131a698.4 698.4 0 01-1.528 5.301zM187.813 606.305c.551-2.628.93-4.427 1.14-5.398.208-.972.37-1.686.487-2.143.154-.606.353-1.043.598-1.312.245-.27.638-.397 1.18-.383.219.024.443.051.671.082.229.03.41.06.542.087.067.011.136-.001.207-.038a.241.241 0 00.134-.15c.035-.2-.138-.337-.517-.41-.645-.13-1.433-.282-2.366-.453-.932-.17-1.483-.272-1.653-.304l-1.513-.36c-.85-.204-1.716-.4-2.596-.589-.204-.044-.357-.052-.457-.026a.231.231 0 00-.181.194c-.01.067.01.137.058.211.048.074.105.12.17.138.178.039.387.092.629.16.241.067.439.128.591.183.564.2.91.475 1.038.826.129.351.142.826.04 1.425-.057.47-.183 1.191-.379 2.165-.195.974-.57 2.775-1.123 5.402l-1.3 6.189a247.413 247.413 0 01-.975 4.517c-.296 1.305-.571 2.315-.825 3.03-.176.505-.355.903-.536 1.196a.933.933 0 01-.802.462c-.18.007-.373.006-.581-.003a3.82 3.82 0 01-.568-.066c-.103-.017-.184 0-.242.052a.314.314 0 00-.107.176c-.035.201.137.338.517.41.294.061.626.122.995.183.37.06.745.12 1.126.177a25.005 25.005 0 011.494.27c.531.113 1.117.245 1.758.396l2.185.518a99.63 99.63 0 002.797.684c1.032.239 2.195.494 3.49.765.926.208 1.534.278 1.824.211.29-.067.518-.291.685-.674.27-.543.535-1.184.797-1.922.262-.739.42-1.23.476-1.473.076-.364.032-.56-.135-.588a.31.31 0 00-.276.082.758.758 0 00-.19.294 5.009 5.009 0 01-.53.987 3.72 3.72 0 01-.753.811c-.547.403-1.211.585-1.993.546-.783-.04-1.651-.17-2.605-.391-1.411-.295-2.485-.588-3.224-.882-.738-.293-1.214-.612-1.43-.957-.262-.344-.311-1.133-.149-2.368.162-1.235.516-3.124 1.06-5.668zM203.162 616.452a247.5 247.5 0 01-.479 4.596c-.153 1.33-.316 2.363-.49 3.103-.122.522-.257.943-.406 1.262a.868.868 0 01-.745.53 11.27 11.27 0 00-.577.044c-.208.021-.4.025-.573.013-.104-.006-.183.02-.235.077a.315.315 0 00-.087.187c-.013.204.173.321.558.352.302.029.643.054 1.025.074.382.021.756.039 1.123.053a31.72 31.72 0 011.598.115 52.21 52.21 0 013.055.385c.753.098 1.663.214 2.73.348 1.067.134 2.292.27 3.676.41.692.087 1.186.097 1.48.029.294-.068.517-.318.667-.75.158-.447.33-1.072.518-1.876.188-.804.296-1.309.324-1.514a1.179 1.179 0 00-.01-.372c-.024-.115-.086-.182-.188-.199a.259.259 0 00-.247.093c-.063.075-.125.213-.184.416-.17.69-.409 1.21-.715 1.56-.306.35-.709.6-1.207.75-.534.13-1.16.18-1.879.148a26.984 26.984 0 01-1.85-.134c-1.778-.144-2.941-.437-3.488-.878-.547-.442-.76-1.244-.637-2.409.03-.491.119-1.442.266-2.854.147-1.412.258-2.488.333-3.23l.294-2.978a.277.277 0 01.064-.168c.039-.047.11-.066.212-.059.445.043 1.327.142 2.645.298 1.318.155 2.29.295 2.918.42.687.155 1.15.342 1.39.56.242.218.372.457.391.716.058.238.086.454.084.65a4.948 4.948 0 01-.032.541c-.021.217.052.337.219.36.125.003.22-.063.284-.199.065-.136.104-.282.118-.438.017-.162.067-.487.149-.976.081-.489.163-.927.246-1.315.106-.579.21-1.022.31-1.33a5.52 5.52 0 00.177-.613c.013-.204-.047-.309-.18-.315-.063-.002-.143.036-.24.114-.096.08-.214.177-.351.294a1.41 1.41 0 01-.75.292 8.942 8.942 0 01-1.104.034c-.334-.005-.96-.047-1.875-.125-.916-.078-1.81-.159-2.683-.242a428.85 428.85 0 01-1.617-.156c-.1-.01-.159-.048-.175-.113a.832.832 0 01.002-.286l.954-9.69a.672.672 0 01.07-.28c.036-.06.095-.086.177-.078a206.077 206.077 0 013.755.426c.787.097 1.308.171 1.56.225.965.215 1.612.42 1.942.614.33.195.528.44.595.737.06.228.093.464.1.708.005.245.001.435-.014.57-.037.3.046.464.248.491a.285.285 0 00.227-.104.7.7 0 00.146-.24c.068-.256.148-.655.239-1.195s.158-.918.202-1.134c.097-.49.194-.858.288-1.105.095-.246.152-.428.17-.544a.623.623 0 00-.013-.235c-.02-.069-.06-.108-.121-.117a.643.643 0 00-.259.043 1.672 1.672 0 01-.261.075c-.157.01-.387.022-.692.038-.305.015-.641.018-1.007.006a98.072 98.072 0 01-2.603-.237 1100.081 1100.081 0 01-6.207-.63l-1.585-.198c-.892-.113-1.787-.215-2.686-.307-.208-.021-.36-.014-.458.024a.231.231 0 00-.159.212.304.304 0 00.08.204.305.305 0 00.185.118c.181.019.395.049.643.09.247.041.45.08.607.118.583.138.956.374 1.122.709.166.335.23.805.195 1.412-.006.473-.054 1.204-.142 2.194-.089.99-.265 2.82-.53 5.491z"/></g></g><path d="M656.71 677.916c14.98-46.854 33.705-83.146 58.107-103.423 12.121-7.884 122.305-21.128 177.833-60.79 9.984-14.65 34.68-59.27-7.339-144.272 14.417 38.682 44.653 64.986 17.949 174.2-9.77 29.542-24.555 44.15-41.452 52.468-53.267 26.788-106.744 38.14-161.926 45.55-19.755 1.473-29.349 23.056-43.173 36.267z" fill="#fff" stroke="#000"/><g style="text-align:start;line-height:100%;-inkscape-font-specification:Trajan Pro" font-size="50.512" font-weight="400" font-family="Trajan Pro"><path d="M706.9 612.988c.583 3.028 1.388 5.328 2.417 6.9 1.028 1.572 2.176 2.73 3.444 3.475 1.89 1.084 3.768 1.625 5.633 1.623 1.864-.002 3.2-.107 4.006-.313 1.32-.199 2.738-.637 4.252-1.314 1.515-.678 2.956-1.827 4.323-3.446 1.407-1.857 2.169-3.975 2.286-6.352a28.153 28.153 0 00-.541-7.065l-.831-4.52c-.586-3.164-.989-5.33-1.208-6.5-.22-1.17-.357-2.037-.414-2.601-.094-.697-.071-1.25.067-1.662.138-.412.486-.73 1.044-.956.257-.097.465-.165.624-.205.158-.04.309-.071.45-.095a.345.345 0 00.227-.164.367.367 0 00.058-.248.277.277 0 00-.211-.237c-.12-.035-.303-.03-.549.017-.699.133-1.433.285-2.201.456-.77.171-1.255.278-1.457.319-.185.03-.763.119-1.735.268-.972.148-1.973.315-3.002.5-.247.044-.42.104-.52.18a.277.277 0 00-.112.296c.017.08.064.15.141.211a.344.344 0 00.27.073c.215-.039.471-.075.77-.11.299-.034.545-.056.74-.065.717-.028 1.226.133 1.526.483.3.35.514.861.641 1.532.128.551.31 1.41.544 2.577.235 1.167.644 3.333 1.227 6.496l.977 5.316c.422 2.16.62 4.132.592 5.913-.026 1.78-.425 3.373-1.195 4.777-.6 1.048-1.444 1.948-2.534 2.7a9.595 9.595 0 01-3.674 1.523c-1.22.25-2.374.32-3.461.206-1.088-.114-2.243-.545-3.467-1.295-1.106-.611-2.095-1.638-2.968-3.082-.873-1.443-1.593-3.662-2.16-6.658l-1.088-5.911a835.136 835.136 0 01-1.182-6.504c-.205-1.173-.335-2.041-.39-2.606-.093-.7-.074-1.26.058-1.68.131-.42.466-.73 1.004-.929.257-.096.465-.164.623-.204a5.87 5.87 0 01.451-.096.427.427 0 00.252-.168c.065-.088.093-.172.082-.253-.044-.24-.314-.31-.81-.21-.723.137-1.568.31-2.536.517-.968.208-1.59.34-1.866.395-.26.043-.9.144-1.922.301-1.022.158-2.06.332-3.114.522-.247.044-.42.104-.52.179a.277.277 0 00-.112.296c.02.08.074.148.16.208.088.06.171.086.252.076.215-.038.471-.075.77-.11.298-.034.545-.056.739-.065.717-.028 1.228.133 1.533.483.305.35.533.857.684 1.524.15.547.338 1.405.563 2.573a836.66 836.66 0 011.208 6.5zM744.083 593.629c.907.662 2.635 1.88 5.183 3.655 2.549 1.775 5.4 3.754 8.556 5.939a496.684 496.684 0 008.737 5.85c2.842 1.857 4.488 2.92 4.94 3.19 1.393.839 2.339 1.381 2.836 1.625.498.245.834.332 1.008.263.154.018.217-.159.188-.529-.03-.37-.184-1.223-.464-2.56l-4.985-24.656c-.281-1.232-.389-2.136-.321-2.712.067-.576.433-.998 1.099-1.265a5.148 5.148 0 011.018-.313.537.537 0 00.33-.217c.07-.105.098-.2.083-.281-.03-.12-.123-.184-.278-.194-.156-.01-.347.01-.575.06-.901.19-1.677.368-2.327.532-.65.164-1.103.275-1.362.333-.283.054-.86.156-1.73.305-.87.15-1.816.328-2.842.535-.252.05-.45.11-.594.181-.145.072-.206.168-.185.29.012.082.05.162.114.24.063.079.168.107.313.084.19-.04.493-.088.906-.142a12.45 12.45 0 011.262-.1c.67-.032 1.174.22 1.51.76.338.538.647 1.476.93 2.812l4.794 20.982c-.905-.626-2.543-1.77-4.912-3.435a794.196 794.196 0 00-7.613-5.275 1430.632 1430.632 0 01-11.103-7.625c-3.188-2.215-5.058-3.51-5.61-3.883-.286-.2-.615-.414-.99-.64-.375-.227-.694-.327-.958-.3-.18.02-.292.194-.337.522-.045.327.016.903.183 1.728l4.971 24.092c.402 1.863.603 3.19.603 3.982 0 .792-.252 1.297-.757 1.516a5.86 5.86 0 01-.961.405 7.357 7.357 0 01-.769.21.353.353 0 00-.227.15.353.353 0 00-.048.268c.031.144.11.227.238.247.128.021.304.006.526-.044a56.63 56.63 0 002.681-.63c.772-.205 1.27-.333 1.494-.386.211-.037.723-.117 1.536-.24.813-.122 1.844-.31 3.095-.56.25-.051.438-.118.564-.201.127-.083.179-.186.156-.31a.353.353 0 00-.15-.226.353.353 0 00-.268-.048c-.214.046-.53.094-.95.144-.42.05-.845.07-1.278.058-.606.007-1.106-.311-1.499-.955-.393-.643-.784-1.808-1.173-3.497zM785.865 598.466a296.49 296.49 0 011.402 5.357c.39 1.555.642 2.784.758 3.687.085.637.111 1.166.079 1.586a1.04 1.04 0 01-.613.91c-.193.083-.403.18-.628.292a3.994 3.994 0 01-.637.256c-.12.037-.197.1-.231.186a.377.377 0 00-.02.247c.072.233.33.286.775.158.35-.095.744-.211 1.181-.349.437-.137.864-.276 1.282-.415a37.945 37.945 0 011.84-.545 61.992 61.992 0 013.589-.856c.885-.208 1.955-.461 3.208-.761 1.253-.3 2.685-.663 4.296-1.092.813-.193 1.37-.39 1.672-.591.301-.2.445-.575.431-1.122-.011-.568-.081-1.342-.21-2.323-.129-.98-.22-1.593-.275-1.835a1.414 1.414 0 00-.17-.412c-.074-.12-.172-.168-.293-.144a.31.31 0 00-.239.208c-.039.11-.049.292-.03.544.1.847.052 1.53-.144 2.052-.196.52-.542.97-1.037 1.35-.544.37-1.225.69-2.044.958-.82.269-1.53.479-2.132.63-2.055.589-3.483.75-4.282.487-.8-.265-1.376-1.075-1.73-2.433-.174-.563-.476-1.668-.907-3.313-.43-1.645-.76-2.899-.987-3.762l-.928-3.464a.335.335 0 01.001-.216c.024-.068.095-.12.213-.155.518-.14 1.548-.4 3.092-.782s2.694-.635 3.45-.76c.835-.115 1.434-.101 1.796.042.361.142.608.355.74.638.164.242.287.473.368.692.08.22.144.427.192.622.068.252.2.356.398.312.141-.05.22-.164.234-.344a1.53 1.53 0 00-.053-.541c-.048-.189-.13-.574-.244-1.157a37.148 37.148 0 01-.28-1.579c-.124-.693-.195-1.234-.212-1.623a6.587 6.587 0 00-.06-.762c-.071-.233-.183-.325-.335-.276-.071.024-.145.1-.22.229-.076.13-.166.288-.271.478-.16.268-.398.482-.717.643-.318.16-.727.328-1.224.504-.378.135-1.096.352-2.156.65-1.06.3-2.096.586-3.11.86-1.014.275-1.641.445-1.88.508-.117.031-.198.014-.243-.053a.999.999 0 01-.12-.32l-3.017-11.272a.806.806 0 01-.04-.342c.016-.083.07-.137.166-.162.217-.058.772-.2 1.665-.429a246.62 246.62 0 012.726-.677c.923-.224 1.539-.36 1.845-.407 1.172-.165 1.984-.209 2.436-.13.453.08.779.272.978.576.164.23.3.481.41.752.11.272.185.487.226.646.085.352.247.5.485.445a.342.342 0 00.21-.213.84.84 0 00.063-.33c-.032-.317-.11-.797-.236-1.44a52.35 52.35 0 01-.252-1.358c-.097-.59-.145-1.044-.142-1.36a3.72 3.72 0 00-.039-.683.756.756 0 00-.115-.257c-.05-.07-.111-.097-.185-.081a.778.778 0 00-.271.157 2.012 2.012 0 01-.262.195c-.171.076-.425.188-.76.334-.336.146-.711.29-1.126.432-.425.13-1.431.408-3.02.832-1.588.424-3.14.836-4.654 1.235l-2.573.677c-.193.047-.813.196-1.86.446-1.048.25-2.096.513-3.143.789-.242.064-.41.137-.503.22a.277.277 0 00-.088.304.366.366 0 00.176.195.365.365 0 00.257.055c.21-.055.463-.112.758-.17.295-.058.539-.1.732-.124.71-.091 1.23.016 1.557.322.326.306.598.806.813 1.5.193.534.449 1.374.767 2.521.318 1.147.892 3.275 1.722 6.383zM826.288 585.749a296.4 296.4 0 012.167 5.096c.611 1.481 1.04 2.66 1.287 3.536.176.618.28 1.138.308 1.559.03.42-.128.75-.474.988-.179.111-.372.238-.578.38a3.994 3.994 0 01-.594.347c-.112.054-.18.127-.201.217a.377.377 0 00.017.247c.105.221.368.236.79.045a71.732 71.732 0 002.37-1.106c.88-.429 1.415-.688 1.604-.776l1.798-.694a105.26 105.26 0 003.363-1.37c.229-.101.381-.204.458-.308.076-.104.093-.203.05-.297a.377.377 0 00-.167-.182c-.081-.046-.18-.047-.297-.002a10.55 10.55 0 01-.866.305c-.374.118-.73.222-1.07.31-.58.138-1.047.072-1.4-.2-.351-.27-.68-.685-.984-1.245-.427-.743-.967-1.846-1.622-3.31a377.229 377.229 0 01-2.249-5.142l-1.362-3.153c-.062-.136-.086-.24-.073-.313.014-.072.077-.132.191-.178l1.775-.775c.903-.394 1.827-.787 2.773-1.181.945-.394 1.622-.652 2.03-.776.666-.17 1.218-.216 1.654-.136.437.08.762.242.974.487.192.198.362.416.51.654.147.238.277.459.39.664a.561.561 0 00.162.232c.069.057.16.063.276.018.133-.069.193-.195.18-.38a1.7 1.7 0 00-.15-.568c-.079-.183-.23-.564-.453-1.145-.224-.581-.407-1.1-.55-1.558-.222-.669-.363-1.197-.422-1.585-.06-.388-.11-.64-.148-.755a.501.501 0 00-.146-.212c-.059-.046-.134-.05-.226-.012-.069.033-.13.108-.185.224a2.522 2.522 0 00-.144.413c-.083.304-.255.57-.515.8-.26.23-.622.468-1.086.717-.532.276-1.144.558-1.835.847l-5.545 2.45c-.133.057-.229.059-.286.007a.664.664 0 01-.152-.257l-4.646-10.758c-.07-.16-.093-.28-.068-.363.025-.083.096-.148.212-.195l6.717-2.791c.799-.325 1.486-.469 2.064-.43.577.038.983.167 1.22.387.23.215.438.446.622.694.184.249.314.459.39.63.062.14.141.239.237.296a.307.307 0 00.287.028.342.342 0 00.178-.242.839.839 0 00.013-.336 14.63 14.63 0 00-.466-1.38 35.498 35.498 0 01-.47-1.297 14.123 14.123 0 01-.322-1.333 3.777 3.777 0 00-.155-.662.51.51 0 00-.18-.225.265.265 0 00-.258-.026.632.632 0 00-.201.204 1.181 1.181 0 01-.256.269c-.161.147-.4.3-.715.46-.316.16-.669.334-1.06.526-.4.19-1.39.627-2.968 1.307-1.578.68-3.15 1.355-4.714 2.023l-2.89 1.236c-.18.074-.757.304-1.73.692-.973.389-1.955.795-2.947 1.218-.23.099-.386.196-.466.291a.277.277 0 00-.043.314.366.366 0 00.203.167.366.366 0 00.262.018c.2-.086.442-.179.725-.28.284-.1.519-.176.706-.228.69-.194 1.22-.163 1.587.091.368.255.71.71 1.024 1.367.268.5.643 1.294 1.125 2.382.481 1.089 1.359 3.11 2.632 6.064zM842.575 575.291c1.473 2.193 3.43 4.01 5.871 5.454 2.441 1.443 5.201 2.152 8.28 2.126 3.08-.027 6.312-1.148 9.698-3.365 4.42-3.153 7.021-6.997 7.805-11.53.784-4.534-.176-8.861-2.88-12.983-2.922-4.117-6.52-6.432-10.796-6.946-4.277-.513-8.542.644-12.796 3.472-3.334 2.356-5.575 5.006-6.722 7.951-1.147 2.945-1.513 5.826-1.1 8.643.414 2.816 1.294 5.21 2.64 7.178zm3.153-3.54c-2.565-3.905-3.534-7.477-2.908-10.715.627-3.238 2.505-5.917 5.635-8.037 3.007-2.026 6.312-2.66 9.916-1.902 3.605.758 6.903 3.242 9.895 7.45 2.234 3.429 3.357 6.41 3.369 8.945.012 2.534-.547 4.622-1.677 6.262-1.13 1.64-2.29 2.834-3.48 3.58-3.423 2.257-7.01 2.924-10.764 2.003-3.753-.922-7.082-3.45-9.986-7.587zM876.342 544.186a1667.607 1667.607 0 01-4.791-4.554 75.998 75.998 0 01-1.88-1.844c-.518-.538-.835-1.008-.952-1.409-.117-.401-.015-.855.308-1.361a4.988 4.988 0 01.691-.876.366.366 0 00.074-.252.367.367 0 00-.087-.248.277.277 0 00-.31-.068c-.117.043-.261.155-.433.338-.526.56-1.124 1.215-1.793 1.963-.669.748-1.067 1.191-1.193 1.33-.145.148-.569.57-1.271 1.267s-1.334 1.34-1.897 1.926c-.173.18-.277.33-.314.45a.277.277 0 00.084.306c.06.054.14.083.24.088.098.004.185-.03.26-.101a6.19 6.19 0 01.445-.414c.188-.161.389-.318.604-.471.393-.278.795-.37 1.207-.273.412.096.896.378 1.452.846.443.354 1.1.937 1.97 1.748.871.812 2.473 2.325 4.805 4.54l5.496 5.216a240.596 240.596 0 013.983 3.847c1.138 1.13 2 2.04 2.586 2.733.418.48.717.909.896 1.285.179.375.163.75-.047 1.122a8.092 8.092 0 01-.368.59c-.14.206-.282.386-.424.538-.082.095-.115.188-.1.28a.377.377 0 00.113.22c.183.162.431.072.744-.27a71.755 71.755 0 001.744-1.948c.641-.74 1.031-1.188 1.17-1.344l1.38-1.345c.803-.78 1.654-1.641 2.554-2.581.171-.183.271-.338.3-.464.03-.126.007-.223-.07-.293a.377.377 0 00-.225-.1c-.093-.012-.184.026-.274.114-.153.158-.378.365-.676.62-.298.256-.585.491-.861.706-.511.387-.975.519-1.392.394-.418-.124-.874-.386-1.37-.786-.72-.55-1.67-1.37-2.847-2.457a370.02 370.02 0 01-4.034-3.793z"/></g><path style="text-align:start;line-height:100%;-inkscape-font-specification:Trajan Pro" d="M128.576 595.148c-.722 2.47-1.002 4.484-.838 6.044.163 1.559.573 2.857 1.23 3.893.99 1.527 2.178 2.644 3.563 3.354 1.384.71 2.415 1.142 3.093 1.296 1.055.356 2.275.572 3.657.647 1.383.075 2.89-.228 4.524-.909 1.753-.841 3.126-2.122 4.12-3.842a23.497 23.497 0 002.294-5.451l1.108-3.673c.772-2.571 1.3-4.333 1.584-5.285.283-.952.511-1.648.685-2.089.196-.552.424-.955.683-1.208.26-.253.64-.356 1.14-.311.228.027.408.055.541.086a4.9 4.9 0 01.371.101c.084.02.161.01.231-.035a.308.308 0 00.137-.162.23.23 0 00-.066-.257c-.075-.071-.213-.137-.414-.196a59.725 59.725 0 00-1.808-.502c-.636-.166-1.037-.272-1.203-.318-.148-.049-.612-.203-1.39-.464a98.185 98.185 0 00-2.42-.774c-.2-.061-.35-.083-.453-.065a.231.231 0 00-.197.177.305.305 0 00.025.211.287.287 0 00.172.157c.174.053.378.124.613.212.235.089.426.166.574.234.544.253.86.567.949.941.089.375.052.835-.109 1.382a82.213 82.213 0 01-.579 2.12c-.271.956-.794 2.72-1.568 5.29l-1.303 4.319c-.512 1.765-1.117 3.303-1.816 4.615-.7 1.312-1.603 2.342-2.71 3.09-.845.549-1.815.895-2.911 1.037a8.008 8.008 0 01-3.309-.271c-1.001-.28-1.884-.669-2.647-1.168-.764-.499-1.458-1.26-2.08-2.284-.587-.875-.93-2.015-1.027-3.42-.097-1.404.215-3.326.936-5.766l1.45-4.803c.773-2.571 1.307-4.33 1.603-5.28.295-.948.53-1.642.705-2.082.198-.555.426-.963.683-1.225.258-.261.625-.363 1.1-.306.228.026.408.055.541.086.133.03.257.064.371.1a.356.356 0 00.251-.028c.082-.04.134-.093.158-.156.058-.195-.115-.35-.52-.465a91.406 91.406 0 00-2.081-.584c-.798-.215-1.31-.355-1.536-.42-.21-.066-.723-.236-1.542-.509-.818-.272-1.655-.54-2.51-.8-.2-.062-.351-.084-.454-.066a.231.231 0 00-.196.177.306.306 0 00.04.216.305.305 0 00.157.152c.174.053.378.124.613.212.235.089.426.167.573.234.543.253.861.567.954.943.094.376.069.84-.073 1.392-.097.463-.285 1.172-.564 2.125a697.93 697.93 0 01-1.583 5.285z" font-size="49.294" font-weight="400" font-family="Trajan Pro"/></svg>