<svg xmlns="http://www.w3.org/2000/svg" width="664.288" height="559.057" version="1.0"><path d="M517.649 112.706l-19.5-21.875c1.5-4-.403-6.881-6.625-5.5-6.222 1.38-21.75 19.875-14.375 19.75l7.5 7.625h33z" fill="#d8a46f" fill-rule="evenodd" stroke="#6b240a"/><path d="M506.024 100.33c-8.706 10.676-11.821 11.783-13.875 12.376" fill="none" stroke="#6b240a"/><path d="M46.704 483.815l.125-6.364c4.066-3.359 3.505-12.266-3.182-14.496-6.687-2.229-30.003-2.017-37.477 3.89-7.474 5.906-6.141 9.932-.53 18.384 5.692 8.575 3.535 31.467-.53 42.073 2.957 27.346 139.418 9.664 168.291 4.95.129 1.96-.56 5.322-3.712 12.905 8.07 19.16 70.694 9.354 90.387 5.515 20.033-3.905 39.012-7.396 63.54-8.385 24.53-.99 38.975 1.9 60.854 4.802 22.107 2.93 108.793 24.182 119.857-1.756l-1.414-11.313c119.5 19.25 149.499 7.816 154.606 2.535 4.368-4.516 4.562-10.383 1.31-17.385-3.25-7.001-1.12-25.116 1.415-31.466 2.51-6.287 6.042-18.04-1.603-22.213-7.719-4.213-32.39-.46-38.702 5.95-6.399 6.499-1.534 7.346.54 8.255l-.186 4.473c-18 3.25-80.608-3.636-97.581-8.486-16.973-4.849-68.376-12.343-83.053-7.639-15.95 5.112-12.578 11.636-8.832 15.021 3.927 3.548 5.876 10.818 5.16 14.914-33.874-4.375-62.332-10.844-104.006-11.239-41.674-.394-70.819 5.324-94.194 9.324 0 0 1.6-7.46 3.85-10.835 4.734-6.6 5.891-12.898-9.455-17.367-15.3-4.455-56.777-.201-89.802 8.506-32.784 8.643-95.676 7.447-95.676 7.447z" fill="#e00814" fill-rule="evenodd" stroke="#000" stroke-width="2"/><g fill-rule="evenodd"><path d="M2.016 472.325c-1.503 7.16 12.286 13.611 12.286 13.611-6.894-1.06-7.69.354-7.69.354-6.301-7.16-5.445-13.965-4.596-13.965zM48.508 470.027s-1.502 7.159-9.104 10.253c0 0 2.564-.354 7.071-.266 0 0 3.241-7.115 2.033-9.987z"/><path d="M46.122 482.754l-13.435-1.767V478.6c21.743-2.917 7.424-14.319 2.121-12.904 0 0 15.733 7.336-5.303 10.694v3.801c-23.42-3.911-20.646-8.557-6.276-13.877-1.22-3.266-47.149 10.792 22.738 18.451l.155-2.01zM168.083 489.156c-4.625 2.375.75 12.375.75 12.375 12.25 5.25 27.5 2.625 27.5 2.625s-15.375-1.625-17.125-2.875c0 0-.95-2.135 2.625-4 2.625-2 11.465-7.348 13.5-10.25.125-1-1.875-4.125-2.875-4.625l-2.75.5-21.625 6.25z"/><path d="M188.339 480.456l2.298 2.74c21.213 1.415 19.129 1.488 31.378 1.15 12.25-.34 20.053-13.155.265-14.938-19.526-1.76-30.67 1.326-30.67 1.326s17.955.131 30.228.795c12.36.669 10.775 10.076-.265 10.695-10.776.604-16.44-.265-33.234-1.768zM156.077 473.385c.353 2.74.276 6.742 3.8 8.574 3.595 1.868 5.657 4.596 6.541 6.806l1.591-.619c0-6.364-9.9-15.114-9.9-15.114l-2.032.353zM662.458 473.406s.125 6.875-10.625 12c0 0 7.375-.375 10-2 0 0 1.125-5.375.625-10zM508.458 487.656c-1.875 8.875-9 14.25-27.25 17 0 0 15.5 2 24.625-4.125 1.297-3.583 3.203-9.291 2.625-12.875zM428.583 475.406c0 9.125 23.625 11.125 23.625 11.125s-12.125 1.625-18.5-.5c-7.928-5.329-5.35-7.895-5.125-10.625z"/><path d="M481.583 480.531c-.75 3.125-17.375 5.375-17.375 5.375s2.5 1.5 12.375.875c0 0 3.25 8.375 12.5 11.5l9.25-2.375c6.25-7.5 8.625-13.625 10.25-15.375 2.821-1.875 4.25-2.25 4.375-5.625l-31.375 5.625zM620.833 482.656c8.125 0 17.375-1.5 17.375-1.5v-2.75s-8.973 1.425-13.875-2.75c-4.83-4.113 13.875-8.375 13.875-8.375s-17.347 7.14-6.5 8.125c1.375.125 9 0 9 0l.25 4.75c26.23-6.375 5.828-13.367-.846-13.037 27.75-1.125 16.433 11.674 10.72 13.662-5.638 1.963-18.124 5.125-35.624 4.875l5.625-3z"/><path d="M619.208 473.406c-2.5 6 6.375 6 6.375 6-4.5.375-4.5 1.75-4.5 1.75-6.5-4.375-1.875-7.75-1.875-7.75zM492.458 470.781c-5.5 6.375-17.45 9.28-24 9.875-4.125.375-18.875.125-22.375-.125-14.353-4.781-2.25-10 17-10.75 0 0-17.478-4.474-25.75 2.625-5 5.875.5 9.75 7.375 10.5 4.665.895 23.826.523 28.875 0 4.125-.5 7.25-1.5 11.75-2.625 2.376-3.165 5.146-5.767 7.125-9.5zM66.34 519.73c.068-3.372-.499-5.848-1.7-7.427-1.2-1.578-2.614-2.798-4.241-3.658-1.628-.86-3.05-1.897-4.264-3.113-1.215-1.215-1.803-3.146-1.764-5.792.131-2.092.685-3.577 1.662-4.457.977-.88 2.089-1.253 3.335-1.12 1.294.168 2.366.892 3.214 2.174.849 1.282 1.448 2.875 1.798 4.78l1.952-.495-.661-6.3a15.546 15.546 0 01-2.044-.887 14.724 14.724 0 00-1.923-.81 9.02 9.02 0 00-1.966-.427c-2.193-.201-4.157.568-5.89 2.307-1.732 1.739-2.713 4.42-2.944 8.044-.05 3.85.734 6.5 2.352 7.952a28.105 28.105 0 005.388 3.787c1.138.701 2.147 1.722 3.028 3.063.88 1.341 1.307 3.035 1.28 5.08-.136 2.225-.73 3.957-1.783 5.197-1.054 1.24-2.277 1.81-3.67 1.71-1.46-.177-2.669-.957-3.626-2.343-.957-1.385-1.615-3.17-1.975-5.356l-2.016.261.557 6.176a9.961 9.961 0 003.21 2.294c1.228.555 2.388.885 3.479.99 2.367.185 4.437-.75 6.21-2.805 1.772-2.054 2.773-4.996 3.003-8.825zM400.605 525.307c-.066-3.204-.762-5.523-2.089-6.957-1.326-1.435-2.864-2.517-4.61-3.247-1.748-.73-3.285-1.639-4.612-2.728-1.328-1.09-2.025-2.89-2.091-5.402.053-1.992.576-3.43 1.568-4.317.992-.886 2.147-1.299 3.464-1.238 1.368.09 2.524.72 3.47 1.892.944 1.172 1.639 2.652 2.084 4.441l2.034-.574-.952-5.942a17.234 17.234 0 01-2.185-.733 16.36 16.36 0 00-2.056-.667 10.359 10.359 0 00-2.086-.302c-2.316-.075-4.35.759-6.102 2.5-1.753 1.741-2.677 4.337-2.772 7.787.103 3.655 1.035 6.129 2.795 7.421a29.527 29.527 0 005.822 3.308c1.226.605 2.33 1.52 3.31 2.747.98 1.225 1.498 2.81 1.552 4.752-.052 2.117-.607 3.792-1.665 5.025-1.058 1.232-2.322 1.837-3.79 1.814-1.545-.09-2.848-.766-3.91-2.03-1.064-1.264-1.829-2.923-2.296-4.977l-2.11.354.836 5.83a10.436 10.436 0 003.47 2.007c1.314.461 2.548.713 3.7.756 2.498.05 4.638-.947 6.42-2.99 1.781-2.042 2.715-4.886 2.801-8.53zM638.718 521.346c-.16-3.134-1.008-5.356-2.542-6.664a14.273 14.273 0 00-5.285-2.845c-1.989-.588-3.746-1.367-5.271-2.337-1.525-.97-2.36-2.685-2.502-5.142.007-1.956.557-3.404 1.652-4.345 1.094-.94 2.384-1.43 3.87-1.466 1.544-.011 2.865.522 3.961 1.601 1.097 1.079 1.92 2.479 2.47 4.2l2.277-.71-1.233-5.755a20.962 20.962 0 01-2.483-.558 19.96 19.96 0 00-2.335-.504 13.193 13.193 0 00-2.36-.144c-2.611.096-4.882 1.061-6.81 2.896-1.928 1.834-2.9 4.446-2.914 7.833.214 3.575 1.331 5.93 3.35 7.069 2.02 1.138 4.237 2.077 6.651 2.817 1.398.503 2.667 1.32 3.805 2.45 1.138 1.13 1.764 2.644 1.878 4.544-.002 2.078-.583 3.76-1.742 5.045-1.16 1.285-2.567 1.97-4.224 2.055-1.742.025-3.23-.543-4.461-1.704-1.233-1.16-2.14-2.73-2.722-4.71l-2.369.501 1.1 5.652c1.149.786 2.47 1.357 3.964 1.714 1.495.356 2.892.513 4.192.47 2.817-.133 5.202-1.266 7.155-3.398 1.953-2.132 2.929-4.987 2.928-8.565zM90.206 498.874l-1.06-6.183c-1.767.089-3.53.18-5.286.276-1.757.095-3.52.173-5.288.235-1.773.054-3.55.092-5.334.114-1.784.02-3.562.045-5.335.073l-.71 6.24 1.189.289c.323-1.574.96-2.709 1.908-3.404.95-.694 2.03-1.052 3.24-1.074l2.74-.09.171.103.307 10.926.307 10.926c.015.465.044 1.503.085 3.114.042 1.612.064 3.187.066 4.727.002 1.54-.048 2.435-.151 2.686-.272.373-.597.61-.977.707-.38.098-.763.158-1.15.18l.12 1.251a63.601 63.601 0 019.104-.299l.05-1.256a5.563 5.563 0 01-1.18-.111c-.381-.078-.727-.308-1.037-.689-.118-.27-.225-1.246-.32-2.928a229.9 229.9 0 01-.233-5.186c-.06-1.775-.097-2.936-.11-3.482l-.582-20.707.166-.114 2.824-.093c1.188-.054 2.266.24 3.236.882.97.642 1.66 1.726 2.07 3.253l1.17-.366zM123.14 496.314l-1.187-6.22c-1.6.161-3.194.325-4.784.491-1.59.167-3.185.317-4.787.45-1.605.126-3.216.235-4.832.328-1.617.092-3.229.188-4.836.287l-.416 6.348 1.09.245c.235-1.607.77-2.782 1.606-3.523a4.709 4.709 0 012.898-1.218l2.481-.2.16.098.678 11.052.678 11.052c.031.47.095 1.52.192 3.15.096 1.63.174 3.225.232 4.784.059 1.56.046 2.468-.039 2.726-.232.39-.519.64-.86.755-.34.114-.686.19-1.036.23l.155 1.26a51.899 51.899 0 018.245-.666l-.001-1.274a4.498 4.498 0 01-1.074-.065c-.348-.064-.67-.283-.965-.656-.117-.269-.25-1.253-.397-2.953-.148-1.7-.282-3.448-.402-5.243-.12-1.794-.195-2.968-.227-3.52l-1.285-20.947.146-.122 2.557-.207a4.404 4.404 0 012.967.764c.903.612 1.568 1.682 1.995 3.211l1.049-.417zM355.333 500.272l-.858-6.308c-1.716.031-3.426.066-5.13.104-1.705.038-3.415.058-5.13.062a254.875 254.875 0 01-5.171-.062c-1.729-.038-3.453-.073-5.171-.104l-.859 6.308 1.145.332c.356-1.586 1.003-2.716 1.942-3.39.938-.673 1.994-1 3.168-.982h2.656l.164.111a2051323.168 2051323.168 0 00-.002 25.35 207.945 207.945 0 01-.065 4.798c-.04 1.562-.113 2.469-.22 2.72-.273.37-.595.598-.965.684-.37.087-.744.135-1.12.146l.082 1.272a58.846 58.846 0 018.83 0l.082-1.272a5.142 5.142 0 01-1.14-.153c-.367-.092-.696-.336-.986-.733-.107-.277-.184-1.271-.23-2.982-.047-1.71-.075-3.466-.085-5.268-.01-1.803-.014-2.981-.012-3.536v-21.026l.163-.11h2.74a4.983 4.983 0 013.11 1.002c.923.684 1.562 1.807 1.917 3.369l1.144-.332zM102.13 527.67a6.928 6.928 0 01-1.218-.087 1.693 1.693 0 01-1.068-.629c-.154-.317-.284-1.305-.39-2.964a170.698 170.698 0 01-.248-5.088c-.06-1.734-.096-2.872-.109-3.415l-.147-4.44a820.501 820.501 0 01-.201-7.046 258.59 258.59 0 01-.09-6.64c.004-1.895.067-2.97.19-3.223a1.91 1.91 0 011.045-.679 7.464 7.464 0 011.193-.192l-.127-1.253a70.199 70.199 0 01-9.576.441l-.05 1.263c.392-.007.805.02 1.24.08.433.06.796.252 1.088.579.124.26.235 1.166.332 2.717.098 1.551.177 3.14.237 4.766.06 1.627.096 2.682.109 3.166l.332 10.939c.017.507.046 1.614.087 3.32.041 1.707.061 3.379.06 5.014 0 1.636-.055 2.6-.162 2.895-.27.378-.62.62-1.05.726-.428.105-.838.172-1.23.2l.126 1.254a66.428 66.428 0 014.695-.38 71.985 71.985 0 014.882-.062l.05-1.262zM135.218 524.618c-.361.027-.737.019-1.129-.026s-.73-.236-1.014-.574c-.157-.309-.322-1.288-.495-2.939-.173-1.65-.326-3.34-.459-5.068a480.17 480.17 0 01-.254-3.404l-.336-4.425c-.164-2.158-.332-4.5-.504-7.024a279.116 279.116 0 01-.382-6.625c-.083-1.892-.073-2.968.03-3.228.25-.367.562-.61.934-.73.372-.119.736-.203 1.093-.252l-.174-1.245a60.316 60.316 0 01-8.823.925l.01 1.263c.363-.027.746-.021 1.15.017.402.038.746.212 1.03.523.127.254.27 1.152.43 2.696.16 1.544.305 3.127.434 4.747s.21 2.672.243 3.155l.8 10.904c.04.506.116 1.61.231 3.311.115 1.702.209 3.37.282 5.003.073 1.633.066 2.599-.02 2.898-.232.392-.544.65-.935.778a6.414 6.414 0 01-1.128.262l.173 1.246a57.184 57.184 0 014.318-.618 61.718 61.718 0 014.505-.308l-.01-1.262zM309.48 531.108c-.33.01-.674-.015-1.03-.077-.357-.063-.662-.267-.914-.615-.137-.313-.266-1.291-.388-2.933a198.784 198.784 0 01-.31-5.04 514.43 514.43 0 01-.16-3.383l-.211-4.397a953.275 953.275 0 01-.309-6.98c-.102-2.508-.171-4.7-.206-6.578-.035-1.877-.003-2.942.096-3.195.237-.352.527-.578.869-.68.342-.1.676-.167 1.003-.199l-.132-1.24a50.492 50.492 0 01-8.074.51l-.017 1.25c.331-.01.68.014 1.048.07.367.056.677.245.93.566.11.257.221 1.153.334 2.69.113 1.536.21 3.11.294 4.72.083 1.61.134 2.656.154 3.136l.496 10.835c.025.502.072 1.598.14 3.29.068 1.69.118 3.346.15 4.966.031 1.62.004 2.577-.08 2.869-.221.377-.512.62-.871.727-.36.108-.705.177-1.036.208l.132 1.242a47.805 47.805 0 013.955-.413 51.567 51.567 0 014.119-.098l.017-1.25zM559.83 528.639a5.964 5.964 0 01-1.073-.28c-.368-.13-.664-.39-.889-.777-.106-.332-.127-1.308-.06-2.928.065-1.62.155-3.273.27-4.958.114-1.685.192-2.791.233-3.318l.297-4.316c.145-2.104.312-4.385.501-6.842.19-2.458.376-4.602.562-6.433.185-1.831.345-2.86.479-3.085.29-.296.622-.459.994-.49.372-.03.731-.028 1.079.006l.008-1.232a57.998 57.998 0 01-8.553-1.102l-.167 1.211c.35.057.715.148 1.094.275.38.128.684.372.912.735.085.27.096 1.164.033 2.68a196.579 196.579 0 01-.25 4.644 391.117 391.117 0 01-.208 3.077l-.76 10.627c-.034.493-.114 1.568-.243 3.224a216.144 216.144 0 01-.43 4.856c-.159 1.581-.3 2.505-.424 2.772-.277.323-.61.5-1.002.534a6.009 6.009 0 01-1.114-.003l-.008 1.232a54.842 54.842 0 014.209.382 60.302 60.302 0 014.344.72l.167-1.211zM163.503 519.507a6.55 6.55 0 01-1.398-.096c-.5-.085-.88-.394-1.145-.928l-13.849-32.121-1.439.262-7.377 35.928c-.166.641-.484 1.101-.956 1.378a5.352 5.352 0 01-1.371.587l.203 1.23a33.843 33.843 0 014.824-1.002c.53-.069 1.067-.125 1.61-.169l-.043-1.259c-.38.036-.796 0-1.247-.11-.45-.11-.724-.461-.822-1.055-.009-.373.124-1.288.398-2.747.274-1.458.57-2.954.885-4.487.316-1.533.534-2.599.652-3.197l9.91-1.803c.215.493.627 1.46 1.24 2.898a328.472 328.472 0 011.757 4.21c.56 1.369.868 2.194.926 2.477.011.552-.2.942-.632 1.169a5.918 5.918 0 01-1.158.479l.244 1.222a67.266 67.266 0 014.5-.984 58.805 58.805 0 014.332-.623l-.044-1.259zm-11.978-11.644l-.07.123-8.512 1.549-.05-.101 2.834-14.89.12-.022 5.678 13.341zM381.882 533.904a7.935 7.935 0 01-1.444-.528c-.507-.238-.851-.662-1.032-1.271l-8.751-36.048-1.55-.186-14.118 33.253c-.288.584-.704.94-1.246 1.068a5.478 5.478 0 01-1.538.157l-.007 1.279a37.15 37.15 0 016.935.83l.18-1.258a4.6 4.6 0 01-1.285-.494c-.451-.248-.675-.68-.67-1.298.057-.371.359-1.236.905-2.593a227.354 227.354 0 011.725-4.165c.604-1.419 1.021-2.405 1.251-2.96l10.683 1.28c.135.554.395 1.636.778 3.248.383 1.612.745 3.181 1.087 4.708.34 1.526.516 2.438.526 2.736-.087.55-.376.87-.869.96-.493.09-.925.129-1.296.116l.037 1.284a73.668 73.668 0 014.88.418c1.55.185 3.097.426 4.64.722l.178-1.258zm-10.447-15.218l-.094.1-9.175-1.1-.035-.115 5.618-13.85.129.016 3.557 14.949zM296.734 507.761c-.272-3.466-1.2-5.926-2.783-7.379-1.585-1.452-3.516-2.044-5.794-1.774-1.15.133-2.293.287-3.43.461-1.137.175-2.28.328-3.43.462-1.343.148-2.69.24-4.04.278l.002 1.283c.355-.028.715-.02 1.079.02.364.042.686.22.966.536.117.246.249 1.194.396 2.845.148 1.65.281 3.342.4 5.076.118 1.735.192 2.85.222 3.348l.665 10.584c.035.515.102 1.645.202 3.39.1 1.743.18 3.446.241 5.108.06 1.661.049 2.626-.035 2.895-.235.399-.53.661-.883.787a5.361 5.361 0 01-1.061.264l.157 1.266a52.913 52.913 0 018.29-.914l-.002-1.283a4.896 4.896 0 01-1.06-.03c-.353-.048-.67-.243-.95-.585-.13-.27-.269-1.168-.414-2.693a184.518 184.518 0 01-.385-4.692 371.674 371.674 0 01-.212-3.16l-1.073-17.067c-.034-.448-.086-1.296-.155-2.542-.07-1.247-.07-2.03.002-2.35.23-.427.634-.716 1.211-.867.577-.15 1.051-.238 1.423-.261l.615-.068c1.9-.114 3.293.644 4.181 2.273.889 1.63 1.4 3.712 1.533 6.248.157 2.335-.113 4.34-.81 6.017-.696 1.676-1.901 2.641-3.615 2.895-.684.085-3.607.029-4.27-.168l-.245 2.617 4.717.151c2.528.081 4.534-1.818 6.156-3.984 1.622-2.166 2.352-5.162 2.189-8.987zM330.938 525.334l-1.138-.322c-.191.42-.4.83-.623 1.23-.224.4-.475.772-.753 1.114-.796.86-1.825 1.371-3.089 1.536a28.17 28.17 0 01-3.478.255 8.232 8.232 0 01-1.717-.043c-.634-.076-1.143-.35-1.525-.825-.117-.213-.216-.787-.296-1.723a72.126 72.126 0 01-.19-2.872c-.044-.98-.072-1.641-.082-1.986a624.93 624.93 0 01-.136-4.41c-.04-1.476-.086-2.946-.136-4.408l.077-.167c1.333-.069.544-.117 1.878-.145a79.09 79.09 0 014.004.016l1.671-2.25-.744-.993c-.476.368-1 .627-1.573.777a7.756 7.756 0 01-1.685.253l-3.624.287-.089-.158c-.04-1.138-.08-2.283-.122-3.435l-.122-3.434c-.025-.523-.054-1.438-.087-2.746-.033-1.307.004-2.144.109-2.51.353-.611.893-.983 1.618-1.118.725-.134 1.38-.2 1.963-.2.894-.083 1.926-.084 3.097-.006 1.17.08 2.113.489 2.827 1.227.236.29.442.612.618.965.176.354.342.718.498 1.093l1.107-.543-1.024-5.313a380.569 380.569 0 01-11.15.72 127.55 127.55 0 01-6.46.16l-.038 1.247c.408.013.814.062 1.22.15.405.086.746.343 1.023.768.105.266.203 1.103.294 2.512.092 1.408.168 2.845.23 4.309.06 1.464.098 2.413.111 2.846l.42 11.79c.018.48.052 1.523.1 3.132.048 1.609.08 3.183.092 4.721.014 1.539-.023 2.442-.109 2.709-.264.427-.592.699-.982.814-.39.116-.788.187-1.191.215l.127 1.24c1.125-.084 2.255-.165 3.39-.244 1.136-.078 2.266-.145 3.392-.203a832.63 832.63 0 0111.619-.472l.678-5.56zM614.55 527.323l-1.117-.379c-.217.397-.449.783-.696 1.159-.247.376-.52.722-.817 1.038-.846.789-1.904 1.226-3.175 1.313a28.936 28.936 0 01-3.487.047 8.458 8.458 0 01-1.711-.14c-.63-.11-1.12-.407-1.474-.89-.104-.213-.169-.777-.194-1.69a68.302 68.302 0 01-.017-2.8c.013-.953.024-1.598.035-1.933.036-1.423.078-2.853.125-4.29.048-1.435.09-2.865.126-4.288l.088-.157c1.334.01.55-.083 1.882-.033 1.333.05 2.665.132 3.996.247l1.803-2.089-.684-1.006c-.498.33-1.036.55-1.617.663a7.968 7.968 0 01-1.697.148l-3.634.07-.08-.159a48392.3 48392.3 0 01.164-6.684c.006-.508.03-1.399.076-2.67.045-1.272.13-2.083.258-2.433.389-.572.95-.902 1.681-.99a11.043 11.043 0 011.972-.081c.897-.03 1.927.028 3.091.173 1.164.145 2.08.596 2.75 1.355.218.294.405.619.56.972.154.353.298.717.431 1.09l1.137-.464-.705-5.217a392.635 392.635 0 01-11.175.054 131.083 131.083 0 01-6.456-.217l-.113 1.21c.406.035.809.107 1.208.215.4.108.725.376.976.805.09.264.137 1.083.145 2.456.008 1.373 0 2.772-.027 4.197a343.652 343.652 0 01-.057 2.77l-.281 11.473c-.01.466-.038 1.481-.086 3.046-.047 1.565-.11 3.095-.188 4.59-.078 1.495-.168 2.37-.27 2.624-.29.4-.632.644-1.029.734-.396.09-.797.136-1.202.14l.054 1.211c1.128-.017 2.26-.03 3.399-.04 1.138-.011 2.27-.012 3.398-.003 3.876.045 7.751.116 11.626.213l1.007-5.36zM547.008 496.986l-.29-5.27a264.593 264.593 0 01-9.062-1.334l-1.85-.305c-2.186-.36-4.346-.769-6.48-1.226l-.206 1.18c.363.07.74.177 1.133.318.392.142.702.395.93.76.082.27.07 1.145-.036 2.626a180.83 180.83 0 01-.383 4.538c-.15 1.544-.249 2.546-.299 3.005l-1.068 10.322c-.047.482-.16 1.535-.339 3.16a200.522 200.522 0 01-.58 4.762c-.207 1.55-.38 2.452-.515 2.709-.297.304-.65.463-1.058.478a6.65 6.65 0 01-1.16-.052l-.042 1.206a61.03 61.03 0 014.333.555c1.522.251 3.037.553 4.548.908l.206-1.18a6.621 6.621 0 01-1.112-.321c-.38-.145-.681-.413-.905-.802-.104-.31-.103-1.237.004-2.78.107-1.543.241-3.12.401-4.73.16-1.61.27-2.672.325-3.184l.223-2.153.223-2.152.103-.194c1.316.214.862.448 2.174.702 1.312.253 2.62.539 3.926.857l1.905-1.849-.56-1.042c-.467.258-1.004.396-1.612.414a8.188 8.188 0 01-1.682-.112l-3.947-.941-.066-.17.821-7.936c.043-.486.133-1.304.27-2.454.137-1.15.292-1.892.465-2.225.41-.436.988-.64 1.736-.61.748.028 1.382.097 1.902.207.869.108 1.868.316 2.998.625 1.13.31 1.99.864 2.578 1.665.214.33.39.693.53 1.09.139.396.259.802.36 1.219l1.158-.284zM591.49 516.873c-.402 5.376-1.796 9.38-4.185 12.008-2.388 2.63-5.61 3.71-9.667 3.241a166.48 166.48 0 01-4.426-.626 165.97 165.97 0 00-4.426-.627 48.47 48.47 0 00-3.942-.326l.006-1.234c.38.056.737.055 1.073-.002.336-.057.664-.222.985-.495.134-.22.281-1.154.442-2.8.16-1.647.304-3.34.431-5.08.127-1.74.206-2.86.239-3.361l.318-4.363c.155-2.121.313-4.416.476-6.884.162-2.468.282-4.617.361-6.445.08-1.829.07-2.844-.024-3.047-.278-.347-.577-.59-.9-.728a3.554 3.554 0 00-1.053-.264l.166-1.214a50.68 50.68 0 003.999.655c1.142.134 2.28.247 3.415.34 1.134.094 2.272.207 3.414.342 4.697.59 8.192 2.65 10.484 6.178 2.291 3.528 3.23 8.438 2.814 14.731zm-4.511-2.007c.396-4.886-.103-8.817-1.5-11.791-1.395-2.974-4.03-4.726-7.903-5.256l-1.083-.134a7.135 7.135 0 00-1.502-.071c-.554.026-1.01.236-1.369.63-.12.21-.24.824-.357 1.844a88.86 88.86 0 00-.303 3.127 177.62 177.62 0 00-.16 2.119l-.3 4.153c-.164 2.293-.342 4.87-.534 7.733a563.47 563.47 0 00-.463 7.57c-.116 2.184-.144 3.407-.082 3.667.292.499.766.84 1.42 1.02.653.182 1.214.291 1.68.329a3134.886 3134.886 0 011.123.139c3.697.33 6.44-.958 8.23-3.862s2.824-6.643 3.103-11.217zM49.549 494.213l-.036-1.274a15.334 15.334 0 01-2.215.067 18.318 18.318 0 01-2.468-.277l-.079 1.269c.276.02.542.071.799.153s.484.311.682.688c.08.32.114 1.722.105 4.205a656.47 656.47 0 01-.075 7.638c-.04 2.61-.067 4.268-.08 4.971l-.111 6.634c-.042 2.985-.457 5.387-1.245 7.205-.788 1.817-1.924 2.987-3.607 2.7-1.658-.282-1.696-.63-2.49-1.752-.793-1.121-1.34-2.82-1.64-5.094a35.267 35.267 0 01-.221-3.924 150.57 150.57 0 01.038-3.995l.113-6.8c.007-.542.028-1.753.064-3.633.036-1.88.086-3.712.152-5.498s.148-2.81.247-3.073c.21-.31.443-.504.7-.584.256-.08.515-.12.778-.124l-.037-1.274c-.517.008-1.535.02-2.053.034-.517.015-1.035.012-1.552-.007a29.343 29.343 0 01-3.1-.305l-.079 1.269c.276.022.542.083.799.18.256.099.483.337.681.716.08.296.118 1.514.114 3.656a488.607 488.607 0 01-.057 6.599c-.034 2.257-.058 3.707-.07 4.349-.123 3.876-.155 7.396-.095 10.56.06 3.163.567 5.707 1.52 7.632.953 1.925 2.707 2.968 5.263 3.13 2.29.09 4.043-.982 5.26-3.215 1.218-2.233 1.867-5.553 1.946-9.96l.067-4.317c.035-2.23.079-4.689.131-7.374.053-2.685.111-5.032.175-7.04.064-2.009.129-3.114.196-3.316.221-.338.455-.558.7-.66.247-.101.507-.154.78-.158zM30.69 493.07l-.07-.997c-1.635.05-3.269.057-4.902.02-1.633-.036-8.004-1.302-9.635-1.425l-.112.992c.414.019.821.064 1.222.136.402.072 5.5 1.433 5.818 1.709.13.191.207.85.234 1.975a85.4 85.4 0 01.01 3.46 230.98 230.98 0 01-.045 2.315l-.183 8.694a438.196 438.196 0 01-.21 7.74l-.074 2.438c-.025.821-.14 1.621-.345 2.4-.209.785-.553 1.405-1.032 1.86-.48.454-1.167.676-2.062.667-.797-.025-1.99-.232-2.87-1.083-.88-.85-1.611-3.11-.088-5.37l-3.075 2.01s-.216 2.595 2.275 4.94c2.491 2.346 6.28 1.113 8.43-.658 2.15-1.77 3.305-4.08 3.465-6.927l.24-11.376c.007-.587.03-1.878.067-3.874.037-1.995.103-3.939.199-5.832.095-1.893.234-2.98.417-3.26a2.245 2.245 0 011.116-.473 9.388 9.388 0 011.21-.081z"/></g><path d="M155.958 111.156l19.5-21.875c-1.5-4 .403-6.88 6.625-5.5 6.222 1.381 23.937 20.5 14.187 19.875l-7.312 7.5h-33z" fill="#d8a46f" fill-rule="evenodd" stroke="#6b240a"/><path d="M636.733 155.099c1.68 3.889 3.359 5.126 5.568 7.07l9.104-3.711-1.326-9.37-13.346 6.01zM31.007 148.646c.53 3.978-4.154 8.84-4.154 8.84l-9.723-2.83s3.978-12.639 4.331-12.55c.354.088 9.51 6.263 9.546 6.54z" fill="#ee7b39" fill-rule="evenodd" stroke="#5e0c01"/><g fill="#e00814" fill-rule="evenodd" stroke="#ac1522"><path d="M487.831 89.738c-1.298-7.647-9.4-18.93-19.445-21.213 1.827 9.304 9.607 18.507 19.445 21.213z"/><path d="M480.937 95.749c-1.298-7.647-9.4-18.931-19.446-21.213 1.828 9.304 9.607 18.507 19.446 21.213zM490.836 87.617c-1.298-7.647-9.4-18.931-19.445-21.213 1.827 9.304 9.607 18.507 19.445 21.213z"/><path d="M478.462 98.224c-1.298-7.647-9.4-18.932-19.445-21.213 1.827 9.303 9.607 18.507 19.445 21.213z"/><path d="M484.472 92.92c-1.298-7.647-9.4-18.93-19.445-21.213 1.827 9.304 9.607 18.507 19.445 21.213zM185.775 88.189c1.299-7.647 9.4-18.932 19.446-21.213-1.827 9.304-9.607 18.507-19.446 21.213z"/><path d="M192.67 94.2c1.298-7.648 9.4-18.932 19.445-21.214-1.827 9.304-9.607 18.507-19.445 21.213z"/><path d="M189.134 91.37c1.298-7.646 9.4-18.93 19.446-21.212-1.828 9.304-9.607 18.507-19.446 21.213z"/><path d="M195.145 96.674c1.298-7.647 9.4-18.931 19.445-21.213-1.827 9.304-9.607 18.507-19.445 21.213zM182.77 86.068c1.298-7.648 9.4-18.932 19.446-21.214-1.828 9.304-9.607 18.507-19.446 21.214zM112.958 35.406l-8.375-4.875c-2.5-12.25 9.25-28 9.25-28s5.375 16.625-.875 32.875z"/><path d="M97.387 38.691c-1.29-23.824 9.9-37.476 9.9-37.476s3.814 30.12-1.061 39.244l-8.839-1.768zM138.333 54.031c4.75-6.125 2.125-27.625 2.125-27.625s-12.875 10.125-12.125 22.375l10 5.25z"/><path d="M132.958 50.781c5.375-5.5 2.625-31.125 2.625-31.125s-14.25 15.75-13.375 24.375l10.75 6.75z"/><path d="M118.083 42.031l9 6.5c6.25-8.375 3.125-35.75 3.125-35.75s-12.625 15.625-12.125 29.25z"/><path d="M110.458 37.531l8.75 3.5c5.625-11.625 3.375-32.5 3.375-32.5s-11.625 9.625-12.125 29zM90.13 35.36c-11-2.576 8.43 1.336 10.745 1.561 3.875-10.5-2.167-32.39-2.167-32.39s-10.704 19.33-8.579 30.83z"/><path d="M87.333 47.031l6.625-4.5c1.125-8.75-4.625-28-4.625-28s-9.875 14-2 32.5z"/><path d="M91.083 37.906l6.5.5c3.875-12.375-5.375-31.375-5.375-31.375s-5.75 20-1.125 30.875zM536.147 63.794c-8.309-5.304-6.364-21.567-6.364-21.567s8.485 6.717 9.192 17.324l-2.828 4.243z"/><path d="M537.561 59.551c-5.834-4.066-6.364-24.749-6.364-24.749s10.607 7.071 12.728 20.153l-6.364 4.596z"/><path d="M544.279 54.955c-8.84.53-11.314-30.052-11.314-30.052s23.158 19.976 18.385 27.223l-7.071 2.829z"/><path d="M549.228 51.773c-14.142-12.551-10.43-37.654-10.43-37.654s21.92 27.047 19.976 35.533l-9.546 2.12z"/><path d="M556.476 49.298c-8.132-2.475-9.015-40.128-9.015-40.128s18.738 20.152 18.384 39.774l-9.369.354zM578.396 45.762l4.95.884c4.243-10.076-5.657-37.653-5.657-37.653s-5.656 30.052.707 36.77z"/><path d="M574.33 46.293h5.127c6.01-9.016-8.662-40.836-8.662-40.836s-3.712 36.947 3.536 40.836z"/><path d="M568.32 45.055l6.01-1.414c5.304-4.773-9.899-38.89-9.899-38.89s-4.596 30.758 3.89 40.304z"/><path d="M564.078 47.353s4.972-1.135 5.48-2.828c3.535-5.834-13.082-38.36-13.082-38.36s-4.596 33.94 7.602 41.188z"/></g><path d="M517.583 113.656s6.25-1 6.75-3.25c-.894-6.834 7.25-12 7.25-12-3.5-15.25 3.304-23.918 2.75-24.75-1-1.5.75-9 .75-9-3.75-3.25-5.5-11.25-5.5-11.25 2.5 0 5.312 2.875 5.312 2.875.25-3 8.375-5.75 8.375-5.75-4.125-4.437-5.687-14.125-5.687-14.125-.188-.687.5-.875 1 0 0 0 1.875 8.125 5.937 13.5 2.568-.656 3.869-1.635 4.938-2.625-4.938-6.5-4.375-13.375-4.375-13.375s4.625 8.313 6.25 12.625c1.807-.901 4.045-1.456 4.625-3.125-2.25-3.25-2.875-15.25-2.875-15.25s4.812 12.5 4.937 14.313c1.986-.403 3.43-1.515 4.938-2.875-2.5-4.813-2.875-12.688-2.875-12.688s4.875 8.125 4.875 11.938c1.874-.126 3.432-.443 4.812-1.938-.75-2.75-3.562-10.312-3.562-10.312s2.937 2.312 5.25 10.125c1.614-.278 2.95 1.436 4.25.375 0-3.5-2.938-12.125-2.938-12.125s7.25 5.562 7.75 12.375c0 0 .375-3.438 1.563-5.25 0 0 1.125 2.187.812 10.312l1.813-.125c.562 3.188-1.375 8.063-1.375 8.063 3.562 2.937 5.046 10.102 4.982 13.355-.064 3.254.904 5.104-1.107 7.707-1.063 1.375-50.375 45.25-52.375 45.25s-15.5-3.25-17.25-3zM83.868 63.285c-2.5-2.5-1.599-6.675-.821-7.81.812-1.188 3.296-6.745 3.733-9.182.383-3.085 6.91-2.224 2.725-12.042-1.312-1.188 5.23-4.045 5.23-4.045 2.125-.562 1.61 4.545 1.61 4.545 2.374 2 5.154.468 5.108.582.625-2.25.884-7.56.884-7.56.125-2.376 2.548-1.231 2.298 1.019l-.354 4.42c.25 3.25 3.723 2.29 3.91.103 0 0 .635-6.105.76-8.543 3.52-1.197 7.518-.181 9.524 3.143-.5 1.813.713 4.398-1.6 6.836.237.196 4.273 3.182 4.273 3.182-.875 2.187 1.07 2.035 1.07 2.035 1.25-1.625 2.737-7.976 2.737-7.976 1.5-.125 2.381.098 2.327 1.894 0 .938-1.887 6.184-2.007 8.371-.145 2.624.987 3.234 1.987 3.859 1.422.889 1.264.873 2.39.873.874 0 1.645-1.54 2.383-5.823.313-1.375 1.356-2.953 2.23-2.516 2.667 1.271.068 8.703.068 8.703.125.813 2.829 1.415 2.829 1.415-.25 2-1.768 3.358-1.768 3.358l4.69-.254c-1.686 4.6-4.082 6.364-6.104 9.624 3.625 1.687 3.298 4.146 3.298 6.02 0 2.689-.793 3.48.457 4.918 2.242 2.579 1.61 8.146 1.548 12.396-.037 6 1.246 7.266 2.434 8.828 5.628 6.78 3.223 15.567 3.223 15.567l-12.198-3.182-48.874-42.758z" fill="#461d2f" fill-rule="evenodd"/><path d="M336.243 369.392V99.514c126.878 1.724 197.63 146.074 157.716 265.105-53.042 10.144-106.004 13.256-157.716 4.773z" fill="#e6e6e6" fill-rule="evenodd" stroke="#000"/><path d="M94.382 97.558s.734 8.2-3.89 11.667c-4.623 3.468-3.888 12.905-3.888 12.905l16.617-7.248-1.591-15.556-7.248-1.768z" fill="#461d2f" fill-rule="evenodd"/><path d="M358.849 129.89c45 14.625 51.226 72.28 51.226 72.28-.5-33.75 23.895-49.799 23.895-49.799-2.467 4.85-5.216 8.648 5.303 4.407-2.973 2.902-6.924 6.207 1.06 4.596-5.325 5.49-6.11 7.908-1.767 10.253 2.5 1.5-10.253 12.021-10.253 12.021.5 1.5 7.778 1.768 7.778 1.768-.5 2.5-11.046 9.339-11.046 9.339 43.125-11.5 52.205 23.938 52.205 23.938-4.081-2.276-14.085-20.057-8.632.31-3.567-2.605-8.979-11.483-9.546-3.888-1.892-.49-2.345-5.774-6.01-.354-1.988-.302-3.424-11.087-6.01 0-5.665-10.693-7.045-6.387-7.425 1.414-1.94-1.332-2.89-14.034-6.01-1.768l-6.011-2.828c-1.179-6.27-2.357-3.164-3.536-.354 0 0 45.42 4.583 45.794 59.833-2.415-4.54-3.279-11.838-6.903-10.335-4.04-14.02-6.423-12.575-8.485-8.132-1.255-4.13-1.305-11.878-5.657-6.717-.972-8.041-2.622-5.917-4.242-4.243-1.297-9.345-3.092-11.837-3.89-2.121-1.75 7.75-4.192-12.175-9.192-7.425-1.24-4.517-2.742-6.672-5.303.707-.93-3.932-2.688-4.97-4.95-4.242-1.842-2.066-3.027-1.5-3.536 1.767 0 0 1.768 5.427 1.768 8.84 0 3.411-2.732 5.693-1.121 9.302 1.61 3.61.768 4.486.768 4.486l-7.778-3.536c-2 0-4.597-6.01-4.597-6.01s-1.03 3.92-2.121 6.01c-3 5.75-1.768 15.203-1.768 15.203-6.347-6.567-5.558-1.86-4.657 6.071-6.875-23.125 5.782-44.233 5.782-44.233l-2.893-3.91c-3.706-2.346-4.141 1.851-4.596 6.01-1.61-2.555-2.581-7.347-6.717-1.061-.225-2.144-2.833.48-4.95 2.121-1.65-1.089-3.3 4.253-4.95 7.425-3.927-3.352-5.398-.318-6.01 4.95-3.45-1.658-4.805 5.058-7.071 8.131-1.813-.181-3.47-9.62-6.728-1.573-2.347 5.795-1.366 4.925-3.832 6.377 1.75-44 33.273-47.934 33.273-47.934-1.32-1.553-3.335-7.45-7.157-2.125-1.055-2.904-1.692-7.168-5.303-1.767-.305-3.471-1.55-3.652-3.182-2.475-1.666-3.68-3.34-7.175-5.657 2.828-2.223-4.865-4.594-8.326-8.132-.707-.044-3.545-.056-7.157-5.303.354 1.257-5.696-.826-5.286-8.235 1.017 8.25-28.625 43.59-17.238 43.59-17.238.795-2.766 1.937-6.758-3.682-1.186l-3.035-1.332c5.552-6.275 2.11-5.45-4.95-1.767.962-3.98 12.2-14.812-4.95-6.718.5-3.366 7.881-10.322-5.657-6.364 2.57-3.646 13.074-9.673-2.828-7.778 5.603-3.765 12.114-7.78-1.06-6.364 9.092-3.064-.776-6.128-5.304-9.192 5.672 1.043 4.913-1.843-1.414-8.132 11.74 4.33 6.727-1.451 1.6-8.15z" fill-rule="evenodd" stroke="#000"/><g fill="#00802f" fill-rule="evenodd" stroke="#000"><path d="M406.04 360.602c-5.304-13.789 1.944-17.324 1.944-17.324-6.364-8.132 0-15.557 0-15.557-7.071-12.55 1.59-14.849 1.59-14.849-4.595-5.48-3.845-11.89-2.828-13.965.94-1.916 2.093-6.216.354-9.723-1.727-3.48 1.59-9.9 1.59-9.9-4.772-5.48-3.004-10.606-1.06-12.55 1.601-1.601 2.197-4.72.354-7.425-1.383-2.03-.177-7.778 2.475-10.253l-1.415-5.657c-.707-4.42 3.998-4.625 4.243-.707.177 2.828 1.237 6.54 1.237 6.54 3.713-1.414 4.597 2.829 4.597 2.829.884 2.828-1.768 7.955-1.768 7.955 6.187 9.9 1.59 19.092 1.59 19.092 4.244 4.773 3.286 12.034 1.769 13.965-1.945 2.475-.177 5.303.353 6.718 1.178 3.14-.53 16.086-.53 16.086 5.126 6.895-.53 16.44-.53 16.44 3.535 2.652 3.521 8.365 2.298 10.43-.53 2.122-.68 5.698.707 7.778 1.06 1.591.884 12.198-1.591 15.557l-15.38-5.48zM414.878 207.867c.707-6.541 14.578-16.087 26.517-16.087 11.938 0 30.759 3.712 35.532 26.163 0 0-7.425-11.844-12.021-13.258.509 3.091 1.265 6.552.884 8.308 0 0-6.01-7.07-9.193-6.54-1.59-4.14-3.182-3.907-4.773-1.945 0 0-1.767-3.536-5.303-5.127 0 0 1.65 8.25-.707 7.779-2.652-.354-4.293-6.94-5.127-6.01-.707 1.237-2.298 4.595-4.242.353 0 0-2.475.884-5.127-1.06-.588-.432-2.966.217-2.651 1.413 1.06 4.596-2.829 1.768-2.829 1.768-1.768-1.944-3.359 1.06-4.596 2.298-2.918 2.918-6.364 1.945-6.364 1.945z"/><path d="M412.403 204.861c-4.242-22.45 9.723-43.31 14.142-44.9 0 0-1.237 4.595-.53 5.656 0 0 4.742-1.706 1.414 2.121-.884 2.122 2.298 2.122 4.95 1.061l-8.662 9.546c-.707 1.768-.53 2.475 1.414 1.768l5.303-2.829s-7.601 6.364-10.076 9.723c0 0 4.596-.177 5.834 3.182 0 0-7.248 0-9.193 3.359l4.066 1.237c.707 3.536-5.126 2.122-5.126 2.122 3.005 7.247-3.536 7.954-3.536 7.954zM408.337 199.653c-3.535-38.537-29.875-64.442-45.255-67.624l7.072 8.663-8.309.707 11.844 3.535c0 1.945-8.839 2.122-8.839 2.122 2.652 1.944 11.137 2.298 11.137 2.298l-3.889 3.005h6.718c.353 3.182-5.127 5.657-5.127 5.657s11.844-1.061-1.944 9.015c0 0 18.738-10.076 4.242 6.541 0 0 15.203-9.016 7.602 4.243 0 0 9.192-4.42 4.419 3.712 0 0 9.37-1.768 3.535 3.712 0 0 4.42.448 3.536 4.868 4.05-.139 8.783 5.862 13.258 9.546z"/><path d="M408.16 208.22c-9.192-32.88-55.86-28.46-60.28-7.601 0 0 6.187-10.43 11.844-6.894 0 0 6.01-6.01 10.253-.884 0 0 4.773-3.89 4.773-.884 0 0 4.596-1.238 4.242 1.414 0 0 3.89-1.768 4.597 3.712l4.419-2.651c.884 2.651 2.468 2.107 3.182 1.767 3.712-1.767 1.944 4.42 1.944 4.42 3.36-1.414 4.066 1.237 4.066 1.237 2.475-.53 2.122 3.182 2.122 3.182 2.298-1.59 8.839 3.182 8.839 3.182z"/><path d="M356.718 251.354c1.061-42.25 39.762-48.42 45.786-43.664 6.717 5.303 12.55 1.414 12.55 1.414 2.652.884.178 4.066.178 4.066 47.199-3.359 53.74 45.608 53.74 45.608s-4.42-10.96-7.602-8.131c0 0-2.475-12.021-6.717-7.425 0 0-1.238-7.071-5.834-7.248 0 0 1.768-5.833-1.944-7.248 0 0-3.182 7.071-6.895-5.48 0 0-.707 11.668-6.54-3.359 0 0-2.475 9.9-3.89.177-1.061-2.967-3.889 2.652-3.889 2.652s-2.651-11.49-4.596-1.945c0 0-4.066-5.303-5.303 5.304l-3.182-1.591c1.59-11.137-5.48-7.071-5.48-7.071-1.302-5.058-3.624-2.458-5.834-.707-.196-7.309-2.658-4.421-5.657.883-.474-4.312-1.599-5.894-4.42-.353l-1.59-3.005c-1.553 5.44-3.28 7.568-5.303 4.066 0 0-1.591 2.474-1.768 5.833 0 0-3.536-5.48-5.834 4.42 0 0-1.768 1.59-1.768-4.95-3.977 10.903-8.103 22.494-7.954 14.142l.883-6.187c-4.419 4.596-11.137 19.799-11.137 19.799z"/><path d="M406.746 224.484c-1.752-.292-6.01 8.839-6.01 8.839-.177 3.358 3.712 3.005 3.712 3.005 2.652-1.591 3.359-11.668 2.298-11.844zM400.206 238.272s-3.833 6.204-1.415 12.375c.177 3.358 1.591 1.06 2.298-.354.902-1.803.884-12.02-.883-12.02zM412.757 236.505c.437-2.521 4.707-1.946 3.889 1.59.353 1.238-4.33.954-3.89-1.59zM405.825 236.481c.437-2.52 4.707-1.946 3.89 1.591.353 1.238-4.331.954-3.89-1.59z"/></g><path d="M336.39 368.557V99.679c-128.253 2.349-198.13 145.074-158.216 264.105 53.042 10.144 106.504 13.255 158.215 4.773z" fill="#006bb6" fill-rule="evenodd" stroke="#000"/><g fill="none" stroke="#000"><path d="M268.507 324.363l-18.05-144.27M277.864 328.648l-27.406-148.554M225.727 327.19l24.749-147.077M229.97 325.423l20.86-144.25M235.096 323.479l15.737-143.135M273.31 326.484l-22.977-146.39"/></g><path d="M275.583 473.906l12.723-7.655 48.12 12.218-.093 8.375c-11.226.707-49.437-4.894-60.75-12.938z" fill="#e6e6e6" fill-rule="evenodd" stroke="#000"/><path d="M274.694 474.092c-13.644-6.316-24.436-13.855-34.825-21.566l54.27-12.728 42.24 12.177.051 26.537s-12.607-.1-22.492-4.42c-9.944-4.345-24.925-5.833-39.244 0z" fill="#006bb6" fill-rule="evenodd" stroke="#000"/><path d="M205.726 416.615l95.84-4.703 34.839 14.297-.003 25.963c-5.75.25-13.948-1.566-23.153-5.743-9.57-4.342-27.629-3.993-37.671.617-10.01 4.594-21.252 6.54-35.002 6.54-16.2-13.574-27.18-26.678-34.85-36.971z" fill="#e6e6e6" fill-rule="evenodd" stroke="#000"/><path d="M190.528 391.447c7.424-4.596 103.442-7.442 113.275-4.89 9.786 2.54 25.17 9.318 32.41 11.027l.062 28.783c-11.314-2.184-14.073-2.698-27.052-7.884-12.804-5.116-25.2-3.466-38.16 1.186-12.977 4.657-26.755 8.367-39.127 4.12-12.41-4.259-18.252-6.826-24.263-5.058-6.484-11.286-14.334-18.753-17.145-27.284z" fill="#006bb6" fill-rule="evenodd" stroke="#000"/><g fill="#fdef00" fill-rule="evenodd" stroke="#000"><path d="M265.26 322.79c1.75-4.5-.75-12.25-.75-12.25 3-1.75 3.25-8.25-1.25-8.25s-5.5 4.75-3 7.5c0 0-1.25 6.75-.75 8.75l5.75 4.25zM248.583 263.906l2.25-114.866 2.25 114.866h-4.5z"/><path d="M234.458 165.406l1.125 12.375c7.375-1.75 15.25-8 15.25-8l-.125-15.375s-12.375 9.5-16.25 11z"/><path d="M226.958 162.656s5.156-5.017 11.75-4.875c6.53.14 10.125-1.687 12.25-4.187l-.125-4.438s-4.162 1.621-6.375 2.313c-2.21.69-5.766 1.433-9.5 1.5-3.739.067-8.063 4.25-8 9.687zM235.888 324.156c-1.75-4.5 3-13.75 3-13.75-3-1.75-3.25-8.25 1.25-8.25s5.5 4.75 3 7.5c0 0 1.25 6.75.75 8.75l-8 5.75z"/><path d="M219.833 363.406s-2.947-13.534.5-20.5c3.62-7.317 5-15.25 5-15.25s27.956-10.632 22.206-33.882c3.275-.648 5.71-.5 8.544-.618-8 24.5 22.25 36 22.25 36s.637 5.526 4.5 11.75c3.93 6.334 3.5 15.25 3.5 15.25-20.765 16.084-43.07 17.152-66.5 7.25zM217.333 269.846c-18.445-16.404-7.519-46.497 33-48.19 41.277-1.724 57.573 35.414 38.323 49.914 0 0 2.658-19.793-36.573-19.039-38.988.75-34.75 17.315-34.75 17.315z"/><path d="M225.594 327.721c-37.994-20.973-32.186-62.952 25.589-64.17 58.525-1.233 59.83 44.623 26.914 65.275 13.517-11.461 7.221-35.158-26.914-35.223-34.386-.065-38.58 28.59-25.589 34.118zM230.333 224.406c-15.5-20.75-4.227-31.76 1-36.25 7.111-6.11 49.646-8.323 49.646-8.323-22.625 18.5-2.043 48.03-2.043 48.03-32.5-36.125-48.603-3.457-48.603-3.457z"/></g><path d="M178.704 363.253c7.425-4.596 30.394-6.462 42.073-.353 11.914 6.231 33.582 3.341 43.487-2.121 10.325-5.695 33.023-6.503 43.84-1.415 8.724 4.103 21.921 9.193 28.285 8.84v29.344c-11.844-.53-17.073-1.885-30.052-7.071-12.803-5.116-28.236-4.788-39.598 1.06-11.222 5.778-35.629 6.806-47.751 1.872-11.908-4.847-22.252-3.64-28.263-1.871-6.484-11.286-9.209-19.753-12.02-28.285z" fill="#e6e6e6" fill-rule="evenodd" stroke="#000"/><path d="M175.583 89.281c-.246 1.346 7.134 13.683 20.875 14.438M170.333 95.094c9.404 10.772 16.148 13.75 20.875 13.5M167.583 98.781c6.955 10.175 13.696 11.782 13.875 12.375" fill="none" stroke="#6b240a"/><path d="M496.095 357.675c-13.674-7.346-32.393-.963-44.072 5.147-11.914 6.231-33.582 3.341-43.487-2.122-10.325-5.694-33.023-6.502-43.841-1.414-8.724 4.103-21.92 9.192-28.284 8.839v118.44c40.658 2.829 83.359-21.205 108.601-44.944 25.757-24.223 46.022-63.414 51.083-83.946z" fill="#00802f" fill-rule="evenodd" stroke="#000"/><path style="marker:none" d="M505.276 293.406c0 106.92-75.798 193.694-169.193 193.694-93.395 0-169.194-86.775-169.194-193.694 0-106.919 75.799-193.693 169.194-193.693 93.395 0 169.193 86.774 169.193 193.693z" fill="none" stroke="#000" stroke-width="2.613" stroke-linejoin="round" overflow="visible"/><path d="M415.939 363.607c3.227-.968 1.06-16.65-1.238-16.44 2.966-4.605 4.61-10.064-.353-19.8 4.391-5.385 1.81-10.272-.177-15.202 2.29-3.652 3.925-7.856.177-16.617 1.556-4.307 3.5-8.404-.884-15.91.213-4.515 3.381-7.688-1.06-14.319 3.829-5.715 1.402-8.302.883-11.844" fill="none" stroke="#000" stroke-width="1.5" stroke-linecap="round"/><path d="M420.181 332.317c-1.237 1.468-2.828-.744-4.066-1.414M420.535 315.877c-1.768.261-3.536-.607-5.303-1.237M414.878 295.901c1.65.851 3.3 1.761 4.95 1.238M418.59 279.461c-.858.32-2.682.382-4.95-.707" fill="none" stroke="#000"/><path d="M336.212 487.174V100.033" fill="none" stroke="#000" stroke-width="2"/><path style="marker:none" d="M297.428 298.398l38.753-68.754 38.754 68.754-38.754 68.753-38.753-68.753z" fill="#00802f" stroke="#000" stroke-width="2" stroke-linecap="round" stroke-linejoin="round" overflow="visible"/><path style="marker:none" d="M336.167 269.088l6.592 20.698 20.83.17-16.756 12.963 6.282 20.803-16.948-12.687-16.948 12.687 6.282-20.803-16.757-12.962 20.831-.17 6.592-20.699z" fill="#fdef00" overflow="visible"/><path d="M173.49 532.782c1.944-13.788-.95-24.283-3.36-28.55-2.43-4.303-8.661-13.17-.618-16.174M190.106 486.378c17.767 1.857 33.79 1.472 38.184.796 4.395-.676 16.087-4.243 16.44-9.37" fill="none" stroke="#000" stroke-width="2"/><path d="M75.774 482.133c-.53-5.657 13.15-7.7 17.12-9.486 3.924-1.765 12.726-11.106 12.726-11.106 1.406-2.901.83-9.858-.231-14.807l-14.114-40.259s-5.199-15.455-5.553-24.294c0 0-6.374-1.888-7.172-12.262-.177-2.298.675-10.949.675-10.949-7.247-24.042-17.337-52.525-17.822-89.858-.466-35.754 12.317-53.82 12.982-55.83.783-2.367.258-9.57 3.008-12.957-.25-4.67-1.497-16.633-1.497-16.633-9.546 22.451-34.828 37.688-34.828 37.688-6.717-4.596-16.432-12.43-22.443-31.698l-6.247-21.749c-2.828-9.192.029-19.466 1.62-24.062 1.994-5.76 3.052-16.09 4.996-18.741 0 0 3.341-5.862 12.357-1.62l4.915 2.365c2.887 1.388 1.11 5.747-1.256 6.05 5.915 2.727 1.352 4.563.057 6.676 2.156 2.125 1.337 3.483-.022 4.31-1.358.827-3.256 1.122-3.256 1.122 2.188 2.438-.648 6.113-2.78 3.978 0 0-2.26-2.335-3.664-3.27-.734-.488-1.593-1.688-1.847.127-.256 1.83-.573 3.14-.8 4.854-.218 1.637-.427 2.159-.155 4.506.231.509 2.33 1.211 2.33 1.211s4.819 13.789 6.94 15.734c0 0 9.666 10.112 12.494 10.643 0 0 6.432-15.43 15.27-25.682l3.24-14.808c.707-5.127 4.742-9.421 11.106-12.957l14.576-7.404s9.897-6.478 12.725-6.478l-.694-11.8c-4.95-.177-9.255-7.866-9.255-7.866-2.828-3.801-5.066-12.112-6.039-14.455-.966-2.326 1.084-8.01.377-9.954-.945-2.6-1.279-7.289-1.279-7.289 2.033-4.861 15.84-3.702 17.353-3.702 1.503 0 10.113-.277 12.262 0 4.862.354 7.425 9.983 7.425 9.983.354 2.74-1.399 4.992-1.09 6.294.443 1.856-.319 7.554-.319 7.554-.619 2.563 1.192 6.052 2.496 7.03 2.121 1.59 5.14 1.994 5.14 1.994l5.32 13.65 14.633 4.165c5.074 1.444 12.42.81 17.291.269 4.871-.542 15.145.044 19.084.263 3.94.219 7.85 1.175 12.226 1.175 5.755 0 19.536-.037 19.536-.037 6.927.616 10.42.905 15.311 1.481 5.24.618 13.721 6.435 18.971 11.06 0 0-4.356 10.733-12.321 15.814-4.197 2.677-18.823 13.348-22.062 15.425-4.582 2.937-24.344 34.053-24.344 34.053s-1-12.52-.25-16.257c.686-4.116 4.21-9.708 5.526-11.654 1.277-1.89 9.281-21.514 9.281-21.514s-10.263 2.545-22.674 3.008c-9.707.362-12.748 8.773-15.91 12.889-3.162 4.115-4.427 7.54-5.826 13.092 0 0-5.924 31.656-11.581 45.975l-3.702 7.172c0 4.25-.745 6.649-1.62 9.024-.982 2.073-1.388 13.882-1.388 13.882l7.404 54.14s5.035 23.735 4.859 38.408l.481 19.79c1.591 2.653 4.198 12.596 2.077 21.788 0 0 11.652 29.712 11.736 46.017.085 16.305 6.924 42.775 11.343 48.078 0 0 14.13 11.77 11.172 13.658 0 0-1.968 1.402-5.468.402 0 0 .386 4.045-3.114 2.045 0 0-.665 3.99-4.165 3.24 0 0 .849 3.345-2.901 2.97 0 0-2.317 3.118-4.823.112-1.325-1.59-7.036-16.344-8.097-16.521-5.013-.835-5.486-1.69-5.486-5.126 0 0 1.365-12.35-2.455-21.213 0 0-6.844-21.06-12.035-26.853-5.191-5.793-9.94-22.108-9.908-29.114.032-7.006-4.156-22.552-5.196-25.956-1.027-3.362-15.23-38.903-15.23-38.903s-2.936 23.909-1.429 29.185c.982 3.436 3.076 24.689 3.076 24.689 5.235 8.998 8.369 18.17 9.187 33.385l.64 38.288c-.164 2.945 6.41 18.176 5.43 19.81-.53.883-7.84 1.908-12.06 1.84-4.213-.068-10.892 1.479-13.892 2.49-2.95.994-11.674 2.525-14.592 1.199-2.919-1.327-6.882-.232-8.561-.232-1.68 0-5.321-.694-5.321-.694z" fill="#fdb57d" fill-rule="evenodd" stroke="#5e0c01"/><path d="M180.958 496.656c6.125 1.125 43.312 1.75 57.187-.625M502.833 533.906c-1.375-7-1.423-20.695 1.5-28.875 2.883-8.068 9.375-19.875-.125-22.5M435.708 497.906c43.375 1.75 59 3.625 63-4.5" fill="none" stroke="#000" stroke-width="2"/><path d="M105.27 72.469c1.06-.039 5.584.234 7.563-1.25 1.979-1.485-.525-5.663-5.813-3.938-1.127.368-1.82 1.118-3 2.438-2.656 2.972.243 2.787 1.25 2.75z" fill="#521a1c" fill-rule="evenodd"/><path d="M87.175 48.412c-2.896.63-2.757 3.675-.118 2.975 5.438-1.437 17.948-6.506 32.604-.437 1.562.5 2.164-.518 1.102-1.268-17.887-8.332-29.275-2.207-33.588-1.27z" fill="#dd2d37" fill-rule="evenodd" stroke="#5b1617"/><path d="M580.402 97.524s-1.712 12.627-.36 15.292c1.4 2.765 2.888 11.904 2.888 11.904l-16.992-8.622 5.716-11.807 8.748-6.767z" fill="#461d2f" fill-rule="evenodd"/><path d="M635.052 57.565s8.57 50.742 9.32 70.617c-1.505-.399-3.091-.16-4.823.235.125-23.375-4.497-70.852-4.497-70.852z" fill="#e00814" fill-rule="evenodd" stroke="#000"/><path d="M593.386 483.349c.53-5.657-14.21-7.7-18.182-9.487-3.923-1.765-10.737-7.835-11.312-9.514-1.043-3.05-.187-10.731 1.47-15.515.795-2.298 11.77-33.231 13.229-40.435 0 0 3.962-19.344 4.315-28.183 0 0 5.137-3.126 5.759-10.141.176-2.298.031-9.888.031-9.888 6.983-12.021 7.328-38.888 11.8-54.264 4.4-15.122 7.437-41.353 5.935-53.095-1.491-11.656-10.992-36.32-11.657-38.33-.783-2.367-2.556-5.328-4.422-9.244-2.11-4.67 1.445-18.4 1.497-18.4 9.546 22.45 33.944 34.151 36.419 34.151 1.422 0 16.255-10.838 22.266-30.106l5.247-20.124c2.203-9.318.971-21.091-.62-25.688-1.994-5.76-5.177-11.714-7.121-14.366 0 0-4.466-5.612-10.356-1.87l-5.041 2.115c-2.954 1.24-2.61 5.122-.244 5.426-5.915 2.727-.102 5.812 2.443 5.8-2.156 2.126-2.606 3.706-1.353 4.685 1.858 1.452 3.506.748 3.506.748-6.25 3.375 1.082 10.014 3.78 8.665.958-.479-.24-6.71 1.164-7.644.734-.489 2.52-1.607 3.393-.145.785 1.315.137 3.586 1.363 4.12 1.304.569 1.22 1.834.907 2.71-.357 1.07-3.315 1.325-3.315 1.325s-4.82 13.788-6.941 15.733c0 0-7.166 11.988-9.994 12.518-.404.538-7.24-10.013-15.119-21.547 0 0-1.825-13.393-3.416-19.934-1.223-5.028-9.161-10.835-14.11-13.133 0 0-11.172-4.486-12.922-5.861-1.854-1.457-9.522-6.604-12.35-6.604l1.819-10.05c4.95-.176 9.005-11.24 9.005-11.24 2.828-3.802 4.442-9.613 5.414-11.955.966-2.327-1.334-9.01-.627-10.954.945-2.6 2.779-6.79 2.779-6.79-2.033-4.86-18.09-4.076-19.603-4.076-1.502 0-10.613.597-12.762.875-4.862.353-6.175 6.982-6.175 6.982-.354 2.74-.1 4.993-.41 6.294-.443 1.856.819 6.555.819 6.555.619 2.563-1.067 4.801-2.37 7.404-.441 4.393-1.547 4.274-2.765 5.494-1.882 2.3-2.665 7.947-4.963 11.306-1.883 2.753-7.227 3.458-12.51 5.049-5.93 1.784-14.012-1.135-21.358-2.207-6.654-.97-17.636.675-20.498 1.324-2.526.573-7.85 1.176-12.226 1.176-5.755 0-7.338-1.452-11.757-1.628-6.95-.278-12.896 1.611-17.963 3.072-4.733 1.364-11.954 8.556-17.204 13.181 0 0 6.598 9.263 12.852 16.344 4.55 5.152 13.827 11.563 17.387 13.023 5.332 2.188 24.643 33.304 24.643 33.304s.603-13.08-.147-16.818c-.687-4.116-3.857-10.945-5.173-12.891-1.277-1.89-7.16-17.272-7.16-17.272s5.137.6 17.548 1.063c9.707.363 13.278 7.537 16.44 11.652 3.163 4.115 4.958 8.954 6.357 14.506 0 0 .868 13.033 6.808 27.237 4.066 9.722 6.354 17.955 6.354 17.955 0 4.25.744 6.649 1.62 9.024.982 2.074 1.564 21.66 1.564 21.66l-6.52 54.14s-4.151 22.674-4.151 37.347c0 2.829-1.189 16.433-1.189 16.433-1.59 2.652-4.198 11.358-2.077 20.55 0 0-10.944 45.268-11.03 61.573-.084 16.305-5.079 31.772-9.22 37.295-3.183 4.242-13.958 11.654-11 13.541 0 0 1.307 1.093 3.967.402 0 0-1.136 5.045 2.364 3.045 0 0 .79 2.74 4.29 1.99 0 0 1.526 2.72 3.651.47 0 0 1.943 2.619 4.448-.387 1.325-1.591 7.347-14.29 8.408-14.466 5.013-.836 5.686-2.683 5.87-6.114.132-2.607-.345-8.712 1.085-17.765.662-3.138 8.744-21.149 12.521-27.472 3.824-6.403 8.879-21.755 8.847-28.76-.032-7.007 4.156-23.802 5.196-27.207 1.028-3.362 15.231-37.653 15.231-37.653s1.875 23.202 1.428 29.186c-.982 3.435-2.015 23.274-2.015 23.274-5.235 8.998-9.43 19.584-10.248 34.8 0 0 .6 32.65-.462 37.713-.606 2.886-6.386 17.28-5.078 19.897.884 1.768 8.24 4.772 13.651 3.388 5.451-1.394 11.157-.112 13.716 1.253 2.559 1.365 9.729 2.702 12.647 1.375 2.919-1.326 6.882-.231 8.561-.231 1.68 0 5.322-.694 5.322-.694z" fill="#fdb57d" fill-rule="evenodd" stroke="#5e0c01"/><path d="M565.927 75.845c-1.058.077-5.525.844-7.654-.415-2.13-1.26-.098-5.686 5.347-4.55 1.16.242 1.931.912 3.248 2.095 2.966 2.664.064 2.797-.941 2.87z" fill="#521a1c" fill-rule="evenodd"/><path d="M65.458 483.406v.125c.738.25-16.646-54.827-24.125-107.875-4-23.5-27.127-141.243-17.377-230.868l4.976 4.265c-5.125 60.25.9 86.853 4.15 133.853 6.902 75.046 32.376 200.5 32.376 200.5zM31.333 50.656s-5.743 50.478-6.493 70.352c1.505-.398 3.092.46 4.824.854-.125-23.375 1.669-71.206 1.669-71.206z" fill="#e00814" fill-rule="evenodd" stroke="#000"/><path d="M31.333 51.156c7.5 63.75 9.205 178.745 9.25 203.25 0 14.75.088 71.119.088 71.119M65.708 483.531s-14.625-46.25-17-57.625c-2.078-9.95-5.5-29.875-5.5-29.875-2.375-7.75-2.5-71.5-2.5-71.5" fill="none" stroke="#000"/><g fill="#5e0c01" fill-rule="evenodd"><path d="M100.708 102.281c7.265-.553 14.48-3.427 20.75-9.625-2.122 8.125-12.062 11.116-20.625 11.625l-.125-2zM68.708 195.781c6.756-9.3 8.638-26.799.375-41.125 6.607 7.212 7.725 18.711 7.375 31.25l-7.75 9.875zM198.81 158.104c6.434-12.324 12.023-25.36 19.757-37.035-5.06 5.34-10.665 9.606-13.346 18.385-12.964 2.946-26.174-2.985-38.891 8.839h6.187c4.48-6.004 11.557-4.22 17.501-5.834l15.556-2.298-6.764 17.943zM134.952 161.198c16.724-.546 28.841-9.485 33.853-22.097-7.542 9.434-18.838 18.843-33.853 22.097zM79.53 358.406c1.649 3.454 3.317 6.364 4.303 7.5-1.627-1.103-3.425-4.092-4.75-1.875l.448-5.625zM79.958 375.906c3.797 4.184 6.43 6.246 12.125 8.5-1.729.006-3.753-.356-4.25.25.625 6.875 1.825 12.6 2.75 18.875-1.93-7.217-4.774-14.587-4.875-21.5-4.25-.486-4.213-3.83-5.75-6.125z"/><path d="M74.833 167.656c3.588 6.135 9.66 3.993 15.125 3.875-4.411 2.612-8.823 3.062-14.25 1l-.875-4.875zM106.314 224.749l-.618 12.286c-.089 1.856 1.149 1.944 1.502.177l.619-12.11c-.088-2.298-1.856-1.944-1.503-.353zM148.333 380.781c2.828-.102 4.728 2.09 9.625-.375 2.393-9.387-1.262-17.125-2.125-25.625-3.027 3.451-3.862 4.983-4.25 6.125 1.323-.405 2.379-1.613 4-1.125 1.812 5.511 5.309 18.572-7.25 21zM111.333 349.406c1.774-21.41-3.119-32.871-8.125-51.25l2.125-.5c4.71 15.92 8.715 30.507 13.125 46.125l-5.125-11.125-2 16.75zM33.833 173.781c5.407 5.542 11.915 11.084 16.125 16.625-.837-2.295.043-2.004-5.125-9.25l-.5.875-10.5-8.25zM124.333 448.156c-.75.125-4.19 1.32-4.25 3.375-.07 2.374 2.625 2.875 2.625 2.875s-4.625 7.375-4.5 10.5c0 0 3.75-.625 6.625-4.75l-.5-12zM95.083 471.906c-2.927 2.576-4.852 5.903-10.25 6.625-2.477.115-5.004.59-6 2.25-.522.87.213 1.574.5 2l-3.625-.75c1.497-5.16 9.616-7.938 19.375-10.125zM76.174 186.3c1.237 6.386 2.475 14.868 3.712 19.092h-2.651c-.595 5.764.217 9.183.53 13.435l-3.89-3.89 1.467-5.583c.473-3.46.098-7.557 2.298-9.723L76.174 186.3zM105.21 220.639c-3.882-2.376 7.928-2.468 4.772-.177-1.388 1.008-3.963.672-4.773.177zM104.043 126.872c2.06.537 1.6-2.503.373-2.77l-10.752-.072c-1.07-.347-1.177 1.196 1.198 1.572l9.181 1.27zM112.316 177.235l-1.476 14.74c-.137 1.853 1.097 1.975 1.498.217l1.47-14.563c-.027-2.3-1.803-1.994-1.492-.394zM33.583 130.406l-6.375-3.125c-1.75-1-2.875.25-1.875 1l9.5 4.5c3.005 1.547 1.32 5.448-.592 4.368l-8.283-4.68c-1.768-1.238-1.925.538-.688 1.687l9.156 5.906c2.097 1.478-.853 4.166-2.627 2.324l-6.654-5.105c-1.944-1.149-1.894.08-1.187.875 9.702 7.464 8.875 7.875 8.875 7.875s-.063-2.687 1.875-2.5c0 0 .52-.554.983-1.183.464-.629.87-1.332.642-1.63-2.157-2.437.573-2.04 1.45-5.894.235-1.033-2.084-1.56-1.768-2.527.352-1.077 4.136-4.131-.28-6.252 1.163.872 2.594 6.125-2.152 4.361zM34.101 215.291c5.776 4.01 9.64 3.24 13.081 1.415l-6.01 4.772-7.071-6.187zM175.169 496.587c.928-.751.131-1.482-.133-1.9-.638-1.01.42-1.486 1.06-.486.154.238.354 1.281 1.857 1.149l-2.784 1.237zM79.338 168.353c-3.882-2.376 7.104-2.1 3.712-.177-1.389.787-2.903.672-3.712.177zM145.208 151.497c-1.012-1.544 4.06-2.877 4.215-1.341.14 1.378-3.695 2.135-4.215 1.341zM126.083 120.156c-2.125.125-.75 2.875.5 2.75l10.25-3.25c1.125 0 .75-1.5-1.625-1.125l-9.125 1.625zM112.51 126.617c-.504-1.335 4.154-1.29 3.925-.134-.205 1.038-3.666.82-3.925.134zM114.18 151.625l-.43 11.096c-.006 1.858 1.234 2.068 1.51.287l.436-11.096c-.19-2.292-1.94-1.86-1.516-.287zM121.311 104.446l-1.932 9.805c-.318 1.831.869 2.247 1.44.537l1.94-9.804c.197-2.291-1.601-2.16-1.448-.538zM108.64 205.167l-1.17 8.947c-.304 1.833.914 2.066 1.472.351l1.148-8.771c.182-2.293-1.615-2.149-1.45-.527zM178.847 494.433c.928-.752-1.946-4.002-2.21-4.42-.637-1.01.42-1.485 1.061-.486.153.238 1.812 3.05 3.315 2.917-1.272.348-1.694 1.183-2.166 1.989zM182.56 491.162c.928-.751-1.858-2.675-2.122-3.093-.638-1.01.42-1.486 1.06-.486.153.238 2.52 2.077 4.022 1.944-1.45-.05-2.333.628-2.96 1.635zM185.786 489.483c.928-.751-.134-2.234-.398-2.652-.638-1.01.288-1.883.928-.884.153.239.795 1.459 2.298 1.326-1.868-.104-2.187 1.2-2.828 2.21zM95.395 88.344c-.925.314-1.98 2.523-.125 4.687 2.027 2.365 8.423 2.628 10.438.438 1.984-2.157 1.66-4.886.187-5.063-1.534-.183-9.562-.38-10.5-.062zM84.27 64.469c2.125-.875 7.64-2.814 10.438-.375 2.797 2.438 2.74 8.978 2.427 10.978-.195 1.248-.553 1.741-1.334 2.678-.375.406-.905 1.034-1.292 1.812-.276.554-.079 3.093-.19 2.68-.125-.462-.609-1.61-.185-3.267.201-.784 1.502-2.097 1.77-3.933.437-3.375-.075-7.617-1.847-9.389-1.772-1.772-7.412-.247-9.35.503l-.437-1.687zM103.333 64.656c-1.422 1.408.56 2.318 1.5 1.438 4.125-3.563 10.75-1.188 10.75-1.188s-6.188-5.812-12.25-.25zM87.833 86.656c3.73.567 4.222 2.156 3 7-1.533-2.333-2.407-4.666-3-7zM113.458 88.094c0 .601.312 1.062 1 1.062.687 0 1-.81 1-1.25 0-.44-.347-.892-1.063-.812-.716.08-.937.398-.937 1zM94.958 83.124c0 .602.92.6 1.608.6.687 0 1.733-.347 1.733-.787 0-.441-1.017-1.168-1.733-1.089-.716.08-1.608.675-1.608 1.276zM102.425 79.88c-.141-1.196 1.57-.934 2.033-.176.972 1.59-1.149 3.182-1.149 3.182.972-1.857-.707-2.21-.884-3.006zM571.576 107.122c-7.265-.553-14.48-3.427-20.75-9.625 2.122 8.124 12.062 11.116 20.625 11.625l.125-2zM474.037 158.507c-9.087-21.34-14.336-25.173-23.445-36.222 5.06 5.34 17.415 10.418 20.096 19.197 12.964 2.946 30.674-4.485 40.704 14.839 0 0-5.753-5.328-11.688-8.75-5.934-3.423-14.619-2.283-20.563-3.896l-10.681-.736 5.577 15.568zM593.378 345.372c-.92 4.329-7.316 15.863-8.302 17 2.252.271 2.633-.345 3.625-.75 1.694-5.436 3.741-10.923 4.677-16.25zM588.576 368.122c-2.359 6.62-6.43 10.246-12.125 12.5 1.729.006 4.753.143 5.25.75-.625 6.875-.95 12.974-1.875 19.25 2.163-7.107 1.392-11.947 3.427-20.753 3.92-1.455 4.757-6.865 5.323-11.747zM594.546 166.773c-3.589 6.135-6.755 4.841-12.22 4.724 4.411 2.611 6.449 3.936 11.875 1.875l.345-6.599zM566.02 227.933l4.103 13.186c.535 1.78-.645 2.164-1.415.535l-4.06-13.014c-.47-2.252 1.33-2.336 1.372-.707zM521.451 376.872c-2.828-.102-4.978 1.09-9.875-1.375-3.143-10.013.637-16.126 2.375-24.625 2.902 4.95 4.862 2.733 5.25 3.875-1.323-.406-5.004 1.387-6 3.125-1.812 5.511-4.309 16.571 8.25 19zM557.517 350.533c-1.775-21.41 5.063-30.794 11.882-53.327l-2.125-.5c-4.711 15.92-12.163 32.673-16.573 48.29l5.125-11.124 1.691 16.661zM636.451 175.247c-5.407 5.541-6.415 10.208-12.75 17.125.837-2.296-.917-.755 3.125-8.75l.5.875c1 0 9.125-9.25 9.125-9.25zM574.076 473.122c2.927 2.575 4.852 5.903 10.25 6.625 2.477.115 5.004.59 6 2.25.522.87-.213 1.574-.5 2l3.625-.75c-1.493-5.139-9.405-6.673-19.375-10.125zM589.485 197.515c-1.237 6.387.775 9.993-.462 14.217l3.527-.125c.595 5.765.032 7.183-.28 11.435l3.888-3.889-1.466-5.583c-1.973-3.336-.723-1.432-2.673-4.598-1.797-3.343-2.104-7.43-2.534-11.457zM566.224 222.387c4.373-4.381-10.662-2.186-6.11.675 2.005 1.26 5.199.239 6.11-.675zM569.42 133.377c-1.59-.07-1.19-2.607.185-2.295 1.486.228 10.546 1.15 10.546 1.15 1.111-.178 1.271 1.914-1.133 1.92 0 0-7.17-.129-9.597-.775zM559.656 179.95l1.225 14.553c.388 1.916-1.097 1.975-1.497.217l-1.283-14.5c.027-2.3 1.553-1.994 1.555-.27zM634.264 134.247l5.562-2.063c2.75-1 3.375.5.313 1.563l-7.313 3.375c-3.005 1.547-.394 5.065 1.404 3.805l7.034-4.93c1.893-1.488 2.675-.024 1 1.437l-7.844 6.344c-1.971 2.103.166 3.978 1.315 3.136l6.779-6.542c1.57-1.587 2.52-.17 1.437 1.187-8.826 8.276-9.25 9.063-9.25 9.063s2-2.625-1.75-4c0 0-.02-2.242.517-3.058.429-.653 1.505-1.52-.642-1.63-2.843-2.375-1.01.96-2.825-2.77-.464-.953 2.521-2.872.58-4.777-.808-.793.552-3.13 5.468-4.439-4.85 1.997-7.407 6.125-1.785 4.299zM495.903 494.163c-.972-.62-.81-1.285-.574-1.945.53-1.484-.971-1.732-1.238-.354-.102.53-.177 1.636-1.68 1.9 1.004.064 2.73-.356 3.492.399zM590.993 167.427c3.682-2.674-7.248-1.533-3.715.117 1.446.675 2.947.44 3.715-.117zM527.502 154.704c.91-1.606-4.237-2.609-4.293-1.066-.05 1.384 3.825 1.891 4.293 1.066zM548.35 128.073c2.068.503.473 2.213-.734 1.867l-14.754-7.53c-1.107-.202-.47-1.61 1.8-.817l13.687 6.48zM563.502 132.183c.79-1.968-6.506-1.903-6.149-.198.321 1.53 5.744 1.21 6.15.198zM562.775 152.278c.044 4.773-1.15 13.88-1.547 15.295-.503 1.789-2.476 1.842-1.792.174.707-1.724 1.673-10.965 1.584-15.384-.035-2.3 1.74-1.97 1.755-.085zM549.262 108.49c.884 1.415 5.114 6.8 5.645 11.396.213 1.846-2.1 1.088-2.324-.7-.176-1.415-3.354-8.744-4.768-10.158-1.626-1.626.583-1.92 1.447-.538zM562.207 202.445l1.669 12.884c.305 1.833-.914 2.066-1.472.352l-1.648-12.71c-.431-2.292 1.366-2.273 1.451-.526zM491.556 493.53c-.619-1.459 1.327-3.383 1.59-3.801.638-1.01-.512-1.665-1.148-.663-.993 1.564-1.99 3.447-3.492 3.314 1.272.349 2.136.079 3.05 1.15zM487.35 491.98c-.662-1.016.18-1.527 1.415-3.094.74-.938-.296-1.26-1.06-.353-1.17 1.387-1.017 1.723-3.448 2.298 1.406.348 1.936.319 3.094 1.149zM484.026 489.654c.044-1.812 1.8-2.585 2.166-2.917.726-.656-.2-1.618-1.37-.618-.216.183-1.15 1.502-2.652 1.37 1.868-.105 1.038 1.155 1.856 2.165zM576.389 91.434c.925.314 1.98 2.523.125 4.688-2.027 2.365-8.423 2.628-10.438.437-1.983-2.156-1.66-4.886-.187-5.062 1.534-.184 9.563-.38 10.5-.063zM586.684 68.257c-2.043-.875-8.111-2.636-10.801-.198-2.69 2.439-2.635 8.979-2.335 10.979.188 1.248.532 1.74 1.283 2.677.36.407.871 1.035 1.243 1.812.265.554-.298 3.359-.19 2.945.119-.462.958-1.875.55-3.532-.193-.783-1.444-2.097-1.701-3.933-.42-3.375-.166-6.454 1.656-8.888 1.788-2.391 5.207-2.058 9.62.46l.675-2.322zM568.826 68.872c1.422 1.407-.559 2.318-1.5 1.437-4.125-3.562-10.75-1.187-10.75-1.187s6.188-5.813 12.25-.25zM583.701 88.622c-3.73.567-4.222 2.156-3 7 1.533-2.334 2.407-4.667 3-7zM559.326 92.14c0 .91-.459 1.607-1.468 1.607-1.01 0-1.47-1.225-1.47-1.891 0-.667.51-1.35 1.561-1.23 1.052.12 1.377.603 1.377 1.513zM571.87 85.7c0 .6-1.02.974-1.707.974s-1.618-.81-1.618-1.25c0-.441.965-.893 1.68-.813.717.08 1.645.487 1.645 1.088z"/><path d="M575.826 86.09c0 .601-.92.599-1.608.599-.687 0-1.733-.346-1.733-.787 0-.44 1.017-1.168 1.733-1.088.716.08 1.608.674 1.608 1.276zM568.286 82.72c.141-1.195-1.57-.934-2.033-.176-.973 1.591 1.149 3.182 1.149 3.182-.972-1.856.707-2.21.884-3.005zM99.037 82.998c0 .601.92.599 1.608.599.688 0 1.733-.346 1.733-.787 0-.44-1.017-1.168-1.733-1.088-.716.08-1.608.674-1.608 1.276zM498.583 138.469s8.795 9.82 16.437 17.187c6.125 5.875 12.813 9.063 23.25 9.188 0 0-15.5-5.375-21.625-11.625-6.151-6.281-10.625-11.5-18.062-14.75zM594.88 186.919c-1.269-4.353-.95-8.056 1.37-16.529 1.3-4.744 3.625-15.114 3.625-15.114s-9.767 14.628-8.397 31.598c19.236 33.097 37.064 32.994 36.372 34.074 0 0-28.95-19.84-32.97-34.03zM548.458 453.469c-.562 4.58-1.542 8.572 2.687 13.312-6.893-1.768-5.67-6.935-2.687-13.312zM512.895 469.594c-2.564-1.194-6.505-1.805.375-7l-.375 7z"/></g><path d="M577.027 76.294c.883.077 4.613.844 6.392-.415 1.779-1.26.081-5.686-4.466-4.55-.97.242-1.938.678-2.713 2.095-1.504 2.752-.053 2.796.787 2.87z" fill="#521a1c" fill-rule="evenodd"/><path d="M96.475 90.873c-.23.079-1.983.536.202 1.806 2.047 1.189 5.272 1.072 7.464.113 2.245-.982.844-1.822.009-1.906-.726-.073-7.388-.11-7.675-.013z" fill="#d59c97" fill-rule="evenodd"/><path d="M93.538 72.595c-.936-.039-4.93.235-6.678-1.25-1.748-1.484.463-5.662 5.132-3.937.996.367 1.869.948 2.65 2.437 1.373 2.619-.215 2.787-1.104 2.75z" fill="#521a1c" fill-rule="evenodd"/><path d="M575.31 93.964c.23.079 1.982.536-.203 1.805-2.047 1.19-5.271 1.072-7.464.113-2.244-.981-.844-1.821-.009-1.905.726-.074 7.388-.111 7.675-.013z" fill="#d59c97" fill-rule="evenodd"/><path d="M635.052 57.534c-9.622 104.055-4.61 178.392-4.654 202.897 0 14.75-1.856 66.876-1.856 66.876" fill="none" stroke="#000"/><path d="M601.457 484.127l1.06.302c.75.213 23.424-78.351 27.661-106.284 4.237-27.932 23.768-142.923 15.255-232.371l-4.799 4c2.474 61.487.69 88.444-3.62 135.444-7.078 98.027-35.557 198.91-35.557 198.91z" fill="#e00814" fill-rule="evenodd" stroke="#000"/><path d="M638.412 156.248l2.652-.089.265-6.452 2.652-1.944 2.563 1.06-.442-4.596-5.834 4.154-1.856 7.867z" fill="#ee7b39" fill-rule="evenodd"/><path d="M635.407 153.685c2.21 3.093 4.243 2.74 5.48 2.651.828-.034-.358-3.426 0-5.038.177-.795 1.763-3.31 2.298-3.359 1.945-.176 2.449.444 2.475 1.415-.088 1.502.354 2.916 1.591 3.712" fill="none" stroke="#5e0c01"/><path d="M602.287 484.53s14.625-46.25 17-57.624c2.078-9.95 4.263-17.5 5.5-29.875 1.188-11.882 3.75-70.438 3.75-70.438" fill="none" stroke="#000"/><path d="M584.194 52.368c2.896.63 2.757 3.674.118 2.975-5.438-1.438-29.35-3.148-37.73 4.335-1.033.765-1.988-.96-.926-1.71 7.723-8.331 34.225-6.538 38.538-5.6z" fill="#dd2d37" fill-rule="evenodd" stroke="#5b1617"/><path d="M417.558 260.158c-.858.32-1.057.632-3.325-.457" fill="none" stroke="#000"/><path d="M532.333 58.406c22.024-31.102 56.038-21.399 52-15.5l-52 15.5zM179.765 88.896c.733 4.447 6.838 10.253 12.374 11.667 4.36 1.5 3.713-3.712 3.713-3.712l9.981-10.72c.895-1.112-.29-1.956-1.142-1.124l-8.132 8.839c-.177.176-.409.26-.675.265-.266.005-.13-.38-.443-.514 1.06-2.276 2.34-4.468 3.443-6.724-2.025.876-5.48 3.973-6.924 3.517a2.376 2.376 0 01-.01-1.071c.082-.343.256-.666.543-.953l5.48-6.718c1.06-1.237-.53-1.59-1.414-.884l-5.48 6.125c-1.652-.012 1.398-4.498 2.264-6.046.073-.132-6.73 5.586-6.507 2.926l6.187-6.717c1.238-1.06-.468-2.85-1.705-1.613-1.056.988-10.854 11.783-11.553 13.457z" fill="#461d2f" fill-rule="evenodd"/><path d="M498.024 90.83c.246 1.346-6.76 13.621-20.875 14.25M502.649 96.58c-10.467 11.836-15.21 13.064-20.375 13.5" fill="none" stroke="#6b240a"/><path d="M493.842 90.446c-.734 4.447-6.838 10.253-12.375 11.667-3.359 0-3.712-3.712-3.712-3.712l-9.982-10.72c-.894-1.113.29-1.957 1.143-1.124l8.132 8.838c.177.177.409.26.675.265.266.005.129-.38.442-.514-1.06-2.276-2.34-4.467-3.442-6.724 2.025.876 5.479 3.974 6.924 3.518.081-.366.092-.729.01-1.071a1.984 1.984 0 00-.543-.954l-5.48-6.717c-1.061-1.238.53-1.591 1.414-.884l5.48 6.125c1.652-.013-1.398-4.498-2.264-6.047-.074-.132 6.729 5.587 6.507 2.927l-6.188-6.717c-1.237-1.061.468-2.85 1.706-1.613 1.055.988 10.854 11.782 11.553 13.457z" fill="#461d2f" fill-rule="evenodd"/><path d="M493.013 92.873c1.768-2.563 2.21-4.507 1.591-4.86-2.83-1.619-6.894 1.678-5.391 2.828l3.8 2.032zM180.575 91.28c-1.768-2.563-2.21-4.507-1.59-4.86 2.83-1.619 6.894 1.679 5.39 2.828l-3.8 2.033z" fill="#461d2f" fill-rule="evenodd"/><g fill="#e00814" fill-rule="evenodd" stroke="#6b051c"><path d="M144.233 247.332c-.044-1.812 1.232-2.09 1.59-1.282.708 1.591 3.288 9.102 3.536 16.971.255 8.046 3.047 21.81 4.597 28.108 1.59 6.463-2.38 8.157-3.36 4.596-.53-1.768-1.458-5.083-1.811-6.674-.624-2.809-2.937-13.18-3.668-16.838-.354-2.12-1.646-10.734-1.238-16.263.045-2.166.354-8.618.354-8.618zM524.989 238.235c.044-1.812-1.232-2.09-1.591-1.282-.707 1.591-3.287 9.102-3.536 16.971-.254 8.046-1.109 23.748-2.659 30.045-1.59 6.464 2.38 8.157 3.36 4.596.53-1.768 1.458-5.082 1.811-6.673.624-2.81 1.812-14.306 2.543-17.963.354-2.121.834-11.547.425-17.076-.044-2.166-.353-8.618-.353-8.618zM79.267 229.124s-8.265 21.462-3.623 34.427c4.716 13.175-2.475 31.29-2.475 31.29s8.055.025 13.081 1.944c5.083 1.94 14.734 2.002 19.092 1.061 4.318-.933 7.248-1.237 7.248-1.237l-.177 5.126c2.829 2.829 9.546 3.005 13.258-.707 0 0-2.21-22.274-2.033-54.094-4.763-.334-30.006-6.14-44.37-17.81zM151.583 211.406c-1.5 15.5-17.75 12-24.5 6.75-21.994-16.44-30.75-44.25-35.25-58-6.738-20.587-1.25-40.25-1.25-40.25 1-3.5 5.927-3.866 5.927-3.866-6 24.25-.177 43.616 6.823 59.866 27.986 59.879 48.25 35.5 48.25 35.5zM546.27 247.219c.875 23.312-4 56.5-4 56.5 16.813-1.75 14-10.688 14-10.688 16 9.313 34.063-.562 35.563-2.562 7.03-10.074 1.625-60.625 1.625-60.625-14.198 9.828-29.343 17.16-47.188 17.375zM521.808 216.5c-.25 15.312 14.234 10.816 20.984 5.566 21.994-16.44 31.625-45 36.125-58.75 6.738-20.587 3.375-38.5 3.375-38.5-1-3.5-6.176-4.366-6.176-4.366 6 24.25-1.699 42.366-8.699 58.616-28.86 56.754-45.61 37.433-45.61 37.433z"/></g><g fill="#6b051c" fill-rule="evenodd"><path d="M78.118 259.397c-.088-3.977 2.74-3.535 2.564 0 0 0 .442 12.02 1.237 15.91.808 3.95 6.187 15.114 6.187 15.114.973 2.74-1.68 3.006-2.828.177 0 0-4.87-9.944-5.745-14.672-.884-4.773-1.415-16.529-1.415-16.529z"/><path d="M82.655 262.501c-.442-3.447 2.386-3.27 2.563 0 0 0 .884 10.342 1.68 14.23.807 3.95 7.424 14.585 7.424 14.585 1.326 2.121-1.503 2.475-2.828.177 0 0-6.107-9.414-6.983-14.142-.884-4.773-1.856-14.85-1.856-14.85z"/><path d="M88.135 269.926c-.442-3.8 2.298-3.624 2.563 0 0 0 .972 4.95 1.768 8.839.808 3.95 8.308 12.109 8.308 12.109 1.326 1.856-1.237 2.917-2.563.972 0 0-7.256-7.734-8.132-12.463-.884-4.772-1.944-9.457-1.944-9.457zM593.09 256.435c-.088-3.801-2.74-3.536-2.563 0 0 0-.31 9.74-1.237 15.91-.927 6.169-3.438 14.114-3.438 14.114-.972 2.74 2.033 2.74 2.829.177 0 0 2.12-8.944 2.995-13.673.884-6.273 1.414-16.528 1.414-16.528zM588.554 259.539c.707-3.182-2.121-3.182-2.563 0 0 0-2.384 11.091-3.18 14.98-.807 3.95-4.924 14.084-4.924 14.084-.796 2.298 2.21 2.387 2.828.177 0 0 3.607-8.914 4.483-13.642.884-4.773 3.356-15.6 3.356-15.6zM584.324 260.963c.795-3.624-1.856-3.8-2.563 0 0 0-2.819 10.964-4.018 14.84-1.2 3.874-5.809 12.858-5.809 12.858-1.149 2.21 1.415 3.182 2.564.973 0 0 3.868-8.286 5.631-13.213 1.764-4.928 4.195-15.458 4.195-15.458z"/></g><g fill="none" stroke="#6b051c" stroke-linecap="round"><path d="M112.59 296.609c2.386-.354 7.025-1.715 7.341-.395.301 3.512-7.341 5.344-7.341 5.344M119.931 296.126l-.358-29.481M556.211 292.985c-.707-.884-8.043-2.033-9.28.972-1.861 4.972 7.512-.972 8.75 3.889M546.665 294.84c0-.441.796-34.913.796-34.913"/></g><g fill="none" stroke="#6b051c" stroke-width="2" stroke-linecap="round"><path d="M525.428 240.488c17.713 14.522 60.81 1.203 73.481-15.961M143.658 247.067c-41.569.573-59.487-12.154-72.658-26.943"/></g></svg>