<svg xmlns="http://www.w3.org/2000/svg" xmlns:xlink="http://www.w3.org/1999/xlink" height="1640.309" width="1659.665"><defs><radialGradient id="d" gradientUnits="userSpaceOnUse" cy="12.77" cx="191.6" gradientTransform="matrix(.2526 .1181 -.1329 .2839 145.5 -12.81)" r="2.355"><stop stop-color="#fff" offset="0"/><stop offset="1"/></radialGradient><radialGradient id="f" xlink:href="#a" gradientUnits="userSpaceOnUse" cy="540.6" cx="-214" gradientTransform="matrix(-.4547 -.0328 -.0512 .7079 1200 812.2)" r="185.4"/><radialGradient id="e" xlink:href="#a" gradientUnits="userSpaceOnUse" cy="540.6" cx="-214" gradientTransform="matrix(.4547 -.0328 .0512 .7079 476.3 812.8)" r="185.4"/><radialGradient id="i" gradientUnits="userSpaceOnUse" cy="-334" cx="204.8" gradientTransform="matrix(.9988 -.0069 .0089 1.287 3.215 85.33)" r="11.02"><stop offset="0"/><stop stop-color="#626262" offset="1"/></radialGradient><linearGradient id="a"><stop stop-color="#fff" offset="0"/><stop stop-color="#fdc643" offset="1"/></linearGradient></defs><use xlink:href="#b" transform="matrix(-1 0 0 1 1659.665 0)" height="1656" width="1666"/><path d="M349.233 1288.05l-.4-45-71.5 16 71.9 29z" stroke="#000" stroke-width="4"/><path d="M971.833 295.05s-14.1-21.8-23.8-51c-10.2-30.4-54.5-150.87-54.5-150.87-8.4-15.9-32-51.7-72.7-75.5-27.2-13-65.8-23.4-141.4 28.8l17.8 64.57c76.4 30.9 23.2 167.6-27.9 199.9-10 259.1 418 363.2 314-15.9z" fill="#fff"/><g id="b" stroke="#000" stroke-linejoin="round"><g fill="#f9f9f9"><g stroke-width="6.25"><path d="M1536.333 1026.05l-216-217.5-10 15.5 213 247s42 39 74 45c3 1 31 7 41 0 3-9-21-39-35-56-68-81.2-302-285.2-302-285.2l-4 11.3 239 239.9z"/><path d="M1478.333 1056.05l-182-221.8-11 13.5 177 249.3s35 41 65 49c3 1 29 10 39 4 4-8-16-38-28-55-56-82-256-293.8-256-293.8l-5 10.1 201 244.7zM1550.333 947.75l-244-196.2-7 16.5 238 222.1s46 34.9 79 36.9c3 0 31 4 40-4 2-9-25-36.9-41-52.2-76-73.5-331-250.8-331-250.8l-3 11.8 269 215.9z"/><path d="M1530.333 853.25l-254-174.4-6 15.6 235 186.2s44 28.3 74 27.8c3 .1 29 1.5 37-6.4 1-8.8-26-31.9-41-44.8-76-61.8-322-205.7-322-205.7l-1 11 278 190.7z"/><path d="M1513.333 781.95l-217-129.4-7 16.8 209 134.4s38 20.5 63 18.3c3-.1 25-.5 30-7.6 1-7.2-23-24.4-36-34.1-66-45.9-279-148.8-279-148.8l-1 9.2 238 141.2z"/><path d="M1485.333 708.55l-223-119.5-7 17.1 215 124.9s39 18.8 64 15.5c3-.3 24-1.6 30-9 0-7.2-24-23.3-38-32.4-68-42.9-285-136.1-285-136.1l-1 9.1 245 130.4z"/><path d="M1474.333 649.55l-231-103.1-5 17.6 223 109s40 15.9 65 10.8c3-.5 24-3.3 29-11.1 0-7.2-26-21.5-40-29.6-71-37.8-294-115.1-294-115.1v9.2l253 112.3z"/><path d="M1462.333 600.05l-190-70-3 13.4 183 74.6s33 10.7 53 6.1c2-.5 19-3.3 23-9.3 0-5.4-22-15.3-33-20.9-59-26.1-241-76.9-241-76.9v6.9l208 76.1zM1447.333 551.65l-194-54.5-2 12 188 61.1s34 8.3 53 2.2c2-.5 19-4.6 23-10.9-1-5.3-23-13.6-35-18.4-61-21.8-246-59.2-246-59.2l1 6.9 212 60.8z"/><path d="M1432.333 508.65l-197-40.6-2 12.2 193 47.6s34 5.8 53-1.5c1-.8 18-6 21-12.5-1-5.3-24-12-36-15.9-62-17.4-250-41.7-250-41.7l2 6.9 216 45.5z"/><path d="M1422.333 468.75l-200-25.2-1 12.3 196 32.5s34 3.3 53-5.6c1-.9 17-7.4 20-14.1-2-5.2-24-10.1-37-13-63-12.6-252-22.2-252-22.2l2 6.7 219 28.6z"/><path d="M1412.333 429.25l-188-5.2v11l185 11.8s33 0 49-9.3c1-1 16-8 18-14.1-3-4.5-24-6.9-36-8.3-60-5.8-237 1.8-237 1.8l2 5.7 207 6.6zM1397.333 391.35l-189 10.4 1 10.9 186-3.5s33-2.7 48-13.3c1-1.2 15-9.3 16-15.6-2-4.3-24-4.9-36-5.3-60-.8-236 21.4-236 21.4l3 5.5 207-10.5z"/><path d="M1382.333 360.05l-187 23.5 2 10.8 185-16.5s32-4.9 46-16.6c2-1.3 15-10.3 16-16.7-3-4.1-25-3.2-37-2.7-60 3.4-234 37.9-234 37.9l4 5.2 205-24.9z"/><path d="M1363.333 329.35l-184 38.5 2 10.6 183-31.3s32-7.5 46-20.3c1-1.4 13-11.4 14-17.9-3-3.8-25-1.2-37 .3-60 8.2-230 56.5-230 56.5l3 5 203-41.4z"/><path d="M1335.333 301.15l-184 52.4 3 10.4 182-45.1s31-9.9 45-23.8c1-1.4 13-12.3 13-18.8-3-3.7-24 .6-36 3-60 12.7-229 73.8-229 73.8l4 4.8 202-56.7z"/><path d="M1314.333 272.75l-180 65.9 4 10.1 179-58.5s30-12.2 42-27c2-1.5 13-13.3 13-19.8-4-3.4-25 2.5-37 5.7-58 17.1-222 90.6-222 90.6l4 4.5 197-71.5z"/><path d="M1279.333 254.25l-175 76.4 4 9.9 175-68.9s29-14 41-29.6c1-1.6 11-14 11-20.4-4-3.2-25 3.9-36 7.8-57 20.5-217 103.6-217 103.6l4 4.3 193-83.1z"/><path d="M1250.333 236.45l-145 72.1 4 8.6 144-65.7s25-13.1 34-27.1c1-1.5 9-12.5 8-18.1-3-2.8-20 4.2-29 7.9-48 19.7-179 97.2-179 97.2l4 3.6 159-78.5z"/><path d="M1225.333 220.45l-118 68.6 4 7.3 118-63.1s20-12.4 27-24.9c1-1.4 7-11.2 7-15.9-3-2.4-17 4.5-25 8.1-39 19-146 91.7-146 91.7l4 2.9 129-74.7z"/></g><path d="M1199.333 210.55l-101 68.6 4 6.4 101-63.5s17-12.3 23-24c0-1.4 6-10.6 5-14.8-3-2-15 4.9-22 8.6-33 19.3-124 91-124 91l3 2.4 111-74.7z" stroke-width="5.615"/><g stroke-width="5"><path d="M1170.333 204.15l-77 63.3 3 5.1 78-59.1s13-11.3 17-21.4c0-1.2 4-9.2 3-12.6-2-1.5-12 5-17 8.5-26 18.1-95 83.4-95 83.4l3 1.8 85-69z"/><path d="M1134.333 207.95l-68 73.2 4 4.6 70-69.1s11-12.9 13-23.5c1-1.2 3-9.7 2-12.8-3-1.3-11 6.5-16 10.6-23 21.5-83 95.4-83 95.4l3 1.5 75-79.9zM1108.333 205.55l-52 65.6 4 3.6 53-62.3s8-11.5 10-20.5c0-1 1-8.3 0-10.8-2-1-9 6.1-12 9.8-18 19.4-62 85.1-62 85.1l2 1.1 57-71.6z"/></g><path d="M1408.333 1060.05l-134-197.2-10 9.7 126 218.5s25 36 50 46c3 1 24 11 33 7 4-6-10-32-18-47-39-72-189-262.2-189-262.2l-6 7.5 148 217.7zM1327.333 1042.05l-119-217.4-11 9.4 110 239s23 40 47 52c2 2 23 13 32 11 5-7-7-36-14-51-34-79-170-290.3-170-290.3l-6 7.4 131 239.9z" stroke-width="6.25"/><path d="M1263.333 1058.05l-106-243.8-11 8.3 84 241.5s19 40 41 54c2 2 20 15 30 13 4-5-4-35-10-51-26-78-120-293.3-120-293.3l-24 4.5 116 266.8z" stroke-width="6.012"/></g><g fill="#f3f3f3"><g stroke-width="4.611"><path d="M1301.333 784.85l-107-111.3-4 8 105 126.6s21 20.1 37 22.9c1 .4 15 4 20 .3 1-4.6-10-20-17-28.7-34-41.8-150-146.3-150-146.3l-2 5.8 118 122.7zM1304.333 739.45l-115-103.1-5 8.3 115 118.5s22 18.5 38 20.1c2 .3 16 2.8 20-1.2 2-4.7-11-19.2-19-27.4-37-39.1-160-134.8-160-134.8l-2 5.9 128 113.7zM1308.333 696.55l-124-92.5-3 8.6 124 107.9s24 16.4 40 16.6c2 .2 16 1.4 20-3 1-4.8-13-18-21-25.5-40-35.8-172-120.1-172-120.1l-1 6 137 102zM1309.333 655.75l-132-80.4-2 8.9 134 95.6s25 14.1 41 12.8c2 .1 16-.1 20-4.9 0-4.9-15-16.7-24-23.4-44-31.8-182-103.3-182-103.3l-1 6.2 146 88.5zM1310.333 614.65l-139-67-1 9.2 143 81.9s26 11.5 42 8.6c1 0 16-1.6 19-6.7 0-4.9-17-15.2-26-20.9-47-27.4-191-84.9-191-84.9v6.1l153 73.7z"/><path d="M1305.333 576.15l-142-60.5-1 9.3 147 75.1s27 10.2 42 6.6c2-.1 16-2.4 19-7.6 0-4.9-17-14.4-27-19.7-48-25.2-195-75.8-195-75.8v6.1l157 66.5z"/><path d="M1296.333 537.95l-148-45.4v9.4l153 59.5s28 7.4 44 2.2c1-.3 15-4 17-9.6 0-4.8-18-12.4-29-16.7-49-20.1-201-55.2-201-55.2l1 6 163 49.8z"/><path d="M1286.333 503.15l-150-36.8v9.4l157 50.5s28 5.8 43-.4c1-.3 15-4.8 17-10.5-1-4.8-19-11.3-30-15-51-17.2-204-43.5-204-43.5l1 6 166 40.3z"/></g><g stroke-width="4.5"><path d="M1286.333 474.75l-135-24.7 1 7.8 142 35.9s25 3.7 38-2c1-.3 13-4.7 15-9.5-1-4-18-8.7-27-11.4-46-12.3-185-28.1-185-28.1l2 4.9 149 27.1z"/><path d="M1279.333 447.25l-132-13.6 1 7 139 23.2s25 1.7 38-4.2c1-.4 12-5.1 13-9.5-1-3.5-18-6.7-27-8.4-45-8.2-180-13.7-180-13.7l2 4.3 146 14.9z"/><path d="M1266.333 421.55l-132-2.1 1 6.9 141 11s25-.5 37-7.4c1-.5 12-6.1 13-10.6-2-3.4-19-5.2-28-6.1-46-4.2-180 2-180 2l2 4.1 146 2.2zM1260.333 396.15l-132 8.6 2 6.7 141-.3s25-2.6 36-10.4c1-.6 11-7 12-11.6-2-3.2-19-3.7-28-3.8-46-.5-180 16.5-180 16.5l3 3.9 146-9.6z"/><path d="M1251.333 371.65l-131 21.3 3 6.5 140-13.9s25-5 35-13.8c1-.7 11-8 11-12.7-2-3-19-1.9-29-1.1-45 4-177 33.7-177 33.7l3 3.6 145-23.6z"/><path d="M1236.333 348.85l-129 30.2 3 6.3 140-23.4s24-6.7 33-16.1c2-.8 10-8.7 10-13.4-2-2.9-19-.7-28 .8-46 7.1-175 45.6-175 45.6l3 3.4 143-33.4z"/><path d="M1221.333 328.75l-126 43.1 4 5.9 136-37.2s23-9.1 32-19.5c1-.8 9-9.6 8-14.3-2-2.6-19 1.3-28 3.6-44 11.7-169 62.9-169 62.9l3 3.1 140-47.6zM1199.333 308.95l-122 54.6 5 5.6 132-49.9s23-11.2 30-22.3c1-1 8-10.5 7-15.1-3-2.3-19 3.1-27 6.3-44 15.8-163 78.4-163 78.4l4 2.8 134-60.4z"/></g><path d="M1188.333 287.35l-114 60.2 5 5.1 125-56.5s21-12.2 27-23.3c1-1.1 8-10.6 6-15-3-1.9-18 4.3-26 8-41 17.9-152 85.7-152 85.7l4 2.4 125-66.6z" stroke-width="4.341"/><path d="M1170.333 273.05l-110 66.2 5 4.8 122-63.1s20-13.3 26-24.7c0-1.1 6-11 5-15.3-4-1.7-18 5.3-26 9.4-40 20.1-147 93.7-147 93.7l3 2.2 122-73.2z" stroke-width="4.341"/><path d="M1151.333 261.75l-98 62.7 5 4.1 108-60.2s18-12.5 23-22.9c1-1 6-10.1 4-13.8-3-1.5-16 5.2-23 9.2-35 19.2-130 88.3-130 88.3l3 1.8 108-69.2z" stroke-width="4.5"/><g stroke-width="4"><path d="M1136.333 251.85l-78 55.1 4 3.2 87-53.5s14-11 17-19.6c1-.8 5-8.5 3-11.4-2-1.1-13 4.9-18 8.4-29 17.1-104 77.3-104 77.3l3 1.3 86-60.8z"/><path d="M1118.333 246.95l-68 55.6 4 2.5 75-54.8s13-10.9 15-18.9c1-.9 4-8 2-10.6-2-.8-11 5.4-16 9-25 17.5-90 77.5-90 77.5l3 1 75-61.3z"/><path d="M1090.333 250.85l-63 61 4 2.2 71-60.9s11-11.9 13-20.1c1-.9 3-8.2 1-10.7-2-.6-11 6.3-16 10.3-23 19.5-83 84.7-83 84.7l3 .8 70-67.3z"/></g><path d="M1079.333 241.25l-45 49 4 1.4 50-49.2s8-9.6 9-15.8c0-.7 2-6.4 0-8.1-2-.4-8 5.3-11 8.5-17 15.8-59 67.8-59 67.8l3 .4 49-54z" stroke-width="3.013"/><g stroke-width="4.611"><path d="M1282.333 814.55l-94-122.1-6 7.4 91 137.1s19 22.2 34 26.7c2 .6 15 5.6 20 2.5 2-4.4-8-21-14-30.4-29-45.2-133-161.4-133-161.4l-3 5.5 105 134.7z"/><path d="M1256.333 833.35l-81-131.2-7 6.7 77 145.8s16 24.1 31 30.2c1 .8 14 7 20 4.6 2-4.2-6-21.8-11-31.8-24-48-116-174.3-116-174.3l-3 5.2 90 144.8z"/><path d="M1230.333 855.25l-67-139-7 6 61 153s13 25.7 27 33.3c1 .9 14 8.4 19 6.6 3-3.9-3-22.3-7-32.7-19-50.3-97-185.5-97-185.5l-4 4.9 75 153.4z"/></g><path d="M1200.333 887.15l-59-152.1-8 5.4 49 166.1s13 28.2 27 37.7c1 1 14 10.2 21 8.8 4-3.6-1-23.6-4-34.7-16-54.4-81-207.3-81-207.3l-10 8.2 65 167.9zM1156.333 882.85l-45-156.9-9 4.6 35 170s9 29.2 23 40c1 1.1 13 11.5 20 10.7 4-3.3 0-23.7-1-35-11-55.6-62-213.9-62-213.9l-10 7.3 49 173.2z" stroke-width="4.994"/><path d="M1118.333 885.65l-22-136.6-8 3 14 146.9s5 25.5 15 35.8c1 1 9 11 14 10.9 4-2.4 3-20 2-29.8-3-47.9-31-186.3-31-186.3l-9 5.2 25 150.9z" stroke-width="4.09"/><g stroke-width="4"><path d="M1091.333 895.55l-14-108.4-7 2.1 6 116.2s4 20.3 12 28.8c1 .8 8 9 13 9 3-1.7 3-15.7 2-23.4-1-37.9-20-147.8-20-147.8l-8 3.8 16 119.7zM1064.333 884.95l-10-109-6 1.8v116.3s3 20.5 11 29.4c0 .8 7 9.3 12 9.6 3-1.6 4-15.6 4-23.3 0-37.9-13-148.6-13-148.6l-9 3.4 11 120.4zM1034.333 879.55l1-109.4-7 1.1-10 115.8s0 20.7 7 30.3c1 .8 7 10 11 10.7 4-1.2 6-15.1 6-22.8 5-37.6 2-149.1 2-149.1l-9 2.5-1 120.9z"/></g></g><g fill="#ebebeb"><path d="M1171.333 734.85l-74-135.2-5 5.2 70 146.1s11 18.8 22 24.2c1 .5 11 6.2 15 4.4 2-3-4-17-7-24.6-16-37.9-98-169.5-98-169.5l-3 3.8 80 145.6z" stroke-width="3.537"/><path d="M1181.333 708.95l-75-113.7-3 5.1 73 123.9s11 15.7 21 19.5c0 .3 9 4.4 13 2.5 1-3-5-14.9-9-21.5-17-32.2-99-141.9-99-141.9l-2 3.7 81 122.4z" stroke-width="3.089"/><path d="M1200.333 695.55l-84-103-3 5.2 82 113.1s12 14.2 22 17c1 .2 10 3.4 13 1.3 1-3-6-14-10-20-20-29.6-108-128.3-108-128.3l-2 3.7 90 111z" stroke-width="3.003"/><g stroke-width="2.931"><path d="M1204.333 672.75l-89-93.9-2 5.4 88 103.9s13 12.9 23 14.7c1 .2 10 2.5 12 .2 2-3.1-6-13.2-11-18.9-21-27.2-116-116.3-116-116.3l-1 3.8 96 101.1z"/><path d="M1204.333 641.15l-100-82.4-2 5.6 101 92.4s14 11.3 24 11.9c1 .1 10 1.3 13-1.3 0-3.2-9-12.3-14-17.4-24-24.4-129-101.5-129-101.5v3.9l107 88.8z"/><path d="M1209.333 619.85l-105-74.6-2 5.8 108 84.4s15 10.1 25 10c0 .1 10 .6 12-2.2 0-3.3-9-11.7-15-16.4-26-22.4-136-91.3-136-91.3v3.9l113 80.4zM1214.333 593.95l-113-62.5-1 5.9 116 72.1s16 8.4 26 7.2c1 0 10-.5 12-3.6 0-3.2-10-10.5-16-14.6-29-19.4-146-75.8-146-75.8v3.9l122 67.4zM1212.333 564.35l-120-48.4v5.9l124 57.6s17 6.4 27 4c0 .1 10-1.7 11-4.9 0-3.3-11-9.3-18-12.6-31-15.8-153-57.7-153-57.7v3.8l129 52.3zM1209.333 538.85l-124-38.9 1 5.9 128 47.8s17 5.1 27 1.9c0 .1 9-2.4 11-5.8-1-3.2-13-8.3-19-11.1-32-13.4-158-45.6-158-45.6l1 3.7 133 42.1z"/><path d="M1201.333 511.25l-128-22.5 1 5.8 134 30.8s17 2.8 27-1.7c0 .1 9-3.6 10-7.1-1-3.1-14-6.7-21-8.6-33-9.1-162-24.7-162-24.7l1 3.6 138 24.4zM1205.333 486.15l-130-7.4 2 5.6 136 15s18 .7 27-4.8c0 0 8-4.7 9-8.3-2-2.9-14-5.1-21-6.1-35-5.2-165-5.6-165-5.6l2 3.4 140 8.2z"/><path d="M1202.333 466.05l-129 3.6 2 5.4 136 3.5s18-.9 26-7.1c1 0 9-5.4 9-9.1-1-2.8-14-3.9-21-4.3-34-2.3-164 8.4-164 8.4l2 3.2 139-3.6z"/><path d="M1199.333 446.65l-129 15.3 2 5.2 136-8.7s18-2.6 26-9.5c1-.1 9-6.2 9-10-1-2.6-14-2.6-21-2.4-34 .8-164 23.3-164 23.3l2 3 139-16.2z"/><path d="M1190.333 425.35l-127 29.5 2 5 134-23.8s18-4.5 26-12.4c0-.1 8-7.1 8-10.9-2-2.4-14-1.1-21-.1-34 4.6-161 41.4-161 41.4l2 2.8 137-31.5zM1181.333 404.45l-124 39.9 3 4.8 131-34.9s18-6 25-14.5c0-.1 7-7.7 7-11.5-2-2.2-15 .1-22 1.7-33 7.4-156 54.6-156 54.6l2 2.6 134-42.7z"/><path d="M1178.333 383.95l-120 49.1 3 4.5 128-44.6s17-7.3 23-16.3c1-.1 7-8.2 7-11.9-2-2.1-14 1.1-21 3.2-33 9.9-153 66.2-153 66.2l3 2.4 130-52.6z"/><path d="M1167.333 366.45l-116 59.5 4 4.2 124-55.7s16-8.7 22-18.3c0-.1 5-8.7 5-12.3-3-2-14 2.3-21 5-32 12.7-146 79.3-146 79.3l3 2.1 125-63.8zM1159.333 346.25l-112 66.5 4 4 120-63.2s16-9.7 21-19.7c0-.1 5-9 4-12.5-2-1.9-13 3.1-20 6.2-31 14.7-141 88.1-141 88.1l3 2 121-71.4zM1143.333 330.75l-107 74.2 4 3.7 116-71.5s15-10.7 19-21.1c0-.1 4-9.3 3-12.7-2-1.8-13 4-20 7.6-29 16.8-134 97.7-134 97.7l4 1.8 115-79.7z"/></g><g stroke-width="3"><path d="M1128.333 315.85l-100 83 5 3.3 109-81s14-12 17-22.7c1-.1 4-9.6 2-12.9-2-1.6-13 5.1-19 9.2-28 19.3-125 108.7-125 108.7l3 1.6 108-89.2z"/><path d="M1125.333 297.75l-72 62.1 3 2.4 79-60.6s10-8.9 13-16.9c0-.1 3-7.2 1-9.6-1-1.2-9 3.8-13 6.9-21 14.4-91 81.2-91 81.2l3 1.1 77-66.6z"/><path d="M1107.333 292.85l-66 68.3 3 2.1 73-67.4s9-9.8 11-18c0-.1 2-7.4 1-9.7-2-1-9 4.6-13 8.1-20 16.2-83 89-83 89l2 .9 72-73.3zM1090.333 288.45l-60 70.7 4 1.8 66-70.3s9-10.2 10-18.3c0-.1 2-7.3 0-9.4-2-.9-8 5-12 8.7-18 17-75 92-75 92l3 .7 64-75.9z"/></g><path d="M1074.333 285.25l-49 72 3 1.4 55-72.2s7-10.3 8-18.1c0-.1 0-7-1-8.9-2-.7-7 5.5-11 9.4-14 17.5-60 93.2-60 93.2l2 .5 53-77.3z" stroke-width="2.808"/><path d="M1061.333 280.85l-45 75 3 1.2 51-75.5s6-10.7 6-18.6c0-.1 1-7-1-8.8-2-.6-7 5.9-10 10-14 18.4-55 96.8-55 96.8l2 .4 49-80.5z" stroke-width="2.808"/><path d="M1052.333 273.65l-34 64.5 2 1 39-65.1s5-9.2 5-15.8c0-.1 0-6-1-7.5-2-.5-6 5.1-8 8.7-11 15.9-42 83.2-42 83.2l2 .2 37-69.2z" stroke-width="2.315"/><path d="M1148.333 749.95l-60-142.1-5 4.6 54 152.5s9 19.9 20 26.4c0 .6 10 7.3 14 5.9 3-2.7-2-17.3-4-25.1-13-39.5-80-178.7-80-178.7l-3 3.4 64 153.1z" stroke-width="3.537"/><g stroke-width="3"><path d="M1129.333 764.25l-42-128.1-5 3.7 37 136.8s6 17.8 15 24.3c0 .5 8 7 12 6.1 3-2.2 0-15.2-2-22.1-8-35.3-57-161.5-57-161.5l-3 2.8 45 138z"/><path d="M1107.333 789.75l-25-132.4-5 3 18 140.4s4 18.5 13 26.1c0 .5 7 7.9 11 7.6 2-1.9 1-15.2 1-22.2-4-36.1-36-167.5-36-167.5l-4 2.4 27 142.6z"/><path d="M1075.333 786.95l1-134.8-6 2-9 141.3s0 19 7 28c0 .5 5 9.1 9 9.6 3-1.4 5-14.6 6-21.6 3-36.2-3-171.3-3-171.3l-4 1.6-1 145.2zM1051.333 787.65l11-134.3-6 1.5-19 140.3s-1 18.9 5 28.4c0 .5 4 9.5 8 10.3 3-1.2 6-14.2 7-21.1 6-35.9 10-171.1 10-171.1l-4 1.4-12 144.6z"/><path d="M1029.333 786.05l11-96.6-6 1.1-19 100.9s-1 13.6 5 20.4c0 .4 5 6.9 8 7.4 3-.8 6-10.2 7-15.1 6-25.9 10-123.1 10-123.1l-4 1-12 104z"/></g></g></g><g transform="translate(623.733 620.75)"><path id="c" d="M169.5 958.8l24.8-494m-88.4 447.6l76.4-463.2M51.5 882.4l116.8-445.2M4.7 820l145.5-397.2M-42.9 775.2l162-344m67.2 24.8l-51.6 515.6c-8.4 43.4 39.2 58.4 66 31.4V462m-25.2-16L70.3 928c-7.6 37.2 30.4 62.4 57.2 35.2L187.1 462m-26.8-32.8L17.9 878.8c-3.6 46.4 12 56.8 47.2 48.4l110.8-483.6m-40.8-14.4l-165.6 404c-1.6 30.8 6 56 44.8 43.6l146-446m-56 1.2L-80.9 785.6c-1.6 30.8 10.4 56 49.2 43.6L129.5 442" fill="#fff" stroke="#000" stroke-width="6"/><use xlink:href="#c" transform="matrix(-1 0 0 1 407.8 0)" height="414.1" width="416.6"/></g><path d="M512.733 1025.05l256.3 10-32 40 46.3-13 85.8-3 47.2 12-24.1-42 253.1-24-5-64.7s-28-65.3-76-66.1c-48-.9-405.4-33.5-405.4-33.5s-64.4 32.6-77.2 35.2c-12.9 2.6-61 27.5-63.5 71.2l-5.5 77.9z" fill="#e2b20f" stroke="#000" stroke-width="11"/><path d="M622.533 971.75l19.4-12.7-40-14 52.8-12.1h-22.5l-12.7-9.1 3-18.2 40.6 5.4 18.2-25.5-13.9-10.3 15.2-13.9 5.4 16.3 21.3 24.9-18.9 19.4-19.4-18.8-3 8.5 23.7 10.9-17.6 12.2-3.7 6.1-34 1.2 35.2-2.5 10.4 9.1 29.1-.6 1.2 12.2-29.1-4.3-15.8 7.3-44.9 8.5z" fill="none" stroke="#000" stroke-width="3"/><path d="M610.633 721.65c-123.6-130.4-116.7-327.9 8.6-427.4l50.4-.8m369.7 429.1c123-130.4 117-327.9-9-427.4l-35.9-1.7" fill="#f9f9f9" stroke="#000" stroke-width="9"/><path d="M1087.333 484.85c-1-.7-48-83.6-48-83.6l15-6.3 2-6.1-23-9.1 21-4.8-37-13.2 27-2.2-30-10.3 23-.3-22-11.4 13-.2-15-10.8 9-5.6-26.4-11.7 19.4-1.2-28.5-16.3-16 1s20.5 28.4 15.1 40l-32.7-26.4c6.8 8 33.5 46.2 33.5 46.2s-23.9-27.3-39.5-35.3c8 15.5 13.6 34 23.6 48-14.4-7.5-21.6-22-35.6-30 8.8 15 19.2 35 30.8 47.5-14.8-6.5-26.8-23-38.4-34 3.2 19 11.2 36 22 50.4-20-5.4-22.4-29.4-34-44.9 4 20.5 7.6 46.5 18 64.9-14-12.8-18-35.4-28.4-50.9 0 22.5 1.2 38.9 10.4 58.5-10.8-14-22.4-42.6-24.4-59.2 3.6 15.5 5.6 49.2 15.6 64.8-14-15.2-26.4-33.8-31.2-53.4-4.8 24.6 8.4 47.4 14.4 71-9.2-19.2-16.8-38.8-22.4-59.2-2 14 .8 34.8.8 34.8 3 7 39.4 69.3 70.6 100.5l24.1 55.2c15.9 28.3 17.3 168 13.9 208.1l41.3 40.1c-11-51.7 33-128.7 42-140.1l-8-12.5 13 3.7-5-14 16 2.8-16-21.6 22 10-16-23.2 22 12-14-27.2 21 17.2-19-36 23 14-22-34.8 25 13.6s-18-24.8-26-38c7 5.2 22 15.2 22 15.2s-19-26-23-41.6c9 8.4 17 17.6 25 26-8-14.4-24-44.4-24-44.4l20 16.4s-8-18.1-15-30.1c7 6.4 10 6.9 17 12.9-4-14.4-10-24.2-11-24.9zm-48-83.6c-42.5 41.5-85.9 80.7-100.3 124.8m65.3 277s7 .6 7-2.1-6-4.3-6-7.1 5-3.1 5-3.1-5 .3-5 3.1c0 2.8 6 4.4 6 7.1 0 2.7-7 2.1-7 2.1zm-248.3-360.4v10.1l5.6-9.3-5.6 9.6 7.3 7.5-7.3-7.3v7m-132.5-114.4l21.9-8.7-17.5-2.9 27-7-16.5-3.5 28.4-9-19.1-2 29.7-9.2 3.4-4-13.2 37.4c14.4-11.6 28.8-23.6 46.4-30.6-10 14.6-22.8 27-33.6 40.5 14.8-6.9 29.6-14.9 44.4-22.9-9.6 15-20.8 28.1-33.2 40.9 14.8-6.4 28-16 40.4-25.9-5.2 17.9-18 31.1-30 43.9 20-4 30-22.8 39.6-38.4-1.6 20-12 36.8-20.8 54.4 12.4-11.6 21.2-25.6 33.2-37.6-2.4 16.8-8.8 31.2-14.4 46.7 8.4-10.7 15.2-21.5 23.2-31.9-3.6 16.4-8 32.3-11.2 48.7 11.2-16.4 21.2-34.3 22-54.3 1.2 0 3.2.4 4.4.4 2 23.2-2.8 46.3-10 67.9 7.6-14 16-28.8 18-44.7 7.2 5.2 8.6 22.5 8.6 22.5-15.9 35.7-60.2 93.4-79.5 116.2-17.1 29.7-18.9 40.1-24 56.5-9.8 24.8-13.9 152.1-10.4 192.2l-39.9 38.1c10.2-51.7-25.6-95-34-106.4l7.7-10.9-13.8 1.5 7.7-13.7-17.6 3.1 16.9-20.7-23.3 9.1 16-23.2-22 12 14-27.2-20.8 17.2 18.8-36-23.2 14 22.4-34.8s-16.8 9.6-24.8 13.6c8.4-12.4 18-24.8 26-38-7.6 5.2-22 15.2-22 15.2s18.8-26 22.4-41.6c-8.4 8.4-16.8 17.6-24.8 26 8-14.4 16.8-29.2 24.4-44.4l-20.4 16.4 19.2-35.6-21.2 18.4 15.6-29.2-14.4 9.2 22-35.8-18.9 14.2 16.7-27 9.3-45.4-5-.5 9.9-7.9-15.7-1.3 24.2-14-16.4 1.4 36.7-42.2 3.8-6.1-12.7-3.1z" stroke="#000"/><path d="M1176.333 330.65c-4 12.7-88 154.5-180.6 218.9-11.9 2.2-27.7-10.9-28.3-11.4-.5-.5-10.6-25.1-8.8-32.1 66.7-94.2 204.7-171.5 217.7-175.4z" fill="#f4f4f4" stroke="#fff" stroke-width="27" stroke-linecap="round" stroke-linejoin="round"/><path d="M1035.332 971.75l-19-12.7 40-14-53-12.1h23l12-9.1-3-18.2-40.3 5.4-18.2-25.5 12.2-6.1-15.2-13.9-1.9 13.3-23 23.7 18.8 19.4 19.4-18.8 3.1 8.5-23.7 10.9 17.6 12.2 3.6 6.1 33.6 1.2-34.8-2.5-10.3 9.1-29.1-.6-1.2 12.2 29.1-4.3 15.8 7.3 44.5 8.5z" fill="none" stroke="#000" stroke-width="3"/><path d="M968.763 534.45l-396.83 391.7" stroke-miterlimit="3.8" fill="none" stroke="#fff" stroke-width="55"/><path style="text-indent:0;text-transform:none;block-progression:tb" d="M957.963 534.45l11.28 11.6-386.61 383.9-11.2-11.5 386.53-384.1v.1z" color="#000" fill="#debf40" stroke="#000" stroke-width="8"/><g transform="translate(-2.667 .05)"><ellipse rx="5.872" ry="4.032" transform="matrix(3.522 0 0 4 96.1 -8.17)" cy="15.61" cx="195.2" fill="#c5bea1"/><path d="M543.5 317.9c-24.8 2.7-55.2 7.6-71.2 28.4-26.4 50.4-16.8 120.8 33.2 153.2 19.6 3.2 12.4-26.4 24-37.2 7.2-14 21.2-20 34.8-25.2-42-86.6-17.2-28.4 22.8-26.4.8 0-2.4-14.8 12.8-19 12.8-12.2 37.2-8.9 46-22.6-18-32.9-64.8-53.2-102.4-51.2z" fill="#fff" stroke="#fff" stroke-width="6.8" stroke-linecap="round" stroke-linejoin="round"/><ellipse rx="3.037" ry="2.375" transform="matrix(3.981 0 0 4.42 -.2 -11.97)" cy="15.17" cx="195.3" fill="#e59c03" stroke="#715500" stroke-width=".6" stroke-linecap="round" stroke-linejoin="round"/></g><use xlink:href="##f8c933ff" transform="matrix(4 0 0 4 -1.167 -.42)" height="414.1" width="416.6"/><use xlink:href="##f8c933ff" transform="matrix(4 0 0 4 -1.167 -.42)" height="414.1" width="416.6"/><use xlink:href="##f8c933ff" transform="matrix(4 0 0 4 -1.167 -.42)" height="414.1" width="416.6"/><g fill="none" stroke="#000" stroke-width="4"><path d="M809.233 131.15s19.2 26.3 20.8 49.1c1.2 22.8-1.2 64.5-1.2 64.5M821.233 123.25c0 1.9 18.8 30.7 23.2 61.9 4.4 31.3 6.4 86.8 6.4 86.8M833.233 83.58s23.6 4 33.2 63.97c10 60 12.4 105.1 12.4 105.1"/><path d="M828.833 62.28s24.4 11.4 47.2 63.87c22.8 52.6 24.8 106.6 24.8 106.6"/></g><g transform="translate(-2.667 .05)"><path d="M682.1 46.43S737.2-.87 784.4.53c52.1 1.5 104.3 50.5 120.1 97.4 14.4 28.07 35 70.47 57.7 135.77 11.5 32.9 41.8 58 41.8 58l34-3.7 14-17.4-10 26.6-67.5-2.2s-14.1-21.8-23.8-51c-10.2-30.4-54.5-150.87-54.5-150.87-8.4-15.9-32-51.7-72.7-75.5-27.2-13-65.8-23.4-141.4 28.8z" stroke="#000"/><path d="M784.3 96.33l-17.6-20.8s-19.5-8.82-43.5-12.14c-12.6-18.01-27-24.16-39.7-23.04-33.4 14.89-54.5 37.57-53.6 52.78 0 0-2.8 18.57 8.4 33.97l14-21.7 18.4 11.9 113.6-20.97z" fill="#eac930"/><circle transform="matrix(4 0 0 4 2.4 -2.27)" cy="13.93" cx="192.8" fill="url(#d)" r="2.355"/><path d="M529.5 389.6l29.6 41.5c-21.2 2-42.8 27.6-47.2 60.4-79.2-57.6-28.8-146.7-28.8-146.7s83.2-57.5 157.2 23.1c-19.2 2.8-56 15.4-65.2 42l-8-1.4" fill="#949494" stroke="#000" stroke-width="6.8" stroke-linecap="round" stroke-linejoin="round"/><path d="M509.9 349.7c29.6-31.2 86.4-13.8 97.2 10.5-20.8-11.9-67.6-19.7-97.2-10.5z" fill="#f4f4f4"/></g><g fill="none"><g stroke-width="4" stroke="#000"><path d="M790.033 27.68c-19.2.9-36.4 10.4-49.2 23.5m148 75.77c-8-23.9-24.4-45.37-41.2-63.87-12.8-12.4-27.6-23.8-43.6-32.6"/><path d="M721.233 36.78s35.2-21.4 54.8-21.8c25.2-.6 50 11 71.2 24.8 8 5.3 19.6 21.3 19.6 21.3M779.633 97.17c-37.2 4.08-92.4 13.98-112.4 19.68l-16-10.7"/></g><path d="M646.433 86.38s10-19.65 19.6-25.8c9.6-6.15 30.1-14.67 30.1-14.67l2 .92c-2.9 0-17.6 6.28-17.6 6.28" stroke="#403000" stroke-width="2.8"/><path d="M718.833 108.75c24.4 16.4 32.4 47.6 32.4 75.6" stroke="#000" stroke-width="4"/></g><path d="M670.033 310.95l-7.2-16.2c26.8-28.2 55.2-69.1 67.6-124.5-2-21.7-2.4-27.7-33.2-59.2 76.4 30.9 23.2 167.6-27.2 199.9z" stroke="#000" stroke-width="4"/><g fill="none"><path d="M670.033 90.08l99.2-7" stroke="#5e3c00" stroke-width="2"/><path d="M686.033 66.18l-4-.16-.1 2.53 4.1-2.37z" stroke="#000" stroke-width="2.8" stroke-linejoin="round"/><path d="M696.933 88.81s21.6 1.73 32.4 3.52c10.2 1.71 28.2 5.53 28.2 5.53" stroke="#462e00" stroke-width="2"/><path d="M779.233 97.08s-5.7-12.61-16.2-22.5c-11.8-3.19-39.8-11.2-39.8-11.2" stroke="#000" stroke-width="1.6"/></g><g stroke="#000" stroke-width="4"><path d="M375 1239s-71.1 13-77.2 22c0 0 51 8 53.4 26 2.5 19-65.7-12-90.1-9-24.3 3-70 22-77.3 41-7.3 19 11.6-60 88.9-95-15.2-24-89.5-21-89.5-21s41.5-42 110.3-36l1.1 93 .3-107 160.6-12 55.8 19c22.6 17 39.6 41 37.8 53-1.8 12-175.3 25-174.1 26z" fill="url(#e)" transform="translate(-2.667 .05)"/><path d="M1320.333 1286.05v-45l72 16-72 29z"/><path d="M1301 1238s72 14 78 23c0 0-51 7-54 26-2 19 66-12 90-9 25 3 70 22 78 41 7 18-12-61-89-96 15-23 89-21 89-21s-41-42-110-36l-1 94v-108l-161-12-56 20c-22 17-39 40-38 53 2 12 176 25 174 25z" fill="url(#f)" transform="translate(-2.667 .05)"/></g><path d="M436.533 1441.35c32.3 3.8 45.1-57.2 57.6-96.8l-115.6 20.2c6.3 45.6 42.2 74.7 58 76.6z" stroke="#000"/><path d="M448.833 1373.65c12.3 19.2 13.2 42.9 1.9 53.2-11.3 10.3-30.3 3-42.7-16.1-12.3-19.2-30.3-55.6-19-65.8 11.3-10.3 47.4 9.6 59.8 28.7z" fill="#fecf39"/><path d="M1234.533 1441.35c-32.3 3.8-45.1-57.2-57.6-96.8l115.6 20.2c-6.3 45.6-42.2 74.7-58 76.6z" stroke="#000"/><path d="M1222.233 1373.65c-12.3 19.2-13.2 42.9-1.9 53.2 11.3 10.3 30.3 3 42.7-16.1 12.3-19.2 30.3-55.6 19-65.8-11.3-10.3-47.4 9.6-59.8 28.7z" fill="#fecf39"/><use xlink:href="#g" transform="matrix(-1 0 0 1 1660.665 0)" height="1656" width="1666"/><path d="M470.133 1162.05l-59.6-76c84.2-78 214.6-131.8 351.3-124.8l-1.4 89.8c-135.3-5-236.3 60-290.3 111z" fill="#fff" stroke="#000" stroke-width="9"/><path d="M557.333 911.85l29.7 32.8-122 105.4-14.9-9 107.2-129.2z" fill="#1d1d1d" stroke="#fff" stroke-width="17" stroke-linejoin="round"/><g id="g" stroke="#000"><path d="M1058.713 1079.05s-20.658 29.2 3.45 51.6c24.1 22.4 109.67 26.2 145.87 46.9s53.9 37.5 53.9 37.5l-15.5 10.3 13.3 11.2 15.9-6v-31s10.4 13.8 20.7 8.6c10.3-5.2 18.9-18.9 32.7-31 13.8-12 18.9-12 18.9-12-7.1-9.8-16.8-20.8-8.6-32.8v-5.1s-12 0-17.2-10.4c-5.1-10.3.1-12.4.1-12.4s-8.2-7.9-20-8.7c-13.6-.9-18 10.8-18 10.8s-15 29.7-32.2 31.4c-17.3 1.8-34-6.4-34-6.4l-159.32-52.5z" fill="#fdc238" stroke-width="9"/><g fill="none"><g stroke-width="3"><path d="M1286.433 1184.05l46.1-54.7M1280.833 1173.75l34.9-59.9M1220.133 1147.05s1.5 5.8.9 8.6c-.6 2.6-4.3 6.9-4.3 6.9M1239.033 1151.75s1.5 5.8.9 8.6c-.6 2.6-4.3 6.9-4.3 6.9M1332.633 1164.45s-5.2-3-6.8-5.3c-1.5-2.3-2-7.9-2-7.9M1322.733 1173.05s-5.2-3-6.8-5.3c-1.5-2.3-2-7.9-2-7.9M1310.233 1183.35s-5.2-3-6.8-5.3c-1.5-2.3-2-7.9-2-7.9M1298.133 1129.15s-5.2-3-6.8-5.3c-1.5-2.3-2-7.9-2-7.9M1292.133 1139.45s-5.2-3-6.8-5.3c-1.5-2.3-2-7.9-2-7.9M1334.733 1128.25s-5.2-3-6.8-5.3c-1.5-2.3-2-7.9-2-7.9M1322.233 1137.75s-5.2-3-6.8-5.3c-1.5-2.3-2-7.9-2-7.9M1314.033 1149.35s-5.2-3-6.8-5.3c-1.5-2.3-2-7.9-2-7.9"/></g><path d="M1083.923 1117.95s-9.42-6.3-11.49-11.2c-2.23-5.3.1-17.2.1-17.2" stroke-width="5"/></g><path d="M1340 1124c-3-1-13-4-15-14 0 0 13-16 28-16 16 1 19 28 19 28s-7-11-16-11c-8 0-16 13-16 13z" fill="#141414" transform="translate(-2.667 .05)"/><path d="M1345.333 1156.05c-3-1-10-6-10-15 0 0 15-11 28-7 14 4 10 28 10 28s-3-11-11-13-17 7-17 7z" fill="#141414" stroke-width=".887"/></g><path d="M561.063 419.15l680.37 667.6" stroke-miterlimit="3.8" fill="none" stroke="#fff" stroke-width="55"/><path style="text-indent:0;text-transform:none;block-progression:tb" d="M555.523 425.05l680.21 667.5 11.2-11.5-680.13-667.7" color="#000" fill="#debf40" stroke="#000" stroke-width="8"/><g transform="translate(-2.667 .05)" stroke="#000"><path d="M1195 1161l60-76c-84-77-215-131.5-351.6-124.5l1.4 89.5c135.2-5 236.2 61 290.2 111z" fill="#fff" stroke-width="9"/><path d="M853.3 44.83s24.4 11.4 47.2 63.87c22.8 52.6 40.2 103.6 40.2 103.6" fill="none" stroke-width="4"/><ellipse rx="9.421" ry="14.38" transform="matrix(.9982 -.9387 .9723 .9614 327.6 563.6)" cy="318.4" cx="-64.96" fill="#9d9d9d" stroke-width="2.18" stroke-linecap="round" stroke-linejoin="round"/></g><path d="M994.108 547.12c-11.86 2.207-26.763-8.29-26.763-8.29l207.562-207.939c-3.958 12.678-88.215 151.81-180.8 216.23z" fill="#949494" stroke="#000" stroke-width="7.08685826" stroke-linecap="round" stroke-linejoin="round"/><path d="M957.005 510.683c-1.867 6.937 9.22 27.169 9.22 27.169l207.473-207.437c-12.727 3.943-149.983 85.978-216.693 180.268z" fill="#f4f4f4" stroke="#000" stroke-width="7.08685826" stroke-linecap="round" stroke-linejoin="round"/><path d="M740.433 68.71l-22.6-4.9s-39.5 17.61-52.6 25.47c-14.8 8.9-28 37.67-28 37.67s-15.6-25.8-8.8-42.57c6.8-16.9 48-50.1 64.8-43.1 16.8 6.9 30 23.09 30 23.09" fill="none" stroke="#000" stroke-width="3.2"/><path d="M364.733 1248.05c206.5-43 688.6-65 943.6-1l-27 138c-261-83-689.7-56-899 3l-17.6-140z" fill="#ffc536" stroke="#000" stroke-width="10" stroke-linecap="round" stroke-linejoin="round"/><path d="M413.333 1345.05c227-37 594-35 838 2" fill="none" stroke="#ffc435"/><path d="M473.333 1136.05c68-64 158.3-99 257.2-100M612.533 1147.05c167 63 331.8 38 436.8-1" fill="none" stroke="#fff"/><g stroke="#000" stroke-width="4"><path d="M828.833 1108.78c69.5-135.5 140.5-118 140.5-375.5 0-257-45.5-150-140.5-375.1-95 225.1-140.5 118.1-140.5 375.1 0 257.5 71 240 140.5 375.5z" fill="#f6c82b" stroke-width="20"/></g><g transform="translate(-2.667 .05)"><path d="M831.8 1108.73c69.5-135.5 140.5-118 140.5-375.5 0-257-45.5-150-140.5-375.1-95 225.1-140.5 118.1-140.5 375.1 0 257.5 71 240 140.5 375.5z" fill="#f6c82b" stroke="#fff" stroke-width="15"/><path d="M831.8 1108.73c69.5-135.5 140.5-118 140.5-375.5 0-257-45.5-150-140.5-375.1-95 225.1-140.5 118.1-140.5 375.1 0 257.5 71 240 140.5 375.5z" fill="#f6c82b" stroke="#000" stroke-width="1.7000000000000002"/><ellipse id="h" cx="207.9" cy="125" rx="3.156" transform="translate(-112.3 -68.87) scale(4.548)" ry="5.434"/><use xlink:href="#h" transform="translate(-56.7 412.1) scale(1.068)" height="414.1" width="416.6"/><path id="j" d="M832.7 1110V787.9" fill="none" stroke="#000" stroke-width="6.4"/><ellipse cx="204.8" cy="-325.7" rx="10.52" transform="translate(627.8 620.7)" ry="25.25" fill="url(#i)" stroke="#000" stroke-linecap="round" stroke-linejoin="round"/><use xlink:href="#j" transform="translate(-1.1 -469.6)" height="414.1" width="416.6"/><ellipse cx="207.6" cy="179" rx="5.96" transform="matrix(7.617 0 0 7.446 -749.6 -618.3)" ry="10.7" fill="#010305"/><g fill="#fff"><path style="text-indent:0;text-transform:none;block-progression:tb" d="M834.9 315.1v161.2l1.6.4c2 .4 4.4 3.2 5.6 7.6 1.6 4.4 2.4 10 2.4 16 0 5.6-.8 11.2-2.4 15.6-1.2 4.4-3.4 6.4-5.6 7.6l-1.6.4V922.7l1.6.4c2 .4 4 3.2 5.6 7.2 1.6 4 2.4 9.2 2.4 14.8 0 5.2-1.2 10.8-2.4 14.8-1.6 4-3.6 6.4-5.6 6.8l-1.6.4V1109h4V969.5c3.2-1.6 5.6-4.4 6.8-8.4 1.6-4.8 2.8-10.4 2.8-16 0-6-.8-11.6-2.8-16.4-1.2-4-3.6-6.8-6.8-8.4v-394c3.2-1.6 5.6-4.8 7.2-9.2 1.6-4.8 2.4-10.8 2.4-16.8 0-6.4-.8-12.4-2.4-17.2-1.6-4.4-4-7.6-7.2-9.2V315.1h-4zM829.5 315.1v161.2l-1.6.4c-2 .4-4.4 3.2-5.6 7.6-1.6 4.4-2.4 10-2.4 16 0 5.6.8 11.2 2.4 15.6 1 3 4.2 6.1 7.2 8v398.8l-1.6.4c-2 .4-4 3.2-5.6 7.2-1.6 4-2.4 9.2-2.4 14.8 0 5.2 1.2 10.8 2.4 14.8 1.6 4 3.6 6.4 5.6 6.8l1.6.4V1109h-4V969.5c-3.2-1.6-5.6-4.4-6.8-8.4-1.6-4.8-2.8-10.4-2.8-16 0-6 .8-11.6 2.8-16.4 1.2-4 3.6-6.8 6.8-8.4v-394c-3.2-1.6-5.6-4.8-7.2-9.2-1.6-4.8-2.4-10.8-2.4-16.8 0-6.4.8-12.4 2.4-17.2 1.6-4.4 4-7.6 7.2-9.2V315.1h4z" color="#000" stroke="#000" stroke-width="1.4"/><ellipse cx="207.6" rx="5.96" cy="179" transform="matrix(6.743 0 0 6.592 -567.6 -465.3)" ry="10.7"/></g><g><ellipse cx="207.6" cy="179" rx="5.96" transform="matrix(5.928 0 0 6.101 -398.6 -377)" ry="10.7"/><ellipse cx="207.6" rx="5.96" cy="179" transform="matrix(4.832 0 0 5.249 -171 -224.5)" ry="10.7" fill="#f6c82b"/><ellipse cx="207.6" cy="179" rx="5.96" transform="matrix(3.168 0 0 3.644 174.4 62.83)" ry="10.7"/></g></g><path d="M615.833 1064.05l-9.2 98c106.9 41 325.9 52 450.7-5l-7-88c-123 70-354.5 46-434.5-5z" fill="#fff" stroke="#000" stroke-width="9"/><g><path d="M1042.333 1056.05l22 8-3 9c-3-1-20-7-22-8l3-9zM623.433 1051.05l-22 8 4.2 13c3.3-1 20-7 22.3-8l-4.5-13z" fill="#fff"/><path d="M465.333 1083.25c-3-3.8-3-4.9 1-8.8l-1-1-15 12.9 1 1c5-3.4 6-3.3 9 .5l21 24.2c2 2.3 2 4 1 5.1-1 .7-1 .5-3-.5-2-1.3-4-1.5-5-.3s-1 3.4 0 4.8c2 2.2 5 1.9 8-.7 6-4.9 6-11.4 0-17.9l-17-19.3M510.333 1053.25c-4-5.8-4-7.1 1-10.9l-1-1.1-13 9.1v1.1c5-2.7 7-2.1 11 3.6l10 15.3c3 3.8 4 6.3 4 8.6 1 3.8-2 8-6 11-4 2.8-8 3.3-11 1.7-2-1.1-4-2.9-7-6.5l-12-18.1c-3-4.1-3-5.2 1-8.7v-1.1l-16 11.1v1.1c5-2.7 6-2.5 9 1.6l12 17.7c7 9.8 15 11.3 25 4.6 6-4.3 9-9.2 8-14.6 0-3.3-1-6.3-4-10.7l-11-14.8M543.333 1022.75l-1 .7c0 1.5 0 2.5-1 3.1-1 .3-2 .6-3 .7-3 .3-6 1-7 2-3 1.3-5 3.8-6 6.6-2 3-1 6.2 0 9.3 3 4.9 7 7 16 7 6 .1 10 .9 13 2.5 1 .5 2 1.6 3 3.1 2 4.1 0 8.5-4 10.8-6 2.8-11 1.5-18-4.4l-2 .7 9 12 1-.7c0-1.2 0-2.4 1-2.9 1-.3 2-.6 3-.8 3-.3 6-1.1 8-2.3 7-3.7 10-11.4 7-17.7-3-5-8-7.2-19-7.4-8-.2-12-1.5-14-4.9-1-3.3 0-7 4-9 3-1.4 6-1.6 9-.5 3 1 5 2.2 8 5.3l1-.8-8-12.4M572.333 1014.45l13 32.2c2 5.5 1 6.5-4 8.8v1.3l19-7.2v-1.2c-6 1.8-7 1.3-9-3.5l-12-32.9 3-1.3c8-2.8 10-2.2 14 4.3l1-.6-4-10.8-37 13.8 4 11.1 2-.6c-1-7.6 0-9.4 7-12.1l3-1.3M616.333 1036.75c2 5 1 6-4 7.8v1.2l20-5.4-1-1.3c-5 1.3-7 .7-8-4.2l-8-29.5c-1-4.9-1-6 5-7.8l-1-1.2-19 5.4v1.3c6-1.3 7-.7 8 4.2l8 29.5M669.333 1001.55l-3-15.3-1 .3c0 1.5-1 2.5-3 2.7 0 .1-1 .1-3-.1-3-.5-7-.5-10 .1-5 1-11 4.1-14 8.5-4 5.1-6 11.9-4 19.3 1 6.4 4 11.8 8 15.1 5 3.7 12 5.2 18 4 8-1.3 14-5.7 17-11.9l-1-1c-4 5.7-8 8.5-14 9.5-4 .8-8 .1-12-2-4-2.6-7-8.4-9-15.9-2-12.3 3-21.4 13-23.1 4-.7 8 .1 11 2.3 2 1.8 4 3.6 6 7.7l1-.2M718.333 1017.65l-2 .1c-3 7.7-5 9.5-15 10.1l-2 .1c-3 .2-6 0-7-.5v-2.1l-1-17 10-.6c6-.3 7 .5 8 6.2l2-.1-1-16-2 .1c0 2.8 0 3.9-1 4.9-1 1.2-3 1.9-6 2.1l-11 .6-1-15.3c0-1.9 1-2.4 3-2.5l9-.5c8-.5 9 .5 11 6.6l2-.1-1-9.8-37 2.1v1.3c5 .1 6 1 7 5.9l1 30.5c1 4.9 0 6-5 6.6v1.3l37-2.2 2-11.8"/></g><g><path d="M928.433 1028.05c129.9 12 168.9 31 268.9 102" fill="none" stroke="#fff"/><path d="M967.833 1020.05c-1.4 3-2.5 4-3.6 5-2.6 3-6.4 3-11.9 3l-4.5-1c-4.8 0-5.7-1-5.4-3l3.4-31.6c.5-4.7 1.5-5.5 6.8-5.3l.2-1.3-18.8-2-.2 1.3c4.9.9 5.7 1.9 5.2 6.6l-3.2 29.3c-.5 5-1.5 6-6.4 6l-.2 1 35.9 4 4.4-11-1.7-1M977.733 1026.05c-.7 5-1.7 6-7.3 5l-.2 1 19.7 3 .2-1c-5.4-1-6.4-2-5.7-7l4.2-29.4c.7-4.8 1.7-5.5 7.3-5l.2-1.3-19.7-2.8-.2 1.3c5.6 1.1 6.3 2 5.6 6.9l-4.1 29.3M1001.333 991.75l-1 1.3c6 1.4 7 2.3 6 7l-6 29c-1 5-2 6-7.8 5l-.3 1 22.1 5c5 1 10 0 13-2 3-1 5-4 5-7 1-3 0-6-2-8-1-2-3-3-7-5 4 0 5-1 7-2s4-3 4-6c2-7-4-12.3-15-14.6l-18-3.7m8 24.3c7 2 10 3 12 4 3 2 4 5 4 10-1 3-3 5-6 6-2 1-5 1-9 0-4 0-4-1-4-3l3-17m1-2l3-15.3c0-1.3 1-1.8 2-1.6l3 .5c7 1.6 10 5.4 9 11.4-1 5-5 7-11 6l-6-1M1076.333 1045.05h-1c-6 5-9 6-18 3h-2c-3-1-6-3-6-3v-2l5-16 10 3c5 2 6 3 5 8l2 1 4-15h-1c-1 2-2 3-3 4-1 0-3 0-6-1l-10-3 5-14c0-2 1-2 2-1l9 2c7 3 8 4 8 10l1 1 3-9-34-11v1c4 2 5 3 3 7l-9 29c-1 4-2 5-7 4v1l34 11 6-10M1114.333 1074.05c-2-1-3-3-4-5l-5-22c5 1 7 2 10 1 2-1 5-3 6-6 1-2 1-5 1-7-1-4-6-8-11-11l-17-7-1 1c5 2 5 3 3 8l-13 26c-2 5-3 5-8 3v2l17 8v-2c-4-2-5-3-3-8l6-12 3 2 6 25 10 5v-1m-11-48c1-1 2-2 4 0 8 3 10 7 7 13-1 3-4 5-6 5-4 0-6 0-12-3l7-15M1150.333 1049.05l-17 29c-3 4-4 5-9 2l-1 1 17 10 1-1c-5-3-5-4-3-8l18-30 3 2c7 4 7 6 5 13l1 1 6-10-33-20-6 10 2 1c5-6 7-6 13-2l3 2M1213.333 1087.05l-12-8-1 1c3 2 4 3 3 4l-2 2-17 7v-18c0-2 1-3 1-3 1-1 2-1 4 0 0 0 1 0 1 1l1-1-16-11v1c2 2 2 3 3 15v16l-7 9c-3 5-4 5-9 2l-1 1 17 12 1-2c-5-3-5-4-3-8l8-11 16-7c7-3 9-3 12-1l1-1"/></g><g><path d="M645.332 1127.85c2 .7 3 1.1 5 1.7 5 1.7 9 2.2 12 1.6 5-.8 8-4 10-8.3 1-2.7 1-5.5 0-8-2-3.8-7-7.5-13-9.6l-18-5.8v1.2c5 2.2 5 3.1 4 7.8l-10 28.3c-2 5.5-3 6-8 4.8v1.2l18 6.2 1-1.3c-5-1.9-6-3.2-5-7.9l4-11.9m7-19.7c1-1.7 1-2 3-1.4 9 2.9 12 7.4 10 14.1-2 6.3-7 8.3-15 5.8-1-.4-2-.8-4-1.5l6-17"/><path d="M707.332 1164.35c-3-.8-4-1.8-5-4.6l-10-20.3c5 .2 7-.1 10-1.3 2-1.3 4-3.8 5-6.9 1-2.9 0-5.6-1-8-2-3.3-7-6.4-13-8l-19-4.6v1.3c5 1.8 5 2.7 4 7.4l-7 29c-1 5.6-2 6.2-7 5.4l-1 1.3 19 4.6v-1.3c-5-1.6-6-2.7-4-7.5l3-13.2 4 .8 10 24.5 11 2.7 1-1.3m-21-45.7c0-1.9 1-2.2 4-1.6 8 2.1 11 6 10 12.3-1 3.3-3 5.8-6 6.4-4 1-6 .8-13-.6l5-16.5M739.332 1123.55c-13-2-24 6.4-26 20.1-1 6.4 0 12.9 3 17.5 3 4.9 9 8.5 15 9.4 13 2.1 24-6 26-19.7 1-6.7 0-12.8-3-17.5-3-5.4-9-8.7-15-9.8m-1 2.5c3 .5 6 2.2 9 4.8 3 3.9 4 10.6 3 18.7-1 4.1-3 8.6-5 12-1 1.6-2 3.1-4 4.4-3 2-6 2.8-9 2.2-4-.5-6-2.2-8-4.7-4-3.7-5-10.9-4-18.5 2-6.9 5-13.2 8-16 3-2.5 7-3.5 10-2.9M791.332 1129.25l-2-.2c0 1.6-1 2.3-2 2.2-1-.1-2-.4-3-1.1-3-1.1-5-1.9-7-2.1-3-.2-7 .7-9 2.6-3 1.9-4 4.7-4 8.3-1 5.5 2 9.6 9 14.2 5 3 8 6.1 10 8.9 1 .9 1 2.4 1 4.1-1 4.6-4 7.5-9 7.1-7-.5-11-4.7-13-13.3l-2-.1 1 14.7 1 .1c1-1.3 2-2.2 3-2.1 0 .1 1 .4 3 1 2 1.3 5 2 8 2.2 8 .7 14-4.3 15-11.4 0-5.6-3-10.4-12-16-7-4.5-9-7.8-9-11.5 0-3.8 3-6.2 8-5.8 3 .2 5 1.7 8 4.4 2 2.4 2 4.2 3 8.4l2 .1v-14.7M809.332 1156.45c1 .2 3 .2 4 .3 6 .1 9-.5 12-2.2 5-2.1 7-6.3 7-10.8 0-2.9-1-5.5-2-7.6-3-3.1-9-5.1-16-5.2l-18-.3v1.3c5 .6 6 1.3 6 6.3l-1 29.9c0 5.8 0 6.4-6 6.8v1.3l20 .4v-1.3c-6-.3-7-1.3-7-6.4l1-12.5m0-20.7c0-1.9 0-2.3 2-2.3 10 .2 14 3.5 14 10.6 0 6.7-5 10-12 9.9-2 0-3-.1-4-.3v-17.9"/><path d="M873.332 1163.55l-2 .1c-3 7.6-6 9.4-16 9.8l-1 .1c-4 .1-7-.1-7-.6-1-.2-1-.9-1-2.1l-1-17 11-.5c6-.2 7 .6 8 6.3h1v-16h-2c0 2.9 0 3.9-1 4.9-1 1.2-3 1.9-6 2l-11 .5v-15.3c0-2 0-2.4 2-2.5l9-.4c8-.3 9 .7 11 6.8l2-.1-1-9.8-37 1.6v1.3c6 .2 7 1.1 7 5.9l1 30.6c0 4.9-1 5.9-6 6.5v1.3l38-1.6 2-11.8M920.332 1169.05c-3 .1-4-.4-7-2.5l-16-15.9c5-1.4 7-2.4 9-4.5 2-2 3-5.1 3-8.3-1-2.9-2-5.4-4-7.2-3-2.5-9-3.7-15-3l-19 2v1.3c5 0 6 .7 7 5.6l3 29.7c0 5.7 0 6.6-5 7.5v1.3l19-2v-1.3c-6 .2-7-.6-7-5.5l-2-13.5 4-.6 19 19.4 11-1.1v-1.4m-36-35.7c0-2 1-2.6 4-2.9 8-.9 13 1.6 13 8.1 1 3.4-1 6.4-3 8-3 2.1-5 2.8-12 3.6l-2-16.8M927.332 1161.45c1 5.1 0 6-5 7.1v1.3l20-3.1v-1.3c-6 .7-7-.1-8-5.1l-5-30.3c0-5 1-6 6-7.2v-1.2l-20 3.1v1.3c6-.6 7 0 8 5.1l4 30.3M952.332 1121.35l7 33.9c1 5.7 0 6.6-5 8.1v1.3l20-4v-1.2c-6 .8-7 .1-8-4.8l-7-34.6 4-.7c7-1.6 9-.7 12 6.5l2-.3-3-11.5-38 7.6 2 11.6 1-.3c1-7.7 2-9.3 9-10.8l4-.8"/><path d="M1020.332 1102.15l-15 3.9 1 1.2c3-.8 4-.6 5 1v2.7l-6 17.6-14-12.2c-1-.9-2-1.9-2-2.6 0-1.2 1-2.1 3-2.8 0 0 1-.2 2-.5l-1-1.2-19 4.9 1 1.2c3-.7 4 0 13 7.7l12 10.5 4 11.6c1 5.8 1 6.6-5 8.5v1.3l20-5.4v-1.2c-6 1.4-7 .8-8-4.3l-4-12.9 6-17.7c3-6.9 4-8.8 7-10v-1.3"/></g><g><path d="M453.94 1328.306c-3.027.314-4.036-.313-6.054-3.136l-15.135-21.01c4.036-2.196 6.054-3.764 8.072-6.743 1.01-2.98 2.018-7.213 2.018-11.603-1.009-4.077-2.018-7.37-4.036-9.879-2.018-3.293-8.072-4.547-13.117-3.136l-17.153 3.92v1.725c5.045-.314 5.045.627 6.054 7.37l4.036 40.924c1.01 7.84 0 9.095-4.036 10.82v1.724l17.153-3.92v-1.881c-5.045.627-6.054-.314-7.063-7.213l-2.018-18.66 4.036-.94 17.153 25.715 10.09-2.195v-1.882m-33.297-47.353c0-2.666 0-3.607 3.027-4.234 7.063-1.725 11.1 1.568 12.108 10.349 0 4.86 0 9.094-2.018 11.446-3.027 2.98-5.045 4.077-11.099 5.645l-2.018-23.206M489.255 1306.982l-2.018.313c-2.018 10.82-4.036 13.642-13.117 15.367l-1.009.313c-3.027.47-6.054.627-7.063 0v-2.822l-2.018-23.52 9.081-1.882c5.045-.94 6.054.157 8.072 7.84l1.01-.313-2.019-21.952-1.009.313c0 3.92 0 5.331-1.009 6.9-1.009 1.724-2.018 2.822-5.045 3.449l-9.08 1.725-2.019-21.011c0-2.666 0-3.293 2.018-3.607l8.072-1.568c7.063-1.411 8.072-.313 10.09 8.154l1.01-.314-1.01-13.641-32.288 6.428v1.725c5.045-.313 6.054.94 6.054 7.527l3.027 42.179c1.01 6.585 0 8.153-4.036 9.565v1.724l33.297-6.428 1.01-16.464M502.372 1293.183c1.01-.157 2.018-.157 4.036-.47 5.045-.784 8.072-2.352 10.09-5.018 4.036-3.606 5.045-9.721 5.045-16.15 0-3.92-1.009-7.37-3.027-9.879-3.027-3.763-8.072-5.644-14.126-4.547l-16.144 2.666v1.725c5.045 0 5.045.94 6.054 7.683l3.027 41.238c0 7.997 0 8.938-5.045 10.506v1.725l17.153-2.823v-1.725c-5.045.47-6.054-.784-6.054-7.683l-1.009-17.248m-2.018-28.537c0-2.666 0-3.293 2.018-3.607 8.072-1.411 12.108 2.509 12.108 12.23 1.01 9.252-2.018 14.583-9.08 15.68-1.01.314-2.019.314-4.037.314l-1.009-24.617M559.885 1263.078c0-9.722 0-11.447 5.045-13.015v-1.881l-14.126 2.038v1.725c5.045 0 6.054 1.881 7.063 11.446l1.01 25.715c0 6.43 0 10.192-1.01 13.172-1.009 4.704-5.045 8.31-9.08 8.937-5.046.47-8.073-1.411-10.09-5.645-1.01-2.822-1.01-6.272-2.019-12.23l-2.018-30.576c0-6.9 1.01-7.997 6.054-9.251l-1.009-1.882-17.153 2.352v1.882c5.045-.157 6.054.784 6.054 7.683l2.018 29.792c1.01 16.464 6.054 23.677 17.153 22.266 6.054-.941 11.1-4.861 13.117-11.76 1.01-4.234 1.01-8.624 1.01-15.994l-2.019-24.774M567.957 1247.868v1.882c5.045-.157 6.054.784 6.054 7.84l2.018 42.492c1.01 7.056 0 8.31-5.045 9.095v1.881l20.18-2.195c5.045-.627 9.081-2.98 11.1-6.585 2.017-3.293 3.026-7.684 3.026-12.23 0-4.234-1.009-7.998-3.027-10.506-2.018-2.352-4.036-3.293-8.072-4.39 3.027-1.569 4.036-2.666 6.054-4.862 1.01-2.195 2.018-5.958 2.018-9.878-1.009-10.662-6.054-15.523-17.153-14.426l-17.153 1.882m14.126 30.733c5.045-.627 8.072-.47 11.1.784 3.026 1.881 5.044 5.488 5.044 11.446 0 5.175-1.009 9.095-3.027 11.603-2.018 1.882-4.036 2.823-8.072 3.293-3.027.314-4.036-.313-4.036-3.45l-1.009-23.676m-1.009-3.763l-1.009-21.952c0-1.882 1.01-2.823 2.018-2.98l2.018-.313c7.063-.784 11.1 3.45 12.108 11.917 0 7.526-3.027 12.073-9.08 12.7l-6.055.628M645.65 1287.068c-1.009 3.606-2.018 5.958-3.027 7.683-2.018 3.92-5.045 5.959-10.09 6.272l-4.036.47c-5.045.314-5.045-.156-6.054-3.45l-1.009-45.157c0-6.9 0-8.31 5.045-9.095v-1.881l-17.153 1.568v1.724c5.045.157 5.045 1.412 6.054 8.154l1.01 42.493c0 6.585 0 8.153-5.046 8.937v1.882l33.297-2.822 2.018-16.935-1.009.157M654.731 1292.556c1.01 7.213 0 8.467-5.045 9.094v1.725l18.162-1.254v-1.882c-5.045.157-6.054-1.097-6.054-8.153l-2.018-42.336c0-7.056 1.01-8.31 6.054-9.095v-1.725l-18.162 1.255v1.881c5.045 0 6.054 1.098 6.054 8.154l1.01 42.336M706.19 1256.806l-1.009-21.639-2.018.157c0 2.038-1.009 3.136-2.018 3.293-1.009 0-2.018-.157-3.027-.784-3.027-1.255-6.054-1.882-9.08-1.725-5.046.314-10.09 3.45-13.118 8.938-4.036 6.272-6.054 15.21-6.054 25.715 0 8.937 2.018 17.09 5.045 22.265 4.036 6.116 10.09 9.408 16.144 9.095 7.063-.47 13.117-5.175 16.144-13.171l-1.009-1.725c-4.036 7.056-8.072 10.192-13.117 10.505-4.036.157-8.072-1.568-10.09-5.017-4.036-4.39-6.054-13.015-6.054-23.52-1.009-17.405 5.045-28.851 14.126-29.322 3.027-.157 6.054 1.568 9.081 5.331 2.018 2.823 3.027 5.488 4.036 11.604h2.018M746.55 1233.6c-12.108.47-20.18 14.425-20.18 33.711 0 8.938 3.027 17.562 6.054 23.05 4.036 5.801 9.081 9.408 14.126 9.25 12.108-.313 20.18-13.954 20.18-33.24 0-9.409-2.018-17.562-5.045-23.207-4.036-6.429-9.08-9.722-15.135-9.565m0 3.45c3.027 0 6.054 1.568 8.072 4.547 3.027 4.547 5.045 13.485 5.045 24.931 0 5.645 0 12.23-2.018 17.248 0 2.509-1.009 4.86-2.018 7.056-2.018 3.45-5.045 5.331-8.072 5.331-3.027.157-6.054-1.568-8.072-4.39-3.027-4.39-6.054-13.955-6.054-24.618 0-9.721 2.018-18.972 4.036-23.52 3.027-4.233 6.054-6.428 9.081-6.585M799.018 1275.151v-22.109H797c0 7.684-2.018 9.095-6.054 9.095l-9.08.157v-21.168c0-2.666 0-3.293 2.017-3.293l8.072-.157c7.063 0 8.072 1.411 9.081 9.878h2.018l-1.009-13.641-32.288.47v1.725c5.045.627 5.045 1.882 5.045 8.624l1.01 41.395c0 7.997-1.01 9.251-6.055 9.722v1.881l17.153-.313v-1.725c-4.036-.314-5.045-1.725-5.045-8.624v-20.854l9.081-.157c5.045 0 6.054 1.41 6.054 9.094h2.018M846.441 1232.815h-1.009c0 2.195-1.009 3.136-2.018 3.136s-2.018-.313-3.027-1.097c-2.018-1.412-4.036-2.196-6.054-2.196-3.027 0-5.045 1.568-7.063 4.39-3.027 2.98-4.036 6.9-4.036 11.918 0 7.683 3.027 13.014 10.09 18.659 4.036 3.763 7.063 7.683 9.081 11.29 0 1.254 1.01 3.292 1.01 5.644 0 6.272-3.028 10.663-8.073 10.663s-9.08-5.332-12.108-17.092h-2.018l2.018 20.384h2.018c0-1.881 0-3.136 1.01-3.136 1.008 0 2.017.314 3.026 1.098 2.018 1.411 5.045 2.195 7.063 2.195 7.063 0 13.117-7.37 13.117-17.248 0-7.84-3.027-14.112-11.099-21.011-7.063-5.645-9.08-9.878-9.08-14.896 0-5.331 2.017-8.938 6.053-8.938 3.027 0 5.045 1.882 7.063 5.332 2.018 3.136 3.027 5.644 4.036 11.29h2.018l-2.018-20.385M875.702 1233.286c-11.099-.157-20.18 13.328-20.18 32.614 0 8.938 2.018 17.718 5.045 23.363 4.036 6.115 9.081 9.879 14.126 10.035 12.108.314 21.19-12.857 21.19-32.144 0-9.408-2.019-17.561-5.046-23.363-4.036-6.742-9.08-10.349-15.135-10.505m0 3.45c3.027.156 6.054 1.88 8.072 5.017 3.027 4.704 5.045 13.798 5.045 25.245 0 5.644-1.009 12.23-2.018 17.09-1.009 2.353-2.018 4.705-3.027 6.9-2.018 3.293-5.045 5.018-8.072 4.86-3.027 0-6.054-1.88-8.072-4.86-3.027-4.39-5.045-14.112-5.045-24.774 0-9.722 2.018-18.973 5.045-23.364 2.018-4.076 5.045-6.115 8.072-6.115M936.242 1251.004c0-9.878 1.01-11.29 6.054-12.074v-1.724l-14.126-.628v1.725c4.036.784 5.045 2.98 5.045 12.544v25.715c0 6.586-1.009 10.192-2.018 13.015-2.018 4.547-6.054 7.37-10.09 7.056-5.045-.157-8.072-2.51-9.08-7.056-1.01-3.136-2.019-6.743-1.01-12.701v-30.733c0-6.742 1.01-7.84 6.054-8.31v-1.725l-17.153-.784v1.725c4.036.784 5.045 1.881 5.045 8.937l-1.009 29.792c0 16.464 5.045 24.618 15.135 25.088 7.063.314 12.108-2.822 14.126-9.25 2.018-3.92 2.018-8.311 2.018-15.68l1.01-24.932M959.45 1242.223l-2.019 47.824c0 7.997 0 9.095-6.054 9.251v1.725l18.162 1.098v-1.725c-5.045-.784-6.054-2.038-5.045-8.938l1.01-48.921 3.026.313c7.063.314 8.072 2.196 10.09 12.701l1.01.157V1239.4l-34.307-2.039-1.009 16.15 1.01.158c2.017-10.35 4.035-12.074 10.09-11.604l4.035.157M993.755 1269.506v-18.502c1.01-6.9 1.01-7.997 6.054-8.154v-1.881l-17.153-1.411v1.881c5.045 1.098 5.045 2.195 5.045 8.938l-1.009 41.395c0 7.997-1.009 9.094-6.054 9.251v1.882l17.153 1.254v-1.725c-4.036-.94-5.045-2.352-5.045-9.094l1.01-19.6 18.161 1.411v18.66c-1.009 7.996-1.009 9.094-6.054 9.25v1.725l17.153 1.412v-1.882c-5.045-.94-6.054-2.195-5.045-8.938l1.01-42.492c0-6.9 1.008-7.84 6.053-8.154v-1.725l-17.153-1.411v1.725c4.036 1.097 5.045 2.195 5.045 9.094l-1.009 18.503-18.162-1.412M1069.43 1246.143l-1.009-.157c0 2.196-1.009 3.136-2.018 2.98-1.009 0-2.018-.47-3.027-1.412-2.018-1.568-4.036-2.508-6.054-2.822a9.689 9.689 0 00-8.072 3.606c-2.018 2.823-3.027 6.743-3.027 11.604-1.009 7.683 2.018 13.328 8.072 19.6 5.045 4.233 8.072 8.467 9.081 12.23 0 1.254 1.01 3.293 1.01 5.645-1.01 6.272-4.037 10.349-8.073 9.878-6.054-.47-9.08-6.115-12.108-18.189l-1.009-.156 1.01 20.54 1.008.157c0-1.881 1.01-3.136 2.018-2.98 0 0 1.01.471 3.027 1.255 2.018 1.725 4.036 2.666 7.063 2.98 7.064.784 12.109-6.272 13.118-15.994 0-7.84-3.028-14.426-11.1-22.109-6.053-6.115-8.071-10.662-8.071-15.837 0-5.174 3.027-8.467 7.063-8.153 2.018.313 5.045 2.352 7.063 6.115 2.018 3.136 2.018 5.802 3.027 11.446l2.018.157-1.01-20.384M1113.826 1266.84c0-9.72 1.01-11.132 6.054-11.446v-1.881l-14.126-1.725v1.725c5.045 1.254 5.045 3.45 5.045 13.014l-1.009 25.715c-1.009 6.43-1.009 10.036-2.018 12.701-2.018 4.39-6.054 6.9-11.099 6.272-4.036-.47-7.063-3.136-8.072-7.84-1.009-3.136-2.018-6.742-1.009-12.7l1.01-30.577c1.008-6.899 1.008-7.84 6.053-7.84v-1.881l-17.152-2.195v1.881c5.045 1.098 5.045 2.352 5.045 9.251l-2.018 29.792c0 16.464 4.036 24.932 14.126 26.186 7.063.784 12.108-1.882 15.135-8.154 1.009-3.763 2.018-8.153 2.018-15.366l2.018-24.931M1124.925 1307.295c-1.009 6.9-1.009 7.997-6.054 7.84v1.725l17.153 2.666c7.063 1.097 14.126-1.098 18.162-5.959 4.036-5.017 7.063-13.171 7.063-22.422 1.01-8.467 0-16.15-3.027-21.952-4.036-7.213-11.099-11.603-19.17-12.858l-16.145-2.509v1.882c4.036 1.411 5.045 2.352 4.036 9.408l-2.018 42.18m9.081-44.375c0-2.98 1.01-3.763 3.027-3.293 5.045.784 9.081 2.822 12.108 6.586 4.036 5.801 6.054 14.425 6.054 24.617-1.009 11.29-4.036 18.973-9.08 22.58-3.028 2.351-7.064 2.979-12.109 2.195-3.027-.314-3.027-1.412-3.027-4.39l3.027-48.295M1205.645 1329.247c-3.027-.784-4.036-1.881-5.045-9.251l-11.099-56.762-2.018-.156-16.144 44.374c-4.036 13.171-5.045 14.582-8.072 14.269v1.725l12.108 2.195v-1.725c-3.027-.627-4.036-2.038-4.036-4.704 0-1.098 0-2.509 1.01-3.606l3.026-10.663 16.144 2.823 2.018 9.564c1.01 2.666 1.01 5.332 1.01 6.586 0 2.352-2.019 2.98-5.046 2.509v1.725l16.144 2.822v-1.725m-28.252-28.067l9.081-24.774 5.045 27.283-14.126-2.51M1243.987 1339.91l4.036-49.863c0-5.645 1.01-8.937 2.018-10.035 1.01-.784 2.018-.94 5.045-.784v-1.882l-14.126-2.979-1.009 1.882c3.027.784 3.027 1.254 4.036 2.352 1.01 1.568 2.018 5.017 1.01 10.976l-3.028 31.987-19.17-50.803-10.09-2.195v1.724c2.017.628 3.026 1.568 5.044 6.43l-4.035 41.865c0 9.721-1.01 11.446-7.064 10.976v1.725l15.135 2.979v-1.725c-5.045-1.411-6.054-3.763-5.045-13.328l3.027-37.162 22.198 57.703 2.018.157"/></g></svg>