<svg xmlns="http://www.w3.org/2000/svg" width="250" height="360"><path data-name="Tracé 20" d="M241.763 178.875c0 95.272-52.296 172.636-116.762 172.636-64.466 0-116.763-77.364-116.763-172.636C8.238 83.96 60.534 6.238 125 6.238c64.113.358 116.763 77.722 116.763 172.637z" fill="#fff"/><path data-name="Tracé 26" d="M132.165 228.302s.358-7.163 5.014-8.596a9.09 9.09 0 018.238 1.79s-2.507-6.805 1.79-10.028c4.298-3.223 7.164-1.791 7.522-1.791-.358-.359-3.581-4.656-2.507-9.313 1.075-5.014 7.522-5.73 7.522-5.73s-6.448-2.144-6.448-7.521c0-5.014 4.656-8.238 5.014-8.597-.359 0-6.089 1.432-8.238-3.94a10.835 10.835 0 011.075-10.032c-.36.359-5.014 3.582-8.955 0-2.865-2.865-3.581-6.806-3.223-8.596-1.074 1.074-3.581 3.581-6.447 3.223-5.73-.359-7.521-6.447-7.521-6.447s-1.791 6.088-7.522 6.447c-2.866.358-5.373-2.149-6.447-3.223.358 1.79-.358 5.73-3.223 8.596-3.94 3.582-8.596.359-8.954 0a10.835 10.835 0 011.074 10.032c-2.15 5.372-7.88 3.94-8.238 3.94.358.359 5.014 3.583 5.014 8.597 0 5.377-6.448 7.52-6.448 7.52s6.447.717 7.522 5.731c1.074 4.657-2.149 8.954-2.507 9.313.358 0 3.224-1.432 7.522 1.79 4.297 3.224 1.79 10.03 1.79 10.03a9.09 9.09 0 018.238-1.791c4.656 1.433 5.014 8.596 5.014 8.596s3.582-5.372 7.165-5.372c3.582 0 7.164 5.372 7.164 5.372z" fill="#ffce15"/><g data-name="Groupe 26"><path data-name="Tracé 23" d="M125 0C56.232 0 0 80.555 0 180s55.874 180 125 180 125-80.555 125-180S193.773 0 125 0zm0 351.802C60.53 351.802 8.238 274.81 8.238 180 8.238 85.545 60.534 8.198 125 8.198c64.466 0 116.762 76.991 116.762 171.802 0 94.81-52.65 171.802-116.762 171.802z" fill="#156c52"/></g><g data-name="Groupe 27"><path data-name="Tracé 27" d="M125.359 186.038c0-5.014-3.223-7.88-8.597-7.88h-11.46v24.714h5.372v-8.596h4.297l4.303 8.596h6.089l-4.66-9.67a7.007 7.007 0 004.656-7.164zm-14.685-2.865h6.088c2.15 0 3.223 1.075 3.223 2.866 0 1.79-1.075 2.865-3.223 2.865h-6.088z"/><path data-name="Tracé 28" d="M127.15 178.159v5.372h7.163v19.341h5.371v-19.341h6.805v-5.372z"/></g><g data-name="Groupe 28"><path data-name="Tracé 29" d="M54.084 71.067l7.163 7.163-1.432 1.075-7.164-7.164-1.433 1.433-1.074-1.075L54.44 68.2l1.075 1.075z"/><path data-name="Tracé 30" d="M66.978 72.857l-4.656-2.507-1.075.72 3.223 3.581-1.074 1.072-7.521-8.597 2.507-2.149c1.432-1.075 2.865-1.432 4.656.359a3.42 3.42 0 01.72 3.581l5.013 2.866zm-7.88-6.447l-1.074 1.075 2.15 2.507 1.074-1.075a1.498 1.498 0 000-2.507 1.343 1.343 0 00-2.15 0z"/><path data-name="Tracé 31" d="M72.708 67.843l-2.15-1.791-2.149 1.432 1.432 2.865-1.43 1.071-4.657-10.74 1.432-1.075 9.313 7.521zm-5.014-4.298c-.719-.359-1.432-1.432-1.79-1.791a11.924 11.924 0 011.074 2.15l.72 1.79 1.431-1.075z"/><path data-name="Tracé 32" d="M77.006 64.978l-1.075.72-8.954-7.883 1.432-1.075 4.298 3.94 1.79 1.791a6.052 6.052 0 00-1.074-2.15l-2.15-5.372 1.435-1.074z"/><path data-name="Tracé 33" d="M83.453 61.038l-2.15-2.15-2.149 1.433 1.075 2.865-1.432.72-3.582-11.462 1.432-.719 8.238 8.597zm-4.656-5.014c-.359-.72-1.433-1.432-1.791-1.79a22.826 22.826 0 01.719 2.506l.72 1.79 1.431-1.074z"/><path data-name="Tracé 34" d="M85.96 59.605L80.587 49.22l1.433-.719 5.372 10.387z"/><path data-name="Tracé 35" d="M89.184 58.172l-4.656-10.384 1.432-.72 3.94 8.955 3.223-1.432.72 1.432z"/></g><g data-name="Groupe 29"><path data-name="Tracé 36" d="M162.25 53.516l-1.075-.72-1.791 4.299-1.432-.72 4.656-10.38 2.865 1.431a2.933 2.933 0 011.433 4.298c-1.433 2.15-3.223 2.508-4.657 1.792zm1.79-4.656l-1.074-.72-1.433 3.224 1.075.719a1.597 1.597 0 002.15-1.075c.715-1.074.357-1.79-.718-2.148z"/><path data-name="Tracé 37" d="M167.263 61.395l.72-2.865-2.15-1.075-2.15 2.507-1.432-.72 7.878-8.591 1.432.719-2.864 11.459zm2.15-6.447a9.111 9.111 0 00.719-2.507c-.359.359-1.075 1.433-1.791 2.15l-1.078 1.432 1.791.72z"/><path data-name="Tracé 38" d="M176.935 55.664l-5.373 8.593-1.432-.72 5.372-8.596-1.79-1.075.719-1.432 5.013 3.223-.719 1.432z"/><path data-name="Tracé 39" d="M178.01 68.56l1.431-5.014-1.074-.72-2.866 3.943-1.432-1.075 6.806-9.312 2.507 1.79c1.432 1.075 2.149 2.507.719 4.298-1.075 1.432-2.15 1.79-3.223 1.432l-1.794 5.374zm4.655-8.954l-1.432-1.075-2.15 2.864 1.076.72a1.535 1.535 0 002.506-.359c1.074-1.077.717-1.793 0-2.151z"/><path data-name="Tracé 40" d="M180.516 70.35l7.163-8.955 1.075 1.075-7.163 8.954z"/><path data-name="Tracé 41" d="M183.382 72.857l7.879-8.596 3.936 3.582-1.075 1.074-2.865-2.507-2.15 2.15 1.791 1.79-1.074 1.075-1.791-1.79-2.507 2.865 2.865 2.865-.719 1.075z"/></g><g data-name="Groupe 30"><path data-name="Tracé 42" d="M102.794 45.636l-2.507-11.103 1.433-.358 2.149 9.67 3.581-.72.36 1.433z"/><path data-name="Tracé 43" d="M109.241 44.558l-1.79-11.457 1.432-.359 1.79 11.461z"/><path data-name="Tracé 44" d="M116.047 43.485l-2.866.359-1.074-11.455 2.865-.359c1.791-.358 3.223.72 3.582 2.866a2.788 2.788 0 01-1.075 2.507 2.386 2.386 0 011.791 2.507 3.835 3.835 0 01-3.223 3.575zm-1.433-10.025h-1.433l.36 3.223h1.431a1.644 1.644 0 001.433-1.791c0-1.075-.717-1.432-1.791-1.432zm.719 4.656h-1.435l.358 3.582h1.432c1.075 0 1.433-.72 1.433-2.15 0-1.075-1.074-1.433-1.791-1.433z"/><path data-name="Tracé 45" d="M120.703 43.129l-.358-11.461h5.372V33.1h-3.94v3.223h2.507v1.432h-2.507v3.94h3.94v1.433z"/><path data-name="Tracé 46" d="M132.164 43.129l-1.432-5.014h-1.433l-.359 5.014h-1.432l.72-11.461 3.222.358c1.791 0 3.223 1.075 2.866 3.223a2.503 2.503 0 01-2.15 2.866l1.43 5.368zM131.09 33.1h-1.433l-.358 3.223h1.432c1.075 0 1.79-.358 1.79-1.432.36-1.074-.357-1.432-1.431-1.791z"/><path data-name="Tracé 47" d="M139.686 34.176l-1.433 9.666-1.432-.359 1.432-9.67-2.507-.359.358-1.432 5.731.72-.358 1.432z"/><path data-name="Tracé 48" d="M141.477 44.562l2.507-11.103 5.372 1.074-.358 1.433-3.582-.72-.72 2.866 2.508.719-.359 1.432-2.507-.719-.719 3.582 3.94.719-.358 1.432zm6.088-11.815l-1.432-.359 1.432-1.436 2.15.358z"/></g><path data-name="Tracé 64" d="M120.701 314.26c-.719-1.431-.358-1.431-.358-2.865a7.445 7.445 0 010-2.865c.719-1.432-.72-3.582-1.791-4.298 0 0-3.94-2.507-5.731-3.581-2.15-1.075-3.582-2.507-3.582-3.94 0-1.434 1.432-3.224 1.432-5.373 0-2.15-1.074-2.866-.719-3.94 0-1.075 1.791-3.223 2.866-4.298 1.074-1.075 1.432-5.372-1.075-9.67-1.075-1.432-6.447-7.522-6.447-7.522a94.248 94.248 0 01-5.731-8.238 10.788 10.788 0 01-1.432-5.014c.358-2.15 1.074-3.581 2.507-3.223a3.017 3.017 0 012.507 2.507c.358.72.719 1.075-.359 2.866-1.078 1.79.72 4.656.72 4.656a1.566 1.566 0 011.074-1.432s-.359 1.432 1.79 4.297c0 0-.718-2.149.36-2.506.718-.359 1.79 3.581 3.58 5.73 1.792 2.15 6.09 1.791 6.09 1.791s-2.866-1.432-3.94-10.028c-.72-5.373-3.94-5.014-6.09-5.014-1.074-.359-1.79-2.15-2.506-3.223-.72-1.432-2.15-2.866-3.582-2.866a3.67 3.67 0 00-3.581 2.15c-1.075 1.79-1.075 2.865-1.075 5.73a16.791 16.791 0 002.15 7.522 88.782 88.782 0 005.73 7.522s4.657 5.373 5.731 7.522c1.075 2.15.72 3.94 0 4.656-1.074.72-4.297.359-5.014 0-.719-.719-3.223-3.94-3.223-3.94s-6.447-7.163-7.163-8.954c-.716-1.79-.72-6.806 0-10.387a32.878 32.878 0 00-.358-12.535c1.432.359 1.79 2.866 1.79 2.866a4.587 4.587 0 000-4.657c2.15 1.791 3.582.72 3.582.72-3.223-3.223-2.15-11.461-2.15-11.461s1.433 1.79 2.15 6.447c3.224-13.618-3.58-15.405-3.58-15.405 2.865.36 5.73 3.582 5.73 3.582-2.507-11.46-8.238-12.178-13.61-11.103 1.79-2.15 7.522-2.15 7.522-2.15s-6.806-2.15-10.745-1.074c.72-1.791 3.582-3.223 3.582-3.223-4.657.719-6.447 1.432-8.954 3.94a5.539 5.539 0 011.074-2.866s-3.94 1.075-5.372 3.582c-1.432 2.507-.359 4.298 1.432 5.015a8.125 8.125 0 00-1.432-.359 7.862 7.862 0 00-4.297 1.787 21.884 21.884 0 01-5.014 2.507 2.729 2.729 0 000 2.865c.359.359.359.359.359 1.075 0 .359.358 3.223 1.79 3.582l1.433.719s-.72-1.432 1.79-1.791 5.732 1.432 2.15 3.582c-1.075.719-2.865 1.432-3.94.358a1.11 1.11 0 01-.359-.719s-.719 0-1.074 1.075c-.356 1.074-.359 3.223 1.074 3.581 1.434.359 5.014-.719 6.447-1.432 1.791-.72 3.582-2.15 3.582-4.298 0 0 1.79 1.791-1.79 4.657-3.582 2.507-11.462 2.507-11.462 9.312a7.227 7.227 0 014.298-3.94s-4.656 2.866-3.94 7.522a8.696 8.696 0 016.088-5.014s-6.088 3.94-5.372 15.401v.359c-1.432-3.223-.72-7.88-.72-7.88-1.79 0-2.865-2.149-3.58-3.581-1.076-4.657-1.433-5.014-3.224-6.089a10.871 10.871 0 00-3.94-1.074 1.961 1.961 0 00-1.79 1.432c0 .358 1.431-.359 2.506.719a4.508 4.508 0 00-2.865.359c-.359.358 0 2.149 0 2.149.358.358 1.79-.359 2.506 0a9.111 9.111 0 00-2.506.72c-.359.718 0 1.79 0 2.149.719.719 3.581-.36 3.94 4.297 0 .359.358 1.075.358 1.432a2.506 2.506 0 002.507 1.075c.359.72 2.507 3.582 3.582 5.373a35.549 35.549 0 01-5.373 1.074c-1.074 0-2.865-1.432-2.865-1.432l-3.94-2.15s0 1.791-1.075 1.433c-.72 0-.72-2.15-.72-2.15s-2.149.72-2.149 2.15c-1.074 0-1.432 2.507-.719 3.582-2.507 3.223 3.223 4.297 3.223 4.297s3.94 1.432 5.014 1.791c1.074.359 3.223 1.432 4.656 1.432a19.458 19.458 0 003.94-.719s2.508-.358 3.94-.72c0 0 3.224 0 7.164-7.878 0 0-.72 6.805-5.73 8.954a19.343 19.343 0 002.865 2.865 25.441 25.441 0 004.656 4.298c1.79 1.432 6.447 3.223 7.522 4.656a10.32 10.32 0 011.432 3.94.702.702 0 01.72-.719c.718 0 1.431 2.507 1.431 2.507s.72-2.507 1.075-1.79a5.472 5.472 0 011.432 3.58 4.955 4.955 0 01-.719 2.508l-4.298 5.014c-2.865 2.865-3.581 3.223-4.297 4.656a12.566 12.566 0 00-1.791 2.865c-.359 1.433-.359 2.866.719 6.089.72 2.507-.359 7.163-2.15 7.163-4.656 0-4.656-1.075-6.088.359a14.152 14.152 0 00-2.865 4.297 2.158 2.158 0 001.79 1.433c.359 0 0-2.507 1.433-3.223a5.156 5.156 0 00-.72 3.223 1.447 1.447 0 001.791 1.074c0-.358 0-2.149.72-2.507v2.507a1.533 1.533 0 002.149.359c1.074-.72 1.79-2.866 5.73-2.15 2.15.36 2.508 0 2.508-1.074 0-1.432 1.074-3.582 1.79-5.731a1.92 1.92 0 011.433-1.075 1.11 1.11 0 01.358.72 2.797 2.797 0 000-1.791 1.11 1.11 0 01.72.358s0-1.075-.72-1.432c-.358-.72-1.074-2.507-.719-3.582.72-1.79 4.298-5.014 10.029-5.014-2.507-2.506-2.866-3.94-3.223-6.805a22.445 22.445 0 010-7.522s.358 5.731 1.432 7.522c4.298 9.67 17.192 12.178 17.192 12.178a12.852 12.852 0 010 3.94c-1.075 3.582-1.432 5.014-1.432 5.014a35.62 35.62 0 01-6.089-1.075c-1.79-.358-3.581 4.657-3.581 5.014a2.797 2.797 0 001.432 1.432c.358 0 .358-2.149 1.79-2.865 0 0-1.432 1.79-1.074 2.865a1.43 1.43 0 001.432.72c.359 0 0-1.791.72-2.507 0 0-.36 2.149.358 2.507 1.075.719 1.075.358 1.79 0a21.679 21.679 0 015.373-.72c1.432 0 1.791-3.223 3.582-6.088 1.79-2.866 2.15-5.014 2.865-5.014.716 0 1.075 1.79 0 2.507.716-.002 2.512-1.076 1.795-2.51zm-46.203-89.9c-.72.72-3.94.36-3.582-1.074.359-1.433 2.507-1.79 3.582-1.074 1.074 1.076 0 1.795 0 2.149z" fill="#d21b33"/><path d="M62.68 210.035l-2.507 3.582 1.073 2.15-3.939 18.265-1.075-13.61a9.193 9.193 0 01-.719-1.792c-.358-.358-1.433-.718-1.792-.357-.358.36 0 1.431.36 1.79a5 5 0 001.791 1.433s-8.235 13.252-6.802 35.458v.718c0 .359.357 2.15.718 2.15 1.075.358 1.076-1.074 1.076-1.431v-2.153a83.324 83.324 0 015.012-33.31l.72 15.043-.72 3.94h.36l.357-1.791v1.792c.358 0 .72.357 1.075.357l-.359-6.088 4.299-20.057 1.79-1.79zm-8.955 39.805l-2.149 9.263.36.36 2.256-9.504zm2.866 5.421l.359 7.162h1.074l-.358-6.444c-.358 0-.72-.357-1.075-.718zm-6.448 13.61c2.507 14.326 7.88 19.96 7.88 19.96l-1.432 2.149c-.72 1.074-.72 1.433-.36 1.792.361.358 1.076-.001 1.793-1.076a4.267 4.267 0 00.718-2.15l-.718-17.81c0-.357-.358-.36-.717-.36l.719 16.38c-2.755-6.07-4.798-11.625-6.09-18.165-.72-.359-1.434-.36-1.793-.72z"/><path data-name="Tracé 64" d="M129.3 314.26c.719-1.431.358-1.431.358-2.865a7.445 7.445 0 000-2.865c-.719-1.432.72-3.582 1.791-4.298 0 0 3.94-2.507 5.731-3.581 2.15-1.075 3.582-2.507 3.582-3.94 0-1.434-1.432-3.224-1.432-5.373 0-2.15 1.074-2.866.719-3.94 0-1.075-1.791-3.223-2.866-4.298-1.074-1.075-1.432-5.372 1.075-9.67 1.075-1.432 6.447-7.522 6.447-7.522a94.248 94.248 0 005.731-8.238 10.788 10.788 0 001.432-5.014c-.358-2.15-1.074-3.581-2.507-3.223a3.017 3.017 0 00-2.507 2.507c-.358.72-.719 1.075.359 2.866 1.078 1.79-.72 4.656-.72 4.656a1.566 1.566 0 00-1.074-1.432s.359 1.432-1.79 4.297c0 0 .718-2.149-.36-2.506-.718-.359-1.79 3.581-3.58 5.73-1.792 2.15-6.09 1.791-6.09 1.791s2.866-1.432 3.94-10.028c.72-5.373 3.94-5.014 6.09-5.014 1.074-.359 1.79-2.15 2.506-3.223.72-1.432 2.15-2.866 3.582-2.866a3.67 3.67 0 013.581 2.15c1.075 1.79 1.075 2.865 1.075 5.73a16.791 16.791 0 01-2.15 7.522 88.782 88.782 0 01-5.73 7.522s-4.657 5.373-5.731 7.522c-1.075 2.15-.72 3.94 0 4.656 1.074.72 4.298.359 5.014 0 .719-.719 3.223-3.94 3.223-3.94s6.447-7.163 7.163-8.954c.716-1.79.72-6.806 0-10.387a32.878 32.878 0 01.358-12.535c-1.432.359-1.79 2.866-1.79 2.866a4.587 4.587 0 010-4.657c-2.15 1.791-3.582.72-3.582.72 3.223-3.223 2.15-11.461 2.15-11.461s-1.433 1.79-2.15 6.447c-3.224-13.618 3.58-15.405 3.58-15.405-2.865.36-5.73 3.582-5.73 3.582 2.507-11.46 8.238-12.178 13.61-11.103-1.79-2.15-7.522-2.15-7.522-2.15s6.806-2.15 10.745-1.074c-.72-1.791-3.582-3.223-3.582-3.223 4.657.719 6.448 1.432 8.954 3.94a5.539 5.539 0 00-1.074-2.866s3.94 1.075 5.372 3.582c1.432 2.507.359 4.298-1.432 5.015a8.125 8.125 0 011.432-.359 7.862 7.862 0 014.297 1.787 21.884 21.884 0 005.014 2.507 2.729 2.729 0 010 2.865c-.359.359-.359.359-.359 1.075 0 .359-.358 3.223-1.79 3.582l-1.433.719s.72-1.432-1.79-1.791-5.732 1.432-2.15 3.582c1.075.719 2.865 1.432 3.94.358a1.11 1.11 0 00.359-.719s.719 0 1.074 1.075c.356 1.074.359 3.223-1.074 3.581-1.434.359-5.014-.719-6.447-1.432-1.791-.72-3.582-2.15-3.582-4.298 0 0-1.79 1.791 1.79 4.657 3.582 2.507 11.462 2.507 11.462 9.312a7.227 7.227 0 00-4.298-3.94s4.656 2.866 3.94 7.522a8.696 8.696 0 00-6.088-5.014s6.088 3.94 5.372 15.401v.359c1.432-3.223.72-7.88.72-7.88 1.79 0 2.865-2.149 3.58-3.581 1.076-4.657 1.433-5.014 3.224-6.089a10.871 10.871 0 013.94-1.074 1.961 1.961 0 011.79 1.432c0 .358-1.431-.359-2.506.719a4.508 4.508 0 012.865.359c.36.358 0 2.149 0 2.149-.358.358-1.79-.359-2.506 0a9.111 9.111 0 012.506.72c.36.718 0 1.79 0 2.149-.719.719-3.581-.36-3.94 4.297 0 .359-.358 1.075-.358 1.432a2.506 2.506 0 01-2.507 1.075c-.359.72-2.507 3.582-3.582 5.373a35.549 35.549 0 005.373 1.074c1.074 0 2.865-1.432 2.865-1.432l3.94-2.15s0 1.791 1.075 1.433c.72 0 .72-2.15.72-2.15s2.149.72 2.149 2.15c1.074 0 1.432 2.507.719 3.582 2.507 3.223-3.223 4.297-3.223 4.297s-3.94 1.432-5.014 1.791c-1.074.359-3.223 1.432-4.656 1.432a19.458 19.458 0 01-3.94-.719s-2.508-.358-3.94-.72c0 0-3.224 0-7.164-7.878 0 0 .72 6.805 5.731 8.954a19.343 19.343 0 01-2.866 2.865 25.441 25.441 0 01-4.656 4.298c-1.79 1.432-6.447 3.223-7.522 4.656a10.32 10.32 0 00-1.432 3.94.702.702 0 00-.72-.719c-.718 0-1.431 2.507-1.431 2.507s-.72-2.507-1.075-1.79a5.472 5.472 0 00-1.432 3.58 4.955 4.955 0 00.719 2.508l4.298 5.014c2.865 2.865 3.581 3.223 4.297 4.656a12.566 12.566 0 011.791 2.865c.359 1.433.359 2.866-.719 6.089-.72 2.507.359 7.163 2.15 7.163 4.656 0 4.656-1.075 6.088.359a14.152 14.152 0 012.865 4.297 2.158 2.158 0 01-1.79 1.433c-.359 0 0-2.507-1.433-3.223a5.156 5.156 0 01.72 3.223 1.447 1.447 0 01-1.791 1.074c0-.358 0-2.149-.72-2.507v2.507a1.533 1.533 0 01-2.149.359c-1.074-.72-1.79-2.866-5.73-2.15-2.15.36-2.508 0-2.508-1.074 0-1.432-1.074-3.582-1.79-5.731a1.92 1.92 0 00-1.433-1.075 1.11 1.11 0 00-.358.72 2.797 2.797 0 010-1.791 1.11 1.11 0 00-.72.358s0-1.075.72-1.432c.358-.72 1.074-2.507.719-3.582-.72-1.79-4.298-5.014-10.029-5.014 2.507-2.506 2.866-3.94 3.223-6.805a22.445 22.445 0 000-7.522s-.358 5.731-1.432 7.522c-4.298 9.67-17.192 12.178-17.192 12.178a12.852 12.852 0 000 3.94c1.075 3.582 1.432 5.014 1.432 5.014a35.62 35.62 0 006.089-1.075c1.79-.358 3.581 4.657 3.581 5.014a2.797 2.797 0 01-1.432 1.432c-.358 0-.358-2.149-1.79-2.865 0 0 1.432 1.79 1.074 2.865a1.43 1.43 0 01-1.432.72c-.359 0 0-1.791-.72-2.507 0 0 .36 2.149-.358 2.507-1.075.719-1.075.358-1.79 0a21.679 21.679 0 00-5.373-.72c-1.432 0-1.791-3.223-3.582-6.088-1.79-2.866-2.15-5.014-2.865-5.014-.716 0-1.075 1.79 0 2.507-.716-.002-2.512-1.076-1.795-2.51zm46.203-89.9c.72.72 3.94.36 3.582-1.074-.359-1.433-2.507-1.79-3.582-1.074-1.074 1.076 0 1.795 0 2.149z" fill="#d21b33"/><path d="M187.322 210.035l2.506 3.582-1.073 2.15 3.939 18.265 1.075-13.61c.302-.57.543-1.17.719-1.792.358-.358 1.433-.718 1.792-.357.358.36 0 1.431-.36 1.79a5 5 0 01-1.791 1.433s8.235 13.252 6.802 35.458v.718c0 .359-.357 2.15-.718 2.15-1.075.358-1.076-1.074-1.076-1.431v-2.153a83.324 83.324 0 00-5.012-33.31l-.72 15.043.72 3.94h-.36l-.357-1.791v1.792c-.358 0-.72.357-1.075.357l.359-6.088-4.299-20.057-1.79-1.79zm8.954 39.805l2.149 9.263-.36.36-2.256-9.504zm-2.866 5.421l-.359 7.162h-1.074l.358-6.444c.358 0 .72-.357 1.075-.718zm6.448 13.61c-2.507 14.326-7.88 19.96-7.88 19.96l1.432 2.149c.72 1.074.72 1.433.36 1.792-.361.358-1.076-.001-1.793-1.076a4.267 4.267 0 01-.718-2.15l.718-17.81c0-.357.358-.36.717-.36l-.719 16.38c2.755-6.07 4.798-11.625 6.09-18.165.72-.359 1.434-.36 1.793-.72z"/><g data-name="Groupe 31"><path data-name="Tracé 49" d="M81.305 118.345a40.11 40.11 0 018.237-2.15h.357c1.432-.358 2.507-.358 3.94-.719h8.595a2.158 2.158 0 011.432.359L99.929 91.84c-7.522-.358-15.4 1.791-22.922 4.656 1.074 7.164 2.864 14.327 4.298 21.849z" fill="#d21b33"/><path data-name="Tracé 50" d="M91.333 107.958l5.377 3.223c-1.075-1.79-1.791-3.94-2.866-5.73a42.924 42.924 0 003.94-4.298 30.812 30.812 0 00-5.73.358 42.76 42.76 0 01-2.87-5.73 39.467 39.467 0 00-.72 6.446c-1.79.359-3.94 1.075-5.73 1.433a36.147 36.147 0 015.372 2.507 35.288 35.288 0 00-.72 6.088 51.047 51.047 0 003.941-4.298" fill="#fff"/><path data-name="Tracé 51" d="M78.439 103.66c-.359-2.507-1.075-5.014-1.432-7.164-16.119 6.089-31.878 15.402-47.996 10.745.36 2.866 1.075 5.373 1.433 8.238a39.67 39.67 0 006.805.72c13.61.355 27.221-7.524 41.19-12.54z" fill="#156c52"/><path data-name="Tracé 52" d="M56.232 120.136c7.88-2.866 15.76-6.448 23.64-9.313-.36-2.507-1.075-5.014-1.433-7.163-13.61 5.014-27.58 12.894-41.19 12.534a48.94 48.94 0 01-6.805-.719c.358 2.866 1.074 5.373 1.432 8.238 7.88 1.079 16.118-.712 24.356-3.577z" fill="#ffce15"/><path data-name="Tracé 53" d="M55.875 128.373c8.596-2.865 16.833-7.163 25.43-10.028-.36-2.507-1.075-5.014-1.433-7.522-7.88 2.865-15.76 6.447-23.639 9.313-8.239 2.865-16.118 4.66-24.356 3.222.359 2.506 1.075 5.372 1.432 7.879 7.522 1.434 15.044-.357 22.566-2.864z" fill="#156c52"/><path data-name="Tracé 54" d="M41.548 139.477h-6.806c.36 2.507 1.075 5.372 1.433 7.88 23.28 1.431 46.92-21.85 70.2-15.402l-1.431-8.238c-21.133-4.656-42.265 13.61-63.396 15.76z" fill="#156c52"/><path data-name="Tracé 55" d="M39.04 139.476h2.507c21.132-2.149 42.262-20.415 63.397-15.759l-1.27-8.32c-7.763-1.456-15.567.555-22.728 2.592-8.597 2.866-16.833 7.163-25.43 10.029-7.522 2.507-15.043 4.298-22.564 3.223.358 2.865 1.074 5.372 1.432 7.88 1.507.46 3.097.582 4.656.355z" fill="#ffce15"/></g><path data-name="Tracé 24" d="M110.76 155.236l-.826.24-10.787-68.292-1.953-2.866 1.432-3.94 2.507 3.582-1.075 2.865z" fill="#ffce15"/><path style="font-variation-settings:normal" d="M155.861 36.936c28.958 8.46 51.73 37.37 51.73 37.37L193.76 91.293l-15.046-2.163 5.78-8.92m-43.482-23.277l10.913-4.204 4.899-21.291S143.019 26.145 125 26.145c-18.019 0-31.823 5.292-31.823 5.292l4.899 21.29 10.913 4.205m42.839-4.396S140.488 48.002 125 48.002c-15.488 0-26.829 4.534-26.829 4.534M193.93 90.62s-19.745-26.736-53.035-33.512l.974-7.497M94.14 36.936c-28.958 8.46-51.73 37.37-51.73 37.37l13.832 16.986 15.046-2.163-5.78-8.92m-9.436 10.412s19.745-26.736 53.035-33.512l-.974-7.497" fill="none" stroke="#000" stroke-width="1.027"/><g><path data-name="Tracé 49" d="M168.697 118.345a40.111 40.111 0 00-8.238-2.15h-.357c-1.432-.358-2.507-.358-3.94-.719h-8.595a2.158 2.158 0 00-1.432.359l3.937-23.995c7.522-.358 15.4 1.791 22.922 4.656-1.074 7.164-2.864 14.327-4.297 21.849z" fill="#d21b33"/><path data-name="Tracé 50" d="M158.668 107.958l-5.377 3.223c1.075-1.79 1.791-3.94 2.866-5.73a42.924 42.924 0 01-3.94-4.298 30.812 30.812 0 015.73.358 42.76 42.76 0 002.87-5.73 39.467 39.467 0 01.72 6.446c1.79.359 3.94 1.075 5.73 1.433a36.147 36.147 0 00-5.372 2.507 35.288 35.288 0 01.72 6.088 51.047 51.047 0 01-3.941-4.298" fill="#fff"/><path data-name="Tracé 51" d="M171.562 103.66c.359-2.507 1.075-5.014 1.432-7.164 16.119 6.089 31.878 15.402 47.996 10.745-.359 2.866-1.075 5.373-1.433 8.238a39.67 39.67 0 01-6.805.72c-13.61.355-27.221-7.524-41.19-12.54z" fill="#156c52"/><path data-name="Tracé 52" d="M193.769 120.136c-7.88-2.866-15.76-6.448-23.64-9.313.36-2.507 1.075-5.014 1.433-7.163 13.61 5.014 27.58 12.894 41.19 12.534a48.94 48.94 0 006.805-.719c-.358 2.866-1.074 5.373-1.432 8.238-7.88 1.079-16.118-.712-24.356-3.577z" fill="#ffce15"/><path data-name="Tracé 53" d="M194.126 128.373c-8.596-2.865-16.833-7.163-25.43-10.028.36-2.507 1.075-5.014 1.433-7.522 7.88 2.865 15.76 6.447 23.639 9.313 8.239 2.865 16.118 4.66 24.356 3.222-.359 2.506-1.075 5.372-1.432 7.879-7.522 1.434-15.044-.357-22.566-2.864z" fill="#156c52"/><path data-name="Tracé 54" d="M208.453 139.477h6.806c-.359 2.507-1.075 5.372-1.433 7.88-23.28 1.431-46.92-21.85-70.2-15.402l1.431-8.238c21.133-4.656 42.265 13.61 63.396 15.76z" fill="#156c52"/><path data-name="Tracé 55" d="M210.96 139.476h-2.506c-21.132-2.149-42.262-20.415-63.397-15.759l1.27-8.32c7.763-1.456 15.567.555 22.728 2.592 8.597 2.866 16.833 7.163 25.43 10.029 7.522 2.507 15.043 4.298 22.564 3.223-.358 2.865-1.074 5.372-1.432 7.88-1.507.46-3.097.582-4.656.355z" fill="#ffce15"/><path data-name="Tracé 24" d="M139.241 155.236l.826.24 10.787-68.292 1.953-2.866-1.432-3.94-2.507 3.582 1.075 2.865z" fill="#ffce15"/></g></svg>