<svg xmlns="http://www.w3.org/2000/svg" xmlns:xlink="http://www.w3.org/1999/xlink" version="1.1" width="664.66" height="664.05" viewBox="0 0 187.582 187.41" id="svg2" xml:space="preserve" fill-rule="evenodd"><defs id="defs4"><radialGradient cx="17.405" cy="55.313" r="26.508" fx="17.405" fy="55.313" id="radialGradient3309" gradientUnits="userSpaceOnUse"><stop id="stop3311" offset="0" stop-color="#c9e41e" stop-opacity="1"/><stop id="stop3313" offset=".488" stop-color="#093" stop-opacity="1"/><stop id="stop3315" offset="1" stop-color="#063" stop-opacity="1"/></radialGradient><radialGradient cx="17.405" cy="55.313" r="26.508" fx="17.405" fy="55.313" id="radialGradient3301" gradientUnits="userSpaceOnUse"><stop id="stop3303" offset="0" stop-color="#c9e41e" stop-opacity="1"/><stop id="stop3305" offset=".449" stop-color="#093" stop-opacity="1"/><stop id="stop3307" offset="1" stop-color="#063" stop-opacity="1"/></radialGradient><radialGradient cx="17.405" cy="55.313" r="26.508" fx="17.405" fy="55.313" id="radialGradient3293" gradientUnits="userSpaceOnUse"><stop id="stop3295" offset="0" stop-color="#c9e41e" stop-opacity="1"/><stop id="stop3297" offset=".431" stop-color="#093" stop-opacity="1"/><stop id="stop3299" offset="1" stop-color="#063" stop-opacity="1"/></radialGradient><radialGradient cx="17.405" cy="55.313" r="26.508" fx="17.405" fy="55.313" id="radialGradient3285" gradientUnits="userSpaceOnUse"><stop id="stop3287" offset="0" stop-color="#c9e41e" stop-opacity="1"/><stop id="stop3289" offset=".426" stop-color="#093" stop-opacity="1"/><stop id="stop3291" offset="1" stop-color="#063" stop-opacity="1"/></radialGradient><radialGradient cx="17.405" cy="55.313" r="26.508" fx="17.405" fy="55.313" id="radialGradient4888" gradientUnits="userSpaceOnUse"><stop id="stop4890" offset="0" stop-color="#c9e41e" stop-opacity="1"/><stop id="stop4892" offset=".414" stop-color="#093" stop-opacity="1"/><stop id="stop4894" offset="1" stop-color="#063" stop-opacity="1"/></radialGradient><radialGradient cx="24.214" cy="28.216" r="12.572" fx="24.214" fy="28.216" id="id1" gradientUnits="userSpaceOnUse"><stop id="stop20" offset="0" stop-color="#cfe30b" stop-opacity="1"/><stop id="stop22" offset=".388" stop-color="#093" stop-opacity="1"/><stop id="stop24" offset="1" stop-color="#063" stop-opacity="1"/></radialGradient><radialGradient cx="17.755" cy="24.093" r="13.759" fx="17.755" fy="24.093" id="id2" gradientUnits="userSpaceOnUse"><stop id="stop27" offset="0" stop-color="#ff0" stop-opacity="1"/><stop id="stop29" offset=".388" stop-color="#093" stop-opacity="1"/><stop id="stop31" offset="1" stop-color="#063" stop-opacity="1"/></radialGradient><radialGradient cx="17.405" cy="55.313" r="26.508" fx="17.405" fy="55.313" id="id3" gradientUnits="userSpaceOnUse"><stop id="stop34" offset="0" stop-color="#c9e41e" stop-opacity="1"/><stop id="stop36" offset=".322" stop-color="#093" stop-opacity="1"/><stop id="stop38" offset="1" stop-color="#063" stop-opacity="1"/></radialGradient><radialGradient cx="18.412" cy="64.649" r="26.128" fx="18.412" fy="64.649" id="id4" gradientUnits="userSpaceOnUse"><stop id="stop41" offset="0" stop-color="#ff0" stop-opacity="1"/><stop id="stop43" offset="1" stop-color="red" stop-opacity="1"/></radialGradient><radialGradient cx="85.733" cy="63.025" r="12.863" fx="85.733" fy="63.025" id="id5" gradientUnits="userSpaceOnUse"/><radialGradient cx="29.928" cy="18.6" r="26.465" fx="29.928" fy="18.6" id="id6" gradientUnits="userSpaceOnUse"/><radialGradient cx="87.414" cy="30.83" r="5.524" fx="87.414" fy="30.83" id="id7" gradientUnits="userSpaceOnUse"/><radialGradient cx="17.139" cy="32.103" r="11.268" fx="17.139" fy="32.103" id="id8" gradientUnits="userSpaceOnUse"/><radialGradient cx="20.86" cy="70.972" r="15.098" fx="20.86" fy="70.972" id="id9" gradientUnits="userSpaceOnUse"><stop id="stop50" offset="0" stop-color="#ff0" stop-opacity="1"/><stop id="stop52" offset="1" stop-color="#093" stop-opacity="1"/></radialGradient><radialGradient cx="84.507" cy="70.023" r="7.194" fx="84.507" fy="70.023" id="id10" gradientUnits="userSpaceOnUse"/><radialGradient cx="90.368" cy="40.903" r="4.863" fx="90.368" fy="40.903" id="id11" gradientUnits="userSpaceOnUse"/><radialGradient cx="13.496" cy="40.565" r="9.964" fx="13.496" fy="40.565" id="id12" gradientUnits="userSpaceOnUse"/><radialGradient cx="51.507" cy="54.494" r="11.116" fx="51.507" fy="54.494" id="id13" gradientUnits="userSpaceOnUse"><stop id="stop58" offset="0" stop-color="#ff0" stop-opacity="1"/><stop id="stop60" offset="1" stop-color="#fc0" stop-opacity="1"/></radialGradient><radialGradient cx="51.419" cy="40.413" r="31.355" fx="51.419" fy="40.413" id="id14" gradientUnits="userSpaceOnUse"><stop id="stop63" offset="0" stop-color="#ff0" stop-opacity="1"/><stop id="stop65" offset="1" stop-color="#ff9600" stop-opacity="1"/></radialGradient><radialGradient cx="52.319" cy="53.603" r="51.085" fx="52.319" fy="53.603" id="id15" gradientUnits="userSpaceOnUse"><stop id="stop68" offset="0" stop-color="#ccc" stop-opacity="1"/><stop id="stop70" offset=".42" stop-color="#963" stop-opacity="1"/><stop id="stop72" offset="1" stop-color="#532a2a" stop-opacity="1"/></radialGradient><radialGradient cx="38.102" cy="31.421" r="3.81" fx="38.102" fy="31.421" id="id16" gradientUnits="userSpaceOnUse"/><radialGradient cx="58.938" cy="25.549" r="3.387" fx="58.938" fy="25.549" id="id17" gradientUnits="userSpaceOnUse"/><radialGradient cx="67" cy="39.43" r="3.387" fx="67" fy="39.43" id="id18" gradientUnits="userSpaceOnUse"/><radialGradient cx="64.737" cy="31.421" r="3.281" fx="64.737" fy="31.421" id="id19" gradientUnits="userSpaceOnUse"/><radialGradient cx="35.839" cy="39.43" r="3.281" fx="35.839" fy="39.43" id="id20" gradientUnits="userSpaceOnUse"/><radialGradient cx="51.42" cy="23.33" r="3.175" fx="51.42" fy="23.33" id="id21" gradientUnits="userSpaceOnUse"/><radialGradient cx="43.901" cy="25.549" r="2.752" fx="43.901" fy="25.549" id="id22" gradientUnits="userSpaceOnUse"/><radialGradient cx="51.418" cy="45.15" r="1.862" fx="51.418" fy="45.15" id="id23" gradientUnits="userSpaceOnUse"/><radialGradient cx="44.835" cy="45.597" r="1.828" fx="44.835" fy="45.597" id="id24" gradientUnits="userSpaceOnUse"/><radialGradient cx="58.005" cy="45.597" r="1.828" fx="58.005" fy="45.597" id="id25" gradientUnits="userSpaceOnUse"/><radialGradient cx="76.775" cy="84.009" r="20.543" fx="76.775" fy="84.009" id="id26" gradientUnits="userSpaceOnUse"><stop id="stop85" offset="0" stop-color="#ff9" stop-opacity="1"/><stop id="stop87" offset="1" stop-color="#df8933" stop-opacity="1"/></radialGradient><radialGradient cx="37.77" cy="87.394" r="20.96" fx="37.77" fy="87.394" id="id27" gradientUnits="userSpaceOnUse"/><radialGradient cx="51.507" cy="54.494" r="11.116" fx="51.507" fy="54.494" id="radialGradient3777" xlink:href="#id13" gradientUnits="userSpaceOnUse" gradientTransform="rotate(.938 -7.615 195.456) scale(1.84588)"/><radialGradient cx="51.419" cy="40.413" r="31.355" fx="51.419" fy="40.413" id="radialGradient4000" xlink:href="#id14" gradientUnits="userSpaceOnUse"/><radialGradient cx="73.762" cy="85.893" r="20.543" fx="73.762" fy="85.893" id="radialGradient4014" xlink:href="#id26" gradientUnits="userSpaceOnUse"/><radialGradient cx="52.319" cy="53.603" r="51.085" fx="52.319" fy="53.603" id="radialGradient4018" xlink:href="#id15" gradientUnits="userSpaceOnUse"/><radialGradient cx="17.755" cy="24.093" r="13.759" fx="17.755" fy="24.093" id="radialGradient4085" xlink:href="#id2" gradientUnits="userSpaceOnUse" gradientTransform="matrix(.38218 -.0213 .02781 .49918 10.3 12.444)"/><radialGradient cx="24.214" cy="28.216" r="12.572" fx="24.214" fy="28.216" id="radialGradient4088" xlink:href="#id1" gradientUnits="userSpaceOnUse" gradientTransform="matrix(.58037 -.02048 .02006 .56864 9.595 12.667)"/><radialGradient cx="17.405" cy="55.313" r="26.508" fx="17.405" fy="55.313" id="radialGradient4091" xlink:href="#id3" gradientUnits="userSpaceOnUse" gradientTransform="matrix(.69057 0 0 .7182 5.386 15.587)"/><radialGradient cx="15.871" cy="62.821" r="26.128" fx="15.871" fy="62.821" id="radialGradient4098" xlink:href="#id4" gradientUnits="userSpaceOnUse" gradientTransform="matrix(.33284 -.00827 .00966 .38884 10.765 39.181)"/><radialGradient cx="19.855" cy="71.484" r="15.098" fx="19.855" fy="71.484" id="radialGradient4101" xlink:href="#radialGradient3293" gradientUnits="userSpaceOnUse" gradientTransform="matrix(.8461 -.00865 .00916 .8961 2.82 7.38)"/><radialGradient cx="29.868" cy="19.092" r="14.524" fx="29.868" fy="19.092" id="radialGradient4878" xlink:href="#id1" gradientUnits="userSpaceOnUse" gradientTransform="matrix(1.2017 0 0 1.18782 -6.024 -3.586)"/><radialGradient cx="13.831" cy="40.955" r="8.822" fx="13.831" fy="40.955" id="radialGradient4886" xlink:href="#radialGradient3285" gradientUnits="userSpaceOnUse" gradientTransform="matrix(1.44804 -.03345 .03725 1.61263 -7.722 -24.596)"/><radialGradient cx="16.45" cy="32.638" r="8.852" fx="16.45" fy="32.638" id="radialGradient4902" xlink:href="#id4" gradientUnits="userSpaceOnUse" gradientTransform="matrix(1.052 0 0 1.1816 -.855 -5.927)"/><radialGradient cx="87.329" cy="31.335" r="8.652" fx="87.329" fy="31.335" id="radialGradient4910" xlink:href="#id4" gradientUnits="userSpaceOnUse" gradientTransform="matrix(1.104 0 0 1.26697 -9.082 -8.366)"/><radialGradient cx="89.81" cy="63.159" r="12.338" fx="89.81" fy="63.159" id="radialGradient4918" xlink:href="#id4" gradientUnits="userSpaceOnUse" gradientTransform="matrix(.77953 0 0 .8997 18.908 5.585)"/><radialGradient cx="90.519" cy="39.637" r="9.048" fx="90.519" fy="39.637" id="radialGradient4926" xlink:href="#radialGradient3309" gradientUnits="userSpaceOnUse" gradientTransform="matrix(-1.6871 .01788 -.01565 -1.47636 243.853 96.484)"/><radialGradient cx="84.788" cy="71.227" r="13.945" fx="84.788" fy="71.227" id="radialGradient4934" xlink:href="#radialGradient3301" gradientUnits="userSpaceOnUse" gradientTransform="matrix(.991 0 0 1.0857 .622 -6.51)"/><radialGradient cx="44.835" cy="45.839" r="2.11" fx="44.835" fy="45.839" id="radialGradient4942" xlink:href="#id14" gradientUnits="userSpaceOnUse" gradientTransform="matrix(1.22713 0 0 1.24315 -10.183 -11.07)"/><radialGradient cx="51.418" cy="45.399" r="2.149" fx="51.418" fy="45.399" id="radialGradient4950" xlink:href="#id14" gradientUnits="userSpaceOnUse" gradientTransform="matrix(1.24525 0 0 1.15453 -12.61 -6.977)"/><radialGradient cx="58.005" cy="45.795" r="2.11" fx="58.005" fy="45.795" id="radialGradient4958" xlink:href="#id14" gradientUnits="userSpaceOnUse" gradientTransform="matrix(1.31798 0 0 1.26583 -18.444 -12.103)"/><radialGradient cx="35.839" cy="39.43" r="2.565" fx="35.839" fy="39.43" id="radialGradient4966" xlink:href="#id14" gradientUnits="userSpaceOnUse" gradientTransform="matrix(1.28017 0 0 1.43669 -10.041 -17.218)"/><radialGradient cx="67" cy="39.43" r="2.565" fx="67" fy="39.43" id="radialGradient4974" xlink:href="#id14" gradientUnits="userSpaceOnUse" gradientTransform="matrix(1.22413 0 0 1.43669 -15.017 -17.218)"/><radialGradient cx="64.737" cy="31.421" r="2.565" fx="64.737" fy="31.421" id="radialGradient4976" xlink:href="#id14" gradientUnits="userSpaceOnUse" gradientTransform="matrix(1.29856 -.01324 .0158 1.5491 -19.824 -16.396)"/><radialGradient cx="58.938" cy="25.549" r="2.565" fx="58.938" fy="25.549" id="radialGradient4978" xlink:href="#id14" gradientUnits="userSpaceOnUse" gradientTransform="matrix(1.46696 0 0 1.49275 -27.521 -12.59)"/><radialGradient cx="51.42" cy="23.33" r="2.565" fx="51.42" fy="23.33" id="radialGradient4980" xlink:href="#id14" gradientUnits="userSpaceOnUse" gradientTransform="matrix(1.3362 0 0 1.4554 -17.288 -10.624)"/><radialGradient cx="43.901" cy="25.549" r="2.565" fx="43.901" fy="25.549" id="radialGradient4982" xlink:href="#id14" gradientUnits="userSpaceOnUse" gradientTransform="matrix(1.35489 0 0 1.47407 -15.58 -12.112)"/><radialGradient cx="38.102" cy="31.421" r="2.565" fx="38.102" fy="31.421" id="radialGradient4984" xlink:href="#id14" gradientUnits="userSpaceOnUse" gradientTransform="matrix(1.3362 0 0 1.56741 -12.81 -17.829)"/><radialGradient cx="16.7" cy="64.394" r="24.151" fx="16.7" fy="64.394" id="radialGradient4992" xlink:href="#id26" gradientUnits="userSpaceOnUse" gradientTransform="matrix(-.03026 -.72623 .71535 -.0298 -17.315 100.716)"/><radialGradient cx="37.453" cy="86.94" r="20.96" fx="37.453" fy="86.94" id="id2-4" gradientUnits="userSpaceOnUse" gradientTransform="translate(0 28.222)"/><radialGradient cx="76.501" cy="84.579" r="20.543" fx="76.501" fy="84.579" id="id1-7" gradientUnits="userSpaceOnUse"><stop id="stop3366" offset="0" stop-color="#ff9" stop-opacity="1"/><stop id="stop3368" offset="1" stop-color="#df8933" stop-opacity="1"/></radialGradient><radialGradient cx="28.363" cy="100.709" r="24.182" fx="28.363" fy="100.709" id="radialGradient4373" xlink:href="#id26" gradientUnits="userSpaceOnUse" gradientTransform="matrix(.61138 0 0 .66314 12.248 30.963)"/><radialGradient cx="73.181" cy="85.971" r="20.543" fx="73.181" fy="85.971" id="radialGradient4375" xlink:href="#id26" gradientUnits="userSpaceOnUse" gradientTransform="translate(0 11.289)"/><radialGradient cx="17.405" cy="55.313" r="26.508" fx="17.405" fy="55.313" id="radialGradient4390" xlink:href="#id3" gradientUnits="userSpaceOnUse" gradientTransform="matrix(.69057 0 0 .7182 5.386 15.587)"/><radialGradient cx="24.214" cy="28.216" r="12.572" fx="24.214" fy="28.216" id="radialGradient4392" xlink:href="#id1" gradientUnits="userSpaceOnUse" gradientTransform="matrix(.58037 -.02048 .02006 .56864 9.595 12.667)"/><radialGradient cx="17.755" cy="24.093" r="13.759" fx="17.755" fy="24.093" id="radialGradient4394" xlink:href="#id2" gradientUnits="userSpaceOnUse" gradientTransform="matrix(.38218 -.0213 .02781 .49918 10.3 12.444)"/><radialGradient cx="29.868" cy="19.092" r="14.524" fx="29.868" fy="19.092" id="radialGradient4396" xlink:href="#id1" gradientUnits="userSpaceOnUse" gradientTransform="matrix(1.2017 0 0 1.18782 -6.024 -3.586)"/><radialGradient cx="35.839" cy="39.43" r="2.565" fx="35.839" fy="39.43" id="radialGradient4719" xlink:href="#id14" gradientUnits="userSpaceOnUse" gradientTransform="matrix(1.28017 0 0 1.43669 -10.041 -17.218)"/><radialGradient cx="67" cy="39.43" r="2.565" fx="67" fy="39.43" id="radialGradient4741" xlink:href="#id14" gradientUnits="userSpaceOnUse" gradientTransform="matrix(1.22413 0 0 1.43669 -15.017 -17.218)"/><radialGradient cx="44.835" cy="45.839" r="2.11" fx="44.835" fy="45.839" id="radialGradient4774" xlink:href="#id14" gradientUnits="userSpaceOnUse" gradientTransform="matrix(1.22713 0 0 1.24315 -10.183 -11.07)"/><radialGradient cx="51.418" cy="45.399" r="2.149" fx="51.418" fy="45.399" id="radialGradient4776" xlink:href="#id14" gradientUnits="userSpaceOnUse" gradientTransform="matrix(1.24525 0 0 1.15453 -12.61 -6.977)"/><radialGradient cx="58.005" cy="45.795" r="2.11" fx="58.005" fy="45.795" id="radialGradient4778" xlink:href="#id14" gradientUnits="userSpaceOnUse" gradientTransform="matrix(1.31798 0 0 1.26583 -18.444 -12.103)"/><radialGradient cx="51.419" cy="40.413" r="31.355" fx="51.419" fy="40.413" id="radialGradient4780" xlink:href="#id14" gradientUnits="userSpaceOnUse"/><radialGradient cx="51.419" cy="40.413" r="31.355" fx="51.419" fy="40.413" id="radialGradient4783" xlink:href="#id14" gradientUnits="userSpaceOnUse"/><radialGradient cx="44.835" cy="45.839" r="2.11" fx="44.835" fy="45.839" id="radialGradient4790" xlink:href="#id14" gradientUnits="userSpaceOnUse" gradientTransform="matrix(1.22713 0 0 1.24315 -10.183 -11.07)"/><radialGradient cx="51.418" cy="45.399" r="2.149" fx="51.418" fy="45.399" id="radialGradient4792" xlink:href="#id14" gradientUnits="userSpaceOnUse" gradientTransform="matrix(1.24525 0 0 1.15453 -12.61 -6.977)"/><radialGradient cx="58.005" cy="45.795" r="2.11" fx="58.005" fy="45.795" id="radialGradient4794" xlink:href="#id14" gradientUnits="userSpaceOnUse" gradientTransform="matrix(1.31798 0 0 1.26583 -18.444 -12.103)"/><radialGradient cx="58.005" cy="45.795" r="2.11" fx="58.005" fy="45.795" id="radialGradient4797" xlink:href="#id14" gradientUnits="userSpaceOnUse" gradientTransform="matrix(1.31798 0 0 1.26583 -18.444 -12.103)"/><radialGradient cx="51.418" cy="45.399" r="2.149" fx="51.418" fy="45.399" id="radialGradient4800" xlink:href="#id14" gradientUnits="userSpaceOnUse" gradientTransform="matrix(1.24525 0 0 1.15453 -12.61 -6.977)"/><radialGradient cx="44.835" cy="45.839" r="2.11" fx="44.835" fy="45.839" id="radialGradient4803" xlink:href="#id14" gradientUnits="userSpaceOnUse" gradientTransform="matrix(1.22713 0 0 1.24315 -10.183 -11.07)"/><radialGradient cx="44.835" cy="45.839" r="2.11" fx="44.835" fy="45.839" id="radialGradient4813" xlink:href="#id14" gradientUnits="userSpaceOnUse" gradientTransform="matrix(1.22713 0 0 1.24315 -10.183 -11.07)"/><radialGradient cx="51.418" cy="45.399" r="2.149" fx="51.418" fy="45.399" id="radialGradient4815" xlink:href="#id14" gradientUnits="userSpaceOnUse" gradientTransform="matrix(1.24525 0 0 1.15453 -12.61 -6.977)"/><radialGradient cx="58.005" cy="45.795" r="2.11" fx="58.005" fy="45.795" id="radialGradient4817" xlink:href="#id14" gradientUnits="userSpaceOnUse" gradientTransform="matrix(1.31798 0 0 1.26583 -18.444 -12.103)"/><radialGradient cx="51.419" cy="40.413" r="31.355" fx="51.419" fy="40.413" id="radialGradient4819" xlink:href="#id14" gradientUnits="userSpaceOnUse"/><radialGradient cx="67" cy="39.43" r="2.565" fx="67" fy="39.43" id="radialGradient4821" xlink:href="#id14" gradientUnits="userSpaceOnUse" gradientTransform="matrix(1.22413 0 0 1.43669 -15.017 -17.218)"/><radialGradient cx="64.737" cy="31.421" r="2.565" fx="64.737" fy="31.421" id="radialGradient4823" xlink:href="#id14" gradientUnits="userSpaceOnUse" gradientTransform="matrix(1.29856 -.01324 .0158 1.5491 -19.824 -16.396)"/><radialGradient cx="58.938" cy="25.549" r="2.565" fx="58.938" fy="25.549" id="radialGradient4825" xlink:href="#id14" gradientUnits="userSpaceOnUse" gradientTransform="matrix(1.46696 0 0 1.49275 -27.521 -12.59)"/><radialGradient cx="51.42" cy="23.33" r="2.565" fx="51.42" fy="23.33" id="radialGradient4827" xlink:href="#id14" gradientUnits="userSpaceOnUse" gradientTransform="matrix(1.3362 0 0 1.4554 -17.288 -10.624)"/><radialGradient cx="43.901" cy="25.549" r="2.565" fx="43.901" fy="25.549" id="radialGradient4829" xlink:href="#id14" gradientUnits="userSpaceOnUse" gradientTransform="matrix(1.35489 0 0 1.47407 -15.58 -12.112)"/><radialGradient cx="38.102" cy="31.421" r="2.565" fx="38.102" fy="31.421" id="radialGradient4831" xlink:href="#id14" gradientUnits="userSpaceOnUse" gradientTransform="matrix(1.3362 0 0 1.56741 -12.81 -17.829)"/><radialGradient cx="35.839" cy="39.43" r="2.565" fx="35.839" fy="39.43" id="radialGradient4833" xlink:href="#id14" gradientUnits="userSpaceOnUse" gradientTransform="matrix(1.28017 0 0 1.43669 -10.041 -17.218)"/><radialGradient cx="73.181" cy="85.971" r="20.543" fx="73.181" fy="85.971" id="radialGradient4842" xlink:href="#id26" gradientUnits="userSpaceOnUse" gradientTransform="matrix(1 0 0 1.0191 0 -1.636)"/><radialGradient cx="28.363" cy="100.709" r="24.182" fx="28.363" fy="100.709" id="radialGradient4845" xlink:href="#id26" gradientUnits="userSpaceOnUse" gradientTransform="matrix(.61138 0 0 .6758 12.248 18.414)"/><linearGradient x1="23.109" y1="87.911" x2="81.31" y2="85.648" id="id0" gradientUnits="userSpaceOnUse"><stop id="stop9" offset="0" stop-color="#000" stop-opacity="1"/><stop id="stop11" offset=".259" stop-color="#fff" stop-opacity="1"/><stop id="stop13" offset=".502" stop-color="#000" stop-opacity="1"/><stop id="stop15" offset=".761" stop-color="#fff" stop-opacity="1"/><stop id="stop17" offset="1" stop-color="#000" stop-opacity="1"/></linearGradient><linearGradient x1="23.109" y1="87.911" x2="81.31" y2="85.648" id="linearGradient4011" xlink:href="#id0" gradientUnits="userSpaceOnUse"/><linearGradient x1="22.729" y1="87.041" x2="80.799" y2="87.041" id="id0-1" gradientUnits="userSpaceOnUse"><stop id="stop3355" offset="0" stop-color="#000" stop-opacity="1"/><stop id="stop3357" offset=".259" stop-color="#fff" stop-opacity="1"/><stop id="stop3359" offset=".502" stop-color="#000" stop-opacity="1"/><stop id="stop3361" offset=".761" stop-color="#fff" stop-opacity="1"/><stop id="stop3363" offset="1" stop-color="#000" stop-opacity="1"/></linearGradient><linearGradient x1="22.729" y1="87.041" x2="80.799" y2="87.041" id="linearGradient4321" xlink:href="#id0-1" gradientUnits="userSpaceOnUse"/><linearGradient x1="22.729" y1="87.041" x2="80.799" y2="87.041" id="linearGradient4850" xlink:href="#id0-1" gradientUnits="userSpaceOnUse"/><style type="text/css" id="style6"/><style type="text/css" id="style3352"/><style type="text/css" id="style3389"/></defs><g id="g4852" transform="translate(1.129 1.693) scale(1.84588)" fill-opacity="1"><path d="M72.198 95.837l-.018-4.05-1.801-.397 9.124-2.545 1.867-2.062c-9.95-.136-19.94-.806-29.893-1.276l-28.563 1.72 1.705 1.835 8.172 2.286-1.027.245.02 4.263.482.254 1.948-.543.008 1.574.487.257 1.943-.542.007 1.57.493.26 1.938-.54.007 1.566.499.263 12.038-3.357L63.726 100l.518-.255-.008-1.658 2.156.603.504-.247-.008-1.67 2.17.607.489-.24-.008-1.682 2.187.611z" id="_155366448" fill="#9d0a0f" fill-rule="nonzero"/><path d="M80.518 87.196l-1.193 1.289-39.84 11.112-.022-4.619 33.969-8.117 7.086.335zm-8.508-.402l-20.94 5.004-2.614-.576 19.362-4.626 4.192.198zM39.088 97.737l-2.041.57-.02-4.353 2.74-.655 2.315.647-3.009.72.015 3.071zm27.31-11.208l-3.42.817-12.023 2.873-2.615-.575 13.863-3.313 4.194.198zM36.65 96.447l-2.041.57-.02-4.087 2.081-.497 2.315.647-2.348.561.013 2.806zm-2.438-1.29l-2.04.57-.019-3.821 1.42-.34 2.315.648-1.687.403.011 2.54zm26.572-8.893L50.84 88.64l-2.615-.576 8.367-2 4.193.199z" id="_155366376" fill="#f58020" fill-rule="nonzero"/><path d="M45.495 86.316l4.346.957-2.5.598-5.57-1.227 3.724-.328zm24.074 5.3l2.224.49.017 3.577-2.273-.636-.01-2.292-2.26-.498 2.302-.641zm-29.11-4.856l9.499 2.091-2.502.598-10.723-2.36 3.726-.329zm25.998 5.723l2.683.591.018 3.924-2.272-.636-.012-2.638-2.719-.599 2.302-.642zm-31.036-5.279l14.653 3.226-2.502.598-15.877-3.495 3.726-.329zm27.924 6.147l3.142.692.02 4.27-2.272-.637-.014-2.983-3.178-.7 2.302-.642zm-38.994-5.17l.478.53 18.043 5.046 7.318-1.749-19.807-4.36-6.032.532zm28.017 8.232l11.488 3.214-.022-4.615-3.601-.793-7.865 2.194z" id="_153885088" fill="#f58020" fill-rule="nonzero"/><path d="M51.764 89.232c7.447-2.395 18.681-2.473 27.391-.484l2.236-2.398c-10.046-.985-19.886-1.5-29.627-1.5s-19.58.515-29.627 1.5l2.236 2.398c8.71-1.989 19.944-1.911 27.391.484z" id="path3377" fill="#6c6753"/><path id="_155417440" fill="#a05a2c" d="M52.006 89.156l-.242.076-.242-.076v-1.214h.484z"/></g><path d="M97.283 98.413c.777.018 1.546.07 2.306.153l8.564-66.73c.439.097.877.2 1.314.307l-8.548 66.602c.777.124 1.542.28 2.295.469l16.688-63.368c.412.193.823.391 1.232.594l-16.627 63.133c.77.234 1.525.503 2.264.803l23.863-58.1c.371.274.74.554 1.107.837l-23.74 57.8c.755.35 1.49.735 2.205 1.152l29.82-51.443c.32.339.64.679.957 1.025l-29.635 51.124c.726.474 1.427.981 2.102 1.52l34.472-43.94c.267.384.53.774.792 1.165l-34.236 43.64c.679.6 1.327 1.232 1.942 1.896l37.873-36.048c.213.416.422.834.63 1.254l-37.615 35.802a27.107 27.107 0 011.708 2.269l38.98-27.276.769 1.1-39.027 27.309c.507.84.97 1.712 1.384 2.61L158.1 95.969l.59 1.206-37.034 18.13c.377.937.703 1.9.974 2.885l35.582-10.833.39 1.284-35.648 10.854c.188.847.336 1.709.443 2.584l34.92-5.282.2 1.328-61.873 9.356-61.894-9.224.197-1.328 34.932 5.207a26.97 26.97 0 01.438-2.585l-35.673-10.777.389-1.285 35.605 10.757c.269-.986.592-1.95.967-2.887L34.531 97.307l.588-1.206 37.015 18.023c.413-.898.873-1.77 1.38-2.613L34.427 84.286l.767-1.101 39.038 27.192a27.031 27.031 0 011.702-2.273l-37.69-35.72c.206-.421.415-.84.626-1.256l37.95 35.967a27.13 27.13 0 011.938-1.901L44.43 61.627c.262-.39.523-.782.79-1.167l34.566 43.868c.673-.541 1.374-1.05 2.098-1.525L52.14 51.742c.316-.347.635-.688.955-1.027l29.93 51.38a26.803 26.803 0 012.202-1.158L61.364 43.189a67.21 67.21 0 011.105-.84l23.988 58.05a26.733 26.733 0 012.261-.81L71.957 36.494a59.48 59.48 0 011.23-.597L90.01 99.228a26.65 26.65 0 012.293-.474l-8.69-66.584c.437-.108.875-.21 1.314-.309l8.706 66.712c.76-.085 1.529-.139 2.306-.159l-.072-67.832c.224-.003.447-.011.67-.012.225 0 .448.008.672.011l.073 67.832z" id="sun" fill="#ffd42a" fill-opacity="1"/><g transform="translate(1.682 1.693) scale(1.84588)" id="g4743" fill-rule="nonzero"><g id="g4737"><path d="M67.781 38.611h2.53l-2.046 1.487.781 2.406L67 41.017l-2.047 1.487.782-2.406-2.047-1.487h2.53L67 36.205z" id="_157250192" fill="red"/><path id="_157249688" fill="#ffe680" fill-opacity="1" d="M66.394 38.854h-1.96l1.586 1.152-.606 1.864L67 40.718l1.585 1.152-.605-1.864 1.585-1.152h-1.96L67 36.99z"/></g><g id="g4733"><path d="M65.52 30.603h2.529l-2.047 1.486.782 2.406-2.047-1.486-2.046 1.486.781-2.406-2.046-1.486h2.53l.781-2.406z" id="_157250120" fill="red"/><path id="_157249616" fill="#ffe680" fill-opacity="1" d="M65.343 30.845l-.606-1.864-.605 1.864h-1.96l1.585 1.152-.605 1.864 1.585-1.152 1.586 1.152-.606-1.864 1.586-1.152z"/></g><g id="g4729"><path d="M59.72 24.731h2.53l-2.048 1.487.782 2.406-2.046-1.487-2.047 1.487.782-2.406-2.047-1.487h2.53l.782-2.406z" id="_157250048" fill="red"/><path id="_157249544" fill="#ffe680" fill-opacity="1" d="M59.543 24.974l-.605-1.864-.606 1.864h-1.96l1.586 1.151-.606 1.864 1.586-1.152 1.585 1.152-.605-1.864 1.585-1.151z"/></g><g id="g4725"><path d="M50.638 22.511h-2.53l2.047 1.487-.782 2.406 2.047-1.487 2.046 1.487-.781-2.406 2.046-1.487h-2.53l-.781-2.406z" id="_157249976" fill="red"/><path id="_157249472" fill="#ffe680" fill-opacity="1" d="M50.814 22.754l.606-1.864.605 1.864h1.96L52.4 23.906l.605 1.864-1.585-1.152-1.586 1.152.606-1.864-1.586-1.152z"/></g><g id="g4721"><path d="M43.12 24.731h-2.53l2.046 1.487-.781 2.406 2.046-1.487 2.047 1.487-.782-2.406 2.047-1.487h-2.53l-.782-2.406z" id="_157249904" fill="red"/><path id="_157249400" fill="#ffe680" fill-opacity="1" d="M43.296 24.974l.605-1.864.606 1.864h1.96l-1.586 1.151.606 1.864-1.586-1.152-1.585 1.152.605-1.864-1.585-1.151z"/></g><g id="g4715"><path d="M37.32 30.603h-2.53l2.047 1.486-.782 2.406 2.046-1.486 2.047 1.486-.782-2.406 2.047-1.486h-2.53l-.782-2.406z" id="_157249832" fill="red"/><path id="_157226544" fill="#ffe680" fill-opacity="1" d="M37.496 30.845l.605-1.864.606 1.864h1.96l-1.585 1.152.605 1.864-1.585-1.152-1.586 1.152.606-1.864-1.586-1.152z"/></g><g id="g4711"><path d="M35.057 38.611h-2.53l2.047 1.487-.781 2.406 2.046-1.487 2.047 1.487-.782-2.406 2.046-1.487h-2.53l-.78-2.406z" id="_157249760" fill="red"/><path id="_157226472" fill="#ffe680" fill-opacity="1" d="M36.445 38.854h1.96l-1.586 1.152.606 1.864-1.586-1.152-1.585 1.152.605-1.864-1.585-1.152h1.96l.605-1.864z"/></g></g><g transform="translate(1.682 1.693) scale(1.84588)" id="g4806" fill-rule="nonzero"><path d="M51.42 31.296a2.533 2.533 0 012.528 2.485 2.27 2.27 0 00-.547-.073 2.28 2.28 0 00-1.981 1.16 2.28 2.28 0 00-1.982-1.16c-.186 0-.368.029-.547.073a2.533 2.533 0 012.529-2.485zm-3.933 2.533a3.946 3.946 0 00.598 2.085h.246l.002-.016a1.115 1.115 0 011.105-1.017c.612 0 1.11.498 1.11 1.11v2.312c0 2.002-.1 3.167-2.141 3.83-1.632.53-3.484-.172-4.504-1.709l-.158-.238-.062.279c-.299 1.358-1.149 2.47-2.332 3.052-2.04 1.002-4.138.384-5.42-.53l-.462-.329 4.887 8.336.099-.044c1.918-.859 6.633-1.567 10.967-1.648 4.33.08 9.044.789 10.962 1.648l.1.044 4.886-8.336-.462.329c-1.282.914-3.38 1.532-5.42.53-1.183-.582-2.033-1.694-2.332-3.052l-.062-.279-.158.238c-1.02 1.537-2.872 2.24-4.504 1.71-2.04-.664-2.14-1.829-2.14-3.83V35.99c0-.612.497-1.11 1.109-1.11.573 0 1.058.447 1.105 1.017l.002.016h.246a3.9 3.9 0 00.598-2.085 3.937 3.937 0 00-3.932-3.933 3.937 3.937 0 00-3.933 3.933zm3.932 8.111c.604 1.377 1.724 2.852 3.759 2.665 1.252-.115 2.442-.754 3.173-1.679.4 1.206 1.212 2.162 2.314 2.704 1.104.543 2.686.626 3.898.235l-1.455 2.503c-2.203-.787-6.975-1.39-11.686-1.472-4.716.082-9.488.685-11.691 1.472l-1.455-2.503c1.212.391 2.794.308 3.898-.235 1.102-.541 1.913-1.498 2.314-2.704.731.925 1.921 1.564 3.173 1.68 2.035.186 3.155-1.289 3.759-2.666zm6.812 1.99c-.52.268-.919.707-1.147 1.239a2.482 2.482 0 00-.745-.284 2.51 2.51 0 00-.61-.043l-.14.008.027.138a2.634 2.634 0 002.084 2.065 2.63 2.63 0 002.723-1.16l.074-.116-.125-.06a2.503 2.503 0 00-.592-.193 2.48 2.48 0 00-.801-.016 2.482 2.482 0 00-.601-1.549l-.062-.072-.085.044zm-6.881-.373a2.482 2.482 0 00-.883 1.407 2.479 2.479 0 00-.792-.138c-.209 0-.417.026-.618.077l-.134.034.051.129a2.628 2.628 0 002.451 1.657c1.071 0 2.029-.64 2.44-1.63l.053-.129-.136-.034a2.495 2.495 0 00-.607-.075c-.27 0-.533.052-.786.136a2.479 2.479 0 00-.89-1.434l-.074-.059-.075.06zm-6.889.402c-.375.435-.582.98-.601 1.549a2.478 2.478 0 00-.8.016c-.206.04-.406.105-.593.194l-.125.06.075.115a2.63 2.63 0 002.722 1.16 2.634 2.634 0 002.084-2.065l.028-.138-.14-.008c-.204-.01-.41.004-.61.043a2.48 2.48 0 00-.746.284 2.48 2.48 0 00-1.147-1.238l-.084-.044-.063.072z" id="_157250624" fill="red"/><path d="M44.096 45.637v-.049c0-.505.175-.99.488-1.387.463.264.819.674 1.001 1.173l.052.142.128-.081a2.233 2.233 0 011.18-.35 2.387 2.387 0 01-1.852 1.73 2.377 2.377 0 01-2.368-.929c.125-.048.248-.098.38-.124a2.24 2.24 0 01.847-.003l.147.028-.003-.15z" id="_157250552" fill="#fc0" fill-opacity="1"/><path d="M50.671 45.135a2.24 2.24 0 01.754-1.316c.403.347.675.817.758 1.342l.024.149.14-.056c.264-.104.542-.156.828-.156.133 0 .263.025.393.048a2.386 2.386 0 01-2.143 1.335 2.381 2.381 0 01-2.156-1.362c.135-.025.27-.051.406-.051.287 0 .567.054.832.159l.139.055.025-.147z" id="_157250480" fill="#fc0" fill-opacity="1"/><path d="M57.254 45.374c.182-.5.538-.908 1-1.173a2.239 2.239 0 01.49 1.436l-.004.15.147-.028a2.24 2.24 0 01.847.003c.132.026.256.076.38.124a2.377 2.377 0 01-2.368.93 2.387 2.387 0 01-1.851-1.731 2.236 2.236 0 011.18.35l.127.081.052-.142z" id="_157250408" fill="#fc0" fill-opacity="1"/><path d="M47.825 34.669a3.695 3.695 0 013.594-4.53 3.695 3.695 0 013.595 4.53 3.64 3.64 0 01-.343.877 1.357 1.357 0 00-1.27-.907c-.745 0-1.352.606-1.352 1.352v2.312c0 1.777 0 3.31 2.308 4.06 1.66.54 3.524-.122 4.629-1.603.36 1.318 1.218 2.396 2.395 2.974 1.922.945 3.888.515 5.239-.276l-4.238 7.23c-2-.852-6.668-1.548-10.96-1.628-4.297.08-8.965.776-10.965 1.628l-4.238-7.23c1.351.791 3.316 1.221 5.239.276 1.177-.578 2.035-1.656 2.395-2.974 1.105 1.481 2.97 2.143 4.629 1.604 2.308-.75 2.308-2.284 2.308-4.06V35.99c0-.746-.607-1.352-1.352-1.352-.581 0-1.084.38-1.27.907-.148-.279-.271-.57-.343-.877zm.819-.84l.006.275.155-.053a2.042 2.042 0 012.504 1.124l.11.254.112-.254a2.041 2.041 0 012.503-1.124l.156.05.005-.272a2.779 2.779 0 00-2.775-2.775 2.779 2.779 0 00-2.776 2.775zm2.663 7.766c-.543 1.365-1.612 2.954-3.624 2.769-1.264-.116-2.466-.79-3.138-1.757l-.147-.21-.07.246c-.352 1.243-1.155 2.226-2.26 2.77-1.146.562-2.834.612-4.015.118l-.332-.14 1.901 3.273.096-.036c2.103-.782 7.025-1.409 11.704-1.49 4.674.081 9.596.708 11.7 1.49l.095.036 1.901-3.273-.332.14c-1.181.494-2.87.444-4.014-.118-1.106-.544-1.909-1.527-2.262-2.77l-.07-.246-.146.21c-.672.968-1.874 1.641-3.138 1.757-2.012.185-3.081-1.404-3.624-2.77l-.113-.283-.112.284z" id="_157250336" fill="#fc0" fill-opacity="1"/></g><g id="g4378" transform="translate(1.129 1.693) scale(1.84588)" fill-rule="nonzero" fill-opacity="1"><path id="_157225392" fill="#a05a2c" d="M44.116 63.952l-2.254-1.559-13.814 6.118.065 8.937h49.466V67.371l-12.514-5.186-.102.056-2.726 1.507-9.864-5.076-.118.075z"/><path d="M28.052 69.052l.004.465 12.6-4.912 4.359.57-3.198-2.224-13.765 6.1zm24.346-9.821l7.265 3.743-7.812-2.056-6.89 3.603-.413-.27 7.85-5.02zm12.697 3.491l11.443 4.742-11.878-2.91-4.156.69 4.591-2.522z" id="_157225320" fill="#fff"/></g><g id="g4539" transform="translate(1.129 1.693) scale(1.84588)" fill="#f60" fill-rule="nonzero" fill-opacity="1"><path d="M84.94 60.468c-.048.3-.143.72-.226 1.134-.294 1.2-.596 2.429-1.327 3.397-.17.242-.414.503-.7.733l-.001.006-.002.006c-.664.584-1.505.9-2.169.41l-.003-.002a.962.962 0 01-.16-.179c-.107-.169-.175-.408-.188-.684-.25.26-.526.424-.766.473a.956.956 0 01-.24.009l-.005-.001c-.812-.142-1.166-.967-1.205-1.85l.004-.005.004-.005a3.686 3.686 0 01.043-1.013c.193-1.198.872-2.266 1.534-3.31l.1-.145a3.367 3.367 0 01-.006-.535c.048-1.212.594-2.354 1.126-3.469l.142-.27a3.577 3.577 0 01-.113-.777c-.068-1.211.364-2.4.787-3.562.06-.145.12-.292.176-.433a2.675 2.675 0 01-.024-.114c-.263-1.184-.029-2.427.2-3.642l.027-.114a3.201 3.201 0 01-.146-.354c-.428-1.136-.37-2.4-.315-3.634.038-.427.065-.863.105-1.165.025-.183.144-.483.284-.16.08.183.132.547.312.93.186.4.542.875 1.02 1.38.302.357.62.701.935 1.047l.087.102c.031-.063.065-.126.102-.189.24-.402.482-.803.707-1.214.366-.59.62-1.127.722-1.555.099-.412.077-.78.118-.975.073-.344.25-.074.31.1.1.289.214.71.337 1.12.302 1.198.612 2.426.42 3.623a3.646 3.646 0 01-.248.91l.103.413c.25 1.21.508 2.449.265 3.637-.04.234-.117.5-.228.766l.006.411c-.03 1.235-.06 2.5-.566 3.603-.063.15-.147.312-.248.474l-.01.452c-.073 1.233-.147 2.497-.69 3.581a3.558 3.558 0 01-.39.64z" id="_156930208"/><path d="M68.7 16.451a10.253 10.253 0 00-.602-.36c-.858-.479-2.001-.945-2.745-1.27-.916-.402-2.18-.93-3.127-1.265-.19-.067-.42-.097-.447-.044-.053.088.072.148.236.226.836.396 1.895.951 2.585 1.646-.671-.176-1.38-.236-2.112-.299-.519-.04-1.04-.065-1.559-.116a9.983 9.983 0 01-1.732-.326c-.423-.117-1.6-.55-2.037-.6-.315-.035-.441.209-.025.321.849.217 1.899.594 2.732 1.11.648.4 1.121.92 1.553 1.288.722.55 1.354 1.145 2.017 1.495.348.184.84.336 1.344.402-.406.078-.816.14-1.209.135-1.06-.015-2.891-.314-3.826-.794-.162-.082-.286-.145-.324-.05-.025.054.138.218.307.328.816.53 1.766.747 2.914 1.241 1.078.465 2.352 1.212 3.23 1.59.17.073.357.15.554.222.322.221.645.439.966.658.67.458 1.672 1.18 2.533 1.653l.213.116c.32.323.643.642.963.963.573.574 1.423 1.47 2.18 2.096.11.09.23.187.358.284.252.34.508.678.76 1.017.486.65 1.2 1.658 1.86 2.385.194.213.422.452.673.675.15.262.303.523.454.784.406.703.996 1.787 1.567 2.587.496.694 1.26 1.65 2.15 1.76.725.088 1.303-.366 1.395-1.074.015-.119.019-.24.014-.36.039.015.079.028.119.04.684.207 1.334-.135 1.55-.832.266-.857-.295-1.946-.725-2.683-.496-.848-1.244-1.83-1.72-2.488l-.455-.634c-.2-.52-.53-1.021-.81-1.414-.568-.801-1.4-1.713-1.931-2.327-.288-.333-.575-.67-.866-1.002a8.413 8.413 0 00-.716-.866c-.668-.72-1.61-1.518-2.217-2.058-.32-.285-.638-.573-.96-.857-.35-.387-.788-.72-1.154-.979a10.178 10.178 0 00-.116-.081l-.054-.041a1.398 1.398 0 00-.193-.125c-.744-.487-1.626-.966-2.229-1.312-.444-.255-.887-.514-1.335-.765z" id="_156930136"/><path d="M90.209 37.955c.204-.42.412-.841.601-1.27.316-.619.522-1.176.588-1.61.064-.42.01-.784.035-.982.043-.348.243-.095.318.074.124.279.273.69.43 1.087.403 1.168.816 2.365.726 3.575-.01.235-.052.506-.127.783l.026.066c.413 1.164.836 2.357.757 3.568-.009.295-.069.648-.183.997l.003.006.002.006a3.4 3.4 0 01-.045.15l.07.25c.289 1.202.584 2.433.377 3.628a3.69 3.69 0 01-.287.973l.002.006.002.006c-.054.137-.116.27-.185.395l.024.353c.033 1.235.067 2.5-.381 3.627-.062.17-.148.355-.255.541.008.288.003.65.006 1.008-.044 1.234-.089 2.5-.607 3.596a3.374 3.374 0 01-.239.448c-.015.3-.058.703-.09 1.1-.152 1.227-.309 2.483-.921 3.53-.141.26-.353.548-.611.809V64.688c-.593.657-1.39 1.068-2.107.66l-.004-.002a.939.939 0 01-.18-.16 1.438 1.438 0 01-.267-.657c-.217.287-.472.482-.705.56a.948.948 0 01-.237.036h-.004c-.824-.046-1.272-.824-1.413-1.697l.003-.005.003-.006a3.679 3.679 0 01-.075-1.011c.052-1.212.602-2.352 1.137-3.466l.131-.248a3.615 3.615 0 01-.124-.864c-.056-1.212.39-2.396.826-3.553l.16-.378c-.1-.3-.16-.599-.18-.855-.13-1.206.241-2.416.604-3.598.072-.204.142-.41.209-.602-.361-1.142-.249-2.387-.14-3.604.03-.222.057-.447.084-.655a2.93 2.93 0 01-.06-.135c-.496-1.107-.516-2.372-.536-3.608l.012-.553a3.159 3.159 0 01-.142-.305c-.487-1.11-.496-2.377-.505-3.612.015-.428.02-.865.044-1.169.014-.184.118-.49.275-.175.09.179.16.54.36.914.207.388.587.844 1.09 1.323.321.341.657.668.99.997.176.178.322.364.442.551.047-.275.135-.563.273-.856z" id="_157143496"/><path d="M64.973 8.08c-.786-.3-1.663-.565-2.278-.766-.95-.311-2.656-.772-3.631-1.014-.196-.049-.428-.056-.45 0-.044.092.087.14.258.202.988.356 2.68.946 3.416 1.71l.074.08c-.703-.121-1.434-.112-2.19-.105-.52.01-1.042.034-1.562.032-.496-.002-1.695-.197-2.396-.321-.432-.077-.91-.25-1.35-.256-.316-.006-.418.249.006.321 1.54.24 3.336 1.25 4.399 1.995.771.479 1.457 1.01 2.15 1.296.096.04.201.075.313.108-.14.023-.28.041-.419.05-1.059.067-2.059-.227-3.029-.632-.167-.07-.296-.123-.326-.024-.021.055.154.206.332.302.882.48 1.805.88 2.716 1.292.74.335 1.851.873 2.78 1.19.187.064.394.13.61.19.494.253.993.495 1.489.74.727.36 1.82.937 2.737 1.286.256.098.55.202.858.286.263.19.526.377.788.565.659.475 1.641 1.223 2.49 1.718.172.1.364.208.568.31.431.387.873.763 1.31 1.142.612.532 1.524 1.364 2.324 1.934.13.092.27.189.42.285.28.38.567.756.85 1.133.487.65 1.202 1.656 1.865 2.381.054.06.11.12.17.184.344.548.707 1.084 1.063 1.623.447.677 1.1 1.725 1.718 2.49.202.25.445.535.717.797l.538.835c.438.683 1.078 1.74 1.685 2.512.527.67 1.334 1.591 2.23 1.659.727.054 1.283-.425 1.342-1.138a2.11 2.11 0 00-.005-.383c.03.011.061.022.092.031.682.214 1.335-.121 1.559-.816.274-.854-.274-1.949-.697-2.69-.487-.853-1.225-1.843-1.693-2.506-.36-.511-1.022-1.33-1.424-1.968-.241-.383-.303-.78-.39-.784-.097-.003-.032.354-.17.127-.379-.53-.738-1.072-1.068-1.438-.637-.708-.673-1.722-.784-1.057a7.503 7.503 0 00-.715-1.188c-.569-.8-1.401-1.713-1.933-2.326-.16-.185-.45-.484-.62-.787-.332-.593-.49-1.114-.571-.58-.873-1.089-2.085-1.906-3.175-2.742-.27-.208-.75-.535-1.072-.902-.573-.653-.806-1.045-.676-.419a10.1 10.1 0 00-.565-.462c-.78-.599-1.843-1.225-2.531-1.655a5.74 5.74 0 01-.91-.715c-.532-.533-.592-.716-.498-.162a8.687 8.687 0 00-.886-.573c-.85-.49-1.988-.97-2.727-1.306-.911-.413-2.228-1.028-3.126-1.566-.174-.104-.419-.103-.447-.05-.035.057.37.478.447.525z" id="_157143424"/><path d="M95.636 35.652c.125-.451.253-.902.361-1.358.197-.666.3-1.25.285-1.69-.013-.424-.132-.773-.144-.972-.02-.35.222-.137.326.015.173.251.394.628.62.99.61 1.076 1.232 2.178 1.365 3.384.035.248.042.543.011.85l.302.648c.478 1.14.968 2.306.959 3.519.006.257-.024.56-.093.868.056.252.116.546.18.836.213 1.217.432 2.463.153 3.644a3.582 3.582 0 01-.25.755l.058.332c.166 1.225.336 2.48.011 3.648a3.499 3.499 0 01-.212.604c.02.304.02.74.03 1.169-.024 1.235-.047 2.5-.547 3.605-.081.197-.197.412-.34.623l-.019.398c-.103 1.231-.208 2.492-.778 3.563-.13.265-.331.562-.579.834v.012c-.564.68-1.345 1.123-2.078.745l-.003-.002a.964.964 0 01-.187-.152 1.438 1.438 0 01-.293-.647c-.205.296-.452.501-.682.588a.974.974 0 01-.236.046h-.004c-.824-.013-1.304-.772-1.48-1.639l.003-.005.003-.006a3.698 3.698 0 01-.115-1.007c.003-1.213.506-2.375.996-3.51l.12-.25a3.303 3.303 0 01-.047-.455c-.075-1.21.352-2.402.768-3.566l.1-.25a3.515 3.515 0 01-.203-.68c-.26-1.184-.02-2.427.213-3.64l.102-.44a3.278 3.278 0 01-.13-.428c-.305-1.173-.114-2.425.072-3.646l.03-.159a3.106 3.106 0 01-.143-.266c-.559-1.077-.65-2.34-.74-3.571-.008-.252-.02-.507-.027-.736l-.025-.04c-.681-1.004-.92-2.247-1.154-3.46-.062-.423-.137-.854-.169-1.157-.019-.184.028-.503.239-.222.12.16.255.502.52.833.274.344.73.723 1.313 1.103.377.276.767.538 1.155.8.098.069.19.14.275.214a3.37 3.37 0 01.108-.672z" id="_157143352"/><path d="M64.49 2.953a3.657 3.657 0 00-.814-.429c-.998-.403-2.056-.39-3.169-.38-.52.01-1.042.035-1.562.034a9.96 9.96 0 01-1.756-.16c-.433-.076-.91-.249-1.35-.256-.317-.005-.419.25.006.322 1.54.24 2.696 1.087 3.759 1.832.77.48 1.457 1.01 2.15 1.296.098.04.208.078.325.111-.92.063-1.818-.134-2.7-.419-.172-.056-.305-.098-.326.003-.017.057.17.193.355.274.92.406 1.872.727 2.815 1.063.764.272 1.917.716 2.87.955.315.08.684.162 1.062.207l.74.416c.707.399 1.766 1.033 2.664 1.432.318.141.697.297 1.09.409.267.162.533.323.799.486.692.423 1.729 1.094 2.612 1.524.247.12.53.25.83.36.305.229.612.454.917.681.651.485 1.622 1.247 2.463 1.755.169.102.356.211.556.316.255.276.513.55.768.824.553.594 1.37 1.52 2.105 2.172.147.13.312.272.488.41l.627.816c.312.408.718.96 1.144 1.491.033.073.08.155.132.227.587.816 1.245 1.576 1.887 2.344.52.622 1.288 1.59 1.988 2.279.148.145.313.303.492.458.203.287.408.573.61.86.469.662 1.156 1.689 1.797 2.432.557.646 1.406 1.53 2.303 1.556.729.021 1.263-.482 1.29-1.197a2.07 2.07 0 00-.017-.341l.082.024c.691.184 1.33-.18 1.523-.883.237-.865-.359-1.935-.813-2.658-.523-.83-1.303-1.788-1.8-2.43-.27-.349-.538-.701-.81-1.05a10.16 10.16 0 00-.38-.606c-.547-.816-1.354-1.75-1.869-2.378-.634-.773-.96-2.028-1.652-2.756-.139-.147-.33-.278-.378-.243-.087.055-.002.166.108.31.308.398.524.918.69 1.466a12.408 12.408 0 00-.137-.216c-.53-.827-1.318-1.778-1.82-2.416-.618-.786-1.167-1.68-1.844-2.423-.136-.149-.324-.283-.373-.25-.089.053-.006.166.102.312.168.227.324.464.466.71l-.002-.002c-.622-.761-1.514-1.615-2.086-2.19-.705-.71-1.279-1.5-2.037-2.16-.153-.132-.355-.244-.4-.205-.081.063.013.165.137.297.19.204.366.417.527.638-.103-.092-.203-.179-.299-.26-.75-.635-1.781-1.312-2.448-1.775-.822-.57-1.553-1.527-2.419-2.038-.173-.103-.393-.176-.43-.13-.069.077.043.16.19.268.313.232.605.527.872.854-.146-.112-.29-.214-.425-.307-.808-.56-1.901-1.133-2.61-1.529-.873-.488-1.748-1.3-2.66-1.724-.182-.086-.408-.137-.44-.087-.061.083.058.155.214.248.361.216.712.495 1.04.81l-.222-.14c-.835-.518-1.955-1.036-2.683-1.396-.896-.443-1.79-.904-2.721-1.283-.187-.075-.416-.115-.445-.064-.05.075.036.134.164.204-.796-.298-1.687-.561-2.311-.76-.953-.304-1.906-.626-2.883-.86-.196-.048-.428-.054-.45.002-.043.093.089.14.26.2.99.349 1.93.8 2.672 1.56.322.33.593.743.85 1.153z" id="_157143280"/></g><g transform="translate(-92.642 1.693) scale(1.84588)" id="g4361" fill="#fc0" fill-opacity="1" fill-rule="nonzero"><path d="M117.042 4.9c-1.496-.149-2.702.821-4.16.67.842.477 1.915.899 3.044 1.248.737.229 1.546.391 2.135.235.192-.05.377-.159.522-.297-.64.038-1.307.017-1.926-.243-.329-.139-.168-.21.134-.174.576.07 1.005.028 1.562-.101.346-.08.617-.167.275-.6-.335-.424-1-.68-1.586-.738z" id="_157143208"/><path d="M115.076 18.073c-1.406-.53-2.642-1.866-3.843-2.773.779.158 1.562.213 2.35.289.846.09 1.62.192 2.346.471.175.282.329.588.477.89a4.824 4.824 0 00-.43-.13c-.122-.028-.679-.13-.728-.004-.03.075.428.2.54.246.307.125.596.252.88.415l.057.111c.09.184.2.372.328.557l-.087.032c-.655.22-1.691-.029-1.89-.104z" id="_157143136"/><path d="M118.066 18.953c-1.47-.317-2.777.51-4.21.196.784.569 1.802 1.109 2.884 1.584.707.31 1.492.563 2.095.475.196-.03.393-.115.552-.236-.64-.035-1.3-.13-1.885-.46-.312-.175-.145-.227.152-.157.564.134.995.142 1.563.076.353-.041.632-.096.342-.565-.285-.46-.918-.79-1.493-.913z" id="_157143064"/><path d="M122.32 21.63c-1.433-.456-2.814.242-4.21-.208.725.641 1.687 1.276 2.719 1.853.673.377 1.431.704 2.039.674.199-.01.403-.077.573-.182-.635-.096-1.282-.255-1.833-.639-.293-.204-.122-.24.166-.141.55.187.978.236 1.55.225.355-.007.638-.035.393-.53-.239-.484-.837-.873-1.398-1.052z" id="_157142992"/><path d="M126.023 25.136c-1.322-.714-2.81-.286-4.097-.988.593.765 1.42 1.568 2.326 2.327.592.495 1.276.958 1.878 1.041.197.027.41 0 .597-.072-.605-.212-1.212-.489-1.682-.968-.25-.255-.075-.259.19-.109.505.286.916.415 1.48.51.35.06.634.084.486-.447-.145-.52-.66-1.014-1.178-1.294z" id="_157142920"/><path d="M129.22 29.116c-1.207-.896-2.74-.683-3.914-1.562.478.842 1.182 1.755 1.97 2.635.516.574 1.127 1.13 1.712 1.298.191.055.406.057.6.014-.568-.297-1.13-.657-1.526-1.199-.211-.288-.038-.266.203-.08.46.355.848.54 1.392.715.34.11.616.174.545-.373-.07-.536-.51-1.097-.982-1.448z" id="_157142848"/><path d="M132.062 33.425c-1.094-1.031-2.641-1-3.704-2.01.376.891.968 1.88 1.648 2.847.444.631.986 1.254 1.547 1.49.183.077.396.105.594.084-.53-.36-1.044-.784-1.375-1.369-.176-.31-.006-.269.211-.056.414.407.78.637 1.299.874.324.148.59.245.585-.307-.006-.54-.377-1.15-.805-1.553z" id="_157142776"/><path d="M132.287 33.046c-.493-1.42.168-2.819-.319-4.202.66.708 1.32 1.653 1.924 2.67.394.663.741 1.412.727 2.02a1.238 1.238 0 01-.167.577c-.113-.631-.288-1.274-.686-1.815-.212-.288-.243-.116-.138.17.202.544.262.971.266 1.542.002.356-.019.64-.52.408-.49-.226-.894-.814-1.087-1.37z" id="_157142704"/><path d="M129.456 28.677c-.617-1.37-.081-2.823-.688-4.158.72.648 1.46 1.53 2.152 2.49.45.626.862 1.341.902 1.949.012.198-.031.408-.116.589-.167-.619-.4-1.244-.843-1.748-.236-.267-.253-.093-.122.182.249.524.346.944.4 1.513.034.354.039.638-.48.452-.51-.182-.964-.732-1.205-1.269z" id="_157142632"/><path d="M126.192 24.701c-.789-1.279-.446-2.788-1.22-4.033.797.548 1.646 1.328 2.455 2.19.529.562 1.03 1.218 1.147 1.815.038.196.022.41-.038.6-.247-.592-.557-1.182-1.063-1.624-.269-.235-.262-.06-.097.196.314.488.465.891.593 1.448.08.347.12.628-.419.51-.528-.114-1.05-.6-1.358-1.102z" id="_157141000"/><path d="M122.312 21.087c-1.034-1.09-1.009-2.638-2.022-3.698.893.373 1.884.962 2.853 1.639.632.442 1.257.982 1.495 1.542.077.183.106.396.086.595-.363-.53-.788-1.043-1.374-1.372-.311-.174-.269-.005-.055.212.408.413.639.777.878 1.296.149.323.246.59-.305.586-.54-.005-1.15-.374-1.556-.8z" id="_157140928"/><path d="M118.037 18.509c-1.146-.972-1.287-2.514-2.409-3.458.929.275 1.977.753 3.013 1.322.677.371 1.356.84 1.653 1.372.097.173.148.382.15.581-.418-.486-.896-.95-1.514-1.215-.328-.14-.268.025-.032.217.45.366.719.703 1.013 1.193.182.306.308.56-.24.616-.538.053-1.185-.247-1.634-.628z" id="_157140856"/><path d="M113.069 10.991c-1.458-.365-2.84-1.55-4.136-2.313.792.066 1.576.032 2.368.016.822-.007 1.58.005 2.309.18.182.269.35.551.518.822a3.74 3.74 0 00-.31-.053c-.124-.013-.688-.051-.723.08-.02.077.449.15.565.182.261.073.511.149.758.245.067.1.575.71.56.717-.692.243-1.136.318-1.91.124z" id="_157140784"/><path d="M115.812 11.285c-1.487-.215-2.736.7-4.186.484.82.514 1.873.983 2.985 1.383.726.261 1.528.46 2.122.33.195-.042.385-.142.535-.273-.64.01-1.306-.042-1.912-.33-.323-.153-.16-.217.14-.167.573.095 1.004.073 1.566-.031.35-.065.624-.14.302-.588-.316-.438-.97-.724-1.552-.808z" id="_157140712"/><path d="M120.722 13.543c-1.482-.253-2.753.63-4.198.377.807.535 1.848 1.03 2.95 1.458.719.28 1.515.499 2.113.384.195-.037.387-.132.541-.26-.641-.006-1.304-.074-1.903-.377-.319-.162-.154-.221.145-.164.57.11 1 .099 1.565.008.352-.056.628-.123.317-.579-.304-.446-.95-.748-1.53-.847z" id="_157140640"/><path d="M125.202 16.354c-1.42-.492-2.819.17-4.202-.315.708.659 1.654 1.318 2.67 1.921.664.394 1.413.74 2.022.725.199-.005.404-.067.577-.167-.632-.112-1.275-.287-1.816-.685-.288-.211-.116-.243.17-.137.544.2.971.26 1.542.264.356.002.64-.019.408-.52-.227-.49-.815-.894-1.37-1.086z" id="_157140568"/><path d="M129.576 19.896c-1.37-.618-2.823-.084-4.157-.692.646.72 1.528 1.462 2.486 2.154.626.452 1.341.864 1.948.904.199.013.41-.03.59-.115-.619-.168-1.243-.4-1.747-.845-.267-.237-.093-.253.182-.122.524.25.944.348 1.512.402.355.034.639.039.453-.48-.182-.509-.731-.964-1.267-1.206z" id="_157140496"/><path d="M133.052 24.119c-1.21-.893-2.742-.678-3.918-1.554.48.841 1.186 1.752 1.977 2.63.516.574 1.128 1.128 1.714 1.295.19.055.405.057.6.012-.57-.295-1.13-.654-1.53-1.195-.21-.287-.037-.266.204-.08.46.354.85.539 1.394.712.339.108.616.172.544-.375-.071-.535-.512-1.096-.985-1.446z" id="_157140424"/><path d="M136.083 28.547c-1.153-.964-2.696-.841-3.817-1.786.428.868 1.078 1.82 1.814 2.744.481.604 1.059 1.194 1.633 1.396.188.065.402.08.599.048-.55-.329-1.09-.721-1.455-1.285-.194-.3-.022-.268.208-.068.438.381.815.589 1.348.795.332.128.605.209.566-.341-.039-.539-.445-1.125-.896-1.503z" id="_157140352"/><path d="M139.04 32.722c-1.14-.98-2.685-.877-3.794-1.837.417.873 1.054 1.834 1.778 2.768.473.61 1.043 1.208 1.614 1.417.187.069.4.087.598.057-.546-.336-1.08-.736-1.437-1.304-.19-.303-.018-.269.208-.066.433.387.808.6 1.338.813.33.133.602.217.57-.333-.031-.54-.43-1.131-.876-1.515z" id="_157140280"/><path d="M139.32 32.24c-.478-1.426.198-2.818-.274-4.206.652.715 1.302 1.667 1.895 2.689.387.668.726 1.42.705 2.029-.007.198-.07.403-.172.575-.106-.633-.275-1.277-.667-1.823-.209-.29-.242-.118-.14.169.196.546.252.974.25 1.545-.001.356-.026.64-.524.403-.488-.232-.886-.824-1.073-1.382z" id="_157140208"/><path d="M136.369 28.182c-.513-1.412.13-2.82-.377-4.197.67.699 1.343 1.635 1.96 2.642.404.658.761 1.403.755 2.011a1.235 1.235 0 01-.159.58c-.12-.63-.306-1.27-.711-1.806-.216-.285-.245-.112-.135.172.209.54.275.967.287 1.538.007.356-.01.64-.514.415-.493-.22-.906-.802-1.106-1.355z" id="_157140136"/><path d="M133.247 23.614c-.617-1.37-.082-2.823-.69-4.157.72.647 1.462 1.53 2.153 2.488.452.626.864 1.341.903 1.948.013.199-.03.409-.115.59-.168-.62-.4-1.244-.844-1.747-.236-.268-.253-.094-.122.181.249.524.347.944.402 1.513.034.354.038.638-.482.452-.508-.182-.963-.731-1.205-1.268z" id="_157140064"/><path d="M129.714 19.397c-.88-1.218-.65-2.749-1.515-3.933.836.488 1.74 1.203 2.611 2.002.569.522 1.117 1.14 1.278 1.726.053.192.052.407.007.601-.29-.572-.643-1.137-1.18-1.54-.286-.215-.266-.041-.083.202.35.463.53.854.699 1.4.105.34.166.618-.38.54-.535-.075-1.091-.522-1.436-.998z" id="_157132680"/><path d="M125.248 15.85c-.992-1.129-.908-2.674-1.881-3.771.878.406 1.846 1.032 2.789 1.745.615.465 1.22 1.028 1.436 1.597.07.186.09.4.063.597-.342-.542-.748-1.07-1.32-1.422-.305-.186-.27-.015-.064.21.392.428.61.8.829 1.328.137.328.224.599-.327.573-.54-.024-1.136-.416-1.525-.857z" id="_157132608"/><path d="M120.734 12.884c-1.133-.987-1.254-2.53-2.363-3.49.924.288 1.967.78 2.995 1.362.671.38 1.345.859 1.634 1.394.095.175.143.384.142.584-.411-.493-.883-.963-1.497-1.235-.327-.145-.268.02-.035.215.445.373.71.713.997 1.207.178.308.3.565-.249.612-.538.047-1.18-.262-1.624-.649z" id="_157132536"/><path d="M115.725 10.804c-1.234-.858-1.522-2.378-2.73-3.21.95.184 2.04.56 3.126 1.026.71.304 1.43.706 1.777 1.206.113.164.184.366.205.565-.463-.444-.983-.86-1.624-1.064-.34-.108-.264.05-.01.218.483.322.783.631 1.122 1.09.211.287.361.529-.18.636-.53.106-1.202-.131-1.686-.467z" id="_157132464"/><path d="M113.278 4.952c-1.458-.366-2.84-1.551-4.136-2.314.792.067 1.576.032 2.368.017 1.07-.01 2.033.013 2.965.39.72.291 1.037.606 1.039.698.004.248-.978-.082-1.487-.14-.124-.013-.689-.05-.723.08-.02.078.449.15.565.182.513.144.983.297 1.471.596.062.037.103.075.113.117l-.117.041c-.354.122-.724.273-1.097.403-.44.015-.842-.04-.961-.07z" id="_157132392"/><path d="M117.022 4.411c-1.231-.862-1.513-2.384-2.717-3.221.95.188 2.038.568 3.121 1.039.708.307 1.428.712 1.772 1.214.113.164.183.367.203.565-.461-.446-.98-.864-1.62-1.07-.339-.11-.264.048-.011.218.482.323.78.634 1.118 1.095.21.288.359.53-.183.635-.53.103-1.202-.137-1.683-.475z" id="_157132320"/><path d="M130.744 12.524c-1.412-.514-2.821.127-4.197-.38.699.67 1.634 1.344 2.64 1.962.658.404 1.403.762 2.011.756.199-.002.405-.06.58-.158-.63-.122-1.27-.307-1.806-.713-.284-.215-.111-.244.173-.135.54.21.967.276 1.538.289.356.007.64-.01.415-.514-.219-.493-.8-.906-1.354-1.108z" id="_157132248"/><path d="M130.865 11.954c-.937-1.174-.779-2.714-1.698-3.856.858.448 1.795 1.12 2.702 1.877.593.494 1.169 1.085 1.358 1.664.061.189.071.403.034.6-.316-.558-.695-1.106-1.25-1.484-.296-.2-.268-.028-.074.206.371.446.57.829.764 1.366.12.335.195.61-.354.558-.538-.05-1.115-.47-1.482-.93z" id="_157132176"/><path d="M134.643 15.559c-.708-1.325-.272-2.81-.969-4.101.762.596 1.562 1.427 2.316 2.336.493.594.952 1.28 1.033 1.884.026.197-.003.41-.075.596-.21-.606-.483-1.214-.96-1.687-.255-.25-.259-.076-.11.19.284.506.41.918.503 1.482.058.351.081.634-.45.484-.52-.147-1.01-.665-1.288-1.184z" id="_157132104"/><path d="M137.904 19.421c-.551-1.398.052-2.823-.491-4.185.688.68 1.387 1.597 2.032 2.587.421.647.799 1.381.81 1.99a1.24 1.24 0 01-.143.583c-.139-.626-.341-1.261-.761-1.786-.223-.278-.248-.105-.13.176.223.536.301.96.329 1.53.017.356.008.64-.502.43-.5-.207-.928-.777-1.144-1.325z" id="_157132032"/><path d="M134.497 16.17c-1.296-.76-2.797-.385-4.059-1.133.566.786 1.364 1.618 2.242 2.408.574.517 1.24 1.003 1.84 1.108.196.034.41.013.599-.05-.597-.235-1.194-.533-1.646-1.029-.241-.263-.066-.26.193-.101.495.304.901.446 1.46.562.35.072.632.107.503-.43-.127-.525-.624-1.036-1.132-1.334z" id="_157131960"/><path d="M126.35 9.583c-1.452-.383-2.797.383-4.213.003.756.604 1.749 1.19 2.808 1.714.691.343 1.465.632 2.07.57.198-.02.398-.097.563-.21-.638-.064-1.293-.19-1.862-.545-.303-.19-.134-.234.159-.15.558.159.988.187 1.558.147.355-.025.636-.067.367-.55-.263-.47-.88-.829-1.45-.98z" id="_157131888"/><path d="M121.776 7.114c-1.466-.333-2.783.48-4.212.15.777.577 1.79 1.128 2.866 1.615.703.318 1.486.58 2.09.498.197-.027.394-.111.554-.23-.64-.041-1.298-.145-1.88-.48-.31-.179-.142-.229.154-.156.563.14.994.153 1.562.093.354-.037.634-.09.348-.561-.28-.462-.908-.799-1.482-.93z" id="_157131816"/><path d="M126.426 8.943c-1.047-1.078-1.04-2.626-2.065-3.674.897.363 1.895.94 2.871 1.606.638.434 1.269.967 1.513 1.524.08.182.11.395.093.594-.369-.525-.8-1.033-1.39-1.355-.313-.171-.268-.002-.052.212.413.408.648.77.893 1.285.152.322.253.588-.298.59-.54.002-1.155-.36-1.565-.782z" id="_157131744"/><path d="M121.865 6.573c-1.1-1.024-1.169-2.57-2.246-3.566.915.318 1.94.844 2.949 1.46.658.403 1.315.903 1.587 1.447.089.178.13.389.122.588-.394-.505-.85-.991-1.455-1.284-.322-.155-.269.012-.042.215.432.387.685.736.956 1.24.169.313.282.573-.268.603-.54.029-1.172-.302-1.603-.703z" id="_157124120"/><path d="M137.645 19.957c-1.218-.88-2.748-.65-3.933-1.515.488.836 1.203 1.74 2.002 2.61.522.57 1.14 1.118 1.727 1.279.191.053.406.053.6.006-.572-.29-1.137-.643-1.54-1.18-.215-.285-.041-.266.202-.082.463.35.854.53 1.4.698.34.105.618.167.54-.38-.075-.534-.521-1.09-.998-1.436z" id="_157124048"/><path d="M140.845 23.844c-1.254-.828-2.773-.531-3.994-1.344.524.814 1.277 1.687 2.113 2.522.546.546 1.187 1.066 1.78 1.202.194.045.408.035.6-.02-.584-.264-1.164-.593-1.59-1.112-.227-.275-.052-.264.199-.09.477.329.876.492 1.43.637.343.09.623.14.522-.403-.098-.53-.568-1.068-1.06-1.392z" id="_157123976"/><path d="M143.86 27.768c-1.184-.926-2.722-.754-3.872-1.663.455.854 1.135 1.785 1.9 2.685.5.588 1.097 1.16 1.677 1.343.19.06.404.068.6.029-.56-.311-1.112-.686-1.495-1.238-.203-.293-.03-.267.206-.075.45.367.833.563 1.373.752.336.118.61.19.554-.36-.055-.536-.48-1.11-.943-1.472z" id="_157123904"/><path d="M141.177 23.277c-.58-1.387-.006-2.824-.576-4.175.702.666 1.42 1.569 2.084 2.546.434.638.827 1.364.85 1.972a1.23 1.23 0 01-.131.587c-.151-.624-.366-1.254-.797-1.77-.229-.274-.25-.1-.126.178.234.531.32.953.36 1.523.024.355.02.64-.494.44-.503-.196-.943-.758-1.17-1.301z" id="_157123832"/><path d="M144.117 27.31c-.54-1.404.076-2.824-.456-4.19.683.686 1.374 1.609 2.01 2.604.416.65.787 1.388.793 1.996.002.2-.054.407-.148.583-.133-.628-.33-1.265-.746-1.792-.22-.28-.246-.108-.131.174.219.538.293.962.316 1.533.014.356.002.64-.506.425-.497-.21-.92-.785-1.132-1.334z" id="_157123760"/><path d="M130.632 30.407c.043.011.086.022.129.031.354.074.687.008.95-.168-.017.444-.067.895-.087 1.317-.022.292-.014.612.03.935a4.368 4.368 0 00-.653-.3c-.315-.123-.655-.236-.99-.363.394-.199.645-.598.65-1.092a2.085 2.085 0 00-.029-.36z" id="_157123688"/><path d="M127.621 26.27l.092.009c.364.027.687-.083.925-.293.022.436.012.881.029 1.296.004.322.047.675.136 1.025a4.4 4.4 0 00-.777-.26c-.306-.08-.633-.15-.958-.228.444-.236.688-.709.617-1.253-.014-.1-.036-.2-.064-.296z" id="_157123616"/><path d="M124.036 22.327c.03-.002.06-.005.09-.01.362-.047.657-.222.847-.48.116.522.17 1.078.256 1.583.044.31.13.646.258.973a4.392 4.392 0 00-.799-.145c-.31-.035-.64-.057-.968-.088.484-.301.687-.86.498-1.434a2.14 2.14 0 00-.182-.399z" id="_157123544"/><path d="M119.892 19.555c.027-.005.054-.01.08-.018.334-.08.596-.267.76-.517.13.341.247.688.374 1.01.116.317.283.652.497.965a4.375 4.375 0 00-.76.01c-.29.022-.593.058-.898.088.255-.341.309-.794.116-1.232a2.083 2.083 0 00-.169-.306z" id="_157123472"/><path d="M137.424 29.998c.038.014.076.026.115.037.466.134.913.015 1.217-.294-.026.35-.064.7-.083 1.031-.031.352-.018.746.05 1.137a4.404 4.404 0 00-.799-.34c-.331-.112-.69-.212-1.041-.328.31-.2.513-.541.542-.961a2.046 2.046 0 000-.282z" id="_157123400"/><path d="M134.457 25.352c.032.008.064.016.096.022.48.1.919-.056 1.198-.392.025.578-.046 1.19-.065 1.75-.02.31-.004.653.053.997a4.402 4.402 0 00-.787-.319c-.451-.146-.95-.27-1.418-.44.571-.119.957-.588.962-1.203a2.157 2.157 0 00-.04-.415z" id="_157123328"/><path d="M131.229 20.853c.04.002.08.004.12.004.44 0 .807-.195 1.026-.515.09.61.058 1.276.083 1.877.004.34.052.714.152 1.082a4.391 4.391 0 00-.755-.25c-.482-.124-1.015-.221-1.512-.373l.025-.005c.713-.153 1.112-.77.967-1.47a2.103 2.103 0 00-.106-.35z" id="_157123256"/><path d="M126.933 17.154l.081-.006c.585-.055 1.008-.445 1.105-.985.267.626.378 1.373.54 2.026.072.326.191.675.357 1.01a4.401 4.401 0 00-.835-.093c-.598-.025-1.26.005-1.868-.083.648-.238.959-.866.76-1.526a2.098 2.098 0 00-.14-.343z" id="_157104096"/><path d="M122.497 13.967a1.94 1.94 0 00.158-.029c.436-.1.753-.38.891-.75.213.505.362 1.063.538 1.56.1.312.249.643.442.956a4.382 4.382 0 00-.784-.012c-.384.02-.792.062-1.197.083.368-.367.457-.906.209-1.411a2.188 2.188 0 00-.257-.397z" id="_157104024"/><path d="M117.627 11.68c.042-.011.083-.024.124-.038.606-.212.929-.765.818-1.376.339.52.59 1.141.865 1.68.169.356.411.73.71 1.058a4.427 4.427 0 00-.971.125c-.475.103-.982.252-1.483.34.37-.38.449-.932.178-1.436a2.143 2.143 0 00-.241-.353z" id="_157103952"/><path d="M132.069 15.09c.38.055.766.092 1.126.145.268.033.555.095.84.189a4.427 4.427 0 01-.274-1.204c-.052-.487-.072-1.02-.148-1.527-.193.376-.572.621-1.046.643-.037.002-.074.003-.11.002.056.115.105.235.14.358.163.57-.052 1.11-.529 1.395z" id="_157103880"/><path d="M128.086 10.17c.056-.004.112-.01.167-.017.546-.08.936-.446 1.04-.942.188.516.31 1.081.462 1.587.095.352.248.73.457 1.083a4.414 4.414 0 00-.918-.042c-.402.014-.831.054-1.255.066.344-.334.454-.83.263-1.324a2.178 2.178 0 00-.216-.412z" id="_157103808"/><path d="M123.582 7.715a1.95 1.95 0 00.169-.025c.541-.106.912-.491.99-.991.168.4.31.82.467 1.201.136.362.342.747.605 1.095a4.418 4.418 0 00-.968.039c-.374.046-.769.119-1.164.17.216-.33.255-.75.08-1.16a2.113 2.113 0 00-.179-.329z" id="_157103736"/><path d="M135.688 18.733c.3-.249.461-.634.419-1.075a2.162 2.162 0 00-.092-.439l.05.008c.472.065.891-.109 1.15-.446-.004.41-.03.822-.033 1.21-.013.374.025.793.127 1.203a4.402 4.402 0 00-.871-.292c-.24-.06-.495-.113-.75-.17z" id="_157103664"/><path d="M140.602 23.148a4.416 4.416 0 00-1.008-.306c-.337-.068-.698-.123-1.055-.19.35-.215.567-.597.566-1.06 0-.122-.012-.245-.034-.365l.054.015c.527.135 1.021-.046 1.31-.452 0 .363-.014.727-.01 1.07a4.42 4.42 0 00.177 1.288z" id="_157103592"/><path d="M143.499 26.966c-.27-.13-.544-.23-.805-.298-.252-.073-.518-.138-.786-.208.309-.233.486-.608.467-1.046a2.167 2.167 0 00-.051-.372c.036.011.074.021.11.03.378.089.734.017 1.01-.179-.012.333-.032.664-.037.979-.015.34.013.719.092 1.094z" id="_157103520"/><path d="M118.914 5.257c.073-.017.145-.038.215-.063.48-.172.78-.558.825-1.014.24.459.432.963.643 1.413.137.315.33.646.568.95-.32-.007-.632.02-.913.074-.401.065-.826.16-1.25.225.316-.407.34-.948.035-1.417a2.025 2.025 0 00-.123-.168z" id="_157103448"/><path d="M140.701 57.003c.343-.319.687-.637 1.018-.969.213-.19.404-.378.571-.56-.31.144-.647.176-.992.044l-.004-.002a.943.943 0 01-.203-.13 1.433 1.433 0 01-.362-.61c-.172.317-.395.547-.613.659a.942.942 0 01-.23.071h-.004a1.21 1.21 0 01-.69-.133c.05.12.107.245.167.371.176.435.373.86.565 1.287.1.23.17.455.215.674.142-.24.327-.478.562-.702z" id="_157103376"/><path d="M142.713 50.641a1.286 1.286 0 01-.15-.015h-.003a.949.949 0 01-.225-.086 1.436 1.436 0 01-.48-.522c-.103.345-.273.617-.464.771a.94.94 0 01-.21.117l-.004.002c-.462.144-.891.008-1.256-.285l.11.205c.204.422.427.834.645 1.248.115.223.199.444.257.66.127-.25.297-.498.517-.736.321-.34.646-.679.955-1.03.109-.112.211-.22.307-.329z" id="_157103304"/><path d="M139.617 61.893c.37-.288.74-.573 1.1-.875.222-.167.423-.333.602-.494a1.24 1.24 0 01-.99-.02h-.004a.925.925 0 01-.193-.144 1.436 1.436 0 01-.324-.631c-.191.304-.427.521-.653.619a.933.933 0 01-.234.057h-.004a1.208 1.208 0 01-.617-.141c.028.084.059.17.091.257.138.448.295.89.45 1.331.08.238.13.468.154.69a3.3 3.3 0 01.622-.649z" id="_157103232"/><path d="M142.81 45.783a1.26 1.26 0 01-.212.006h-.004a.949.949 0 01-.233-.062 1.437 1.437 0 01-.533-.468c-.066.354-.206.642-.38.816a.95.95 0 01-.196.138l-.004.002c-.324.14-.647.13-.95.016l.058.068c.286.37.59.728.889 1.088.158.195.285.393.387.592.073-.27.188-.548.354-.827.244-.399.492-.797.721-1.205l.103-.164z" id="_157103160"/><path d="M142.146 41.35c-.073.01-.148.011-.226.007h-.004a.952.952 0 01-.233-.065 1.436 1.436 0 01-.529-.472c-.069.353-.211.64-.387.812a.931.931 0 01-.197.137l-.004.002a1.22 1.22 0 01-.473.1c.279.284.566.559.851.836.178.177.326.36.448.548.044-.276.129-.565.264-.86.165-.347.332-.693.49-1.044z" id="_157093376"/><path d="M139.831 54.866c.517-.094.668-.823.69-1.3.03-.63-.188-1.122-.501-1.707-.344-.644-.75-1.313-.981-2.207-.372 1.02-.712 1.893-.669 2.98.018.44.123 1.074.441 1.696-.053-.765.062-1.715.184-1.685.203.049.151 2.348.836 2.223z" id="_157093304"/><path d="M141.518 54.914c-.472-.229-.423-.972-.317-1.438.14-.614.482-1.03.94-1.51.503-.528 1.073-1.065 1.536-1.864.084 1.083.179 2.015-.153 3.05a4.166 4.166 0 01-.88 1.517c.257-.723.4-1.67.275-1.674-.209-.006-.774 2.223-1.4 1.92z" id="_157093232"/><path d="M138.906 59.763c.522-.062.718-.78.77-1.255.069-.627-.118-1.131-.394-1.735-.302-.664-.665-1.357-.84-2.264-.435.996-.829 1.845-.854 2.933-.01.44.055 1.079.334 1.72-.006-.767.17-1.708.29-1.67.198.061.003 2.352.694 2.27z" id="_157093160"/><path d="M140.587 59.916c-.457-.258-.361-.996-.226-1.455.178-.604.545-.998 1.032-1.448.536-.496 1.138-.996 1.65-1.765.016 1.086.052 2.022-.344 3.035-.16.41-.468.974-.972 1.459.301-.706.503-1.641.378-1.653-.208-.02-.911 2.17-1.518 1.827z" id="_157093088"/><path d="M140.994 50.292c.486-.2.484-.944.407-1.416-.102-.622-.416-1.058-.844-1.566-.469-.558-1.004-1.13-1.415-1.957-.152 1.076-.305 2-.038 3.054.107.428.341 1.026.781 1.569-.21-.738-.293-1.691-.168-1.687.209.006.633 2.266 1.277 2.003z" id="_157093016"/><path d="M142.655 49.99c-.51-.127-.615-.864-.607-1.341.01-.63.258-1.108.607-1.672.384-.62.83-1.264 1.117-2.142.307 1.043.592 1.935.481 3.017a4.166 4.166 0 01-.546 1.665c.101-.76.045-1.716-.078-1.694-.206.037-.298 2.334-.974 2.167z" id="_157092944"/><path d="M137.586 64.484c.525-.016.784-.714.878-1.182.123-.619-.018-1.138-.24-1.763-.243-.688-.543-1.411-.637-2.33-.521.954-.989 1.765-1.11 2.846-.049.439-.04 1.08.182 1.743.062-.764.319-1.686.435-1.638.193.079-.204 2.344.492 2.324z" id="_157092872"/><path d="M139.247 64.785c-.433-.298-.273-1.025-.098-1.47.232-.586.632-.945 1.157-1.351.576-.447 1.22-.892 1.798-1.613-.08 1.084-.126 2.02-.61 2.993-.196.395-.551.93-1.097 1.367.363-.676.646-1.59.523-1.613-.206-.038-1.1 2.08-1.673 1.687z" id="_157092800"/><path d="M141.002 45.622c.462-.25.381-.99.255-1.45-.166-.609-.525-1.01-1.004-1.47-.525-.505-1.117-1.017-1.613-1.796-.039 1.086-.093 2.02.283 3.041.153.414.448.984.943 1.478-.287-.712-.47-1.651-.345-1.66.208-.016.868 2.187 1.481 1.857z" id="_157092728"/><path d="M142.622 45.147c-.52-.072-.703-.794-.746-1.27-.056-.628.14-1.129.428-1.727.316-.657.692-1.344.886-2.247.414 1.004.792 1.861.795 2.949a4.16 4.16 0 01-.368 1.714c.021-.767-.135-1.711-.255-1.677-.2.058-.05 2.353-.74 2.258z" id="_157092656"/><path d="M140.325 41.175c.465-.245.39-.986.268-1.447-.161-.61-.517-1.014-.991-1.478-.521-.51-1.109-1.028-1.598-1.81-.048 1.085-.11 2.02.257 3.043.149.415.44.987.93 1.485-.281-.713-.456-1.654-.33-1.663.207-.014.848 2.195 1.464 1.87z" id="_157092584"/><path d="M141.949 40.715c-.52-.077-.696-.8-.734-1.277-.05-.628.15-1.127.443-1.723.321-.654.703-1.338.904-2.24.407 1.009.777 1.869.77 2.957a4.164 4.164 0 01-.382 1.71c.027-.767-.12-1.712-.242-1.678-.2.056-.07 2.352-.759 2.25z" id="_157092512"/><path d="M134.463 54.017a3.431 3.431 0 00-.167-.454c-.185-.397-.373-.793-.545-1.196.267.16.572.227.905.158l.004-.001a.95.95 0 00.22-.097c.076-.05.151-.116.222-.197.128.225.283.398.443.499.037.02.075.04.114.056-.264.263-.536.52-.806.777-.15.147-.28.3-.39.455z" id="_157092440"/><path d="M134.479 48.158c.179.02.364 0 .553-.068l.004-.002a.917.917 0 00.204-.126c.056-.05.11-.11.16-.18.04.033.081.06.122.084a.945.945 0 00.226.083h.004c.158.024.309.017.45-.015a9.78 9.78 0 01-.143.216c-.242.4-.501.791-.758 1.183l-.03.048a3.476 3.476 0 00-.206-.354c-.196-.289-.394-.577-.586-.869z" id="_157085864"/><path d="M132.393 62.802c.4-.243.802-.483 1.194-.741.277-.16.526-.323.744-.484-.268.061-.545.04-.818-.092l-.004-.002a.94.94 0 01-.19-.147 1.383 1.383 0 01-.29-.568c-.244.427-.575.717-.871.816a.935.935 0 01-.238.037h-.004a1.211 1.211 0 01-.55-.16c.079.405.17.808.26 1.21.052.246.074.48.074.703a3.3 3.3 0 01.692-.572z" id="_157085792"/><path d="M133.207 58.345c-.155-.442-.315-.882-.454-1.33a9.227 9.227 0 01-.079-.219c.192.107.41.163.653.153h.004c.08-.01.158-.031.233-.06.165-.074.336-.213.49-.403.07.182.163.333.268.44.06.055.125.102.196.14l.004.002c.12.054.24.086.36.1-.3.281-.608.552-.914.825-.276.251-.486.52-.642.795a3.455 3.455 0 00-.118-.443z" id="_157085720"/><path d="M131.96 60.98c.525-.017.782-.716.874-1.185.122-.619-.021-1.137-.245-1.762-.245-.687-.547-1.409-.645-2.327-.518.955-.983 1.768-1.1 2.85a4.166 4.166 0 00.186 1.742c.06-.765.314-1.688.43-1.64.194.078-.196 2.344.5 2.322z" id="_157085648"/><path d="M133.309 56.306c.52-.068.709-.788.755-1.264.062-.627-.13-1.13-.414-1.73-.31-.66-.68-1.35-.866-2.254-.423 1-.808 1.854-.82 2.942a4.172 4.172 0 00.353 1.717c-.014-.767.15-1.71.27-1.674.2.06.03 2.352.722 2.263z" id="_157085576"/><path d="M134.534 51.894c.503-.152.573-.893.542-1.37-.041-.629-.312-1.093-.688-1.64-.413-.601-.89-1.222-1.22-2.085-.256 1.056-.497 1.96-.333 3.036.066.436.24 1.054.626 1.637-.138-.754-.129-1.711-.004-1.696.207.027.41 2.317 1.078 2.117z" id="_157085504"/><path d="M135.882 52.19c-.505-.143-.588-.883-.566-1.36.03-.63.293-1.1.659-1.653.402-.608.868-1.237 1.182-2.106.275 1.051.532 1.952.388 3.03a4.165 4.165 0 01-.597 1.648c.125-.757.098-1.714-.026-1.696-.207.03-.37 2.324-1.04 2.136z" id="_157085432"/><path d="M134.773 56.477c-.46-.253-.374-.993-.244-1.453.172-.606.534-1.004 1.016-1.46.53-.502 1.126-1.009 1.629-1.783.03 1.086.076 2.021-.309 3.038-.156.413-.456.98-.955 1.47.293-.709.484-1.647.359-1.657-.208-.018-.886 2.18-1.496 1.845z" id="_157085360"/><path d="M133.785 60.902c-.452-.269-.339-1.004-.193-1.46.193-.6.569-.984 1.067-1.423.546-.483 1.16-.97 1.69-1.726-.01 1.087.006 2.023-.415 3.026-.17.407-.49.963-1.006 1.436.318-.699.541-1.63.417-1.644-.207-.025-.962 2.148-1.56 1.791z" id="_157085288"/><path d="M135.948 47.222c-.511-.12-.625-.857-.623-1.334.003-.63.245-1.11.587-1.68.376-.625.815-1.273 1.091-2.154.32 1.039.615 1.927.517 3.01a4.165 4.165 0 01-.526 1.672c.092-.761.025-1.716-.098-1.693-.205.04-.27 2.338-.948 2.179z" id="_157085216"/><path d="M134.754 47.392c.477-.22.441-.964.343-1.432-.129-.617-.463-1.039-.912-1.527-.493-.537-1.053-1.085-1.501-1.892-.105 1.081-.216 2.011.097 3.053.127.422.387 1.009.851 1.532-.243-.728-.369-1.676-.243-1.678.209-.003.733 2.236 1.365 1.944z" id="_157085144"/><path d="M130.073 65.138c.524.046.862-.617 1.01-1.071.195-.6.115-1.132-.032-1.779-.161-.711-.375-1.465-.362-2.388-.628.886-1.187 1.638-1.433 2.697-.1.43-.166 1.068-.024 1.753.15-.752.514-1.638.624-1.577.182.101-.476 2.304.217 2.365z" id="_157085072"/><path d="M131.688 65.631c-.395-.346-.151-1.05.074-1.47.298-.556.738-.866 1.306-1.208.625-.376 1.317-.743 1.974-1.392-.205 1.067-.36 1.99-.954 2.901-.241.37-.656.86-1.249 1.23.439-.63.827-1.504.707-1.541-.2-.062-1.334 1.938-1.858 1.48z" id="_157085000"/><path d="M147.583 58.345a1.255 1.255 0 01-.28-.086l-.003-.002a.925.925 0 01-.196-.139 1.434 1.434 0 01-.334-.626c-.186.308-.42.529-.643.63a.94.94 0 01-.233.06l-.004.002a1.218 1.218 0 01-.487-.073c.133.36.276.717.418 1.073.089.235.147.463.181.683a3.3 3.3 0 01.595-.673c.33-.28.663-.559.986-.849z" id="_157075192"/><path d="M149.221 53.15c-.27.137-.569.184-.89.099l-.004-.001a.935.935 0 01-.215-.108 1.435 1.435 0 01-.426-.567c-.136.332-.333.586-.539.72a.939.939 0 01-.22.096h-.004c-.28.058-.54.02-.775-.09l.105.217c.185.431.388.853.587 1.277.105.228.178.452.226.67.139-.243.32-.483.55-.71.337-.326.677-.65 1.002-.987a8.38 8.38 0 00.603-.616z" id="_157075120"/><path d="M148.928 48.63a1.24 1.24 0 01-.33-.03h-.004a.94.94 0 01-.22-.1 1.434 1.434 0 01-.447-.55c-.124.338-.31.599-.51.741a.947.947 0 01-.218.104l-.004.002a1.21 1.21 0 01-.576.005c.233.37.48.73.725 1.092.138.21.245.42.326.627a3.3 3.3 0 01.434-.786c.278-.365.559-.73.823-1.105z" id="_157075048"/><path d="M149.245 43.63a1.24 1.24 0 01-.343.047h-.004a.947.947 0 01-.235-.048 1.436 1.436 0 01-.559-.437c-.046.357-.17.653-.333.836a.921.921 0 01-.188.15l-.003.002a1.217 1.217 0 01-.827.102c.236.34.483.672.728 1.005.146.203.26.41.35.614.089-.265.22-.535.403-.803.268-.384.54-.766.794-1.16.077-.104.149-.207.217-.309z" id="_157074976"/><path d="M148.438 38.665a1.212 1.212 0 01-.488.166h-.004a.94.94 0 01-.24-.019 1.192 1.192 0 01-.351-.163c-.026.283-.107.524-.224.69a.958.958 0 01-.17.172l-.003.002c-.33.218-.692.249-1.049.154l.115.097c.343.32.7.624 1.053.93.188.167.346.342.478.521a3.3 3.3 0 01.215-.872c.177-.433.357-.866.517-1.306a9.8 9.8 0 00.151-.372z" id="_157074904"/><path d="M144.672 61.864c.524-.037.754-.744.83-1.216.098-.623-.065-1.136-.311-1.752-.27-.678-.6-1.388-.73-2.302-.483.974-.917 1.803-.995 2.888-.031.44.003 1.08.251 1.735.032-.767.251-1.698.37-1.655.195.071-.11 2.35.585 2.302z" id="_157074832"/><path d="M146.343 62.098c-.444-.28-.313-1.013-.156-1.464.207-.595.592-.97 1.1-1.397.56-.47 1.185-.94 1.733-1.684-.036 1.086-.045 2.023-.49 3.015-.18.403-.513.951-1.04 1.41.335-.69.581-1.614.457-1.632-.207-.03-1.014 2.123-1.604 1.752z" id="_157074760"/><path d="M145.869 57.541c.52-.07.704-.792.748-1.267.058-.628-.137-1.13-.423-1.728-.313-.659-.687-1.347-.878-2.25-.418 1.003-.798 1.859-.804 2.946a4.166 4.166 0 00.362 1.715c-.018-.767.14-1.71.261-1.675.2.058.043 2.352.734 2.26z" id="_157074688"/><path d="M147.552 57.666c-.462-.25-.379-.99-.251-1.45.168-.608.528-1.007 1.008-1.466.527-.504 1.12-1.015 1.619-1.792.035 1.086.087 2.02-.293 3.04-.153.414-.45.982-.947 1.475.29-.71.476-1.65.35-1.66-.208-.016-.874 2.185-1.486 1.853z" id="_157074616"/><path d="M146.804 52.758c.503-.149.575-.89.546-1.367-.039-.63-.308-1.095-.682-1.643-.41-.603-.885-1.225-1.212-2.089-.26 1.055-.504 1.959-.345 3.035.065.436.237 1.054.62 1.639-.135-.755-.122-1.712.003-1.696.207.028.402 2.319 1.07 2.121z" id="_157074544"/><path d="M148.486 52.625c-.494-.177-.525-.92-.47-1.395.074-.627.369-1.076.773-1.603.443-.579.952-1.174 1.326-2.018.2 1.068.395 1.984.175 3.049a4.166 4.166 0 01-.71 1.602c.177-.746.217-1.702.092-1.693-.208.016-.53 2.292-1.186 2.058z" id="_157074472"/><path d="M147.052 48.17c.497-.169.54-.912.492-1.387-.063-.628-.35-1.082-.746-1.615-.434-.587-.932-1.19-1.292-2.04-.218 1.064-.428 1.977-.226 3.046.082.433.278 1.044.684 1.613-.165-.75-.19-1.706-.064-1.694.208.019.492 2.3 1.152 2.077z" id="_157074400"/><path d="M148.69 47.934c-.5-.157-.56-.9-.523-1.376.049-.629.326-1.09.709-1.631.42-.596.905-1.21 1.246-2.07.242 1.06.472 1.968.295 3.041a4.169 4.169 0 01-.648 1.629c.148-.753.151-1.71.026-1.696-.207.024-.44 2.312-1.104 2.103z" id="_157074328"/><path d="M147.3 43.601c.447-.275.324-1.01.172-1.462-.201-.598-.582-.977-1.086-1.41-.553-.475-1.174-.952-1.713-1.702.023 1.087.022 2.023.456 3.02.176.405.503.957 1.025 1.422-.327-.694-.563-1.621-.439-1.638.207-.027.991 2.134 1.585 1.77z" id="_157074256"/><path d="M148.89 43.035c-.524-.042-.747-.753-.817-1.225-.091-.625.076-1.135.33-1.749.277-.674.614-1.381.755-2.294.472.98.897 1.813.962 2.9.027.44-.014 1.08-.27 1.731-.022-.767-.232-1.7-.35-1.659-.197.07.084 2.352-.61 2.296z" id="_156950392"/><path d="M146.613 38.971c.412-.325.204-1.04 0-1.472-.27-.57-.692-.902-1.243-1.273-.605-.407-1.277-.809-1.9-1.49.15 1.076.258 2.006.805 2.946.222.382.612.891 1.185 1.292-.406-.65-.75-1.544-.628-1.575.203-.052 1.234 2.003 1.78 1.572z" id="_156950320"/><path d="M147.862 38.195c-.524.019-.83-.66-.953-1.122-.165-.609-.058-1.136.122-1.775.197-.702.449-1.443.482-2.366.583.917 1.103 1.696 1.295 2.766a4.165 4.165 0 01-.065 1.752c-.113-.76-.43-1.662-.543-1.607-.187.092.358 2.326-.338 2.352z" id="_156950248"/></g><g id="g4484" transform="translate(1.129 1.693) scale(1.84588)"><g id="g4452"><g id="g243" fill-opacity="1"><path d="M30.423 36.91c-1.809 1.029-4.099.526-5.114-1.122l-.01-.016c-1.573.392-3.252-.19-4.081-1.536-1.016-1.648-.372-3.819 1.437-4.847l4.644-2.64c1.81-1.028 4.1-.526 5.115 1.123.83 1.345.552 3.04-.563 4.176l.01.015c1.015 1.648.371 3.819-1.438 4.847z" id="_157224960" fill="#fff"/><path d="M30.423 36.91c-1.809 1.029-4.099.526-5.114-1.122l-.01-.016c-1.573.392-3.252-.19-4.081-1.536-.828-1.343-.553-3.034.557-4.17-.399.844-.479 1.889-.213 2.897.433 1.641 2.522 2.986 3.875 2.222.683 1.703 3.086 1.65 4.46.87 1.374-.781 2.578-2.779 1.353-4.174 1.348-.772 1.127-3.178-.163-4.333-.792-.709-1.783-1.144-2.745-1.215 1.57-.387 3.245.195 4.072 1.538.83 1.346.552 3.04-.563 4.177l.01.015c1.015 1.648.371 3.819-1.438 4.847z" id="_157224888" fill="#a1a3a5"/></g><g id="g247"><path d="M34.131 2.608c-1.611.22-2.779 1.661-2.606 3.217l.002.014c-1.159.516-1.911 1.71-1.77 2.98.172 1.556 1.62 2.638 3.231 2.417l4.138-.566c1.612-.221 2.78-1.662 2.607-3.217-.141-1.27-1.132-2.226-2.369-2.413l-.001-.014c-.173-1.556-1.62-2.639-3.232-2.418z" id="_157224792" fill="#fff"/><path d="M34.131 2.608c-1.611.22-2.779 1.661-2.606 3.217l.002.014c-1.159.516-1.911 1.71-1.77 2.98.14 1.268 1.128 2.222 2.362 2.411-.655-.349-1.21-.982-1.534-1.76-.528-1.267.108-3.151 1.31-3.32-.403-1.43 1.102-2.567 2.326-2.735 1.224-.168 2.933.53 2.854 2.026 1.204-.161 2.233 1.495 1.997 2.867-.144.842-.544 1.606-1.102 2.12 1.154-.516 1.904-1.708 1.763-2.975-.141-1.27-1.132-2.226-2.369-2.413l-.001-.014c-.173-1.556-1.62-2.639-3.232-2.418z" id="_157224720" fill="#a1a3a5" fill-opacity="1"/></g><g id="g251"><path d="M36.82 28.861c1.79-.514 2.868-2.255 2.41-3.888l-.005-.015c1.226-.75 1.877-2.156 1.502-3.49-.458-1.633-2.281-2.54-4.07-2.025l-2.381-.068-2.211 1.388c-1.79.514-2.868 2.255-2.41 3.888.375 1.333 1.66 2.182 3.092 2.17l.004.014c.458 1.633 2.281 2.54 4.07 2.026z" id="_157224624" fill="#fff"/><path d="M36.82 28.861c1.79-.514 2.868-2.255 2.41-3.888l-.005-.015c1.226-.75 1.877-2.156 1.502-3.49-.374-1.33-1.654-2.18-3.084-2.169.8.26 1.536.84 2.035 1.616.813 1.263.411 3.387-.923 3.775.699 1.457-.814 2.933-2.173 3.324-1.358.39-3.412-.06-3.575-1.672-1.337.38-2.782-1.212-2.748-2.72.022-.924.345-1.81.891-2.456-1.22.752-1.868 2.154-1.494 3.485.374 1.333 1.658 2.182 3.09 2.17l.005.014c.458 1.633 2.281 2.54 4.07 2.026z" id="_157197968" fill="#a1a3a5" fill-opacity="1"/></g><g id="g255"><path d="M18.078 14.94c.217 1.76 1.694 3.034 3.299 2.846l.015-.002c.523 1.265 1.748 2.087 3.059 1.933 1.604-.188 2.73-1.767 2.512-3.527l-.557-4.517c-.217-1.76-1.695-3.034-3.299-2.846-1.31.153-2.3 1.235-2.502 2.585l-.015.001c-1.604.188-2.729 1.768-2.512 3.527z" id="_157197872" fill="#fff"/><path d="M18.078 14.94c.217 1.76 1.694 3.034 3.299 2.846l.015-.002c.523 1.265 1.748 2.087 3.059 1.933 1.308-.153 2.297-1.231 2.5-2.578-.364.715-1.02 1.32-1.824 1.674-1.31.576-3.247-.118-3.413-1.432-1.475.44-2.639-1.203-2.803-2.539-.165-1.336.565-3.201 2.106-3.114-.159-1.315 1.555-2.437 2.967-2.18.867.158 1.652.595 2.179 1.204-.526-1.26-1.748-2.078-3.056-1.925-1.31.153-2.3 1.235-2.502 2.585l-.015.001c-1.604.188-2.729 1.768-2.512 3.527z" id="_157197800" fill="#a1a3a5" fill-opacity="1"/></g><g id="g259"><path d="M9.363 27.371c1.253 1.458 3.353 1.72 4.688.587l.012-.01c1.233.826 2.833.832 3.924-.094 1.335-1.134 1.402-3.236.148-4.694l-3.218-3.743c-1.253-1.458-3.353-1.72-4.688-.587-1.09.926-1.335 2.498-.705 3.837l-.012.01c-1.336 1.134-1.402 3.236-.149 4.694z" id="_157197704" fill="#fff"/><path d="M9.363 27.371c1.253 1.458 3.353 1.72 4.688.587l.012-.01c1.233.826 2.833.832 3.924-.094 1.088-.924 1.333-2.492.708-3.83.1.864-.128 1.804-.641 2.607-.836 1.307-3.002 1.845-3.942.759-1.067 1.284-3.105.5-4.056-.608-.952-1.107-1.414-3.23.03-4.077-.933-1.091-.061-3.134 1.369-3.75.877-.38 1.848-.457 2.69-.223-1.232-.822-2.827-.826-3.916.098-1.09.926-1.334 2.498-.705 3.837l-.012.01c-1.336 1.134-1.402 3.236-.149 4.694z" id="_157197632" fill="#a1a3a5" fill-opacity="1"/></g><g id="g263"><path d="M18.533 16.639c-1.829-1.797-3.576-2.909-4.653-1.478-1.18 1.568.336 2.86 3.284 3.714 1.133-.422 1.59-1.168 1.37-2.236z" id="_157197536" fill="#fff"/><path d="M18.533 16.639c-1.829-1.797-3.576-2.909-4.653-1.478-1.18 1.568.336 2.86 3.284 3.714a3.53 3.53 0 00.105-.041c-2.4-.718-3.618-1.792-2.64-3.09.907-1.205 2.378-.268 3.917 1.244.018.086.03.17.038.252a2.36 2.36 0 00-.05-.601z" id="_157197464" fill="#a1a3a5" fill-opacity="1"/></g><g id="g267"><path d="M42.265 6.817c1.378-.73 3.183-.99 3.37.53 2.076.074 1.236 2.264.518 2.909-.728.62-1.388 1.062-2.41 1.33-1.034.161-2.566-.233-3.059-1.285-.385-1.634.204-2.482 1.58-3.484z" id="_157197368" fill="#fff"/><path d="M42.265 6.817c1.378-.73 3.183-.99 3.37.53 2.076.074 1.236 2.264.518 2.909-.728.62-1.388 1.062-2.41 1.33a3.211 3.211 0 01-.652.03c.894-.365 2.005-.907 2.48-1.326.553-.487 1.45-2.306-.312-2.497-.108-1.294-2.205-1.183-3.542-.547.165-.142.348-.284.548-.429z" id="_157197296" fill="#a1a3a5" fill-opacity="1"/></g><g id="g271"><path d="M3.307 54.53c.965-2.261 3.314-3.427 5.244-2.603l.018.008c1.152-1.494 3.007-2.148 4.584-1.475 1.93.824 2.712 3.326 1.747 5.587l-2.479 5.806c-.965 2.261-3.313 3.426-5.243 2.602-1.577-.672-2.387-2.465-2.106-4.33l-.018-.008c-1.93-.824-2.712-3.326-1.747-5.587z" id="_157197200" fill="#fff"/><path d="M3.307 54.53c.965-2.261 3.314-3.427 5.244-2.603l.018.008c1.152-1.494 3.007-2.148 4.584-1.475 1.573.672 2.384 2.459 2.107 4.321-.173-1.08-.754-2.119-1.619-2.877-1.408-1.235-4.103-1.005-4.829.682-1.67-1.114-3.77.655-4.504 2.372-.733 1.717-.556 4.457 1.403 4.893-.717 1.69.981 3.796 2.847 3.96 1.146.1 2.298-.2 3.197-.822-1.154 1.488-3.004 2.138-4.577 1.466-1.577-.673-2.387-2.465-2.106-4.33l-.018-.008c-1.93-.824-2.712-3.326-1.747-5.587z" id="_157197128" fill="#a1a3a5" fill-opacity="1"/></g><g id="g275"><path d="M19.637 45.603c2.457.071 4.4 1.83 4.34 3.928l-.001.02c1.812.527 3.1 2.014 3.05 3.727-.061 2.098-2.104 3.741-4.561 3.67l-6.31-.184c-2.458-.071-4.401-1.83-4.34-3.928.05-1.713 1.42-3.123 3.26-3.544v-.02c.062-2.097 2.104-3.74 4.562-3.67z" id="_157197032" fill="#fff"/><path d="M19.637 45.603c2.457.071 4.4 1.83 4.34 3.928l-.001.02c1.812.527 3.1 2.014 3.05 3.727-.05 1.71-1.417 3.118-3.252 3.541.942-.555 1.697-1.476 2.086-2.558.634-1.763-.565-4.187-2.4-4.245.425-1.961-1.99-3.27-3.855-3.325-1.867-.054-4.353 1.113-4.042 3.095-1.835-.048-3.174 2.302-2.643 4.099.325 1.103 1.026 2.065 1.933 2.675-1.806-.53-3.088-2.015-3.038-3.724.05-1.713 1.42-3.123 3.26-3.544v-.02c.062-2.097 2.104-3.74 4.562-3.67z" id="_157196960" fill="#a1a3a5" fill-opacity="1"/></g><g id="g279"><path d="M5.978 40.483c2.629-.76 5.287.445 5.935 2.69l.006.02c2.1-.057 3.969 1.082 4.498 2.915.648 2.245-.959 4.68-3.588 5.44-2.74.79-4.01 1.158-6.75 1.949-2.63.759-5.287-.446-5.935-2.69-.53-1.833.445-3.793 2.252-4.864l-.006-.02c-.648-2.245.958-4.68 3.588-5.44z" id="_157196864" fill="#fff"/><path d="M5.978 40.483c2.629-.76 5.287.445 5.935 2.69l.006.02c2.1-.057 3.969 1.082 4.498 2.915.528 1.83-.442 3.787-2.243 4.859.81-.91 1.297-2.142 1.342-3.421.073-2.084-2.022-4.245-3.987-3.684-.215-2.224-3.22-2.79-5.216-2.214-1.996.576-4.235 2.657-3.232 4.653-1.962.573-2.582 3.518-1.41 5.242.72 1.059 1.79 1.841 2.958 2.18-2.094.051-3.957-1.087-4.485-2.916-.53-1.833.445-3.793 2.252-4.864l-.006-.02c-.648-2.245.958-4.68 3.588-5.44z" id="_157196792" fill="#a1a3a5" fill-opacity="1"/></g></g><g id="g4384" fill="#00a650" fill-opacity="1"><path d="M22.352 61.716c.067-1.408.72-2.66 3.109-4.008.673-.38 1.4-.461 2.11-.371 1.44.182 1.206.537.645 1.589-1.072 2.009-2.43 2.356-3.716 1.842-1.212-.486-1.33.307-1.37.934l-.778.014zM11.26 52.671c-.119 1.606.385 2.762 1.353 3.47.396.977.478 1.863 1.534 2.423.298.158.645.271 1.052.348l1.601 2.9.84-.014-1.394-2.77c.297.014.618.02.964.015.925-.01 1.29.025 1.574.99.156.528.219 1.164.258 1.74l.918-.015c-.037-.486-.093-1.111-.043-1.657.084-.917.144-.657.8-.655l.076 2.297.871-.015-.078-2.376c2.147-.222 3.548-1.33 3.307-3.807-.875 1.227-3.744.226-4.605 1.77.6-2.875-.677-3.338-.954-4.846-1.205.941-2.206 2.133-2.201 3.936-1.058-1.007-3.09-.812-4.768-1.216-.543-.691-.777-1.56-.69-2.574 1.717-.28 2.908-1.08 3.373-2.21-1.1.287-2.206-.28-3.085-.072-.776.182-1.382.549-1.674 1.32.139-.929-.023-1.724-.348-2.541-.325-.818-.76-.925-1.334-2.106-.749 1.607-1.328 1.717-1.38 2.559-.05.841.321 1.63 1.188 2.598a3.885 3.885 0 00-1.938-.448c-1.378.028-1.527 1.427-3.238 1.953.95.477 1.773.88 2.61.862.801-.017 1.598-.25 2.39-.816.55-.394.827-.453 1.192-.153.947.778 1.484 2.03 2.127 3.054 1.132 1.803 2.403 3.514 3.516 5.228l.86-.015a131.482 131.482 0 01-3.354-4.753c-.829-1.24-1.64-2.392-1.943-3.23-.272-.75-.09-1.096.623-1.174zm-3.517 3.835c.96-.339 2.435-.346 3.65.132.98 1.575 2.08 3.044 3.17 4.69-.882.402-2.346.723-3.43-.037.157-.26.407-.667.564-.928-2.475.199-2.495-3.271-3.954-3.857z" id="_157196672"/><path d="M27.283 31.915c-.258-1.253.517-3.698-.786-4.89 1.537.71 1.967-.662 3.78-.684-1.281-.917-3.942-2.156-5.532-.522-.78-.676-1.48-.925-2.428.207-1.434 1.715-2.767 3.87-4.13 6.07l.557.372c1.288-2.314 2.587-4.57 3.91-5.995.675-.725 1.089-.637 1.483-.108-1.486.196-2.664 1.905-3.182 3.43-.273.806-.465.99-.853 1.552.553-.332.82-.468 1.425-.601.987-.218 2.105-.308 2.456-1.37.785 1.69 2.237 1.431 3.3 2.54z" id="_157196600"/><path d="M15.916 30.583c2-2.214 3.87-4.391 4.346-6.623.579-2.715-.897-2.813-2.027-2.808 2.597.835.956 3.11 1.145 4.225-.307-1.08-1.6-1.127-1.98-2.438-.766.947-2.008.625-2.73 1.82-.05-1.518.28-2.732 1.669-3.615-2.132-.648-2.372-1.909-2.53-3.253.654 1.048 3.992 1.135 4.045 2.732 1.716-.228 3.244-.037 3.219 2.581-.025 2.635-2.46 5.311-4.26 7.977l-.897-.598z" id="_157196528"/><path d="M22.872 22.39c.52-2.654 3.176-.796 6.136-4.97.225-.173.442-.72.764-1.29-.265-1.378-1.594-1.305-1.432.225.063 2.175-1.468 2.457-2.68 3.118 1.662-1.48.463-2.505 1.045-3.967-1.838 1.545-3.401.162-4.86-.084 1.27-1.229 2.866-2.438 4.895-1.772-1.272-1.694-1.673-3.385-.624-4.815.225 1.92 2.591 2.79 2.079 4.992.987-.067 1.865.092 2.204 1.422.522-.55.622-1.286.08-1.983-.692-.89-1.704-.402-2.274-1.874-.54-1.39-.3-2.743.62-3.954-.19 1.879 2.798 2.845 2.576 7.19.029-.008.058-.015.088-.021.964-1.577 3.185-2.848 3.17-3.525-.52-.407-2.202 2.031-3.615-.275 1.06.178 1.581-1.181 3.06-.262-1.045-1.374 1.08-2.13 1.128-3.388.713.966 1.021 1.969.696 2.886.845-.317 1.453.253 2.898.021-1.077 1.414-2.26 1.51-3.37 1.124-.237 1.087-2.059 2.145-2.796 3.49l.021.007c2.595-1.954 3.589-2.538 6.483-4.061-.33-1.713.274-3.037 1.451-3.548.679-.294 1.497-.227 2.365-.695-.125 1.194-1.364 1.31-1.564 2.1 1.058.038 1.623-.032 2.448.179-.33.754-.961 1.327-1.858 1.821 1 .132 1.823.55 2.387 1.41-.813-.166-1.621-.074-2.422.48-.58.293-1.09.218-1.51.066-.718-.26-.997-.684-1.174-1.295-3.273 1.58-7.296 4.388-9.759 7.182l.087.064c1.944-2.07 4.557-4.083 6.788-5.148 1.182-.565 3.036-1.173 4.128.037.886.98 1.331 3.217 3.772 3.137-.357 1.154-1.162 1.449-2.17 1.354-.011 1.294-.25 2.423-.99 3.19-.671-.737-1.036-1.664-1.262-2.678l-.632.55c.074-.585-.184-1.006-.453-1.56-.494-1.014-.988-2.111.396-3.012a.478.478 0 00.176-.228c-.534-.555-1.15-.526-2.055-.135-.653.256-1.322.586-1.986.976.176-.033.359-.066.558-.099 1.177-.27 1.987.362 2.21 1.216.185.711.441 1.354.904 2.003-1.623-.182-3.868-.277-3.34-1.865.295-.746-.253-.754-.921-.656-.72.105-1.19.578-1.745 1.033.677.04 1.28.351 1.652 1.497 3.031-.593 3.662 1.353 4.786 1.57-.988.65-2.596.7-4.15.005.294 1.458-1.22 3.544-.317 5.101-1.454-.395-2-2.076-2.55-3.514-.762.839-1.67 1.293-2.84 1.655 1.508-1.35.354-4.365 3.526-4.419.032-.35 0-.663-.3-.814-.941-.471-1.557.66-2.132 1.23-.358.353-.295 1.49-.778 2.236-1.072 1.654-1.328 2.951-.872 3.994-.983-.059-1.612-.652-1.922-1.492-.835.963-2.117 1.466-3.23 1.458.265-.54.8-1.333.945-2.53a.685.685 0 01-.284.019c-.89 1.566-2.27 2.636-3.262 4.1-.281.415-.576.826-.858 1.234-.945 1.368-1.881 2.805-2.66 3.971l-.522-.348c1.397-2.074 2.853-3.968 4.09-6.154 1.43-2.525.625-4.978-2.122-5.898-1.016.17-2.809-.022-3.85-.963.56-.168 1.37-.223 1.933-.281-.446-.363-.989-.752-1.219-1.339.547-.16 1.083-.115 1.773.052-.312-.544-.866-.837-.732-1.8 1.001 1.007 2.683.771 2.659 3.58 2.307 1.354 2.902 2.816 2.96 4.34a3.64 3.64 0 01-.2 1.28 14.138 14.138 0 001.565-1.981c-.285-.186-.579-.36-1.21.098z" id="_157196456"/></g><g id="g4434" fill="#fff"><path d="M25.073 59.875c.682-.436 1.351-.665 1.904-.933.58-.282-.136.43-1.007.846-.635.304-1.095.214-.897.087z" id="_157196384"/><path d="M21.264 57.378c.445-.304 1.067-.401 1.553-.244-.557.127-.82.231-1.143.454-.364.251-.475.46-.646.348-.249-.164.046-.428.236-.558z" id="_157196312"/><path d="M18.448 55.05c-.53.492-.467 1.405-.344 2.242.122.83.738.946.537-.023-.139-.671-.35-1.304-.193-2.218z" id="_157196240"/><path d="M5.265 53.631c.738-.018 1.46-.065 2.015-.533.817-.69 1.125.013.368.456-.78.457-1.747.498-2.383.077z" id="_157196168"/><path d="M33.79 22.409c-.213-.707-.393-1.408-.122-2.081.4-.992-.363-1.065-.548-.208-.19.885.072 1.816.67 2.289z" id="_157196096"/><path d="M23.346 15.176c.736.05 1.46.071 2.056-.343.878-.61 1.119.118.324.489-.82.382-1.786.332-2.38-.146z" id="_157196024"/><path d="M28.774 9.848c.31.666.394 1.031 1.007 1.42.903.572.342 1.057-.325.487-.682-.583-.835-1.146-.682-1.907z" id="_157193448"/><path d="M41.14 15.817c-.28-.715-.61-1.216-1.12-1.633-.826-.678-.29-.995.392-.445.705.568.895 1.334.727 2.078z" id="_157193376"/><path d="M41.403 7.559c-.392.461-.64.883-.717 1.537-.126 1.061-.728.774-.585-.091.132-.806.585-1.219 1.302-1.446z" id="_157193304"/><path d="M35.134 8.81c-.382.293-.513.634-.485 1.12.042.745.504.574.415.023-.075-.463-.063-.764.07-1.144z" id="_157193232"/><path d="M26.513 11.647c-.15.458-.066.814.23 1.199.455.592.74.191.357-.214-.323-.341-.483-.596-.587-.985z" id="_157193160"/><path d="M31.495 20.12c.083-.474.325-.748.768-.949.68-.307.743.181.213.358-.445.148-.706.297-.981.591z" id="_157193088"/><path d="M15.336 19.523c.456-.156.813-.076 1.201.216.598.448.2.738-.21.359-.344-.32-.601-.476-.99-.575z" id="_157193016"/><path d="M19.265 23.382c.156-.455.077-.812-.214-1.202-.446-.598-.737-.201-.36.21.319.345.475.602.574.992z" id="_157192944"/><path d="M15.96 23.333c.01-.482.21-.789.617-1.053.627-.406.762.068.264.321-.418.214-.654.4-.882.732z" id="_157192872"/><path d="M25.645 29.542c-.44-.35-.648-.526-.76-.999-.172-.726.344-.733.416-.18.06.466.132.751.344 1.179z" id="_157192800"/></g></g><g id="g4685" transform="translate(1.129 1.693) scale(1.84588)"><g id="g4665"><path d="M71.503 72.31c-.37.51-.782.988-1.22 1.492 2.568-.162 10.559.157 16.535.143 3.352-.008 6.485.313 7.247-.634 1.811-2.251 3.115-4.714 4.109-7.044.545-1.278.974-3.122 1.435-4.997.586-2.664.39-4.525-.599-4.626-.04 1.876-2.213 3.053-3.85 3.214-4.769.47-9.429.604-14.205.574-3.39-.022-4.018 1.715-4.575 2.952-.437.97-.684 1.509-1.12 2.448-1.137 2.275-2.323 4.498-3.757 6.478z" id="_157225464" fill="#fff"/><path d="M71.503 72.31c-.37.51-.782.988-1.22 1.492 2.568-.162 10.559.157 16.535.143 3.352-.008 6.485.313 7.247-.634 1.811-2.251 3.115-4.714 4.109-7.044-3.108 3.064-8.327 2.527-13.267 2.447-4.18-.067-8.443.148-11.926 1.345a31.25 31.25 0 01-1.478 2.251z" id="_157433912" fill="#00a650" fill-opacity="1"/><path d="M99.594 61.333l.015-.063c.586-2.664.39-4.525-.599-4.626-.04 1.876-2.213 3.053-3.85 3.214-4.769.47-9.429.604-14.205.574-3.39-.022-4.018 1.715-4.575 2.952-.437.97-.684 1.508-1.12 2.447 7.006-3.378 21.229 1.274 24.334-4.498z" id="_157358872" fill="#ed1c24" fill-opacity="1"/></g><g id="g4680"><path d="M34.335 74.117c-1.412-1.84-2.857-3.653-4.117-5.724-.919-1.51-1.69-3.21-2.525-4.903-.6-1.216-1.488-2.4-4.875-2.26-4.772.197-9.05.123-13.831-.18-1.917-.122-3.56.175-4.288-2.11-1.607.295.233 8.501 6.257 15.476.795.92 3.509.529 6.86.42 5.973-.195 13.947-.792 16.52-.72z" id="_156930520" fill="#fff"/><path d="M35.85 74.159c-1.742-1.314-3.291-2.62-4.239-3.658-3.542-1.105-7.854-1.174-12.068-.959-4.934.253-9.878.962-13.09-1.991.868 2.28 2.305 4.684 4.503 6.865.863.856 3.509.529 6.86.42 5.973-.194 15.461-.75 18.034-.677z" id="_156930448" fill="#00a650" fill-opacity="1"/><path d="M29.083 66.325c-7.147-3.297-21.365 2.282-24.494-3.71-.952-2.568-.877-3.746.107-3.88.253.267.254.647.545.859 2.042 1.481 5.25 1.533 8.265 1.612 3.447.09 6.998-.106 9.697-.08 3.39.034 3.89 1.148 4.49 2.364.47.955.922 1.911 1.39 2.835z" id="_156930376" fill="#ed1c24" fill-opacity="1"/></g><g id="g4670"><path d="M94.29 22.926c.738 1.777 1.314 3.287 2.02 4.827.391.854 1.081 2.457 1.803 4.046.794 1.747 1.446 3.13 1.033 4.325-.407 1.175-2.005 2.122-3.714 3.306-3.5 2.423-8.218 4.927-10.264 6.462-1.617 1.214-2.991 2.978-3.628 4.437.08-2.048-.023-4.486-.443-6.827-.357-1.986-.814-4.427-1.879-6.124-1.084-1.727-.469-3.158 1.223-4.211 6.252-3.892 12.328-7.304 13.849-10.24z" id="_157359232" fill="#fff"/><path d="M94.29 22.926c.62 1.494 1.126 2.798 1.69 4.09l-.02.048c-1.746 2.9-7.447 5.822-13.592 9.647-.989.615-1.89 1.874-2.116 3.033-.266-.859-.6-1.674-1.034-2.366-1.084-1.727-.469-3.158 1.223-4.211 6.252-3.892 12.328-7.304 13.849-10.24z" id="_157358584" fill="#ed1c24" fill-opacity="1"/><path d="M97.967 31.476l.146.323c.794 1.746 1.446 3.13 1.033 4.324-.407 1.176-2.005 2.123-3.714 3.307-3.5 2.423-8.218 4.927-10.264 6.462-1.617 1.214-2.991 2.978-3.628 4.437.075-1.91-.01-4.159-.363-6.353.656-2.698 15.017-8.361 16.79-12.5z" id="_157358968" fill="#00a650" fill-opacity="1"/></g><g id="g4675"><path d="M9.432 24.061c-1.352 2.97-2.838 5.828-3.918 8.906-1.105 3.149-.095 5.022 2.013 6.687 4.233 3.343 11.993 5.804 15.063 10.414-.168-4.117-.23-8.206 2.149-11.36 1.228-1.628.303-3.482-1.39-4.533-6.258-3.883-12.284-7.18-13.917-10.114z" id="_157192632" fill="#fff"/><path d="M9.432 24.061c-.607 1.333-1.23 2.646-1.834 3.966 1.75 2.897 7.678 6.147 13.828 9.964 1.108.688 1.892 1.966 1.957 3.223a9.681 9.681 0 011.356-2.506c1.228-1.628.303-3.482-1.39-4.533-6.258-3.883-12.284-7.18-13.917-10.114z" id="_157192560" fill="#ed1c24" fill-opacity="1"/><path d="M6.278 31.028c-.266.64-.522 1.286-.764 1.94-1.167 3.149-.22 4.836 1.889 6.626 2.193 1.861 5.241 3.66 8.131 5.245 2.801 1.538 5.453 2.855 7.056 5.23-.075-1.847-.114-2.822.063-4.575-1.298-5.479-16.515-8.702-16.375-14.466z" id="_156931096" fill="#00a650" fill-opacity="1"/></g></g><g id="g4301" transform="translate(1.129 1.693) scale(1.84588)"><path d="M80.597 73.148c4.605.231 9.366.47 13.907.165l.462-.031-.237.397c-1.689 2.829-5.742 7.893-7.609 9.507l-.057.05-.075.008a4.682 4.682 0 01-.42.02c-.492.556-.952 1.003-1.373 1.331l-.063.05-.08.001a6.7 6.7 0 01-.359-.003 7.459 7.459 0 01-1.423 1.36l-.068.049-.084-.004c-.09-.005-.196-.012-.316-.022a5.441 5.441 0 01-1.456 1.384l-.069.05-1.71-.243c-4.949-.749-18.095-2.738-27.756 1.207l-.092.037-.091-.037c-9.662-3.945-22.808-1.956-27.757-1.207l-1.702.242-.076-.049a5.442 5.442 0 01-1.456-1.384c-.12.01-.226.017-.317.021l-.083.005-.069-.049a7.446 7.446 0 01-1.423-1.36 6.808 6.808 0 01-.358.003l-.08-.001-.064-.05c-.42-.328-.881-.775-1.372-1.33a4.68 4.68 0 01-.42-.021l-.076-.008-.057-.05c-1.867-1.614-5.92-6.678-7.608-9.507l-.237-.398.461.032c4.541.306 9.303.066 13.907-.165 9.718-.489 19.765-.992 28.878 3.446 9.113-4.438 19.16-3.935 28.878-3.446z" id="_157226136" fill="red"/><path d="M51.477 85.644v-.584c-7.717-2.973-23.247-2.268-30.737-1.928-1.367.062-2.454.111-3.218.128.34.362.66.663.96.903.492 0 1.523-.075 2.92-.178 6.48-.476 21.542-1.58 30.075 1.659z" id="_157226064" fill="#fea" fill-opacity="1"/><path d="M51.477 86.744v-.583c-8.397-3.28-23.548-2.17-30.04-1.692-.833.06-1.537.113-2.08.144.335.374.679.69 1.026.944a54.33 54.33 0 002.033-.2c5.465-.594 19.871-2.156 29.06 1.387z" id="_157225992" fill="#fea" fill-opacity="1"/><path d="M51.477 87.847v-.584c-9.068-3.589-23.541-2.018-29.008-1.424-.487.052-.908.098-1.26.134.316.386.672.708 1.077.98l1.513-.215c4.929-.746 17.927-2.71 27.678 1.109z" id="_157225920" fill="#fea" fill-opacity="1"/><path d="M51.962 87.263v.583c9.75-3.817 22.749-1.854 27.678-1.108l1.512.215a4.93 4.93 0 001.078-.98c-.352-.036-.774-.082-1.26-.134-5.468-.594-19.94-2.165-29.008 1.424z" id="_157225848" fill="#fea" fill-opacity="1"/><path d="M51.962 86.161v.583c9.189-3.543 23.595-1.98 29.06-1.387a54.35 54.35 0 002.033.2c.348-.255.691-.57 1.025-.944-.542-.032-1.246-.083-2.078-.145-6.493-.476-21.644-1.588-30.04 1.693z" id="_157225776" fill="#fea" fill-opacity="1"/><path d="M51.962 85.06v.584c8.532-3.239 23.594-2.135 30.075-1.659 1.397.103 2.427.178 2.92.178.299-.24.62-.541.959-.903a155.08 155.08 0 01-3.218-.128c-7.49-.34-23.02-1.045-30.736 1.928z" id="_157225704" fill="#fea" fill-opacity="1"/><path d="M51.962 84.544c7.867-2.934 23.29-2.235 30.758-1.896 2.072.094 3.583.162 4.141.119 1.746-1.539 5.467-6.17 7.211-8.949-4.428.263-9.036.038-13.5-.186-9.645-.485-19.617-.985-28.61 3.382v7.53z" id="_157225632" fill="#fea" fill-rule="nonzero" fill-opacity="1"/><path d="M51.477 77.014c-8.994-4.367-18.966-3.867-28.611-3.382-4.464.224-9.071.45-13.5.186 1.745 2.78 5.466 7.41 7.211 8.949.558.043 2.068-.025 4.141-.12 7.468-.338 22.89-1.037 30.759 1.897v-7.53z" id="_157225560" fill="#fea" fill-rule="nonzero" fill-opacity="1"/><path d="M80.616 75.53c3.153.16 6.227.302 9.17.305l-.589.482c-2.773-.02-5.655-.154-8.605-.302-8.027-.404-15.822-.606-22.94 1.32l-.027-.097-.074-.377c7.18-1.938 15.007-1.735 23.065-1.33zM58.04 79.356c5.676-1.26 12.151-1.253 18.306-1.056 2.053.043 4.07.11 6.021.175l4.054.12.57-.468-4.608-.136c-1.952-.065-3.97-.132-6.024-.176-6.18-.198-12.686-.205-18.412 1.065l.093.476zm.396 2.03c7.678-1.046 18.877-.776 25.19-.5l.474-.387.003-.076c-6.242-.284-17.856-.595-25.76.487l.093.476zm-35.613-5.854c-3.152.158-6.227.3-9.169.304l.588.482c2.774-.02 5.656-.154 8.606-.302 8.027-.404 15.821-.606 22.94 1.32l.026-.097.074-.377c-7.18-1.938-15.007-1.735-23.065-1.33zM45.4 79.355c-5.677-1.26-12.152-1.253-18.306-1.056-2.054.043-4.07.11-6.022.175l-4.054.12-.57-.468 4.608-.136c1.952-.065 3.971-.132 6.025-.176 6.179-.198 12.686-.205 18.412 1.065l-.093.476zm-.397 2.03c-7.678-1.046-18.876-.776-25.19-.5l-.473-.387-.004-.076c6.242-.284 17.856-.595 25.76.487l-.093.476z" id="_157225488" fill="#6c6753" fill-rule="nonzero" fill-opacity="1"/></g></svg>