<svg xmlns="http://www.w3.org/2000/svg" xmlns:xlink="http://www.w3.org/1999/xlink" width="250.94" height="290.749" version="1.0"><defs><linearGradient id="r"><stop offset="0" stop-color="#8ca679"/><stop offset=".29" stop-color="#6ba575"/><stop offset=".644" stop-color="#56614c"/><stop offset=".864" stop-color="#71c837"/><stop offset="1" stop-color="#455d3d"/></linearGradient><linearGradient id="q"><stop offset="0" stop-color="#95cfb9"/><stop offset="1" stop-color="#95cfb9" stop-opacity="0"/></linearGradient><linearGradient id="p"><stop offset="0" stop-color="#d38d5f"/><stop offset="1" stop-color="#c87137" stop-opacity="0"/></linearGradient><linearGradient id="o"><stop offset="0" stop-color="#d38d5f"/><stop offset="1" stop-color="#c87137" stop-opacity="0"/></linearGradient><linearGradient id="n"><stop offset="0" stop-color="#c87137"/><stop offset="1" stop-color="#c87137" stop-opacity="0"/></linearGradient><linearGradient id="m"><stop offset="0"/><stop offset="1" stop-opacity="0"/></linearGradient><linearGradient id="l"><stop offset="0" stop-color="#9e87a3"/><stop offset=".268" stop-color="#fff"/><stop offset=".782" stop-color="#f6f7fa"/><stop offset="1" stop-color="#99a2c1"/></linearGradient><linearGradient id="k"><stop offset="0" stop-color="#9e87a3"/><stop offset=".268" stop-color="#fff"/><stop offset=".782" stop-color="#ccd0e0"/><stop offset="1" stop-color="#99a2c1"/></linearGradient><linearGradient id="j"><stop offset="0" stop-color="#17280b"/><stop offset=".29" stop-color="#71c837"/><stop offset=".644" stop-color="#2d5016"/><stop offset=".864" stop-color="#71c837"/><stop offset="1" stop-color="#e6e6e6" stop-opacity="0"/></linearGradient><linearGradient id="i"><stop offset="0" stop-color="#a6c3ad"/><stop offset="1" stop-color="#a6c3ad" stop-opacity="0"/></linearGradient><linearGradient id="h"><stop offset="0" stop-color="#ff0"/><stop offset=".464" stop-color="#f9c713"/><stop offset=".535" stop-color="#f6ab1c"/><stop offset=".875" stop-color="#f49d21"/><stop offset="1" stop-color="#f39026"/></linearGradient><linearGradient id="f"><stop offset="0" stop-color="#dec254"/><stop offset=".175" stop-color="#d6b93b"/><stop offset=".332" stop-color="#e2c545"/><stop offset=".539" stop-color="#7c593d"/><stop offset=".788" stop-color="#ceae64"/><stop offset="1" stop-color="#d7b669"/></linearGradient><linearGradient id="e"><stop offset="0" stop-color="#2b2200"/><stop offset=".215" stop-color="#f3d559"/><stop offset=".643" stop-color="#db8f37"/><stop offset="1" stop-color="#7e534d"/></linearGradient><linearGradient id="d"><stop offset="0" stop-color="#c0693c"/><stop offset=".383" stop-color="#cf914e"/><stop offset=".542" stop-color="#d6a535"/><stop offset="1" stop-color="#e3dd69"/></linearGradient><linearGradient id="c"><stop offset="0" stop-color="#2b2200"/><stop offset=".215" stop-color="#f3d559"/><stop offset=".75" stop-color="#db8f37"/><stop offset="1" stop-color="#c6a258"/></linearGradient><linearGradient id="b"><stop offset="0" stop-color="#d4aa00"/><stop offset="1" stop-color="#2b2200"/></linearGradient><linearGradient id="g"><stop offset="0" stop-color="#f0da27"/><stop offset="1" stop-color="#b35a32"/></linearGradient><linearGradient id="a"><stop offset="0" stop-color="#6f5800"/><stop offset="1" stop-color="#e6b000"/></linearGradient><linearGradient xlink:href="#a" id="E" gradientUnits="userSpaceOnUse" gradientTransform="matrix(.81842 0 0 .98796 65.604 3.842)" x1="339.616" y1="547.273" x2="342.884" y2="547.273"/><linearGradient xlink:href="#b" id="C" x1="233.104" y1="-573.597" x2="236.861" y2="-573.597" gradientUnits="userSpaceOnUse" gradientTransform="matrix(-.45636 .78474 -.66207 -.54091 70.242 21.386)"/><linearGradient xlink:href="#b" id="D" gradientUnits="userSpaceOnUse" gradientTransform="matrix(.47984 .84151 .69614 -.58005 636.256 -16.013)" x1="237.276" y1="-572.91" x2="234.267" y2="-572.888"/><linearGradient xlink:href="#c" id="F" x1="308.781" y1="527.375" x2="313.872" y2="499.252" gradientUnits="userSpaceOnUse" gradientTransform="matrix(.8041 0 0 .9531 70.242 21.905)"/><linearGradient xlink:href="#e" id="H" gradientUnits="userSpaceOnUse" gradientTransform="matrix(.8041 0 0 .9531 52.588 21.732)" x1="359.741" y1="478.261" x2="365.246" y2="478.261"/><linearGradient xlink:href="#f" id="I" x1="362.639" y1="440.722" x2="399.021" y2="440.722" gradientUnits="userSpaceOnUse" gradientTransform="matrix(.8041 0 0 .9531 41.645 22.25)"/><linearGradient xlink:href="#j" id="X" x1="438.476" y1="652.353" x2="457.846" y2="662.695" gradientUnits="userSpaceOnUse" gradientTransform="matrix(.8041 0 0 .9531 69.836 21.915)"/><linearGradient xlink:href="#j" id="Z" gradientUnits="userSpaceOnUse" gradientTransform="matrix(-.8041 0 0 .9531 621.094 19.572)" x1="442.582" y1="662.104" x2="461.952" y2="666.288"/><linearGradient xlink:href="#k" id="Y" x1="230.438" y1="703.287" x2="328.945" y2="703.287" gradientUnits="userSpaceOnUse" gradientTransform="matrix(.8041 0 0 .9531 69.829 -27.038)"/><linearGradient xlink:href="#k" id="W" gradientUnits="userSpaceOnUse" gradientTransform="matrix(-.8041 0 0 .9531 620.736 -26.94)" x1="230.438" y1="703.287" x2="328.945" y2="703.287"/><linearGradient xlink:href="#l" id="T" x1="307.225" y1="660.698" x2="370.897" y2="660.698" gradientUnits="userSpaceOnUse" gradientTransform="matrix(.8041 0 0 .9531 71.117 22.423)"/><linearGradient xlink:href="#j" id="U" x1="303.888" y1="658.052" x2="332.71" y2="640.633" gradientUnits="userSpaceOnUse" gradientTransform="matrix(.8041 0 0 .9531 70.242 21.386)"/><linearGradient xlink:href="#j" id="V" gradientUnits="userSpaceOnUse" x1="303.888" y1="658.052" x2="332.71" y2="640.633" gradientTransform="matrix(-.8041 0 0 .9531 619.008 22.286)"/><linearGradient xlink:href="#m" id="aa" x1="253.314" y1="436.838" x2="265.647" y2="428.627" gradientUnits="userSpaceOnUse" gradientTransform="matrix(.8041 0 0 .9531 70.242 21.386)"/><radialGradient xlink:href="#d" id="G" cx="392.659" cy="512.518" fx="392.659" fy="512.518" r="11.587" gradientTransform="matrix(.60669 -.31132 .57922 1.58582 -168.065 -176.71)" gradientUnits="userSpaceOnUse"/><radialGradient xlink:href="#g" id="J" cx="379.71" cy="432.158" fx="379.71" fy="432.158" r="19.175" gradientTransform="matrix(1.14612 -.17135 .19278 1.81165 -176.477 -282.03)" gradientUnits="userSpaceOnUse"/><radialGradient xlink:href="#h" id="Q" cx="439.514" cy="452.668" fx="439.514" fy="452.668" r="34.575" gradientTransform="matrix(.6325 -.58852 1.03581 1.56396 -319.161 .172)" gradientUnits="userSpaceOnUse"/><radialGradient xlink:href="#i" id="u" cx="441.788" cy="481.532" fx="441.788" fy="481.532" r="9.072" gradientTransform="matrix(.78895 .04971 -.1031 .56217 143.077 187.548)" gradientUnits="userSpaceOnUse"/><radialGradient xlink:href="#n" id="N" cx="445.44" cy="475.922" fx="445.44" fy="475.922" r="9.616" gradientTransform="matrix(1 0 0 1.32075 0 -152.654)" gradientUnits="userSpaceOnUse"/><radialGradient xlink:href="#n" id="ad" gradientUnits="userSpaceOnUse" gradientTransform="matrix(1 0 0 1.32075 0 -152.654)" cx="445.44" cy="475.922" fx="445.44" fy="475.922" r="9.616"/><radialGradient xlink:href="#n" id="ae" gradientUnits="userSpaceOnUse" gradientTransform="matrix(1 0 0 1.32075 0 -152.654)" cx="442.16" cy="475.922" fx="442.16" fy="475.922" r="9.616"/><radialGradient xlink:href="#n" id="L" gradientUnits="userSpaceOnUse" gradientTransform="matrix(1 0 0 1.32075 0 -152.654)" cx="445.44" cy="475.922" fx="445.44" fy="475.922" r="9.616"/><radialGradient xlink:href="#n" id="ac" gradientUnits="userSpaceOnUse" gradientTransform="matrix(1 0 0 1.32075 0 -152.654)" cx="445.44" cy="475.922" fx="445.44" fy="475.922" r="9.616"/><radialGradient xlink:href="#o" id="z" gradientUnits="userSpaceOnUse" gradientTransform="matrix(1 0 0 1.32075 0 -152.654)" cx="445.44" cy="475.922" fx="445.44" fy="475.922" r="9.616"/><radialGradient xlink:href="#p" id="y" gradientUnits="userSpaceOnUse" gradientTransform="matrix(.9836 .58483 -.24442 1.30738 123.713 -407.822)" cx="444.397" cy="479.234" fx="444.397" fy="479.234" r="9.616"/><radialGradient xlink:href="#n" id="S" gradientUnits="userSpaceOnUse" gradientTransform="matrix(1 .0637 -.4664 1.30598 219.875 -174.064)" cx="445.44" cy="471.439" fx="445.44" fy="471.439" r="9.616"/><radialGradient xlink:href="#q" id="ag" cx="246.47" cy="556.087" fx="246.47" fy="556.087" r="13.856" gradientTransform="matrix(.76285 -.99755 1.84356 2.7695 -934.153 -744.189)" gradientUnits="userSpaceOnUse"/><radialGradient xlink:href="#q" id="ah" gradientUnits="userSpaceOnUse" gradientTransform="matrix(-.76285 -.99755 -1.84356 2.7695 1632.56 -748.102)" cx="240.29" cy="554.391" fx="240.29" fy="554.391" r="13.856"/><radialGradient xlink:href="#n" id="af" gradientUnits="userSpaceOnUse" gradientTransform="matrix(1 0 0 1.32075 0 -152.654)" cx="442.16" cy="475.922" fx="442.16" fy="475.922" r="9.616"/><radialGradient xlink:href="#n" id="R" gradientUnits="userSpaceOnUse" gradientTransform="matrix(1.56438 -.60157 .23544 .6227 -380.25 474.59)" cx="442.16" cy="475.922" fx="442.16" fy="475.922" r="9.616"/><radialGradient xlink:href="#n" id="O" gradientUnits="userSpaceOnUse" gradientTransform="matrix(.52467 5.13607 -1.5618 .22414 914.098 -1787.9)" cx="435.673" cy="473.461" fx="435.673" fy="473.461" r="9.616"/><radialGradient xlink:href="#n" id="ab" gradientUnits="userSpaceOnUse" gradientTransform="matrix(1 0 0 1.32075 0 -152.654)" cx="445.44" cy="475.922" fx="445.44" fy="475.922" r="9.616"/><radialGradient xlink:href="#n" id="ai" gradientUnits="userSpaceOnUse" gradientTransform="matrix(.95429 -.75529 .04435 1.30332 -.732 192.616)" cx="446.14" cy="476.361" fx="446.14" fy="476.361" r="9.616"/><radialGradient xlink:href="#q" id="P" gradientUnits="userSpaceOnUse" gradientTransform="matrix(-.76285 -.99755 -1.84356 2.7695 1631.676 -790.494)" cx="252.233" cy="550.576" fx="252.233" fy="550.576" r="13.856"/><radialGradient xlink:href="#n" id="aj" gradientUnits="userSpaceOnUse" gradientTransform="matrix(1.09193 .36876 -.0894 .37188 -153.135 277.856)" cx="438.316" cy="469.519" fx="438.316" fy="469.519" r="9.616"/><filter id="w" x="-.051" width="1.102" y="-.137" height="1.274" color-interpolation-filters="sRGB"><feGaussianBlur stdDeviation="1.93"/></filter><filter id="x" x="-.075" width="1.151" y="-.182" height="1.364" color-interpolation-filters="sRGB"><feGaussianBlur stdDeviation="3.617"/></filter><filter id="v" x="-.088" width="1.176" y="-.168" height="1.337" color-interpolation-filters="sRGB"><feGaussianBlur stdDeviation="2.449"/></filter><filter id="s" color-interpolation-filters="sRGB"><feGaussianBlur stdDeviation="3.86"/></filter><filter id="t" x="-.029" width="1.058" y="-.151" height="1.301" color-interpolation-filters="sRGB"><feGaussianBlur stdDeviation="2.552"/></filter><filter id="M" x="-.237" width="1.475" y="-.366" height="1.732" color-interpolation-filters="sRGB"><feGaussianBlur stdDeviation="8.062"/></filter><filter id="K" x="-.231" width="1.462" y="-.356" height="1.713" color-interpolation-filters="sRGB"><feGaussianBlur stdDeviation="7.855"/></filter><clipPath clipPathUnits="userSpaceOnUse" id="A"><path d="M190.376 491.826c0 62.405-29.359 90.787-55.017 115.91-26.637-13.929-55.427-67.078-55.016-114.838.47-54.19 27.307-86.266 54.302-110.91 19.852 13.215 55.016 57.434 55.73 109.838z" fill="#fffbff" stroke="#000" stroke-width="1.467"/></clipPath><clipPath clipPathUnits="userSpaceOnUse" id="B"><path d="M398.125 489.496c0 62.405-29.358 90.787-55.016 115.91-26.638-13.93-55.428-67.078-55.017-114.839.47-54.19 27.307-86.266 54.302-110.909 19.852 13.214 55.017 57.433 55.73 109.838z" fill="#9a219a" stroke="#000" stroke-width="1.467"/></clipPath></defs><g transform="translate(-221.7 -382.775)"><path d="M197.756 642.4s-9.91 9.029 3.114 13.826c13.024 4.796 78.71 20.88 124.86 20.316 46.15-.565 130.24-15.802 145.246-21.445 15.006-5.643 30.295-15.801 19.536-20.034-10.759-4.232-50.68-8.465-56.343-14.672-5.662-6.208-19.536-15.52-29.162-16.084-9.626-.564-23.783-6.49-31.144-18.623-7.362-12.133-12.458-11.85-15.856-11.85-3.397 0-31.71-13.263-48.132 10.721-16.421 23.985-45.688 20.754-74.18 40.632-27.596 11.1-38.222 17.495-37.939 17.212z" fill="#f1eff0" fill-rule="evenodd" stroke="#000" transform="matrix(.81672 0 0 .88787 66.633 66.963)"/><path transform="matrix(.31861 0 0 .34519 296.567 244.078)" d="M42.58 1019.172s36.288-5.806 44.271-19.596c7.983-13.79 15.967-24.676 17.418-14.515 1.452 10.16 2.904 26.127 10.887 19.596 7.983-6.532 15.241 20.321 20.321 21.047 5.08.726 39.918-21.773 44.998-13.79 5.08 7.984 28.305-1.451 31.208 5.08 2.903 6.532 1.452-10.16.726-15.24s9.435-7.258 11.612-4.355c2.177 2.903 3.629-14.515 8.71-10.16 5.08 4.354 34.928 43.13 34.928 43.13s23.133 4.77 29.664 7.673c6.532 2.903 42.82 9.435 53.707 18.144 10.887 8.71 85.133 36.476 192.329 73.302-19.089 74.566-283.172 82.547-401.902 96.84-78.607 1.438-353.566-26.677-366.982-70.297-7.456-13.971 203.511-104.925 203.511-104.925s40.022-16.4 48.33-19.078c9.322-3.006 16.263-13.582 16.263-12.856z" fill="#90945f" fill-rule="evenodd" filter="url(#s)"/><path d="M198.119 643.388s-9.91 9.03 3.114 13.826c13.024 4.797 78.71 20.88 124.86 20.316 46.15-.564 130.24-15.801 145.246-21.444 15.006-5.644 30.295-15.802 19.536-20.034-10.759-4.233-50.68-8.465-56.343-14.673-5.662-6.207-19.536-15.519-29.162-16.083-9.627-.565-23.783-6.49-31.144-18.623-7.362-12.133-12.458-11.851-15.856-11.851-3.397 0-31.71-13.262-48.132 10.722-16.421 23.984-45.688 20.753-74.18 40.632-27.596 11.099-38.222 17.494-37.939 17.212z" fill="none" stroke="#000" stroke-width="1.4" transform="matrix(.81672 0 0 .88787 66.633 66.963)"/><path d="M389.568 631.689c-1.946-2.97-5.044-5.1-7.037-7.337-1.551-1.742-4.023-2.542-5.53-4.233-1.111-1.249-1.602-2.364-2.764-3.669-1.14-1.279-1.879-3.753-2.765-5.08-.936-1.4-1.233-4.098.251-4.515 1.317-.369-.112-2.79-.502-3.668-.626-1.406-1.508-.98-1.508-3.386 0-.565-.122-1.146 0-1.694.317-1.425 1.466 2.505 2.513 3.387 1.164.98 2.236 1.916 2.765 3.104.608 1.366 1.771 2.85 2.262 3.95a23.135 23.135 0 011.508 4.516c.254 1.142 1.742 1.937 2.262 3.104.54 1.215 1.892 2.08 2.764 3.386 1.438 2.153 2.037 2.57 3.519 4.233.922 1.035 1.985 1.846 3.016 2.54 1.221.823 1.652 1.633 2.765 2.258 1.304.732 1.897 1.283 2.764 2.257 1.036 1.163 1.83 1.49 3.016 2.822 1.696 1.904 2.401 3.669.252 3.669-2.152 0-12.643-4.256-9.551-5.644" fill="#666c48" fill-rule="evenodd"/><path d="M316.15 632.028c-12.185.03-37.652 12.591-52.906 19.469-3.312 1.493-6.145 2.28-8.562 2.562l-.157-7.406c-6.982-3.728-11.107-3.538-13.562-1.969-.007-.004-.024.004-.031 0-3.786 2.443-3.532 9.084-3.532 11.247 11.616 2.714 26.78 5.181 37.047 6.112 0 0 12.972-4.2 30.172-11.046 11.723-4.667 18.892-1.839 22.281.437-8.497.576-14.968 1.47-14.968 1.47.657 0 4.574 10.54 7.204 13.998 18.118.325 37.297-1.246 46.916-2.736.99-1.12 5.278-2.648 8.223-7.607 1.85-3.112-3.163-6.001-7.906-7.937 3.498-.195 7.842.378 13.094 2.469 17.2 6.847 27.113 8.45 27.113 8.45 16.342-3 22.769-1.545 42.137-7.414 0 3.028-1.515-4.61-5.656-7.005.033-.146.093-.375.093-.375a.768.768 0 00-.25.25c-2.992-1.647-7.313-1.886-13.406 2.031l-.719 7.063c-2.28-.337-4.9-1.13-7.937-2.5-19.525-8.804-55.812-26.885-59.531-16.125-3.165 9.154-5.265 14.805-5.938 16.593-7.91-1.401-18.269-1.245-26.906-.718-.86-2.296-2.78-7.497-5.719-16-.813-2.354-3.182-3.321-6.594-3.313z" transform="matrix(.8877 0 0 1.00011 40.601 -.058)" opacity=".679" fill="#391809" fill-rule="evenodd" stroke="#000" stroke-width=".929" filter="url(#t)"/><path d="M335.28 652.571c.074-.27 0-.564 0-.846 0-4.44 2.466-12.257 3.77-16.65 1.424-4.796 5.027-10.06 5.027-15.238 0-1.821.754-4.043.754-6.209 0-1.445 1.478-1.942 2.513-3.104 1.632-1.832 2.513 2.329 2.513 3.104 0 3 .754 5.66.754 8.466 0 1.585 4.022-2.192 4.022-4.797 0-3.519-2.368-4.425-3.016-7.337-.546-2.453.49-4.233 2.513-4.233 2.68 0 4.021 1.826 4.021 4.515 0 1.707-.25 3.181-.25 4.797 0 5.11 4.272-6.726 4.272-9.877 0-1.71-.252-3.08-.252-4.797 0-4.987 2.765 1.761 2.765 3.95 0 3.1-.098 5.801-.754 8.749-.355 1.594-.503 3.198-.503 5.08 0 1.066.997 3.62 1.257 5.079.697 3.911.517 8.017 1.76 11.852.547 1.69 1.072 3.256 1.759 4.798 1.292 2.901 2.262 4.476 2.262 8.183 0 2.736.455 4.515-2.262 4.515H335.28z" fill="#59614e" fill-rule="evenodd"/><path d="M298.6 635.653c1.945-2.97 5.043-5.1 7.037-7.337 1.55-1.742 4.023-2.542 5.529-4.233 1.112-1.249 1.602-2.364 2.765-3.669 1.139-1.279 1.878-3.753 2.764-5.08.936-1.4 1.233-4.098-.251-4.515-1.316-.37.112-2.791.503-3.668.626-1.406 1.508-.98 1.508-3.387 0-.564.122-1.145 0-1.693-.318-1.425-1.467 2.505-2.514 3.387-1.164.98-2.236 1.916-2.764 3.104-.609 1.366-1.772 2.85-2.262 3.95a23.134 23.134 0 00-1.508 4.516c-.255 1.141-1.743 1.937-2.262 3.104-.541 1.215-1.893 2.08-2.765 3.386-1.438 2.153-2.037 2.57-3.519 4.233-.921 1.035-1.985 1.846-3.016 2.54-1.22.822-1.651 1.633-2.764 2.257-1.305.733-1.898 1.284-2.765 2.258-1.036 1.163-1.83 1.49-3.016 2.822-1.696 1.904-2.401 3.669-.251 3.669 2.151 0 12.642-4.256 9.55-5.644" fill="#666c48" fill-rule="evenodd"/><path d="M453.967 479.006c0 4.209-4.061 7.62-9.072 7.62-5.01 0-9.072-3.411-9.072-7.62 0-4.208 4.062-7.62 9.072-7.62 5.01 0 9.072 3.412 9.072 7.62z" transform="matrix(.77999 0 0 1.57716 81.047 -280.913)" fill="url(#u)"/><path d="M260.348 594.83l-.292 10.722s-2.036-1.105-4.669 2.594c-2.561 3.598-4.648 1.613-6.711.691-2.019-.901-4.523 2.076-4.523 1.384v-9.684l16.195-5.707z" fill="#112b00" fill-rule="evenodd" stroke="#000" stroke-width=".35"/><path d="M233.503 602.958l2.48 30.436 9.191-3.459-.583-27.842-11.088.865z" fill="#1f1108" fill-rule="evenodd" stroke="#000" stroke-width=".175"/><path d="M324.54 574.64c-1.419 1.595-2.344 2.623-5.08 3.991-1.902.951-4.725 5.088-6.533 6.895-2.628 2.628-2.54 4.194-2.54 6.895 0 3.93 7.115-.076 5.08 3.992-1.213 2.427-3.075 2.995.726 3.628 2.57.429 4.402-1.64 6.17-2.903.885-.632.263 2.21 0 3.266-1.975 7.898 8.106-3.389 9.072-4.354 1.732-1.733 2.903-2.268 2.903.726 0 2.377-.119 4.228-1.089 6.169-.762 1.523-1.089 3.75-1.089 5.443 0 4.203 6.885-4.676 5.806-.363-.51 2.04 2.882-2.882 3.63-3.629 1.575-1.576 3.687.421 4.354 1.089 1.412 1.412 2.358 1.27 3.629 0l3.629-3.63c1.59-1.589 1.753.485 2.177 2.178.328 1.312 2.6 2.388 3.629 2.903 1.485.743 6.008 3.548 6.894 0 .344-1.376-1.075-3.214-1.451-4.717-.971-3.884 2.362-2.448 5.08-1.089 1.308.654 3.947.363 5.806.363 1.799 0-.542-3.809-1.814-5.08-1.808-1.808-2.625-2.153-3.266-4.718-.116-.463 5.29-.363 5.806-.363 2.89 0-.565-2.218-1.088-3.266-1.298-2.595-2.222-4.206-4.355-5.806-1.162-.871-2.012-3.587-3.629-3.992-14.217.706-28.11-3.336-42.457-3.628z" transform="matrix(.6439 0 0 .72522 127.144 157.082)" fill="#c9dde8" fill-rule="evenodd" filter="url(#v)"/><path d="M194.26 650.93c1.559 6.148 9.492 14.886 33.515 10.02 24.023-4.868 50.185-28.4 56.972-35.274-1.56-6.148-26.495-2.652-50.156 4.03-19.015 5.37-34.569 11.575-39.176 17.48" transform="matrix(.76219 0 0 .84904 82.179 86.165)" fill="#111d08" fill-rule="evenodd" filter="url(#w)"/><path transform="matrix(.61991 .14886 -.14053 .65667 237.97 147.535)" d="M510.629 637.957c0 8.924-22.74 21.547-34.254 23.052-30.773 4.023-74.763-25.016-85.287-32.607 0-8.924 31.858-11.071 63.14-8.465 25.14 2.095 46.271 6.31 53.803 13.173" fill="#111d08" fill-rule="evenodd" filter="url(#x)"/><path d="M284.687 558.518a6.16 6.16 0 00-2.186 1.073c-.73.795-1.532 1.524-2.095 2.506-.812 1.305-1.621 2.614-2.364 3.977-.746 1.325-1.479 2.662-2.26 3.96-.487.848-.901 1.753-1.34 2.638-.43.902-.861 1.807-1.143 2.791-.29.865-.417 1.795-.433 2.724-.112 1.788-.16 3.58-.232 5.37a53.449 53.449 0 00-.084 3.788c-.017 1.018.109 2.031.076 3.05.02 1.092-.051 2.19.056 3.278.054 1 .213 1.982.346 2.97.119 1.073.317 2.13.478 3.195.152 1.076.35 2.145.42 3.235.15 1.814.246 3.635.358 5.453-.054 2.209-.285 4.403-.458 6.602-.129 1.578-.313 3.152-.363 4.738.01 1.038-.304 2.192.2 3.132.47.932 1.452 1.055 2.28 1.106 1.282.247 2.584.198 3.878.263 1.253-.01 2.51-.123 3.762.003 2.027.163 4.054.322 6.084.43.857.026 1.711.148 2.569.137.59.045 1.078-.325 1.548-.685.29-.074.699-.05.729-.536.079-.34.216-.597.25-.923a5.4 5.4 0 011.841-1.749c.479-.264.86-.715 1.025-1.319.419-.281-.036-.922.351-1.221.44-.364 1.039-.872.804-1.608-.125-.817-.876-1.22-1.49-1.395-.757-.198-1.524-.336-2.3-.347-.835-.102-1.675.027-2.513-.022-.916-.045-1.837-.045-2.743-.232-.842-.067-1.634-.424-2.428-.731-.874-.36-1.688-.89-2.497-1.413-.615-.448-1.205-.996-1.562-1.756a8.855 8.855 0 01-.964-2.433c-.266-.936-.137-1.94.028-2.883.268-1.001.388-2.044.632-3.055.863-3.918 1.693-7.846 2.57-11.76.375-1.721.713-3.456.96-5.21.24-1.564.478-3.128.656-4.703.145-1.252.328-2.498.446-3.753.17-2.079.328-4.16.405-6.247.062-1.236.098-2.474.146-3.711-.03-1.424-.085-2.85-.276-4.259-.128-.971-.181-2.003-.625-2.863-.413-.887-1.19-1.553-2.054-1.621-.162-.035-.327-.01-.488.016z" fill="#422511" fill-rule="evenodd" stroke="#000" stroke-width=".088"/><path d="M372.252 420.514s5.253-.519 8.025 4.323c2.772 4.842 4.96 3.632 6.42 10.895 1.458 7.263 8.462 31.993 8.316 33.722-.146 1.73 12.11-2.594 13.714-4.496 1.605-1.903 7.879-12.624 9.776-12.279 1.896.346 3.501-1.729 3.501-1.729s-1.961-7.227-2.99-7.782c-1.091-.588-3.795 2.174-5.18 1.902-1.385-.271-1.712-2.13-3.064-2.075-.842-.895-2.48-3.113-2.48-3.804 0-.346-.739-2.178-1.127-2.63-.332.241-.424.479-1.062.727-.554.216-1.173-.605-.73-5.188.12-1.229-2.188-2.075-1.75-3.977-.438-2.767-.256-7.22-.256-7.22l4.779-1.6 15.757 9.512 9.63 8.82 5.69 10.202-1.752 24.73-18.237 10.203s-3.064-4.15-2.626-5.361c.437-1.21.875-3.459.875-3.459s-22.906 16.429-25.24 12.278c-2.335-4.15-6.42-39.255-8.9-41.85-2.48-2.593-2.772-7.781-2.772-7.781l-2.335-3.113 1.168-.692-2.189-.864-1.021-2.076-1.022-1.729-.291-1.556-1.46-1.384-.437-1.902-.73-2.767z" fill="#784421" fill-rule="evenodd" stroke="#000" stroke-width=".175"/><path d="M433.5 447.99c2.17 1.094-8.366 11.013 2.88 22.8.846.886-4.848 1.003-6.39 1.688-2.964-3.464-1.531-23.528 3.51-24.489z" fill="#573118" fill-rule="evenodd"/><path d="M281.546 415.91c-.956.094-1.91.203-2.864.328-.835.04-1.647.288-2.463.477l-2.563.834c-.846.309-1.683.647-2.513 1.012-.775.278-1.482.753-2.211 1.162-.733.506-1.403 1.118-2.031 1.791-.58.744-.8 1.806-1.46 2.477-.592.745-1.124 1.55-1.703 2.308-1.008 1.358-2.005 2.726-3.02 4.076-.64.837-1.282 1.672-1.941 2.487-.624.74-1.248 1.48-1.89 2.198-1.508 1.617-3.013 3.238-4.54 4.831-1.558 1.647-3.128 3.278-4.674 4.94-.784.887-1.544 1.803-2.312 2.71-.596.815-1.203 1.62-1.77 2.464a30.208 30.208 0 00-1.491 2.574 65.332 65.332 0 00-1.222 2.775c-.361.896-.686 1.81-.995 2.731-.301 1.003-.614 2-.904 3.008a220.8 220.8 0 01-.98 3.992c-.193.976-.152 1.98-.131 2.973-.026 1.017-.115 2.029-.17 3.043-.063 1.051-.16 2.1-.202 3.153-.013 1.015.064 2.027.145 3.036l.207 1.883c.789-.106 1.573.13 2.362.119.838.021 1.675.127 2.513.06l4.322-.21c1.038-.124 2.076-.233 3.116-.327l9.976-1.191a74.862 74.862 0 012.739-.209c.813-.094 1.632-.049 2.447-.118.738-.089 1.503-.052 2.204-.38a43.16 43.16 0 002.11-1.238c.774-.476 1.572-.892 2.342-1.377.653-.366 1.342-.668 2.048-.847a2.789 2.789 0 011.978.453c.72.508 1.472.947 2.186 1.468.817.53 1.698.901 2.555 1.329.785.365 1.548.8 2.348 1.119.979.407 1.965.789 2.955 1.151 1.14.402 2.276.824 3.42 1.214 1.485.482 2.965.99 4.431 1.547l2.548.951c.62.158 1.37.427 1.91-.119.684-.472 1.166-1.25 1.809-1.787.177-.16.383-.316.527-.506-.043-.115-.177-.048-.125-.209l.025-.119c-.123-.145-.078-.4-.114-.59-.084-.941.032-1.883.12-2.817.077-.935.259-1.85.46-2.757l1.067-4.707c.439-1.624.866-3.252 1.281-4.885l3.895-13.969 1.583-6.672c.21-1.214.357-2.44.528-3.663.186-.916.42-1.827.825-2.643.348-.85.804-1.628 1.235-2.42.462-.804.965-1.575 1.382-2.413.308-.629.475-1.46.126-2.115-.438.352-.898.804-1.457.775-.351-.112-.403-.68-.252-1.013.19-.882.567-1.725 1.156-2.323l2.01-2.145c.59-.694 1.191-1.378 1.684-2.174.367-.727.794-1.434.98-2.264.197-.78-.383-1.568-1.022-1.68-.277-.147-.584-.008-.863-.136-.696.333-1.223 1.006-1.835 1.505a24.17 24.17 0 00-1.76 1.905c-.622.811-1.304 1.561-1.88 2.42a27.508 27.508 0 00-1.484 2.403 63.864 63.864 0 00-1.876 3.437c-.452.904-.957 1.772-1.375 2.698-.342.829-.757 1.626-.972 2.52-.23.967.178 1.941.05 2.918-.097 1-.276 1.99-.574 2.936-.275 1.033-.6 2.045-.923 3.058-.323.991-.611 1.998-.96 2.977-.35 1.01-.717 2.01-1.113 2.996-.368.936-.734 1.873-1.146 2.782-.782 1.79-1.545 3.591-2.32 5.386a79.6 79.6 0 01-1.331 2.71c-.47.913-.938 1.827-1.407 2.74-.135.048-.063.37-.252.328-1.52-.557-3.044-1.1-4.561-1.665a91.223 91.223 0 01-4.309-1.85c-1.213-.658-2.412-1.352-3.618-2.025-.712-.502-1.383-1.077-2.061-1.638-.585-.646-1.224-1.248-1.658-2.055-.455-.747-.827-1.579-1.408-2.204a378.731 378.731 0 00-3.132-2.64c-.717-.586-1.436-1.171-2.134-1.787-.588-.552-1.192-1.134-1.569-1.918-.412-.844-.263-1.992.31-2.684.507-.735.986-1.533 1.626-2.111.647-.494 1.431-.611 2.135-.953.677-.209 1.368-.037 2.018.21a6.187 6.187 0 001.99.426c.69.035 1.408.008 2.048-.338.699-.306 1.378-1.373 1.85-2.032-.629-1.47.486-.67 1.22-1.443.736-.774 1.674-1.738 3.098-3.757.405-1.142.98.254 1.22-1.257-.105-.925-.206-1.874-.05-2.8.122-.421.19-.87.1-1.31.038-.175-.096-.449.115-.526.296-.243.449-.942.568-1.366.393-.895.9-1.376 1.227-2.308.332-.924.188-1.937.277-2.932.112-1.252.685-2.867.803-3.873.018-.512-.433.177-.677-.137-.646-.489-1.267-1.04-2.011-1.308a12.587 12.587 0 00-2.337-.655c-.989-.116-1.98-.283-2.975-.224l-.619.015zm19.173 64.573c.065.094.148.163.227.238-.02-.161-.13-.346-.277-.357l.05.12z" fill="#784421" fill-rule="evenodd" stroke="#000" stroke-width=".263"/><path d="M455.056 475.922c0 7.014-4.305 12.7-9.616 12.7s-9.617-5.686-9.617-12.7c0-7.015 4.306-12.701 9.617-12.701 4.2 0 7.914 3.6 9.173 8.892" transform="matrix(.90028 .8038 -.4099 .52287 77.65 -139.242)" fill="url(#y)" fill-rule="evenodd"/><path d="M375.608 426.912s2.972.997 4.231 1.557c1.167.519 1.751 2.94 1.751 2.94" fill="none" stroke="#a05a2c" stroke-width=".875"/><path d="M455.056 475.922c0 7.014-4.305 12.7-9.616 12.7s-9.617-5.686-9.617-12.7c0-7.015 4.306-12.701 9.617-12.701 4.2 0 7.914 3.6 9.173 8.892" transform="matrix(.35936 .11908 -.45796 1.9417 362.203 -531.749)" fill="url(#z)" fill-rule="evenodd"/><g clip-path="url(#A)" transform="matrix(.8041 0 0 .9531 236.233 20.024)"><path d="M76.696 446.863l106.559-1.089-106.559 55.057v-53.968z" fill="#1eb53a"/><path d="M82.162 500.83l111.925 1.362 2.286-51.003-114.21 49.642z" fill="#28409a"/><path stroke="#fcd116" stroke-width="22.667" d="M289.432 493.866l99.084-49.641" transform="matrix(1.02028 0 0 1 -213.14 6.964)"/><path stroke="#000" stroke-width="15.509" d="M289.432 493.866l99.084-49.641" transform="matrix(1.02028 0 0 1 -213.14 6.964)"/><path fill="#faed0b" stroke="#000" stroke-width="1.467" d="M70.714 382.184h136.797v63.86H70.714z"/><path fill="#d91d2c" stroke="#000" stroke-width="1.467" d="M70.714 501.826h128.94v42.414H70.714z"/><path fill="#f7f2f6" stroke="#000" stroke-width="1.467" d="M68.203 544.966h137.154v69.717H68.203z"/></g><g clip-path="url(#B)" transform="matrix(.8041 0 0 .9531 70.242 21.386)" fill="#27409a" fill-rule="evenodd"><path d="M336.022 561.567c-7.711 13.878-12.837.127-12.837.127s-7.802-14.598-16.24-1.44c-3.154 4.29-7.412 10.018-11.884.77 0 0-7.167-13.364-15.44-.61l.376-12.017c8.437-13.16 15.604.205 15.604.205 4.472 9.248 8.73 3.52 11.885-.77 8.437-13.158 16.239 1.44 16.239 1.44s5.352 13.364 12.837-.128c8.21-12.772 15.377.593 15.377.593 4.471 9.247 8.73 3.52 11.884-.77 8.438-13.159 16.24 1.44 16.24 1.44s5.352 13.363 13.063-.515l-.558 12.298c-7.693 14.003-13.045.638-13.045.638s-7.802-14.597-16.24-1.439c-3.155 4.29-7.412 10.018-11.884.77 0 0-6.94-13.751-15.377-.592z" style="marker:none" overflow="visible" enable-background="accumulate"/><path d="M334.046 585.45c8.437-13.158 15.377.593 15.377.593 4.471 9.248 9.455 3.883 12.61-.407 8.437-13.158 15.513 1.077 15.513 1.077s5.353 13.364 13.046-.638l.558-12.299c-7.711 13.879-13.064.514-13.064.514s-7.802-14.597-16.239-1.439c-3.155 4.29-7.413 10.017-11.884.77 0 0-7.167-13.364-15.377-.593-7.485 13.492-12.837.128-12.837.128s-7.802-14.598-16.24-1.44c-3.154 4.29-7.412 10.018-11.884.77 0 0-7.167-13.364-15.604-.205l-.377 12.018c8.274-12.755 15.441.61 15.441.61 4.472 9.247 8.73 3.52 11.885-.77 8.437-13.159 15.331 1.62 15.331 1.62s6.033 13.57 13.745-.308z" style="marker:none" overflow="visible" enable-background="accumulate"/><path d="M332.005 621.763c10.614.087 15.422-7.823 15.422-7.823 4.471 9.247 10.362-.79 13.517-5.08 8.437-13.158 16.24 1.44 16.24 1.44s5.352 13.364 13.045-.638l.558-12.298c-7.711 13.878-13.064.514-13.064.514s-15.657-10.201-10.224-3.264c.682.87-4.838-.011-6.015 1.825-3.155 4.289-7.413 10.017-11.884.77 0 0-7.167-13.365-15.377-.593-7.485 13.491-12.837.127-12.837.127s-7.802-14.598-16.24-1.439c-3.154 4.29-7.412 10.017-11.884.77 0 0-7.167-13.365-15.604-.206l-.377 12.018c8.274-12.754 15.441.61 15.441.61 4.472 9.248 8.73 3.52 11.885-.77 8.437-13.158 16.239 1.44 16.239 1.44s13.608 19.124 21.32 5.246" style="marker:none" overflow="visible" enable-background="accumulate"/></g><path d="M374.003 423.108l4.523 2.075" fill="none" stroke="#a05a2c" stroke-width=".875"/><path d="M389.888 488.104c0 59.478-23.607 86.53-44.239 110.473-21.42-13.275-44.57-63.931-44.24-109.452.379-51.648 21.959-82.22 43.666-105.707 15.963 12.594 44.239 54.74 44.813 104.686z" fill="none" stroke="#000" stroke-width="1.284"/><path d="M366.13 533.41c1.51 2.556.59 3.636-1.325 2.279.055-.06-45.823-37.475-45.811-37.328-1.666-2.014.197-3.011 2.784-.98-.113.04 44.374 36.155 44.352 36.03z" fill="url(#C)" stroke="#000" stroke-width=".671"/><path d="M325.14 533.054c-1.589 2.74-.62 3.898 1.393 2.443-.058-.065 48.181-40.186 48.169-40.028 1.751-2.16-.208-3.23-2.927-1.052.118.044-46.658 38.772-46.635 38.637z" fill="url(#D)" stroke="#000" stroke-width=".713"/><path d="M343.865 501.392v76.665a2.839 2.839 0 00-.905 2.085c0 .844.361 1.588.905 2.085v3.544l-2.777-.03 2.16 3.723 2.162 3.723 2.287-3.693 2.311-3.723h-2.927v-3.693a2.852 2.852 0 00.754-1.936c0-.762-.3-1.444-.754-1.936v-76.814h-3.216z" fill="url(#E)" stroke="#000" stroke-width=".69"/><path d="M322.355 497.469s-6.128 9.598-14.882 13.143c-1.896 1.73 10.943 16.428 13.934 14.613 2.261-6.572 7.732-19.715 10.359-21.012-1.464-2.7-8.973-7.263-9.411-6.744z" fill="url(#F)" fill-rule="evenodd" stroke="#000" stroke-width=".438"/><path d="M359.56 504.213s6.747-8.247 12.109-9.338c14.116 22.6-2.334 31.647-2.334 31.647s.638-5.573-2.043-10.03c-2.39-3.593-7.733-12.279-7.733-12.279z" fill="url(#G)" fill-rule="evenodd" stroke="#000" stroke-width=".875"/><path d="M345.694 453.17c-1.483 2.248-2.94 7.005-2.94 15.666 0 4.98.424 9.426 1.106 12.301v11.557c-.873 1.898-1.537 5.232-1.834 9.263h7.01c-.258-3.451-.787-6.405-1.482-8.37v-12.539c.669-2.877 1.106-7.285 1.106-12.212 0-8.661-1.774-13.418-2.966-15.666z" fill="url(#H)" stroke="#000" stroke-width=".363"/><path d="M333.65 437.634c.266 3.566 2.334 7.61 2.334 7.61h19.988l2.188-8.301s-13.118-7.369-24.51.691z" fill="url(#I)" fill-rule="evenodd" stroke="#000" stroke-width=".875"/><path d="M338.328 435.732c-3.398-1.837-6.85-5.08-7.394-9.738-.206-1.885.01-4.081-1.032-5.653.99.771 1.01.856 1.584 1.234 1.27.797 3.418 1.776 3.138 3.87-.428-3.162-.353-6.423-.52-9.626.08-1.54-.372-4.364.028-5.16 4.098 3.907 7.653 12.52 7.583 15.066.195-6.346-5.22-7.443-3.249-13.864 1.19-4.845 4.277-8.595 5.757-13.233-.33-1.459.155-.837.64-.041 1.596 2.597 2.862 6.122 1.696 9.29-.532 2.086-.99 4.225-1.082 6.411.203-5.975 3.55-8.241 8.137-9.46-2.294 3.74-2.836 7.431-2.866 12.011-.082.947-.35 4.573.256 1.823.518-2.075 1.017-4.515 3.052-5.188.955-.346 2.64-1.646 3.195-1.995-.89 2.401-1.261 4.994-1.269 7.605-.248 3.617-.29 7.339-1.282 10.805.51-2.672 2.74-9.034 5.879-6.664-1.372 1.616-2.276 4.118-2.087 6.555-.113 1.861-.7 4.048-2.196 4.932-3.35-.306-6.743.2-10.104.404-2.622.193-5.24.505-7.864.616z" fill="url(#J)" fill-rule="evenodd" stroke="#000" stroke-width=".875" stroke-opacity=".553"/><path style="marker:none" d="M333.59 436.25c5.188-6.235 22.112-3.991 25.094-.518 1.523 1.744-.28 4.075-1.167 2.767-6.14-3.729-14.873-5.177-23.928 1.038-1.978-.487-.483-2.713 0-3.286z" fill="#f5ec91" fill-rule="evenodd" stroke="#000" stroke-width=".7" overflow="visible" enable-background="accumulate"/><path d="M416.76 474.28s1.412-5.66.52-5.381c-.446.14-5.56 2.823-11.072 6.001-5.512 3.18-11.42 6.854-13.452 8.975-2.77 2.892 2.612 3.755 5.747.931 3.365-1.366 13.443-7.24 18.257-10.526z" fill="#502d16" fill-rule="evenodd"/><path d="M194.26 650.93c1.559 6.148 9.492 14.886 33.515 10.02 24.023-4.868 50.185-28.4 56.972-35.274-1.56-6.148-26.495-2.652-50.156 4.03-19.015 5.37-34.569 11.575-39.176 17.48" transform="matrix(-.23584 -.06328 -.06231 .2948 477.783 429.044)" opacity=".692" fill="#111d08" fill-rule="evenodd" filter="url(#K)"/><path d="M361.583 389.507c19.009 8.77 79.128 102.534 19.91 209.897-5.26 2.935-10.058-1.1-8.82-5.992 61.28-125.583-12.43-201.394-11.09-203.905z" fill="#fdfbec" fill-rule="evenodd" stroke="#000" stroke-width=".875"/><path d="M455.056 475.922c0 7.014-4.305 12.7-9.616 12.7s-9.617-5.686-9.617-12.7c0-7.015 4.306-12.701 9.617-12.701 4.2 0 7.914 3.6 9.173 8.892" transform="matrix(1.17775 0 0 1.17853 -247.631 -138.364)" fill="url(#L)" fill-rule="evenodd"/><path d="M194.26 650.93c1.559 6.148 9.492 14.886 33.515 10.02 24.023-4.868 50.185-28.4 56.972-35.274-1.56-6.148-26.495-2.652-50.156 4.03-19.015 5.37-34.569 11.575-39.176 17.48" transform="matrix(.23584 -.06328 .06231 .2948 212.849 427.993)" opacity=".692" fill="#111d08" fill-rule="evenodd" filter="url(#M)"/><path d="M328.958 388.736c-19.009 8.77-79.128 102.533-19.91 209.896 5.26 2.935 10.058-1.1 8.82-5.992-61.28-125.583 12.43-201.393 11.09-203.904z" fill="#fdfbec" fill-rule="evenodd" stroke="#000" stroke-width=".875"/><path d="M406.101 552.634s12.256 10.895 12.401 20.58c.146 9.684 3.648 9.338 2.043 11.932-1.605 2.594-4.377 31.992-2.626 32.684-.106 1.18-.559 6.192-1.897 5.015-2.343-2.061-16.486.865-17.362.865-.875 0-8.316-6.053-6.857-6.745 1.459-.691 16.487-1.21 16.487-6.398s-8.463-54.993-7.733-54.993c.84-4.348 8.269-6.182 5.544-2.94z" fill="#593218" fill-rule="evenodd"/><path d="M444.764 607.281s6.858 21.963 4.085 25.421c-2.772 3.459 11.527 3.459 11.527 1.21 0-2.247-3.21-25.247-2.48-25.766.729-.52-12.986-.52-13.132-.865z" fill="#2e1a0c" fill-rule="evenodd" stroke="#000" stroke-width=".438"/><path d="M453.06 620.712c0 2.806-2.112 5.08-4.717 5.08-2.606 0-4.718-2.274-4.718-5.08s2.112-5.08 4.718-5.08c2.605 0 4.717 2.274 4.717 5.08z" transform="matrix(.80584 0 0 .76779 79.97 140.648)" fill="#e6e6e6" stroke="#000" stroke-width=".2"/><path d="M454.874 637.496c0 1.152-1.827 2.086-4.082 2.086s-4.082-.934-4.082-2.086c0-1.153 1.827-2.087 4.082-2.087s4.082.934 4.082 2.087z" transform="matrix(.8041 0 0 .9531 72.161 17.925)" fill="#e6e6e6" stroke="#000" stroke-width=".2"/><path d="M437.323 653.627s5.107-9.165 2.773-12.97c-2.335-3.804-5.982-8.647-14.59-5.707-8.608 2.94-1.022-2.594 1.896-3.458 2.918-.865 11.089 1.729 12.256 5.36 1.167 3.632 1.897-18.676-11.088-12.624-6.712-4.15 5.835-.345 6.127-4.496.292-4.15-1.75-6.398-1.75-6.398l2.188-.173s-.292 8.3 5.398 5.534c-.449 5.423 1.167 11.759 1.167 11.759l2.627-2.594-1.897 4.323.438 5.534s5.836-10.895 7.732-12.624c1.897-1.73 2.189.519 2.189.519l-4.231 5.534 11.963-.692-1.313 3.286-8.462-1.038s-3.793.173-4.814 2.421c-1.022 2.248-1.46 3.978-1.46 3.978s9.776-1.73 11.089 1.21c1.313 2.94-9.338-1.73-10.505.346-1.167 2.075-5.544 10.722-5.252 11.76.292 1.037-2.772 1.21-2.48 1.21z" fill="#838959" fill-rule="evenodd" stroke="#000" stroke-width=".175"/><path d="M455.056 475.922c0 7.014-4.305 12.7-9.616 12.7s-9.617-5.686-9.617-12.7c0-7.015 4.306-12.701 9.617-12.701 4.2 0 7.914 3.6 9.173 8.892" transform="matrix(.53407 0 0 1.3888 184.14 -188.396)" fill="url(#N)" fill-rule="evenodd"/><path d="M422.442 466.94c-4.078 12.574 2.334 17.386 2.334 17.386" fill="none" stroke="#2e1a0c" stroke-width=".875"/><path d="M422.841 574.948c0 16.733-4.38 30.314-9.778 30.314-5.398 0-6.749-8.49-9.778-30.314-4.025-28.99-3.254-19.187 9.778-30.315 3.53-3.015 8.023 8.356 9.328 21.225" fill="url(#O)" fill-rule="evenodd"/><path d="M410.993 586.925c-.24-9.129-.077-19.338.116-25.631.193-6.31 1.58-8.545 1.283-8.733-1.31.957-9.1 0-9.1 0 1.927 4.895 4.409 7.777 6.328 52.096-.296 5.497.704 10.933 2.646 9.038.33-1.931.192-8.884-1.273-26.77z" fill="#2e1a0c" fill-rule="evenodd"/><path d="M418.394 595.992c.806-9.33 2.848-11.1 3.207-17.387.36-6.287-2.117-21.54-2.282-21.753-.904.837-8.479 1.463-8.479 1.463 4.093 21.69 3.717 36.548 1.736 50.193 1.5 2.59 4.091 3.06 4.06 6.919.77.314.997 1.45 1.758-19.435z" fill="#2e1a0c" fill-rule="evenodd"/><path d="M406.758 555.834s4.45 5.88 4.45 8.214c0 2.335 2.553 15.132 4.23 15.132 1.678 0-.218 1.037.657 2.68.876 1.643 4.085 4.842 4.085 4.842l2.189-5.188-11.672-28.88-3.94 3.2z" fill="#140b04" fill-rule="evenodd"/><path d="M402.308 553.153c.018 1.773 9.045 1.384 10.067 12.797.905 10.122 5.398 7.61 5.252 9.857-.298 4.601 5.252 12.797 9.338 15.218.664 4.804-.833 6.286.583 9.166 1.399 2.253 4.278 3.777 6.274 3.458 1.617-.257 1.918 1.007 3.94 2.076 2.075 1.097 5.705 5.685 7.44 3.804 3.347-2.675 10.049 2.48 12.693.519.438-3.977-.069-8.414-1.167-15.737-1.167-7.782-2.66-20.232-.438-39.083.389-3.294 7.631-32.449 7.854-37.818.202-4.88-6.103-17.693-8.875-20.633-3.017-3.95-2.48-24.902-5.252-25.594-2.772-.692-24.22-.692-28.013 7.782-2.772 1.21-5.552-2.87-5.982-.692 0 4.67 5.253 8.128 6.128 7.09.875-1.037 9.921 9.166 9.192 11.414-.73 2.248 3.184 13.38.875 14.872-1.605 1.038.73 7.09-1.897 9.166-4.035 3.189-28.03 30.544-28.012 32.338z" fill="#3b7a34" fill-rule="evenodd" stroke="#000" stroke-width=".788"/><path d="M419.31 484.705c4.887.666 7.02 2.805 12.402 11.105 4.3 17.324 21.623 15.049 21.364-4.119-.291-22.11-21.236-25.528-30.96-12.661-1.74.629-5.735-2.226-6.348.122" fill="url(#P)" fill-rule="evenodd"/><path d="M401.586 553.03c.018 1.773 9.767 1.507 10.789 12.92.905 10.122 5.398 7.61 5.252 9.857-.298 4.601 5.252 12.797 9.338 15.218.664 4.804-.833 6.286.583 9.166 1.399 2.253 4.278 3.777 6.274 3.458 1.617-.257 1.918 1.007 3.94 2.076 2.075 1.097 5.705 5.685 7.44 3.804 3.347-2.675 10.77 2.602 13.415.641-.594-5.445-.79-8.536-1.889-15.859-1.167-7.782-2.66-20.232-.438-39.083.389-3.294 7.631-32.449 7.854-37.818.202-4.88-6.103-17.693-8.875-20.633-3.017-3.95-2.48-24.902-5.252-25.594-2.772-.692-24.22-.692-28.013 7.782-2.772 1.21-5.552-2.87-5.982-.692 0 4.67 5.253 8.128 6.128 7.09.875-1.037 9.921 9.166 9.192 11.414-.73 2.248 3.184 13.38.875 14.872-1.605 1.038.73 7.09-1.897 9.166-4.035 3.189-28.753 30.422-28.734 32.216z" fill="none" stroke="#000" stroke-width=".788"/><path d="M424.567 427.671s-2.063 1.406-1.96 2.507c.103 1.1.619 5.992.103 6.787-.516.794-8.263 6.733-7.45 6.892.774.151 3.26-.46 4.447-.52 1.187-.062 2.469 10.214 2.83 9.541.36-.672-.466-11.018-.208-12.057.258-1.04 1.928-6.485 1.516-7.28-.413-.795.36-3.913.98-3.791.619.122.103-2.079-.258-2.079z" fill="#0f0804" fill-opacity=".309" fill-rule="evenodd"/><path d="M402.024 420.567c2.909-4.816 6.685-10.245 12.05-10.629 7.43.104 14.486 5.94 17.461 13.956 7.616 16.249 16.1 31.986 22.52 48.978 1.794 3.457 1.188 7.343 1.328 11.134.187 3.632 2.124 6.761 1.706 10.48 1.018 3.213-1.816 5.072-2.657 1.407-.454-2.522.79-5.526-1.15-7.378-.724-3.129.633-7.146-1.232-10.143-1.866-2.697-1.245-5.931-3.884-7.564-3.607-1.064-1.175-6.402-1.592-9.61.286-3.51-1.215-5.989-2.257-9.07-2.552-1.474-6.321-1.352-8.844-3.062-3.886-1.309-2.734-7.426-5.298-10.415-1.397-4.031-5.667-1.597-7.775-4.213-2.256-3.877-6.53-5.275-9.628-8.087-2.652-1.03-3.614-4.53-5.178-6.156-1.83.197-3.805 1.671-5.57.372z" fill="url(#Q)" fill-rule="evenodd" stroke="#000" stroke-width=".35"/><path d="M433.676 448.01s-7.44 10.03-2.48 16.429c4.96 6.398 6.363 11.608 5.982 12.624-1.751 4.67 1.896 16.083-.146 15.91-2.043-.173-16.925 13.488-25.533 16.774-1.81.691-3.647-1.556-5.398 1.557-1.167 2.075-7.295 6.571-8.462 5.706-1.167-.864-4.523 2.594-2.772 2.94 1.75.346-1.021-.519-.584 1.21.438 1.73 1.897 2.422 1.897 2.422s-1.313 1.73 0 2.248c1.313.519 1.75 2.767 3.356 1.73 1.605-1.038 6.565 1.901 9.045-2.422 2.48-4.323 6.274-8.646 11.38-10.549 5.107-1.902 20.897-9.767 27.138-15.39-1.93-18.595 2.334-43.06-3.794-48.249-7.003-.865-9.483-3.113-9.629-2.94z" fill="#784421" fill-rule="evenodd" stroke="#000" stroke-width=".438" stroke-opacity=".553"/><path d="M443.685 497.2c1.25 3.305-4.476 8.58-12.78 11.773-8.304 3.193-19.92 1.676-17.308-.203 1.536-1.105 10.253-6.012 18.557-12.507 5.874-4.594 7.191-2.362 10.16-.592" fill="url(#R)" fill-rule="evenodd"/><path d="M425.455 505.884c5.416-3.434 11.69-5.368 15.535-7.493 3.844-2.126 5.053-5.911 5.288-5.711 0 1.6-.058 7.278-.058 7.278-5.607 4.225-19.61 10.318-28.915 15.105-5.512 4.317-13.918 2.431 8.15-9.179z" fill="#2e1a0c" fill-rule="evenodd"/><path d="M433.676 448.01s-7.003 10.03-2.043 16.429c4.961 6.398 5.926 11.608 5.545 12.624-1.751 4.67 1.896 16.083-.146 15.91-2.043-.173-16.925 13.488-25.533 16.774-1.81.691-3.647-1.556-5.398 1.557-1.167 2.075-7.295 6.571-8.462 5.706-1.167-.864-4.523 2.594-2.772 2.94 1.75.346-1.021-.519-.584 1.21.438 1.73 1.897 2.422 1.897 2.422s-1.313 1.73 0 2.248c1.313.519 1.75 2.767 3.356 1.73 1.605-1.038 6.565 1.901 9.045-2.422 2.48-4.323 6.274-8.646 11.38-10.549 5.107-1.902 20.897-9.767 27.138-15.39-1.93-18.595 2.334-43.06-3.794-48.249-7.003-.865-9.483-3.113-9.629-2.94z" fill="none"/><path d="M454.977 506.288c4.41 7.211 3.886 16.81 2.102 25.013-1.652 6.406-5.617 11.45-7.891 17.52-4.064 9.368-7.99 18.999-9.917 29.338-.608 4.628-1.19 9.418-1.845 14.374-7.933-2.8-7.213 3.058-9.206 2.186-1.993-.872-.096-4.56-1.549-3.957l-.3.021s4.952-4.647 9.079-2.2c-2.683-8.56 12.7-42.148 16.92-50.87 8.871-18.342 2.607-31.425 2.607-31.425z" fill-rule="evenodd"/><path d="M276.105 463.038s8.17 8.474 7.879 9.511c-.292 1.038 2.853 6.757-.357 4.595-3.21-2.161-7.084-2.26-8.397-3.211-1.313-.951.875-10.981.875-10.895z" fill="#502d16" fill-rule="evenodd"/><path d="M455.056 475.922c0 7.014-4.305 12.7-9.616 12.7s-9.617-5.686-9.617-12.7c0-7.015 4.306-12.701 9.617-12.701 4.2 0 7.914 3.6 9.173 8.892" transform="matrix(.42678 0 0 1.19778 87.5 16.085)" fill="url(#S)" fill-rule="evenodd"/><path d="M241.235 453.371c4.074 8.384 9.847 15.502 18.042 17.4 10.681 5.185 9.887.92 10.917-22.113 2.404.187 9.117 4.463 7.717 8.953-4.256 11.47-1.954 25.39-10.77 37.84-4.424 8.596-9.1 17.062.35 29.383 7.966 4.893 17.664 21.45 24.87 29.395-4.898 4.066-4.212 3.826-5.845 8.626-4.076 8.458-6.086 15.282-12.646 21.96-7.569 8.637-16.332 17.583-27.327 18.292-6.888 4.086-7.05-2.291-13.969 1.615 6.317-24.799 3.596-46.402-1.275-61.944-3.497-12.253-5.368-26.853 1.265-38.172 4.118-10.351 7.352-16.84 4.586-28.633-.95-5.95.983-17.445 4.085-22.602z" fill="#307131" fill-rule="evenodd" stroke="#000" stroke-width="1.018"/><path d="M318.562 644.289s33.265-5.188 45.228 1.383c9.006 4.947 1.751 14.872 1.751 14.872s-22.468-5.188-41.727.346c-2.334-3.458-4.669-16.601-5.252-16.601z" fill="url(#T)" fill-rule="evenodd" stroke="#000" stroke-width=".875"/><path d="M326.983 638.867c.922-3.542 3.184-6.74 4.374-9.613.926-2.235 3.004-3.943 3.904-6.114.664-1.602.785-2.84 1.479-4.514.68-1.642.62-4.252 1.049-5.84.452-1.678-.09-4.327-1.612-4.144-1.348.162-.745-2.665-.645-3.64.16-1.562 1.118-1.504.385-3.764-.172-.53-.235-1.123-.516-1.59-.733-1.217-.615 2.92-1.33 4.152-.794 1.371-1.515 2.665-1.65 3.985-.156 1.519-.796 3.361-.921 4.585-.179 1.747-.187 3.259-.041 4.824.11 1.171-1.046 2.494-1.179 3.79-.138 1.35-1.144 2.687-1.565 4.25-.694 2.578-1.13 3.201-2.015 5.337-.55 1.328-1.303 2.501-2.06 3.552-.895 1.244-1.053 2.172-1.908 3.19-1.002 1.192-1.391 1.939-1.909 3.189-.619 1.493-1.265 2.107-1.973 3.817-1.013 2.444-1.138 4.374.882 3.542 2.02-.831 10.578-8.885 7.25-8.994" fill="#666c48" fill-rule="evenodd"/><path d="M328.775 636.68s-16.341 4.842-13.423 10.376c2.918 5.533 8.097 13.056 8.097 13.056s-.51-6.14 2.991-7.868c3.502-1.73 10.505-8.301 5.836-9.339-3.793-4.15-3.21-6.917-3.501-6.225z" fill="url(#U)" fill-rule="evenodd" stroke="#000" stroke-width=".875"/><path d="M434.114 474.988c-10.65.173-10.65 6.225-10.65 6.225M434.114 477.582c-9.921 2.248-8.317 7.263-8.317 7.263M433.822 483.116c-6.42 3.804-4.815 6.052-4.815 6.052M434.26 488.476c-5.107 3.805-4.086 6.053-4.086 6.053M421.566 479.657s.146 5.188 1.46 6.053c1.312.864.729.864.729.864" fill="none" stroke="#000" stroke-width=".263"/><path d="M448.12 477.409l2.772.346" fill="none" stroke="#000" stroke-width=".088"/><path d="M448.12 479.83l4.085 1.556" fill="none" stroke="#000" stroke-width=".175"/><path d="M448.704 485.018l4.377 1.556" fill="none" stroke="#000" stroke-width=".613"/><path d="M449.725 489.687c2.06.173 4.355 2.594 4.377 2.594M448.85 493.664l5.544 2.076" fill="none" stroke="#000" stroke-width=".875"/><path d="M284.239 428.296l.292 5.274.4 1.643" fill="#381f0f" fill-rule="evenodd" stroke="#4f2c16" stroke-width=".613"/><path d="M275.867 405.069c-7.773-.011-12.86 7.398-14.574 15.637-.392 2.404-.222 6.478-.251 8.905 1.727-1.795 2.7-.395 3.518-1.638 1.027-1.243 2.169-.972 3.894-1.28.379-4.02 1.616-4.794 2.815-6.166 1.193-1.484 3.345-.425 3.342 1.608.033 1.545.772 3.68 2.387 3.217.801-3.33 2.925-3.045 4.649-3.902.844-1.256-.057-4.955 1.784-4.646 1.43.59 3.69 1.816 5.227 1.727.87-.12 2.668 1.66 2.764-.655.103-2.486-5.294-9.483-9.75-11.526-2.073-.874-4.01-1.279-5.805-1.281zm-.578 2.293c.37 0 .654.495.654 1.102 0 .608-.283 1.102-.654 1.102-.37 0-.678-.494-.678-1.102 0-.607.308-1.102.678-1.102zm3.242.745c.342 0 .628.361.628.834 0 .472-.286.864-.628.864s-.628-.392-.628-.864c0-.473.286-.834.628-.834zm-6.131.596c.427 0 .779.494.779 1.102 0 .607-.352 1.102-.78 1.102-.426 0-.778-.495-.778-1.102 0-.608.352-1.102.779-1.102zm-3.217 1.608c.252.054.65.65.955 1.46.35.924.435 1.781.201 1.906-.234.124-.706-.506-1.055-1.43-.35-.924-.435-1.782-.201-1.906.029-.016.064-.038.1-.03zm-2.563.953c.41-.142 1.013.87 1.357 2.264.344 1.393.284 2.627-.126 2.77-.41.142-1.013-.871-1.357-2.264-.343-1.393-.284-2.628.126-2.77z" fill-rule="evenodd"/><path d="M408.326 430.5c.637-.29.498.918.555 1.644.123 1.11-.326 2.262.057 3.334.407 1.054 1.299 1.688 2.201 2.021.58.259 1.276.275 1.732.83.317.581-.518.701-.587 1.221-.203.585-.217 1.256-.531 1.786-.256.752-1.509 1.33-1.92.683" fill="none" stroke="#0f0804" stroke-width=".438"/><path d="M406.904 428.988c.915-1.509 2.116-1.935 3.77-2.281-.907-.906-2.17-.646-3.292.084-.51.414-.99 1.153-.83 1.894.1.462.184.325.352.303z" fill-rule="evenodd"/><path d="M412.667 438.975c-.975.017-1.951-.036-2.925.027-.29.033-.589.09-.84.275-.173.237-.293.545-.54.692" fill="none" stroke="#000" stroke-width=".438"/><path d="M241.497 454.561c21.51 23.417 33.033 19.397 33.033 19.397M259.551 472.781c12.69 9.294 14.34 5.014 14.34 5.014" fill="none" stroke="#000" stroke-width=".875"/><path d="M261.512 478.406c9.388 7.704 10.626 5.87 10.626 5.87" fill="none" stroke="#000" stroke-width=".613"/><path d="M261.099 483.42c8.15 6.48 8.356 6.603 8.356 6.603" fill="none" stroke="#000" stroke-width=".438"/><path d="M262.027 489.9l4.437 3.67" fill="none" stroke="#000" stroke-width=".175"/><path d="M259.603 473.128c12.69 9.294 14.34 5.014 14.34 5.014" fill="none" stroke="#fff" stroke-width=".875"/><path d="M259.551 472.781c12.69 9.294 14.34 5.014 14.34 5.014" fill="none" stroke="#000" stroke-width=".875"/><path d="M261.77 479.12c9.388 7.704 10.626 5.87 10.626 5.87" fill="none" stroke="#fff" stroke-width=".613"/><path d="M261.512 478.406c9.388 7.704 10.626 5.87 10.626 5.87" fill="none" stroke="#000" stroke-width=".613"/><path d="M261.331 484.134c8.15 6.48 8.357 6.603 8.357 6.603" fill="none" stroke="#fff" stroke-width=".438"/><path d="M261.099 483.42c8.15 6.48 8.356 6.603 8.356 6.603" fill="none" stroke="#000" stroke-width=".438"/><path d="M262.156 490.278l4.437 3.669" fill="none" stroke="#fff" stroke-width=".175"/><path d="M262.027 489.9l4.437 3.67" fill="none" stroke="#000" stroke-width=".175"/><path d="M252.272 443.193c-.903-.04-1.725.485-2.563.804-.958.563-1.905 1.15-2.815 1.817-.708.664-1.413 1.353-1.952 2.22-.506.78-.983 1.613-1.267 2.544a18.037 18.037 0 00-.813 3.564c-.154.958.053 1.921.193 2.863.295 1.735.752 3.421 1.161 5.121.255 1.236.555 2.47.603 3.748.116 1.207-.093 2.407-.227 3.6-.222 2.22-1.004 4.277-1.529 6.407-.297 1.163-.59 2.332-.785 3.524-.127.93-.12 1.872-.032 2.806.041.966.188 1.948.042 2.91-.14.986-.334 1.96-.587 2.916-.353 1.428-.767 2.839-1.038 4.293-.116.838-.176 1.729.02 2.555.27 1.074 1.035 1.804 1.698 2.54 1.574 1.632 3.15 3.261 4.756 4.847.985.878 1.914 1.851 2.974 2.605.873.504 1.823.775 2.727 1.186 3.322 1.434 6.71 2.635 10.077 3.902 2.005.784 3.987 1.65 5.978 2.48 1.635.68 3.174 1.63 4.717 2.551.891.584 1.838 1.08 2.61 1.886.926.875 1.808 1.817 2.772 2.637 1.444 1.296 2.894 2.584 4.396 3.785.967.802 1.93 1.612 2.96 2.299.679.598 1.48.813 2.26 1.135.609.343 1.015 1.12 1.758 1.162.75.093 1.628.38 2.262-.268.564-.519.885-1.569 1.73-1.49.715.358 1.11-.601 1.26-1.28.648-.78.324-1.842.367-2.794.26-.957.493-2.046.027-2.98-.424-1.228-1.161-2.269-1.977-3.161-.761-.811-1.664-1.389-2.513-2.056-.759-.438-1.607-.822-2.06-1.727a5.244 5.244 0 00-1.82-1.968c-.965-.76-1.936-1.576-3.08-1.904-1.06-.443-2.176-.675-3.288-.848-.77-.071-1.549-.264-2.257-.637-2.423-1.039-4.858-2.053-7.195-3.348-.942-.513-1.838-1.137-2.764-1.69a32.712 32.712 0 01-2.894-2.047c-1.432-1.075-2.866-2.149-4.343-3.135-.858-.492-1.705-1.019-2.613-1.372-1.238-.48-2.537-.718-3.77-1.22a3.005 3.005 0 01-1.701-1.417c-.301-.655-.434-1.456-.158-2.157.292-.84.664-1.642.98-2.472.675-1.895 1.262-3.833 1.85-5.766.576-2.29 1.184-4.577 1.535-6.935.205-1.294.454-2.58.585-3.889.093-.814.543-1.46 1.04-1.992a36.393 36.393 0 002.528-2.892c.565-.782 1.005-1.673 1.346-2.617.321-.921.466-1.916.537-2.907.066-1.26-.258-2.48-.553-3.674-.291-1.025-.541-2.08-.965-3.042-.551-1.354-1.234-2.625-1.905-3.899-.477-.81-.96-1.627-1.55-2.328-.745-.903-1.423-1.897-2.3-2.63a11.639 11.639 0 00-1.998-1.48c-.726-.3-1.456-.699-2.236-.715l-.146.022-.055.008z" fill="#784421" fill-rule="evenodd"/><path style="marker:none" d="M273.054 424.127c-.62.837-1.419 1.208-1.782.829-.364-.38-.156-1.365.465-2.202s1.42-1.208 1.783-.828c.364.379.155 1.364-.466 2.201z" overflow="visible" enable-background="accumulate"/><path d="M281.232 423.573c.453-.12 2.914.577 3.286.907.472.42.842.51 1.238.978.184.219.336.26.516.367" fill="none" stroke="#000" stroke-width=".613" stroke-linecap="round"/><path d="M284.827 426.681c.183.733-.16 1.637-.795 1.86-.375.114-.72-.193-.959-.503-.232-.299-.732-.89-1.014-1.127" fill="none" stroke="#000" stroke-width=".35"/><path d="M252.536 648.011h-1.648s.988-7.223-5.16-6.48c-2.056.247-5.262-3.547-5.262-3.547s-4.436.978-4.333-.245c.103-1.222 1.135-2.568 1.135-2.568l2.991 1.59-1.238-3.546h1.135l1.238 3.302 2.27 1.467.928-5.992-3.507-4.647 2.682 1.101-3.61-5.625 1.444-1.59 3.404 7.46.206-7.582 1.135.367v6.97l1.96-1.223 1.238.245-3.308 3.307-.941 7.787 2.496 1.378.722-4.402v-6.48l-.103-3.547 1.857 2.446v4.524l1.34-.611-.515 1.834 2.373-1.345.619-9.905.928-.489.413 7.582 4.54-11.74 1.237.734-4.196 11.723 6.466-3.53.31 1.1 4.435-.244-.619 2.935-7.585.202 6.657 2.488 1.444 4.647s-7.406-5.507-9.491-4.647c-2.373.978-5.984 2.079-5.674 5.747.31 3.669-.206 9.294-.413 9.05z" fill="#502d15" fill-rule="evenodd" stroke="#000" stroke-width=".175"/><path d="M238.9 615.28c1.396 1.546 1.952 3.533 1.24 4.436-.712.904-2.423.382-3.819-1.164-1.396-1.546-3.036-4.867-3.164-6.566 1.293-.067 4.347 1.748 5.743 3.294z" fill="green" stroke="#000" stroke-width=".456"/><path d="M243.277 619.589c0 2.408-.843 4.363-1.883 4.363s-1.883-1.955-1.883-4.363c0-2.408.926-6.33 1.883-7.682.921 1.144 1.883 5.274 1.883 7.682z" fill="green" stroke="#000" stroke-width=".469"/><path d="M239.943 619.842c1.919.407 3.2 1.678 2.859 2.836-.34 1.159-2.174 1.77-4.092 1.363-1.918-.407-4.739-2.101-5.502-3.397 1.212-.833 4.817-1.208 6.735-.802z" fill="green" stroke="#000" stroke-width=".456"/><path d="M234.693 635.54c1.677-.276 3.083.486 3.138 1.703.056 1.216-1.26 2.428-2.937 2.705-1.677.277-4.456-.355-5.448-1.32.746-1.21 3.57-2.81 5.247-3.087zM238.963 629.927c1.41 1.11 2.036 2.785 1.397 3.74-.639.954-2.302.827-3.712-.283-1.41-1.11-3.138-3.767-3.34-5.27 1.235-.318 4.244.702 5.655 1.813zM263.29 624.325c-1.101 1.524-1.318 3.339-.484 4.05.834.712 2.405.053 3.507-1.471 1.101-1.524 2.152-4.638 2.002-6.15-1.262.093-3.923 2.048-5.025 3.571z" fill="green" stroke="#000" stroke-width=".425"/><path d="M272.514 631.31c-1.569-1.467-3.297-1.53-3.857-.139-.56 1.39.26 3.71 1.829 5.176 1.57 1.467 4.622 2.617 6.019 2.159-.249-1.928-2.422-5.73-3.99-7.197z" fill="green" stroke="#000" stroke-width=".514"/><path d="M269.066 626.25c-2.039.406-3.4 1.673-3.038 2.828.362 1.154 2.31 1.763 4.35 1.357 2.038-.405 5.036-2.093 5.847-3.385-1.288-.83-5.12-1.205-7.159-.8z" fill="green" stroke="#000" stroke-width=".469"/><path d="M265.524 632.073c-.175-2.355.51-4.29 1.53-4.317 1.019-.028 1.987 1.86 2.162 4.215.174 2.355-.449 6.215-1.29 7.562-.985-1.093-2.228-5.105-2.402-7.46z" fill="green" stroke="#000" stroke-width=".46"/><path d="M263.372 610.883c.138 2.259-.595 4.164-1.635 4.253-1.04.089-1.996-1.672-2.133-3.931-.137-2.259.565-6.016 1.446-7.365.987.993 2.185 4.784 2.322 7.043z" fill="green" stroke="#000" stroke-width=".456"/><path d="M264.402 617.914c-1.747 1.23-3.596 1.37-4.127.31-.53-1.059.456-2.917 2.203-4.147 1.747-1.23 5.064-2.29 6.533-2.006-.358 1.523-2.862 4.613-4.61 5.843z" fill="green" stroke="#000" stroke-width=".469"/><path d="M261.52 615.07c1.174 1.844 1.384 3.808.47 4.383-.914.576-2.609-.454-3.782-2.298-1.174-1.844-2.27-5.36-2.087-6.925 1.367.366 4.226 2.996 5.4 4.84zM255.659 619.935c.137 2.259-.596 4.164-1.636 4.253-1.04.089-1.995-1.673-2.133-3.931-.137-2.26.566-6.016 1.447-7.366.986.994 2.184 4.785 2.322 7.044z" fill="green" stroke="#000" stroke-width=".456"/><path d="M253.643 632.536c-.903 1.493-2.209 2.242-2.914 1.673-.705-.57-.544-2.243.36-3.736.902-1.493 3-3.416 4.157-3.729.196 1.213-.7 4.3-1.603 5.792z" fill="green" stroke="#000" stroke-width=".371"/><path d="M247.612 619.813c.137 2.258-.596 4.164-1.636 4.253-1.04.088-1.995-1.673-2.133-3.932-.137-2.259.566-6.015 1.447-7.365.986.994 2.184 4.785 2.322 7.044z" fill="green" stroke="#000" stroke-width=".456"/><path d="M240.803 624.96c.974.685 1.385 1.924.917 2.765-.468.842-1.638.969-2.612.284-.974-.685-2.143-2.55-2.259-3.71.877-.42 2.98-.025 3.954.66z" fill="green" stroke="#000" stroke-width=".317"/><path d="M238.05 637.935c1.034-1.069 2.348-1.248 2.934-.401.585.847.221 2.401-.812 3.47-1.034 1.067-3.238 2.052-4.357 1.872-.028-1.258 1.202-3.873 2.236-4.941z" fill="green" stroke="#000" stroke-width=".363"/><path d="M248.02 625.039c-.975.685-1.385 1.924-.917 2.766.468.841 1.638.968 2.612.283.974-.685 2.142-2.55 2.258-3.71-.877-.42-2.98-.024-3.954.66z" fill="green" stroke="#000" stroke-width=".317"/><path d="M453.06 620.712c0 2.806-2.112 5.08-4.717 5.08-2.606 0-4.718-2.274-4.718-5.08s2.112-5.08 4.718-5.08c2.605 0 4.717 2.274 4.717 5.08z" transform="matrix(.8041 0 0 .9531 69.858 23.765)" fill="#e6e6e6" stroke="#000" stroke-width=".2"/><path d="M431.942 619.153s-2.992-4.525-4.126-4.036c-1.135.49-1.96-3.424-1.96-3.424h2.785v-7.092l2.166 2.69 2.683-4.157 1.65 5.258 3.714-.612-3.198 5.748 1.548 2.812-4.024.734-1.238 2.079z" fill="#40823a" fill-rule="evenodd" stroke="#000" stroke-width=".263"/><path d="M455.155 640.552s.722 11.372 2.372 8.682c1.651-2.69 2.683.244 3.611.978.929.734.826-5.136.826-5.136s1.65-1.59 1.857-.733c.206.856-2.064-10.028-8.666-3.791z" fill="#40823a" fill-rule="evenodd" stroke="#000" stroke-width=".175"/><path d="M447.497 643.006s.596 8.55 1.959 6.527c1.363-2.023 2.214.184 2.981.735.767.552.681-3.86.681-3.86s1.363-1.196 1.534-.552c.17.643-1.704-7.539-7.155-2.85z" fill="#40823a" fill-rule="evenodd" stroke="#000" stroke-width=".138"/><path d="M458.725 634.435s9.85 1.526 8.001-.863c-1.848-2.39.917-2.937 1.786-3.82.868-.884-4.145-1.972-4.145-1.972s-.914-2.164-.132-2.218c.781-.054-9.063.242-5.51 8.873z" fill="#40823a" fill-rule="evenodd" stroke="#000" stroke-width=".175"/><path d="M422.66 629.916s-7.007 4.289-4.804 4.996c2.203.706.648 2.612.46 3.722-.188 1.11 3.509-.848 3.509-.848s1.504 1.056 1.022 1.522c-.482.466 5.751-5.13-.187-9.392z" fill="#40823a" fill-rule="evenodd" stroke="#000" stroke-width=".146"/><path d="M452.159 626.081c4.023 1.516 7.569-7.04 4.765-7.168-2.805-.129-1.322-2.778-1.324-4.1-.003-1.323-4.06 2.045-4.06 2.045s-2.032-.74-1.547-1.42c.485-.68-1.857 9.128 2.166 10.643z" fill="#40823a" fill-rule="evenodd" stroke="#000" stroke-width=".175"/><path d="M426.645 619.861s-7.228 4.53-4.894 5.128c2.334.598.758 2.542.594 3.643-.164 1.1 3.659-.99 3.659-.99s1.61.972 1.118 1.453c-.492.48 5.884-5.302-.477-9.234z" fill="#40823a" fill-rule="evenodd" stroke="#000" stroke-width=".148"/><path d="M444.116 630.292s5.176-4.45 3.354-4.533c-1.822-.083-.763-1.758-.719-2.595.045-.837-2.715 1.29-2.715 1.29s-1.298-.47-.958-.9c.34-.429-4.096 4.814 1.038 6.738z" fill="#195845" fill-rule="evenodd" stroke="#000" stroke-width=".112"/><path d="M484.812 643.665c0 2.254-1.706 4.082-3.81 4.082s-3.81-1.828-3.81-4.082c0-2.255 1.706-4.083 3.81-4.083s3.81 1.828 3.81 4.083z" transform="matrix(.8041 0 0 .9531 70.242 21.386)" fill="#e6e6e6" stroke="#000" stroke-width=".2"/><path d="M360.475 637.58s16.34 4.842 13.423 10.376c-2.918 5.534-8.025 11.933-8.025 11.933s.438-5.016-3.064-6.745c-3.501-1.73-9.045-9.079-4.377-10.116 4.67-3.718 1.751-6.14 2.043-5.448z" fill="url(#V)" fill-rule="evenodd" stroke="#000" stroke-width=".875"/><path d="M435.037 636.125s-2.476 15.652-19.808 6.848c-17.332-8.805-49.52-26.902-52.82-16.141-3.302 10.76-5.778 18.097-5.778 18.097s6.602-9.293 21.871-2.445c15.269 6.847 42.505 20.543 42.505 20.543s12.38 2.446 12.792-10.272c.413-12.717.413-16.141 1.238-16.63z" fill="url(#W)" fill-rule="evenodd" stroke="#000" stroke-width=".875"/><path d="M422.172 651.278c-2.156 2.73 2.784 10.239 7.058-1.024 9.026-11.126-5.753-1.784-7.058 1.024z" fill="#c8bcca" fill-rule="evenodd" stroke="#000" stroke-width="1.015"/><path d="M422.912 638.42l-1.167 12.969s9.483-4.323 10.942 6.226c.73-1.21 7.295-13.662 7.295-13.662s-3.94-15.045-17.07-5.534z" fill="url(#X)" fill-rule="evenodd" stroke="#000" stroke-width=".438"/><path d="M255.528 636.027s2.476 15.653 19.808 6.848c17.332-8.804 49.52-26.902 52.821-16.141 3.301 10.76 5.777 18.098 5.777 18.098s-6.602-9.294-21.87-2.446c-15.27 6.848-42.505 20.543-42.505 20.543s-12.38 2.446-12.793-10.271c-.413-12.718-.413-16.141-1.238-16.63z" fill="url(#Y)" fill-rule="evenodd" stroke="#000" stroke-width=".875"/><path d="M267.258 652.326c1.841 2.748-2.375 10.311-6.022-1.031-7.704-11.206 4.909-1.798 6.022 1.03z" fill="#c8bcca" fill-rule="evenodd" stroke="#000" stroke-width=".941"/><path d="M267.606 638.033l.342 16.15s-9.69-7.503-11.149 3.045c-.73-1.21-4.406-12.928-4.406-12.928s-.6-15.778 15.213-6.267z" fill="url(#Z)" fill-rule="evenodd" stroke="#000" stroke-width=".438"/><path style="text-align:start;line-height:125%;-inkscape-font-specification:Century Schoolbook L" d="M287.48 645.237l1.11 2.884.143.373c.208.541.126.654-.838 1.088l-.214.097.233.605 3.9-1.76-.232-.604-.214.096c-.963.435-1.095.419-1.303-.122l-.144-.374-2.358-6.128-.143-.374c-.208-.54-.126-.653.837-1.088l.214-.096-.232-.605-3.854 1.737.233.605.167-.075c.963-.434 1.095-.418 1.303.123l.143.373.981 2.55-3.984 1.796-.98-2.55-.144-.373c-.208-.54-.126-.653.837-1.088l.226-.101-.233-.606-3.913 1.765.233.605.214-.097c.964-.434 1.096-.418 1.304.123l.143.373 2.358 6.13.144.372c.208.541.125.654-.838 1.088l-.214.097.233.605 3.913-1.764-.233-.606-.226.102c-.963.435-1.095.419-1.303-.122l-.144-.374-1.11-2.884 3.985-1.796m15.993-6.729l.706-.266c.475-.18 1.012-.205 1.356-.069.45.17.785.576 1.15 1.413l.277.648c.626 1.434 1.27 1.87 2.232 1.507 1.093-.65.82-1.555.152-1.18-.28.106-.473-.072-.973-.903l-.462-.756c-.657-1.111-1.31-1.485-2.344-1.39 1.667-.925 2.261-2.006 1.833-3.336-.484-1.501-1.927-1.917-3.97-1.146l-4.21 1.588.2.62.218-.083c.985-.372 1.116-.347 1.294.206l.123.382 2.023 6.282.454 1.714 2.74-1.117-.2-.619-.219.083c-.985.372-1.116.347-1.294-.206l-.119-.369-.967-3.003m-.199-.619l-.933-2.897c-.17-.527-.17-.571-.082-.723.072-.115.153-.16.676-.358l.657-.248c1.204-.454 1.93-.108 2.316 1.09.216.672.223 1.246-.004 1.642-.215.391-.708.769-1.292.99l-1.338.504" font-size="13.777" font-weight="400" fill="maroon" font-family="Century Schoolbook L"/><path d="M336.328 645.318l1.666-.145 4.41 7.98.056-8.334 1.458.018.001 10.868-1.665-.008-4.78-8.072.284 8.234-1.24-.01-.19-10.532m12.924 3.09l-1.105 3.355 1.908-.04m-1.117-7.041l.795.033 2.742 11.088-1.351.023-.695-2.818-2.675-.098-.819 2.875-1.51.022 3.649-11.125" font-size="15.639" font-weight="400" fill="maroon" font-family="Bitstream Vera Sans"/><path style="-inkscape-font-specification:Century Schoolbook L" d="M383.895 630.681l-4.451-1.476-.143.627.214.069c.912.29.998.39.871.95l-.088.387-1.159 5.11c-.411 1.815-.724 2.13-1.817 1.839l-.142.627 3.208 1.022.142-.627c-1.057-.394-1.195-.853-.783-2.667l1.338-5.898.688 9.634.45.143 6.05-7.43-1.62 7.14-.088.386c-.13.574-.243.595-1.155.304l-.203-.064-.142.627 3.692 1.177.143-.628-.203-.064c-.912-.29-1.001-.376-.87-.95l.087-.387 1.44-6.351.088-.387c.127-.56.244-.595 1.156-.305l.202.065.143-.627-2.826-.9-5.22 5.905-.549-7.801m23.768 12.77l.325-.752c-.113.12-1.268-.504-1.354-.65l-.143.752-1.591 4.03c-.435 1.1-.664 1.584-.918 1.9-.483.602-.96.524-1.573.184-.443-.246-.565-.595-.653-1.056-.545-2.498-2.145-.412-.923.844.205.557.787.763 1.43 1.12.93.515 1.749.527 2.395.031.472-.348.89-1.047 1.37-2.261l1.635-4.142m6.945 2.007l-.434-.268-5.52 5.671c-.488.51-1.26 1.434-1.501 1.534l1.038.57 1.644-1.53 2.841 1.572-.061 1.13c-.019.223-.036.321-.063.382l-.083 1.202 1.505.864.634-11.127m-1.39 1.696l-.364 4.201-1.877-1.004 2.679-2.769" font-size="14.497" font-weight="400" fill="maroon" font-family="Century Schoolbook L"/><path d="M288.232 515.397l8.098 6.847M286.787 517.781l9.182 6.97M285.034 519.86l9.49 6.848" fill="#ff6804" fill-rule="evenodd" stroke="#2b1100" stroke-width=".613"/><path d="M286.172 434.003s-2.903-6.88-5.971-5.142c-1.824 1.537-4.871 2.949-5.033.176-.291-5.015-2.356-4.118-1.543 4.706.208 2.257 2.772 6.053 2.772 6.053s3.866 1.816 4.377.778c.51-1.037-.405-2.622-.405-3.14 0-.52 1.715 1.29 2.542.627 1.193-.402 3.261-4.058 3.261-4.058z" opacity=".475" fill="url(#aa)" fill-rule="evenodd"/><path d="M285.266 435.271l-1.11-2.438s-4.77 2.591-5.596 3.63c-.825 1.04-1.806.062-1.806.062s.052 3.424.284 3.424c.232 0 3.815.802 3.815.802s-.978-2.728-.797-2.728c.18 0 2.374.567 2.838.108.464-.458 2.083-2.406 2.372-2.86z" opacity=".557" fill="#361e0f" fill-rule="evenodd"/><path d="M268.94 425.703s2.063 1.406 1.96 2.507c-.103 1.1-.62 5.991-.103 6.786.515.795 5.055 6.114 5.261 6.114.206 0-2.166-.978-3.353-1.039-1.186-.061-3.198 3.73-3.56 3.057-.36-.673 1.342-3.668 1.084-4.708s-.98-6.053-.567-6.848c.412-.794-.361-3.913-.98-3.79-.62.122-.103-2.08.258-2.08z" fill="#0f0804" fill-opacity=".309" fill-rule="evenodd"/><path d="M259.036 449.67s.225 11.4-7.016 14.43c-.877.366.27 3.588.62 5.135 3.187-2 11.554-6.603 6.396-19.565z" fill="#2e1a0c" fill-rule="evenodd"/><path d="M261.588 455.187s-.11 9.442-8.462 16.342c.146 12.019-6.784 20.06-6.274 20.925 1.022 0 3.867-.432 3.867-.432s4.522-17.64 3.72-19.542c.802-1.73 9.63-9.079 7.15-17.293z" fill="#2e1a0c" fill-rule="evenodd"/><path d="M264.115 457.694s-.09 7.924-6.854 13.715c.118 10.086-5.186 20.503-4.772 21.229.827 0 1.378-.975 1.378-.975s5.107-17.86 4.457-19.456c.65-1.451 7.8-7.62 5.79-14.513z" fill="#2e1a0c" fill-rule="evenodd"/><path d="M261.661 429.68l-3.21 7.09s-3.793 3.804-4.377 3.631c-.583-.173 7.733 1.384 7.587 2.594-.146 1.21 3.356-10.549 3.356-10.549s2.772-1.383 2.918 0c.146 1.384-.292 16.602-.876 16.602-.583 0-.437 3.804.146 4.842.584 1.038 1.313 4.323 1.313 4.323s-11.888-29.614-22.906-6.398c-3.94 8.3 3.356 16.774 3.356 16.774l-3.94 2.075-2.772 11.76s5.253-17.985-.875-29.053c-1.293-2.336 19.113-23.346 20.28-23.692z" fill="#502d15" fill-rule="evenodd"/><path d="M308.841 435.65s.949.647.657 1.685c-.292 1.038-9.94 42.952-10.983 44.581-2.232 3.485.447-2.994-.866-3.945-1.313-.951 11.192-42.408 11.192-42.321z" fill="#502d16" fill-rule="evenodd"/><path d="M316.92 420.644s-6.127 2.378-8.316 6.528" fill="none" stroke="#000" stroke-width=".438"/><path d="M455.056 475.922c0 7.014-4.305 12.7-9.616 12.7s-9.617-5.686-9.617-12.7c0-7.015 4.306-12.701 9.617-12.701 4.2 0 7.914 3.6 9.173 8.892" transform="matrix(1.49407 .88144 -.2457 .58509 -287.434 -166.715)" fill="url(#ab)" fill-rule="evenodd"/><path d="M277.163 512.011c-10.14.173-29.18-17.12-29.91-16.515 0 1.21.365 4.583.365 4.583 11.575 2.322 13.83 13.817 29.545 11.932z" fill="#2e1a0c" fill-rule="evenodd"/><path d="M397.712 521.507l10.578-4.583M398.004 524.62l10.213-4.324M400.557 526.435c8.535-3.2 7.514-2.94 7.514-2.94" fill="#502d15" fill-rule="evenodd" stroke="#502d15" stroke-width=".875"/><path d="M423.171 434.176s-5.398-19.369-4.523-19.023c.876.346 10.797 21.617 10.797 21.617l-6.274-2.594z" fill="#fce521" fill-rule="evenodd"/><path d="M455.056 475.922c0 7.014-4.305 12.7-9.616 12.7s-9.617-5.686-9.617-12.7c0-7.015 4.306-12.701 9.617-12.701 4.2 0 7.914 3.6 9.173 8.892" transform="matrix(1.11338 0 0 1.19778 -81.335 -139.947)" fill="url(#ac)" fill-rule="evenodd"/><path d="M414.192 426.22s-3.374-11.004-2.827-10.807c.548.196 6.748 13.49 6.748 13.49l-3.921-2.684z" opacity=".723" fill="#fce521" fill-rule="evenodd"/><path d="M394.348 635.273c-2.876 0-4.402 2.627-4.402 5.867s1.526 5.868 4.402 5.868c2.876 0 5.201-2.628 5.201-5.868s-2.325-5.867-5.201-5.867zm.058.944c1.644 0 4.172 1.278 4.094 5.088-.072 3.54-2.498 4.737-4.142 4.737-1.644 0-3.565-1.737-3.589-4.899-.028-3.703 1.993-4.926 3.637-4.926z" fill="maroon" fill-rule="evenodd"/><path d="M272.703 653.322l-2.052-5.677 1.509-.752 2.03 5.618c.321.888.732 1.47 1.232 1.748.498.272 1.086.239 1.764-.099.814-.406 1.36-.991 1.639-1.756.284-.767.26-1.608-.07-2.524l-1.923-5.316 1.509-.753 3.39 9.378-1.509.752-.52-1.44c-.16.752-.434 1.388-.82 1.91-.381.513-.892.93-1.532 1.248-1.054.526-1.976.59-2.765.193-.788-.397-1.416-1.24-1.882-2.53M291.422 644.569l-1.822-5.786 1.537-.666 1.803 5.726c.285.905.671 1.51 1.16 1.815.487.3 1.075.3 1.766.001.83-.36 1.399-.913 1.708-1.661.314-.75.324-1.592.03-2.525l-1.706-5.42 1.537-.665 3.01 9.558-1.538.666-.462-1.468c-.19.742-.488 1.363-.894 1.862-.403.49-.93.878-1.581 1.16-1.075.466-1.998.478-2.77.036-.772-.44-1.364-1.319-1.778-2.633M309.454 637.32l-1.782-5.804 1.542-.651 1.763 5.743c.279.908.661 1.516 1.148 1.827.485.304 1.073.31 1.766.018.832-.352 1.405-.9 1.719-1.645.32-.748.335-1.59.048-2.525l-1.669-5.435 1.542-.652 2.943 9.587-1.541.651-.452-1.472c-.196.74-.498 1.358-.908 1.853-.406.487-.935.869-1.588 1.145-1.078.455-2.002.459-2.77.01-.77-.449-1.356-1.332-1.76-2.65M367.07 631.45l1.181-6.014 1.591.453-1.17 5.952c-.184.94-.144 1.698.12 2.273.266.569.757.955 1.471 1.158.86.244 1.592.156 2.198-.265.612-.419 1.014-1.114 1.204-2.083l1.107-5.634 1.591.453-1.952 9.936-1.591-.453.3-1.526c-.505.494-1.043.815-1.614.965-.565.146-1.184.122-1.859-.07-1.112-.316-1.887-.91-2.325-1.784-.437-.874-.521-1.994-.253-3.36" font-size="40" font-weight="400" fill="maroon" font-family="Bitstream Vera Sans"/><path d="M387.075 446.84s-4.338-5.996-4.103-4.939c.235 1.058 7.962 41.025 8.915 42.73 2.039 3.648 1.934-1.402 1.588-3.18-.535-2.751-6.542-34.005-6.4-34.61z" fill="#502d16" fill-rule="evenodd"/><path d="M407.815 430.847s2.155-.455 3.283-2.421c.474-.822 1.386-.52 1.386-.52" fill="none" stroke="#2e1a0c" stroke-width=".7"/><path d="M407.998 430.976s-1.277-4.41 2.954-2.853" fill="none" stroke="#2e1a0c" stroke-width=".35"/><path d="M455.056 475.922c0 7.014-4.305 12.7-9.616 12.7s-9.617-5.686-9.617-12.7c0-7.015 4.306-12.701 9.617-12.701 4.2 0 7.914 3.6 9.173 8.892" transform="matrix(.83445 0 0 .96672 -120.542 -6.365)" fill="url(#ad)" fill-rule="evenodd"/><path d="M455.056 475.922c0 7.014-4.305 12.7-9.616 12.7s-9.617-5.686-9.617-12.7c0-7.015 4.306-12.701 9.617-12.701 4.2 0 7.914 3.6 9.173 8.892" transform="matrix(.56625 0 0 .73565 183.53 107.628)" fill="url(#ae)" fill-rule="evenodd"/><path d="M455.056 475.922c0 7.014-4.305 12.7-9.616 12.7s-9.617-5.686-9.617-12.7c0-7.015 4.306-12.701 9.617-12.701 4.2 0 7.914 3.6 9.173 8.892" transform="matrix(.3946 0 0 1.04374 264.632 -14.297)" fill="url(#af)" fill-rule="evenodd"/><path d="M446.376 478.983c-.216-7.213.485-15.074-.187-20.039-1.116-8.238-2.954-7.096-7.459-8.304 2.725 4.118 4.97 16.907.531 18.514 4.846 5.03 1.58 11.055 2.434 23.037.288 7.824 5.48 16.494 4.681-13.208z" fill="#2e1a0c" fill-rule="evenodd"/><path d="M292.22 554.356c-7.879 5.336-6.803 26.41-21.01 20.53-10.109-4.182-30.192-17.287-30.192-36.457s15.734-42.646 19.799-30.906c6.773 19.565 5.005 13.338 17.29 28.57" fill="url(#ag)" fill-rule="evenodd"/><path d="M409.246 557.033c4.952 4.536 2.208 18.387 9.078 15.408 3.657-25.95 32.394-34.145 37.759-53.315 5.092-18.195-18.18-17.608-28.886-17.608-8.631 0-20.455 35.985-23.043 50.728" fill="url(#ah)" fill-rule="evenodd"/><path d="M281.603 439.582s-.438.948-.748.917c-.31-.03-1.573-1.345-1.625-1.834-.051-.49-.464-1.957-.18-2.018.284-.061 3.972 1.192 3.92 1.62-.051.428-.98.55-.98.55l-1.676-.794s.722.764 1.29 1.559z" fill="#0f0804" fill-rule="evenodd"/><path d="M455.056 475.922c0 7.014-4.305 12.7-9.616 12.7s-9.617-5.686-9.617-12.7c0-7.015 4.306-12.701 9.617-12.701 4.2 0 7.914 3.6 9.173 8.892" transform="matrix(.97966 -.2088 .03653 .24077 -50.596 595.705)" fill="url(#ai)" fill-rule="evenodd"/><path d="M414.453 608.362s-3.57 2.009-3.518 2.681c.052.673-.774 3.964-.806 4.758-.151 3.699-5.223 5.035-9.195 5.28-.415.025-4.384-2.63-3.92-4.617 0 0-6.95-.4-4.447 2.412 2.501 2.813 6.206 4.617 6.206 4.617s8.566-1.08 9.65-.774c1.083.305 8.14 1.197 9.574-.12.814-1.744.226-4.259.226-4.259-1.96-3.301-2.84-8.876-2.84-8.876l-.93-1.102zm-.628 2.324c1.25.864.66 2.503-.288 2.751 0 1.719 1.174 3.474.288 3.474-.886 0-1.608-1.41-1.608-3.128 0-1.718.722-3.097 1.608-3.097zm-19.927 6.046c.443 0 .804.22.804.506 0 .287-.36.536-.804.536-.443 0-.804-.25-.804-.536 0-.286.361-.506.804-.506zm.855 1.221c.08-.017.183 0 .276 0 .373 0 .679.137.679.328 0 .19-.306.357-.679.357-.372 0-.678-.166-.678-.357 0-.144.16-.275.402-.328zm1.382 1.072c.342 0 .628.214.628.477 0 .262-.286.476-.628.476s-.628-.214-.628-.476c0-.263.286-.477.628-.477zm1.533 1.34c.342 0 .628.215.628.477 0 .263-.286.477-.628.477-.343 0-.629-.214-.629-.477 0-.262.286-.476.629-.476zm2.362.596c.342 0 .628.214.628.477 0 .262-.286.476-.628.476-.343 0-.603-.214-.603-.476 0-.263.26-.477.603-.477z" fill="#1f1207" fill-rule="evenodd"/><path d="M296.875 616.462c0 2.053-2.574 2.251-6.89 2.251-4.315 0-8.127-6.801-8.127-8.854 0-2.052 2.677 4.841 6.993 4.841 3.479 0 6.621-.931 7.664.647" fill="url(#aj)" fill-rule="evenodd"/><path id="ak" d="M42.457 248.871c0 .702-.528 1.27-1.179 1.27s-1.18-.568-1.18-1.27c0-.701.529-1.27 1.18-1.27.651 0 1.18.569 1.18 1.27z" transform="matrix(.8877 0 0 1.00011 208.54 379.096)" opacity=".679" fill="red" fill-opacity="1" fill-rule="evenodd" stroke="none"/><use xlink:href="#ak" transform="translate(4.51 3.63)" width="306.061" height="300.401"/><use xlink:href="#ak" transform="translate(1.289 6.533)" width="306.061" height="300.401"/><use xlink:href="#ak" transform="translate(-4.027 6.351)" width="306.061" height="300.401"/><use xlink:href="#ak" transform="translate(16.422 -7)" width="306.061" height="300.401"/><use xlink:href="#ak" transform="translate(18.238 1.73)" width="306.061" height="300.401"/><use xlink:href="#ak" transform="translate(15.359)" width="306.061" height="300.401"/><use xlink:href="#ak" transform="translate(15.55 3.244)" width="306.061" height="300.401"/><path d="M273.158 449.96c3.29 10.149-3.53 23.86-3.53 23.86" fill="none" stroke="#000" stroke-width=".26"/></g></svg>