<svg xmlns="http://www.w3.org/2000/svg" version="1.0" width="658.001" height="729.093"><path d="M329 1c109.391 0 218.61 18.6 328 54.695C657 311.46 659.121 582.599 329 728-1.209 582.599 1 311.46 1 55.695 110.303 19.6 219.696 1 329 1z" fill="#d0a650" fill-rule="evenodd" stroke="#034ea2" stroke-width="2"/><path d="M329 36.513c98.654 0 197.308 16.751 295.96 49.328 0 230.896 1.941 475.501-295.96 606.732C31.055 561.343 33.04 316.737 33.04 85.841 131.691 53.265 230.345 36.513 329 36.513" fill="#034ea2"/><path d="M334.397 189.913c4.176 4.874 6.972 9.744 6.972 15.668-3.507 1.733-8.351 2.441-11.147 5.574 17.41-2.443 20.878 17.746 40.376 10.085.708 2.796 3.504 5.236 6.971 4.18l2.088-5.56c7.643-2.087 5.555 10.438 13.94 7.997 4.18 3.486 1.383 9.396 4.18 13.59 0 4.865 2.089 9.041 4.174 13.216 2.09-2.424 3.468-5.91 8.351-4.865 3.468 3.821 6.265 7.308 6.97 11.482-1.415 8.016-3.503 14.97 4.848 19.144v2.441c5.592 2.442 18.12-2.441 18.12 7.308-.71 3.486 3.467.355 4.882 2.441 3.469-1.398 8.351-.688 12.526-.688 3.469 7.307-4.175 12.526-6.263 19.143 3.467 3.468 2.088 9.75 1.38 13.905l-2.089 1.045c5.555 1.043 12.526-.671 17.411 2.46l9.06 3.467c4.174-2.422 9.023-2.794 14.613-2.422 4.177 3.133-1.415 8.35 2.09 10.775 4.884 0 9.059.709 9.73 4.885l.708 1.379c3.468-6.264 13.235-2.09 17.411-6.599 6.97 0 8.35 7.643 11.817 11.82 1.417 10.81-11.817 15.695-7.642 26.469-2.796 5.218-8.351 9.395-12.526 14.278 1.379.708.67 2.424.67 3.467-4.175 2.462-.67 9.768-6.263 10.442-.671 4.546-9.022 2.795-6.263 7.677 5.59 7.308-2.76 11.82-2.76 18.455-3.504 3.84-10.475-3.505-10.475 3.84-4.177 1.043-8.351-3.84-11.11.336-1.416 4.884 2.759 6.599 2.087 11.483 6.936-.71 9.024 6.263 11.82 10.439l6.97 6.97c-6.97 5.556-16.03-.708-24.383 2.423-2.088-1.043 0-3.802-2.088-4.846-2.088-2.461-6.263-2.461-9.73-3.134.671 3.134-5.592 4.176-2.796 7.979 0 1.043 1.38 4.176-1.38 4.176-5.592 1.753-4.883-4.846-9.768-2.423-6.263 2.423-1.379 11.819-10.438 10.774 1.379 8.39-13.906 13.944-3.468 21.252 1.379 1.38.67 4.175.67 6.263-6.263 5.592-17.375 3.505-24.345 1.416-5.592-1.416-2.088-8.388-4.175-12.19-2.088-3.504-8.35-5.928-8.35-10.812-4.18-1.717-7.68-2.793-10.477-6.264-9.73 9.395-21.582 18.454-35.492 18.79-6.263 3.131-9.767 15.697-19.498 10.475-3.822 6.265-15.323 0-16.013 9.024-4.53 1.752-2.442 7.68-5.219 10.438-1.044 6.971 0 12.899 5.909 17.076 2.441 5.218-5.22 5.218-2.088 10.104.709 1.715 0 4.175-1.044 4.882-2.088 1.044-2.777 2.09-2.088 4.177-1.733 0-2.44 1.043-3.821 2.422-1.753 3.468-7.308 5.22-11.147 7.643-3.822 1.043-6.618-1.716-9.042-4.175-.709 3.84-3.839 5.928-7.66 5.928-5.575 0-4.53-4.884-8.706-6.971 1.733-6.264-3.84-9.024-2.088-14.616 4.528-3.467 12.172-5.927 10.084-13.233-4.865-5.892-3.131-14.616-7.996-21.587-3.132-2.759-8.351-6.934-6.618-13.57 4.53-5.219 0-11.483-2.441-17.038-1.044-4.547-3.822-8.722-3.822-13.943-7.66-4.51-8.015-16.367-18.808-17.41-7.66 0-9.041-9.731-16.702-9.06-.708-1.38-2.441-2.423-3.84-3.803-5.554 3.803-12.525-1.043-19.48.671-4.53-7.643 3.822-18.082-8.369-22.63V419c1.398.67 2.089-.71 2.442-1.417.69-5.22-8.706-5.89-4.865-11.819-2.088-1.751-4.53-2.46-3.132-5.927-5.237-10.775-20.896-9.73-24.382-20.542 2.796-2.422 2.796-4.884 3.84-6.97-2.442-4.177-3.13-8.689-2.442-13.2 2.443-.708 3.822-3.838 5.22-6.3-3.132-2.087-6.955-5.219-10.44-4.175-6.262-1.044-10.793-5.89-16.366-8.687-1.398-1.38-.689-3.84-.689-5.555 7.66-2.462-1.043-13.254 8.351-11.855 2.443-3.131 7.661-4.176 11.484-6.617 3.84-.69 6.97.708 10.792 1.752 3.132 4.157 8.706 2.424 11.836 5.909 3.132-.708 6.973-2.443 10.794-.708 0-5.91 2.778-9.396 6.971-13.572.69-2.424 4.512-4.175 7.643-5.555 5.929 1.38 12.882 1.38 17.076-2.796 2.778 1.751 5.22-1.734 8.351-1.734 3.82-.708 6.953.336 9.75 2.088.335-6.972 12.525-1.044 14.968-9.395 2.778-5.575-7.661-7.661-6.972-12.545-1.734-5.575 2.442-8.351 4.53-12.173 2.44-1.045 5.219-2.441 8.35-1.753 8.016-2.778 1.751-19.143 14.633-13.216 0 1.735-.708 3.822.336 4.176 4.53 0 5.224-5.224 8.37-6.97 1.379-4.865-1.751-10.793 2.424-14.616 2.088-.353 3.839-1.043 5.22-2.796 0-3.821-2.089-5.908-5.22-8.35-1.044 1.74-3.822.354-5.57 1.044 0-4.176-2.428-6.953-3.136-10.794-2.088-1.043-3.132-2.777-2.424-5.22 3.132-3.13 0-10.792 7.308-9.055 2.778-2.427 7.66-.693 10.44-4.87 7.307-4.175 17.055-4.175 22.629-11.836 2.441.354 5.22-2.088 7.66 0 .692 4.529 7.31 2.776 7.31 6.961" fill="#d0a650"/><path d="M388.296 95.522l-9.625-29.589-9.506 29.589H338.03l25.192 18.3-9.625 29.588 25.073-18.3 25.192 18.3-9.625-29.589 25.191-18.3zM486.211 112.752l-9.625-29.47-9.506 29.47h-31.134l25.192 18.3-9.625 29.588 25.073-18.3 25.192 18.3-9.625-29.588 25.191-18.3zM579.61 146.737l-9.506-29.47-9.625 29.47h-31.133l25.192 18.3-9.625 29.588 25.191-18.3 25.073 18.3-9.625-29.588 25.192-18.3zM288.836 95.522l-9.506-29.589-9.625 29.589h-31.133l25.191 18.3-9.625 29.588 25.192-18.3 25.073 18.3-9.625-29.589 25.191-18.3zM190.921 112.752l-9.506-29.47-9.625 29.47h-31.134l25.192 18.3-9.625 29.588 25.192-18.3 25.073 18.3-9.625-29.588 25.191-18.3zM97.522 146.737l-9.626-29.47-9.506 29.47H47.257l25.192 18.3-9.626 29.588 25.073-18.3 25.192 18.3-9.625-29.588 25.192-18.3z" fill="#fff"/></svg>