<svg xmlns="http://www.w3.org/2000/svg" xmlns:xlink="http://www.w3.org/1999/xlink" width="1191.19" height="1527.627" viewBox="0 0 315.169 404.185"><path style="marker:none" d="M157.489 353.752c-49.592-17.055-59.512-61.398-49.592-112.563 25.096-4.927 49.592-10.234 49.592-10.234s23.205 4.69 49.592 10.234c9.92 51.165 0 95.508-49.592 112.563z" class="st0" fill="#dcc050" paint-order="markers stroke fill"/><g transform="matrix(.01387 0 0 .01431 176.466 258.484)"><use height="100%" width="100%" transform="matrix(-1 0 0 1 -2735.475 0)" xlink:href="#a"/><g id="a"><path style="marker:none" d="M1727.51 1095.224c.054.718 3.776 13.149 4.223 17.847 1.475 15.479 4.452 45.811 4.776 46.545.313 3.575.764 6.76 1.447 8.972.773 2.502 1.805 3.88 2.57 5.41 0 0 19.132 38.238 28.616 58.823-10.024 6.57-19.695 10.325-14.443 12.079 2.135.71 5.169 2.23 7.994 2.18 4.227-.075 8.79-2.335 15.615-5.417 6.127-4.257 7.745-5.738 6.774-7.888.058-.175-1.556-2.201-1.49-2.395-12.035-19.386-13.58-44.676-27.275-61.76-1.432-2.135-1.158-3.57-.29-7.775 3.523-17.057 8.404-61.01 5.426-76.9z" transform="matrix(19.73494 1.79404 -1.85091 19.12855 -32247.935 -22099.283)" fill="maroon" stroke="#a38921" stroke-width="2.19" stroke-linecap="round" stroke-linejoin="round"/><path style="marker:none" d="M1728.216 949.65c-2.435.299-4.783 1.086-6.68 2.298-4.33 2.765-6.377 3.948-6.375 14.325.255 2.12-.594 4.73-.412 6.32.075.636.145 1.23.219 1.787 1.084 8.155 2.416 8.149 6.775 11.449 1.52 1.15 3.858.276 5.05-.109.192 1.695.39 4.193.4 5.262-4.173 4.682-10.788 4.297-15.045 11.03-6.609 10.665-12.57 26.61-14.611 32.092-1.908 5.117-11.165-7.483-18.084-11.192-8.535-4.227-8.095-9.45-9.547-10.55-3.41-1.636-3.818-2.1-8.568-2.887-3.189-.17-6.626-1.05-6.782 2.921-.204 5.418.837 6.93 2.854 9.278 2.025 2.348 7.11 2.465 10.164 3.574.763.35 4.16.872 6.816 5.834 3.196 5.969 13.698 16.4 18.207 19.187 1.903 1.177 3.044 1.635 3.672 1.85 1.087.372 1.86.012 3.526-.736 5.91-2.638 11.354-16.59 13.86-21.168.338-.386 4.44 20.198 5.97 22.152 2.79 5.506 5.094 13.901 6.83 24.334.698 4.2 1.283 8.43 2.118 13.272l-1.443 4.968c-9.105 17.688-21.95 46.453-22.449 57.618-.338 7.565.348 10.916.348 14.213 0 0 .618 1.993.615 5.416-.012 13.363 2.45 49.4 4.763 67.466 0 .207-2.29 2.948-2.284 3.17-9.804 3.64-18.524 5.13-14.199 8.01.834 1.476 2.577 2.136 5.458 1.943 4.595-.309 10.697-.017 19.044-1.34 7.21-1.709 7.763-4.258 6.096-7.728.013-.825-1.576-18.1-1.672-19.064-1.696-16.89 4.086-32.64-.282-53.585-.524-2.515-.321-4.979-.547-7.197 6.744-3.934 19.966-28.42 29.108-42.307 2.219-3.37 8.41-8.706 9.842-11.97 4.638-10.574 2.488-15.481 1.048-22.15-.349-1.768-1.337-6.564-1.785-8.087-3.365-8.032-3.803-42.33-8.4-54.93.724.864 14.99 25.913 15.09 26.208 3.806 11.184 12.755 26.583 12.954 34.66.145 5.858-.87 9.154 1.077 11.62 2.424 3.062 4.908 9.109 8.138 8.318 2.01-.486 5.65-3.344 3.728-5.058-2.44-4.422-2.318-7.109-3.23-13.993-5.46-9.837-7.066-29.504-13.149-43.553-1.641-3.79-5.69-7.492-6.677-11.142-1.511-5.588-3.826-15.242-6.69-20.204-3.464-6.002-2.36-5.844-8.484-14.085-1.576-1.975-9.019-5.72-12.697-6.551v-.008l-2.178-.684-1.952-9.856-.011.007v-.128c3.12-2.832 4.74-5.083 5.35-8.663 1.068-6.285 1.085-14.676-3.662-18.812-2.858-2.49-7.157-3.345-11.216-2.846z" transform="matrix(19.73494 1.79404 -1.85091 19.12855 -32247.935 -22099.283)" fill="maroon" stroke="#a38921" stroke-width="2.19" stroke-linecap="round" stroke-linejoin="round"/><path d="M-2035.612 5773.312c37.93-23.119 244.806-129.901 251.945-121.775 26.096 28.168 76.134 214.08 66.07 208.472l-242.458 104.127c-43.67-62.29-56.659-119.928-75.557-190.824zM-3563.22 5702.863c43.837 14.71 49.117 17.499 85.557 56.942l-109.865 165.527c-30.103-18.407-41.799-13.475-70.285-86.163zM-2655.448 8474.116l8.828 111.948c-114.742 16.215-249.001 16.488-352.68 8.177-14.851-51.972-18.93-74.898-8.772-121.055 77.864-.153 352.624.93 352.624.93zM-2562.321 6893.2l644.152-171.732c32.158 59.476 25.776 31.07 32.341 117.151l-654.038 170.179c-23.009-61.85-13.965-21.524-22.455-115.598zM-2370.182 8468.576l390.291-45.406c-10.481 62.098-9.279 102.852 9.825 135.113l-345.74 63.477c-48.556-68.327-48.31-86.21-54.375-153.184zM-2855.791 5590.327c-5.2 134.921 19.33 160.912 26.807 257.518l-249.965-117.588c16.865-87.565 37.784-100.672 93.462-173.342z" style="isolation:auto;mix-blend-mode:normal;solid-color:#000;solid-opacity:1;marker:none" color="#000" overflow="visible" fill="#e6e6e6" stroke="#666" stroke-width="35.479" stroke-miterlimit="8" paint-order="markers stroke fill" transform="matrix(.99563 .09051 -.09634 .99563 3046.017 -4917.798)"/><path style="isolation:auto;mix-blend-mode:normal;solid-color:#000;solid-opacity:1;marker:none" d="M-3776.43 5531.002s-120.318-40.526-179.143-27.087c-28.215 6.445-70.896 48.817-70.896 48.817l-38.737 83.362 98.147 132.915s58.096-20.448 88.316-26.096c40.601-7.59 123.599-10.219 123.599-10.219z" color="#000" overflow="visible" fill="maroon" stroke-width="60.03" stroke-miterlimit="8" paint-order="markers stroke fill" transform="matrix(.99563 .09051 -.09634 .99563 3046.017 -4917.798)"/></g></g><path style="marker:none" d="M1560.002-.204S813.044 148.026 101.712 291.49C-30.465 952.28-42.86 1573.154 118.792 2099.839c73.33 262.559 262.51 615.569 516.531 852.705 342.341 319.584 759.089 486.749 759.089 486.749s116.191 44.72 165.575 60.49c69.043-23.253 143.618-51.105 203.756-76.03 61.022-25.379 119.706-52.295 176.11-80.7 585.107-294.653 924.504-749.098 1078.772-1302.73 143.138-513.69 126.896-1112.772-.334-1748.834C2306.96 148.025 1559.987-.204 1559.987-.204zm0 128.054c5.166 1.254 77.985 18.84 192.669 45.851 208.442 51.683 561.676 135.788 913.212 203.04 69.994 14.361 138.754 28.057 205.053 40.769 76.634 346.837 117.941 690.397 100.87 1021.513-30.64 345.621-121.82 690.003-280.272 988.845-27.384 51.646-57.704 102.015-90.598 151.002-245.332 342.536-628.62 639.366-1040.95 776.82-412.342-137.458-795.633-434.299-1040.964-776.85-213.39-334.488-338.313-798.84-370.84-1139.817-17.071-331.116 24.237-674.676 100.87-1021.513 66.3-12.712 135.06-26.408 205.053-40.77 351.537-67.251 704.77-151.356 913.213-203.039 114.694-27.014 187.53-44.6 192.684-45.851z" fill="maroon" stroke="#a00" stroke-width="15.541" transform="matrix(.034 0 0 .03508 104.438 230.955)"/><g stroke-linecap="round" stroke-linejoin="round"><path d="M315.979-1270.76s8.102 295.707 97.894 399.676c233.595 272.078 995.14 408.454 995.14 408.454s-425.331-434.108-675.13-602.89c-128.95-86.417-417.904-205.24-417.904-205.24zM2616.145-1253.882s13.503 282.204-67.513 382.798C2323.139-591.58 1552.816-462.63 1552.816-462.63s425.332-434.784 675.805-602.89c118.822-79.666 387.524-188.362 387.524-188.362zM1898.482-1257.933s93.843 147.179 79.666 225.494c-43.21 234.945-463.814 545.504-463.814 545.504s37.807-432.083 154.604-604.24c53.336-77.64 229.544-166.758 229.544-166.758zM1055.92-1257.933s-94.517 147.179-79.664 225.494c42.533 234.945 463.138 545.504 463.138 545.504s-37.807-432.083-154.604-604.24c-52.66-77.64-228.87-166.758-228.87-166.758z" fill="#d3ae02" stroke="#993d00" stroke-width="23.63" stroke-miterlimit="8" transform="matrix(.03106 0 0 .0408 111.923 238.139)"/><path d="M921.57-821.8l-997.166-451.66C162.724-808.973 562.93-613.127 1451.4-432.192zM2006.503-821.8l1003.242-451.66C2772.1-808.973 2383.9-615.886 1495.43-434.95z" fill="#006636" stroke="#003500" stroke-width="23.63" transform="matrix(.03106 0 0 .0408 111.923 238.139)"/><path d="M1615.603-781.291l630.999-487.386c73.285 283.502-6.788 367.035-110.068 504.885-149.343 199.333-452.594 266.585-655.942 357.873z" fill="#006636" stroke="#003500" stroke-width="20.929" transform="matrix(.03106 0 0 .0408 111.923 238.139)"/><path d="M1351.016-781.291l-630.999-487.386c-73.285 283.502 6.788 367.035 110.068 504.885 149.343 199.333 452.594 266.585 655.942 357.873z" fill="#006636" stroke="#003500" stroke-width="20.929" transform="matrix(.03106 0 0 .0408 111.923 238.139)"/><path d="M1481.252-1272.11s-277.478 219.417-286.93 372.671c-11.477 182.96 284.23 479.342 284.23 479.342s295.03-296.382 284.229-479.342c-8.776-152.58-281.53-372.671-281.53-372.671z" fill="#006636" stroke="#003500" stroke-width="25.655" transform="matrix(.03106 0 0 .0408 111.923 238.139)"/></g><g stroke-width="3.136"><path d="M117.11 69.25l22.115-8.004 3.279-8.537-67.336.534z" style="marker:none" fill="#d3ae02" fill-rule="evenodd"/><path d="M127.557 64.067l14.947-11.358-67.336.534z" style="marker:none" fill="#e65c00" fill-rule="evenodd"/><path class="BoundingBox" fill="none" d="M125.498 11.471h44.535V62.39h-44.535z"/><path d="M134.344 62.313l27.758-2.134 7.855-3.43-44.459-45.278z" style="marker:none" fill="#d3ae02" fill-rule="evenodd"/><path class="BoundingBox" fill="none" d="M125.498 11.395h44.535v48.784h-44.535z"/><path d="M150.892 60.103l19.065-3.354-44.459-45.278z" style="marker:none" fill="#e65c00" fill-rule="evenodd"/><path class="BoundingBox" fill="none" d="M94.004 25.115h67.946v40.019H94.004z"/><path d="M126.719 65.057l30.96-6.631 4.118-3.43-67.793-29.88z" style="marker:none" fill="#d3ae02" fill-rule="evenodd"/><path class="BoundingBox" fill="none" d="M94.004 25.115h67.793V61.4H94.004z"/><path d="M142.81 61.322l18.911-5.64-67.717-30.567zM197.639 69.25l-22.115-8.004-3.28-8.537 67.565.534z" style="marker:none" fill="#e65c00" fill-rule="evenodd"/><path d="M187.191 64.067l-14.946-11.358 67.564.534z" style="marker:none" fill="#d3ae02" fill-rule="evenodd"/><path class="BoundingBox" fill="none" d="M144.868 11.471h44.459V62.39h-44.459z"/><path d="M180.48 62.313l-27.834-2.134-7.778-3.43L189.25 11.47z" style="marker:none" fill="#e65c00" fill-rule="evenodd"/><path class="BoundingBox" fill="none" d="M144.868 11.395h44.459v48.784h-44.459z"/><path d="M163.856 60.103l-18.988-3.354L189.25 11.47z" style="marker:none" fill="#d3ae02" fill-rule="evenodd"/><path class="BoundingBox" fill="none" d="M153.028 25.115h67.793v40.019h-67.793z"/><path d="M187.954 65.057l-30.885-6.631-4.041-3.43 67.717-29.88z" style="marker:none" fill="#e65c00" fill-rule="evenodd"/><path class="BoundingBox" fill="none" d="M153.028 25.115h67.793V61.4h-67.793z"/><path d="M172.016 61.322l-18.912-5.64 67.64-30.567z" style="marker:none" fill="#d3ae02" fill-rule="evenodd"/><path class="BoundingBox" fill="none" d="M139.759 3.544h35.307v56.483H139.76z"/><path d="M174.99 59.493l-6.406-1.22-6.71-.686h-5.872l-6.559.381-9.684 1.982L157.45 3.544z" style="marker:none" fill="#e65c00" fill-rule="evenodd"/><path class="BoundingBox" fill="none" d="M139.759 3.544h17.844v56.483H139.76z"/><path d="M157.374 57.511l-8.998.61-8.617 1.753 17.768-56.33z" style="marker:none" fill="#d3ae02" fill-rule="evenodd"/><path class="BoundingBox" fill="none" d="M110.17 56.52h94.79v17.456h-94.79z"/><path d="M110.17 73.9c11.82-14.483 29.131-17.38 47.28-17.38 18.15 0 36.376 4.269 47.433 17.38-14.718-7.775-29.817-12.12-47.432-12.12-17.616 0-32.639 4.345-47.28 12.12z" style="marker:none" fill="#e65c00" fill-rule="evenodd"/><path class="BoundingBox" fill="none" d="M110.4 56.52h94.788v17.456H110.4z"/></g><g transform="matrix(.03346 0 0 .03244 105.222 238.186)"><g fill-rule="evenodd" stroke-width="24.075" stroke-linecap="round" stroke-miterlimit="8" paint-order="markers stroke fill" id="b" opacity="1" stroke="#000"><path style="marker:none" d="M22237.437 4684.36c667.138-1080.813 776.454-2566.085 322.13-3833.41-114.776-320.417-190.637-475.125-286.886-712.245-53.471-131.732-161.447-394.702-161.447-394.702s192.49 219.48 273.833 342.096c264.916 399.333 490.136 717.028 690.995 1271.781 408.891 1150.157 413.971 2352.474 9.862 3385.463-88.474 200.859-853.27 10.36-848.487-58.984z" fill="#e6cf73" stroke="#6c5d53" transform="matrix(.97113 -.0372 .02887 .91968 -17996.188 -681.51)"/><path style="marker:none" d="M22433.585 4741.66c830.478-1274.665 1136.366-2535.323 766.784-4029.721-88.222-363.439-159.09-597.338-255.434-889.942-47.79-145.142-159.788-428.66-159.788-428.66s201.586 242.085 279.089 380.811c270.055 483.387 489.244 925.76 634.687 1549.823 204.522 1390.987 1.185 2505.547-531.08 3511.715-40.577 102.829-896.53 116.43-734.258-94.026z" fill="#e6c74d" stroke="#917c6f" transform="matrix(.97113 -.0372 .02887 .91968 -17996.188 -681.51)"/></g><use xlink:href="#b" transform="matrix(-1 0 0 1 3120.471 0)" width="100%" height="100%"/><path style="marker:none" d="M-732.047 5043.579c554.753 815.391 1499.034 1341.45 2500.937 1341.45 1001.904 0 1937.822-526.059 2490.184-1336.668l9.565-14.347 21.52 9.565c153.036 64.562 351.503 100.43 564.318 100.43 164.992 0 325.2-21.521 459.106-62.171-662.356 1362.97-2026.295 2290.748-3544.693 2290.748-1518.398 0-2890.699-932.56-3550.664-2297.922 133.906 40.65 294.115 62.17 459.106 62.17 212.815 0 411.283-35.867 564.318-98.038l16.738-7.173z" fill="#006636" fill-rule="evenodd" stroke="#003500" stroke-width="29.24" stroke-linecap="round" stroke-linejoin="round" transform="matrix(.89902 0 0 1 -29.245 -2378.695)"/><path class="BoundingBox" fill="none" d="M-891.806 3183.77h339.657v351.502h-339.657z"/><path d="M-891.806 3485.058l40.845 47.823 42.994-40.65-42.994-52.606zm75.24-64.562l30.096 35.868 232.17-222.38-38.695-50.215z" fill="#e6e6e6" fill-rule="evenodd"/><path class="BoundingBox" fill="none" d="M-726.278 3358.325h421.345v485.41h-421.345z"/><path d="M-726.278 3685.917l38.695 40.65 137.583-162.6v2.39l-70.94 227.163 45.143 47.823 70.94-248.682 197.776-81.3-42.995-43.041-187.026 83.69-2.15-2.39 124.684-148.253-40.845-43.042z" fill="#e6e6e6" fill-rule="evenodd"/><path class="BoundingBox" fill="none" d="M-453.263 3595.052H-89.96v461.497h-363.303z"/><path d="M-453.262 3953.729l118.234 100.43 27.947-43.042-75.241-62.17 81.69-119.56 70.94 59.78 30.097-40.65-73.09-59.78 77.389-114.776 75.24 66.953 27.947-43.041-122.535-102.82z" fill="#e6e6e6" fill-rule="evenodd"/><path class="BoundingBox" fill="none" d="M-10.42 3889.167h322.46v475.844H-10.42z"/><path d="M-10.42 4283.711l131.133 78.91 21.498-45.433-83.84-50.215 64.492-133.906 79.54 47.824 21.497-45.433-79.54-47.823 58.043-124.342 83.839 52.606 23.647-47.823-133.283-78.909z" fill="#e6e6e6" fill-rule="evenodd"/><path class="BoundingBox" fill="none" d="M269.043 4018.29h217.122v447.15H269.043z"/><path d="M393.728 4085.243l64.492 28.695 23.647-69.345-60.193-26.302zm-124.684 351.504l60.192 26.303 25.797-66.953-60.192-28.695z" fill="#e6e6e6" fill-rule="evenodd"/><path class="BoundingBox" fill="none" d="M643.096 4183.282h268.716v418.456H643.096z"/><path d="M643.096 4587.39l42.994 11.957 223.571-401.718-45.143-14.347z" fill="#e6e6e6" fill-rule="evenodd"/><path class="BoundingBox" fill="none" d="M950.505 4223.932h283.763v478.236H950.505z"/><path d="M950.506 4663.909l53.743 7.173 79.54-150.644 32.245 172.165 60.193 7.173-53.743-236.726 107.486-205.642-55.893-7.173-73.09 145.862-30.096-162.6-58.043-9.565 51.593 224.77z" fill="#e6e6e6" fill-rule="evenodd"/><path class="BoundingBox" fill="none" d="M1333.157 4274.146h238.62v451.933h-238.62z"/><path d="M1455.691 4338.708h2.15l30.096 215.206h-70.941zm-122.535 380.198h55.894l19.347-112.386 85.99 2.391 17.197 112.386 58.042 2.391-77.39-447.15-64.492-2.391z" fill="#e6e6e6" fill-rule="evenodd"/><path class="BoundingBox" fill="none" d="M1698.61 4259.8h212.823v459.105H1698.61z"/><path d="M1756.653 4314.797l27.946-2.392c32.245-2.39 36.545 2.392 42.994 69.345 4.3 66.953-2.15 76.517-45.144 81.3l-12.898 2.39zm-23.647 399.326l55.892-7.173-15.048-191.294 17.197-2.392c36.546-2.39 45.145 7.174 47.294 50.215l8.6 98.038c0 19.13 2.15 28.695 10.748 40.65l51.593-4.782c-4.299-19.13-6.448-40.65-6.448-57.388l-8.6-95.647c-2.149-40.65-17.198-62.17-58.042-62.17v-2.392c47.294-19.13 51.593-45.433 47.294-107.603-8.6-95.647-17.198-119.559-101.037-112.386l-83.839 9.565z" fill="#e6e6e6" fill-rule="evenodd"/><path class="BoundingBox" fill="none" d="M2010.32 4204.802h257.966v463.89H2010.32z"/><path d="M2072.662 4269.364l27.946-7.173c34.396-7.174 38.695-2.391 51.593 62.17 12.898 64.562 8.6 74.127-34.396 86.083l-15.048 2.39zm21.496 396.936l53.744-11.956-34.396-188.903 17.198-4.782c36.545-7.174 45.144 2.39 51.594 43.04l19.347 98.039c4.3 16.738 6.45 26.303 15.048 35.868l49.444-11.956c-6.45-16.738-10.749-38.26-12.898-52.606l-19.348-95.647c-6.45-40.65-23.647-62.17-60.193-57.388 40.845-26.304 42.995-52.607 32.247-112.386-19.348-93.256-32.247-114.776-109.636-95.647l-85.99 19.13z" fill="#e6e6e6" fill-rule="evenodd"/><path class="BoundingBox" fill="none" d="M2384.37 4099.591h268.716v480.627h-268.715z"/><path d="M2429.515 4173.717h2.15l92.438 193.686-66.642 23.911zm-4.299 404.11l51.593-19.13-12.898-114.777 81.69-28.694 47.294 100.43 55.892-19.13-204.224-396.935-60.192 23.911z" fill="#e6e6e6" fill-rule="evenodd"/><path class="BoundingBox" fill="none" d="M2898.156 3838.952h139.732v487.8h-139.732z"/><path d="M2994.893 4324.361l40.844-23.911-92.438-461.498-42.994 26.303z" fill="#e6e6e6" fill-rule="evenodd"/><path class="BoundingBox" fill="none" d="M3119.577 3678.743h176.278v480.627h-176.278z"/><path d="M3255.009 4156.979l38.695-31.085-135.433-447.15-38.695 28.693z" fill="#e6e6e6" fill-rule="evenodd"/><path class="BoundingBox" fill="none" d="M3255.01 3461.146h417.046v485.41H3255.01z"/><path d="M3512.976 3944.164l42.994-38.259-128.983-169.773v-2.392l195.625 107.603 47.294-43.04-210.674-109.995-49.443-227.162-42.994 38.259 49.443 219.988-118.235-155.426-42.994 40.65z" fill="#e6e6e6" fill-rule="evenodd"/><path class="BoundingBox" fill="none" d="M3493.628 3241.157h399.848v430.412h-399.848z"/><path d="M3785.99 3669.179l105.337-124.342-34.396-33.476-66.64 76.518-98.888-102.821 60.192-74.127-34.395-35.867-60.193 74.126-90.288-95.647 64.492-76.518-34.396-35.867-103.187 121.95z" fill="#e6e6e6" fill-rule="evenodd"/></g><g color="#000" paint-order="markers stroke fill"><path style="isolation:auto;mix-blend-mode:normal;solid-color:#000;solid-opacity:1;marker:none" d="M109.614 182.404c-3.15-.64-4.574-1.763-5.448-4.296-.352-1.02-.742-1.357-1.97-1.71-.843-.24-1.703-.634-1.911-.874-.208-.24-.64-1.742-.96-3.338-.319-1.597-.67-2.989-.78-3.094-.11-.105-1.611.338-3.337.984-3.795 1.42-5.949 1.51-7.792.325-1.182-.76-1.333-1.052-1.439-2.787l-.117-1.938-1.438-.002c-3.628-.006-6.07-1.673-6.537-4.463-.282-1.686-.7-1.91-2.725-1.46-.828.183-2.595.337-3.928.342-2.107.008-2.577-.125-3.598-1.013-1.228-1.069-1.948-3.454-1.948-6.455v-1.43l-2.43.198c-1.336.11-2.912.27-3.502.358-.898.133-1.264-.092-2.239-1.379-.64-.845-1.366-2.18-1.612-2.964l-.447-1.426h-3.027c-2.61 0-3.172-.12-4.08-.866-.854-.702-1.088-1.265-1.236-2.973l-.183-2.107h-3.403c-4.215 0-4.42-.182-4.606-4.108l-.137-2.88-3.419-.129c-4.373-.164-5.255-.754-4.912-3.287.125-.92.339-2.048.476-2.508.235-.785.134-.837-1.642-.842-1.04-.003-2.329-.22-2.863-.48-.856-.42-.972-.717-.972-2.484v-2.007l-1.555-.303c-2.89-.562-3.693-1.032-3.693-2.164 0-1.065 1.55-2.635 3.39-3.437 1.348-.587 1.09-.848-1.35-1.365-2.7-.572-3.595-.99-3.595-1.677 0-.285.306-.617.68-.736.374-.12 1.098-.525 1.609-.901l.928-.684-2.744-1.21c-3.081-1.357-4.984-2.977-4.606-3.92.135-.335.945-.872 1.8-1.193.855-.321 1.555-.724 1.555-.894 0-.17-1.023-.804-2.274-1.407-2.654-1.281-4.723-2.85-4.723-3.582 0-.591 1.94-1.649 3.026-1.649 1.498 0 1.162-.5-.998-1.487-2.33-1.065-4.212-2.671-3.827-3.267.125-.192 1.149-.471 2.276-.62l2.05-.27-2.124-.907c-2.184-.934-3.513-1.858-3.513-2.443 0-.183.656-.593 1.458-.91.802-.318 1.52-.634 1.595-.701.076-.068-1.027-1.165-2.451-2.438-3.008-2.69-4.6-5.045-4.42-6.542l.125-1.037 3.693-.186 3.693-.186-2.91-1.486c-2.9-1.482-4.42-3.003-4.925-4.929-.128-.487-.034-1.076.21-1.308.247-.236 2.325-.511 4.712-.623l4.27-.2-2.096-1.548c-1.694-1.25-2.259-1.963-2.948-3.716-1.214-3.089-1.215-4-.008-4.13.907-.098 5.566.935 7.095 1.572 1.23.513.744-.583-1.093-2.46-3.114-3.182-3.512-5.364-1.649-9.03l.846-1.664 2.231 2.034c2.096 1.912 3.419 2.619 2.935 1.57-1.736-3.77-2.342-5.648-2.502-7.762-.18-2.385.438-6.073 1.082-6.453.173-.103 2.18 2.239 4.46 5.203 2.279 2.964 4.325 5.389 4.547 5.389.221 0 .318-.21.215-.466-2.113-5.263-2.748-8.078-2.915-12.92-.14-4.059-.054-5.302.452-6.459l.626-1.432.707.884c.39.487 2.161 3.31 3.938 6.273 4.745 7.916 7.077 11.519 7.456 11.519.524 0 .41-.49-.635-2.749-.534-1.154-1.53-3.808-2.215-5.899-1.203-3.67-1.246-4.028-1.265-10.489-.019-6.55 0-6.731 1.041-8.752.583-1.136 1.493-2.453 2.021-2.927l.96-.863.213.883c.117.486.66 4.311 1.205 8.5C39.03 32.36 40.32 37.096 43.26 41.846c2.272 3.67 2.313 2.79.444-9.568-1.542-10.202-2.095-19.258-1.392-22.821.467-2.364 1.535-4.745 2.22-4.945.49-.144.11-1.307 9.143 27.952C63.855 65.44 64.261 66.487 71.023 77.33c8.399 13.47 22.846 28.204 35.673 36.382 7.867 5.015 19.95 9.83 25.72 10.246 2.618.19 2.96.129 4.306-.766.804-.534 3.346-2.78 5.649-4.99l4.186-4.018.52-3.331c.287-1.832 1.01-4.418 1.606-5.746.596-1.329 1.156-3.252 1.245-4.274.14-1.617.009-2.055-1.019-3.38-3.113-4.014-7.393-5.044-13.446-3.234-2.381.712-2.909 1.09-2.94 2.108-.023.723-.058.711-.412-.138-1.009-2.417.681-6.1 3.416-7.443.606-.298 2.064-1.476 3.24-2.618 2.717-2.64 4.68-3.336 10.107-3.585 3.493-.16 4.681-.05 8.23.77l4.148.956 2.406-.777c1.592-.513 2.492-.645 2.658-.388.138.213 1.562.495 3.164.626 3.71.304 4.662.495 4.662.94 0 .196-.437.462-.971.59-2.218.532-.437 2.01 2.422 2.01 2.65 0 1.048.33-3.36.692-2.964.244-4.604.544-4.991.915-.702.67-.332 1.366.726 1.366 1.07 0 9.882 2.148 11.556 2.816.749.3 1.602.735 1.896.968 1.554 1.233-3.269 1.418-6.695.256-2.112-.717-2.457-.741-3.662-.264l-1.33.528 2.691 1.818c6.484 4.382 12.603 8.834 12.603 9.17 0 1.057-4.02-1.038-9.718-5.063-7.546-5.33-8.941-6.114-8.941-5.019 0 .472 3.284 3.618 6.52 6.246 1.486 1.206 2.815 2.69 3.402 3.796 1.608 3.034 1.086 4.218-1.127 2.554-1.884-1.416-1.835-.552.137 2.433 1.074 1.625 1.952 3.055 1.952 3.178 0 .122-.24.538-.536.923-.511.669-.59.643-1.739-.558-.661-.693-1.307-1.16-1.434-1.038-.127.122.011 1.032.307 2.023.88 2.945.58 3.301-2.623 3.112-1.89-.112-2.941-1.047-4.23-3.764-1.214-2.562-1.88-3.034-2.116-1.5-.303 1.97 2.866 6.171 6.872 9.11 4.297 3.152 5.11 3.301 11.347 2.086 14.551-2.834 27.286-10.083 41.414-23.571 10.714-10.23 18.041-19.585 23.495-29.998 3.324-6.348 5.487-12.627 13.805-40.067 6.609-21.805 7.175-23.622 7.925-25.423l.452-1.084.588.803c.323.44.948 1.765 1.389 2.942.714 1.906.797 2.948.763 9.57-.037 7.008-.136 7.974-1.747 16.908-.939 5.211-1.625 9.609-1.525 9.772.345.562 1.348-.632 2.728-3.248 2.868-5.439 3.755-8.947 5.36-21.186.534-4.079 1.123-7.56 1.307-7.736.522-.499 2.592 2.168 3.346 4.31.89 2.53 1.195 8.706.617 12.488-.513 3.35-1.748 7.54-3.286 11.145-.56 1.312-1.018 2.525-1.018 2.694 0 1.353 1.893-1.42 8.158-11.955.912-1.533 2.19-3.598 2.841-4.59l1.183-1.802.615 1.06c.481.83.61 2.186.595 6.261-.02 4.983-.081 5.376-1.458 9.325-.791 2.267-1.438 4.232-1.438 4.366 0 .86 1.177-.395 4.892-5.213l4.207-5.456.472 1.09c1.32 3.05.986 7.545-.857 11.53-.517 1.116-.94 2.108-.94 2.205 0 .552 1.03-.05 2.995-1.751l2.225-1.927.725 1.59c1.756 3.85 1.4 5.92-1.544 8.959-1.195 1.235-2.08 2.335-1.964 2.445.115.11 1.332-.13 2.704-.536 1.372-.405 3.313-.854 4.314-.997l1.82-.26v1.249c0 2.144-2.056 5.724-4.063 7.076-.973.655-1.769 1.326-1.769 1.49 0 .165 1.734.287 3.854.27 4.371-.034 5.657.366 5.256 1.633-.59 1.867-1.926 3.302-4.468 4.8-1.48.873-2.693 1.671-2.696 1.773-.002.102 1.364.132 3.037.067 3.893-.153 4.384.247 3.381 2.757-.72 1.802-4.58 6.044-6.474 7.113-1.542.87-1.392 1.21.54 1.216 3.379.012 3.322 1.125-.142 2.804-2.49 1.206-2.69 1.65-.743 1.65 2.989 0 2.334 1.838-1.279 3.589-2.028.983-2.196 1.691-.47 1.985.601.102 1.282.473 1.514.824.563.855-1.436 2.847-4.285 4.27-2 .999-2.726 1.966-1.476 1.966.974 0 2.896 1.09 2.896 1.643 0 .791-2.308 2.52-4.969 3.72-1.33.6-2.417 1.189-2.417 1.309 0 .12.602.529 1.338.907 2.607 1.342 1.903 2.267-2.284 3.005l-2.307.406 2.307 1.674c3.553 2.578 3.19 3.897-1.329 4.823-1.865.382-2.044.504-1.805 1.223a18 18 0 01.46 1.774c.277 1.38-1.054 2.182-3.621 2.182h-2.015l.208 2.892c.202 2.821.183 2.901-.783 3.322-.544.237-2.49.547-4.326.69l-3.336.259v2.67c0 2.359-.112 2.772-.958 3.532-.889.798-1.17.842-3.887.607l-2.93-.254-.002 1.037c-.004 1.654-.714 3.657-1.556 4.385-.576.498-1.55.7-3.776.784l-3 .113-1.11 2.246c-.61 1.235-1.49 2.445-1.955 2.689-.517.271-2.148.408-4.193.35l-3.346-.092-.198 2.358c-.41 4.884-1.954 6.04-7.713 5.774l-3.765-.173-.453 1.934c-.667 2.851-2.3 4.077-5.98 4.49l-2.142.24-.266 1.719c-.399 2.581-.998 3.018-4.135 3.018-1.887 0-3.403-.27-5.256-.937-1.778-.64-2.688-.808-2.867-.531-.145.223-.483 1.583-.752 3.022-.553 2.957-1.378 4.02-3.119 4.02-.94 0-1.264.23-1.701 1.208-.71 1.584-2.309 2.975-4.775 4.153-1.916.916-2.268.955-8.358.92-3.497-.02-7.262-.146-8.368-.28l-2.011-.241-12.328-14.12c-11.9-13.63-12.383-14.13-13.927-14.372-2.03-.318-6.39-.363-7.506-.077-.496.127-6.192 6.27-13.604 14.672l-12.751 14.454h-7.648c-4.206 0-7.88.064-8.166.142-.284.078-1.13.018-1.878-.135z" overflow="visible" fill="#d3ae02"/><g transform="matrix(.78722 0 0 .75248 948.605 234.294)"><g fill="#4a0000"><path d="M-1003.594-197.778c.441-.002 3.482-.842 5.236-1.208 1.982-.413 3.951-.965 5.97-1.114 2.266-.167 4.607-.293 6.812.253.724.178 2.013.575 2.015.967.003.392-1.081 1.144-1.805 1.334-1.114.293-2.284-.314-3.432-.42-1.646-.153-3.297-.331-4.95-.313-1.852.021-3.694.27-5.534.475-1.866.208-5.58.769-5.58.769l1.562-.744zM-1004.123-193.61c.26-.062 6.83 1.888 7.41 1.984.578.097 5.348 1.793 7.822 3.122.945.508 2.646 1.834 2.646 1.834s-2.144.782-3.212.576c-1.607-.31-2.732-1.808-4.163-2.6-1.5-.83-3.072-1.523-4.624-2.252-1.947-.915-5.879-2.663-5.879-2.663z" style="isolation:auto;mix-blend-mode:normal;solid-color:#000;solid-opacity:1;marker:none" overflow="visible"/><path d="M-1003.48-195.329c.39-.1 4.782-1.381 7.24-1.71 2.365-.315 4.767-.235 7.152-.24 1.419-.002 3.774.714 3.289.96.141.348-2.723.454-4.162.418-2.253-.057-4.51-.005-6.761.09-2.257.096-6.759.482-6.759.482z" style="isolation:auto;mix-blend-mode:normal;solid-color:#000;solid-opacity:1;marker:none" overflow="visible"/></g><path d="M-981.725-205.529a1.041 1.041 0 00-.26.025c-.295-.145-3.962 1.078-3.962 1.078s-11.295 3.866-11.489 4.161c-.194.295-3.914.808-4.16.662-.246-.145-7.363-2.12-7.363-2.12a36.018 36.018 0 00-5.658-.39c-5.274.067-9.377 1.4-12.155 3.062-3.049 1.953-3.372 3.76-4.352 4.828a.247.247 0 01-.075.053l-.01-.009-.128.048c-.115.018-.242.018-.34.093l.025.027c-5.933 2.317-6.634 6.862-6.148 10.006.205 1.325 1.13 2.402 1.13 2.402l-.168-3.624s1.578-.137 2.35-.309c1.72-.382 3.294-1.342 5.036-1.598.947-.243 2.062-.014 3.941-.177 0 0 2.276.105 3.313.525 1.932.782 3.716 2.05 5.118 3.594 1.17 1.289 2.179 2.847 2.575 4.541.239 1.02.058 2.116-.177 3.137-.43 1.868-1.723 3.454-2.221 5.305-.755 2.801-1.124 8.63-1.124 8.63l22.195-.184 1.109-2.898c.279 1.866.47 3.806 1.5 5.038 1.391 2.174 2.726 4.405 4.935 5.751.77.008.714-.73.788-1.351.01-.076.02-.15.035-.222.483 1.281 1.242 1.43 1.97 1.703.637-.153 1.273-.269 1.905-.992.475-.24.34-1.748.307-2.01-.1-.804-2.032-4.303-2.547-5.004.354.276 1.321.844 1.317.112l2.321 3.121c.467.253.943.418 1.47.09 1.32-1.04.61-2.145.324-3.236 0 0-5.044-7.564-5.24-7.66-.197-.098-.546-1.124-.546-1.124 1.845 1.488 3.662 3.369 5.561 4.081 1.996.111 1-2.182.268-4.264l-3.705-4.975-3.05-1.941-7.686-7.058 2.103-.65c1.344.976 2.588 2.109 3.99 3.029 4.232 2.778 7.753 5.668 10.751 8.115 1.247 1.018 2.707 1.717 4.107 2.46 2.512 1.22 3.938 1.254 4.609.462l-21.752-15.742s-4.618-2.03-4.865-2.273a757.466 757.466 0 00-3.499-3.261l8.346 2.644 9.387 4.793c3.951 1.368 5.754.106 8.18-.393-.559-1.161-2.395-1.835-3.935-2.622l-12.514-3.255-9.958-1.85c3.106.267 7.268 1.626 7.688-.88 2.651.288 5.354.283 8.132-.148l.094-.588c1.504.292 3.005-.022 4.506-.37-2.139-.501-5.01-.424-7.696-.493-2.502.082-4.894.127-7.201.142l-4.703.176-3.97-.172 1.124-.546s2.84-.36 3.035-.46c.195-.098 2.737-1.094 2.737-1.094 2.631.485 2.368.11 3.234.078-.668-.917-2.237-.923-4.265-.464l-4.163.369 3.76-2.13c.284.039 5.544-1.662 5.183-1.747-.238-.055 4.557.12 4.557.12 2.211-.681 4.453-1.327 5.96-2.83l1.172-.79c.062-.048-.467-.54-1.067-.556z" style="isolation:auto;mix-blend-mode:normal;solid-color:#000;solid-opacity:1;marker:none" overflow="visible" fill="#730000"/><path d="M-1014.617-202.113c-5.274.067-9.377 1.4-12.155 3.062-3.05 1.953-3.373 3.76-4.353 4.828a.247.247 0 01-.075.053l-.01-.009-.127.049c-.115.017-.242.018-.34.093l.025.026c-5.933 2.318-6.634 6.862-6.148 10.006.205 1.325 1.13 2.403 1.13 2.403l-.168-3.625s1.579-.137 2.35-.308c1.72-.383 3.294-1.343 5.037-1.599.946-.243 2.061-.014 3.94-.177 0 0 2.276.105 3.313.525 1.932.782 3.716 2.051 5.118 3.594 1.17 1.289 2.179 2.847 2.575 4.541.239 1.02.058 2.116-.177 3.137-.43 1.868-1.723 3.454-2.221 5.305-.755 2.801-1.124 8.63-1.124 8.63l22.195-.184-5.464-24.238 5.475 24.208c.578-.554 1.154-1.11 1.098-2.868.058-.148.109-.297.152-.447.094-.326-.848-3.341-.848-3.341s1.077 1.712 1.068 1.39c-.037-1.31-.362-2.662-.565-3.995-.006-.041-1.502-3.33-1.508-3.371.048.03 1.584 3.307 1.63 3.332.71.39 1.147.163 1.276-.753.343-1.292-.143-2.58-.807-3.866l-4.686-5.116-1.57-4.253c1.616 1.57 3.577 5.459 4.575 2.887l2.432 5.106c.804 1.638 1.748 3.24 2.92 4.783.852 1.166 1.958 2.139 3.544 2.747.667-.49 1.322-.985.944-1.868-.176-1.683-1.045-3.207-2.002-4.712.378.499 1.855.649 1.853.304l-7.926-6.1-4.241-4.556 3.686 1.889c1.832-.284 3.644-.585 3.808-2.327 0 0-6.974-2.195-7.166-2.087-.347.193-3.087-2.27-2.834-2.653-.43-1.919.587-1.292 1.142-1.477 3.862.677 7.555 1.228 7.688-.88l-.178-.905-1.887-.16s-7.106-.275-7.229-.348l-1.034-.027-.907.154c.01.042.013.083.019.124l.013.061c-1.143-2.932-2.89-5.254-5.603-6.597a36.014 36.014 0 00-5.658-.39zm24 23.17c-.05-.099 2.293 2.484 2.367 2.606a.376.376 0 00.037.121l-.061-.096s-2.294-2.534-2.344-2.632z" style="isolation:auto;mix-blend-mode:normal;solid-color:#000;solid-opacity:1;marker:none" overflow="visible" fill="#997a00"/><path d="M-1000.577-185.081l4.987 6.215 4.257 7.178 3.15 8.61-.11 4.574c.001 1.524-1.04 1.79-1.823 2.367-1.732-1.118-2.5-2.887-3.733-4.343 0 0-4.473-17.538-4.474-17.78-.002-.243-2.254-6.821-2.254-6.821z" style="isolation:auto;mix-blend-mode:normal;solid-color:#000;solid-opacity:1;marker:none" overflow="visible" fill="#730000"/><path d="M-993.116-172.776s3.104 7.65 3.27 7.776c.508.385 1.535 9.154-.373 8.485-3.283.04-3.792-5.595-4.422-6.451l-1.35-11.113-.445-5.115zM-995.787-180.465c-.174.002 4.652 7.626 5.497 7.996-.66.3 2.771 6.708 3.632 7.311 1.896 1.27 3.877 2.669 4.325 1.782.475-1.926-.392-3.669-1.173-5.423l-7.368-8.73z" style="isolation:auto;mix-blend-mode:normal;solid-color:#000;solid-opacity:1;marker:none" overflow="visible" fill="#997a00"/><path d="M-1030.81-193.548c.139-.001 2.809-.384 2.907-.503.684-.826 4.869-4.784 5.828-4.47 1.736-.225 3.117.714 4.315 1.155 1.109.407 2.054.289 3.111.809l-3.219 6.117-1.797.704s.744.282.973.583c.348.457.78 1.183.46 1.66-.277.416-1.488.182-1.488.182l-3.192-.742-3.5-.256z" style="isolation:auto;mix-blend-mode:normal;solid-color:#000;solid-opacity:1;marker:none" overflow="visible" fill="#a00000"/><path d="M-1022.767-192.966s-.11-1.348.177-1.925c.293-.59.83-1.143 1.462-1.329.845-.248 1.883-.066 2.605.437.462.322.839 1.466.839 1.466s-.438 1.71-1.08 2.231c-.583.473-1.44.634-2.184.542-.681-.085-1.816-.97-1.816-.97z" style="isolation:auto;mix-blend-mode:normal;solid-color:#000;solid-opacity:1;marker:none" overflow="visible" fill="#cfcfcf" stroke="#000" stroke-width=".298" stroke-linecap="round" stroke-miterlimit="8"/><ellipse ry="1.444" rx="1.351" cy="-200.164" cx="-1019.147" style="isolation:auto;mix-blend-mode:normal;solid-color:#000;solid-opacity:1;marker:none" transform="rotate(-.35)" overflow="visible" fill="#4d1f00" stroke="#4d1f00" stroke-width=".212" stroke-linecap="round" stroke-miterlimit="8"/><path d="M-1036.666-181.603s-.925-1.077-1.13-2.403c-.499-3.22.247-7.913 6.59-10.173 0 0 1.68 2.619 2.912 3.51.942.324 4.454 2.028 2.786 3.357-1.878.164-2.994-.066-3.94.178-1.743.255-3.372 1.018-5.037 1.598-.616.215-1.83.697-1.83.697z" style="isolation:auto;mix-blend-mode:normal;solid-color:#000;solid-opacity:1;marker:none" overflow="visible" fill="#be9a01"/><path d="M-1023.953-194.04c.093-1.029-.068-1.972.608-2.499 1.185-.922 3.66-.423 4.505.042 0 0-2.641-.367-3.706.265-.746.443-1.407 2.191-1.407 2.191z" style="isolation:auto;mix-blend-mode:normal;solid-color:#000;solid-opacity:1;marker:none" overflow="visible" fill="#270f00" stroke="#270f00" stroke-width=".273" stroke-linecap="round" stroke-miterlimit="8"/><path d="M-1025.48-187.333l-.028.021c-1.879.164-2.994-.066-3.94.178-1.743.255-3.317 1.216-5.037 1.598-.771.172-1.913.652-1.913.652l-.268 3.281v0s-.925-1.077-1.13-2.403c-.499-3.22.247-7.913 6.59-10.173 0 0 0 0 0 0" style="isolation:auto;mix-blend-mode:normal;solid-color:#000;solid-opacity:1;marker:none" overflow="visible" fill="none" stroke="#000" stroke-width=".125" stroke-linecap="round" stroke-miterlimit="8"/><path d="M-995.818-161.793l-.01.03-.01-.045" style="isolation:auto;mix-blend-mode:normal;solid-color:#000;solid-opacity:1;marker:none" overflow="visible" fill="none" stroke="#bf0000" stroke-width=".273" stroke-linecap="round" stroke-miterlimit="8"/><path d="M-1031.278-191.986c-.193-.366-.427-.732-.02-1.102.498-.022.711.341.924.704 0 0-.53-.06-.735.078-.1.068-.17.32-.17.32z" style="isolation:auto;mix-blend-mode:normal;solid-color:#000;solid-opacity:1;marker:none" overflow="visible" fill="#2e2e2e" stroke="#2e2e2e" stroke-width=".125" stroke-linecap="round" stroke-miterlimit="8"/><path d="M-1036.72-182.228c.059-.213-.484-2.454.257-3.152.668-.63.689-1.557 2.881-2.574 0 0 1.185-.012 1.766-.114.686-.12 1.324-.442 2.006-.584 1.082-.225 2.188-.325 3.289-.419 1.082-.092 2.176-.262 3.256-.14 1.108.123 3.142.821 3.227.88.105.073.746.175.746.134 0 0-.042-.294-.158-.345-.199-.089-.623.194-.623.194" style="isolation:auto;mix-blend-mode:normal;solid-color:#000;solid-opacity:1;marker:none" overflow="visible" fill="none" stroke="#4d1f00" stroke-width=".25" stroke-linecap="round" stroke-miterlimit="8"/><ellipse style="isolation:auto;mix-blend-mode:normal;solid-color:#000;solid-opacity:1;marker:none" cx="-1019.147" cy="-200.164" rx=".9" ry=".962" transform="rotate(-.35)" overflow="visible" fill="#1c0b00" stroke="#4d1f00" stroke-width=".285" stroke-linecap="round" stroke-miterlimit="8"/><path style="isolation:auto;mix-blend-mode:normal;solid-color:#000;solid-opacity:1;marker:none" d="M-889.317-162.477c-42.342 28.786-82.364 56.87-115.53 48.03 13.271 15.05 24.57 28.738 37.922 44.738l2.554.322c1.405.176 6.189.344 10.63.37 7.737.047 8.184-.004 10.618-1.22 3.133-1.566 5.164-3.416 6.065-5.52.556-1.3.967-1.606 2.16-1.606 2.213 0 3.261-1.413 3.963-5.342.342-1.913.771-3.72.955-4.016.227-.369 1.383-.144 3.642.706 2.354.886 4.28 1.245 6.678 1.245 3.985 0 4.746-.58 5.252-4.011l.338-2.283 2.72-.32c4.676-.55 6.75-2.178 7.597-5.967l.575-2.571 4.783.23c7.316.353 9.276-1.183 9.797-7.673l.252-3.134 4.25.124c2.598.075 4.67-.106 5.327-.466.59-.325 1.708-1.933 2.484-3.574l1.41-2.985 3.81-.15c2.83-.11 4.065-.38 4.797-1.042 1.069-.968 1.971-3.63 1.976-5.827l.004-1.378 3.72.337c3.453.313 3.81.255 4.939-.806 1.074-1.01 1.217-1.56 1.217-4.694v-3.549l4.238-.344c2.33-.189 4.803-.601 5.495-.917 1.227-.558 1.25-.665.994-4.415l-.264-3.842h2.56c3.26 0 4.951-1.066 4.6-2.9-.136-.714-.4-1.775-.585-2.358-.304-.956-.076-1.117 2.293-1.625 5.739-1.231 6.2-2.983 1.688-6.409l-2.93-2.224 2.93-.54c1.883-.348 3.2-.727 3.984-1.15z" overflow="visible" fill="#ae8e01"/><path style="isolation:auto;mix-blend-mode:normal;solid-color:#000;solid-opacity:1;marker:none" d="M-862.03-305.506l-21.726 75.648c-2.844 7.73-7.058 16.055-12.346 24.372 14.22 13.72 17.89 27.995 7.32 43.02l58.73 1.524c2.142-.83 1.975-1.834-.44-3.134-.254-.137-.49-.276-.707-.41a28.372 28.372 0 00-1.698-.665c.324-.119.635-.237.943-.355.464-.324 1.56-.915 2.833-1.516 3.38-1.595 6.312-3.892 6.312-4.944 0-.734-2.44-2.184-3.678-2.184-.495 0-.746-.124-.78-.335a26.242 26.242 0 00-1.65-.263l3.174-1.358c.33-.214.705-.434 1.13-.656 3.62-1.891 6.158-4.538 5.443-5.674-.294-.467-1.159-.96-1.922-1.096-.485-.086-.846-.2-1.096-.34-1.098-.13-2.443-.142-4.038-.003 1.028-.173 2.544-.631 4.09-1.254.349-.313.891-.661 1.64-1.04 4.59-2.328 5.421-4.77 1.624-4.77-.857 0-1.378-.073-1.573-.232l-1.505-.088c.65-.19 1.252-.384 1.812-.58.412-.327 1.14-.751 2.21-1.293 4.401-2.23 4.474-3.71.181-3.726-1.298-.004-1.957-.134-2.005-.425-.29.026-.589.058-.9.1.368-.146.743-.32 1.12-.515.215-.212.58-.469 1.1-.776 2.405-1.42 7.309-7.058 8.223-9.453 1.274-3.334.65-3.866-4.295-3.663-1.212.05-2.252.054-2.96.026l-1.953.13 2.302-1.197c.597-.404 1.34-.888 2.178-1.404 3.229-1.992 4.926-3.899 5.676-6.38.51-1.683-1.124-2.214-6.677-2.17a44.763 44.763 0 01-3.482-.09c-.711.031-1.296.061-2.186.095.395-.29.729-.524 1.057-.752.382-.393 1.115-.995 1.962-1.592 2.55-1.797 5.16-6.554 5.16-9.403v-1.306a1.055 1.055 0 00-.454-.287l-1.857.278c-.322.049-.723.124-1.168.217-.108.041-.209.077-.322.123-.156.013-.244.025-.387.037-1.181.268-2.52.615-3.602.949-.653.202-1.248.358-1.783.485-.974.456-2.387 1.068-5.04 1.969 1.567-1.04 2.96-2.027 4.168-2.999a33.796 33.796 0 011.715-1.993c3.74-4.038 4.192-6.79 1.961-11.906l-.88-2.02-.05-.083-2.817 2.551a31.493 31.493 0 01-2.1 1.77l-5.498 5.183a29.651 29.651 0 004.072-5.398c.22-.549.54-1.311.915-2.157 2.342-5.296 2.766-11.27 1.089-15.323l-.483-1.168c-.044-.085-.09-.17-.136-.254l-5.325 7.224c-2.003 2.717-3.397 4.537-4.37 5.696l-5.206 7.282a60.973 60.973 0 003.926-7.975 262.18 262.18 0 011.262-3.878c1.75-5.248 1.828-5.77 1.852-12.392.015-4.224-.082-6.246-.415-7.457a14.474 14.474 0 00-.332-.85l-.008-.014-.781-1.408-1.503 2.395c-.827 1.318-2.45 4.062-3.609 6.1-4.782 8.412-7.549 13.08-9.003 15.092-1.971 2.995-3.981 5.596-5.983 7.343 1.979-2.405 3.711-5.218 5.184-8.25.21-.566.455-1.198.732-1.879 1.954-4.79 3.523-10.358 4.174-14.81.735-5.026.347-13.234-.784-16.597-.957-2.845-3.587-6.39-4.25-5.727-.234.234-.981 4.86-1.66 10.281-2.039 16.265-3.166 20.927-6.81 28.155-1.23 2.442-2.223 3.947-2.859 4.37-.322.43-.656.854-1.003 1.269.725-6.425 3.782-20.629 4.52-33.145.015-1.087.027-2.255.034-3.633a298.12 298.12 0 00-.01-5.527c-.34-4.884-1.364-8.966-3.492-11.404l-.227-.108zM-1148.009-305.173l-.172.082c-2.009 2.301-3.038 6.062-3.433 10.584-.01.37-.015.756-.017 1.153v.034a90.26 90.26 0 00.074 3.913v.028c.017.436.039.883.061 1.337l.014.253c.023.448.048.902.076 1.367l.004.05c.062 1.005.137 2.05.224 3.127l.008.107c.085 1.04.182 2.114.289 3.212l.049.483c.105 1.062.22 2.143.346 3.248l.011.102a253.541 253.541 0 00.519 4.197c.149 1.131.303 2.271.47 3.429a930.322 930.322 0 01.906 6.42l.08.587c.238 1.784.42 3.256.538 4.42.36 2.206.665 4.169.833 5.658-7.901-9.444-9.347-22.968-10.297-33.043-.635-5.059-1.235-9.49-1.413-10.428l-.001-.01c-.131-.466-.276-.886-.437-1.259l-1.088 1.023a4.098 4.098 0 00-.272.285v.001c-.045.051-.095.116-.142.173a11.42 11.42 0 00-.497.65 20.913 20.913 0 00-1.656 2.78c-.248.504-.45.922-.615 1.325a7.668 7.668 0 00-.39 1.24v.001a9.684 9.684 0 00-.16.993c-.169 1.484-.785 3.675-.773 8.027.014 4.83.653 7.138.942 9.062.225 1.497.612 2.789 1.28 4.923a114.175 114.175 0 002.211 6.358c.228.59.434 1.098.603 1.481.182.41.337.77.475 1.097.043.1.076.185.115.279.09.218.174.426.243.606l.083.225c.061.17.113.322.152.456.02.067.042.139.057.198.033.133.057.254.064.348v.004c1.254 2.325 2.671 4.486 4.24 6.393-4.385-3.828-8.803-11.729-12.764-18.95a.048.048 0 00-.003-.007c-.435-.754-.855-1.48-1.327-2.304a357.114 357.114 0 00-1.664-2.873 277.185 277.185 0 00-1.497-2.529c-.453-.756-.851-1.408-1.167-1.912a34.76 34.76 0 00-.41-.64 7.285 7.285 0 00-.263-.381l-.899-1.176-.795 1.903c-.241.577-.408 1.17-.512 1.97a18.352 18.352 0 00-.127 1.887l-.002.046a45.32 45.32 0 00-.01 1.28c.005.937.032 2.052.076 3.4.04 1.207.101 2.319.191 3.375a46.304 46.304 0 00.222 2.05 36.874 36.874 0 00.315 1.972l.034.171c.115.596.243 1.19.39 1.793.563 2.312 1.378 4.75 2.552 7.81.02.054.033.105.041.155l.002.013a.579.579 0 01.004.138 60.154 60.154 0 003.02 5.853l-8.145-11.393c-.32-.426-.643-.861-.973-1.31-.361-.491-.718-.97-1.065-1.432v-.001l-.206-.27a115.003 115.003 0 00-1.735-2.25v-.001c-.047-.06-.086-.106-.132-.164a79.331 79.331 0 00-.697-.867 29.739 29.739 0 00-1.259-1.46 4.698 4.698 0 00-.382-.372c-.097-.08-.16-.114-.188-.097a.48.48 0 00-.076.06.787.787 0 00-.077.085c-.101.129-.2.32-.297.562v.001a9.505 9.505 0 00-.405 1.392 20.2 20.2 0 00-.225 1.189 27.572 27.572 0 00-.291 2.68v.002c-.04.684-.054 1.362-.034 1.992.006.21.017.415.031.613.102 1.405.345 2.731.838 4.333.247.8.556 1.67.942 2.653a89.29 89.29 0 001.399 3.33 1.753 1.753 0 01.109.335.48.48 0 01.007.156 30.111 30.111 0 003.416 4.332l-10.127-9.548-1.042 2.147c-.148.304-.285.601-.41.891-.251.58-.456 1.132-.615 1.663a9.767 9.767 0 00-.336 1.536c-.064.495-.08.976-.048 1.448a6.753 6.753 0 00.155 1.052c.08.347.187.693.323 1.04.09.23.194.462.31.694.116.233.245.467.386.702.284.472.619.95 1.007 1.444.387.494.828 1.002 1.322 1.53.26.278.49.537.706.787.068.078.13.153.193.229.147.175.283.342.406.5.062.08.129.162.184.237a9.887 9.887 0 01.333.475l.004.007c1.107.864 2.36 1.743 3.747 2.663-2.512-.853-3.901-1.444-4.875-1.893-.214-.075-.468-.154-.717-.233-.14-.044-.274-.087-.423-.132a40.785 40.785 0 00-1.252-.351 54.53 54.53 0 00-1.328-.335 56.936 56.936 0 00-1.958-.432c-.223-.044-.43-.08-.636-.118-.16-.029-.326-.06-.474-.084-.256-.04-.478-.07-.687-.094-.078-.009-.173-.024-.243-.03a5.62 5.62 0 00-.293-.021l-.047-.003a1.997 1.997 0 00-.264.007c-.288.032-.522.101-.701.219a.904.904 0 00-.287.304c-.215.377-.214.98.003 1.91.036.154.078.318.127.491.048.174.102.356.163.55.06.192.126.395.198.608.145.426.314.894.507 1.408.218.582.427 1.078.651 1.52a7.484 7.484 0 001.193 1.739c.325.355.703.705 1.157 1.084.228.19.474.387.744.594l2.662 2.057-.354.017c.232.165.438.307.7.5a213.69 213.69 0 01-5.494-.264h-.004l-.273.014c-1.895.093-3.637.27-4.754.467-.446.078-.792.16-1.009.24a.66.66 0 00-.223.12.948.948 0 00-.195.311c-.052.127-.09.274-.115.432a2.648 2.648 0 00-.004.748c.012.084.028.167.048.247a7.33 7.33 0 001.29 2.679c.001 0 0 0 0 0 .733.973 1.745 1.878 3.076 2.756h.001c.19.125.386.25.59.374.407.248.84.496 1.3.742l3.696 1.975-.641.033.524.273-2.508-.168-2.066.109-4.691.246-.158 1.38c-.029.248-.022.515.019.797.02.142.049.287.086.437.225.897.754 1.935 1.565 3.08v.001c.54.763 1.204 1.572 1.987 2.418a34.23 34.23 0 001.261 1.295c.225.22.457.44.695.664.402.376.77.73 1.118 1.068l.327.322c.223.22.424.423.61.613l.296.305c.209.22.386.413.512.56l.015.017c.73.448 1.46.826 2.167 1.106-1.23-.166-2.294-.21-3.178-.157-.258.113-.488.217-.78.338a8.29 8.29 0 00-1.307.672c-.336.22-.544.416-.544.538 0 .097.026.201.078.311.01.021.024.043.035.064.037.067.082.136.136.208.02.026.036.05.058.077v.001a4.214 4.214 0 00.374.38c.147.132.317.269.51.408.192.14.406.284.64.43.235.146.49.295.764.446a25.44 25.44 0 001.868.922l2.697 1.205-.218.03c.056.017.108.034.164.05l-.918.054-1.631.225c-.716.099-1.4.24-1.924.39a5.148 5.148 0 00-.65.225c-.167.074-.278.145-.317.21a.494.494 0 00-.053.355c.012.068.034.141.066.217.064.153.166.321.301.5.136.178.305.368.504.564.099.099.205.199.319.3.34.303.74.618 1.187.93a18.395 18.395 0 002.538 1.474c.304.146.57.28.817.41.078.04.148.08.22.119.176.095.334.185.476.271.058.035.123.072.175.106a6.044 6.044 0 01.38.266l.01.007c1.061.368 2.044.64 2.776.763a23.855 23.855 0 00-2.589-.095.905.905 0 01-.164.057 1.92 1.92 0 01-.204.037l-.018.004c-.084.01-.176.019-.278.024a6.388 6.388 0 01-.335.008c-.172 0-.362.022-.56.062-.1.02-.203.044-.307.073-.934.256-2.001.837-2.57 1.382-.19.182-.323.36-.379.52a.474.474 0 00-.028.154c0 .122.041.26.12.414.039.077.087.157.145.24v.001c.058.083.124.17.199.26.074.09.158.182.25.277.637.666 1.666 1.456 2.926 2.243.36.225.74.45 1.134.672.395.222.805.44 1.226.653a26.68 26.68 0 011.215.654c.286.165.553.323.779.469.16.103.306.2.428.289l1.702.728c-.72.092-1.37.203-1.964.329l-.011.005a10.464 10.464 0 01-1.235.584c-1.087.427-2.115 1.14-2.286 1.586a1.033 1.033 0 00-.047.51c.082.546.548 1.198 1.323 1.888.259.23.552.465.876.7.324.237.68.475 1.065.713.77.475 1.655.948 2.633 1.399l3.485 1.606-.195.15c.113.043.22.085.335.127a31.951 31.951 0 00-.977.369l-.342.263a9.572 9.572 0 01-.526.377c-.554.37-1.16.703-1.517.822a1.417 1.417 0 00-.716.543.807.807 0 00-.148.435c0 .065.007.128.02.19.002.014.006.027.01.04a.898.898 0 00.065.18c.026.054.056.106.094.157l.01.013c.172.227.468.435.908.637.123.057.258.114.405.17l.02.009 58.58-1.52c-10.571-15.025-6.9-29.3 7.32-43.02-5.288-8.317-9.502-16.643-12.346-24.372l-21.623-75.287a3.672 3.672 0 00-.159-.335zM-998.147-166.07c-1.933-.787-4.508-1.942-4.657-2.089-.075-.074-1.67-.917-3.545-1.874-2.515-1.283-8.283-4.393-8.508-4.587-.01-.008.08-.393.198-.855.34-1.328.397-2.393.177-3.263-.755-2.988-3.728-6.285-7.014-7.78-.976-.445-1.58-.607-2.643-.708-1.306-.125-1.274-.108-1.055-.566.152-.319.244-.387.477-.354.159.023.673.07 1.142.107.47.036 1.51.225 2.31.42 1.628.397 2.646.478 2.941.233.5-.413-.027-1.727-.865-2.16l-.368-.19.857-.332.857-.33 1.56-2.96c.857-1.626 1.574-3.025 1.594-3.108.044-.188-.443-.362-1.772-.631-.575-.117-1.546-.426-2.16-.687-2.135-.91-3.283-1.046-4.33-.516-.818.414-2.259 1.575-3.753 3.026-1.186 1.15-1.267 1.206-1.964 1.354-.4.084-1.065.187-1.478.227-.659.065-.767.047-.882-.144-.111-.184 0-.408.714-1.482.465-.696 1.08-1.532 1.368-1.858 1.982-2.248 6.112-3.992 11.103-4.686 1.38-.192 5.898-.186 7.509.01 1.484.181 1.943.38 3.222 1.396 2.686 2.135 4.414 5.97 5.256 11.67.127.858 1.325 6.409 2.663 12.335 1.338 5.927 2.433 10.8 2.433 10.83 0 .102-.169.047-1.387-.448z" overflow="visible" fill="#be9a01"/><path style="isolation:auto;mix-blend-mode:normal;solid-color:#000;solid-opacity:1;marker:none" d="M-1121.232-162.14l-59.174 1.228c.704.366 1.866.708 3.66 1.105 3.099.686 3.427 1.033 1.715 1.813-2.34 1.066-4.307 3.153-4.307 4.568 0 1.505 1.02 2.13 4.691 2.876l1.975.402v2.668c0 2.348.149 2.744 1.235 3.3.68.348 2.316.635 3.637.64 2.256.006 2.384.075 2.087 1.118-.175.611-.447 2.11-.605 3.333-.436 3.366.684 4.15 6.24 4.368l4.343.171.173 3.827c.237 5.218.498 5.46 5.852 5.46h4.323l.231 2.8c.189 2.27.486 3.018 1.57 3.95 1.154.993 1.87 1.152 5.184 1.152h3.845l.567 1.895c.313 1.043 1.234 2.815 2.049 3.94 1.238 1.709 1.703 2.009 2.843 1.832.75-.117 2.752-.33 4.45-.476l3.085-.263v1.9c0 3.988.915 7.158 2.475 8.579 1.297 1.18 1.894 1.356 4.57 1.346 1.694-.007 3.94-.212 4.99-.456 2.573-.597 3.104-.3 3.462 1.941.593 3.708 3.695 5.924 8.304 5.93l1.826.004.15 2.576c.133 2.305.325 2.694 1.827 3.703 2.342 1.574 5.078 1.454 9.898-.432 2.192-.858 4.1-1.447 4.24-1.307.139.139.585 1.989.99 4.11.407 2.122.955 4.12 1.22 4.438.263.318 1.356.84 2.426 1.162 1.561.467 2.056.916 2.503 2.27 1.11 3.366 2.92 4.86 6.919 5.71h.001c7.79-.008 14.231.582 22.138-.413l15.66-18.765c9.967-11.943 13.618-16.282 15.518-17.956l6.743-8.018c-33.165 8.84-73.187-19.243-115.53-48.03z" overflow="visible" fill="#ae8e01"/><path style="isolation:auto;mix-blend-mode:normal;solid-color:#000;solid-opacity:1;marker:none" d="M-1148.278-305.422c-.05.007-.098.037-.157.055-.869.267-2.226 3.431-2.819 6.572-.198 1.048-.312 2.471-.357 4.172.175-2.562.403-4.151.737-5.204.935-2.948 2.168-5.286 2.569-4.87.181.187 5.21 17.366 11.176 38.173 5.965 20.806 11.457 39.259 12.205 41.005 2 4.672 5.86 12.247 8.32 16.33 1.187 1.967 2.158 3.752 2.158 3.965 0 .213-1.216 1.666-2.701 3.23-3.625 3.816-7.204 9.35-8.743 13.517-1.59 4.306-2.01 10.446-1.005 14.728 1.069 4.553 4.595 11.424 6.065 11.819.371.1 5.13 3.21 10.577 6.912 39.788 24.953 51.375 44.767 70.24 49.627l10.201 2.615c6.095-18.19 3.909-34.379 12.233-52.786 1.021-1.956-.914-3.447-1.45-3.858l-5.122 5.143c-2.925 2.937-6.154 5.921-7.175 6.632l-.04.027c-.433.362-.777.629-.978.744-1.444.83-1.819.88-4.146.55-9.595-1.359-21.99-6.548-32.757-13.715-7.89-5.251-13.125-9.633-21.402-17.91-12.368-12.368-21.09-24.081-28.697-38.587a82.202 82.202 0 01-1.33-2.579c-3.916-7.754-4.905-10.495-13.014-38.534-.985-3.321-1.955-6.592-3.13-10.572-10.398-35.237-10.976-37.272-11.458-37.201zM-861.765-306.139c-.01.003-.02.005-.03.01l-.56 1.407c-.953 2.393-1.673 4.808-10.069 33.785-10.565 36.467-13.313 44.81-17.536 53.246-4.082 8.155-9.001 15.822-15.13 23.525a174.308 174.308 0 01-14.52 16.398c-5.982 5.97-12.013 11.13-18.094 15.48-7.356 5.363-14.643 9.361-22.179 12.188a83.796 83.796 0 01-4.56 1.62c-2.835.913-6.995 1.867-10.368 2.445-.944.171-1.778.3-2.521.38-.854.104-1.583.164-2.12.164-2.292 0-5.963-2.086-9.461-5.377-4.611-4.338-6.096-6.606-6.918-10.569l-.36-1.709a59.844 59.844 0 01-.882-3.117l-3.35-1.373c-1.978-.81-3.657-1.415-3.73-1.342-.073.073.568 1.63 1.425 3.457 3.166 6.756 4.628 15.25 4.228 24.572l-.237 5.528 8.671 10.91c5.296 6.663 10.692 28.197 10.752 20.84.011-1.361 10.145-2.324 14.116-3.711 16.656-5.817 32.423-25.475 66.238-48.247l11.024-7.424 2.05-4.113c3.978-7.984 4.273-14.92.97-22.78-1.533-3.65-4.851-8.571-8.279-12.277l-2.765-2.99 2.001-3.31c2.631-4.352 6.896-12.687 8.672-16.951.78-1.873 6.322-20.477 12.314-41.34 5.992-20.865 10.948-37.99 11.014-38.056.27-.275 1.706 2.222 2.302 4.004.881 2.631 1.333 6.429 1.36 11.086.023-7.564-.117-9.013-.974-11.406-.56-1.564-1.353-3.324-1.764-3.91zm3.463 17.725c-.044 3.742-.343 7.982-.907 12.601-.246 2.013-.418 3.834-.47 4.837 1.225-7.437 1.338-9.694 1.377-17.438z" overflow="visible" fill="#d3ae02"/><path style="isolation:auto;mix-blend-mode:normal;solid-color:#000;solid-opacity:1;marker:none" d="M-1017.33-107.825s-10.885.704-16.031.551c-3.893-18.823 2.415-36.43 12.943-48.863 1.165-2.001 1.255-2.313 1.557-5.38.922-4.853 2.18-7.268 2.877-10.586.633-1.362 1.064-2.77 1.136-2.77.072 0 1.347.45 3.082 1.444 1.734.994 4.84 2.904 7.056 4.013l4.299 1.714.911 3.286c3.968 7.9 5.45 17.559 4.42 28.796-.332 15.428-.715 19.482-.715 27.747l-9.081.13-9.31-.036z" overflow="visible" fill="#ae8e01"/></g><path d="M-1065.762-68.958c-4-.851-5.81-2.344-6.92-5.71-.447-1.355-.942-1.804-2.503-2.271-1.07-.321-2.162-.844-2.427-1.163-.264-.318-.812-2.315-1.218-4.436-.406-2.122-.852-3.972-.992-4.111-.139-.14-2.047.449-4.239 1.307-4.82 1.887-7.556 2.006-9.898.432-1.502-1.01-1.694-1.398-1.827-3.703l-.15-2.576-1.826-.003c-4.608-.007-7.71-2.223-8.304-5.931-.358-2.24-.889-2.538-3.461-1.94-1.052.243-3.297.448-4.99.454-2.677.01-3.274-.165-4.57-1.346-1.56-1.42-2.475-4.59-2.475-8.578v-1.9l-3.087.263c-1.697.145-3.7.359-4.449.475-1.14.177-1.605-.122-2.843-1.832-.815-1.124-1.736-2.896-2.049-3.939l-.568-1.895h-3.844c-3.315 0-4.03-.159-5.183-1.151-1.085-.933-1.382-1.68-1.57-3.95l-.232-2.8h-4.323c-5.354 0-5.615-.243-5.852-5.46l-.173-3.828-4.344-.17c-5.555-.22-6.675-1.003-6.24-4.369.16-1.222.431-2.722.606-3.333.297-1.043.17-1.112-2.086-1.119-1.322-.004-2.96-.291-3.638-.639-1.087-.556-1.235-.952-1.235-3.3v-2.668l-1.975-.401c-3.672-.747-4.691-1.372-4.691-2.877 0-1.415 1.968-3.502 4.307-4.568 1.712-.78 1.384-1.127-1.715-1.813-3.43-.76-4.567-1.315-4.567-2.228 0-.38.389-.82.864-.979.475-.158 1.395-.697 2.043-1.197l1.18-.91-3.486-1.606c-3.914-1.804-6.332-3.957-5.85-5.21.17-.446 1.199-1.16 2.285-1.586 1.087-.427 1.976-.962 1.976-1.188 0-.227-1.3-1.068-2.89-1.87-3.37-1.702-5.999-3.787-5.999-4.76 0-.786 2.465-2.191 3.844-2.191 1.903 0 1.477-.665-1.267-1.977-2.96-1.415-5.35-3.55-4.862-4.34.159-.257 1.46-.628 2.892-.825l2.603-.359-2.697-1.206c-2.775-1.24-4.463-2.469-4.463-3.246 0-.244.833-.788 1.852-1.21 1.018-.422 1.93-.841 2.026-.931.096-.09-1.305-1.549-3.113-3.24-3.822-3.575-5.843-6.705-5.614-8.694l.158-1.378 4.691-.247 4.691-.247-3.696-1.976c-3.684-1.968-5.614-3.99-6.257-6.55-.162-.646-.043-1.429.266-1.738.314-.313 2.954-.679 5.987-.828l5.424-.266-2.662-2.056c-2.153-1.663-2.87-2.609-3.745-4.938-1.542-4.105-1.544-5.317-.01-5.49 1.151-.129 7.07 1.243 9.012 2.09 1.563.681.945-.774-1.388-3.268-3.956-4.23-4.462-7.13-2.095-12.002l1.075-2.21 2.834 2.703c2.662 2.54 4.342 3.479 3.728 2.085-2.206-5.009-2.975-7.505-3.178-10.315-.229-3.17.556-8.07 1.374-8.576.22-.136 2.769 2.976 5.665 6.915s5.495 7.162 5.776 7.162c.281 0 .404-.279.274-.62-2.684-6.993-3.49-10.735-3.704-17.17-.178-5.393-.068-7.045.575-8.583l.795-1.903.899 1.175c.494.647 2.745 4.398 5.001 8.336 6.028 10.52 8.99 15.308 9.472 15.308.665 0 .521-.65-.806-3.653-.679-1.533-1.945-5.061-2.815-7.839-1.527-4.879-2.365-9.133-2.352-13.809.01-3.986.746-9.076 2.068-11.762.741-1.509 1.896-3.26 2.568-3.89l1.22-1.146.27 1.174c.148.645.837 5.729 1.53 11.296 1.92 15.418 3.559 21.71 7.295 28.024 2.885 4.877 2.937 3.707.564-12.715-1.96-13.558-2.662-25.593-1.769-30.328.593-3.141 1.95-6.305 2.82-6.572.623-.191.14-1.736 11.615 37.147 12.932 43.824 13.446 45.215 22.036 59.627 10.669 17.9 29.02 37.48 45.315 48.349 9.993 6.665 25.343 13.062 32.672 13.616 3.325.252 3.76.17 5.47-1.018 1.022-.71 4.25-3.694 7.175-6.631l5.319-5.34.66-4.427c.365-2.435 1.282-5.871 2.04-7.637.757-1.765 1.469-4.32 1.581-5.678.179-2.15.011-2.731-1.293-4.492-3.955-5.335-9.392-6.703-17.081-4.298-1.719.538-2.85.828-3.365 1.317-.391.37-.353.9-.37 1.484a48.395 48.395 0 01-.088 1.545s-.223-.166-.51-1.107c-2.474-3.223.78-9.658 6.199-11.427.77-.396.907-1.523 2.401-3.04 3.452-3.509 7.142-4.404 14.037-4.735 2.208.073 4.262-.286 6.048.676 2.367 1.277 3.977 3.789 5.158 6.206 2.175 4.454 1.962 9.721 3.174 14.527 2.094 8.302 2.841 17.25 7.073 24.692 1.525 2.68 2.73 3.9 6.342 6.738 5.459 4.189 6.49 4.387 14.414 2.773 18.484-3.767 34.661-13.4 52.608-31.325 13.609-13.594 22.917-26.027 29.845-39.865 4.222-8.436 6.97-16.78 17.536-53.246 8.395-28.977 9.115-31.393 10.068-33.786l.573-1.44.747 1.066c.411.587 1.205 2.346 1.765 3.91.907 2.533 1.012 3.919.969 12.72-.046 9.31-.173 10.596-2.219 22.468-1.193 6.925-2.065 12.77-1.937 12.986.438.747 1.713-.84 3.465-4.316 3.643-7.228 4.77-11.89 6.808-28.155.68-5.42 1.427-10.047 1.661-10.28.663-.664 3.293 2.88 4.25 5.727 1.131 3.363 1.519 11.57.784 16.595-.651 4.453-2.22 10.02-4.174 14.812-.711 1.744-1.293 3.355-1.293 3.58 0 1.798 2.404-1.887 10.363-15.887 1.158-2.037 2.782-4.782 3.609-6.1l1.503-2.395.78 1.408c.612 1.103 1.065 5.527.998 8.321-.1 4.194-.344 7.145-2.094 12.392-1.004 3.014-1.826 5.625-1.826 5.803 0 1.141 1.495-.525 6.214-6.928l5.344-7.25.6 1.448c1.677 4.052 1.253 10.027-1.09 15.323-.655 1.483-1.192 2.801-1.192 2.93 0 .733 1.307-.067 3.804-2.328l2.826-2.56.921 2.111c2.231 5.117 1.778 7.87-1.96 11.908-1.52 1.64-2.643 3.102-2.496 3.249.146.146 1.692-.174 3.435-.712 1.742-.538 4.208-1.135 5.48-1.325l2.31-.347v1.66c0 2.85-2.61 7.607-5.16 9.404-1.235.871-2.246 1.763-2.246 1.981 0 .22 2.203.38 4.895.359 5.553-.045 7.186.486 6.677 2.17-.75 2.48-2.447 4.387-5.676 6.38-1.88 1.159-3.421 2.219-3.424 2.355-.003.136 1.733.176 3.857.089 4.946-.203 5.569.329 4.295 3.663-.914 2.395-5.818 8.032-8.223 9.453-1.96 1.157-1.769 1.608.685 1.617 4.292.015 4.22 1.495-.18 3.725-3.164 1.603-3.418 2.193-.945 2.193 3.797 0 2.966 2.442-1.624 4.77-2.576 1.306-2.789 2.247-.596 2.637.763.136 1.628.63 1.922 1.096.716 1.136-1.823 3.783-5.443 5.674-2.542 1.328-3.463 2.612-1.874 2.612 1.237 0 3.679 1.45 3.679 2.184 0 1.052-2.933 3.349-6.313 4.944-1.688.797-3.07 1.58-3.07 1.74 0 .16.765.702 1.7 1.205 3.31 1.783 2.417 3.012-2.902 3.993l-2.93.54 2.93 2.225c4.513 3.425 4.051 5.178-1.688 6.41-2.369.507-2.597.669-2.293 1.624.186.583.449 1.644.585 2.358.35 1.835-1.339 2.9-4.6 2.9h-2.56l.264 3.842c.257 3.75.233 3.857-.994 4.416-.692.315-3.165.727-5.495.916l-4.238.344v3.55c0 3.134-.143 3.683-1.217 4.693-1.13 1.06-1.486 1.119-4.938.806l-3.721-.337-.003 1.378c-.005 2.197-.908 4.86-1.977 5.827-.732.662-1.968.931-4.797 1.042l-3.81.15-1.41 2.985c-.776 1.641-1.894 3.25-2.484 3.574-.657.36-2.728.541-5.326.466l-4.251-.124-.252 3.134c-.52 6.49-2.48 8.026-9.797 7.674l-4.783-.23-.575 2.57c-.848 3.79-2.92 5.417-7.596 5.967l-2.721.32-.338 2.283c-.507 3.43-1.267 4.011-5.253 4.011-2.397 0-4.322-.359-6.677-1.245-2.258-.85-3.415-1.074-3.642-.706-.183.296-.613 2.104-.955 4.016-.702 3.929-1.75 5.342-3.962 5.342-1.194 0-1.605.306-2.161 1.605-.9 2.105-2.932 3.954-6.065 5.52-2.434 1.217-2.88 1.268-10.617 1.221-4.442-.027-9.226-.193-10.63-.37l-2.555-.322-15.66-18.764c-15.115-18.113-15.73-18.777-17.691-19.099-2.578-.423-8.117-.483-9.535-.103-.63.169-7.865 8.332-17.281 19.499l-16.198 19.208h-9.715c-5.343 0-10.01.085-10.372.189-.362.104-1.436.023-2.386-.179z" style="isolation:auto;mix-blend-mode:normal;solid-color:#000;solid-opacity:1;marker:none" overflow="visible" fill="none" stroke="#905128" stroke-width=".467" stroke-linecap="round" stroke-miterlimit="8" transform="matrix(.78722 0 0 .75248 948.605 234.294)"/></g><path d="M107.549 183.21l49.94-55.315 49.94 55.316z" style="isolation:auto;mix-blend-mode:normal;solid-color:#000;solid-opacity:1;marker:none" color="#000" overflow="visible" fill="#fff" stroke="#fff" stroke-width="1.9998331599999999" stroke-linecap="square" paint-order="markers stroke fill"/><g color="#000" paint-order="markers stroke fill"><path d="M107.549 183.21h33.293l-16.647-18.438z" style="isolation:auto;mix-blend-mode:normal;solid-color:#000;solid-opacity:1;marker:none" overflow="visible" fill="#006636"/><path style="isolation:auto;mix-blend-mode:normal;solid-color:#000;solid-opacity:1;marker:none" d="M140.842 183.21h33.293l-16.646-18.438z" overflow="visible"/><path d="M174.135 183.21h33.294l-16.647-18.438zM124.195 164.772h33.294l-16.647-18.439zM157.489 164.772h33.293l-16.647-18.439z" style="isolation:auto;mix-blend-mode:normal;solid-color:#000;solid-opacity:1;marker:none" overflow="visible" fill="#006636"/><path d="M140.842 146.333h33.293l-16.646-18.438z" style="isolation:auto;mix-blend-mode:normal;solid-color:#000;solid-opacity:1;marker:none" overflow="visible" fill="#bf0000"/><path style="isolation:auto;mix-blend-mode:normal;solid-color:#000;solid-opacity:1;marker:none" d="M140.842 146.333h33.293l-16.646 18.439zM124.195 164.772h33.294l-16.647 18.439zM157.489 164.772h33.293l-16.647 18.439z" overflow="visible" fill="#d3ae02"/></g><g transform="matrix(-.16793 0 0 .16526 227.458 207.576)" style="marker:none" fill="#d3ae02" stroke="#966c09" stroke-width="3.768" stroke-linecap="round" stroke-miterlimit="8"><g style="marker:none" stroke-width="5.364" id="c" opacity="1" fill="#d3ae02" fill-opacity="1" stroke="#966c09" stroke-linecap="round" stroke-linejoin="miter" stroke-miterlimit="8" stroke-dasharray="none" stroke-dashoffset="0" stroke-opacity="1"><path style="marker:none" d="M869.765 974.693c-.555 4.535-8.322 62.982-24.01 126.3-8.839 35.674-20.192 72.895-34.187 102.89-34.444 73.826-53.682 67.655-58.11 69.99-4.11 2.168-32.19 28.392-35.955 31.194-9.447 7.029-17.313 30.524-31.472 37.619-6.739 3.377-14.193 6.782-22.534 10.234-2.863 1.11-29.033 10.415-29.502 10.402-1.84.477-2.22 6.237-2.22 6.237l19.55-.332s7.603.207 23.371-2.946c8.004-1.6 15.425-6.698 23.255-10.82 12.803-6.739 29.05-14.001 42.108-19.609 8.625-3.704 13.502-8.044 19.627-11.246 8.489-4.585-3.78-1.956 14.023-5.592 0 0 72.725-74.995 94.287-121.506 18.943-40.86 27.941-132.192 27.941-132.192z" transform="matrix(-1.61155 -.14145 -.14214 1.58836 1561.321 -1163.397)" fill-rule="evenodd" stroke-width="3.364"/><g stroke-width="3.809"><path style="marker:none" d="M36.953 158.363l-2.07-28.115M36.552 152.854c10.173 23.762 28.718 39.522 5.055 90.127-19.814-36.672-15.882-38.832-5.055-90.127zM86.724 176.35l16.934-28.064M90.747 168.853c-9.332 14.866-35.137 17.871-28.55 73.87 28.102-30.815 28.415-25.902 28.55-73.87z" transform="matrix(1.42836 -.02427 .02583 1.40794 -80.268 17.798)"/><g><path style="marker:none" d="M77.707 139.896l10.107-26.383M79.689 134.331c-26.127 29.943-39.4 27.558-30.084 81.895 28.058-18.891 28.39-38.172 30.084-81.895z" transform="matrix(1.42185 -.13552 .13869 1.40161 -101.4 34.16)"/></g></g><g stroke-width="3.809"><path d="M62.687 169.925c-20.523 35.19-33.857 36.006-15.797 86.493 24.232-24.93 21.37-43.7 15.797-86.492zM19.294 214.102l-9.266-37.333" style="marker:none" transform="matrix(1.41211 -.21212 .2164 1.39208 -117.693 49.868)"/><path d="M17.641 207.658c19.39 18.832 36.867 22.822 24.91 71.422-17.238-27.268-24.36-24.928-24.91-71.422z" style="marker:none" transform="matrix(1.41211 -.21212 .2164 1.39208 -117.693 49.868)"/><g><path style="marker:none" d="M86.724 176.35l16.934-28.064M90.747 168.853c-9.332 14.866-35.137 17.871-28.55 73.87 28.102-30.815 28.415-25.902 28.55-73.87z" transform="matrix(1.42824 .03274 -.032 1.40777 -72.44 82.996)"/></g></g><g stroke-width="3.809"><path style="marker:none" d="M62.687 169.925c-20.523 35.19-33.857 36.006-15.797 86.493 24.232-24.93 21.37-43.7 15.797-86.492zM19.294 214.102l-9.266-37.333" transform="matrix(1.4049 -.25426 .25914 1.385 -125.24 119.038)"/><path style="marker:none" d="M17.641 207.658c19.39 18.832 36.867 22.822 24.91 71.422-17.238-27.268-24.36-24.928-24.91-71.422z" transform="matrix(1.4049 -.25426 .25914 1.385 -125.24 119.038)"/><g><path d="M86.62 179.812l11.771-30.78M90.747 168.853c-9.332 14.866-35.137 17.871-28.55 73.87 28.102-30.815 28.415-25.902 28.55-73.87z" style="marker:none" transform="matrix(1.42855 -.00999 .01134 1.40811 -78.99 150.798)"/></g></g><g stroke-width="3.809"><path d="M62.687 169.925c-20.523 35.19-33.857 36.006-15.797 86.493 24.232-24.93 21.37-43.7 15.797-86.492zM19.294 214.102l-9.266-37.333" style="marker:none" transform="matrix(1.3907 -.32104 .32688 1.37106 -134.925 200.046)"/><path d="M17.641 207.658c19.39 18.832 36.867 22.822 24.91 71.422-17.238-27.268-24.36-24.928-24.91-71.422z" style="marker:none" transform="matrix(1.3907 -.32104 .32688 1.37106 -134.925 200.046)"/><g><path style="marker:none" d="M86.724 176.35l16.934-28.064M90.747 168.853c-9.332 14.866-35.137 17.871-28.55 73.87 28.102-30.815 28.415-25.902 28.55-73.87z" transform="matrix(1.421 -.1486 .14658 1.40034 -103.142 237.902)"/></g></g><g stroke-width="3.809"><path style="marker:none" d="M62.687 169.925c-20.523 35.19-33.857 36.006-15.797 86.493 24.232-24.93 21.37-43.7 15.797-86.492zM19.294 214.102l-9.266-37.333" transform="matrix(1.37777 -.37113 .37768 1.35836 -133.89 274.082)"/><path style="marker:none" d="M17.641 207.658c19.39 18.832 36.867 22.822 24.91 71.422-17.238-27.268-24.36-24.928-24.91-71.422z" transform="matrix(1.37777 -.37113 .37768 1.35836 -133.89 274.082)"/><g><path d="M86.188 178.869l11.932-30.684M90.747 168.853c-9.332 14.866-35.137 17.871-28.55 73.87 28.102-30.815 28.415-25.902 28.55-73.87z" style="marker:none" transform="matrix(1.41135 -.2232 .2205 1.39048 -106.009 313.625)"/></g></g><g stroke-width="3.809"><path style="marker:none" d="M62.687 169.925c-20.523 35.19-33.857 36.006-15.797 86.493 24.232-24.93 21.37-43.7 15.797-86.492zM19.294 214.102l-9.266-37.333" transform="matrix(1.3281 -.5177 .52634 1.30953 -145.179 359.478)"/><path style="marker:none" d="M17.641 207.658c19.39 18.832 36.867 22.822 24.91 71.422-17.238-27.268-24.36-24.928-24.91-71.422z" transform="matrix(1.3281 -.5177 .52634 1.30953 -145.179 359.478)"/><g><path d="M86.952 176.356L99.5 145.973M90.747 168.853c-9.332 14.866-35.137 17.871-28.55 73.87 28.102-30.815 28.415-25.902 28.55-73.87z" style="marker:none" transform="matrix(1.38083 -.36582 .36594 1.3599 -111.719 393.648)"/></g></g><g stroke-width="3.809"><path d="M61.663 171.708c-18.749 36.166-32.025 37.644-11.478 87.17 22.963-26.102 19.171-44.708 11.478-87.17zM19.294 214.102l-9.266-37.333M17.641 207.658c19.39 18.832 36.867 22.822 24.91 71.422-17.238-27.268-24.36-24.928-24.91-71.422z" style="marker:none" transform="matrix(1.25471 -.67225 .68307 1.23732 -143.906 443.82)"/><g><path style="marker:none" d="M88.057 176.733l9.77-31.343M90.747 168.853c-9.332 14.866-35.137 17.871-28.55 73.87 28.102-30.815 28.415-25.902 28.55-73.87z" transform="matrix(1.3065 -.57753 .57703 1.28467 -117.14 482.36)"/></g></g><g stroke-width="3.809"><path d="M56.966 169.499c-18.319 36.385-31.577 38.02-10.446 87.3 22.653-26.373 18.641-44.932 10.446-87.3zM19.294 214.102l-9.266-37.333M17.641 207.658c19.39 18.832 36.867 22.822 24.91 71.422-17.238-27.268-24.36-24.928-24.91-71.422z" style="marker:none" transform="matrix(1.1779 -.79582 .80837 1.1617 -134.217 517.245)"/><g><path style="marker:none" d="M86.355 176.512l13.026-30.091M90.747 168.853c-9.332 14.866-35.137 17.871-28.55 73.87 28.102-30.815 28.415-25.902 28.55-73.87z" transform="matrix(1.23836 -.71002 .71154 1.2165 -104.674 553.273)"/></g></g><g stroke-width="3.809"><path style="marker:none" d="M56.966 169.499c-18.319 36.385-31.577 38.02-10.446 87.3 22.653-26.373 18.641-44.932 10.446-87.3zM19.294 214.102l-9.266-37.333" transform="matrix(.99082 -1.0136 1.02916 .9775 -131.3 618.366)"/><path style="marker:none" d="M17.641 207.658c19.39 18.832 38.57 20.708 26.613 69.308-17.238-27.269-26.063-22.814-26.613-69.308z" transform="matrix(.99082 -1.0136 1.02916 .9775 -131.3 618.366)"/><g><path d="M86.288 176.42l12.259-30.32M90.747 168.853c-9.332 14.866-35.137 17.871-28.55 73.87 28.102-30.815 28.415-25.902 28.55-73.87z" style="marker:none" transform="matrix(1.06781 -.9427 .94845 1.0466 -96.089 647.742)"/></g></g><g style="marker:none" stroke-width="4.69" stroke-linecap="butt"><path d="M50.314 169.463c-18.32 36.385-24.925 38.055-3.794 87.336 22.653-26.373 11.989-44.969 3.794-87.336z" style="marker:none" transform="matrix(.73835 -.88502 .89474 .72447 -36.248 709.757)"/><g style="marker:none"><g style="marker:none"><path d="M19.294 214.102L-.127 180.545M17.641 207.658c19.39 18.832 34.139 21.889 22.182 70.49-17.238-27.27-21.632-23.996-22.182-70.49z" style="marker:none" transform="matrix(.73835 -.88502 .89474 .72447 -36.248 709.757)"/></g><g style="marker:none"><path style="marker:none" d="M86.288 176.42l12.259-30.32M90.747 168.853c-9.332 14.866-38.5 19.636-31.912 75.634 28.101-30.814 31.777-27.666 31.912-75.634z" transform="matrix(.80514 -.83262 .83375 .78566 -5.89 731.25)"/></g></g></g></g><use height="100%" width="100%" transform="matrix(-1 0 0 1 833.334 0)" xlink:href="#c" style="marker:none"/></g><g style="marker:none" stroke="#000" stroke-width="15.541"><path style="marker:none" d="M205.693 218.238c-25.139 4.622-70.192 13.08-95.327 17.728 0 0-1.417.381-1.674-.975-.318-1.294 1.1-1.552 1.1-1.552 26.218-4.776 72.366-13.298 98.597-18 .493-.127.925-.192 1.295-.256 4.744-1.394 4.92-2.63 6.81-5.917.612-.745 1.1-1.551 3.26-1.567 3.768.033 7.916 1.546 8.621 5.122.644 3.577-2.3 6.254-6.24 7.826-1.97.818-2.777.206-3.583-.282-3.044-2.447-3.484-3.617-8.604-2.838-.37.065-.801.13-1.233.194z" fill-rule="evenodd" stroke-width=".40131159"/><path style="marker:none" d="M122.83 218.268c.3.06.625.13.95.2l3.013.584h0c25.18 4.549 52.967 9.942 78.152 14.464 0 0 1.462.144 1.224 1.506-.159 1.324-1.578 1.065-1.578 1.065-26.245-4.786-55.08-10.506-81.312-15.366-.339-.037-.643-.09-.917-.142z" fill-rule="evenodd" stroke-width=".40173485000000003"/><g transform="matrix(-.00134 .00713 .00713 .00134 66.547 217.163)"><path style="isolation:auto;mix-blend-mode:normal;solid-color:#000;solid-opacity:1;marker:none" d="M-1118.45 2800.567l-138.762 4995.453c-93.708-624.09-142.41-1255.543-601.305-1850.168z" id="d" color="#000" clip-rule="nonzero" display="inline" overflow="visible" visibility="visible" opacity="1" color-interpolation="sRGB" color-interpolation-filters="linearRGB" vector-effect="none" fill="#000" fill-opacity="1" fill-rule="nonzero" stroke="#000" stroke-width="15.541" stroke-linecap="butt" stroke-linejoin="miter" stroke-miterlimit="4" stroke-dasharray="none" stroke-dashoffset="0" stroke-opacity="1" paint-order="markers stroke fill" color-rendering="auto" image-rendering="auto" shape-rendering="auto" text-rendering="auto"/><use xlink:href="#d" transform="matrix(-1 0 0 1 -2236.9 0)" width="100%" height="100%" style="marker:none"/></g><path style="isolation:auto;mix-blend-mode:normal;solid-color:#000;solid-opacity:1;marker:none" d="M106.609 216.91c-8.48-1.842-15.405-3.353-15.387-3.36.018-.005 5.39.844 11.939 1.888l15.64 2.49a784.1 784.1 0 013.745.6c.006.004-.069.388-.166.855-.097.467-.176.857-.176.867 0 .01-.04.016-.088.013-.049-.002-7.027-1.51-15.507-3.353z" color="#000" overflow="visible" stroke="#e6e6e6" stroke-width=".13229" stroke-miterlimit="8" paint-order="markers stroke fill"/></g></svg>